<svg version="1.1" xmlns="http://www.w3.org/2000/svg" xmlns:xlink="http://www.w3.org/1999/xlink" width="181.56925" height="330.1443" viewBox="0,0,181.56925,330.1443"><g transform="translate(-213.19555,-30.84307)"><g data-paper-data="{&quot;isPaintingLayer&quot;:true}" fill-rule="nonzero" stroke-linejoin="miter" stroke-miterlimit="10" stroke-dasharray="" stroke-dashoffset="0" style="mix-blend-mode: normal"><g stroke="#000000" stroke-linecap="butt"><path d="M307.76518,340.83532v-95.29492h29.49199v95.29492z" fill="#73fffc" stroke-width="2"/><path d="M307.43943,340.21738l1.32626,-93.78573c0,0 5.20288,68.11227 6.3799,77.52842c0.2602,2.08162 2.52228,2.78987 2.52228,2.78987l18.60659,13.13896z" fill="#59a9e6" stroke-width="0"/></g><g stroke="#000000" stroke-linecap="butt"><path d="M268.4238,338.4128v-95.29492h29.49199v95.29492z" fill="#73fffc" stroke-width="2"/><path d="M268.09805,337.79486l1.32626,-93.78573c0,0 5.20288,68.11227 6.3799,77.52842c0.2602,2.08162 2.52228,2.78987 2.52228,2.78987l18.60659,13.13896z" fill="#59a9e6" stroke-width="0"/></g><path d="M371.63632,338.87c0,11.6628 -14.51982,21.11737 -32.43092,21.11737c-17.9111,0 -32.43092,-9.45457 -32.43092,-21.11737c0,-2.33142 -0.03339,-13.76009 1.08979,-15.13837c4.49546,-5.51647 17.81784,5.26144 32.14847,5.26144c17.9111,0 31.62358,-1.78588 31.62358,9.87692z" fill="#000082" stroke="#000000" stroke-width="2" stroke-linecap="butt"/><path d="M369.75004,336.1377c0,6.30841 -13.89058,10.1901 -31.80169,10.1901c-17.9111,0 -30.16566,-2.95748 -30.16566,-9.26589c0,-1.26107 -0.03338,-12.52602 1.0898,-13.27153c4.49546,-2.98386 15.55258,5.7726 29.88321,5.7726c17.9111,0 30.99434,0.26631 30.99434,6.57472z" fill="#2e0048" stroke="#000000" stroke-width="0" stroke-linecap="butt"/><path d="M328.64938,338.22519c0,11.6628 -14.51982,21.11737 -32.43092,21.11737c-17.9111,0 -32.43092,-9.45457 -32.43092,-21.11737c0,-2.33142 -0.03339,-13.76009 1.08979,-15.13837c4.49546,-5.51647 17.81784,5.26144 32.14847,5.26144c17.9111,0 31.62358,-1.78588 31.62358,9.87692z" fill="#000082" stroke="#000000" stroke-width="2" stroke-linecap="butt"/><path d="M326.7631,335.49289c0,6.30841 -13.89058,10.1901 -31.80169,10.1901c-17.9111,0 -30.16566,-2.95748 -30.16566,-9.26589c0,-1.26107 -0.03338,-12.52602 1.0898,-13.27153c4.49546,-2.98386 15.55258,5.7726 29.88321,5.7726c17.9111,0 30.99434,0.26631 30.99434,6.57472z" fill="#2e0048" stroke="#000000" stroke-width="0" stroke-linecap="butt"/><g stroke="#000000" stroke-linecap="butt"><path d="M333.69255,221.13967c17.77824,28.20023 26.64162,54.55913 19.7969,58.87424c-6.84472,4.31511 -26.80558,-15.04762 -44.58382,-43.24785c-17.77824,-28.20023 -26.64162,-54.55913 -19.7969,-58.87424c6.84472,-4.31511 26.80558,15.04762 44.58382,43.24786z" fill="#0d69be" stroke-width="2"/><path d="M369.65185,253.25451c7.63087,12.10425 3.75195,28.26193 -8.66381,36.08919c-12.41576,7.82725 -28.66677,4.36007 -36.29764,-7.74419c-7.63087,-12.10426 -3.75195,-28.26193 8.66381,-36.08919c12.41576,-7.82726 28.66677,-4.36006 36.29764,7.74419z" fill="#faddbf" stroke-width="2"/><path d="M329.81336,264.57453c7.63087,12.10426 43.46735,16.00589 31.05159,23.83315c-12.41576,7.82725 -28.66676,4.36006 -36.29764,-7.74419c-7.63087,-12.10426 -2.38483,-28.19321 5.24604,-16.08895z" fill="#ef8b89" stroke-width="0"/></g><g stroke="#000000" stroke-linecap="butt"><path d="M335.22917,235.69584c0,13.80271 10.04743,36.74388 4.95001,46.45977c-6.2338,11.88187 -28.61241,9.09579 -38.9397,9.09579c-13.66287,0 -32.94407,4.17018 -38.34426,-14.83216c-2.01935,-7.10576 4.35457,-32.37264 4.35457,-40.7234c0,-30.68249 15.2177,-55.55556 33.98969,-55.55556c18.77199,0 33.98969,24.87307 33.98969,55.55556z" fill="#0d69be" stroke-width="2"/><path d="M283.96554,251.27246c0,13.80271 62.04198,20.54886 56.94455,30.26474c-6.2338,11.88186 -28.61241,9.09579 -38.9397,9.09579c-13.66287,0 -32.94406,4.17018 -38.34425,-14.83215c-2.01936,-7.10576 4.35457,-32.37265 4.35457,-40.7234c0,-9.45244 3.34855,-28.59801 5.51953,-29.96813c5.94391,-16.76415 10.4653,25.13995 10.4653,46.16315z" fill="#10157d" stroke-width="0"/></g><g stroke-linecap="butt"><g><g stroke="#000000"><g><path d="M216.60901,114.24962c2.82715,-46.7053 42.98114,-82.27557 89.68644,-79.44842c46.7053,2.82715 82.27557,42.98114 79.44842,89.68644c-2.82715,46.7053 -42.98114,82.27557 -89.68644,79.44842c-46.7053,-2.82715 -82.27557,-42.98114 -79.44842,-89.68644z" fill="#faddbf" stroke-width="2"/><path d="M216.89189,113.39565c0.9096,-15.02678 11.1194,-40.41316 15.81441,-43.34901c0.53618,-0.33529 6.31422,-8.54439 14.22681,-14.79425c9.83481,-7.76816 22.19155,-13.84086 22.78931,-13.60725c7.79881,3.04779 -21.41312,63.67746 -21.70452,88.99604c-0.0007,0.06038 3.209,19.93189 4.798,20.46779c2.59368,4.90815 7.937,19.66887 18.36702,27.45342c19.43756,14.50742 47.66335,22.60129 46.15221,23.01648c-2.41727,0.66414 -14.94297,1.86958 -20.99481,1.50324c-46.7053,-2.82715 -82.27557,-42.98114 -79.44842,-89.68644z" fill="#ef8b89" stroke-width="0"/><path d="M385.24907,123.99864c-0.70236,11.6031 -2.52002,15.5168 -2.95918,13.6351c-0.44803,-1.91967 0.40661,-9.80698 -8.14094,-15.16885c-2.07124,-1.29929 -10.5668,5.6479 -13.21522,4.25721c-1.66351,-0.87352 -8.02153,-10.67972 -9.89086,-11.47014c-1.307,-0.55266 -12.93354,7.61001 -14.30331,7.07563c-3.41624,-1.33278 -11.2794,-12.07713 -14.98401,-12.96058c-2.04001,-0.4865 -9.98181,11.26725 -12.07164,10.88642c-2.6951,-0.49111 -9.32104,-12.65474 -12.05343,-12.82013c-7.26655,-0.43985 -7.88972,6.54605 -13.48086,12.22481c-3.63326,3.69021 -13.17426,-13.87323 -16.56034,-9.63487c-4.20512,5.26353 -8.35944,10.33149 -12.81021,13.6683c-3.4918,2.61785 -12.72968,-10.8859 -15.75859,-8.44667c-14.62439,11.77724 -23.43024,19.26323 -22.33227,1.12461c2.20779,-36.47339 43.70482,-5.583 86.71161,-24.54087c41.16566,-18.14627 84.05704,-4.30336 81.84925,32.17003z" fill="#ef8b89" stroke-width="0"/></g><path d="M387.28229,115.79562c-1.41888,23.44043 5.99319,9.09404 -11.39386,-1.55153c-2.12766,-1.30271 -10.83515,5.63167 -13.55529,4.23663c-1.70856,-0.87625 -8.24901,-10.69349 -10.16867,-11.48696c-1.34219,-0.55478 -13.26089,7.59019 -14.66744,7.05359c-3.50801,-1.33835 -11.59461,-12.09621 -15.39784,-12.98563c-2.09432,-0.48978 -10.22588,11.25247 -12.37116,10.8683c-2.76661,-0.49544 -9.58578,-12.67077 -12.39013,-12.84052c-7.45796,-0.45145 -8.08637,6.53415 -13.81524,12.20457c-3.72276,3.68479 -13.54204,-13.89549 -17.01026,-9.66211c-4.30711,5.25735 -8.56241,10.31921 -13.12468,13.64928c-3.57927,2.61256 -13.08105,-10.90717 -16.18557,-8.47252c-14.98948,11.75515 -24.01456,19.22787 -22.91661,1.08924c2.20779,-36.47339 44.69944,-78.69997 90.54238,-75.92502c45.84292,2.77495 84.6622,47.34932 82.45441,83.82272z" fill="#873412" stroke-width="2"/><path d="M387.10527,114.61998c-1.41888,23.44043 5.99319,9.09404 -11.39386,-1.55153c-2.12766,-1.30271 -10.83515,5.63167 -13.55529,4.23663c-1.70856,-0.87625 -8.24901,-10.69349 -10.16868,-11.48696c-1.34219,-0.55478 -13.26089,7.59019 -14.66744,7.05359c-3.50801,-1.33835 -11.59461,-12.09621 -15.39784,-12.98563c-2.09432,-0.48978 -10.22588,11.25247 -12.37116,10.8683c-2.76661,-0.49544 -9.58578,-12.67077 -12.39013,-12.84052c-7.45796,-0.45145 -8.08637,6.53415 -13.81524,12.20457c-3.72276,3.68479 -13.54204,-13.89549 -17.01026,-9.66211c-4.30711,5.25735 -8.56241,10.31921 -13.12469,13.64927c-3.57927,2.61256 -13.08105,-10.90717 -16.18557,-8.47252c-14.98948,11.75515 -24.01456,19.22787 -22.91661,1.08924c2.20779,-36.47339 44.84296,-5.51411 88.94832,-24.40546c42.21721,-18.08262 86.25624,-4.17023 84.04845,32.30315z" fill="#741d23" stroke-width="0"/></g><path d="M306.57351,42.47822c0.05794,0.11935 0.10345,0.25581 0.1386,0.40506c0.07838,0.26437 0.11395,0.54618 0.09919,0.83686c0.03986,1.14082 -0.1967,2.50605 -0.18148,2.99997c0.02,0.64892 1.23328,-0.67404 1.86968,-0.54562c0.38983,0.07866 0.74311,0.808 1.05367,0.55959c1.88467,-1.50754 3.65779,-4.26559 6.30924,-2.47889c0.87811,0.59172 0.56081,1.92808 1.08306,2.64567c0.0439,0.06032 2.6127,0.0213 3.17502,0.58924c0.96894,0.97861 0.18257,2.26706 0.6447,3.28949c0.14787,0.32717 0.60016,-0.40673 0.93679,-0.53157c1.49819,-0.55557 4.11117,-1.76138 5.80048,-0.65556c0.89012,0.58268 0.61245,2.18054 1.09175,2.65225c0.84026,0.82698 2.01249,-1.24577 3.09683,-1.70851c1.49971,-0.64002 2.18337,0.10348 3.3719,1.06318c0.20499,0.16553 0.22237,4.15305 1.25262,5.37526c0.5791,0.68701 1.70042,-0.75732 2.5981,-0.71826c0.89565,0.03897 2.75067,-0.57238 3.1655,-0.44346c0.83212,0.2586 1.46961,1.73281 2.24613,1.33743c3.96463,-2.01863 8.77901,-0.2758 6.84744,4.57648c-0.24444,0.61408 1.35417,-0.493 1.96742,-0.24648c0.23774,0.09555 1.52857,1.1763 1.76055,1.10419c1.51733,-0.47172 2.49817,-1.13074 4.08665,-1.03847c1.31921,0.07664 2.54048,0.8958 2.76328,2.29229c0.11709,0.73392 -1.12384,2.059 -0.39314,2.19464c1.72239,0.31978 4.39938,1.20851 3.47519,3.6947c-1.00322,2.6988 -3.44467,4.94452 -5.88641,2.70192c-0.84717,-0.77806 -2.37515,1.10114 -3.4014,0.58164c-1.31472,-0.66552 -1.84325,-2.99017 -1.7008,-4.1603c0.06585,-0.54092 -1.09391,0.30846 -1.62439,0.18381c-0.71422,-0.16782 -0.99038,-1.27755 -1.71732,-1.37665c-1.62602,-0.22166 -1.55367,3.17809 -5.38559,2.15814c-1.13103,-0.30105 -2.37962,-2.32903 -2.69212,-3.44791c-0.1814,-0.64948 1.60416,-2.55731 1.45277,-2.67225c-0.36759,-0.27909 -2.11306,2.70469 -2.54732,2.82082c-1.04469,0.27936 -2.12112,-0.50881 -3.08927,-0.99058c-0.85538,-0.42563 -1.2654,1.81678 -2.22082,1.81205c-0.84407,-0.00419 -9.30718,-1.04676 -9.61149,-1.5691c-0.37102,-0.6368 -0.71513,-1.76744 -0.51484,-2.46629c0.07199,-0.25116 1.08531,-1.77891 0.90286,-1.76977c-0.64753,0.03243 -4.38833,3.18036 -6.35715,-0.19886c-1.07063,-1.8376 1.1879,-3.53315 1.28926,-5.15414c0.06259,-1.00104 -1.20811,1.60537 -1.73042,2.46164c-0.40117,0.65768 -1.51124,1.21622 -2.2858,1.19435c-2.67805,-0.07557 -1.78486,-2.58736 -2.2544,-4.13295c-0.21668,-0.71327 -1.61086,0.49875 -2.23457,0.09047c-1.52499,-0.99826 -1.21948,-2.14641 -1.26437,-3.6841c-0.02056,-0.70408 -0.71175,2.67705 -2.36342,2.74393c-0.66984,0.02712 -1.6631,-1.04976 -1.96041,-0.44889c-1.44741,2.92533 -0.8168,4.17781 -4.57684,3.46827c-0.36283,-0.06846 -1.02401,0.73513 -1.40268,0.48725c-4.19106,-2.74348 -0.37954,-7.96891 -0.01556,-11.96232c0.12839,-1.40865 -0.66789,-3.57447 0.60037,-4.20077c0.4786,-0.70923 1.30911,-1.15417 2.22499,-1.09873c0.81209,0.04915 1.51009,0.48074 1.92943,1.10896c0.06973,0.08133 0.13002,0.17095 0.17854,0.27092z" fill="#ba587e" stroke="none" stroke-width="0.5"/></g><g stroke="#000000"><path d="M329.92691,153.3376c-1.72557,28.50677 -15.75984,42.41473 -32.29811,41.41365c-16.53827,-1.00109 -29.31783,-16.53216 -27.59227,-45.03892c1.72557,-28.50677 16.53133,-50.8045 33.0696,-49.80342c16.53827,1.00109 28.54634,24.92192 26.82079,53.42868z" fill="#f0f0f0" stroke-width="2"/><path d="M284.43979,130.96597c-6.0006,27.92143 30.41231,63.99607 13.87403,62.99497c-16.53827,-1.00109 -29.31783,-16.53216 -27.59227,-45.03892c1.72557,-28.50677 22.39332,-58.32219 13.71824,-17.95607z" fill="#9a99ff" stroke-width="0"/></g><path d="M312.84905,167.27937c-0.95599,15.79331 -6.41132,28.313 -12.18482,27.96353c-5.77348,-0.34948 -9.67885,-13.4358 -8.72286,-29.22909c0.95599,-15.79331 6.41132,-28.313 12.18482,-27.96353c5.77348,0.34948 9.67885,13.4358 8.72286,29.22909z" fill="#000000" stroke="none" stroke-width="0"/><g stroke="#000000"><path d="M326.74149,123.05513c3.83321,10.48057 -10.733,13.49779 -26.41457,12.54855c-15.68155,-0.94923 -26.84985,-6.2753 -21.73238,-15.59836c4.86919,-8.87073 8.07149,-20.96955 23.75304,-20.02031c15.68155,0.94923 20.74078,13.08199 24.39389,23.0701z" fill="#a100fe" stroke-width="2"/><path d="M325.84031,122.6457c3.68144,10.47138 -10.39613,13.51818 -25.54299,12.60132c-15.14686,-0.91686 -25.92477,-6.2193 -20.96199,-15.55172c4.72201,-8.87964 6.48812,1.35654 21.63497,2.2734c15.14686,0.91686 21.36153,-9.30235 24.86999,0.67701z" fill="#99008e" stroke-width="0"/></g><g data-paper-data="{&quot;index&quot;:null}" stroke="#000000"><path d="M366.77905,102.72394c16.53827,1.00109 28.54634,24.92192 26.82079,53.42868c-1.72557,28.50676 -16.28519,42.38294 -32.82346,41.38185c-16.53827,-1.00109 -28.79248,-16.50035 -27.06692,-45.00711c1.72557,-28.50677 16.53133,-50.8045 33.0696,-49.80342z" fill="#f0f0f0" stroke-width="2"/><path d="M393.01514,155.28545c-1.72557,28.50676 -16.28519,42.38294 -32.82346,41.38185c-16.53827,-1.00109 23.96013,-32.42016 21.37127,-60.86152c-3.74273,-41.11779 13.17775,-9.02709 11.45219,19.47968z" fill="#9a99ff" stroke-width="0"/></g><path d="M362.70051,140.05089c5.77348,0.34948 9.67885,13.4358 8.72286,29.22909c-0.95599,15.79331 -6.41132,28.313 -12.18482,27.96353c-5.77348,-0.34948 -9.67885,-13.4358 -8.72286,-29.22909c0.95599,-15.79331 6.41132,-28.313 12.18482,-27.96353z" data-paper-data="{&quot;index&quot;:null}" fill="#000000" stroke="none" stroke-width="0"/><g data-paper-data="{&quot;index&quot;:null}" stroke="#000000"><path d="M340.52434,122.85019c4.83121,-9.47455 11.31696,-20.90846 26.99853,-19.95924c15.68155,0.94923 17.40109,13.34596 21.16474,22.73926c3.95555,9.87225 -7.77363,13.8123 -23.4552,12.86308c-15.68155,-0.94923 -29.77748,-5.70141 -24.70808,-15.64309z" fill="#a100fe" stroke-width="2"/><path d="M341.46833,122.55245c4.68656,-9.4833 9.62321,1.41092 24.77007,2.32778c15.14686,0.91686 18.13477,-9.03154 21.75123,0.35284c3.80086,9.86289 -7.53795,13.82656 -22.68481,12.9097c-15.14686,-0.91686 -28.75413,-5.63947 -23.8365,-15.59034z" fill="#99008e" stroke-width="0"/></g><path d="M253.28666,163.48456c-3.13666,5.27326 -7.80322,8.28481 -10.42306,6.72646c-2.61984,-1.55834 -2.20087,-7.09645 0.93579,-12.36972c3.13666,-5.27326 7.80322,-8.28481 10.42306,-6.72646c2.61984,1.55834 2.20087,7.09645 -0.93579,12.36972z" fill="#000000" stroke="none" stroke-width="0"/></g><g><g><path d="M283.79,259.94714c-14.68633,-3.45466 -21.52663,-12.85787 -18.78787,-27.54148c2.14198,-11.48421 17.38152,-21.27095 32.06786,-17.81629c14.68641,3.45463 23.12286,15.45424 19.70268,29.99423c-0.53484,2.27378 -1.70329,4.21349 -2.7539,5.99507c-5.66775,9.61078 -17.83905,12.2829 -30.22874,9.36849z" fill="#485e84" stroke="#000000" stroke-width="2" stroke-linecap="butt"/><path d="M283.44957,216.60652c0,0 -1.74363,5.4855 -0.45694,7.021c12.34225,14.72898 25.73703,18.94776 30.27377,20.00502c1.03074,0.24021 1.8121,-0.56621 1.8121,-0.56621c0,0 -0.26525,2.09709 -1.45562,4.56629c-1.26665,2.62747 -3.53414,5.68727 -6.03913,7.46776c-2.86143,2.0338 -10.67194,4.94999 -10.67194,4.94999l-20.89096,-1.55772c0,0 -8.04152,-10.78374 -8.6587,-12.86124c-0.60466,-2.03525 -0.73641,-4.617 -0.98697,-7.35637c-0.38901,-4.25327 0.79336,-8.63606 2.29531,-11.09348c1.91686,-3.13622 5.50105,-6.12042 8.81175,-8.01823c3.08122,-1.76626 5.96733,-2.55668 5.96733,-2.55668z" fill="#343545" stroke="none" stroke-width="0" stroke-linecap="butt"/><path d="M280.17712,240.82343c0,0 0.20162,-9.01984 3.4306,-13.03902c4.08751,-5.08789 14.70437,-12.52999 14.70437,-12.52999" fill="none" stroke="#000000" stroke-width="1" stroke-linecap="round"/><path d="M316.76182,237.49527c0,0 -3.06794,6.45892 -5.78522,9.78881c-2.74317,3.36171 -11.1342,8.23445 -11.1342,8.23445" fill="none" stroke="#000000" stroke-width="1" stroke-linecap="round"/><path d="M269.22248,241.41655c0,0 0.06865,-9.26184 3.76436,-13.45596c5.67094,-6.43574 14.87982,-13.48499 14.87982,-13.48499" fill="none" stroke="#000000" stroke-width="1" stroke-linecap="round"/><path d="M268.52516,226.14857c0,0 15.76782,-7.131 30.80513,1.66805c16.47147,9.63824 12.2047,26.35007 12.2047,26.35007" fill="none" stroke="#000000" stroke-width="1" stroke-linecap="round"/><path d="M265.12705,235.04563c0,0 17.20477,-4.56709 30.49067,3.16882c10.90893,6.3519 8.63172,20.76486 8.63172,20.76486" fill="none" stroke="#000000" stroke-width="1" stroke-linecap="round"/><path d="M307.81385,225.61901c-0.85403,-0.84725 -1.00257,-2.08214 -0.33186,-2.7582c0.67069,-0.67614 1.25199,-0.132 2.106,0.71524c0.85403,0.84725 1.65734,1.67675 0.98663,2.35283c-0.67069,0.67614 -1.90677,0.53737 -2.76075,-0.30989z" fill="#8fbbbe" stroke="none" stroke-width="0" stroke-linecap="butt"/><path d="M312.22994,231.39458c-0.5855,-0.13775 -0.89267,-0.96133 -0.68608,-1.83958c0.20659,-0.87826 0.41219,-1.20831 0.99769,-1.07061c0.5855,0.13775 1.06937,1.00289 0.86276,1.88114c-0.20659,0.87826 -0.5889,1.16676 -1.17439,1.02903z" fill="#8fbbbe" stroke="none" stroke-width="0" stroke-linecap="butt"/><path d="M302.85719,220.79246c-0.85127,-0.29902 -1.37972,-1.00139 -1.18041,-1.56887c0.19927,-0.56747 0.92627,-0.25509 1.77752,0.04389c0.85127,0.29902 1.50441,0.4713 1.30511,1.0388c-0.19927,0.56747 -1.05099,0.78517 -1.90223,0.48618z" fill="#8fbbbe" stroke="none" stroke-width="0" stroke-linecap="butt"/><path d="M279.19874,218.03069c0,0 10.18069,-1.01643 17.4649,1.07162c4.12977,1.18384 7.36091,3.65288 9.78961,5.55223c2.14784,1.67966 5.32596,7.43513 7.30008,12.09356c1.45346,3.42974 2.07343,6.3077 2.07343,6.3077" fill="none" stroke="#000000" stroke-width="0.5" stroke-linecap="round"/><path d="M312.95698,223.54752c0,0 -2.81479,10.19093 -6.05917,14.51425c-2.73346,3.64251 -11.7849,9.81791 -11.7849,9.81791" fill="none" stroke="#000000" stroke-width="1" stroke-linecap="round"/><path d="M290.00959,245.001c0,0 2.67721,-9.28767 4.98423,-13.1772c4.05069,-6.82927 12.79732,-12.47489 12.79732,-12.47489" fill="none" stroke="#000000" stroke-width="1" stroke-linecap="round"/></g><g stroke="#000000" stroke-linecap="butt"><path d="M262.06467,239.4815c28.61006,17.1109 29.53876,26.7126 25.38561,33.6568c-4.15314,6.9442 -30.71297,-1.29755 -59.32303,-18.40845c-28.61006,-17.1109 40.17729,-39.10613 44.33042,-46.05032c6.38141,-3.09935 7.09709,3.38798 3.36279,10.30254c-4.60527,8.52726 -16.20126,19.03688 -13.75579,20.49947z" fill="#0d69be" stroke-width="2"/><path d="M289.76298,241.96235c12.28017,7.34443 16.12814,23.5095 8.59471,36.1057c-7.53344,12.5962 -23.59555,16.8536 -35.87572,9.50917c-12.28017,-7.34443 -16.12814,-23.50951 -8.59469,-36.10571c7.53344,-12.5962 23.59555,-16.8536 35.87572,-9.50916z" fill="#faddbf" stroke-width="2"/><path d="M259.35128,270.07597c12.28017,7.34443 46.00673,-5.3833 38.47329,7.2129c-7.53344,12.5962 -23.59555,16.8536 -35.87572,9.50916c-12.28017,-7.34443 -14.87775,-24.06651 -2.59758,-16.72207z" fill="#ef8b89" stroke-width="0"/></g></g></g></g></svg>