<svg version="1.1" xmlns="http://www.w3.org/2000/svg" xmlns:xlink="http://www.w3.org/1999/xlink" width="39.2817" height="43.02639" viewBox="0,0,39.2817,43.02639"><defs><radialGradient cx="245.90731" cy="181.18819" r="2.04545" gradientUnits="userSpaceOnUse" id="color-1"><stop offset="0" stop-color="#ffcf4f"/><stop offset="1" stop-color="#ffcf4f" stop-opacity="0"/></radialGradient><radialGradient cx="253.07158" cy="182.79512" r="2.04545" gradientUnits="userSpaceOnUse" id="color-2"><stop offset="0" stop-color="#ffcf4f"/><stop offset="1" stop-color="#ffcf4f" stop-opacity="0"/></radialGradient></defs><g transform="translate(-225.25941,-155.74269)"><g data-paper-data="{&quot;isPaintingLayer&quot;:true}" fill-rule="nonzero" stroke="none" stroke-linecap="butt" stroke-linejoin="miter" stroke-miterlimit="10" stroke-dasharray="" stroke-dashoffset="0" style="mix-blend-mode: normal"><path d="M233.8077,196.08304c-1.16829,-0.77151 -2.63441,-1.38787 -2.63441,-1.38787c0,0 -0.1423,-0.96292 -0.13616,-2.14823c0.01005,-1.9374 0.19541,-4.51662 0.48746,-4.72466c0.133,-0.09475 -0.18005,-0.28516 -1.39641,-0.12657c-0.65339,0.0852 -2.30131,0.40932 -2.88352,0.45486c-0.45857,0.03587 -1.06425,-2.68626 -0.97424,-6.51318c0.00352,-0.15028 0.0471,-5.96136 0.31485,-6.0901c0.47656,-0.22914 2.35297,5.07417 3.48611,5.20502c0.09883,0.01141 0.73331,0.12179 0.77752,-3.28227c0.05383,-4.14639 -0.56745,-11.9877 -0.43781,-11.97441c1.17075,0.11993 6.59264,-1.43023 7.74744,-1.0711c0.15911,0.04947 -0.07578,-1.70957 -0.41346,-3.21912c-0.25074,-1.12088 -0.64024,-2.11785 -0.52658,-2.06471c1.07334,0.50172 1.47762,1.27011 2.32991,2.19923c0.42932,0.46803 1.11954,0.88835 1.77329,1.51646c0.97798,0.93963 7.35406,2.77106 10.68674,3.03331c6.17129,0.48562 10.4344,-1.17298 10.4344,-1.17298c0,0 -1.86722,2.77286 -5.11748,7.48023c-0.18561,0.26881 -3.15799,-0.26467 -4.71379,-0.32956c-0.90899,-0.03791 -0.74233,0.29385 -0.82772,0.47036c-0.158,0.32655 1.04694,1.65585 2.04123,2.95146c0.88281,1.15033 1.61257,2.50097 1.48218,2.78813c-0.48674,1.07192 0.10541,1.17222 -0.87189,1.62508c-0.83444,0.38666 -3.63242,2.15294 -4.45312,2.09172c-1.02912,-0.07677 -2.09553,-0.66753 -2.31422,-0.93865c-1.87823,-2.32848 -3.31996,-8.1883 -4.5211,-10.62951c-0.73578,-1.49539 -1.27799,-1.34833 -1.27799,-1.34833c0,0 -1.95991,7.37905 -1.62116,10.31617c0.51852,4.49599 3.37409,5.13328 3.0954,5.12334c-0.41514,-0.01482 2.08173,-0.13117 3.69169,-0.45039c1.29634,-0.25702 1.70309,-0.70846 1.70309,-0.70846c0,0 0.41236,0.1816 0.65599,0.50972c0.19052,0.25658 0.28043,0.68916 0.43495,0.94005c0.46461,0.75429 0.99745,1.59545 1.27379,1.80131c0.06901,0.05141 0.82129,-0.02995 1.47524,-0.28344c0.93743,-0.36338 1.94197,-0.88507 1.94032,-0.73973c-0.00729,0.63993 -0.6895,1.45233 -0.80587,1.98879c-0.10472,0.48279 -1.76445,2.2627 -1.75291,2.28935c0.23989,0.55402 -0.01494,1.00222 -0.06537,1.93871c-0.03414,0.63379 0.17309,1.8278 0.10617,2.1528c-0.07057,0.34278 -15.47321,4.21174 -15.63687,4.18541c-0.35064,-0.05643 -1.31778,-1.04077 -2.55563,-1.8582z" data-paper-data="{&quot;noHover&quot;:false,&quot;origItem&quot;:[&quot;Path&quot;,{&quot;applyMatrix&quot;:true,&quot;segments&quot;:[[[237.77734,198.58463],[-0.35515,0],[0.16576,0]],[[252.50831,191.97987],[-0.01522,0.34964],[0.01443,-0.3315]],[[252.05892,189.87372],[0.06699,0.63117],[-0.09899,-0.9326]],[[251.81249,187.95257],[0.32486,0.50888],[-0.01563,-0.02448]],[[253.17357,185.42278],[-0.02669,0.4933],[0.02966,-0.54814]],[[253.65018,183.33868],[0.09447,0.63295],[-0.02146,-0.14376]],[[251.94483,184.41394],[0.8678,-0.5077],[-0.60537,0.35417]],[[250.53097,184.93258],[0.0763,0.03979],[-0.30553,-0.15934]],[[248.9,183.30766],[0.57854,0.67091],[-0.19242,-0.22314]],[[248.31982,182.45159],[0.22886,0.22305],[-0.29267,-0.28525]],[247.68298,182.09223],[[246.10757,183.07331],[1.23904,-0.45971],[-1.5388,0.57093]],[[242.5064,184.12247],[-0.41222,0.05132],[0.27672,-0.03445]],[[238.57481,179.5091],[1.22621,4.35652],[-0.80105,-2.846]],[238.57339,169.01636],[[240.05532,170.14331],[-0.964,-1.35951],[1.57371,2.21938]],[[246.47595,178.81904],[-2.2243,-2.00051],[0.25898,0.23292]],[[248.86871,179.543],[-1.02824,0.0877],[0.82001,-0.06994]],[[252.66353,177.76273],[-0.76241,0.51432],[0.89293,-0.60236]],[[253.26756,176.02624],[-0.31027,1.13564],[0.08312,-0.30423]],[[251.36629,173.52071],[1.05435,0.99547],[-1.1875,-1.12119]],[[248.89198,170.94303],[-0.10412,0.34751],[0.05627,-0.18783]],[[249.70131,170.27277],[-0.90347,0.10698],[1.54635,-0.18311]],[[254.33361,169.91581],[-0.14055,0.29489],[2.46113,-5.16395]],[258.20358,161.72424],[[248.10192,164.54934],[6.17006,-0.50097],[-3.33202,0.27053]],[[237.10241,163.25511],[1.11484,0.77233],[-0.74525,-0.51629]],[[235.11488,162.03832],[0.49823,0.39388],[-0.98908,-0.78191]],[[232.46927,160.23549],[1.13942,0.32483],[-0.12067,-0.0344]],[[233.31731,162.19026],[-0.42562,-1.0668],[0.57322,1.43673]],[[234.23833,165.30213],[0.16495,0.02357],[-1.1972,-0.17111]],[[226.7757,167.57732],[1.17494,-0.06758],[-0.1301,0.00748]],[[229.12146,179.29908],[-0.60558,-4.10229],[0.49716,3.36784]],[[228.77687,182.67528],[0.09938,-0.00444],[-1.13953,0.05083]],[[224.60637,178.0816],[0.4341,-0.30194],[-0.2439,0.16964]],[[225.26118,184.12638],[-0.02039,-0.14893],[0.51911,3.79261]],[[227.24929,190.38544],[-0.44705,0.10826],[0.56758,-0.13745]],[[230.02186,189.47577],[-0.63156,0.18792],[1.17571,-0.34982]],[[231.41857,189.37667],[0.11626,-0.11468],[-0.25529,0.2518]],[[231.68009,194.1124],[-0.29788,-1.91439],[0.18224,1.17122]],[232.15234,196.20963],[[234.96671,197.15815],[-1.27602,-0.5761],[1.35199,0.6104]]],&quot;closed&quot;:true,&quot;fillColor&quot;:[1,1,1]}]}" fill="#a75bc8" stroke-width="0.5"/><path d="M240.62584,196.8089l-9.82126,-31.60962l6.94081,-1.02299l8.09425,31.2604z" fill="#bc6dde" stroke-width="0"/><path d="M226.80802,187.95237c-0.81449,-2.62144 -1.34587,-7.98191 -1.34587,-7.98191c0,0 0.37377,-4.04934 1.02703,-4.97472c0.3432,-0.48615 2.25271,4.31509 2.91872,4.01468c1.06133,-0.47872 0.90779,-5.9153 0.90779,-5.9153l5.64448,25.37778l-5.30705,-3.84855l-0.12418,-6.487c0,0 -3.52038,0.46041 -3.72092,-0.18501z" fill="#bc6dde" stroke-width="0"/><path d="M252.43329,193.87503l-8.03553,-30.72725c0,0 1.99625,0.85304 3.37633,1.20968c1.55465,0.40177 5.49042,1.08175 5.49042,1.08175l1.97963,7.43533c0,0 -2.45403,-1.05751 -2.57955,-0.16805c-0.15871,1.1247 2.78176,5.1327 2.78176,5.1327c0,0 -1.50282,3.17252 -1.71561,5.16243c-0.15653,1.46376 1.06088,1.54528 0.64567,3.03387c-0.32263,1.15662 -1.89525,2.63647 -2.06629,3.1842c-0.52097,1.66831 0.12318,4.65531 0.12318,4.65531z" fill="#bc6dde" stroke-width="0"/><path d="M225.97276,173.55378c0,0 0.90827,-0.33682 1.46116,0.35276c0.63181,0.788 2.10634,4.233 2.10634,4.233c0,0 -0.67023,-12.79293 0.16093,-13.63732c1.17117,-0.75586 6.95432,-0.81836 6.95432,-0.81836c0,0 -0.45678,-2.05087 -0.54345,-3.39403c-0.11749,-1.82103 0.17374,-4.50252 0.30126,-4.49853c0.08747,0.00273 0.75909,-0.2854 1.22711,0.51081c0.7705,1.3108 1.12568,3.93129 2.6289,4.75674c5.20364,2.85742 14.17016,4.39353 16.15096,4.45352c0.44694,0.01354 5.73471,-1.80804 7.64035,-2.03642c0.40026,-0.04797 0.42937,0.66198 0.47983,0.70954c0.0495,0.04666 -2.75773,3.77015 -4.83323,6.43321c-0.90344,1.15919 -1.58936,2.29418 -3.0054,2.6581c-1.09141,0.2805 -3.12038,-0.14353 -2.90201,0.15632c0.52844,0.72563 1.46749,2.42158 2.10459,4.20477c0.53825,1.50649 -0.88127,2.53697 -0.67747,2.91138c0.03258,0.05984 -0.68426,1.13792 -0.96815,1.98735c-0.32304,0.96662 -0.21874,1.71873 -0.18072,1.78692c0.16724,0.2999 0.67725,0.30607 0.85393,0.60759c0.19797,0.33786 -0.63821,2.91242 -0.53007,3.27114c0.04785,0.15872 -0.87832,0.14369 -1.24114,0.43656c-0.64351,0.51943 -0.9171,1.40707 -0.84232,1.66851c0.63025,2.20358 0.83579,3.64753 0.38167,4.1192c-0.18772,0.19498 -3.69934,1.32134 -7.86822,2.40434c-3.43791,0.89311 -7.56755,1.77323 -8.5053,1.93281c-0.89533,0.15236 -5.01225,-2.95349 -5.93847,-3.77444c-0.09559,-0.40631 -0.4039,-1.00317 -0.32482,-2.54769c0.08763,-1.71156 0.37223,-3.5462 0.20953,-3.56358c-0.75072,-0.08022 -2.37419,0.39141 -2.89971,0.21056c-2.08436,-0.71726 -2.24739,-6.20714 -2.05185,-10.39411c0.11788,-2.52382 0.65146,-5.1406 0.65146,-5.1406zM236.41705,197.97897c0.16365,0.02633 15.5226,-3.83782 15.59318,-4.18061c0.06691,-0.325 -0.14322,-1.517 -0.10909,-2.1508c0.05043,-0.93648 0.3018,-1.38188 0.06191,-1.9359c-0.01154,-0.02665 1.64097,-1.79863 1.7457,-2.28143c0.11637,-0.53647 0.79437,-1.34199 0.80165,-1.9819c0.00164,-0.14534 -0.91708,0.42729 -1.85452,0.79067c-0.65395,0.2535 -1.40929,0.33886 -1.4783,0.28744c-0.27633,-0.20585 -0.8875,-1.10911 -1.35212,-1.8634c-0.15452,-0.25087 -0.24629,-0.6808 -0.4368,-0.93737c-0.24363,-0.32812 -0.57166,-0.45596 -0.57166,-0.45596c0,0 -0.41493,0.46131 -1.71125,0.71834c-1.60996,0.31921 -4.13725,0.4489 -3.72212,0.46372c0.27868,0.00995 -2.63021,-0.6834 -3.14873,-5.17938c-0.33873,-2.93711 0.99359,-11.39767 0.99359,-11.39767c0,0 0.81569,-0.04176 1.55146,1.45364c1.20113,2.44121 3.03419,8.90981 4.91241,11.23829c0.21869,0.27111 1.12451,1.21997 2.15363,1.29673c0.82071,0.06123 3.74169,-1.69024 4.57613,-2.0769c0.97729,-0.45285 0.38548,-0.54655 0.87222,-1.61848c0.13039,-0.28716 -0.59625,-1.62542 -1.47906,-2.77576c-0.99429,-1.29561 -2.19138,-2.61149 -2.03338,-2.93804c0.0854,-0.1765 -0.00346,-0.57109 0.90554,-0.53317c1.5558,0.06488 4.44458,0.65231 4.63018,0.3835c3.25027,-4.70737 5.1222,-7.47272 5.1222,-7.47272c0,0 -4.25091,1.67001 -10.42218,1.18439c-3.33268,-0.26225 -9.67622,-2.08564 -10.6542,-3.02527c-0.65377,-0.62814 -1.33964,-1.04906 -1.76898,-1.51709c-0.8523,-0.92912 -1.25225,-1.69853 -2.3256,-2.20025c-0.11368,-0.05313 0.27599,0.9438 0.52672,2.06467c0.33769,1.50954 0.57406,3.26815 0.41495,3.21867c-1.1548,-0.35913 -6.55856,1.18066 -7.7293,1.06072c-0.12964,-0.01329 0.50757,7.79916 0.45374,11.94555c-0.04419,3.40405 -0.77775,3.28998 -0.87658,3.27857c-1.13313,-0.13085 -2.91117,-5.42704 -3.38774,-5.1979c-0.26776,0.12874 -0.3103,5.92176 -0.31384,6.07205c-0.09001,3.82692 0.50993,6.53127 0.9685,6.49541c0.58221,-0.04553 2.22849,-0.37245 2.88187,-0.45764c1.21635,-0.15859 1.52773,0.02931 1.39472,0.12406c-0.29205,0.20805 -0.48411,2.77974 -0.49416,4.71713c-0.00615,1.1853 0.13307,2.14561 0.13307,2.14561c0,0 1.45966,0.61208 2.62795,1.38359c1.23784,0.81743 2.19766,1.79847 2.5483,1.8549z" fill="#000000" stroke-width="0"/><path d="M250.42689,181.01724c0,0 0.29908,-1.2461 0.43176,-2.09185c-0.31328,0.08753 -0.94481,0.13598 -0.94495,0.13636c-0.02937,0.07749 -0.17053,0.1007 -0.23519,0.1706c-0.06455,0.06977 -0.05252,0.18629 -0.12655,0.20683c-0.08143,0.35745 -0.26585,0.70432 -0.08469,0.96658c0.2662,0.38541 0.95963,0.61149 0.95963,0.61149zM249.79333,181.86158c-0.57218,-0.21682 -1.55177,-0.33144 -1.4459,-1.29308c0.01615,-0.14673 0.29492,-0.72679 0.32115,-1.11099c0.01062,-0.15557 -0.4084,-0.49972 -0.36393,-0.54319c-0.12402,-0.14534 -0.15112,-0.35639 -0.03977,-0.65022c0.1851,-0.48848 2.29462,0.20474 2.94897,-0.38299c1.23441,-1.10873 -0.3311,-1.89906 0.14167,-2.54958c0.00453,-0.04112 0.01427,-0.08234 0.0296,-0.12283c0.09785,-0.25822 0.3865,-0.38823 0.64473,-0.29038c0.15631,0.05923 1.16618,3.82183 0.47488,4.50151c-0.0652,0.06411 -0.64959,-0.55759 -0.80212,-0.48301c0.15356,0.42085 0.29404,0.66313 0.15445,1.3465c-0.1198,0.58642 -0.31015,1.24471 -0.67462,1.55986c-0.34199,0.29572 -0.8315,0.22968 -1.38908,0.01839z" fill="#000000" stroke-width="0.5"/><g stroke-width="0"><path d="M243.88783,180.86323c0.17948,-1.11532 1.22911,-1.87398 2.34443,-1.69451c1.11532,0.17948 1.87398,1.22911 1.69451,2.34443c-0.17948,1.11532 -1.22911,1.87398 -2.34443,1.69451c-1.11532,-0.17948 -1.87398,-1.22911 -1.69451,-2.34443z" fill="url(#color-1)"/><path d="M246.38114,181.24192c-0.04775,0.29677 -0.30961,0.50144 -0.58486,0.45715c-0.27525,-0.04429 -0.45968,-0.32078 -0.41194,-0.61755c0.04775,-0.29677 0.30961,-0.50144 0.58487,-0.45715c0.27525,0.04429 0.45968,0.32078 0.41193,0.61755z" fill="#ffffff"/></g><g stroke-width="0"><path d="M251.0521,182.47016c0.17948,-1.11532 1.22911,-1.87398 2.34443,-1.69451c1.11532,0.17948 1.87398,1.22911 1.69451,2.34443c-0.17948,1.11532 -1.22911,1.87398 -2.34443,1.69451c-1.11532,-0.17948 -1.87398,-1.22911 -1.69451,-2.34443z" fill="url(#color-2)"/><path d="M253.54541,182.84885c-0.04775,0.29677 -0.30961,0.50144 -0.58486,0.45715c-0.27525,-0.04429 -0.45968,-0.32077 -0.41194,-0.61755c0.04775,-0.29677 0.30961,-0.50144 0.58486,-0.45715c0.27525,0.04429 0.45969,0.32078 0.41194,0.61755z" fill="#ffffff"/></g><g><path d="M253.7273,188.00148c-0.38663,1.62057 -2.64128,3.38043 -5.55835,5.09406c-2.61978,1.53898 -5.88841,3.14012 -6.8899,2.89587c-0.5543,-0.1352 -2.98683,-1.35445 -4.52202,-2.78244c-1.80048,-1.67475 -2.68616,-3.61425 -2.62593,-4.09521c0.13082,-1.04473 -0.34769,-2.06085 -0.0773,-5.07511c0.27674,-3.08509 1.30091,-8.15744 1.30091,-8.15744c0,0 2.81938,1.33431 3.3713,1.95465c0.43982,0.49433 -1.43658,0.1984 -0.97116,0.85574c0.99895,1.41086 2.00862,2.3944 3.83809,3.9536c2.04282,1.74103 4.74204,3.60601 6.97111,4.18829c2.65581,0.69375 5.29492,0.61608 5.16325,1.16797zM240.43334,192.23429c0.7144,-0.02248 5.10678,-5.0813 4.77844,-5.77272c-0.21404,-0.45068 -1.54758,-0.42232 -2.60721,-1.13442c-1.51225,-1.01628 -2.85043,-2.74177 -2.85671,-2.70029c-0.06638,0.43805 -0.15865,3.49697 0.00116,6.03915c0.12225,1.94473 0.45468,3.57551 0.68433,3.56829zM238.20106,181.59377c0.05183,-0.62995 -2.5515,-4.18752 -2.72399,-3.91335c0,0 -0.84607,10.80806 -0.26346,10.90508c0.46418,0.0773 2.98745,-6.99173 2.98745,-6.99173zM241.83093,194.86824c0,0 3.99676,-1.67784 4.11393,-2.45101c0.11717,-0.77317 0.55067,-4.50857 -0.15418,-4.62923c-0.09034,-0.01547 -0.99762,1.24678 -2.00386,2.48981c0,0 -2.99356,3.37824 -3.30096,4.09969c-0.112,0.26284 1.34506,0.49074 1.34506,0.49074zM247.22609,191.91351c0.54406,0.09313 3.31017,-2.55389 3.21593,-3.32853c-0.03315,-0.27243 -3.11271,-1.32043 -3.14065,-1.2501c-0.23564,0.59297 -0.49875,4.50614 -0.07528,4.57863zM239.00718,192.90827c0.21396,-0.17167 -0.13024,-1.24421 -0.19918,-2.81595c-0.11045,-2.51828 -0.03809,-5.75687 -0.30991,-5.79832c-0.47824,-0.07293 -2.38969,4.94055 -2.73942,5.62671c-0.11738,0.23029 3.05426,3.1434 3.24851,2.98757z" fill="#000000" stroke-width="0"/><path d="M247.27634,187.28555c0.02794,-0.07033 3.17679,0.99715 3.20994,1.26957c0.09423,0.77463 -2.74634,3.49787 -3.29039,3.40473c-0.42346,-0.07249 -0.15518,-4.08132 0.08047,-4.67429z" data-paper-data="{&quot;noHover&quot;:false,&quot;origItem&quot;:[&quot;Path&quot;,{&quot;applyMatrix&quot;:true,&quot;segments&quot;:[[[247.3454,190.32684],[-0.41476,0],[0.53287,0]],[[249.93398,186.95086],[0.20203,0.66013],[-0.07105,-0.23216]],[[246.75485,186.33078],[0.0165,-0.06537],[-0.13917,0.55118]]],&quot;closed&quot;:true,&quot;fillColor&quot;:[1,1,1]}]}" fill="#ffffff" stroke-width="0.5"/><path d="M240.44775,194.41622c0.3074,-0.72146 3.35285,-4.19319 3.35285,-4.19319c1.00624,-1.24303 1.92978,-2.49699 2.02011,-2.48151c0.70485,0.12066 0.28869,3.92488 0.17152,4.69804c-0.11717,0.77317 -4.18528,2.47917 -4.18528,2.47917c0,0 -1.4712,-0.23965 -1.35921,-0.5025z" data-paper-data="{&quot;noHover&quot;:false,&quot;origItem&quot;:[&quot;Path&quot;,{&quot;applyMatrix&quot;:true,&quot;segments&quot;:[[242.6223,193.70217],[[246.19514,190.95611],[0,0.69036],[0,-0.69036]],[[245.37821,186.9502],[0.69036,0],[-0.08848,0]],[[243.82541,189.41566],[0.78079,-1.23174],[0,0]],[[241.26722,193.47546],[0.18909,-0.67369],[-0.06889,0.24544]]],&quot;closed&quot;:true,&quot;fillColor&quot;:[1,1,1]}]}" fill="#ffffff" stroke-width="0.5"/><path d="M239.70024,188.68556c-0.15981,-2.54217 -0.04121,-5.67148 0.02518,-6.10953c0.00629,-0.04147 1.38027,1.67997 2.89253,2.69625c1.05963,0.7121 2.42847,0.71889 2.64249,1.16957c0.32835,0.6914 -4.13141,5.82301 -4.84581,5.84549c-0.22967,0.00723 -0.59214,-1.65705 -0.71439,-3.60178z" data-paper-data="{&quot;noHover&quot;:false,&quot;origItem&quot;:[&quot;Path&quot;,{&quot;applyMatrix&quot;:true,&quot;segments&quot;:[[[240.90699,191.61804],[-0.21821,0.0405],[0.67876,-0.126]],[[244.63362,185.88206],[0.4135,0.55282],[-0.26953,-0.36035]],[[241.98048,185.28319],[1.11462,0.46188],[-1.59073,-0.65918]],[[238.8626,183.3587],[0,-0.03703],[0,0.39114]],[[239.73743,188.61448],[-0.52035,-2.18867],[0.39807,1.67431]]],&quot;closed&quot;:true,&quot;fillColor&quot;:[1,1,1]}]}" fill="#ffffff" stroke-width="0.5"/><path d="M235.71491,189.9514c0.34972,-0.68614 2.31365,-5.7863 2.79188,-5.71338c0.27181,0.04145 0.2185,3.38354 0.32895,5.90181c0.06895,1.57174 0.3995,2.65112 0.18554,2.82278c-0.19424,0.15585 -3.42375,-2.78094 -3.30638,-3.01122z" data-paper-data="{&quot;noHover&quot;:false,&quot;origItem&quot;:[&quot;Path&quot;,{&quot;applyMatrix&quot;:true,&quot;segments&quot;:[[[239.643,192.41708],[-0.16288,0.16457],[0.17943,-0.18128]],[[239.04545,189.99599],[0.29321,1.35763],[-0.46978,-2.17523]],[[237.91071,184.99582],[0.26549,-0.00442],[-0.46711,0.00778]],[[236.10953,190.30094],[0.2346,-0.64927],[-0.07874,0.21792]]],&quot;closed&quot;:true,&quot;fillColor&quot;:[1,1,1]}]}" fill="#ffffff" stroke-width="0.5"/><path d="M235.20239,188.64095c-0.58261,-0.09701 0.26659,-11.01641 0.26659,-11.01641c0.17248,-0.27417 2.82437,3.30354 2.77255,3.93351c0,0 -2.57497,7.1602 -3.03916,7.08291z" data-paper-data="{&quot;noHover&quot;:false,&quot;origItem&quot;:[&quot;Path&quot;,{&quot;applyMatrix&quot;:true,&quot;segments&quot;:[[[237.23648,182.69003],[0,0],[-0.04166,-0.55597]],[[234.06981,179.69003],[0.125,-0.26431],[0,0]],[[235.396,189.22011],[-0.57023,0.00238],[0.45432,-0.00189]]],&quot;closed&quot;:true,&quot;fillColor&quot;:[1,1,1]}]}" fill="#ffffff" stroke-width="0.5"/></g></g></g></svg>