<svg version="1.1" xmlns="http://www.w3.org/2000/svg" xmlns:xlink="http://www.w3.org/1999/xlink" width="300.28034" height="273.48571" viewBox="0,0,300.28034,273.48571"><g transform="translate(-185.508,-57.0924)"><g data-paper-data="{&quot;isPaintingLayer&quot;:true}" fill-rule="nonzero" stroke-linejoin="miter" stroke-miterlimit="10" stroke-dasharray="" stroke-dashoffset="0" style="mix-blend-mode: normal"><g data-paper-data="{&quot;index&quot;:null}" stroke="#000000" stroke-linecap="butt"><path d="M297.40891,329.14947v-87.07549h64.12443v87.07549z" fill="#273750" stroke-width="2"/><path d="M298.23416,328.41969v-87.07549l19.31425,47.56987l44.81016,39.50562z" fill="#1f1e2e" stroke-width="0"/></g><g data-paper-data="{&quot;index&quot;:null}" stroke="#000000" stroke-linecap="butt"><path d="M242.27027,329.57812v-87.07549h64.12443v87.07549z" fill="#273750" stroke-width="2"/><path d="M243.09556,328.84829v-87.07549l19.31425,47.56987l44.81016,39.50562z" fill="#1f1e2e" stroke-width="0"/></g><g data-paper-data="{&quot;index&quot;:null}" stroke="#000000" stroke-linecap="butt"><path d="M473.78758,269.13759l-49.33552,-9.36583l10.79894,-48.17776l49.33552,9.36583z" fill="#ffcaa0" stroke-width="2"/><g><path d="M424.60175,259.96473l-68.02827,-12.91446l10.93969,-48.8057l68.02827,12.91446z" fill="#ff0008" stroke-width="2"/><path d="M424.97732,259.30367l-35.63119,-6.76421c0,0 18.07303,-11.78944 19.88916,-19.89181c1.72197,-7.68227 -9.25983,-27.52923 -9.25983,-27.52923l35.6312,6.76421c0,0 -3.4961,15.59726 -5.25812,23.45828c-1.78088,7.9451 -5.37121,23.96276 -5.37121,23.96276z" fill="#8d005e" stroke-width="0"/></g><path d="M473.39625,268.28455l-49.33552,-9.36583l36.20892,-6.01177l23.92554,-32.80014z" fill="#ff6e5b" stroke-width="0"/></g><g data-paper-data="{&quot;index&quot;:null}" stroke="#000000" stroke-linecap="butt"><path d="M444.04126,150.55112c-7.72572,30.24063 -26.11425,52.13187 -41.07193,48.89546c-14.95768,-3.23642 -20.82034,-30.37493 -13.09463,-60.61556c7.72572,-30.24063 26.11425,-52.13187 41.07193,-48.89546c14.95768,3.23642 20.82034,30.37493 13.09463,60.61556z" fill="#01930e" stroke-width="2"/><path d="M401.65192,131.42222c-7.72572,30.24063 16.78925,70.94179 1.83158,67.70538c-14.95767,-3.23642 -20.82034,-30.37493 -13.09463,-60.61556c7.72572,-30.24063 18.98877,-37.33045 11.26305,-7.08982z" fill="#31525b" stroke-width="0"/></g><path d="M241.41374,272.38337l27.29983,-106.85917l116.11431,25.12384l-27.29983,106.85917z" data-paper-data="{&quot;index&quot;:null}" fill="#ff0008" stroke="#000000" stroke-width="2" stroke-linecap="butt"/><g data-paper-data="{&quot;index&quot;:null}" stroke="#000000" stroke-linecap="butt"><path d="M186.73375,280.77285l11.52921,-45.12854l52.03386,11.25865l-11.52921,45.12854z" fill="#ffcaa0" stroke-width="2"/><g><path d="M198.04924,235.77671l15.89751,-62.22732l52.71207,11.40539l-15.89751,62.22732z" fill="#ff0008" stroke-width="2"/><path d="M198.75695,236.14038l8.32665,-32.59283c0,0 12.30893,16.95024 21.05981,18.84368c8.29714,1.79527 30.15677,-7.76188 30.15677,-7.76188l-8.32665,32.59284c0,0 -16.84565,-3.64492 -25.33587,-5.48197c-8.58102,-1.85669 -25.88071,-5.59985 -25.88071,-5.59985z" fill="#8d005e" stroke-width="0"/></g><path d="M187.67108,280.43629l11.52921,-45.12854l5.53475,33.47547l34.9699,22.91173z" fill="#ff6e5b" stroke-width="0"/></g><g data-paper-data="{&quot;index&quot;:null}" fill="#000000" stroke="#000000" stroke-linecap="butt"><path d="M268.96594,277.87993l26.79171,-104.87024l62.42236,13.50643l-26.79171,104.87024z" stroke-width="2"/><path d="M269.99386,277.17483l26.79171,-104.87024l4.16512,61.35938l31.46552,57.01728z" stroke-width="0"/></g><g data-paper-data="{&quot;index&quot;:null}" stroke="#000000" stroke-linecap="butt"><path d="M263.38345,109.90692c0.3302,-1.29249 7.4732,-25.51398 7.90257,-26.76413c10.84996,-31.59009 46.01365,-26.44501 89.32068,-17.07461c40.68013,8.80202 74.73108,20.67048 73.34897,51.37738c-0.14747,3.27654 -6.70096,24.4639 -7.53727,27.73748c-2.9893,11.70096 -6.50923,38.07856 -16.41209,45.76104c-18.83228,14.60977 -51.30564,4.46184 -80.81116,-1.92231c-31.19676,-6.7501 -60.52408,-12.12337 -69.268,-34.50166c-3.87467,-9.91642 0.79284,-34.18768 3.4563,-44.6132z" fill="#ffcaa0" stroke-width="2"/><path d="M261.51039,109.51173c0.3302,-1.29249 7.4732,-25.51398 7.90257,-26.76413c6.16443,-17.94798 -7.52383,58.37737 35.97452,89.51465c34.08828,24.40131 107.4193,15.23984 103.43787,18.32858c-18.83228,14.60977 -51.99773,4.41989 -81.50324,-1.96426c-31.19676,-6.7501 -60.52408,-12.12337 -69.268,-34.50166c-3.87467,-9.91642 0.79284,-34.18768 3.4563,-44.6132z" fill="#ff6e5b" stroke-width="0"/></g><g data-paper-data="{&quot;index&quot;:null}" stroke="#000000" stroke-linecap="butt"><path d="M309.7786,119.44544c-7.72572,30.24063 -26.11425,52.13187 -41.07193,48.89546c-14.95768,-3.23642 -20.82034,-30.37493 -13.09463,-60.61556c7.72572,-30.24063 26.11425,-52.13187 41.07193,-48.89546c14.95768,3.23642 20.82034,30.37493 13.09463,60.61556z" fill="#01930e" stroke-width="2"/><path d="M267.38926,100.31656c-7.72572,30.24063 16.78925,70.94179 1.83158,67.70538c-14.95767,-3.23642 -20.82034,-30.37493 -13.09463,-60.61556c7.72572,-30.24063 18.98877,-37.33045 11.26305,-7.08982z" fill="#31525b" stroke-width="0"/></g><g data-paper-data="{&quot;index&quot;:null}" stroke-linecap="butt"><path d="M452.10012,113.78933c-4.23668,16.58358 -49.8721,20.89614 -101.92956,9.63238c-52.05745,-11.26376 -90.82384,-33.83848 -86.58714,-50.42204c4.23668,-16.58358 49.87209,-20.89613 101.92955,-9.63238c52.05745,11.26376 90.82385,33.83848 86.58715,50.42205z" fill="#000000" stroke="none" stroke-width="NaN"/><path d="M451.27257,113.95143c-4.23668,16.58358 -49.8721,20.89614 -101.92956,9.63238c-52.05745,-11.26376 -90.82384,-33.83848 -86.58714,-50.42204c4.23668,-16.58358 41.53975,17.75651 93.59721,29.02027c52.05745,11.26376 99.15619,-4.81418 94.9195,11.76939z" fill="#ff0000" stroke="#000000" stroke-width="2"/><path d="M443.57105,121.3983c-1.1659,4.56366 -42.71861,14.0267 -94.43241,1.4178c-18.09671,-4.41235 -34.89005,-9.66299 -48.19334,-15.46842c-24.69769,-10.77783 -38.60852,-22.29219 -35.25255,-25.61858c3.46611,-3.43556 34.37696,24.16289 86.43442,35.42665c52.05745,11.26376 92.60979,-0.32111 91.4439,4.24255z" fill="#900056" stroke="#000000" stroke-width="0"/></g><path d="M370.17368,158.00423c-3.77048,14.7587 -9.79116,26.08164 -13.44759,25.29048c-3.65643,-0.79115 -3.56396,-13.39679 0.20651,-28.15547c3.77048,-14.7587 9.79117,-26.08162 13.44759,-25.29047c3.65643,0.79115 3.56396,13.39679 -0.20651,28.15548z" data-paper-data="{&quot;index&quot;:null}" fill="#000000" stroke="none" stroke-width="0" stroke-linecap="butt"/><path d="M401.51466,159.25996c-3.7554,14.69965 -9.60786,26.00849 -13.07183,25.25899c-3.46399,-0.7495 -3.22774,-13.27353 0.52765,-27.97319c3.7554,-14.69965 9.60786,-26.00849 13.07183,-25.25899c3.46399,0.7495 3.22774,13.27353 -0.52765,27.97319z" data-paper-data="{&quot;index&quot;:null}" fill="#000000" stroke="none" stroke-width="0" stroke-linecap="butt"/><path d="M344.34421,125.47981l30.6097,6.62307" fill="none" stroke="#000000" stroke-width="5" stroke-linecap="round"/><path d="M387.23248,133.12502l24.89276,0.90343" fill="none" stroke="#000000" stroke-width="5" stroke-linecap="round"/><path d="M341.38913,171.01157c0,6.86407 -3.70001,12.4285 -8.26422,12.4285c-4.5642,0 -8.26422,-5.56443 -8.26422,-12.4285c0,-6.86407 3.70001,-12.4285 8.26422,-12.4285c4.5642,0 8.26422,5.56443 8.26422,12.4285z" fill="#000000" stroke="none" stroke-width="0" stroke-linecap="butt"/></g></g></svg>