<svg version="1.1" xmlns="http://www.w3.org/2000/svg" xmlns:xlink="http://www.w3.org/1999/xlink" width="187.45987" height="313.97165" viewBox="0,0,187.45987,313.97165"><g transform="translate(-212.79955,-47.01581)"><g data-paper-data="{&quot;isPaintingLayer&quot;:true}" fill-rule="nonzero" stroke-linejoin="miter" stroke-miterlimit="10" stroke-dasharray="" stroke-dashoffset="0" style="mix-blend-mode: normal"><g stroke="#000000" stroke-linecap="butt"><path d="M333.89957,223.43827c29.50435,15.51816 50.36896,33.90341 46.60244,41.06466c-3.76653,7.16126 -30.73794,0.38664 -60.24227,-15.13149c-29.50435,-15.51816 -50.36896,-33.90341 -46.60244,-41.06466c3.76653,-7.16126 30.73794,-0.38664 60.24228,15.13149z" fill="#0d69be" stroke-width="2"/><path d="M381.10361,233.24714c12.664,6.66078 17.39164,22.5908 10.55945,35.58076c-6.83219,12.98992 -22.63698,18.12073 -35.30102,11.45995c-12.66402,-6.66078 -17.39164,-22.5908 -10.55945,-35.58076c6.83221,-12.98992 22.63701,-18.12071 35.30102,-11.45995z" fill="#faddbf" stroke-width="2"/><path d="M352.27744,262.98434c12.66402,6.66078 45.64282,-7.89517 38.81062,5.09475c-6.83219,12.98992 -22.63697,18.12072 -35.30102,11.45995c-12.66402,-6.66078 -16.17362,-23.21547 -3.50961,-16.55471z" fill="#ef8b89" stroke-width="0"/></g><g stroke="#000000" stroke-linecap="butt"><path d="M307.76518,341.21814v-95.29492h29.49199v95.29492z" fill="#73fffc" stroke-width="2"/><path d="M307.43944,340.60021l1.32626,-93.78573c0,0 5.20288,68.11227 6.3799,77.52842c0.2602,2.08162 2.52228,2.78987 2.52228,2.78987l18.60659,13.13896z" fill="#59a9e6" stroke-width="0"/></g><g stroke="#000000" stroke-linecap="butt"><path d="M268.42382,338.41289v-95.29492h29.49199v95.29492z" fill="#73fffc" stroke-width="2"/><path d="M268.09807,337.79496l1.32626,-93.78573c0,0 5.20288,68.11227 6.3799,77.52842c0.2602,2.08162 2.52228,2.78987 2.52228,2.78987l18.60659,13.13896z" fill="#59a9e6" stroke-width="0"/></g><g stroke="#000000" stroke-linecap="butt"><path d="M334.46378,235.69588c0,13.80271 10.04743,36.74388 4.95001,46.45977c-6.2338,11.88187 -28.61241,9.09579 -38.9397,9.09579c-13.66287,0 -32.94407,4.17018 -38.34426,-14.83216c-2.01935,-7.10576 4.35457,-32.37264 4.35457,-40.7234c0,-30.68249 15.2177,-55.55556 33.98969,-55.55556c18.77199,0 33.98969,24.87307 33.98969,55.55556z" fill="#0d69be" stroke-width="2"/><path d="M283.20015,251.27245c0,13.80271 62.04198,20.54886 56.94455,30.26474c-6.2338,11.88186 -28.61241,9.09579 -38.9397,9.09579c-13.66287,0 -32.94406,4.17018 -38.34425,-14.83215c-2.01936,-7.10576 4.35457,-32.37265 4.35457,-40.7234c0,-9.45244 3.34855,-28.59801 5.51953,-29.96813c5.94391,-16.76415 10.4653,25.13995 10.4653,46.16315z" fill="#10157d" stroke-width="0"/></g><g stroke-linecap="butt"><g stroke="#000000"><g><path d="M230.97972,111.89838c12.95529,-44.96152 59.90615,-70.9077 104.86767,-57.9524c44.96152,12.95529 70.9077,59.90615 57.9524,104.86767c-12.95529,44.96152 -59.90615,70.9077 -104.86767,57.9524c-44.96152,-12.95529 -70.9077,-59.90615 -57.9524,-104.86767z" fill="#faddbf" stroke-width="2"/><path d="M231.44221,111.12676c4.16818,-14.46574 19.67388,-37.01085 24.89657,-38.85092c0.59644,-0.21014 8.02726,-6.95982 17.11341,-11.33151c11.29347,-5.43372 24.6779,-8.66232 25.21023,-8.30385c6.94533,4.67685 -34.79818,57.46675 -40.60991,82.111c-0.01386,0.05877 -1.21977,20.15168 0.21391,21.02155c1.45961,5.35599 3.4516,20.92718 11.93057,30.80096c15.80156,18.40095 41.57952,32.46162 40.01419,32.53689c-2.50396,0.1204 -14.99068,-1.43775 -20.81657,-3.11643c-44.96152,-12.95529 -70.9077,-59.90615 -57.9524,-104.86767z" fill="#ef8b89" stroke-width="0"/><path d="M393.42368,158.22843c-3.21851,11.16989 -5.84674,14.59237 -5.86451,12.66019c-0.01813,-1.97118 2.53778,-9.48165 -4.63302,-16.58023c-1.73763,-1.72013 -11.54492,3.20482 -13.82586,1.26948c-1.43268,-1.21562 -5.49652,-12.17331 -7.14821,-13.35277c-1.15483,-0.82466 -14.28293,4.6029 -15.50298,3.78237c-3.04287,-2.04644 -8.37075,-14.24825 -11.79312,-15.91916c-1.8846,-0.92012 -12.20082,8.81631 -14.1571,7.98845c-2.52288,-1.06764 -6.33352,-14.38439 -8.96389,-15.14231c-6.99525,-2.01562 -9.12849,4.66573 -15.82452,8.9869c-4.35124,2.80801 -9.82778,-16.41469 -14.05747,-13.0178c-5.25278,4.21854 -10.41329,8.25733 -15.48517,10.54199c-3.97908,1.79241 -10.0461,-13.40236 -13.53446,-11.68322c-16.84274,8.30049 -27.07048,13.68348 -22.03912,-3.77793c10.11713,-35.11163 43.86945,4.09296 89.97761,-5.01871c44.13426,-8.7216 82.96897,14.15112 72.85184,49.26275z" fill="#ef8b89" stroke-width="0"/></g><path d="M397.19868,150.66715c-6.502,22.56527 3.86328,10.18307 -10.78031,-4.00152c-1.79195,-1.73578 -11.80325,3.13038 -14.15323,1.17515c-1.47605,-1.22812 -5.71551,-12.23641 -7.41564,-13.42982c-1.1887,-0.83442 -14.59806,4.5121 -15.85353,3.68136c-3.13121,-2.0719 -8.67418,-14.33568 -12.1915,-16.03395c-1.93688,-0.93519 -12.43577,8.74861 -14.44544,7.90537c-2.59172,-1.08747 -6.58837,-14.45782 -9.28803,-15.2357c-7.17951,-2.06872 -9.3178,4.61118 -16.14641,8.89415c-4.4374,2.78318 -10.18184,-16.51671 -14.4906,-13.1426c-5.35097,4.19025 -10.60869,8.20102 -15.7879,10.45476c-4.06329,1.76814 -10.38436,-13.49983 -13.94551,-11.80166c-17.19421,8.19921 -27.63298,13.5214 -22.60162,-3.94001c10.11713,-35.11163 60.80241,-67.04321 104.93376,-54.32713c44.13134,12.71608 72.28313,64.69 62.166,99.80162z" fill="#873412" stroke-width="2"/><path d="M397.28258,149.48122c-6.502,22.56527 3.86328,10.18307 -10.78031,-4.00152c-1.79195,-1.73578 -11.80325,3.13038 -14.15323,1.17515c-1.47605,-1.22812 -5.71551,-12.23641 -7.41565,-13.42983c-1.1887,-0.83442 -14.59806,4.5121 -15.85353,3.68136c-3.13121,-2.0719 -8.67418,-14.33568 -12.1915,-16.03395c-1.93688,-0.93519 -12.43577,8.74861 -14.44544,7.90537c-2.59172,-1.08747 -6.58837,-14.45782 -9.28803,-15.2357c-7.17951,-2.06872 -9.3178,4.61118 -16.14641,8.89415c-4.4374,2.78318 -10.18184,-16.51671 -14.4906,-13.1426c-5.35097,4.19025 -10.60869,8.20102 -15.78791,10.45475c-4.06329,1.76814 -10.38436,-13.49983 -13.94551,-11.80166c-17.19421,8.19921 -27.63298,13.5214 -22.60162,-3.94001c10.11713,-35.11163 44.9651,4.40867 92.13081,-4.39828c45.14655,-8.42991 85.08607,14.76115 74.96894,49.87277z" fill="#741d23" stroke-width="0"/></g><path d="M334.44276,61.49852c0.03048,0.12912 0.0451,0.27222 0.04683,0.42554c0.01876,0.2751 -0.00803,0.55789 -0.0859,0.83833c-0.21015,1.122 -0.73905,2.40265 -0.83203,2.88798c-0.12215,0.63763 1.35069,-0.38853 1.9437,-0.12429c0.36325,0.16186 0.54879,0.95075 0.90609,0.77613c2.16832,-1.05972 4.50079,-3.36415 6.69823,-1.04171c0.72775,0.76915 0.12636,2.004 0.47936,2.8183c0.02968,0.06845 2.54503,0.59117 2.9698,1.26818c0.73193,1.16654 -0.31676,2.25223 -0.08899,3.35089c0.07288,0.35156 0.67448,-0.2659 1.03024,-0.31423c1.58333,-0.21509 4.39653,-0.82138 5.80367,0.62656c0.74144,0.76295 0.12165,2.26165 0.48639,2.82663c0.63945,0.99047 2.23592,-0.77637 3.39513,-0.99123c1.60326,-0.29717 2.10811,0.57764 3.05846,1.77366c0.16391,0.20629 -0.68965,4.10142 0.04891,5.51907c0.41515,0.79686 1.82474,-0.36783 2.69223,-0.13374c0.86554,0.23357 2.80928,0.04193 3.18596,0.25831c0.7556,0.43402 1.05586,2.01185 1.89997,1.79553c4.30969,-1.10441 8.62747,1.64741 5.68317,5.96096c-0.3726,0.5459 1.42914,-0.18548 1.97377,0.18897c0.21114,0.14516 1.2349,1.48164 1.47703,1.46191c1.58371,-0.12908 2.68477,-0.55809 4.21479,-0.12125c1.27066,0.36279 2.28364,1.42882 2.19619,2.84025c-0.04596,0.74177 -1.54623,1.76398 -0.86277,2.05588c1.61103,0.68809 4.02943,2.1398 2.58477,4.36426c-1.5682,2.41469 -4.44103,4.07324 -6.33428,1.35167c-0.65687,-0.94425 -2.55824,0.55606 -3.44633,-0.17496c-1.13771,-0.93649 -1.146,-3.32045 -0.75153,-4.43126c0.18235,-0.5135 -1.13487,0.0622 -1.62534,-0.17525c-0.66035,-0.31969 -0.68758,-1.46295 -1.37535,-1.71836c-1.53841,-0.57129 -2.21,2.76225 -5.72683,0.93034c-1.03803,-0.54071 -1.81377,-2.79236 -1.87447,-3.95246c-0.03524,-0.67341 2.12376,-2.14543 2.00112,-2.29064c-0.29779,-0.35261 -2.65257,2.17815 -3.1017,2.19667c-1.08049,0.04455 -1.95887,-0.95961 -2.7985,-1.64111c-0.74182,-0.6021 -1.63151,1.49672 -2.56285,1.28351c-0.8228,-0.18836 -8.85416,-3.05338 -9.0371,-3.62955c-0.22305,-0.70244 -0.31203,-1.88093 0.03601,-2.5192c0.12508,-0.22939 1.44749,-1.49906 1.26744,-1.52997c-0.63899,-0.10972 -4.97679,2.14562 -6.1604,-1.58191c-0.64363,-2.027 1.93058,-3.18861 2.38338,-4.74835c0.27963,-0.96322 -1.52944,1.3029 -2.22608,2.02449c-0.53507,0.55424 -1.7403,0.85695 -2.49142,0.66652c-2.59696,-0.6584 -1.17695,-2.91461 -1.29775,-4.52542c-0.05575,-0.74338 -1.68089,0.13505 -2.20043,-0.39955c-1.27027,-1.3071 -0.72148,-2.36086 -0.42958,-3.87126c0.13365,-0.69158 -1.27901,2.45709 -2.90544,2.16177c-0.6596,-0.11977 -1.39382,-1.38751 -1.81512,-0.86604c-2.05113,2.53878 -1.70917,3.89872 -5.22361,2.38542c-0.33914,-0.14603 -1.1598,0.49385 -1.47522,0.16927c-3.49103,-3.59226 1.36933,-7.85955 2.59634,-11.67717c0.43282,-1.34664 0.12857,-3.63407 1.50297,-3.96837c0.6219,-0.58763 1.5295,-0.84054 2.41119,-0.58649c0.78176,0.22526 1.36871,0.79882 1.64079,1.50343c0.05029,0.09459 0.08956,0.19521 0.11509,0.30337z" fill="#ba587e" stroke="none" stroke-width="0.5"/></g><g stroke="#000000" stroke-linecap="butt"><path d="M333.0309,174.78218c-7.90731,27.44244 -24.63935,37.95109 -40.56015,33.36364c-15.9208,-4.58745 -25.00149,-22.53383 -17.09418,-49.97626c7.90731,-27.44244 27.22382,-45.97006 43.14462,-41.38262c15.9208,4.58745 22.41702,30.5528 14.50971,57.99524z" fill="#f0f0f0" stroke-width="2"/><path d="M293.52498,143.01978c-11.95144,25.93792 15.70761,69.09179 -0.21319,64.50435c-15.9208,-4.58745 -25.00149,-22.53383 -17.09418,-49.97626c7.90731,-27.44244 34.58562,-52.02666 17.30737,-14.52809z" fill="#9a99ff" stroke-width="0"/></g><path d="M327.00913,181.61528c-4.38081,15.20365 -12.43775,26.23039 -17.99568,24.62892c-5.55793,-1.60147 -6.51219,-15.22472 -2.13138,-30.42837c4.38081,-15.20365 12.43775,-26.23039 17.99568,-24.62892c5.55793,1.60147 6.51219,15.22472 2.13138,30.42837z" fill="#000000" stroke="none" stroke-width="0" stroke-linecap="butt"/><g stroke="#000000" stroke-linecap="butt"><path d="M336.53334,144.53476c1.45272,11.0646 -0.1381,34.17082 -15.23418,29.82101c-15.09607,-4.34981 -38.11497,-35.32735 -31.08561,-43.30831c6.68834,-7.59376 12.4547,-18.70163 27.55078,-14.35182c15.09607,4.34981 17.38454,17.29441 18.769,27.83911z" fill="#a100fe" stroke-width="2"/><path d="M335.74328,143.93846c1.3066,11.0225 0.08955,33.74238 -14.49178,29.54089c-14.58134,-4.20149 -37.12779,-34.54887 -30.24734,-42.57274c6.54665,-7.63458 6.03547,2.74024 20.61681,6.94173c14.58134,4.20149 22.87709,-4.41448 24.1223,6.0901z" fill="#99008e" stroke-width="0"/></g><g data-paper-data="{&quot;index&quot;:null}" stroke="#000000" stroke-linecap="butt"><path d="M380.04371,133.43466c15.9208,4.58745 22.41702,30.5528 14.50971,57.99524c-7.90731,27.44243 -25.14509,37.80536 -41.06589,33.21791c-15.9208,-4.58745 -24.49574,-22.38809 -16.58843,-49.83053c7.90731,-27.44244 27.22382,-45.97006 43.14462,-41.38262z" fill="#f0f0f0" stroke-width="2"/><path d="M394.17214,190.45598c-7.90731,27.44243 -25.14509,37.80536 -41.06589,33.21791c-15.9208,-4.58745 30.45991,-26.40737 34.14259,-54.72787c5.32407,-40.94307 14.83062,-5.93248 6.9233,21.50996z" fill="#9a99ff" stroke-width="0"/></g><path d="M384.25374,167.65797c5.55793,1.60147 6.51219,15.22472 2.13138,30.42837c-4.38081,15.20365 -12.43775,26.23039 -17.99568,24.62892c-5.55793,-1.60147 -6.51219,-15.22472 -2.13138,-30.42837c4.38081,-15.20365 12.43775,-26.23039 17.99568,-24.62892z" data-paper-data="{&quot;index&quot;:null}" fill="#000000" stroke="none" stroke-width="0" stroke-linecap="butt"/><g data-paper-data="{&quot;index&quot;:null}" stroke="#000000" stroke-linecap="butt"><path d="M350.02848,147.34373c6.78308,-8.1913 15.60856,-17.9335 30.70464,-13.58369c15.09607,4.34981 14.06778,16.82292 15.68996,26.81129c1.7049,10.49767 -33.06189,24.57772 -48.15796,20.22791c-15.09607,-4.34981 -5.35417,-24.86034 1.76335,-33.4555z" fill="#a100fe" stroke-width="2"/><path d="M351.0147,147.25925c6.64384,-8.23142 9.08307,3.47775 23.6644,7.67925c14.58134,4.20149 19.66903,-4.85465 21.14954,5.0929c1.55599,10.45476 -32.63784,23.95886 -47.21918,19.75736c-14.58134,-4.20149 -4.56618,-23.89224 2.40522,-32.5295z" fill="#99008e" stroke-width="0"/></g><path d="M371.63634,338.87009c0,11.6628 -14.51982,21.11737 -32.43092,21.11737c-17.9111,0 -32.43092,-9.45457 -32.43092,-21.11737c0,-2.33142 -0.03339,-13.76009 1.08979,-15.13837c4.49546,-5.51647 17.81784,5.26144 32.14847,5.26144c17.9111,0 31.62358,-1.78588 31.62358,9.87692z" fill="#000082" stroke="#000000" stroke-width="2" stroke-linecap="butt"/><path d="M369.75006,336.13784c0,6.30841 -13.89058,10.1901 -31.80169,10.1901c-17.9111,0 -30.16566,-2.95748 -30.16566,-9.26589c0,-1.26107 -0.03338,-12.52602 1.0898,-13.27153c4.49546,-2.98386 15.55258,5.7726 29.88321,5.7726c17.9111,0 30.99434,0.26631 30.99434,6.57472z" fill="#2e0048" stroke="#000000" stroke-width="0" stroke-linecap="butt"/><path d="M328.6494,338.2253c0,11.6628 -14.51982,21.11737 -32.43092,21.11737c-17.9111,0 -32.43092,-9.45457 -32.43092,-21.11737c0,-2.33142 -0.03339,-13.76009 1.08979,-15.13837c4.49546,-5.51647 17.81784,5.26144 32.14847,5.26144c17.9111,0 31.62358,-1.78588 31.62358,9.87692z" fill="#000082" stroke="#000000" stroke-width="2" stroke-linecap="butt"/><path d="M326.76311,335.49289c0,6.30841 -13.89058,10.1901 -31.80169,10.1901c-17.9111,0 -30.16566,-2.95748 -30.16566,-9.26589c0,-1.26107 -0.03338,-12.52602 1.0898,-13.27153c4.49546,-2.98386 15.55258,5.7726 29.88321,5.7726c17.9111,0 30.99434,0.26631 30.99434,6.57472z" fill="#2e0048" stroke="#000000" stroke-width="0" stroke-linecap="butt"/><g><g><path d="M269.62624,269.02911c-12.99428,-7.66624 -16.7284,-18.67836 -9.74648,-31.88296c5.46062,-10.32747 22.92127,-15.1389 35.91557,-7.47262c12.99437,7.66626 17.48021,21.63199 9.89038,34.49679c-1.18689,2.01181 -2.87936,3.51626 -4.41229,4.90474c-8.26966,7.49023 -20.68495,6.4215 -31.64719,-0.04589z" fill="#485e84" stroke="#000000" stroke-width="2" stroke-linecap="butt"/><path d="M282.19133,227.54849c0,0 -3.29621,4.7187 -2.52441,6.56741c7.40314,17.73323 18.93705,25.74491 22.95405,28.10361c0.91265,0.53591 1.89849,-0.00166 1.89849,-0.00166c0,0 -0.87696,1.92329 -2.74784,3.92672c-1.99078,2.13182 -5.0657,4.3788 -7.98687,5.3337c-3.33682,1.09075 -11.66124,1.55202 -11.66124,1.55202l-19.48232,-7.7005c0,0 -4.47037,-12.68744 -4.44176,-14.85448c0.02802,-2.123 0.67008,-4.6271 1.24554,-7.317c0.89357,-4.1765 3.32594,-8.00927 5.49081,-9.90881c2.76288,-2.42419 7.07241,-4.2074 10.79775,-5.03466c3.46711,-0.76996 6.4577,-0.66623 6.4577,-0.66623z" fill="#343545" stroke="none" stroke-width="0" stroke-linecap="butt"/><path d="M271.86454,249.69628c0,0 2.87512,-8.55171 7.15336,-11.42866c5.41577,-3.64196 17.76557,-7.58971 17.76557,-7.58971" fill="none" stroke="#000000" stroke-width="1" stroke-linecap="round"/><path d="M307.78355,257.39954c0,0 -4.85009,5.25422 -8.43477,7.62525c-3.61887,2.39372 -13.07941,4.55036 -13.07941,4.55036" fill="none" stroke="#000000" stroke-width="1" stroke-linecap="round"/><path d="M261.2292,247.0045c0,0 2.82016,-8.82233 7.596,-11.7275c7.3284,-4.45789 18.21714,-8.44931 18.21714,-8.44931" fill="none" stroke="#000000" stroke-width="1" stroke-linecap="round"/><path d="M265.10433,232.22001c0,0 17.17518,-2.11874 28.91503,10.75447c12.85953,14.10095 3.81554,28.78754 3.81554,28.78754" fill="none" stroke="#000000" stroke-width="1" stroke-linecap="round"/><path d="M259.21388,239.70382c0,0 17.78454,0.75652 28.16845,12.0938c8.52612,9.30897 2.06537,22.39241 2.06537,22.39241" fill="none" stroke="#000000" stroke-width="1" stroke-linecap="round"/><path d="M302.77266,243.39942c-0.56344,-1.06292 -0.33797,-2.2861 0.50349,-2.7321c0.84143,-0.44604 1.23457,0.24635 1.79797,1.30925c0.56344,1.06292 1.08366,2.09381 0.24221,2.53981c-0.84143,0.44604 -1.9803,-0.05406 -2.54367,-1.11695z" fill="#8fbbbe" stroke="none" stroke-width="0" stroke-linecap="butt"/><path d="M305.27117,250.22707c-0.51803,-0.30565 -0.56637,-1.18335 -0.10794,-1.96041c0.45846,-0.77708 0.7529,-1.03106 1.27096,-0.72543c0.51803,0.30565 0.7227,1.27558 0.26423,2.0526c-0.45846,0.77708 -0.90927,0.93883 -1.4273,0.63318z" fill="#8fbbbe" stroke="none" stroke-width="0" stroke-linecap="butt"/><path d="M299.47578,237.31711c-0.72382,-0.53865 -1.01945,-1.3664 -0.66039,-1.84897c0.35903,-0.48254 0.96023,0.03195 1.68404,0.57057c0.72382,0.53865 1.29618,0.89741 0.93711,1.37995c-0.35903,0.48254 -1.23697,0.43707 -1.96074,-0.10157z" fill="#8fbbbe" stroke="none" stroke-width="0" stroke-linecap="butt"/><path d="M277.70932,227.64393c0,0 10.02231,2.05742 16.3559,6.21744c3.5908,2.35851 5.9414,5.67681 7.69533,8.21256c1.55109,2.24245 2.87363,8.68268 3.37297,13.71747c0.36764,3.70683 0.10359,6.63893 0.10359,6.63893" fill="none" stroke="#000000" stroke-width="0.5" stroke-linecap="round"/><path d="M308.29918,242.95133c0,0 -5.71836,8.89262 -10.10174,12.05539c-3.69308,2.66472 -14.1716,5.86862 -14.1716,5.86862" fill="none" stroke="#000000" stroke-width="1" stroke-linecap="round"/><path d="M280.0096,256.60911c0,0 5.31836,-8.07116 8.67775,-11.09853c5.8985,-5.31551 15.92845,-8.10426 15.92845,-8.10426" fill="none" stroke="#000000" stroke-width="1" stroke-linecap="round"/></g><g stroke="#000000" stroke-linecap="butt"><path d="M254.97081,243.02815c22.22639,24.84563 20.25735,34.28907 14.22686,39.68382c-6.03049,5.39476 -28.93723,-10.37333 -51.16365,-35.21895c-22.22639,-24.84566 49.98993,-25.38724 56.02043,-30.78197c7.01443,-1.06117 5.76829,5.34545 0.14649,10.83649c-6.933,6.77171 -21.13001,13.35693 -19.23016,15.48064z" fill="#0d69be" stroke-width="2"/><path d="M280.6779,253.63462c9.54012,10.6644 8.40627,27.24239 -2.5326,37.02805c-10.93885,9.78566 -27.54032,9.0733 -37.08045,-1.59108c-9.54012,-10.6644 -8.40623,-27.24241 2.5326,-37.02805c10.93885,-9.78565 27.54029,-9.0733 37.08044,1.59112z" fill="#faddbf" stroke-width="2"/><path d="M243.28098,271.43117c9.54012,10.6644 45.52591,8.54336 34.58709,18.32905c-10.93885,9.78566 -27.54032,9.07328 -37.08044,-1.59112c-9.54012,-10.6644 -7.04678,-27.40234 2.49336,-16.73794z" fill="#ef8b89" stroke-width="0"/></g></g><path d="M262.10746,168.41524c0.09209,-0.24321 0.49275,-1.08926 1.52539,-0.79172c1.20113,0.3461 0.85504,1.54723 0.85504,1.54723l-0.14802,0.37891c-1.20249,2.0719 -2.62398,3.98816 -3.8963,6.01382c-1.30189,1.51161 -2.79428,3.52041 -4.71011,4.28974c-3.87958,1.5579 -7.62686,-2.42612 -8.12772,-6.00533c-0.64101,-4.58076 1.48988,-9.81023 3.87471,-13.66089c0,0 0.66275,-1.05983 1.7226,-0.39708c1.05983,0.66275 0.39708,1.7226 0.39708,1.7226c-1.70621,2.69729 -3.6869,6.94888 -3.68366,10.21461c0.0021,2.119 1.11682,6.07302 3.97543,6.07303c1.80311,0 3.51571,-2.54206 4.54034,-3.72141c1.1909,-1.9135 2.53505,-3.71639 3.67524,-5.66349z" fill="#000000" stroke="none" stroke-width="0.5" stroke-linecap="butt"/></g></g></svg>