<svg version="1.1" xmlns="http://www.w3.org/2000/svg" xmlns:xlink="http://www.w3.org/1999/xlink" width="234.83906" height="307.65528" viewBox="0,0,234.83906,307.65528"><g transform="translate(-244.15433,-22.92283)"><g data-paper-data="{&quot;isPaintingLayer&quot;:true}" fill-rule="nonzero" stroke-linejoin="miter" stroke-miterlimit="10" stroke-dasharray="" stroke-dashoffset="0" style="mix-blend-mode: normal"><g data-paper-data="{&quot;index&quot;:null}" stroke="#000000" stroke-linecap="butt"><path d="M298.86371,329.13374v-90.27109h61.17899v90.27109z" fill="#273750" stroke-width="2"/><path d="M299.65105,328.37717v-90.27109l18.42709,49.31565l42.75189,40.95544z" fill="#1f1e2e" stroke-width="0"/></g><g data-paper-data="{&quot;index&quot;:null}" stroke="#000000" stroke-linecap="butt"><path d="M246.25776,329.57811v-90.27109h61.17899v90.27109z" fill="#273750" stroke-width="2"/><path d="M247.04514,328.82151v-90.27109l18.42709,49.31565l42.75189,40.95544z" fill="#1f1e2e" stroke-width="0"/></g><g data-paper-data="{&quot;index&quot;:null}" stroke="#000000" stroke-linecap="butt"><path d="M442.85488,265.45726l-42.62904,-29.22842l34.65497,-40.48248l42.62904,29.22842z" fill="#ffcaa0" stroke-width="2"/><g><path d="M400.27221,236.4711l-58.7808,-40.3028l35.10667,-41.01013l58.7808,40.3028z" fill="#ff0008" stroke-width="2"/><path d="M400.96598,236.01006l-30.78765,-21.10941c0,0 23.29013,-3.49878 29.11827,-10.30699c5.52597,-6.4552 4.99237,-29.53965 4.99237,-29.53965l30.78765,21.10942c0,0 -11.21933,13.10596 -16.87389,19.71137c-5.71503,6.67606 -17.23677,20.13527 -17.23677,20.13527z" fill="#8d005e" stroke-width="0"/></g><path d="M442.90936,264.49856l-42.62904,-29.22842l37.78355,9.42482l39.50046,-20.67888z" fill="#ff6e5b" stroke-width="0"/></g><g data-paper-data="{&quot;index&quot;:null}" stroke="#000000" stroke-linecap="butt"><path d="M471.56831,108.47609c-4.96478,31.89729 -22.14152,56.11554 -38.36533,54.09299c-16.22381,-2.02256 -25.35104,-29.52002 -20.38625,-61.41731c4.96478,-31.89729 22.14152,-56.11554 38.36533,-54.09299c16.22381,2.02256 25.35104,29.52002 20.38625,61.41731z" fill="#01930e" stroke-width="2"/><path d="M424.52536,92.46594c-4.96478,31.89729 25.41307,71.75111 9.18928,69.72856c-16.2238,-2.02256 -25.35104,-29.52002 -20.38625,-61.41731c4.96478,-31.89729 16.16176,-40.20854 11.19698,-8.31125z" fill="#31525b" stroke-width="0"/></g><path d="M245.43177,237.43365l35.26867,-109.33663l122.17012,31.56384l-35.26867,109.33663z" data-paper-data="{&quot;index&quot;:null}" fill="#ff0008" stroke="#000000" stroke-width="2" stroke-linecap="butt"/><g data-paper-data="{&quot;index&quot;:null}" fill="#000000" stroke="#000000" stroke-linecap="butt"><path d="M274.44791,244.44187l34.61224,-107.30159l65.67794,16.96853l-34.61224,107.30159z" stroke-width="2"/><path d="M275.58328,243.76095l34.61224,-107.30159l0.8733,63.73043l30.19239,60.5397z" stroke-width="0"/></g><g data-paper-data="{&quot;index&quot;:null}" stroke="#000000" stroke-linecap="butt"><path d="M275.45202,82.44265c0.2122,-1.3633 5.20253,-26.99587 5.52453,-28.32419c8.13674,-33.56564 46.01332,-31.35369 92.98614,-25.49778c44.12356,5.50071 81.53844,14.75105 83.35724,46.57056c0.19407,3.39526 -4.49516,25.84384 -5.03261,29.29675c-1.92101,12.34197 -2.83476,39.8809 -12.52449,48.68405c-18.42695,16.74095 -53.98312,9.12761 -85.98618,5.13792c-33.83746,-4.21838 -65.54319,-7.18028 -77.21947,-29.50999c-5.17407,-9.89489 -2.81678,-35.36067 -1.10516,-46.35732z" fill="#ffcaa0" stroke-width="2"/><path d="M273.4215,82.1998c0.2122,-1.3633 5.20253,-26.99587 5.52453,-28.32419c4.6229,-19.07039 -1.7396,60.9241 47.76557,89.23235c38.79562,22.18429 115.65562,6.26422 111.75988,9.80352c-18.42695,16.74095 -54.72225,9.1453 -86.72531,5.15561c-33.83746,-4.21838 -65.54319,-7.18028 -77.21947,-29.50999c-5.17407,-9.89489 -2.81678,-35.36067 -1.10516,-46.35732z" fill="#ff6e5b" stroke-width="0"/></g><g data-paper-data="{&quot;index&quot;:null}" stroke="#000000" stroke-linecap="butt"><path d="M325.72085,88.19993c-4.96478,31.89729 -22.14152,56.11554 -38.36533,54.09299c-16.22381,-2.02256 -25.35104,-29.52002 -20.38625,-61.41731c4.96478,-31.89729 22.14152,-56.11554 38.36533,-54.09299c16.22381,2.02256 25.35104,29.52002 20.38625,61.41731z" fill="#01930e" stroke-width="2"/><path d="M278.6779,72.18979c-4.96478,31.89729 25.41307,71.75111 9.18928,69.72856c-16.2238,-2.02256 -25.35104,-29.52002 -20.38625,-61.41731c4.96478,-31.89729 16.16176,-40.20854 11.19698,-8.31125z" fill="#31525b" stroke-width="0"/></g><g data-paper-data="{&quot;index&quot;:null}" stroke-linecap="butt"><path d="M476.18889,69.81787c-2.72262,17.49207 -50.70282,25.96584 -107.16676,18.9267c-56.46393,-7.03913 -100.02987,-26.9256 -97.30724,-44.41766c2.72262,-17.49207 50.70281,-25.96583 107.16675,-18.92669c56.46393,7.03913 100.02988,26.92559 97.30725,44.41766z" fill="#000000" stroke="none" stroke-width="NaN"/><path d="M475.3278,70.05813c-2.72262,17.49207 -50.70282,25.96584 -107.16676,18.9267c-56.46393,-7.03913 -100.02987,-26.9256 -97.30724,-44.41766c2.72262,-17.49207 45.99425,14.66836 102.45819,21.70749c56.46393,7.03913 104.73844,-13.70861 102.01581,3.78346z" fill="#ff0000" stroke="#000000" stroke-width="2"/><path d="M467.94958,78.42406c-0.74925,4.81366 -43.84453,18.24427 -100.08762,9.78631c-19.68169,-2.95978 -38.06956,-6.89976 -52.81215,-11.72003c-27.36976,-8.94888 -43.36813,-19.60873 -40.16176,-23.33823c3.31162,-3.8519 39.07655,21.91274 95.5405,28.95188c56.46393,7.03913 98.27028,-8.49359 97.52104,-3.67993z" fill="#900056" stroke="#000000" stroke-width="0"/></g><path d="M388.66208,121.57444c-2.42302,15.56721 -7.60229,27.78613 -11.56822,27.29171c-3.96593,-0.49442 -5.21671,-13.51494 -2.79367,-29.08214c2.42302,-15.56721 7.6023,-27.78612 11.56822,-27.2917c3.96593,0.49442 5.21671,13.51494 2.79367,29.08215z" data-paper-data="{&quot;index&quot;:null}" fill="#000000" stroke="none" stroke-width="0" stroke-linecap="butt"/><path d="M417.82516,120.84674c-2.41333,15.50494 -7.41554,27.69447 -11.17273,27.22608c-3.7572,-0.4684 -4.84661,-13.41734 -2.43327,-28.92228c2.41333,-15.50494 7.41554,-27.69447 11.17273,-27.22608c3.7572,0.4684 4.84661,13.41734 2.43327,28.92228z" data-paper-data="{&quot;index&quot;:null}" fill="#000000" stroke="none" stroke-width="0" stroke-linecap="butt"/><path d="M363.05773,91.38257l33.20071,4.139" fill="none" stroke="#000000" stroke-width="5" stroke-linecap="round"/><path d="M406.6751,94.17583l26.52016,-1.26133" fill="none" stroke="#000000" stroke-width="5" stroke-linecap="round"/><g data-paper-data="{&quot;index&quot;:null}" stroke="#000000" stroke-linecap="butt"><path d="M365.13787,239.67553l-46.32318,-24.31276l28.82667,-43.99059l46.32318,24.31276z" fill="#ffcaa0" stroke-width="2"/><g><path d="M318.89402,215.5981l-63.87459,-33.52463l29.20238,-44.56397l63.87459,33.52463z" fill="#ff0008" stroke-width="2"/><path d="M319.51913,215.06417l-33.45563,-17.55921c0,0 22.63223,-6.03653 27.4802,-13.43473c4.5966,-7.01459 0.89369,-29.86492 0.89369,-29.86492l33.45564,17.55921c0,0 -9.33246,14.24169 -14.03602,21.41951c-4.75386,7.25459 -14.33787,21.88014 -14.33787,21.88014z" fill="#8d005e" stroke-width="0"/></g><path d="M365.06017,238.71813l-46.32318,-24.31276l38.79213,5.19311l36.35771,-24.87094z" fill="#ff6e5b" stroke-width="0"/></g><path d="M354.26052,136.83333c0,5.98308 -3.16835,10.83333 -7.07671,10.83333c-3.90836,0 -7.07671,-4.85025 -7.07671,-10.83333c0,-5.98308 3.16835,-10.83333 7.07671,-10.83333c3.90836,0 7.07671,4.85025 7.07671,10.83333z" fill="#000000" stroke="none" stroke-width="0" stroke-linecap="butt"/></g></g></svg>