<svg version="1.1" xmlns="http://www.w3.org/2000/svg" xmlns:xlink="http://www.w3.org/1999/xlink" width="173.97661" height="313.11214" viewBox="0,0,173.97661,313.11214"><g transform="translate(-232.79612,-47.87529)"><g data-paper-data="{&quot;isPaintingLayer&quot;:true}" fill-rule="nonzero" stroke-linejoin="miter" stroke-miterlimit="10" stroke-dasharray="" stroke-dashoffset="0" style="mix-blend-mode: normal"><g stroke="#000000" stroke-linecap="butt"><path d="M297.43691,243.6229c-15.64758,29.43589 -34.12431,50.21957 -41.26895,46.42163c-7.14465,-3.79796 -0.25164,-30.73934 15.39592,-60.17524c15.64758,-29.43589 34.12431,-50.21957 41.26895,-46.42163c7.14465,3.79796 0.25164,30.73934 -15.39593,60.17524z" fill="#0d69be" stroke-width="2"/><path d="M287.42084,290.78342c-6.71633,12.63463 -22.66698,17.29224 -35.62679,10.40307c-12.95979,-6.88917 -18.02113,-22.71635 -11.30478,-35.351c6.71635,-12.63464 22.66698,-17.29224 35.62679,-10.40307c12.95979,6.88918 18.02111,22.71638 11.30478,35.351z" fill="#faddbf" stroke-width="2"/><path d="M257.81054,261.82692c-6.71635,12.63464 7.69462,45.67705 -5.26517,38.78786c-12.95979,-6.88917 -18.02112,-22.71635 -11.30478,-35.351c6.71635,-12.63464 23.28628,-16.0715 16.56995,-3.43687z" fill="#ef8b89" stroke-width="0"/></g><g stroke="#000000" stroke-linecap="butt"><path d="M307.76518,340.83538v-95.29492h29.49199v95.29492z" fill="#73fffc" stroke-width="2"/><path d="M307.43943,340.21744l1.32626,-93.78573c0,0 5.20288,68.11227 6.3799,77.52842c0.2602,2.08162 2.52228,2.78987 2.52228,2.78987l18.60659,13.13896z" fill="#59a9e6" stroke-width="0"/></g><g stroke="#000000" stroke-linecap="butt"><path d="M268.4238,338.41284v-95.29492h29.49199v95.29492z" fill="#73fffc" stroke-width="2"/><path d="M268.09805,337.79492l1.32626,-93.78573c0,0 5.20288,68.11227 6.3799,77.52842c0.2602,2.08162 2.52228,2.78987 2.52228,2.78987l18.60659,13.13896z" fill="#59a9e6" stroke-width="0"/></g><g stroke="#000000" stroke-linecap="butt"><path d="M335.22917,235.69588c0,13.80271 10.04743,36.74388 4.95001,46.45977c-6.2338,11.88187 -28.61241,9.09579 -38.9397,9.09579c-13.66287,0 -32.94407,4.17018 -38.34426,-14.83216c-2.01935,-7.10576 4.35457,-32.37264 4.35457,-40.7234c0,-30.68249 15.2177,-55.55556 33.98969,-55.55556c18.77199,0 33.98969,24.87307 33.98969,55.55556z" fill="#0d69be" stroke-width="2"/><path d="M283.96554,251.27245c0,13.80271 62.04198,20.54886 56.94455,30.26474c-6.2338,11.88186 -28.61241,9.09579 -38.9397,9.09579c-13.66287,0 -32.94406,4.17018 -38.34425,-14.83215c-2.01936,-7.10576 4.35457,-32.37265 4.35457,-40.7234c0,-9.45244 3.34855,-28.59801 5.51953,-29.96813c5.94391,-16.76415 10.4653,25.13995 10.4653,46.16315z" fill="#10157d" stroke-width="0"/></g><g stroke-linecap="butt"><g stroke="#000000"><g><path d="M236.01866,117.11304c10.6024,-45.57375 56.14217,-73.92364 101.71593,-63.32124c45.57375,10.6024 73.92364,56.14217 63.32124,101.71593c-10.6024,45.57375 -56.14217,73.92364 -101.71593,63.32124c-45.57375,-10.6024 -73.92364,-56.14217 -63.32124,-101.71593z" fill="#faddbf" stroke-width="2"/><path d="M236.44045,116.31844c3.41117,-14.66272 17.72489,-37.9828 22.84495,-40.09166c0.58472,-0.24084 7.65491,-7.36738 16.50172,-12.20513c10.99598,-6.01299 24.19465,-9.93245 24.74488,-9.60212c7.17888,4.30978 -31.76625,59.19667 -36.29005,84.10953c-0.01079,0.05941 -0.1714,20.18783 1.30553,20.98206c1.73584,5.27295 4.53395,20.71965 13.51434,30.13968c16.73601,17.55534 43.20952,30.25806 41.65022,30.41454c-2.49432,0.2503 -15.04513,-0.65716 -20.95034,-2.03097c-45.57375,-10.6024 -73.92364,-56.14217 -63.32124,-101.71593z" fill="#ef8b89" stroke-width="0"/><path d="M400.64982,154.94284c-2.63398,11.32199 -5.08088,14.87636 -5.19899,12.94771c-0.1205,-1.96758 2.04186,-9.60067 -5.48798,-16.31719c-1.82463,-1.62755 -11.36287,3.80016 -13.74125,1.98591c-1.49389,-1.13956 -6.12141,-11.87138 -7.83214,-12.96345c-1.19611,-0.76356 -14.02457,5.33858 -15.28559,4.58253c-3.14506,-1.88563 -9.09954,-13.79422 -12.60408,-15.28511c-1.92985,-0.82099 -11.72641,9.43815 -13.72306,8.71302c-2.57493,-0.93515 -7.07213,-14.03599 -9.73832,-14.65626c-7.0905,-1.64955 -8.87382,5.13358 -15.33636,9.79673c-4.19952,3.03023 -10.66713,-15.88206 -14.71467,-12.27005c-5.02657,4.48568 -9.97033,8.78707 -14.91669,11.33209c-3.8806,1.99667 -10.72869,-12.86246 -14.12304,-10.96444c-16.38886,9.16413 -26.32319,15.07111 -22.2056,-2.62807c8.27969,-35.58974 44.02283,1.80876 89.59546,-9.68557c43.62166,-11.00226 83.59201,9.82242 75.31232,45.41216z" fill="#ef8b89" stroke-width="0"/></g><path d="M404.02698,147.19568c-5.32113,22.87254 4.38699,9.96865 -10.97361,-3.43616c-1.87969,-1.64036 -11.62472,3.73924 -14.07308,1.90871c-1.53785,-1.14979 -6.34339,-11.92302 -8.10321,-13.02651c-1.23044,-0.77154 -14.34399,5.26427 -15.64091,4.49986c-3.2346,-1.90646 -9.4071,-13.86577 -13.00788,-15.37905c-1.98284,-0.83332 -11.96456,9.38275 -14.01532,8.64502c-2.6447,-0.95138 -7.33045,-14.09609 -10.06687,-14.7327c-7.27727,-1.693 -9.06571,5.08894 -15.66264,9.72083c-4.28684,3.00992 -11.02601,-15.96555 -15.1537,-12.37218c-5.12609,4.46253 -10.16839,8.74099 -15.22355,11.2607c-3.96596,1.97681 -11.07155,-12.94222 -14.53969,-11.06137c-16.74512,9.08125 -26.89335,14.93846 -22.77577,-2.76071c8.27969,-35.58974 57.23795,-70.11093 101.97023,-59.70429c44.73227,10.40663 75.5457,60.84812 67.26601,96.43786z" fill="#873412" stroke-width="2"/><path d="M404.04917,146.007c-5.32113,22.87254 4.38699,9.96865 -10.97361,-3.43616c-1.87969,-1.64036 -11.62472,3.73924 -14.07308,1.90871c-1.53785,-1.14979 -6.34339,-11.92302 -8.10322,-13.02651c-1.23044,-0.77154 -14.34399,5.26427 -15.64091,4.49986c-3.2346,-1.90646 -9.4071,-13.86577 -13.00788,-15.37905c-1.98284,-0.83332 -11.96456,9.38275 -14.01532,8.64502c-2.6447,-0.95138 -7.33045,-14.09609 -10.06687,-14.7327c-7.27727,-1.693 -9.06571,5.08894 -15.66264,9.72083c-4.28684,3.00992 -11.02601,-15.96555 -15.1537,-12.37218c-5.12609,4.46253 -10.16839,8.74099 -15.22356,11.2607c-3.96596,1.97681 -11.07155,-12.94222 -14.53969,-11.06137c-16.74512,9.08125 -26.89335,14.93846 -22.77577,-2.76071c8.27969,-35.58974 45.13339,2.06712 91.77799,-9.17783c44.64773,-10.76355 85.73794,10.32165 77.45824,45.91139z" fill="#741d23" stroke-width="0"/></g><path d="M336.72416,61.40712c0.03715,0.12736 0.05918,0.26951 0.06887,0.42254c0.03303,0.27375 0.02096,0.55755 -0.04224,0.84166c-0.15159,1.1314 -0.61326,2.4378 -0.6809,2.9273c-0.08887,0.64311 1.32869,-0.45817 1.93462,-0.22509c0.37117,0.14278 0.59744,0.92096 0.94518,0.72802c2.11035,-1.17092 4.31998,-3.59339 6.63508,-1.38822c0.76672,0.73031 0.23028,1.99473 0.6251,2.7896c0.03319,0.06682 2.5723,0.45818 3.03167,1.11221c0.79153,1.12695 -0.19935,2.26564 0.08518,3.35099c0.09104,0.3473 0.65976,-0.30057 1.01253,-0.36732c1.57002,-0.29704 4.34793,-1.04864 5.82838,0.32426c0.78007,0.7234 0.23896,2.25228 0.63255,2.79755c0.69003,0.95592 2.19258,-0.89146 3.33906,-1.16624c1.58566,-0.38005 2.13527,0.46736 3.14646,1.6124c0.17441,0.1975 -0.47568,4.13171 0.33552,5.50908c0.45598,0.77422 1.80317,-0.46212 2.68165,-0.2734c0.8765,0.1883 2.80766,-0.10404 3.19508,0.09247c0.77712,0.39418 1.15894,1.95429 1.99067,1.69442c4.24651,-1.32678 8.70139,1.19706 5.98512,5.65772c-0.34374,0.56451 1.41757,-0.25946 1.98092,0.08619c0.2184,0.13399 1.31019,1.4155 1.55097,1.38321c1.57487,-0.21117 2.65216,-0.69679 4.2028,-0.34001c1.28779,0.2963 2.35477,1.30827 2.34075,2.72234c-0.00737,0.74316 -1.45252,1.84191 -0.75481,2.09792c1.64459,0.60348 4.13513,1.92761 2.80797,4.22411c-1.44066,2.49289 -4.22346,4.29842 -6.25552,1.67886c-0.70503,-0.90885 -2.52591,0.68819 -3.45077,0.00429c-1.18481,-0.87613 -1.31692,-3.25644 -0.98068,-4.38624c0.15544,-0.52227 -1.13011,0.12107 -1.63225,-0.09059c-0.67606,-0.28496 -0.76264,-1.42526 -1.46275,-1.6446c-1.566,-0.49061 -2.06354,2.87331 -5.67077,1.22655c-1.06472,-0.48606 -1.95636,-2.69438 -2.07724,-3.84976c-0.07017,-0.67067 2.00945,-2.25284 1.87944,-2.39149c-0.31571,-0.33666 -2.53585,2.31299 -2.98341,2.35481c-1.07671,0.10061 -2.00607,-0.85657 -2.87997,-1.49353c-0.7721,-0.56276 -1.55156,1.57944 -2.49272,1.4149c-0.83147,-0.14536 -9.00081,-2.58936 -9.21343,-3.15524c-0.25924,-0.68991 -0.40931,-1.86218 -0.0949,-2.51767c0.113,-0.23557 1.36768,-1.57222 1.18626,-1.59374c-0.64383,-0.07638 -4.85862,2.40123 -6.23425,-1.25979c-0.74805,-1.99083 1.76235,-3.28458 2.13352,-4.86574c0.22922,-0.97645 -1.4597,1.38058 -2.11792,2.13738c-0.50556,0.58128 -1.69344,0.94619 -2.45343,0.79503c-2.62765,-0.52262 -1.32676,-2.84954 -1.53106,-4.4519c-0.09428,-0.73948 -1.6716,0.22218 -2.21821,-0.28471c-1.33645,-1.23936 -0.84313,-2.3202 -0.63008,-3.84372c0.09755,-0.69759 -1.14966,2.52021 -2.78923,2.30977c-0.66493,-0.08535 -1.46401,-1.31324 -1.85766,-0.77059c-1.91649,2.6419 -1.50435,3.98224 -5.09266,2.65353c-0.34626,-0.12822 -1.13258,0.55342 -1.46444,0.24567c-3.6729,-3.40608 0.95924,-7.92007 1.9863,-11.79626c0.36229,-1.3673 -0.06037,-3.63584 1.29481,-4.04109c0.59053,-0.61914 1.48378,-0.91885 2.37747,-0.71094c0.79241,0.18435 1.40836,0.72665 1.71667,1.41618c0.05513,0.09185 0.09958,0.19029 0.1307,0.29698z" fill="#ba587e" stroke="none" stroke-width="0.5"/></g><g stroke="#000000" stroke-linecap="butt"><path d="M341.19841,174.61119c-6.47122,27.81612 -22.63482,39.17968 -38.77241,35.42539c-16.13759,-3.75429 -26.13819,-21.20477 -19.66698,-49.02088c6.47122,-27.81612 24.79928,-47.32208 40.93687,-43.56778c16.13759,3.75429 23.97374,29.34716 17.50252,57.16328z" fill="#f0f0f0" stroke-width="2"/><path d="M300.09601,144.94369c-10.58803,26.5237 19.27519,68.18264 3.1376,64.42834c-16.13759,-3.75429 -26.13819,-21.20477 -19.66698,-49.02088c6.47122,-27.81612 31.83655,-53.75289 16.52938,-15.40746z" fill="#9a99ff" stroke-width="0"/></g><path d="M335.53969,181.74784c-3.58518,15.41067 -11.05849,26.84103 -16.69211,25.53041c-5.63362,-1.31062 -7.2942,-14.86591 -3.70902,-30.27658c3.58518,-15.41067 11.05849,-26.84103 16.69211,-25.53041c5.63362,1.31062 7.2942,14.86591 3.70902,30.27658z" fill="#000000" stroke="none" stroke-width="0" stroke-linecap="butt"/><g stroke="#000000" stroke-linecap="butt"><path d="M343.12501,144.22267c2.02548,10.97421 1.63699,34.13186 -13.66464,30.57205c-15.30163,-3.55981 -39.8985,-33.29988 -33.29318,-41.63519c6.28487,-7.93092 11.46649,-19.32331 26.76812,-15.7635c15.30163,3.55981 18.25938,16.36807 20.18969,26.82663z" fill="#a100fe" stroke-width="2"/><path d="M342.30504,143.66822c1.87737,10.93975 1.84209,33.69218 -12.9378,30.25375c-14.77989,-3.43843 -38.87222,-32.57373 -32.41783,-40.94415c6.14125,-7.96433 6.16966,2.42305 20.94955,5.86148c14.77989,3.43843 22.61691,-5.59681 24.40607,4.82891z" fill="#99008e" stroke-width="0"/></g><g data-paper-data="{&quot;index&quot;:null}" stroke="#000000" stroke-linecap="butt"><path d="M386.00007,130.87753c16.13759,3.75429 23.97374,29.34716 17.50252,57.16328c-6.47121,27.81611 -23.14745,39.06042 -39.28504,35.30613c-16.13759,-3.75429 -25.62557,-21.08551 -19.15435,-48.90162c6.47122,-27.81612 24.79928,-47.32208 40.93687,-43.56778z" fill="#f0f0f0" stroke-width="2"/><path d="M403.07125,187.08801c-6.47121,27.81611 -23.14745,39.06042 -39.28504,35.30613c-16.13759,-3.75429 29.04713,-27.95388 31.25381,-56.42743c3.1902,-41.16435 14.50245,-6.69481 8.03123,21.12131z" fill="#9a99ff" stroke-width="0"/></g><path d="M391.98206,164.83596c5.63362,1.31062 7.2942,14.86591 3.70902,30.27658c-3.58518,15.41067 -11.05849,26.84103 -16.69211,25.53041c-5.63362,-1.31062 -7.2942,-14.86591 -3.70902,-30.27658c3.58518,-15.41067 11.05849,-26.84103 16.69211,-25.53041z" data-paper-data="{&quot;index&quot;:null}" fill="#000000" stroke="none" stroke-width="0" stroke-linecap="butt"/><g data-paper-data="{&quot;index&quot;:null}" stroke="#000000" stroke-linecap="butt"><path d="M356.74783,146.32688c6.34845,-8.53257 14.65599,-18.72004 29.95762,-15.16022c15.30163,3.55981 14.92261,16.0695 17.06142,25.96012c2.24787,10.39494 -31.74063,26.26185 -47.04227,22.70204c-15.30163,-3.55981 -6.63825,-24.54868 0.02321,-33.50193z" fill="#a100fe" stroke-width="2"/><path d="M357.72833,146.19129c6.20731,-8.5654 9.25145,3.00126 24.03134,6.4397c14.77989,3.43843 19.39032,-5.86975 21.38552,3.98746c2.09693,10.35983 -31.3493,25.6218 -46.12919,22.18337c-14.77989,-3.43843 -5.80104,-23.62281 0.71232,-32.61052z" fill="#99008e" stroke-width="0"/></g><path d="M371.63632,338.87006c0,11.6628 -14.51982,21.11737 -32.43092,21.11737c-17.9111,0 -32.43092,-9.45457 -32.43092,-21.11737c0,-2.33142 -0.03339,-13.76009 1.08979,-15.13837c4.49546,-5.51647 17.81784,5.26144 32.14847,5.26144c17.9111,0 31.62358,-1.78588 31.62358,9.87692z" fill="#000082" stroke="#000000" stroke-width="2" stroke-linecap="butt"/><path d="M369.75004,336.13776c0,6.30841 -13.89058,10.1901 -31.80169,10.1901c-17.9111,0 -30.16566,-2.95748 -30.16566,-9.26589c0,-1.26107 -0.03338,-12.52602 1.0898,-13.27153c4.49546,-2.98386 15.55258,5.7726 29.88321,5.7726c17.9111,0 30.99434,0.26631 30.99434,6.57472z" fill="#2e0048" stroke="#000000" stroke-width="0" stroke-linecap="butt"/><path d="M328.64938,338.22525c0,11.6628 -14.51982,21.11737 -32.43092,21.11737c-17.9111,0 -32.43092,-9.45457 -32.43092,-21.11737c0,-2.33142 -0.03339,-13.76009 1.08979,-15.13837c4.49546,-5.51647 17.81784,5.26144 32.14847,5.26144c17.9111,0 31.62358,-1.78588 31.62358,9.87692z" fill="#000082" stroke="#000000" stroke-width="2" stroke-linecap="butt"/><path d="M326.7631,335.49289c0,6.30841 -13.89058,10.1901 -31.80169,10.1901c-17.9111,0 -30.16566,-2.95748 -30.16566,-9.26589c0,-1.26107 -0.03338,-12.52602 1.0898,-13.27153c4.49546,-2.98386 15.55258,5.7726 29.88321,5.7726c17.9111,0 30.99434,0.26631 30.99434,6.57472z" fill="#2e0048" stroke="#000000" stroke-width="0" stroke-linecap="butt"/><g><g><path d="M324.5505,213.91056c-4.6716,14.34569 -14.61428,20.37506 -29.01718,16.41709c-11.26466,-3.09556 -19.74171,-19.10067 -15.07009,-33.44639c4.6716,-14.34577 17.33513,-21.74842 31.53789,-17.12339c2.22104,0.72324 4.05618,2.04992 5.74357,3.24595c9.10275,6.45217 10.74691,18.80443 6.80585,30.90674z" fill="#485e84" stroke="#000000" stroke-width="2" stroke-linecap="butt"/><path d="M281.33344,210.62271c0,0 5.32035,2.19661 6.95814,1.04291c15.7102,-11.06632 21.03518,-24.06104 22.46839,-28.49338c0.32565,-1.00703 -0.41259,-1.85312 -0.41259,-1.85312c0,0 2.06752,0.43982 4.42845,1.83267c2.51223,1.4821 5.37155,3.99771 6.93616,6.64291c1.78721,3.0216 4.03952,11.04876 4.03952,11.04876l-3.30058,20.68731c0,0 -11.4189,7.11083 -13.54076,7.55199c-2.07873,0.43221 -4.66243,0.34744 -7.41314,0.36789c-4.27091,0.03169 -8.53934,-1.51332 -10.86247,-3.21566c-2.96479,-2.1726 -5.6386,-5.99395 -7.25267,-9.45187c-1.5022,-3.21824 -2.04833,-6.16037 -2.04833,-6.16037z" fill="#343545" stroke="none" stroke-width="0" stroke-linecap="butt"/><path d="M305.19152,215.91032c0,0 -8.97132,-0.95577 -12.70616,-4.50978c-4.72796,-4.49898 -11.25546,-15.70139 -11.25546,-15.70139" fill="none" stroke="#000000" stroke-width="1" stroke-linecap="round"/><path d="M304.93674,179.17544c0,0 6.17953,3.59771 9.27032,6.58413c3.12034,3.01489 7.27377,11.78427 7.27377,11.78427" fill="none" stroke="#000000" stroke-width="1" stroke-linecap="round"/><path d="M304.8658,226.87618c0,0 -9.22361,-0.8435 -13.09374,-4.87724c-5.93856,-6.18964 -12.19243,-15.95618 -12.19243,-15.95618" fill="none" stroke="#000000" stroke-width="1" stroke-linecap="round"/><path d="M289.59301,226.2933c0,0 -5.78641,-16.3093 4.24023,-30.55746c10.98291,-15.60707 27.27903,-9.95669 27.27903,-9.95669" fill="none" stroke="#000000" stroke-width="1" stroke-linecap="round"/><path d="M298.17447,230.42408c0,0 -3.11124,-17.52662 5.70941,-30.11851c7.24259,-10.33908 21.41438,-6.86367 21.41438,-6.86367" fill="none" stroke="#000000" stroke-width="1" stroke-linecap="round"/><path d="M292.35329,187.09813c-0.91575,0.78015 -2.15874,0.82483 -2.77631,0.09988c-0.61762,-0.72493 -0.02675,-1.25863 0.889,-2.03876c0.91575,-0.78015 1.80958,-1.51121 2.42715,-0.78625c0.61762,0.72493 0.3759,1.94504 -0.53985,2.72514z" fill="#8fbbbe" stroke="none" stroke-width="0" stroke-linecap="butt"/><path d="M298.47819,183.18087c-0.18626,0.57191 -1.03267,0.8091 -1.89056,0.52976c-0.8579,-0.27937 -1.16959,-0.51186 -0.98337,-1.08378c0.18626,-0.57191 1.08888,-0.98168 1.94674,-0.70231c0.8579,0.27937 1.11339,0.68448 0.92712,1.2564z" fill="#8fbbbe" stroke="none" stroke-width="0" stroke-linecap="butt"/><path d="M287.12887,191.63347c-0.3692,0.82326 -1.11333,1.29107 -1.66217,1.04497c-0.54881,-0.24606 -0.17668,-0.94438 0.19249,-1.76762c0.3692,-0.82326 0.59555,-1.4597 1.14438,-1.21359c0.54881,0.24606 0.69447,1.11302 0.32528,1.93624z" fill="#8fbbbe" stroke="none" stroke-width="0" stroke-linecap="butt"/><path d="M282.39684,214.9778c0,0 -0.16088,-10.23004 2.52947,-17.31397c1.52529,-4.01621 4.25608,-7.02938 6.35203,-9.29062c1.85351,-1.99973 7.85476,-4.68504 12.66206,-6.26241c3.53935,-1.16133 6.45908,-1.53827 6.45908,-1.53827" fill="none" stroke="#000000" stroke-width="0.5" stroke-linecap="round"/><path d="M290.71949,181.79965c0,0 9.91962,3.65778 13.95626,7.2526c3.40098,3.02869 8.79721,12.56521 8.79721,12.56521" fill="none" stroke="#000000" stroke-width="1" stroke-linecap="round"/><path d="M310.17729,206.46196c0,0 -9.03105,-3.4451 -12.71386,-6.06951c-6.46632,-4.60799 -11.36014,-13.79644 -11.36014,-13.79644" fill="none" stroke="#000000" stroke-width="1" stroke-linecap="round"/></g><g stroke="#000000" stroke-linecap="butt"><path d="M302.33849,233.84693c19.44519,-27.07773 29.09093,-27.19959 35.6632,-22.47988c6.57227,4.71971 -3.86331,30.49663 -23.30851,57.57436c-19.4452,27.07772 -35.60659,-43.30907 -42.17885,-48.02878c-2.55443,-6.6184 3.97004,-6.78865 10.54783,-2.48879c8.11194,5.30274 17.61425,17.73761 19.27634,15.4231z" fill="#0d69be" stroke-width="2"/><path d="M307.12866,206.4534c8.34639,-11.62245 24.77676,-14.1041 36.69832,-5.54293c11.92156,8.56117 14.81982,24.92323 6.47345,36.54567c-8.34639,11.62245 -24.77677,14.10409 -36.69832,5.54292c-11.92156,-8.56117 -14.8198,-24.92321 -6.47341,-36.54566z" fill="#faddbf" stroke-width="2"/><path d="M332.59857,239.11119c8.34639,-11.62245 -1.51419,-46.29584 10.40738,-37.73469c11.92156,8.56117 14.8198,24.92322 6.47341,36.54566c-8.34639,11.62245 -25.22719,12.81148 -16.88081,1.18903z" fill="#ef8b89" stroke-width="0"/></g></g><path d="M270.03999,171.93677c0.07933,-0.24767 0.4355,-1.11339 1.48221,-0.86988c1.21749,0.28324 0.93425,1.50073 0.93425,1.50073l-0.12814,0.38609c-1.09325,2.13156 -2.41329,4.11907 -3.57867,6.20809c-1.22161,1.5772 -2.60765,3.6608 -4.48093,4.52861c-3.79342,1.75731 -7.74258,-2.02669 -8.42868,-5.57505c-0.87808,-4.54128 0.97831,-9.87438 3.1599,-13.84371c0,0 0.60681,-1.09283 1.69965,-0.48602c1.09283,0.60681 0.48602,1.69965 0.48602,1.69965c-1.5638,2.78227 -3.32098,7.131 -3.14812,10.39215c0.11216,2.11603 1.43076,6.00682 4.28551,5.85834c1.80068,-0.09366 3.37893,-2.72124 4.34091,-3.95222c1.0899,-1.97278 2.33859,-3.84305 3.37611,-5.84675z" fill="#000000" stroke="none" stroke-width="0.5" stroke-linecap="butt"/></g></g></svg>