<svg version="1.1" xmlns="http://www.w3.org/2000/svg" xmlns:xlink="http://www.w3.org/1999/xlink" width="213.08961" height="336.66886" viewBox="0,0,213.08961,336.66886"><g transform="translate(-207.98331,-24.31852)"><g data-paper-data="{&quot;isPaintingLayer&quot;:true}" fill-rule="nonzero" stroke-linejoin="miter" stroke-miterlimit="10" stroke-dasharray="" stroke-dashoffset="0" style="mix-blend-mode: normal"><g stroke="#000000" stroke-linecap="butt"><path d="M345.94107,200.64984c32.35807,-8.01714 60.16694,-8.14948 62.11285,-0.29557c1.94591,7.8539 -22.70802,20.71993 -55.06609,28.73707c-32.35807,8.01714 -60.16694,8.14948 -62.11285,0.29557c-1.94591,-7.8539 22.70802,-20.71993 55.0661,-28.73707z" fill="#0d69be" stroke-width="2"/><path d="M387.7281,176.60242c13.8889,-3.44116 28.00948,5.31817 31.5392,19.5645c3.52971,14.24633 -4.86805,28.5849 -18.75696,32.02605c-13.88891,3.44115 -28.00948,-5.31817 -31.5392,-19.5645c-3.52972,-14.24634 4.86806,-28.58489 18.75696,-32.02605z" fill="#faddbf" stroke-width="2"/><path d="M385.95727,217.9801c13.88891,-3.44115 28.85302,-36.23676 32.38274,-21.99043c3.52971,14.24633 -4.86806,28.58488 -18.75696,32.02605c-13.88891,3.44115 -27.51468,-6.59446 -13.62577,-10.03561z" fill="#ef8b89" stroke-width="0"/></g><g stroke="#000000" stroke-linecap="butt"><path d="M307.76518,340.83532v-95.29492h29.49199v95.29492z" fill="#73fffc" stroke-width="2"/><path d="M307.43943,340.21738l1.32626,-93.78573c0,0 5.20288,68.11227 6.3799,77.52842c0.2602,2.08162 2.52228,2.78987 2.52228,2.78987l18.60659,13.13896z" fill="#59a9e6" stroke-width="0"/></g><g stroke="#000000" stroke-linecap="butt"><path d="M268.4238,338.41279v-95.29492h29.49199v95.29492z" fill="#73fffc" stroke-width="2"/><path d="M268.09805,337.79486l1.32626,-93.78573c0,0 5.20288,68.11227 6.3799,77.52842c0.2602,2.08162 2.52228,2.78987 2.52228,2.78987l18.60659,13.13896z" fill="#59a9e6" stroke-width="0"/></g><g stroke="#000000" stroke-linecap="butt"><path d="M335.22917,235.69584c0,13.80271 10.04743,36.74388 4.95001,46.45977c-6.2338,11.88187 -28.61241,9.09579 -38.9397,9.09579c-13.66287,0 -32.94407,4.17018 -38.34426,-14.83216c-2.01935,-7.10576 4.35457,-32.37264 4.35457,-40.7234c0,-30.68249 15.2177,-55.55556 33.98969,-55.55556c18.77199,0 33.98969,24.87307 33.98969,55.55556z" fill="#0d69be" stroke-width="2"/><path d="M283.96554,251.27246c0,13.80271 62.04198,20.54886 56.94455,30.26474c-6.2338,11.88186 -28.61241,9.09579 -38.9397,9.09579c-13.66287,0 -32.94406,4.17018 -38.34425,-14.83215c-2.01936,-7.10576 4.35457,-32.37265 4.35457,-40.7234c0,-9.45244 3.34855,-28.59801 5.51953,-29.96813c5.94391,-16.76415 10.4653,25.13995 10.4653,46.16315z" fill="#10157d" stroke-width="0"/></g><g stroke-linecap="butt"><g stroke="#000000"><g><path d="M211.68631,112.77518c0,-46.79079 37.93143,-84.72222 84.72222,-84.72222c46.79079,0 84.72222,37.93143 84.72222,84.72222c0,46.79079 -37.93143,84.72222 -84.72222,84.72222c-46.79079,0 -84.72222,-37.93143 -84.72222,-84.72222z" fill="#faddbf" stroke-width="2"/><path d="M211.91708,111.90567c0,-15.05428 8.65728,-41.01117 13.16632,-44.22534c0.51494,-0.36707 5.78642,-8.91029 13.30693,-15.62682c9.34748,-8.34819 21.31473,-15.15641 21.9255,-14.95935c7.96872,2.57101 -17.52654,64.85492 -16.28763,90.14485c0.00295,0.06031 4.40745,19.70158 6.02593,20.14049c2.8855,4.74247 9.11092,19.15337 19.99223,26.29351c20.2786,13.30648 48.94186,19.68013 47.45857,20.18586c-2.37273,0.80898 -14.80271,2.76903 -20.86562,2.76903c-46.79079,0 -84.72222,-37.93143 -84.72222,-84.72222z" fill="#ef8b89" stroke-width="0"/><path d="M380.60731,112.31698c0,11.62434 -1.57787,15.64071 -2.12992,13.78899c-0.5632,-1.8891 -0.18668,-9.81362 -9.04258,-14.64925c-2.14596,-1.17177 -10.20624,6.27605 -12.93385,5.04791c-1.71325,-0.77142 -8.65215,-10.17554 -10.56583,-10.85157c-1.33801,-0.47267 -12.45011,8.37757 -13.84965,7.92692c-3.49052,-1.12394 -11.98851,-11.37355 -15.73972,-12.03156c-2.06568,-0.36235 -9.2828,11.84977 -11.39182,11.59592c-2.71985,-0.32737 -10.06862,-12.06843 -12.80601,-12.06843c-7.27985,0 -7.47978,7.01079 -12.7176,13.01701c-3.40366,3.90299 -13.98842,-13.05188 -17.11223,-8.61668c-3.87941,5.50799 -7.71992,10.81771 -11.96095,14.41734c-3.32724,2.82405 -13.36416,-10.09687 -16.24015,-7.47909c-13.88607,12.63935 -22.22353,20.64372 -22.22353,2.47189c0,-36.54015 43.28764,-8.21349 85.0704,-29.73523c39.99404,-20.60039 83.64345,-9.37431 83.64345,27.16584z" fill="#ef8b89" stroke-width="0"/></g><path d="M382.14118,104.00609c0,23.48334 6.5317,8.71531 -11.46679,-0.86026c-2.20249,-1.17177 -10.47508,6.27605 -13.27454,5.04791c-1.75838,-0.77142 -8.88005,-10.17554 -10.84414,-10.85157c-1.37326,-0.47267 -12.77806,8.37757 -14.21446,7.92692c-3.58246,-1.12394 -12.30429,-11.37355 -16.15431,-12.03156c-2.12009,-0.36235 -9.52731,11.84977 -11.69189,11.59592c-2.79149,-0.32737 -10.33384,-12.06843 -13.14333,-12.06843c-7.47161,0 -7.6768,7.01079 -13.05259,13.01701c-3.49332,3.90299 -14.35688,-13.05188 -17.56298,-8.61668c-3.98159,5.50799 -7.92327,10.81771 -12.276,14.41734c-3.41488,2.82405 -13.71618,-10.09687 -16.66792,-7.47909c-14.25184,12.63935 -22.80892,20.64372 -22.80892,2.47189c0,-36.54015 39.86264,-81.25697 85.78948,-81.25697c45.92683,0 87.36842,42.14743 87.36842,78.68758z" fill="#873412" stroke-width="2"/><path d="M381.89345,102.8433c0,23.48334 6.5317,8.71531 -11.46679,-0.86026c-2.20249,-1.17177 -10.47508,6.27605 -13.27454,5.04791c-1.75838,-0.77142 -8.88005,-10.17554 -10.84415,-10.85157c-1.37326,-0.47267 -12.77806,8.37757 -14.21446,7.92692c-3.58246,-1.12394 -12.30429,-11.37355 -16.15431,-12.03156c-2.12009,-0.36235 -9.52731,11.84977 -11.69189,11.59592c-2.79149,-0.32737 -10.33384,-12.06843 -13.14333,-12.06843c-7.47161,0 -7.6768,7.01079 -13.05259,13.01701c-3.49332,3.90299 -14.35688,-13.05188 -17.56298,-8.61668c-3.98159,5.50799 -7.92327,10.81771 -12.27601,14.41734c-3.41488,2.82405 -13.71618,-10.09687 -16.66792,-7.47909c-14.25184,12.63935 -22.80892,20.64372 -22.80892,2.47189c0,-36.54015 44.42786,-8.21349 87.31121,-29.73523c41.04751,-20.60039 85.84668,-9.37431 85.84668,27.16584z" fill="#741d23" stroke-width="0"/></g><path d="M297.14995,35.69915c0.06504,0.11563 0.11871,0.24909 0.16282,0.39594c0.0942,0.25915 0.14675,0.5383 0.14957,0.82934c0.10872,1.13632 -0.04492,2.51335 0.00011,3.00545c0.05917,0.64652 1.19031,-0.74732 1.8333,-0.6576c0.39387,0.05496 0.79058,0.76163 1.08556,0.49491c1.79014,-1.61865 3.39338,-4.4788 6.14794,-2.85557c0.91226,0.53758 0.67628,1.89067 1.24094,2.5754c0.04747,0.05756 2.60921,-0.1366 3.20483,0.39633c1.0263,0.91828 0.31921,2.25188 0.84227,3.24453c0.16737,0.31764 0.57449,-0.44225 0.90296,-0.5872c1.46188,-0.64507 3.99723,-2.00657 5.75026,-1.00484c0.9237,0.52783 0.74309,2.13955 1.25,2.58145c0.88869,0.7747 1.93355,-1.36509 2.98795,-1.89251c1.4583,-0.72946 2.18563,-0.02863 3.42998,0.8575c0.21462,0.15284 0.4729,4.13203 1.5751,5.28976c0.61955,0.65076 1.65156,-0.85868 2.54995,-0.87393c0.89637,-0.01521 2.71106,-0.73753 3.13293,-0.63391c0.84623,0.20784 1.57162,1.64085 2.32283,1.19928c3.83542,-2.25449 8.74631,-0.80574 7.11144,4.15438c-0.20689,0.62772 1.32191,-0.57392 1.94893,-0.36491c0.24308,0.08102 1.59685,1.0818 1.82405,0.9958c1.48606,-0.56253 2.42529,-1.27962 4.01644,-1.28349c1.32143,-0.00321 2.58997,0.74067 2.89673,2.12114c0.16122,0.7255 -0.99738,2.12313 -0.25981,2.21439c1.73856,0.21513 4.46436,0.94049 3.69208,3.47798c-0.83832,2.75449 -3.13962,5.14362 -5.7124,3.05264c-0.89263,-0.72546 -2.30427,1.24264 -3.36004,0.78609c-1.35252,-0.58487 -2.02055,-2.87334 -1.94906,-4.04994c0.03305,-0.54391 -1.07328,0.37399 -1.61032,0.28162c-0.72305,-0.12436 -1.06576,-1.21538 -1.79736,-1.27038c-1.63644,-0.12301 -1.3588,3.26616 -5.24535,2.4796c-1.14716,-0.23216 -2.516,-2.181 -2.89553,-3.27894c-0.22031,-0.63733 1.44671,-2.64957 1.28866,-2.75515c-0.38378,-0.25637 -1.94579,2.82743 -2.37223,2.96958c-1.02591,0.34197 -2.14798,-0.37973 -3.14348,-0.80211c-0.87953,-0.37317 -1.15332,1.88993 -2.10728,1.94293c-0.84278,0.04682 -9.35342,-0.4825 -9.68874,-0.98549c-0.40882,-0.61322 -0.82062,-1.721 -0.66291,-2.43068c0.05668,-0.25505 0.97585,-1.84123 0.79428,-1.82108c-0.64439,0.07149 -4.18815,3.4397 -6.35755,0.18561c-1.1797,-1.76955 0.97225,-3.59848 0.97549,-5.22262c0.002,-1.00299 -1.1089,1.67543 -1.57852,2.56169c-0.3607,0.68072 -1.43499,1.3053 -2.20947,1.33028c-2.67773,0.08638 -1.93793,-2.47479 -2.5,-3.98918c-0.25939,-0.69888 -1.57778,0.59517 -2.22503,0.22532c-1.58252,-0.90429 -1.34694,-2.0688 -1.48465,-3.60097c-0.06306,-0.70155 -0.5487,2.71516 -2.19331,2.88171c-0.66697,0.06754 -1.7235,-0.94735 -1.98395,-0.32962c-1.26801,3.00744 -0.56288,4.21953 -4.35893,3.73846c-0.36631,-0.04642 -0.97772,0.79566 -1.37068,0.57111c-4.34916,-2.48524 -0.86033,-7.93142 -0.7383,-11.93952c0.04305,-1.41383 -0.88265,-3.52759 0.34546,-4.22937c0.43488,-0.73685 1.23698,-1.23116 2.15454,-1.23116c0.81357,0 1.53638,0.38863 1.99291,0.99036c0.07451,0.07697 0.14011,0.16278 0.19459,0.25964z" fill="#ba587e" stroke="none" stroke-width="0.5"/></g><g stroke="#000000" stroke-linecap="butt"><path d="M327.15892,144.94495c0,28.55894 -13.1683,43.28947 -29.73684,43.28947c-16.56854,0 -30.26316,-14.73054 -30.26316,-43.28947c0,-28.55894 13.43146,-51.71053 30,-51.71053c16.56854,0 30,23.15159 30,51.71053z" fill="#f0f0f0" stroke-width="2"/><path d="M280.40319,125.36257c-4.30259,28.23297 34.22345,62.0416 17.65491,62.0416c-16.56854,0 -30.26316,-14.73054 -30.26316,-43.28947c0,-28.55894 18.82852,-59.56866 12.60825,-18.75213z" fill="#9a99ff" stroke-width="0"/></g><path d="M323.26449,153.1782c0,15.82221 -4.68891,28.64865 -10.47297,28.64865c-5.78406,0 -10.47297,-12.82644 -10.47297,-28.64865c0,-15.82221 4.68891,-28.64865 10.47297,-28.64865c5.78406,0 10.47297,12.82644 10.47297,28.64865z" fill="#000000" stroke="none" stroke-width="0" stroke-linecap="butt"/><g stroke="#000000" stroke-linecap="butt"><path d="M322.14962,114.91028c4.45946,10.22981 -9.89785,14.12162 -25.60811,14.12162c-15.71026,0 -27.17995,-4.64154 -22.63514,-14.25676c4.32432,-9.14873 6.78974,-21.41892 22.5,-21.41892c15.71026,0 21.49332,11.80491 25.74324,21.55405z" fill="#a100fe" stroke-width="2"/><path d="M321.22535,114.55604c4.3074,10.22981 -9.56036,14.12162 -24.73494,14.12162c-15.17458,0 -26.25318,-4.64154 -21.86334,-14.25676c4.17687,-9.14873 6.55823,0.96203 21.73281,0.96203c15.17458,0 20.76045,-10.57604 24.86546,-0.8269z" fill="#99008e" stroke-width="0"/></g><g data-paper-data="{&quot;index&quot;:null}" stroke="#000000" stroke-linecap="butt"><path d="M360.8856,92.19712c16.56854,0 30,23.15159 30,51.71053c0,28.55893 -13.69462,43.28947 -30.26316,43.28947c-13.95828,0 -25.50331,-10.45476 -28.79453,-30.82488c-0.61548,-3.80929 -0.9423,-7.96533 -0.9423,-12.46459c0,-28.55894 13.43146,-51.71053 30,-51.71053z" fill="#f0f0f0" stroke-width="2"/><path d="M390.24958,143.07738c0,28.55893 -13.69462,43.28947 -30.26316,43.28947c-16.56854,0 21.9575,-33.80863 17.65491,-62.0416c-6.22027,-40.81653 12.60825,-9.80681 12.60825,18.75213z" fill="#9a99ff" stroke-width="0"/></g><path d="M374.40669,123.91682c5.78406,0 10.47297,12.82644 10.47297,28.64865c0,15.82221 -4.68891,28.64865 -10.47297,28.64865c-5.78406,0 -10.47297,-12.82644 -10.47297,-28.64865c0,-15.82221 4.68891,-28.64865 10.47297,-28.64865z" data-paper-data="{&quot;index&quot;:null}" fill="#000000" stroke="none" stroke-width="0" stroke-linecap="butt"/><g data-paper-data="{&quot;index&quot;:null}" stroke="#000000" stroke-linecap="butt"><path d="M335.89491,113.87294c4.24992,-9.74914 10.03298,-21.55405 25.74324,-21.55405c15.71026,0 18.17568,12.27019 22.5,21.41892c4.54481,9.61522 -6.92488,14.25676 -22.63514,14.25676c-15.71026,0 -30.06757,-3.89181 -25.60811,-14.12162z" fill="#a100fe" stroke-width="2"/><path d="M336.81918,113.5187c4.10501,-9.74914 9.69088,0.8269 24.86546,0.8269c15.17458,0 17.55594,-10.11076 21.73281,-0.96203c4.38984,9.61522 -6.68876,14.25676 -21.86334,14.25676c-15.17458,0 -29.04234,-3.89181 -24.73494,-14.12162z" fill="#99008e" stroke-width="0"/></g><path d="M371.63632,338.87c0,11.6628 -14.51982,21.11737 -32.43092,21.11737c-17.9111,0 -32.43092,-9.45457 -32.43092,-21.11737c0,-2.33142 -0.03339,-13.76009 1.08979,-15.13837c4.49546,-5.51647 17.81784,5.26144 32.14847,5.26144c17.9111,0 31.62358,-1.78588 31.62358,9.87692z" fill="#000082" stroke="#000000" stroke-width="2" stroke-linecap="butt"/><path d="M369.75004,336.1377c0,6.30841 -13.89058,10.1901 -31.80169,10.1901c-17.9111,0 -30.16566,-2.95748 -30.16566,-9.26589c0,-1.26107 -0.03338,-12.52602 1.0898,-13.27153c4.49546,-2.98386 15.55258,5.7726 29.88321,5.7726c17.9111,0 30.99434,0.26631 30.99434,6.57472z" fill="#2e0048" stroke="#000000" stroke-width="0" stroke-linecap="butt"/><path d="M328.64938,338.22519c0,11.6628 -14.51982,21.11737 -32.43092,21.11737c-17.9111,0 -32.43092,-9.45457 -32.43092,-21.11737c0,-2.33142 -0.03339,-13.76009 1.08979,-15.13837c4.49546,-5.51647 17.81784,5.26144 32.14847,5.26144c17.9111,0 31.62358,-1.78588 31.62358,9.87692z" fill="#000082" stroke="#000000" stroke-width="2" stroke-linecap="butt"/><path d="M326.7631,335.49289c0,6.30841 -13.89058,10.1901 -31.80169,10.1901c-17.9111,0 -30.16566,-2.95748 -30.16566,-9.26589c0,-1.26107 -0.03338,-12.52602 1.0898,-13.27153c4.49546,-2.98386 15.55258,5.7726 29.88321,5.7726c17.9111,0 30.99434,0.26631 30.99434,6.57472z" fill="#2e0048" stroke="#000000" stroke-width="0" stroke-linecap="butt"/><g><g><path d="M288.63219,262.34786c-14.96253,-1.93538 -22.72816,-10.59014 -21.50466,-25.47679c0.95688,-11.64301 15.11624,-22.93622 30.07878,-21.00084c14.9626,1.93536 24.58143,13.00975 22.66538,27.82318c-0.29963,2.31654 -1.26368,4.36552 -2.12669,6.24517c-4.65568,10.13978 -16.4901,14.04202 -29.11279,12.4093z" fill="#485e84" stroke="#000000" stroke-width="2" stroke-linecap="butt"/><path d="M283.8634,219.26906c0,0 -1.17379,5.635 0.26312,7.03094c13.78315,13.39024 27.539,16.21777 32.16004,16.80575c1.0499,0.1336 1.74472,-0.74848 1.74472,-0.74848c0,0 -0.04949,2.11321 -0.98125,4.69116c-0.99145,2.74317 -2.93429,6.01872 -5.24417,8.04594c-2.63855,2.31562 -10.11007,6.01491 -10.11007,6.01491l-20.94076,0.58584c0,0 -9.10167,-9.90528 -9.92798,-11.90881c-0.80953,-1.96279 -1.20449,-4.51754 -1.73374,-7.21695c-0.82173,-4.19123 -0.09354,-8.67191 1.14935,-11.26999c1.58625,-3.31572 4.84663,-6.65066 7.94601,-8.87694c2.88455,-2.07196 5.67474,-3.15325 5.67474,-3.15325z" fill="#343545" stroke="none" stroke-width="0" stroke-linecap="butt"/><path d="M283.08347,243.69362c0,0 -0.72141,-8.9932 2.07983,-13.32138c3.54605,-5.47905 13.34659,-13.96739 13.34659,-13.96739" fill="none" stroke="#000000" stroke-width="1" stroke-linecap="round"/><path d="M319.13635,236.64333c0,0 -2.39165,6.73868 -4.75433,10.32888c-2.38519,3.6245 -10.23418,9.32942 -10.23418,9.32942" fill="none" stroke="#000000" stroke-width="1" stroke-linecap="round"/><path d="M272.24683,245.40338c0,0 -0.87842,-9.22034 2.36922,-13.77026c4.9834,-6.98169 13.4235,-14.93532 13.4235,-14.93532" fill="none" stroke="#000000" stroke-width="1" stroke-linecap="round"/><path d="M269.99252,230.28664c0,0 14.95632,-8.70538 30.81428,-1.48947c17.37038,7.9041 14.83418,24.96454 14.83418,24.96454" fill="none" stroke="#000000" stroke-width="1" stroke-linecap="round"/><path d="M267.52163,239.48445c0,0 16.64782,-6.30179 30.65487,0.03557c11.50106,5.20356 10.70902,19.77379 10.70902,19.77379" fill="none" stroke="#000000" stroke-width="1" stroke-linecap="round"/><path d="M309.02129,225.74391c-0.93615,-0.75552 -1.21016,-1.96875 -0.61206,-2.70983c0.59807,-0.74114 1.23193,-0.25927 2.16808,0.49624c0.93615,0.75552 1.82005,1.49856 1.22195,2.23966c-0.59807,0.74114 -1.84187,0.72945 -2.77796,-0.02607z" fill="#8fbbbe" stroke="none" stroke-width="0" stroke-linecap="butt"/><path d="M314.00461,231.03783c-0.59651,-0.07717 -0.98625,-0.86504 -0.87053,-1.75982c0.11573,-0.89477 0.28652,-1.24412 0.88303,-1.16698c0.59651,0.07717 1.16629,0.88833 1.05052,1.7831c-0.11573,0.89477 -0.46656,1.22084 -1.06305,1.14368z" fill="#8fbbbe" stroke="none" stroke-width="0" stroke-linecap="butt"/><path d="M303.59724,221.44928c-0.87737,-0.21044 -1.47485,-0.85512 -1.33458,-1.44001c0.14022,-0.58487 0.89536,-0.34844 1.77271,-0.13804c0.87737,0.21044 1.5447,0.31506 1.40445,0.89995c-0.14022,0.58487 -0.96522,0.88848 -1.84257,0.67807z" fill="#8fbbbe" stroke="none" stroke-width="0" stroke-linecap="butt"/><path d="M279.78041,221.12027c0,0 10.02347,-2.05174 17.48296,-0.71919c4.22915,0.7555 7.69574,2.88133 10.30587,4.52248c2.30829,1.45131 6.05806,6.85179 8.49802,11.28403c1.79642,3.26321 2.70733,6.06272 2.70733,6.06272" fill="none" stroke="#000000" stroke-width="0.5" stroke-linecap="round"/><path d="M313.92576,223.15755c0,0 -1.75836,10.42527 -4.54383,15.05757c-2.34681,3.90284 -10.71963,10.97109 -10.71963,10.97109" fill="none" stroke="#000000" stroke-width="1" stroke-linecap="round"/><path d="M293.29146,246.84427c0,0 1.71384,-9.51267 3.61119,-13.61765c3.33141,-7.20755 11.45516,-13.71765 11.45516,-13.71765" fill="none" stroke="#000000" stroke-width="1" stroke-linecap="round"/></g><g stroke="#000000" stroke-linecap="butt"><path d="M264.92872,244.2101c30.20923,14.09685 32.1145,23.55334 28.69293,30.88568c-3.42157,7.33235 -30.68472,1.84862 -60.89396,-12.24825c-30.20922,-14.09686 35.96955,-43.00809 39.39112,-50.34042c6.03117,-3.7354 7.40624,2.6448 4.39827,9.90484c-3.70953,8.95333 -14.17053,20.5932 -11.58836,21.79816z" fill="#0d69be" stroke-width="2"/><path d="M292.73554,243.84673c12.96657,6.05073 18.44673,21.7378 12.24029,35.03806c-6.20644,13.30026 -21.74924,19.17718 -34.71581,13.12645c-12.96657,-6.05073 -18.44672,-21.73781 -12.24029,-35.03807c6.20644,-13.30026 21.74924,-19.17717 34.7158,-13.12645z" fill="#faddbf" stroke-width="2"/><path d="M265.35681,274.92169c12.96657,6.05073 45.2155,-10.05774 39.00906,3.24253c-6.20644,13.30026 -21.74924,19.17718 -34.7158,13.12645c-12.96657,-6.05073 -17.25982,-22.4197 -4.29324,-16.36897z" fill="#ef8b89" stroke-width="0"/></g></g><path d="M257.90354,160.9294c0,5.02398 -4.00129,9.09671 -8.93712,9.09671c-4.93584,0 -10.21385,-12.69067 -10.21385,-17.71465c0,-5.02398 4.48006,4.94733 9.4159,4.94733c4.93584,0 9.73508,-1.35337 9.73508,3.6706z" fill="#000000" stroke="none" stroke-width="0" stroke-linecap="butt"/></g></g></svg>