<svg version="1.1" xmlns="http://www.w3.org/2000/svg" xmlns:xlink="http://www.w3.org/1999/xlink" width="38.75806" height="34.48387" viewBox="0,0,38.75806,34.48387"><g transform="translate(-281.30214,-160.93477)"><g data-paper-data="{&quot;isPaintingLayer&quot;:true}" fill-rule="nonzero" stroke="#000000" stroke-linejoin="miter" stroke-miterlimit="10" stroke-dasharray="" stroke-dashoffset="0" style="mix-blend-mode: normal"><path d="M318.10053,180.55574c0,7.79434 -2.59964,14.1129 -5.80645,14.1129c-3.20681,0 -5.80645,-6.31856 -5.80645,-14.1129c0,-7.79434 2.59964,-14.1129 5.80645,-14.1129c3.20681,0 5.80645,6.31856 5.80645,14.1129z" fill="#ff0000" stroke-width="1.5" stroke-linecap="butt"/><path d="M285.42857,180c0,-8.04758 6.52385,-14.57143 14.57143,-14.57143c8.04758,0 14.57143,6.52385 14.57143,14.57143c0,8.04758 -6.52385,14.57143 -14.57143,14.57143c-8.04758,0 -14.57143,-6.52385 -14.57143,-14.57143z" fill="#ff0000" stroke-width="1.5" stroke-linecap="butt"/><path d="M299.63278,179.78961c0,7.10399 -3.93556,12.8629 -8.79032,12.8629c-4.85476,0 -8.79032,-5.75892 -8.79032,-12.8629c0,-7.10399 3.93556,-12.8629 8.79032,-12.8629c4.85476,0 8.79032,5.75892 8.79032,12.8629z" fill="#ff0000" stroke-width="1.5" stroke-linecap="butt"/><path d="M319.3102,168.37832c0,3.69674 -7.18511,6.69355 -16.04839,6.69355c-8.86328,0 -16.04839,-2.9968 -16.04839,-6.69355c0,-3.69674 7.18511,-6.69355 16.04839,-6.69355c8.86328,0 16.04839,2.9968 16.04839,6.69355z" fill="#ff0000" stroke-width="1.5" stroke-linecap="butt"/><path d="M304.63739,179.0857l-1.21429,8.57143" fill="#ff0000" stroke-width="1.5" stroke-linecap="round"/><path d="M309.06596,179.79998l-1.14286,8.42857" fill="#ff0000" stroke-width="1.5" stroke-linecap="round"/><path d="M303.13739,176.37141l2.92857,4.78571" fill="#ff0000" stroke-width="1.5" stroke-linecap="round"/><path d="M301.73706,190.75756c0,0.5 -0.5,0.5 -0.5,0.5l-0.43437,-0.02109c-1.29532,-0.43133 -1.93682,-1.48809 -1.04991,-2.66477c0,0 0.3254,-0.37963 0.70502,-0.05423c0.37963,0.3254 0.05423,0.70502 0.05423,0.70502c-0.55108,0.4818 0.05575,0.92724 0.578,1.05616l0.14702,-0.02109c0,0 0.5,0 0.5,0.5z" fill="#000000" stroke-width="0.5" stroke-linecap="butt"/></g></g></svg>