<svg version="1.1" xmlns="http://www.w3.org/2000/svg" xmlns:xlink="http://www.w3.org/1999/xlink" width="183.18182" height="183.18182" viewBox="0,0,183.18182,183.18182"><g transform="translate(-148.40909,-88.40909)"><g data-paper-data="{&quot;isPaintingLayer&quot;:true}" fill-rule="nonzero" stroke="none" stroke-width="0" stroke-linecap="butt" stroke-linejoin="miter" stroke-miterlimit="10" stroke-dasharray="" stroke-dashoffset="0" style="mix-blend-mode: normal"><path d="M148.40909,271.59091v-183.18182h183.18182v183.18182z" fill="none"/><g data-paper-data="{&quot;index&quot;:null}"><path d="M306.75934,177.1823c0,3.53358 -45.02315,58.22889 -55.37244,64.30491c-5.13623,3.01544 -11.99178,4.05714 -14.42672,4.12704c-3.64842,0.10474 -11.91226,-1.65153 -17.65479,-6.07279c-8.00962,-6.16675 -15.25911,-16.66319 -22.43692,-26.63282c-13.31197,-18.48965 -23.95901,-37.47257 -23.95901,-38.6004c0,-1.50535 21.00027,-19.92747 25.30842,-19.9885c1.93945,-0.02748 13.8486,23.2887 16.02629,23.68479c1.22464,0.22273 4.5924,2.06696 4.94518,-0.43751c0.16074,-1.14114 -0.23536,-54.9144 0.96189,-55.12786c2.02243,-0.36058 2.13341,-5.30176 13.67877,-6.35091c9.43732,-0.85759 21.66469,0.56669 22.47892,1.32362c0.68217,0.63417 1.42643,4.34458 1.53903,8.22261c0.36477,12.56308 -1.95576,35.99504 -1.67489,38.45248c0.31572,2.76244 -1.16966,12.33176 1.56901,14.52711c2.43426,1.95133 7.48351,-3.24866 8.96313,-4.57301c10.8025,-9.66897 18.00709,-21.91729 19.49625,-21.63545c1.35145,0.25577 20.55787,23.3239 20.55787,24.77667z" data-paper-data="{&quot;noHover&quot;:false,&quot;origItem&quot;:[&quot;Path&quot;,{&quot;applyMatrix&quot;:true,&quot;segments&quot;:[[[468.26192,506.02382],[0,0],[3.035,0]],[[519.97642,463.09056],[-0.53434,2.82334],[0.5888,-3.11102]],[[474.8537,422.54302],[20.1996,22.56768],[-2.76674,-3.0911]],[[465.26432,403.62164],[-4.07656,5.08546],[4.58634,-5.72142]],[[495.5535,400.37302],[-5.77106,0.65958],[5.13388,-0.58676]],[[575.86152,403.91104],[-26.24574,0.76204],[8.10168,-0.23524]],[[593.03778,400.70172],[-1.32484,1.42514],[1.58132,-1.70102]],[[595.80018,353.77508],[1.7916,19.71566],[-2.19178,-24.1196]],[[582.53724,325.22126],[0.7533,4.2251],[-0.44594,-2.5012]],[[467.44836,323.27862],[2.38398,0.3358],[-5.23212,-0.73698]],[[466.56002,312.74928],[-0.46532,2.55842],[0.82746,-4.54944]],[[515.97618,279.4524],[0.0574,4.05174],[-0.1275,-9.00022]],[[474.2619,226.59526],[3.14484,0],[-2.35618,0]],[[393.69066,276.6289],[38.62704,-27.81026],[-20.82772,14.9953]],[[338.08606,323.45518],[12.88306,-16.73304],[-9.23656,11.99682]],[[325.40476,360.30956],[-0.2188,-7.62198],[0.14602,5.08688]],[[334.02496,390.42556],[-6.2996,-10.73018],[12.69352,21.6209]],[[468.2619,506.02386],[-7.38206,0],[0,0]]],&quot;closed&quot;:true,&quot;fillColor&quot;:[0,0,0],&quot;strokeWidth&quot;:0}]}" fill="#6dc0c7"/><path d="M237.82844,248.81456c-16.38652,0 -29.29583,-13.95443 -40.6757,-29.24144c-15.5522,-20.89186 -26.79414,-44.8956 -26.79414,-44.8956l27.2246,-24.68621l17.17746,23.86377l4.26285,-57.41589l39.32569,-1.55305l1.80836,57.63349l25.92613,-26.15445l23.96714,30.22703c0,0 -25.45025,37.53775 -47.77238,58.27401c-9.91588,9.2114 -17.72806,13.94837 -24.44999,13.94836zM303.45579,176.99109c0,-0.97272 -20.32985,-23.76344 -20.32985,-23.76344c0,0 -20.19116,25.51857 -24.50568,25.51857c-0.15163,0 -2.67636,1.98882 -3.59462,-1.98356c-0.79168,-3.42482 0.48403,-19.54307 0.61281,-26.44855c0.31974,-17.14648 0.98564,-29.41585 -0.37093,-29.32681c-0.17389,0.01141 -2.4767,-0.80972 -6.14192,-1.13358c-6.43078,-0.56824 -15.81327,-0.09051 -18.6219,0.95733c-1.65052,0.61577 -6.83805,1.13232 -7.89901,1.86179c-1.08758,0.74779 -1.00241,6.95045 -1.23141,16.30762c-0.28054,11.46262 -0.34841,28.63535 -1.4211,36.49964c-0.36907,2.70576 -1.13843,3.18429 -1.69344,3.48077c-2.12454,1.13495 -6.08325,-7.6474 -10.73831,-14.02347c-3.84075,-5.26071 -7.86586,-9.50917 -7.86586,-9.50917c0,0 -23.46818,18.46328 -23.36575,19.64819c0.23035,2.66471 24.24374,43.30033 43.12567,61.88545c1.10184,1.08452 8.31934,5.61344 19.17964,4.9727c9.55466,-0.56371 17.84492,-6.18423 19.91294,-8.34944c15.15402,-15.86621 44.94873,-55.10371 44.94873,-56.59403z" fill="#ffffff"/><path d="M231.38918,252.50146c-3.35327,-0.11372 -16.75852,-6.11847 -27.93008,-18.55004c-2.93589,-3.26703 -6.47175,-6.45803 -9.33992,-10.13647c-15.59087,-19.99543 -28.17527,-44.7431 -28.26808,-47.50198c-0.02586,-0.76919 -1.02106,-5.39628 2.82156,-8.80596c8.68348,-7.70513 27.48555,-19.45564 30.64723,-20.56503c0.35309,-0.12389 3.07415,1.15819 5.99061,4.1723c3.5134,3.63102 7.07104,9.36699 7.35333,9.40607c1.7149,0.23747 -1.47996,-42.70331 1.01451,-43.16372c0.25241,-0.04659 2.12678,-4.62464 6.99347,-6.61995c2.27694,-0.93353 4.94038,-2.53805 8.47241,-3.11725c7.51938,-1.23306 22.89174,-0.47808 29.25812,0.84923c2.6393,0.55026 4.91847,6.34523 6.0177,8.6024c1.24511,2.55674 -0.34251,42.5382 0.68854,46.76852c0.16158,0.66292 8.78143,-13.06399 14.97077,-18.11945c1.71926,-1.40429 4.90237,-2.27526 5.77721,-2.10665c7.95933,1.53398 28.77009,30.49941 28.4225,34.49452c-0.40869,4.69748 -22.94419,33.42339 -41.0545,53.4891c-4.54731,5.03829 -11.03126,10.37942 -16.76147,14.05637c-4.92389,3.15957 -9.08929,5.3933 -10.44212,5.97386c-5.61989,2.41171 -12.73445,0.9385 -14.6318,0.87416zM306.71152,177.18483c0,-1.45277 -19.19946,-24.49847 -20.55092,-24.75424c-1.48916,-0.28184 -8.44688,12.40865 -19.24938,22.07762c-1.47962,1.32436 -6.78241,6.06282 -9.21668,4.11149c-2.73868,-2.19535 -1.2393,-11.73612 -1.55502,-14.49856c-0.28086,-2.45744 2.05832,-25.87806 1.69354,-38.44114c-0.1126,-3.87804 -0.85403,-7.58762 -1.53621,-8.22178c-0.81423,-0.75693 -13.02512,-2.17987 -22.46243,-1.32228c-11.54536,1.04914 -11.64545,5.98801 -13.6679,6.34859c-1.19726,0.21346 -0.93519,54.63721 -1.48833,55.64819c-0.79897,1.46026 -4.09969,0.60649 -4.96032,-0.29279c-2.16254,-2.25968 -6.96664,-9.23321 -10.12042,-14.53339c-3.1697,-5.32694 -4.68611,-8.97492 -5.65828,-8.96115c-4.30815,0.06103 -24.98208,18.46209 -24.98208,19.96742c0,1.12783 10.6377,20.07748 23.94966,38.56713c7.17782,9.96963 14.40477,20.44957 22.41439,26.61632c5.74254,4.42128 13.9927,6.17491 17.64113,6.07017c2.43494,-0.0699 9.27944,-1.11081 14.41567,-4.12624c10.3493,-6.07602 55.33359,-60.72178 55.33359,-64.25536z" fill="#201e31"/></g></g></g></svg>