<svg version="1.1" xmlns="http://www.w3.org/2000/svg" xmlns:xlink="http://www.w3.org/1999/xlink" width="253.65575" height="327.45339" viewBox="0,0,253.65575,327.45339"><g transform="translate(-215.4264,-33.36248)"><g data-paper-data="{&quot;isPaintingLayer&quot;:true}" fill-rule="nonzero" stroke-linejoin="miter" stroke-miterlimit="10" stroke-dasharray="" stroke-dashoffset="0" style="mix-blend-mode: normal"><g stroke="#000000" stroke-linecap="butt"><path d="M347.17244,354.06232l-57.93711,-75.65985l23.4153,-17.93045l57.93712,75.65985z" fill="#73fffc" stroke-width="2"/><path d="M346.53812,353.76975l-55.96657,-75.26795c0,0 45.54153,50.91482 52.20084,57.67522c1.47217,1.49451 3.69876,0.68154 3.69876,0.68154l22.76097,-0.88063z" fill="#59a9e6" stroke-width="0"/></g><g stroke="#000000" stroke-linecap="butt"><path d="M251.67518,326.58483l36.09093,-88.19618l27.29506,11.16947l-36.09093,88.19619z" fill="#73fffc" stroke-width="2"/><path d="M251.60773,325.88955l36.74682,-86.29712c0,0 -20.98077,65.00891 -23.4576,74.1694c-0.54755,2.0251 1.27778,3.53731 1.27778,3.53731l12.24444,19.20705z" fill="#59a9e6" stroke-width="0"/></g><path d="M216.4264,334.22647c1.51965,-11.56337 14.88253,-8.00599 32.64094,-5.67219c14.20846,1.86726 28.82161,-7.08287 32.55995,-1.02767c0.93402,1.51288 -0.58823,12.83977 -0.89202,15.15131c-1.51965,11.56337 -17.1476,19.04542 -34.90601,16.71162c-17.75841,-2.3338 -30.92252,-13.59968 -29.40287,-25.16305z" data-paper-data="{&quot;index&quot;:null}" fill="#000082" stroke="#000000" stroke-width="2" stroke-linecap="butt"/><path d="M250.2394,329.2831c14.20846,1.86726 26.31227,-5.37381 30.38061,-1.82963c1.01647,0.88551 -0.48444,12.05007 -0.64875,13.30039c-0.82198,6.25463 -13.35742,7.59014 -31.11583,5.25634c-17.75841,-2.3338 -31.02479,-7.99232 -30.20281,-14.24696c0.82198,-6.25463 13.82838,-4.81394 31.58678,-2.48014z" data-paper-data="{&quot;index&quot;:null}" fill="#2e0048" stroke="#000000" stroke-width="0" stroke-linecap="butt"/><g stroke="#000000" stroke-linecap="butt"><path d="M402.49782,334.31892c1.35955,11.58329 -11.95915,22.666 -29.74814,24.75392c-17.78899,2.08792 -33.31195,-5.60959 -34.6715,-17.19288c-0.27178,-2.31552 -1.6372,-13.66238 -0.68234,-15.1622c3.82175,-6.0029 18.3097,3.14852 32.54263,1.47797c17.78899,-2.08792 31.1998,-5.46011 32.55935,6.12317z" fill="#000082" stroke-width="2"/><path d="M400.30589,331.82515c0.73538,6.2654 -12.608,11.73987 -30.397,13.8278c-17.78899,2.08792 -30.30476,0.57914 -31.04014,-5.68626c-0.147,-1.25247 -1.49333,-12.43673 -0.46472,-13.30809c4.11698,-3.48756 16.11947,3.92026 30.3524,2.24971c17.78899,-2.08792 30.81407,-3.34856 31.54946,2.91684z" fill="#2e0048" stroke-width="0"/></g><g><g stroke="#000000" stroke-linecap="butt"><path d="M371.18541,204.02311c33.30598,12.77718 57.58638,29.19357 54.23178,36.66703c-3.3546,7.47346 -33.07391,3.17393 -66.37987,-9.60326c-33.30598,-12.77718 -57.58638,-29.19357 -54.23178,-36.66703c3.3546,-7.47346 33.07391,-3.17393 66.3799,9.60327z" fill="#0d69be" stroke-width="2"/><path d="M422.99773,209.50866c14.29577,5.48429 20.95192,20.91969 14.86695,34.47593c-6.08499,13.55623 -22.60686,20.09985 -36.90262,14.61556c-14.29578,-5.4843 -20.95192,-20.91969 -14.86695,-34.47593c6.08499,-13.55624 22.60687,-20.09984 36.90262,-14.61555z" fill="#faddbf" stroke-width="2"/><path d="M394.86379,241.7386c14.29578,5.4843 48.393,-12.00379 42.30801,1.55245c-6.08499,13.55623 -22.60686,20.09983 -36.90262,14.61555c-14.29578,-5.4843 -19.70115,-21.65228 -5.40537,-16.16798z" fill="#ef8b89" stroke-width="0"/></g><g stroke="#000000" stroke-linecap="butt"><path d="M350.186,228.37785c-3.7106,13.36964 0.64933,38.0881 -7.30345,46.23229c-9.72571,9.9598 -32.42399,1.69941 -43.24445,-0.86721c-14.31533,-3.39561 -35.63835,-4.1482 -36.188,-23.89643c-0.20553,-7.38468 13.2653,-30.2747 15.51024,-38.36345c8.24841,-29.71982 30.87947,-50.03045 50.5479,-45.36508c19.66843,4.66537 28.92617,32.54007 20.67776,62.25989z" fill="#0d69be" stroke-width="2"/><path d="M292.28686,230.72527c-3.7106,13.36964 59.48055,35.32332 51.52777,43.46751c-9.72571,9.95979 -32.42399,1.69941 -43.24445,-0.86721c-14.31533,-3.39561 -35.63834,-4.14819 -36.18799,-23.89642c-0.20554,-7.38468 13.26531,-30.27471 15.51024,-38.36345c2.54112,-9.15587 11.19648,-26.86853 13.83948,-27.65611c10.73448,-14.76094 4.20666,26.9521 -1.44504,47.31569z" fill="#10157d" stroke-width="0"/></g><g stroke-linecap="butt"><g stroke="#000000"><g><path d="M285.38633,100.60042c12.63908,-45.30838 62.61531,-72.5659 111.62503,-60.88136c49.00972,11.68454 78.49398,57.88643 65.8549,103.19481c-12.63908,45.30838 -62.61531,72.5659 -111.62503,60.88136c-49.00972,-11.68454 -78.49398,-57.88643 -65.8549,-103.19481z" fill="#faddbf" stroke-width="2"/><path d="M285.86292,99.81608c4.06644,-14.57734 20.14572,-37.54999 25.73681,-39.53633c0.63851,-0.22685 8.46766,-7.18302 18.15908,-11.80875c12.04575,-5.74946 26.41956,-9.35355 27.00608,-9.01021c7.65215,4.4795 -35.87624,58.42351 -41.40985,83.2216c-0.01321,0.05914 -0.7053,20.17802 0.87136,21.0072c1.7413,5.31279 4.3693,20.82172 13.83794,30.45292c17.64592,17.94886 45.94684,31.27833 44.2566,31.39764c-2.70378,0.19084 -16.25266,-1.01521 -22.60308,-2.52924c-49.00972,-11.68454 -78.49398,-57.88643 -65.8549,-103.19481z" fill="#ef8b89" stroke-width="0"/><path d="M462.44177,142.33947c-3.13996,11.25606 -5.87754,14.75116 -5.95559,12.82025c-0.07963,-1.96989 2.45532,-9.54933 -5.51437,-16.44324c-1.93122,-1.67053 -12.38551,3.52853 -14.91074,1.65816c-1.58611,-1.17481 -6.31386,-12.01376 -8.13567,-13.14626c-1.27378,-0.79182 -15.30346,5.00313 -16.64765,4.21727c-3.35245,-1.95998 -9.48483,-14.00697 -13.2362,-15.58089c-2.06577,-0.86671 -12.92386,9.15626 -15.06433,8.38379c-2.76041,-0.9962 -7.2862,-14.2004 -10.1534,-14.88398c-7.62507,-1.81792 -9.72824,4.92083 -16.83684,9.42878c-4.61934,2.92938 -11.12623,-16.13154 -15.5962,-12.61693c-5.55119,4.36473 -11.00809,8.54718 -16.42257,10.9737c-4.24785,1.9037 -11.27056,-13.11427 -14.99007,-11.29761c-17.95872,8.7713 -28.85368,14.44006 -23.94513,-3.15605c9.87018,-35.3825 47.55908,2.85646 97.1367,-7.5495c47.45521,-9.96047 90.14221,11.81002 80.27203,47.19252z" fill="#ef8b89" stroke-width="0"/></g><path d="M466.29331,134.67492c-6.34329,22.73935 4.48729,10.07028 -11.7782,-3.69648c-1.99042,-1.68465 -12.66712,3.46139 -15.2676,1.57308c-1.63339,-1.18608 -6.55255,-12.07068 -8.42718,-13.21576c-1.3107,-0.80062 -15.64697,4.92124 -17.02976,4.12617c-3.44875,-1.98294 -9.81558,-14.08583 -13.67043,-15.68441c-2.12276,-0.8803 -13.17996,9.0952 -15.37863,8.30885c-2.83544,-1.01408 -7.564,-14.26663 -10.50672,-14.96821c-7.82594,-1.8658 -9.93459,4.87163 -17.18771,9.34513c-4.71326,2.90699 -11.51215,-16.22356 -16.06833,-12.72949c-5.65822,4.33921 -11.22108,8.4964 -16.75256,10.89503c-4.33965,1.88182 -11.6393,-13.20217 -15.43811,-11.40443c-18.34182,8.67996 -29.46684,14.29388 -24.55827,-3.30223c9.87018,-35.3825 63.70207,-68.72817 111.80688,-57.25938c48.1048,11.46879 80.12684,62.62966 70.25667,98.01217z" fill="#873412" stroke-width="2"/><path d="M466.34794,133.48711c-6.34329,22.73935 4.48729,10.07028 -11.7782,-3.69648c-1.99042,-1.68465 -12.66712,3.46139 -15.2676,1.57308c-1.63339,-1.18608 -6.55255,-12.07067 -8.42719,-13.21576c-1.3107,-0.80062 -15.64696,4.92124 -17.02976,4.12617c-3.44875,-1.98294 -9.81558,-14.08583 -13.67043,-15.68441c-2.12276,-0.8803 -13.17996,9.0952 -15.37863,8.30885c-2.83544,-1.01408 -7.56399,-14.26663 -10.50671,-14.96821c-7.82594,-1.8658 -9.93459,4.87163 -17.18771,9.34513c-4.71326,2.90699 -11.51215,-16.22356 -16.06833,-12.72949c-5.65822,4.33921 -11.22108,8.4964 -16.75257,10.89503c-4.33965,1.88182 -11.63929,-13.20217 -15.4381,-11.40443c-18.34182,8.67996 -29.46684,14.29388 -24.55828,-3.30224c9.87018,-35.3825 48.75336,3.14119 99.48378,-6.98992c48.55864,-9.6974 92.44994,12.36021 82.57974,47.74271z" fill="#741d23" stroke-width="0"/></g><path d="M395.72258,47.30815c0.03688,0.12821 0.05705,0.27084 0.06359,0.42405c0.02866,0.27447 0.0083,0.55789 -0.06735,0.84042c-0.19306,1.12747 -0.72595,2.42251 -0.81171,2.91026c-0.11265,0.64081 1.44862,-0.4264 2.09787,-0.17896c0.39771,0.15157 0.62234,0.93492 1.00336,0.75031c2.31225,-1.12034 4.76412,-3.48951 7.21083,-1.22984c0.81031,0.74836 0.19764,1.99965 0.60412,2.8037c0.03417,0.06759 2.76984,0.5193 3.24974,1.18408c0.82693,1.14548 -0.27392,2.26025 0.00581,3.35207c0.08951,0.34937 0.72119,-0.28478 1.10439,-0.34311c1.70545,-0.25958 4.72881,-0.94481 6.29437,0.46294c0.82493,0.74177 0.2004,2.25733 0.61198,2.81181c0.72158,0.97208 2.39398,-0.839 3.64084,-1.08641c1.7245,-0.34219 2.29702,0.51807 3.36102,1.68686c0.18351,0.20159 -0.62081,4.11922 0.22092,5.51551c0.47316,0.78485 1.96182,-0.41905 2.90694,-0.20947c0.94299,0.20911 3.03885,-0.03716 3.45274,0.16852c0.83022,0.41257 1.20292,1.98133 2.10903,1.74134c4.6263,-1.22529 9.37872,1.40391 6.32651,5.79862c-0.38627,0.55617 1.53963,-0.22563 2.13993,0.13333c0.23273,0.13915 1.38036,1.44629 1.64157,1.41975c1.70847,-0.17361 2.88596,-0.63344 4.55361,-0.23984c1.38497,0.32688 2.51272,1.36397 2.46115,2.7773c-0.0271,0.74278 -1.61817,1.8068 -0.87027,2.07936c1.7629,0.64246 4.42202,2.02552 2.92769,4.28977c-1.62211,2.45788 -4.67789,4.19664 -6.80787,1.52944c-0.73901,-0.92538 -2.7492,0.62785 -3.73171,-0.07788c-1.25868,-0.90409 -1.34023,-3.28688 -0.94753,-4.40835c0.18155,-0.51843 -1.22521,0.09412 -1.76275,-0.12943c-0.72375,-0.30098 -0.78801,-1.44302 -1.53944,-1.67897c-1.68082,-0.52776 -2.3055,2.82336 -6.16389,1.09118c-1.13884,-0.51127 -2.04619,-2.74019 -2.14714,-3.89812c-0.0586,-0.67216 2.23103,-2.20436 2.09399,-2.34606c-0.33272,-0.34408 -2.80181,2.25195 -3.28687,2.28311c-1.16695,0.07495 -2.14726,-0.90409 -3.07589,-1.56168c-0.82044,-0.58098 -1.71851,1.54205 -2.73204,1.35515c-0.89539,-0.16512 -9.66666,-2.80294 -9.88201,-3.37373c-0.26258,-0.69588 -0.39465,-1.8714 -0.03778,-2.51921c0.12826,-0.23282 1.51948,-1.53921 1.32385,-1.56504c-0.69427,-0.09169 -5.3159,2.28487 -6.70918,-1.40787c-0.75766,-2.00808 1.99038,-3.24168 2.43247,-4.81356c0.27302,-0.97071 -1.61405,1.34544 -2.34533,2.08634c-0.56168,0.56908 -1.85562,0.9056 -2.67359,0.73639c-2.82805,-0.58504 -1.36135,-2.88032 -1.541,-4.48709c-0.08291,-0.74151 -1.81338,0.18231 -2.39141,-0.33745c-1.4133,-1.27083 -0.85199,-2.33961 -0.58236,-3.85763c0.12345,-0.69507 -1.30814,2.49212 -3.07572,2.2427c-0.71684,-0.10116 -1.54935,-1.34773 -1.989,-0.81461c-2.14051,2.59551 -1.72934,3.94529 -5.57547,2.53151c-0.37113,-0.13642 -1.23901,0.5263 -1.58995,0.21073c-3.8841,-3.49257 1.24129,-7.89498 2.45177,-11.74562c0.42699,-1.35829 0.02836,-3.63625 1.50427,-4.00911c0.65455,-0.60491 1.6282,-0.88325 2.58927,-0.65412c0.85215,0.20316 1.50426,0.75998 1.8199,1.45665c0.05725,0.09314 0.10278,0.19261 0.13368,0.30001z" fill="#ba587e" stroke="none" stroke-width="0.5"/></g><g stroke="#000000" stroke-linecap="butt"><path d="M379.2452,150.09744c-7.7143,27.65415 -25.48608,38.62962 -42.84034,34.49215c-17.35426,-4.13748 -27.71932,-21.82113 -20.00502,-49.47527c7.7143,-27.65415 28.03639,-46.71817 45.39066,-42.5807c17.35426,4.13748 25.169,29.90967 17.45468,57.56382z" fill="#f0f0f0" stroke-width="2"/><path d="M335.56175,119.45967c-12.13288,26.26407 19.08781,68.62226 1.73355,64.48479c-17.35426,-4.13748 -27.71932,-21.82113 -20.00502,-49.47527c7.7143,-27.65415 35.81204,-52.9796 18.27148,-15.00952z" fill="#9a99ff" stroke-width="0"/></g><path d="M373.35817,158.6358c-4.27388,15.32094 -12.64981,26.5701 -18.70818,25.12572c-6.05835,-1.44439 -7.50496,-15.03538 -3.23108,-30.35631c4.27388,-15.32094 12.6498,-26.5701 18.70817,-25.12572c6.05835,1.44439 7.50497,15.03538 3.23109,30.35631z" fill="#000000" stroke="none" stroke-width="0" stroke-linecap="butt"/><g stroke="#000000" stroke-linecap="butt"><path d="M381.9885,120.20353c1.90768,11.01932 -2.36387,52.41026 -18.81916,48.48711c-16.45527,-3.92315 -39.033,-52.48954 -31.67542,-60.66521c7.00063,-7.77902 12.89738,-19.04481 29.35267,-15.12167c16.45527,3.92315 19.32388,16.7982 21.14191,27.29975z" fill="#a100fe" stroke-width="2"/><path d="M381.11609,119.6297c1.7484,10.98135 -1.77548,51.65252 -17.66968,47.86314c-15.8942,-3.78938 -38.29717,-51.41609 -31.10191,-59.63046c6.84619,-7.81584 6.60938,2.56926 22.50359,6.35864c15.8942,3.78938 24.60176,-5.0567 26.26801,5.40867z" fill="#99008e" stroke-width="0"/></g><g data-paper-data="{&quot;index&quot;:null}" stroke="#000000" stroke-linecap="butt"><path d="M427.48391,110.41042c17.35426,4.13748 25.169,29.90967 17.45468,57.56382c-7.7143,27.65414 -26.03736,38.49819 -43.39163,34.36072c-17.35426,-4.13748 -27.16804,-21.68969 -19.45374,-49.34384c7.7143,-27.65415 28.03639,-46.71817 45.39066,-42.5807z" fill="#f0f0f0" stroke-width="2"/><path d="M444.49668,167.01145c-7.7143,27.65414 -26.03736,38.49819 -43.39163,34.36072c-17.35426,-4.13748 32.13114,-27.25432 35.25076,-55.66726c4.51007,-41.07672 15.85516,-6.3476 8.14086,21.30655z" fill="#9a99ff" stroke-width="0"/></g><path d="M428.35408,143.9555c6.20408,0.74758 9.44029,14.07246 7.22825,29.76196c-2.21204,15.6895 -9.03467,27.80233 -15.23877,27.05475c-6.20408,-0.74758 -9.4403,-14.07246 -7.22826,-29.76196c2.21204,-15.6895 9.03468,-27.80232 15.23878,-27.05475z" data-paper-data="{&quot;index&quot;:null}" fill="#000000" stroke="none" stroke-width="0" stroke-linecap="butt"/><g data-paper-data="{&quot;index&quot;:null}" stroke="#000000" stroke-linecap="butt"><path d="M395.45305,125.15887c7.0849,-8.37899 16.33093,-18.36576 32.7862,-14.44261c16.45527,3.92315 15.72321,16.42026 17.78136,26.35901c2.16308,10.44552 -42.84247,43.94009 -59.29775,40.01694c-16.45527,-3.92315 1.29599,-43.14122 8.73017,-51.93333z" fill="#a100fe" stroke-width="2"/><path d="M396.51684,125.04666c6.9331,-8.41517 9.92709,3.2207 25.82129,7.01007c15.8942,3.78938 21.11959,-5.40639 23.0233,4.49554c2.00076,10.40682 -42.74884,43.33652 -58.64305,39.54714c-15.8942,-3.78938 2.52352,-42.22268 9.79845,-51.05275z" fill="#99008e" stroke-width="0"/></g><g><g><path d="M330.43585,232.96975c-14.84466,6.26793 -26.92427,3.02738 -34.31445,-10.25539c-5.77997,-10.38859 0.76194,-27.46041 15.60663,-33.72836c14.84473,-6.26799 30.00959,-1.95343 36.72207,11.63335c1.04972,2.12471 1.33634,4.3736 1.61893,6.42533c1.52425,11.0682 -7.10989,20.6373 -19.63313,25.92507z" fill="#0000c4" stroke="#000000" stroke-width="2" stroke-linecap="butt"/><path d="M301.421,198.92535c0,0 2.14488,5.40362 4.26252,5.8288c20.31277,4.0786 34.55972,-0.7941 39.13878,-2.73816c1.04038,-0.44168 1.17387,-1.55775 1.17387,-1.55775c0,0 1.16308,1.81988 1.78191,4.50068c0.6585,2.85261 0.74792,6.66011 -0.21353,9.60206c-1.0983,3.36053 -5.84269,10.45071 -5.84269,10.45071l-18.89173,11.56865c0,0 -14.02144,-3.59562 -15.92591,-4.85937c-1.86576,-1.23802 -3.68944,-3.19771 -5.71914,-5.20917c-3.15139,-3.1231 -5.04528,-7.31134 -5.38993,-10.17373c-0.43982,-3.65306 0.64646,-8.20755 2.21897,-11.73587c1.4635,-3.28376 3.40694,-5.67674 3.40694,-5.67674z" fill="#2e006f" stroke="none" stroke-width="0" stroke-linecap="butt"/><path d="M314.6731,220.06946c0,0 -5.8055,-7.2521 -5.70879,-12.40691c0.12237,-6.52545 4.26633,-18.91198 4.26633,-18.91198" fill="none" stroke="#000000" stroke-width="1" stroke-linecap="round"/><path d="M343.74302,195.02394c0,0 1.65789,6.98431 1.5418,11.28086c-0.11713,4.33756 -4.0611,13.32971 -4.0611,13.32971" fill="none" stroke="#000000" stroke-width="1" stroke-linecap="round"/><path d="M305.70124,227.25008c0,0 -6.07954,-7.36189 -5.6998,-12.94092c0.58275,-8.56084 3.78341,-19.77424 3.78341,-19.77424" fill="none" stroke="#000000" stroke-width="1" stroke-linecap="round"/><path d="M294.9863,215.6107c0,0 8.75361,-15.29661 27.44029,-17.5558c20.46888,-2.47466 27.897,13.34727 27.897,13.34727" fill="none" stroke="#000000" stroke-width="1" stroke-linecap="round"/><path d="M297.97781,224.72424c0,0 11.68124,-14.15072 28.1661,-16.17706c13.53556,-1.66379 21.14094,11.1223 21.14094,11.1223" fill="none" stroke="#000000" stroke-width="1" stroke-linecap="round"/><path d="M328.22262,191.12026c-1.2916,-0.14634 -2.23701,-1.03128 -2.11169,-1.97653c0.12526,-0.94529 0.98282,-0.8714 2.27443,-0.72506c1.2916,0.14634 2.52808,0.30973 2.40278,1.255c-0.12526,0.94529 -1.27395,1.59296 -2.5655,1.44658z" fill="#8fbbbe" stroke="none" stroke-width="0" stroke-linecap="butt"/><path d="M335.82558,192.97911c-0.59183,0.24987 -1.40026,-0.21283 -1.80571,-1.0335c-0.40545,-0.82068 -0.44842,-1.2075 0.14336,-1.4574c0.59183,-0.24987 1.57886,0.1374 1.98428,0.95809c0.40545,0.82068 0.26982,1.28293 -0.32199,1.5328z" fill="#8fbbbe" stroke="none" stroke-width="0" stroke-linecap="butt"/><path d="M320.78648,190.34265c-0.92591,0.28524 -1.84317,0.05393 -2.04888,-0.51669c-0.20574,-0.57057 0.62281,-0.76913 1.54867,-1.0544c0.92591,-0.28524 1.59845,-0.54926 1.80418,0.02136c0.20574,0.57057 -0.37811,1.26448 -1.30398,1.54971z" fill="#8fbbbe" stroke="none" stroke-width="0" stroke-linecap="butt"/><path d="M298.73088,202.65534c0,0 8.02967,-7.04095 15.64068,-9.85371c4.31506,-1.59467 8.71366,-1.62303 12.04871,-1.60999c2.94935,0.01149 9.48067,2.61295 14.25568,5.08507c3.51558,1.82007 5.95294,3.71473 5.95294,3.71473" fill="none" stroke="#000000" stroke-width="0.5" stroke-linecap="round"/><path d="M331.24652,186.33195c0,0 4.34767,9.7787 4.43938,15.18333c0.07728,4.55352 -3.56794,14.97983 -3.56794,14.97983" fill="none" stroke="#000000" stroke-width="1" stroke-linecap="round"/><path d="M325.84737,217.34681c0,0 -3.86665,-8.98055 -4.4722,-13.46801c-1.06321,-7.87915 2.67254,-17.7 2.67254,-17.7" fill="none" stroke="#000000" stroke-width="1" stroke-linecap="round"/></g><g stroke="#000000" stroke-linecap="butt"><path d="M298.2997,230.10629c35.79846,-4.00611 42.95585,3.01333 44.00764,11.04606c1.0518,8.03274 -27.11597,17.79215 -62.91442,21.79825c-35.79846,4.00611 8.42948,-55.52275 7.37768,-63.55548c3.40129,-6.35932 8.31256,-1.67076 9.70277,6.08194c1.71444,9.56089 -1.23358,24.97165 1.82632,24.62923z" fill="#0d69be" stroke-width="2"/><path d="M323.62269,215.09638c15.36561,-1.71952 29.36853,8.69843 31.27638,23.26915c1.90786,14.57073 -9.0018,27.77658 -24.36741,29.49612c-15.36561,1.71952 -29.36853,-8.69844 -31.27638,-23.26917c-1.90786,-14.57073 9.0018,-27.77658 24.36741,-29.4961z" fill="#faddbf" stroke-width="2"/><path d="M316.25644,255.94822c15.36561,-1.71952 35.76266,-32.44255 37.67051,-17.87182c1.90786,14.57073 -9.0018,27.77658 -24.36741,29.49611c-15.36561,1.71952 -28.66872,-9.90477 -13.3031,-11.62428z" fill="#ef8b89" stroke-width="0"/></g></g><path d="M300.48728,140.44399c-1.20157,1.09393 0.94545,2.51194 2.35924,3.76194c2.82715,2.49964 6.27217,5.55528 4.59355,9.61869c-2.86082,6.92514 -11.08241,-0.34985 -13.30161,-3.36589c-3.57803,-5.76009 -5.6574,-17.34955 3.89858,-19.2824c0.58324,-0.11797 3.67446,-0.31168 4.2141,-0.18723c5.10569,1.17744 3.91066,7.17801 0.203,8.90279l-0.9057,0.44358c0,0 -0.52374,0.25595 -1.06112,0.10852z" fill="#000000" stroke="none" stroke-width="0.5" stroke-linecap="butt"/></g></g></g></svg>