<svg version="1.1" xmlns="http://www.w3.org/2000/svg" xmlns:xlink="http://www.w3.org/1999/xlink" width="204.19777" height="323.34188" viewBox="0,0,204.19777,323.34188"><g transform="translate(-202.96288,-7.23623)"><g data-paper-data="{&quot;isPaintingLayer&quot;:true}" fill-rule="nonzero" stroke-linecap="butt" stroke-linejoin="miter" stroke-miterlimit="10" stroke-dasharray="" stroke-dashoffset="0" style="mix-blend-mode: normal"><g data-paper-data="{&quot;index&quot;:null}" stroke="#000000"><path d="M281.73055,223.66169l23.56097,-41.9652l49.23836,22.61l-23.56097,41.9652z" fill="#ffcaa0" stroke-width="2"/><g><path d="M305.04183,181.77983l32.48799,-57.86543l49.88013,22.9047l-32.48799,57.86543z" fill="#0000c0" stroke-width="2"/><path d="M305.6556,182.29504l17.01625,-30.3082c0,0 7.85229,19.44101 16.13303,23.24349c7.85138,3.60532 32.33196,-0.98862 32.33196,-0.98862l-17.01625,30.30821c0,0 -15.94062,-7.31985 -23.9747,-11.00906c-8.12001,-3.72866 -24.49028,-11.24581 -24.49028,-11.24581z" fill="#56006b" stroke-width="0"/></g><path d="M282.76083,223.53695l23.56097,-41.9652l-3.33728,34.24355l29.01467,30.33165z" fill="#ff6e5b" stroke-width="0"/></g><g data-paper-data="{&quot;index&quot;:null}" stroke="#000000"><path d="M406.16065,76.60595c0,31.53817 -12.86851,57.10492 -28.74263,57.10492c-15.87412,0 -28.74263,-25.56674 -28.74263,-57.10492c0,-31.53817 12.86851,-57.10492 28.74263,-57.10492c15.87412,0 28.74263,25.56674 28.74263,57.10492z" fill="#01930e" stroke-width="2"/><path d="M358.61599,66.76562c0,31.53817 35.1113,66.52007 19.23719,66.52007c-15.87411,0 -28.74263,-25.56674 -28.74263,-57.10492c0,-31.53817 9.50544,-40.95332 9.50544,-9.41515z" fill="#31525b" stroke-width="0"/></g><g data-paper-data="{&quot;index&quot;:null}" stroke="#000000"><path d="M289.97558,329.14294v-88.40123h66.24686v88.40123z" fill="#273750" stroke-width="2"/><path d="M290.82814,328.40204v-88.40123l19.95353,48.29413l46.29331,40.10709z" fill="#1f1e2e" stroke-width="0"/></g><path d="M233.68462,240.33895v-111.4442h123.22841v111.4442z" data-paper-data="{&quot;index&quot;:null}" fill="#0000c0" stroke="#000000" stroke-width="2"/><g data-paper-data="{&quot;index&quot;:null}" stroke="#000000"><path d="M233.01193,329.57811v-88.40123h66.24686v88.40123z" fill="#273750" stroke-width="2"/><path d="M233.86453,328.83718v-88.40123l19.95353,48.29413l46.29331,40.10709z" fill="#1f1e2e" stroke-width="0"/></g><g data-paper-data="{&quot;index&quot;:null}" stroke="#000000"><path d="M262.80544,239.87945v-109.36993h66.24686v109.36993z" fill="#ffffff" stroke-width="2"/><path d="M263.65804,238.96281v-109.36993l19.95353,59.74946l46.29331,49.62048z" fill="#8ebbfc" stroke-width="0"/></g><g data-paper-data="{&quot;index&quot;:null}" stroke="#000000"><path d="M214.03477,75.06919c0,-1.34795 0.96043,-26.81293 1.07106,-28.14024c2.79527,-33.53988 39.48047,-35.97436 85.44084,-35.97436c43.17253,0 80.46608,4.44804 86.9655,35.09052c0.69352,3.26967 -0.4536,25.61003 -0.4536,29.02406c0,12.20302 3.23716,39.02409 -4.7481,48.7341c-15.18557,18.46552 -50.45053,15.38049 -81.7638,15.38049c-33.10813,0 -63.98246,0.96092 -78.52557,-19.28528c-6.44444,-8.97163 -7.98633,-33.95646 -7.98633,-44.82931z" fill="#ffcaa0" stroke-width="2"/><path d="M212.04954,75.07917c0,-1.34795 0.96043,-26.81293 1.07106,-28.14024c1.58815,-19.05576 7.43207,59.30191 59.17731,80.77271c40.55111,16.826 111.9446,-7.90883 108.73414,-4.00494c-15.18557,18.46552 -51.15733,15.48703 -82.47059,15.48703c-33.10813,0 -63.98246,0.96092 -78.52557,-19.28528c-6.44444,-8.97163 -7.98633,-33.95646 -7.98633,-44.82931z" fill="#ff6e5b" stroke-width="0"/></g><g data-paper-data="{&quot;index&quot;:null}" stroke="#000000"><path d="M263.14398,74.575c0,31.53817 -12.86851,57.10492 -28.74263,57.10492c-15.87412,0 -28.74263,-25.56674 -28.74263,-57.10492c0,-31.53817 12.86851,-57.10492 28.74263,-57.10492c15.87412,0 28.74263,25.56674 28.74263,57.10492z" fill="#01930e" stroke-width="2"/><path d="M215.59932,64.73467c0,31.53817 35.1113,66.52007 19.23719,66.52007c-15.87411,0 -28.74263,-25.56674 -28.74263,-57.10492c0,-31.53817 9.50544,-40.95332 9.50544,-9.41515z" fill="#31525b" stroke-width="0"/></g><g data-paper-data="{&quot;index&quot;:null}"><path d="M404.82023,38.55182c0,17.29513 -44.78648,31.3156 -100.03339,31.3156c-55.24692,0 -100.03338,-14.02048 -100.03338,-31.3156c0,-17.29513 44.78647,-31.31559 100.03338,-31.31559c55.24692,0 100.03339,14.02047 100.03339,31.3156z" fill="#000000" stroke="none" stroke-width="NaN"/><path d="M404.02964,38.88898c0,17.29513 -44.78648,31.3156 -100.03339,31.3156c-55.24692,0 -100.03338,-14.02048 -100.03338,-31.3156c0,-17.29513 46.33766,8.6657 101.58457,8.6657c55.24692,0 98.4822,-25.96084 98.4822,-8.6657z" fill="#ff0000" stroke="#000000" stroke-width="2"/><path d="M398.19769,47.89542c0,4.75947 -39.3573,22.99702 -94.60422,21.59416c-19.33309,-0.49092 -37.57077,-2.08899 -52.44115,-4.98166c-27.607,-5.37026 -44.55511,-13.77501 -42.03474,-17.78004c2.6031,-4.13647 40.78018,16.52865 96.02709,16.52865c55.24692,0 93.05303,-20.12058 93.05303,-15.36111z" fill="#900056" stroke="#000000" stroke-width="0"/></g><path d="M328.54231,99.33502c0,15.39195 -3.14571,27.86959 -7.02617,27.86959c-3.88046,0 -7.02617,-12.47764 -7.02617,-27.86958c0,-15.39195 3.14572,-27.86958 7.02617,-27.86958c3.88046,0 7.02617,12.47764 7.02617,27.86959z" data-paper-data="{&quot;index&quot;:null}" fill="#000000" stroke="none" stroke-width="0"/><path d="M356.42494,95.10292c0,15.33038 -2.98017,27.75811 -6.65637,27.75811c-3.67622,0 -6.65637,-12.42773 -6.65637,-27.75811c0,-15.33038 2.98017,-27.75811 6.65637,-27.75811c3.67622,0 6.65637,12.42773 6.65637,27.75811z" data-paper-data="{&quot;index&quot;:null}" fill="#000000" stroke="none" stroke-width="0"/><g data-paper-data="{&quot;index&quot;:null}" stroke="#000000"><path d="M314.24706,226.73576l-46.15185,-21.74878l25.51815,-44.28908l46.15185,21.74878z" fill="#ffcaa0" stroke-width="2"/><g><path d="M268.18473,205.21366l-63.63835,-29.98919l25.85075,-44.86634l63.63835,29.98919z" fill="#0000c0" stroke-width="2"/><path d="M268.76085,204.66405l-33.33189,-15.70745c0,0 21.57826,-6.89617 25.86982,-14.34456c4.06904,-7.06219 -0.75248,-29.24888 -0.75248,-29.24888l33.3319,15.70746c0,0 -8.26135,14.33833 -12.42507,21.56484c-4.20826,7.30381 -12.69227,22.0286 -12.69227,22.0286z" fill="#56006b" stroke-width="0"/></g><path d="M314.12,225.80276l-46.15185,-21.74878l37.82723,3.37873l33.84277,-25.91902z" fill="#ff6e5b" stroke-width="0"/></g><path d="M288.21689,110.20714c-0.44628,0.72748 -0.64586,1.5807 -0.13514,2.41264c0.36963,0.60209 2.10078,1.76704 2.50746,2.12976c1.65485,1.47598 4.52183,4.01609 5.14903,6.17008c0.78999,2.71299 -1.43202,5.44523 -4.20959,5.96195c-0.58204,0.10828 -3.73851,-0.07615 -3.98528,-0.12297c-2.23729,-0.42451 -4.64584,-1.44799 -6.74315,-2.2644c-5.47716,-4.47682 -6.33001,-16.07133 0.68764,-19.84469c4.12286,-2.21684 8.71046,-0.451 7.45312,4.30924l-0.29963,0.71599c0,0 -0.1303,0.30201 -0.42448,0.53239z" fill="#000000" stroke="none" stroke-width="0.5"/></g></g></svg>