<svg version="1.1" xmlns="http://www.w3.org/2000/svg" xmlns:xlink="http://www.w3.org/1999/xlink" width="232.51426" height="330.16006" viewBox="0,0,232.51426,330.16006"><g transform="translate(-153.89159,-0.41806)"><g data-paper-data="{&quot;isPaintingLayer&quot;:true}" fill-rule="nonzero" stroke-linejoin="miter" stroke-miterlimit="10" stroke-dasharray="" stroke-dashoffset="0" style="mix-blend-mode: normal"><g data-paper-data="{&quot;index&quot;:null}" stroke="#000000" stroke-linecap="butt"><path d="M154.95251,128.74561l47.96524,-3.02283l3.20756,50.89645l-47.96524,3.02283z" fill="#ffcaa0" stroke-width="2"/><g><path d="M202.70653,125.23748l66.13882,-4.16815l3.24936,51.55983l-66.13882,4.16815z" fill="#ff0008" stroke-width="2"/><path d="M205.69705,176.06857c0,0 -1.06642,-16.92154 -1.59538,-25.31499c-0.52337,-8.30462 -1.56179,-24.78205 -1.56179,-24.78205l34.64157,-2.18315c0,0 -13.25528,18.90548 -12.74381,27.02126c0.53944,8.5596 15.90099,23.07577 15.90099,23.07577l-34.64156,2.18315z" fill="#8d005e" stroke-width="0"/></g><path d="M155.44603,127.92225l17.84014,36.86523l33.33266,11.00839l-47.96524,3.02283z" fill="#ff6e5b" stroke-width="0"/></g><g data-paper-data="{&quot;index&quot;:null}" stroke="#000000" stroke-linecap="butt"><path d="M225.21997,12.94228c14.65975,0 26.54382,26.10753 26.54382,58.3128c0,32.20527 -11.88407,58.3128 -26.54382,58.3128c-14.65975,0 -26.54382,-26.10753 -26.54382,-58.3128c0,-32.20527 11.88407,-58.3128 26.54382,-58.3128z" fill="#01930e" stroke-width="2"/><path d="M251.36193,70.82092c0,32.20527 -11.88408,58.3128 -26.54382,58.3128c-14.65974,0 17.76555,-35.72183 17.76555,-67.9271c0,-32.20527 8.77827,-22.59097 8.77827,9.6143z" fill="#31525b" stroke-width="0"/></g><g data-paper-data="{&quot;index&quot;:null}" stroke="#000000" stroke-linecap="butt"><path d="M298.86371,329.13374v-90.27109h61.17899v90.27109z" fill="#273750" stroke-width="2"/><path d="M299.65105,328.37717v-90.27109l18.42709,49.31565l42.75189,40.95544z" fill="#1f1e2e" stroke-width="0"/></g><path d="M244.15634,238.45138v-113.80147h113.80147v113.80147z" data-paper-data="{&quot;index&quot;:null}" fill="#ff0008" stroke="#000000" stroke-width="2" stroke-linecap="butt"/><g data-paper-data="{&quot;index&quot;:null}" stroke="#000000" stroke-linecap="butt"><path d="M246.25776,329.57811v-90.27109h61.17899v90.27109z" fill="#273750" stroke-width="2"/><path d="M247.04514,328.82151v-90.27109l18.42709,49.31565l42.75189,40.95544z" fill="#1f1e2e" stroke-width="0"/></g><g data-paper-data="{&quot;index&quot;:null}" fill="#000000" stroke="#000000" stroke-linecap="butt"><path d="M269.88574,237.98216v-111.68333h61.17899v111.68333z" stroke-width="2"/><path d="M269.09837,237.04613l42.75189,-50.67005l18.42709,-61.01328v111.68333z" stroke-width="0"/></g><g data-paper-data="{&quot;index&quot;:null}" stroke="#000000" stroke-linecap="butt"><path d="M376.10445,69.68581c0,11.10283 -1.42394,36.61614 -7.37538,45.77754c-13.43056,20.67445 -41.94302,19.6932 -72.51838,19.6932c-28.91781,0 -61.48502,3.15028 -75.50889,-15.70582c-7.37439,-9.91539 -4.38487,-37.30378 -4.38487,-49.76492c0,-3.48625 -1.05936,-26.29915 -0.4189,-29.63798c6.00221,-31.29064 40.44282,-35.83276 80.31266,-35.83276c42.44441,0 76.32321,2.48597 78.90464,36.73529c0.10216,1.35538 0.98912,27.359 0.98912,28.73546z" fill="#ffcaa0" stroke-width="2"/><path d="M377.9378,69.69599c0,11.10283 -1.42394,36.61614 -7.37538,45.77754c-13.43056,20.67445 -41.94302,19.6932 -72.51838,19.6932c-28.9178,0 -62.13774,3.04149 -76.16161,-15.81461c-2.96486,-3.98647 62.96704,21.27155 100.416,4.08965c47.78674,-21.92495 53.18361,-101.94005 54.65026,-82.48122c0.10216,1.35538 0.98912,27.359 0.98912,28.73546z" fill="#ff6e5b" stroke-width="0"/></g><g data-paper-data="{&quot;index&quot;:null}" stroke="#000000" stroke-linecap="butt"><path d="M357.2959,10.86837c14.65975,0 26.54382,26.10753 26.54382,58.3128c0,32.20527 -11.88407,58.3128 -26.54382,58.3128c-14.65975,0 -26.54382,-26.10753 -26.54382,-58.3128c0,-32.20527 11.88407,-58.3128 26.54382,-58.3128z" fill="#01930e" stroke-width="2"/><path d="M383.43786,68.747c0,32.20527 -11.88408,58.3128 -26.54382,58.3128c-14.65974,0 17.76555,-35.72183 17.76555,-67.9271c0,-32.20527 8.77827,-22.59097 8.77827,9.6143z" fill="#31525b" stroke-width="0"/></g><g data-paper-data="{&quot;index&quot;:null}" stroke-linecap="butt"><path d="M199.91403,32.39605c0,-17.66096 41.36032,-31.97799 92.38086,-31.97799c51.02054,0 92.38085,14.31702 92.38085,31.97798c0,17.66095 -41.36031,31.97799 -92.38085,31.97799c-51.02054,0 -92.38086,-14.31703 -92.38086,-31.97799z" fill="#000000" stroke="none" stroke-width="NaN"/><path d="M291.59247,41.58933c51.02054,0 93.81338,-26.50996 93.81338,-8.849c0,17.66095 -41.36031,31.97799 -92.38085,31.97799c-51.02054,0 -92.38086,-14.31703 -92.38086,-31.97799c0,-17.66096 39.92779,8.849 90.94833,8.849z" fill="#ff0000" stroke="#000000" stroke-width="2"/><path d="M291.96444,57.6233c51.02054,0 86.27707,-21.10222 88.68104,-16.87826c2.32757,4.08974 -13.32402,12.67227 -38.81909,18.15612c-13.7328,2.95385 -30.57531,4.58573 -48.42942,5.08703c-51.02054,1.43253 -87.36702,-17.19078 -87.36702,-22.05092c0,-4.86014 34.91395,15.68603 85.93449,15.68603z" fill="#900056" stroke="#000000" stroke-width="0"/></g><path d="M295.35671,92.15725c0,-15.71752 2.90507,-28.45909 6.48867,-28.45909c3.58359,0 6.48867,12.74156 6.48867,28.45908c0,15.71751 -2.90507,28.45908 -6.48867,28.45908c-3.5836,0 -6.48867,-12.74157 -6.48867,-28.45909z" data-paper-data="{&quot;index&quot;:null}" fill="#000000" stroke="none" stroke-width="0" stroke-linecap="butt"/><path d="M269.98502,66.02882c3.39498,0 6.14716,12.6906 6.14716,28.34525c0,15.65465 -2.75217,28.34525 -6.14716,28.34525c-3.39498,0 -6.14716,-12.6906 -6.14716,-28.34525c0,-15.65465 2.75217,-28.34525 6.14716,-28.34525z" data-paper-data="{&quot;index&quot;:null}" fill="#000000" stroke="none" stroke-width="0" stroke-linecap="butt"/><path d="M312.98698,65.41555h-30" data-paper-data="{&quot;index&quot;:null}" fill="none" stroke="#000000" stroke-width="5" stroke-linecap="round"/><path d="M251.37526,64.42654l23.33333,4.52381" data-paper-data="{&quot;index&quot;:null}" fill="none" stroke="#000000" stroke-width="5" stroke-linecap="round"/><path d="M329.64254,114.41365c3.1993,5.29115 3.54407,10.9402 0.77007,12.6175c-2.774,1.6773 -7.61632,-1.2523 -10.81562,-6.54345c-3.1993,-5.29115 -3.54407,-10.9402 -0.77007,-12.6175c2.774,-1.6773 7.61632,1.2523 10.81562,6.54345z" fill="#000000" stroke="none" stroke-width="0" stroke-linecap="butt"/><g data-paper-data="{&quot;index&quot;:null}" stroke="#000000" stroke-linecap="butt"><path d="M255.93843,136.61561l47.73018,-5.62423l5.96794,50.64702l-47.73018,5.62423z" fill="#ffcaa0" stroke-width="2"/><g><path d="M303.43134,130.51827l65.81469,-7.7552l6.04572,51.30715l-65.81469,7.7552z" fill="#ff0008" stroke-width="2"/><path d="M309.17901,181.11182c0,0 -1.98416,-16.83861 -2.96835,-25.19093c-0.97377,-8.26393 -2.90585,-24.6606 -2.90585,-24.6606l34.4718,-4.06195c0,0 -12.2086,19.5977 -11.25697,27.6737c1.00367,8.51765 17.13117,22.17782 17.13117,22.17782l-34.47179,4.06195z" fill="#8d005e" stroke-width="0"/></g><path d="M256.38648,135.76666l19.81662,35.84156l33.88149,9.18123l-47.73018,5.62423z" fill="#ff6e5b" stroke-width="0"/></g></g></g></svg>