<svg version="1.1" xmlns="http://www.w3.org/2000/svg" xmlns:xlink="http://www.w3.org/1999/xlink" width="275.24753" height="299.55195" viewBox="0,0,275.24753,299.55195"><defs><radialGradient cx="257.09716" cy="276.37998" r="15.60808" gradientUnits="userSpaceOnUse" id="color-1"><stop offset="0" stop-color="#1e202b"/><stop offset="1" stop-color="#1e202b" stop-opacity="0"/></radialGradient></defs><g transform="translate(-102.37623,-30.22402)"><g data-paper-data="{&quot;isPaintingLayer&quot;:true}" fill-rule="nonzero" stroke-linecap="butt" stroke-linejoin="miter" stroke-miterlimit="10" stroke-dasharray="" stroke-dashoffset="0" style="mix-blend-mode: normal"><path d="M102.37624,329.77598v-299.55195h275.24753v299.55195z" fill="none" stroke="none" stroke-width="0"/><g><path d="M182.62406,296.83555c5.38054,-4.39675 11.19618,-9.14717 12.00967,-10.52478c0.7299,-1.23605 1.45767,-2.65066 2.39927,-4.21458c3.31489,-5.50566 7.84181,-12.86149 11.7363,-20.78926c0.88315,-1.79777 1.4957,-3.74523 2.32674,-5.5778c0.61709,-1.36077 0.93453,-2.23713 1.47007,-3.61072c0.38456,-0.98634 0.37276,-1.35238 0.72668,-2.3352c0.30371,-0.84337 1.22899,-2.80108 1.51667,-3.63608c1.22603,-3.55866 2.33381,-7.01707 3.55664,-10.16844c3.66055,-9.43371 5.42007,-17.21885 5.42007,-17.21885l27.72671,-4.92392c0,0 -3.45952,15.32574 -8.89482,29.17057c-1.32249,3.36864 -3.76962,7.43062 -5.56841,10.39064c-0.90275,1.48554 -1.69024,2.78787 -2.39554,3.86086c-0.42287,0.64333 -0.92401,1.09819 -1.10137,1.75702c-0.74595,2.77074 -0.24611,6.3198 -0.3804,10.52778c-0.229,7.17554 -0.6966,15.00404 -0.6966,15.00404c0,0 -6.85961,8.98334 -6.98621,8.983c-0.5474,-0.00153 -1.98639,-6.01971 -2.49074,-8.20446c-0.11185,-0.48451 -0.39261,-0.63819 -0.73539,-0.38311c-0.93547,0.69614 -2.82366,2.23235 -3.89734,4.00894c-0.76813,1.27102 -1.82694,4.78888 -2.48452,5.08444c-0.7216,0.32434 -1.60168,1.15588 -2.38324,1.49843c-3.10456,1.3607 -6.6227,2.62457 -10.28725,3.92324c-4.86057,1.72253 -9.97871,3.41201 -14.73098,4.54807c-7.46157,1.78373 -14.5619,1.55574 -15.6364,1.58974c-1.0682,0.03381 -0.84284,-0.09825 -0.23501,-0.59291c0,0 5.76965,-4.69722 10.01541,-8.16667z" fill="#1b1f25" stroke="#000000" stroke-width="1.5"/><path d="M250.04026,213.79457l25.37057,-3.59985c0,0 -0.59223,4.32476 -2.50291,10.83317c-1.6845,5.73797 -4.59055,13.11791 -6.2378,21.50938c-0.80364,4.09395 1.11381,8.7225 0.2151,13.00111c-0.63968,3.04544 -1.574,3.27757 -2.85515,6.47549c-0.66907,1.67011 -1.15606,3.86301 -1.86385,6.11056c-0.97597,3.09913 -2.14423,6.3022 -2.73252,8.38188c-0.92022,3.2531 -0.30284,6.02097 -0.34524,8.60681c-0.09737,5.93707 12.98146,15.52511 14.89033,17.23201c0.18969,0.16961 0.38965,0.27276 0.27875,0.27698c-1.62265,0.06149 -5.67916,0.09401 -8.20266,-0.23494c-4.51475,-0.58853 -8.5518,-1.54756 -12.13485,-2.3271c-4.926,-1.07173 -8.9939,-2.02521 -12.2653,-3.21808c-3.91886,-1.42896 -6.69473,-2.97407 -8.4335,-3.73442c-0.31671,-0.13849 0.06828,-5.78146 0.14454,-7.36997c0.07719,-1.60768 -0.89007,-1.19072 -0.89007,-1.19072c0,0 -0.43245,-5.48743 0.54301,-9.41672c0.68383,-2.75455 1.90758,-8.34956 4.1543,-14.99027c1.0661,-3.15109 2.81719,-6.6795 4.09892,-10.10973c1.25391,-3.35577 2.29248,-6.6115 3.20592,-9.87139c4.04756,-14.44486 5.5624,-26.36418 5.5624,-26.36418z" fill="#1b1f25" stroke="#000000" stroke-width="1.5"/><path d="M242.00479,241.97228c0,0 -4.54922,0.90911 -4.64299,-0.30735c-0.3102,-4.02452 2.45515,-28.07763 2.45515,-28.07763h20.19548c0,0 -11.0756,27.15222 -12.91573,30.72186c-0.4321,0.83824 -2.39918,-1.01279 -2.39918,-1.01279c0,0 1.97029,-7.77899 1.17806,-7.77899c-1.04656,0 -1.7412,1.73957 -2.36993,3.09013c-0.7478,1.60633 -1.50086,3.36477 -1.50086,3.36477z" fill="#1b1f25" stroke="none" stroke-width="0"/><path d="M228.22963,284.05402c0.01554,-2.04738 1.65785,-9.93141 1.65785,-9.93141c0,0 0.78388,-11.37964 1.31676,-11.76008c0.32672,-0.23325 1.21809,2.49204 1.40103,4.80675c0.15315,1.93769 0.05434,5.47472 -0.01558,5.71289c-0.02667,0.09084 -0.30708,1.80431 -0.26843,2.80676c0.02481,0.64356 0.32953,0.75083 0.42723,0.75083c0.43307,0 1.54862,-3.44449 2.40949,-6.5612c0.51073,-1.84902 1.07048,-3.79718 1.11187,-4.25653c0.11817,-1.31137 0.51774,8.33507 0.51774,8.33507l-0.75733,10.75816c0,0 -7.81076,0.6741 -7.80064,-0.66124z" fill="#1b1f25" stroke="none" stroke-width="0"/><path d="M241.48909,276.37998c0,-8.47743 6.98798,-15.34975 15.60808,-15.34975c2.30829,0 4.49848,-0.82793 6.46987,0.0565c0.10793,0.04842 -0.17817,0.87743 -0.56722,2.03452c-0.26943,0.8013 -0.54445,1.75993 -0.95259,2.72562c-0.48939,1.15791 -0.83724,2.90849 -1.4384,4.52518c-0.30107,0.80965 -0.70338,2.21227 -1.00756,3.45133c-0.04954,0.2018 -0.13716,0.50792 -0.23755,0.83932c-0.19397,0.64028 -0.37639,1.3748 -0.48318,1.63316c-1.47918,3.57912 0.22512,8.66474 -0.79095,9.78919c-0.11178,0.1237 0.54084,2.56047 1.35465,3.62347c0.59349,0.7752 2.01561,2.0018 1.942,2.01687c-1.03138,0.21101 -3.194,0.00433 -4.28904,0.00433c-8.6201,0 -15.60808,-6.87232 -15.60808,-15.34975z" fill="url(#color-1)" stroke="none" stroke-width="0"/><path d="M263.20993,293.57002c0,0 -1.52898,-1.23884 -2.75083,-2.65722c-0.79193,-0.91931 -1.34086,-1.91258 -1.82739,-2.7785c-0.14027,-0.24965 -0.92625,0.02652 -1.01514,-0.36687c-0.25862,-1.14453 -0.17758,-2.96655 0.04412,-4.88173c0.22981,-1.98535 0.56448,-4.07078 0.83081,-5.60533c0.24154,-1.39164 0.67932,-2.82677 0.67932,-2.82677l3.28177,-6.28939c0,0 -1.4485,8.36083 -1.64291,9.50963c-0.12992,0.76767 -0.17926,1.8471 -0.35627,2.74203c-0.21893,1.10687 -0.54401,2.06303 -0.39579,3.36556c0.22167,1.94816 1.79016,3.71957 2.2104,4.66076c0.89003,1.99327 1.69923,3.72101 1.69923,3.72101z" fill="#000000" stroke="none" stroke-width="0"/><path d="M216.91669,294.09022c0,0 -6.50429,2.46899 -6.79854,2.36833c-0.12713,-0.04349 1.17969,-1.07274 2.5072,-1.80154c1.30619,-0.7171 2.63242,-1.13425 2.63242,-1.13425c0,0 0.70373,-2.33267 1.94867,-4.31886c0.31234,-0.49832 0.52358,-1.10776 0.92421,-1.49781c0.90919,-0.8852 2.63969,-3.04536 4.52488,-4.17231c0.65279,-0.39022 0.98156,0.68751 1.41231,2.39364c0.6926,2.74319 1.4079,6.74414 1.4079,6.74414c0,0 -0.30215,1.40725 -1.1886,-0.33188c-1.09746,-2.15311 -1.16734,-6.26487 -2.11721,-6.26487c-0.89865,0 -1.77076,1.89445 -2.82388,3.8246c-1.18393,2.16988 -2.42935,4.19081 -2.42935,4.19081z" fill="#000000" stroke="none" stroke-width="0"/><path d="M225.19925,293.23904c0,0 -0.81659,-1.62878 -0.64729,-2.15329c0.08312,-0.25751 1.06076,0.72018 1.21034,0.40073c0.60614,-1.29444 1.71477,-3.03378 2.91434,-4.76296c1.26565,-1.82443 3.20614,-3.47965 4.09388,-4.09799c0.43526,-0.30318 0.98253,-0.28856 1.15569,0.00337c0.43971,0.74133 0.22974,2.27813 0.05613,3.94808c-0.20812,2.00196 -0.50701,4.12438 -0.73198,5.36792c-0.11311,0.62526 -0.26143,1.08136 -0.26143,1.08136c0,0 -0.64372,0.24977 -0.71019,-1.07155c-0.01607,-0.31952 -0.08617,-0.67961 -0.07541,-1.05421c0.04731,-1.64619 0.33553,-3.57205 -0.07425,-3.56084c-0.96826,0.02644 -3.35037,3.56554 -5.08022,5.45103c-0.83475,0.90986 -1.8496,0.44839 -1.8496,0.44839z" fill="#000000" stroke="none" stroke-width="0"/><path d="M232.99817,292.35978c0.12078,-0.44104 0.31986,-1.23554 0.42606,-1.75768c0.17577,-0.86432 0.94167,-5.68803 0.94167,-5.68803l1.72448,2.93405l8.66176,9.01493c0,0 -8.83171,-2.99468 -9.328,-3.18857c-0.73893,-0.28866 -1.72164,-0.67257 -2.03592,-0.79535c-0.19432,-0.07592 -0.45033,-0.29929 -0.39006,-0.51935z" fill="#1b1f25" stroke="none" stroke-width="0"/><path d="M194.51177,286.73868c-0.64505,-0.10205 0.05645,-2.22862 1.10532,-4.00729c0.71463,-1.21186 2.20256,-2.96961 2.81661,-2.87933c0.34437,0.05064 0.39251,0.74417 0.29422,1.53147c-0.09967,0.7983 -0.34854,1.64605 -0.9535,2.54996c-0.67517,1.00883 -1.45987,1.97349 -2.18745,2.4623c-0.45826,0.30788 -1.06002,0.3453 -1.07521,0.3429z" fill="#000000" stroke="none" stroke-width="0"/><path d="M219.99616,281.41305c0,0 -0.39555,-1.00719 -1.38361,-2.36766c-0.44983,-0.61938 -0.9914,-1.35927 -1.50906,-1.9775c-0.68372,-0.81654 -1.32572,-1.47769 -1.65963,-1.93027c-0.17683,-0.23968 -0.19663,-0.46889 -0.1794,-0.50004c0.22077,-0.39953 3.03849,-1.38292 4.64827,-2.16044c0.60918,-0.29424 1.11194,-0.49356 1.13827,-0.7162c0.03565,-0.30138 -2.39566,-5.18274 -3.3096,-6.94399c-0.22916,-0.4416 -0.04214,-0.3266 0.26428,-0.45078c1.26495,-0.51271 4.76589,-1.96495 7.40709,-3.37629c1.59284,-0.85114 2.93236,-1.62903 3.16641,-2.28888c0.02011,-0.05671 -0.68155,-0.59318 -1.48418,-1.14187c-0.7719,-0.52767 -1.79676,-1.25151 -2.70145,-1.97535c-0.82607,-0.66096 -1.46138,-1.39833 -2.05076,-1.90995c-0.59425,-0.51585 -1.18097,-0.62743 -1.08951,-0.84381c0.27268,-0.64515 2.10553,-1.59017 3.65937,-2.28394c0.58581,-0.26155 2.22517,-1.04049 2.25178,-1.27248c0.01873,-0.16329 -0.70018,-0.57701 -1.68553,-1.17808c-0.27861,-0.16995 -0.64999,-0.2846 -0.94462,-0.49875c-2.15945,-1.5696 -4.74399,-3.8889 -4.60835,-4.56838c0.15777,-0.79028 0.66038,-1.54932 1.1635,-2.30179c0.74132,-1.10873 1.5747,-2.20322 2.05082,-3.3624c1.9102,-4.65065 3.04178,-8.90312 3.04178,-8.90312c0,0 0.69055,7.76385 1.42425,8.49955c0.65947,0.66128 1.69375,-0.26682 2.75752,-0.37783c1.26094,-0.13159 2.5633,-0.07663 3.33198,-0.15499c0.39738,-0.04051 0.65212,-0.17264 0.68479,-0.26668c0.26954,-0.77582 0.1886,-1.09207 -0.03185,-1.77265c-0.26502,-0.81822 -0.73165,-1.68827 -1.03329,-2.2087c-0.16969,-0.29276 -0.31048,-0.39043 0.06943,-0.51837c0.74994,-0.25254 2.3961,-0.73734 4.16841,-1.38715c1.64278,-0.60232 3.51649,-1.45314 5.53435,-2.25032c1.95107,-0.77079 4.04197,-1.48649 5.89847,-2.16485c2.23673,-0.81729 4.246,-1.22266 5.64504,-1.72244c0.60814,-0.21724 1.10096,-0.57625 1.44706,-0.78793c0.33482,-0.20479 -2.12765,-2.35186 -3.14455,-3.2179c-0.26007,-0.22149 -0.70223,-0.50343 -0.38588,-0.61633c1.12132,-0.40023 4.3036,-1.29022 5.83262,-1.80808c1.48731,-0.50373 4.34898,-1.46657 5.57918,-1.86855c0.39616,-0.12944 0.32547,0.02177 0.04512,0.28229c-0.64818,0.60233 -1.94816,1.77388 -3.44882,2.9269c-1.59926,1.22878 -3.77332,2.50476 -3.78303,2.68517c-0.02456,0.45623 6.56533,0.01903 6.56382,0.66371c-0.00001,0.00487 -0.52582,0.68341 -1.8893,1.38826c-1.17038,0.60503 -2.78456,1.20456 -4.59983,2.01921c-2.47848,1.1123 -5.33182,2.4936 -7.94221,3.62222c-6.17332,2.66905 -11.46531,4.16487 -11.47913,4.50758c-0.01789,0.44377 2.36317,2.35335 2.47541,2.96778c0.05115,0.28006 -1.32182,0.70951 -2.48006,1.33268c-3.30287,1.77705 -9.29119,4.58452 -10.02299,5.75414c-0.11718,0.18729 1.38107,0.43078 3.25859,0.78203c3.05197,0.57098 7.10608,1.30135 6.85259,1.60372c-0.10409,0.12417 -2.6989,0.94919 -5.50715,2.06399c-1.85902,0.73798 -3.84375,1.49491 -5.41822,2.18174c-1.70055,0.74184 -2.92249,1.38916 -2.99054,1.4845c-0.10098,0.14148 1.88406,1.26419 3.99993,2.65828c2.60887,1.71891 5.45703,3.77093 5.32603,3.94716c-0.30872,0.41532 -2.44774,1.84238 -4.87836,3.25199c-3.42182,1.98445 -7.42153,4.08435 -7.70604,4.58625c-0.19763,0.34866 6.04037,6.96792 5.82507,6.93864c-0.39058,-0.05312 -1.73433,0.72561 -3.10365,1.24177c-1.11126,0.41888 -2.18634,0.53445 -3.20621,0.93392c-1.0779,0.42221 -1.92061,0.73494 -2.13886,0.72964c-0.16952,-0.00412 0.53077,1.27318 0.98546,2.04434c0.92017,1.56062 1.29894,2.97735 1.29894,2.97735z" fill="#2b263c" stroke="none" stroke-width="0"/><path d="M244.9429,286.46536c0.32152,-0.30006 0.66846,-0.74676 1.16431,-1.14103c1.42835,-1.13573 3.42526,-2.49248 4.69848,-3.486c0.7701,-0.60092 1.38154,-1.11741 1.42738,-1.23358c0.20425,-0.51759 0.04089,-1.62865 -0.23463,-2.11983c-0.28914,-0.51544 -0.80466,-1.28583 -1.51211,-2.0387c-0.59286,-0.63091 -1.34362,-1.22676 -1.98522,-1.86986c-0.99166,-0.99395 -1.90813,-1.9183 -2.33701,-2.51293c-0.19949,-0.2766 -0.29637,-0.6318 -0.2502,-0.73279c0.01935,-0.04231 0.20167,-0.32671 0.63754,-0.53285c0.34228,-0.16188 0.94836,-0.20225 1.47617,-0.43237c0.67621,-0.29483 1.4789,-0.65035 2.34213,-1.07856c0.85624,-0.42474 1.772,-0.96391 2.68293,-1.44305c1.20668,-0.63472 2.40485,-1.29814 3.4448,-1.93987c1.66817,-1.02937 2.99357,-2.19262 3.19195,-2.79065c0.39764,-1.19869 0.72752,-2.37563 0.9625,-3.51477c0.09443,-0.4578 -0.13503,-1.8234 -0.06848,-2.26202c0.0157,-0.10349 -4.20897,0.01208 -4.19401,-0.07518c0.11717,-0.6838 3.01345,-2.10632 3.09422,-2.7348c0.02993,-0.23287 -0.34159,-0.27251 -0.72184,-0.38062c-0.65698,-0.18678 -1.49424,-0.42629 -1.44309,-1.12745c0.04767,-0.6534 1.50274,-0.43973 1.59283,-0.82214c0.02608,-0.11071 -1.31067,-1.65902 -3.12134,-3.26878c-1.43769,-1.27816 -3.2603,-2.53858 -4.32349,-3.5509c-0.76085,-0.72444 -1.25212,-1.44976 -1.22526,-1.50663c0.02669,-0.05652 0.56385,-0.38394 1.39768,-1.10892c0.53472,-0.46491 1.81286,-0.42373 2.53521,-1.04999c1.50075,-1.30112 3.1743,-2.95407 4.60816,-4.4309c0.78406,-0.80755 1.6518,-1.48605 2.22509,-2.10195c0.4542,-0.48797 0.66575,-0.96509 0.91177,-1.23565c0.22249,-0.24467 0.27135,-0.47509 0.51181,-0.26822c0.55129,0.47427 1.7679,1.5451 2.26834,1.94611c0.18833,0.15092 1.02414,0.527 1.21639,0.65049c0.30555,0.19627 -0.20743,0.23499 -0.45677,0.46663c-0.40329,0.37465 -1.08955,1.01317 -1.91927,1.78901c-0.43064,0.40268 -0.8999,0.99512 -1.3883,1.45409c-1.30253,1.22404 -2.74109,2.25071 -3.94562,3.38096c-0.31476,0.29535 -0.71571,0.47688 -1.02143,0.71548c-0.46423,0.3623 -0.81034,0.75644 -1.10245,1.09303c-0.46672,0.53777 -0.81917,0.68175 -0.8077,0.7391c0.04328,0.21649 0.50594,0.75735 0.86894,0.8841c1.18198,0.4127 3.77799,0.56074 5.95869,1.16806c1.47028,0.40947 2.8088,1.39883 3.27819,2.19431c0.04818,0.08166 -0.341,0.21721 -0.92478,0.59773c-0.96174,0.62689 -2.37396,1.64165 -3.30655,2.302c-0.54007,0.38243 -0.97092,0.59522 -0.92636,0.67667c0.14257,0.26066 0.67693,0.21776 0.82598,0.48204c0.21566,0.38239 -0.96124,0.76882 -0.73533,1.15813c0.05134,0.08847 1.01806,0.59425 2.07559,0.95892c1.31971,0.45509 2.78084,0.69916 2.78084,0.69916c0,0 -0.00642,1.17652 -1.20279,3.20243c-0.56943,0.96426 -1.04797,2.18004 -2.59583,3.44279c-0.59282,0.48363 -1.36777,0.92025 -2.13519,1.44685c-1.9249,1.32084 -4.21347,2.80354 -6.47976,4.04585c-1.35176,0.74099 -2.82124,1.34724 -3.83401,1.91859c-0.82553,0.46573 -1.32156,0.93389 -1.41647,1.22307c-0.16639,0.50699 1.43915,1.55131 3.51346,2.56413c1.66792,0.81441 3.66637,1.58143 5.08172,2.23756c1.20813,0.56008 2.2558,0.67009 2.20335,1.0048c-0.06198,0.39542 -3.5625,1.1668 -3.30754,1.88692c0.04433,0.12523 0.33969,0.186 0.62287,0.33105c0.7075,0.36239 1.82391,0.774 1.66788,1.17168c-0.05881,0.14986 -0.52002,0.32452 -1.09447,0.74959c-0.84883,0.62809 -2.30392,1.45738 -3.5137,2.31451c-1.07282,0.76009 -1.90296,1.55839 -2.68765,2.01474c-0.30385,0.17671 -0.83813,0.20748 -1.13428,0.39909c-0.21817,0.14116 0.15986,0.45186 0.57144,0.88229c0.79422,0.8306 2.53418,2.13103 4.55896,3.52464c0.74108,0.51008 1.52033,0.8035 2.30532,1.32009c0.57686,0.37963 1.15683,0.98518 1.72703,1.35104c1.89376,1.21504 3.67988,2.31364 4.88726,3.02741c0.92893,0.54915 1.96985,0.80539 1.96985,0.80539c0,0 -2.03036,-0.17683 -4.95917,-1.11701c-1.18608,-0.38075 -2.58444,-0.82282 -3.95423,-1.52812c-3.11685,-1.64246 -6.34158,-3.85344 -8.62377,-5.56051c-1.26006,-0.94251 -2.15512,-1.80781 -2.66371,-2.26258c-0.18405,-0.16456 -0.63922,-0.31173 -0.48276,-0.55631c0.06819,-0.1066 0.6301,-0.29361 0.74953,-0.40506z" fill="#2b263c" stroke="none" stroke-width="0"/></g><g><path d="M272.18863,176.21963c0,0 4.53363,-15.51649 4.2603,-20.70555c-0.17583,-3.33797 -1.27597,-8.35109 -1.27597,-8.35109l3.3613,0.32199c0,0 4.52816,1.32601 13.01531,14.16706c2.40171,3.63378 5.4428,12.44969 5.4428,12.44969z" fill="#2b263c" stroke="#000000" stroke-width="2"/><path d="M279.17269,174.45437c0,0 -4.81453,4.26813 -5.06769,2.46517c-0.44678,-3.18196 3.58225,-13.58868 3.83023,-16.25597c0.18723,-2.01375 -1.88092,-7.59533 -0.96617,-9.64978c0.61779,-1.3875 4.35857,0.26281 4.35857,0.26281c0,0 3.25859,2.76938 4.61497,4.33082c1.21477,1.39841 3.54501,4.14402 3.54501,4.14402c0,0 -4.41189,3.89031 -4.46014,5.46411c-0.0168,0.54804 4.13716,2.37313 4.11781,2.93919c-0.06028,1.764 -0.04978,3.51395 -0.47651,3.93794c-0.67586,0.67154 -2.93402,0.66997 -2.93402,0.66997z" fill="#1b1f25" stroke="none" stroke-width="0"/></g><g><g><path d="M227.04976,149.26201c0,0 1.44588,-2.73392 1.50017,-10.09887c0.02384,-3.23226 -0.55696,-7.87908 -0.49515,-11.6591c0.04484,-2.74115 0.86545,-7.9889 1.03553,-10.77712c0.22958,-3.764 4.54073,-8.06146 4.54073,-8.06146c0,0 22.96111,2.41975 28.8917,7.17827c2.52371,2.02495 4.71291,19.97553 4.71291,19.97553c0,0 6.54997,9.81002 9.16988,13.91576c3.354,5.25621 3.73093,16.61284 3.73093,16.61284c0,0 0.61008,8.87016 -1.14938,19.86823c-1.12587,7.03756 -1.50074,20.26784 -2.01421,20.84913c-3.49076,3.95169 -9.40376,2.82212 -14.37258,3.52155c-10.44692,1.47057 -20.78979,0.8662 -24.23657,1.25782c-4.15201,0.47174 -11.31397,-62.58258 -11.31397,-62.58258z" fill="#ffc6ef" stroke="#000000" stroke-width="2"/><path d="M229.01846,131.01514c-0.06292,-4.24297 1.00411,-10.96605 0.99356,-14.39461c-0.00555,-1.80753 3.07366,-5.75757 3.07366,-5.75757l25.83433,14.82656c0,0 3.57365,9.1799 -0.09545,12.86329c-1.90965,1.91709 -10.97556,0.04244 -16.78502,-0.99964c-2.8875,-0.51795 -3.72053,-1.11071 -3.72053,-1.11071c0,0 0.89381,2.46898 1.83304,4.40625c0.93758,1.93388 1.91996,4.33488 2.61096,5.71463c1.2113,2.41872 3.40811,6.5582 3.40811,6.5582c0,0 6.38197,14.21701 5.85843,14.03737c-2.0025,-0.68711 -20.55588,-17.33254 -20.55588,-17.33254c0,0 -2.32341,-9.92414 -2.45521,-18.81123z" fill="#d396fc" stroke="none" stroke-width="0"/><path d="M279.97835,161.09949c0,0 -3.55439,-9.09451 -3.58678,-9.138c-3.66501,-4.91979 -14.86434,-19.58751 -14.86434,-19.58751c0,0 9.28305,3.27635 13.47331,5.67638c1.52942,0.876 3.52658,2.45893 5.44777,3.4788c1.78859,0.94947 3.49777,1.82608 5.05677,2.75982c0.68214,0.40855 1.32056,0.89918 1.8942,1.2648c1.04479,0.66591 1.87465,1.5117 2.36227,1.8687c0.56823,0.416 0.87546,0.97022 0.83157,1.01338c-0.71044,0.69884 -2.0387,2.33692 -2.82697,3.33703c-1.64956,2.09286 -7.78779,9.3266 -7.78779,9.3266z" fill="#2b263c" stroke="#000000" stroke-width="2"/><path d="M263.14842,138.87546l-2.6907,-2.04747c0,0 3.76736,0.54626 3.98069,0.85942c0.3979,0.5841 0.79041,1.93837 1.43991,2.88091c0.57751,0.83807 1.12826,1.62973 1.42774,2.04048c0.41306,0.56652 1.07831,1.20884 1.07831,1.20884c0,0 -0.3499,-0.05754 -0.75853,-0.35807c-0.91744,-0.67471 -2.42481,-2.00371 -3.01908,-2.6077c-0.58025,-0.58975 -1.45833,-1.97643 -1.45833,-1.97643z" fill="#000000" stroke="none" stroke-width="0"/><path d="M258.38275,167.62391c0,0 -1.10938,-1.71545 0.32565,-3.44371c0.32996,-0.39739 1.27056,-1.44805 1.51018,-1.79439c0.21888,-0.31634 -0.09898,-0.06007 -0.42937,-0.39421c-0.23797,-0.24068 -0.92076,-0.69108 -1.16461,-0.84835c-0.4914,-0.31693 -2.04012,-1.00297 -2.70335,-1.30412c-0.35321,-0.16037 -0.1966,0.10706 -0.01225,-0.09478c0.32167,-0.35219 1.68186,-1.90242 2.32977,-2.61181c0.30919,-0.33854 0.77906,-0.62939 0.38112,-1.00514c-0.30061,-0.28386 -1.1914,-0.83633 -1.60536,-1.20728c-1.14077,-1.02225 -2.22064,-2.00962 -2.82621,-2.73812c-0.43069,-0.51812 -1.35238,-1.52341 -1.54986,-2.07707c-0.17654,-0.49496 -0.46292,-0.76449 0.04896,-0.7802c0.95966,-0.02946 3.44825,-0.12339 5.14256,-0.42008c2.15427,-0.37724 4.24579,-0.97723 5.80675,-1.54838c2.74154,-1.00314 7.54969,-4.21706 9.10771,-5.28256c0.31976,-0.21869 0.54343,-0.20596 0.41431,0.40608c-0.06686,0.31689 -2.82944,5.7136 -3.20917,6.74546c-0.17563,0.47724 -0.54291,1.71205 -0.60506,2.16232c-0.05002,0.36234 0.08327,0.21763 0.41741,0.09617c1.28798,-0.4682 2.53214,-1.81232 6.36905,-2.0075c1.30505,-0.08408 2.41955,-0.04536 3.10645,-0.00041c0.46463,0.0304 0.57204,0.20658 0.31894,0.45285c-0.69745,0.67858 -2.42664,2.36216 -3.25206,3.87938c-1.70063,3.87925 -5.90792,18.26383 -5.90792,18.26383z" fill="#696f96" stroke="#000000" stroke-width="1.5"/><path d="M257.56825,166.73432l3.4597,-4.32809c0,0 -0.81802,-0.89618 -1.42916,-1.314c-0.78237,-0.53489 -2.87955,-1.6318 -2.87955,-1.6318l2.97673,-3.1046c0,0 -2.52072,-2.14981 -3.61318,-3.2993c-0.95598,-1.00587 -2.68876,-2.82911 -2.68876,-2.82911c0,0 3.33476,-0.31452 4.97548,-0.65343c1.54339,-0.31881 4.59468,-1.32345 4.59468,-1.32345c0,0 -1.3581,1.32202 -2.11834,1.86934c-0.73371,0.52822 -2.56999,1.35934 -2.56999,1.35934c0,0 1.59555,1.37713 2.57725,1.85955c0.49489,0.24319 1.50319,0.51121 2.31254,0.75048c1.33071,0.3934 2.47045,0.9068 2.47045,0.9068c0,0 -1.44572,1.04739 -2.17538,1.66972c-0.81565,0.69569 -2.8966,2.70426 -2.8966,2.70426c0,0 2.6836,-0.99405 3.63723,-1.14025c0.913,-0.13996 2.47698,-0.21325 2.47698,-0.21325c0,0 -2.49466,4.02971 -0.84576,6.98524c1.16373,2.08589 3.24025,5.98287 3.24025,5.98287z" fill="#4a5c6f" stroke="none" stroke-width="0"/></g><path d="M235.13115,213.32908l19.07529,-22.32163l23.28606,-8.58099c0,0 0.84438,16.03684 0.67129,20.46203c-0.07505,1.91864 -1.69112,5.61096 -1.69112,5.61096z" fill="#d396fc" stroke="none" stroke-width="0"/><path d="M252.92636,209.85308c0,0 3.78358,-3.60962 5.37314,-5.20159c0.98266,-0.98416 2.90322,-3.09293 3.63468,-3.871c0.21246,-0.226 0.08297,0.10419 -0.01516,0.39229c-0.20493,0.60166 -0.5232,1.60023 -0.53454,2.02941c-0.00552,0.20921 -0.07306,1.1073 -0.04198,1.35005c0.00939,0.07345 0.49452,0.11752 0.97381,0.03797c0.55491,-0.0921 1.21942,-0.64185 1.50143,-0.71729c0.55999,-0.14984 -2.05463,0.52526 -1.86142,0.45576c0.63161,-0.22717 1.65815,-0.62325 2.6091,-0.85239c0.34909,-0.08412 0.76809,-0.06798 1.03943,-0.1236c0.94509,-0.19371 3.22676,-0.50419 4.1863,-0.56296c0.38221,-0.02341 0.01858,0.23104 -0.21237,0.51767c-0.30604,0.37982 -0.76,0.95285 -1.21651,1.56422c-0.77361,1.03605 -2.01109,4.6144 -2.43124,4.78732c-2.55841,1.05294 -13.00466,0.19417 -13.00466,0.19417z" fill="#4a5c6f" stroke="#000000" stroke-width="1"/><path d="M232.37921,218.29973l6.57138,-8.89594c0,0 3.16404,-0.4638 6.01916,-0.78256c1.61272,-0.18006 4.88061,-0.41216 8.24301,-0.86329c2.77719,-0.37262 5.5012,-0.95174 8.45027,-1.26949c0.84548,-0.09109 1.68063,-0.26691 2.49722,-0.34771c3.4751,-0.3439 6.61391,-0.50487 8.78099,-0.66378c1.88208,-0.138 3.03125,-0.20663 3.03125,-0.20663l-1.11066,6.91907c0,0 -2.82489,0.601 -6.84144,1.1325c-2.84371,0.3763 -6.42323,0.58329 -9.40655,1.11351c-3.54707,0.63043 -4.54164,1.47277 -7.89631,2.04617c-0.67335,0.1151 -0.95969,0.58602 -1.5943,0.69294c-0.31019,0.05227 -0.98535,-0.256 -1.28444,-0.20604c-2.21641,0.37023 -4.11141,0.67416 -5.43882,0.86508c-3.45955,0.49759 -10.02075,0.46617 -10.02075,0.46617z" fill="#000000" stroke="none" stroke-width="0"/><g><path d="M273.73956,219.2713c0,0 0.38422,-2.74292 0.65312,-4.36584c0.37681,-2.27419 0.93066,-5.1241 1.19467,-7.76031c0.30268,-3.0224 0.2117,-5.76388 -0.00323,-7.03486c-0.12807,-0.75739 -0.18624,-1.72596 -0.42038,-2.76727c-0.41949,-1.86564 -1.1226,-3.96477 -1.80513,-5.50122c-1.99558,-4.49231 -4.58231,-7.28938 -4.58231,-7.28938c0,0 7.33124,-2.80137 11.34547,1.36077c0.65552,0.67968 1.46856,6.59279 1.3448,7.77874c-0.19415,1.86052 -0.50141,3.64213 -0.72463,5.05071c-0.64978,4.10042 -3.17386,11.75846 -5.03203,16.47416c-0.92375,2.34432 -1.97036,4.05449 -1.97036,4.05449z" fill="#2b263c" stroke="#000000" stroke-width="1.5"/><path d="M276.28481,199.8732c0,0 -0.74719,-5.16152 -1.95132,-7.58081c-0.60209,-1.20971 -1.62947,-3.55497 -2.70139,-5.27588c-0.55303,-0.88787 -1.37245,-1.72317 -1.89693,-2.46304c-1.30439,-1.84012 -2.10422,-3.08992 -2.10422,-3.08992l11.58091,-0.49421c0,0 0.99422,6.19744 1.46971,9.95406c0.18926,1.49517 0.06197,2.6037 0.04786,2.78092c-0.16703,2.09797 -0.49948,4.43915 -0.49948,4.43915c0,0 -1.33946,0.57311 -1.96003,0.89586c-0.56126,0.29192 -1.98511,0.83391 -1.98511,0.83391z" fill="#1b1f25" stroke="none" stroke-width="0"/></g><g><path d="M216.68567,236.80313c-0.01341,-0.45723 0.39714,-1.32597 0.675,-2.49662c0.37569,-1.58282 0.71957,-3.71758 1.423,-6.13333c1.23422,-4.23868 2.79174,-9.34244 4.0368,-13.84771c0.53306,-1.9289 0.69763,-4.97612 0.78148,-6.69584c0.19807,-4.06238 0.12341,-8.49774 0.12341,-8.49774l33.72461,-7.78395c0,0 -1.78935,2.1081 -4.44256,5.50468c-0.35145,0.44992 -3.36938,3.95993 -3.9377,4.40276c-0.37474,0.29199 1.68227,-2.49546 1.41531,-2.17014c-0.36742,0.44774 2.07804,-1.76975 1.92706,-1.26205c-0.11636,0.39131 -2.80838,3.50497 -3.13152,3.88354c-1.20642,1.41327 -2.64611,3.28785 -4.01518,4.8472c-2.28242,2.59964 -4.72226,5.35336 -7.09086,8.09802c-2.03932,2.36311 -4.20887,4.7195 -6.17929,6.96506c-1.8744,2.13611 -3.54054,4.38999 -5.33137,6.20598c-1.90285,1.92958 -3.91362,3.39663 -5.312,4.82166c-0.46699,0.47589 -1.92197,1.21551 -2.74455,2.04107c-1.26756,1.27217 -1.90809,2.57857 -1.92161,2.1174z" fill="#2b263c" stroke="#000000" stroke-width="1.5"/><path d="M217.36222,234.71565v-1.72977c0,0 0.42686,-0.2471 0.76358,-0.2471c0.44087,0 1.65441,0.2471 1.65441,0.2471v1.23554z" fill="#000000" stroke="none" stroke-width="0"/><path d="M223.5981,213.95846c0,0 0.51721,-4.67482 0.83364,-7.08125c0.16283,-1.23837 -0.06624,-3.15417 -0.09589,-5.03241c-0.04652,-2.94712 0.02582,-5.80177 0.02582,-5.80177l31.68841,-3.58308c0,0 -1.53771,1.5211 -3.56891,3.71426c-0.27913,0.30138 -0.4903,1.14978 -0.98085,1.51516c-0.6619,0.49299 -1.62356,0.88283 -1.97861,1.31439c-0.38919,0.47305 -0.49235,1.89626 -0.79966,2.26983c-2.68361,3.26225 -8.07074,9.47248 -8.07074,9.47248c0,0 -0.97833,0.95665 -2.71151,2.10271c-0.7379,0.48794 -1.5665,0.78548 -2.42926,1.34672c-0.87866,0.5716 -1.79277,1.40752 -2.6826,1.97112c-2.78157,1.76181 -5.32591,3.27744 -5.80905,3.25169c-0.5035,-0.02684 -3.42079,-5.45982 -3.42079,-5.45982z" fill="#1b1f25" stroke="none" stroke-width="0"/></g><path d="M257.43584,197.44317c0,0 4.40044,-2.08267 6.04389,-2.9256c1.2509,-0.6416 3.4745,-1.5299 3.4745,-1.5299c0,0 1.25753,0.76623 1.89965,0.82045c0.66047,0.05575 1.83971,0.00464 1.83971,0.00464c0,0 0.0892,1.29566 -0.2205,3.09968c-0.23747,1.38333 -1.30924,3.83112 -1.30924,3.83112z" fill="#ffc6ef" stroke="none" stroke-width="0"/><path d="M250.33482,214.52569c-0.16486,-0.27105 0.13443,-0.48493 0.19112,-1.03255c0.03761,-0.36328 0.18711,-0.78126 0.24595,-1.19239c0.09934,-0.69401 0.11157,-1.36851 0.13799,-1.72744c0.03248,-0.44143 0.00476,-1.13611 0.4387,-1.19816c0.45106,-0.06451 1.12338,-0.31027 2.51778,-0.50049c1.34876,-0.18401 2.96737,-0.10411 4.4506,-0.26807c1.00751,-0.11137 1.95256,-0.4387 2.70813,-0.57205c1.03316,-0.18234 1.71207,-0.15832 1.71207,-0.15832c0,0 -0.57032,1.11469 -0.74332,1.77354c-0.21771,0.82921 -0.45991,2.8092 -0.45991,2.8092c0,0 -1.21855,0.26967 -2.54744,0.64845c-0.99621,0.28394 -2.01387,0.66857 -2.84921,0.83075c-0.78102,0.15164 -2.00633,0.13963 -3.11351,0.2677c-0.35445,0.041 -0.78934,0.03139 -1.10113,0.10654c-0.32339,0.07795 -0.52135,0.24027 -0.75838,0.25778c-0.39726,0.02935 -0.66457,0.22657 -0.82944,-0.04448z" fill="#fead41" stroke="none" stroke-width="0"/></g><g><path d="M228.02377,207.42151c-0.57928,-0.56861 -1.23604,-1.23431 -2.10522,-2.15632c-3.70439,-3.92957 -9.6396,-10.70927 -13.38881,-15.82759c-3.29092,-4.49271 -8.00644,-12.53713 -12.20163,-19.24883c-2.10283,-3.36422 -4.66258,-6.11697 -6.05041,-8.19676c-0.54633,-0.81874 -0.93947,-1.62818 -1.20473,-2.11524c-0.31239,-0.57361 -0.62912,-0.83303 -0.16141,-1.42638c0.43527,-0.55219 1.77563,-1.86231 2.57323,-2.73008c2.49296,-2.7123 6.65492,-6.67411 11.85515,-10.1842c3.95132,-2.66708 8.5884,-5.19271 12.16922,-6.88647c3.4026,-1.60946 5.85151,-2.45444 5.85151,-2.45444c0,0 12.5336,11.78782 15.46803,19.53839c4.02385,10.62801 6.45591,38.36827 6.45591,38.36827c0,0 -5.789,6.41862 -8.83619,8.60126c-1.21875,0.87295 -2.63995,2.26135 -4.25292,3.28502c-1.22675,0.77856 -2.68502,1.23023 -3.54634,1.7597c-0.84848,0.52157 -1.81872,0.46319 -2.51414,-0.21941z" fill="#2b263c" stroke="#000000" stroke-width="2"/><path d="M230.26214,203.59046c-0.26842,-0.53906 2.35428,-1.23077 3.13904,-1.75708c0.99232,-0.66551 2.23372,-1.71135 3.00573,-2.38746c0.56728,-0.49683 1.12567,-1.46295 1.81597,-2.19456c0.95844,-1.01577 1.85147,-2.27196 1.85147,-2.27196l3.06799,1.15137c0,0 -2.35745,2.12876 -3.84635,2.99924c-0.89417,0.52278 -2.46655,1.3262 -3.8847,1.9953c-0.65099,0.30714 -1.26132,0.57609 -1.78379,0.86179c-0.96199,0.52605 -2.89385,2.55024 -3.36534,1.60335z" fill="#2b263c" stroke="#000000" stroke-width="1.5"/><path d="M228.42261,207.1341c-2.22923,-2.48483 -8.95704,-10.0216 -12.39988,-14.75415c-1.89139,-2.59992 -4.42202,-5.93335 -7.25019,-10.11435c-2.62882,-3.88627 -5.26975,-8.11324 -7.68655,-11.82182c-3.77183,-5.78783 -6.79268,-10.31336 -6.79268,-10.31336c0,0 1.11909,-1.04904 2.72936,-2.18588c1.92477,-1.3589 4.49,-2.90218 5.84876,-3.73281c1.77453,-1.08481 4.98364,-2.37186 4.98364,-2.37186c0,0 7.80253,10.6731 12.63881,17.26025c2.21645,3.01887 5.56681,7.57789 9.1568,12.46167c2.63868,3.58964 5.85429,6.21999 8.74766,8.07956c1.0777,0.69264 2.65202,1.31764 2.65202,1.31764l-1.45201,3.51225c0,0 -1.10262,1.80642 -1.90587,2.76643c-0.97898,1.17002 -2.50388,2.79991 -3.79915,3.78754c-0.30546,0.23293 -0.61406,0.46697 -0.90864,0.69109c-0.60645,0.46138 -1.02074,0.36611 -1.35869,0.64658c-0.24845,0.20621 -0.31679,0.72297 -0.27981,0.7408c0.1745,0.084 -0.20633,0.32636 0.87416,-0.09764c1.43706,-0.56392 3.58864,-1.44277 5.60225,-2.57756c1.97253,-1.11165 3.80306,-2.53974 5.41142,-3.65618c0.418,-0.29015 1.11047,-0.89914 1.11047,-0.89914c0,0 -5.29948,-1.66769 -5.08744,-1.9433c0.25748,-0.33468 -0.84822,-3.25968 1.03258,-3.29166c0.63364,-0.01077 5.9234,2.8062 5.9234,2.8062l1.11868,0.19825c0,0 -2.00174,3.11647 -4.11176,5.03402c-3.78959,3.44391 -10.81092,7.24138 -13.35162,8.56477c-0.59886,0.31193 -0.95013,0.44507 -1.44568,-0.10729z" fill="#1b1f25" stroke="none" stroke-width="0"/></g><text transform="translate(229.06747,108.51787) scale(0.07561,0.07561)" font-size="40" xml:space="preserve" fill="#000000" fill-rule="nonzero" stroke="none" stroke-width="1" stroke-linecap="butt" stroke-linejoin="miter" stroke-miterlimit="10" stroke-dasharray="" stroke-dashoffset="0" font-family="Sans Serif" font-weight="normal" text-anchor="start" style="mix-blend-mode: normal"><tspan x="0" dy="0">sus</tspan></text><path d="M237.96226,194.06495l-2.73346,-15.40587l27.30361,-5.39215l20.38037,10.40658c0,0 -8.34614,4.13829 -11.80146,5.65891c-2.35874,1.03803 -4.89476,1.99967 -7.57004,2.95915c-3.3137,1.18844 -6.59822,2.69432 -8.50897,3.24545c-2.82385,0.8145 -7.33696,2.28941 -10.40963,1.86911c-7.17209,-0.98105 -6.66041,-3.34117 -6.66041,-3.34117z" fill="#1b1f25" stroke="#000000" stroke-width="1.5"/><g><path d="M218.88066,155.12797c0,0 -0.04704,-2.30829 0.36488,-3.91771c0.82598,-3.22724 4.11187,-13.4148 4.11187,-13.4148l2.92996,-1.99529c0,0 12.89895,21.93422 13.36638,26.93267c0.4253,4.54816 -10.67621,1.83495 -10.67621,1.83495l1.781,-5.80149c0,0 -2.38456,-1.6252 -4.70096,-2.18502c-2.89253,-0.69905 -7.17692,-1.45332 -7.17692,-1.45332z" fill="#1b1f25" stroke="none" stroke-width="0"/><path d="M230.36923,153.81624c-2.81077,-0.66525 -5.63935,-1.46782 -6.38745,-1.64939c-0.36521,-0.08864 -0.34264,-0.62423 -0.26842,-1.46658c0.02981,-0.33835 0.07114,-0.73659 0.1284,-1.18818c0.18174,-1.43339 0.57315,-3.44534 0.89762,-5.44556c0.43442,-2.67804 0.73663,-5.63935 1.23073,-7.73688c0.25071,-1.06433 0.25932,-1.83574 0.45763,-2.39673c0.19268,-0.54509 1.43575,0.08272 1.55609,0.16451c2.15043,1.46159 6.72021,5.41122 12.59892,13.71565c3.54033,5.00115 9.71886,15.55168 9.71886,15.55168c0,0 -0.08543,7.82185 -0.86198,8.89533c-1.83687,2.53926 -13.37262,-2.80155 -16.38233,-4.32632c-0.47332,-0.23979 -0.32194,-0.76106 -0.17742,-1.23841c0.07471,-0.24677 0.16529,-0.54596 0.26813,-0.88573c0.08439,-0.27878 1.52502,-0.97255 1.62398,-1.2995c0.1308,-0.4321 -1.46269,0.99704 -1.31445,0.50726c0.9424,-3.11376 2.53268,-8.59974 2.82604,-9.57572c0.1419,-0.47205 0.07962,-0.51363 -0.40678,-0.59365c0,0 -3.48302,-0.55263 -5.50755,-1.03179z" fill="#2b263c" stroke="#000000" stroke-width="2"/><path d="M233.954,166.54634c0.07889,-0.24392 0.97582,-1.27331 1.07938,-1.60827c0.12685,-0.41035 -0.27723,-1.11623 -0.12227,-1.61947c0.27204,-0.88348 0.32291,-0.90256 0.63986,-1.86767c0.95778,-2.9163 1.81592,-6.43253 1.64911,-6.9971c-0.11963,-0.40482 -12.87601,-2.69186 -12.8406,-3.06547c0.27874,-2.94208 1.21308,-7.67969 1.80981,-11.18254c0.52867,-3.10323 0.75758,-5.60365 0.75758,-5.60365l1.41256,0.92061c0,0 0.44112,11.17771 0.55902,12.95792c0.02964,0.4474 0.0577,0.94529 0.43456,1.07723c1.14122,0.39945 8.10543,2.67093 10.65262,3.56393c0.69256,0.24278 0.49692,0.52983 0.37039,0.97537c-0.64994,2.28898 -2.64012,9.36711 -2.5882,10.0313c0.07178,0.91826 11.35114,2.9284 11.35114,2.9284c0,0 0.624,4.84161 -0.75113,5.15537c-0.42392,0.09673 -3.04791,-0.242 -5.66511,-1.09463c-3.50193,-1.14081 -7.26415,-2.95323 -8.34107,-3.49054c-0.43887,-0.21897 -0.59885,-0.48969 -0.40766,-1.08083z" fill="#1b1f25" stroke="none" stroke-width="0"/><path d="M227.86224,165.1474c-0.19695,-0.23551 0.82042,-1.81499 0.96621,-2.07437c0.56213,-1.00014 1.64192,-3.37951 2.3981,-4.69724c0.36094,-0.62896 0.72263,-0.93777 0.77971,-0.8858c0.36221,0.32978 -2.06133,6.15326 -1.99711,6.42601c0.03763,0.15975 0.827,0.14528 1.64888,0.18873c0.92533,0.04893 1.8928,0.14514 1.8928,0.14514l-0.7762,2.12743c0,0 -4.70068,-0.97673 -4.91241,-1.2299z" fill="#000000" stroke="none" stroke-width="0"/></g><g><path d="M265.35772,172.25067c0,0 1.56036,-4.06555 2.35637,-6.01845c0.54405,-1.33477 1.36604,-2.90698 1.85019,-4.08082c0.21616,-0.52407 0.34558,-1.14618 0.44279,-1.38126c0.14876,-0.35973 -0.55549,-1.22767 0.11379,-2.25029c0.16269,-0.24858 0.77983,-0.92428 1.7099,-1.64114c1.23008,-0.94809 2.56438,-2.0402 3.07444,-2.11496c1.12954,-0.16555 2.63508,-0.15041 3.70584,0.2367c0.79526,0.28751 1.34355,1.11505 1.34355,1.11505c0,0 2.05168,-0.22117 2.73032,-0.18857c0.09534,0.00458 1.57084,-0.22061 2.36499,2.04821c0.1771,0.50595 0.9932,1.4109 1.93731,2.15919c1.06538,0.84442 2.19303,1.61934 2.40987,2.35171c0.08941,0.30197 0.33199,0.64137 0.2782,1.1218c-0.11006,0.98282 -0.96353,2.16819 -0.96353,2.16819c0,0 0.6207,0.1713 0.81006,0.60307c0.09638,0.21976 0.10373,0.50747 0.13853,0.88035c0.03834,0.4108 0.17401,2.58864 -0.74399,2.76598c-1.02729,0.19844 -5.37913,-0.26639 -5.68155,-0.04644c-0.15906,0.11568 -1.82051,3.711 -2.60429,4.5459c-2.07251,2.20768 -4.00949,3.09183 -4.00949,3.09183z" fill="#d396fc" stroke="#000000" stroke-width="1.5"/><path d="M288.51964,166.24723c0,0 -0.74592,0.59232 -1.56531,1.11671c-0.52604,0.33665 -1.03811,0.69146 -1.54866,0.6911c-1.11288,-0.00079 -2.23551,-1.7524 -2.95358,-1.76788c-0.9868,-0.02128 -2.04815,1.45028 -2.87889,1.32525c-0.90497,-0.13621 -1.5642,-2.0101 -1.84868,-2.25293c-0.12565,-0.10727 1.50328,-1.75989 3.48471,-2.02626c1.9855,-0.26691 4.63274,0.78204 4.48781,0.65016c-0.89533,-0.81469 -1.94783,-2.54325 -3.14048,-3.11307c-0.64067,-0.3061 -1.62852,0.33376 -2.68477,0.64707c-0.57161,0.16956 -1.22418,0.11085 -1.51545,-0.0372c-0.18817,-0.09564 -0.38822,-0.63314 -0.64163,-1.02589c-0.17924,-0.27779 -0.42443,-0.44556 -0.53757,-0.49954c-0.88754,-0.42345 -1.57827,0.13606 -1.67567,0.08817c-1.88414,-0.92626 -3.65384,-2.15259 -3.65384,-2.15259c0,0 2.72898,-2.49935 3.15729,-2.57108c0.32818,-0.05495 1.66503,-0.24659 2.55803,0.14843c0.77329,0.34206 1.11431,1.2759 1.39154,1.2687c0.59731,-0.01551 0.91035,0.09334 1.54345,0.03835c0.20975,-0.01822 0.69489,-0.03952 1.17754,-0.08124c0.50754,-0.04386 1.0203,-0.10198 1.54076,0.14524c0.32536,0.15455 0.46512,0.59458 0.72604,0.92851c0.29512,0.37769 0.62286,0.73695 0.81544,1.09733c0.18829,0.35236 1.4463,1.49938 1.66064,1.84089c0.16829,0.26814 0.40453,0.33003 0.66105,0.52159c0.69855,0.52168 1.56842,1.0182 1.78533,1.75379c0.2027,0.68737 -0.14725,1.35906 -0.25225,1.97015c-0.12067,0.70237 -0.09289,1.29623 -0.09289,1.29623z" fill="#ffc6ef" stroke="none" stroke-width="0"/><path d="M272.13554,162.43599c-0.16433,-0.12765 -0.02774,-0.40123 0.01714,-0.85789c0.02927,-0.2977 0.112,-0.40772 0.27619,-0.75644c0.19895,-0.42254 0.56041,-0.94374 0.88345,-1.41301c0.25377,-0.36864 0.38175,-0.90879 0.66373,-1.30621c0.35572,-0.50133 0.46628,-1.64938 0.91022,-1.99393c0.61034,-0.47369 1.10147,-0.17508 1.84112,-0.26762c0.37106,-0.04643 1.0626,-0.30447 1.43234,-0.32894c0.41267,-0.02731 -0.33806,-1.20465 -0.00571,-1.18894c0.21501,0.01016 0.89716,0.04489 1.58878,0.27167c0.69606,0.22823 1.40175,0.649 1.66375,0.81183c0.56392,0.35046 -0.66398,0.28813 -0.66398,0.28813c0,0 -0.11858,0.78023 -0.32608,1.18768c-0.13332,0.26178 -0.24993,0.56969 -0.24993,0.56969c0,0 0.27705,0.10215 1.38905,-0.01887c0.30354,-0.03303 0.69154,0.06319 0.99916,0.00623c0.52656,-0.0975 0.95972,-0.34383 1.35863,-0.28549c1.33362,0.19507 1.06751,1.40205 0.88159,1.60416c-0.09512,0.10341 -3.00889,0.51315 -4.33368,0.57206c-1.91788,0.08528 -2.45288,-0.18462 -2.56931,-0.00512c-0.16843,0.25965 -0.40225,0.4771 -0.56713,0.7904c-0.30835,0.58595 -0.63878,1.23242 -1.09709,1.81487c-0.59654,0.75811 -1.26447,1.36765 -1.71851,2.06055c-0.72282,1.10304 -0.53033,2.21984 -0.68681,2.19743c-0.05425,-0.00777 -0.44348,-0.39718 -0.5652,-1.02436c-0.05629,-0.29002 -0.11454,-0.69264 0.05024,-1.02098c0.4173,-0.83152 0.98096,-1.92416 1.55908,-2.99079c0.64909,-1.19756 1.31641,-2.36234 1.8153,-3.08796c0.40195,-0.58462 0.93963,-0.56414 0.87021,-0.5687c-0.41034,-0.02692 -0.8395,-0.02961 -1.22405,0.01858c-0.30488,0.03821 -0.56821,0.11322 -0.75184,0.24067c-0.0878,0.06092 -0.35024,0.31376 -0.59626,0.77551c-0.47499,0.89152 -1.094,2.34759 -1.71559,3.20293c-0.58759,0.80857 -0.99609,0.80596 -1.12881,0.70286z" fill="#000000" stroke="none" stroke-width="0"/><path d="M275.30963,169.44348c0.02539,-0.22715 0.14847,-0.44403 0.23745,-0.79623c0.05758,-0.22792 0.13401,-0.55651 0.23111,-0.82889c0.12572,-0.35262 0.20251,-0.81867 0.386,-1.23444c0.26068,-0.59066 0.17984,-1.94705 0.68628,-2.45028c0.7323,-0.72767 3.27259,-1.60969 4.21103,-1.73836c0.36425,-0.04994 0.75405,0.08341 1.15215,0.09161c0.72531,0.01492 1.47052,-0.02889 2.08497,0.17104c0.69581,0.2264 1.21543,0.62299 1.74679,0.95737c0.52889,0.33283 1.07013,0.60332 1.49704,0.88131c0.71738,0.46712 1.23082,0.67888 1.23082,0.67888c0,0 0.97939,1.20646 1.25136,2.5073c0.16186,0.77419 0.06384,1.4181 0.07531,1.51812c0.00693,0.06045 0.0563,1.47986 -0.70245,1.69935c-0.46748,0.13523 -4.49519,0.27639 -6.21579,-0.1045c-0.82089,-0.18172 -0.0967,-0.93596 -0.1181,-1.0177c-0.06158,-0.23534 3.46701,-0.01137 5.34662,-0.30143c0.88444,-0.13648 0.93112,-0.69636 0.93485,-0.90293c0.01617,-0.89448 -0.37711,-1.70138 -0.37711,-1.70138c0,0 -1.60122,-0.52558 -3.02846,-1.26062c-1.0919,-0.56234 -2.02833,-1.30614 -2.72326,-1.57527c-0.27631,-0.10701 -0.45109,-0.07285 -0.67891,-0.02323c-0.13439,0.02928 -0.52226,-0.07406 -0.8214,-0.00195c-0.66445,0.16016 -1.54122,0.90054 -2.34328,1.19665c-0.57528,0.21238 -0.99418,0.12846 -1.26817,0.32389c-0.10224,0.07291 -0.33502,1.43999 -1.01475,2.49947c-0.46542,0.72543 -1.04108,1.32392 -1.44306,1.65438c-0.21859,0.1797 -0.37462,0.09396 -0.33705,-0.24217z" fill="#000000" stroke="none" stroke-width="0"/></g><g><path d="M261.18998,181.93376l-2.89662,-15.63177c0,0 1.8653,-0.19746 3.8796,0.49739c2.45298,0.84617 5.30384,2.63266 8.53193,3.92463c0.92592,0.37058 1.91036,0.77498 2.77075,1.17266c1.85022,0.85519 3.48236,1.76384 4.62416,2.21563c0.53909,0.2133 1.6581,0.5846 1.94848,0.58954c1.01202,0.01722 2.41609,-0.40018 5.25794,-0.888c0.71291,-0.12237 5.13513,3.30824 5.90392,3.05068c0.85695,-0.2871 3.6609,-4.5519 4.03566,-4.8865c1.97928,-1.76728 -0.92094,-4.00756 -0.34731,-3.81868c3.46417,1.14072 8.88552,3.31671 11.68632,4.79326c2.5073,1.32182 3.41675,2.02249 2.71278,3.6857c-1.06219,2.50956 -2.07472,3.87428 -2.83776,4.87715c-2.14138,2.81432 -5.57001,6.15066 -8.36601,8.80791c-1.01802,0.9675 -2.41309,2.39985 -3.59896,3.59177c-0.60735,0.61045 -1.0697,1.24995 -1.58544,1.54047c-1.04729,0.58998 -1.20971,0.23733 -2.16868,-0.04941c-1.49077,-0.44575 -3.41042,-1.91062 -5.34087,-2.68916c-5.88847,-2.37478 -13.006,-5.43703 -18.03777,-7.70931c-3.57433,-1.61413 -6.17212,-3.07398 -6.17212,-3.07398z" fill="#2b263c" stroke="#000000" stroke-width="2"/><path d="M279.44737,180.02331l-2.01609,-4.18629c0,0 6.0793,-1.72244 8.96572,-2.54298c0.61938,-0.17607 1.31048,0.82831 3.00588,0.09944c1.72209,-0.74034 2.1786,-3.85213 2.1786,-3.85213c0,0 0.40287,-2.12391 1.36799,-2.3085c0.27388,-0.05239 2.01524,1.68083 2.28262,1.82105c2.11035,1.10691 4.91527,1.92278 4.91527,1.92278l0.16874,9.61747z" fill="#2b263c" stroke="none" stroke-width="0"/><path d="M262.02878,181.60309l-1.78485,-7.45124c0,0 4.62461,1.45441 6.97856,2.54515c2.35046,1.08913 5.30172,2.49972 8.21263,3.80164c2.64744,1.18409 5.26008,2.18183 6.88354,2.92251c3.59124,1.63843 8.98057,4.27416 8.98057,4.27416c0,0 2.75486,-2.06076 5.51007,-3.97693c1.30789,-0.90959 2.58833,-1.81474 3.52057,-2.50625c1.38047,-1.02399 3.21172,-2.46833 4.82508,-3.77296c0.06811,-0.05507 0.65819,-0.07339 1.31398,-0.48724c0.84776,-0.53498 1.79815,-1.48651 1.79815,-1.48651c0,0 1.38871,0.01561 -0.93671,3.32454c-1.1504,1.63695 -3.32492,4.44923 -5.80188,7.06407c-2.17768,2.29892 -4.61604,4.38934 -6.42626,6.16557c-1.91906,1.88302 -3.26278,3.04465 -3.26278,3.04465c0,0 -0.75072,-0.57951 -1.62807,-0.96928c-1.6144,-0.71723 -7.32346,-3.28975 -13.15165,-5.8949c-1.09401,-0.489 -2.32146,-0.8612 -3.39756,-1.34044c-1.28211,-0.57101 -2.40357,-1.24448 -3.57848,-1.76414c-1.51527,-0.67019 -2.90446,-1.28073 -4.07206,-1.78788c-2.18998,-0.95119 -3.98289,-1.70458 -3.98289,-1.70458z" fill="#1b1f25" stroke="none" stroke-width="0"/><path d="M248.5866,175.96867l-5.74595,-4.71826c0,0 -1.0675,-4.39196 -1.29378,-5.0168c-0.07603,-0.20996 -0.71333,-2.78531 -0.37151,-3.19202c0.58048,-0.69068 2.17108,-1.50496 4.8918,-1.53018c5.69676,-0.0528 9.79257,1.4216 9.79257,1.4216c0,0 2.93613,2.83847 4.86185,6.25713c0.35922,0.63772 0.94096,1.47772 1.24309,2.25143c0.12004,0.30743 0.14118,0.66586 0.21065,0.9044c0.30181,1.03602 0.64989,2.3149 0.77157,3.6197c0.32254,3.45863 -0.01328,7.12489 -0.01328,7.12489z" fill="#afcad3" stroke="#000000" stroke-width="1.5"/><path d="M250.50298,161.94768c0.98848,-0.20742 2.98526,-0.34732 4.85874,0.9138c1.37014,0.92229 2.38084,2.22601 3.49949,3.93112c0.64164,0.97802 1.49288,2.49174 0.94959,3.85202c-0.49049,1.22808 -1.91007,2.10682 -2.85973,1.6494c-0.86862,-0.41838 -2.72771,-1.99065 -3.92183,-3.00931c-0.55317,-0.4719 -0.77404,-2.21621 -1.32608,-2.6848c-0.71329,-0.60543 -1.37066,-0.99735 -1.92799,-1.25094c-1.08627,-0.49424 -1.79262,-0.46307 -1.79262,-0.46307c0,0 0.94515,-2.60769 2.52045,-2.93822z" fill="#afcad3" stroke="#000000" stroke-width="2"/><path d="M248.91087,164.91127c0,0 0.80135,-1.47971 1.6982,-2.00037c0.41835,-0.24287 1.54381,-0.30366 1.54381,-0.30366l6.513,4.96355c0,0 2.16791,2.04551 0.07678,3.6128c-1.44398,1.08225 -2.71274,-0.70754 -3.36502,-1.22433c-1.80053,-1.4265 -4.10135,-3.99055 -4.74374,-4.4704c-0.48166,-0.35979 -1.72299,-0.5776 -1.72299,-0.5776z" fill="#afcad3" stroke="none" stroke-width="0"/><path d="M257.35119,169.25621c-0.83341,-0.15678 -1.73284,-0.80341 -3.06838,-2.12047c-1.0896,-1.0745 -2.22619,-1.93746 -2.70492,-2.74449c-0.22689,-0.38252 -0.59536,-1.21901 0.0722,-1.83924c0.48155,-0.44742 1.71851,-0.21392 2.27264,-0.01034c1.23173,0.4525 2.72988,1.3454 3.64583,2.24868c1.55262,1.53112 2.03573,2.29969 1.834,3.07708c-0.08192,0.31571 -0.14943,0.6988 -0.50223,1.03245c0,0 -1.02022,0.45585 -1.54915,0.35633z" fill="#ffffff" stroke="#000000" stroke-width="1"/></g><g><g><path d="M235.32911,180.78849c1.25739,6.2631 -3.40791,13.29759 -10.05006,14.63107c-1.84362,0.37012 -3.74794,0.58607 -5.2622,0.11739c-2.10534,-0.65164 -3.91443,-2.14265 -5.22607,-4.11952c-0.63099,-0.95101 -1.10672,-2.07478 -1.52086,-3.15754c-0.33659,-0.87998 -0.47097,-1.82916 -0.66068,-2.77415c-1.25739,-6.2631 1.56438,-13.33549 8.20656,-14.66895c2.02309,-0.40615 3.91354,-0.79121 5.76837,-0.14136c2.02814,0.71055 3.9906,2.54335 5.46923,4.10909c1.60886,1.70364 2.82011,3.73438 3.27575,6.00397z" fill="#000000" stroke="#000000" stroke-width="1.5"/><path d="M234.26921,179.57335c0.91676,4.56648 -2.36504,6.76452 -8.23108,7.94219c-5.86604,1.17766 -11.69974,-0.14228 -12.61651,-4.70878c-0.46173,-2.29986 0.28042,-4.79913 1.79686,-6.91959c1.49451,-2.0898 3.73863,-3.81327 6.65028,-4.39781c5.86604,-1.17766 11.48369,3.51751 12.40046,8.084z" fill="#485e84" stroke="none" stroke-width="0"/><path d="M227.71824,187.58621c0.87692,4.36795 -0.03404,5.85456 -3.80636,6.6119c-0.51338,0.10307 -1.45262,0.29698 -2.5613,-0.11732c-1.13359,-0.42363 -2.44707,-1.23397 -3.60774,-2.0677c-1.07522,-0.77237 -1.94742,-1.56958 -2.53931,-2.30935c-0.65762,-0.82195 -0.94565,-1.46853 -1.163,-2.08827c-0.17522,-0.49963 -0.39904,-0.96281 -0.4746,-1.53836c-0.22057,-1.6805 -0.17888,-3.59513 -0.17888,-3.59513c0,0 1.9656,0.30417 3.57865,-0.07427c0.93745,-0.21993 2.32124,-1.42446 2.32124,-1.42446c0,0 7.55439,2.23502 8.43129,6.60297z" fill="#343545" stroke="none" stroke-width="0"/><path d="M220.60855,173.51025c-0.73389,0.14734 -1.18485,0.14715 -1.51714,-0.00938c-0.23978,-0.11295 -0.44909,-0.30102 -0.50986,-0.60363c-0.14495,-0.72197 2.82881,-1.31334 2.90911,-1.32452c0.34088,-0.04743 0.69435,1.14477 0.31431,1.51436c-0.24512,0.23838 -0.84614,0.35287 -1.19645,0.4232z" fill="#8fbbbe" stroke="none" stroke-width="0"/><path d="M217.724,174.5302c0.0605,0.12748 -0.03168,0.26072 -0.1154,0.44456c-0.09103,0.19992 -0.18639,0.45009 -0.43764,0.56935c-0.4823,0.22889 -0.77493,0.15843 -0.90121,-0.10769c-0.12629,-0.2661 0.05412,-0.50481 0.53643,-0.73371c0.4823,-0.22889 0.79154,-0.43861 0.91783,-0.1725z" fill="#8fbbbe" stroke="none" stroke-width="0"/><path d="M218.88068,193.06385l-2.8734,-2.33729c0,0 -0.75143,-1.49891 -1.10093,-3.71272c-0.03273,-0.20732 -1.16741,-1.24204 -1.54117,-2.05046c-0.44589,-0.96443 -0.14094,-1.7251 -0.15611,-2.00153c-0.01294,-0.23593 1.52273,2.12753 1.52241,1.8822c-0.00148,-1.10779 0.13584,-2.30439 0.50406,-3.52725c0.12531,-0.41617 0.25726,-0.88704 0.41003,-1.37564c0.05692,-0.18205 -0.79183,-0.98244 -1.16121,-1.64291c-0.34787,-0.62199 -0.21826,-1.10569 -0.15147,-1.27938c0.04057,-0.10551 0.61842,0.5781 1.14031,0.99918c0.36867,0.29745 0.73041,0.38668 0.76277,0.31386c0.21095,-0.4748 0.45684,-0.92799 0.75111,-1.32451c0.38961,-0.52498 0.71067,-0.62522 1.11836,-1.05953c0.15798,-0.16827 0.35633,-0.50424 0.51469,-0.68724c0.04997,-0.05774 -0.38532,-0.43742 -0.73271,-0.89807c-0.47177,-0.62559 -0.77366,-1.47497 -0.70376,-1.55118c0.0631,-0.06881 0.59832,0.43154 1.12465,0.86849c0.53634,0.44525 1.064,0.82735 1.13186,0.76516c0.12064,-0.11056 0.24477,-0.21242 0.37358,-0.3013c1.22056,-0.8423 2.61774,-1.39774 3.40973,-1.49452c0.24345,-0.02976 0.48302,-0.05558 0.71767,-0.07769c0.37164,-0.03503 -1.74005,-0.89443 -1.92568,-1.50214c-0.13705,-0.44867 1.61696,-0.69705 1.84984,-0.70118c0.11067,-0.00196 1.02082,1.04002 1.68273,1.66173c0.31758,0.29828 0.62111,0.43511 0.67053,0.43545c0.68612,0.00484 1.26506,0.11874 1.65343,0.18951c1.35636,0.24715 3.53282,2.23103 3.53282,2.23103c0,0 -1.15776,-0.78291 -2.89235,-1.28558c-0.55562,-0.16101 -1.27008,-0.33516 -1.95426,-0.38445c-0.19853,-0.01431 0.42936,1.01058 0.41113,1.40996c-0.01567,0.34331 -0.26705,0.27712 -0.43929,0.29285c-0.22567,0.0206 -1.52466,-1.63212 -1.77358,-1.6028c-0.54364,0.06402 -1.1054,0.17467 -1.67765,0.3414c-0.43503,0.12677 -1.46728,0.60689 -2.37847,1.22951c-0.16386,0.11198 -0.32697,0.22448 -0.48632,0.3348c-0.05851,0.04053 0.30175,0.28465 0.40098,0.66419c0.10512,0.40204 -0.05016,0.94055 -0.10923,0.9816c-0.14541,0.10103 -0.43628,-0.37458 -0.7428,-0.6631c-0.25406,-0.23914 -0.53198,-0.30153 -0.62825,-0.23599c-0.22905,0.15593 -0.57163,0.2382 -0.69909,0.31252c-0.26998,0.15743 -0.29603,0.83636 -0.52536,1.04198c-0.3969,0.35588 -0.65371,0.85358 -0.92164,1.45537c-0.03595,0.08074 0.41356,0.56309 0.87735,0.8606c0.5967,0.38278 1.24468,0.59729 1.20449,0.70962c-0.06622,0.18513 -0.79873,0.38796 -1.46977,0.31938c-0.58781,-0.06008 -1.12526,-0.39685 -1.16931,-0.22078c-0.5575,2.22882 -0.62166,4.80241 -0.54174,5.65273c0.00283,0.03012 0.29468,0.36884 0.54432,0.46563c0.51695,0.20043 1.26809,0.23834 1.80731,0.48278c0.63517,0.28795 0.54253,0.4108 0.68353,0.77339c0.0574,0.14764 -2.37511,0.2184 -2.31098,0.37486c0.06896,0.16819 -0.06855,0.38256 0.00706,0.55639c0.09243,0.21248 0.16904,0.88742 0.35141,1.3019c0.34877,0.79275 1.07165,1.40995 1.25836,1.80808c0.01181,0.0252 0.99034,0.21843 1.8567,0.26658c0.72576,0.04034 1.36442,-0.06293 1.37099,-0.04905c0.02916,0.06142 -0.46064,0.72816 -0.98785,0.79668c-0.6721,0.08736 -1.58986,0.18687 -1.58986,0.18687z" fill="#000000" stroke="none" stroke-width="0"/><path d="M238.38346,182.79319c0.95663,4.76502 -2.42333,9.4621 -7.54934,10.49119c-2.0343,0.40842 -4.02466,1.24111 -5.79344,0.74252c-2.68815,-0.75774 -5.03461,-3.53448 -5.6116,-6.40846c-0.30457,-1.5171 0.01466,-3.51292 0.28829,-5.42356c0.20819,-1.45369 0.22542,-2.89201 0.80573,-3.86596c0.40609,-0.68158 1.09114,-1.22495 1.71945,-1.71276c1.00021,-0.77654 2.3313,-1.25008 3.71459,-1.52778c1.73071,-0.34745 3.58711,-0.19053 5.34125,0.43979c3.44123,1.23656 6.45145,4.10882 7.0851,7.26503z" fill="#000000" stroke="#000000" stroke-width="2"/><path d="M234.82085,182.99845c0.81531,4.0611 -2.25488,8.10234 -6.85747,9.02635c-2.60392,0.52276 -3.33597,1.51666 -5.05644,0.29705c-1.9343,-1.37119 -2.79189,-5.01244 -3.14594,-6.77598c-0.81531,-4.0611 2.50247,-9.23999 7.10505,-10.16401c4.60259,-0.92401 7.1395,3.55547 7.9548,7.61657z" fill="#485e84" stroke="none" stroke-width="0"/><path d="M224.49566,178.98561c0,0 -1.72111,-0.16019 -2.30422,-0.53827c-0.49771,-0.32271 1.89717,-1.8279 1.89717,-1.8279l2.07998,1.55433z" fill="#8fbbbe" stroke="none" stroke-width="0"/><path d="M236.39557,182.03631c0.66674,3.3211 -2.30441,6.71835 -6.63626,7.58802c-4.33185,0.86967 -6.95841,-0.45186 -7.62514,-3.77292c-0.46272,-2.3048 0.49544,-5.16677 2.52503,-7.02518c0.89493,-0.81944 1.93495,-1.48587 3.26053,-1.75199c4.33185,-0.86967 7.80912,1.641 8.47585,4.96208z" fill="#485e84" stroke="#000000" stroke-width="2"/></g><g><path d="M228.36545,196.56786c0,0 -1.32048,0.14926 -2.42181,-0.1908c-1.83086,-0.56534 -2.24987,-2.31044 -2.2017,-4.28651c0.01564,-0.64158 1.19471,-1.07286 1.17809,-1.70938c-0.04998,-1.917 -2.09416,-2.8044 -1.30252,-4.76051c0.20046,-0.49531 0.67255,-0.64853 1.00033,-1.07434c0.59209,-0.76918 1.7333,-1.2512 2.52787,-1.91777c1.08141,-0.90717 1.7916,-2.25069 2.64864,-3.31763c1.46533,-1.8242 2.59333,-3.78654 3.62439,-5.48913c1.83543,-3.03082 3.08009,-5.42743 3.35303,-6.10179c0.15527,-0.38369 0.93295,-0.81349 1.45794,-0.95138c1.52116,-0.39957 4.57717,-1.31703 5.46201,-1.54948c0.46568,-0.12234 1.281,0.05787 1.74942,0.43487c0.47917,0.38563 1.23495,0.82125 1.97953,1.53483c0.60387,0.5787 1.30883,1.12959 1.89295,1.83793c1.18304,1.43461 2.14057,3.1094 2.64979,4.12839c0.84311,1.68714 1.8474,4.78634 -0.14135,7.16482c-1.31867,1.57708 -2.79547,2.48673 -3.3875,4.56647c-0.78955,2.77353 1.02108,7.33403 1.02108,7.33403c0,0 0.91336,1.56197 0.38274,3.5026c-0.14188,0.51884 -0.26549,1.14559 -0.68252,1.6802c-0.49877,0.63936 -1.87569,2.39212 -2.85235,2.8856c-0.67643,0.34179 -1.35798,-0.16179 -1.82726,-0.11034c-1.01363,0.11115 -1.43088,0.2851 -2.14245,0.41498c-0.70103,0.12794 -0.98053,-0.14713 -1.32719,-0.48029c-0.55469,-0.53305 -0.94146,-1.28308 -0.94146,-1.28308c0,0 -0.46448,0.56129 -1.03467,0.99122c-0.34186,0.25775 -0.81383,0.44321 -0.98899,0.50227c-0.45925,0.15484 -0.99701,0.11296 -1.43674,0.03187c-1.69019,-0.31165 -3.01302,-1.9219 -3.01302,-1.9219c0,0 -0.9327,0.42061 -1.80958,0.59129c-0.49723,0.09678 -1.00619,-0.0346 -1.24319,-0.00127c-1.44445,0.20326 -2.17346,-2.45579 -2.17346,-2.45579z" fill="#ffc6ef" stroke="#000000" stroke-width="1.5"/><path d="M223.86484,192.43964c0,0 3.53358,-1.02238 4.21934,-2.47796c0.11219,-0.2381 0.3112,0.82109 1.2061,0.66074c1.943,-0.34812 3.40223,-1.11027 3.4021,-1.14453c-0.00114,-0.32774 -1.3925,-1.72917 -1.51938,-2.03047c-0.134,-0.31821 -2.68179,0.26692 -2.83344,-0.01847c-0.20356,-0.38309 -0.4231,-0.72961 -0.65899,-1.02076c-0.6725,-0.82994 -2.0055,0.39793 -2.84564,0.68907c-0.50588,0.17529 -0.75841,-0.48081 -0.79116,-0.74226c-0.07907,-0.63138 4.7554,-4.56153 4.7554,-4.56153c0,0 0.78487,0.57985 1.67107,0.33074c0.41278,-0.11604 0.99301,-0.49802 1.46056,-0.99791c0.40957,-0.43789 0.69334,-0.99241 0.94735,-1.37477c0.23617,-0.35552 0.45725,-0.55512 0.45725,-0.55512c0,0 -0.65333,1.48477 -0.99267,2.39202c-0.42624,1.13966 -1.36403,3.90912 -1.36403,3.90912l0.11234,1.19008c0,0 1.99132,-0.08347 2.54512,-0.4612c0.29932,-0.20416 0.96977,-0.81206 1.52804,-1.44588c0.30598,-0.34739 0.70907,-0.34374 1.03361,-0.74501c0.51751,-0.63985 0.93094,-1.39771 1.34305,-2.02862c0.68126,-1.04295 1.22291,-1.82949 1.22291,-1.82949c0,0 -0.15078,0.65093 -0.33586,1.23664c-0.31569,0.99915 -1.63495,3.31038 -1.63495,3.31038c0,0 0.42651,2.88483 1.01303,3.103c0.34308,0.12764 0.74949,0.09531 1.11171,0.07024c0.51438,-0.0356 1.0713,-0.08407 1.60969,-0.37741c0.40035,-0.21815 0.96491,-0.57293 1.20956,-1.02637c0.57354,-1.06301 0.42727,-2.5708 1.34027,-3.75453c0.67133,-0.87039 1.36807,-1.44266 2.15508,-1.85109c1.30721,-0.6784 2.72547,-0.99674 3.67577,-2.15382c1.32947,-1.61869 1.98037,-5.79542 1.98037,-5.79542c0,0 0.3335,0.42245 0.76986,1.47792c0.26924,0.65127 0.71923,1.79674 0.49768,3.33402c-0.05324,0.36933 -0.20502,0.89357 -0.51383,1.41071c-0.24813,0.41556 -0.62545,0.808 -0.92385,1.25198c-0.28081,0.41781 -0.91991,0.78296 -0.98776,1.17454c-0.38556,2.22531 -0.32052,7.51598 -0.76026,9.42794c-0.07528,0.32729 0.40905,3.11695 0.41661,3.884c0.00624,0.63401 -0.39054,0.99148 -0.59473,1.52196c-0.58798,1.52747 -1.89976,2.53129 -2.7962,3.14008c-0.64575,0.43854 -0.70624,-0.19037 -1.24602,-0.15584c-1.02232,0.06539 -2.19399,0.27221 -2.64184,0.50729c-0.45302,0.23781 -0.79657,-0.61642 -1.20155,-1.10252c-0.24415,-0.29304 -0.56177,-0.49145 -0.84246,-0.36456c-0.78616,0.35541 -1.46171,0.92956 -2.25408,1.21475c-0.72702,0.26166 -1.63655,-0.21562 -2.10318,-0.49715c-0.88307,-0.53276 -1.37204,-1.45031 -1.8918,-1.28377c-1.10008,0.35246 -2.08031,0.97613 -3.03812,1.19641c-0.76124,0.17507 -1.87086,-2.7178 -2.49613,-2.59217c-1.08382,0.21777 -2.35926,-0.09442 -2.86813,-0.04828c-1.08217,0.09814 -1.5478,-3.99669 -1.5478,-3.99669z" fill="#d396fc" stroke="none" stroke-width="0"/><path d="M232.45833,180.02309c-0.08845,-0.06858 -0.19568,-0.25288 -0.14515,-0.42113c0.04838,-0.16108 0.2479,-0.30312 0.45876,-0.50661c0.45636,-0.44043 1.39303,-0.88449 2.14062,-1.65081c0.17633,-0.18073 0.37921,-0.7105 0.64781,-1.16154c0.24221,-0.40671 0.48714,-0.72651 0.6222,-0.85306c0.55014,-0.51561 1.02404,-0.74323 1.02404,-0.74323c0,0 -0.20736,0.44973 -0.75635,1.27034c-0.20338,0.30401 -0.52185,0.6243 -0.78012,1.00961c-0.21699,0.32374 -0.34856,0.66529 -0.55728,0.98942c-0.11329,0.17592 -0.29541,0.35594 -0.42076,0.50402c-0.45629,0.53903 -0.88502,0.81413 -1.274,1.1467c-0.4361,0.37285 -0.72842,0.59565 -0.95976,0.41626z" fill="#000000" stroke="none" stroke-width="0"/><path d="M237.92024,180.93974c-0.18528,-0.134 0.08079,-0.82317 0.63942,-1.6529c0.3763,-0.55894 1.0721,-1.11402 1.54616,-1.75315c0.6967,-0.9393 0.98692,-1.73412 1.59069,-2.50518c0.37361,-0.47714 0.77415,-0.98461 1.09994,-1.31237c0.34223,-0.3443 0.60061,-0.49706 0.60061,-0.49706c0,0 -0.51618,0.84023 -1.14962,1.95818c-0.76314,1.34683 -1.72599,3.10264 -2.55031,4.35591c-0.34149,0.51916 -0.57352,0.99943 -0.82155,1.26837c-0.22027,0.23885 -0.88759,0.18723 -0.95533,0.13824z" fill="#000000" stroke="none" stroke-width="0"/><path d="M225.62451,192.08067c-0.17618,0.19313 -0.61534,0.35877 -0.86046,0.64098c-0.27094,0.31192 -0.26143,0.4554 -0.24869,0.70926c0.02131,0.42496 0.52745,1.11074 0.7023,1.22248c0.92676,0.59226 2.54922,1.46324 2.59011,1.52247c0.38746,0.56116 0.88126,1.02554 0.88126,1.02554c0,0 -2.04485,0.50278 -2.82436,0.27424c-0.72188,-0.21165 -2.03458,-1.62531 -2.30005,-2.17258c-0.19113,-0.39404 0.60802,0.0952 0.45751,-0.23615c-0.70304,-1.54761 -1.05088,-3.24066 -1.09451,-3.37686c-0.04174,-0.13024 -0.52587,-0.69419 -0.85421,-1.40703c-0.43915,-0.95342 -0.75424,-2.14215 -0.8445,-2.61774c-0.10083,-0.53129 -0.21571,-1.17573 -0.22674,-1.81121c-0.02053,-1.18261 0.15758,-2.30185 0.32089,-2.37531c0.14127,-0.06354 0.77041,0.51622 1.11696,0.96278c0.16996,0.21901 1.6554,-1.57069 3.16252,-2.72222c1.44616,-1.10495 4.01426,-2.20298 4.16698,-1.96425c0.25937,0.40542 -4.43279,3.6962 -5.96767,5.40514c-0.74788,0.83269 0.0065,1.57901 0.0065,1.57901c0,0 0.87591,-0.02844 1.24493,-0.29204c0.5239,-0.37419 0.75772,-1.07011 1.4567,-1.6238c0.28836,-0.2284 0.60444,-0.36713 0.89388,-0.53908c0.26631,-0.15819 0.5063,-0.36321 0.72566,-0.47197c0.38286,-0.18981 0.71508,-0.36393 0.78265,-0.29951c0.15114,0.14413 0.12329,0.72394 -0.24558,1.36395c-0.15057,0.26125 -0.32247,0.47906 -0.60231,0.64857c-0.34368,0.20816 -0.7318,0.42224 -1.03408,0.82667c-0.14548,0.19465 -0.52699,0.57752 -0.67227,0.77889c-0.39718,0.55055 -0.62678,1.03783 -0.83568,1.49069c-0.01659,0.03595 -0.14795,0.43126 -0.06909,0.84895c0.11581,0.61333 0.45828,1.32047 0.42268,1.3827c-0.35031,0.61227 0.16541,0.7706 -0.25136,1.22745z" fill="#000000" stroke="none" stroke-width="0"/><path d="M232.74647,198.0682c0,0 -0.54513,-0.95946 -1.25782,-1.85233c-0.66498,-0.83308 -2.43015,-2.24781 -3.57539,-3.5757c-0.84383,-0.9784 -1.27795,-1.98069 -1.27795,-1.98069c0,0 -0.47201,-1.01909 -0.13504,-1.55789c0.17383,-0.27796 0.24093,-0.58137 0.47741,-0.83811c0.93023,-1.00996 2.33371,-1.8508 3.34613,-2.99928c0.15182,-0.17224 0.30466,-1.1608 0.71104,-1.7586c0.41894,-0.61627 1.09006,-0.83941 1.1382,-0.82557c0.05164,0.01486 -0.06835,0.6987 -0.30885,1.46435c-0.07817,0.24886 -0.2417,0.89648 -0.41102,1.44209c-0.07434,0.23957 0.10471,1.08505 -0.01001,1.23773c-0.16245,0.21618 -0.29268,0.67763 -0.72554,1.01993c-0.61861,0.48921 -1.60989,0.89847 -2.10593,1.39256c-0.33869,0.33735 -0.51226,0.86044 -0.5061,0.96512c0.00851,0.14477 0.12422,0.5446 0.23001,0.68232c0.45792,0.59619 1.76577,1.10151 2.8347,2.13747c1.44769,1.40305 2.06975,2.3603 2.5265,3.2691c0.11777,0.23434 0.18527,0.60904 0.27872,0.82283c0.27126,0.62058 0.51029,1.48946 0.51029,1.48946c0,0 -1.35954,0.87105 -2.89279,1.1703c-0.73154,0.14278 -1.88344,0.08976 -2.22226,-0.07047c-0.91309,-0.43182 -1.50773,-1.95244 -1.63813,-2.8801c-0.05964,-0.42438 -0.16681,-0.64183 0.09342,-0.72091c0.0604,-0.01836 -0.72602,-1.47179 -1.601,-2.55181c-0.80423,-0.99268 -1.70349,-1.6131 -1.64545,-1.75802c0.02486,-0.06207 -0.34808,-2.47004 0.3267,-2.63057c0.48433,-0.11522 1.96552,1.89058 2.39522,2.27345c0.51243,0.45659 1.2289,2.81973 1.32739,3.23137c0.15449,0.64572 0.64096,1.53281 0.79205,1.75935c0.49584,0.74334 1.09818,1.53927 1.56175,1.80716c0.409,0.23635 0.7903,0.08849 1.11041,0.00165c0.37285,-0.10115 0.65336,-0.16615 0.65336,-0.16615z" fill="#000000" stroke="none" stroke-width="0"/><path d="M235.91704,189.1361c0,0 0.37976,0.01761 1.00683,0.14375c0.36955,0.07433 0.92845,0.14196 1.35601,0.25263c0.69106,0.17884 1.27601,0.52688 1.74751,0.7421c0.50687,0.23134 0.87657,0.33162 0.92455,0.57061c0.04135,0.206 -0.59477,0.7152 -1.77428,1.00571c-0.59002,0.14533 -2.28405,0.43333 -3.40642,0.61855c-0.61231,0.10104 -1.46002,-0.15507 -1.46002,-0.15507c0,0 -0.47786,-0.12085 -0.32577,-0.56866c0.22881,-0.67363 1.93157,-2.60961 1.93157,-2.60961z" fill="#ffc6ef" stroke="none" stroke-width="0"/><path d="M237.54666,200.64037c0,0 0.86423,-0.51544 1.28358,-1.18886c0.20483,-0.32892 0.35329,-0.70552 0.14689,-1.05884c-0.39084,-0.66907 -1.02058,-1.72222 -1.70958,-2.25416c-0.62684,-0.48396 -1.0367,-0.50788 -1.71009,-0.93523c-0.80129,-0.50851 -1.56799,-0.99615 -2.13938,-1.50858c-0.73457,-0.65877 -0.90698,-1.56645 -0.79531,-2.24666c0.12995,-0.79157 1.18352,-1.25249 1.72143,-2.21468c0.43051,-0.77011 0.91276,-1.60858 1.22626,-2.37878c0.40518,-0.99538 0.61612,-1.89434 0.98275,-2.56767c0.04543,-0.08343 0.86296,-1.33548 1.13632,-0.87804c0.01328,0.02222 -0.75243,1.13781 -0.75563,2.05256c-0.00209,0.59705 0.02669,1.16186 0.09122,1.77074c0.05101,0.48109 0.09494,0.92759 -0.09924,1.56c-0.33178,1.08056 -2.41864,3.02634 -2.29908,3.38176c0.30485,0.90621 3.03297,1.25948 3.66759,2.06288c0.61804,0.78243 1.14903,1.54613 1.60325,2.25238c0.58774,0.91384 0.85088,1.77088 1.20393,2.40839c0.48785,0.88094 0.99472,1.37343 0.99472,1.37343c0,0 -1.3218,-0.49054 -2.00472,-0.43508c-0.81137,0.06588 -2.54491,0.80447 -2.54491,0.80447z" fill="#000000" stroke="none" stroke-width="0"/><path d="M244.28838,194.25513c-0.14829,-0.12338 -0.00321,-0.63379 0.20638,-1.59175c0.07638,-0.34905 0.30859,-0.90504 0.32949,-1.31424c0.0225,-0.44046 0.197,-0.85331 0.06707,-1.36094c-0.13812,-0.53957 -0.77723,-1.12821 -0.74921,-1.35953c0.03285,-0.27128 0.59,-0.47541 0.80685,-0.69099c0.27173,-0.27014 0.79845,-0.97915 0.79845,-0.97915c0,0 1.27423,-3.11677 3.38167,-5.3087c0.97363,-1.01266 2.80574,-1.72864 3.55151,-2.02675c0.13253,-0.05299 0.84003,3.98467 0.84677,4.03475c0.05301,0.39422 -7.55394,5.24762 -7.41948,5.5895c0.23403,0.59502 0.81193,0.63576 0.86145,0.93254c0.06636,0.39765 -0.5522,0.79204 -0.5522,0.79204c0,0 -0.30908,0.92257 -0.87945,1.85558c-0.43519,0.71186 -1.14807,1.51185 -1.24926,1.42765z" fill="#000000" stroke="none" stroke-width="0"/><path d="M245.86842,188.75853c0.16748,-1.49701 0.7563,-2.65249 1.01265,-3.44378c0.35763,-1.10396 1.92457,-2.33195 2.67258,-2.86848c0.24348,-0.17464 0.5762,-0.26753 0.88686,-0.20395c0.39183,0.08018 0.99793,0.24796 1.73539,0.59679c1.5605,0.73812 3.67374,2.2429 4.67065,2.78799c0.95949,0.5246 2.20357,1.43593 2.79626,1.88262c0.21409,0.16136 0.31436,0.48413 0.26291,0.82599c-0.12143,0.80667 -0.36887,2.28056 -0.6609,3.07836c-0.21003,0.57382 -0.80875,1.51266 -1.19544,2.09018c-0.20249,0.3024 -0.56044,0.54794 -0.93833,0.60088c-1.43673,0.20131 -5.24819,0.55807 -8.72264,-0.65793c-0.81661,-0.2858 -0.59243,-1.41125 -0.97364,-2.19698c-0.5255,-1.08314 -1.61441,-1.88349 -1.54639,-2.49168z" fill="#485e84" stroke="#000000" stroke-width="2"/><path d="M259.97866,189.02684c-0.35804,0.8269 -1.0644,2.45798 -1.5049,3.47382c-0.18983,0.43775 -0.53496,0.98592 -0.96111,1.07146c-0.80623,0.16186 -1.57909,0.47878 -2.22484,0.23259c-0.19401,-0.07397 -0.09955,-0.00332 -0.21862,-0.20594c-0.38069,-0.64783 -0.54711,-2.19781 -0.36975,-3.03172c0.45475,-2.13796 0.81565,-2.91762 2.63864,-3.28362c1.20018,-0.24094 2.06151,0.36715 2.50995,0.81075c0.23271,0.23021 0.26812,0.61509 0.13062,0.93261z" fill="#343545" stroke="#000000" stroke-width="1"/></g></g><g><g><path d="M251.79833,138.30065c-0.36836,-0.02677 -2.49144,-1.70305 -3.76386,-2.35037c-0.95495,-0.48578 -1.87748,-2.05196 -3.29748,-2.84595c-0.95649,-0.53481 -1.00826,1.1002 -2.16137,0.43898c-3.01248,-1.72739 -4.68827,-2.76689 -6.98327,-4.61872c-0.37162,-0.29985 -0.57679,-1.0979 -0.97563,-1.42998c-0.31414,-0.26155 -1.03789,-0.32512 -1.37602,-0.61112c-0.27736,-0.2346 -1.18761,-0.94182 -1.23983,-1.68304c-0.04564,-0.64786 0.10526,-1.57147 0.08236,-2.61929c-0.01921,-0.87925 -0.19542,-1.84964 -0.37518,-2.78232c-0.49534,-2.57025 -1.04913,-5.21531 -1.4529,-6.56181c-0.1641,-0.54726 -0.39566,-0.88975 -0.44489,-0.91038c-1.80159,-0.755 -4.77388,2.56177 -6.17141,1.43842c-4.74773,-3.81627 -6.63972,-14.63706 -6.1532,-16.72092c0.38687,-1.65696 3.48248,0.89853 6.03864,1.29598c1.0417,0.30323 1.76844,0.08123 1.76844,0.08123c0,0 12.3108,-11.26108 20.52923,-13.33801c8.54061,-2.15835 29.78508,0.62276 29.78508,0.62276c0,0 -0.38875,2.01977 -0.80645,3.93836c-0.18494,0.8494 -0.42668,1.67357 -0.53816,2.30493c-0.05412,0.30647 -0.40902,0.53247 -0.38034,0.72892c0.02787,0.19085 0.51099,0.42231 0.71744,0.64242c0.29666,0.31631 0.70649,0.68147 1.02481,1.14928c0.53174,0.78149 1.02081,1.68272 1.01565,1.83623c-0.07016,2.08362 -2.50118,5.7194 -2.51981,7.5414c-0.02125,2.07864 1.03972,0.98909 0.89222,2.71142c-0.65483,7.64662 -4.12525,20.46925 -4.0273,21.40064c0.05859,1.10085 0.81712,2.64662 1.46277,4.56341c0.56071,1.66466 1.03333,3.42447 1.27263,4.43046c0.12289,0.51659 -0.26273,1.16505 -0.50148,1.29754c-0.27384,0.15195 -0.65411,0.30937 -1.27095,0.45443c-1.19891,0.28201 -2.22456,-0.20927 -3.53163,-0.12227c-2.746,0.18276 -5.80509,0.4585 -8.86603,0.30776c-3.48705,-0.17171 -6.48515,-0.4964 -7.69355,-0.58421z" fill="#ffc6ef" stroke="#000000" stroke-width="2"/><path d="M235.26215,106.49978l-2.67652,-17.92597l41.35926,-0.19699l-0.98098,3.91529c0,0 -1.96077,1.53467 -3.14924,2.45076c-0.87657,0.67571 -1.15,1.1149 -1.85701,1.68319c-0.24229,0.19474 -0.68664,0.308 -1.01849,0.58233c-1.45368,1.2017 -2.10497,2.40257 -3.11393,2.68077c-0.44209,0.12188 2.32743,-5.00872 1.91258,-4.92403c-0.51647,0.10543 -0.92314,0.27325 -1.35729,0.28786c-2.52944,0.08514 -7.32231,-1.15322 -10.33884,-1.78081c-1.69303,-0.35224 -2.72882,-0.25131 -2.72882,-0.25131c0,0 1.68715,2.96759 3.12457,5.10729c0.70461,1.04884 1.41064,1.97469 1.70922,2.10705c0.99598,0.44149 2.72965,0.1644 4.68284,0.73643c1.01165,0.29626 2.11228,1.635 5.34235,0.82894c0.7383,-0.18423 1.41626,-0.41962 2.1477,-0.77862c1.21723,-0.59743 2.55846,-1.45981 3.51346,-1.99213c1.75996,-0.98103 2.87642,-1.28909 2.87642,-1.28909c0,0 -1.22796,2.39149 -1.09862,5.14207c0.0528,1.12297 0.29909,2.14424 0.3736,3.1375c0.03923,0.52328 -0.04141,1.0972 -0.06624,1.54716c-0.20203,3.66355 -2.39226,12.44896 -2.39226,12.44896c0,0 -1.44751,0.72859 -2.4158,1.54641c-1.37786,1.16378 -5.15555,4.76258 -5.15555,4.76258c0,0 0.40036,-3.0732 1.57342,-5.37739c0.99855,-1.96144 2.7548,-3.09297 3.1762,-4.22606c0.06838,-0.18384 0.65989,-0.83658 0.65989,-0.83658c0,0 -0.75202,-0.42607 -0.7268,-0.74716c0.09318,-1.18729 0.34211,-2.32348 0.34211,-2.32348l-3.84767,-8.63969l-3.98342,1.31212c0,0 0.14355,4.1318 0.30463,5.87997c0.20992,2.27824 1.12579,4.16131 1.12579,4.16131c0,0 -5.15866,-1.07892 -8.46998,-3.38625c-3.81321,-2.65701 -5.97642,-6.42731 -7.85186,-6.7109c-3.96714,-0.59988 -6.78422,-0.45352 -8.58134,-0.00879c-1.61851,0.40055 -2.41333,1.07728 -2.41333,1.07728z" fill="#d396fc" stroke="none" stroke-width="0"/><path d="M232.2342,126.15423l0.32145,-3.04189l2.57392,0.27199l-0.32145,3.04189z" fill="#000000" stroke="none" stroke-width="0"/><path d="M219.1949,102.89049c0,0 0.48236,-1.16536 1.43799,-1.22579c0.15507,-0.0098 0.45536,0.03327 0.74508,0.20377c1.72276,1.01384 5.47001,4.75416 5.47001,4.75416c0,0 -0.41184,-1.97094 -0.52503,-2.90594c-0.10691,-0.88314 -0.13635,-2.55735 -0.13635,-2.55735l10.1474,13.06554l-0.31239,3.51606c0,0 0.50614,1.1631 1.71524,1.74228c0.7031,0.33679 3.54172,-4.2563 4.05393,-3.74613c0.37626,0.37478 0.94696,2.54352 1.01137,3.44898c0.09681,1.361 -1.77476,4.34809 -1.77476,4.34809l-0.45718,5.67201c0,0 0.47635,0.17652 0.95051,0.44007c0.70137,0.38986 2.66898,1.91947 5.08709,3.2784c1.68659,0.94785 3.5232,2.09933 5.14617,2.93121c0.53879,0.27616 1.72359,0.36514 2.20186,0.59492c1.70395,0.81868 3.1552,1.34251 3.1552,1.34251c0,0 -2.03205,-0.05953 -4.24244,-0.3684c-0.60486,-0.08452 -1.22834,-0.13798 -1.81957,-0.28603c-0.95276,-0.23859 -5.23155,-1.7174 -5.23155,-1.7174c0,0 -1.55067,0.73468 -2.51125,0.22307c-0.02901,-0.01546 -2.68456,-1.60339 -3.62612,-2.41804c-0.12649,-0.10944 -0.62752,-1.1176 -1.54912,-2.26659c-0.374,-0.46629 -0.68585,-1.01219 -1.1369,-1.44132c-0.62904,-0.59848 -1.40659,-1.06874 -1.91831,-1.65503c-0.80883,-0.9267 -1.46251,-2.1923 -1.47661,-2.21201c-0.532,-0.74291 -0.66991,-3.36933 -1.20408,-6.32623c-0.52451,-2.90349 -1.05728,-5.96183 -1.8355,-7.41457c-0.23794,-0.44415 -0.62284,-0.57942 -0.88338,-0.68434c-0.5055,-0.20359 -1.6959,0.03871 -2.70021,0.63536c-1.17547,0.6983 -2.37424,1.44746 -2.85115,1.0835c-1.16818,-1.04054 -2.2707,-2.86157 -3.08919,-4.71162c-1.18111,-2.66971 -1.84076,-5.34319 -1.84076,-5.34319z" fill="#d396fc" stroke="none" stroke-width="0"/><path d="M225.03121,98.40143c-0.46461,-1.72058 -1.24943,-4.9841 -1.85598,-8.28162c-0.7153,-3.88882 -1.51251,-8.36683 -1.81164,-10.35471c-0.06939,-0.46121 0.26077,-1.83416 0.76048,-1.99433c1.13085,-0.36242 3.5528,-1.11953 5.3977,-1.62196c0.32257,-0.08785 0.59323,0.0837 0.85174,0.02194c0.2512,-0.06002 0.01951,-0.2964 0.2724,-0.35536c4.83173,-1.12632 10.60634,-2.20913 10.60634,-2.20913c0,0 8.71698,9.34435 7.67755,13.27929c-0.93043,3.5223 -13.64973,9.47844 -13.64973,9.47844c0,0 0.67215,3.24969 0.9231,4.92642c0.23844,1.59333 0.67128,4.90966 0.67128,4.90966c0,0 -0.78021,1.0072 -0.84119,1.55021c-0.10935,0.97372 0.19015,2.09359 0.47912,2.89897c0.23272,0.64862 0.22766,0.68322 -0.16169,0.22372c-1.08132,-1.27613 -3.28303,-3.8927 -4.48809,-5.45217c-0.79346,-1.0268 -1.51157,-1.80451 -2.45746,-3.13505c-0.40686,-0.5723 -0.15691,-1.0335 -0.45077,-1.45167c-0.11252,-0.16013 -0.13744,-0.67896 -0.43846,-0.97515c-0.20561,-0.20231 -0.6867,-0.18213 -0.83419,-0.34064c-0.41154,-0.44222 -0.46395,-0.62565 -0.56962,-1.01695z" fill="#4a5c6f" stroke="#000000" stroke-width="2"/><path d="M240.87868,88.37868c-0.03717,-0.14921 -0.68975,-0.32157 -1.48094,-0.68063c-2.34673,-1.06498 -7.10896,-2.9187 -9.04458,-3.77829c-0.76875,-0.34139 -0.61365,-0.10356 -0.0691,-0.44738c1.29621,-0.81846 8.14474,-4.75487 8.14474,-4.75487c0,0 -3.9629,-3.26303 -5.01534,-6.32381c-2.26962,-6.60058 -0.12791,-9.3754 0.32722,-10.0767c0.18116,-0.27914 1.581,-1.73165 3.32401,-2.82033c1.2276,-0.76678 2.6165,-1.26856 3.95268,-1.83796c2.54224,-1.08336 6.56001,-1.83223 8.03344,-2.16212c0.71514,-0.16013 -0.05966,0.2507 -0.57929,0.88453c-1.51299,1.84553 -4.79738,5.28022 -4.34167,6.55366c0.24056,0.6722 1.19473,1.70452 1.93044,2.82537c0.53815,0.81987 1.37371,1.89845 2.36433,2.81781c0.71823,0.66655 1.95515,0.90825 3.49063,1.12003c6.48694,0.89466 18.59789,-1.53753 22.41269,-2.84668c0.38119,-0.13081 0.53809,-4.75683 0.69278,-4.76302c0.6949,-0.02774 12.07281,11.61916 6.10328,20.27918c-2.25315,3.26866 -6.19788,5.39582 -10.62215,6.53769c-8.61058,2.22234 -18.598,0.97457 -18.598,0.97457c0,0 -6.11432,2.59554 -11.16624,4.39895c-2.85609,1.01955 -5.36911,1.75273 -6.2931,2.06874c-0.75258,0.25737 -1.97883,0.43892 -1.60236,-0.23621c0,0 0.69868,-0.7245 1.49444,-1.45008c1.6282,-1.48458 4.28012,-3.8352 5.4089,-5.13831c0,0 1.16694,-1.00832 1.13312,-1.14412z" fill="#4a5c6f" stroke="#000000" stroke-width="2"/><path d="M249.86386,81.03334c0,0 -14.67384,-3.665 -13.50568,-14.87096c0.27286,-2.61744 0.54906,-2.97236 1.31557,-4.07728c3.00339,-4.3294 9.59161,-5.62755 9.59161,-5.62755c0,0 -4.15577,4.4524 -4.23924,5.89942c-0.06227,1.07936 3.26083,6.31181 4.70246,7.07694c1.56852,0.83248 3.79285,1.07671 6.27202,1.2034c7.72419,0.39473 18.07476,-1.79458 20.01999,-2.68853c0.29139,-0.13392 1.06878,-0.59046 1.31088,-1.20037c0.46076,-1.16083 0.13818,-2.92273 0.13818,-2.92273c0,0 2.2556,2.73665 3.14446,4.11721c1.01662,1.57902 2.78265,5.31942 2.78265,5.31942c0,0 -6.89621,6.43889 -15.30556,6.50384c-3.93327,0.03037 -7.41137,-0.29023 -10.11728,-0.98149c-2.66235,-0.68013 -4.52704,-1.91115 -6.06321,-2.78492c-2.48578,-1.41391 -3.78633,-2.40048 -3.78633,-2.40048c0,0 0.48059,1.48854 0.92293,2.38164c0.66298,1.33861 2.81656,5.0525 2.81656,5.0525z" fill="#696f96" stroke="none" stroke-width="0"/><path d="M238.5169,79.06347l0.4287,-0.94214c0,0 1.95255,0.45358 3.10582,1.25353c0.83782,0.58114 1.27652,1.23573 1.01709,1.49305c-0.32811,0.32545 -1.38953,-0.30214 -2.40485,-0.82185c-0.42657,-0.21834 -0.8402,-0.62049 -1.20582,-0.78481c-0.53345,-0.23978 -0.94096,-0.19777 -0.94096,-0.19777z" fill="#000000" stroke="none" stroke-width="0"/><path d="M233.81614,79.13527l0.15763,-1.49169c0,0 1.38145,0.25655 2.47136,0.42015c0.68134,0.10225 1.25514,0.10758 1.28658,0.17807c0.29575,0.66315 -2.86368,1.40686 -2.86368,1.40686z" fill="#4a5c6f" stroke="none" stroke-width="0"/><path d="M226.39652,99.56381l-0.74095,-3.36925l7.93309,9.70557c0,0 -0.55351,0.69098 -0.612,1.11686c-0.07107,0.51736 0.2159,1.76658 0.2159,1.76658z" fill="#4a5c6f" stroke="none" stroke-width="0"/><path d="M230.26341,106.65718l-0.06618,-1.10397l1.26568,0.13375l-0.15285,1.44649z" fill="#000000" stroke="none" stroke-width="0"/><path d="M225.65603,106.44783c0,0 -0.20614,-0.3966 -0.57945,-0.83312c-0.41842,-0.48927 -1.09774,-1.05243 -1.46279,-1.47829c-0.37972,-0.44294 -1.027,-1.13784 -1.53686,-1.74893c-0.59283,-0.71051 -0.77826,-0.92516 -0.77826,-0.92516c0,0 0.37716,0.1306 0.92401,0.49707c0.31716,0.21254 0.64427,0.49946 1.11063,0.89923c1.22501,1.05011 2.69086,2.47392 3.75248,3.73669c1.34965,1.6054 2.12708,2.83193 1.01676,3.65381c-0.57894,0.42854 -0.75045,0.21882 -1.09821,-0.00777c-0.35151,-0.22903 -0.56627,-0.62329 -0.78805,-1.10603c-0.17717,-0.38566 -0.39155,-0.83121 -0.44341,-1.26873c-0.09598,-0.80957 -0.11684,-1.41879 -0.11684,-1.41879z" fill="#000000" stroke="none" stroke-width="0"/><path d="M234.79102,107.60142l0.54165,-1.95391c0,0 2.71434,-0.84915 3.13939,-0.57423c0.69795,0.45142 -3.68105,2.52811 -3.68105,2.52811z" fill="#000000" stroke="none" stroke-width="0"/><path d="M230.48439,107.64914c0,0 0.37755,-0.54541 0.7984,-0.23604c0.81445,0.59873 2.01549,2.27552 2.52898,2.42007c0.69428,0.19543 1.12123,-0.93184 1.12123,-0.93184c0,0 2.30536,4.15249 2.35143,4.74185c0.01718,0.21998 0.06189,0.53678 0.03995,0.81753c-0.04156,0.53162 -0.25732,0.62866 -0.44677,0.86599c-0.14307,0.1792 -0.24988,0.46468 -0.37542,0.92914c-0.19966,0.73849 -0.26231,1.73087 -0.39281,2.59422c-0.1353,0.89519 -0.32046,2.04094 -0.32046,2.04094c0,0 -0.17443,-1.01593 -0.12323,-1.97426c0.0265,-0.49569 0.00403,-1.05719 0.02973,-1.6863c0.05054,-1.23698 0.1122,-2.59375 -0.12766,-3.23418c-0.13982,-0.37332 -0.4947,-0.61097 -0.76864,-0.99914c-0.55485,-0.78621 -1.34861,-1.52089 -1.94232,-2.10817c-0.593,-0.5866 -2.37245,-3.23979 -2.37245,-3.23979z" fill="#000000" stroke="none" stroke-width="0"/><path d="M240.80958,104.23958c0,0 0.10477,-1.77466 0.23142,-3.0549c0.02746,-0.27768 -0.63782,0.08588 -0.60915,-0.12211c0.0583,-0.42284 0.22323,-1.20468 0.52838,-1.96501c0.28425,-0.70822 0.69836,-1.39691 1.04479,-1.78234c0.522,-0.58077 0.09345,-1.10966 0.09345,-1.10966c0,0 0.88986,-0.47225 2.20022,-0.5612c0.56646,-0.03846 1.16634,-0.06116 1.88182,0.14956c0.52043,0.15327 1.00784,0.44061 1.59028,0.77789c0.59275,0.34324 1.19967,1.11677 1.87555,1.94035c0.61599,0.75062 1.30089,1.5334 1.85469,2.25586c0.58096,0.75789 0.99515,1.42501 1.46484,1.65589c2.28036,0.90402 5.66287,1.52541 7.69101,1.72908c1.2316,0.12369 3.94188,-1.65063 5.18037,-1.63608c0.65113,0.00765 1.87048,0.90705 2.59036,0.63324c0.38055,-0.14474 1.21634,-0.80687 2.19537,-1.74182c0.24371,-0.23275 0.50863,-0.59901 0.76325,-0.84256c0.79958,-0.76481 1.61923,-1.46975 2.33004,-2.18882c1.06203,-1.07437 1.8518,-1.90279 1.8518,-1.90279c0,0 0.89927,-0.98608 0.83017,-0.55506c-0.21619,1.34887 -2.30601,9.76346 -2.30601,9.76346c0,0 -0.61298,1.48595 -1.5736,3.11292c-0.63735,1.07945 -1.45887,2.18253 -2.24339,3.09397c-0.66738,0.77535 -1.02657,1.68156 -1.70256,1.7803c-0.19708,0.02878 -1.70613,0.09487 -2.13177,-0.31806c-0.7053,-0.68423 -1.44906,-1.41857 -1.86946,-2.28663c-0.85169,-1.75867 -1.08718,-4.0654 -1.2332,-5.01881c-0.06238,-0.40731 -0.19209,-0.03325 -0.29525,0.24776c-0.30644,0.83478 -0.96686,2.54298 -1.38011,2.94738c-1.29683,1.26898 -8.05585,4.2811 -9.00245,4.21385c-1.51955,-0.10795 -3.69696,-1.66167 -5.82622,-3.42008c-1.36042,-1.12348 -2.74186,-2.29761 -3.78693,-3.33887c-1.37631,-1.37135 -2.23772,-2.45674 -2.23772,-2.45674z" fill="#000000" stroke="none" stroke-width="0"/><path d="M236.10703,99.97177c-0.11211,-0.23036 1.74082,-1.89819 3.65423,-2.88372c1.74286,-0.89768 3.50197,-1.19938 3.50197,-1.19938l-1.33551,1.93286c0,0 -0.47394,-0.23935 -1.47336,0.18213c-1.67589,0.70675 -4.20439,2.26182 -4.34733,1.96811z" fill="#000000" stroke="none" stroke-width="0"/><path d="M237.29051,101.85657c0.02496,-0.23621 1.22108,-0.7 2.39792,-1.03132c0.70481,-0.19843 1.28631,-0.52765 1.28631,-0.52765l0.32646,1.66854c0,0 0.06663,-0.25841 -0.26407,-0.22103c-0.1667,0.01883 -0.43825,-0.34549 -0.63757,-0.32069c-0.41299,0.05136 -1.13562,0.15175 -1.59285,0.23085c-0.79087,0.13683 -1.52634,0.29727 -1.5162,0.20131z" fill="#000000" stroke="none" stroke-width="0"/><path d="M237.07375,103.90767c-0.05588,-0.28941 0.21495,-0.61861 1.79319,-0.85819c1.0387,-0.15768 2.13613,-0.0464 2.13613,-0.0464l0.42803,1.30218c0,0 -1.42921,-0.31799 -2.72717,-0.29423c-0.8566,0.01567 -1.59215,0.09365 -1.63017,-0.10335z" fill="#000000" stroke="none" stroke-width="0"/><path d="M264.7324,103.0583c0,0 0.14893,-0.46249 0.10891,-0.97316c-0.01304,-0.16648 -0.09116,-0.46093 -0.30017,-0.75699c-0.5434,-0.76968 -1.5753,-1.87068 -1.69658,-3.14929c-0.0419,-0.44182 0.72378,-1.13508 1.38317,-1.72497c0.42264,-0.3781 0.83439,-0.67319 0.85398,-0.96571c0.04182,-0.62483 -0.32124,-1.25226 -0.42547,-1.79676c-0.21729,-1.13523 -0.51525,-2.01224 -0.70485,-2.5034c-0.11009,-0.28519 -0.73062,-0.62395 -0.73062,-0.62395c0,0 3.87288,-0.95932 4.69169,-0.90716c0.45471,0.02898 -0.19095,1.19394 -0.19095,1.19394c0,0 -1.87994,0.40575 -1.94159,0.92737c-0.02814,0.23803 0.0587,0.9982 0.21304,1.80175c0.17358,0.90374 0.41609,1.8606 0.35834,2.15749c-0.11568,0.59482 -1.85848,2.06067 -1.87068,2.57427c-0.00579,0.24364 0.80266,1.2444 1.38539,2.08528c0.37817,0.5457 0.62143,1.0563 0.62079,1.13941c-0.0042,0.54763 -0.10336,1.38173 -0.10336,1.38173z" fill="#000000" stroke="none" stroke-width="0"/><path d="M265.03846,99.56651c0,0 -0.27811,-1.13721 -0.12595,-1.63418c0.04986,-0.16281 0.56484,-0.59723 1.13906,-0.99773c0.55664,-0.38823 1.17228,-0.74039 1.26435,-1.04111c0.01845,-0.06029 -0.18034,-1.66659 -0.21605,-3.02748c-0.03448,-1.31416 0.09438,-2.38552 0.09438,-2.38552l1.00588,-0.58596c0,0 -0.03282,0.35793 0.09696,1.85176c0.06348,0.73062 0.38334,1.66128 0.47295,2.58137c0.10192,1.04682 0.08719,2.08061 -0.05404,2.55473c-0.04587,0.15393 -0.5305,0.53331 -1.166,0.77337c-0.63494,0.23985 -1.42063,0.3404 -1.62512,0.48764c-0.15075,0.10854 -0.42142,1.78689 -0.42142,1.78689z" fill="#000000" stroke="none" stroke-width="0"/><path d="M254.19865,92.56846c0,0 0.54286,0.44045 1.51507,0.80385c1.06697,0.39881 2.64839,0.73024 4.53322,0.88827c0.80499,0.06749 1.73064,0.08066 2.63781,0.00156c1.13708,-0.09912 2.28065,-0.33946 3.52625,-0.75663c0.40498,-0.13564 0.80782,-0.23044 1.22074,-0.41134c2.1705,-0.95087 4.54549,-3.91216 4.54549,-3.91216c0,0 1.92212,-1.04806 2.25241,-1.03604c0.25722,0.00936 -0.43441,1.10228 -0.43441,1.10228c0,0 -0.51798,0.58527 -1.10508,1.31651c-0.19352,0.24104 -0.44574,0.42815 -0.66161,0.69034c-0.37875,0.46002 -0.76125,1.00811 -1.34669,1.4601c-0.44515,0.34368 -0.93816,0.39825 -1.46754,0.65615c-1.06553,0.51908 -2.14241,1.17105 -2.76643,1.27571c-1.20481,0.20206 -2.60782,0.84461 -4.42492,0.55256c-1.12016,-0.18005 -3.63494,-0.25973 -4.75334,-0.54509c-3.15074,-0.80391 -3.27099,-2.08608 -3.27099,-2.08608z" fill="#000000" stroke="none" stroke-width="0"/><path d="M257.94291,92.27186c0.01297,-0.12273 1.05522,-0.17051 2.06652,-0.21862c0.41338,-0.01966 0.87834,0.01903 1.21204,-0.03517c1.80341,-0.29291 3.10289,-0.58222 3.10289,-0.58222l0.23226,0.77971c0,0 -0.99374,0.04042 -2.16246,0.19767c-1.05031,0.14131 -2.15711,0.28428 -3.0463,0.2678c-0.90273,-0.01672 -1.41636,-0.30133 -1.40497,-0.40916z" fill="#000000" stroke="none" stroke-width="0"/><path d="M240.5373,123.45593c0.07237,-0.55126 0.15568,-1.82116 0.37686,-2.82786c0.25232,-1.14849 0.82354,-3.60292 1.05954,-4.82121c0.01565,-0.08083 -0.47097,0.28107 -0.58038,0.53966c-0.21857,0.51664 -0.03279,0.60267 -0.30876,1.30745c-0.03623,0.09252 -0.68372,0.52248 -1.12421,0.97095c-0.23686,0.24115 -0.36522,0.54778 -0.41597,0.6748c-0.14327,0.35864 -0.32603,0.64347 -0.4184,1.00776c-0.41051,1.61919 -0.31795,3.2219 -0.46633,3.24423c-0.04252,0.0064 -0.2629,-0.31959 -0.31917,-0.89035c-0.13648,-1.38389 0.05079,-3.8198 0.23235,-4.40404c0.11955,-0.38471 1.01534,-0.60288 1.16734,-0.96585c0.14186,-0.33871 0.65796,-0.97615 1.06574,-1.5192c0.10554,-0.14055 0.08573,-0.42344 0.20447,-0.71208c0.14253,-0.34647 0.41719,-0.70831 0.44514,-0.93744c0.09316,-0.76383 0.1843,-1.72862 0.22493,-1.74238c1.06057,-0.35873 3.73756,1.4402 5.5674,2.26565c0.40365,0.18208 0.84652,0.25173 1.13124,0.31358c0.69099,0.15015 3.77705,-0.50429 4.08714,-0.34279c0.12998,0.06769 -0.36843,0.24665 -1.12344,0.48509c-0.65168,0.2058 -1.51277,0.62841 -2.28527,0.67715c-1.57541,0.09941 -2.22855,-0.06122 -2.22855,-0.06122c0,0 0.0538,0.52956 0.37194,1.10266c0.28179,0.50765 0.8204,1.0547 0.98418,1.22111c0.87486,0.88901 1.54834,1.39777 1.62061,1.42089c1.39407,0.44587 1.53058,-0.03246 3.34887,0.07031c3.58094,0.20241 8.10858,0.43566 10.12772,0.41665c0.52742,-0.00498 1.10506,-0.07583 1.18769,-0.11128c1.2695,-0.54465 3.17242,-2.55924 3.98099,-3.82983c0.17064,-0.26814 -0.43875,-0.9332 -0.15755,-0.87828c0.27496,0.05368 1.06801,-0.06148 1.49629,0.13536c0.36853,0.16937 0.61231,0.82011 0.5995,0.98158c-0.13353,0.25407 -0.22788,0.48226 -0.39451,0.59579c-0.18237,0.12424 -0.43784,0.12792 -0.59633,0.28557c-0.27928,0.27775 -0.52418,0.67568 -0.82827,1.00844c-0.62024,0.67872 -1.31856,1.33601 -1.80568,1.92503c-0.5214,0.63048 -0.81078,1.17044 -0.818,1.18578c-0.49161,1.04612 -1.41395,3.23592 -1.67131,5.42202c-0.13756,1.16853 0.16552,2.6975 0.34271,3.54429c0.07793,0.37238 -0.20838,0.80967 -0.5341,0.88584c-0.60935,0.14247 -1.55645,0.2688 -2.57283,0.44981c-2.20423,0.39255 -4.85662,0.8911 -6.25668,0.93504c-0.40151,0.0126 -0.76281,-0.0898 -0.90374,-0.14733c-3.10337,-1.26627 -6.15349,-4.30958 -8.53368,-5.92181c-3.28389,-2.22436 -5.3558,-2.37795 -5.27945,-2.95952z" fill="#000000" stroke="none" stroke-width="0"/><path d="M269.12658,121.30298c-0.19322,-0.07791 -0.15796,-1.54477 0.11744,-2.59424c0.06784,-0.25853 0.2174,-0.48542 0.28917,-0.69308c0.22464,-0.65004 0.36014,-1.04067 0.36014,-1.04067c0,0 0.16464,0.16354 0.22603,0.66366c0.03524,0.28708 0.04721,0.58335 -0.02788,1.0456c-0.05612,0.34548 -0.42303,1.64857 -0.69124,2.29455c-0.10476,0.25233 -0.25246,0.33273 -0.27366,0.32418z" fill="#000000" stroke="none" stroke-width="0"/><path d="M264.30764,109.80987l0.66797,0.9988c0,0 0.12279,1.31969 0.3088,2.14807c0.12549,0.55889 0.50943,1.69732 0.80454,2.54067c0.20685,0.59114 0.22935,1.25711 -0.17166,0.8463c-0.32664,-0.33464 -0.61142,-0.99241 -0.90911,-1.663c-0.18913,-0.42603 -0.42912,-0.86205 -0.54174,-1.20819c-0.18523,-0.56915 -0.24427,-1.62207 -0.20108,-2.35662c0.03322,-0.56521 0.04229,-1.30604 0.04229,-1.30604z" fill="#000000" stroke="none" stroke-width="0"/><path d="M245.97526,124.73953c-0.26341,-1.07407 -2.45731,-10.01989 -2.45731,-10.01989c0,0 2.46563,3.45565 3.93191,4.60715c0.91993,0.72244 4.01877,1.63665 4.01877,1.63665c0,0 6.26481,0.04547 7.49294,0.05439c0.40037,0.00291 0.63279,0.20265 0.42049,0.52652c-0.25239,0.38504 -0.57365,0.94958 -0.77084,1.57623c-0.1682,0.53455 -0.35025,2.44995 -0.35025,2.44995c0,0 -3.03151,-0.37302 -5.18304,-0.2472c-1.25143,0.0732 -2.17,0.56839 -2.21373,0.73049c-0.03826,0.14188 1.90969,0.14336 3.9937,0.30442c2.42217,0.18718 5.03505,0.5245 5.03505,0.5245c0,0 -0.5339,4.00791 -0.73725,3.9818c-0.25724,-0.03302 -1.20188,0.18319 -2.28399,0.22289c-1.24553,0.04571 -2.6775,-0.10202 -3.52361,-0.46469c-0.7396,-0.31701 -2.47984,-2.1264 -4.22746,-3.51966c-0.97354,-0.77613 -2.16176,-1.56732 -2.74036,-1.91828c-0.29909,-0.18139 -0.35456,-0.23952 -0.40504,-0.44532z" fill="#ffffff" stroke="none" stroke-width="0"/><path d="M246.91813,122.74559c-0.24653,-0.90197 -0.77978,-2.69923 -1.50835,-4.2964c-0.32911,-0.72144 -0.50755,-1.36261 -0.84846,-1.94967c-0.69233,-1.19221 -1.22363,-2.07351 -1.21765,-2.54626c0.0043,-0.3403 0.52025,-0.67858 0.79417,-0.30304c0.69439,0.95201 1.8722,2.85278 2.85611,4.11532c0.35709,0.45822 0.67513,0.84331 0.90086,1.09626c0.57662,0.64611 1.43609,1.47779 1.43609,1.47779c0,0 -0.86211,0.7473 -1.24262,1.31593c-0.23396,0.34959 -0.72334,1.049 -0.94606,1.42657c-0.12491,0.21174 -0.12451,0.02783 -0.22409,-0.33648z" fill="#f44254" stroke="#000000" stroke-width="1"/><path d="M249.1769,120.65121c0.168,0.01487 0.36072,-0.27094 0.75955,-0.24232c1.0276,0.07372 2.60812,0.48103 2.60812,0.48103c0,0 -0.85138,1.38425 -1.18741,1.92889c-0.06091,0.09869 -0.42606,1.02933 -0.73655,0.9774c-0.27992,-0.04682 -0.56419,-1.13675 -0.60464,-1.20822c-0.16921,-0.29901 -1.0773,-1.95789 -0.83906,-1.93678z" fill="#f44254" stroke="#000000" stroke-width="0.5"/><path d="M252.05656,120.99778c-0.31685,0.46724 -0.77007,1.14141 -0.97737,1.4774c-0.11579,0.18768 -0.24645,0.44219 -0.34542,0.64372c-0.09184,0.18703 -0.25201,0.19065 -0.36963,0.01096c-0.0963,-0.14715 -0.20731,-0.32241 -0.29263,-0.47316c-0.16943,-0.29938 -0.50794,-0.92357 -0.80332,-1.47139c-0.07944,-0.14734 -0.15576,-0.28918 -0.22482,-0.41768c-0.09782,-0.18201 3.10652,0.09252 3.01318,0.23016z" fill="#f44254" stroke="#000000" stroke-width="0.5"/><path d="M269.51874,130.44897c-0.03073,0.29076 -0.27825,0.50296 -0.55286,0.47394c-0.27462,-0.02902 -0.47232,-0.28826 -0.4416,-0.57904c0.03073,-0.29076 0.27825,-0.50295 0.55286,-0.47393c0.27462,0.02902 0.47232,0.28826 0.4416,0.57903z" fill="#000000" stroke="none" stroke-width="0"/><path d="M271.0359,132.32469c-0.02389,0.22614 -0.27898,0.38459 -0.56976,0.35385c-0.29077,-0.03072 -0.50711,-0.23897 -0.48321,-0.46513c0.02389,-0.22614 0.27897,-0.38459 0.56976,-0.35385c0.29077,0.03072 0.50711,0.23897 0.48321,0.46513z" fill="#000000" stroke="none" stroke-width="0"/><path d="M271.66567,135.88116c-0.03415,0.32308 -0.33681,0.55593 -0.67605,0.52008c-0.33922,-0.03584 -0.58655,-0.3268 -0.55242,-0.64989c0.03415,-0.32308 0.33681,-0.55592 0.67604,-0.52007c0.33922,0.03584 0.58655,0.3268 0.55241,0.64988z" fill="#000000" stroke="none" stroke-width="0"/><path d="M270.27428,135.05387c-0.02561,0.2423 -0.28207,0.41382 -0.57284,0.3831c-0.29077,-0.03072 -0.50572,-0.25207 -0.48012,-0.49437c0.02561,-0.2423 0.28207,-0.41382 0.57284,-0.3831c0.29077,0.03072 0.50572,0.25206 0.48012,0.49437z" fill="#000000" stroke="none" stroke-width="0"/><path d="M269.5825,132.64431c-0.0205,0.19386 -0.22041,0.33162 -0.44659,0.30771c-0.22614,-0.02389 -0.39289,-0.20041 -0.3724,-0.39427c0.0205,-0.19386 0.22041,-0.33161 0.44658,-0.3077c0.22614,0.02389 0.39289,0.20041 0.3724,0.39426z" fill="#000000" stroke="none" stroke-width="0"/><path d="M267.8302,133.55344c-0.02902,0.27462 -0.30136,0.47095 -0.60828,0.4385c-0.30692,-0.03242 -0.53222,-0.28134 -0.5032,-0.55596c0.02902,-0.27462 0.30136,-0.47095 0.60828,-0.4385c0.30692,0.03242 0.53222,0.28134 0.5032,0.55596z" fill="#000000" stroke="none" stroke-width="0"/><path d="M268.26635,136.14304c-0.02561,0.2423 -0.26898,0.41519 -0.54359,0.38618c-0.27462,-0.02902 -0.47647,-0.24896 -0.45088,-0.49127c0.02561,-0.2423 0.26899,-0.41521 0.54358,-0.38619c0.27462,0.02902 0.47647,0.24896 0.45088,0.49128z" fill="#000000" stroke="none" stroke-width="0"/><path d="M264.70466,134.58364c-0.02561,0.2423 -0.26898,0.41519 -0.54359,0.38618c-0.27462,-0.02902 -0.47647,-0.24896 -0.45088,-0.49127c0.02561,-0.2423 0.26899,-0.41521 0.54358,-0.38619c0.27462,0.02902 0.47647,0.24897 0.45088,0.49128z" fill="#000000" stroke="none" stroke-width="0"/><path d="M266.26509,136.04986c-0.02561,0.2423 -0.26899,0.41521 -0.54358,0.38619c-0.27462,-0.02902 -0.47647,-0.24896 -0.45088,-0.49128c0.02561,-0.2423 0.26899,-0.41521 0.54358,-0.38619c0.27462,0.02902 0.47647,0.24896 0.45088,0.49128z" fill="#000000" stroke="none" stroke-width="0"/><path d="M263.31192,137.12785c-0.02731,0.25847 -0.28516,0.44308 -0.57594,0.41235c-0.29077,-0.03072 -0.50435,-0.26516 -0.47702,-0.52362c0.02731,-0.25847 0.28517,-0.44308 0.57594,-0.41235c0.29077,0.03072 0.50435,0.26516 0.47702,0.52362z" fill="#000000" stroke="none" stroke-width="0"/><path d="M261.02811,135.23029c-0.02731,0.25847 -0.27207,0.44445 -0.54669,0.41545c-0.27462,-0.02902 -0.47509,-0.26206 -0.44779,-0.52052c0.02731,-0.25847 0.27207,-0.44445 0.54669,-0.41545c0.27462,0.02902 0.47509,0.26206 0.44779,0.52052z" fill="#000000" stroke="none" stroke-width="0"/><path d="M260.15423,137.62229c-0.27462,-0.02902 -0.47924,-0.22278 -0.45705,-0.43279c0.02219,-0.20999 0.2628,-0.35671 0.53741,-0.32769c0.27462,0.02902 0.47925,0.22277 0.45705,0.43278c-0.02219,0.20999 -0.2628,0.35672 -0.53741,0.3277z" fill="#000000" stroke="none" stroke-width="0"/><path d="M257.37296,136.23411c-0.03242,0.30692 -0.33371,0.52666 -0.67294,0.49083c-0.33922,-0.03584 -0.58794,-0.3137 -0.5555,-0.62063c0.03242,-0.30692 0.33372,-0.52668 0.67295,-0.49083c0.33922,0.03584 0.58793,0.31371 0.55549,0.62064z" fill="#000000" stroke="none" stroke-width="0"/><path d="M252.44437,134.17533c-0.03242,0.30692 -0.30752,0.52943 -0.61445,0.49701c-0.30692,-0.03242 -0.52943,-0.30752 -0.49701,-0.61445c0.03242,-0.30692 0.30752,-0.52943 0.61445,-0.49701c0.30692,0.03242 0.52943,0.30752 0.49701,0.61445z" fill="#000000" stroke="none" stroke-width="0"/><path d="M251.87228,136.51055c-0.24232,-0.02559 -0.4249,-0.17732 -0.40783,-0.33885c0.01707,-0.16154 0.22733,-0.27173 0.46965,-0.24613c0.2423,0.02561 0.42489,0.17732 0.40782,0.33885c-0.01706,0.16153 -0.22732,0.27173 -0.46964,0.24614z" fill="#000000" stroke="none" stroke-width="0"/><path d="M250.50424,135.18294c-0.02731,0.25847 -0.27207,0.44444 -0.54667,0.41543c-0.27462,-0.02902 -0.47509,-0.26206 -0.44779,-0.52051c0.02731,-0.25847 0.27207,-0.44445 0.54669,-0.41545c0.27462,0.02902 0.47509,0.26206 0.44779,0.52052z" fill="#000000" stroke="none" stroke-width="0"/><path d="M250.89276,133.74524c-0.02731,0.25847 -0.27207,0.44445 -0.54669,0.41545c-0.27462,-0.02902 -0.47509,-0.26206 -0.44779,-0.52052c0.02731,-0.25847 0.27207,-0.44444 0.54667,-0.41543c0.27462,0.02902 0.47509,0.26206 0.44779,0.52051z" fill="#000000" stroke="none" stroke-width="0"/><path d="M248.42967,133.54411c-0.03415,0.32308 -0.32371,0.55729 -0.64679,0.52316c-0.32308,-0.03415 -0.55729,-0.32371 -0.52316,-0.64679c0.03415,-0.32308 0.32371,-0.55729 0.64679,-0.52316c0.32308,0.03415 0.55729,0.32371 0.52316,0.64679z" fill="#000000" stroke="none" stroke-width="0"/><path d="M246.20717,132.1854c-0.02731,0.25847 -0.28516,0.44308 -0.57594,0.41235c-0.29076,-0.03073 -0.50436,-0.26515 -0.47703,-0.52363c0.02731,-0.25847 0.28516,-0.44307 0.57594,-0.41234c0.29076,0.03073 0.50435,0.26516 0.47703,0.52361z" fill="#000000" stroke="none" stroke-width="0"/><path d="M270.26189,137.75989c-0.0343,0.32455 -0.30496,0.56198 -0.60454,0.53032c-0.29957,-0.03166 -0.51464,-0.32042 -0.48035,-0.64495c0.0343,-0.32455 0.30496,-0.56198 0.60454,-0.53032c0.29957,0.03166 0.51464,0.32042 0.48035,0.64495z" fill="#000000" stroke="none" stroke-width="0"/><path d="M247.07668,108.02247c0,0 2.05836,-0.51393 2.84904,-0.60476c0.74236,-0.08528 2.1304,0.02319 2.1304,0.02319c0,0 0.25059,-0.7606 0.53953,-1.69283c0.2566,-0.8279 0.60518,-1.51039 0.77363,-2.19651c0.26784,-1.09105 0.44848,-3.56392 0.74176,-5.01578c0.227,-1.12379 0.64549,-1.76857 0.64549,-1.76857c0,0 -0.4004,1.15654 -0.53919,2.59481c-0.15348,1.59015 -0.24742,3.67998 -0.26294,4.62896c-0.01588,0.9719 0.35808,2.83205 0.35808,2.83205l5.54081,0.53843c0,0 -0.83497,0.54194 -2.19406,0.67971c-1.47208,0.14923 -3.48903,-0.08917 -3.8199,0.35238c-0.09178,0.12247 -0.26317,0.19078 -0.40787,0.94058c-0.50526,2.61795 -1.16246,8.37853 -1.16246,8.37853c0,0 0.25125,-4.69611 0.27616,-7.21606c0.00529,-0.53602 -0.09508,-0.89638 -0.1039,-1.17822c-0.02209,-0.7067 -0.26673,-1.18378 -0.26673,-1.18378c0,0 -0.83959,-0.24874 -1.32927,-0.284c-0.8306,-0.05983 -3.76852,0.17189 -3.76852,0.17189z" fill="#ff0000" stroke="none" stroke-width="0"/><path d="M261.14378,107.80302c0,0 1.50867,-0.21387 3.03742,-0.65342c0.60903,-0.17511 1.22467,-0.3392 1.79938,-0.57606c0.79578,-0.32797 1.51609,-0.22235 1.84678,-0.70604c0.25198,-0.36857 0.51557,-1.79172 0.74175,-3.26197c0.4719,-3.0677 0.82877,-7.14791 0.82877,-7.14791c0,0 0.09573,0.48253 0.07497,1.33027c-0.0474,1.93343 -0.59066,5.02045 -0.61583,6.32577c-0.02118,1.09851 0.40079,2.99464 0.40079,2.99464c0,0 0.31667,0.17578 0.9369,0.03916c1.07817,-0.2375 2.80299,-0.78184 3.47933,-0.70831c2.49439,0.27118 3.44761,0.66685 3.44761,0.66685c0,0 -1.26988,-0.23695 -2.74408,-0.11294c-0.93058,0.07827 -1.99022,0.37193 -2.92554,0.69117c-0.16735,0.05713 -0.36863,-0.05476 -0.52702,0.00707c-0.24628,0.09617 -0.44232,0.36907 -0.65837,0.47383c-0.49758,0.24129 -0.90114,0.50088 -1.14709,0.75788c-0.05179,0.0541 -0.2263,0.21695 -0.33603,0.63746c-0.33048,1.26632 -0.79121,3.98208 -1.29697,5.98853c-0.40214,1.59537 -0.89777,2.73428 -0.89777,2.73428c0,0 0.51995,-4.10227 0.60472,-6.68789c0.03688,-1.12438 0.29143,-2.1259 0.05972,-2.49015c-0.11623,-0.18272 -0.99621,-0.33948 -2.29338,-0.38162c-1.65733,-0.05385 -3.8161,0.07944 -3.8161,0.07944z" fill="#ff0000" stroke="none" stroke-width="0"/><path d="M254.25442,107.65603c-0.05482,0.5187 -0.51973,0.89477 -1.03846,0.83997c-0.5187,-0.05482 -0.89477,-0.51973 -0.83997,-1.03846c0.05482,-0.5187 0.51973,-0.89477 1.03846,-0.83997c0.5187,0.05482 0.89477,0.51973 0.83997,1.03846z" fill="#ffffff" stroke="none" stroke-width="0"/><path d="M269.31462,107.34802c-0.04837,0.45768 -0.44623,0.79081 -0.88867,0.74406c-0.44244,-0.04676 -0.7619,-0.45569 -0.71353,-0.91337c0.04837,-0.45768 0.44623,-0.79081 0.88867,-0.74406c0.44244,0.04676 0.7619,0.45569 0.71353,0.91337z" fill="#ffffff" stroke="none" stroke-width="0"/></g><path d="M251.56271,90.80515l0.25794,-1.93021l1.40852,0.18822l-0.25794,1.93021z" fill="#000000" stroke="none" stroke-width="0"/></g></g></g></svg>