<svg version="1.1" xmlns="http://www.w3.org/2000/svg" xmlns:xlink="http://www.w3.org/1999/xlink" width="272.68879" height="313.30228" viewBox="0,0,272.68879,313.30228"><g transform="translate(-161.31339,-17.27583)"><g data-paper-data="{&quot;isPaintingLayer&quot;:true}" fill-rule="nonzero" stroke-linecap="butt" stroke-linejoin="miter" stroke-miterlimit="10" stroke-dasharray="" stroke-dashoffset="0" style="mix-blend-mode: normal"><g data-paper-data="{&quot;index&quot;:null}" stroke="#000000"><path d="M432.64272,88.48539l-25.40258,39.18989l-39.60699,-28.24162l25.40258,-39.18988z" fill="#ffcaa0" stroke-width="2"/><g><path d="M407.46517,127.62081l-35.02742,54.03856l-40.12323,-28.60972l35.02742,-54.03856z" fill="#0000c0" stroke-width="2"/><path d="M406.99997,127.03577l-18.34632,28.3038c0,0 -4.38125,-20.31495 -11.04221,-25.06456c-6.31559,-4.50332 -27.9427,-2.73349 -27.9427,-2.73349l18.34632,-28.30381c0,0 12.82253,9.14305 19.28509,13.75117c6.53168,4.65739 19.69983,14.04688 19.69983,14.04688z" fill="#56006b" stroke-width="0"/></g><path d="M431.74092,88.49139l-25.40258,39.18989l7.05636,-33.80724l-21.26077,-33.62423z" fill="#ff6e5b" stroke-width="0"/></g><g data-paper-data="{&quot;index&quot;:null}" stroke="#000000"><path d="M298.86371,329.16661v-83.59174h61.17899v83.59174z" fill="#273750" stroke-width="2"/><path d="M299.65105,328.46603v-83.59174l18.42709,45.66668l42.75189,37.92506z" fill="#1f1e2e" stroke-width="0"/></g><path d="M246.87899,245.19404v-105.38107h113.80147v105.38107z" data-paper-data="{&quot;index&quot;:null}" fill="#0000c0" stroke="#000000" stroke-width="2"/><g data-paper-data="{&quot;index&quot;:null}" stroke="#000000"><path d="M246.25776,329.57811v-83.59174h61.17899v83.59174z" fill="#273750" stroke-width="2"/><path d="M247.04514,328.87748v-83.59174l18.42709,45.66668l42.75189,37.92506z" fill="#1f1e2e" stroke-width="0"/></g><g data-paper-data="{&quot;index&quot;:null}" stroke="#000000"><path d="M162.75919,205.23024l32.9582,-30.82901l35.94826,35.23724l-32.9582,30.82901z" fill="#ffcaa0" stroke-width="2"/><g><path d="M195.47599,174.40143l45.44573,-42.50983l36.41679,35.69654l-45.44573,42.50983z" fill="#0000c0" stroke-width="2"/><path d="M195.85442,175.05151l23.80314,-22.26538c0,0 1.00584,19.92656 7.0515,25.85264c5.73218,5.61882 28.33211,8.83113 28.33211,8.83113l-23.80314,22.26539c0,0 -11.63803,-11.40784 -17.50361,-17.1574c-5.92829,-5.81104 -17.88002,-17.52638 -17.88002,-17.52638z" fill="#56006b" stroke-width="0"/></g><path d="M163.68982,205.4274l32.9582,-30.82901l-13.11602,29.93511l16.10606,36.13113z" fill="#ff6e5b" stroke-width="0"/></g><g data-paper-data="{&quot;index&quot;:null}" stroke="#000000"><path d="M273.77207,244.75952v-103.41963h61.17899v103.41963z" fill="#ffffff" stroke-width="2"/><path d="M274.55945,243.89276v-103.41963l18.42709,56.49877l42.75189,46.92086z" fill="#8ebbfc" stroke-width="0"/></g><g><g data-paper-data="{&quot;index&quot;:null}" stroke="#000000"><path d="M394.15724,69.13378c4.91586,29.53396 -2.71589,55.77865 -17.046,58.61911c-14.33011,2.84047 -29.93201,-18.79888 -34.84787,-48.33284c-4.91586,-29.53396 2.71589,-55.77865 17.046,-58.61911c14.33011,-2.84047 29.93201,18.79888 34.84786,48.33284z" fill="#01930e" stroke-width="2"/><path d="M349.70326,68.42634c4.91586,29.53396 42.06463,56.01007 27.73453,58.85055c-14.33009,2.84047 -29.93201,-18.79888 -34.84786,-48.33284c-4.91586,-29.53396 2.19748,-40.05168 7.11334,-10.5177z" fill="#31525b" stroke-width="0"/></g><g data-paper-data="{&quot;index&quot;:null}" stroke="#000000"><path d="M220.47923,102.07322c-0.2101,-1.26229 -3.31231,-25.28087 -3.41933,-26.54362c-2.70447,-31.90864 30.03304,-40.75276 71.523,-48.97681c38.97328,-7.72519 73.33276,-10.23304 83.97623,17.29917c1.13569,2.93778 3.58237,24.06372 4.1145,27.26079c1.90208,11.42754 9.00497,35.96491 3.3099,46.48673c-10.83031,20.00934 -43.14602,23.43059 -71.41358,29.03371c-29.88781,5.92429 -57.60934,12.34874 -73.89366,-4.00856c-7.216,-7.24833 -12.50233,-30.36952 -14.19708,-40.55142z" fill="#ffcaa0" stroke-width="2"/><path d="M218.68867,102.43782c-0.2101,-1.26229 -3.31231,-25.28087 -3.41933,-26.54362c-1.53655,-18.12897 15.95257,54.2035 66.01139,65.05067c39.22951,8.5006 99.82339,-27.43734 97.53369,-23.20706c-10.83031,20.00934 -43.76748,23.65683 -72.03499,29.25995c-29.88781,5.92429 -57.60933,12.34874 -73.89365,-4.00856c-7.216,-7.24833 -12.50233,-30.36952 -14.19708,-40.55142z" fill="#ff6e5b" stroke-width="0"/></g><g data-paper-data="{&quot;index&quot;:null}" stroke="#000000"><path d="M264.73475,92.82295c4.91586,29.53396 -2.71589,55.77865 -17.046,58.61911c-14.33011,2.84047 -29.93202,-18.79888 -34.84787,-48.33284c-4.91585,-29.53396 2.7159,-55.77865 17.04601,-58.61911c14.33011,-2.84047 29.93201,18.79888 34.84787,48.33284z" fill="#01930e" stroke-width="2"/><path d="M220.28076,92.11549c4.91585,29.53397 42.06463,56.01007 27.73453,58.85055c-14.33009,2.84048 -29.93201,-18.79888 -34.84787,-48.33284c-4.91585,-29.53396 2.19748,-40.05168 7.11334,-10.5177z" fill="#31525b" stroke-width="0"/></g><g data-paper-data="{&quot;index&quot;:null}"><path d="M387.01571,33.73778c2.69579,16.19605 -35.54909,37.33953 -85.42233,47.22528c-49.87325,9.88574 -92.48886,4.77023 -95.18465,-11.4258c-2.69579,-16.19605 35.54908,-37.33952 85.42233,-47.22526c49.87325,-9.88574 92.48886,-4.77025 95.18465,11.42579z" fill="#000000" stroke="none" stroke-width="NaN"/><path d="M386.35456,34.195c2.69579,16.19605 -35.5491,37.33953 -85.42233,47.22528c-49.87325,9.88574 -92.48886,4.77024 -95.18464,-11.42579c-2.69579,-16.19605 43.18127,-0.17655 93.05454,-10.06229c49.87325,-9.88574 84.85667,-41.93321 87.55245,-25.73718z" fill="#ff0000" stroke="#000000" stroke-width="2"/><path d="M382.4937,43.67264c0.74186,4.45701 -31.94462,28.57808 -82.03652,37.15013c-17.52914,2.9997 -34.24201,4.7666 -48.11688,4.71861c-25.75883,-0.08904 -42.36851,-4.92704 -40.71754,-9.12855c1.70515,-4.33939 39.38995,8.18116 89.2632,-1.70459c49.87325,-9.88574 80.86589,-35.49264 81.60776,-31.0356z" fill="#900056" stroke="#000000" stroke-width="0"/></g><path d="M327.63133,104.3073c2.39914,14.4138 1.50429,26.66141 -1.99872,27.35576c-3.50301,0.69435 -8.28765,-10.42745 -10.68679,-24.84126c-2.39914,-14.4138 -1.50427,-26.66139 1.99873,-27.35575c3.50301,-0.69436 8.28765,10.42745 10.68679,24.84127z" data-paper-data="{&quot;index&quot;:null}" fill="#000000" stroke="none" stroke-width="0"/><path d="M352.14227,95.35489c2.38954,14.35616 1.63637,26.52738 -1.68227,27.1852c-3.31865,0.65783 -7.94603,-10.44688 -10.33558,-24.80305c-2.38954,-14.35616 -1.63637,-26.52739 1.68227,-27.1852c3.31865,-0.65783 7.94603,10.44688 10.33558,24.80306z" data-paper-data="{&quot;index&quot;:null}" fill="#000000" stroke="none" stroke-width="0"/></g><path d="M299.92161,119.50706c-0.12994,0.13328 -0.24405,0.2046 -0.24405,0.2046c-5.68341,3.46256 1.76137,7.27593 2.87813,11.12116c1.30923,4.50796 -2.28832,7.41527 -6.65058,6.92067c-2.3863,-0.27056 -2.85898,-0.77563 -4.76615,-1.87882c-5.23524,-4.06033 -8.22975,-9.85557 -8.22636,-16.55548c0.00146,-2.88488 0.52296,-6.11785 3.21392,-7.87356c1.82688,-1.19194 3.84869,-0.89253 5.87951,-0.88612c1.99448,0.0063 3.52577,0.42405 5.38282,1.12551c2.96484,1.77753 5.79418,4.16975 3.25401,7.59999z" fill="#000000" stroke="none" stroke-width="0.5"/></g></g></svg>