<svg version="1.1" xmlns="http://www.w3.org/2000/svg" xmlns:xlink="http://www.w3.org/1999/xlink" width="184.43284" height="312.29284" viewBox="0,0,184.43284,312.29284"><g transform="translate(-224.6473,-48.69462)"><g data-paper-data="{&quot;isPaintingLayer&quot;:true}" fill-rule="nonzero" stroke-linejoin="miter" stroke-miterlimit="10" stroke-dasharray="" stroke-dashoffset="0" style="mix-blend-mode: normal"><g stroke="#000000" stroke-linecap="butt"><path d="M328.44947,232.22381c24.60209,22.4957 40.11974,45.5728 34.65964,51.54419c-5.46012,5.97139 -29.83038,-7.42422 -54.43247,-29.91989c-24.60209,-22.4957 -40.11974,-45.5728 -34.65964,-51.54419c5.46012,-5.97139 29.83038,7.42422 54.43247,29.9199z" fill="#0d69be" stroke-width="2"/><path d="M371.62063,253.68742c10.55983,9.65571 11.09135,26.26396 1.18714,37.09559c-9.90419,10.83161 -26.49359,11.78487 -37.05346,2.12914c-10.55984,-9.65572 -11.09135,-26.26396 -1.18714,-37.09559c9.90421,-10.8316 26.49362,-11.78485 37.05346,-2.12914z" fill="#faddbf" stroke-width="2"/><path d="M336.19323,275.13849c10.55984,9.65572 46.15252,3.94272 36.24831,14.77433c-9.90419,10.83161 -26.49359,11.78486 -37.05346,2.12914c-10.55984,-9.65572 -9.75471,-26.55917 0.80514,-16.90347z" fill="#ef8b89" stroke-width="0"/></g><g stroke="#000000" stroke-linecap="butt"><path d="M307.76518,340.83543v-95.29492h29.49199v95.29492z" fill="#73fffc" stroke-width="2"/><path d="M307.43943,340.21749l1.32626,-93.78573c0,0 5.20288,68.11227 6.3799,77.52842c0.2602,2.08162 2.52228,2.78987 2.52228,2.78987l18.60659,13.13896z" fill="#59a9e6" stroke-width="0"/></g><g stroke="#000000" stroke-linecap="butt"><path d="M268.4238,338.41288v-95.29492h29.49199v95.29492z" fill="#73fffc" stroke-width="2"/><path d="M268.09805,337.79495l1.32626,-93.78573c0,0 5.20288,68.11227 6.3799,77.52842c0.2602,2.08162 2.52228,2.78987 2.52228,2.78987l18.60659,13.13896z" fill="#59a9e6" stroke-width="0"/></g><g stroke="#000000" stroke-linecap="butt"><path d="M335.22917,235.69588c0,13.80271 10.04743,36.74388 4.95001,46.45977c-6.2338,11.88187 -28.61241,9.09579 -38.9397,9.09579c-13.66287,0 -32.94407,4.17018 -38.34426,-14.83216c-2.01935,-7.10576 4.35457,-32.37264 4.35457,-40.7234c0,-30.68249 15.2177,-55.55556 33.98969,-55.55556c18.77199,0 33.98969,24.87307 33.98969,55.55556z" fill="#0d69be" stroke-width="2"/><path d="M283.96554,251.27245c0,13.80271 62.04198,20.54886 56.94455,30.26474c-6.2338,11.88186 -28.61241,9.09579 -38.9397,9.09579c-13.66287,0 -32.94406,4.17018 -38.34425,-14.83215c-2.01936,-7.10576 4.35457,-32.37265 4.35457,-40.7234c0,-9.45244 3.34855,-28.59801 5.51953,-29.96813c5.94391,-16.76415 10.4653,25.13995 10.4653,46.16315z" fill="#10157d" stroke-width="0"/></g><g stroke-linecap="butt"><g stroke="#000000"><g><path d="M239.66589,114.06272c12.69366,-45.03609 59.49287,-71.2548 104.52895,-58.56114c45.03609,12.69366 71.2548,59.49287 58.56114,104.52895c-12.69366,45.03609 -59.49287,71.2548 -104.52895,58.56114c-45.03609,-12.69366 -71.2548,-59.49287 -58.56114,-104.52895z" fill="#faddbf" stroke-width="2"/><path d="M240.12389,113.28842c4.08401,-14.48973 19.45836,-37.12461 24.67026,-38.99501c0.59521,-0.21361 7.98666,-7.00637 17.04724,-11.43082c11.26168,-5.49929 24.62712,-8.80565 25.16152,-8.45029c6.97241,4.63639 -34.46347,57.6681 -40.13182,82.34572c-0.01352,0.05885 -1.10259,20.15843 0.33613,21.01995c1.49073,5.34742 3.57322,20.90676 12.10945,30.73108c15.90828,18.30876 41.76755,32.21932 40.20269,32.30369c-2.50321,0.13496 -14.99879,-1.35057 -20.83433,-2.99535c-45.03609,-12.69366 -71.2548,-59.49287 -58.56114,-104.52895z" fill="#ef8b89" stroke-width="0"/><path d="M402.37647,159.44752c-3.15351,11.18841 -5.7618,14.62611 -5.7908,12.69407c-0.02959,-1.97104 2.48261,-9.49624 -4.72934,-16.55301c-1.7476,-1.71 -11.5261,3.27189 -13.81824,1.34984c-1.43973,-1.20727 -5.56721,-12.14115 -7.22573,-13.31098c-1.1596,-0.81793 -14.25593,4.68587 -15.48073,3.87244c-3.05471,-2.02872 -8.45345,-14.19934 -11.88548,-15.85032c-1.88991,-0.90915 -12.14936,8.8871 -14.11042,8.07063c-2.52904,-1.05295 -6.41705,-14.34732 -9.05178,-15.08994c-7.00685,-1.97492 -9.10121,4.71872 -15.772,9.07876c-4.33484,2.83326 -9.92305,-16.35728 -14.13292,-12.93584c-5.22817,4.24901 -10.3651,8.31773 -15.42362,10.63184c-3.96859,1.81551 -10.12386,-13.34373 -13.60216,-11.60433c-16.7942,8.39827 -26.99047,13.84064 -22.06071,-3.64973c9.91281,-35.16986 43.89251,3.83783 89.94691,-5.54176c44.08281,-8.97805 83.04985,13.66849 73.13703,48.83835z" fill="#ef8b89" stroke-width="0"/></g><path d="M406.10744,151.86441c-6.37069,22.60269 3.92242,10.16043 -10.8034,-3.93877c-1.80201,-1.72533 -11.78485,3.19895 -14.14616,1.25742c-1.48316,-1.21951 -5.78656,-12.20297 -7.4936,-13.38648c-1.19353,-0.82749 -14.57158,4.5969 -15.83186,3.77348c-3.14321,-2.05366 -8.75739,-14.285 -12.28452,-15.96279c-1.94228,-0.92391 -12.3847,8.82077 -14.39924,7.98922c-2.598,-1.07238 -6.67232,-14.41927 -9.37645,-15.18145c-7.19142,-2.02694 -9.29084,4.66527 -16.09443,8.98788c-4.42114,2.80894 -10.2777,-16.45723 -14.56677,-13.05813c-5.32651,4.22129 -10.56083,8.26257 -15.72685,10.54637c-4.05294,1.79174 -10.46267,-13.43923 -14.01389,-11.72038c-17.14625,8.29904 -27.5539,13.68183 -22.62415,-3.80854c9.91281,-35.16986 60.41158,-67.39559 104.61612,-54.93631c44.20452,12.45928 72.65803,64.26864 62.74521,99.4385z" fill="#873412" stroke-width="2"/><path d="M406.18445,150.67802c-6.37069,22.60269 3.92242,10.16043 -10.8034,-3.93877c-1.80201,-1.72533 -11.78485,3.19895 -14.14616,1.25742c-1.48316,-1.21951 -5.78656,-12.20297 -7.49361,-13.38648c-1.19353,-0.82749 -14.57158,4.5969 -15.83186,3.77348c-3.14321,-2.05366 -8.75739,-14.285 -12.28452,-15.96279c-1.94228,-0.92391 -12.3847,8.82077 -14.39924,7.98922c-2.598,-1.07238 -6.67232,-14.41927 -9.37645,-15.18145c-7.19142,-2.02694 -9.29084,4.66527 -16.09443,8.98788c-4.42114,2.80894 -10.2777,-16.45723 -14.56677,-13.05813c-5.32651,4.22129 -10.56083,8.26257 -15.72686,10.54637c-4.05294,1.79174 -10.46267,-13.43923 -14.01389,-11.72038c-17.14625,8.29904 -27.5539,13.68183 -22.62415,-3.80854c9.91281,-35.16986 44.98997,4.14716 92.10368,-4.93386c45.09677,-8.69226 85.17045,14.26619 75.25764,49.43605z" fill="#741d23" stroke-width="0"/></g><path d="M342.83416,63.06217c0.03123,0.12894 0.04668,0.27195 0.0493,0.42526c0.02036,0.27499 -0.00479,0.55792 -0.08103,0.83882c-0.20362,1.1232 -0.72507,2.40691 -0.81523,2.89277c-0.11844,0.63833 1.34841,-0.39638 1.94295,-0.13559c0.36419,0.15975 0.55431,0.94754 0.91059,0.77085c2.16212,-1.07231 4.48116,-3.39027 6.69206,-1.08064c0.73221,0.7649 0.13801,2.00323 0.49573,2.81547c0.03007,0.06828 2.54842,0.57636 2.97713,1.25089c0.7387,1.16226 -0.30366,2.25403 -0.06951,3.35135c0.07492,0.35113 0.67292,-0.26981 1.0284,-0.32022c1.58206,-0.22429 4.39168,-0.84693 5.80722,0.5928c0.74587,0.75862 0.13479,2.2609 0.50281,2.82375c0.6452,0.98674 2.23137,-0.78935 3.38931,-1.01095c1.6015,-0.30649 2.11143,0.56537 3.06872,1.75585c0.16511,0.20533 -0.66579,4.10537 0.081,5.51869c0.41977,0.79443 1.82257,-0.37843 2.69141,-0.14939c0.86688,0.22853 2.80947,0.0256 3.18741,0.23978c0.75811,0.42962 1.06754,2.00567 1.91037,1.78446c4.3032,-1.12945 8.6369,1.59722 5.71773,5.92782c-0.36942,0.54805 1.42803,-0.19378 1.97484,0.17749c0.21198,0.14393 1.24349,1.47443 1.4855,1.45329c1.58294,-0.13829 2.68148,-0.57369 4.21401,-0.14576c1.27275,0.3554 2.29191,1.41552 2.21267,2.82744c-0.04164,0.74203 -1.53595,1.77294 -0.8508,2.06087c1.615,0.67871 4.0418,2.11634 2.6101,4.34916c-1.55414,2.42377 -4.41727,4.099 -6.32632,1.38847c-0.66235,-0.94041 -2.55497,0.57092 -3.44729,-0.15492c-1.14313,-0.92986 -1.16528,-3.31373 -0.77728,-4.42681c0.17937,-0.51455 -1.13449,0.0688 -1.62633,-0.1658c-0.6622,-0.31585 -0.69608,-1.45893 -1.38532,-1.71034c-1.5417,-0.56234 -2.19391,2.77505 -5.72132,0.96363c-1.04116,-0.53466 -1.82997,-2.78176 -1.89742,-3.94149c-0.03915,-0.6732 2.11125,-2.15774 1.98777,-2.30223c-0.29984,-0.35087 -2.63986,2.19353 -3.08887,2.21467c-1.08021,0.05083 -1.96441,-0.94821 -2.808,-1.62481c-0.74531,-0.59778 -1.62278,1.50618 -2.55534,1.29839c-0.82388,-0.18357 -8.87176,-3.00185 -9.05805,-3.57695c-0.22713,-0.70113 -0.32296,-1.87908 0.02136,-2.51936c0.12375,-0.23011 1.43875,-1.50745 1.25853,-1.53731c-0.63962,-0.106 -4.96423,2.17452 -6.16949,-1.54606c-0.65541,-2.02323 1.912,-3.19978 2.35573,-4.76213c0.27402,-0.96483 -1.52183,1.31177 -2.21427,2.03739c-0.53184,0.55734 -1.73529,0.86706 -2.4875,0.681c-2.60075,-0.64329 -1.19388,-2.90771 -1.32404,-4.5178c-0.06007,-0.74304 -1.68007,0.14482 -2.20272,-0.38675c-1.27785,-1.29969 -0.73519,-2.35662 -0.45208,-3.86869c0.12963,-0.69235 -1.26471,2.46448 -2.89282,2.17863c-0.66028,-0.11593 -1.40186,-1.37938 -1.82013,-0.85548c-2.03633,2.55067 -1.68647,3.90859 -5.20966,2.41575c-0.33998,-0.14405 -1.15691,0.50058 -1.47421,0.17785c-3.51185,-3.5719 1.32361,-7.86738 2.52841,-11.69207c0.42499,-1.34913 0.10743,-3.63475 1.47987,-3.97705c0.61847,-0.59124 1.52459,-0.84942 2.40774,-0.60049c0.78306,0.22071 1.37333,0.79085 1.6495,1.49387c0.05083,0.0943 0.0907,0.19469 0.11686,0.30269z" fill="#ba587e" stroke="none" stroke-width="0.5"/></g><g stroke="#000000" stroke-linecap="butt"><path d="M342.08096,176.35212c-7.74763,27.48795 -24.41828,38.0937 -40.36548,33.5989c-15.9472,-4.4948 -25.13208,-22.38808 -17.38445,-49.87602c7.74763,-27.48795 26.95608,-46.12757 42.90328,-41.63277c15.9472,4.4948 22.59428,30.42194 14.84665,57.90989z" fill="#f0f0f0" stroke-width="2"/><path d="M302.39104,144.81995c-11.80043,26.00697 16.10905,68.9993 0.16185,64.50449c-15.9472,-4.4948 -25.13208,-22.38808 -17.38445,-49.87602c7.74763,-27.48795 34.28254,-52.22687 17.22261,-14.62847z" fill="#9a99ff" stroke-width="0"/></g><path d="M336.09902,183.22011c-4.29234,15.22886 -12.28503,26.30226 -17.85219,24.73313c-5.56715,-1.56913 -6.6006,-15.1866 -2.30826,-30.41546c4.29234,-15.22886 12.28503,-26.30226 17.85219,-24.73313c5.56715,1.56913 6.6006,15.1866 2.30826,30.41546z" fill="#000000" stroke="none" stroke-width="0" stroke-linecap="butt"/><g stroke="#000000" stroke-linecap="butt"><path d="M345.40748,146.08484c1.51703,11.05597 0.06057,34.17104 -15.06053,29.90908c-15.12111,-4.26197 -38.31972,-35.10515 -31.33688,-43.12684c6.64407,-7.63252 12.34576,-18.77373 27.46687,-14.51176c15.12111,4.26197 17.4848,17.19304 18.93054,27.72952z" fill="#a100fe" stroke-width="2"/><path d="M344.61397,145.49316c1.37067,11.01472 0.28573,33.74129 -14.31978,29.62465c-14.60552,-4.11664 -37.32804,-34.33242 -30.49435,-42.39616c6.50215,-7.67252 6.0513,2.70511 20.65682,6.82175c14.60552,4.11664 22.85104,-4.54742 24.1573,5.94975z" fill="#99008e" stroke-width="0"/></g><g data-paper-data="{&quot;index&quot;:null}" stroke="#000000" stroke-linecap="butt"><path d="M388.85257,134.73196c15.9472,4.4948 22.59428,30.42194 14.84665,57.90989c-7.74762,27.48794 -24.92486,37.95092 -40.87206,33.45611c-15.9472,-4.4948 -24.6255,-22.24529 -16.87787,-49.73324c7.74763,-27.48795 26.95608,-46.12757 42.90328,-41.63277z" fill="#f0f0f0" stroke-width="2"/><path d="M403.3123,191.67017c-7.74762,27.48794 -24.92486,37.95092 -40.87206,33.45611c-15.9472,-4.4948 30.30586,-26.58402 33.82382,-54.92545c5.08593,-40.97334 14.79587,-6.01861 7.04825,21.46934z" fill="#9a99ff" stroke-width="0"/></g><path d="M393.26151,168.93021c5.56715,1.56913 6.6006,15.1866 2.30826,30.41546c-4.29234,15.22886 -12.28503,26.30226 -17.85219,24.73313c-5.56715,-1.56913 -6.6006,-15.1866 -2.30826,-30.41546c4.29234,-15.22886 12.28503,-26.30226 17.85219,-24.73313z" data-paper-data="{&quot;index&quot;:null}" fill="#000000" stroke="none" stroke-width="0" stroke-linecap="butt"/><g data-paper-data="{&quot;index&quot;:null}" stroke="#000000" stroke-linecap="butt"><path d="M358.91872,148.8153c6.73534,-8.2306 15.50403,-18.02395 30.62514,-13.76198c15.12111,4.26197 14.16535,16.74084 15.84558,26.71961c1.76591,10.48758 -32.91843,24.76953 -48.03954,20.50757c-15.12111,-4.26197 -5.49862,-24.82879 1.5688,-33.46519z" fill="#a100fe" stroke-width="2"/><path d="M359.90443,148.7251c6.59587,-8.26991 9.10314,3.42489 23.70865,7.54153c14.60552,4.11664 19.64048,-4.96892 21.17879,4.96984c1.61675,10.44554 -32.49799,24.14821 -47.10351,20.03157c-14.60552,-4.11664 -4.70502,-23.86529 2.21605,-32.54293z" fill="#99008e" stroke-width="0"/></g><path d="M371.63632,338.87008c0,11.6628 -14.51982,21.11737 -32.43092,21.11737c-17.9111,0 -32.43092,-9.45457 -32.43092,-21.11737c0,-2.33142 -0.03339,-13.76009 1.08979,-15.13837c4.49546,-5.51647 17.81784,5.26144 32.14847,5.26144c17.9111,0 31.62358,-1.78588 31.62358,9.87692z" fill="#000082" stroke="#000000" stroke-width="2" stroke-linecap="butt"/><path d="M369.75004,336.13781c0,6.30841 -13.89058,10.1901 -31.80169,10.1901c-17.9111,0 -30.16566,-2.95748 -30.16566,-9.26589c0,-1.26107 -0.03338,-12.52602 1.0898,-13.27153c4.49546,-2.98386 15.55258,5.7726 29.88321,5.7726c17.9111,0 30.99434,0.26631 30.99434,6.57472z" fill="#2e0048" stroke="#000000" stroke-width="0" stroke-linecap="butt"/><path d="M328.64938,338.22529c0,11.6628 -14.51982,21.11737 -32.43092,21.11737c-17.9111,0 -32.43092,-9.45457 -32.43092,-21.11737c0,-2.33142 -0.03339,-13.76009 1.08979,-15.13837c4.49546,-5.51647 17.81784,5.26144 32.14847,5.26144c17.9111,0 31.62358,-1.78588 31.62358,9.87692z" fill="#000082" stroke="#000000" stroke-width="2" stroke-linecap="butt"/><path d="M326.7631,335.49289c0,6.30841 -13.89058,10.1901 -31.80169,10.1901c-17.9111,0 -30.16566,-2.95748 -30.16566,-9.26589c0,-1.26107 -0.03338,-12.52602 1.0898,-13.27153c4.49546,-2.98386 15.55258,5.7726 29.88321,5.7726c17.9111,0 30.99434,0.26631 30.99434,6.57472z" fill="#2e0048" stroke="#000000" stroke-width="0" stroke-linecap="butt"/><g><g><path d="M289.62967,259.90734c-15.00688,-1.55441 -22.99001,-10.00899 -22.14533,-24.92192c0.66063,-11.66356 14.52833,-23.31305 29.53525,-21.75862c15.00696,1.55439 24.9042,12.38071 23.36529,27.23806c-0.24063,2.3234 -1.15229,4.39625 -1.96724,6.2972c-4.39643,10.25486 -16.12786,14.45666 -28.78796,13.14533z" fill="#485e84" stroke="#000000" stroke-width="2" stroke-linecap="butt"/><path d="M283.76741,216.96368c0,0 -1.03019,5.66303 0.44176,7.02199c14.11907,13.03556 27.94234,15.51251 32.57683,15.98284c1.05296,0.10688 1.72513,-0.79259 1.72513,-0.79259c0,0 0.00422,2.11378 -0.8617,4.71458c-0.9214,2.76747 -2.78037,6.09137 -5.03796,8.17664c-2.57884,2.38196 -9.95392,6.26997 -9.95392,6.26997l-20.9191,1.11795c0,0 -9.35051,-9.67074 -10.22748,-11.65261c-0.85916,-1.94159 -1.31893,-4.48547 -1.91665,-7.17051c-0.928,-4.16899 -0.31394,-8.66671 0.86251,-11.29556c1.50145,-3.35497 4.67599,-6.77174 7.71779,-9.07606c2.83094,-2.14463 5.59275,-3.29649 5.59275,-3.29649z" fill="#343545" stroke="none" stroke-width="0" stroke-linecap="butt"/><path d="M283.60859,241.40016c0,0 -0.94978,-8.97195 1.74055,-13.36994c3.40563,-5.56742 12.98721,-14.30214 12.98721,-14.30214" fill="none" stroke="#000000" stroke-width="1" stroke-linecap="round"/><path d="M319.4706,233.43572c0,0 -2.21958,6.79732 -4.49025,10.4464c-2.29229,3.68396 -9.99374,9.58655 -9.99374,9.58655" fill="none" stroke="#000000" stroke-width="1" stroke-linecap="round"/><path d="M272.81892,243.38482c0,0 -1.11252,-9.19505 2.01841,-13.82604c4.80432,-7.1061 13.03953,-15.27172 13.03953,-15.27172" fill="none" stroke="#000000" stroke-width="1" stroke-linecap="round"/><path d="M270.18106,228.33028c0,0 14.73022,-9.08275 30.76645,-2.27226c17.56566,7.46002 15.46397,24.57939 15.46397,24.57939" fill="none" stroke="#000000" stroke-width="1" stroke-linecap="round"/><path d="M267.94477,237.5879c0,0 16.48225,-6.72292 30.64586,-0.74364c11.62962,4.90956 11.2082,19.49518 11.2082,19.49518" fill="none" stroke="#000000" stroke-width="1" stroke-linecap="round"/><path d="M309.08175,222.7969c-0.9551,-0.73147 -1.25982,-1.93735 -0.68075,-2.69341c0.57903,-0.75609 1.22494,-0.29049 2.17999,0.44098c0.9551,0.73147 1.85757,1.45182 1.27849,2.20788c-0.57903,0.75609 -1.82271,0.77603 -2.77774,0.04456z" fill="#8fbbbe" stroke="none" stroke-width="0" stroke-linecap="butt"/><path d="M314.19803,227.96248c-0.59827,-0.06199 -1.00794,-0.83971 -0.915,-1.73713c0.09296,-0.89744 0.25479,-1.25101 0.85308,-1.18905c0.59827,0.06199 1.18849,0.85842 1.09551,1.75582c-0.09296,0.89744 -0.43537,1.23232 -1.03365,1.17033z" fill="#8fbbbe" stroke="none" stroke-width="0" stroke-linecap="butt"/><path d="M303.55029,218.64157c-0.88244,-0.18805 -1.4961,-0.81733 -1.37077,-1.40563c0.12531,-0.58826 0.88621,-0.37108 1.76862,-0.18305c0.88244,0.18805 1.55223,0.27569 1.42688,0.86397c-0.12531,0.58826 -0.94234,0.91275 -1.82473,0.72469z" fill="#8fbbbe" stroke="none" stroke-width="0" stroke-linecap="butt"/><path d="M279.7328,218.91803c0,0 9.96808,-2.30589 17.45906,-1.16337c4.24698,0.64776 7.76648,2.68478 10.41751,4.25906c2.34442,1.39218 6.23026,6.69557 8.78212,11.06436c1.8788,3.2165 2.86055,5.99194 2.86055,5.99194" fill="none" stroke="#000000" stroke-width="0.5" stroke-linecap="round"/><path d="M313.91891,220.08673c0,0 -1.4928,10.4666 -4.15962,15.16822c-2.24683,3.96123 -10.43729,11.24003 -10.43729,11.24003" fill="none" stroke="#000000" stroke-width="1" stroke-linecap="round"/><path d="M293.89336,244.29029c0,0 1.47148,-9.55319 3.26386,-13.70504c3.1471,-7.2899 11.10277,-14.00439 11.10277,-14.00439" fill="none" stroke="#000000" stroke-width="1" stroke-linecap="round"/></g><g stroke="#000000" stroke-linecap="butt"><path d="M265.47283,242.37795c30.55779,13.32439 32.70282,22.72941 29.46874,30.14635c-3.23408,7.41694 -30.62782,2.62798 -61.18563,-10.6964c-30.5578,-13.32442 34.8647,-43.90851 38.09879,-51.32544c5.93428,-3.8875 7.47105,2.45568 4.64861,9.78985c-3.48074,9.04472 -13.64251,20.94676 -11.03053,22.08567z" fill="#0d69be" stroke-width="2"/><path d="M293.26143,241.30787c13.11619,5.71919 18.99333,21.26186 13.12695,34.71561c-5.86637,13.45374 -21.25475,19.72384 -34.37093,14.00467c-13.11619,-5.71919 -18.99331,-21.26189 -13.12695,-34.71561c5.86637,-13.45374 21.25473,-19.72381 34.37094,-14.00462z" fill="#faddbf" stroke-width="2"/><path d="M266.68144,273.06872c13.11619,5.71919 44.94521,-11.20384 39.07887,2.24992c-5.86637,13.45374 -21.25475,19.72382 -34.37094,14.00462c-13.11619,-5.71919 -17.82414,-21.97374 -4.70795,-16.25456z" fill="#ef8b89" stroke-width="0"/></g></g><path d="M271.1217,170.39765c0.09067,-0.24374 0.4864,-1.09211 1.52076,-0.80057c1.20312,0.33911 0.86402,1.54223 0.86402,1.54223l-0.14581,0.37976c-1.19043,2.07885 -2.60075,4.00334 -3.86127,6.03637c-1.29308,1.51916 -2.77377,3.53659 -4.68509,4.31706c-3.87045,1.58043 -7.64084,-2.38174 -8.1625,-5.95797c-0.66764,-4.57695 1.43282,-9.81873 3.79521,-13.68319c0,0 0.65658,-1.06367 1.72026,-0.40709c1.06367,0.65658 0.40709,1.72026 0.40709,1.72026c-1.6905,2.70716 -3.64644,6.97019 -3.62421,10.23585c0.01442,2.11895 1.15211,6.06643 4.01067,6.04981c1.80308,-0.01048 3.50087,-2.56246 4.51862,-3.74775c1.17976,-1.9204 2.5134,-3.73107 3.64225,-5.68476z" fill="#000000" stroke="none" stroke-width="0.5" stroke-linecap="butt"/></g></g></svg>