<svg version="1.1" xmlns="http://www.w3.org/2000/svg" xmlns:xlink="http://www.w3.org/1999/xlink" width="36.61196" height="42.58215" viewBox="0,0,36.61196,42.58215"><defs><radialGradient cx="243.59865" cy="180.22869" r="2.04545" gradientUnits="userSpaceOnUse" id="color-1"><stop offset="0" stop-color="#fbff4e"/><stop offset="1" stop-color="#fbff4e" stop-opacity="0"/></radialGradient><radialGradient cx="251.08443" cy="181.10734" r="2.04545" gradientUnits="userSpaceOnUse" id="color-2"><stop offset="0" stop-color="#fbff4e"/><stop offset="1" stop-color="#fbff4e" stop-opacity="0"/></radialGradient></defs><g transform="translate(-223.61377,-156.89394)"><g data-paper-data="{&quot;isPaintingLayer&quot;:true}" fill-rule="nonzero" stroke="none" stroke-linecap="butt" stroke-linejoin="miter" stroke-miterlimit="10" stroke-dasharray="" stroke-dashoffset="0" style="mix-blend-mode: normal"><path d="M234.94971,197.20518c-1.27602,-0.5761 -2.82145,-0.95172 -2.82145,-0.95172c0,0 -0.29347,-0.92809 -0.47571,-2.09932c-0.29788,-1.91439 -0.52462,-4.4903 -0.26933,-4.7421c0.11626,-0.11468 -0.22307,-0.25293 -1.39879,0.09689c-0.63156,0.18792 -2.20706,0.76973 -2.77464,0.90718c-0.44705,0.10826 -1.4775,-2.48307 -1.99661,-6.27568c-0.02039,-0.14893 -0.90056,-5.89313 -0.65667,-6.06277c0.4341,-0.30194 3.12921,4.63592 4.26875,4.58509c0.09938,-0.00444 0.74335,0.00373 0.24619,-3.36411c-0.60558,-4.10229 -2.46471,-11.7453 -2.33461,-11.75278c1.17494,-0.06758 6.28169,-2.45943 7.47889,-2.28832c0.16495,0.02357 -0.34642,-1.67581 -0.91963,-3.11254c-0.42562,-1.0668 -0.96857,-1.98924 -0.84791,-1.95484c1.13942,0.32483 1.66063,1.01923 2.64971,1.80115c0.49823,0.39388 1.24645,0.6992 1.99169,1.21548c1.11484,0.77233 7.7009,1.56753 11.03292,1.297c6.17006,-0.50097 10.11553,-2.81577 10.11553,-2.81577c0,0 -1.40298,3.03429 -3.86411,8.19824c-0.14055,0.29489 -3.15993,0.24039 -4.70628,0.4235c-0.90347,0.10698 -0.68622,0.40805 -0.74249,0.59588c-0.10412,0.34751 1.2967,1.4685 2.4842,2.58969c1.05435,0.99547 1.98941,2.21301 1.90629,2.51724c-0.31027,1.13564 0.2903,1.14059 -0.60264,1.74296c-0.76241,0.51432 -2.97429,1.71844 -3.7943,1.78838c-1.02824,0.0877 -2.23343,-0.48617 -2.49242,-0.7191c-2.2243,-2.00051 -4.79015,-6.41261 -6.36387,-8.63199c-0.964,-1.35951 -1.47597,-1.12818 -1.47597,-1.12818c0,0 -0.76272,7.5967 0.03834,10.44271c1.22621,4.35652 4.14675,4.53205 3.87003,4.5665c-0.41222,0.05132 2.03445,-0.46023 3.57325,-1.03116c1.23904,-0.45971 1.56891,-0.97003 1.56891,-0.97003c0,0 0.43597,0.11378 0.72864,0.39903c0.22886,0.22305 0.38635,0.63586 0.57877,0.85901c0.57854,0.67091 1.23825,1.41672 1.54379,1.57606c0.0763,0.03979 0.8061,-0.16004 1.41147,-0.51421c0.8678,-0.5077 1.7767,-1.18235 1.79815,-1.03859c0.09447,0.63295 -0.45002,1.54342 -0.47969,2.09156c-0.02669,0.4933 -1.38257,2.51427 -1.36694,2.53876c0.32486,0.50888 0.14447,0.99187 0.24346,1.92447c0.06699,0.63117 0.46126,1.77709 0.44683,2.10859c-0.01522,0.34964 -14.60759,6.61646 -14.77335,6.61646c-0.35515,0 -1.46639,-0.8182 -2.81838,-1.4286z" data-paper-data="{&quot;noHover&quot;:false,&quot;origItem&quot;:[&quot;Path&quot;,{&quot;applyMatrix&quot;:true,&quot;segments&quot;:[[[237.77734,198.58463],[-0.35515,0],[0.16576,0]],[[252.50831,191.97987],[-0.01522,0.34964],[0.01443,-0.3315]],[[252.05892,189.87372],[0.06699,0.63117],[-0.09899,-0.9326]],[[251.81249,187.95257],[0.32486,0.50888],[-0.01563,-0.02448]],[[253.17357,185.42278],[-0.02669,0.4933],[0.02966,-0.54814]],[[253.65018,183.33868],[0.09447,0.63295],[-0.02146,-0.14376]],[[251.94483,184.41394],[0.8678,-0.5077],[-0.60537,0.35417]],[[250.53097,184.93258],[0.0763,0.03979],[-0.30553,-0.15934]],[[248.9,183.30766],[0.57854,0.67091],[-0.19242,-0.22314]],[[248.31982,182.45159],[0.22886,0.22305],[-0.29267,-0.28525]],[247.68298,182.09223],[[246.10757,183.07331],[1.23904,-0.45971],[-1.5388,0.57093]],[[242.5064,184.12247],[-0.41222,0.05132],[0.27672,-0.03445]],[[238.57481,179.5091],[1.22621,4.35652],[-0.80105,-2.846]],[238.57339,169.01636],[[240.05532,170.14331],[-0.964,-1.35951],[1.57371,2.21938]],[[246.47595,178.81904],[-2.2243,-2.00051],[0.25898,0.23292]],[[248.86871,179.543],[-1.02824,0.0877],[0.82001,-0.06994]],[[252.66353,177.76273],[-0.76241,0.51432],[0.89293,-0.60236]],[[253.26756,176.02624],[-0.31027,1.13564],[0.08312,-0.30423]],[[251.36629,173.52071],[1.05435,0.99547],[-1.1875,-1.12119]],[[248.89198,170.94303],[-0.10412,0.34751],[0.05627,-0.18783]],[[249.70131,170.27277],[-0.90347,0.10698],[1.54635,-0.18311]],[[254.33361,169.91581],[-0.14055,0.29489],[2.46113,-5.16395]],[258.20358,161.72424],[[248.10192,164.54934],[6.17006,-0.50097],[-3.33202,0.27053]],[[237.10241,163.25511],[1.11484,0.77233],[-0.74525,-0.51629]],[[235.11488,162.03832],[0.49823,0.39388],[-0.98908,-0.78191]],[[232.46927,160.23549],[1.13942,0.32483],[-0.12067,-0.0344]],[[233.31731,162.19026],[-0.42562,-1.0668],[0.57322,1.43673]],[[234.23833,165.30213],[0.16495,0.02357],[-1.1972,-0.17111]],[[226.7757,167.57732],[1.17494,-0.06758],[-0.1301,0.00748]],[[229.12146,179.29908],[-0.60558,-4.10229],[0.49716,3.36784]],[[228.77687,182.67528],[0.09938,-0.00444],[-1.13953,0.05083]],[[224.60637,178.0816],[0.4341,-0.30194],[-0.2439,0.16964]],[[225.26118,184.12638],[-0.02039,-0.14893],[0.51911,3.79261]],[[227.24929,190.38544],[-0.44705,0.10826],[0.56758,-0.13745]],[[230.02186,189.47577],[-0.63156,0.18792],[1.17571,-0.34982]],[[231.41857,189.37667],[0.11626,-0.11468],[-0.25529,0.2518]],[[231.68009,194.1124],[-0.29788,-1.91439],[0.18224,1.17122]],[232.15234,196.20963],[[234.96671,197.15815],[-1.27602,-0.5761],[1.35199,0.6104]]],&quot;closed&quot;:true,&quot;fillColor&quot;:[1,1,1]}]}" fill="#a75bc8" stroke-width="0.5"/><path d="M241.79657,196.83863l-14.71831,-29.64788l6.69014,-2.11267l12.95774,29.57746z" fill="#bc6dde" stroke-width="0"/><path d="M226.74722,190.2898c-1.22061,-2.45874 -2.59685,-7.66672 -2.59685,-7.66672c0,0 -0.27429,-4.05729 0.22366,-5.0747c0.2616,-0.53451 2.90964,3.9024 3.51945,3.5c0.9718,-0.64126 -0.04349,-5.98439 -0.04349,-5.98439l9.84165,24.0266l-6.08819,-2.82439l-1.15319,-6.38489c0,0 -3.40252,1.01385 -3.70305,0.40848z" fill="#bc6dde" stroke-width="0"/><path d="M252.98797,192.06619l-12.81506,-29.06041c0,0 2.10641,0.52506 3.52563,0.65793c1.59874,0.14968 5.59254,0.19576 5.59254,0.19576l3.13573,7.0264c0,0 -2.59087,-0.65421 -2.57349,0.24389c0.02198,1.13563 3.56186,4.62559 3.56186,4.62559c0,0 -0.97973,3.37098 -0.87368,5.36942c0.078,1.47003 1.29291,1.35712 1.11945,2.89277c-0.13478,1.19318 -1.45233,2.90408 -1.53418,3.47203c-0.24931,1.72989 0.8612,4.57662 0.8612,4.57662z" fill="#bc6dde" stroke-width="0"/><path d="M223.63509,176.20677c0,0 0.84323,-0.47684 1.49865,0.11614c0.74897,0.67762 2.75208,3.84461 2.75208,3.84461c0,0 -2.69411,-12.52398 -2.00766,-13.48969c1.03621,-0.93233 6.73599,-1.91279 6.73599,-1.91279c0,0 -0.7768,-1.95225 -1.07575,-3.26459c-0.40531,-1.77924 -0.54378,-4.47294 -0.41724,-4.48926c0.0868,-0.0112 0.70411,-0.40236 1.29267,0.30937c0.96896,1.17174 1.73594,3.70252 3.35121,4.27867c5.59151,1.99444 14.68819,2.08654 16.65336,1.83109c0.44342,-0.05764 5.37463,-2.69614 7.2198,-3.22437c0.38756,-0.11095 0.52909,0.58536 0.58646,0.62431c0.05628,0.03821 -2.12375,4.16038 -3.74982,7.11935c-0.7078,1.288 -1.2047,2.51754 -2.54494,3.10181c-1.03298,0.45032 -3.10355,0.35401 -2.84032,0.61537c0.63701,0.63246 1.83357,2.15769 2.74587,3.81701c0.77074,1.40185 -0.46704,2.64476 -0.20634,2.98203c0.04167,0.05391 -0.49479,1.23218 -0.64012,2.11592c-0.16538,1.00567 0.05709,1.73165 0.10546,1.79294c0.21276,0.26953 0.71727,0.19459 0.9396,0.46421c0.24913,0.30212 -0.16742,2.97682 -0.00365,3.31381c0.07246,0.1491 -0.84434,0.28141 -1.15602,0.62819c-0.55282,0.61507 -0.68191,1.5349 -0.56655,1.78113c0.97232,2.07547 1.40466,3.46843 1.03124,4.00625c-0.15436,0.22232 -3.44244,1.89227 -7.38632,3.62382c-3.25236,1.42794 -7.18974,2.95295 -8.09022,3.25948c-0.85976,0.29267 -5.41782,-2.11969 -6.46269,-2.78307c-0.15892,-0.38597 -0.55814,-0.92626 -0.72544,-2.46373c-0.18539,-1.70374 -0.19587,-3.5603 -0.35927,-3.55161c-0.75394,0.04007 -2.28186,0.76362 -2.82943,0.66857c-2.17184,-0.37701 -3.20497,-5.77127 -3.67709,-9.93613c-0.28458,-2.51049 -0.17349,-5.17881 -0.17349,-5.17881zM237.77734,198.58464c0.16576,0 14.71575,-6.25513 14.73098,-6.60477c0.01443,-0.3315 -0.3824,-1.47498 -0.44939,-2.10615c-0.09899,-0.9326 0.07843,-1.41227 -0.24643,-1.92115c-0.01563,-0.02448 1.33438,-2.03649 1.36108,-2.52979c0.02966,-0.54814 0.57108,-1.45115 0.47661,-2.08409c-0.02146,-0.14376 -0.83755,0.56755 -1.70535,1.07525c-0.60537,0.35417 -1.33756,0.55844 -1.41386,0.51864c-0.30553,-0.15934 -1.05243,-0.95402 -1.63098,-1.62492c-0.19242,-0.22314 -0.35132,-0.63302 -0.58017,-0.85607c-0.29267,-0.28525 -0.63684,-0.35935 -0.63684,-0.35935c0,0 -0.33637,0.52137 -1.5754,0.98108c-1.5388,0.57093 -4.01339,1.10048 -3.60118,1.04916c0.27672,-0.03445 -2.70537,-0.25686 -3.93158,-4.61337c-0.80105,-2.846 -0.00142,-10.49274 -0.00142,-10.49274c0,0 0.51793,-0.23255 1.48193,1.12696c1.57371,2.21938 4.19634,6.67522 6.42063,8.67573c0.25898,0.23292 1.36451,0.81167 2.39276,0.72396c0.82001,-0.06994 3.03241,-1.26595 3.79482,-1.78027c0.89293,-0.60236 0.29375,-0.60085 0.60402,-1.73649c0.08312,-0.30423 -0.84691,-1.51005 -1.90126,-2.50553c-1.1875,-1.12119 -2.57843,-2.23018 -2.47431,-2.57769c0.05627,-0.18783 -0.09414,-0.56328 0.80933,-0.67026c1.54635,-0.18311 4.49176,-0.06207 4.6323,-0.35696c2.46113,-5.16395 3.86997,-8.19157 3.86997,-8.19157c0,0 -3.9316,2.32414 -10.10166,2.8251c-3.33202,0.27053 -9.88467,-0.5219 -10.99951,-1.29423c-0.74525,-0.51629 -1.48929,-0.82291 -1.98753,-1.21679c-0.98908,-0.78191 -1.50619,-1.47801 -2.64561,-1.80284c-0.12067,-0.0344 0.42242,0.88797 0.84804,1.95477c0.57322,1.43673 1.08597,3.13545 0.92102,3.11187c-1.1972,-0.17111 -6.28769,2.20761 -7.46263,2.27519c-0.1301,0.00748 1.74017,7.61947 2.34575,11.72176c0.49716,3.36784 -0.24521,3.37176 -0.34459,3.37619c-1.13953,0.05083 -3.73639,-4.89562 -4.1705,-4.59368c-0.2439,0.16964 0.63442,5.89585 0.65481,6.04479c0.51911,3.79261 1.54106,6.36731 1.98811,6.25905c0.56758,-0.13745 2.14101,-0.72176 2.77257,-0.90967c1.17571,-0.34982 1.51298,-0.21377 1.39672,-0.0991c-0.25529,0.2518 -0.03636,2.82134 0.26152,4.73573c0.18224,1.17122 0.47225,2.09723 0.47225,2.09723c0,0 1.53836,0.37241 2.81438,0.94851c1.35199,0.6104 2.45547,1.42649 2.81062,1.42649z" fill="#000000" stroke-width="0"/><path d="M249.39934,178.61334c0,0 -0.16187,-1.27122 -0.33749,-2.10911c-0.26193,0.19286 -0.83533,0.46196 -0.83533,0.46235c0,0.08287 -0.12379,0.15459 -0.15948,0.24286c-0.03563,0.08812 0.0169,0.19281 -0.04505,0.23826c0.05051,0.36311 0.00098,0.75281 0.26331,0.93387c0.3855,0.26607 1.11404,0.23177 1.11404,0.23177zM249.10608,179.62739c-0.61189,0 -1.56853,0.23994 -1.81028,-0.69683c-0.03689,-0.14294 0.01824,-0.78414 -0.09336,-1.1527c-0.04519,-0.14924 -0.55897,-0.32258 -0.53279,-0.37899c-0.16747,-0.09196 -0.2676,-0.27971 -0.2676,-0.59394c0,-0.52238 2.21828,-0.62163 2.62191,-1.40309c0.76144,-1.47419 -0.98255,-1.65851 -0.77096,-2.43434c-0.01034,-0.04005 -0.01584,-0.08205 -0.01584,-0.12534c0,-0.27614 0.22386,-0.5 0.5,-0.5c0.16715,0 0.31513,0.08201 0.40592,0.208c0.83612,0.28605 1.40366,2.00347 0.99805,2.88401c-0.03826,0.08306 -0.25068,0.39902 -0.36689,0.52281c0.29273,0.33913 0.59079,0.7748 0.7024,1.46329c0.09578,0.59082 0.15104,1.27385 -0.07811,1.6977c-0.21501,0.39771 -0.69617,0.50941 -1.29244,0.50941z" fill="#000000" stroke-width="0.5"/><path d="M252.98591,185.95358c-0.13465,1.46801 -2.03248,3.33555 -4.56939,5.26154c-2.27836,1.7297 -5.16716,3.61017 -6.15859,3.54681c-0.54874,-0.03508 -3.04738,-0.73381 -4.71957,-1.74788c-1.96116,-1.18931 -3.08728,-2.74533 -3.09937,-3.17288c-0.02626,-0.92873 -0.63007,-1.74178 -0.80804,-4.40542c-0.18215,-2.72623 0.06174,-7.29334 0.06174,-7.29334c0,0 2.88461,0.74123 3.50126,1.19888c0.4914,0.3647 -1.34275,0.3867 -0.80333,0.88945c1.15779,1.07906 2.26398,1.78462 4.23609,2.86905c2.2021,1.21089 5.04877,2.43186 7.26104,2.60654c2.63578,0.20811 5.14402,-0.25268 5.09816,0.24726zM240.90699,191.61805c0.67876,-0.126 4.14013,-5.18316 3.72664,-5.73598c-0.26953,-0.36035 -1.53852,-0.13699 -2.65314,-0.59887c-1.59073,-0.65918 -3.11788,-1.96152 -3.11788,-1.92449c0,0.39114 0.35448,3.0671 0.87483,5.25578c0.39807,1.67431 0.95135,3.04407 1.16956,3.00357zM237.23648,182.69004c-0.04166,-0.55597 -3.04167,-3.26431 -3.16667,-3c0,0 0.75596,9.53245 1.32619,9.53008c0.45432,-0.00189 1.84048,-6.53008 1.84048,-6.53008zM242.6223,193.70218c0,0 3.57283,-2.05571 3.57283,-2.74606c0,-0.69036 -0.12657,-4.00591 -0.81693,-4.00591c-0.08848,0 -0.77202,1.23372 -1.5528,2.46546c0,0 -2.3691,3.38611 -2.55818,4.0598c-0.06889,0.24544 1.35508,0.22671 1.35508,0.22671zM247.3454,190.32685c0.53287,0 2.79062,-2.71585 2.58858,-3.37599c-0.07105,-0.23216 -3.16263,-0.68544 -3.17914,-0.62007c-0.13917,0.55118 0.17579,3.99606 0.59055,3.99606zM239.643,192.41709c0.17943,-0.18128 -0.30434,-1.06346 -0.59755,-2.42109c-0.46978,-2.17523 -0.86925,-5.00459 -1.13474,-5.00017c-0.46711,0.00778 -1.56658,4.65585 -1.80118,5.30512c-0.07874,0.21792 3.37058,2.28071 3.53347,2.11614z" fill="#000000" stroke-width="0"/><path d="M246.72381,186.29159c0.0165,-0.06537 3.17704,0.39454 3.24809,0.62669c0.20203,0.66013 -2.11578,3.4534 -2.64865,3.4534c-0.41476,0 -0.73861,-3.52891 -0.59944,-4.08009z" data-paper-data="{&quot;noHover&quot;:false,&quot;origItem&quot;:[&quot;Path&quot;,{&quot;applyMatrix&quot;:true,&quot;segments&quot;:[[[247.3454,190.32684],[-0.41476,0],[0.53287,0]],[[249.93398,186.95086],[0.20203,0.66013],[-0.07105,-0.23216]],[[246.75485,186.33078],[0.0165,-0.06537],[-0.13917,0.55118]]],&quot;closed&quot;:true,&quot;fillColor&quot;:[1,1,1]}]}" fill="#ffffff" stroke-width="0.5"/><path d="M241.23642,193.51486c0.18909,-0.67369 2.5942,-4.14891 2.5942,-4.14891c0.78079,-1.23174 1.48104,-2.46066 1.56952,-2.46066c0.69036,0 0.84344,3.37286 0.84344,4.06321c0,0.69036 -3.63687,2.7812 -3.63687,2.7812c0,0 -1.43918,0.01061 -1.37029,-0.23483z" data-paper-data="{&quot;noHover&quot;:false,&quot;origItem&quot;:[&quot;Path&quot;,{&quot;applyMatrix&quot;:true,&quot;segments&quot;:[[242.6223,193.70217],[[246.19514,190.95611],[0,0.69036],[0,-0.69036]],[[245.37821,186.9502],[0.69036,0],[-0.08848,0]],[[243.82541,189.41566],[0.78079,-1.23174],[0,0]],[[241.26722,193.47546],[0.18909,-0.67369],[-0.06889,0.24544]]],&quot;closed&quot;:true,&quot;fillColor&quot;:[1,1,1]}]}" fill="#ffffff" stroke-width="0.5"/><path d="M239.69371,188.63876c-0.52035,-2.18867 -0.85987,-4.92982 -0.85987,-5.32096c0,-0.03703 1.56075,1.25646 3.15149,1.91564c1.11462,0.46188 2.42238,0.26385 2.69191,0.6242c0.4135,0.55282 -3.10167,5.68336 -3.78043,5.80936c-0.21821,0.0405 -0.80503,-1.35393 -1.2031,-3.02824z" data-paper-data="{&quot;noHover&quot;:false,&quot;origItem&quot;:[&quot;Path&quot;,{&quot;applyMatrix&quot;:true,&quot;segments&quot;:[[[240.90699,191.61804],[-0.21821,0.0405],[0.67876,-0.126]],[[244.63362,185.88206],[0.4135,0.55282],[-0.26953,-0.36035]],[[241.98048,185.28319],[1.11462,0.46188],[-1.59073,-0.65918]],[[238.8626,183.3587],[0,-0.03703],[0,0.39114]],[[239.73743,188.61448],[-0.52035,-2.18867],[0.39807,1.67431]]],&quot;closed&quot;:true,&quot;fillColor&quot;:[1,1,1]}]}" fill="#ffffff" stroke-width="0.5"/><path d="M236.07219,190.33419c0.2346,-0.64927 1.37162,-5.38059 1.83873,-5.38837c0.26549,-0.00442 0.6981,2.91219 1.16788,5.08742c0.29321,1.35763 0.76495,2.24778 0.58552,2.42906c-0.16288,0.16457 -3.67088,-1.9102 -3.59214,-2.12811z" data-paper-data="{&quot;noHover&quot;:false,&quot;origItem&quot;:[&quot;Path&quot;,{&quot;applyMatrix&quot;:true,&quot;segments&quot;:[[[239.643,192.41708],[-0.16288,0.16457],[0.17943,-0.18128]],[[239.04545,189.99599],[0.29321,1.35763],[-0.46978,-2.17523]],[[237.91071,184.99582],[0.26549,-0.00442],[-0.46711,0.00778]],[[236.10953,190.30094],[0.2346,-0.64927],[-0.07874,0.21792]]],&quot;closed&quot;:true,&quot;fillColor&quot;:[1,1,1]}]}" fill="#ffffff" stroke-width="0.5"/><path d="M235.39331,189.27005c-0.57023,0.00238 -1.3393,-9.62745 -1.3393,-9.62745c0.125,-0.26431 3.17428,2.45433 3.21595,3.01031c0,0 -1.42233,6.61525 -1.87665,6.61714z" data-paper-data="{&quot;noHover&quot;:false,&quot;origItem&quot;:[&quot;Path&quot;,{&quot;applyMatrix&quot;:true,&quot;segments&quot;:[[[237.23648,182.69003],[0,0],[-0.04166,-0.55597]],[[234.06981,179.69003],[0.125,-0.26431],[0,0]],[[235.396,189.22011],[-0.57023,0.00238],[0.45432,-0.00189]]],&quot;closed&quot;:true,&quot;fillColor&quot;:[1,1,1]}]}" fill="#ffffff" stroke-width="0.5"/><g stroke-width="0"><path d="M241.55319,180.22869c0,-1.12967 0.91578,-2.04545 2.04545,-2.04545c1.12967,0 2.04545,0.91578 2.04545,2.04545c0,1.12967 -0.91578,2.04545 -2.04545,2.04545c-1.12967,0 -2.04545,-0.91578 -2.04545,-2.04545z" fill="url(#color-1)"/><path d="M244.075,180.20645c0,0.30059 -0.22601,0.54426 -0.50481,0.54426c-0.2788,0 -0.50481,-0.24367 -0.50481,-0.54426c0,-0.30059 0.22601,-0.54426 0.50481,-0.54426c0.2788,0 0.50481,0.24367 0.50481,0.54426z" fill="#ffffff"/></g><g stroke-width="0"><path d="M249.03897,181.10734c0,-1.12967 0.91578,-2.04545 2.04545,-2.04545c1.12967,0 2.04545,0.91578 2.04545,2.04545c0,1.12967 -0.91578,2.04545 -2.04545,2.04545c-1.12967,0 -2.04545,-0.91578 -2.04545,-2.04545z" fill="url(#color-2)"/><path d="M251.56078,181.0851c0,0.30059 -0.22601,0.54426 -0.50481,0.54426c-0.2788,0 -0.50481,-0.24367 -0.50481,-0.54426c0,-0.30059 0.22601,-0.54426 0.50481,-0.54426c0.2788,0 0.50481,0.24367 0.50481,0.54426z" fill="#ffffff"/></g></g></g></svg>