<svg version="1.1" xmlns="http://www.w3.org/2000/svg" xmlns:xlink="http://www.w3.org/1999/xlink" width="172.46072" height="301.19289" viewBox="0,0,172.46072,301.19289"><g transform="translate(-245.25776,-29.38522)"><g data-paper-data="{&quot;isPaintingLayer&quot;:true}" fill-rule="nonzero" stroke-linecap="butt" stroke-linejoin="miter" stroke-miterlimit="10" stroke-dasharray="" stroke-dashoffset="0" style="mix-blend-mode: normal"><g data-paper-data="{&quot;index&quot;:null}" stroke="#000000"><path d="M307.33354,238.35731l16.22191,-41.42461l43.09072,17.55893l-16.22191,41.42461z" fill="#ffcaa0" stroke-width="2"/><g><path d="M323.35345,197.03058l22.36825,-57.11999l43.65237,17.7878l-22.36825,57.11999z" fill="#0000c0" stroke-width="2"/><path d="M323.91003,197.46974l11.71581,-29.91777c0,0 8.19111,17.74822 15.43796,20.70122c6.8711,2.79989 26.97596,-3.41809 26.97596,-3.41809l-11.71582,29.91778c0,0 -13.95037,-5.6846 -20.98135,-8.54965c-7.10618,-2.89568 -21.43257,-8.7335 -21.43257,-8.7335z" fill="#56006b" stroke-width="0"/></g><path d="M308.18538,238.16037l16.22191,-41.42461l0.05983,32.58132l26.80899,26.40221z" fill="#ff6e5b" stroke-width="0"/></g><g data-paper-data="{&quot;index&quot;:null}" stroke="#000000"><path d="M415.87167,101.96173c-2.13923,29.81167 -14.65767,53.17357 -27.96071,52.18023c-13.30303,-0.99333 -22.35307,-25.96572 -20.21383,-55.77741c2.13923,-29.81167 14.65767,-53.17357 27.96071,-52.18023c13.30303,0.99333 22.35307,25.96572 20.21383,55.77741z" fill="#01930e" stroke-width="2"/><path d="M376.69512,89.68495c-2.13923,29.81167 24.91237,65.07567 11.60933,64.08234c-13.30302,-0.99333 -22.35307,-25.96572 -20.21383,-55.77741c2.13923,-29.81167 10.74374,-38.11661 8.60451,-8.30493z" fill="#31525b" stroke-width="0"/></g><g data-paper-data="{&quot;index&quot;:null}" stroke="#000000"><path d="M294.12291,329.16567v-83.78545h55.6656v83.78545z" fill="#273750" stroke-width="2"/><path d="M294.8393,328.46346v-83.78545l16.76646,45.7725l38.89913,38.01294z" fill="#1f1e2e" stroke-width="0"/></g><path d="M246.82301,244.99849v-105.62526h103.54581v105.62526z" data-paper-data="{&quot;index&quot;:null}" fill="#0000c0" stroke="#000000" stroke-width="2"/><g data-paper-data="{&quot;index&quot;:null}" stroke="#000000"><path d="M246.25776,329.57811v-83.78545h55.6656v83.78545z" fill="#273750" stroke-width="2"/><path d="M246.97418,328.87587v-83.78545l16.76646,45.7725l38.89913,38.01294z" fill="#1f1e2e" stroke-width="0"/></g><g data-paper-data="{&quot;index&quot;:null}" stroke="#000000"><path d="M271.29251,244.56299v-103.6593h55.6656v103.6593z" fill="#ffffff" stroke-width="2"/><path d="M272.00894,243.69421v-103.6593l16.76646,56.6297l38.89913,47.02959z" fill="#8ebbfc" stroke-width="0"/></g><g data-paper-data="{&quot;index&quot;:null}" stroke="#000000"><path d="M254.96804,88.48672c0.09143,-1.27416 2.6236,-25.28501 2.80633,-26.53273c4.61754,-31.5289 35.52609,-31.5345 74.0424,-28.65851c36.18001,2.70154 67.13155,9.23973 70.49979,38.61147c0.35941,3.13408 -2.11727,24.17967 -2.34884,27.40681c-0.82773,11.53499 0.06584,37.09036 -7.28471,45.76914c-13.97852,16.50441 -43.32248,11.38155 -69.56405,9.42211c-27.74571,-2.07176 -53.6846,-3.09541 -64.49891,-23.14332c-4.7921,-8.88376 -4.38953,-32.59733 -3.65203,-42.87496z" fill="#ffcaa0" stroke-width="2"/><path d="M253.30366,88.37193c0.09143,-1.27416 2.6236,-25.28501 2.80633,-26.53273c2.62346,-17.91321 2.20587,56.52061 44.11372,80.05403c32.84186,18.44239 94.34974,-0.47089 91.39447,3.0184c-13.97852,16.50441 -43.92203,11.43804 -70.16358,9.47859c-27.74571,-2.07176 -53.6846,-3.09541 -64.49891,-23.14332c-4.7921,-8.88376 -4.38953,-32.59733 -3.65203,-42.87496z" fill="#ff6e5b" stroke-width="0"/></g><g data-paper-data="{&quot;index&quot;:null}" stroke="#000000"><path d="M296.1567,91.09261c-2.13923,29.81167 -14.65767,53.17357 -27.96071,52.18023c-13.30303,-0.99333 -22.35307,-25.96572 -20.21383,-55.77741c2.13923,-29.81167 14.65767,-53.17357 27.96071,-52.18023c13.30303,0.99333 22.35307,25.96572 20.21383,55.77741z" fill="#01930e" stroke-width="2"/><path d="M256.98016,78.81583c-2.13923,29.81167 24.91237,65.07567 11.60933,64.08234c-13.30302,-0.99333 -22.35307,-25.96572 -20.21383,-55.77741c2.13923,-29.81167 10.74374,-38.11661 8.60451,-8.30493z" fill="#31525b" stroke-width="0"/></g><g data-paper-data="{&quot;index&quot;:null}"><path d="M417.32956,65.90693c-1.17313,16.34834 -39.65669,26.79876 -85.95544,23.34165c-46.29876,-3.4571 -82.88028,-19.51259 -81.70716,-35.86093c1.17313,-16.34834 39.65668,-26.79875 85.95543,-23.34164c46.29876,3.4571 82.88029,19.51258 81.70716,35.86093z" fill="#000000" stroke="none" stroke-width="NaN"/><path d="M416.64415,66.17615c-1.17313,16.34834 -39.65669,26.79876 -85.95544,23.34165c-46.29876,-3.4571 -82.88028,-19.51259 -81.70716,-35.86093c1.17313,-16.34834 38.24471,11.09091 84.54345,14.54802c46.29876,3.4571 84.29227,-18.3771 83.11914,-2.02874z" fill="#ff0000" stroke="#000000" stroke-width="2"/><path d="M411.14587,74.32462c-0.32284,4.49892 -34.54261,19.27529 -80.74621,14.49211c-16.16847,-1.67382 -31.34387,-4.32564 -43.60952,-7.99048c-22.77132,-6.80379 -36.4043,-15.80898 -34.02048,-19.43705c2.46206,-3.74714 33.054,18.17567 79.35274,21.63276c46.29876,3.4571 79.3463,-13.19627 79.02346,-8.69736z" fill="#900056" stroke="#000000" stroke-width="0"/></g><path d="M370.93785,122.53757c-1.04403,14.54935 -4.52661,26.14708 -7.77857,25.90426c-3.25195,-0.24282 -5.04181,-12.23425 -3.99776,-26.78358c1.04403,-14.54935 4.52662,-26.14707 7.77857,-25.90425c3.25195,0.24282 5.04181,12.23425 3.99776,26.78359z" data-paper-data="{&quot;index&quot;:null}" fill="#000000" stroke="none" stroke-width="0"/><path d="M391.8695,116.81512c-1.03986,14.49115 -4.38031,26.05206 -7.46109,25.82202c-3.08079,-0.23004 -4.73528,-12.16393 -3.69543,-26.65507c1.03986,-14.49115 4.38031,-26.05206 7.46109,-25.82202c3.08079,0.23004 4.73528,12.16393 3.69543,26.65507z" data-paper-data="{&quot;index&quot;:null}" fill="#000000" stroke="none" stroke-width="0"/><path d="M343.75727,126.56775c0.01104,0.35654 -0.14281,0.64985 -0.14281,0.64985c-2.291,4.12148 5.31322,8.61183 6.7297,12.07684c1.11975,2.73917 0.0339,4.89481 -2.5065,5.90727c-1.10348,0.43978 -2.3555,0.44435 -3.53701,0.35556c-1.74262,-0.13095 -2.94487,-0.91311 -4.45695,-1.75678c-5.73304,-4.03208 -6.32991,-10.2537 -6.12991,-16.84053c0.05684,-1.87193 0.18078,-3.56812 1.12671,-5.26261c1.84242,-3.30039 5.97397,-4.94231 8.4763,-1.26329c0.24945,0.36676 0.86765,2.47557 1.00329,2.91499c0.1156,1.04383 -0.07093,2.16243 -0.52405,3.10574z" fill="#000000" stroke="none" stroke-width="0.5"/><g data-paper-data="{&quot;index&quot;:null}" stroke="#000000"><path d="M401.56056,205.09538l-43.71201,-1.25245l1.30282,-47.31479l43.71201,1.25245z" fill="#ffcaa0" stroke-width="2"/><g><path d="M358.00825,204.00265l-60.27407,-1.72698l1.3198,-47.93148l60.27407,1.72698z" fill="#0000c0" stroke-width="2"/><path d="M358.22051,203.3183l-31.56978,-0.90454c0,0 13.50839,-13.96194 13.72749,-21.91919c0.20774,-7.54465 -12.44514,-24.65243 -12.44514,-24.65243l31.56979,0.90454c0,0 -0.42177,15.31788 -0.63435,23.03809c-0.21485,7.80278 -0.648,23.53354 -0.648,23.53354z" fill="#56006b" stroke-width="0"/></g><path d="M401.08568,204.34761l-43.71201,-1.25245l29.96125,-11.28947l15.05356,-34.77288z" fill="#ff6e5b" stroke-width="0"/></g></g></g></svg>