<svg version="1.1" xmlns="http://www.w3.org/2000/svg" xmlns:xlink="http://www.w3.org/1999/xlink" width="181.8463" height="331.97907" viewBox="0,0,181.8463,331.97907"><g transform="translate(-215.04272,-29.00831)"><g data-paper-data="{&quot;isPaintingLayer&quot;:true}" fill-rule="nonzero" stroke-linejoin="miter" stroke-miterlimit="10" stroke-dasharray="" stroke-dashoffset="0" style="mix-blend-mode: normal"><g stroke="#000000" stroke-linecap="butt"><path d="M341.28356,225.78299c-1.75405,33.29027 -9.72625,59.93225 -17.80642,59.50651c-8.08017,-0.42574 -13.2085,-27.75798 -11.45445,-61.04825c1.75405,-33.29027 9.72625,-59.93225 17.80642,-59.50651c8.08017,0.42574 13.2085,27.75798 11.45444,61.04826z" fill="#0d69be" stroke-width="2"/><path d="M352.11889,272.76204c-0.75288,14.28902 -13.24487,25.24653 -27.90163,24.47428c-14.65676,-0.77226 -25.92809,-12.98184 -25.1752,-27.27087c0.75289,-14.28903 13.24487,-25.24653 27.90163,-24.47428c14.65676,0.77225 25.92808,12.98185 25.1752,27.27087z" fill="#faddbf" stroke-width="2"/><path d="M313.05055,259.01751c-0.75289,14.28903 26.26311,38.15558 11.60634,37.38333c-14.65676,-0.77226 -25.92808,-12.98184 -25.1752,-27.27087c0.75289,-14.28903 14.32173,-24.40149 13.56884,-10.11245z" fill="#ef8b89" stroke-width="0"/></g><g stroke="#000000" stroke-linecap="butt"><path d="M307.76518,340.83533v-95.29492h29.49199v95.29492z" fill="#73fffc" stroke-width="2"/><path d="M307.43943,340.21739l1.32626,-93.78573c0,0 5.20288,68.11227 6.3799,77.52842c0.2602,2.08162 2.52228,2.78987 2.52228,2.78987l18.60659,13.13896z" fill="#59a9e6" stroke-width="0"/></g><g stroke="#000000" stroke-linecap="butt"><path d="M268.4238,338.41279v-95.29492h29.49199v95.29492z" fill="#73fffc" stroke-width="2"/><path d="M268.09805,337.79487l1.32626,-93.78573c0,0 5.20288,68.11227 6.3799,77.52842c0.2602,2.08162 2.52228,2.78987 2.52228,2.78987l18.60659,13.13896z" fill="#59a9e6" stroke-width="0"/></g><g stroke="#000000" stroke-linecap="butt"><path d="M335.22917,235.69585c0,13.80271 10.04743,36.74388 4.95001,46.45977c-6.2338,11.88187 -28.61241,9.09579 -38.9397,9.09579c-13.66287,0 -32.94407,4.17018 -38.34426,-14.83216c-2.01935,-7.10576 4.35457,-32.37264 4.35457,-40.7234c0,-30.68249 15.2177,-55.55556 33.98969,-55.55556c18.77199,0 33.98969,24.87307 33.98969,55.55556z" fill="#0d69be" stroke-width="2"/><path d="M283.96554,251.27245c0,13.80271 62.04198,20.54886 56.94455,30.26474c-6.2338,11.88186 -28.61241,9.09579 -38.9397,9.09579c-13.66287,0 -32.94406,4.17018 -38.34425,-14.83215c-2.01936,-7.10576 4.35457,-32.37265 4.35457,-40.7234c0,-9.45244 3.34855,-28.59801 5.51953,-29.96813c5.94391,-16.76415 10.4653,25.13995 10.4653,46.16315z" fill="#10157d" stroke-width="0"/></g><path d="M371.63632,338.87001c0,11.6628 -14.51982,21.11737 -32.43092,21.11737c-17.9111,0 -32.43092,-9.45457 -32.43092,-21.11737c0,-2.33142 -0.03339,-13.76009 1.08979,-15.13837c4.49546,-5.51647 17.81784,5.26144 32.14847,5.26144c17.9111,0 31.62358,-1.78588 31.62358,9.87692z" fill="#000082" stroke="#000000" stroke-width="2" stroke-linecap="butt"/><path d="M369.75004,336.13771c0,6.30841 -13.89058,10.1901 -31.80169,10.1901c-17.9111,0 -30.16566,-2.95748 -30.16566,-9.26589c0,-1.26107 -0.03338,-12.52602 1.0898,-13.27153c4.49546,-2.98386 15.55258,5.7726 29.88321,5.7726c17.9111,0 30.99434,0.26631 30.99434,6.57472z" fill="#2e0048" stroke="#000000" stroke-width="0" stroke-linecap="butt"/><path d="M328.64938,338.2252c0,11.6628 -14.51982,21.11737 -32.43092,21.11737c-17.9111,0 -32.43092,-9.45457 -32.43092,-21.11737c0,-2.33142 -0.03339,-13.76009 1.08979,-15.13837c4.49546,-5.51647 17.81784,5.26144 32.14847,5.26144c17.9111,0 31.62358,-1.78588 31.62358,9.87692z" fill="#000082" stroke="#000000" stroke-width="2" stroke-linecap="butt"/><path d="M326.7631,335.49289c0,6.30841 -13.89058,10.1901 -31.80169,10.1901c-17.9111,0 -30.16566,-2.95748 -30.16566,-9.26589c0,-1.26107 -0.03338,-12.52602 1.0898,-13.27153c4.49546,-2.98386 15.55258,5.7726 29.88321,5.7726c17.9111,0 30.99434,0.26631 30.99434,6.57472z" fill="#2e0048" stroke="#000000" stroke-width="0" stroke-linecap="butt"/><g stroke-linecap="butt"><g><g stroke="#000000"><g><path d="M218.48196,112.99756c2.50262,-46.72382 42.40852,-82.57218 89.13234,-80.06955c46.72382,2.50262 82.57218,42.40852 80.06955,89.13234c-2.50262,46.72382 -42.40852,82.57218 -89.13234,80.06955c-46.72382,-2.50262 -82.57218,-42.40852 -80.06955,-89.13234z" fill="#faddbf" stroke-width="2"/><path d="M218.75893,112.14164c0.80518,-15.03273 10.83839,-40.48944 15.51288,-43.45784c0.53384,-0.339 6.2547,-8.58804 14.12369,-14.89272c9.78061,-7.83629 22.09486,-13.99469 22.69423,-13.76525c7.81981,2.99354 -20.97024,63.82467 -21.08574,89.14467c-0.00028,0.06038 3.3474,19.90911 4.94009,20.43396c2.62771,4.89001 8.07344,19.61325 18.55729,27.32516c19.53787,14.37204 47.81921,22.26964 46.311,22.69531c-2.41261,0.68092 -14.92962,1.97334 -20.98386,1.64907c-46.72382,-2.50262 -82.57218,-42.40852 -80.06955,-89.13234z" fill="#ef8b89" stroke-width="0"/><path d="M387.1857,121.5748c-0.62173,11.6077 -2.41216,15.53393 -2.86437,13.65534c-0.46135,-1.91653 0.33847,-9.80956 -8.24612,-15.11192c-2.08022,-1.28486 -10.52731,5.72118 -13.18532,4.34892c-1.66954,-0.86195 -8.09552,-10.62374 -9.9703,-11.40115c-1.31082,-0.54356 -12.88036,7.69968 -14.2538,7.17483c-3.42541,-1.30903 -11.36304,-11.99848 -15.07368,-12.85619c-2.04334,-0.47231 -9.90329,11.33631 -11.99572,10.97002c-2.69845,-0.47238 -9.40872,-12.58967 -12.1422,-12.73609c-7.26942,-0.38937 -7.84405,6.60069 -13.39561,12.31818c-3.60754,3.71536 -13.27032,-13.78137 -16.62688,-9.51961c-4.16846,5.29262 -8.28746,10.38932 -12.71495,13.75697c-3.47352,2.64205 -12.805,-10.7972 -15.81688,-8.337c-14.54221,11.87857 -23.29586,19.42554 -22.32394,1.27972c1.95436,-36.48785 43.66498,-5.88648 86.53904,-25.14266c41.03861,-18.43181 84.02511,-4.8872 82.07076,31.60065z" fill="#ef8b89" stroke-width="0"/></g><path d="M389.16187,113.35784c-1.25601,23.44974 6.05621,9.05217 -11.40437,-1.47232c-2.13667,-1.28789 -10.79576,5.70679 -13.52553,4.33069c-1.71461,-0.86437 -8.3231,-10.63592 -10.24822,-11.41603c-1.34601,-0.54544 -13.20785,7.68213 -14.61808,7.15531c-3.51722,-1.31393 -11.67836,-12.01536 -15.48768,-12.87835c-2.09767,-0.47523 -10.14746,11.32323 -12.29536,10.95398c-2.76998,-0.47621 -9.67356,-12.60387 -12.47904,-12.75413c-7.46092,-0.39963 -8.04078,6.59016 -13.73012,12.30026c-3.69707,3.71056 -13.63825,-13.80108 -17.07697,-9.54371c-4.27048,5.28714 -8.49051,10.37845 -13.02954,13.74011c-3.56104,2.63736 -13.15651,-10.81603 -16.24404,-8.35988c-14.90746,11.859 -23.88041,19.39424 -22.90849,1.24841c1.95436,-36.48785 44.15164,-79.00859 90.01273,-76.55219c45.86109,2.4564 84.98909,46.76003 83.03474,83.24787z" fill="#873412" stroke-width="2"/><path d="M388.9767,112.18347c-1.25601,23.44974 6.05621,9.05217 -11.40437,-1.47232c-2.13667,-1.28789 -10.79576,5.70679 -13.52553,4.33069c-1.71461,-0.86437 -8.3231,-10.63592 -10.24822,-11.41603c-1.34601,-0.54544 -13.20785,7.68213 -14.61808,7.15531c-3.51722,-1.31393 -11.67836,-12.01536 -15.48768,-12.87835c-2.09767,-0.47523 -10.14746,11.32323 -12.29536,10.95398c-2.76998,-0.47621 -9.67356,-12.60387 -12.47904,-12.75413c-7.46092,-0.39963 -8.04078,6.59016 -13.73012,12.30026c-3.69707,3.71056 -13.63825,-13.80108 -17.07697,-9.54371c-4.27048,5.28714 -8.49051,10.37845 -13.02955,13.74011c-3.56104,2.63736 -13.15651,-10.81603 -16.24404,-8.35988c-14.90746,11.859 -23.88041,19.39424 -22.90849,1.24841c1.95436,-36.48785 44.80357,-5.8255 88.77662,-25.0228c42.09058,-18.37546 86.22519,-4.76936 84.27083,31.71849z" fill="#741d23" stroke-width="0"/></g><path d="M307.94572,40.6029c0.05876,0.11894 0.10521,0.25507 0.14141,0.40408c0.0802,0.26381 0.11775,0.54537 0.10499,0.83615c0.04779,1.14051 -0.17928,2.50735 -0.16064,3.00115c0.0245,0.64876 1.22857,-0.68259 1.86584,-0.5586c0.39036,0.07595 0.74871,0.80283 1.05754,0.55226c1.87416,-1.52058 3.62807,-4.29089 6.29188,-2.52266c0.8822,0.58559 0.57419,1.92413 1.10142,2.63809c0.04432,0.06002 2.61278,0.00316 3.17905,0.56718c0.97572,0.97186 0.1983,2.26574 0.66752,3.28494c0.15014,0.32613 0.59733,-0.4109 0.93306,-0.53807c1.49429,-0.56595 4.09884,-1.7899 5.79578,-0.69585c0.89416,0.57647 0.62759,2.17623 1.11015,2.64461c0.84599,0.82112 2.00379,-1.25972 3.08489,-1.72998c1.49523,-0.65042 2.18403,0.08832 3.37921,1.03973c0.20613,0.1641 0.25121,4.15141 1.28992,5.36643c0.58386,0.68297 1.69512,-0.76912 2.59305,-0.73629c0.89589,0.03275 2.74662,-0.59148 3.16236,-0.46543c0.8339,0.2528 1.48161,1.72256 2.25536,1.3218c3.95051,-2.04613 8.77688,-0.33679 6.87907,4.52878c-0.24017,0.61575 1.35072,-0.5024 1.96566,-0.26016c0.23841,0.09391 1.5367,1.16566 1.76818,1.09194c1.51403,-0.48224 2.49026,-1.14807 4.07934,-1.06683c1.31972,0.06747 2.54665,0.87814 2.77913,2.27304c0.12219,0.73309 -1.10951,2.06674 -0.37788,2.19731c1.72455,0.30781 4.40767,1.17792 3.50077,3.67048c-0.98444,2.70571 -3.41023,4.96834 -5.86749,2.74274c-0.85255,-0.77216 -2.36743,1.11762 -3.39727,0.60525c-1.3193,-0.65638 -1.86398,-2.97729 -1.72966,-4.14839c0.06209,-0.54137 -1.09175,0.31604 -1.62307,0.19509c-0.71537,-0.16285 -0.99923,-1.27065 -1.72684,-1.36469c-1.62752,-0.21036 -1.53155,3.18881 -5.37047,2.1955c-1.1331,-0.29317 -2.39574,-2.31244 -2.71601,-3.42912c-0.18591,-0.6482 1.58636,-2.5684 1.43417,-2.68229c-0.36952,-0.27652 -2.09423,2.71931 -2.52765,2.83845c-1.04273,0.28661 -2.12459,-0.49408 -3.09608,-0.96909c-0.85831,-0.41967 -1.25276,1.82554 -2.20818,1.82743c-0.84407,0.00168 -9.31422,-0.98208 -9.62217,-1.50229c-0.37543,-0.6342 -0.7274,-1.76243 -0.53195,-2.46266c0.07024,-0.25165 1.07292,-1.78641 0.89055,-1.77599c-0.64729,0.03692 -4.36613,3.21076 -6.35838,-0.15469c-1.08336,-1.83012 1.16333,-3.54133 1.25343,-5.16298c0.05564,-1.00144 -1.19693,1.61372 -1.71326,2.47359c-0.39659,0.66044 -1.50275,1.22668 -2.27745,1.21019c-2.67851,-0.05696 -1.80279,-2.5749 -2.28307,-4.11718c-0.22164,-0.71175 -1.60736,0.50993 -2.23389,0.10598c-1.53189,-0.98763 -1.23436,-2.13787 -1.28993,-3.67523c-0.02545,-0.70391 -0.69313,2.68193 -2.34431,2.76028c-0.66963,0.03177 -1.67037,-1.03818 -1.96347,-0.43527c-1.42705,2.93531 -0.78776,4.18339 -4.55265,3.49998c-0.36331,-0.06594 -1.01888,0.74223 -1.39926,0.49697c-4.21,-2.7143 -0.43488,-7.96608 -0.09866,-11.96192c0.1186,-1.4095 -0.69271,-3.56975 0.57117,-4.20483c0.47367,-0.71254 1.30105,-1.16323 2.21731,-1.11416c0.8124,0.04351 1.51339,0.47024 1.93709,1.09554c0.07029,0.08085 0.13121,0.17005 0.18043,0.26967z" fill="#ba587e" stroke="none" stroke-width="0.5"/></g><g stroke="#000000"><path d="M332.06869,151.29737c-1.52749,28.51806 -15.4648,42.5232 -32.00963,41.63703c-16.54482,-0.88617 -29.43197,-16.32809 -27.9045,-44.84614c1.52749,-28.51806 16.17799,-50.91814 32.72281,-50.03195c16.54482,0.88617 28.71879,24.72301 27.19131,53.24107z" fill="#f0f0f0" stroke-width="2"/><path d="M286.42727,129.24228c-5.80647,27.96243 30.85616,63.78325 14.31132,62.89707c-16.54482,-0.88617 -29.43197,-16.32809 -27.9045,-44.84614c1.52749,-28.51806 21.98761,-58.47635 13.59316,-18.05094z" fill="#9a99ff" stroke-width="0"/></g><path d="M312.33333,165.5389c-0.84626,15.79956 -6.21448,28.35685 -11.99027,28.04749c-5.77577,-0.30936 -9.77195,-13.36823 -8.92569,-29.1678c0.84626,-15.79956 6.21448,-28.35685 11.99027,-28.04749c5.77577,0.30936 9.77195,13.36823 8.92569,29.1678z" fill="#000000" stroke="none" stroke-width="0"/><g stroke="#000000"><path d="M328.67298,121.03777c3.90593,10.45368 7.55683,33.32504 -8.13094,32.48477c-15.68777,-0.84028 -45.0886,-25.84165 -40.03602,-35.20002c4.80745,-8.90434 7.92562,-21.02511 23.61338,-20.18484c15.68777,0.84028 20.83117,12.93759 24.55356,22.90009z" fill="#a100fe" stroke-width="2"/><path d="M327.76898,120.6346c3.75409,10.44554 7.68221,32.85635 -7.47066,32.04473c-15.15286,-0.81161 -43.95152,-25.30533 -39.0537,-34.67201c4.66022,-8.91224 6.49739,1.31142 21.65025,2.12304c15.15286,0.81161 21.2964,-9.45052 24.8741,0.50422z" fill="#99008e" stroke-width="0"/></g><g data-paper-data="{&quot;index&quot;:null}" stroke="#000000"><path d="M368.56833,100.42892c16.54482,0.88617 28.71879,24.72301 27.19131,53.24107c-1.52748,28.51805 -15.99037,42.49505 -32.53519,41.60887c-16.54482,-0.88617 -28.90642,-16.29992 -27.37892,-44.81798c1.52749,-28.51806 16.17799,-50.91814 32.72281,-50.03195z" fill="#f0f0f0" stroke-width="2"/><path d="M395.16894,152.8069c-1.52748,28.51805 -15.99037,42.49505 -32.53519,41.60887c-16.54482,-0.88617 23.73433,-32.58583 20.94795,-61.00852c-4.02829,-41.0908 13.11473,-9.11841 11.58724,19.39964z" fill="#9a99ff" stroke-width="0"/></g><path d="M360.2225,136.2634c5.77577,0.30936 9.77195,13.36823 8.92569,29.1678c-0.84626,15.79956 -6.21448,28.35685 -11.99027,28.04749c-5.77577,-0.30936 -9.77195,-13.36823 -8.92569,-29.1678c0.84626,-15.79956 6.21448,-28.35685 11.99027,-28.04749z" data-paper-data="{&quot;index&quot;:null}" fill="#000000" stroke="none" stroke-width="0"/><g data-paper-data="{&quot;index&quot;:null}" stroke="#000000"><path d="M342.45407,120.73708c4.76528,-9.50788 11.17145,-20.98657 26.85921,-20.14632c15.68777,0.84028 17.49338,13.22476 21.3222,22.59168c4.02403,9.84453 -26.68137,31.3888 -42.36914,30.54855c-15.68777,-0.84028 -10.81251,-23.01725 -5.81228,-32.99389z" fill="#a100fe" stroke-width="2"/><path d="M343.39597,120.43278c4.62057,-9.51563 9.63279,1.34403 24.78563,2.15566c15.15286,0.81161 18.07158,-9.1573 21.75315,0.20173c3.86929,9.83625 -26.4075,30.69038 -41.56036,29.87876c-15.15286,-0.81161 -9.82683,-22.25136 -4.97845,-32.23612z" fill="#99008e" stroke-width="0"/></g><path d="M269.37231,176.65874c-1.94052,5.15251 -5.70155,8.50546 -8.40048,7.48899c-2.69894,-1.01647 -3.31376,-6.01741 -1.37324,-11.16992c1.94052,-5.15251 5.70155,-8.50546 8.40048,-7.48899c2.69894,1.01647 3.31376,6.01741 1.37324,11.16992z" fill="#000000" stroke="none" stroke-width="0"/></g><g><g><path d="M297.6749,257.21357c-15.03726,1.22631 -24.43649,-5.61945 -26.34322,-20.4341c-1.49129,-11.58669 10.00273,-25.58352 25.04,-26.80982c15.03731,-1.22634 26.75345,7.59954 27.96758,22.48696c0.18987,2.32811 -0.32586,4.53305 -0.77807,6.5513c-2.43961,10.88756 -13.20055,17.17112 -25.88628,18.20567z" fill="#485e84" stroke="#000000" stroke-width="2" stroke-linecap="butt"/><path d="M284.03045,216.07535c0,0 0.02669,5.75589 1.72304,6.82161c16.27173,10.22275 30.31479,10.12054 34.95688,9.73229c1.05469,-0.0882 1.55035,-1.09575 1.55035,-1.09575c0,0 0.39213,2.0771 0.01826,4.79266c-0.39782,2.88958 -1.61514,6.49819 -3.45165,8.96239c-2.09786,2.8148 -8.63405,7.99037 -8.63405,7.99037l-20.35856,4.93838c0,0 -10.96662,-7.79028 -12.19244,-9.57753c-1.2009,-1.7509 -2.11976,-4.1672 -3.20015,-6.69696c-1.67739,-3.92784 -1.89928,-8.46189 -1.22531,-11.26199c0.86019,-3.57356 3.35371,-7.51491 5.9209,-10.33836c2.38925,-2.62776 4.89273,-4.26695 4.89273,-4.26695z" fill="#343545" stroke="none" stroke-width="0" stroke-linecap="butt"/><path d="M288.35933,240.12588c0,0 -2.58033,-8.64524 -0.74291,-13.46229c2.32595,-6.0979 10.14165,-16.44281 10.14165,-16.44281" fill="none" stroke="#000000" stroke-width="1" stroke-linecap="round"/><path d="M322.15037,225.71471c0,0 -0.93434,7.0892 -2.49667,11.09307c-1.5772,4.0421 -8.06448,11.25791 -8.06448,11.25791" fill="none" stroke="#000000" stroke-width="1" stroke-linecap="round"/><path d="M278.1172,244.05713c0,0 -2.78123,-8.83466 -0.55346,-13.96162c3.41848,-7.86716 10.01508,-17.40552 10.01508,-17.40552" fill="none" stroke="#000000" stroke-width="1" stroke-linecap="round"/><path d="M272.7611,229.74245c0,0 12.81297,-11.632 29.82679,-7.88046c18.63648,4.10934 19.7125,21.32365 19.7125,21.32365" fill="none" stroke="#000000" stroke-width="1" stroke-linecap="round"/><path d="M272.26192,239.25327c0,0 14.96836,-9.63382 29.98879,-6.35569c12.33314,2.69167 14.59589,17.1069 14.59589,17.1069" fill="none" stroke="#000000" stroke-width="1" stroke-linecap="round"/><path d="M309.98541,217.16339c-1.07308,-0.54376 -1.59398,-1.67323 -1.16352,-2.5227c0.43043,-0.84953 1.15081,-0.51039 2.22389,0.03336c1.07308,0.54376 2.09247,1.08622 1.662,1.93572c-0.43043,0.84953 -1.64933,1.0974 -2.72237,0.5536z" fill="#8fbbbe" stroke="none" stroke-width="0" stroke-linecap="butt"/><path d="M315.96283,221.30215c-0.5995,0.04887 -1.14493,-0.64045 -1.21826,-1.53968c-0.07334,-0.89925 0.02087,-1.27652 0.62035,-1.32543c0.5995,-0.04887 1.32586,0.62569 1.39916,1.52493c0.07334,0.89925 -0.2018,1.29128 -0.80128,1.34016z" fill="#8fbbbe" stroke="none" stroke-width="0" stroke-linecap="butt"/><path d="M303.78525,214.09386c-0.90196,-0.02292 -1.62071,-0.52887 -1.60546,-1.13015c0.01521,-0.60124 0.80304,-0.52743 1.70498,-0.50455c0.90196,0.02292 1.57644,-0.01388 1.56121,0.5874c-0.01521,0.60124 -0.75881,1.07019 -1.66073,1.04728z" fill="#8fbbbe" stroke="none" stroke-width="0" stroke-linecap="butt"/><path d="M280.42309,218.73703c0,0 9.37554,-4.09621 16.94894,-4.34797c4.29374,-0.14272 8.12732,1.21374 11.02222,2.27471c2.56013,0.93824 7.35333,5.43835 10.66363,9.26458c2.43722,2.81703 3.91171,5.36514 3.91171,5.36514" fill="none" stroke="#000000" stroke-width="0.5" stroke-linecap="round"/><path d="M314.24295,213.61143c0,0 0.45357,10.56277 -1.30504,15.67398c-1.48165,4.30632 -8.19702,12.96472 -8.19702,12.96472" fill="none" stroke="#000000" stroke-width="1" stroke-linecap="round"/><path d="M298.99984,241.07929c0,0 -0.30686,-9.66096 0.69305,-14.07128c1.7557,-7.74367 8.34383,-15.80427 8.34383,-15.80427" fill="none" stroke="#000000" stroke-width="1" stroke-linecap="round"/></g><g stroke="#000000" stroke-linecap="butt"><path d="M270.71112,244.41564c32.48423,7.48957 36.31899,16.34112 34.50112,24.22564c-1.81787,7.88453 -29.62521,8.20469 -62.10944,0.71511c-32.48422,-7.48959 26.21361,-49.56158 28.03149,-57.44611c5.11997,-4.91061 7.79486,1.04275 6.36645,8.77034c-1.76157,9.52994 -9.56624,23.09482 -6.78961,23.73501z" fill="#0d69be" stroke-width="2"/><path d="M297.83126,238.26351c13.94306,3.21472 22.57303,17.41472 19.27557,31.7166c-3.29744,14.30188 -17.27363,23.2898 -31.21669,20.07511c-13.94306,-3.21472 -22.57301,-17.41473 -19.27558,-31.7166c3.29744,-14.30188 17.27363,-23.2898 31.21669,-20.07509z" fill="#faddbf" stroke-width="2"/><path d="M277.53208,274.36326c13.94306,3.21472 42.12541,-19.26262 38.82797,-4.96073c-3.29744,14.30188 -17.27363,23.2898 -31.21669,20.07509c-13.94306,-3.21472 -21.55434,-18.32907 -7.61127,-15.11435z" fill="#ef8b89" stroke-width="0"/></g></g></g></g></svg>