<svg version="1.1" xmlns="http://www.w3.org/2000/svg" xmlns:xlink="http://www.w3.org/1999/xlink" width="310.32113" height="263.48571" viewBox="0,0,310.32113,263.48571"><g transform="translate(-181.20048,-67.09241)"><g data-paper-data="{&quot;isPaintingLayer&quot;:true}" fill-rule="nonzero" stroke-linejoin="miter" stroke-miterlimit="10" stroke-dasharray="" stroke-dashoffset="0" style="mix-blend-mode: normal"><g data-paper-data="{&quot;index&quot;:null}" stroke="#000000" stroke-linecap="butt"><path d="M296.83897,329.16521v-83.87989h66.27732v83.87989z" fill="#273750" stroke-width="2"/><path d="M297.69192,328.46221v-83.87989l19.9627,45.8241l46.3146,38.0558z" fill="#1f1e2e" stroke-width="0"/></g><g data-paper-data="{&quot;index&quot;:null}" stroke="#000000" stroke-linecap="butt"><path d="M239.84912,329.57812v-83.87989h66.27732v83.87989z" fill="#273750" stroke-width="2"/><path d="M240.70212,328.87508v-83.87989l19.9627,45.8241l46.3146,38.0558z" fill="#1f1e2e" stroke-width="0"/></g><g data-paper-data="{&quot;index&quot;:null}" stroke="#000000" stroke-linecap="butt"><path d="M479.13931,271.35571l-50.99189,-9.02211l11.1615,-46.40968l50.99189,9.02211z" fill="#ffcaa0" stroke-width="2"/><g><path d="M428.30213,262.51949l-70.31223,-12.44051l11.30698,-47.01457l70.31223,12.44051z" fill="#ff0008" stroke-width="2"/><path d="M428.69031,261.88269l-36.82746,-6.51597c0,0 18.67981,-11.35678 20.55691,-19.1618c1.77978,-7.40034 -9.57072,-26.51893 -9.57072,-26.51893l36.82747,6.51597c0,0 -3.61348,15.02485 -5.43465,22.59738c-1.84067,7.65352 -5.55154,23.08335 -5.55154,23.08335z" fill="#8d005e" stroke-width="0"/></g><path d="M478.73484,270.53398l-50.99189,-9.02211l37.42459,-5.79114l24.72881,-31.5964z" fill="#ff6e5b" stroke-width="0"/></g><g data-paper-data="{&quot;index&quot;:null}" stroke="#000000" stroke-linecap="butt"><path d="M448.3943,157.12127c-7.9851,29.13082 -26.991,50.21867 -42.45086,47.10104c-15.45986,-3.11765 -21.51935,-29.2602 -13.53426,-58.39102c7.9851,-29.13082 26.991,-50.21867 42.45086,-47.10104c15.45986,3.11765 21.51935,29.2602 13.53426,58.39102z" fill="#01930e" stroke-width="2"/><path d="M404.58179,138.69438c-7.9851,29.13082 17.35293,68.33829 1.89307,65.22065c-15.45985,-3.11765 -21.51935,-29.2602 -13.53426,-58.39102c7.9851,-29.13082 19.62629,-35.96045 11.64119,-6.82963z" fill="#31525b" stroke-width="0"/></g><path d="M238.96383,274.48237l28.21638,-102.93753l120.01269,24.20182l-28.21638,102.93753z" data-paper-data="{&quot;index&quot;:null}" fill="#ff0008" stroke="#000000" stroke-width="2" stroke-linecap="butt"/><g data-paper-data="{&quot;index&quot;:null}" stroke="#000000" stroke-linecap="butt"><path d="M182.44804,282.56397l11.91629,-43.47236l53.78083,10.84547l-11.91629,43.47236z" fill="#ffcaa0" stroke-width="2"/><g><path d="M194.14343,239.21915l16.43125,-59.94363l54.48181,10.98682l-16.43125,59.94363z" fill="#ff0008" stroke-width="2"/><path d="M194.8749,239.56947l8.60621,-31.3967c0,0 12.72219,16.32818 21.76686,18.15213c8.57571,1.72939 31.16924,-7.47703 31.16924,-7.47703l-8.60621,31.39671c0,0 -17.41122,-3.51115 -26.18649,-5.28079c-8.86912,-1.78855 -26.74962,-5.39434 -26.74962,-5.39434z" fill="#8d005e" stroke-width="0"/></g><path d="M183.41684,282.23976l11.91629,-43.47236l5.72057,32.24695l36.14397,22.07089z" fill="#ff6e5b" stroke-width="0"/></g><g data-paper-data="{&quot;index&quot;:null}" fill="#000000" stroke="#000000" stroke-linecap="butt"><path d="M267.44106,279.77722l27.69121,-101.02159l64.51811,13.01076l-27.69121,101.02159z" stroke-width="2"/><path d="M268.50349,279.09799l27.69121,-101.02159l4.30496,59.10754l32.52193,54.92479z" stroke-width="0"/></g><g data-paper-data="{&quot;index&quot;:null}" stroke="#000000" stroke-linecap="butt"><path d="M261.67115,117.96868c0.34129,-1.24506 7.7241,-24.57764 8.16789,-25.78191c11.21423,-30.43076 47.5585,-25.4745 92.3195,-16.44799c42.04591,8.47899 77.24007,19.91189 75.81156,49.49187c-0.15242,3.15629 -6.92594,23.5661 -7.79032,26.71954c-3.08966,11.27154 -6.72777,36.68111 -16.9631,44.08165c-19.46455,14.0736 -53.02816,4.29809 -83.52428,-1.85176c-32.24415,-6.50238 -62.55609,-11.67845 -71.59358,-33.23548c-4.00476,-9.5525 0.81946,-32.93302 3.57234,-42.97593z" fill="#ffcaa0" stroke-width="2"/><path d="M259.7352,117.58799c0.34129,-1.24506 7.7241,-24.57764 8.16789,-25.78191c6.37139,-17.2893 -7.77643,56.23497 37.18232,86.22954c35.23275,23.5058 111.02576,14.68055 106.91066,17.65594c-19.46455,14.0736 -53.74348,4.25768 -84.2396,-1.89217c-32.24415,-6.50238 -62.55609,-11.67845 -71.59358,-33.23548c-4.00476,-9.5525 0.81946,-32.93302 3.57234,-42.97593z" fill="#ff6e5b" stroke-width="0"/></g><g data-paper-data="{&quot;index&quot;:null}" stroke="#000000" stroke-linecap="butt"><path d="M309.62395,127.15714c-7.9851,29.13082 -26.991,50.21867 -42.45086,47.10104c-15.45986,-3.11765 -21.51935,-29.2602 -13.53426,-58.39102c7.9851,-29.13082 26.991,-50.21867 42.45086,-47.10104c15.45986,3.11765 21.51935,29.2602 13.53426,58.39102z" fill="#01930e" stroke-width="2"/><path d="M265.81145,108.73027c-7.9851,29.13082 17.35293,68.33829 1.89307,65.22065c-15.45985,-3.11765 -21.51935,-29.2602 -13.53426,-58.39102c7.9851,-29.13082 19.62629,-35.96045 11.64119,-6.82963z" fill="#31525b" stroke-width="0"/></g><g data-paper-data="{&quot;index&quot;:null}" stroke-linecap="butt"><path d="M456.72372,121.7086c-4.37892,15.97498 -51.54649,20.12927 -105.35171,9.27888c-53.80521,-10.85039 -93.87313,-32.59664 -89.49418,-48.57159c4.37892,-15.97498 51.54648,-20.12926 105.3517,-9.27888c53.80521,10.85039 93.87314,32.59664 89.4942,48.5716z" fill="#000000" stroke="none" stroke-width="NaN"/><path d="M455.86839,121.86476c-4.37892,15.97498 -51.54649,20.12927 -105.35171,9.27888c-53.80521,-10.85039 -93.87313,-32.59664 -89.49418,-48.57159c4.37892,-15.97498 42.93439,17.10486 96.73961,27.95525c53.80521,10.85039 102.48522,-4.6375 98.10629,11.33746z" fill="#ff0000" stroke="#000000" stroke-width="2"/><path d="M447.9083,129.03833c-1.20504,4.39618 -44.15283,13.51193 -97.60285,1.36577c-18.70428,-4.25042 -36.06144,-9.30837 -49.81137,-14.90074c-25.52688,-10.38229 -39.90475,-21.47409 -36.43611,-24.6784c3.58248,-3.30948 35.53112,23.27613 89.33634,34.12652c53.80521,10.85039 95.71904,-0.30933 94.514,4.08685z" fill="#900056" stroke="#000000" stroke-width="0"/></g><path d="M372.04671,164.30085c-3.89707,14.21707 -10.11988,25.12447 -13.89907,24.36234c-3.77919,-0.76212 -3.68362,-12.90514 0.21344,-27.12219c3.89707,-14.21707 10.1199,-25.12445 13.89907,-24.36233c3.77919,0.76212 3.68362,12.90514 -0.21344,27.1222z" data-paper-data="{&quot;index&quot;:null}" fill="#000000" stroke="none" stroke-width="0" stroke-linecap="butt"/><path d="M404.43992,165.5105c-3.88148,14.16019 -9.93043,25.054 -13.5107,24.33201c-3.58029,-0.72199 -3.33611,-12.7864 0.54537,-26.9466c3.88148,-14.16019 9.93043,-25.054 13.5107,-24.33201c3.58029,0.72199 3.33611,12.7864 -0.54537,26.9466z" data-paper-data="{&quot;index&quot;:null}" fill="#000000" stroke="none" stroke-width="0" stroke-linecap="butt"/><path d="M345.35005,132.97005l31.63738,6.38001" fill="none" stroke="#000000" stroke-width="5" stroke-linecap="round"/><path d="M389.67824,140.33469l25.7285,0.87027" fill="none" stroke="#000000" stroke-width="5" stroke-linecap="round"/><path d="M342.29576,176.83084c0,6.61216 -3.82423,11.97238 -8.54168,11.97238c-4.71744,0 -8.54168,-5.36022 -8.54168,-11.97238c0,-6.61216 3.82423,-11.97238 8.54168,-11.97238c4.71744,0 8.54168,5.36022 8.54168,11.97238z" fill="#000000" stroke="none" stroke-width="0" stroke-linecap="butt"/></g></g></svg>