<svg version="1.1" xmlns="http://www.w3.org/2000/svg" xmlns:xlink="http://www.w3.org/1999/xlink" width="173.5955" height="321.17906" viewBox="0,0,173.5955,321.17906"><g transform="translate(-227.04634,-39.80834)"><g data-paper-data="{&quot;isPaintingLayer&quot;:true}" fill-rule="nonzero" stroke-linejoin="miter" stroke-miterlimit="10" stroke-dasharray="" stroke-dashoffset="0" style="mix-blend-mode: normal"><g stroke="#000000" stroke-linecap="butt"><path d="M303.85476,250.23437c-29.55998,15.41188 -56.55556,22.08941 -60.29632,14.91467c-3.74076,-7.17477 17.18989,-25.48486 46.74986,-40.89675c29.55998,-15.41188 56.55556,-22.08941 60.29632,-14.91467c3.74076,7.17477 -17.18989,25.48486 -46.74987,40.89675z" fill="#0d69be" stroke-width="2"/><path d="M268.90607,283.44619c-12.68789,6.61518 -28.47412,1.42756 -35.25956,-11.58686c-6.78542,-13.01441 -2.00054,-28.92735 10.68738,-35.54253c12.6879,-6.61517 28.47412,-1.42756 35.25956,11.58686c6.78542,13.01442 2.00051,28.92736 -10.68738,35.54253z" fill="#faddbf" stroke-width="2"/><path d="M260.88278,242.81522c-12.6879,6.61517 -19.50787,42.01242 -26.29328,28.99799c-6.78542,-13.01441 -2.00053,-28.92735 10.68738,-35.54253c12.6879,-6.61517 28.2938,-0.07064 15.60591,6.54453z" fill="#ef8b89" stroke-width="0"/></g><g stroke="#000000" stroke-linecap="butt"><path d="M307.76518,340.83536v-95.29492h29.49199v95.29492z" fill="#73fffc" stroke-width="2"/><path d="M307.43943,340.21741l1.32626,-93.78573c0,0 5.20288,68.11227 6.3799,77.52842c0.2602,2.08162 2.52228,2.78987 2.52228,2.78987l18.60659,13.13896z" fill="#59a9e6" stroke-width="0"/></g><g stroke="#000000" stroke-linecap="butt"><path d="M268.4238,338.41282v-95.29492h29.49199v95.29492z" fill="#73fffc" stroke-width="2"/><path d="M268.09805,337.7949l1.32626,-93.78573c0,0 5.20288,68.11227 6.3799,77.52842c0.2602,2.08162 2.52228,2.78987 2.52228,2.78987l18.60659,13.13896z" fill="#59a9e6" stroke-width="0"/></g><g stroke="#000000" stroke-linecap="butt"><path d="M335.22917,235.69588c0,13.80271 10.04743,36.74388 4.95001,46.45977c-6.2338,11.88187 -28.61241,9.09579 -38.9397,9.09579c-13.66287,0 -32.94407,4.17018 -38.34426,-14.83216c-2.01935,-7.10576 4.35457,-32.37264 4.35457,-40.7234c0,-30.68249 15.2177,-55.55556 33.98969,-55.55556c18.77199,0 33.98969,24.87307 33.98969,55.55556z" fill="#0d69be" stroke-width="2"/><path d="M283.96554,251.27245c0,13.80271 62.04198,20.54886 56.94455,30.26474c-6.2338,11.88186 -28.61241,9.09579 -38.9397,9.09579c-13.66287,0 -32.94406,4.17018 -38.34425,-14.83215c-2.01936,-7.10576 4.35457,-32.37265 4.35457,-40.7234c0,-9.45244 3.34855,-28.59801 5.51953,-29.96813c5.94391,-16.76415 10.4653,25.13995 10.4653,46.16315z" fill="#10157d" stroke-width="0"/></g><g stroke-linecap="butt"><g stroke="#000000"><g><path d="M230.57345,107.75994c11.29872,-45.40613 57.26709,-73.05566 102.67322,-61.75694c45.40613,11.29872 73.05566,57.26709 61.75694,102.67322c-11.29872,45.40613 -57.26709,73.05566 -102.67322,61.75694c-45.40613,-11.29872 -73.05566,-57.26709 -61.75694,-102.67322z" fill="#faddbf" stroke-width="2"/><path d="M231.00735,106.97188c3.6352,-14.60879 18.30419,-37.70705 23.45593,-39.73729c0.58834,-0.23186 7.76678,-7.24935 16.6866,-11.95112c11.08673,-5.84398 24.34384,-9.56096 24.88895,-9.22225c7.11208,4.41916 -32.66861,58.70351 -37.5732,83.54421c-0.0117,0.05924 -0.48038,20.18284 0.98422,20.99958c1.65493,5.2989 4.21628,20.78662 13.05143,30.34301c16.46535,17.80945 42.74132,30.91589 41.17981,31.04848c-2.49786,0.21209 -15.03331,-0.88737 -20.9168,-2.3514c-45.40613,-11.29872 -73.05566,-57.26709 -61.75694,-102.67322z" fill="#ef8b89" stroke-width="0"/><path d="M394.6063,148.10518c-2.80697,11.28035 -5.30799,14.79685 -5.39656,12.86662c-0.09037,-1.96919 2.18857,-9.56829 -5.23759,-16.39928c-1.7995,-1.65529 -11.41971,3.62579 -13.77004,1.77535c-1.47627,-1.1623 -5.93899,-11.96368 -7.6328,-13.08181c-1.18428,-0.78178 -14.10464,5.12329 -15.35394,4.34802c-3.11583,-1.93355 -8.88733,-13.93188 -12.36864,-15.47624c-1.91705,-0.85043 -11.8695,9.25756 -13.85481,8.50195c-2.56031,-0.97445 -6.85646,-14.1426 -9.51285,-14.8036c-7.06442,-1.75789 -8.95135,4.99716 -15.48451,9.56085c-4.2454,2.9656 -10.42279,-16.04347 -14.52514,-12.49384c-5.09464,4.40822 -10.10365,8.63343 -15.0884,11.10245c-3.91071,1.93704 -10.53056,-13.02516 -13.95356,-11.17933c-16.52721,8.91221 -26.55078,14.66643 -22.16278,-2.96765c8.82347,-35.45884 43.98999,2.48237 89.73321,-8.31307c43.78496,-10.33329 83.43188,11.10075 74.60841,46.55958z" fill="#ef8b89" stroke-width="0"/></g><path d="M398.10163,140.41062c-5.6706,22.78841 4.2339,10.03463 -10.91973,-3.60372c-1.85436,-1.66894 -11.68059,3.56088 -14.10065,1.69308c-1.52007,-1.17319 -6.16015,-12.01871 -7.90287,-13.14901c-1.21848,-0.79029 -14.42288,5.0441 -15.70796,4.25993c-3.20504,-1.95575 -9.19377,-14.00813 -12.77096,-15.57635c-1.96985,-0.86357 -12.10677,9.19852 -14.146,8.42949c-2.62983,-0.99175 -7.11383,-14.20664 -9.84018,-14.88506c-7.25051,-1.80419 -9.14254,4.94958 -15.80959,9.47995c-4.33241,2.94395 -10.78035,-16.13244 -14.96255,-12.60268c-5.1938,4.38355 -10.30099,8.58433 -15.39412,11.02637c-3.99576,1.91588 -10.87216,-13.11017 -14.36868,-11.28262c-16.88216,8.82388 -27.11885,14.52508 -22.73084,-3.109c8.82347,-35.45884 58.30438,-69.22662 102.87213,-58.13652c44.56774,11.0901 74.6055,61.99731 65.78203,97.45615z" fill="#873412" stroke-width="2"/><path d="M398.14202,139.22242c-5.6706,22.78841 4.2339,10.03463 -10.91973,-3.60372c-1.85436,-1.66894 -11.68059,3.56088 -14.10065,1.69308c-1.52007,-1.17319 -6.16015,-12.01871 -7.90288,-13.14902c-1.21848,-0.79029 -14.42288,5.0441 -15.70796,4.25993c-3.20504,-1.95575 -9.19377,-14.00813 -12.77096,-15.57635c-1.96985,-0.86357 -12.10677,9.19852 -14.146,8.42949c-2.62983,-0.99175 -7.11383,-14.20664 -9.84018,-14.88506c-7.25051,-1.80419 -9.14254,4.94958 -15.80959,9.47995c-4.33241,2.94395 -10.78035,-16.13244 -14.96255,-12.60268c-5.1938,4.38355 -10.30099,8.58433 -15.39413,11.02637c-3.99576,1.91588 -10.87216,-13.11017 -14.36868,-11.28262c-16.88216,8.82388 -27.11885,14.52508 -22.73084,-3.109c8.82347,-35.45884 45.09647,2.7577 91.90771,-7.77198c44.80725,-10.0789 85.56991,11.63277 76.74644,47.0916z" fill="#741d23" stroke-width="0"/></g><path d="M332.1198,53.60195c0.03519,0.12791 0.05505,0.27038 0.06239,0.42354c0.02883,0.27423 0.01242,0.55781 -0.05512,0.84091c-0.16889,1.12895 -0.6505,2.42813 -0.72563,2.91654c-0.0987,0.64168 1.33554,-0.43778 1.93784,-0.19545c0.36894,0.14844 0.58327,0.93 0.93393,0.7424c2.12803,-1.13848 4.37447,-3.52685 6.65555,-1.2865c0.75545,0.74196 0.19972,1.99802 0.58233,2.79884c0.03217,0.06732 2.56498,0.4975 3.01429,1.15848c0.77419,1.13893 -0.234,2.26232 0.03388,3.3519c0.08572,0.34866 0.66428,-0.29044 1.01803,-0.35178c1.57439,-0.27298 4.36347,-0.98197 5.82274,0.41343c0.76891,0.73526 0.20446,2.25567 0.58966,2.8069c0.67532,0.96637 2.20596,-0.85779 3.35652,-1.115c1.59129,-0.35573 2.12787,0.49999 3.12142,1.66037c0.17136,0.20014 -0.53887,4.12395 0.25115,5.51357c0.44407,0.78111 1.81003,-0.43446 2.68552,-0.23232c0.87352,0.20169 2.80893,-0.06106 3.19329,0.14137c0.771,0.40603 1.12889,1.9718 1.9645,1.72469c4.26632,-1.26162 8.68205,1.3301 5.89782,5.74866c-0.35235,0.55919 1.42138,-0.23773 1.97937,0.1165c0.21632,0.13732 1.28837,1.43538 1.52961,1.40679c1.57792,-0.18704 2.66251,-0.65611 4.20751,-0.27565c1.2831,0.31597 2.33447,1.34416 2.29881,2.75785c-0.01874,0.74296 -1.48054,1.81946 -0.78684,2.08612c1.63516,0.62858 4.10515,1.99068 2.74298,4.2666c-1.47865,2.47055 -4.28876,4.23327 -6.28049,1.58291c-0.69104,-0.91954 -2.53615,0.64945 -3.45043,-0.04853c-1.17127,-0.89416 -1.26692,-3.27622 -0.91343,-4.40074c0.16341,-0.51983 -1.13183,0.10375 -1.63067,-0.11556c-0.67162,-0.29528 -0.74074,-1.43677 -1.43741,-1.6668c-1.55831,-0.51453 -2.10728,2.84139 -5.68888,1.13961c-1.05715,-0.5023 -1.91489,-2.72401 -2.01807,-3.8811c-0.05989,-0.67167 2.0437,-2.22182 1.91582,-2.36244c-0.31052,-0.34146 -2.57096,2.2739 -3.0191,2.30887c-1.07813,0.08412 -1.99272,-0.88717 -2.85677,-1.53744c-0.76339,-0.57451 -1.57556,1.55551 -2.51409,1.37658c-0.82915,-0.15807 -8.96012,-2.72682 -9.16406,-3.2959c-0.24865,-0.69379 -0.38076,-1.86823 -0.05635,-2.51883c0.11659,-0.23382 1.39158,-1.5511 1.21052,-1.57539c-0.64258,-0.08623 -4.89481,2.32658 -6.21423,-1.35506c-0.71749,-2.00205 1.81242,-3.25722 2.20775,-4.83251c0.24414,-0.97283 -1.48066,1.35808 -2.15039,2.10471c-0.5144,0.57348 -1.70772,0.92016 -2.46531,0.75739c-2.61935,-0.56278 -1.28299,-2.86951 -1.46274,-4.47481c-0.08295,-0.74083 -1.67481,0.19657 -2.21359,-0.31863c-1.31733,-1.25967 -0.80752,-2.33283 -0.57118,-3.85291c0.10821,-0.69602 -1.1881,2.50232 -2.82426,2.26681c-0.66354,-0.09551 -1.44374,-1.33549 -1.84565,-0.79894c-1.9567,2.61225 -1.56513,3.95874 -5.13268,2.57527c-0.34426,-0.1335 -1.14092,0.53602 -1.46803,0.22323c-3.62034,-3.4619 1.08035,-7.90446 2.16662,-11.76448c0.38318,-1.3616 -0.00471,-3.63634 1.35652,-4.02079c0.59994,-0.61003 1.49767,-0.89603 2.38807,-0.67446c0.78949,0.19646 1.39707,0.74812 1.69479,1.44229c0.05372,0.09268 0.09666,0.1918 0.12614,0.29894z" fill="#ba587e" stroke="none" stroke-width="0.5"/></g><g stroke="#000000" stroke-linecap="butt"><path d="M334.8608,166.86125c-6.89622,27.71381 -23.23186,38.82864 -39.3101,34.82778c-16.07824,-4.00086 -25.81057,-21.60237 -18.91435,-49.31617c6.89622,-27.71381 25.52069,-46.93695 41.59893,-42.93609c16.07824,4.00086 23.52174,29.71067 16.62552,57.42448z" fill="#f0f0f0" stroke-width="2"/><path d="M294.21731,136.56811c-10.99277,26.35853 18.22931,68.46968 2.15108,64.46882c-16.07824,-4.00086 -25.81057,-21.60237 -18.91435,-49.31617c6.89622,-27.71381 32.65557,-53.25929 16.76328,-15.15265z" fill="#9a99ff" stroke-width="0"/></g><path d="M329.09351,173.91046c-3.82064,15.35399 -11.46803,26.66862 -17.08093,25.27192c-5.6129,-1.3967 -7.06581,-14.97581 -3.24517,-30.32981c3.82064,-15.35399 11.46803,-26.66862 17.08093,-25.27192c5.6129,1.3967 7.06581,14.97581 3.24517,30.32981z" fill="#000000" stroke="none" stroke-width="0" stroke-linecap="butt"/><g stroke="#000000" stroke-linecap="butt"><path d="M337.2523,136.50578c1.85727,11.00392 1.11437,34.15292 -14.13098,30.35932c-15.24535,-3.79361 -39.38413,-33.90667 -32.652,-42.13991c6.40553,-7.83379 11.76091,-19.14554 27.00626,-15.35193c15.24535,3.79361 18.00671,16.64563 19.77671,27.13251z" fill="#a100fe" stroke-width="2"/><path d="M336.44092,135.93884c1.70971,10.96721 1.32617,33.71643 -13.39935,30.05217c-14.72553,-3.66425 -38.36908,-33.1649 -31.78733,-41.43555c6.26244,-7.86939 6.13185,2.5172 20.85738,6.18145c14.72553,3.66425 22.69993,-5.24998 24.3293,5.20191z" fill="#99008e" stroke-width="0"/></g><g data-paper-data="{&quot;index&quot;:null}" stroke="#000000" stroke-linecap="butt"><path d="M380.32661,123.81846c16.07824,4.00086 23.52174,29.71067 16.62552,57.42448c-6.89622,27.7138 -23.74261,38.70154 -39.82084,34.70069c-16.07824,-4.00086 -25.29982,-21.47527 -18.40361,-49.18908c6.89622,-27.71381 25.52069,-46.93695 41.59893,-42.93609z" fill="#f0f0f0" stroke-width="2"/><path d="M396.53542,180.28365c-6.89622,27.7138 -23.74261,38.70154 -39.82084,34.70069c-16.07824,-4.00086 29.4716,-27.506 32.11384,-55.94245c3.8199,-41.1107 14.60322,-6.47205 7.707,21.24176z" fill="#9a99ff" stroke-width="0"/></g><path d="M385.78812,157.86447c5.6129,1.3967 7.06581,14.97581 3.24517,30.32981c-3.82064,15.35399 -11.46803,26.66862 -17.08093,25.27192c-5.6129,-1.3967 -7.06581,-14.97581 -3.24517,-30.32981c3.82064,-15.35399 11.46803,-26.66862 17.08093,-25.27192z" data-paper-data="{&quot;index&quot;:null}" fill="#000000" stroke="none" stroke-width="0" stroke-linecap="butt"/><g data-paper-data="{&quot;index&quot;:null}" stroke="#000000" stroke-linecap="butt"><path d="M350.84133,138.81825c6.47831,-8.4344 14.9408,-18.49352 30.18616,-14.69991c15.24535,3.79361 14.67489,16.29602 16.66207,26.21823c2.0885,10.42813 -32.13889,25.77295 -47.38424,21.97934c-15.24535,-3.79361 -6.26172,-24.64741 0.536,-33.49765z" fill="#a100fe" stroke-width="2"/><path d="M351.82378,138.69769c6.33769,-8.46939 9.20443,3.14252 23.92995,6.80677c14.72553,3.66425 19.47789,-5.57227 21.32199,4.31433c1.93812,10.39071 -31.7378,25.13896 -46.46333,21.4747c-14.72553,-3.66425 -5.43878,-23.70883 1.21138,-32.5958z" fill="#99008e" stroke-width="0"/></g><path d="M371.63632,338.87004c0,11.6628 -14.51982,21.11737 -32.43092,21.11737c-17.9111,0 -32.43092,-9.45457 -32.43092,-21.11737c0,-2.33142 -0.03339,-13.76009 1.08979,-15.13837c4.49546,-5.51647 17.81784,5.26144 32.14847,5.26144c17.9111,0 31.62358,-1.78588 31.62358,9.87692z" fill="#000082" stroke="#000000" stroke-width="2" stroke-linecap="butt"/><path d="M369.75004,336.13774c0,6.30841 -13.89058,10.1901 -31.80169,10.1901c-17.9111,0 -30.16566,-2.95748 -30.16566,-9.26589c0,-1.26107 -0.03338,-12.52602 1.0898,-13.27153c4.49546,-2.98386 15.55258,5.7726 29.88321,5.7726c17.9111,0 30.99434,0.26631 30.99434,6.57472z" fill="#2e0048" stroke="#000000" stroke-width="0" stroke-linecap="butt"/><path d="M328.64938,338.22523c0,11.6628 -14.51982,21.11737 -32.43092,21.11737c-17.9111,0 -32.43092,-9.45457 -32.43092,-21.11737c0,-2.33142 -0.03339,-13.76009 1.08979,-15.13837c4.49546,-5.51647 17.81784,5.26144 32.14847,5.26144c17.9111,0 31.62358,-1.78588 31.62358,9.87692z" fill="#000082" stroke="#000000" stroke-width="2" stroke-linecap="butt"/><path d="M326.7631,335.49289c0,6.30841 -13.89058,10.1901 -31.80169,10.1901c-17.9111,0 -30.16566,-2.95748 -30.16566,-9.26589c0,-1.26107 -0.03338,-12.52602 1.0898,-13.27153c4.49546,-2.98386 15.55258,5.7726 29.88321,5.7726c17.9111,0 30.99434,0.26631 30.99434,6.57472z" fill="#2e0048" stroke="#000000" stroke-width="0" stroke-linecap="butt"/><g><g><path d="M322.75461,207.69874c-0.57675,15.07614 -8.49515,23.59137 -23.43146,23.71675c-11.68185,0.09808 -24.20717,-12.98398 -23.63041,-28.06015c0.57672,-15.07621 10.73757,-25.65551 25.66349,-25.08454c2.33412,0.08927 4.46179,0.86442 6.41165,1.55422c10.51867,3.72131 15.47332,15.15516 14.98676,27.8737z" fill="#485e84" stroke="#000000" stroke-width="2" stroke-linecap="butt"/><path d="M280.2822,216.33694c0,0 5.71796,0.66032 6.97848,-0.89675c12.09131,-14.93566 13.6655,-28.8906 13.83393,-33.54585c0.03828,-1.05768 -0.90293,-1.67003 -0.90293,-1.67003c0,0 2.10905,-0.14147 4.76059,0.55376c2.82147,0.73977 6.25903,2.37899 8.48649,4.49642c2.54438,2.41874 6.90304,9.5258 6.90304,9.5258l2.47385,20.80237c0,0 -9.0432,9.9587 -10.96395,10.9625c-1.8817,0.98342 -4.39037,1.60738 -7.03096,2.37818c-4.09993,1.19672 -8.62805,0.876 -11.32773,-0.12728c-3.44538,-1.28045 -7.06104,-4.22645 -9.55802,-7.11221c-2.3239,-2.68573 -3.65266,-5.36692 -3.65266,-5.36692z" fill="#343545" stroke="none" stroke-width="0" stroke-linecap="butt"/><path d="M304.67743,214.90878c0,0 -8.89137,1.53031 -13.45474,-0.86877c-5.7768,-3.03695 -15.1152,-12.03119 -15.1152,-12.03119" fill="none" stroke="#000000" stroke-width="1" stroke-linecap="round"/><path d="M294.4013,179.63956c0,0 6.92709,1.77357 10.71591,3.8025c3.82502,2.04825 10.21521,9.35019 10.21521,9.35019" fill="none" stroke="#000000" stroke-width="1" stroke-linecap="round"/><path d="M307.35848,225.54683c0,0 -9.1034,1.7072 -13.92792,-1.11644c-7.40305,-4.3328 -16.08614,-12.02043 -16.08614,-12.02043" fill="none" stroke="#000000" stroke-width="1" stroke-linecap="round"/><path d="M292.50697,229.15657c0,0 -10.02001,-14.1094 -4.26511,-30.554c6.30375,-18.01299 23.52347,-17.02726 23.52347,-17.02726" fill="none" stroke="#000000" stroke-width="1" stroke-linecap="round"/><path d="M301.89026,230.78704c0,0 -7.77891,-16.01096 -2.7319,-30.53292c4.14408,-11.92386 18.72631,-12.45035 18.72631,-12.45035" fill="none" stroke="#000000" stroke-width="1" stroke-linecap="round"/><path d="M284.45949,190.69726c-0.66792,1.00055 -1.85146,1.38295 -2.64352,0.85419c-0.79211,-0.52872 -0.36943,-1.20349 0.29849,-2.20403c0.66792,-1.00055 1.32815,-1.9479 2.12022,-1.41915c0.79211,0.52872 0.89274,1.76848 0.22481,2.76898z" fill="#8fbbbe" stroke="none" stroke-width="0" stroke-linecap="butt"/><path d="M289.28195,185.25638c-0.02301,0.60104 -0.77248,1.06033 -1.67405,1.02586c-0.90158,-0.03449 -1.26491,-0.17303 -1.24193,-0.77406c0.02301,-0.60104 0.77943,-1.24171 1.68098,-1.2072c0.90158,0.03449 1.25798,0.35444 1.23496,0.95548z" fill="#8fbbbe" stroke="none" stroke-width="0" stroke-linecap="butt"/><path d="M280.67207,196.48685c-0.13037,0.89279 -0.71847,1.54602 -1.31365,1.45914c-0.59513,-0.08685 -0.42784,-0.86024 -0.2975,-1.753c0.13037,-0.89279 0.17432,-1.56685 0.7695,-1.47997c0.59513,0.08685 0.972,0.88109 0.84164,1.77383z" fill="#8fbbbe" stroke="none" stroke-width="0" stroke-linecap="butt"/><path d="M282.49442,220.23614c0,0 -2.94823,-9.79732 -2.29451,-17.34667c0.37064,-4.28009 2.17485,-7.92442 3.57367,-10.67206c1.23701,-2.42986 6.27692,-6.65185 10.4708,-9.48198c3.08772,-2.08367 5.79356,-3.24357 5.79356,-3.24357" fill="none" stroke="#000000" stroke-width="0.5" stroke-linecap="round"/><path d="M281.44096,186.04629c0,0 10.54144,0.81005 15.4063,3.16599c4.09876,1.9849 11.894,9.68546 11.894,9.68546" fill="none" stroke="#000000" stroke-width="1" stroke-linecap="round"/><path d="M306.8937,204.45805c0,0 -9.62856,-0.8481 -13.88805,-2.36713c-7.47886,-2.66714 -14.69573,-10.17004 -14.69573,-10.17004" fill="none" stroke="#000000" stroke-width="1" stroke-linecap="round"/></g><g stroke="#000000" stroke-linecap="butt"><path d="M306.8307,232.94278c11.31219,-31.35846 20.55807,-34.10962 28.16935,-31.36393c7.61129,2.74568 4.6111,30.39255 -6.70111,61.75102c-11.3122,31.35846 -46.07959,-31.94019 -53.69087,-34.68588c-4.26461,-5.66934 1.96542,-7.61474 9.46735,-5.27446c9.25165,2.88612 21.78835,12.25365 22.75527,9.57325z" fill="#0d69be" stroke-width="2"/><path d="M303.95859,205.28229c4.85549,-13.45985 19.98379,-20.33376 33.79003,-15.35332c13.80624,4.98044 21.06227,19.92924 16.20679,33.38909c-4.85549,13.45985 -19.9838,20.33376 -33.79003,15.35332c-13.80624,-4.98043 -21.06225,-19.92924 -16.20676,-33.3891z" fill="#faddbf" stroke-width="2"/><path d="M337.37825,229.74398c4.85549,-13.45985 -14.09845,-44.12292 -0.2922,-39.1425c13.80624,4.98044 21.06226,19.92925 16.20676,33.3891c-4.85549,13.45985 -20.77006,19.21326 -15.91457,5.75341z" fill="#ef8b89" stroke-width="0"/></g></g><path d="M263.75165,163.09797c0.08311,-0.24642 0.45249,-1.10659 1.49535,-0.84709c1.21301,0.30184 0.91117,1.51485 0.91117,1.51485l-0.13403,0.38408c-1.12575,2.11458 -2.47605,4.08165 -3.67328,6.15258c-1.24561,1.55831 -2.66338,3.62045 -4.54973,4.45949c-3.81987,1.69904 -7.71066,-2.14496 -8.34236,-5.7034c-0.80847,-4.55418 1.12933,-9.85825 3.37142,-13.79372c0,0 0.62346,-1.08341 1.70689,-0.45994c1.08341,0.62346 0.45994,1.70689 0.45994,1.70689c-1.60621,2.75801 -3.42974,7.07933 -3.30681,10.34275c0.07976,2.1175 1.33865,6.02801 4.19534,5.92324c1.8019,-0.06609 3.42018,-2.66921 4.40089,-3.88532c1.11997,-1.95587 2.39714,-3.80681 3.4652,-5.79439z" fill="#000000" stroke="none" stroke-width="0.5" stroke-linecap="butt"/></g></g></svg>