<svg version="1.1" xmlns="http://www.w3.org/2000/svg" xmlns:xlink="http://www.w3.org/1999/xlink" width="254.90987" height="297.08315" viewBox="0,0,254.90987,297.08315"><g transform="translate(-177.29038,-33.49496)"><g data-paper-data="{&quot;isPaintingLayer&quot;:true}" fill-rule="nonzero" stroke-linejoin="miter" stroke-miterlimit="10" stroke-dasharray="" stroke-dashoffset="0" style="mix-blend-mode: normal"><g data-paper-data="{&quot;index&quot;:null}" stroke="#000000" stroke-linecap="butt"><path d="M370.37548,248.36382v-43.23086h60.23698v43.23086z" fill="#ffcaa0" stroke-width="2"/><g><path d="M370.17814,205.29512v-59.61063h61.02211v59.61063z" fill="#ff0008" stroke-width="2"/><path d="M371.05644,205.48624v-31.22228c0,0 18.25346,12.96926 28.38392,12.96926c9.60519,0 30.90693,-12.96926 30.90693,-12.96926v31.22229c0,0 -19.50137,0 -29.33005,0c-9.93381,0 -29.9608,0 -29.9608,0z" fill="#8d005e" stroke-width="0"/></g><path d="M371.30943,247.87419v-43.23086l15.45346,29.30092l44.78352,13.92995z" fill="#ff6e5b" stroke-width="0"/></g><g data-paper-data="{&quot;index&quot;:null}" stroke="#000000" stroke-linecap="butt"><path d="M427.45636,97.21367c0,28.969 -14.03719,52.45301 -31.35294,52.45301c-17.31577,0 -31.35294,-23.48402 -31.35294,-52.45301c0,-28.969 14.03719,-52.45301 31.35294,-52.45301c17.31577,0 31.35294,23.48402 31.35294,52.45301z" fill="#01930e" stroke-width="2"/><path d="M375.59382,88.17496c0,28.969 38.3,61.10119 20.98426,61.10119c-17.31576,0 -31.35294,-23.48402 -31.35294,-52.45301c0,-28.969 10.3687,-37.61717 10.3687,-8.64817z" fill="#31525b" stroke-width="0"/></g><g data-paper-data="{&quot;index&quot;:null}" stroke="#000000" stroke-linecap="butt"><path d="M300.71968,329.17838v-81.19985h72.26323v81.19985z" fill="#273750" stroke-width="2"/><path d="M301.64966,328.49785v-81.19985l21.76565,44.35997l50.49754,36.83988z" fill="#1f1e2e" stroke-width="0"/></g><path d="M239.31651,247.60859v-102.36569h134.41968v102.36569z" data-paper-data="{&quot;index&quot;:null}" fill="#ff0008" stroke="#000000" stroke-width="2" stroke-linecap="butt"/><g data-paper-data="{&quot;index&quot;:null}" stroke="#000000" stroke-linecap="butt"><path d="M238.58274,329.57811v-81.19985h72.26323v81.19985z" fill="#273750" stroke-width="2"/><path d="M239.51277,328.89754v-81.19985l21.76565,44.35997l50.49754,36.83988z" fill="#1f1e2e" stroke-width="0"/></g><g data-paper-data="{&quot;index&quot;:null}" stroke="#000000" stroke-linecap="butt"><path d="M178.48774,248.05571v-43.23086h60.23698v43.23086z" fill="#ffcaa0" stroke-width="2"/><g><path d="M178.29038,204.98701v-59.61063h61.02211v59.61063z" fill="#ff0008" stroke-width="2"/><path d="M179.16868,205.17814v-31.22228c0,0 18.25346,12.96926 28.38392,12.96926c9.60519,0 30.90693,-12.96926 30.90693,-12.96926v31.22229c0,0 -19.50137,0 -29.33005,0c-9.93381,0 -29.9608,0 -29.9608,0z" fill="#8d005e" stroke-width="0"/></g><path d="M179.42166,247.56608v-43.23086l15.45346,29.30092l44.78352,13.92995z" fill="#ff6e5b" stroke-width="0"/></g><g data-paper-data="{&quot;index&quot;:null}" fill="#000000" stroke="#000000" stroke-linecap="butt"><path d="M271.08201,247.18653v-100.4604h72.26323v100.4604z" stroke-width="2"/><path d="M272.01205,246.34455v-100.4604l21.76565,54.88212l50.49754,45.57827z" stroke-width="0"/></g><g data-paper-data="{&quot;index&quot;:null}" stroke="#000000" stroke-linecap="butt"><path d="M217.88213,95.8021c0,-1.23815 1.04766,-24.62869 1.16832,-25.84786c3.04913,-30.80764 43.06598,-33.04381 93.20034,-33.04381c47.09335,0 87.7738,4.08569 94.86346,32.23198c0.7565,3.00331 -0.4948,23.52377 -0.4948,26.6597c0,11.20894 3.53115,35.8451 -5.17931,44.76411c-16.56468,16.96128 -55.03231,14.12756 -89.18938,14.12756c-36.11491,0 -69.79317,0.88266 -85.65704,-17.71425c-7.0297,-8.24078 -8.71164,-31.1903 -8.71164,-41.1774z" fill="#ffcaa0" stroke-width="2"/><path d="M215.7166,95.81127c0,-1.23815 1.04766,-24.62869 1.16832,-25.84786c1.73237,-17.50343 8.10703,54.47104 64.55164,74.19278c44.23386,15.4553 122.11111,-7.26456 118.60908,-3.67869c-16.56468,16.96128 -55.80329,14.22542 -89.96035,14.22542c-36.11491,0 -69.79317,0.88266 -85.65704,-17.71425c-7.0297,-8.24078 -8.71164,-31.1903 -8.71164,-41.1774z" fill="#ff6e5b" stroke-width="0"/></g><g data-paper-data="{&quot;index&quot;:null}" stroke="#000000" stroke-linecap="butt"><path d="M271.45131,95.34815c0,28.969 -14.03719,52.45301 -31.35294,52.45301c-17.31577,0 -31.35294,-23.48402 -31.35294,-52.45301c0,-28.969 14.03719,-52.45301 31.35294,-52.45301c17.31577,0 31.35294,23.48402 31.35294,52.45301z" fill="#01930e" stroke-width="2"/><path d="M219.58876,86.30945c0,28.969 38.3,61.10119 20.98426,61.10119c-17.31576,0 -31.35294,-23.48402 -31.35294,-52.45301c0,-28.969 10.3687,-37.61717 10.3687,-8.64817z" fill="#31525b" stroke-width="0"/></g><g data-paper-data="{&quot;index&quot;:null}" stroke-linecap="butt"><path d="M425.99421,62.25951c0,15.88623 -48.85386,28.76457 -109.11815,28.76457c-60.26429,0 -109.11814,-12.87835 -109.11814,-28.76457c0,-15.88623 48.85385,-28.76456 109.11814,-28.76456c60.26429,0 109.11815,12.87834 109.11815,28.76457z" fill="#000000" stroke="none" stroke-width="NaN"/><path d="M425.13182,62.56922c0,15.88623 -48.85386,28.76457 -109.11815,28.76457c-60.26429,0 -109.11814,-12.87835 -109.11814,-28.76457c0,-15.88623 50.54592,7.95976 110.81021,7.95976c60.26429,0 107.42609,-23.846 107.42609,-7.95976z" fill="#ff0000" stroke="#000000" stroke-width="2"/><path d="M418.77024,70.84196c0,4.37175 -42.93163,21.12361 -103.19593,19.83505c-21.08887,-0.45092 -40.98286,-1.91882 -57.20372,-4.57584c-30.11419,-4.93278 -48.6015,-12.65286 -45.85222,-16.33164c2.83951,-3.7995 44.48372,15.18219 104.74801,15.18219c60.26429,0 101.50384,-18.4815 101.50384,-14.10976z" fill="#900056" stroke="#000000" stroke-width="0"/></g><path d="M342.78893,118.09117c0,14.13809 -3.4314,25.59928 -7.66427,25.59928c-4.23287,0 -7.66427,-11.46118 -7.66427,-25.59927c0,-14.13809 3.43141,-25.59927 7.66427,-25.59927c4.23287,0 7.66427,11.46118 7.66427,25.59928z" data-paper-data="{&quot;index&quot;:null}" fill="#000000" stroke="none" stroke-width="0" stroke-linecap="butt"/><path d="M373.20379,114.20383c0,14.08152 -3.25082,25.49687 -7.26089,25.49687c-4.01008,0 -7.26089,-11.41534 -7.26089,-25.49687c0,-14.08152 3.25082,-25.49687 7.26089,-25.49687c4.01008,0 7.26089,11.41534 7.26089,25.49687z" data-paper-data="{&quot;index&quot;:null}" fill="#000000" stroke="none" stroke-width="0" stroke-linecap="butt"/><path d="M304.38094,139.19807c-0.60444,-1.54255 -1.16403,-3.09402 -1.83195,-4.62111c-0.56811,-1.03703 -0.98198,-1.75746 -1.48491,-2.82826c-1.14581,-2.43966 -4.86665,-3.92768 -5.42308,-0.23045c-0.50198,3.3354 0.43119,7.27518 2.11635,10.33542c0,0 0.56787,1.0379 -0.79502,1.47036c-1.36291,0.43246 -1.93078,-0.60545 -1.93078,-0.60545c-1.91328,-3.51704 -3.69934,-9.27231 -1.78981,-12.98889c1.85741,-3.61515 7.72493,-3.62585 9.94728,-0.20524c0.85857,1.32151 1.3759,2.89238 2.12543,4.26399c0.7111,1.62344 1.30695,3.27137 1.95275,4.91074l0.06227,0.43564c0,0 0,1.12439 -1.47647,1.12439c-1.26377,0 -1.44582,-0.82377 -1.47204,-1.06112z" data-paper-data="{&quot;index&quot;:null}" fill="#000000" stroke="none" stroke-width="0.5" stroke-linecap="butt"/><path d="M311.0613,94.03673h35.43531" fill="none" stroke="#000000" stroke-width="5" stroke-linecap="round"/><path d="M384.74425,87.61165l-27.5608,4.06922" fill="none" stroke="#000000" stroke-width="5" stroke-linecap="round"/></g></g></svg>