<svg version="1.1" xmlns="http://www.w3.org/2000/svg" xmlns:xlink="http://www.w3.org/1999/xlink" width="173.61379" height="312.24999" viewBox="0,0,173.61379,312.24999"><g transform="translate(-227.21801,-48.73739)"><g data-paper-data="{&quot;isPaintingLayer&quot;:true}" fill-rule="nonzero" stroke-linejoin="miter" stroke-miterlimit="10" stroke-dasharray="" stroke-dashoffset="0" style="mix-blend-mode: normal"><g stroke="#000000" stroke-linecap="butt"><path d="M333.69255,221.13966c17.77824,28.20023 26.64162,54.55913 19.7969,58.87424c-6.84472,4.31511 -26.80558,-15.04762 -44.58382,-43.24785c-17.77824,-28.20023 -26.64162,-54.55913 -19.7969,-58.87424c6.84472,-4.31511 26.80558,15.04762 44.58382,43.24786z" fill="#0d69be" stroke-width="2"/><path d="M369.65185,253.25452c7.63087,12.10425 3.75195,28.26193 -8.66381,36.08919c-12.41576,7.82725 -28.66677,4.36007 -36.29764,-7.74419c-7.63087,-12.10426 -3.75195,-28.26193 8.66381,-36.08919c12.41576,-7.82726 28.66677,-4.36006 36.29764,7.74419z" fill="#faddbf" stroke-width="2"/><path d="M329.81336,264.57453c7.63087,12.10426 43.46735,16.00589 31.05159,23.83315c-12.41576,7.82725 -28.66676,4.36006 -36.29764,-7.74419c-7.63087,-12.10426 -2.38483,-28.19321 5.24604,-16.08895z" fill="#ef8b89" stroke-width="0"/></g><g stroke="#000000" stroke-linecap="butt"><path d="M307.76518,340.83533v-95.29492h29.49199v95.29492z" fill="#73fffc" stroke-width="2"/><path d="M307.43943,340.21739l1.32626,-93.78573c0,0 5.20288,68.11227 6.3799,77.52842c0.2602,2.08162 2.52228,2.78987 2.52228,2.78987l18.60659,13.13896z" fill="#59a9e6" stroke-width="0"/></g><g stroke="#000000" stroke-linecap="butt"><path d="M268.4238,338.41279v-95.29492h29.49199v95.29492z" fill="#73fffc" stroke-width="2"/><path d="M268.09805,337.79487l1.32626,-93.78573c0,0 5.20288,68.11227 6.3799,77.52842c0.2602,2.08162 2.52228,2.78987 2.52228,2.78987l18.60659,13.13896z" fill="#59a9e6" stroke-width="0"/></g><g stroke="#000000" stroke-linecap="butt"><path d="M335.22917,235.69585c0,13.80271 10.04743,36.74388 4.95001,46.45977c-6.2338,11.88187 -28.61241,9.09579 -38.9397,9.09579c-13.66287,0 -32.94407,4.17018 -38.34426,-14.83216c-2.01935,-7.10576 4.35457,-32.37264 4.35457,-40.7234c0,-30.68249 15.2177,-55.55556 33.98969,-55.55556c18.77199,0 33.98969,24.87307 33.98969,55.55556z" fill="#0d69be" stroke-width="2"/><path d="M283.96554,251.27245c0,13.80271 62.04198,20.54886 56.94455,30.26474c-6.2338,11.88186 -28.61241,9.09579 -38.9397,9.09579c-13.66287,0 -32.94406,4.17018 -38.34425,-14.83215c-2.01936,-7.10576 4.35457,-32.37265 4.35457,-40.7234c0,-9.45244 3.34855,-28.59801 5.51953,-29.96813c5.94391,-16.76415 10.4653,25.13995 10.4653,46.16315z" fill="#10157d" stroke-width="0"/></g><path d="M371.63632,338.87001c0,11.6628 -14.51982,21.11737 -32.43092,21.11737c-17.9111,0 -32.43092,-9.45457 -32.43092,-21.11737c0,-2.33142 -0.03339,-13.76009 1.08979,-15.13837c4.49546,-5.51647 17.81784,5.26144 32.14847,5.26144c17.9111,0 31.62358,-1.78588 31.62358,9.87692z" fill="#000082" stroke="#000000" stroke-width="2" stroke-linecap="butt"/><path d="M369.75004,336.13771c0,6.30841 -13.89058,10.1901 -31.80169,10.1901c-17.9111,0 -30.16566,-2.95748 -30.16566,-9.26589c0,-1.26107 -0.03338,-12.52602 1.0898,-13.27153c4.49546,-2.98386 15.55258,5.7726 29.88321,5.7726c17.9111,0 30.99434,0.26631 30.99434,6.57472z" fill="#2e0048" stroke="#000000" stroke-width="0" stroke-linecap="butt"/><path d="M328.64938,338.2252c0,11.6628 -14.51982,21.11737 -32.43092,21.11737c-17.9111,0 -32.43092,-9.45457 -32.43092,-21.11737c0,-2.33142 -0.03339,-13.76009 1.08979,-15.13837c4.49546,-5.51647 17.81784,5.26144 32.14847,5.26144c17.9111,0 31.62358,-1.78588 31.62358,9.87692z" fill="#000082" stroke="#000000" stroke-width="2" stroke-linecap="butt"/><path d="M326.7631,335.49289c0,6.30841 -13.89058,10.1901 -31.80169,10.1901c-17.9111,0 -30.16566,-2.95748 -30.16566,-9.26589c0,-1.26107 -0.03338,-12.52602 1.0898,-13.27153c4.49546,-2.98386 15.55258,5.7726 29.88321,5.7726c17.9111,0 30.99434,0.26631 30.99434,6.57472z" fill="#2e0048" stroke="#000000" stroke-width="0" stroke-linecap="butt"/><g stroke-linecap="butt"><g><g stroke="#000000"><g><path d="M231.55976,113.59277c12.96995,-44.9573 59.92925,-70.88817 104.88655,-57.91822c44.9573,12.96995 70.88817,59.92925 57.91822,104.88655c-12.96995,44.9573 -59.92925,70.88817 -104.88655,57.91822c-44.9573,-12.96995 -70.88817,-59.92925 -57.91822,-104.88655z" fill="#faddbf" stroke-width="2"/><path d="M232.02251,112.8213c4.1729,-14.46438 19.68594,-37.00444 24.90923,-38.8428c0.59651,-0.20995 8.02952,-6.9572 17.1171,-11.32593c11.29524,-5.43004 24.68072,-8.65427 25.21294,-8.29564c6.94381,4.67912 -34.81691,57.4554 -40.63666,82.09776c-0.01388,0.05876 -1.22634,20.15128 0.20706,21.02161c1.45787,5.35647 3.44478,20.9283 11.92053,30.80485c15.79556,18.40609 41.56894,32.47517 40.00359,32.54993c-2.504,0.11958 -14.99021,-1.44264 -20.81555,-3.12322c-44.9573,-12.96995 -70.88817,-59.92925 -57.91822,-104.88655z" fill="#ef8b89" stroke-width="0"/><path d="M393.98862,159.97576c-3.22215,11.16884 -5.85149,14.59046 -5.86863,12.65828c-0.01749,-1.97119 2.54087,-9.48082 -4.62762,-16.58173c-1.73707,-1.72069 -11.54597,3.20105 -13.82627,1.26497c-1.43229,-1.21609 -5.49256,-12.1751 -7.14386,-13.3551c-1.15456,-0.82503 -14.28443,4.59825 -15.50422,3.77732c-3.0422,-2.04744 -8.36611,-14.25098 -11.78793,-15.923c-1.8843,-0.92074 -12.20369,8.81234 -14.15971,7.98383c-2.52253,-1.06846 -6.32883,-14.38645 -8.95896,-15.14523c-6.99459,-2.0179 -9.13001,4.66275 -15.82745,8.98175c-4.35216,2.80659 -9.82243,-16.4179 -14.05323,-13.02238c-5.25416,4.21683 -10.41598,8.25393 -15.48861,10.53694c-3.97966,1.79111 -10.04173,-13.40564 -13.53065,-11.68763c-16.84545,8.295 -27.07494,13.67465 -22.03789,-3.78511c10.12857,-35.10833 43.86812,4.10726 89.97924,-4.98938c44.1371,-8.70721 82.96435,14.17816 72.83579,49.28649z" fill="#ef8b89" stroke-width="0"/></g><path d="M397.76608,152.4157c-6.50935,22.56315 3.85996,10.18432 -10.77901,-4.00503c-1.79138,-1.73636 -11.80427,3.12653 -14.15361,1.17054c-1.47565,-1.2286 -5.71153,-12.23827 -7.41127,-13.43224c-1.18843,-0.8348 -14.59953,4.50734 -15.85473,3.6762c-3.13054,-2.07292 -8.66951,-14.33851 -12.18628,-16.03792c-1.93657,-0.93582 -12.43862,8.74456 -14.44802,7.90066c-2.59136,-1.08832 -6.58366,-14.45997 -9.28306,-15.23873c-7.17884,-2.07106 -9.31931,4.60814 -16.14931,8.88889c-4.4383,2.78174 -10.17645,-16.52003 -14.48632,-13.14732c-5.35233,4.1885 -10.61136,8.19757 -15.79131,10.44961c-4.06387,1.76682 -10.37996,-13.50321 -13.94166,-11.80621c-17.19689,8.19361 -27.63739,13.51239 -22.60034,-3.94738c10.12857,-35.10833 60.82426,-67.02339 104.95146,-54.29293c44.12719,12.73046 72.26204,64.71355 62.13348,99.82188z" fill="#873412" stroke-width="2"/><path d="M397.85037,151.22981c-6.50935,22.56315 3.85996,10.18432 -10.77901,-4.00503c-1.79138,-1.73636 -11.80427,3.12653 -14.15361,1.17054c-1.47565,-1.2286 -5.71153,-12.23827 -7.41127,-13.43224c-1.18843,-0.8348 -14.59953,4.50734 -15.85473,3.6762c-3.13054,-2.07292 -8.66951,-14.33851 -12.18628,-16.03792c-1.93657,-0.93582 -12.43862,8.74456 -14.44802,7.90066c-2.59136,-1.08832 -6.58366,-14.45997 -9.28306,-15.23873c-7.17884,-2.07106 -9.31931,4.60814 -16.14931,8.88889c-4.4383,2.78174 -10.17645,-16.52003 -14.48632,-13.14732c-5.35233,4.1885 -10.61136,8.19757 -15.79132,10.44961c-4.06387,1.76682 -10.37996,-13.50321 -13.94166,-11.80621c-17.19689,8.19361 -27.63739,13.51239 -22.60034,-3.94738c10.12857,-35.10833 44.96366,4.42332 92.13224,-4.36825c45.14929,-8.4152 85.08125,14.78887 74.95268,49.8972z" fill="#741d23" stroke-width="0"/></g><path d="M335.03923,63.22664c0.03044,0.12913 0.04501,0.27223 0.04669,0.42556c0.01867,0.27511 -0.00821,0.55788 -0.08618,0.8383c-0.21052,1.12193 -0.73984,2.40241 -0.83298,2.88771c-0.12236,0.63759 1.35082,-0.38809 1.94374,-0.12366c0.3632,0.16198 0.54848,0.95093 0.90584,0.77642c2.16867,-1.05901 4.50189,-3.36269 6.69857,-1.03953c0.7275,0.76938 0.1257,2.00404 0.47844,2.81846c0.02965,0.06846 2.54483,0.592 2.96939,1.26915c0.73155,1.16678 -0.3175,2.25212 -0.09009,3.35086c0.07276,0.35159 0.67457,-0.26568 1.03034,-0.3139c1.5834,-0.21457 4.3968,-0.81995 5.80347,0.62845c0.7412,0.76319 0.12091,2.26169 0.48547,2.82678c0.63913,0.99068 2.23617,-0.77564 3.39545,-0.99012c1.60336,-0.29665 2.10792,0.57833 3.05789,1.77466c0.16384,0.20634 -0.69099,4.1012 0.04711,5.51908c0.41489,0.79699 1.82486,-0.36724 2.69228,-0.13286c0.86546,0.23385 2.80926,0.04285 3.18588,0.25935c0.75546,0.43426 1.05521,2.01219 1.89938,1.79615c4.31005,-1.10301 8.62693,1.65022 5.68123,5.96281c-0.37278,0.54577 1.4292,-0.18501 1.97371,0.18961c0.2111,0.14522 1.23441,1.48204 1.47655,1.46239c1.58376,-0.12857 2.68495,-0.55721 4.21483,-0.11988c1.27054,0.3632 2.28318,1.42956 2.19526,2.84097c-0.0462,0.74176 -1.54681,1.76347 -0.86344,2.0556c1.6108,0.68861 4.02873,2.14111 2.58334,4.3651c-1.56899,2.41418 -4.44235,4.0718 -6.33472,1.3496c-0.65656,-0.94446 -2.55842,0.55523 -3.44627,-0.17608c-1.1374,-0.93686 -1.14491,-3.32082 -0.75008,-4.4315c0.18252,-0.51344 -1.13489,0.06183 -1.62528,-0.17578c-0.66025,-0.31991 -0.68711,-1.46317 -1.37479,-1.71881c-1.53822,-0.57179 -2.2109,2.76153 -5.72713,0.92848c-1.03786,-0.54104 -1.81286,-2.79295 -1.87318,-3.95307c-0.03502,-0.67342 2.12446,-2.14473 2.00186,-2.28999c-0.29768,-0.3527 -2.65328,2.17728 -3.10241,2.19566c-1.0805,0.0442 -1.95855,-0.96025 -2.79797,-1.64202c-0.74163,-0.60234 -1.632,1.49618 -2.56327,1.28268c-0.82273,-0.18862 -8.85316,-3.05627 -9.03592,-3.6325c-0.22282,-0.70251 -0.31142,-1.88103 0.03683,-2.51919c0.12516,-0.22934 1.44798,-1.49859 1.26794,-1.52955c-0.63896,-0.10993 -4.97749,2.144 -6.15988,-1.58391c-0.64297,-2.02721 1.93162,-3.18798 2.38492,-4.74758c0.27994,-0.96313 -1.52986,1.3024 -2.22674,2.02376c-0.53525,0.55406 -1.74058,0.85639 -2.49163,0.66571c-2.59675,-0.65925 -1.17601,-2.91499 -1.29628,-4.52584c-0.0555,-0.74339 -1.68093,0.1345 -2.2003,-0.40027c-1.26985,-1.30751 -0.72071,-2.36109 -0.42832,-3.8714c0.13387,-0.69154 -1.27981,2.45667 -2.90615,2.16083c-0.65956,-0.11998 -1.39337,-1.38797 -1.81484,-0.86664c-2.05196,2.53811 -1.71044,3.89816 -5.22439,2.38372c-0.33909,-0.14614 -1.15996,0.49347 -1.47528,0.16879c-3.48985,-3.5934 1.37189,-7.8591 2.60015,-11.67632c0.43326,-1.3465 0.12975,-3.63402 1.50426,-3.96788c0.62209,-0.58743 1.52977,-0.84004 2.41138,-0.5857c0.78169,0.22551 1.36845,0.79927 1.6403,1.50397c0.05026,0.09461 0.0895,0.19524 0.115,0.3034z" fill="#ba587e" stroke="none" stroke-width="0.5"/></g><g stroke="#000000"><path d="M333.59045,176.50984c-7.91626,27.43986 -24.65172,37.94305 -40.57102,33.35042c-15.9193,-4.59264 -24.99414,-22.54197 -17.07789,-49.98183c7.91626,-27.43986 27.2388,-45.96119 43.1581,-41.36855c15.9193,4.59264 22.40706,30.5601 14.4908,57.99996z" fill="#f0f0f0" stroke-width="2"/><path d="M294.09488,144.73457c-11.95989,25.93403 15.68509,69.09691 -0.23422,64.50427c-15.9193,-4.59264 -24.99414,-22.54197 -17.07789,-49.98183c7.91626,-27.43986 34.60257,-52.01539 17.3121,-14.52245z" fill="#9a99ff" stroke-width="0"/></g><path d="M311.15287,185.93644c-4.38576,15.20222 -12.4463,26.22634 -18.00371,24.62305c-5.55741,-1.60328 -6.50722,-15.22684 -2.12146,-30.42906c4.38576,-15.20222 12.4463,-26.22634 18.00371,-24.62305c5.55741,1.60328 6.50722,15.22684 2.12146,30.42906z" fill="#000000" stroke="none" stroke-width="0"/><g stroke="#000000"><path d="M337.10275,146.26355c1.44911,11.06507 -0.14924,34.17077 -15.24389,29.81604c-15.09465,-4.35473 -38.10346,-35.33977 -31.07149,-43.31844c6.69081,-7.59158 12.4608,-18.69757 27.55545,-14.34284c15.09465,4.35473 17.3789,17.30007 18.75992,27.84523z" fill="#a100fe" stroke-width="2"/><path d="M336.31289,145.66699c1.30301,11.02292 0.07856,33.74241 -14.50141,29.53616c-14.57997,-4.20624 -37.11653,-34.56096 -30.23346,-42.58259c6.54914,-7.63245 6.03458,2.74221 20.61455,6.94845c14.57997,4.20624 22.87853,-4.40703 24.12032,6.09796z" fill="#99008e" stroke-width="0"/></g><g data-paper-data="{&quot;index&quot;:null}" stroke="#000000"><path d="M380.61673,135.17763c15.9193,4.59264 22.40706,30.5601 14.4908,57.99996c-7.91625,27.43985 -25.15741,37.79716 -41.07671,33.20453c-15.9193,-4.59264 -24.48845,-22.39607 -16.57219,-49.83593c7.91626,-27.43986 27.2388,-45.96119 43.1581,-41.36855z" fill="#f0f0f0" stroke-width="2"/><path d="M394.72658,192.20356c-7.91625,27.43985 -25.15741,37.79716 -41.07671,33.20453c-15.9193,-4.59264 30.46852,-26.39744 34.16042,-54.71674c5.33741,-40.94134 14.83255,-5.92765 6.91629,21.51221z" fill="#9a99ff" stroke-width="0"/></g><path d="M364.40845,168.20874c5.55741,1.60328 6.50722,15.22684 2.12146,30.42906c-4.38576,15.20222 -12.4463,26.22634 -18.00371,24.62305c-5.55741,-1.60328 -6.50722,-15.22684 -2.12146,-30.42906c4.38576,-15.20222 12.4463,-26.22634 18.00371,-24.62305z" data-paper-data="{&quot;index&quot;:null}" fill="#000000" stroke="none" stroke-width="0"/><g data-paper-data="{&quot;index&quot;:null}" stroke="#000000"><path d="M350.59697,149.07691c6.78575,-8.18908 15.61441,-17.92841 30.70906,-13.57368c15.09465,4.35473 14.06229,16.8275 15.68123,26.8164c1.70148,10.49822 -33.0699,24.56694 -48.16455,20.21222c-15.09465,-4.35473 -5.34607,-24.86209 1.77425,-33.45492z" fill="#a100fe" stroke-width="2"/><path d="M351.58322,148.99275c6.64652,-8.22925 9.08194,3.48071 23.6619,7.68696c14.57997,4.20624 19.67061,-4.84824 21.14788,5.09979c1.55258,10.45527 -32.64565,23.94822 -47.22561,19.74197c-14.57997,-4.20624 -4.5584,-23.89373 2.41582,-32.52871z" fill="#99008e" stroke-width="0"/></g><path d="M266.79098,187.08654c-3.05198,4.58252 -7.47199,7.00142 -9.87235,5.40276c-2.40037,-1.59866 -1.87213,-6.60949 1.17985,-11.19201c3.05198,-4.58252 7.47199,-7.00142 9.87235,-5.40276c2.40037,1.59866 1.87213,6.60949 -1.17985,11.19201z" fill="#000000" stroke="none" stroke-width="0"/></g><g><g><path d="M324.49286,226.89476c-8.42863,12.51323 -19.64409,15.583 -32.40815,7.82489c-9.98292,-6.06767 -13.74294,-23.7845 -5.31429,-36.29775c8.42865,-12.51331 22.63734,-16.15707 35.02591,-7.81246c1.93734,1.30493 3.33799,3.08423 4.63246,4.69736c6.98295,8.70224 5.17465,21.03152 -1.9359,31.58794z" fill="#485e84" stroke="#000000" stroke-width="2" stroke-linecap="butt"/><path d="M283.8367,211.87474c0,0 4.51341,3.57213 6.40491,2.91213c18.14372,-6.33083 26.82994,-17.36567 29.42434,-21.23463c0.58946,-0.87902 0.11173,-1.8952 0.11173,-1.8952c0,0 1.86749,0.99024 3.75562,2.97745c2.00914,2.11455 4.06845,5.31817 4.84718,8.29115c0.8895,3.39601 0.85279,11.73309 0.85279,11.73309l-8.85031,18.98764c0,0 -12.93176,3.70467 -15.09323,3.54668c-2.11752,-0.15476 -4.57881,-0.94523 -7.22957,-1.68035c-4.11567,-1.14142 -7.79637,-3.79835 -9.56321,-6.07279c-2.25486,-2.90273 -3.77748,-7.31108 -4.38078,-11.07916c-0.56149,-3.5069 -0.27935,-6.48595 -0.27935,-6.48595z" fill="#343545" stroke="none" stroke-width="0" stroke-linecap="butt"/><path d="M305.3282,223.50586c0,0 -8.36474,-3.38074 -10.98105,-7.82314c-3.31201,-5.62361 -6.51512,-18.18715 -6.51512,-18.18715" fill="none" stroke="#000000" stroke-width="1" stroke-linecap="round"/><path d="M315.16291,188.11102c0,0 4.95515,5.15522 7.10788,8.87511c2.17333,3.75537 3.76108,13.32782 3.76108,13.32782" fill="none" stroke="#000000" stroke-width="1" stroke-linecap="round"/><path d="M302.00604,233.96145c0,0 -8.63813,-3.34202 -11.25289,-8.28285c-4.01225,-7.58156 -7.34623,-18.68922 -7.34623,-18.68922" fill="none" stroke="#000000" stroke-width="1" stroke-linecap="round"/><path d="M287.47938,229.21023c0,0 -1.08919,-17.27105 12.46217,-28.22114c14.8438,-11.99444 28.96403,-2.08942 28.96403,-2.08942" fill="none" stroke="#000000" stroke-width="1" stroke-linecap="round"/><path d="M294.59803,235.53713c0,0 1.81732,-17.70762 13.75452,-27.3959c9.80154,-7.95495 22.4758,-0.72432 22.4758,-0.72432" fill="none" stroke="#000000" stroke-width="1" stroke-linecap="round"/><path d="M300.88854,192.27683c-1.09466,0.49891 -2.3022,0.20081 -2.69714,-0.66575c-0.39501,-0.86657 0.31963,-1.21767 1.41428,-1.71657c1.09466,-0.49891 2.15477,-0.95667 2.54973,-0.09009c0.39501,0.86657 -0.17223,1.97355 -1.26688,2.47241z" fill="#8fbbbe" stroke="none" stroke-width="0" stroke-linecap="butt"/><path d="M307.85319,190.19054c-0.33604,0.49886 -1.21503,0.49468 -1.96334,-0.00935c-0.74831,-0.50404 -0.98424,-0.81314 -0.64823,-1.31201c0.33604,-0.49886 1.31645,-0.64524 2.06473,-0.14118c0.74831,0.50404 0.88283,0.96371 0.54681,1.46256z" fill="#8fbbbe" stroke="none" stroke-width="0" stroke-linecap="butt"/><path d="M294.62017,195.20456c-0.58094,0.69035 -1.42487,0.93603 -1.88509,0.54878c-0.46022,-0.3872 0.08923,-0.95661 0.67012,-1.64696c0.58094,-0.69035 0.97322,-1.24025 1.43345,-0.85301c0.46022,0.3872 0.36241,1.26085 -0.21849,1.95118z" fill="#8fbbbe" stroke="none" stroke-width="0" stroke-linecap="butt"/><path d="M283.6643,216.35447c0,0 2.65234,-9.88154 7.18318,-15.95535c2.56877,-3.44354 6.02153,-5.59176 8.65748,-7.19109c2.33109,-1.4144 8.83882,-2.34995 13.89442,-2.54767c3.72217,-0.14559 6.63327,0.29308 6.63327,0.29308" fill="none" stroke="#000000" stroke-width="0.5" stroke-linecap="round"/><path d="M300.77128,186.73343c0,0 8.53522,6.23923 11.43054,10.80369c2.43939,3.84565 5.01178,14.4968 5.01178,14.4968" fill="none" stroke="#000000" stroke-width="1" stroke-linecap="round"/><path d="M312.71515,215.78819c0,0 -7.7391,-5.7909 -10.56045,-9.32513c-4.95373,-6.20544 -7.13851,-16.38402 -7.13851,-16.38402" fill="none" stroke="#000000" stroke-width="1" stroke-linecap="round"/></g><g stroke="#000000" stroke-linecap="butt"><path d="M297.66303,239.97118c26.12873,-20.70285 35.4377,-18.17334 40.46266,-11.83141c5.02497,6.34194 -12.08303,28.26606 -38.21178,48.96891c-26.12874,20.70284 -22.35633,-51.41691 -27.38129,-57.75884c-0.64035,-7.06528 5.68041,-5.43876 10.82588,0.50095c6.34557,7.32506 12.07114,21.88998 14.30453,20.12039z" fill="#0d69be" stroke-width="2"/><path d="M309.78588,214.94345c11.21512,-8.88619 27.69583,-6.76424 36.8107,4.7395c9.11488,11.50374 7.41229,28.03304 -3.80282,36.91924c-11.21512,8.88619 -27.69583,6.76423 -36.81071,-4.7395c-9.11488,-11.50374 -7.41229,-28.03304 3.80283,-36.91923z" fill="#faddbf" stroke-width="2"/><path d="M325.31721,253.33649c11.21512,-8.88619 11.24709,-44.93442 20.36197,-33.43068c9.11488,11.50374 7.41229,28.03304 -3.80283,36.91923c-11.21512,8.88619 -27.77427,5.39764 -16.55914,-3.48855z" fill="#ef8b89" stroke-width="0"/></g></g></g></g></svg>