<svg version="1.1" xmlns="http://www.w3.org/2000/svg" xmlns:xlink="http://www.w3.org/1999/xlink" width="183.90229" height="329.16627" viewBox="0,0,183.90229,329.16627"><g transform="translate(-208.51924,-31.82119)"><g data-paper-data="{&quot;isPaintingLayer&quot;:true}" fill-rule="nonzero" stroke-linejoin="miter" stroke-miterlimit="10" stroke-dasharray="" stroke-dashoffset="0" style="mix-blend-mode: normal"><g stroke="#000000" stroke-linecap="butt"><path d="M337.17615,231.94862c4.34527,33.05206 1.36445,60.701 -6.65789,61.7557c-8.02234,1.05469 -18.04828,-24.88433 -22.39356,-57.93635c-4.34527,-33.05206 -1.36445,-60.701 6.65789,-61.7557c8.02234,-1.05469 18.04828,24.88433 22.39357,57.93636z" fill="#0d69be" stroke-width="2"/><path d="M356.3957,276.1645c1.8651,14.18676 -8.41954,27.2383 -22.97143,29.15142c-14.55187,1.91311 -27.86048,-8.03665 -29.72559,-22.22345c-1.86511,-14.18678 8.41954,-27.2383 22.97143,-29.15142c14.55188,-1.91309 27.86048,8.03668 29.72559,22.22345z" fill="#faddbf" stroke-width="2"/><path d="M315.47616,269.77384c1.86511,14.18678 32.77991,32.72734 18.22804,34.64043c-14.55187,1.91311 -27.86046,-8.03664 -29.72559,-22.22345c-1.86511,-14.18678 9.63244,-26.60376 11.49756,-12.417z" fill="#ef8b89" stroke-width="0"/></g><g stroke="#000000" stroke-linecap="butt"><path d="M307.76518,341.21815v-95.29492h29.49199v95.29492z" fill="#73fffc" stroke-width="2"/><path d="M307.43944,340.60022l1.32626,-93.78573c0,0 5.20288,68.11227 6.3799,77.52842c0.2602,2.08162 2.52228,2.78987 2.52228,2.78987l18.60659,13.13896z" fill="#59a9e6" stroke-width="0"/></g><g stroke="#000000" stroke-linecap="butt"><path d="M268.42382,338.4129v-95.29492h29.49199v95.29492z" fill="#73fffc" stroke-width="2"/><path d="M268.09807,337.79497l1.32626,-93.78573c0,0 5.20288,68.11227 6.3799,77.52842c0.2602,2.08162 2.52228,2.78987 2.52228,2.78987l18.60659,13.13896z" fill="#59a9e6" stroke-width="0"/></g><g stroke="#000000" stroke-linecap="butt"><path d="M334.46378,235.69588c0,13.80271 10.04743,36.74388 4.95001,46.45977c-6.2338,11.88187 -28.61241,9.09579 -38.9397,9.09579c-13.66287,0 -32.94407,4.17018 -38.34426,-14.83216c-2.01935,-7.10576 4.35457,-32.37264 4.35457,-40.7234c0,-30.68249 15.2177,-55.55556 33.98969,-55.55556c18.77199,0 33.98969,24.87307 33.98969,55.55556z" fill="#0d69be" stroke-width="2"/><path d="M283.20015,251.27245c0,13.80271 62.04198,20.54886 56.94455,30.26474c-6.2338,11.88186 -28.61241,9.09579 -38.9397,9.09579c-13.66287,0 -32.94406,4.17018 -38.34425,-14.83215c-2.01936,-7.10576 4.35457,-32.37265 4.35457,-40.7234c0,-9.45244 3.34855,-28.59801 5.51953,-29.96813c5.94391,-16.76415 10.4653,25.13995 10.4653,46.16315z" fill="#10157d" stroke-width="0"/></g><g stroke-linecap="butt"><g stroke="#000000"><g><path d="M212.22224,120.27785c0,-46.79079 37.93143,-84.72222 84.72222,-84.72222c46.79079,0 84.72222,37.93143 84.72222,84.72222c0,46.79079 -37.93143,84.72222 -84.72222,84.72222c-46.79079,0 -84.72222,-37.93143 -84.72222,-84.72222z" fill="#faddbf" stroke-width="2"/><path d="M212.45301,119.40834c0,-15.05428 8.65728,-41.01117 13.16632,-44.22534c0.51494,-0.36707 5.78642,-8.91029 13.30693,-15.62682c9.34748,-8.34819 21.31473,-15.15641 21.9255,-14.95935c7.96872,2.57101 -17.52654,64.85492 -16.28763,90.14485c0.00295,0.06031 4.40745,19.70158 6.02593,20.14049c2.8855,4.74247 9.11092,19.15337 19.99223,26.29351c20.2786,13.30648 48.94186,19.68013 47.45857,20.18586c-2.37273,0.80898 -14.80271,2.76903 -20.86562,2.76903c-46.79079,0 -84.72222,-37.93143 -84.72222,-84.72222z" fill="#ef8b89" stroke-width="0"/><path d="M381.14324,119.81965c0,11.62434 -1.57787,15.64071 -2.12992,13.78899c-0.5632,-1.8891 -0.18668,-9.81362 -9.04258,-14.64925c-2.14596,-1.17177 -10.20624,6.27605 -12.93385,5.04791c-1.71325,-0.77142 -8.65215,-10.17554 -10.56583,-10.85157c-1.33801,-0.47267 -12.45011,8.37757 -13.84965,7.92692c-3.49052,-1.12394 -11.98851,-11.37355 -15.73972,-12.03156c-2.06568,-0.36235 -9.2828,11.84977 -11.39182,11.59592c-2.71985,-0.32737 -10.06862,-12.06843 -12.80601,-12.06843c-7.27985,0 -7.47978,7.01079 -12.7176,13.01701c-3.40366,3.90299 -13.98842,-13.05188 -17.11223,-8.61668c-3.87941,5.50799 -7.71992,10.81771 -11.96095,14.41734c-3.32724,2.82405 -13.36416,-10.09687 -16.24015,-7.47909c-13.88607,12.63935 -22.22353,20.64372 -22.22353,2.47189c0,-36.54015 43.28764,-8.21349 85.0704,-29.73523c39.99404,-20.60039 83.64345,-9.37431 83.64345,27.16584z" fill="#ef8b89" stroke-width="0"/></g><path d="M382.67711,111.50876c0,23.48334 6.5317,8.71531 -11.46679,-0.86026c-2.20249,-1.17177 -10.47508,6.27605 -13.27454,5.04791c-1.75838,-0.77142 -8.88005,-10.17554 -10.84414,-10.85157c-1.37326,-0.47267 -12.77806,8.37757 -14.21446,7.92692c-3.58246,-1.12394 -12.30429,-11.37355 -16.15431,-12.03156c-2.12009,-0.36235 -9.52731,11.84977 -11.69189,11.59592c-2.79149,-0.32737 -10.33384,-12.06843 -13.14333,-12.06843c-7.47161,0 -7.6768,7.01079 -13.05259,13.01701c-3.49332,3.90299 -14.35688,-13.05188 -17.56298,-8.61668c-3.98159,5.50799 -7.92327,10.81771 -12.276,14.41734c-3.41488,2.82405 -13.71618,-10.09687 -16.66792,-7.47909c-14.25184,12.63935 -22.80892,20.64372 -22.80892,2.47189c0,-36.54015 39.86264,-81.25697 85.78948,-81.25697c45.92683,0 87.36842,42.14743 87.36842,78.68758z" fill="#873412" stroke-width="2"/><path d="M382.42938,110.34597c0,23.48334 6.5317,8.71531 -11.46679,-0.86026c-2.20249,-1.17177 -10.47508,6.27605 -13.27454,5.04791c-1.75838,-0.77142 -8.88005,-10.17554 -10.84415,-10.85157c-1.37326,-0.47267 -12.77806,8.37757 -14.21446,7.92692c-3.58246,-1.12394 -12.30429,-11.37355 -16.15431,-12.03156c-2.12009,-0.36235 -9.52731,11.84977 -11.69189,11.59592c-2.79149,-0.32737 -10.33384,-12.06843 -13.14333,-12.06843c-7.47161,0 -7.6768,7.01079 -13.05259,13.01701c-3.49332,3.90299 -14.35688,-13.05188 -17.56298,-8.61668c-3.98159,5.50799 -7.92327,10.81771 -12.27601,14.41734c-3.41488,2.82405 -13.71618,-10.09687 -16.66792,-7.47909c-14.25184,12.63935 -22.80892,20.64372 -22.80892,2.47189c0,-36.54015 44.42786,-8.21349 87.31121,-29.73523c41.04751,-20.60039 85.84668,-9.37431 85.84668,27.16584z" fill="#741d23" stroke-width="0"/></g><path d="M297.68587,43.20182c0.06504,0.11563 0.11871,0.24909 0.16282,0.39594c0.0942,0.25915 0.14675,0.5383 0.14957,0.82934c0.10872,1.13632 -0.04492,2.51335 0.00011,3.00545c0.05917,0.64652 1.19031,-0.74732 1.8333,-0.6576c0.39387,0.05496 0.79058,0.76163 1.08556,0.49491c1.79014,-1.61865 3.39338,-4.4788 6.14794,-2.85557c0.91226,0.53758 0.67628,1.89067 1.24094,2.5754c0.04747,0.05756 2.60921,-0.1366 3.20483,0.39633c1.0263,0.91828 0.31921,2.25188 0.84227,3.24453c0.16737,0.31764 0.57449,-0.44225 0.90296,-0.5872c1.46188,-0.64507 3.99723,-2.00657 5.75026,-1.00484c0.9237,0.52783 0.74309,2.13955 1.25,2.58145c0.88869,0.7747 1.93355,-1.36509 2.98795,-1.89251c1.4583,-0.72946 2.18563,-0.02863 3.42998,0.8575c0.21462,0.15284 0.4729,4.13203 1.5751,5.28976c0.61955,0.65076 1.65156,-0.85868 2.54995,-0.87393c0.89637,-0.01521 2.71106,-0.73753 3.13293,-0.63391c0.84623,0.20784 1.57162,1.64085 2.32283,1.19928c3.83542,-2.25449 8.74631,-0.80574 7.11144,4.15438c-0.20689,0.62772 1.32191,-0.57392 1.94893,-0.36491c0.24308,0.08102 1.59685,1.0818 1.82405,0.9958c1.48606,-0.56253 2.42529,-1.27962 4.01644,-1.28349c1.32143,-0.00321 2.58997,0.74067 2.89673,2.12114c0.16122,0.7255 -0.99738,2.12313 -0.25981,2.21439c1.73856,0.21513 4.46436,0.94049 3.69208,3.47798c-0.83832,2.75449 -3.13962,5.14362 -5.7124,3.05264c-0.89263,-0.72546 -2.30427,1.24264 -3.36004,0.78609c-1.35252,-0.58487 -2.02055,-2.87334 -1.94906,-4.04994c0.03305,-0.54391 -1.07328,0.37399 -1.61032,0.28162c-0.72305,-0.12436 -1.06576,-1.21538 -1.79736,-1.27038c-1.63644,-0.12301 -1.3588,3.26616 -5.24535,2.4796c-1.14716,-0.23216 -2.516,-2.181 -2.89553,-3.27894c-0.22031,-0.63733 1.44671,-2.64957 1.28866,-2.75515c-0.38378,-0.25637 -1.94579,2.82743 -2.37223,2.96958c-1.02591,0.34197 -2.14798,-0.37973 -3.14348,-0.80211c-0.87953,-0.37317 -1.15332,1.88993 -2.10728,1.94293c-0.84278,0.04682 -9.35342,-0.4825 -9.68874,-0.98549c-0.40882,-0.61322 -0.82062,-1.721 -0.66291,-2.43068c0.05668,-0.25505 0.97585,-1.84123 0.79428,-1.82108c-0.64439,0.07149 -4.18815,3.4397 -6.35755,0.18561c-1.1797,-1.76955 0.97225,-3.59848 0.97549,-5.22262c0.002,-1.00299 -1.1089,1.67543 -1.57852,2.56169c-0.3607,0.68072 -1.43499,1.3053 -2.20947,1.33028c-2.67773,0.08638 -1.93793,-2.47479 -2.5,-3.98918c-0.25939,-0.69888 -1.57778,0.59517 -2.22503,0.22532c-1.58252,-0.90429 -1.34694,-2.0688 -1.48465,-3.60097c-0.06306,-0.70155 -0.5487,2.71516 -2.19331,2.88171c-0.66697,0.06754 -1.7235,-0.94735 -1.98395,-0.32962c-1.26801,3.00744 -0.56288,4.21953 -4.35893,3.73846c-0.36631,-0.04642 -0.97772,0.79566 -1.37068,0.57111c-4.34916,-2.48524 -0.86033,-7.93142 -0.7383,-11.93952c0.04305,-1.41383 -0.88265,-3.52759 0.34546,-4.22937c0.43488,-0.73685 1.23698,-1.23116 2.15454,-1.23116c0.81357,0 1.53638,0.38863 1.99291,0.99036c0.07451,0.07697 0.14011,0.16278 0.19459,0.25964z" fill="#ba587e" stroke="none" stroke-width="0.5"/></g><g stroke="#000000" stroke-linecap="butt"><path d="M327.69485,152.44761c0,28.55894 -13.1683,43.28947 -29.73684,43.28947c-16.56854,0 -30.26316,-14.73054 -30.26316,-43.28947c0,-28.55894 13.43146,-51.71053 30,-51.71053c16.56854,0 30,23.15159 30,51.71053z" fill="#f0f0f0" stroke-width="2"/><path d="M280.93912,132.86523c-4.30259,28.23297 34.22345,62.0416 17.65491,62.0416c-16.56854,0 -30.26316,-14.73054 -30.26316,-43.28947c0,-28.55894 18.82852,-59.56866 12.60825,-18.75213z" fill="#9a99ff" stroke-width="0"/></g><path d="M323.80042,160.68086c0,15.82221 -4.68891,28.64865 -10.47297,28.64865c-5.78406,0 -10.47297,-12.82644 -10.47297,-28.64865c0,-15.82221 4.68891,-28.64865 10.47297,-28.64865c5.78406,0 10.47297,12.82644 10.47297,28.64865z" fill="#000000" stroke="none" stroke-width="0" stroke-linecap="butt"/><g stroke="#000000" stroke-linecap="butt"><path d="M322.68555,122.41295c4.45946,10.22981 9.32841,32.87316 -6.38185,32.87316c-15.71026,0 -46.40621,-23.39308 -41.8614,-33.0083c4.32432,-9.14873 6.78974,-21.41892 22.5,-21.41892c15.71026,0 21.49332,11.80491 25.74324,21.55405z" fill="#a100fe" stroke-width="2"/><path d="M321.76126,122.05872c4.3074,10.22981 9.42854,32.39844 -5.74604,32.39844c-15.17458,0 -45.24208,-22.91836 -40.85224,-32.53358c4.17687,-9.14873 6.55823,0.96203 21.73281,0.96203c15.17458,0 20.76045,-10.57604 24.86546,-0.8269z" fill="#99008e" stroke-width="0"/></g><g data-paper-data="{&quot;index&quot;:null}" stroke="#000000" stroke-linecap="butt"><path d="M361.42153,99.69979c16.56854,0 30,23.15159 30,51.71053c0,28.55893 -13.69462,43.28947 -30.26316,43.28947c-16.56854,0 -29.73684,-14.73053 -29.73684,-43.28947c0,-28.55894 13.43146,-51.71053 30,-51.71053z" fill="#f0f0f0" stroke-width="2"/><path d="M390.78551,150.58004c0,28.55893 -13.69462,43.28947 -30.26316,43.28947c-16.56854,0 21.9575,-33.80863 17.65491,-62.0416c-6.22027,-40.81653 12.60825,-9.80681 12.60825,18.75213z" fill="#9a99ff" stroke-width="0"/></g><path d="M374.94262,131.41949c5.78406,0 10.47297,12.82644 10.47297,28.64865c0,15.82221 -4.68891,28.64865 -10.47297,28.64865c-5.78406,0 -10.47297,-12.82644 -10.47297,-28.64865c0,-15.82221 4.68891,-28.64865 10.47297,-28.64865z" data-paper-data="{&quot;index&quot;:null}" fill="#000000" stroke="none" stroke-width="0" stroke-linecap="butt"/><g data-paper-data="{&quot;index&quot;:null}" stroke="#000000" stroke-linecap="butt"><path d="M336.43084,121.37561c4.24992,-9.74914 10.03298,-21.55405 25.74324,-21.55405c15.71026,0 18.17568,12.27019 22.5,21.41892c4.54481,9.61522 -24.96434,32.77094 -40.6746,32.77094c-15.71026,0 -12.02811,-22.40599 -7.56865,-32.6358z" fill="#a100fe" stroke-width="2"/><path d="M337.35511,121.02138c4.10501,-9.74914 9.69088,0.8269 24.86546,0.8269c15.17458,0 17.55594,-10.11076 21.73281,-0.96203c4.38984,9.61522 -24.72822,32.05886 -39.9028,32.05886c-15.17458,0 -11.00288,-21.69391 -6.69548,-31.92372z" fill="#99008e" stroke-width="0"/></g><path d="M371.63634,338.8701c0,11.6628 -14.51982,21.11737 -32.43092,21.11737c-17.9111,0 -32.43092,-9.45457 -32.43092,-21.11737c0,-2.33142 -0.03339,-13.76009 1.08979,-15.13837c4.49546,-5.51647 17.81784,5.26144 32.14847,5.26144c17.9111,0 31.62358,-1.78588 31.62358,9.87692z" fill="#000082" stroke="#000000" stroke-width="2" stroke-linecap="butt"/><path d="M369.75006,336.13785c0,6.30841 -13.89058,10.1901 -31.80169,10.1901c-17.9111,0 -30.16566,-2.95748 -30.16566,-9.26589c0,-1.26107 -0.03338,-12.52602 1.0898,-13.27153c4.49546,-2.98386 15.55258,5.7726 29.88321,5.7726c17.9111,0 30.99434,0.26631 30.99434,6.57472z" fill="#2e0048" stroke="#000000" stroke-width="0" stroke-linecap="butt"/><path d="M328.6494,338.22531c0,11.6628 -14.51982,21.11737 -32.43092,21.11737c-17.9111,0 -32.43092,-9.45457 -32.43092,-21.11737c0,-2.33142 -0.03339,-13.76009 1.08979,-15.13837c4.49546,-5.51647 17.81784,5.26144 32.14847,5.26144c17.9111,0 31.62358,-1.78588 31.62358,9.87692z" fill="#000082" stroke="#000000" stroke-width="2" stroke-linecap="butt"/><path d="M326.76311,335.49289c0,6.30841 -13.89058,10.1901 -31.80169,10.1901c-17.9111,0 -30.16566,-2.95748 -30.16566,-9.26589c0,-1.26107 -0.03338,-12.52602 1.0898,-13.27153c4.49546,-2.98386 15.55258,5.7726 29.88321,5.7726c17.9111,0 30.99434,0.26631 30.99434,6.57472z" fill="#2e0048" stroke="#000000" stroke-width="0" stroke-linecap="butt"/><g><g><path d="M304.65906,265.35874c-14.66119,3.55977 -25.01427,-1.73403 -29.21134,-16.06907c-3.28259,-11.21158 5.88438,-26.8318 20.54562,-30.39154c14.66127,-3.55982 27.61205,3.32799 31.13636,17.84307c0.55115,2.26987 0.38612,4.52832 0.25467,6.59241c-0.70925,11.13498 -10.35681,19.02208 -22.72528,22.02517z" fill="#485e84" stroke="#000000" stroke-width="2" stroke-linecap="butt"/><path d="M284.75716,226.8563c0,0 0.92531,5.6811 2.7673,6.46882c17.66863,7.55601 31.52341,5.26182 36.0479,4.15333c1.02796,-0.25183 1.36019,-1.32444 1.36019,-1.32444c0,0 0.71169,1.99038 0.76653,4.73099c0.05835,2.91624 -0.58045,6.6707 -2.00957,9.39149c-1.63249,3.1079 -7.28019,9.24079 -7.28019,9.24079l-19.33746,8.05736c0,0 -12.04872,-5.98195 -13.53863,-7.55581c-1.45964,-1.54188 -2.74459,-3.78501 -4.2068,-6.11495c-2.27027,-3.61767 -3.19752,-8.0614 -2.96914,-10.93242c0.29153,-3.66404 2.13887,-7.94648 4.23361,-11.13624c1.9495,-2.9687 4.16627,-4.97875 4.16627,-4.97875z" fill="#343545" stroke="none" stroke-width="0" stroke-linecap="butt"/><path d="M292.7891,249.93562c0,0 -3.89887,-8.13615 -2.83631,-13.18106c1.34505,-6.38633 7.44916,-17.82496 7.44916,-17.82496" fill="none" stroke="#000000" stroke-width="1" stroke-linecap="round"/><path d="M323.91477,230.42386c0,0 0.18433,7.14817 -0.73354,11.34689c-0.92657,4.23882 -6.20727,12.37928 -6.20727,12.37928" fill="none" stroke="#000000" stroke-width="1" stroke-linecap="round"/><path d="M283.28663,255.41824c0,0 -4.1269,-8.29189 -2.72719,-13.70387c2.14784,-8.30452 7.17383,-18.7561 7.17383,-18.7561" fill="none" stroke="#000000" stroke-width="1" stroke-linecap="round"/><path d="M275.76059,242.11575c0,0 10.83907,-13.49038 28.23,-12.44205c19.04956,1.1483 22.80092,17.9833 22.80092,17.9833" fill="none" stroke="#000000" stroke-width="1" stroke-linecap="round"/><path d="M276.75293,251.58781c0,0 13.28008,-11.85334 28.62817,-10.96128c12.60219,0.73249 17.08852,14.6174 17.08852,14.6174" fill="none" stroke="#000000" stroke-width="1" stroke-linecap="round"/><path d="M310.56353,223.87738c-1.14489,-0.36947 -1.83576,-1.40373 -1.54323,-2.31004c0.29248,-0.90632 1.05698,-0.68384 2.20182,-0.31436c1.14489,0.36947 2.23644,0.7461 1.94393,1.6524c-0.29248,0.90632 -1.4577,1.3415 -2.60251,0.972z" fill="#8fbbbe" stroke="none" stroke-width="0" stroke-linecap="butt"/><path d="M317.114,227.03182c-0.5845,0.14189 -1.23093,-0.45378 -1.4438,-1.33052c-0.21287,-0.87677 -0.17877,-1.26411 0.40574,-1.40605c0.5845,-0.14189 1.40731,0.41095 1.62013,1.28769c0.21287,0.87677 0.00236,1.30697 -0.58215,1.44886z" fill="#8fbbbe" stroke="none" stroke-width="0" stroke-linecap="butt"/><path d="M303.96005,221.81384c-0.89447,0.11825 -1.68339,-0.26925 -1.76228,-0.86555c-0.07888,-0.59627 0.71082,-0.64636 1.60526,-0.76464c0.89447,-0.11825 1.55495,-0.25993 1.6338,0.33636c0.07888,0.59627 -0.58236,1.17558 -1.47678,1.2938z" fill="#8fbbbe" stroke="none" stroke-width="0" stroke-linecap="butt"/><path d="M281.60974,230.0487c0,0 8.62074,-5.51023 16.06191,-6.9417c4.21874,-0.81157 8.21715,-0.07047 11.24225,0.52535c2.67523,0.52689 8.11243,4.22318 11.97973,7.48544c2.84728,2.40182 4.70161,4.68839 4.70161,4.68839" fill="none" stroke="#000000" stroke-width="0.5" stroke-linecap="round"/><path d="M314.21411,219.70407c0,0 2.09768,10.36233 1.15893,15.68548c-0.79089,4.48487 -6.07162,14.08582 -6.07162,14.08582" fill="none" stroke="#000000" stroke-width="1" stroke-linecap="round"/><path d="M303.44794,249.2155c0,0 -1.81195,-9.4945 -1.51311,-14.00682c0.52474,-7.92285 5.77317,-16.91345 5.77317,-16.91345" fill="none" stroke="#000000" stroke-width="1" stroke-linecap="round"/></g><g stroke="#000000" stroke-linecap="butt"><path d="M276.0274,256.92901c33.2553,2.32431 38.42544,10.46834 37.86129,18.54002c-0.56415,8.07168 -27.98026,12.73082 -61.23559,10.40654c-33.25533,-2.32433 18.15145,-53.04743 18.71563,-61.11909c4.29021,-5.64999 7.86205,-0.18743 7.65807,7.66844c-0.25158,9.6881 -5.84195,24.30549 -2.9994,24.50413z" fill="#0d69be" stroke-width="2"/><path d="M301.85393,246.61678c14.27403,0.99767 25.01583,13.67558 23.99248,28.31698c-1.02334,14.64139 -13.4243,25.7018 -27.69832,24.70414c-14.27403,-0.99767 -25.01582,-13.67562 -23.99248,-28.31698c1.02334,-14.64138 13.42427,-25.70178 27.69833,-24.70411z" fill="#faddbf" stroke-width="2"/><path d="M287.44186,285.44383c14.27403,0.99767 38.60005,-25.60534 37.57676,-10.96395c-1.02334,14.64139 -13.42431,25.70178 -27.69833,24.70411c-14.27403,-0.99767 -24.15247,-14.73783 -9.87842,-13.74017z" fill="#ef8b89" stroke-width="0"/></g></g><path d="M257.78126,165.96665c0.02115,-0.2592 0.17189,-1.18311 1.24655,-1.18311c1.25,0 1.25,1.25 1.25,1.25l-0.03732,0.40508c-0.58182,2.32384 -1.41717,4.55876 -2.07889,6.85751c-0.83246,1.81298 -1.71032,4.15645 -3.33824,5.42616c-3.29656,2.57116 -8.00043,-0.21957 -9.47271,-3.52017c-1.88426,-4.22419 -1.28459,-9.83922 -0.05916,-14.19964c0,0 0.3434,-1.2019 1.54531,-0.8585c1.2019,0.3434 0.8585,1.54531 0.8585,1.54531c-0.89269,3.06425 -1.61878,7.69803 -0.71146,10.83519c0.58872,2.03558 2.75464,5.52638 5.50149,4.7349c1.73262,-0.49924 2.67443,-3.4161 3.33246,-4.83304c0.61454,-2.16843 1.40696,-4.273 1.96347,-6.45967z" fill="#000000" stroke="none" stroke-width="0.5" stroke-linecap="butt"/></g></g></svg>