<svg version="1.1" xmlns="http://www.w3.org/2000/svg" xmlns:xlink="http://www.w3.org/1999/xlink" width="174.40005" height="322.27657" viewBox="0,0,174.40005,322.27657"><g transform="translate(-223.50992,-38.71082)"><g data-paper-data="{&quot;isPaintingLayer&quot;:true}" fill-rule="nonzero" stroke-linejoin="miter" stroke-miterlimit="10" stroke-dasharray="" stroke-dashoffset="0" style="mix-blend-mode: normal"><g stroke="#000000" stroke-linecap="butt"><path d="M317.82209,242.66947c-20.94646,25.93384 -43.02973,42.83592 -49.32436,37.75184c-6.29464,-5.0841 5.58305,-30.22913 26.5295,-56.16297c20.94646,-25.93384 43.02973,-42.83592 49.32436,-37.75184c6.29464,5.0841 -5.58305,30.22913 -26.52951,56.16297z" fill="#0d69be" stroke-width="2"/><path d="M299.0432,287.0743c-8.99075,11.13147 -25.53526,12.67928 -36.95321,3.45716c-11.41793,-9.22212 -13.38558,-25.72198 -4.39481,-36.85345c8.99076,-11.13146 25.53526,-12.67928 36.95321,-3.45716c11.41794,9.22213 13.38556,25.72199 4.39481,36.85345z" fill="#faddbf" stroke-width="2"/><path d="M275.46234,253.02741c-8.99076,11.13146 -1.10829,46.30736 -12.52623,37.08522c-11.41793,-9.22212 -13.38557,-25.72198 -4.39481,-36.85345c8.99076,-11.13146 25.91179,-11.36324 16.92104,-0.23178z" fill="#ef8b89" stroke-width="0"/></g><g stroke="#000000" stroke-linecap="butt"><path d="M307.76518,340.83535v-95.29492h29.49199v95.29492z" fill="#73fffc" stroke-width="2"/><path d="M307.43943,340.21741l1.32626,-93.78573c0,0 5.20288,68.11227 6.3799,77.52842c0.2602,2.08162 2.52228,2.78987 2.52228,2.78987l18.60659,13.13896z" fill="#59a9e6" stroke-width="0"/></g><g stroke="#000000" stroke-linecap="butt"><path d="M268.4238,338.41281v-95.29492h29.49199v95.29492z" fill="#73fffc" stroke-width="2"/><path d="M268.09805,337.79489l1.32626,-93.78573c0,0 5.20288,68.11227 6.3799,77.52842c0.2602,2.08162 2.52228,2.78987 2.52228,2.78987l18.60659,13.13896z" fill="#59a9e6" stroke-width="0"/></g><g stroke="#000000" stroke-linecap="butt"><path d="M335.22917,235.69587c0,13.80271 10.04743,36.74388 4.95001,46.45977c-6.2338,11.88187 -28.61241,9.09579 -38.9397,9.09579c-13.66287,0 -32.94407,4.17018 -38.34426,-14.83216c-2.01935,-7.10576 4.35457,-32.37264 4.35457,-40.7234c0,-30.68249 15.2177,-55.55556 33.98969,-55.55556c18.77199,0 33.98969,24.87307 33.98969,55.55556z" fill="#0d69be" stroke-width="2"/><path d="M283.96554,251.27245c0,13.80271 62.04198,20.54886 56.94455,30.26474c-6.2338,11.88186 -28.61241,9.09579 -38.9397,9.09579c-13.66287,0 -32.94406,4.17018 -38.34425,-14.83215c-2.01936,-7.10576 4.35457,-32.37265 4.35457,-40.7234c0,-9.45244 3.34855,-28.59801 5.51953,-29.96813c5.94391,-16.76415 10.4653,25.13995 10.4653,46.16315z" fill="#10157d" stroke-width="0"/></g><g stroke-linecap="butt"><g stroke="#000000"><g><path d="M226.65614,108.76898c10.15752,-45.67497 55.4187,-74.46755 101.09366,-64.31003c45.67497,10.15752 74.46755,55.4187 64.31003,101.09366c-10.15752,45.67497 -55.4187,74.46755 -101.09366,64.31003c-45.67497,-10.15752 -74.46755,-55.4187 -64.31003,-101.09366z" fill="#faddbf" stroke-width="2"/><path d="M227.07017,107.9703c3.26804,-14.69528 17.35369,-38.15382 22.45294,-40.3125c0.58235,-0.24653 7.58271,-7.44167 16.38193,-12.36545c10.93683,-6.11992 24.09665,-10.16789 24.65007,-9.84294c7.22057,4.23958 -31.18753,59.5036 -35.4682,84.45938c-0.01021,0.05951 0.02545,20.18854 1.51006,20.96833c1.78718,5.25577 4.73577,20.67445 13.80758,30.00648c16.9064,17.39131 43.50251,29.8353 41.9448,30.00697c-2.49176,0.27461 -15.05082,-0.51043 -20.96915,-1.82659c-45.67497,-10.15752 -74.46755,-55.4187 -64.31003,-101.09366z" fill="#ef8b89" stroke-width="0"/><path d="M391.64835,144.99171c-2.52346,11.34713 -4.93559,14.9252 -5.07249,12.99779c-0.13968,-1.96631 1.94815,-9.62012 -5.64683,-16.26291c-1.84041,-1.60968 -11.32528,3.91078 -13.72124,2.1198c-1.50493,-1.12494 -6.23688,-11.81112 -7.95817,-12.88646c-1.20349,-0.75186 -13.97185,5.47507 -15.24018,4.73135c-3.16329,-1.85487 -9.23361,-13.70484 -12.75252,-15.16148c-1.93776,-0.80213 -11.63383,9.55204 -13.63744,8.84641c-2.58392,-0.91 -7.20865,-13.96637 -9.88076,-14.56061c-7.10625,-1.58034 -8.82334,5.21986 -15.2401,9.94581c-4.16977,3.07104 -10.82149,-15.77729 -14.83361,-12.12598c-4.98259,4.53448 -9.88417,8.88387 -14.80549,11.477c-3.86095,2.03442 -10.8536,-12.75723 -14.22928,-10.82621c-16.29873,9.3235 -26.17498,15.32706 -22.23017,-2.41142c7.93227,-35.66878 44.03837,1.37942 89.49676,-10.55873c43.51231,-11.42708 83.68381,9.00687 75.75154,44.67565z" fill="#ef8b89" stroke-width="0"/></g><path d="M394.9498,137.21199c-5.09785,22.92333 4.48399,9.9254 -11.00659,-3.329c-1.89559,-1.62195 -11.58771,3.85242 -14.0538,2.04585c-1.54899,-1.13474 -6.45934,-11.8606 -8.22984,-12.94688c-1.2379,-0.75951 -14.29198,5.40388 -15.59629,4.65216c-3.25304,-1.87483 -9.54186,-13.77339 -13.15722,-15.25148c-1.99087,-0.81395 -11.8725,9.49896 -13.93036,8.78127c-2.65385,-0.92555 -7.46755,-14.02394 -10.21004,-14.63384c-7.29343,-1.62197 -9.01566,5.1771 -15.56711,9.87309c-4.25729,3.05157 -11.18116,-15.85728 -15.27361,-12.22384c-5.08234,4.5123 -10.08267,8.83973 -15.11302,11.40861c-3.9465,2.01539 -11.19722,-12.83365 -14.64685,-10.91907c-16.65577,9.2441 -26.74641,15.19998 -22.8016,-2.5385c7.93227,-35.66878 56.5516,-70.6657 101.38322,-60.69573c44.83161,9.96997 76.13542,60.1086 68.20315,95.77738z" fill="#873412" stroke-width="2"/><path d="M394.9604,136.02315c-5.09785,22.92333 4.48399,9.9254 -11.00659,-3.329c-1.89559,-1.62195 -11.58771,3.85242 -14.0538,2.04585c-1.54899,-1.13474 -6.45934,-11.8606 -8.22985,-12.94688c-1.2379,-0.75951 -14.29198,5.40388 -15.59629,4.65216c-3.25304,-1.87483 -9.54186,-13.77339 -13.15722,-15.25148c-1.99087,-0.81395 -11.8725,9.49896 -13.93036,8.78127c-2.65385,-0.92555 -7.46755,-14.02394 -10.21004,-14.63384c-7.29343,-1.62197 -9.01566,5.1771 -15.56711,9.87309c-4.25729,3.05157 -11.18116,-15.85728 -15.27361,-12.22384c-5.08234,4.5123 -10.08267,8.83973 -15.11303,11.40861c-3.9465,2.01539 -11.19722,-12.83365 -14.64685,-10.91907c-16.65577,9.2441 -26.74641,15.19998 -22.8016,-2.5385c7.93227,-35.66878 45.1514,1.62694 91.68413,-10.07229c44.54066,-11.19839 85.8345,9.48516 77.90223,45.15393z" fill="#741d23" stroke-width="0"/></g><path d="M326.81368,52.08375c0.03839,0.12699 0.06181,0.26892 0.07299,0.42184c0.0357,0.27342 0.02639,0.55732 -0.03403,0.84203c-0.14055,1.13282 -0.58946,2.44366 -0.65233,2.9338c-0.08259,0.64395 1.32416,-0.4711 1.93234,-0.24394c0.37255,0.13915 0.60639,0.91509 0.95224,0.71877c2.09883,-1.19144 4.28473,-3.63535 6.62123,-1.45286c0.77381,0.7228 0.24972,1.99239 0.65227,2.78337c0.03384,0.06649 2.57664,0.43307 3.04237,1.0826c0.80248,1.11917 -0.17725,2.26747 0.11785,3.35c0.09442,0.3464 0.6568,-0.30699 1.0089,-0.37718c1.56705,-0.31234 4.3375,-1.09099 5.83127,0.26741c0.78709,0.71576 0.26091,2.24984 0.6598,2.79124c0.69932,0.94915 2.18378,-0.91279 3.32753,-1.19874c1.58188,-0.39549 2.13972,0.44652 3.16204,1.58164c0.17632,0.19579 -0.43537,4.13615 0.38922,5.50554c0.46351,0.76974 1.79858,-0.47968 2.67886,-0.29954c0.8783,0.17974 2.80652,-0.13142 3.19583,0.06132c0.78093,0.38659 1.17794,1.94289 2.00709,1.67493c4.23337,-1.36812 8.71265,1.11216 6.04001,5.59909c-0.33822,0.56784 1.41498,-0.27327 1.98167,0.06687c0.2197,0.13186 1.32393,1.40265 1.56438,1.36802c1.57274,-0.22652 2.64524,-0.72261 4.19928,-0.38098c1.29061,0.28373 2.36742,1.28525 2.36719,2.69939c-0.00012,0.7432 -1.43449,1.85598 -0.73432,2.10518c1.6504,0.58741 4.15373,1.8872 2.84902,4.19653c-1.41628,2.50682 -4.18135,4.3394 -6.23885,1.73977c-0.71386,-0.90194 -2.51908,0.71279 -3.45056,0.03793c-1.1933,-0.86453 -1.34861,-3.24345 -1.0234,-4.37647c0.15034,-0.52376 -1.12887,0.13208 -1.63305,-0.07467c-0.67881,-0.27836 -0.77651,-1.41776 -1.47872,-1.63026c-1.57071,-0.47532 -2.03543,2.8933 -5.65854,1.28179c-1.06941,-0.47565 -1.98254,-2.67517 -2.11468,-3.82932c-0.0767,-0.66996 1.98739,-2.27233 1.85603,-2.4097c-0.31897,-0.33357 -2.51318,2.3376 -2.96031,2.38379c-1.07568,0.11111 -2.01432,-0.83697 -2.89439,-1.46538c-0.77755,-0.5552 -1.53609,1.59449 -2.47881,1.43914c-0.83285,-0.13725 -9.02563,-2.50147 -9.24376,-3.06526c-0.26595,-0.68734 -0.42745,-1.8581 -0.11944,-2.51662c0.1107,-0.23666 1.35228,-1.58548 1.17067,-1.60523c-0.64454,-0.0701 -4.83498,2.44849 -6.24623,-1.19894c-0.76743,-1.98345 1.73024,-3.30161 2.08597,-4.88631c0.21969,-0.97864 -1.44616,1.39475 -2.09698,2.15793c-0.49987,0.58618 -1.68413,0.96266 -2.44556,0.81892c-2.63263,-0.49697 -1.35448,-2.83647 -1.5744,-4.43676c-0.10149,-0.73852 -1.66936,0.23847 -2.22088,-0.26307c-1.34847,-1.22626 -0.86572,-2.31186 -0.66753,-3.83739c0.09074,-0.69851 -1.12503,2.5313 -2.76658,2.33686c-0.66573,-0.07886 -1.47675,-1.2989 -1.86508,-0.75244c-1.89064,2.66046 -1.46545,3.99671 -5.06654,2.70306c-0.3475,-0.12483 -1.12713,0.56444 -1.46197,0.25994c-3.70594,-3.37011 0.88197,-7.92904 1.87118,-11.81507c0.34894,-1.37077 -0.09582,-3.63508 1.25535,-4.05352c0.58447,-0.62487 1.47475,-0.93327 2.37043,-0.73408c0.79417,0.17661 1.41538,0.71289 1.73039,1.39937c0.05602,0.09131 0.10143,0.18931 0.13359,0.29569z" fill="#ba587e" stroke="none" stroke-width="0.5"/></g><g stroke="#000000" stroke-linecap="butt"><path d="M332.39155,165.23881c-6.19968,27.87789 -22.25172,39.39852 -38.42515,35.80176c-16.17343,-3.59676 -26.34371,-20.9489 -20.14403,-48.82679c6.19968,-27.87789 24.33668,-47.56164 40.5101,-43.96488c16.17343,3.59676 24.25876,29.11201 18.05907,56.9899z" fill="#f0f0f0" stroke-width="2"/><path d="M291.00182,135.97351c-10.3289,26.62568 19.9391,67.99145 3.76567,64.39469c-16.17343,-3.59676 -26.34371,-20.9489 -20.14403,-48.82679c6.19968,-27.87789 31.3109,-54.06076 16.37836,-15.5679z" fill="#9a99ff" stroke-width="0"/></g><path d="M326.80268,172.43031c-3.43474,15.4449 -10.79625,26.94758 -16.44238,25.69195c-5.64613,-1.25563 -7.43881,-14.79408 -4.00406,-30.23898c3.43474,-15.4449 10.79625,-26.94758 16.44238,-25.69195c5.64613,1.25563 7.43881,14.79408 4.00406,30.23898z" fill="#000000" stroke="none" stroke-width="0" stroke-linecap="butt"/><g stroke="#000000" stroke-linecap="butt"><path d="M334.02174,134.83295c2.13239,10.95394 1.96973,34.11428 -13.36589,30.70384c-15.33562,-3.41044 -40.2213,-32.90926 -33.69757,-41.30858c6.20724,-7.99182 11.27752,-19.4342 26.61314,-16.02376c15.33562,3.41044 18.41811,16.18925 20.45031,26.62849z" fill="#a100fe" stroke-width="2"/><path d="M333.19641,134.28653c1.98396,10.92093 2.17052,33.67262 -12.64219,30.37846c-14.81271,-3.29415 -39.18799,-32.19315 -32.81552,-40.62611c6.0633,-8.02383 6.19299,2.36277 21.00571,5.65693c14.81271,3.29415 22.56126,-5.81708 24.452,4.59071z" fill="#99008e" stroke-width="0"/></g><g data-paper-data="{&quot;index&quot;:null}" stroke="#000000" stroke-linecap="butt"><path d="M376.76464,121.07039c16.17343,3.59676 24.25876,29.11201 18.05907,56.9899c-6.19968,27.87788 -22.76548,39.28427 -38.93891,35.68751c-16.17343,-3.59676 -25.82995,-20.83464 -19.63027,-48.71253c6.19968,-27.87789 24.33668,-47.56164 40.5101,-43.96488z" fill="#f0f0f0" stroke-width="2"/><path d="M394.3831,177.11174c-6.19968,27.87788 -22.76548,39.28427 -38.93891,35.68751c-16.17343,-3.59676 28.77318,-28.23578 30.70212,-56.7295c2.78867,-41.1935 14.43648,-6.8359 8.2368,21.04199z" fill="#9a99ff" stroke-width="0"/></g><path d="M383.07746,154.96887c5.64613,1.25563 7.43881,14.79408 4.00406,30.23898c-3.43474,15.4449 -10.79625,26.94758 -16.44238,25.69195c-5.64613,-1.25563 -7.43881,-14.79408 -4.00406,-30.23898c3.43474,-15.4449 10.79625,-26.94758 16.44238,-25.69195z" data-paper-data="{&quot;index&quot;:null}" fill="#000000" stroke="none" stroke-width="0" stroke-linecap="butt"/><g data-paper-data="{&quot;index&quot;:null}" stroke="#000000" stroke-linecap="butt"><path d="M347.66443,136.80423c6.26495,-8.59406 14.47276,-18.86205 29.80837,-15.45161c15.33562,3.41044 15.07859,15.92323 17.31374,25.79253c2.34912,10.37253 -31.48305,26.5701 -46.81867,23.15966c-15.33562,-3.41044 -6.8773,-24.48278 -0.30346,-33.50056z" fill="#a100fe" stroke-width="2"/><path d="M348.64356,136.65909c6.1235,-8.62552 9.28027,2.91091 24.09299,6.20507c14.81271,3.29415 19.33216,-6.05854 21.42339,3.77875c2.19785,10.33889 -31.09798,25.92626 -45.91069,22.6321c-14.81271,-3.29415 -6.0311,-23.56512 0.39431,-32.61591z" fill="#99008e" stroke-width="0"/></g><path d="M371.63632,338.87003c0,11.6628 -14.51982,21.11737 -32.43092,21.11737c-17.9111,0 -32.43092,-9.45457 -32.43092,-21.11737c0,-2.33142 -0.03339,-13.76009 1.08979,-15.13837c4.49546,-5.51647 17.81784,5.26144 32.14847,5.26144c17.9111,0 31.62358,-1.78588 31.62358,9.87692z" fill="#000082" stroke="#000000" stroke-width="2" stroke-linecap="butt"/><path d="M369.75004,336.13773c0,6.30841 -13.89058,10.1901 -31.80169,10.1901c-17.9111,0 -30.16566,-2.95748 -30.16566,-9.26589c0,-1.26107 -0.03338,-12.52602 1.0898,-13.27153c4.49546,-2.98386 15.55258,5.7726 29.88321,5.7726c17.9111,0 30.99434,0.26631 30.99434,6.57472z" fill="#2e0048" stroke="#000000" stroke-width="0" stroke-linecap="butt"/><path d="M328.64938,338.22522c0,11.6628 -14.51982,21.11737 -32.43092,21.11737c-17.9111,0 -32.43092,-9.45457 -32.43092,-21.11737c0,-2.33142 -0.03339,-13.76009 1.08979,-15.13837c4.49546,-5.51647 17.81784,5.26144 32.14847,5.26144c17.9111,0 31.62358,-1.78588 31.62358,9.87692z" fill="#000082" stroke="#000000" stroke-width="2" stroke-linecap="butt"/><path d="M326.7631,335.49289c0,6.30841 -13.89058,10.1901 -31.80169,10.1901c-17.9111,0 -30.16566,-2.95748 -30.16566,-9.26589c0,-1.26107 -0.03338,-12.52602 1.0898,-13.27153c4.49546,-2.98386 15.55258,5.7726 29.88321,5.7726c17.9111,0 30.99434,0.26631 30.99434,6.57472z" fill="#2e0048" stroke="#000000" stroke-width="0" stroke-linecap="butt"/><g><g><path d="M326.24836,216.5722c-4.91088,14.26555 -14.953,20.12779 -29.28769,15.92949c-11.21132,-3.28352 -19.4195,-19.42817 -14.50861,-33.69375c4.91087,-14.26563 17.69643,-21.45546 31.81985,-16.59355c2.20863,0.76029 4.02133,2.11748 5.68848,3.34156c8.99357,6.60351 10.43091,18.98153 6.288,31.01624z" fill="#485e84" stroke="#000000" stroke-width="2" stroke-linecap="butt"/><path d="M283.09233,212.56203c0,0 5.28286,2.28527 6.93972,1.15914c15.89308,-10.80202 21.43464,-23.70588 22.94179,-28.11363c0.34244,-1.00144 -0.38154,-1.85976 -0.38154,-1.85976c0,0 2.05988,0.47433 4.39718,1.90647c2.4871,1.52391 5.30393,4.08698 6.82408,6.75798c1.73642,3.05107 3.85418,11.11477 3.85418,11.11477l-3.6461,20.62921c0,0 -11.53622,6.91887 -13.66516,7.32448c-2.08566,0.39739 -4.66759,0.26941 -7.41827,0.24385c-4.27083,-0.03974 -8.51285,-1.65592 -10.80717,-3.39687c-2.92804,-2.22188 -5.53756,-6.08742 -7.09358,-9.57185c-1.44817,-3.24291 -1.94501,-6.19376 -1.94501,-6.19376z" fill="#343545" stroke="none" stroke-width="0" stroke-linecap="butt"/><path d="M306.85865,218.24792c0,0 -8.95409,-1.10568 -12.62897,-4.72165c-4.65206,-4.57742 -10.99128,-15.88744 -10.99128,-15.88744" fill="none" stroke="#000000" stroke-width="1" stroke-linecap="round"/><path d="M307.21827,181.51392c0,0 6.11849,3.70056 9.15891,6.73825c3.06949,3.06665 7.07567,11.90426 7.07567,11.90426" fill="none" stroke="#000000" stroke-width="1" stroke-linecap="round"/><path d="M306.34957,229.2068c0,0 -9.20821,-0.99765 -13.01033,-5.09555c-5.83421,-6.2881 -11.92386,-16.15785 -11.92386,-16.15785" fill="none" stroke="#000000" stroke-width="1" stroke-linecap="round"/><path d="M291.08867,228.36859c0,0 -5.51284,-16.40379 4.75069,-30.48227c11.24239,-15.42121 27.44173,-9.49908 27.44173,-9.49908" fill="none" stroke="#000000" stroke-width="1" stroke-linecap="round"/><path d="M299.59984,232.64229c0,0 -2.81768,-17.57621 6.21233,-30.01882c7.41448,-10.21652 21.52618,-6.50457 21.52618,-6.50457" fill="none" stroke="#000000" stroke-width="1" stroke-linecap="round"/><path d="M294.50408,189.22505c-0.92867,0.76471 -2.17222,0.7886 -2.77759,0.05343c-0.60542,-0.73515 -0.00571,-1.2589 0.92296,-2.02361c0.92867,-0.76471 1.8346,-1.48072 2.43997,-0.74555c0.60542,0.73515 0.34332,1.95106 -0.58535,2.71572z" fill="#8fbbbe" stroke="none" stroke-width="0" stroke-linecap="butt"/><path d="M300.69363,185.41077c-0.1958,0.56872 -1.04605,0.79171 -1.89915,0.49805c-0.8531,-0.29368 -1.16086,-0.53135 -0.9651,-1.10007c0.1958,-0.56872 1.10514,-0.96334 1.95821,-0.66965c0.8531,0.29368 1.10178,0.703 0.90598,1.27172z" fill="#8fbbbe" stroke="none" stroke-width="0" stroke-linecap="butt"/><path d="M289.20454,193.67239c-0.38292,0.81697 -1.13477,1.27227 -1.67941,1.01703c-0.54461,-0.2552 -0.16086,-0.9472 0.22203,-1.76415c0.38292,-0.81697 0.61988,-1.44954 1.16452,-1.19429c0.54461,0.2552 0.67575,1.12448 0.29285,1.94141z" fill="#8fbbbe" stroke="none" stroke-width="0" stroke-linecap="butt"/><path d="M284.08276,216.93431c0,0 0.01024,-10.2313 2.81868,-17.26924c1.59226,-3.99015 4.37305,-6.95722 6.50652,-9.18309c1.88669,-1.96845 7.93202,-4.55302 12.76503,-6.04976c3.55828,-1.10197 6.48391,-1.43004 6.48391,-1.43004" fill="none" stroke="#000000" stroke-width="0.5" stroke-linecap="round"/><path d="M292.95912,183.9c0,0 9.85706,3.82316 13.83302,7.48499c3.34985,3.08515 8.58583,12.71058 8.58583,12.71058" fill="none" stroke="#000000" stroke-width="1" stroke-linecap="round"/><path d="M312.00174,208.88427c0,0 -8.97216,-3.59565 -12.61057,-6.2813c-6.38835,-4.7155 -11.12781,-13.98449 -11.12781,-13.98449" fill="none" stroke="#000000" stroke-width="1" stroke-linecap="round"/></g><g stroke="#000000" stroke-linecap="butt"><path d="M303.70604,236.13431c19.89533,-26.74873 29.54176,-26.70926 36.03417,-21.88029c6.49242,4.82897 -4.3728,30.42775 -24.26815,57.17648c-19.89534,26.74873 -34.87729,-43.89851 -41.3697,-48.72748c-2.44339,-6.66019 4.08303,-6.72131 10.58797,-2.31204c8.02212,5.43767 17.31513,18.02971 19.0157,15.74333z" fill="#0d69be" stroke-width="2"/><path d="M308.95367,208.82472c8.53959,-11.48123 25.00918,-13.68775 36.78589,-4.9284c11.77671,8.75935 14.40092,25.16759 5.86134,36.64882c-8.53959,11.48123 -25.00919,13.68775 -36.78589,4.9284c-11.77671,-8.75934 -14.4009,-25.16758 -5.86131,-36.64882z" fill="#faddbf" stroke-width="2"/><path d="M333.87385,241.90392c8.53959,-11.48123 -0.73971,-46.3147 11.03701,-37.55536c11.77671,8.75935 14.40091,25.16759 5.86131,36.64882c-8.53959,11.48123 -25.43792,12.38778 -16.89833,0.90654z" fill="#ef8b89" stroke-width="0"/></g></g><path d="M261.21043,163.25836c0.07691,-0.24843 0.42462,-1.11758 1.47366,-0.88429c1.22019,0.27135 0.94884,1.49155 0.94884,1.49155l-0.12437,0.38732c-1.07241,2.14212 -2.37301,4.1424 -3.51797,6.24269c-1.20618,1.58903 -2.57183,3.68605 -4.43656,4.57208c-3.7761,1.79422 -7.76198,-1.9511 -8.48264,-5.4926c-0.92232,-4.5325 0.88198,-9.88345 3.02476,-13.87386c0,0 0.59612,-1.09869 1.69483,-0.50257c1.09869,0.59612 0.50257,1.69483 0.50257,1.69483c-1.5366,2.79739 -3.25129,7.16304 -3.04664,10.42236c0.13279,2.11484 1.48926,5.99258 4.34243,5.81627c1.79968,-0.11121 3.35223,-2.75406 4.30217,-3.99436c1.07062,-1.98331 2.30101,-3.86567 3.31894,-5.87939z" fill="#000000" stroke="none" stroke-width="0.5" stroke-linecap="butt"/></g></g></svg>