<svg version="1.1" xmlns="http://www.w3.org/2000/svg" xmlns:xlink="http://www.w3.org/1999/xlink" width="198.90488" height="329.16617" viewBox="0,0,198.90488,329.16617"><g transform="translate(-224.67617,-31.8212)"><g data-paper-data="{&quot;isPaintingLayer&quot;:true}" fill-rule="nonzero" stroke-linejoin="miter" stroke-miterlimit="10" stroke-dasharray="" stroke-dashoffset="0" style="mix-blend-mode: normal"><g stroke="#000000" stroke-linecap="butt"><path d="M318.59027,227.98302c22.58277,-24.52218 45.71477,-39.95791 51.66676,-34.47665c5.95199,5.48126 -7.52993,29.80386 -30.1127,54.32604c-22.58277,24.52218 -45.71476,39.95791 -51.66675,34.47666c-5.95199,-5.48125 7.52993,-29.80386 30.11271,-54.32604z" fill="#0d69be" stroke-width="2"/><path d="M340.20679,184.88824c9.6931,-10.52554 26.30313,-10.99815 37.09956,-1.0556c10.79642,9.94255 11.69086,26.53522 1.99775,37.06076c-9.69311,10.52554 -26.30313,10.99814 -37.09956,1.05559c-10.79642,-9.94255 -11.69085,-26.53522 -1.99775,-37.06076z" fill="#faddbf" stroke-width="2"/><path d="M361.53213,220.39145c9.69311,-10.52554 4.10634,-46.13824 14.90276,-36.19568c10.79642,9.94255 11.69083,26.53521 1.99775,37.06076c-9.69311,10.52554 -26.5936,9.66048 -16.9005,-0.86506z" fill="#ef8b89" stroke-width="0"/></g><g stroke="#000000" stroke-linecap="butt"><path d="M307.76518,340.83532v-95.29492h29.49199v95.29492z" fill="#73fffc" stroke-width="2"/><path d="M307.43943,340.21738l1.32626,-93.78573c0,0 5.20288,68.11227 6.3799,77.52842c0.2602,2.08162 2.52228,2.78987 2.52228,2.78987l18.60659,13.13896z" fill="#59a9e6" stroke-width="0"/></g><g stroke="#000000" stroke-linecap="butt"><path d="M268.4238,338.4128v-95.29492h29.49199v95.29492z" fill="#73fffc" stroke-width="2"/><path d="M268.09805,337.79486l1.32626,-93.78573c0,0 5.20288,68.11227 6.3799,77.52842c0.2602,2.08162 2.52228,2.78987 2.52228,2.78987l18.60659,13.13896z" fill="#59a9e6" stroke-width="0"/></g><g stroke="#000000" stroke-linecap="butt"><path d="M335.22917,235.69584c0,13.80271 10.04743,36.74388 4.95001,46.45977c-6.2338,11.88187 -28.61241,9.09579 -38.9397,9.09579c-13.66287,0 -32.94407,4.17018 -38.34426,-14.83216c-2.01935,-7.10576 4.35457,-32.37264 4.35457,-40.7234c0,-30.68249 15.2177,-55.55556 33.98969,-55.55556c18.77199,0 33.98969,24.87307 33.98969,55.55556z" fill="#0d69be" stroke-width="2"/><path d="M283.96554,251.27246c0,13.80271 62.04198,20.54886 56.94455,30.26474c-6.2338,11.88186 -28.61241,9.09579 -38.9397,9.09579c-13.66287,0 -32.94406,4.17018 -38.34425,-14.83215c-2.01936,-7.10576 4.35457,-32.37265 4.35457,-40.7234c0,-9.45244 3.34855,-28.59801 5.51953,-29.96813c5.94391,-16.76415 10.4653,25.13995 10.4653,46.16315z" fill="#10157d" stroke-width="0"/></g><g stroke-linecap="butt"><g stroke="#000000"><g><path d="M228.37917,120.27786c0,-46.79079 37.93143,-84.72222 84.72222,-84.72222c46.79079,0 84.72222,37.93143 84.72222,84.72222c0,46.79079 -37.93143,84.72222 -84.72222,84.72222c-46.79079,0 -84.72222,-37.93143 -84.72222,-84.72222z" fill="#faddbf" stroke-width="2"/><path d="M228.60994,119.40835c0,-15.05428 8.65728,-41.01117 13.16632,-44.22534c0.51494,-0.36707 5.78642,-8.91029 13.30693,-15.62682c9.34748,-8.34819 21.31473,-15.15641 21.9255,-14.95935c7.96872,2.57101 -17.52654,64.85492 -16.28763,90.14485c0.00295,0.06031 4.40745,19.70158 6.02593,20.14049c2.8855,4.74247 9.11092,19.15337 19.99223,26.29351c20.2786,13.30648 48.94186,19.68013 47.45857,20.18586c-2.37273,0.80898 -14.80271,2.76903 -20.86562,2.76903c-46.79079,0 -84.72222,-37.93143 -84.72222,-84.72222z" fill="#ef8b89" stroke-width="0"/><path d="M397.30017,119.81966c0,11.62434 -1.57787,15.64071 -2.12992,13.78899c-0.5632,-1.8891 -0.18668,-9.81362 -9.04258,-14.64925c-2.14596,-1.17177 -10.20624,6.27605 -12.93385,5.04791c-1.71325,-0.77142 -8.65215,-10.17554 -10.56583,-10.85157c-1.33801,-0.47267 -12.45011,8.37757 -13.84965,7.92692c-3.49052,-1.12394 -11.98851,-11.37355 -15.73972,-12.03156c-2.06568,-0.36235 -9.2828,11.84977 -11.39182,11.59592c-2.71985,-0.32737 -10.06862,-12.06843 -12.80601,-12.06843c-7.27985,0 -7.47978,7.01079 -12.7176,13.01701c-3.40366,3.90299 -13.98842,-13.05188 -17.11223,-8.61668c-3.87941,5.50799 -7.71992,10.81771 -11.96095,14.41734c-3.32724,2.82405 -13.36416,-10.09687 -16.24015,-7.47909c-13.88607,12.63935 -22.22353,20.64372 -22.22353,2.47189c0,-36.54015 43.28764,-8.21349 85.0704,-29.73523c39.99404,-20.60039 83.64345,-9.37431 83.64345,27.16584z" fill="#ef8b89" stroke-width="0"/></g><path d="M398.83404,111.50877c0,23.48334 6.5317,8.71531 -11.46679,-0.86026c-2.20249,-1.17177 -10.47508,6.27605 -13.27454,5.04791c-1.75838,-0.77142 -8.88005,-10.17554 -10.84414,-10.85157c-1.37326,-0.47267 -12.77806,8.37757 -14.21446,7.92692c-3.58246,-1.12394 -12.30429,-11.37355 -16.15431,-12.03156c-2.12009,-0.36235 -9.52731,11.84977 -11.69189,11.59592c-2.79149,-0.32737 -10.33384,-12.06843 -13.14333,-12.06843c-7.47161,0 -7.6768,7.01079 -13.05259,13.01701c-3.49332,3.90299 -14.35688,-13.05188 -17.56298,-8.61668c-3.98159,5.50799 -7.92327,10.81771 -12.276,14.41734c-3.41488,2.82405 -13.71618,-10.09687 -16.66792,-7.47909c-14.25184,12.63935 -22.80892,20.64372 -22.80892,2.47189c0,-36.54015 39.86264,-81.25697 85.78948,-81.25697c45.92683,0 87.36842,42.14743 87.36842,78.68758z" fill="#873412" stroke-width="2"/><path d="M398.58631,110.34598c0,23.48334 6.5317,8.71531 -11.46679,-0.86026c-2.20249,-1.17177 -10.47508,6.27605 -13.27454,5.04791c-1.75838,-0.77142 -8.88005,-10.17554 -10.84415,-10.85157c-1.37326,-0.47267 -12.77806,8.37757 -14.21446,7.92692c-3.58246,-1.12394 -12.30429,-11.37355 -16.15431,-12.03156c-2.12009,-0.36235 -9.52731,11.84977 -11.69189,11.59592c-2.79149,-0.32737 -10.33384,-12.06843 -13.14333,-12.06843c-7.47161,0 -7.6768,7.01079 -13.05259,13.01701c-3.49332,3.90299 -14.35688,-13.05188 -17.56298,-8.61668c-3.98159,5.50799 -7.92327,10.81771 -12.27601,14.41734c-3.41488,2.82405 -13.71618,-10.09687 -16.66792,-7.47909c-14.25184,12.63935 -22.80892,20.64372 -22.80892,2.47189c0,-36.54015 44.42786,-8.21349 87.31121,-29.73523c41.04751,-20.60039 85.84668,-9.37431 85.84668,27.16584z" fill="#741d23" stroke-width="0"/></g><path d="M313.84281,43.20183c0.06504,0.11563 0.11871,0.24909 0.16282,0.39594c0.0942,0.25915 0.14675,0.5383 0.14957,0.82934c0.10872,1.13632 -0.04492,2.51335 0.00011,3.00545c0.05917,0.64652 1.19031,-0.74732 1.8333,-0.6576c0.39387,0.05496 0.79058,0.76163 1.08556,0.49491c1.79014,-1.61865 3.39338,-4.4788 6.14794,-2.85557c0.91226,0.53758 0.67628,1.89067 1.24094,2.5754c0.04747,0.05756 2.60921,-0.1366 3.20483,0.39633c1.0263,0.91828 0.31921,2.25188 0.84227,3.24453c0.16737,0.31764 0.57449,-0.44225 0.90296,-0.5872c1.46188,-0.64507 3.99723,-2.00657 5.75026,-1.00484c0.9237,0.52783 0.74309,2.13955 1.25,2.58145c0.88869,0.7747 1.93355,-1.36509 2.98795,-1.89251c1.4583,-0.72946 2.18563,-0.02863 3.42998,0.8575c0.21462,0.15284 0.4729,4.13203 1.5751,5.28976c0.61955,0.65076 1.65156,-0.85868 2.54995,-0.87393c0.89637,-0.01521 2.71106,-0.73753 3.13293,-0.63391c0.84623,0.20784 1.57162,1.64085 2.32283,1.19928c3.83542,-2.25449 8.74631,-0.80574 7.11144,4.15438c-0.20689,0.62772 1.32191,-0.57392 1.94893,-0.36491c0.24308,0.08102 1.59685,1.0818 1.82405,0.9958c1.48606,-0.56253 2.42529,-1.27962 4.01644,-1.28349c1.32143,-0.00321 2.58997,0.74067 2.89673,2.12114c0.16122,0.7255 -0.99738,2.12313 -0.25981,2.21439c1.73856,0.21513 4.46436,0.94049 3.69208,3.47798c-0.83832,2.75449 -3.13962,5.14362 -5.7124,3.05264c-0.89263,-0.72546 -2.30427,1.24264 -3.36004,0.78609c-1.35252,-0.58487 -2.02055,-2.87334 -1.94906,-4.04994c0.03305,-0.54391 -1.07328,0.37399 -1.61032,0.28162c-0.72305,-0.12436 -1.06576,-1.21538 -1.79736,-1.27038c-1.63644,-0.12301 -1.3588,3.26616 -5.24535,2.4796c-1.14716,-0.23216 -2.516,-2.181 -2.89553,-3.27894c-0.22031,-0.63733 1.44671,-2.64957 1.28866,-2.75515c-0.38378,-0.25637 -1.94579,2.82743 -2.37223,2.96958c-1.02591,0.34197 -2.14798,-0.37973 -3.14348,-0.80211c-0.87953,-0.37317 -1.15332,1.88993 -2.10728,1.94293c-0.84278,0.04682 -9.35342,-0.4825 -9.68874,-0.98549c-0.40882,-0.61322 -0.82062,-1.721 -0.66291,-2.43068c0.05668,-0.25505 0.97585,-1.84123 0.79428,-1.82108c-0.64439,0.07149 -4.18815,3.4397 -6.35755,0.18561c-1.1797,-1.76955 0.97225,-3.59848 0.97549,-5.22262c0.002,-1.00299 -1.1089,1.67543 -1.57852,2.56169c-0.3607,0.68072 -1.43499,1.3053 -2.20947,1.33028c-2.67773,0.08638 -1.93793,-2.47479 -2.5,-3.98918c-0.25939,-0.69888 -1.57778,0.59517 -2.22503,0.22532c-1.58252,-0.90429 -1.34694,-2.0688 -1.48465,-3.60097c-0.06306,-0.70155 -0.5487,2.71516 -2.19331,2.88171c-0.66697,0.06754 -1.7235,-0.94735 -1.98395,-0.32962c-1.26801,3.00744 -0.56288,4.21953 -4.35893,3.73846c-0.36631,-0.04642 -0.97772,0.79566 -1.37068,0.57111c-4.34916,-2.48524 -0.86033,-7.93142 -0.7383,-11.93952c0.04305,-1.41383 -0.88265,-3.52759 0.34546,-4.22937c0.43488,-0.73685 1.23698,-1.23116 2.15454,-1.23116c0.81357,0 1.53638,0.38863 1.99291,0.99036c0.07451,0.07697 0.14011,0.16278 0.19459,0.25964z" fill="#ba587e" stroke="none" stroke-width="0.5"/></g><g stroke="#000000" stroke-linecap="butt"><path d="M359.88903,154.51695c0,28.55894 -13.1683,43.28947 -29.73684,43.28947c-16.56854,0 -30.26316,-14.73054 -30.26316,-43.28947c0,-28.55894 13.43146,-51.71053 30,-51.71053c16.56854,0 30,23.15159 30,51.71053z" fill="#f0f0f0" stroke-width="2"/><path d="M313.1333,134.93457c-4.30259,28.23297 34.22345,62.0416 17.65491,62.0416c-16.56854,0 -30.26316,-14.73054 -30.26316,-43.28947c0,-28.55894 18.82852,-59.56866 12.60825,-18.75213z" fill="#9a99ff" stroke-width="0"/></g><path d="M355.9946,162.7502c0,15.82221 -4.68891,28.64865 -10.47297,28.64865c-5.78406,0 -10.47297,-12.82644 -10.47297,-28.64865c0,-15.82221 4.68891,-28.64865 10.47297,-28.64865c5.78406,0 10.47297,12.82644 10.47297,28.64865z" fill="#000000" stroke="none" stroke-width="0" stroke-linecap="butt"/><g stroke="#000000" stroke-linecap="butt"><path d="M354.87973,124.48228c4.45946,10.22981 -9.89785,14.12162 -25.60811,14.12162c-15.71026,0 -27.17995,-4.64154 -22.63514,-14.25676c4.32432,-9.14873 6.78974,-21.41892 22.5,-21.41892c15.71026,0 21.49332,11.80491 25.74324,21.55405z" fill="#a100fe" stroke-width="2"/><path d="M353.95546,124.12804c4.3074,10.22981 -9.56036,14.12162 -24.73494,14.12162c-15.17458,0 -26.25318,-4.64154 -21.86334,-14.25676c4.17687,-9.14873 6.55823,0.96203 21.73281,0.96203c15.17458,0 20.76045,-10.57604 24.86546,-0.8269z" fill="#99008e" stroke-width="0"/></g><g data-paper-data="{&quot;index&quot;:null}" stroke="#000000" stroke-linecap="butt"><path d="M392.58105,99.18246c16.56854,0 30,23.15159 30,51.71053c0,28.55893 -13.69462,43.28947 -30.26316,43.28947c-16.56854,0 -29.73684,-14.73053 -29.73684,-43.28947c0,-28.55894 13.43146,-51.71053 30,-51.71053z" fill="#f0f0f0" stroke-width="2"/><path d="M421.94503,150.06272c0,28.55893 -13.69462,43.28947 -30.26316,43.28947c-16.56854,0 21.9575,-33.80863 17.65491,-62.0416c-6.22027,-40.81653 12.60825,-9.80681 12.60825,18.75213z" fill="#9a99ff" stroke-width="0"/></g><path d="M406.10214,130.90216c5.78406,0 10.47297,12.82644 10.47297,28.64865c0,15.82221 -4.68891,28.64865 -10.47297,28.64865c-5.78406,0 -10.47297,-12.82644 -10.47297,-28.64865c0,-15.82221 4.68891,-28.64865 10.47297,-28.64865z" data-paper-data="{&quot;index&quot;:null}" fill="#000000" stroke="none" stroke-width="0" stroke-linecap="butt"/><g data-paper-data="{&quot;index&quot;:null}" stroke="#000000" stroke-linecap="butt"><path d="M367.59036,120.85828c4.24992,-9.74914 10.03298,-21.55405 25.74324,-21.55405c15.71026,0 18.17568,12.27019 22.5,21.41892c4.54481,9.61522 -6.92488,14.25676 -22.63514,14.25676c-15.71026,0 -30.06757,-3.89181 -25.60811,-14.12162z" fill="#a100fe" stroke-width="2"/><path d="M368.51463,120.50404c4.10501,-9.74914 9.69088,0.8269 24.86546,0.8269c15.17458,0 17.55594,-10.11076 21.73281,-0.96203c4.38984,9.61522 -6.68876,14.25676 -21.86334,14.25676c-15.17458,0 -29.04234,-3.89181 -24.73494,-14.12162z" fill="#99008e" stroke-width="0"/></g><path d="M371.63632,338.87c0,11.6628 -14.51982,21.11737 -32.43092,21.11737c-17.9111,0 -32.43092,-9.45457 -32.43092,-21.11737c0,-2.33142 -0.03339,-13.76009 1.08979,-15.13837c4.49546,-5.51647 17.81784,5.26144 32.14847,5.26144c17.9111,0 31.62358,-1.78588 31.62358,9.87692z" fill="#000082" stroke="#000000" stroke-width="2" stroke-linecap="butt"/><path d="M369.75004,336.1377c0,6.30841 -13.89058,10.1901 -31.80169,10.1901c-17.9111,0 -30.16566,-2.95748 -30.16566,-9.26589c0,-1.26107 -0.03338,-12.52602 1.0898,-13.27153c4.49546,-2.98386 15.55258,5.7726 29.88321,5.7726c17.9111,0 30.99434,0.26631 30.99434,6.57472z" fill="#2e0048" stroke="#000000" stroke-width="0" stroke-linecap="butt"/><path d="M328.64938,338.22519c0,11.6628 -14.51982,21.11737 -32.43092,21.11737c-17.9111,0 -32.43092,-9.45457 -32.43092,-21.11737c0,-2.33142 -0.03339,-13.76009 1.08979,-15.13837c4.49546,-5.51647 17.81784,5.26144 32.14847,5.26144c17.9111,0 31.62358,-1.78588 31.62358,9.87692z" fill="#000082" stroke="#000000" stroke-width="2" stroke-linecap="butt"/><path d="M326.7631,335.49289c0,6.30841 -13.89058,10.1901 -31.80169,10.1901c-17.9111,0 -30.16566,-2.95748 -30.16566,-9.26589c0,-1.26107 -0.03338,-12.52602 1.0898,-13.27153c4.49546,-2.98386 15.55258,5.7726 29.88321,5.7726c17.9111,0 30.99434,0.26631 30.99434,6.57472z" fill="#2e0048" stroke="#000000" stroke-width="0" stroke-linecap="butt"/><g><g><path d="M322.77298,233.5271c-9.62397,11.61904 -21.0879,13.56542 -33.0228,4.58391c-9.33442,-7.02451 -11.3252,-25.0262 -1.70121,-36.64525c9.624,-11.61911 24.12323,-13.84088 35.62652,-4.31284c1.7989,1.49 3.01686,3.399 4.14557,5.13216c6.08878,9.34972 3.07092,21.43994 -5.04806,31.242z" fill="#485e84" stroke="#000000" stroke-width="2" stroke-linecap="butt"/><path d="M283.80016,214.5628c0,0 4.13831,4.00067 6.08577,3.53083c18.68054,-4.50682 28.41474,-14.62924 31.37879,-18.22287c0.67344,-0.81647 0.29848,-1.87489 0.29848,-1.87489c0,0 1.76049,1.16995 3.44299,3.33401c1.79033,2.30275 3.52297,5.69419 4.00409,8.72958c0.54954,3.46729 -0.31088,11.75994 -0.31088,11.75994l-10.68341,18.02008c0,0 -13.23457,2.40857 -15.36985,2.03775c-2.09187,-0.36326 -4.46298,-1.39309 -7.02812,-2.38658c-3.98273,-1.54255 -7.38284,-4.55023 -8.91626,-6.98814c-1.95696,-3.11135 -3.03648,-7.64859 -3.26446,-11.45785c-0.21218,-3.54522 0.36298,-6.48181 0.36298,-6.48181z" fill="#343545" stroke="none" stroke-width="0" stroke-linecap="butt"/><path d="M304.03703,228.26086c0,0 -7.98969,-4.19082 -10.15419,-8.87003c-2.74006,-5.92339 -4.68591,-18.74197 -4.68591,-18.74197" fill="none" stroke="#000000" stroke-width="1" stroke-linecap="round"/><path d="M317.32144,194.01117c0,0 4.42144,5.61967 6.19602,9.53409c1.79157,3.95176 2.42557,13.63426 2.42557,13.63426" fill="none" stroke="#000000" stroke-width="1" stroke-linecap="round"/><path d="M299.69787,238.33696c0,0 -8.26558,-4.17931 -10.37927,-9.35436c-3.24338,-7.94095 -5.46334,-19.32372 -5.46334,-19.32372" fill="none" stroke="#000000" stroke-width="1" stroke-linecap="round"/><path d="M285.71185,232.17343c0,0 0.62293,-17.29414 15.19008,-26.85144c15.95647,-10.46881 29.02874,0.78313 29.02874,0.78313" fill="none" stroke="#000000" stroke-width="1" stroke-linecap="round"/><path d="M292.17041,239.17285c0,0 3.55835,-17.44135 16.39455,-25.90253c10.5397,-6.94739 22.43736,1.50036 22.43736,1.50036" fill="none" stroke="#000000" stroke-width="1" stroke-linecap="round"/><path d="M302.70526,196.74595c-1.13861,0.38829 -2.31078,-0.02768 -2.61815,-0.92903c-0.30744,-0.90137 0.4384,-1.18012 1.577,-1.56841c1.13861,-0.38829 2.23877,-0.73904 2.54616,0.16232c0.30744,0.90137 -0.36642,1.94687 -1.50501,2.33511z" fill="#8fbbbe" stroke="none" stroke-width="0" stroke-linecap="butt"/><path d="M309.842,195.35815c-0.38369,0.46321 -1.25797,0.37218 -1.9528,-0.20333c-0.69484,-0.57552 -0.89906,-0.90643 -0.5154,-1.36965c0.38369,-0.46321 1.37377,-0.51199 2.06857,0.06355c0.69484,0.57552 0.78327,1.04624 0.39959,1.50944z" fill="#8fbbbe" stroke="none" stroke-width="0" stroke-linecap="butt"/><path d="M296.17825,199.03989c-0.64632,0.62956 -1.5104,0.79063 -1.9301,0.3598c-0.4197,-0.43078 0.18333,-0.94311 0.8296,-1.57267c0.64632,-0.62956 1.09102,-1.138 1.51073,-0.70718c0.4197,0.43078 0.23603,1.29049 -0.41024,1.92004z" fill="#8fbbbe" stroke="none" stroke-width="0" stroke-linecap="butt"/><path d="M283.1859,219.00358c0,0 3.61588,-9.57105 8.72478,-15.16738c2.8965,-3.17283 6.54465,-4.96932 9.32575,-6.30033c2.45945,-1.17711 9.02778,-1.46496 14.07817,-1.16211c3.71833,0.22296 6.57183,0.94717 6.57183,0.94717" fill="none" stroke="#000000" stroke-width="0.5" stroke-linecap="round"/><path d="M303.1364,191.2181c0,0 7.87686,7.05217 10.30693,11.88041c2.04741,4.0679 3.55462,14.92112 3.55462,14.92112" fill="none" stroke="#000000" stroke-width="1" stroke-linecap="round"/><path d="M312.1505,221.31098c0,0 -7.12894,-6.52735 -9.58721,-10.3231c-4.31624,-6.66461 -5.48444,-17.00928 -5.48444,-17.00928" fill="none" stroke="#000000" stroke-width="1" stroke-linecap="round"/></g><g stroke="#000000" stroke-linecap="butt"><path d="M294.78222,243.88809c28.04676,-18.01937 37.06018,-14.5823 41.43381,-7.77483c4.37364,6.80748 -14.81723,26.93361 -42.864,44.95298c-28.04676,18.01937 -17.1657,-53.37455 -21.53933,-60.18202c0.061,-7.09398 6.19009,-4.85078 10.72338,1.56835c5.59062,7.9163 9.84881,22.97574 12.24614,21.43552z" fill="#0d69be" stroke-width="2"/><path d="M309.31905,220.18089c12.03838,-7.73438 28.22872,-3.99413 36.16214,8.35406c7.93342,12.34819 4.60569,28.62833 -7.43269,36.36271c-12.03838,7.73438 -28.22873,3.99413 -36.16215,-8.35407c-7.93342,-12.34819 -4.60568,-28.62832 7.4327,-36.3627z" fill="#faddbf" stroke-width="2"/><path d="M320.98022,259.92085c12.03838,-7.73438 15.63261,-43.60299 23.56603,-31.25479c7.93342,12.34819 4.60569,28.62833 -7.4327,36.3627c-12.03838,7.73438 -28.17173,2.62647 -16.13333,-5.1079z" fill="#ef8b89" stroke-width="0"/></g></g><path d="M288.85355,169.2698c-0.77428,0.80742 0.3692,1.97747 1.5825,3.53849c1.89478,2.43782 3.75811,6.02686 0.55995,8.32378c-0.77408,0.55594 -2.68894,0.7172 -3.42426,0.78429c-0.85273,0.07781 -3.26176,0.12413 -4.11971,0.09309c-1.43791,-0.05202 -2.86844,-0.40952 -4.22251,-0.89613c-6.53093,-3.05626 -8.7927,-14.316 -4.17788,-19.90031c3.00549,-3.63689 8.72846,-4.62173 13.0248,-3.52046c3.39134,2.38274 9.53507,11.50381 1.38836,11.57725z" fill="#000000" stroke="none" stroke-width="0.5" stroke-linecap="butt"/></g></g></svg>