<svg version="1.1" xmlns="http://www.w3.org/2000/svg" xmlns:xlink="http://www.w3.org/1999/xlink" width="272.19588" height="374.77545" viewBox="0,0,272.19588,374.77545"><g transform="translate(-166.52115,44.19734)"><g data-paper-data="{&quot;isPaintingLayer&quot;:true}" fill-rule="nonzero" stroke-linejoin="miter" stroke-miterlimit="10" stroke-dasharray="" stroke-dashoffset="0" style="mix-blend-mode: normal"><g data-paper-data="{&quot;index&quot;:null}" stroke="#000000" stroke-linecap="butt"><path d="M298.86371,329.13374v-90.27109h61.17899v90.27109z" fill="#273750" stroke-width="2"/><path d="M299.65105,328.37717v-90.27109l18.42709,49.31565l42.75189,40.95544z" fill="#1f1e2e" stroke-width="0"/></g><g data-paper-data="{&quot;index&quot;:null}" stroke="#000000" stroke-linecap="butt"><path d="M246.25776,329.57811v-90.27109h61.17899v90.27109z" fill="#273750" stroke-width="2"/><path d="M247.04514,328.82151v-90.27109l18.42709,49.31565l42.75189,40.95544z" fill="#1f1e2e" stroke-width="0"/></g><g><g data-paper-data="{&quot;index&quot;:null}" stroke="#000000" stroke-linecap="butt"><path d="M373.08327,271.97678v-55.4836h64.00915v55.4836z" fill="#ffcaa0" stroke-width="2"/><g><path d="M372.87358,216.70132v-76.5058h64.84345v76.5058z" fill="#ff0008" stroke-width="2"/><path d="M373.80687,216.94661v-40.07149c0,0 19.39653,16.64509 30.16139,16.64509c10.20669,0 32.8424,-16.64509 32.8424,-16.64509v40.0715c0,0 -20.72258,0 -31.16676,0c-10.55589,0 -31.83701,0 -31.83701,0z" fill="#8d005e" stroke-width="0"/></g><path d="M374.07571,271.34838v-55.4836l16.42118,37.60555l47.58797,17.87805z" fill="#ff6e5b" stroke-width="0"/></g><g data-paper-data="{&quot;index&quot;:null}" stroke="#000000" stroke-linecap="butt"><path d="M420.22174,37.58088c0,37.17956 -14.91622,67.31954 -33.31634,67.31954c-18.40012,0 -33.31634,-30.13998 -33.31634,-67.31954c0,-37.17956 14.91622,-67.31954 33.31634,-67.31954c18.40012,0 33.31634,30.13998 33.31634,67.31954z" fill="#01930e" stroke-width="2"/><path d="M365.11145,25.98035c0,37.17956 40.69845,78.41881 22.29834,78.41881c-18.40011,0 -33.31634,-30.13998 -33.31634,-67.31954c0,-37.17956 11.01799,-48.27883 11.01799,-11.0993z" fill="#31525b" stroke-width="0"/></g><path d="M231.88612,239.03798v-131.37874h142.83735v131.37874z" data-paper-data="{&quot;index&quot;:null}" fill="#ff0008" stroke="#000000" stroke-width="2" stroke-linecap="butt"/><g data-paper-data="{&quot;index&quot;:null}" stroke="#000000" stroke-linecap="butt"><path d="M167.73086,272.02537v-55.4836h64.00915v55.4836z" fill="#ffcaa0" stroke-width="2"/><g><path d="M167.52115,216.7499v-76.5058h64.84345v76.5058z" fill="#ff0008" stroke-width="2"/><path d="M168.45445,216.9952v-40.07149c0,0 19.39653,16.64509 30.16139,16.64509c10.20669,0 32.8424,-16.64509 32.8424,-16.64509v40.0715c0,0 -20.72258,0 -31.16676,0c-10.55589,0 -31.83701,0 -31.83701,0z" fill="#8d005e" stroke-width="0"/></g><path d="M168.72327,271.39698v-55.4836l16.42118,37.60555l47.58797,17.87805z" fill="#ff6e5b" stroke-width="0"/></g><g data-paper-data="{&quot;index&quot;:null}" fill="#000000" stroke="#000000" stroke-linecap="butt"><path d="M265.64084,238.49628v-128.93344h76.78849v128.93344z" stroke-width="2"/><path d="M266.6291,237.41568v-128.93344l23.12866,70.43713l53.65982,58.49632z" stroke-width="0"/></g><g data-paper-data="{&quot;index&quot;:null}" stroke="#000000" stroke-linecap="butt"><path d="M197.5235,35.76924c0,-1.58907 1.11327,-31.60909 1.24149,-33.17381c3.24007,-39.53932 45.76288,-42.40926 99.03677,-42.40926c50.04243,0 93.27039,5.24368 100.80402,41.36733c0.80386,3.85454 -0.52577,30.19102 -0.52577,34.21573c0,14.38583 3.75228,46.00451 -5.50364,57.45139c-17.602,21.76853 -58.47856,18.13167 -94.77461,18.13167c-38.37651,0 -74.16377,1.13281 -91.02108,-22.73493c-7.46992,-10.57642 -9.25717,-40.03042 -9.25717,-52.84815z" fill="#ffcaa0" stroke-width="2"/><path d="M195.22236,35.781c0,-1.58907 1.11327,-31.60909 1.24149,-33.17381c1.84086,-22.46436 8.61472,69.90952 68.594,95.2209c47.00388,19.83574 129.75797,-9.32352 126.03664,-4.72132c-17.602,21.76853 -59.29783,18.25726 -95.59387,18.25726c-38.37651,0 -74.16377,1.13281 -91.02108,-22.73493c-7.46992,-10.57642 -9.25717,-40.03042 -9.25717,-52.84815z" fill="#ff6e5b" stroke-width="0"/></g><g data-paper-data="{&quot;index&quot;:null}" stroke="#000000" stroke-linecap="butt"><path d="M254.4473,35.18663c0,37.17956 -14.91622,67.31954 -33.31634,67.31954c-18.40012,0 -33.31634,-30.13998 -33.31634,-67.31954c0,-37.17956 14.91622,-67.31954 33.31634,-67.31954c18.40012,0 33.31634,30.13998 33.31634,67.31954z" fill="#01930e" stroke-width="2"/><path d="M199.33702,23.58613c0,37.17956 40.69845,78.41881 22.29834,78.41881c-18.40011,0 -33.31634,-30.13998 -33.31634,-67.31954c0,-37.17956 11.01799,-48.27883 11.01799,-11.0993z" fill="#31525b" stroke-width="0"/></g><g data-paper-data="{&quot;index&quot;:null}" stroke-linecap="butt"><path d="M418.66801,-7.28018c0,20.3888 -51.91321,36.91717 -115.95137,36.91717c-64.03817,0 -115.95136,-16.52839 -115.95136,-36.91717c0,-20.3888 51.91318,-36.91716 115.95136,-36.91716c64.03817,0 115.95137,16.52838 115.95137,36.91717z" fill="#000000" stroke="none" stroke-width="NaN"/><path d="M417.75162,-6.8827c0,20.3888 -51.91321,36.91717 -115.95137,36.91717c-64.03817,0 -115.95136,-16.52839 -115.95136,-36.91717c0,-20.3888 53.71123,10.21578 117.74939,10.21578c64.03817,0 114.15334,-30.60458 114.15334,-10.21578z" fill="#ff0000" stroke="#000000" stroke-width="2"/><path d="M410.99165,3.73477c0,5.61082 -45.6201,27.1106 -109.65828,25.4568c-22.4095,-0.57872 -43.54929,-2.46266 -60.78594,-5.87275c-32.00002,-6.33085 -51.64503,-16.23901 -48.72358,-20.96044c3.01733,-4.87636 47.26939,19.4852 111.30755,19.4852c64.03817,0 107.86024,-23.71963 107.86024,-18.10882z" fill="#900056" stroke="#000000" stroke-width="0"/></g><path d="M330.25224,64.37561c0,18.14517 -3.64629,32.85475 -8.14423,32.85475c-4.49794,0 -8.14423,-14.70957 -8.14423,-32.85474c0,-18.14517 3.6463,-32.85474 8.14423,-32.85474c4.49794,0 8.14423,14.70957 8.14423,32.85475z" data-paper-data="{&quot;index&quot;:null}" fill="#000000" stroke="none" stroke-width="0" stroke-linecap="butt"/><path d="M362.57175,59.38649c0,18.0726 -3.45438,32.72334 -7.71557,32.72334c-4.2612,0 -7.71557,-14.65074 -7.71557,-32.72334c0,-18.0726 3.45438,-32.72334 7.71557,-32.72334c4.2612,0 7.71557,14.65074 7.71557,32.72334z" data-paper-data="{&quot;index&quot;:null}" fill="#000000" stroke="none" stroke-width="0" stroke-linecap="butt"/><path d="M334.1921,33.50353h-37.65435" fill="none" stroke="#000000" stroke-width="5" stroke-linecap="round"/><path d="M345.54817,30.47995l29.28672,-5.22254" fill="none" stroke="#000000" stroke-width="5" stroke-linecap="round"/><path d="M290.30133,93.51868c-3.76143,7.10893 -10.1961,11.35646 -14.37223,9.48713c-4.17613,-1.86935 -4.51232,-9.14768 -0.75088,-16.25659c3.76143,-7.10893 10.1961,-11.35646 14.37223,-9.48713c4.17613,1.86935 4.51232,9.14768 0.75088,16.25659z" fill="#000000" stroke="none" stroke-width="0" stroke-linecap="butt"/></g></g></g></svg>