<svg version="1.1" xmlns="http://www.w3.org/2000/svg" xmlns:xlink="http://www.w3.org/1999/xlink" width="210.67953" height="329.70208" viewBox="0,0,210.67953,329.70208"><g transform="translate(-208.51922,-31.28529)"><g data-paper-data="{&quot;isPaintingLayer&quot;:true}" fill-rule="nonzero" stroke-linejoin="miter" stroke-miterlimit="10" stroke-dasharray="" stroke-dashoffset="0" style="mix-blend-mode: normal"><g stroke="#000000" stroke-linecap="butt"><path d="M347.6728,202.49793c33.13526,3.65698 59.27715,13.14131 58.38953,21.18386c-0.88761,8.04254 -28.46861,11.59775 -61.60388,7.94076c-33.13526,-3.65698 -59.27715,-13.14131 -58.38953,-21.18386c0.88761,-8.04254 28.46861,-11.59775 61.60389,-7.94076z" fill="#0d69be" stroke-width="2"/><path d="M395.19509,194.36981c14.22249,1.56967 24.44688,14.66846 22.83682,29.25697c-1.61007,14.5885 -14.44489,25.14239 -28.66738,23.57271c-14.2225,-1.56968 -24.44688,-14.66846 -22.83682,-29.25697c1.61006,-14.58852 14.44489,-25.14238 28.66738,-23.57271z" fill="#faddbf" stroke-width="2"/><path d="M379.23651,232.58724c14.2225,1.56968 39.59653,-24.0357 37.98646,-9.44719c-1.61007,14.5885 -14.44489,25.14237 -28.66738,23.57271c-14.2225,-1.56968 -23.54157,-15.69519 -9.31907,-14.12551z" fill="#ef8b89" stroke-width="0"/></g><g stroke="#000000" stroke-linecap="butt"><path d="M307.76518,340.83532v-95.29492h29.49199v95.29492z" fill="#73fffc" stroke-width="2"/><path d="M307.43943,340.21738l1.32626,-93.78573c0,0 5.20288,68.11227 6.3799,77.52842c0.2602,2.08162 2.52228,2.78987 2.52228,2.78987l18.60659,13.13896z" fill="#59a9e6" stroke-width="0"/></g><g stroke="#000000" stroke-linecap="butt"><path d="M268.4238,338.41279v-95.29492h29.49199v95.29492z" fill="#73fffc" stroke-width="2"/><path d="M268.09805,337.79486l1.32626,-93.78573c0,0 5.20288,68.11227 6.3799,77.52842c0.2602,2.08162 2.52228,2.78987 2.52228,2.78987l18.60659,13.13896z" fill="#59a9e6" stroke-width="0"/></g><g stroke="#000000" stroke-linecap="butt"><path d="M335.22917,235.69584c0,13.80271 10.04743,36.74388 4.95001,46.45977c-6.2338,11.88187 -28.61241,9.09579 -38.9397,9.09579c-13.66287,0 -32.94407,4.17018 -38.34426,-14.83216c-2.01935,-7.10576 4.35457,-32.37264 4.35457,-40.7234c0,-30.68249 15.2177,-55.55556 33.98969,-55.55556c18.77199,0 33.98969,24.87307 33.98969,55.55556z" fill="#0d69be" stroke-width="2"/><path d="M283.96554,251.27246c0,13.80271 62.04198,20.54886 56.94455,30.26474c-6.2338,11.88186 -28.61241,9.09579 -38.9397,9.09579c-13.66287,0 -32.94406,4.17018 -38.34425,-14.83215c-2.01936,-7.10576 4.35457,-32.37265 4.35457,-40.7234c0,-9.45244 3.34855,-28.59801 5.51953,-29.96813c5.94391,-16.76415 10.4653,25.13995 10.4653,46.16315z" fill="#10157d" stroke-width="0"/></g><g stroke-linecap="butt"><g stroke="#000000"><g><path d="M212.22222,119.74195c0,-46.79079 37.93143,-84.72222 84.72222,-84.72222c46.79079,0 84.72222,37.93143 84.72222,84.72222c0,46.79079 -37.93143,84.72222 -84.72222,84.72222c-46.79079,0 -84.72222,-37.93143 -84.72222,-84.72222z" fill="#faddbf" stroke-width="2"/><path d="M212.45299,118.87244c0,-15.05428 8.65728,-41.01117 13.16632,-44.22534c0.51494,-0.36707 5.78642,-8.91029 13.30693,-15.62682c9.34748,-8.34819 21.31473,-15.15641 21.9255,-14.95935c7.96872,2.57101 -17.52654,64.85492 -16.28763,90.14485c0.00295,0.06031 4.40745,19.70158 6.02593,20.14049c2.8855,4.74247 9.11092,19.15337 19.99223,26.29351c20.2786,13.30648 48.94186,19.68013 47.45857,20.18586c-2.37273,0.80898 -14.80271,2.76903 -20.86562,2.76903c-46.79079,0 -84.72222,-37.93143 -84.72222,-84.72222z" fill="#ef8b89" stroke-width="0"/><path d="M381.14322,119.28375c0,11.62434 -1.57787,15.64071 -2.12992,13.78899c-0.5632,-1.8891 -0.18668,-9.81362 -9.04258,-14.64925c-2.14596,-1.17177 -10.20624,6.27605 -12.93385,5.04791c-1.71325,-0.77142 -8.65215,-10.17554 -10.56583,-10.85157c-1.33801,-0.47267 -12.45011,8.37757 -13.84965,7.92692c-3.49052,-1.12394 -11.98851,-11.37355 -15.73972,-12.03156c-2.06568,-0.36235 -9.2828,11.84977 -11.39182,11.59592c-2.71985,-0.32737 -10.06862,-12.06843 -12.80601,-12.06843c-7.27985,0 -7.47978,7.01079 -12.7176,13.01701c-3.40366,3.90299 -13.98842,-13.05188 -17.11223,-8.61668c-3.87941,5.50799 -7.71992,10.81771 -11.96095,14.41734c-3.32724,2.82405 -13.36416,-10.09687 -16.24015,-7.47909c-13.88607,12.63935 -22.22353,20.64372 -22.22353,2.47189c0,-36.54015 43.28764,-8.21349 85.0704,-29.73523c39.99404,-20.60039 83.64345,-9.37431 83.64345,27.16584z" fill="#ef8b89" stroke-width="0"/></g><path d="M382.67709,110.97286c0,23.48334 6.5317,8.71531 -11.46679,-0.86026c-2.20249,-1.17177 -10.47508,6.27605 -13.27454,5.04791c-1.75838,-0.77142 -8.88005,-10.17554 -10.84414,-10.85157c-1.37326,-0.47267 -12.77806,8.37757 -14.21446,7.92692c-3.58246,-1.12394 -12.30429,-11.37355 -16.15431,-12.03156c-2.12009,-0.36235 -9.52731,11.84977 -11.69189,11.59592c-2.79149,-0.32737 -10.33384,-12.06843 -13.14333,-12.06843c-7.47161,0 -7.6768,7.01079 -13.05259,13.01701c-3.49332,3.90299 -14.35688,-13.05188 -17.56298,-8.61668c-3.98159,5.50799 -7.92327,10.81771 -12.276,14.41734c-3.41488,2.82405 -13.71618,-10.09687 -16.66792,-7.47909c-14.25184,12.63935 -22.80892,20.64372 -22.80892,2.47189c0,-36.54015 39.86264,-81.25697 85.78948,-81.25697c45.92683,0 87.36842,42.14743 87.36842,78.68758z" fill="#873412" stroke-width="2"/><path d="M382.42936,109.81007c0,23.48334 6.5317,8.71531 -11.46679,-0.86026c-2.20249,-1.17177 -10.47508,6.27605 -13.27454,5.04791c-1.75838,-0.77142 -8.88005,-10.17554 -10.84415,-10.85157c-1.37326,-0.47267 -12.77806,8.37757 -14.21446,7.92692c-3.58246,-1.12394 -12.30429,-11.37355 -16.15431,-12.03156c-2.12009,-0.36235 -9.52731,11.84977 -11.69189,11.59592c-2.79149,-0.32737 -10.33384,-12.06843 -13.14333,-12.06843c-7.47161,0 -7.6768,7.01079 -13.05259,13.01701c-3.49332,3.90299 -14.35688,-13.05188 -17.56298,-8.61668c-3.98159,5.50799 -7.92327,10.81771 -12.27601,14.41734c-3.41488,2.82405 -13.71618,-10.09687 -16.66792,-7.47909c-14.25184,12.63935 -22.80892,20.64372 -22.80892,2.47189c0,-36.54015 44.42786,-8.21349 87.31121,-29.73523c41.04751,-20.60039 85.84668,-9.37431 85.84668,27.16584z" fill="#741d23" stroke-width="0"/></g><path d="M297.68586,42.66592c0.06504,0.11563 0.11871,0.24909 0.16282,0.39594c0.0942,0.25915 0.14675,0.5383 0.14957,0.82934c0.10872,1.13632 -0.04492,2.51335 0.00011,3.00545c0.05917,0.64652 1.19031,-0.74732 1.8333,-0.6576c0.39387,0.05496 0.79058,0.76163 1.08556,0.49491c1.79014,-1.61865 3.39338,-4.4788 6.14794,-2.85557c0.91226,0.53758 0.67628,1.89067 1.24094,2.5754c0.04747,0.05756 2.60921,-0.1366 3.20483,0.39633c1.0263,0.91828 0.31921,2.25188 0.84227,3.24453c0.16737,0.31764 0.57449,-0.44225 0.90296,-0.5872c1.46188,-0.64507 3.99723,-2.00657 5.75026,-1.00484c0.9237,0.52783 0.74309,2.13955 1.25,2.58145c0.88869,0.7747 1.93355,-1.36509 2.98795,-1.89251c1.4583,-0.72946 2.18563,-0.02863 3.42998,0.8575c0.21462,0.15284 0.4729,4.13203 1.5751,5.28976c0.61955,0.65076 1.65156,-0.85868 2.54995,-0.87393c0.89637,-0.01521 2.71106,-0.73753 3.13293,-0.63391c0.84623,0.20784 1.57162,1.64085 2.32283,1.19928c3.83542,-2.25449 8.74631,-0.80574 7.11144,4.15438c-0.20689,0.62772 1.32191,-0.57392 1.94893,-0.36491c0.24308,0.08102 1.59685,1.0818 1.82405,0.9958c1.48606,-0.56253 2.42529,-1.27962 4.01644,-1.28349c1.32143,-0.00321 2.58997,0.74067 2.89673,2.12114c0.16122,0.7255 -0.99738,2.12313 -0.25981,2.21439c1.73856,0.21513 4.46436,0.94049 3.69208,3.47798c-0.83832,2.75449 -3.13962,5.14362 -5.7124,3.05264c-0.89263,-0.72546 -2.30427,1.24264 -3.36004,0.78609c-1.35252,-0.58487 -2.02055,-2.87334 -1.94906,-4.04994c0.03305,-0.54391 -1.07328,0.37399 -1.61032,0.28162c-0.72305,-0.12436 -1.06576,-1.21538 -1.79736,-1.27038c-1.63644,-0.12301 -1.3588,3.26616 -5.24535,2.4796c-1.14716,-0.23216 -2.516,-2.181 -2.89553,-3.27894c-0.22031,-0.63733 1.44671,-2.64957 1.28866,-2.75515c-0.38378,-0.25637 -1.94579,2.82743 -2.37223,2.96958c-1.02591,0.34197 -2.14798,-0.37973 -3.14348,-0.80211c-0.87953,-0.37317 -1.15332,1.88993 -2.10728,1.94293c-0.84278,0.04682 -9.35342,-0.4825 -9.68874,-0.98549c-0.40882,-0.61322 -0.82062,-1.721 -0.66291,-2.43068c0.05668,-0.25505 0.97585,-1.84123 0.79428,-1.82108c-0.64439,0.07149 -4.18815,3.4397 -6.35755,0.18561c-1.1797,-1.76955 0.97225,-3.59848 0.97549,-5.22262c0.002,-1.00299 -1.1089,1.67543 -1.57852,2.56169c-0.3607,0.68072 -1.43499,1.3053 -2.20947,1.33028c-2.67773,0.08638 -1.93793,-2.47479 -2.5,-3.98918c-0.25939,-0.69888 -1.57778,0.59517 -2.22503,0.22532c-1.58252,-0.90429 -1.34694,-2.0688 -1.48465,-3.60097c-0.06306,-0.70155 -0.5487,2.71516 -2.19331,2.88171c-0.66697,0.06754 -1.7235,-0.94735 -1.98395,-0.32962c-1.26801,3.00744 -0.56288,4.21953 -4.35893,3.73846c-0.36631,-0.04642 -0.97772,0.79566 -1.37068,0.57111c-4.34916,-2.48524 -0.86033,-7.93142 -0.7383,-11.93952c0.04305,-1.41383 -0.88265,-3.52759 0.34546,-4.22937c0.43488,-0.73685 1.23698,-1.23116 2.15454,-1.23116c0.81357,0 1.53638,0.38863 1.99291,0.99036c0.07451,0.07697 0.14011,0.16278 0.19459,0.25964z" fill="#ba587e" stroke="none" stroke-width="0.5"/></g><g stroke="#000000" stroke-linecap="butt"><path d="M327.69483,151.91172c0,28.55894 -13.1683,43.28947 -29.73684,43.28947c-16.56854,0 -30.26316,-14.73054 -30.26316,-43.28947c0,-28.55894 13.43146,-51.71053 30,-51.71053c16.56854,0 30,23.15159 30,51.71053z" fill="#f0f0f0" stroke-width="2"/><path d="M280.9391,132.32934c-4.30259,28.23297 34.22345,62.0416 17.65491,62.0416c-16.56854,0 -30.26316,-14.73054 -30.26316,-43.28947c0,-28.55894 18.82852,-59.56866 12.60825,-18.75213z" fill="#9a99ff" stroke-width="0"/></g><path d="M323.8004,160.14497c0,15.82221 -4.68891,28.64865 -10.47297,28.64865c-5.78406,0 -10.47297,-12.82644 -10.47297,-28.64865c0,-15.82221 4.68891,-28.64865 10.47297,-28.64865c5.78406,0 10.47297,12.82644 10.47297,28.64865z" fill="#000000" stroke="none" stroke-width="0" stroke-linecap="butt"/><g stroke="#000000" stroke-linecap="butt"><path d="M322.68553,121.87705c4.45946,10.22981 -9.89785,14.12162 -25.60811,14.12162c-15.71026,0 -27.17995,-4.64154 -22.63514,-14.25676c4.32432,-9.14873 6.78974,-21.41892 22.5,-21.41892c15.71026,0 21.49332,11.80491 25.74324,21.55405z" fill="#a100fe" stroke-width="2"/><path d="M321.76126,121.52281c4.3074,10.22981 -9.56036,14.12162 -24.73494,14.12162c-15.17458,0 -26.25318,-4.64154 -21.86334,-14.25676c4.17687,-9.14873 6.55823,0.96203 21.73281,0.96203c15.17458,0 20.76045,-10.57604 24.86546,-0.8269z" fill="#99008e" stroke-width="0"/></g><g data-paper-data="{&quot;index&quot;:null}" stroke="#000000" stroke-linecap="butt"><path d="M361.42151,99.16389c16.56854,0 30,23.15159 30,51.71053c0,28.55893 -13.69462,43.28947 -30.26316,43.28947c-13.95828,0 -25.50331,-10.45476 -28.79453,-30.82488c-0.61548,-3.80929 -0.9423,-7.96533 -0.9423,-12.46459c0,-28.55894 13.43146,-51.71053 30,-51.71053z" fill="#f0f0f0" stroke-width="2"/><path d="M390.78549,150.04415c0,28.55893 -13.69462,43.28947 -30.26316,43.28947c-16.56854,0 21.9575,-33.80863 17.65491,-62.0416c-6.22027,-40.81653 12.60825,-9.80681 12.60825,18.75213z" fill="#9a99ff" stroke-width="0"/></g><path d="M374.9426,130.88359c5.78406,0 10.47297,12.82644 10.47297,28.64865c0,15.82221 -4.68891,28.64865 -10.47297,28.64865c-5.78406,0 -10.47297,-12.82644 -10.47297,-28.64865c0,-15.82221 4.68891,-28.64865 10.47297,-28.64865z" data-paper-data="{&quot;index&quot;:null}" fill="#000000" stroke="none" stroke-width="0" stroke-linecap="butt"/><g data-paper-data="{&quot;index&quot;:null}" stroke="#000000" stroke-linecap="butt"><path d="M336.43082,120.83971c4.24992,-9.74914 10.03298,-21.55405 25.74324,-21.55405c15.71026,0 18.17568,12.27019 22.5,21.41892c4.54481,9.61522 -6.92488,14.25676 -22.63514,14.25676c-15.71026,0 -30.06757,-3.89181 -25.60811,-14.12162z" fill="#a100fe" stroke-width="2"/><path d="M337.35509,120.48547c4.10501,-9.74914 9.69088,0.8269 24.86546,0.8269c15.17458,0 17.55594,-10.11076 21.73281,-0.96203c4.38984,9.61522 -6.68876,14.25676 -21.86334,14.25676c-15.17458,0 -29.04234,-3.89181 -24.73494,-14.12162z" fill="#99008e" stroke-width="0"/></g><path d="M371.63632,338.87c0,11.6628 -14.51982,21.11737 -32.43092,21.11737c-17.9111,0 -32.43092,-9.45457 -32.43092,-21.11737c0,-2.33142 -0.03339,-13.76009 1.08979,-15.13837c4.49546,-5.51647 17.81784,5.26144 32.14847,5.26144c17.9111,0 31.62358,-1.78588 31.62358,9.87692z" fill="#000082" stroke="#000000" stroke-width="2" stroke-linecap="butt"/><path d="M369.75004,336.1377c0,6.30841 -13.89058,10.1901 -31.80169,10.1901c-17.9111,0 -30.16566,-2.95748 -30.16566,-9.26589c0,-1.26107 -0.03338,-12.52602 1.0898,-13.27153c4.49546,-2.98386 15.55258,5.7726 29.88321,5.7726c17.9111,0 30.99434,0.26631 30.99434,6.57472z" fill="#2e0048" stroke="#000000" stroke-width="0" stroke-linecap="butt"/><path d="M328.64938,338.22519c0,11.6628 -14.51982,21.11737 -32.43092,21.11737c-17.9111,0 -32.43092,-9.45457 -32.43092,-21.11737c0,-2.33142 -0.03339,-13.76009 1.08979,-15.13837c4.49546,-5.51647 17.81784,5.26144 32.14847,5.26144c17.9111,0 31.62358,-1.78588 31.62358,9.87692z" fill="#000082" stroke="#000000" stroke-width="2" stroke-linecap="butt"/><path d="M326.7631,335.49289c0,6.30841 -13.89058,10.1901 -31.80169,10.1901c-17.9111,0 -30.16566,-2.95748 -30.16566,-9.26589c0,-1.26107 -0.03338,-12.52602 1.0898,-13.27153c4.49546,-2.98386 15.55258,5.7726 29.88321,5.7726c17.9111,0 30.99434,0.26631 30.99434,6.57472z" fill="#2e0048" stroke="#000000" stroke-width="0" stroke-linecap="butt"/><g><g><path d="M300.2404,260.27551c-14.92448,2.20976 -24.7524,-4.00488 -27.62652,-18.6626c-2.24791,-11.46395 8.30352,-26.18439 23.228,-28.39416c14.92454,-2.2098 27.19422,5.82879 29.382,20.60454c0.34213,2.31065 -0.02789,4.54465 -0.34678,6.58822c-1.72038,11.0241 -12.0461,17.99981 -24.63668,19.86401z" fill="#485e84" stroke="#000000" stroke-width="2" stroke-linecap="butt"/><path d="M283.92762,220.12059c0,0 0.40409,5.74175 2.16667,6.69394c16.90708,9.1337 30.91322,8.11081 35.51986,7.41897c1.04663,-0.15718 1.47516,-1.19506 1.47516,-1.19506c0,0 0.52749,2.04691 0.3325,4.78114c-0.20747,2.90945 -1.18552,6.59011 -2.8565,9.16945c-1.90875,2.9463 -8.09149,8.53935 -8.09149,8.53935l-19.9909,6.2628c0,0 -11.45386,-7.05436 -12.79425,-8.75738c-1.31315,-1.66839 -2.38848,-4.01922 -3.63241,-6.4727c-1.93137,-3.80939 -2.45009,-8.31912 -1.96119,-11.15739c0.62399,-3.62227 2.8537,-7.71865 5.2302,-10.7044c2.21178,-2.77879 4.60238,-4.57862 4.60238,-4.57862z" fill="#343545" stroke="none" stroke-width="0" stroke-linecap="butt"/><path d="M289.82433,243.83548c0,0 -3.1417,-8.45741 -1.62412,-13.38458c1.92107,-6.2373 9.04155,-17.07248 9.04155,-17.07248" fill="none" stroke="#000000" stroke-width="1" stroke-linecap="round"/><path d="M322.59761,227.23944c0,0 -0.46743,7.13522 -1.76385,11.23291c-1.30874,4.13683 -7.30886,11.76253 -7.30886,11.76253" fill="none" stroke="#000000" stroke-width="1" stroke-linecap="round"/><path d="M279.86204,248.42992c0,0 -3.3546,-8.63325 -1.46782,-13.89528c2.89521,-8.0744 8.85214,-18.02481 8.85214,-18.02481" fill="none" stroke="#000000" stroke-width="1" stroke-linecap="round"/><path d="M273.57877,234.49729c0,0 12.02259,-12.44719 29.24581,-9.81943c18.86584,2.87836 21.06841,19.98508 21.06841,19.98508" fill="none" stroke="#000000" stroke-width="1" stroke-linecap="round"/><path d="M273.70435,244.02038c0,0 14.30439,-10.59467 29.50746,-8.30857c12.4831,1.87711 15.68628,16.11293 15.68628,16.11293" fill="none" stroke="#000000" stroke-width="1" stroke-linecap="round"/><path d="M309.89805,219.50426c-1.10643,-0.47223 -1.70028,-1.56509 -1.32644,-2.44097c0.37379,-0.87593 1.11487,-0.58476 2.2213,-0.11254c1.10643,0.47223 2.15919,0.94666 1.78536,1.82257c-0.37379,0.87593 -1.57383,1.20319 -2.6802,0.73094z" fill="#8fbbbe" stroke="none" stroke-width="0" stroke-linecap="butt"/><path d="M316.13402,223.24214c-0.595,0.08808 -1.18445,-0.56398 -1.31661,-1.45648c-0.13215,-0.89249 -0.06289,-1.27514 0.5321,-1.36325c0.595,-0.08808 1.36403,0.53739 1.49614,1.42989c0.13215,0.89249 -0.11669,1.30173 -0.71167,1.38982z" fill="#8fbbbe" stroke="none" stroke-width="0" stroke-linecap="butt"/><path d="M303.50994,216.8479c-0.90152,0.03628 -1.6519,-0.42146 -1.67611,-1.02245c-0.02425,-0.60095 0.76674,-0.57896 1.66823,-0.61528c0.90152,-0.03628 1.57214,-0.11723 1.59636,0.48376c0.02425,0.60095 -0.68699,1.11763 -1.58848,1.15394z" fill="#8fbbbe" stroke="none" stroke-width="0" stroke-linecap="butt"/><path d="M280.50256,223.01312c0,0 9.08674,-4.70221 16.62732,-5.45007c4.27513,-0.42399 8.18942,0.67816 11.14767,1.54701c2.61614,0.76832 7.69412,4.94445 11.24823,8.54535c2.6167,2.65114 4.25512,5.09707 4.25512,5.09707" fill="none" stroke="#000000" stroke-width="0.5" stroke-linecap="round"/><path d="M313.91351,215.68076c0,0 1.14527,10.5103 -0.27437,15.72582c-1.19606,4.39421 -7.3292,13.47435 -7.3292,13.47435" fill="none" stroke="#000000" stroke-width="1" stroke-linecap="round"/><path d="M300.50447,244.08908c0,0 -0.93975,-9.62003 -0.23119,-14.08643c1.24411,-7.84215 7.28949,-16.31741 7.28949,-16.31741" fill="none" stroke="#000000" stroke-width="1" stroke-linecap="round"/></g><g stroke="#000000" stroke-linecap="butt"><path d="M272.49541,249.27333c32.90545,5.34324 37.31241,13.92426 36.0155,21.91103c-1.2969,7.98677 -29.02339,10.12976 -61.92886,4.7865c-32.90544,-5.34325 22.9071,-51.17391 24.20401,-59.16066c4.78692,-5.2358 7.84647,0.52934 6.92788,8.33397c-1.13284,9.62494 -8.03116,23.67244 -5.21853,24.12917z" fill="#0d69be" stroke-width="2"/><path d="M299.15375,241.35598c14.12386,2.29346 23.66644,15.89697 21.31396,30.3843c-2.35248,14.48733 -15.70918,24.37243 -29.83304,22.07897c-14.12386,-2.29346 -23.66643,-15.89698 -21.31396,-30.38431c2.35248,-14.48733 15.70919,-24.37242 29.83303,-22.07897z" fill="#faddbf" stroke-width="2"/><path d="M281.26557,278.70918c14.12386,2.29346 40.77157,-21.98361 38.41909,-7.49627c-2.35248,14.48733 -15.70918,24.37243 -29.83303,22.07897c-14.12386,-2.29346 -22.70991,-16.87615 -8.58604,-14.58269z" fill="#ef8b89" stroke-width="0"/></g></g><path d="M258.43945,167.89617c0,5.02398 -4.00129,9.09671 -8.93712,9.09671c-4.93584,0 -10.21385,-12.69067 -10.21385,-17.71465c0,-5.02398 4.48006,4.94733 9.4159,4.94733c4.93584,0 9.73508,-1.35337 9.73508,3.6706z" fill="#000000" stroke="none" stroke-width="0" stroke-linecap="butt"/></g></g></svg>