<svg version="1.1" xmlns="http://www.w3.org/2000/svg" xmlns:xlink="http://www.w3.org/1999/xlink" width="237.93445" height="324.67745" viewBox="0,0,237.93445,324.67745"><g transform="translate(-188.19779,-5.90065)"><g data-paper-data="{&quot;isPaintingLayer&quot;:true}" fill-rule="nonzero" stroke-linecap="butt" stroke-linejoin="miter" stroke-miterlimit="10" stroke-dasharray="" stroke-dashoffset="0" style="mix-blend-mode: normal"><g data-paper-data="{&quot;index&quot;:null}" stroke="#000000"><path d="M376.25085,245.26589l-14.49494,-45.36607l48.62273,-15.22755l14.49494,45.36607z" fill="#ffcaa0" stroke-width="2"/><g><path d="M361.65099,200.11987l-19.98693,-62.55485l49.25648,-15.42602l19.98693,62.55485z" fill="#0000c0" stroke-width="2"/><path d="M362.42403,200.09841l-10.46856,-32.76438c0,0 19.0825,8.99546 27.25972,6.43454c7.75322,-2.42813 20.59931,-21.42291 20.59931,-21.42291l10.46857,32.76439c0,0 -15.74132,4.92983 -23.67495,7.41446c-8.01848,2.51121 -24.18408,7.57391 -24.18408,7.57391z" fill="#56006b" stroke-width="0"/></g><path d="M376.84055,244.51598l-14.49494,-45.36607l22.29823,26.84157l40.81943,3.29695z" fill="#ff6e5b" stroke-width="0"/></g><g data-paper-data="{&quot;index&quot;:null}" stroke="#000000"><path d="M298.86371,329.13817v-89.37198h61.17899v89.37198z" fill="#273750" stroke-width="2"/><path d="M299.65105,328.38913v-89.37198l18.42709,48.82446l42.75189,40.54752z" fill="#1f1e2e" stroke-width="0"/></g><path d="M246.87899,239.359v-112.668h113.80147v112.668z" data-paper-data="{&quot;index&quot;:null}" fill="#0000c0" stroke="#000000" stroke-width="2"/><g data-paper-data="{&quot;index&quot;:null}" stroke="#000000"><path d="M246.25776,329.57811v-89.37198h61.17899v89.37198z" fill="#273750" stroke-width="2"/><path d="M247.04514,328.82905v-89.37198l18.42709,48.82446l42.75189,40.54752z" fill="#1f1e2e" stroke-width="0"/></g><g data-paper-data="{&quot;index&quot;:null}" stroke="#000000"><path d="M189.30222,236.72272l5.24826,-47.29716l50.69244,5.51352l-5.24826,47.29716z" fill="#ffcaa0" stroke-width="2"/><g><path d="M194.36471,189.58491l7.23678,-65.2176l51.35316,5.58538l-7.23678,65.2176z" fill="#0000c0" stroke-width="2"/><path d="M195.08064,189.87441l3.79041,-34.15905c0,0 13.78672,15.8599 22.31201,16.78714c8.08325,0.87917 27.58421,-11.36022 27.58421,-11.36022l-3.79041,34.15906c0,0 -16.41137,-1.78497 -24.68271,-2.68459c-8.3598,-0.90925 -25.21352,-2.74233 -25.21352,-2.74233z" fill="#56006b" stroke-width="0"/></g><path d="M190.14761,236.27252l5.24826,-47.29716l9.4477,33.47142l35.99647,19.33925z" fill="#ff6e5b" stroke-width="0"/></g><g data-paper-data="{&quot;index&quot;:null}" stroke="#000000"><path d="M273.77207,238.89445v-110.57095h61.17899v110.57095z" fill="#ffffff" stroke-width="2"/><path d="M274.55945,237.96774v-110.57095l18.42709,60.40558l42.75189,50.16537z" fill="#8ebbfc" stroke-width="0"/></g><g><g data-paper-data="{&quot;index&quot;:null}" stroke="#000000"><path d="M405.93905,83.36736c-2.36652,31.7983 -16.13691,56.71135 -30.75703,55.64484c-14.62012,-1.06651 -24.55361,-27.7087 -22.18709,-59.507c2.36652,-31.7983 16.13691,-56.71135 30.75703,-55.64484c14.62012,1.06651 24.55361,27.7087 22.18709,59.507z" fill="#01930e" stroke-width="2"/><path d="M362.88863,70.25157c-2.36652,31.7983 27.34618,69.42769 12.72607,68.36118c-14.62011,-1.0665 -24.55361,-27.7087 -22.18709,-59.507c2.36652,-31.7983 11.82754,-40.65249 9.46102,-8.85418z" fill="#31525b" stroke-width="0"/></g><g data-paper-data="{&quot;index&quot;:null}" stroke="#000000"><path d="M229.10574,68.90991c0.10115,-1.35907 2.89652,-26.96956 3.098,-28.30038c5.09118,-33.62872 39.06106,-33.61857 81.39072,-30.53072c39.76205,2.90055 73.77579,9.89085 77.46245,41.22275c0.39338,3.34323 -2.33946,25.79078 -2.59564,29.23298c-0.91568,12.30367 0.05319,39.56345 -8.02987,48.81706c-15.37155,17.59758 -47.61922,12.11782 -76.45886,10.01403c-30.4927,-2.22438 -59.00018,-3.32982 -70.87522,-24.7201c-5.26215,-9.4786 -4.80746,-34.7731 -3.99159,-45.73563z" fill="#ffcaa0" stroke-width="2"/><path d="M227.27659,68.7866c0.10115,-1.35907 2.89652,-26.96956 3.098,-28.30038c2.89257,-19.10624 2.39514,60.29037 48.44159,85.41477c36.08515,19.68921 103.69482,-0.45304 100.44504,3.26735c-15.37155,17.59758 -48.27818,12.17775 -77.1178,10.07396c-30.4927,-2.22438 -59.00018,-3.32982 -70.87522,-24.7201c-5.26215,-9.4786 -4.80746,-34.7731 -3.99159,-45.73563z" fill="#ff6e5b" stroke-width="0"/></g><g data-paper-data="{&quot;index&quot;:null}" stroke="#000000"><path d="M274.37259,71.71105c-2.36652,31.7983 -16.13691,56.71135 -30.75703,55.64484c-14.62012,-1.06651 -24.55361,-27.7087 -22.18709,-59.507c2.36652,-31.7983 16.13691,-56.71135 30.75703,-55.64484c14.62012,1.06651 24.55361,27.7087 22.18709,59.507z" fill="#01930e" stroke-width="2"/><path d="M231.32217,58.59526c-2.36652,31.7983 27.34618,69.42769 12.72607,68.36118c-14.62011,-1.0665 -24.55361,-27.7087 -22.18709,-59.507c2.36652,-31.7983 11.82754,-40.65249 9.46102,-8.85418z" fill="#31525b" stroke-width="0"/></g><g data-paper-data="{&quot;index&quot;:null}"><path d="M407.55998,44.9093c-1.29777,17.43778 -43.59833,28.56491 -94.48093,24.85313c-50.88261,-3.71178 -91.07905,-20.85688 -89.78128,-38.29466c1.29777,-17.43778 43.59831,-28.5649 94.48092,-24.85312c50.88261,3.71178 91.07906,20.85687 89.78129,38.29466z" fill="#000000" stroke="none" stroke-width="NaN"/><path d="M406.80654,45.19612c-1.29777,17.43778 -43.59833,28.56491 -94.48093,24.85313c-50.88261,-3.71178 -91.07905,-20.85688 -89.78128,-38.29466c1.29777,-17.43778 42.0269,11.85038 92.90951,15.56216c50.88261,3.71178 92.65047,-19.55842 91.3527,-2.12063z" fill="#ff0000" stroke="#000000" stroke-width="2"/><path d="M400.75948,53.88503c-0.35714,4.79872 -37.97384,20.54247 -88.75118,15.41627c-17.769,-1.79386 -34.44607,-4.63042 -47.92468,-8.54602c-25.02318,-7.26933 -40.00179,-16.88207 -37.37999,-20.7508c2.70786,-3.99569 36.31843,19.4048 87.20103,23.11657c50.88261,3.71178 87.21195,-14.03475 86.85482,-9.23602z" fill="#900056" stroke="#000000" stroke-width="0"/></g><path d="M332.74676,101.0691c-1.15496,15.5189 -4.98846,27.88812 -8.56237,27.62741c-3.57391,-0.26071 -5.53485,-13.05261 -4.37988,-28.57151c1.15496,-15.5189 4.98847,-27.88811 8.56237,-27.6274c3.57391,0.26071 5.53485,13.05261 4.37988,28.57152z" data-paper-data="{&quot;index&quot;:null}" fill="#000000" stroke="none" stroke-width="0"/><path d="M358.74433,98.67539c-1.15034,15.45683 -4.82762,27.78684 -8.21342,27.53985c-3.38581,-0.24699 -5.198,-12.97744 -4.04766,-28.43427c1.15034,-15.45683 4.82762,-27.78684 8.21342,-27.53985c3.38581,0.24699 5.198,12.97744 4.04766,28.43427z" data-paper-data="{&quot;index&quot;:null}" fill="#000000" stroke="none" stroke-width="0"/><path d="M299.24549,113.11389c0.04154,-0.25891 0.26255,-1.15191 1.32957,-1.07408c1.24662,0.09094 1.15477,1.32514 1.15477,1.32514l-0.08817,0.47435c-0.67919,1.75969 -1.3169,3.53186 -2.04992,5.27007c-0.74491,1.45941 -1.31003,3.15182 -2.1429,4.54953c-2.1558,3.6178 -7.10902,3.24466 -8.38196,-0.83797c-1.30865,-4.19718 0.66953,-10.40455 2.57227,-14.14724c0,0 0.56426,-1.10429 1.67966,-0.54565c1.1154,0.55864 0.55114,1.66293 0.55114,1.66293c-1.67282,3.25533 -2.78256,7.52241 -2.63119,11.2145c0.16778,4.0926 3.43093,2.68842 4.59767,0.08105c0.5121,-1.14441 0.92041,-1.90971 1.4848,-3.01304c0.68867,-1.63509 1.2879,-3.30363 1.92425,-4.9596z" data-paper-data="{&quot;index&quot;:null}" fill="#000000" stroke="none" stroke-width="0.5"/></g></g></g></svg>