<svg version="1.1" xmlns="http://www.w3.org/2000/svg" xmlns:xlink="http://www.w3.org/1999/xlink" width="245.92848" height="327.45339" viewBox="0,0,245.92848,327.45339"><g transform="translate(-215.4264,-33.36249)"><g data-paper-data="{&quot;isPaintingLayer&quot;:true}" fill-rule="nonzero" stroke-linejoin="miter" stroke-miterlimit="10" stroke-dasharray="" stroke-dashoffset="0" style="mix-blend-mode: normal"><g stroke="#000000" stroke-linecap="butt"><path d="M347.17244,354.06232l-57.93711,-75.65985l23.4153,-17.93045l57.93712,75.65985z" fill="#73fffc" stroke-width="2"/><path d="M346.53812,353.76975l-55.96657,-75.26795c0,0 45.54153,50.91482 52.20084,57.67522c1.47217,1.49451 3.69876,0.68154 3.69876,0.68154l22.76097,-0.88063z" fill="#59a9e6" stroke-width="0"/></g><g stroke="#000000" stroke-linecap="butt"><path d="M251.67518,326.58483l36.09093,-88.19618l27.29506,11.16947l-36.09093,88.19619z" fill="#73fffc" stroke-width="2"/><path d="M251.60773,325.88955l36.74682,-86.29712c0,0 -20.98077,65.00891 -23.4576,74.1694c-0.54755,2.0251 1.27778,3.53731 1.27778,3.53731l12.24444,19.20705z" fill="#59a9e6" stroke-width="0"/></g><path d="M216.4264,334.22647c1.51965,-11.56337 14.88253,-8.00599 32.64094,-5.67219c14.20846,1.86726 28.82161,-7.08287 32.55995,-1.02767c0.93402,1.51288 -0.58823,12.83977 -0.89202,15.15131c-1.51965,11.56337 -17.1476,19.04542 -34.90601,16.71162c-17.75841,-2.3338 -30.92252,-13.59968 -29.40287,-25.16305z" data-paper-data="{&quot;index&quot;:null}" fill="#000082" stroke="#000000" stroke-width="2" stroke-linecap="butt"/><path d="M250.2394,329.2831c14.20846,1.86726 26.31227,-5.37381 30.38061,-1.82963c1.01647,0.88551 -0.48444,12.05007 -0.64875,13.30039c-0.82198,6.25463 -13.35742,7.59014 -31.11583,5.25634c-17.75841,-2.3338 -31.02479,-7.99232 -30.20281,-14.24696c0.82198,-6.25463 13.82838,-4.81394 31.58678,-2.48014z" data-paper-data="{&quot;index&quot;:null}" fill="#2e0048" stroke="#000000" stroke-width="0" stroke-linecap="butt"/><g stroke="#000000" stroke-linecap="butt"><path d="M402.49782,334.31892c1.35955,11.58329 -11.95915,22.666 -29.74814,24.75392c-17.78899,2.08792 -33.31195,-5.60959 -34.6715,-17.19288c-0.27178,-2.31552 -1.6372,-13.66238 -0.68234,-15.1622c3.82175,-6.0029 18.3097,3.14852 32.54263,1.47797c17.78899,-2.08792 31.1998,-5.46011 32.55935,6.12317z" fill="#000082" stroke-width="2"/><path d="M400.30589,331.82515c0.73538,6.2654 -12.608,11.73987 -30.397,13.8278c-17.78899,2.08792 -30.30476,0.57914 -31.04014,-5.68626c-0.147,-1.25247 -1.49333,-12.43673 -0.46472,-13.30809c4.11698,-3.48756 16.11947,3.92026 30.3524,2.24971c17.78899,-2.08792 30.81407,-3.34856 31.54946,2.91684z" fill="#2e0048" stroke-width="0"/></g><g stroke="#000000" stroke-linecap="butt"><path d="M367.11709,204.02311c32.0483,12.77718 55.41184,29.19357 52.18391,36.66703c-3.22793,7.47346 -31.82499,3.17393 -63.87328,-9.60326c-32.0483,-12.77718 -55.41184,-29.19357 -52.18391,-36.66703c3.22793,-7.47346 31.82499,-3.17393 63.8733,9.60327z" fill="#0d69be" stroke-width="2"/><path d="M416.97291,209.50866c13.75594,5.48429 20.16075,20.91969 14.30555,34.47593c-5.85521,13.55623 -21.75319,20.09985 -35.50913,14.61556c-13.75595,-5.4843 -20.16075,-20.91969 -14.30555,-34.47593c5.85521,-13.55624 21.7532,-20.09984 35.50913,-14.61555z" fill="#faddbf" stroke-width="2"/><path d="M389.90134,241.7386c13.75595,5.4843 46.56561,-12.00379 40.7104,1.55245c-5.85521,13.55623 -21.75319,20.09983 -35.50913,14.61555c-13.75595,-5.4843 -18.95721,-21.65228 -5.20126,-16.16798z" fill="#ef8b89" stroke-width="0"/></g><g stroke="#000000" stroke-linecap="butt"><path d="M346.91065,228.37785c-3.57048,13.36964 0.62481,38.0881 -7.02766,46.23229c-9.35845,9.9598 -31.19962,1.69941 -41.61148,-0.86721c-13.77476,-3.39561 -34.2926,-4.1482 -34.82149,-23.89643c-0.19777,-7.38468 12.76438,-30.2747 14.92455,-38.36345c7.93694,-29.71982 29.71342,-50.03045 48.63914,-45.36508c18.92572,4.66537 27.83388,32.54007 19.89694,62.25989z" fill="#0d69be" stroke-width="2"/><path d="M291.19786,230.72527c-3.57048,13.36964 57.23448,35.32332 49.58201,43.46751c-9.35845,9.95979 -31.19962,1.69941 -41.61148,-0.86721c-13.77476,-3.39561 -34.29259,-4.14819 -34.82148,-23.89642c-0.19778,-7.38468 12.76439,-30.27471 14.92455,-38.36345c2.44516,-9.15587 10.77369,-26.86853 13.31688,-27.65611c10.32913,-14.76094 4.04781,26.9521 -1.39047,47.31569z" fill="#10157d" stroke-width="0"/></g><g stroke-linecap="butt"><g stroke="#000000"><g><path d="M284.5579,100.60042c12.16181,-45.30838 60.25087,-72.5659 107.40992,-60.88136c47.15905,11.68454 75.52994,57.88643 63.36813,103.19481c-12.16181,45.30838 -60.25087,72.5659 -107.40992,60.88136c-47.15905,-11.68454 -75.52994,-57.88643 -63.36813,-103.19481z" fill="#faddbf" stroke-width="2"/><path d="M285.01649,99.81608c3.91289,-14.57734 19.38499,-37.54999 24.76495,-39.53633c0.6144,-0.22685 8.14791,-7.18302 17.47337,-11.80875c11.59089,-5.74946 25.42192,-9.35355 25.98629,-9.01021c7.36319,4.4795 -34.5215,58.42351 -39.84616,83.2216c-0.01271,0.05914 -0.67867,20.17802 0.83846,21.0072c1.67555,5.31279 4.20431,20.82172 13.3154,30.45292c16.97959,17.94886 44.21182,31.27833 42.58541,31.39764c-2.60168,0.19084 -15.63894,-1.01521 -21.74956,-2.52924c-47.15905,-11.68454 -75.52994,-57.88643 -63.36813,-103.19481z" fill="#ef8b89" stroke-width="0"/><path d="M454.92749,142.33947c-3.02139,11.25606 -5.6556,14.75116 -5.7307,12.82025c-0.07662,-1.96989 2.3626,-9.54933 -5.30614,-16.44324c-1.85829,-1.67053 -11.91782,3.52853 -14.34769,1.65816c-1.52622,-1.17481 -6.07544,-12.01376 -7.82846,-13.14626c-1.22568,-0.79182 -14.72558,5.00313 -16.01901,4.21727c-3.22586,-1.95998 -9.12667,-14.00697 -12.73638,-15.58089c-1.98776,-0.86671 -12.43584,9.15626 -14.49548,8.38379c-2.65617,-0.9962 -7.01106,-14.2004 -9.76999,-14.88398c-7.33714,-1.81792 -9.36089,4.92083 -16.20106,9.42878c-4.44491,2.92938 -10.70609,-16.13154 -15.00727,-12.61693c-5.34157,4.36473 -10.59241,8.54718 -15.80243,10.9737c-4.08745,1.9037 -10.84497,-13.11427 -14.42402,-11.29761c-17.28057,8.7713 -27.76413,14.44006 -23.04093,-3.15605c9.49747,-35.3825 45.76318,2.85646 93.46869,-7.5495c45.66324,-9.96047 86.73832,11.81002 77.24085,47.19252z" fill="#ef8b89" stroke-width="0"/></g><path d="M458.63359,134.67492c-6.10376,22.73935 4.31784,10.07028 -11.33344,-3.69648c-1.91526,-1.68465 -12.18879,3.46139 -14.69107,1.57308c-1.57171,-1.18608 -6.30512,-12.07068 -8.10896,-13.21576c-1.26121,-0.80062 -15.05612,4.92124 -16.38669,4.12617c-3.31852,-1.98294 -9.44493,-14.08583 -13.15422,-15.68441c-2.0426,-0.8803 -12.68227,9.0952 -14.79791,8.30885c-2.72837,-1.01408 -7.27837,-14.26663 -10.10997,-14.96821c-7.53042,-1.8658 -9.55945,4.87163 -16.53868,9.34513c-4.53528,2.90699 -11.07744,-16.22356 -15.46157,-12.72949c-5.44456,4.33921 -10.79736,8.4964 -16.11996,10.89503c-4.17578,1.88182 -11.19978,-13.20217 -14.85515,-11.40443c-17.64921,8.67996 -28.35413,14.29388 -23.63092,-3.30223c9.49747,-35.3825 61.29659,-68.72817 107.5849,-57.25938c46.2883,11.46879 77.10114,62.62966 67.60368,98.01217z" fill="#873412" stroke-width="2"/><path d="M458.68615,133.48711c-6.10376,22.73935 4.31784,10.07028 -11.33344,-3.69648c-1.91526,-1.68465 -12.18879,3.46139 -14.69107,1.57308c-1.57171,-1.18608 -6.30512,-12.07067 -8.10897,-13.21576c-1.26121,-0.80062 -15.05611,4.92124 -16.38669,4.12617c-3.31852,-1.98294 -9.44493,-14.08583 -13.15422,-15.68441c-2.0426,-0.8803 -12.68227,9.0952 -14.79791,8.30885c-2.72837,-1.01408 -7.27836,-14.26663 -10.10996,-14.96821c-7.53042,-1.8658 -9.55945,4.87163 -16.53868,9.34513c-4.53528,2.90699 -11.07744,-16.22356 -15.46157,-12.72949c-5.44456,4.33921 -10.79736,8.4964 -16.11997,10.89503c-4.17578,1.88182 -11.19977,-13.20217 -14.85514,-11.40443c-17.64921,8.67996 -28.35413,14.29388 -23.63093,-3.30224c9.49747,-35.3825 46.91237,3.14119 95.72714,-6.98992c46.725,-9.6974 88.9589,12.36021 79.46142,47.74271z" fill="#741d23" stroke-width="0"/></g><path d="M390.7277,47.30815c0.03549,0.12821 0.0549,0.27084 0.06119,0.42405c0.02758,0.27447 0.00799,0.55789 -0.06481,0.84042c-0.18577,1.12747 -0.69854,2.42251 -0.78106,2.91026c-0.1084,0.64081 1.39392,-0.4264 2.01865,-0.17896c0.38269,0.15157 0.59884,0.93492 0.96547,0.75031c2.22494,-1.12034 4.58422,-3.48951 6.93854,-1.22984c0.77971,0.74836 0.19018,1.99965 0.58131,2.8037c0.03288,0.06759 2.66525,0.5193 3.12703,1.18408c0.7957,1.14548 -0.26358,2.26025 0.00559,3.35207c0.08613,0.34937 0.69396,-0.28478 1.06269,-0.34311c1.64105,-0.25958 4.55024,-0.94481 6.05669,0.46294c0.79378,0.74177 0.19283,2.25733 0.58887,2.81181c0.69433,0.97208 2.30358,-0.839 3.50336,-1.08641c1.65938,-0.34219 2.21028,0.51807 3.2341,1.68686c0.17658,0.20159 -0.59737,4.11922 0.21258,5.51551c0.45529,0.78485 1.88774,-0.41905 2.79717,-0.20947c0.90738,0.20911 2.9241,-0.03716 3.32236,0.16852c0.79887,0.41257 1.1575,1.98133 2.02939,1.74134c4.4516,-1.22529 9.02457,1.40391 6.08761,5.79862c-0.37168,0.55617 1.48149,-0.22563 2.05912,0.13333c0.22394,0.13915 1.32824,1.44629 1.57958,1.41975c1.64396,-0.17361 2.77698,-0.63344 4.38166,-0.23984c1.33267,0.32688 2.41784,1.36397 2.36821,2.7773c-0.02608,0.74278 -1.55707,1.8068 -0.83741,2.07936c1.69633,0.64246 4.25504,2.02552 2.81714,4.28977c-1.56086,2.45788 -4.50125,4.19664 -6.5508,1.52944c-0.7111,-0.92538 -2.64539,0.62785 -3.5908,-0.07788c-1.21115,-0.90409 -1.28962,-3.28688 -0.91175,-4.40835c0.17469,-0.51843 -1.17894,0.09412 -1.69619,-0.12943c-0.69642,-0.30098 -0.75825,-1.44302 -1.48131,-1.67897c-1.61735,-0.52776 -2.21844,2.82336 -5.93113,1.09118c-1.09584,-0.51127 -1.96892,-2.74019 -2.06606,-3.89812c-0.05639,-0.67216 2.14678,-2.20436 2.01492,-2.34606c-0.32016,-0.34408 -2.69601,2.25195 -3.16275,2.28311c-1.12288,0.07495 -2.06618,-0.90409 -2.95974,-1.56168c-0.78946,-0.58098 -1.65362,1.54205 -2.62887,1.35515c-0.86158,-0.16512 -9.30163,-2.80294 -9.50885,-3.37373c-0.25266,-0.69588 -0.37975,-1.8714 -0.03635,-2.51921c0.12342,-0.23282 1.4621,-1.53921 1.27386,-1.56504c-0.66805,-0.09169 -5.11516,2.28487 -6.45583,-1.40787c-0.72905,-2.00808 1.91522,-3.24168 2.34062,-4.81356c0.26271,-0.97071 -1.5531,1.34544 -2.25677,2.08634c-0.54047,0.56908 -1.78555,0.9056 -2.57263,0.73639c-2.72126,-0.58504 -1.30994,-2.88032 -1.48281,-4.48709c-0.07978,-0.74151 -1.7449,0.18231 -2.30111,-0.33745c-1.35993,-1.27083 -0.81982,-2.33961 -0.56037,-3.85763c0.11879,-0.69507 -1.25874,2.49212 -2.95958,2.2427c-0.68977,-0.10116 -1.49084,-1.34773 -1.91389,-0.81461c-2.05968,2.59551 -1.66404,3.94529 -5.36493,2.53151c-0.35712,-0.13642 -1.19222,0.5263 -1.52991,0.21073c-3.73743,-3.49257 1.19442,-7.89498 2.35919,-11.74562c0.41087,-1.35829 0.02729,-3.63625 1.44747,-4.00911c0.62983,-0.60491 1.56672,-0.88325 2.4915,-0.65412c0.81997,0.20316 1.44746,0.75998 1.75118,1.45665c0.05509,0.09314 0.0989,0.19261 0.12863,0.30001z" fill="#ba587e" stroke="none" stroke-width="0.5"/></g><g stroke="#000000" stroke-linecap="butt"><path d="M374.87253,150.09744c-7.423,27.65415 -24.52369,38.62962 -41.22263,34.49215c-16.69894,-4.13748 -26.6726,-21.82113 -19.2496,-49.47527c7.423,-27.65415 26.9777,-46.71817 43.67665,-42.5807c16.69894,4.13748 24.21858,29.90967 16.79557,57.56382z" fill="#f0f0f0" stroke-width="2"/><path d="M332.83863,119.45967c-11.67473,26.26407 18.36703,68.62226 1.66809,64.48479c-16.69894,-4.13748 -26.6726,-21.82113 -19.2496,-49.47527c7.423,-27.65415 34.45973,-52.9796 17.58152,-15.00952z" fill="#9a99ff" stroke-width="0"/></g><path d="M369.2078,158.6358c-4.11249,15.32094 -12.17214,26.5701 -18.00173,25.12572c-5.82958,-1.44439 -7.22156,-15.03538 -3.10907,-30.35631c4.11249,-15.32094 12.17213,-26.5701 18.00172,-25.12572c5.82958,1.44439 7.22157,15.03538 3.10908,30.35631z" fill="#000000" stroke="none" stroke-width="0" stroke-linecap="butt"/><g stroke="#000000" stroke-linecap="butt"><path d="M377.51224,120.20353c1.83564,11.01932 -2.27461,52.41026 -18.10852,48.48711c-15.8339,-3.92315 -37.55906,-52.48954 -30.47931,-60.66521c6.73628,-7.77902 12.41036,-19.04481 28.24427,-15.12167c15.8339,3.92315 18.59418,16.7982 20.34356,27.29975z" fill="#a100fe" stroke-width="2"/><path d="M376.67277,119.6297c1.68238,10.98135 -1.70844,51.65252 -17.00245,47.86314c-15.29401,-3.78938 -36.85102,-51.41609 -29.92746,-59.63046c6.58767,-7.81584 6.3598,2.56926 21.65382,6.35864c15.29401,3.78938 23.67276,-5.0567 25.27609,5.40867z" fill="#99008e" stroke-width="0"/></g><g data-paper-data="{&quot;index&quot;:null}" stroke="#000000" stroke-linecap="butt"><path d="M421.28968,110.41042c16.69894,4.13748 24.21858,29.90967 16.79557,57.56382c-7.423,27.65414 -25.05415,38.49819 -41.7531,34.36072c-16.69894,-4.13748 -26.14214,-21.68969 -18.71914,-49.34384c7.423,-27.65415 26.9777,-46.71817 43.67665,-42.5807z" fill="#f0f0f0" stroke-width="2"/><path d="M437.66003,167.01145c-7.423,27.65414 -25.05415,38.49819 -41.7531,34.36072c-16.69894,-4.13748 30.91782,-27.25432 33.91964,-55.66726c4.33976,-41.07672 15.25645,-6.3476 7.83345,21.30655z" fill="#9a99ff" stroke-width="0"/></g><path d="M422.12699,143.9555c5.96981,0.74758 9.08381,14.07246 6.9553,29.76196c-2.12851,15.6895 -8.69351,27.80233 -14.66333,27.05475c-5.96981,-0.74758 -9.08382,-14.07246 -6.95531,-29.76196c2.12851,-15.6895 8.69352,-27.80232 14.66334,-27.05475z" data-paper-data="{&quot;index&quot;:null}" fill="#000000" stroke="none" stroke-width="0" stroke-linecap="butt"/><g data-paper-data="{&quot;index&quot;:null}" stroke="#000000" stroke-linecap="butt"><path d="M390.46835,125.15887c6.81736,-8.37899 15.71425,-18.36576 31.54815,-14.44261c15.8339,3.92315 15.12948,16.42026 17.10991,26.35901c2.0814,10.44552 -41.22468,43.94009 -57.05859,40.01694c-15.8339,-3.92315 1.24705,-43.14122 8.40051,-51.93333z" fill="#a100fe" stroke-width="2"/><path d="M391.49197,125.04666c6.6713,-8.41517 9.55223,3.2207 24.84624,7.01007c15.29401,3.78938 20.32209,-5.40639 22.15391,4.49554c1.92521,10.40682 -41.13459,43.33652 -56.42861,39.54714c-15.29401,-3.78938 2.42823,-42.22268 9.42845,-51.05275z" fill="#99008e" stroke-width="0"/></g><g><g><path d="M327.90629,232.96975c-14.28411,6.26793 -25.90757,3.02738 -33.01869,-10.25539c-5.56171,-10.38859 0.73317,-27.46041 15.0173,-33.72836c14.28417,-6.26799 28.87639,-1.95343 35.33539,11.63335c1.01008,2.12471 1.28588,4.3736 1.5578,6.42533c1.46669,11.0682 -6.84141,20.6373 -18.89176,25.92507z" fill="#0000c4" stroke="#000000" stroke-width="2" stroke-linecap="butt"/><path d="M299.98708,198.92535c0,0 2.06389,5.40362 4.10156,5.8288c19.54573,4.0786 33.2547,-0.7941 37.66085,-2.73816c1.00109,-0.44168 1.12954,-1.55775 1.12954,-1.55775c0,0 1.11916,1.81988 1.71462,4.50068c0.63363,2.85261 0.71968,6.66011 -0.20547,9.60206c-1.05683,3.36053 -5.62206,10.45071 -5.62206,10.45071l-18.17835,11.56865c0,0 -13.49197,-3.59562 -15.32453,-4.85937c-1.79531,-1.23802 -3.55012,-3.19771 -5.50318,-5.20917c-3.03239,-3.1231 -4.85476,-7.31134 -5.1864,-10.17373c-0.42321,-3.65306 0.62205,-8.20755 2.13518,-11.73587c1.40824,-3.28376 3.27829,-5.67674 3.27829,-5.67674z" fill="#2e006f" stroke="none" stroke-width="0" stroke-linecap="butt"/><path d="M312.73876,220.06946c0,0 -5.58628,-7.2521 -5.49322,-12.40691c0.11775,-6.52545 4.10523,-18.91198 4.10523,-18.91198" fill="none" stroke="#000000" stroke-width="1" stroke-linecap="round"/><path d="M340.71096,195.02394c0,0 1.59529,6.98431 1.48358,11.28086c-0.11271,4.33756 -3.90775,13.32971 -3.90775,13.32971" fill="none" stroke="#000000" stroke-width="1" stroke-linecap="round"/><path d="M304.10569,227.25008c0,0 -5.84997,-7.36189 -5.48457,-12.94092c0.56074,-8.56084 3.64054,-19.77424 3.64054,-19.77424" fill="none" stroke="#000000" stroke-width="1" stroke-linecap="round"/><path d="M293.79536,215.6107c0,0 8.42306,-15.29661 26.40411,-17.5558c19.69595,-2.47466 26.84357,13.34727 26.84357,13.34727" fill="none" stroke="#000000" stroke-width="1" stroke-linecap="round"/><path d="M296.67391,224.72424c0,0 11.24014,-14.15072 27.10251,-16.17706c13.02444,-1.66379 20.34263,11.1223 20.34263,11.1223" fill="none" stroke="#000000" stroke-width="1" stroke-linecap="round"/><path d="M325.77663,191.12026c-1.24283,-0.14634 -2.15254,-1.03128 -2.03195,-1.97653c0.12053,-0.94529 0.94571,-0.8714 2.18854,-0.72506c1.24283,0.14634 2.43262,0.30973 2.31205,1.255c-0.12053,0.94529 -1.22584,1.59296 -2.46862,1.44658z" fill="#8fbbbe" stroke="none" stroke-width="0" stroke-linecap="butt"/><path d="M333.0925,192.97911c-0.56948,0.24987 -1.34738,-0.21283 -1.73752,-1.0335c-0.39014,-0.82068 -0.43149,-1.2075 0.13795,-1.4574c0.56948,-0.24987 1.51924,0.1374 1.90935,0.95809c0.39014,0.82068 0.25963,1.28293 -0.30983,1.5328z" fill="#8fbbbe" stroke="none" stroke-width="0" stroke-linecap="butt"/><path d="M318.62129,190.34265c-0.89095,0.28524 -1.77357,0.05393 -1.97151,-0.51669c-0.19797,-0.57057 0.59929,-0.76913 1.49019,-1.0544c0.89095,-0.28524 1.53809,-0.54926 1.73605,0.02136c0.19797,0.57057 -0.36383,1.26448 -1.25474,1.54971z" fill="#8fbbbe" stroke="none" stroke-width="0" stroke-linecap="butt"/><path d="M297.39854,202.65534c0,0 7.72646,-7.04095 15.05007,-9.85371c4.15212,-1.59467 8.38462,-1.62303 11.59373,-1.60999c2.83798,0.01149 9.12267,2.61295 13.71737,5.08507c3.38283,1.82007 5.72815,3.71473 5.72815,3.71473" fill="none" stroke="#000000" stroke-width="0.5" stroke-linecap="round"/><path d="M328.68635,186.33195c0,0 4.1835,9.7787 4.27174,15.18333c0.07436,4.55352 -3.43321,14.97983 -3.43321,14.97983" fill="none" stroke="#000000" stroke-width="1" stroke-linecap="round"/><path d="M323.49108,217.34681c0,0 -3.72064,-8.98055 -4.30332,-13.46801c-1.02306,-7.87915 2.57162,-17.7 2.57162,-17.7" fill="none" stroke="#000000" stroke-width="1" stroke-linecap="round"/></g><g stroke="#000000" stroke-linecap="butt"><path d="M296.98364,230.10629c34.44666,-4.00611 41.33378,3.01333 42.34585,11.04606c1.01208,8.03274 -26.09203,17.79215 -60.53869,21.79825c-34.44666,4.00611 8.11117,-55.52275 7.09909,-63.55548c3.27285,-6.35932 7.99867,-1.67076 9.33638,6.08194c1.6497,9.56089 -1.187,24.97165 1.75736,24.62923z" fill="#0d69be" stroke-width="2"/><path d="M321.3504,215.09638c14.78538,-1.71952 28.25953,8.69843 30.09534,23.26915c1.83582,14.57073 -8.66188,27.77658 -23.44726,29.49612c-14.78538,1.71952 -28.25953,-8.69844 -30.09534,-23.26917c-1.83582,-14.57073 8.66188,-27.77658 23.44726,-29.4961z" fill="#faddbf" stroke-width="2"/><path d="M314.26231,255.94822c14.78538,-1.71952 34.41221,-32.44255 36.24802,-17.87182c1.83582,14.57073 -8.66188,27.77658 -23.44726,29.49611c-14.78538,1.71952 -27.58615,-9.90477 -12.80076,-11.62428z" fill="#ef8b89" stroke-width="0"/></g></g><path d="M299.08862,140.44399c-1.1562,1.09393 0.90975,2.51194 2.27015,3.76194c2.72039,2.49964 6.03532,5.55528 4.42009,9.61869c-2.75279,6.92514 -10.66392,-0.34985 -12.79932,-3.36589c-3.44292,-5.76009 -5.44377,-17.34955 3.75136,-19.2824c0.56122,-0.11797 3.53571,-0.31168 4.05497,-0.18723c4.91289,1.17744 3.76299,7.17801 0.19533,8.90279l-0.8715,0.44358c0,0 -0.50396,0.25595 -1.02105,0.10852z" fill="#000000" stroke="none" stroke-width="0.5" stroke-linecap="butt"/></g></g></svg>