<svg version="1.1" xmlns="http://www.w3.org/2000/svg" xmlns:xlink="http://www.w3.org/1999/xlink" width="195.07408" height="328.99466" viewBox="0,0,195.07408,328.99466"><g transform="translate(-208.51922,-31.82119)"><g data-paper-data="{&quot;isPaintingLayer&quot;:true}" fill-rule="nonzero" stroke-linejoin="miter" stroke-miterlimit="10" stroke-dasharray="" stroke-dashoffset="0" style="mix-blend-mode: normal"><g stroke="#000000" stroke-linecap="butt"><path d="M333.69255,221.13966c17.77824,28.20023 26.64162,54.55913 19.7969,58.87424c-6.84472,4.31511 -26.80558,-15.04762 -44.58382,-43.24785c-17.77824,-28.20023 -26.64162,-54.55913 -19.7969,-58.87424c6.84472,-4.31511 26.80558,15.04762 44.58382,43.24786z" fill="#0d69be" stroke-width="2"/><path d="M369.65185,253.25452c7.63087,12.10425 3.75195,28.26193 -8.66381,36.08919c-12.41576,7.82725 -28.66677,4.36007 -36.29764,-7.74419c-7.63087,-12.10426 -3.75195,-28.26193 8.66381,-36.08919c12.41576,-7.82726 28.66677,-4.36006 36.29764,7.74419z" fill="#faddbf" stroke-width="2"/><path d="M329.81336,264.57453c7.63087,12.10426 43.46735,16.00589 31.05159,23.83315c-12.41576,7.82725 -28.66676,4.36006 -36.29764,-7.74419c-7.63087,-12.10426 -2.38483,-28.19321 5.24604,-16.08895z" fill="#ef8b89" stroke-width="0"/></g><g stroke="#000000" stroke-linecap="butt"><path d="M347.17244,354.06231l-57.93711,-75.65985l23.4153,-17.93045l57.93712,75.65985z" fill="#73fffc" stroke-width="2"/><path d="M346.53812,353.76974l-55.96657,-75.26795c0,0 45.54153,50.91482 52.20084,57.67522c1.47217,1.49451 3.69876,0.68154 3.69876,0.68154l22.76097,-0.88063z" fill="#59a9e6" stroke-width="0"/></g><g stroke="#000000" stroke-linecap="butt"><path d="M251.67518,326.58482l36.09093,-88.19618l27.29506,11.16947l-36.09093,88.19619z" fill="#73fffc" stroke-width="2"/><path d="M251.60773,325.88955l36.74682,-86.29712c0,0 -20.98077,65.00891 -23.4576,74.1694c-0.54755,2.0251 1.27778,3.53731 1.27778,3.53731l12.24444,19.20705z" fill="#59a9e6" stroke-width="0"/></g><g stroke="#000000" stroke-linecap="butt"><path d="M335.22917,235.69585c0,13.80271 10.04743,36.74388 4.95001,46.45977c-6.2338,11.88187 -28.61241,9.09579 -38.9397,9.09579c-13.66287,0 -32.94407,4.17018 -38.34426,-14.83216c-2.01935,-7.10576 4.35457,-32.37264 4.35457,-40.7234c0,-30.68249 15.2177,-55.55556 33.98969,-55.55556c18.77199,0 33.98969,24.87307 33.98969,55.55556z" fill="#0d69be" stroke-width="2"/><path d="M283.96554,251.27245c0,13.80271 62.04198,20.54886 56.94455,30.26474c-6.2338,11.88186 -28.61241,9.09579 -38.9397,9.09579c-13.66287,0 -32.94406,4.17018 -38.34425,-14.83215c-2.01936,-7.10576 4.35457,-32.37265 4.35457,-40.7234c0,-9.45244 3.34855,-28.59801 5.51953,-29.96813c5.94391,-16.76415 10.4653,25.13995 10.4653,46.16315z" fill="#10157d" stroke-width="0"/></g><g stroke-linecap="butt"><g stroke="#000000"><g><path d="M212.22222,120.27785c0,-46.79079 37.93143,-84.72222 84.72222,-84.72222c46.79079,0 84.72222,37.93143 84.72222,84.72222c0,46.79079 -37.93143,84.72222 -84.72222,84.72222c-46.79079,0 -84.72222,-37.93143 -84.72222,-84.72222z" fill="#faddbf" stroke-width="2"/><path d="M212.45299,119.40834c0,-15.05428 8.65728,-41.01117 13.16632,-44.22534c0.51494,-0.36707 5.78642,-8.91029 13.30693,-15.62682c9.34748,-8.34819 21.31473,-15.15641 21.9255,-14.95935c7.96872,2.57101 -17.52654,64.85492 -16.28763,90.14485c0.00295,0.06031 4.40745,19.70158 6.02593,20.14049c2.8855,4.74247 9.11092,19.15337 19.99223,26.29351c20.2786,13.30648 48.94186,19.68013 47.45857,20.18586c-2.37273,0.80898 -14.80271,2.76903 -20.86562,2.76903c-46.79079,0 -84.72222,-37.93143 -84.72222,-84.72222z" fill="#ef8b89" stroke-width="0"/><path d="M381.14322,119.81965c0,11.62434 -1.57787,15.64071 -2.12992,13.78899c-0.5632,-1.8891 -0.18668,-9.81362 -9.04258,-14.64925c-2.14596,-1.17177 -10.20624,6.27605 -12.93385,5.04791c-1.71325,-0.77142 -8.65215,-10.17554 -10.56583,-10.85157c-1.33801,-0.47267 -12.45011,8.37757 -13.84965,7.92692c-3.49052,-1.12394 -11.98851,-11.37355 -15.73972,-12.03156c-2.06568,-0.36235 -9.2828,11.84977 -11.39182,11.59592c-2.71985,-0.32737 -10.06862,-12.06843 -12.80601,-12.06843c-7.27985,0 -7.47978,7.01079 -12.7176,13.01701c-3.40366,3.90299 -13.98842,-13.05188 -17.11223,-8.61668c-3.87941,5.50799 -7.71992,10.81771 -11.96095,14.41734c-3.32724,2.82405 -13.36416,-10.09687 -16.24015,-7.47909c-13.88607,12.63935 -22.22353,20.64372 -22.22353,2.47189c0,-36.54015 43.28764,-8.21349 85.0704,-29.73523c39.99404,-20.60039 83.64345,-9.37431 83.64345,27.16584z" fill="#ef8b89" stroke-width="0"/></g><path d="M382.67709,111.50876c0,23.48334 6.5317,8.71531 -11.46679,-0.86026c-2.20249,-1.17177 -10.47508,6.27605 -13.27454,5.04791c-1.75838,-0.77142 -8.88005,-10.17554 -10.84414,-10.85157c-1.37326,-0.47267 -12.77806,8.37757 -14.21446,7.92692c-3.58246,-1.12394 -12.30429,-11.37355 -16.15431,-12.03156c-2.12009,-0.36235 -9.52731,11.84977 -11.69189,11.59592c-2.79149,-0.32737 -10.33384,-12.06843 -13.14333,-12.06843c-7.47161,0 -7.6768,7.01079 -13.05259,13.01701c-3.49332,3.90299 -14.35688,-13.05188 -17.56298,-8.61668c-3.98159,5.50799 -7.92327,10.81771 -12.276,14.41734c-3.41488,2.82405 -13.71618,-10.09687 -16.66792,-7.47909c-14.25184,12.63935 -22.80892,20.64372 -22.80892,2.47189c0,-36.54015 39.86264,-81.25697 85.78948,-81.25697c45.92683,0 87.36842,42.14743 87.36842,78.68758z" fill="#873412" stroke-width="2"/><path d="M382.42936,110.34597c0,23.48334 6.5317,8.71531 -11.46679,-0.86026c-2.20249,-1.17177 -10.47508,6.27605 -13.27454,5.04791c-1.75838,-0.77142 -8.88005,-10.17554 -10.84415,-10.85157c-1.37326,-0.47267 -12.77806,8.37757 -14.21446,7.92692c-3.58246,-1.12394 -12.30429,-11.37355 -16.15431,-12.03156c-2.12009,-0.36235 -9.52731,11.84977 -11.69189,11.59592c-2.79149,-0.32737 -10.33384,-12.06843 -13.14333,-12.06843c-7.47161,0 -7.6768,7.01079 -13.05259,13.01701c-3.49332,3.90299 -14.35688,-13.05188 -17.56298,-8.61668c-3.98159,5.50799 -7.92327,10.81771 -12.27601,14.41734c-3.41488,2.82405 -13.71618,-10.09687 -16.66792,-7.47909c-14.25184,12.63935 -22.80892,20.64372 -22.80892,2.47189c0,-36.54015 44.42786,-8.21349 87.31121,-29.73523c41.04751,-20.60039 85.84668,-9.37431 85.84668,27.16584z" fill="#741d23" stroke-width="0"/></g><path d="M297.68586,43.20182c0.06504,0.11563 0.11871,0.24909 0.16282,0.39594c0.0942,0.25915 0.14675,0.5383 0.14957,0.82934c0.10872,1.13632 -0.04492,2.51335 0.00011,3.00545c0.05917,0.64652 1.19031,-0.74732 1.8333,-0.6576c0.39387,0.05496 0.79058,0.76163 1.08556,0.49491c1.79014,-1.61865 3.39338,-4.4788 6.14794,-2.85557c0.91226,0.53758 0.67628,1.89067 1.24094,2.5754c0.04747,0.05756 2.60921,-0.1366 3.20483,0.39633c1.0263,0.91828 0.31921,2.25188 0.84227,3.24453c0.16737,0.31764 0.57449,-0.44225 0.90296,-0.5872c1.46188,-0.64507 3.99723,-2.00657 5.75026,-1.00484c0.9237,0.52783 0.74309,2.13955 1.25,2.58145c0.88869,0.7747 1.93355,-1.36509 2.98795,-1.89251c1.4583,-0.72946 2.18563,-0.02863 3.42998,0.8575c0.21462,0.15284 0.4729,4.13203 1.5751,5.28976c0.61955,0.65076 1.65156,-0.85868 2.54995,-0.87393c0.89637,-0.01521 2.71106,-0.73753 3.13293,-0.63391c0.84623,0.20784 1.57162,1.64085 2.32283,1.19928c3.83542,-2.25449 8.74631,-0.80574 7.11144,4.15438c-0.20689,0.62772 1.32191,-0.57392 1.94893,-0.36491c0.24308,0.08102 1.59685,1.0818 1.82405,0.9958c1.48606,-0.56253 2.42529,-1.27962 4.01644,-1.28349c1.32143,-0.00321 2.58997,0.74067 2.89673,2.12114c0.16122,0.7255 -0.99738,2.12313 -0.25981,2.21439c1.73856,0.21513 4.46436,0.94049 3.69208,3.47798c-0.83832,2.75449 -3.13962,5.14362 -5.7124,3.05264c-0.89263,-0.72546 -2.30427,1.24264 -3.36004,0.78609c-1.35252,-0.58487 -2.02055,-2.87334 -1.94906,-4.04994c0.03305,-0.54391 -1.07328,0.37399 -1.61032,0.28162c-0.72305,-0.12436 -1.06576,-1.21538 -1.79736,-1.27038c-1.63644,-0.12301 -1.3588,3.26616 -5.24535,2.4796c-1.14716,-0.23216 -2.516,-2.181 -2.89553,-3.27894c-0.22031,-0.63733 1.44671,-2.64957 1.28866,-2.75515c-0.38378,-0.25637 -1.94579,2.82743 -2.37223,2.96958c-1.02591,0.34197 -2.14798,-0.37973 -3.14348,-0.80211c-0.87953,-0.37317 -1.15332,1.88993 -2.10728,1.94293c-0.84278,0.04682 -9.35342,-0.4825 -9.68874,-0.98549c-0.40882,-0.61322 -0.82062,-1.721 -0.66291,-2.43068c0.05668,-0.25505 0.97585,-1.84123 0.79428,-1.82108c-0.64439,0.07149 -4.18815,3.4397 -6.35755,0.18561c-1.1797,-1.76955 0.97225,-3.59848 0.97549,-5.22262c0.002,-1.00299 -1.1089,1.67543 -1.57852,2.56169c-0.3607,0.68072 -1.43499,1.3053 -2.20947,1.33028c-2.67773,0.08638 -1.93793,-2.47479 -2.5,-3.98918c-0.25939,-0.69888 -1.57778,0.59517 -2.22503,0.22532c-1.58252,-0.90429 -1.34694,-2.0688 -1.48465,-3.60097c-0.06306,-0.70155 -0.5487,2.71516 -2.19331,2.88171c-0.66697,0.06754 -1.7235,-0.94735 -1.98395,-0.32962c-1.26801,3.00744 -0.56288,4.21953 -4.35893,3.73846c-0.36631,-0.04642 -0.97772,0.79566 -1.37068,0.57111c-4.34916,-2.48524 -0.86033,-7.93142 -0.7383,-11.93952c0.04305,-1.41383 -0.88265,-3.52759 0.34546,-4.22937c0.43488,-0.73685 1.23698,-1.23116 2.15454,-1.23116c0.81357,0 1.53638,0.38863 1.99291,0.99036c0.07451,0.07697 0.14011,0.16278 0.19459,0.25964z" fill="#ba587e" stroke="none" stroke-width="0.5"/></g><g stroke="#000000" stroke-linecap="butt"><path d="M308.60392,146.53854c0,28.55894 -13.1683,43.28947 -29.73684,43.28947c-16.56854,0 -30.26316,-14.73054 -30.26316,-43.28947c0,-28.55894 13.43146,-51.71053 30,-51.71053c16.56854,0 30,23.15159 30,51.71053z" fill="#f0f0f0" stroke-width="2"/><path d="M261.84819,126.95615c-4.30259,28.23297 34.22345,62.0416 17.65491,62.0416c-16.56854,0 -30.26316,-14.73054 -30.26316,-43.28947c0,-28.55894 18.82852,-59.56866 12.60825,-18.75213z" fill="#9a99ff" stroke-width="0"/></g><path d="M304.70949,154.77179c0,15.82221 -4.68891,28.64865 -10.47297,28.64865c-5.78406,0 -10.47297,-12.82644 -10.47297,-28.64865c0,-15.82221 4.68891,-28.64865 10.47297,-28.64865c5.78406,0 10.47297,12.82644 10.47297,28.64865z" fill="#000000" stroke="none" stroke-width="0" stroke-linecap="butt"/><g stroke="#000000" stroke-linecap="butt"><path d="M303.59462,116.50385c4.45946,10.22981 10.97171,51.29554 -4.73855,51.29554c-15.71026,0 -48.04951,-41.81546 -43.5047,-51.43068c4.32432,-9.14873 6.78974,-21.41892 22.5,-21.41892c15.71026,0 21.49332,11.80491 25.74324,21.55405z" fill="#a100fe" stroke-width="2"/><path d="M302.67035,116.14961c4.3074,10.22981 11.30921,50.42597 -3.86537,50.42597c-15.17458,0 -47.12275,-40.94589 -42.73291,-50.56111c4.17687,-9.14873 6.55823,0.96203 21.73281,0.96203c15.17458,0 20.76045,-10.57604 24.86546,-0.8269z" fill="#99008e" stroke-width="0"/></g><g data-paper-data="{&quot;index&quot;:null}" stroke="#000000" stroke-linecap="butt"><path d="M341.87606,96.97251c16.56854,0 30,23.15159 30,51.71053c0,28.55893 -13.69462,43.28947 -30.26316,43.28947c-16.56854,0 -29.73684,-14.73053 -29.73684,-43.28947c0,-28.55894 13.43146,-51.71053 30,-51.71053z" fill="#f0f0f0" stroke-width="2"/><path d="M371.24004,147.85277c0,28.55893 -13.69462,43.28947 -30.26316,43.28947c-16.56854,0 21.9575,-33.80863 17.65491,-62.0416c-6.22027,-40.81653 12.60825,-9.80681 12.60825,18.75213z" fill="#9a99ff" stroke-width="0"/></g><path d="M355.39715,128.69221c5.78406,0 10.47297,12.82644 10.47297,28.64865c0,15.82221 -4.68891,28.64865 -10.47297,28.64865c-5.78406,0 -10.47297,-12.82644 -10.47297,-28.64865c0,-15.82221 4.68891,-28.64865 10.47297,-28.64865z" data-paper-data="{&quot;index&quot;:null}" fill="#000000" stroke="none" stroke-width="0" stroke-linecap="butt"/><g data-paper-data="{&quot;index&quot;:null}" stroke="#000000" stroke-linecap="butt"><path d="M316.88537,118.64833c4.24992,-9.74914 10.03298,-21.55405 25.74324,-21.55405c15.71026,0 18.17568,12.27019 22.5,21.41892c4.54481,9.61522 -27.37942,52.43858 -43.08968,52.43858c-15.71026,0 -9.61302,-42.07363 -5.15357,-52.30344z" fill="#a100fe" stroke-width="2"/><path d="M317.80964,118.29409c4.10501,-9.74914 9.69088,0.8269 24.86546,0.8269c15.17458,0 17.55594,-10.11076 21.73281,-0.96203c4.38984,9.61522 -27.44633,51.83252 -42.62091,51.83252c-15.17458,0 -8.28476,-41.46757 -3.97737,-51.69738z" fill="#99008e" stroke-width="0"/></g><path d="M239.78315,148.89144c1,0 1,1 1,1l-0.00411,0.29325c-0.40804,4.48794 -0.48226,9.26275 -3.29897,13.02197c-1.59262,2.86671 -5.09498,4.48484 -6.55209,0.37867c-1.64221,-4.6278 0.54499,-11.86437 1.81215,-16.29985c0,0 0.27472,-0.96152 1.23625,-0.6868c0.96152,0.27472 0.6868,1.23625 0.6868,1.23625c-1.15026,4.02549 -1.88733,7.91064 -1.88733,12.09098c0,2.82176 0.80082,6.19821 3.02616,2.19259c2.60906,-3.47536 2.60787,-7.96336 2.98524,-12.11487l-0.00411,-0.11218c0,0 0,-1 1,-1z" fill="#000000" stroke="none" stroke-width="0.5" stroke-linecap="butt"/><path d="M216.4264,334.22646c1.51965,-11.56337 14.88253,-8.00599 32.64094,-5.67219c14.20846,1.86726 28.82161,-7.08287 32.55995,-1.02767c0.93402,1.51288 -0.58823,12.83977 -0.89202,15.15131c-1.51965,11.56337 -17.1476,19.04542 -34.90601,16.71162c-17.75841,-2.3338 -30.92252,-13.59968 -29.40287,-25.16305z" data-paper-data="{&quot;index&quot;:null}" fill="#000082" stroke="#000000" stroke-width="2" stroke-linecap="butt"/><path d="M250.2394,329.2831c14.20846,1.86726 26.31227,-5.37381 30.38061,-1.82963c1.01647,0.88551 -0.48444,12.05007 -0.64875,13.30039c-0.82198,6.25463 -13.35742,7.59014 -31.11583,5.25634c-17.75841,-2.3338 -31.02479,-7.99232 -30.20281,-14.24696c0.82198,-6.25463 13.82838,-4.81394 31.58678,-2.48014z" data-paper-data="{&quot;index&quot;:null}" fill="#2e0048" stroke="#000000" stroke-width="0" stroke-linecap="butt"/><g><g><path d="M274.12621,265.49523c-13.76543,-6.17542 -18.69965,-16.7046 -13.22767,-30.60304c4.27966,-10.87013 21.09781,-17.59128 34.86326,-11.41585c13.76551,6.17542 19.77489,19.55643 13.66105,33.18471c-0.95608,2.13121 -2.47097,3.81431 -3.84019,5.36449c-7.38648,8.36245 -19.84363,8.67941 -31.45643,3.46971z" fill="#0000c4" stroke="#000000" stroke-width="2" stroke-linecap="butt"/><path d="M282.00592,222.87557c0,0 -2.75165,5.05563 -1.77928,6.80716c9.32711,16.80116 21.67958,23.48208 25.93372,25.37998c0.96654,0.43121 1.88656,-0.21253 1.88656,-0.21253c0,0 -0.65788,2.00881 -2.29465,4.20766c-1.74166,2.33978 -4.54795,4.9144 -7.34498,6.18787c-3.19502,1.45463 -11.41666,2.83772 -11.41666,2.83772l-20.21712,-5.48878c0,0 -5.85203,-12.11234 -6.0643,-14.26916c-0.20798,-2.11296 0.15196,-4.67288 0.4251,-7.41009c0.42413,-4.24991 2.4157,-8.32918 4.35616,-10.45742c2.4765,-2.71609 6.5613,-4.96694 10.17168,-6.2029c3.36013,-1.15029 6.34372,-1.37941 6.34372,-1.37941z" fill="#2e006f" stroke="none" stroke-width="0" stroke-linecap="butt"/><path d="M274.20317,246.03337c0,0 1.90742,-8.81816 5.8396,-12.15254c4.9777,-4.221 16.81258,-9.51611 16.81258,-9.51611" fill="none" stroke="#000000" stroke-width="1" stroke-linecap="round"/><path d="M310.75558,249.6991c0,0 -4.23643,5.76042 -7.53556,8.51498c-3.33058,2.7809 -12.49302,5.97504 -12.49302,5.97504" fill="none" stroke="#000000" stroke-width="1" stroke-linecap="round"/><path d="M263.33464,244.53962c0,0 1.82273,-9.08097 6.24632,-12.49867c6.78787,-5.24433 17.16585,-10.42055 17.16585,-10.42055" fill="none" stroke="#000000" stroke-width="1" stroke-linecap="round"/><path d="M265.54357,229.41616c0,0 16.83353,-4.01342 29.9307,7.47606c14.34629,12.58526 6.9896,28.18557 6.9896,28.18557" fill="none" stroke="#000000" stroke-width="1" stroke-linecap="round"/><path d="M260.52086,237.50798c0,0 17.75852,-1.22366 29.33752,8.89002c9.5074,8.30426 4.5399,22.02443 4.5399,22.02443" fill="none" stroke="#000000" stroke-width="1" stroke-linecap="round"/><path d="M304.22058,236.34227c-0.67798,-0.99375 -0.5898,-2.23441 0.19689,-2.77111c0.78668,-0.53677 1.25431,0.10767 1.93228,1.10142c0.67798,0.99375 1.30952,1.96046 0.52283,2.49718c-0.78668,0.53677 -1.97406,0.16625 -2.65198,-0.82749z" fill="#8fbbbe" stroke="none" stroke-width="0" stroke-linecap="butt"/><path d="M307.46204,242.85011c-0.54878,-0.24621 -0.6943,-1.11309 -0.32501,-1.93627c0.36929,-0.82319 0.63372,-1.1083 1.18251,-0.86212c0.54878,0.24621 0.85993,1.18739 0.49061,2.01056c-0.36929,0.82319 -0.79936,1.034 -1.34813,0.7878z" fill="#8fbbbe" stroke="none" stroke-width="0" stroke-linecap="butt"/><path d="M300.26849,230.6638c-0.77917,-0.45494 -1.16493,-1.24473 -0.86167,-1.76416c0.3032,-0.51942 0.95784,-0.07492 1.737,0.37997c0.77917,0.45494 1.38782,0.74788 1.08458,1.26732c-0.3032,0.51942 -1.18075,0.57176 -1.95989,0.11685z" fill="#8fbbbe" stroke="none" stroke-width="0" stroke-linecap="butt"/><path d="M277.56222,223.46828c0,0 10.18882,0.93145 16.94529,4.36218c3.83057,1.94507 6.53521,4.98173 8.55993,7.30694c1.79059,2.05628 3.82032,8.30976 4.8758,13.25791c0.77711,3.64305 0.84041,6.58634 0.84041,6.58634" fill="none" stroke="#000000" stroke-width="0.5" stroke-linecap="round"/><path d="M309.6631,235.28305c0,0 -4.69517,9.47277 -8.70012,13.10286c-3.37425,3.05845 -13.43202,7.40648 -13.43202,7.40648" fill="none" stroke="#000000" stroke-width="1" stroke-linecap="round"/><path d="M283.06569,251.9987c0,0 4.38891,-8.61195 7.39126,-11.99376c5.27157,-5.93781 14.92965,-9.82344 14.92965,-9.82344" fill="none" stroke="#000000" stroke-width="1" stroke-linecap="round"/></g><g stroke="#000000" stroke-linecap="butt"><path d="M256.6733,241.28307c24.84867,22.22301 23.94079,31.8267 18.54685,37.85793c-5.39394,6.03124 -29.91043,-7.0948 -54.7591,-29.31782c-24.84867,-22.22301 46.86059,-30.78294 52.25452,-36.81417c6.85314,-1.83376 6.32638,4.67163 1.3493,10.75314c-6.13791,7.49992 -19.51554,15.62138 -17.39158,17.52092z" fill="#0d69be" stroke-width="2"/><path d="M283.39944,248.96836c10.66568,9.53868 11.3803,26.14006 1.59614,37.08022c-9.78416,10.94017 -26.36203,12.07629 -37.02772,2.53762c-10.66568,-9.53868 -11.38029,-26.14007 -1.59613,-37.08023c9.78416,-10.94017 26.36203,-12.07629 37.02771,-2.53761z" fill="#faddbf" stroke-width="2"/><path d="M248.21078,270.80883c10.66568,9.53868 46.19318,3.43354 36.40902,14.3737c-9.78416,10.94017 -26.36203,12.07629 -37.02771,2.53761c-10.66568,-9.53868 -10.04699,-26.45 0.61869,-16.91131z" fill="#ef8b89" stroke-width="0"/></g></g><g stroke="#000000" stroke-linecap="butt"><path d="M402.49782,334.31892c1.35955,11.58329 -11.95915,22.666 -29.74814,24.75392c-17.78899,2.08792 -33.31195,-5.60959 -34.6715,-17.19288c-0.27178,-2.31552 -1.6372,-13.66238 -0.68234,-15.1622c3.82175,-6.0029 18.3097,3.14852 32.54263,1.47797c17.78899,-2.08792 31.1998,-5.46011 32.55935,6.12317z" fill="#000082" stroke-width="2"/><path d="M400.30589,331.82514c0.73538,6.2654 -12.608,11.73987 -30.397,13.8278c-17.78899,2.08792 -30.30476,0.57914 -31.04014,-5.68626c-0.147,-1.25247 -1.49333,-12.43673 -0.46472,-13.30809c4.11698,-3.48756 16.11947,3.92026 30.3524,2.24971c17.78899,-2.08792 30.81407,-3.34856 31.54946,2.91684z" fill="#2e0048" stroke-width="0"/></g></g></g></svg>