<svg version="1.1" xmlns="http://www.w3.org/2000/svg" xmlns:xlink="http://www.w3.org/1999/xlink" width="237.22802" height="325.85659" viewBox="0,0,237.22802,325.85659"><g transform="translate(-171.35338,-35.13079)"><g data-paper-data="{&quot;isPaintingLayer&quot;:true}" fill-rule="nonzero" stroke-linejoin="miter" stroke-miterlimit="10" stroke-dasharray="" stroke-dashoffset="0" style="mix-blend-mode: normal"><g stroke="#000000" stroke-linecap="butt"><path d="M335.6171,188.94863c33.32913,0.69833 60.21034,7.82235 60.04085,15.91195c-0.1695,8.0896 -27.32552,14.08141 -60.65465,13.38308c-33.32913,-0.69833 -60.21034,-7.82235 -60.04085,-15.91195c0.1695,-8.0896 27.32552,-14.08141 60.65466,-13.38307z" fill="#0d69be" stroke-width="2"/><path d="M382.22922,176.63014c14.30571,0.29974 25.65353,12.43825 25.34608,27.11213c-0.30746,14.67387 -12.15376,26.32641 -26.45947,26.02667c-14.30571,-0.29975 -25.65353,-12.43825 -25.34608,-27.11213c0.30745,-14.67387 12.15377,-26.32641 26.45947,-26.02667z" fill="#faddbf" stroke-width="2"/><path d="M369.72952,216.11438c14.30571,0.29975 37.30425,-27.45892 36.9968,-12.78505c-0.30746,14.67387 -12.15376,26.3264 -26.45947,26.02667c-14.30571,-0.29975 -24.84303,-13.54135 -10.53732,-13.24161z" fill="#ef8b89" stroke-width="0"/></g><g stroke="#000000" stroke-linecap="butt"><path d="M307.76518,340.83532v-95.29492h29.49199v95.29492z" fill="#73fffc" stroke-width="2"/><path d="M307.43943,340.21738l1.32626,-93.78573c0,0 5.20288,68.11227 6.3799,77.52842c0.2602,2.08162 2.52228,2.78987 2.52228,2.78987l18.60659,13.13896z" fill="#59a9e6" stroke-width="0"/></g><g stroke="#000000" stroke-linecap="butt"><path d="M268.4238,338.4128v-95.29492h29.49199v95.29492z" fill="#73fffc" stroke-width="2"/><path d="M268.09805,337.79486l1.32626,-93.78573c0,0 5.20288,68.11227 6.3799,77.52842c0.2602,2.08162 2.52228,2.78987 2.52228,2.78987l18.60659,13.13896z" fill="#59a9e6" stroke-width="0"/></g><g stroke="#000000" stroke-linecap="butt"><path d="M330.26201,231.47066c1.5933,13.71044 14.22176,35.33844 10.27996,45.57779c-4.82055,12.52203 -27.37118,12.33784 -37.62943,13.52996c-13.57154,1.57716 -32.24246,7.94517 -39.80007,-10.30677c-2.8261,-6.82516 0.58855,-32.6589 -0.37541,-40.95384c-3.54181,-30.47738 8.70296,-56.94082 27.34946,-59.10775c18.6465,-2.16693 36.63368,20.78323 40.17548,51.26061z" fill="#0d69be" stroke-width="2"/><path d="M281.13915,252.86073c1.5933,13.71044 63.99928,13.24973 60.05747,23.48908c-4.82056,12.52202 -27.37118,12.33784 -37.62943,13.52996c-13.57154,1.57716 -32.24245,7.94517 -39.80006,-10.30676c-2.82611,-6.82516 0.58855,-32.65891 -0.37541,-40.95384c-1.09113,-9.38925 0.02498,-28.79337 2.02329,-30.40494c3.96902,-17.33821 13.29735,23.76384 15.72414,44.6465z" fill="#10157d" stroke-width="0"/></g><g stroke-linecap="butt"><g stroke="#000000"><g><path d="M176.77105,137.13592c-7.71384,-46.15056 23.44528,-89.8163 69.59585,-97.53014c46.15056,-7.71384 89.81629,23.44528 97.53013,69.59585c7.71384,46.15056 -23.44528,89.8163 -69.59585,97.53014c-46.15056,7.71384 -89.81629,-23.44528 -97.53013,-69.59585z" fill="#faddbf" stroke-width="2"/><path d="M176.85531,136.24026c-2.48182,-14.8483 1.7778,-41.87725 5.69527,-45.79079c0.44738,-0.44694 4.23831,-9.74231 10.54865,-17.60676c7.84332,-9.77497 18.52443,-18.46293 19.15933,-18.36926c8.28354,1.22212 -6.59487,66.85692 -1.20366,91.59657c0.01285,0.059 7.59511,18.7054 9.2638,18.87149c3.62785,4.20188 12.14385,17.3893 24.05338,22.63786c22.19481,9.78132 51.51663,11.34239 50.13701,12.08573c-2.2069,1.18908 -14.14367,5.17149 -20.12362,6.17101c-46.15056,7.71384 -89.8163,-23.44528 -97.53014,-69.59585z" fill="#ef8b89" stroke-width="0"/><path d="M343.30521,108.83599c1.91637,11.46529 1.02221,15.68683 0.17245,13.95145c-0.86693,-1.7704 -1.80198,-9.64856 -11.3339,-12.95806c-2.30977,-0.80196 -9.03193,7.87276 -11.92469,7.11109c-1.81698,-0.47842 -10.21129,-8.60993 -12.21023,-8.96123c-1.39763,-0.24562 -10.89865,10.31544 -12.35333,10.10168c-3.62805,-0.53312 -13.6995,-9.24153 -17.50786,-9.27212c-2.09715,-0.01685 -7.20225,13.21798 -9.32427,13.31529c-2.73661,0.1255 -11.92044,-10.24341 -14.62037,-9.79213c-7.18024,1.20014 -6.22165,8.14797 -10.39763,14.9355c-2.71365,4.41071 -15.94872,-10.56719 -18.29861,-5.67769c-2.91829,6.07218 -5.8309,11.94239 -9.42048,16.19194c-2.81615,3.33393 -14.84586,-7.75553 -17.25093,-4.69944c-11.61237,14.75564 -18.51616,24.02499 -21.51194,6.1018c-6.02394,-36.04018 41.34129,-15.23742 79.00431,-43.35291c36.05067,-26.91186 80.95355,-23.03534 86.97749,13.00484z" fill="#ef8b89" stroke-width="0"/></g><path d="M343.44798,100.38595c3.87142,23.16203 7.87911,7.51926 -11.45172,1.0419c-2.36553,-0.79264 -9.29709,7.91708 -12.26072,7.16726c-1.8615,-0.47098 -10.43606,-8.57237 -12.48473,-8.91535c-1.43239,-0.23981 -11.22211,10.36951 -12.71315,10.16183c-3.71873,-0.51796 -14.01095,-9.18947 -17.91678,-9.20377c-2.15082,-0.00788 -7.44342,13.25829 -9.62023,13.36476c-2.80727,0.13731 -12.18202,-10.19968 -14.95307,-9.73652c-7.36938,1.23176 -6.41598,8.18045 -10.72804,14.99073c-2.80208,4.42549 -16.31214,-10.50645 -18.7432,-5.60338c-3.01908,6.08902 -6.03147,11.97591 -9.73121,16.24387c-2.90259,3.34838 -15.19306,-7.69749 -17.67285,-4.62891c-11.97314,14.81594 -19.09354,24.12149 -22.08932,6.1983c-6.02394,-36.04018 25.92134,-86.71683 71.21978,-94.28824c45.29842,-7.57141 93.12133,27.16735 99.14527,63.20753z" fill="#873412" stroke-width="2"/><path d="M343.01194,99.27991c3.87142,23.16203 7.87911,7.51926 -11.45172,1.0419c-2.36553,-0.79264 -9.29709,7.91708 -12.26072,7.16726c-1.8615,-0.47098 -10.43606,-8.57237 -12.48474,-8.91535c-1.43239,-0.23981 -11.22211,10.36951 -12.71315,10.16183c-3.71873,-0.51796 -14.01095,-9.18946 -17.91677,-9.20376c-2.15082,-0.00788 -7.44342,13.25828 -9.62023,13.36475c-2.80727,0.13731 -12.18202,-10.19968 -14.95307,-9.73651c-7.36938,1.23176 -6.41598,8.18044 -10.72804,14.99072c-2.80208,4.42549 -16.31214,-10.50645 -18.7432,-5.60338c-3.01908,6.08902 -6.03148,11.97591 -9.73123,16.24387c-2.90259,3.34838 -15.19306,-7.69749 -17.67285,-4.62891c-11.97314,14.81594 -19.09354,24.12149 -22.08932,6.1983c-6.02394,-36.04018 42.46591,-15.4254 81.21446,-43.72233c37.08973,-27.08553 83.12663,-23.39856 89.15057,12.64162z" fill="#741d23" stroke-width="0"/></g><path d="M248.3587,47.02512c0.08321,0.10333 0.15815,0.22612 0.22587,0.36368c0.13563,0.24007 0.23349,0.50674 0.28425,0.79333c0.29457,1.10285 0.37004,2.48637 0.49558,2.96431c0.16495,0.62792 1.05082,-0.93332 1.6998,-0.95083c0.39754,-0.01073 0.90532,0.62088 1.1523,0.30917c1.4988,-1.89162 2.60858,-4.97694 5.59306,-3.83004c0.9884,0.37983 0.97872,1.75331 1.64854,2.33559c0.05631,0.04895 2.55099,-0.56488 3.22632,-0.13744c1.16364,0.73652 0.68608,2.16844 1.36563,3.06128c0.21744,0.2857 0.49372,-0.53091 0.7938,-0.72802c1.33553,-0.87725 3.61174,-2.63809 5.50593,-1.93907c0.99808,0.36833 1.08564,1.98777 1.65847,2.34006c1.00424,0.61759 1.68205,-1.66517 2.63507,-2.3592c1.31809,-0.95989 2.15101,-0.38856 3.52442,0.28031c0.23688,0.11537 1.14763,3.99753 2.42561,4.95771c0.71835,0.53972 1.4874,-1.1192 2.37098,-1.28235c0.8816,-0.16277 2.55238,-1.17438 2.98556,-1.14173c0.86891,0.06549 1.82062,1.3593 2.48876,0.79993c3.41127,-2.85594 8.4938,-2.23662 7.69902,2.92515c-0.10058,0.65324 1.20921,-0.78399 1.86211,-0.68121c0.25311,0.03984 1.75335,0.80374 1.96326,0.68146c1.37299,-0.79982 2.18115,-1.66194 3.74989,-1.92807c1.30282,-0.22101 2.67664,0.30356 3.20678,1.61457c0.27862,0.68899 -0.63372,2.25851 0.10881,2.22692c1.75024,-0.07443 4.55832,0.19164 4.21493,2.82173c-0.37275,2.855 -2.24869,5.59083 -5.13098,3.9526c-1.00002,-0.56838 -2.06789,1.60551 -3.18448,1.32926c-1.43043,-0.35389 -2.4666,-2.50092 -2.59006,-3.6732c-0.05707,-0.54191 -0.99694,0.54581 -1.54186,0.54324c-0.73366,-0.00346 -1.25154,-1.02305 -1.9822,-0.95669c-1.63433,0.14845 -0.80175,3.44548 -4.76479,3.31041c-1.16974,-0.03986 -2.84113,-1.73637 -3.39648,-2.75672c-0.32237,-0.59229 0.99011,-2.85182 0.81682,-2.9299c-0.42079,-0.18959 -1.45304,3.10952 -1.85021,3.32003c-0.95549,0.50642 -2.18119,-0.02042 -3.2327,-0.27291c-0.92901,-0.22307 -0.82597,2.0542 -1.75814,2.26375c-0.82353,0.18512 -9.30498,1.06608 -9.71864,0.62526c-0.50432,-0.53743 -1.09311,-1.56217 -1.05456,-2.28813c0.01386,-0.2609 0.65896,-1.97691 0.4832,-1.9271c-0.62379,0.17674 -3.56379,4.08309 -6.23996,1.23117c-1.45528,-1.55085 0.36571,-3.70953 0.10115,-5.31198c-0.16338,-0.9896 -0.81752,1.83532 -1.1346,2.78687c-0.24354,0.73087 -1.20016,1.52401 -1.95993,1.67633c-2.62685,0.52664 -2.3194,-2.12145 -3.12344,-3.52246c-0.37105,-0.64655 -1.45807,0.84713 -2.15744,0.58905c-1.70995,-0.63103 -1.66957,-1.81844 -2.05799,-3.30694c-0.17785,-0.68156 -0.09357,2.76847 -1.68822,3.20387c-0.64671,0.17657 -1.8561,-0.65025 -2.01115,0.00196c-0.75486,3.17533 0.14044,4.25459 -3.68297,4.40591c-0.36895,0.0146 -0.83317,0.94595 -1.25777,0.78926c-4.69937,-1.73424 -2.15612,-7.68106 -2.69653,-11.65444c-0.19062,-1.40158 -1.45212,-3.33381 -0.35651,-4.22845c0.30746,-0.79846 1.01709,-1.41824 1.92209,-1.56951c0.80244,-0.13413 1.57942,0.13002 2.12891,0.64826c0.08618,0.06363 0.16503,0.13745 0.23473,0.22401z" fill="#ba587e" stroke="none" stroke-width="0.5"/></g><g stroke="#000000" stroke-linecap="butt"><path d="M287.72693,150.4089c4.70817,28.16818 -5.8515,44.86806 -22.19334,47.59952c-16.34184,2.73146 -32.27753,-9.53986 -36.9857,-37.70803c-4.70817,-28.16818 4.72278,-53.21728 21.06462,-55.94874c16.34184,-2.73146 33.40625,17.88907 38.11442,46.05725z" fill="#f0f0f0" stroke-width="2"/><path d="M238.38263,138.80253c0.41072,28.55598 43.98324,55.55069 27.6414,58.28215c-16.34184,2.73146 -32.27753,-9.53986 -36.9857,-37.70803c-4.70817,-28.16818 8.75052,-61.85763 9.3443,-20.57412z" fill="#9a99ff" stroke-width="0"/></g><path d="M288.29329,156.17374c2.60842,15.60572 0.09821,29.02967 -5.60671,29.98321c-5.70492,0.95355 -12.44422,-10.92439 -15.05264,-26.53011c-2.60842,-15.60572 -0.09821,-29.02966 5.60671,-29.98321c5.70492,-0.95355 12.44421,10.92438 15.05263,26.5301z" fill="#000000" stroke="none" stroke-width="0" stroke-linecap="butt"/><g stroke="#000000" stroke-linecap="butt"><path d="M277.83471,121.61101c6.08491,9.35466 -7.43436,15.56014 -22.92966,18.1501c-15.4953,2.58997 -27.57325,-0.09719 -24.67577,-10.3301c2.75691,-9.73645 3.16576,-22.2452 18.66106,-24.83516c15.4953,-2.58997 23.14537,8.10004 28.94436,17.01515z" fill="#a100fe" stroke-width="2"/><path d="M276.86469,121.414c5.93493,9.37973 -7.10148,15.5045 -22.06843,18.00615c-14.96695,2.50165 -26.65916,-0.24998 -23.91453,-10.45734c2.61147,-9.71214 6.62709,-0.13231 21.59404,-2.63396c14.96695,-2.50165 18.73285,-13.85386 24.38891,-4.91486z" fill="#99008e" stroke-width="0"/></g><g data-paper-data="{&quot;index&quot;:null}" stroke="#000000" stroke-linecap="butt"><path d="M312.9548,91.99092c16.34184,-2.73146 33.40625,17.88907 38.11442,46.05725c4.70817,28.16817 -6.37062,44.95482 -22.71246,47.68628c-16.34184,2.73146 -31.75841,-9.62662 -36.46658,-37.79479c-4.70817,-28.16818 4.72278,-53.21728 21.06462,-55.94873z" fill="#f0f0f0" stroke-width="2"/><path d="M350.30503,137.33411c4.70817,28.16817 -6.37061,44.95483 -22.71245,47.68628c-16.34184,2.73146 16.08344,-36.96591 7.18528,-64.10326c-12.8641,-39.23259 10.819,-11.7512 15.52717,16.41697z" fill="#9a99ff" stroke-width="0"/></g><path d="M334.96001,121.40304c5.70492,-0.95355 12.44421,10.92438 15.05263,26.5301c2.60842,15.60572 0.09821,29.02967 -5.60671,29.98321c-5.70492,0.95355 -12.44422,-10.92439 -15.05264,-26.53011c-2.60842,-15.60572 -0.09821,-29.02966 5.60671,-29.98321z" data-paper-data="{&quot;index&quot;:null}" fill="#000000" stroke="none" stroke-width="0" stroke-linecap="butt"/><g data-paper-data="{&quot;index&quot;:null}" stroke="#000000" stroke-linecap="butt"><path d="M291.87949,117.49008c2.58454,-10.31638 6.34234,-22.91315 21.83764,-25.50311c15.4953,-2.58997 19.94983,9.10589 25.72322,17.41654c6.06777,8.73441 -4.47979,15.20331 -19.97508,17.79327c-15.4953,2.58997 -30.29776,1.11833 -27.58579,-9.70669z" fill="#a100fe" stroke-width="2"/><path d="M292.73271,116.98831c2.44162,-10.29249 9.6946,-0.78204 24.66155,-3.28369c14.96695,-2.50165 15.64888,-12.86665 21.27685,-4.53169c5.91492,8.75995 -4.2469,15.16438 -19.21385,17.66603c-14.96695,2.50165 -29.28655,0.9493 -26.72456,-9.85064z" fill="#99008e" stroke-width="0"/></g><path d="M371.63632,338.87c0,11.6628 -14.51982,21.11737 -32.43092,21.11737c-17.9111,0 -32.43092,-9.45457 -32.43092,-21.11737c0,-2.33142 -0.03339,-13.76009 1.08979,-15.13837c4.49546,-5.51647 17.81784,5.26144 32.14847,5.26144c17.9111,0 31.62358,-1.78588 31.62358,9.87692z" fill="#000082" stroke="#000000" stroke-width="2" stroke-linecap="butt"/><path d="M369.75004,336.1377c0,6.30841 -13.89058,10.1901 -31.80169,10.1901c-17.9111,0 -30.16566,-2.95748 -30.16566,-9.26589c0,-1.26107 -0.03338,-12.52602 1.0898,-13.27153c4.49546,-2.98386 15.55258,5.7726 29.88321,5.7726c17.9111,0 30.99434,0.26631 30.99434,6.57472z" fill="#2e0048" stroke="#000000" stroke-width="0" stroke-linecap="butt"/><path d="M328.64938,338.22519c0,11.6628 -14.51982,21.11737 -32.43092,21.11737c-17.9111,0 -32.43092,-9.45457 -32.43092,-21.11737c0,-2.33142 -0.03339,-13.76009 1.08979,-15.13837c4.49546,-5.51647 17.81784,5.26144 32.14847,5.26144c17.9111,0 31.62358,-1.78588 31.62358,9.87692z" fill="#000082" stroke="#000000" stroke-width="2" stroke-linecap="butt"/><path d="M326.7631,335.49289c0,6.30841 -13.89058,10.1901 -31.80169,10.1901c-17.9111,0 -30.16566,-2.95748 -30.16566,-9.26589c0,-1.26107 -0.03338,-12.52602 1.0898,-13.27153c4.49546,-2.98386 15.55258,5.7726 29.88321,5.7726c17.9111,0 30.99434,0.26631 30.99434,6.57472z" fill="#2e0048" stroke="#000000" stroke-width="0" stroke-linecap="butt"/><g><g><path d="M284.64546,259.10463c-15.0536,-1.00599 -23.33979,-9.16374 -23.03962,-24.09758c0.23474,-11.6799 13.6683,-23.82748 28.72191,-22.82148c15.05367,1.00596 25.3392,11.46406 24.34329,26.36766c-0.15573,2.33064 -0.99118,4.43533 -1.73625,6.36477c-4.01945,10.40839 -15.58979,15.0353 -28.28931,14.18664z" fill="#485e84" stroke="#000000" stroke-width="2" stroke-linecap="butt"/><path d="M277.22069,216.40336c0,0 -0.82292,5.69682 0.6976,7.00119c14.58516,12.51188 28.48957,14.48296 33.13815,14.78393c1.05615,0.06839 1.69508,-0.85499 1.69508,-0.85499c0,0 0.08133,2.11222 -0.68914,4.74288c-0.81985,2.79925 -2.55632,6.18873 -4.73635,8.35496c-2.49024,2.47443 -9.71859,6.62887 -9.71859,6.62887l-20.8644,1.88025c0,0 -9.69704,-9.32322 -10.64572,-11.27179c-0.92941,-1.90894 -1.48165,-4.43436 -2.17691,-7.09586c-1.07945,-4.13235 -0.62986,-8.64951 0.44991,-11.31951c1.37808,-3.40751 4.42589,-6.93777 7.3816,-9.35153c2.75084,-2.24645 5.46878,-3.49829 5.46878,-3.49829z" fill="#343545" stroke="none" stroke-width="0" stroke-linecap="butt"/><path d="M277.95331,240.82939c0,0 -1.27641,-8.93135 1.2517,-13.42453c3.20028,-5.68793 12.45691,-14.76634 12.45691,-14.76634" fill="none" stroke="#000000" stroke-width="1" stroke-linecap="round"/><path d="M313.50095,231.56214c0,0 -1.97018,6.87374 -4.10622,10.60323c-2.15638,3.76512 -9.6374,9.9447 -9.6374,9.9447" fill="none" stroke="#000000" stroke-width="1" stroke-linecap="round"/><path d="M267.2432,243.2063c0,0 -1.44716,-9.14834 1.51276,-13.89045c4.54192,-7.27662 12.47379,-15.73718 12.47379,-15.73718" fill="none" stroke="#000000" stroke-width="1" stroke-linecap="round"/><path d="M264.05799,228.25798c0,0 14.3891,-9.614 30.66311,-3.39299c17.8261,6.81432 16.35023,23.99897 16.35023,23.99897" fill="none" stroke="#000000" stroke-width="1" stroke-linecap="round"/><path d="M262.16087,237.59103c0,0 16.22606,-7.31966 30.59835,-1.861c11.80096,4.48206 11.91184,19.07338 11.91184,19.07338" fill="none" stroke="#000000" stroke-width="1" stroke-linecap="round"/><path d="M302.73097,221.30938c-0.9811,-0.69616 -1.32963,-1.89011 -0.77854,-2.66677c0.55107,-0.77673 1.21354,-0.335 2.19463,0.36115c0.9811,0.69616 1.90927,1.38309 1.35817,2.15978c-0.55107,0.77673 -1.79321,0.842 -2.77425,0.14584z" fill="#8fbbbe" stroke="none" stroke-width="0" stroke-linecap="butt"/><path d="M308.03224,226.28486c-0.60014,-0.04012 -1.03789,-0.80237 -0.97773,-1.70259c0.06015,-0.90022 0.209,-1.25946 0.80914,-1.21937c0.60014,0.04012 1.21901,0.81448 1.15882,1.71469c-0.06015,0.90022 -0.39013,1.24737 -0.99026,1.20725z" fill="#8fbbbe" stroke="none" stroke-width="0" stroke-linecap="butt"/><path d="M297.05161,217.35855c-0.88871,-0.15575 -1.52492,-0.76224 -1.42112,-1.35468c0.10377,-0.59241 0.87209,-0.40316 1.76077,-0.24744c0.88871,0.15575 1.56123,0.21889 1.45744,0.81134c-0.10377,0.59241 -0.90841,0.9465 -1.79709,0.79077z" fill="#8fbbbe" stroke="none" stroke-width="0" stroke-linecap="butt"/><path d="M273.26004,218.50362c0,0 9.87734,-2.66793 17.40499,-1.79942c4.26779,0.49242 7.85926,2.39971 10.56592,3.87624c2.39365,1.30573 6.47034,6.46387 9.17984,10.73667c1.99487,3.14582 3.07721,5.88361 3.07721,5.88361" fill="none" stroke="#000000" stroke-width="0.5" stroke-linecap="round"/><path d="M307.46602,218.42455c0,0 -1.11002,10.51408 -3.60357,15.30984c-2.10086,4.04055 -10.02034,11.61326 -10.02034,11.61326" fill="none" stroke="#000000" stroke-width="1" stroke-linecap="round"/><path d="M288.33665,243.34247c0,0 1.12204,-9.60048 2.76181,-13.81498c2.87912,-7.39984 10.58455,-14.40006 10.58455,-14.40006" fill="none" stroke="#000000" stroke-width="1" stroke-linecap="round"/></g><g stroke="#000000" stroke-linecap="butt"><path d="M259.86529,242.46805c31.02348,12.20091 33.51014,21.52141 30.54875,29.05139c-2.96139,7.52998 -30.51158,3.74344 -61.53507,-8.45749c-31.02347,-12.20092 33.23989,-45.15101 36.20128,-52.68098c5.78852,-4.10137 7.55567,2.18153 5.00262,9.61376c-3.1485,9.16568 -12.86935,21.43044 -10.21758,22.47333z" fill="#0d69be" stroke-width="2"/><path d="M287.59636,240.38507c13.31607,5.23693 19.75624,20.55492 14.38452,34.21368c-5.37171,13.65876 -20.52116,20.486 -33.83722,15.24906c-13.31607,-5.23693 -19.75624,-20.55493 -14.38452,-34.21369c5.37171,-13.65876 20.52115,-20.48599 33.83722,-15.24905z" fill="#faddbf" stroke-width="2"/><path d="M262.19257,273.09433c13.31607,5.23693 44.50664,-12.8358 39.13493,0.82296c-5.37171,13.65876 -20.52116,20.486 -33.83722,15.24905c-13.31607,-5.23693 -18.61379,-21.30896 -5.29771,-16.072z" fill="#ef8b89" stroke-width="0"/></g></g><path d="M210.22642,163.68998l0.01615,-0.34312c0.08101,-0.37963 0.16202,-0.75927 0.24303,-1.1389c1.36557,-2.68952 6.03078,-3.47141 7.68856,-0.24023c1.04375,2.03437 0.90175,5.07835 0.2094,7.20783c-0.44408,1.36585 -1.46458,2.49197 -1.05943,4.0258c0.59858,2.26611 3.69846,2.91275 3.96331,5.5241c0.07564,0.74582 -0.29151,1.47067 -0.43727,2.20601c-7.34695,2.31443 -13.05154,-4.37168 -12.57009,-11.53159c0.134,-1.9928 1.01803,-3.94139 1.94635,-5.70989z" fill="#000000" stroke="none" stroke-width="0.5" stroke-linecap="butt"/></g></g></svg>