<svg version="1.1" xmlns="http://www.w3.org/2000/svg" xmlns:xlink="http://www.w3.org/1999/xlink" width="36.96699" height="33.24007" viewBox="0,0,36.96699,33.24007"><g transform="translate(-281.41842,-164.67857)"><g data-paper-data="{&quot;isPaintingLayer&quot;:true}" fill-rule="nonzero" stroke-linecap="butt" stroke-linejoin="miter" stroke-miterlimit="10" stroke-dasharray="" stroke-dashoffset="0" style="mix-blend-mode: normal"><path d="M317.63541,185.7883c0,7.79434 -4.7508,11.38034 -7.95761,11.38034c-3.20681,0 -3.65529,-3.586 -3.65529,-11.38034c0,-7.79434 2.59964,-14.1129 5.80645,-14.1129c3.20681,0 5.80645,6.31856 5.80645,14.1129z" fill="#ff0000" stroke="#000000" stroke-width="1.5"/><path d="M285.42857,180c0,-8.04758 6.52385,-14.57143 14.57143,-14.57143c8.04758,0 14.57143,6.52385 14.57143,14.57143c0,8.04758 -6.52385,14.57143 -14.57143,14.57143c-8.04758,0 -14.57143,-6.52385 -14.57143,-14.57143z" fill="#ff0000" stroke="#000000" stroke-width="1.5"/><path d="M299.74906,183.68496c0,7.10399 -3.93556,12.8629 -8.79032,12.8629c-4.85476,0 -8.79032,-5.75892 -8.79032,-12.8629c0,-7.10399 3.93556,-12.8629 8.79032,-12.8629c4.85476,0 8.79032,5.75892 8.79032,12.8629z" fill="#ff0000" stroke="#000000" stroke-width="1.5"/><path d="M317.44973,172.85507c0,3.69674 -7.18511,6.69355 -16.04839,6.69355c-8.86328,0 -16.04839,-2.9968 -16.04839,-6.69355c0,-3.69674 7.18511,-6.69355 16.04839,-6.69355c8.86328,0 16.04839,2.9968 16.04839,6.69355z" fill="#ff0000" stroke="#000000" stroke-width="1.5"/><path d="M306.16557,184.46944c0.41603,0.27735 0.13868,0.69338 0.13868,0.69338l-0.3545,0.47586c-0.44174,0.31989 -0.87735,0.65877 -1.30792,1.00807c0.36045,0.59651 0.71762,1.18763 1.04394,1.77497l0.06827,0.13549c0,0 0.22361,0.44721 -0.22361,0.67082c-0.44721,0.22361 -0.67082,-0.22361 -0.67082,-0.22361l-0.048,-0.09706c-0.29813,-0.53666 -0.6192,-1.07557 -0.94459,-1.61828c-0.62137,0.52464 -1.23338,1.06047 -1.83945,1.58066c0,0 -0.37963,0.3254 -0.70502,-0.05423c-0.3254,-0.37963 0.05423,-0.70502 0.05423,-0.70502c0.64978,-0.55615 1.30587,-1.1285 1.97213,-1.68757c-0.72525,-1.2221 -1.42278,-2.4673 -1.88505,-3.75301c0,0 -0.16817,-0.47087 0.3027,-0.63904c0.47087,-0.16817 0.63904,0.3027 0.63904,0.3027c0.4179,1.17892 1.05066,2.3256 1.71822,3.45069c0.40804,-0.32929 0.82034,-0.64958 1.23776,-0.95433l0.11062,-0.22182c0,0 0.27735,-0.41603 0.69338,-0.13868z" fill="#000000" stroke="none" stroke-width="0.5"/><path d="M310.92982,185.38707c0.31235,0.39043 -0.07809,0.70278 -0.07809,0.70278l-0.3066,0.24476c-0.44786,0.32975 -0.90553,0.64313 -1.36172,0.95757c0.11135,0.22587 0.22419,0.45028 0.34272,0.67019l0.16293,0.2705c0,0 0.25725,0.42875 -0.1715,0.68599c-0.42875,0.25725 -0.68599,-0.1715 -0.68599,-0.1715l-0.18591,-0.3109c-0.09934,-0.18467 -0.19435,-0.37471 -0.28798,-0.56724c-0.39599,0.2833 -0.78555,0.57559 -1.161,0.88872c0,0 -0.38411,0.32009 -0.7042,-0.06402c-0.32009,-0.38411 0.06402,-0.7042 0.06402,-0.7042c0.43898,-0.36553 0.8962,-0.70343 1.36031,-1.03176c-0.27093,-0.54218 -0.56741,-1.06831 -0.95473,-1.51455c0,0 -0.3254,-0.37963 0.05423,-0.70502c0.37963,-0.3254 0.70502,0.05423 0.70502,0.05423c0.4094,0.48254 0.7251,1.03069 1.0145,1.59554c0.40778,-0.28154 0.81575,-0.56384 1.2164,-0.85883l0.2748,-0.22035c0,0 0.39043,-0.31235 0.70278,0.07809z" fill="#000000" stroke="none" stroke-width="0.5"/><path d="M302.21705,192.88298c-0.49752,0.04975 -0.54727,-0.44777 -0.54727,-0.44777l-0.05109,-0.53399c-0.34515,-1.16908 -0.38873,-0.53795 -0.8065,0.30087c0,0 -0.22361,0.44721 -0.67082,0.22361c-0.44721,-0.22361 -0.22361,-0.67082 -0.22361,-0.67082c0.85682,-1.70758 2.05753,-2.10673 2.68187,-0.04797l0.06519,0.6288c0,0 0.04975,0.49752 -0.44777,0.54727z" fill="#000000" stroke="none" stroke-width="0.5"/></g></g></svg>