<svg version="1.1" xmlns="http://www.w3.org/2000/svg" xmlns:xlink="http://www.w3.org/1999/xlink" width="334.71444" height="242.05713" viewBox="0,0,334.71444,242.05713"><g transform="translate(-170.4286,-88.52099)"><g data-paper-data="{&quot;isPaintingLayer&quot;:true}" fill-rule="nonzero" stroke-linejoin="miter" stroke-miterlimit="10" stroke-dasharray="" stroke-dashoffset="0" style="mix-blend-mode: normal"><g data-paper-data="{&quot;index&quot;:null}" stroke="#000000" stroke-linecap="butt"><path d="M295.1487,329.19892v-77.03218h71.50577v77.03218z" fill="#273750" stroke-width="2"/><path d="M296.06893,328.55331v-77.03218l21.53751,42.08315l49.96824,34.94903z" fill="#1f1e2e" stroke-width="0"/></g><g data-paper-data="{&quot;index&quot;:null}" stroke="#000000" stroke-linecap="butt"><path d="M233.66306,329.57812v-77.03218h71.50577v77.03218z" fill="#273750" stroke-width="2"/><path d="M234.58335,328.93248v-77.03218l21.53751,42.08315l49.96824,34.94903z" fill="#1f1e2e" stroke-width="0"/></g><g data-paper-data="{&quot;index&quot;:null}" stroke="#000000" stroke-linecap="butt"><path d="M491.83024,276.10882l-55.01451,-8.28557l12.042,-42.62093l55.01451,8.28557z" fill="#ffcaa0" stroke-width="2"/><g><path d="M436.98264,267.99397l-75.85898,-11.42491l12.19896,-43.17644l75.85898,11.42491z" fill="#ff0008" stroke-width="2"/><path d="M437.40145,267.40915l-39.73269,-5.98402c0,0 20.15341,-10.42965 22.17859,-17.59748c1.92018,-6.79619 -10.32573,-24.354 -10.32573,-24.354l39.7327,5.98402c0,0 -3.89854,13.79827 -5.86337,20.7526c-1.98588,7.02871 -5.98949,21.1989 -5.98949,21.1989z" fill="#8d005e" stroke-width="0"/></g><path d="M491.39386,275.35417l-55.01451,-8.28557l40.37692,-5.31837l26.6796,-29.01696z" fill="#ff6e5b" stroke-width="0"/></g><g data-paper-data="{&quot;index&quot;:null}" stroke="#000000" stroke-linecap="butt"><path d="M458.65984,171.20015c-8.61502,26.75267 -29.12025,46.11897 -45.7997,43.25584c-16.67945,-2.86313 -23.21695,-26.87148 -14.60194,-53.62415c8.61502,-26.75267 29.12025,-46.11897 45.7997,-43.25584c16.67945,2.86313 23.21695,26.87148 14.60194,53.62415z" fill="#01930e" stroke-width="2"/><path d="M411.39107,154.27758c-8.61502,26.75267 18.72186,62.75935 2.04241,59.89623c-16.67943,-2.86313 -23.21695,-26.87148 -14.60194,-53.62415c8.61502,-26.75267 21.17456,-33.02475 12.55953,-6.27208z" fill="#31525b" stroke-width="0"/></g><path d="M232.70793,278.98023l30.44229,-94.53401l129.48018,22.22605l-30.44229,94.53401z" data-paper-data="{&quot;index&quot;:null}" fill="#ff0008" stroke="#000000" stroke-width="2" stroke-linecap="butt"/><g data-paper-data="{&quot;index&quot;:null}" stroke="#000000" stroke-linecap="butt"><path d="M171.73376,286.40207l12.85634,-39.92341l58.02347,9.96007l-12.85634,39.92341z" fill="#ffcaa0" stroke-width="2"/><g><path d="M184.35177,246.5958l17.72747,-55.05001l58.77974,10.08989l-17.72747,55.05001z" fill="#ff0008" stroke-width="2"/><path d="M185.14094,246.91752l9.28514,-28.83357c0,0 13.72582,14.9952 23.48399,16.67025c9.25223,1.58821 33.6281,-6.86663 33.6281,-6.86663l-9.28514,28.83358c0,0 -18.78475,-3.22451 -28.25228,-4.84968c-9.56879,-1.64254 -28.85983,-4.95396 -28.85983,-4.95396z" fill="#8d005e" stroke-width="0"/></g><path d="M172.77899,286.10432l12.85634,-39.92341l6.17185,29.6144l38.99528,20.26909z" fill="#ff6e5b" stroke-width="0"/></g><g data-paper-data="{&quot;index&quot;:null}" fill="#000000" stroke="#000000" stroke-linecap="butt"><path d="M263.43166,283.84282l29.8757,-92.77448l69.60778,11.9486l-29.8757,92.77448z" stroke-width="2"/><path d="M264.5779,283.21904l29.8757,-92.77448l4.64457,54.28217l35.0875,50.44089z" stroke-width="0"/></g><g data-paper-data="{&quot;index&quot;:null}" stroke="#000000" stroke-linecap="butt"><path d="M257.20658,135.24386c0.36822,-1.14341 8.33343,-22.57119 8.81224,-23.67715c12.09889,-27.94648 51.31027,-23.39483 99.60235,-15.10522c45.3628,7.78679 83.33334,18.28634 81.79214,45.4515c-0.16444,2.89862 -7.47231,21.64223 -8.40487,24.53824c-3.33339,10.35136 -7.25851,33.68657 -18.30127,40.48295c-21.00006,12.92467 -57.21142,3.94721 -90.11329,-1.70059c-34.78781,-5.97155 -67.49098,-10.72505 -77.24142,-30.52223c-4.32069,-8.77266 0.88411,-30.24447 3.85415,-39.4675z" fill="#ffcaa0" stroke-width="2"/><path d="M255.1179,134.89425c0.36822,-1.14341 8.33343,-22.57119 8.81224,-23.67715c6.87401,-15.87785 -8.38989,51.64411 40.11554,79.19001c38.01217,21.58685 119.7843,13.48207 115.34457,16.21456c-21.00006,12.92467 -57.98316,3.9101 -90.88505,-1.7377c-34.78781,-5.97155 -67.49098,-10.72505 -77.24142,-30.52223c-4.32069,-8.77266 0.88411,-30.24447 3.85415,-39.4675z" fill="#ff6e5b" stroke-width="0"/></g><g data-paper-data="{&quot;index&quot;:null}" stroke="#000000" stroke-linecap="butt"><path d="M308.94225,143.6822c-8.61502,26.75267 -29.12025,46.11897 -45.7997,43.25584c-16.67945,-2.86313 -23.21695,-26.87148 -14.60194,-53.62415c8.61502,-26.75267 29.12025,-46.11897 45.7997,-43.25584c16.67945,2.86313 23.21695,26.87148 14.60194,53.62415z" fill="#01930e" stroke-width="2"/><path d="M261.6735,126.75965c-8.61502,26.75267 18.72186,62.75935 2.04241,59.89623c-16.67943,-2.86313 -23.21695,-26.87148 -14.60194,-53.62415c8.61502,-26.75267 21.17456,-33.02475 12.55953,-6.27208z" fill="#31525b" stroke-width="0"/></g><g data-paper-data="{&quot;index&quot;:null}" stroke-linecap="butt"><path d="M467.64634,138.67846c-4.72436,14.67083 -55.61286,18.48597 -113.66264,8.52138c-58.04977,-9.96459 -101.27854,-29.93554 -96.55414,-44.60634c4.72436,-14.67083 55.61285,-18.48596 113.66263,-8.52138c58.04977,9.96459 101.27855,29.93554 96.55417,44.60635z" fill="#000000" stroke="none" stroke-width="NaN"/><path d="M466.72354,138.82187c-4.72436,14.67083 -55.61286,18.48597 -113.66264,8.52138c-58.04977,-9.96459 -101.27854,-29.93554 -96.55414,-44.60634c4.72436,-14.67083 46.32137,15.70847 104.37115,25.67307c58.04977,9.96459 110.57001,-4.2589 105.84564,10.41191z" fill="#ff0000" stroke="#000000" stroke-width="2"/><path d="M458.1355,145.40982c-1.3001,4.03729 -47.63593,12.40886 -105.30249,1.25427c-20.17981,-3.90342 -38.90624,-8.54847 -53.74087,-13.68429c-27.54063,-9.53471 -43.05273,-19.72101 -39.31046,-22.66373c3.86509,-3.0393 38.33408,21.37593 96.38386,31.34053c58.04977,9.96459 103.27007,-0.28408 101.96996,3.75321z" fill="#900056" stroke="#000000" stroke-width="0"/></g><path d="M376.28938,177.79361c-4.2045,13.05643 -10.91821,23.07338 -14.99553,22.37347c-4.07732,-0.6999 -3.97422,-11.8516 0.23027,-24.90801c4.2045,-13.05643 10.91824,-23.07337 14.99553,-22.37346c4.07732,0.6999 3.97422,11.8516 -0.23027,24.90802z" data-paper-data="{&quot;index&quot;:null}" fill="#000000" stroke="none" stroke-width="0" stroke-linecap="butt"/><path d="M411.238,178.90451c-4.18768,13.00419 -10.71382,23.00867 -14.57653,22.34561c-3.86273,-0.66305 -3.59929,-11.74255 0.5884,-24.74675c4.18768,-13.00419 10.71382,-23.00867 14.57653,-22.34561c3.86273,0.66305 3.59929,11.74255 -0.5884,24.74675z" data-paper-data="{&quot;index&quot;:null}" fill="#000000" stroke="none" stroke-width="0" stroke-linecap="butt"/><path d="M381.61986,154.87972l-34.13317,-5.85916" fill="none" stroke="#000000" stroke-width="5" stroke-linecap="round"/><path d="M423.06997,156.5832l-27.75815,-0.79922" fill="none" stroke="#000000" stroke-width="5" stroke-linecap="round"/><path d="M344.19145,189.30069c0,6.07236 -4.12591,10.99499 -9.21551,10.99499c-5.08959,0 -9.21551,-4.92262 -9.21551,-10.99499c0,-6.07236 4.12591,-10.99499 9.21551,-10.99499c5.08959,0 9.21551,4.92262 9.21551,10.99499z" fill="#000000" stroke="none" stroke-width="0" stroke-linecap="butt"/></g></g></svg>