<svg version="1.1" xmlns="http://www.w3.org/2000/svg" xmlns:xlink="http://www.w3.org/1999/xlink" width="249.91844" height="318.11896" viewBox="0,0,249.91844,318.11896"><g transform="translate(-185.88282,-12.45916)"><g data-paper-data="{&quot;isPaintingLayer&quot;:true}" fill-rule="nonzero" stroke-linecap="butt" stroke-linejoin="miter" stroke-miterlimit="10" stroke-dasharray="" stroke-dashoffset="0" style="mix-blend-mode: normal"><g data-paper-data="{&quot;index&quot;:null}" stroke="#000000"><path d="M390.59861,241.82921l-24.53531,-40.34117l43.82018,-25.69251l24.53531,40.34117z" fill="#ffcaa0" stroke-width="2"/><g><path d="M366.01178,201.72353l-33.8315,-55.62607l44.39133,-26.02738l33.8315,55.62607z" fill="#0000c0" stroke-width="2"/><path d="M366.75918,201.52726l-17.71994,-29.13529c0,0 20.63931,4.31682 28.00885,-0.00406c6.98742,-4.09684 15.12306,-25.2849 15.12306,-25.2849l17.71995,29.1353c0,0 -14.18652,8.3178 -21.33654,12.50997c-7.22648,4.23701 -21.79538,12.779 -21.79538,12.779z" fill="#56006b" stroke-width="0"/></g><path d="M391.00013,240.97396l-24.53531,-40.34117l27.8713,20.75108l40.48418,-6.10242z" fill="#ff6e5b" stroke-width="0"/></g><g data-paper-data="{&quot;index&quot;:null}" stroke="#000000"><path d="M298.86371,329.14332v-88.32549h61.17899v88.32549z" fill="#273750" stroke-width="2"/><path d="M299.65105,328.40305v-88.32549l18.42709,48.25276l42.75189,40.07273z" fill="#1f1e2e" stroke-width="0"/></g><path d="M246.87899,240.41541v-111.34873h113.80147v111.34873z" data-paper-data="{&quot;index&quot;:null}" fill="#0000c0" stroke="#000000" stroke-width="2"/><g data-paper-data="{&quot;index&quot;:null}" stroke="#000000"><path d="M246.25776,329.57811v-88.32549h61.17899v88.32549z" fill="#273750" stroke-width="2"/><path d="M247.04514,328.83782v-88.32549l18.42709,48.25276l42.75189,40.07273z" fill="#1f1e2e" stroke-width="0"/></g><g data-paper-data="{&quot;index&quot;:null}" stroke="#000000"><path d="M187.02649,236.40344l7.28449,-46.47596l50.40728,7.6059l-7.28449,46.47596z" fill="#ffcaa0" stroke-width="2"/><g><path d="M194.1185,190.0769l10.04451,-64.08525l51.06428,7.70504l-10.04451,64.08525z" fill="#0000c0" stroke-width="2"/><path d="M194.82127,190.39328l5.26102,-33.56596c0,0 13.08944,16.24759 21.56677,17.52672c8.03778,1.21281 28.04876,-10.04028 28.04876,-10.04028l-5.26102,33.56597c0,0 -16.31905,-2.46237 -24.54386,-3.70339c-8.31277,-1.25431 -25.07169,-3.78305 -25.07169,-3.78305z" fill="#56006b" stroke-width="0"/></g><path d="M187.89052,235.99498l7.28449,-46.47596l7.99443,33.45161l35.12835,20.63024z" fill="#ff6e5b" stroke-width="0"/></g><g data-paper-data="{&quot;index&quot;:null}" stroke="#000000"><path d="M273.77207,239.9563v-109.27623h61.17899v109.27623z" fill="#ffffff" stroke-width="2"/><path d="M274.55945,239.04044v-109.27623l18.42709,59.69827l42.75189,49.57796z" fill="#8ebbfc" stroke-width="0"/></g><g><g data-paper-data="{&quot;index&quot;:null}" stroke="#000000"><path d="M405.84787,96.50804c-4.49339,31.19841 -19.90329,54.85179 -34.419,52.83128c-14.5157,-2.0205 -22.64038,-28.94975 -18.14699,-60.14816c4.49339,-31.19841 19.90329,-54.85179 34.419,-52.83128c14.5157,2.0205 22.64038,28.94975 18.14699,60.14816z" fill="#01930e" stroke-width="2"/><path d="M363.7738,80.72212c-4.49339,31.19841 22.62926,70.27249 8.11356,68.25199c-14.51569,-2.02049 -22.64038,-28.94975 -18.14699,-60.14816c4.49339,-31.19841 14.52682,-39.30226 10.03343,-8.10384z" fill="#31525b" stroke-width="0"/></g><g data-paper-data="{&quot;index&quot;:null}" stroke="#000000"><path d="M230.38197,70.53356c0.19205,-1.33343 4.69841,-26.40183 4.98867,-27.70075c7.33465,-32.82276 41.2274,-30.56162 83.25474,-24.71167c39.47807,5.4951 72.94653,14.64204 74.52398,45.78168c0.16832,3.32271 -4.06356,25.27639 -4.54998,28.65365c-1.73862,12.07155 -2.5998,39.01571 -11.28516,47.60473c-16.51694,16.33374 -48.32459,8.79333 -76.95826,4.80769c-30.27492,-4.21409 -58.64412,-7.19327 -69.05813,-29.07245c-4.61473,-9.69524 -2.46498,-34.60717 -0.91587,-45.36289z" fill="#ffcaa0" stroke-width="2"/><path d="M228.56521,70.29076c0.19205,-1.33343 4.69841,-26.40183 4.98867,-27.70075c4.1672,-18.64833 -1.65294,59.60903 42.6052,87.43478c34.6837,21.80618 103.49182,6.42497 99.99989,9.87816c-16.51694,16.33374 -48.98609,8.80875 -77.61973,4.82312c-30.27492,-4.21409 -58.64412,-7.19327 -69.05813,-29.07245c-4.61473,-9.69524 -2.46498,-34.60717 -0.91587,-45.36289z" fill="#ff6e5b" stroke-width="0"/></g><g data-paper-data="{&quot;index&quot;:null}" stroke="#000000"><path d="M275.35912,76.29544c-4.49339,31.19841 -19.90329,54.85179 -34.419,52.83128c-14.5157,-2.0205 -22.64038,-28.94975 -18.14699,-60.14816c4.49339,-31.19841 19.90329,-54.85179 34.419,-52.83128c14.5157,2.0205 22.64038,28.94975 18.14699,60.14816z" fill="#01930e" stroke-width="2"/><path d="M233.28505,60.50952c-4.49339,31.19841 22.62926,70.27249 8.11356,68.25199c-14.51569,-2.02049 -22.64038,-28.94975 -18.14699,-60.14816c4.49339,-31.19841 14.52682,-39.30226 10.03343,-8.10384z" fill="#31525b" stroke-width="0"/></g><g data-paper-data="{&quot;index&quot;:null}"><path d="M410.04391,58.69326c-2.46412,17.1088 -45.41559,25.2777 -95.93478,18.24573c-50.5192,-7.03197 -89.47554,-26.60194 -87.01142,-43.71074c2.46412,-17.1088 45.41557,-25.2777 95.93477,-18.24572c50.5192,7.03197 89.47555,26.60193 87.01143,43.71074z" fill="#000000" stroke="none" stroke-width="NaN"/><path d="M409.27293,58.92616c-2.46412,17.1088 -45.41559,25.2777 -95.93478,18.24573c-50.5192,-7.03197 -89.47554,-26.60194 -87.01142,-43.71074c2.46412,-17.1088 41.1377,14.47032 91.65691,21.50229c50.5192,7.03197 93.75341,-13.14609 91.2893,3.96272z" fill="#ff0000" stroke="#000000" stroke-width="2"/><path d="M402.65686,67.09326c-0.67811,4.70819 -39.26582,17.73977 -89.58515,9.32006c-17.60872,-2.94639 -34.05806,-6.84859 -47.24378,-11.60284c-24.47943,-8.82629 -38.77976,-19.2977 -35.90445,-22.93878c2.96969,-3.76057 34.93553,21.54119 85.45472,28.57315c50.5192,7.03197 87.95675,-8.0598 87.27865,-3.35159z" fill="#900056" stroke="#000000" stroke-width="0"/></g><path d="M331.63334,109.11279c-2.19296,15.22613 -6.84723,27.16896 -10.39562,26.67504c-3.54838,-0.49392 -4.64717,-13.23753 -2.4542,-28.46365c2.19296,-15.22613 6.84724,-27.16895 10.39562,-26.67503c3.54838,0.49392 4.64717,13.23753 2.4542,28.46366z" data-paper-data="{&quot;index&quot;:null}" fill="#000000" stroke="none" stroke-width="0"/><path d="M357.73291,108.47525c-2.18419,15.16523 -6.67996,27.07975 -10.04158,26.61183c-3.36163,-0.46792 -4.31612,-13.14108 -2.13193,-28.30631c2.18419,-15.16523 6.67996,-27.07975 10.04158,-26.61183c3.36163,0.46792 4.31612,13.14108 2.13193,28.30631z" data-paper-data="{&quot;index&quot;:null}" fill="#000000" stroke="none" stroke-width="0"/><path d="M297.39983,118.76967c0.05881,-0.25255 0.3392,-1.11846 1.3986,-0.97101c1.23772,0.17229 1.06332,1.3832 1.06332,1.3832l-0.11978,0.4619c-0.79565,1.69016 -1.55076,3.39538 -2.39868,5.06079c-0.84109,1.38971 -1.51842,3.02109 -2.44314,4.34413c-2.39353,3.42453 -7.31059,2.72834 -8.30691,-1.38175c-1.02427,-4.22542 1.36569,-10.21521 3.5151,-13.77966c0,0 0.63704,-1.05151 1.71247,-0.42673c1.07543,0.62477 0.43839,1.67628 0.43839,1.67628c-1.88734,3.09911 -3.2807,7.2332 -3.37724,10.88388c-0.10702,4.04669 3.24294,2.87833 4.58189,0.3846c0.58768,-1.09453 1.04639,-1.82211 1.68349,-2.87266c0.79676,-1.56667 1.50652,-3.17225 2.25248,-4.76298z" data-paper-data="{&quot;index&quot;:null}" fill="#000000" stroke="none" stroke-width="0.5"/></g></g></g></svg>