<svg version="1.1" xmlns="http://www.w3.org/2000/svg" xmlns:xlink="http://www.w3.org/1999/xlink" width="177.75327" height="326.73252" viewBox="0,0,177.75327,326.73252"><g transform="translate(-219.57715,-34.25487)"><g data-paper-data="{&quot;isPaintingLayer&quot;:true}" fill-rule="nonzero" stroke-linejoin="miter" stroke-miterlimit="10" stroke-dasharray="" stroke-dashoffset="0" style="mix-blend-mode: normal"><g stroke="#000000" stroke-linecap="butt"><path d="M337.43172,222.89488c8.31471,32.28288 8.70306,60.08936 0.86741,62.1075c-7.83566,2.01813 -20.92811,-22.51631 -29.24282,-54.79919c-8.31471,-32.28288 -8.70306,-60.08936 -0.86741,-62.1075c7.83566,-2.01813 20.92811,22.51631 29.24282,54.7992z" fill="#0d69be" stroke-width="2"/><path d="M361.86282,264.45877c3.56888,13.85663 -5.06007,28.05725 -19.27331,31.71799c-14.21323,3.66073 -28.6285,-4.60467 -32.19738,-18.46131c-3.56888,-13.85664 5.06007,-28.05725 19.27331,-31.71799c14.21324,-3.66074 28.62849,4.60468 32.19738,18.46131z" fill="#faddbf" stroke-width="2"/><path d="M320.4706,263.06896c3.56888,13.85664 36.50086,28.51817 22.28762,32.17891c-14.21323,3.66073 -28.62849,-4.60468 -32.19738,-18.46131c-3.56888,-13.85664 6.34086,-27.57423 9.90974,-13.71759z" fill="#ef8b89" stroke-width="0"/></g><g stroke="#000000" stroke-linecap="butt"><path d="M307.76518,340.83533v-95.29492h29.49199v95.29492z" fill="#73fffc" stroke-width="2"/><path d="M307.43943,340.21739l1.32626,-93.78573c0,0 5.20288,68.11227 6.3799,77.52842c0.2602,2.08162 2.52228,2.78987 2.52228,2.78987l18.60659,13.13896z" fill="#59a9e6" stroke-width="0"/></g><g stroke="#000000" stroke-linecap="butt"><path d="M268.4238,338.41279v-95.29492h29.49199v95.29492z" fill="#73fffc" stroke-width="2"/><path d="M268.09805,337.79487l1.32626,-93.78573c0,0 5.20288,68.11227 6.3799,77.52842c0.2602,2.08162 2.52228,2.78987 2.52228,2.78987l18.60659,13.13896z" fill="#59a9e6" stroke-width="0"/></g><g stroke="#000000" stroke-linecap="butt"><path d="M335.22917,235.69585c0,13.80271 10.04743,36.74388 4.95001,46.45977c-6.2338,11.88187 -28.61241,9.09579 -38.9397,9.09579c-13.66287,0 -32.94407,4.17018 -38.34426,-14.83216c-2.01935,-7.10576 4.35457,-32.37264 4.35457,-40.7234c0,-30.68249 15.2177,-55.55556 33.98969,-55.55556c18.77199,0 33.98969,24.87307 33.98969,55.55556z" fill="#0d69be" stroke-width="2"/><path d="M283.96554,251.27245c0,13.80271 62.04198,20.54886 56.94455,30.26474c-6.2338,11.88186 -28.61241,9.09579 -38.9397,9.09579c-13.66287,0 -32.94406,4.17018 -38.34425,-14.83215c-2.01936,-7.10576 4.35457,-32.37265 4.35457,-40.7234c0,-9.45244 3.34855,-28.59801 5.51953,-29.96813c5.94391,-16.76415 10.4653,25.13995 10.4653,46.16315z" fill="#10157d" stroke-width="0"/></g><path d="M371.63632,338.87001c0,11.6628 -14.51982,21.11737 -32.43092,21.11737c-17.9111,0 -32.43092,-9.45457 -32.43092,-21.11737c0,-2.33142 -0.03339,-13.76009 1.08979,-15.13837c4.49546,-5.51647 17.81784,5.26144 32.14847,5.26144c17.9111,0 31.62358,-1.78588 31.62358,9.87692z" fill="#000082" stroke="#000000" stroke-width="2" stroke-linecap="butt"/><path d="M369.75004,336.13771c0,6.30841 -13.89058,10.1901 -31.80169,10.1901c-17.9111,0 -30.16566,-2.95748 -30.16566,-9.26589c0,-1.26107 -0.03338,-12.52602 1.0898,-13.27153c4.49546,-2.98386 15.55258,5.7726 29.88321,5.7726c17.9111,0 30.99434,0.26631 30.99434,6.57472z" fill="#2e0048" stroke="#000000" stroke-width="0" stroke-linecap="butt"/><path d="M328.64938,338.2252c0,11.6628 -14.51982,21.11737 -32.43092,21.11737c-17.9111,0 -32.43092,-9.45457 -32.43092,-21.11737c0,-2.33142 -0.03339,-13.76009 1.08979,-15.13837c4.49546,-5.51647 17.81784,5.26144 32.14847,5.26144c17.9111,0 31.62358,-1.78588 31.62358,9.87692z" fill="#000082" stroke="#000000" stroke-width="2" stroke-linecap="butt"/><path d="M326.7631,335.49289c0,6.30841 -13.89058,10.1901 -31.80169,10.1901c-17.9111,0 -30.16566,-2.95748 -30.16566,-9.26589c0,-1.26107 -0.03338,-12.52602 1.0898,-13.27153c4.49546,-2.98386 15.55258,5.7726 29.88321,5.7726c17.9111,0 30.99434,0.26631 30.99434,6.57472z" fill="#2e0048" stroke="#000000" stroke-width="0" stroke-linecap="butt"/><g stroke-linecap="butt"><g><g stroke="#000000"><g><path d="M222.77925,110.15425c6.97261,-46.26836 50.13294,-78.12385 96.4013,-71.15123c46.26836,6.97261 78.12385,50.13294 71.15123,96.4013c-6.97261,46.26836 -50.13294,78.12385 -96.4013,71.15123c-46.26836,-6.97261 -78.12385,-50.13294 -71.15123,-96.4013z" fill="#faddbf" stroke-width="2"/><path d="M223.13703,109.32884c2.24334,-14.88619 14.67198,-39.26319 19.60963,-41.76955c0.56389,-0.28623 7.04959,-7.94852 15.48701,-13.46938c10.48714,-6.86205 23.3353,-11.81093 23.9099,-11.52506c7.49663,3.72978 -26.99532,61.51904 -29.53887,86.71122c-0.00607,0.06007 1.42238,20.13839 2.95738,20.81358c2.14657,5.1195 6.15501,20.29719 15.85083,28.97911c18.06929,16.17976 45.46274,26.75356 43.92065,27.03261c-2.4668,0.44637 -15.05006,0.53226 -21.04528,-0.37121c-46.26836,-6.97261 -78.12385,-50.13294 -71.15123,-96.4013z" fill="#ef8b89" stroke-width="0"/><path d="M389.88249,134.87323c-1.73222,11.49455 -3.89098,15.23095 -4.16092,13.31764c-0.2754,-1.95194 1.2778,-9.73187 -6.75864,-15.83318c-1.94739,-1.47846 -11.02752,4.68507 -13.54166,3.06419c-1.57917,-1.01811 -7.03922,-11.35124 -8.83079,-12.30489c-1.25264,-0.66678 -13.55949,6.42876 -14.87626,5.77459c-3.28406,-1.63154 -10.15981,-13.03305 -13.77108,-14.24271c-1.98862,-0.66612 -10.94496,10.33417 -12.99261,9.76887c-2.6407,-0.72902 -8.1578,-13.43407 -10.86463,-13.84199c-7.19856,-1.08482 -8.44099,5.81789 -14.51535,10.97654c-3.94727,3.35221 -11.88729,-14.99066 -15.63714,-11.07049c-4.65689,4.8684 -9.24575,9.54652 -13.97583,12.47398c-3.71092,2.2967 -11.71034,-11.97562 -14.94431,-9.81564c-15.6145,10.42898 -25.05166,17.10155 -22.34376,-0.86739c5.4451,-36.13217 44.02827,-1.6712 88.55162,-16.72631c42.6173,-14.4106 84.10647,3.19463 78.66138,39.3268z" fill="#ef8b89" stroke-width="0"/></g><path d="M392.63768,126.8837c-3.49941,23.22115 5.16005,9.59132 -11.21057,-2.55939c-2.00329,-1.48689 -11.29335,4.645 -13.87855,3.01342c-1.6238,-1.02484 -7.26458,-11.3852 -9.106,-12.34636c-1.28749,-0.67203 -13.88379,6.37988 -15.23699,5.72022c-3.37498,-1.64523 -10.47206,-13.0801 -14.18104,-14.30448c-2.04242,-0.67424 -11.18675,10.29773 -13.28933,9.72416c-2.71153,-0.7397 -8.42006,-13.4736 -11.19819,-13.89226c-7.38819,-1.1134 -8.63581,5.78854 -14.8466,10.92662c-4.03592,3.33885 -12.25163,-15.04557 -16.08285,-11.13765c-4.75791,4.85316 -9.44682,9.51623 -14.28736,12.42703c-3.79759,2.28364 -12.05843,-12.02807 -15.36731,-9.87939c-15.97619,10.37447 -25.63051,17.01432 -22.92261,-0.95462c5.4451,-36.13217 51.52622,-74.4095 96.94026,-67.56564c45.41404,6.84386 80.11224,54.6962 74.66716,90.82836z" fill="#873412" stroke-width="2"/><path d="M392.566,125.69698c-3.49941,23.22115 5.16005,9.59132 -11.21057,-2.55939c-2.00329,-1.48689 -11.29335,4.645 -13.87855,3.01342c-1.6238,-1.02484 -7.26458,-11.3852 -9.106,-12.34636c-1.28749,-0.67203 -13.88379,6.37988 -15.23699,5.72022c-3.37498,-1.64523 -10.47206,-13.0801 -14.18104,-14.30448c-2.04242,-0.67424 -11.18675,10.29773 -13.28933,9.72416c-2.71153,-0.7397 -8.42006,-13.4736 -11.19819,-13.89226c-7.38819,-1.1134 -8.63581,5.78854 -14.8466,10.92662c-4.03592,3.33885 -12.25163,-15.04557 -16.08285,-11.13765c-4.75791,4.85316 -9.44682,9.51623 -14.28737,12.42703c-3.79759,2.28364 -12.05843,-12.02807 -15.36731,-9.87939c-15.97619,10.37447 -25.63051,17.01432 -22.92261,-0.95462c5.4451,-36.13217 45.15576,-1.50129 90.76739,-16.39239c43.65901,-14.25361 86.2851,3.52295 80.84001,39.65512z" fill="#741d23" stroke-width="0"/></g><path d="M318.77429,46.67432c0.04708,0.12403 0.08026,0.26399 0.102,0.41578c0.05453,0.27029 0.0649,0.55415 0.02431,0.84237c-0.06182,1.13984 -0.41895,2.47859 -0.44776,2.9719c-0.03784,0.64812 1.28838,-0.5616 1.91082,-0.37706c0.38128,0.11304 0.66825,0.87094 0.99969,0.65115c2.01137,-1.33381 4.02291,-3.92312 6.50483,-1.90754c0.82197,0.66751 0.38699,1.97033 0.84331,2.73157c0.03836,0.06399 2.60043,0.25375 3.10999,0.86948c0.878,1.06097 -0.01993,2.27431 0.34937,3.33382c0.11817,0.33903 0.63399,-0.35171 0.98037,-0.44609c1.54168,-0.42002 4.25162,-1.38851 5.8358,-0.13674c0.83474,0.65958 0.41596,2.22639 0.85137,2.7389c0.76333,0.89848 2.11538,-1.06172 3.2366,-1.42612c1.55072,-0.50401 2.16549,0.29739 3.2639,1.35905c0.18944,0.18311 -0.14813,4.15636 0.76925,5.46541c0.51566,0.73582 1.76108,-0.60299 2.65172,-0.48418c0.88862,0.11853 2.79069,-0.32531 3.19242,-0.15997c0.80581,0.33162 1.30956,1.85673 2.11818,1.53203c4.12855,-1.65778 8.76872,0.5066 6.41297,5.16771c-0.29812,0.58988 1.39268,-0.37053 1.98155,-0.07042c0.2283,0.11634 1.41781,1.30768 1.65529,1.2565c1.5533,-0.3348 2.5889,-0.90392 4.16286,-0.67064c1.30716,0.19374 2.45068,1.11835 2.5483,2.52912c0.05131,0.74143 -1.30263,1.95079 -0.58689,2.15094c1.68708,0.4718 4.27437,1.59525 3.13257,3.98933c-1.23942,2.59881 -3.87105,4.61834 -6.10351,2.16731c-0.77456,-0.85037 -2.46371,0.88539 -3.43966,0.27661c-1.25026,-0.77989 -1.56982,-3.14235 -1.32379,-4.29516c0.11373,-0.53292 -1.11703,0.20987 -1.6343,0.03851c-0.69645,-0.23071 -0.87275,-1.36063 -1.58798,-1.52403c-1.59984,-0.36549 -1.83034,3.02721 -5.55629,1.67027c-1.09976,-0.4005 -2.1629,-2.53157 -2.37458,-3.67382c-0.12288,-0.66304 1.82539,-2.4044 1.68483,-2.53236c-0.34129,-0.31069 -2.3454,2.5059 -2.78825,2.58292c-1.06541,0.18527 -2.0674,-0.69558 -2.98886,-1.26158c-0.8141,-0.50006 -1.42208,1.69696 -2.37328,1.60721c-0.84034,-0.07929 -9.17708,-1.87093 -9.43371,-2.41828c-0.31287,-0.66729 -0.555,-1.82407 -0.29329,-2.50233c0.09405,-0.24375 1.23932,-1.67526 1.05679,-1.68238c-0.64785,-0.02534 -4.65396,2.77718 -6.31423,-0.76384c-0.90283,-1.92559 1.49763,-3.41342 1.74286,-5.01895c0.15144,-0.99149 -1.34619,1.49148 -1.94262,2.29786c-0.45811,0.61936 -1.61348,1.07689 -2.38303,0.98617c-2.6607,-0.31361 -1.54751,-2.73594 -1.87764,-4.31718c-0.15235,-0.72973 -1.64886,0.35341 -2.23376,-0.10877c-1.4301,-1.13001 -1.02361,-2.24641 -0.93147,-3.78201c0.04218,-0.70311 -0.94717,2.60308 -2.59825,2.5227c-0.66959,-0.0326 -1.56309,-1.19361 -1.91267,-0.62159c-1.70201,2.7849 -1.18538,4.08854 -4.86736,3.04717c-0.35531,-0.10048 -1.08537,0.64108 -1.44048,0.36047c-3.93025,-3.10559 0.33119,-7.97106 1.04913,-11.91623c0.25325,-1.39163 -0.34712,-3.61973 0.97184,-4.13066c0.53983,-0.66382 1.40662,-1.03308 2.31395,-0.89635c0.80448,0.12123 1.46131,0.61323 1.82308,1.27629c0.06221,0.08722 0.11429,0.18185 0.15373,0.28573z" fill="#ba587e" stroke="none" stroke-width="0.5"/></g><g stroke="#000000"><path d="M332.16874,159.17219c-4.25577,28.24007 -19.47213,40.84383 -35.85568,38.37485c-16.38354,-2.46899 -27.73016,-19.07579 -23.47441,-47.31585c4.25577,-28.24007 20.98723,-49.13166 37.37077,-46.66266c16.38354,2.46899 26.21506,27.3636 21.95931,55.60367z" fill="#f0f0f0" stroke-width="2"/><path d="M288.85317,132.84108c-8.46173,27.27658 24.5961,66.44876 8.21254,63.97976c-16.38354,-2.46899 -27.73016,-19.07579 -23.47441,-47.31585c4.25577,-28.24007 27.49502,-56.09779 15.26185,-16.66392z" fill="#9a99ff" stroke-width="0"/></g><path d="M311.15839,171.45514c-2.35778,15.64555 -8.90569,27.63005 -14.62517,26.76813c-5.71947,-0.86192 -8.44468,-14.24388 -6.0869,-29.88943c2.35778,-15.64555 8.90569,-27.63005 14.62517,-26.76813c5.71947,0.86192 8.44468,14.24388 6.0869,29.88943z" fill="#000000" stroke="none" stroke-width="0"/><g stroke="#000000"><path d="M331.69105,128.72641c2.88525,10.78012 4.32561,33.89621 -11.20924,31.55512c-15.53485,-2.3411 -42.40211,-30.0472 -36.47521,-38.8778c5.63935,-8.40218 9.90571,-20.16798 25.44055,-17.82689c15.53485,2.3411 19.49421,14.87597 22.24389,25.14957z" fill="#a100fe" stroke-width="2"/><path d="M330.82989,128.23839c2.73489,10.75746 4.49536,33.44171 -10.5098,31.18044c-15.00515,-2.26126 -41.32171,-29.40429 -35.54806,-38.258c5.49355,-8.42416 6.34165,1.92857 21.3468,4.18984c15.00515,2.26126 22.10466,-7.3643 24.71106,2.8877z" fill="#99008e" stroke-width="0"/></g><g data-paper-data="{&quot;index&quot;:null}" stroke="#000000"><path d="M373.37917,112.03915c16.38354,2.46899 26.21506,27.3636 21.95931,55.60367c-4.25576,28.24006 -19.99257,40.7654 -36.37612,38.29641c-16.38354,-2.46899 -27.20973,-18.99734 -22.95396,-47.23741c4.25577,-28.24007 20.98723,-49.13166 37.37077,-46.66266z" fill="#f0f0f0" stroke-width="2"/><path d="M394.83328,166.72705c-4.25576,28.24006 -19.99257,40.7654 -36.37612,38.29641c-16.38354,-2.46899 26.75039,-30.15911 26.70302,-58.71801c-0.06848,-41.28773 13.92886,-7.81847 9.67309,20.42159z" fill="#9a99ff" stroke-width="0"/></g><path d="M361.63474,146.90792c5.71947,0.86192 8.44468,14.24388 6.0869,29.88943c-2.35778,15.64555 -8.90569,27.63005 -14.62517,26.76813c-5.71947,-0.86192 -8.44468,-14.24388 -6.0869,-29.88943c2.35778,-15.64555 8.90569,-27.63005 14.62517,-26.76813z" data-paper-data="{&quot;index&quot;:null}" fill="#000000" stroke="none" stroke-width="0"/><g data-paper-data="{&quot;index&quot;:null}" stroke="#000000"><path d="M345.43744,129.74892c5.65526,-9.00698 13.13288,-19.8183 28.66772,-17.47722c15.53485,2.3411 16.14427,14.84167 19.057,24.53265c3.06124,10.18511 -29.56902,28.68493 -45.10387,26.34385c-15.53485,-2.3411 -8.55495,-23.94821 -2.62086,-33.39926z" fill="#a100fe" stroke-width="2"/><path d="M346.40419,129.53637c5.51196,-9.02857 9.45946,2.26177 24.4646,4.52304c15.00515,2.26126 18.86659,-7.38174 21.63351,2.28726c2.908,10.16202 -29.22943,28.016 -44.23458,25.75473c-15.00515,-2.26126 -7.64728,-23.09131 -1.86356,-32.56501z" fill="#99008e" stroke-width="0"/></g><path d="M267.32888,178.40309c-2.42578,4.94263 -6.49107,7.91938 -9.08006,6.64873c-2.589,-1.27065 -2.72132,-6.30751 -0.29554,-11.25014c2.42578,-4.94263 6.49107,-7.91938 9.08006,-6.64873c2.589,1.27065 2.72132,6.30751 0.29554,11.25014z" fill="#000000" stroke="none" stroke-width="0"/></g><g><g><path d="M314.5656,247.41828c-13.26128,7.19454 -24.62457,4.72765 -32.35168,-8.0552c-6.04347,-9.99759 -1.18092,-27.44406 12.08038,-34.6386c13.26132,-7.19459 27.54384,-3.85189 34.66673,9.27723c1.11389,2.05314 1.53253,4.27856 1.93389,6.30753c2.16503,10.94547 -5.14182,21.03957 -16.32929,27.10904z" fill="#485e84" stroke="#000000" stroke-width="2" stroke-linecap="butt"/><path d="M285.46992,215.29406c0,0 2.34889,5.25487 4.33114,5.54477c19.01422,2.78086 31.81994,-2.98383 35.90987,-5.21368c0.92924,-0.50661 0.9758,-1.62852 0.9758,-1.62852c0,0 1.19755,1.74183 1.95218,4.37709c0.803,2.80413 1.14667,6.59699 0.46172,9.59297c-0.78245,3.42226 -4.67183,10.79661 -4.67183,10.79661l-16.63027,12.73942c0,0 -13.17862,-2.69799 -15.0218,-3.83798c-1.80571,-1.1168 -3.62211,-2.95623 -5.6321,-4.83422c-3.12075,-2.9159 -5.15478,-6.97417 -5.66901,-9.80796c-0.65623,-3.61657 0.03323,-8.22922 1.24154,-11.84894c1.12455,-3.36883 2.75283,-5.87942 2.75283,-5.87942z" fill="#343545" stroke="none" stroke-width="0" stroke-linecap="butt"/><path d="M299.14272,235.548c0,0 -5.85187,-6.86687 -6.11627,-12.01567c-0.33474,-6.51785 2.63757,-19.13798 2.63757,-19.13798" fill="none" stroke="#000000" stroke-width="1" stroke-linecap="round"/><path d="M324.2359,208.718c0,0 2.00816,6.86273 2.19582,11.15652c0.1895,4.33477 -2.8312,13.55584 -2.8312,13.55584" fill="none" stroke="#000000" stroke-width="1" stroke-linecap="round"/><path d="M291.36053,243.28062c0,0 -6.11216,-6.95902 -6.14461,-12.54898c-0.04977,-8.57763 2.133,-19.96758 2.133,-19.96758" fill="none" stroke="#000000" stroke-width="1" stroke-linecap="round"/><path d="M280.67975,232.34816c0,0 7.02418,-15.8157 24.10394,-19.25458c18.70871,-3.76685 26.64495,11.54675 26.64495,11.54675" fill="none" stroke="#000000" stroke-width="1" stroke-linecap="round"/><path d="M284.06395,241.25052c0,0 9.80294,-14.85815 24.86791,-17.9251c12.36972,-2.51822 20.26123,9.75545 20.26123,9.75545" fill="none" stroke="#000000" stroke-width="1" stroke-linecap="round"/><path d="M309.65366,205.80773c-1.20128,-0.06409 -2.13394,-0.887 -2.08319,-1.83796c0.05069,-0.951 0.84668,-0.93167 2.04795,-0.86758c1.20128,0.06409 2.35291,0.14868 2.30217,1.09967c-0.05069,0.951 -1.06568,1.67 -2.26693,1.60586z" fill="#8fbbbe" stroke="none" stroke-width="0" stroke-linecap="butt"/><path d="M316.79338,207.18005c-0.5287,0.28681 -1.30605,-0.12353 -1.73629,-0.91656c-0.43025,-0.79304 -0.49642,-1.17622 0.03225,-1.46306c0.5287,-0.28681 1.46561,0.03696 1.89582,0.83001c0.43025,0.79304 0.33686,1.2628 -0.19182,1.54961z" fill="#8fbbbe" stroke="none" stroke-width="0" stroke-linecap="butt"/><path d="M302.74197,205.50352c-0.8344,0.34328 -1.69625,0.17069 -1.92512,-0.38554c-0.22889,-0.55618 0.52164,-0.80681 1.35601,-1.15012c0.8344,-0.34328 1.43657,-0.64933 1.66546,-0.09311c0.22889,0.55618 -0.26199,1.28548 -1.09635,1.62876z" fill="#8fbbbe" stroke="none" stroke-width="0" stroke-linecap="butt"/><path d="M283.2447,219.18585c0,0 6.92279,-7.53357 13.74948,-10.82234c3.8704,-1.86456 7.92527,-2.17179 11.00207,-2.37027c2.72098,-0.17556 8.92327,2.00558 13.49682,4.16908c3.36728,1.59285 5.74521,3.32847 5.74521,3.32847" fill="none" stroke="#000000" stroke-width="0.5" stroke-linecap="round"/><path d="M312.11415,200.83892c0,0 4.68063,9.47996 5.13593,14.86604c0.38362,4.5379 -2.26317,15.1708 -2.26317,15.1708" fill="none" stroke="#000000" stroke-width="1" stroke-linecap="round"/><path d="M309.26199,232.12312c0,0 -4.18223,-8.7142 -5.04855,-13.15269c-1.52106,-7.79316 1.25074,-17.82779 1.25074,-17.82779" fill="none" stroke="#000000" stroke-width="1" stroke-linecap="round"/></g><g stroke="#000000" stroke-linecap="butt"><path d="M284.73001,246.59948c32.74211,-6.26683 39.82489,0.28219 41.34595,8.2293c1.52107,7.94713 -23.78859,19.46979 -56.53071,25.73661c-32.74211,6.26681 3.96591,-55.92652 2.44485,-63.87364c2.70078,-6.56003 7.55207,-2.19396 9.36605,5.45232c2.23706,9.42966 0.57519,24.99106 3.37387,24.4554z" fill="#0d69be" stroke-width="2"/><path d="M307.05581,230.01908c14.05375,-2.68988 27.68325,6.81555 30.44234,21.23097c2.75911,14.41542 -6.39701,28.282 -20.45075,30.9719c-14.05375,2.68988 -27.68324,-6.81556 -30.44235,-21.23097c-2.75911,-14.41542 6.39701,-28.282 20.45076,-30.97188z" fill="#faddbf" stroke-width="2"/><path d="M303.06413,271.24183c14.05375,-2.68988 30.75848,-34.63401 33.51759,-20.21859c2.75911,14.41542 -6.39701,28.282 -20.45076,30.97188c-14.05375,2.68988 -27.12058,-8.06341 -13.06682,-10.75329z" fill="#ef8b89" stroke-width="0"/></g></g></g></g></svg>