<svg version="1.1" xmlns="http://www.w3.org/2000/svg" xmlns:xlink="http://www.w3.org/1999/xlink" width="275.24753" height="299.55195" viewBox="0,0,275.24753,299.55195"><defs><radialGradient cx="256.98605" cy="276.18179" r="15.49478" gradientUnits="userSpaceOnUse" id="color-1"><stop offset="0" stop-color="#1e202b"/><stop offset="1" stop-color="#1e202b" stop-opacity="0"/></radialGradient></defs><g transform="translate(-102.37623,-30.22402)"><g data-paper-data="{&quot;isPaintingLayer&quot;:true}" fill-rule="nonzero" stroke-linecap="butt" stroke-linejoin="miter" stroke-miterlimit="10" stroke-dasharray="" stroke-dashoffset="0" style="mix-blend-mode: normal"><path d="M102.37624,329.77598v-299.55195h275.24753v299.55195z" fill="none" stroke="none" stroke-width="0"/><g><path d="M183.0536,296.78026c5.34148,-4.42748 11.1149,-9.21109 11.92248,-10.59832c0.7246,-1.24468 1.44709,-2.66918 2.38186,-4.24402c3.29082,-5.54413 7.78489,-12.95136 11.6511,-20.93454c0.87674,-1.81034 1.48484,-3.77139 2.30985,-5.61678c0.61261,-1.37028 0.92774,-2.25276 1.4594,-3.63595c0.38177,-0.99323 0.37005,-1.36182 0.72141,-2.35151c0.3015,-0.84926 1.22007,-2.82065 1.50566,-3.66149c1.21713,-3.58353 2.31687,-7.0661 3.53082,-10.23949c3.63398,-9.49963 5.38073,-17.33917 5.38073,-17.33917l27.52543,-4.95833c0,0 -3.4344,15.43283 -8.83025,29.3744c-1.31289,3.39218 -3.74225,7.48255 -5.52798,10.46325c-0.89619,1.49592 -1.67797,2.80735 -2.37815,3.88784c-0.4198,0.64782 -0.9173,1.10586 -1.09338,1.76929c-0.74054,2.7901 -0.24433,6.36396 -0.37764,10.60135c-0.22734,7.22568 -0.69155,15.10889 -0.69155,15.10889c0,0 -6.80982,9.04611 -6.9355,9.04576c-0.54342,-0.00153 -1.97197,-6.06177 -2.47266,-8.26178c-0.11104,-0.4879 -0.38976,-0.64265 -0.73005,-0.38578c-0.92868,0.70101 -2.80316,2.24795 -3.86904,4.03695c-0.76256,1.2799 -1.81367,4.82234 -2.46648,5.11997c-0.71636,0.32661 -1.59006,1.16395 -2.36594,1.5089c-3.08202,1.37021 -6.57463,2.64291 -10.21257,3.95065c-4.82528,1.73456 -9.90627,3.43585 -14.62404,4.57985c-7.40741,1.79619 -14.45619,1.56661 -15.52289,1.60085c-1.06044,0.03404 -0.83672,-0.09894 -0.23331,-0.59705c0,0 5.72776,-4.73004 9.94271,-8.22374z" fill="#1b1f25" stroke="#000000" stroke-width="1.5"/><path d="M249.98042,213.15901l25.18639,-3.625c0,0 -0.58793,4.35498 -2.48474,10.90887c-1.67227,5.77806 -4.55723,13.20957 -6.19251,21.65968c-0.7978,4.12256 1.10573,8.78345 0.21354,13.09196c-0.63504,3.06672 -1.56258,3.30047 -2.83443,6.52074c-0.66422,1.68178 -1.14767,3.89 -1.85032,6.15326c-0.96888,3.12079 -2.12867,6.34624 -2.71268,8.44044c-0.91354,3.27583 -0.30064,6.06304 -0.34274,8.66695c-0.09667,5.97856 12.88722,15.6336 14.78223,17.35242c0.18832,0.1708 0.38682,0.27467 0.27672,0.27891c-1.61087,0.06193 -5.63793,0.09467 -8.14312,-0.23658c-4.48197,-0.59264 -8.48972,-1.55837 -12.04675,-2.34336c-4.89024,-1.07922 -8.92861,-2.03936 -12.17626,-3.24057c-3.89041,-1.43895 -6.64613,-2.99485 -8.37228,-3.76051c-0.31441,-0.13946 0.06779,-5.82186 0.14349,-7.42147c0.07663,-1.61891 -0.88361,-1.19904 -0.88361,-1.19904c0,0 -0.42931,-5.52578 0.53907,-9.48252c0.67886,-2.7738 1.89373,-8.40791 4.12414,-15.09502c1.05836,-3.17311 2.79674,-6.72617 4.06917,-10.18038c1.2448,-3.37922 2.27584,-6.6577 3.18265,-9.94037c4.01817,-14.5458 5.52202,-26.54841 5.52202,-26.54841z" fill="#1b1f25" stroke="#000000" stroke-width="1.5"/><path d="M242.00326,241.53363c0,0 -4.5162,0.91546 -4.60929,-0.3095c-0.30795,-4.05265 2.43732,-28.27383 2.43732,-28.27383h20.04887c0,0 -10.99519,27.34195 -12.82197,30.93653c-0.42897,0.8441 -2.38177,-1.01986 -2.38177,-1.01986c0,0 1.95599,-7.83334 1.16951,-7.83334c-1.03896,0 -1.72856,1.75172 -2.35272,3.11172c-0.74237,1.61756 -1.48996,3.38828 -1.48996,3.38828z" fill="#1b1f25" stroke="none" stroke-width="0"/><path d="M228.32813,283.90943c0.01543,-2.06169 1.64581,-10.00081 1.64581,-10.00081c0,0 0.77819,-11.45916 1.3072,-11.84226c0.32435,-0.23489 1.20925,2.50945 1.39086,4.84034c0.15204,1.95123 0.05394,5.51298 -0.01547,5.75281c-0.02647,0.09147 -0.30485,1.81692 -0.26648,2.82637c0.02463,0.64806 0.32714,0.75608 0.42413,0.75608c0.42993,0 1.53738,-3.46857 2.392,-6.60705c0.50702,-1.86194 1.06271,-3.82371 1.1038,-4.28627c0.11731,-1.32054 0.51398,8.39332 0.51398,8.39332l-0.75183,10.83333c0,0 -7.75406,0.67881 -7.74401,-0.66586z" fill="#1b1f25" stroke="none" stroke-width="0"/><path d="M241.49129,276.18179c0,-8.53667 6.93725,-15.45701 15.49478,-15.45701c2.29154,0 4.46583,-0.83372 6.4229,0.05689c0.10714,0.04876 -0.17687,0.88356 -0.5631,2.04874c-0.26747,0.8069 -0.5405,1.77223 -0.94568,2.74467c-0.48583,1.166 -0.83116,2.92882 -1.42796,4.5568c-0.29889,0.81531 -0.69827,2.22773 -1.00025,3.47544c-0.04918,0.2032 -0.13616,0.51148 -0.23582,0.84519c-0.19256,0.64475 -0.37366,1.38441 -0.47967,1.64457c-1.46844,3.60413 0.22348,8.72529 -0.78521,9.8576c-0.11097,0.12456 0.53692,2.57836 1.34482,3.64879c0.58918,0.78062 2.00098,2.01579 1.9279,2.03096c-1.0239,0.21248 -3.17082,0.00436 -4.25791,0.00436c-8.55753,0 -15.49478,-6.92034 -15.49478,-15.45701z" fill="url(#color-1)" stroke="none" stroke-width="0"/><path d="M263.05454,293.49196c0,0 -1.51788,-1.2475 -2.73086,-2.67579c-0.78618,-0.92573 -1.33112,-1.92595 -1.81412,-2.79791c-0.13925,-0.2514 -0.91952,0.02671 -1.00777,-0.36944c-0.25675,-1.15252 -0.17629,-2.98728 0.0438,-4.91584c0.22814,-1.99922 0.56038,-4.09923 0.82478,-5.6445c0.23978,-1.40137 0.67439,-2.84652 0.67439,-2.84652l3.25794,-6.33334c0,0 -1.43799,8.41925 -1.63099,9.57607c-0.12897,0.77304 -0.17796,1.86001 -0.35368,2.76119c-0.21734,1.1146 -0.54006,2.07745 -0.39292,3.38907c0.22006,1.96177 1.77716,3.74556 2.19436,4.69333c0.88357,2.0072 1.68689,3.74701 1.68689,3.74701z" fill="#000000" stroke="none" stroke-width="0"/><path d="M217.09729,294.01577c0,0 -6.45707,2.48624 -6.74918,2.38489c-0.12621,-0.04379 1.17112,-1.08024 2.489,-1.81413c1.29671,-0.7221 2.61331,-1.14218 2.61331,-1.14218c0,0 0.69862,-2.34896 1.93453,-4.34904c0.31008,-0.5018 0.51978,-1.1155 0.9175,-1.50828c0.90259,-0.89139 2.62053,-3.06664 4.49203,-4.20146c0.64805,-0.39295 0.97444,0.69232 1.40206,2.41037c0.68757,2.76236 1.39768,6.79127 1.39768,6.79127c0,0 -0.29995,1.41708 -1.17997,-0.3342c-1.0895,-2.16816 -1.15886,-6.30865 -2.10184,-6.30865c-0.89212,0 -1.7579,1.90769 -2.80338,3.85133c-1.17533,2.18505 -2.41172,4.2201 -2.41172,4.2201z" fill="#000000" stroke="none" stroke-width="0"/><path d="M225.31972,293.15862c0,0 -0.81066,-1.64016 -0.64259,-2.16835c0.08251,-0.25931 1.05306,0.72521 1.20156,0.40353c0.60174,-1.30349 1.70232,-3.05498 2.89318,-4.79625c1.25646,-1.83718 3.18287,-3.50396 4.06416,-4.12662c0.4321,-0.3053 0.9754,-0.29058 1.1473,0.00339c0.43652,0.74651 0.22807,2.29405 0.05573,3.97567c-0.20661,2.01596 -0.50333,4.15319 -0.72666,5.40544c-0.11229,0.62963 -0.25953,1.08891 -0.25953,1.08891c0,0 -0.63905,0.25152 -0.70504,-1.07904c-0.01596,-0.32175 -0.08555,-0.68437 -0.07486,-1.06158c0.04696,-1.65769 0.33309,-3.59701 -0.07371,-3.58573c-0.96123,0.02663 -3.32605,3.59045 -5.04334,5.48911c-0.82869,0.91622 -1.83618,0.45152 -1.83618,0.45152z" fill="#000000" stroke="none" stroke-width="0"/><path d="M233.06202,292.27324c0.1199,-0.44412 0.31754,-1.24417 0.42296,-1.76996c0.1745,-0.87036 0.93484,-5.72778 0.93484,-5.72778l1.71196,2.95455l8.59888,9.07792c0,0 -8.76759,-3.01561 -9.26028,-3.21085c-0.73357,-0.29068 -1.70914,-0.67727 -2.02114,-0.8009c-0.19291,-0.07644 -0.44706,-0.30138 -0.38723,-0.52299z" fill="#1b1f25" stroke="none" stroke-width="0"/><path d="M194.855,286.61285c-0.64036,-0.10276 0.05604,-2.24419 1.09729,-4.03529c0.70944,-1.22033 2.18657,-2.99036 2.79617,-2.89945c0.34187,0.05099 0.38966,0.74937 0.29208,1.54217c-0.09894,0.80388 -0.34601,1.65755 -0.94658,2.56778c-0.67027,1.01588 -1.44927,1.98728 -2.17157,2.47951c-0.45494,0.31003 -1.05233,0.34771 -1.0674,0.34529z" fill="#000000" stroke="none" stroke-width="0"/><path d="M220.15441,281.25c0,0 -0.39268,-1.01423 -1.37357,-2.38421c-0.44657,-0.62371 -0.98421,-1.36877 -1.4981,-1.99132c-0.67875,-0.82225 -1.3161,-1.48802 -1.64758,-1.94376c-0.17555,-0.24135 -0.19521,-0.47216 -0.1781,-0.50353c0.21916,-0.40232 3.01643,-1.39258 4.61453,-2.17554c0.60476,-0.2963 1.10387,-0.49701 1.13,-0.72121c0.03539,-0.30349 -2.37827,-5.21896 -3.28558,-6.99252c-0.22749,-0.44469 -0.04183,-0.32888 0.26236,-0.45394c1.25576,-0.51629 4.73129,-1.97867 7.35332,-3.39988c1.58127,-0.85709 2.91108,-1.64041 3.14342,-2.30487c0.01997,-0.0571 -0.6766,-0.59733 -1.4734,-1.14985c-0.7663,-0.53136 -1.78372,-1.26026 -2.68184,-1.98916c-0.82008,-0.66558 -1.45077,-1.40809 -2.03587,-1.9233c-0.58994,-0.51946 -1.1724,-0.63181 -1.0816,-0.84971c0.2707,-0.64966 2.09025,-1.60128 3.63281,-2.2999c0.58156,-0.26338 2.20901,-1.04776 2.23544,-1.28137c0.0186,-0.16443 -0.69509,-0.58104 -1.6733,-1.18631c-0.27658,-0.17114 -0.64527,-0.28659 -0.93777,-0.50224c-2.14378,-1.58057 -4.70955,-3.91607 -4.57489,-4.60031c0.15662,-0.79581 0.65559,-1.56015 1.15506,-2.31788c0.73594,-1.11648 1.56327,-2.21861 2.03593,-3.38589c1.89633,-4.68315 3.0197,-8.96533 3.0197,-8.96533c0,0 0.68553,7.8181 1.41391,8.55894c0.65469,0.6659 1.68146,-0.26869 2.7375,-0.38047c1.25178,-0.13251 2.54469,-0.07716 3.30779,-0.15608c0.39449,-0.0408 0.64739,-0.17385 0.67982,-0.26854c0.26758,-0.78124 0.18723,-1.0997 -0.03162,-1.78504c-0.26309,-0.82393 -0.72634,-1.70006 -1.02579,-2.22413c-0.16846,-0.29481 -0.30822,-0.39316 0.06893,-0.52199c0.74449,-0.25431 2.37871,-0.74249 4.13815,-1.39684c1.63086,-0.60653 3.49096,-1.46329 5.49417,-2.26605c1.9369,-0.77618 4.01262,-1.49688 5.85565,-2.17998c2.22049,-0.823 4.21517,-1.2312 5.60406,-1.73447c0.60372,-0.21876 1.09297,-0.58028 1.43655,-0.79344c0.33239,-0.20622 -2.11221,-2.36829 -3.12172,-3.24039c-0.25818,-0.22304 -0.69713,-0.50695 -0.38308,-0.62064c1.11318,-0.40302 4.27236,-1.29924 5.79028,-1.82071c1.47652,-0.50725 4.31741,-1.47682 5.53868,-1.88161c0.39329,-0.13035 0.32311,0.02192 0.04479,0.28426c-0.64348,0.60654 -1.93401,1.78627 -3.42379,2.94735c-1.58765,1.23737 -3.74593,2.52226 -3.75556,2.70394c-0.02438,0.45942 6.51767,0.01916 6.51617,0.66834c-0.00001,0.0049 -0.522,0.68818 -1.87558,1.39796c-1.16188,0.60926 -2.76435,1.21298 -4.56644,2.03333c-2.46049,1.12007 -5.29311,2.51103 -7.88456,3.64753c-6.12851,2.68769 -11.38208,4.19397 -11.3958,4.53908c-0.01776,0.44687 2.34602,2.3698 2.45744,2.98852c0.05078,0.28201 -1.31223,0.71447 -2.46205,1.34199c-3.27889,1.78947 -9.22374,4.61655 -9.95023,5.79435c-0.11633,0.1886 1.37104,0.43378 3.23494,0.7875c3.02982,0.57498 7.0545,1.31044 6.80284,1.61493c-0.10333,0.12504 -2.6793,0.95582 -5.46717,2.07841c-1.84553,0.74313 -3.81584,1.50536 -5.37888,2.19699c-1.68821,0.74702 -2.90127,1.39887 -2.96883,1.49487c-0.10024,0.14247 1.87039,1.27302 3.9709,2.67685c2.58993,1.73092 5.41742,3.79728 5.28737,3.97474c-0.30648,0.41822 -2.42997,1.85525 -4.84294,3.27472c-3.39698,1.99832 -7.36766,4.11289 -7.6501,4.6183c-0.1962,0.35109 5.99652,7.01661 5.78279,6.98713c-0.38775,-0.05348 -1.72174,0.73068 -3.08112,1.25044c-1.1032,0.42181 -2.17047,0.53818 -3.18294,0.94045c-1.07008,0.42516 -1.90667,0.74007 -2.12334,0.73474c-0.16829,-0.00415 0.52691,1.28208 0.9783,2.05863c0.91349,1.57153 1.28951,2.99816 1.28951,2.99816z" fill="#2b263c" stroke="none" stroke-width="0"/><path d="M244.92002,286.33763c0.31919,-0.30216 0.66361,-0.75198 1.15586,-1.149c1.41798,-1.14367 3.4004,-2.5099 4.66437,-3.51036c0.76451,-0.60512 1.37151,-1.12522 1.41702,-1.2422c0.20276,-0.52121 0.0406,-1.64003 -0.23293,-2.13464c-0.28704,-0.51904 -0.79882,-1.29482 -1.50114,-2.05295c-0.58855,-0.63532 -1.33386,-1.23533 -1.97081,-1.88293c-0.98446,-1.0009 -1.89428,-1.93171 -2.32005,-2.53049c-0.19804,-0.27853 -0.29422,-0.63621 -0.24839,-0.73791c0.01921,-0.04261 0.20021,-0.329 0.63291,-0.53658c0.3398,-0.16301 0.94147,-0.20366 1.46545,-0.43539c0.6713,-0.29689 1.46817,-0.6549 2.32513,-1.0861c0.85002,-0.42771 1.75914,-0.97065 2.66345,-1.45314c1.19792,-0.63915 2.38739,-1.30721 3.4198,-1.95342c1.65606,-1.03656 2.97184,-2.20794 3.16878,-2.81015c0.39475,-1.20707 0.72224,-2.39223 0.95552,-3.53933c0.09375,-0.461 -0.13405,-1.83614 -0.06799,-2.27783c0.01559,-0.10422 -4.17841,0.01217 -4.16357,-0.07571c0.11632,-0.68858 2.99157,-2.12104 3.07176,-2.75391c0.02971,-0.2345 -0.33911,-0.27441 -0.7166,-0.38328c-0.65221,-0.18809 -1.4834,-0.42927 -1.43261,-1.13533c0.04733,-0.65797 1.49183,-0.4428 1.58126,-0.82789c0.02589,-0.11148 -1.30115,-1.67061 -3.09868,-3.29162c-1.42726,-1.28709 -3.23663,-2.55632 -4.2921,-3.57571c-0.75532,-0.7295 -1.24303,-1.45988 -1.21636,-1.51716c0.02649,-0.05691 0.55975,-0.38663 1.38753,-1.11668c0.53084,-0.46816 1.7997,-0.42669 2.5168,-1.05733c1.48985,-1.31021 3.15125,-2.97472 4.5747,-4.46186c0.77837,-0.8132 1.63981,-1.49643 2.20893,-2.11664c0.45091,-0.49138 0.66091,-0.97183 0.90515,-1.24428c0.22088,-0.24639 0.26938,-0.47841 0.5081,-0.27009c0.54729,0.47758 1.75507,1.55589 2.25188,1.95971c0.18697,0.15197 1.01671,0.53069 1.20756,0.65504c0.30333,0.19764 -0.20592,0.23663 -0.45346,0.46989c-0.40036,0.37727 -1.08164,1.02025 -1.90533,1.80151c-0.42751,0.40549 -0.89337,1.00207 -1.37822,1.46425c-1.29307,1.23259 -2.72119,2.26644 -3.91698,3.40459c-0.31247,0.29741 -0.71051,0.48021 -1.01401,0.72048c-0.46086,0.36483 -0.80445,0.76173 -1.09445,1.10067c-0.46333,0.54152 -0.81322,0.68652 -0.80183,0.74427c0.04296,0.218 0.50226,0.76264 0.86263,0.89028c1.1734,0.41559 3.75056,0.56466 5.91544,1.17622c1.45961,0.41233 2.78841,1.4086 3.25439,2.20964c0.04783,0.08222 -0.33853,0.21873 -0.91807,0.60191c-0.95476,0.63127 -2.35672,1.65312 -3.28254,2.31809c-0.53615,0.3851 -0.96387,0.59938 -0.91963,0.6814c0.14153,0.26248 0.67202,0.21928 0.81999,0.48541c0.21409,0.38506 -0.95426,0.77419 -0.72999,1.16622c0.05096,0.08909 1.01067,0.5984 2.06052,0.96562c1.31013,0.45826 2.76066,0.70405 2.76066,0.70405c0,0 -0.00638,1.18474 -1.19406,3.22481c-0.5653,0.971 -1.04036,2.19527 -2.57698,3.46685c-0.58851,0.48701 -1.35784,0.92668 -2.11969,1.45696c-1.91093,1.33008 -4.18288,2.82313 -6.43272,4.07412c-1.34194,0.74617 -2.80076,1.35665 -3.80618,1.93201c-0.81954,0.46898 -1.31197,0.94042 -1.40619,1.23162c-0.16518,0.51053 1.4287,1.56215 3.48795,2.58204c1.65581,0.82009 3.63975,1.59247 5.04483,2.25319c1.19936,0.56399 2.23943,0.67478 2.18735,1.01182c-0.06153,0.39819 -3.53664,1.17495 -3.28353,1.90011c0.04401,0.1261 0.33722,0.1873 0.61835,0.33336c0.70236,0.36492 1.81067,0.77941 1.65577,1.17987c-0.05838,0.15091 -0.51625,0.32679 -1.08653,0.75483c-0.84267,0.63249 -2.2872,1.46756 -3.48819,2.33068c-1.06503,0.7654 -1.88914,1.56928 -2.66814,2.02882c-0.30165,0.17794 -0.83205,0.20893 -1.12604,0.40188c-0.21659,0.14215 0.1587,0.45501 0.56729,0.88846c0.78845,0.83641 2.51578,2.14591 4.52586,3.54928c0.7357,0.51365 1.5093,0.80911 2.28859,1.32931c0.57267,0.38228 1.14843,0.99207 1.7145,1.36048c1.88001,1.22352 3.65316,2.32981 4.85178,3.04856c0.92219,0.55298 1.95555,0.81102 1.95555,0.81102c0,0 -2.01562,-0.17806 -4.92317,-1.12482c-1.17747,-0.38341 -2.56568,-0.82858 -3.92553,-1.5388c-3.09422,-1.65393 -6.29555,-3.88037 -8.56117,-5.59936c-1.25092,-0.9491 -2.13948,-1.82044 -2.64438,-2.27838c-0.18272,-0.16572 -0.63458,-0.31391 -0.47926,-0.5602c0.0677,-0.10735 0.62552,-0.29566 0.74409,-0.40789z" fill="#2b263c" stroke="none" stroke-width="0"/></g><g><path d="M272.75654,175.46348c0,0 5.34237,-14.81296 5.34237,-19.86695c0,-3.25107 -0.83475,-8.18051 -0.83475,-8.18051l3.33898,0.50085c0,0 4.45118,1.54111 12.24945,14.4852c2.20677,3.66294 4.77937,12.39362 4.77937,12.39362z" fill="#2b263c" stroke="#000000" stroke-width="2"/><path d="M278.82223,171.64042c0,0 -5.03128,3.87487 -5.18922,2.10999c-0.27873,-3.11476 4.29113,-12.9943 4.67899,-15.5704c0.29283,-1.94491 -1.47848,-7.48052 -0.45715,-9.42421c0.68977,-1.3127 4.33777,0.49923 4.33777,0.49923c0,0 2.85773,3.37157 4.12983,4.9637c1.13928,1.4259 3.0714,4.22241 3.0714,4.22241c0,0 -4.10942,3.03054 -4.24035,4.55603c-0.04559,0.53121 4.00573,2.53599 3.95665,3.08456c-0.15295,1.7095 -0.2345,3.40932 -0.68284,3.79713c-0.7101,0.61423 -2.96456,0.48628 -2.96456,0.48628z" fill="#1b1f25" stroke="none" stroke-width="0"/></g><g><g><path d="M227.37147,148.07619c0,0 0.08684,-5.31502 0.14017,-12.76613c0.02341,-3.27008 -0.21373,-6.9516 -0.15301,-10.77583c0.04404,-2.77321 0.35007,-5.62147 0.51712,-8.44231c0.2255,-3.80803 2.21,-8.58716 2.21,-8.58716c0,0 26.30287,1.94806 32.12802,6.76224c2.47884,2.04864 4.62912,20.20919 4.62912,20.20919c0,0 6.43352,9.92477 9.00684,14.07854c3.29437,5.31769 3.66459,16.80717 3.66459,16.80717c0,0 0.59923,8.97391 -1.12895,20.10064c-1.10585,7.11988 -1.47405,20.50492 -1.9784,21.09301c-3.4287,3.99792 -9.23657,2.85513 -14.11704,3.56275c-10.26118,1.48777 -20.42015,0.87634 -23.80565,1.27253c-4.07819,0.47726 -11.11281,-63.31464 -11.11281,-63.31464z" fill="#ffc6ef" stroke="#000000" stroke-width="2"/><path d="M229.71671,146.35297c0,0 -1.44878,-9.10885 -1.57823,-18.09989c-0.0618,-4.2926 0.48626,-8.29029 0.47589,-11.75895c-0.00546,-1.82867 0.43568,-7.26615 0.43568,-7.26615l29.625,15c0,0 3.51011,9.28728 -0.09375,13.01376c-1.87569,1.93952 -10.78041,0.54879 -16.48659,-0.50548c-2.83616,-0.52401 -4.38216,-1.12078 -4.38216,-1.12078c0,0 0.87792,1.98616 1.80045,3.9461c0.92091,1.9565 1.88583,4.38558 2.56454,5.78148c1.18976,2.44702 3.34752,6.63491 3.34752,6.63491c0,0 6.2685,14.38331 5.75427,14.20157c-1.9669,-0.69515 -21.46261,-19.82657 -21.46261,-19.82657z" fill="#d396fc" stroke="none" stroke-width="0"/><path d="M278.1731,159.11154c0,0 -3.49119,-9.2009 -3.52301,-9.24489c-3.59985,-4.97734 -14.60006,-19.81664 -14.60006,-19.81664c0,0 9.118,3.31468 13.23376,5.74278c1.50223,0.88625 3.46388,2.4877 5.35091,3.51949c1.75679,0.96057 3.43558,1.84744 4.96686,2.79211c0.67001,0.41334 1.29708,0.9097 1.86052,1.27959c1.02621,0.6737 1.84132,1.52938 2.32027,1.89055c0.55813,0.42087 0.85989,0.98158 0.81679,1.02524c-0.69781,0.70701 -2.00246,2.36426 -2.77671,3.37607c-1.62023,2.11734 -7.64933,9.4357 -7.64933,9.4357z" fill="#2b263c" stroke="#000000" stroke-width="2"/><path d="M261.49645,137.05834l-2.64286,-2.07143c0,0 3.70038,0.55265 3.90992,0.86948c0.39083,0.59093 0.77635,1.96104 1.41431,2.91461c0.56725,0.84787 1.1082,1.64879 1.40235,2.06435c0.40571,0.57314 1.05913,1.22299 1.05913,1.22299c0,0 -0.34367,-0.05821 -0.74505,-0.36226c-0.90112,-0.6826 -2.3817,-2.02714 -2.9654,-2.6382c-0.56993,-0.59665 -1.4324,-1.99954 -1.4324,-1.99954z" fill="#000000" stroke="none" stroke-width="0"/><path d="M257.97254,166.22842c0,0 -1.08966,-1.73551 0.31986,-3.484c0.32409,-0.40204 1.24797,-1.46499 1.48333,-1.81538c0.21499,-0.32005 -0.09722,-0.06077 -0.42174,-0.39883c-0.23374,-0.24349 -0.90439,-0.69916 -1.14391,-0.85827c-0.48266,-0.32064 -2.00385,-1.0147 -2.65528,-1.31937c-0.34693,-0.16225 -0.1931,0.10831 -0.01204,-0.09589c0.31595,-0.35631 1.65195,-1.92467 2.28834,-2.64236c0.3037,-0.3425 0.7652,-0.63675 0.37434,-1.0169c-0.29526,-0.28717 -1.17022,-0.84612 -1.57682,-1.2214c-1.12048,-1.03421 -2.18116,-2.03313 -2.77596,-2.77014c-0.42303,-0.52418 -1.32834,-1.54123 -1.5223,-2.10136c-0.1734,-0.50075 -0.45469,-0.77343 0.04809,-0.78932c0.9426,-0.0298 3.38694,-0.12484 5.05113,-0.425c2.11597,-0.38165 4.1703,-0.98866 5.7035,-1.5665c2.69279,-1.01487 7.41545,-4.2664 8.94578,-5.34436c0.31408,-0.22124 0.53377,-0.20837 0.40695,0.41083c-0.06567,0.3206 -2.77914,5.78044 -3.15211,6.82437c-0.1725,0.48282 -0.53326,1.73208 -0.5943,2.18762c-0.04913,0.36658 0.08179,0.22017 0.40999,0.09729c1.26508,-0.47368 2.48712,-1.83352 6.25581,-2.03098c1.28185,-0.08506 2.37653,-0.04588 3.05122,-0.00042c0.45637,0.03075 0.56187,0.209 0.31327,0.45815c-0.68505,0.68652 -2.38349,2.38979 -3.19424,3.92476c-1.67039,3.92463 -5.80288,18.47747 -5.80288,18.47747z" fill="#696f96" stroke="#000000" stroke-width="1.5"/><path d="M257.17251,165.32842l3.39819,-4.37872c0,0 -0.80348,-0.90666 -1.40375,-1.32937c-0.76846,-0.54115 -2.82835,-1.65089 -2.82835,-1.65089l2.92381,-3.14092c0,0 -2.4759,-2.17495 -3.54894,-3.33789c-0.93898,-1.01764 -2.64096,-2.86221 -2.64096,-2.86221c0,0 3.27547,-0.31819 4.88701,-0.66107c1.51595,-0.32254 4.51299,-1.33893 4.51299,-1.33893c0,0 -1.33395,1.33748 -2.08068,1.8912c-0.72067,0.5344 -2.5243,1.37524 -2.5243,1.37524c0,0 1.56718,1.39324 2.53143,1.8813c0.4861,0.24604 1.47646,0.51719 2.27142,0.75926c1.30705,0.398 2.42652,0.91741 2.42652,0.91741c0,0 -1.42002,1.05964 -2.1367,1.68925c-0.80115,0.70382 -2.8451,2.73589 -2.8451,2.73589c0,0 2.63589,-1.00568 3.57256,-1.15359c0.89676,-0.1416 2.43294,-0.21575 2.43294,-0.21575c0,0 -2.45031,4.07684 -0.83073,7.06694c1.14304,2.1103 3.18264,6.05286 3.18264,6.05286z" fill="#4a5c6f" stroke="none" stroke-width="0"/></g><path d="M235.30915,212.89266l18.73614,-22.58274l22.87204,-8.68136c0,0 0.82937,16.22443 0.65936,20.70138c-0.07371,1.94109 -1.66105,5.67659 -1.66105,5.67659z" fill="#d396fc" stroke="none" stroke-width="0"/><path d="M252.78794,209.376c0,0 3.71631,-3.65184 5.2776,-5.26244c0.96519,-0.99567 2.8516,-3.12911 3.57005,-3.91629c0.20868,-0.22865 0.0815,0.10541 -0.01489,0.39688c-0.20128,0.6087 -0.5139,1.61895 -0.52504,2.05314c-0.00543,0.21166 -0.07176,1.12025 -0.04123,1.36584c0.00923,0.07431 0.48573,0.11889 0.95649,0.03841c0.54505,-0.09318 1.19774,-0.64935 1.47473,-0.72568c0.55003,-0.15159 -2.0181,0.5314 -1.82832,0.4611c0.62038,-0.22983 1.62867,-0.63054 2.56271,-0.86236c0.34289,-0.0851 0.75443,-0.06878 1.02095,-0.12505c0.92829,-0.19598 3.16939,-0.51009 4.11187,-0.56955c0.37541,-0.02369 0.01825,0.23374 -0.20859,0.52372c-0.3006,0.38426 -0.74649,0.964 -1.19488,1.58252c-0.75986,1.04817 -1.97533,4.66838 -2.38801,4.84332c-2.51292,1.06526 -12.77344,0.19645 -12.77344,0.19645z" fill="#4a5c6f" stroke="#000000" stroke-width="1"/><path d="M232.60614,217.92146l6.45454,-9c0,0 3.10778,-0.46922 5.91214,-0.79172c1.58404,-0.18216 4.79384,-0.41699 8.09645,-0.87339c2.72781,-0.37697 5.40339,-0.96287 8.30002,-1.28434c0.83045,-0.09216 1.65075,-0.27003 2.45282,-0.35178c3.41332,-0.34792 6.49631,-0.51078 8.62486,-0.67154c1.84862,-0.13961 2.97735,-0.20905 2.97735,-0.20905l-1.09091,7c0,0 -2.77467,0.60804 -6.7198,1.14575c-2.79315,0.3807 -6.30903,0.59011 -9.2393,1.12654c-3.48401,0.6378 -4.4609,1.48999 -7.75591,2.0701c-0.66138,0.11644 -0.94263,0.59288 -1.56596,0.70105c-0.30467,0.05288 -0.96783,-0.25899 -1.2616,-0.20845c-2.177,0.37457 -4.03831,0.68205 -5.34212,0.8752c-3.39804,0.50341 -9.84259,0.47163 -9.84259,0.47163z" fill="#000000" stroke="none" stroke-width="0"/><g><path d="M273.23112,218.90441c0,0 0.37739,-2.77501 0.64151,-4.41691c0.37011,-2.3008 0.91412,-5.18404 1.17343,-7.85108c0.2973,-3.05775 0.20793,-5.8313 -0.00318,-7.11715c-0.1258,-0.76625 -0.18293,-1.74615 -0.41291,-2.79964c-0.41203,-1.88746 -1.10264,-4.01115 -1.77303,-5.56557c-1.9601,-4.54485 -4.50083,-7.37464 -4.50083,-7.37464c0,0 7.20089,-2.83415 11.14375,1.37669c0.64387,0.68763 1.44245,6.6699 1.32089,7.86973c-0.1907,1.88228 -0.4925,3.68473 -0.71175,5.10979c-0.63822,4.14838 -3.11743,11.896 -4.94256,16.66687c-0.90733,2.37174 -1.93533,4.10192 -1.93533,4.10192z" fill="#2b263c" stroke="#000000" stroke-width="1.5"/><path d="M275.73112,199.27941c0,0 -0.73391,-5.2219 -1.91663,-7.66948c-0.59139,-1.22386 -1.6005,-3.59656 -2.65336,-5.3376c-0.5432,-0.89825 -1.34805,-1.74332 -1.8632,-2.49185c-1.2812,-1.86164 -2.0668,-3.12607 -2.0668,-3.12607l11.375,-0.5c0,0 0.97654,6.26993 1.44358,10.07049c0.18589,1.51266 0.06087,2.63415 0.04701,2.81345c-0.16406,2.12251 -0.49059,4.49107 -0.49059,4.49107c0,0 -1.31565,0.57981 -1.92518,0.90634c-0.55128,0.29533 -1.94982,0.84366 -1.94982,0.84366z" fill="#1b1f25" stroke="none" stroke-width="0"/></g><g><path d="M217.19162,236.6413c-0.01317,-0.46257 0.39008,-1.34148 0.663,-2.52582c0.36901,-1.60134 0.70678,-3.76107 1.3977,-6.20507c1.21228,-4.28826 2.74211,-9.45172 3.96502,-14.00969c0.52358,-1.95147 0.68523,-5.03432 0.76758,-6.77416c0.19454,-4.1099 0.12122,-8.59714 0.12122,-8.59714l33.125,-7.875c0,0 -1.75753,2.13276 -4.36357,5.56907c-0.3452,0.45518 -3.30947,4.00625 -3.86769,4.45427c-0.36807,0.2954 1.65236,-2.52465 1.39015,-2.19553c-0.36089,0.45298 2.04109,-1.79045 1.8928,-1.27681c-0.11429,0.39589 -2.75845,3.54597 -3.07585,3.92896c-1.18497,1.4298 -2.59906,3.32631 -3.94379,4.9039c-2.24184,2.63004 -4.6383,5.41598 -6.96479,8.19275c-2.00306,2.39075 -4.13403,4.7747 -6.06943,7.04653c-1.84107,2.1611 -3.47759,4.44135 -5.23658,6.27858c-1.86901,1.95215 -3.84404,3.43636 -5.21756,4.87806c-0.45869,0.48146 -1.8878,1.22973 -2.69575,2.06494c-1.24503,1.28705 -1.87416,2.60873 -1.88744,2.14217z" fill="#2b263c" stroke="#000000" stroke-width="1.5"/><path d="M217.85614,234.52941v-1.75c0,0 0.41927,-0.25 0.75,-0.25c0.43303,0 1.625,0.25 1.625,0.25v1.25z" fill="#000000" stroke="none" stroke-width="0"/><path d="M223.98114,213.52941c0,0 0.50802,-4.72951 0.81882,-7.16408c0.15993,-1.25285 -0.06506,-3.19106 -0.09418,-5.09128c-0.04569,-2.9816 0.02536,-5.86964 0.02536,-5.86964l31.125,-3.625c0,0 -1.51037,1.5389 -3.50546,3.7577c-0.27417,0.30491 -0.48159,1.16323 -0.96341,1.53288c-0.65013,0.49876 -1.59469,0.89316 -1.94344,1.32977c-0.38227,0.47858 -0.4836,1.91844 -0.78544,2.29638c-2.6359,3.30041 -7.92724,9.58328 -7.92724,9.58328c0,0 -0.96093,0.96784 -2.6633,2.1273c-0.72478,0.49364 -1.53865,0.79467 -2.38607,1.36248c-0.86304,0.57828 -1.7609,1.42398 -2.63491,1.99418c-2.73211,1.78242 -5.23122,3.31578 -5.70576,3.28972c-0.49455,-0.02715 -3.35997,-5.52368 -3.35997,-5.52368z" fill="#1b1f25" stroke="none" stroke-width="0"/></g><path d="M257.21732,196.82093c0,0 4.3222,-2.10703 5.93643,-2.95983c1.22866,-0.6491 3.41272,-1.5478 3.41272,-1.5478c0,0 1.23517,0.7752 1.86588,0.83005c0.64872,0.05641 1.807,0.0047 1.807,0.0047c0,0 0.08761,1.31081 -0.21658,3.13594c-0.23325,1.39951 -1.28596,3.87593 -1.28596,3.87593z" fill="#ffc6ef" stroke="none" stroke-width="0"/><path d="M250.2425,214.10328c-0.16193,-0.27422 0.13204,-0.4906 0.18772,-1.04463c0.03694,-0.36753 0.18378,-0.7904 0.24158,-1.20634c0.09758,-0.70213 0.10959,-1.38452 0.13553,-1.74765c0.0319,-0.4466 0.00468,-1.1494 0.4309,-1.21218c0.44304,-0.06526 1.1034,-0.3139 2.47301,-0.50635c1.32478,-0.18616 2.91461,-0.10533 4.37147,-0.27121c0.9896,-0.11267 1.91784,-0.44383 2.65998,-0.57874c1.01479,-0.18447 1.68163,-0.16018 1.68163,-0.16018c0,0 -0.56018,1.12772 -0.7301,1.79429c-0.21384,0.83891 -0.45173,2.84207 -0.45173,2.84207c0,0 -1.19689,0.27283 -2.50215,0.65603c-0.9785,0.28726 -1.97807,0.67638 -2.79855,0.84047c-0.76713,0.15342 -1.97066,0.14126 -3.05816,0.27083c-0.34814,0.04148 -0.77531,0.03176 -1.08155,0.10779c-0.31764,0.07886 -0.51208,0.24308 -0.7449,0.2608c-0.39019,0.02969 -0.65276,0.22922 -0.81469,-0.045z" fill="#fead41" stroke="none" stroke-width="0"/></g><text transform="translate(229.07345,108.52382) scale(0.07561,0.07561)" font-size="40" xml:space="preserve" fill="#000000" fill-rule="nonzero" stroke="none" stroke-width="1" stroke-linecap="butt" stroke-linejoin="miter" stroke-miterlimit="10" stroke-dasharray="" stroke-dashoffset="0" font-family="Sans Serif" font-weight="normal" text-anchor="start" style="mix-blend-mode: normal"><tspan x="0" dy="0">sus</tspan></text><g><path d="M228.90482,207.63307c-0.58129,-0.58436 -1.2404,-1.26856 -2.11281,-2.21626c-3.71823,-4.03912 -9.67734,-11.00889 -13.44456,-16.27243c-3.30675,-4.62018 -8.05059,-12.8956 -12.26942,-19.79941c-2.11467,-3.46051 -4.68414,-6.29009 -6.07928,-8.42922c-0.54922,-0.84209 -0.9452,-1.67498 -1.21217,-2.17606c-0.31442,-0.59013 -0.63204,-0.85663 -0.16643,-1.46892c0.43333,-0.56983 1.7691,-1.92252 2.56364,-2.81828c2.48344,-2.79978 6.63148,-6.89059 11.81942,-10.51853c3.94197,-2.75662 8.57018,-5.36915 12.14507,-7.12229c3.39696,-1.66589 5.84291,-2.54205 5.84291,-2.54205c0,0 12.57514,12.11311 15.53685,20.09002c4.06126,10.93838 6.59091,39.50771 6.59091,39.50771c0,0 -5.76646,6.62537 -8.806,8.88085c-1.21568,0.90209 -2.63201,2.3356 -4.2414,3.39386c-1.22402,0.80487 -2.68071,1.27356 -3.54018,1.82098c-0.84666,0.53926 -1.81711,0.48141 -2.51493,-0.22011z" fill="#2b263c" stroke="#000000" stroke-width="2"/><path d="M231.12975,203.68148c-0.27031,-0.55464 2.34997,-1.27334 3.13288,-1.81732c0.98999,-0.68786 2.22772,-1.76809 2.99734,-2.46637c0.56553,-0.51311 1.12053,-1.50963 1.80826,-2.26487c0.95487,-1.04859 1.84349,-2.34468 1.84349,-2.34468l3.07205,1.17881c0,0 -2.34998,2.19837 -3.83581,3.09854c-0.89234,0.54061 -2.46191,1.3719 -3.87772,2.06447c-0.64991,0.31792 -1.2593,0.59638 -1.78077,0.89191c-0.96014,0.54414 -2.8849,2.63378 -3.35972,1.65949z" fill="#2b263c" stroke="#000000" stroke-width="1.5"/><path d="M229.30268,207.33611c-2.23797,-2.55436 -8.99235,-10.30214 -12.45186,-15.16902c-1.90055,-2.67372 -4.44292,-6.10152 -7.28582,-10.40168c-2.6425,-3.99704 -5.29832,-8.34502 -7.7282,-12.15951c-3.79222,-5.95314 -6.82901,-10.60776 -6.82901,-10.60776c0,0 1.11541,-1.08324 2.72169,-2.25807c1.92001,-1.4043 4.47983,-3.00006 5.83567,-3.85888c1.77073,-1.12162 4.97534,-2.45494 4.97534,-2.45494c0,0 7.84012,10.97595 12.6996,17.74996c2.22709,3.10451 5.59349,7.79286 9.2007,12.81518c2.65133,3.69146 5.8762,6.3934 8.77613,8.30215c1.08015,0.71096 2.65667,1.35106 2.65667,1.35106l-1.43967,3.62135c0,0 -1.09627,1.86338 -1.89615,2.85416c-0.97487,1.20753 -2.49405,2.89004 -3.78585,3.91044c-0.30465,0.24065 -0.61243,0.48246 -0.90622,0.71402c-0.60482,0.47669 -1.01945,0.37952 -1.35642,0.66924c-0.24772,0.21299 -0.31425,0.74547 -0.2772,0.76373c0.17478,0.08612 -0.20519,0.33666 0.87382,-0.10264c1.43508,-0.58426 3.5836,-1.49462 5.59323,-2.66829c1.96864,-1.14973 3.79414,-2.62511 5.39859,-3.77893c0.41697,-0.29986 1.10731,-0.92881 1.10731,-0.92881c0,0 -5.30538,-1.70542 -5.09431,-1.98983c0.25631,-0.34536 -0.85968,-3.35579 1.02101,-3.39315c0.6336,-0.01258 5.9333,2.87673 5.9333,2.87673l1.11939,0.20158c0,0 -1.99079,3.21495 -4.09409,5.19518c-3.77751,3.55646 -10.78552,7.48469 -13.32159,8.85388c-0.59776,0.32273 -0.94857,0.4607 -1.44606,-0.10712z" fill="#1b1f25" stroke="none" stroke-width="0"/></g><path d="M237.00004,194.1875l-3.5,-15.25l27,-6.75l20.875,9.375c0,0 -8.12889,4.55024 -11.50389,6.24165c-2.30391,1.15462 -4.7887,2.2418 -7.41269,3.33379c-3.25016,1.35257 -6.45532,3.02072 -8.33613,3.66666c-2.77961,0.95461 -7.21337,2.65324 -10.30321,2.38703c-7.21216,-0.62138 -6.81907,-3.00412 -6.81907,-3.00412z" fill="#1b1f25" stroke="#000000" stroke-width="1.5"/><g><path d="M218.26516,154.96991c0,0 -0.17426,-2.35203 0.14828,-4.01651c0.64677,-3.33766 3.36593,-13.91127 3.36593,-13.91127l2.81555,-2.19722c0,0 14.08927,21.66189 14.83164,26.73488c0.67549,4.61597 -10.55905,2.46163 -10.55905,2.46163l1.4584,-6.01636c0,0 -2.47063,-1.52609 -4.81442,-1.96916c-2.92675,-0.55327 -7.24634,-1.08598 -7.24634,-1.08598z" fill="#1b1f25" stroke="none" stroke-width="0"/><path d="M235.22041,153.74535c-1.09293,-0.12212 -3.50831,-0.37129 -5.55623,-0.74823c-2.84325,-0.52332 -5.71186,-1.18574 -6.46886,-1.3296c-0.36955,-0.07024 -0.37656,-0.61784 -0.34889,-1.48119c0.01112,-0.3468 0.03041,-0.7553 0.06269,-1.21913c0.10242,-1.47219 0.3823,-3.54618 0.59597,-5.60447c0.28609,-2.7558 0.42455,-5.79326 0.80223,-7.9602c0.19164,-1.09954 0.1577,-1.88692 0.32477,-2.47012c0.16234,-0.56669 1.43817,0.00506 1.56283,0.08183c2.2278,1.37213 7.00857,5.14856 13.33645,13.29493c3.81082,4.90596 10.56195,15.32691 10.56195,15.32691c0,0 0.34605,7.98358 -0.37014,9.12153c-1.6941,2.69172 -13.50712,-2.11898 -16.59643,-3.50808c-0.48584,-0.21846 -0.36342,-0.75855 -0.24545,-1.25347c0.06099,-0.25587 0.13493,-0.56604 0.21889,-0.91831c0.06889,-0.28904 1.46911,-1.07633 1.54989,-1.4153c0.10677,-0.448 -1.40552,1.09788 -1.28451,0.59005c0.76928,-3.22833 2.05465,-8.9123 2.29375,-9.92408c0.11564,-0.48937 0.05118,-0.52834 -0.43891,-0.5831z" fill="#2b263c" stroke="#000000" stroke-width="2"/><path d="M233.94561,165.78472c0.06532,-0.25318 0.90414,-1.35278 0.98907,-1.7002c0.10403,-0.4256 -0.33838,-1.12331 -0.21141,-1.64522c0.22291,-0.91624 0.27265,-0.93852 0.53592,-1.94051c0.79552,-3.02776 1.45848,-6.66199 1.26077,-7.22868c-0.14176,-0.40634 -13.0052,-2.03451 -12.99045,-2.41759c0.11608,-3.01654 0.78775,-7.90089 1.19043,-11.50702c0.35674,-3.19473 0.44743,-5.75799 0.44743,-5.75799l1.46121,0.86105c0,0 1.05688,11.37773 1.27277,13.18717c0.05425,0.45474 0.10975,0.96109 0.49332,1.07483c1.16153,0.34443 8.24061,2.27674 10.83323,3.04694c0.70491,0.20941 0.52539,0.513 0.42363,0.9745c-0.52274,2.37084 -2.11961,9.70101 -2.03114,10.37567c0.12231,0.93273 11.49565,2.36007 11.49565,2.36007c0,0 0.89006,4.90432 -0.4657,5.30036c-0.41795,0.12209 -3.0567,-0.07848 -5.717,-0.80361c-3.55961,-0.97024 -7.41616,-2.61119 -8.52108,-3.09978c-0.45029,-0.19912 -0.62495,-0.46643 -0.46665,-1.08z" fill="#1b1f25" stroke="none" stroke-width="0"/><path d="M227.78583,164.69426c-0.20964,-0.22934 0.7191,-1.89675 0.85036,-2.16938c0.50614,-1.05128 1.45309,-3.53808 2.13549,-4.92402c0.32571,-0.66153 0.66984,-0.99653 0.72969,-0.94667c0.37985,0.31638 -1.71891,6.39067 -1.63975,6.66534c0.04637,0.16089 0.83378,0.1025 1.65683,0.10143c0.92665,-0.00121 1.89797,0.04349 1.89797,0.04349l-0.65771,2.21301c0,0 -4.74752,-0.73664 -4.9729,-0.98319z" fill="#000000" stroke="none" stroke-width="0"/></g><g><path d="M252.6501,137.20528c-0.36912,0.01209 -2.65661,-1.43182 -3.99001,-1.94183c-1.0007,-0.38275 -2.08271,-1.84331 -3.57829,-2.48368c-1.00739,-0.43135 -0.88706,1.20006 -2.10327,0.66368c-3.17733,-1.40125 -4.95308,-2.25891 -7.42997,-3.85931c-0.40107,-0.25914 -0.68897,-1.03121 -1.1205,-1.31953c-0.33988,-0.22708 -1.06631,-0.21425 -1.43263,-0.46314c-0.30048,-0.20416 -1.28,-0.81181 -1.40982,-1.54343c-0.11347,-0.63948 -0.06046,-1.57382 -0.19334,-2.61345c-0.1115,-0.87236 -0.3887,-1.81886 -0.66547,-2.7275c-0.7627,-2.50397 -1.59137,-5.07619 -2.13441,-6.3728c-0.2207,-0.52698 -0.48698,-0.84324 -0.53809,-0.85858c-1.87095,-0.5615 -4.47825,3.04925 -5.98609,2.07899c-5.12247,-3.29622 -8.1411,-13.85829 -7.87625,-15.98173c0.2106,-1.68844 3.55763,0.5276 6.14138,0.65423c1.06779,0.19208 1.76718,-0.10505 1.76718,-0.10505c0,0 11.05926,-12.49241 19.01394,-15.42148c8.26651,-3.0439 29.68561,-2.51066 29.68561,-2.51066c0,0 -0.17435,2.04944 -0.38812,4.0013c-0.09464,0.86414 -0.24845,1.70914 -0.29296,2.34872c-0.02161,0.31046 -0.3508,0.57251 -0.30163,0.76485c0.04777,0.18687 0.55255,0.36628 0.78098,0.56347c0.32826,0.28337 0.77419,0.60346 1.1399,1.03524c0.61091,0.72129 1.19199,1.56613 1.20298,1.71934c0.14918,2.07946 -1.8863,5.95058 -1.71337,7.76444c0.19729,2.06936 1.1379,0.87435 1.17222,2.60265c0.15233,7.67309 -1.95141,20.78943 -1.75612,21.70537c0.17395,1.08861 1.09072,2.5461 1.93421,4.38443c0.73254,1.59652 1.38747,3.29691 1.73117,4.27219c0.17649,0.50081 -0.13885,1.1862 -0.36235,1.34304c-0.25635,0.17988 -0.61798,0.37638 -1.21616,0.58549c-1.16264,0.40643 -2.23424,0.02566 -3.52492,0.24952c-2.71159,0.47031 -5.72476,1.06598 -8.7846,1.23774c-3.48579,0.19568 -6.5014,0.18784 -7.71234,0.2275z" fill="#ffc6ef" stroke="#000000" stroke-width="2"/><path d="M232.86367,107.31818l-4.54545,-17.54545l41.10956,-4.54215l-0.56411,3.99669c0,0 -1.78865,1.73221 -2.87426,2.76813c-0.80072,0.76407 -1.02648,1.22958 -1.66985,1.86902c-0.22048,0.21913 -0.65047,0.37846 -0.95165,0.68613c-1.31936,1.34781 -1.84083,2.61047 -2.81499,2.99315c-0.42683,0.16767 1.7882,-5.22556 1.38455,-5.09775c-0.50253,0.15912 -0.88932,0.36875 -1.31953,0.4289c-2.50649,0.35047 -7.40295,-0.37736 -10.46873,-0.6845c-1.72067,-0.17238 -2.74012,0.03685 -2.74012,0.03685c0,0 1.98966,2.77388 3.64398,4.75067c0.81092,0.96899 1.61034,1.81552 1.92117,1.91576c1.03686,0.33438 2.73183,-0.12335 4.73429,0.24024c1.03718,0.18832 2.27239,1.40398 5.39988,0.26295c0.71485,-0.2608 1.36432,-0.56613 2.05399,-1c1.14771,-0.72203 2.3909,-1.72058 3.28466,-2.35032c1.64712,-1.16055 2.72502,-1.58422 2.72502,-1.58422c0,0 -0.96985,2.50728 -0.55218,5.22904c0.17052,1.1112 0.52277,2.10094 0.70122,3.08087c0.09401,0.51626 0.07412,1.09547 0.09672,1.54555c0.18407,3.66448 -1.07081,12.63142 -1.07081,12.63142c0,0 -1.36294,0.87666 -2.23992,1.79172c-1.24794,1.30212 -4.62653,5.27798 -4.62653,5.27798c0,0 0.07519,-3.09826 0.99961,-5.51296c0.78691,-2.0555 2.41451,-3.36533 2.71451,-4.53642c0.04868,-0.19001 0.56832,-0.90129 0.56832,-0.90129c0,0 -0.79262,-0.34467 -0.8013,-0.66665c-0.0321,-1.19052 0.09605,-2.34657 0.09605,-2.34657l-4.73426,-8.18752l-3.82348,1.72345c0,0 0.57695,4.09384 0.92084,5.81542c0.44816,2.24357 1.55684,4.01996 1.55684,4.01996c0,0 -5.24347,-0.53086 -8.77893,-2.47743c-4.0713,-2.24159 -6.61874,-5.7637 -8.5136,-5.84863c-4.00821,-0.17966 -6.79432,0.26191 -8.53475,0.89304c-1.56747,0.56841 -2.28677,1.32492 -2.28677,1.32492z" fill="#d396fc" stroke="none" stroke-width="0"/><path d="M231.91785,127.18201v-3.05882h2.58824v3.05882z" fill="#000000" stroke="none" stroke-width="0"/><path d="M216.50609,105.41731c0,0 0.35723,-1.20959 1.3012,-1.37012c0.15319,-0.02605 0.45633,-0.01477 0.76238,0.12435c1.81976,0.82719 5.93932,4.15302 5.93932,4.15302c0,0 -0.61668,-1.91675 -0.82749,-2.83468c-0.19912,-0.86701 -0.40433,-2.52886 -0.40433,-2.52886l11.46421,11.92687l0.05882,3.52941c0,0 0.62557,1.10347 1.88883,1.55238c0.73459,0.26104 3.07485,-4.60492 3.63782,-4.15139c0.41356,0.33316 1.209,2.42992 1.3682,3.32362c0.23929,1.34329 -1.308,4.51052 -1.308,4.51052l0.14139,5.68865c0,0 0.49227,0.12548 0.9915,0.33776c0.73846,0.314 2.85591,1.62838 5.40342,2.72568c1.77686,0.76536 3.7243,1.71747 5.4257,2.37419c0.56483,0.21802 1.75243,0.18199 2.25219,0.36025c1.78054,0.63508 3.27881,1.00351 3.27881,1.00351c0,0 -2.02705,0.15432 -4.25766,0.07945c-0.6104,-0.02049 -1.23604,-0.00813 -1.83956,-0.09324c-0.97256,-0.13716 -5.38306,-1.15814 -5.38306,-1.15814c0,0 -1.46488,0.89357 -2.4739,0.48573c-0.03047,-0.01232 -2.83819,-1.3124 -3.86014,-2.0236c-0.13728,-0.09554 -0.74149,-1.04546 -1.77872,-2.09125c-0.42093,-0.4244 -0.78842,-0.9345 -1.28207,-1.31386c-0.68845,-0.52906 -1.51111,-0.91501 -2.08161,-1.44429c-0.90174,-0.83658 -1.68479,-2.02648 -1.70089,-2.04459c-0.60712,-0.68289 -1.02027,-3.28027 -1.8622,-6.16466c-0.82672,-2.8323 -1.67792,-5.81772 -2.6045,-7.18063c-0.28329,-0.4167 -0.68028,-0.51076 -0.9504,-0.58773c-0.52409,-0.14935 -1.68244,0.21672 -2.61851,0.9156c-1.09558,0.81796 -2.20899,1.68894 -2.72151,1.37712c-1.27106,-0.91202 -2.55884,-2.60712 -3.5672,-4.36091c-1.45512,-2.5308 -2.39204,-5.12017 -2.39204,-5.12017z" fill="#d396fc" stroke="none" stroke-width="0"/><path d="M221.83834,100.33979c-0.64284,-1.66223 -1.76627,-4.8252 -2.71598,-8.04074c-1.12,-3.79212 -2.38337,-8.16156 -2.88974,-10.10701c-0.11748,-0.45137 0.06658,-1.85142 0.5467,-2.0632c1.08651,-0.47925 3.41549,-1.48668 5.19737,-2.18019c0.31155,-0.12126 0.59874,0.0209 0.84932,-0.06768c0.2435,-0.08608 -0.01173,-0.29681 0.23355,-0.38201c4.68662,-1.62783 10.31548,-3.31146 10.31548,-3.31146c0,0 9.65066,8.37659 9.03049,12.39897c-0.55514,3.60057 -12.5781,10.86034 -12.5781,10.86034c0,0 1.00993,3.16106 1.43568,4.80215c0.40456,1.55944 1.1835,4.81194 1.1835,4.81194c0,0 -0.67005,1.08362 -0.67363,1.63002c-0.00643,0.97982 0.4091,2.06202 0.7811,2.83257c0.2996,0.62057 0.2982,0.65551 -0.13729,0.23947c-1.20944,-1.15544 -3.67391,-3.52614 -5.03619,-4.95034c-0.89697,-0.93775 -1.69282,-1.63568 -2.77331,-2.85944c-0.46475,-0.52638 -0.26466,-1.01129 -0.60084,-1.39627c-0.12873,-0.14742 -0.20802,-0.66076 -0.53851,-0.92368c-0.22573,-0.17958 -0.70203,-0.10896 -0.86536,-0.25108c-0.45573,-0.39652 -0.52713,-0.57344 -0.67333,-0.95146z" fill="#4a5c6f" stroke="#000000" stroke-width="2"/><path d="M236.54482,88.70721c-0.05265,-0.14448 -0.71973,-0.24731 -1.54427,-0.52124c-2.44565,-0.81248 -7.37632,-2.1555 -9.39154,-2.80692c-0.80036,-0.25872 -0.62112,-0.0385 -0.11572,-0.43766c1.20302,-0.95015 7.59998,-5.58443 7.59998,-5.58443c0,0 -4.28384,-2.82853 -5.65212,-5.76176c-2.95068,-6.32552 -1.11241,-9.31005 -0.7335,-10.0553c0.15082,-0.29663 1.39028,-1.8882 3.00923,-3.15403c1.14023,-0.89153 2.4687,-1.53649 3.73765,-2.24315c2.41432,-1.3445 6.33115,-2.51143 7.76175,-2.99434c0.69435,-0.23439 -0.03299,0.25559 -0.48312,0.9405c-1.31068,1.99431 -4.21596,5.75512 -3.62894,6.97362c0.30986,0.64319 1.36723,1.56954 2.21666,2.60686c0.62133,0.75878 1.5656,1.7436 2.64736,2.55375c0.7843,0.58738 2.03976,0.69777 3.589,0.74701c6.54504,0.20802 18.33335,-3.48338 21.98946,-5.18616c0.36533,-0.17014 0.03524,-4.78704 0.18843,-4.80944c0.68813,-0.10062 13.22697,10.28616 8.20054,19.52554c-1.89719,3.48734 -5.59655,6.01725 -9.87633,7.61773c-8.32938,3.11488 -18.39262,2.92355 -18.39262,2.92355c0,0 -5.80771,3.2237 -10.64214,5.54801c-2.73314,1.31404 -5.1552,2.30724 -6.04086,2.7186c-0.72136,0.33504 -1.92175,0.64443 -1.61831,-0.06651c0,0 0.61867,-0.7939 1.33379,-1.5991c1.46317,-1.64746 3.85339,-4.26375 4.839,-5.67826c0,0 1.05453,-1.12538 1.00662,-1.25687z" fill="#4a5c6f" stroke="#000000" stroke-width="2"/><path d="M244.70838,80.45833c0,0 -14.97773,-2.1027 -14.99362,-13.36938c-0.00371,-2.63161 0.23367,-3.0136 0.87983,-4.19296c2.53179,-4.62104 8.94713,-6.60432 8.94713,-6.60432c0,0 -3.66488,4.86446 -3.59583,6.31224c0.05151,1.07993 3.90606,5.9342 5.4201,6.5436c1.64732,0.66304 3.88499,0.67217 6.36375,0.53763c7.72289,-0.41915 17.78609,-3.68404 19.62662,-4.77744c0.2757,-0.16379 1.00081,-0.6995 1.17747,-1.33149c0.33623,-1.20282 -0.16972,-2.92107 -0.16972,-2.92107c0,0 2.53069,2.48447 3.5597,3.76398c1.17693,1.46344 3.32624,4.99755 3.32624,4.99755c0,0 -6.18139,7.12792 -14.53737,8.07622c-3.9083,0.44354 -7.40084,0.49019 -10.1644,0.08711c-2.71907,-0.39659 -4.70281,-1.42485 -6.32229,-2.13235c-2.62059,-1.14486 -4.01761,-1.98931 -4.01761,-1.98931c0,0 0.63435,1.4298 1.16808,2.27146c0.79999,1.26152 3.33192,4.72854 3.33192,4.72854z" fill="#696f96" stroke="none" stroke-width="0"/><path d="M233.21725,79.69175l0.32732,-0.98197c0,0 1.98941,0.24589 3.22035,0.92022c0.89424,0.48988 1.3993,1.09475 1.16836,1.3779c-0.29209,0.35813 -1.41358,-0.15445 -2.4779,-0.56458c-0.44715,-0.17231 -0.90075,-0.52876 -1.28161,-0.65376c-0.55569,-0.18238 -0.95653,-0.0978 -0.95653,-0.0978z" fill="#000000" stroke="none" stroke-width="0"/><path d="M228.55003,80.25714v-1.5c0,0 1.40076,0.10997 2.50183,0.15811c0.6883,0.03009 1.25949,-0.02491 1.29817,0.04189c0.3638,0.62839 -2.7,1.7 -2.7,1.7z" fill="#4a5c6f" stroke="none" stroke-width="0"/><path d="M223.31821,101.35227l-1.09091,-3.27273l8.90909,8.81818c0,0 -0.47784,0.74533 -0.49126,1.17499c-0.01631,0.52196 0.40035,1.7341 0.40035,1.7341z" fill="#4a5c6f" stroke="none" stroke-width="0"/><path d="M227.90914,108l-0.18182,-1.09091h1.27273v1.45454z" fill="#000000" stroke="none" stroke-width="0"/><path d="M223.30525,108.27597c0,0 -0.24668,-0.37274 -0.66379,-0.76762c-0.46751,-0.44258 -1.20225,-0.93126 -1.61003,-1.31639c-0.42416,-0.40059 -1.14089,-1.02362 -1.71214,-1.57773c-0.66421,-0.64428 -0.87118,-0.83826 -0.87118,-0.83826c0,0 0.3888,0.09024 0.97112,0.39721c0.33775,0.17804 0.6932,0.429 1.19898,0.77755c1.32858,0.91556 2.93593,2.17745 4.12437,3.32167c1.51088,1.45468 2.4129,2.59272 1.3951,3.52673c-0.53069,0.487 -0.72331,0.29647 -1.09294,0.10769c-0.37363,-0.19082 -0.62863,-0.56033 -0.89991,-1.01709c-0.21672,-0.3649 -0.47672,-0.78547 -0.57428,-1.21511c-0.18052,-0.795 -0.26529,-1.39865 -0.26529,-1.39865z" fill="#000000" stroke="none" stroke-width="0"/><path d="M232.51088,108.46324l0.33334,-2c0,0 2.61007,-1.12968 3.06166,-0.90095c0.74152,0.37557 -3.395,2.90095 -3.395,2.90095z" fill="#000000" stroke="none" stroke-width="0"/><path d="M228.23312,108.96324c0,0 0.31814,-0.58207 0.76918,-0.31862c0.87286,0.50983 2.24344,2.05112 2.76929,2.14091c0.71096,0.12139 1.01709,-1.04451 1.01709,-1.04451c0,0 2.72896,3.88724 2.8367,4.46849c0.04021,0.21695 0.11796,0.52731 0.12564,0.8088c0.01454,0.53303 -0.18984,0.65222 -0.3533,0.90814c-0.12344,0.19325 -0.19965,0.48836 -0.27571,0.96345c-0.12094,0.75538 -0.07897,1.74885 -0.11803,2.62113c-0.04049,0.90445 -0.1042,2.06332 -0.1042,2.06332c0,0 -0.28022,-0.99198 -0.33,-1.95039c-0.02575,-0.49573 -0.10709,-1.05175 -0.14764,-1.68009c-0.07972,-1.23543 -0.16098,-2.59118 -0.46681,-3.20285c-0.17828,-0.35656 -0.55616,-0.5556 -0.86938,-0.91284c-0.6344,-0.72356 -1.50096,-1.37075 -2.15309,-1.8924c-0.65136,-0.52104 -2.69976,-2.97253 -2.69976,-2.97253z" fill="#000000" stroke="none" stroke-width="0"/><path d="M238.14284,104.48754c0,0 -0.08229,-1.77584 -0.09089,-3.06231c-0.00187,-0.27904 -0.62526,0.15244 -0.6186,-0.05743c0.01354,-0.42663 0.0954,-1.22146 0.31896,-2.00966c0.20824,-0.73417 0.54771,-1.46256 0.85171,-1.88226c0.45807,-0.63241 -0.02368,-1.11334 -0.02368,-1.11334c0,0 0.8353,-0.56314 2.12906,-0.78929c0.55929,-0.09777 1.15345,-0.18338 1.88712,-0.04901c0.53366,0.09774 1.04856,0.33226 1.66323,0.60646c0.62554,0.27905 1.31038,0.98451 2.06906,1.73251c0.69145,0.68172 1.45482,1.3882 2.08148,2.04847c0.65739,0.69265 1.13939,1.31254 1.63074,1.4928c2.36274,0.65939 5.79181,0.92188 7.83013,0.9113c1.23779,-0.00642 3.7466,-2.05572 4.97976,-2.1714c0.64832,-0.06082 1.95544,0.70547 2.64256,0.35753c0.36323,-0.18393 1.12481,-0.93021 2.00016,-1.96287c0.21791,-0.25707 0.44286,-0.64914 0.67048,-0.9181c0.71479,-0.84459 1.45581,-1.63177 2.08713,-2.42155c0.94326,-1.18003 1.6416,-2.08685 1.6416,-2.08685c0,0 0.79066,-1.07512 0.76725,-0.63923c-0.07324,1.36412 -1.26725,9.95173 -1.26725,9.95173c0,0 -0.45343,1.54214 -1.23776,3.26105c-0.52039,1.14046 -1.22143,2.32375 -1.90584,3.31259c-0.5822,0.84117 -0.84417,1.78013 -1.50605,1.94936c-0.19295,0.04933 -1.68671,0.27363 -2.15338,-0.09228c-0.77329,-0.60632 -1.59011,-1.25844 -2.09939,-2.07752c-1.03179,-1.65944 -1.50837,-3.92865 -1.75377,-4.86143c-0.10483,-0.39849 -0.19453,-0.01288 -0.26758,0.27742c-0.21702,0.86236 -0.69428,2.63051 -1.06275,3.07608c-1.15629,1.39823 -7.56136,5.10395 -8.50979,5.13655c-1.52249,0.05232 -3.85111,-1.26398 -6.15336,-2.78889c-1.47096,-0.97429 -2.96814,-1.99676 -4.11682,-2.92244c-1.5128,-1.21913 -2.48349,-2.20799 -2.48349,-2.20799z" fill="#000000" stroke="none" stroke-width="0"/><path d="M233.01784,100.73754c-0.13569,-0.2173 1.53172,-2.07061 3.33096,-3.25176c1.63887,-1.07587 3.35654,-1.56074 3.35654,-1.56074l-1.125,2.0625c0,0 -0.49646,-0.18822 -1.44607,0.33595c-1.59235,0.87895 -3.94342,2.69111 -4.11643,2.41405z" fill="#000000" stroke="none" stroke-width="0"/><path d="M234.39284,102.48754c0,-0.23753 1.14075,-0.82443 2.27626,-1.27759c0.68006,-0.2714 1.22374,-0.65991 1.22374,-0.65991l0.5,1.625c0,0 0.03911,-0.26398 -0.28584,-0.19206c-0.16379,0.03625 -0.47213,-0.29752 -0.66774,-0.25192c-0.40532,0.09448 -1.11339,0.27024 -1.55977,0.39695c-0.7721,0.21917 -1.48665,0.45601 -1.48665,0.35953z" fill="#000000" stroke="none" stroke-width="0"/><path d="M234.39284,104.55004c-0.08598,-0.28193 0.14876,-0.63777 1.69308,-1.04188c1.01639,-0.26596 2.11942,-0.27062 2.11942,-0.27062l0.5625,1.25c0,0 -1.45471,-0.16603 -2.74299,-0.00602c-0.8502,0.1056 -1.57349,0.26043 -1.63201,0.06852z" fill="#000000" stroke="none" stroke-width="0"/><path d="M261.80911,100.79888c0,0 0.0995,-0.47558 0.00604,-0.97922c-0.03047,-0.16418 -0.13909,-0.4488 -0.37806,-0.72125c-0.62128,-0.70831 -1.76316,-1.69477 -2.01813,-2.95357c-0.0881,-0.43497 0.6005,-1.20485 1.19424,-1.86076c0.38057,-0.42042 0.75904,-0.75715 0.74777,-1.0501c-0.02407,-0.62576 -0.45105,-1.21157 -0.61192,-1.74211c-0.33538,-1.10611 -0.72386,-1.94696 -0.96402,-2.41547c-0.13945,-0.27205 -0.79214,-0.54373 -0.79214,-0.54373c0,0 3.75062,-1.36099 4.57038,-1.39515c0.45524,-0.01897 -0.06443,1.2074 -0.06443,1.2074c0,0 -1.82689,0.60106 -1.8334,1.12626c-0.00297,0.23967 0.16327,0.98651 0.4012,1.76938c0.2676,0.8805 0.6093,1.80658 0.58308,2.10789c-0.05254,0.60369 -1.63165,2.24456 -1.58981,2.75659c0.01985,0.2429 0.92899,1.15316 1.59685,1.92815c0.43342,0.50294 0.72899,0.98514 0.73709,1.06786c0.05338,0.54505 0.04241,1.38493 0.04241,1.38493z" fill="#000000" stroke="none" stroke-width="0"/><path d="M261.74652,97.29425c0,0 -0.39607,-1.10169 -0.29697,-1.6119c0.03247,-0.16716 0.49896,-0.6533 1.0279,-1.11189c0.51276,-0.44457 1.08798,-0.85948 1.14795,-1.16822c0.01202,-0.06189 -0.35447,-1.63841 -0.53299,-2.988c-0.17239,-1.30326 -0.15683,-2.38223 -0.15683,-2.38223l0.93874,-0.68841c0,0 0.00497,0.35939 0.29101,1.83132c0.1399,0.7199 0.55579,1.61179 0.74158,2.51738c0.21137,1.03031 0.30534,2.05993 0.21472,2.54625c-0.02943,0.15791 -0.47153,0.58611 -1.07826,0.89161c-0.60622,0.30525 -1.377,0.4878 -1.56488,0.65571c-0.13851,0.12379 -0.23131,1.82129 -0.23131,1.82129z" fill="#000000" stroke="none" stroke-width="0"/><path d="M250.23132,91.47405c0,0 0.58613,0.38097 1.59116,0.64019c1.10297,0.28448 2.71046,0.44789 4.60146,0.40699c0.80762,-0.01747 1.72954,-0.10165 2.62336,-0.27564c1.12037,-0.21808 2.23236,-0.57725 3.42722,-1.12299c0.38849,-0.17744 0.77913,-0.31406 1.17075,-0.53734c2.05856,-1.17369 4.10922,-4.36816 4.10922,-4.36816c0,0 1.80133,-1.24424 2.13107,-1.26699c0.25679,-0.01771 -0.31617,1.14182 -0.31617,1.14182c0,0 -0.45361,0.63645 -0.96061,1.42535c-0.16712,0.26004 -0.39828,0.47262 -0.5854,0.75604c-0.32831,0.49727 -0.65109,1.08253 -1.18579,1.59354c-0.40656,0.38856 -0.89112,0.49464 -1.39046,0.80674c-1.00507,0.62818 -2.00748,1.3897 -2.61706,1.55936c-1.1769,0.32755 -2.50463,1.11399 -4.34236,1.01448c-1.13289,-0.06134 -3.6421,0.12367 -4.7843,-0.04258c-3.21778,-0.46836 -3.4721,-1.7308 -3.4721,-1.7308z" fill="#000000" stroke="none" stroke-width="0"/><path d="M253.92368,90.78564c0,-0.12341 1.03146,-0.28046 2.0321,-0.43457c0.40902,-0.06299 0.87547,-0.07337 1.20165,-0.16234c1.76264,-0.4808 3.02453,-0.90507 3.02453,-0.90507l0.31291,0.75099c0,0 -0.98399,0.14463 -2.12971,0.42381c-1.02965,0.2509 -2.1153,0.50938 -3.0013,0.58644c-0.89949,0.07823 -1.44018,-0.15082 -1.44018,-0.25925z" fill="#000000" stroke="none" stroke-width="0"/><path d="M239.89143,123.62609c0.01405,-0.55581 -0.03655,-1.82743 0.07761,-2.8518c0.13024,-1.16863 0.44038,-3.66952 0.54704,-4.90586c0.00707,-0.08203 -0.43883,0.329 -0.52046,0.59766c-0.16308,0.53675 0.03072,0.60279 -0.16967,1.33266c-0.02631,0.09581 -0.62503,0.59144 -1.01595,1.08371c-0.21021,0.26471 -0.30564,0.58312 -0.34276,0.71478c-0.10479,0.37171 -0.25661,0.67417 -0.31018,1.04614c-0.23808,1.65337 0.02239,3.23747 -0.12283,3.27527c-0.0416,0.01083 -0.29501,-0.29019 -0.41097,-0.85189c-0.28115,-1.36189 -0.3509,-3.80399 -0.23174,-4.40407c0.07846,-0.39514 0.94636,-0.70624 1.05939,-1.08318c0.10548,-0.35174 0.55174,-1.03988 0.9002,-1.62278c0.09018,-0.15086 0.04077,-0.43011 0.12852,-0.72962c0.10533,-0.35953 0.34045,-0.74823 0.34416,-0.97902c0.01238,-0.76939 0.00163,-1.73843 0.04059,-1.75637c1.017,-0.46819 3.8682,1.03947 5.77466,1.66806c0.42055,0.13866 0.86829,0.16137 1.15793,0.19297c0.70294,0.0767 3.70314,-0.8984 4.02849,-0.77039c0.13637,0.05366 -0.34047,0.284 -1.06625,0.60045c-0.62644,0.27314 -1.43835,0.7839 -2.20145,0.91355c-1.55625,0.26441 -2.22265,0.1733 -2.22265,0.1733c0,0 0.10915,0.52098 0.48574,1.05748c0.33358,0.47523 0.92669,0.96264 1.10704,1.11092c0.96343,0.79215 1.68666,1.22733 1.76095,1.24272c1.43321,0.2969 1.51869,-0.19312 3.33771,-0.28199c3.58238,-0.17502 8.10946,-0.41884 10.11543,-0.64993c0.52398,-0.06037 1.09097,-0.19154 1.16942,-0.23548c1.20524,-0.67504 2.88592,-2.87845 3.55648,-4.22696c0.14152,-0.28459 -0.5344,-0.88192 -0.24898,-0.85687c0.27907,0.0245 1.05564,-0.17336 1.50223,-0.02263c0.38428,0.1297 0.6951,0.75122 0.69933,0.91315c-0.1061,0.2667 -0.17593,0.50353 -0.32972,0.63394c-0.16831,0.14273 -0.42197,0.17322 -0.56303,0.34665c-0.24854,0.30556 -0.45027,0.72703 -0.71771,1.0899c-0.54548,0.74014 -1.17087,1.46718 -1.59339,2.10413c-0.45226,0.68179 -0.6833,1.24915 -0.68886,1.26517c-0.37896,1.09199 -1.06608,3.36658 -1.09227,5.56762c-0.014,1.17651 0.44807,2.66517 0.71326,3.48865c0.11662,0.36213 -0.12214,0.82709 -0.43805,0.93706c-0.591,0.20572 -1.51958,0.43088 -2.51132,0.71769c-2.15078,0.622 -4.7361,1.39652 -6.12378,1.58734c-0.39797,0.05472 -0.76803,-0.00915 -0.91422,-0.05153c-3.21926,-0.93314 -6.5723,-3.63908 -9.10873,-4.99226c-3.49946,-1.86696 -5.57603,-1.80198 -5.56122,-2.38834z" fill="#000000" stroke="none" stroke-width="0"/><path d="M268.09619,118.48077c-0.20034,-0.05717 -0.31942,-1.51963 -0.15583,-2.59222c0.0403,-0.26422 0.16518,-0.50557 0.21473,-0.71964c0.15508,-0.67003 0.24879,-1.07275 0.24879,-1.07275c0,0 0.18092,0.14533 0.29452,0.63623c0.06521,0.28178 0.10824,0.57516 0.08215,1.04275c-0.0195,0.34947 -0.24744,1.6839 -0.44629,2.35448c-0.07767,0.26195 -0.21609,0.35742 -0.23808,0.35114z" fill="#000000" stroke="none" stroke-width="0"/><path d="M262.09619,107.55769l0.76923,0.92308c0,0 0.2608,1.29948 0.53282,2.10372c0.18353,0.54261 0.68497,1.6344 1.06707,2.44207c0.26783,0.56613 0.36018,1.22605 -0.08177,0.85966c-0.36,-0.29846 -0.71232,-0.92267 -1.07884,-1.55826c-0.23285,-0.4038 -0.51732,-0.81219 -0.66571,-1.14457c-0.24401,-0.54653 -0.41337,-1.58743 -0.44762,-2.32244c-0.02636,-0.56556 -0.09519,-1.30326 -0.09519,-1.30326z" fill="#000000" stroke="none" stroke-width="0"/><path d="M245.43419,124.33118c-0.37482,-1.04045 -3.49664,-9.70618 -3.49664,-9.70618c0,0 2.81512,3.17743 4.39428,4.16846c0.99075,0.62176 4.16851,1.20528 4.16851,1.20528c0,0 6.23491,-0.61311 7.45717,-0.7333c0.39846,-0.03918 0.65058,0.13503 0.47349,0.47942c-0.21053,0.40943 -0.47069,1.00461 -0.60093,1.6485c-0.1111,0.54927 -0.09085,2.47319 -0.09085,2.47319c0,0 -3.05392,-0.05239 -5.18032,0.29884c-1.23681,0.20429 -2.09826,0.79327 -2.12471,0.95908c-0.02315,0.14512 1.91418,-0.05811 4.00358,-0.11695c2.42843,-0.06839 5.06229,-0.00751 5.06229,-0.00751c0,0 -0.10977,4.04182 -0.31474,4.03723c-0.25929,-0.00581 -1.17597,0.30847 -2.24792,0.46167c-1.23384,0.17635 -2.67339,0.1799 -3.55294,-0.09184c-0.76883,-0.23754 -2.68956,-1.85403 -4.57392,-3.05591c-1.04972,-0.66953 -2.31448,-1.33148 -2.92676,-1.61968c-0.31648,-0.14896 -0.37777,-0.20094 -0.44959,-0.40029z" fill="#ffffff" stroke="none" stroke-width="0"/><path d="M246.1623,122.24918c-0.33995,-0.87106 -1.05911,-2.60235 -1.95149,-4.1141c-0.40309,-0.68286 -0.64792,-1.30173 -1.04864,-1.84972c-0.81378,-1.11286 -1.43475,-1.93344 -1.47848,-2.40419c-0.03148,-0.33888 0.44606,-0.7295 0.75792,-0.38483c0.79059,0.87377 2.16161,2.64025 3.27276,3.79241c0.40327,0.41815 0.76001,0.76769 1.01108,0.99551c0.64133,0.58194 1.58343,1.3187 1.58343,1.3187c0,0 -0.7788,0.83375 -1.09746,1.43922c-0.19592,0.37225 -0.60911,1.11921 -0.79091,1.51809c-0.10196,0.2237 -0.12089,0.04075 -0.2582,-0.31108z" fill="#f44254" stroke="#000000" stroke-width="1"/><path d="M248.18845,119.92901c0.16863,-0.00286 0.33026,-0.30735 0.72987,-0.3208c1.02966,-0.03467 2.64422,0.20429 2.64422,0.20429c0,0 -0.7012,1.46605 -0.97814,2.043c-0.05019,0.10455 -0.31553,1.0684 -0.62976,1.04938c-0.28329,-0.01714 -0.68052,-1.07116 -0.72825,-1.13799c-0.1997,-0.27958 -1.27707,-1.83383 -1.03794,-1.83788z" fill="#f44254" stroke="#000000" stroke-width="0.5"/><path d="M251.08861,119.97106c-0.26599,0.49795 -0.64586,1.21601 -0.81671,1.57193c-0.09543,0.19881 -0.19862,0.46564 -0.27586,0.67645c-0.07168,0.19565 -0.23058,0.21609 -0.36642,0.04974c-0.11123,-0.13622 -0.24005,-0.29884 -0.34074,-0.43979c-0.19995,-0.27993 -0.60218,-0.86507 -0.95348,-1.37883c-0.09449,-0.13818 -0.18529,-0.27121 -0.26748,-0.39174c-0.11641,-0.17072 3.09904,-0.23443 3.02069,-0.08776z" fill="#f44254" stroke="#000000" stroke-width="0.5"/><path d="M269.44723,127.53495c0,0.29238 -0.22386,0.52942 -0.5,0.52942c-0.27614,0 -0.5,-0.23703 -0.5,-0.52942c0,-0.29238 0.22386,-0.52941 0.5,-0.52941c0.27614,0 0.5,0.23703 0.5,0.52941z" fill="#000000" stroke="none" stroke-width="0"/><path d="M271.15315,129.24084c0,0.22741 -0.23703,0.41177 -0.52941,0.41177c-0.29239,0 -0.52941,-0.18436 -0.52941,-0.41177c0,-0.22741 0.23702,-0.41177 0.52941,-0.41177c0.29239,0 0.52941,0.18436 0.52941,0.41177z" fill="#000000" stroke="none" stroke-width="0"/><path d="M272.15315,132.71142c0,0.32487 -0.27653,0.58824 -0.61765,0.58824c-0.34112,0 -0.61765,-0.26336 -0.61765,-0.58824c0,-0.32487 0.27653,-0.58823 0.61765,-0.58823c0.34112,0 0.61765,0.26336 0.61765,0.58823z" fill="#000000" stroke="none" stroke-width="0"/><path d="M270.68255,132.03495c0,0.24365 -0.23703,0.44118 -0.52941,0.44118c-0.29239,0 -0.52941,-0.19753 -0.52941,-0.44118c0,-0.24365 0.23703,-0.44118 0.52941,-0.44118c0.29239,0 0.52941,0.19752 0.52941,0.44118z" fill="#000000" stroke="none" stroke-width="0"/><path d="M269.74136,129.71142c0,0.19493 -0.18435,0.35295 -0.41177,0.35295c-0.22741,0 -0.41177,-0.15802 -0.41177,-0.35295c0,-0.19493 0.18435,-0.35294 0.41177,-0.35294c0.22741,0 0.41177,0.15802 0.41177,0.35294z" fill="#000000" stroke="none" stroke-width="0"/><path d="M268.0943,130.79966c0,0.27614 -0.2502,0.5 -0.55883,0.5c-0.30863,0 -0.55883,-0.22386 -0.55883,-0.5c0,-0.27614 0.2502,-0.5 0.55883,-0.5c0.30863,0 0.55883,0.22386 0.55883,0.5z" fill="#000000" stroke="none" stroke-width="0"/><path d="M268.80017,133.32907c0,0.24365 -0.22386,0.44117 -0.5,0.44117c-0.27614,0 -0.5,-0.19752 -0.5,-0.44117c0,-0.24365 0.22386,-0.44118 0.5,-0.44118c0.27614,0 0.5,0.19752 0.5,0.44118z" fill="#000000" stroke="none" stroke-width="0"/><path d="M265.0943,132.1526c0,0.24365 -0.22386,0.44117 -0.5,0.44117c-0.27614,0 -0.5,-0.19752 -0.5,-0.44117c0,-0.24365 0.22386,-0.44118 0.5,-0.44118c0.27614,0 0.5,0.19753 0.5,0.44118z" fill="#000000" stroke="none" stroke-width="0"/><path d="M266.80017,133.44672c0,0.24365 -0.22386,0.44118 -0.5,0.44118c-0.27614,0 -0.5,-0.19752 -0.5,-0.44118c0,-0.24365 0.22386,-0.44118 0.5,-0.44118c0.27614,0 0.5,0.19752 0.5,0.44118z" fill="#000000" stroke="none" stroke-width="0"/><path d="M263.97664,134.82907c0,0.2599 -0.23702,0.47059 -0.52941,0.47059c-0.29239,0 -0.52941,-0.21069 -0.52941,-0.47059c0,-0.2599 0.23703,-0.47059 0.52941,-0.47059c0.29239,0 0.52941,0.21069 0.52941,0.47059z" fill="#000000" stroke="none" stroke-width="0"/><path d="M261.50604,133.18201c0,0.2599 -0.22386,0.47059 -0.5,0.47059c-0.27614,0 -0.5,-0.21069 -0.5,-0.47059c0,-0.2599 0.22386,-0.47059 0.5,-0.47059c0.27614,0 0.5,0.21069 0.5,0.47059z" fill="#000000" stroke="none" stroke-width="0"/><path d="M260.88844,135.6526c-0.27614,0 -0.5,-0.17119 -0.5,-0.38236c0,-0.21117 0.22386,-0.38235 0.5,-0.38235c0.27614,0 0.5,0.17118 0.5,0.38235c0,0.21117 -0.22386,0.38236 -0.5,0.38236z" fill="#000000" stroke="none" stroke-width="0"/><path d="M257.97664,134.56437c0,0.30863 -0.27653,0.55882 -0.61764,0.55882c-0.34112,0 -0.61765,-0.25019 -0.61765,-0.55882c0,-0.30863 0.27653,-0.55883 0.61765,-0.55883c0.34112,0 0.61764,0.2502 0.61764,0.55883z" fill="#000000" stroke="none" stroke-width="0"/><path d="M252.85902,133.03495c0,0.30863 -0.25019,0.55882 -0.55882,0.55882c-0.30863,0 -0.55882,-0.25019 -0.55882,-0.55882c0,-0.30863 0.25019,-0.55882 0.55882,-0.55882c0.30863,0 0.55882,0.25019 0.55882,0.55882z" fill="#000000" stroke="none" stroke-width="0"/><path d="M252.53551,135.41731c-0.24366,0 -0.44118,-0.13169 -0.44118,-0.29412c0,-0.16244 0.19753,-0.29412 0.44118,-0.29412c0.24365,0 0.44117,0.13169 0.44117,0.29412c0,0.16243 -0.19752,0.29412 -0.44117,0.29412z" fill="#000000" stroke="none" stroke-width="0"/><path d="M251.03551,134.24084c0,0.2599 -0.22386,0.47058 -0.5,0.47058c-0.27614,0 -0.5,-0.21069 -0.5,-0.47058c0,-0.2599 0.22386,-0.47059 0.5,-0.47059c0.27614,0 0.5,0.21069 0.5,0.47059z" fill="#000000" stroke="none" stroke-width="0"/><path d="M251.2708,132.77024c0,0.2599 -0.22386,0.47059 -0.5,0.47059c-0.27614,0 -0.5,-0.21069 -0.5,-0.47059c0,-0.2599 0.22386,-0.47058 0.5,-0.47058c0.27614,0 0.5,0.21069 0.5,0.47058z" fill="#000000" stroke="none" stroke-width="0"/><path d="M248.80019,132.82907c0,0.32487 -0.26336,0.58823 -0.58823,0.58823c-0.32487,0 -0.58823,-0.26336 -0.58823,-0.58823c0,-0.32487 0.26336,-0.58823 0.58823,-0.58823c0.32487,0 0.58823,0.26336 0.58823,0.58823z" fill="#000000" stroke="none" stroke-width="0"/><path d="M246.44727,131.71142c0,0.2599 -0.23702,0.47059 -0.52941,0.47059c-0.29238,0 -0.52942,-0.21069 -0.52942,-0.47059c0,-0.2599 0.23703,-0.47058 0.52942,-0.47058c0.29238,0 0.52941,0.21069 0.52941,0.47058z" fill="#000000" stroke="none" stroke-width="0"/><path d="M270.95457,134.72728c0,0.32635 -0.24421,0.59091 -0.54546,0.59091c-0.30124,0 -0.54546,-0.26456 -0.54546,-0.59091c0,-0.32635 0.24421,-0.59091 0.54546,-0.59091c0.30124,0 0.54546,0.26456 0.54546,0.59091z" fill="#000000" stroke="none" stroke-width="0"/><path d="M244.77277,107.59091c0,0 1.99296,-0.72739 2.76971,-0.90081c0.72929,-0.16282 2.12104,-0.20081 2.12104,-0.20081c0,0 0.16928,-0.78272 0.35865,-1.74016c0.16818,-0.85027 0.44312,-1.56562 0.53852,-2.26564c0.1517,-1.11315 0.07147,-3.59132 0.21056,-5.06596c0.10766,-1.14144 0.45606,-1.82661 0.45606,-1.82661c0,0 -0.27664,1.19222 -0.26354,2.6371c0.01448,1.59747 0.14065,3.6856 0.22495,4.63096c0.08634,0.9682 0.65371,2.77875 0.65371,2.77875l5.5667,-0.04681c0,0 -0.77339,0.62668 -2.11047,0.90651c-1.44824,0.30309 -3.47907,0.27798 -3.76172,0.75186c-0.0784,0.13144 -0.24166,0.21737 -0.30678,0.97824c-0.22736,2.65656 -0.27557,8.4543 -0.27557,8.4543c0,0 -0.24363,-4.69651 -0.48368,-7.20513c-0.05106,-0.53361 -0.18875,-0.88143 -0.22713,-1.16077c-0.09624,-0.70047 -0.38966,-1.14919 -0.38966,-1.14919c0,0 -0.86108,-0.15914 -1.35175,-0.14275c-0.83228,0.02779 -3.72959,0.56694 -3.72959,0.56694z" fill="#ff0000" stroke="none" stroke-width="0"/><path d="M258.73891,105.89444c0,0 1.47784,-0.37123 2.95194,-0.96898c0.58727,-0.23814 1.18223,-0.46602 1.72889,-0.76197c0.7569,-0.40978 1.48433,-0.38043 1.76236,-0.8962c0.21186,-0.39301 0.32444,-1.83598 0.39486,-3.32186c0.14693,-3.10031 0.07305,-7.19543 0.07305,-7.19543c0,0 0.14592,0.4698 0.21434,1.31503c0.15604,1.92771 -0.05981,5.05473 0.05233,6.35547c0.09437,1.09465 0.71327,2.93595 0.71327,2.93595c0,0 0.33339,0.14152 0.93583,-0.05952c1.04724,-0.34949 2.70531,-1.07206 3.38563,-1.07001c2.50907,0.00756 3.4986,0.30087 3.4986,0.30087c0,0 -1.28774,-0.10219 -2.74076,0.17604c-0.9172,0.17563 -1.94011,0.57901 -2.83671,0.99477c-0.16042,0.07439 -0.37235,-0.01572 -0.52336,0.06242c-0.23482,0.12151 -0.40109,0.4135 -0.60493,0.54039c-0.46947,0.29224 -0.84352,0.5928 -1.0611,0.87423c-0.04581,0.05925 -0.20225,0.23953 -0.26719,0.66924c-0.19559,1.29404 -0.36838,4.04317 -0.66048,6.09167c-0.23226,1.62879 -0.60546,2.81348 -0.60546,2.81348c0,0 0.08598,-4.1342 -0.10142,-6.71442c-0.08149,-1.12202 0.06642,-2.14474 -0.20228,-2.48264c-0.13479,-0.16951 -1.02637,-0.23291 -2.32078,-0.13851c-1.65382,0.12061 -3.78664,0.48002 -3.78664,0.48002z" fill="#ff0000" stroke="none" stroke-width="0"/><path d="M251.87226,106.47222c0,0.5216 -0.42284,0.94444 -0.94444,0.94444c-0.5216,0 -0.94444,-0.42284 -0.94444,-0.94444c0,-0.5216 0.42284,-0.94444 0.94444,-0.94444c0.5216,0 0.94444,0.42284 0.94444,0.94444z" fill="#ff0000" stroke="none" stroke-width="0"/><path d="M266.81671,104.58333c0,0.46024 -0.36066,0.83333 -0.80556,0.83333c-0.4449,0 -0.80556,-0.3731 -0.80556,-0.83333c0,-0.46024 0.36066,-0.83333 0.80556,-0.83333c0.4449,0 0.80556,0.3731 0.80556,0.83333z" fill="#ff0000" stroke="none" stroke-width="0"/></g><g><path d="M264.75001,170.1875c0,0 1.47344,-4.09785 2.22769,-6.06726c0.51551,-1.34605 1.30383,-2.93541 1.76288,-4.11929c0.20495,-0.52855 0.3211,-1.15328 0.41328,-1.39037c0.14107,-0.36282 -0.5815,-1.21556 0.06585,-2.2522c0.15736,-0.25199 0.75997,-0.94067 1.67457,-1.67718c1.20961,-0.97407 2.52036,-2.09434 3.02871,-2.17994c1.12576,-0.18956 2.63128,-0.20648 3.71004,0.15774c0.8012,0.27051 1.36699,1.08619 1.36699,1.08619c0,0 2.04651,-0.26481 2.72569,-0.24666c0.09542,0.00255 1.56579,-0.25401 2.40807,1.99739c0.18783,0.50206 1.02302,1.38943 1.98285,2.11745c1.08312,0.82154 2.22701,1.57228 2.4594,2.29986c0.09582,0.3 0.34557,0.63416 0.30202,1.11562c-0.08911,0.98494 -0.91715,2.18821 -0.91715,2.18821c0,0 0.62421,0.15804 0.82272,0.58568c0.10104,0.21766 0.11451,0.50515 0.15724,0.8772c0.04708,0.40989 0.22909,2.58435 -0.68493,2.78119c-1.02283,0.22027 -5.38358,-0.15179 -5.68125,0.07455c-0.15656,0.11904 -1.74108,3.74892 -2.50691,4.60032c-2.02503,2.25131 -3.94275,3.1765 -3.94275,3.1765z" fill="#d396fc" stroke="#000000" stroke-width="1.5"/><path d="M287.77887,163.69231c0,0 -0.73314,0.60807 -1.54118,1.14979c-0.51875,0.34777 -1.02315,0.71341 -1.53359,0.72392c-1.11264,0.02291 -2.27232,-1.7044 -2.99055,-1.70459c-0.98703,-0.00026 -2.01681,1.49356 -2.85002,1.38625c-0.90767,-0.11691 -1.60665,-1.97634 -1.89623,-2.21306c-0.12791,-0.10457 1.46547,-1.7915 3.44078,-2.1c1.97937,-0.30913 4.64834,0.68322 4.50064,0.55446c-0.91247,-0.79544 -2.00154,-2.5012 -3.20605,-3.0455c-0.64704,-0.29239 -1.62104,0.36836 -2.67038,0.70409c-0.56787,0.18169 -1.22154,0.13689 -1.5159,-0.00492c-0.19016,-0.09161 -0.40161,-0.62473 -0.66333,-1.012c-0.18511,-0.27391 -0.43382,-0.43642 -0.54808,-0.48798c-0.89636,-0.40446 -1.57502,0.16963 -1.67341,0.12383c-1.90344,-0.88593 -3.69885,-2.0743 -3.69885,-2.0743c0,0 2.67514,-2.55689 3.10183,-2.63772c0.32694,-0.06193 1.6594,-0.28199 2.56061,0.09393c0.7804,0.32552 1.14122,1.25188 1.41824,1.23878c0.59684,-0.02822 0.91213,0.07394 1.54392,0.00548c0.20931,-0.02268 0.69389,-0.05431 1.17554,-0.10629c0.50649,-0.05466 1.0179,-0.12368 1.5435,0.1124c0.32858,0.14759 0.47767,0.58454 0.74565,0.91284c0.3031,0.37132 0.63841,0.72352 0.83862,1.07972c0.19575,0.34827 1.4779,1.46824 1.69946,1.80511c0.17396,0.2645 0.41147,0.32134 0.67201,0.5074c0.7095,0.50669 1.58974,0.98457 1.82227,1.71538c0.21729,0.6829 -0.11828,1.36189 -0.21024,1.97507c-0.10569,0.70478 -0.06527,1.29791 -0.06527,1.29791z" fill="#ffc6ef" stroke="none" stroke-width="0"/><path d="M271.31734,160.23077c-0.16701,-0.12412 -0.03628,-0.40055 -0.00113,-0.85806c0.02292,-0.29826 0.10329,-0.41001 0.26002,-0.76215c0.18991,-0.42668 0.54019,-0.95546 0.85316,-1.4315c0.24586,-0.37396 0.36231,-0.91671 0.63577,-1.32005c0.34496,-0.50879 0.43105,-1.65893 0.86756,-2.01286c0.60012,-0.48658 1.09749,-0.19849 1.835,-0.30676c0.36999,-0.05432 1.05588,-0.32703 1.42501,-0.35936c0.41199,-0.03609 -0.36363,-1.19718 -0.03102,-1.18855c0.21518,0.00558 0.89791,0.02578 1.5942,0.23778c0.70076,0.21336 1.41525,0.61901 1.68066,0.77622c0.57125,0.33837 -0.65769,0.3022 -0.65769,0.3022c0,0 -0.10194,0.78258 -0.30072,1.19435c-0.12772,0.26456 -0.23774,0.57488 -0.23774,0.57488c0,0 0.27916,0.09623 1.38833,-0.04844c0.30277,-0.03949 0.69273,0.04845 0.99907,-0.01505c0.52436,-0.10869 0.95218,-0.36419 1.35224,-0.31435c1.33747,0.16663 1.09712,1.379 0.91555,1.58502c-0.0929,0.10541 -2.99728,0.5771 -4.32052,0.66421c-1.91563,0.1261 -2.45625,-0.13235 -2.56884,0.04959c-0.16286,0.26318 -0.392,0.48556 -0.55017,0.8023c-0.2958,0.59238 -0.61239,1.24574 -1.0582,1.83782c-0.58026,0.77064 -1.23506,1.39426 -1.67425,2.09667c-0.69917,1.11818 -0.48294,2.23063 -0.63987,2.21156c-0.0544,-0.00661 -0.45184,-0.38765 -0.58688,-1.01209c-0.06245,-0.28876 -0.12926,-0.69004 0.02849,-1.02182c0.3995,-0.84022 0.93977,-1.94461 1.49505,-3.02331c0.62344,-1.21111 1.26581,-2.38983 1.74914,-3.12591c0.38941,-0.59305 0.9274,-0.58402 0.8579,-0.5871c-0.41082,-0.01818 -0.83994,-0.01173 -1.22338,0.04464c-0.304,0.04469 -0.56567,0.12529 -0.74655,0.25662c-0.08648,0.06278 -0.34348,0.32115 -0.57961,0.78803c-0.4559,0.90143 -1.04377,2.37035 -1.647,3.23873c-0.57024,0.8209 -0.9787,0.82699 -1.11359,0.72674z" fill="#000000" stroke="none" stroke-width="0"/><path d="M274.63991,167.16908c0.02055,-0.22764 0.13898,-0.44709 0.22044,-0.80111c0.05271,-0.22909 0.12213,-0.55924 0.21341,-0.83362c0.11818,-0.35522 0.18503,-0.8228 0.35963,-1.24238c0.24804,-0.59608 0.13834,-1.95044 0.63395,-2.46434c0.71664,-0.7431 3.23757,-1.67901 4.17306,-1.82763c0.3631,-0.05768 0.75566,0.06734 1.15384,0.06706c0.72546,-0.00053 1.46957,-0.06019 2.08814,0.12661c0.70047,0.21153 1.22842,0.59697 1.76678,0.91996c0.53586,0.32149 1.08273,0.5804 1.51547,0.84923c0.72716,0.45174 1.245,0.65252 1.245,0.65252c0,0 1.00486,1.18533 1.30446,2.48009c0.17831,0.77057 0.09402,1.41642 0.10762,1.51617c0.00822,0.06029 0.0878,1.47833 -0.66611,1.71392c-0.46449,0.14515 -4.48829,0.37204 -6.21661,0.02787c-0.82457,-0.1642 -0.11661,-0.93369 -0.13974,-1.01495c-0.06658,-0.23398 3.46598,-0.08519 5.33899,-0.4152c0.88133,-0.15528 0.91608,-0.71603 0.91541,-0.92263c-0.00288,-0.89462 -0.41325,-1.69296 -0.41325,-1.69296c0,0 -1.61205,-0.49137 -3.05462,-1.19585c-1.10363,-0.53896 -2.05568,-1.26266 -2.75618,-1.51693c-0.27853,-0.1011 -0.45254,-0.06323 -0.67925,-0.00877c-0.13374,0.03213 -0.52372,-0.06292 -0.82126,0.01554c-0.66089,0.17427 -1.5217,0.93315 -2.31727,1.24627c-0.57063,0.22458 -0.99122,0.1496 -1.26099,0.35082c-0.10066,0.07507 -0.30428,1.4468 -0.9613,2.52051c-0.44987,0.73518 -1.01265,1.34579 -1.40751,1.68473c-0.21471,0.18431 -0.37253,0.10192 -0.34213,-0.23494z" fill="#000000" stroke="none" stroke-width="0"/></g><g><path d="M261.1667,179.91667l-3.33333,-16c0,0 1.84744,-0.25562 3.86894,0.40253c2.46173,0.80148 5.34615,2.55915 8.59097,3.79746c0.93072,0.35519 1.92055,0.74352 2.78695,1.12843c1.86313,0.82773 3.51117,1.7166 4.65873,2.14925c0.54181,0.20427 1.66437,0.55476 1.95301,0.55168c1.00595,-0.01076 2.38876,-0.47968 5.19797,-1.0615c0.70472,-0.14595 5.19823,3.25892 5.95452,2.97232c0.84303,-0.31947 3.50453,-4.78588 3.8671,-5.14066c1.91494,-1.87383 -1.03175,-4.09696 -0.45632,-3.91877c3.47495,1.07605 8.92455,3.16209 11.7502,4.60231c2.52954,1.2893 3.45352,1.98452 2.80258,3.7154c-0.98218,2.61166 -1.94837,4.04413 -2.67726,5.09732c-2.04548,2.95555 -5.35466,6.48436 -8.05511,9.29675c-0.98323,1.02399 -2.32752,2.53681 -3.47096,3.79639c-0.58562,0.64511 -1.02635,1.31601 -1.53027,1.62941c-1.02331,0.63643 -1.19496,0.2782 -2.15606,0.0102c-1.4941,-0.41663 -3.44396,-1.86963 -5.38458,-2.61624c-5.91947,-2.2774 -13.08008,-5.22746 -18.14543,-7.42353c-3.59819,-1.55999 -6.22166,-2.98874 -6.22166,-2.98874z" fill="#2b263c" stroke="#000000" stroke-width="2"/><path d="M279.25001,177.4375l-2.125,-4.25c0,0 5.98969,-1.94307 8.83349,-2.86844c0.61024,-0.19857 1.3261,0.81527 2.98928,0.01771c1.68935,-0.8101 2.05223,-4.02427 2.05223,-4.02427c0,0 0.33837,-2.19635 1.29183,-2.41341c0.27058,-0.0616 2.05115,1.67248 2.32087,1.80922c2.12891,1.07936 4.93942,1.83978 4.93942,1.83978l0.44788,9.88942z" fill="#2b263c" stroke="none" stroke-width="0"/><path d="M261.99042,179.55289l-1.99039,-7.61539c0,0 4.637,1.36612 7.00746,2.422c2.36696,1.05432 5.34019,2.42245 8.27015,3.67992c2.66478,1.14366 5.28954,2.09658 6.92406,2.81289c3.61568,1.58451 9.04687,4.14442 9.04687,4.14442c0,0 2.67694,-2.19757 5.35845,-4.2464c1.2729,-0.97257 2.51866,-1.93979 3.42471,-2.67742c1.34168,-1.09229 3.11897,-2.62973 4.68385,-4.0173c0.06607,-0.05858 0.65179,-0.09402 1.29127,-0.53823c0.82666,-0.57422 1.74317,-1.57987 1.74317,-1.57987c0,0 1.38016,-0.02301 -0.83375,3.44655c-1.09524,1.71641 -3.17372,4.6708 -5.55842,7.43059c-2.09657,2.42634 -4.4582,4.64552 -6.20493,6.52379c-1.85174,1.9912 -3.15289,3.22406 -3.15289,3.22406c0,0 -0.76273,-0.57505 -1.64574,-0.95135c-1.62482,-0.69243 -7.37182,-3.17831 -13.23813,-5.69441c-1.10115,-0.47229 -2.3315,-0.82065 -3.41458,-1.2834c-1.29043,-0.55135 -2.42425,-1.21265 -3.60668,-1.71419c-1.52499,-0.64684 -2.92293,-1.23585 -4.09775,-1.72473c-2.20349,-0.91693 -4.00673,-1.64154 -4.00673,-1.64154z" fill="#1b1f25" stroke="none" stroke-width="0"/><path d="M248.4712,174.13462l-5.84616,-4.69231c0,0 -1.18855,-4.48827 -1.43157,-5.12473c-0.08166,-0.21386 -0.78985,-2.84538 -0.4621,-3.27341c0.55659,-0.72689 2.11315,-1.60936 4.81549,-1.71187c5.65827,-0.21463 9.77049,1.18693 9.77049,1.18693c0,0 2.9998,2.83751 5.01264,6.30034c0.37547,0.64595 0.97792,1.49376 1.30063,2.28123c0.12822,0.31289 0.15965,0.68104 0.23564,0.92449c0.33004,1.05734 0.71313,2.36322 0.87204,3.70213c0.42123,3.54907 0.19442,7.33026 0.19442,7.33026z" fill="#afcad3" stroke="#000000" stroke-width="1.5"/><path d="M247.54812,162.75c0,0 0.86304,-2.70931 2.41849,-3.09369c0.97602,-0.2412 2.95579,-0.44132 4.85386,0.80336c1.38814,0.91028 2.43025,2.22305 3.59135,3.94574c0.66598,0.9881 1.5558,2.52142 1.05567,3.93613c-0.45153,1.27722 -1.83628,2.22118 -2.79313,1.77733c-0.87518,-0.40597 -2.76803,-1.97116 -3.98408,-2.98553c-0.56333,-0.46991 -0.83359,-2.2582 -1.39572,-2.72472c-0.7263,-0.60278 -1.39083,-0.98748 -1.95195,-1.23268c-1.09361,-0.47789 -1.79448,-0.42594 -1.79448,-0.42594z" fill="#afcad3" stroke="#000000" stroke-width="2"/><path d="M248.4712,162.75c0,0 0.75304,-1.54483 1.6289,-2.10571c0.40855,-0.26163 1.52495,-0.35584 1.52495,-0.35584l6.61539,4.92308c0,0 2.21346,2.04336 0.18156,3.71459c-1.40308,1.15402 -2.71576,-0.65156 -3.37888,-1.16486c-1.83041,-1.41688 -4.19102,-3.98995 -4.84324,-4.46553c-0.48903,-0.35658 -1.72866,-0.54574 -1.72866,-0.54574z" fill="#afcad3" stroke="none" stroke-width="0"/><path d="M258.51212,166.57223c-0.45813,0.47479 -1.00032,0.49768 -1.52873,0.41019c-0.83258,-0.13784 -1.74501,-0.77777 -3.11026,-2.09513c-1.11384,-1.07476 -2.26821,-1.93055 -2.76734,-2.74733c-0.23657,-0.38714 -0.62702,-1.23734 0.01814,-1.8942c0.4654,-0.47385 1.70112,-0.26843 2.2576,-0.07459c1.23692,0.43086 2.75137,1.30728 3.68771,2.21077c1.58717,1.53148 2.08954,2.30857 1.91177,3.114c-0.0722,0.3271 -0.12809,0.7231 -0.46889,1.07629z" fill="#ffffff" stroke="#000000" stroke-width="1"/></g><g><g><path d="M233.79124,176.4463c0,6.38809 -5.95864,12.36667 -12.73333,12.36667c-1.8804,0 -3.78998,-0.16312 -5.18236,-0.92069c-1.93588,-1.05329 -3.41611,-2.87122 -4.31298,-5.06759c-0.43146,-1.05661 -0.67668,-2.25204 -0.86961,-3.39512c-0.1568,-0.92901 -0.10171,-1.88607 -0.10171,-2.84992c0,-6.38809 4.15864,-12.76667 10.93334,-12.76667c2.06346,0 3.99271,-0.00541 5.68334,0.9968c1.8486,1.09586 3.41191,3.27908 4.55344,5.10523c1.24205,1.98698 2.02989,4.21642 2.02989,6.5313z" fill="#000000" stroke="#000000" stroke-width="1.5"/><path d="M232.99125,175.0463c0,4.6576 -3.65025,6.16667 -9.63334,6.16667c-5.98308,0 -11.44285,-2.4424 -11.44285,-7.1c0,-2.34575 1.21957,-4.65005 3.12371,-6.43054c1.87661,-1.75475 4.41606,-3.00279 7.38582,-3.00279c5.98308,0 10.56667,5.70906 10.56667,10.36666z" fill="#485e84" stroke="none" stroke-width="0"/><path d="M224.99125,181.61297c0,4.4551 -1.18575,5.73333 -5.03333,5.73333c-0.52363,0 -1.48266,0.00525 -2.48809,-0.61917c-1.02803,-0.63846 -2.15631,-1.69149 -3.13017,-2.73738c-0.90216,-0.96889 -1.60039,-1.9222 -2.03508,-2.76399c-0.48297,-0.9353 -0.6381,-1.62593 -0.72921,-2.27633c-0.07345,-0.52434 -0.20173,-1.02252 -0.16251,-1.60167c0.11452,-1.69103 0.53226,-3.56002 0.53226,-3.56002c0,0 1.86728,0.6851 3.52326,0.63158c0.96241,-0.0311 2.55621,-0.93969 2.55621,-0.93969c0,0 6.96667,3.67824 6.96667,8.13334z" fill="#343545" stroke="none" stroke-width="0"/><path d="M220.79124,166.41297c-0.74853,0 -1.19062,-0.08895 -1.4856,-0.30782c-0.21285,-0.15794 -0.38107,-0.38353 -0.38107,-0.69218c0,-0.73638 3.03199,-0.73085 3.11291,-0.726c0.34355,0.02059 0.45542,1.25904 0.01009,1.54659c-0.28725,0.18547 -0.89905,0.17942 -1.25634,0.17942z" fill="#8fbbbe" stroke="none" stroke-width="0"/><path d="M217.76239,166.84518c0.03422,0.13689 -0.08238,0.24939 -0.20064,0.41315c-0.1286,0.17808 -0.27133,0.4046 -0.54115,0.47205c-0.51793,0.12948 -0.79095,0.00279 -0.86239,-0.28296c-0.07144,-0.28575 0.15242,-0.48428 0.67036,-0.61377c0.51793,-0.12948 0.86239,-0.27423 0.93383,0.01153z" fill="#8fbbbe" stroke="none" stroke-width="0"/><path d="M215.24839,185.24392l-2.35714,-2.85714c0,0 -0.44169,-1.6175 -0.3486,-3.85679c0.00872,-0.2097 -0.90009,-1.44753 -1.10743,-2.3137c-0.24734,-1.03333 0.20137,-1.7191 0.24091,-1.99311c0.03375,-0.23386 1.07417,2.38563 1.12214,2.14505c0.2166,-1.08641 0.58677,-2.23257 1.18848,-3.35902c0.20478,-0.38336 0.42682,-0.81904 0.67278,-1.26802c0.09164,-0.16729 -0.58297,-1.11907 -0.81511,-1.83933c-0.21863,-0.6783 0.00365,-1.12703 0.10331,-1.28416c0.06055,-0.09547 0.49253,0.68851 0.92133,1.20408c0.30291,0.3642 0.64002,0.52289 0.68607,0.45786c0.30028,-0.424 0.63056,-0.81991 0.99713,-1.15076c0.48532,-0.43803 0.81983,-0.47311 1.30503,-0.81867c0.18801,-0.13389 0.44861,-0.42424 0.63989,-0.57249c0.06036,-0.04678 -0.29169,-0.50471 -0.5416,-1.02473c-0.3394,-0.70622 -0.4682,-1.59838 -0.38467,-1.65936c0.0754,-0.05505 0.50167,0.54087 0.9317,1.07287c0.43821,0.54211 0.88034,1.02059 0.95911,0.97297c0.14004,-0.08465 0.28179,-0.16008 0.42558,-0.22188c1.36247,-0.58558 2.84165,-0.85513 3.6372,-0.79415c0.24454,0.01874 0.48452,0.04059 0.71892,0.06509c0.37126,0.03881 -1.52995,-1.21943 -1.59233,-1.85179c-0.04606,-0.46687 1.72254,-0.36514 1.95167,-0.32336c0.1089,0.01986 0.79614,1.2206 1.32272,1.96043c0.25266,0.35497 0.52331,0.54885 0.5717,0.55892c0.67174,0.13979 1.21694,0.36542 1.58379,0.51125c1.28117,0.50929 3.02457,2.88277 3.02457,2.88277c0,0 -0.981,-0.99548 -2.58272,-1.82974c-0.51305,-0.26722 -1.17927,-0.5786 -1.84035,-0.76158c-0.19183,-0.0531 0.22204,1.07532 0.12556,1.4633c-0.08293,0.33352 -0.31638,0.21914 -0.48834,0.20065c-0.22531,-0.02423 -1.17359,-1.90029 -1.4234,-1.92054c-0.5456,-0.04423 -1.11815,-0.04633 -1.71203,0.00451c-0.45147,0.03866 -1.55803,0.30621 -2.57394,0.7373c-0.18269,0.07753 -0.36477,0.15572 -0.54271,0.23254c-0.06534,0.02821 0.23981,0.33849 0.26241,0.73012c0.02393,0.41486 -0.23431,0.91228 -0.30031,0.9409c-0.16244,0.07043 -0.35403,-0.45313 -0.59775,-0.79633c-0.20202,-0.28447 -0.46222,-0.40034 -0.56951,-0.35503c-0.25526,0.1078 -0.60733,0.12102 -0.74692,0.16881c-0.29569,0.10122 -0.45487,0.76173 -0.72018,0.91819c-0.45918,0.27079 -0.80894,0.70821 -1.19007,1.24548c-0.05113,0.07208 0.29464,0.63347 0.69079,1.01646c0.50968,0.49275 1.10276,0.8306 1.04125,0.93283c-0.10137,0.16847 -0.85946,0.22315 -1.50388,0.02383c-0.56449,-0.1746 -1.02514,-0.61057 -1.10297,-0.44662c-0.98531,2.07548 -1.55478,4.58609 -1.64379,5.4355c-0.00315,0.03009 0.21631,0.41962 0.44202,0.56366c0.46739,0.29826 1.19637,0.48328 1.67692,0.82908c0.56607,0.40734 0.45107,0.50955 0.51793,0.8928c0.02722,0.15606 -2.37164,-0.25337 -2.33955,-0.08736c0.03451,0.17848 -0.14251,0.36159 -0.10259,0.54689c0.0488,0.22652 -0.00894,0.90333 0.08827,1.34561c0.18591,0.84589 0.77315,1.5933 0.87786,2.0204c0.00663,0.02702 0.92797,0.40909 1.7679,0.62682c0.70362,0.1824 1.35011,0.20687 1.35383,0.22176c0.0165,0.06597 -0.59495,0.62324 -1.12534,0.58666c-0.67614,-0.04664 -1.59554,-0.12973 -1.59554,-0.12973z" fill="#000000" stroke="none" stroke-width="0"/><path d="M236.39125,179.01297c0,4.86011 -4.23837,8.8 -9.46667,8.8c-2.07489,0 -4.19022,0.42464 -5.82625,-0.41234c-2.48641,-1.27203 -4.24042,-4.45632 -4.24042,-7.38765c0,-1.54737 0.70583,-3.44132 1.35018,-5.26071c0.49025,-1.38428 0.79025,-2.79106 1.55091,-3.63174c0.53231,-0.58831 1.3109,-0.98622 2.02294,-1.34081c1.13348,-0.56447 2.53175,-0.76674 3.94264,-0.76674c1.76525,0 3.55444,0.51926 5.15018,1.48252c3.13051,1.88971 5.51649,5.29831 5.51649,8.51748z" fill="#000000" stroke="#000000" stroke-width="2"/><path d="M232.85791,178.51297c0,4.14213 -3.80558,7.5 -8.5,7.5c-2.65588,0 -3.56924,0.83035 -5.016,-0.70404c-1.62656,-1.7251 -1.75066,-5.46392 -1.75066,-7.26264c0,-4.14213 4.27224,-8.56666 8.96667,-8.56666c4.69442,0 6.3,4.8912 6.3,9.03334z" fill="#485e84" stroke="none" stroke-width="0"/><path d="M223.52458,172.5463c0,0 -1.6559,-0.49583 -2.15319,-0.98128c-0.42446,-0.41436 2.21985,-1.41871 2.21985,-1.41871l1.73334,1.93333z" fill="#8fbbbe" stroke="none" stroke-width="0"/><path d="M234.59125,177.87963c0,3.38735 -3.58172,6.13334 -8,6.13334c-4.41828,0 -6.73334,-1.81266 -6.73334,-5.2c0,-2.35079 1.50274,-4.96818 3.85841,-6.39074c1.03871,-0.62726 2.18955,-1.07593 3.54159,-1.07593c4.41828,0 7.33334,3.14599 7.33334,6.53333z" fill="#485e84" stroke="#000000" stroke-width="2"/></g><g><path d="M223.85791,190.5463c0,0 -1.32403,-0.11357 -2.33687,-0.66376c-1.68377,-0.91465 -1.75109,-2.70809 -1.31491,-4.63603c0.14162,-0.62595 1.3825,-0.81671 1.49151,-1.44404c0.32832,-1.88933 -1.50119,-3.16174 -0.34,-4.92377c0.29404,-0.44618 0.78704,-0.50347 1.19222,-0.85643c0.73191,-0.63758 1.94566,-0.88556 2.85591,-1.38269c1.23881,-0.67657 2.19957,-1.85402 3.24984,-2.73138c1.79573,-1.50009 3.2879,-3.20201 4.63393,-4.66835c2.39609,-2.61025 4.08814,-4.71497 4.48846,-5.32244c0.22776,-0.34561 1.07482,-0.61394 1.61668,-0.64581c1.57005,-0.09235 4.74686,-0.39033 5.66015,-0.44406c0.48065,-0.02828 1.24455,0.30888 1.6296,0.7707c0.39389,0.47241 1.04913,1.04827 1.63871,1.89444c0.47815,0.68624 1.06088,1.36511 1.49416,2.17458c0.87752,1.63942 1.48667,3.4699 1.78534,4.5692c0.49452,1.82009 0.86914,5.05634 -1.54886,6.99683c-1.6033,1.28668 -3.23025,1.88785 -4.22007,3.81036c-1.32002,2.56388 -0.44248,7.39155 -0.44248,7.39155c0,0 0.58804,1.71119 -0.31418,3.50942c-0.24122,0.48077 -0.48579,1.07093 -0.9999,1.51298c-0.61486,0.52867 -2.30984,1.97612 -3.36454,2.26772c-0.73048,0.20196 -1.29957,-0.42592 -1.7698,-0.46784c-1.01568,-0.09055 -1.45901,-0.00211 -2.18222,-0.01485c-0.71249,-0.01255 -0.93239,-0.33725 -1.2067,-0.73213c-0.43891,-0.63181 -0.67049,-1.44328 -0.67049,-1.44328c0,0 -0.56587,0.45888 -1.20954,0.76816c-0.38589,0.18542 -0.88515,0.27436 -1.06851,0.29779c-0.48074,0.06142 -0.99974,-0.0855 -1.41491,-0.25155c-1.59579,-0.63825 -2.57578,-2.47735 -2.57578,-2.47735c0,0 -0.99725,0.2288 -1.89057,0.22354c-0.50655,-0.00298 -0.9797,-0.23199 -1.21863,-0.24594c-1.45621,-0.08504 -1.64756,-2.83555 -1.64756,-2.83555z" fill="#ffc6ef" stroke="#000000" stroke-width="1.5"/><path d="M220.25791,185.61297c0,0 3.66569,-0.30686 4.62455,-1.59898c0.15685,-0.21137 0.1435,0.86628 1.05246,0.88522c1.97352,0.04113 3.5542,-0.41888 3.56082,-0.45249c0.0634,-0.32156 -1.0249,-1.96943 -1.09,-2.28982c-0.06875,-0.33836 -2.68188,-0.26617 -2.77437,-0.57583c-0.12416,-0.41566 -0.2712,-0.79863 -0.44518,-1.1305c-0.49597,-0.94608 -2.04459,-0.0046 -2.9256,0.11547c-0.53048,0.07229 -0.64893,-0.62068 -0.62957,-0.88347c0.04676,-0.63459 5.56022,-3.53626 5.56022,-3.53626c0,0 0.65539,0.723 1.57328,0.65319c0.42754,-0.03251 1.07161,-0.29283 1.62841,-0.6909c0.48775,-0.3487 0.87512,-0.83653 1.19942,-1.16141c0.30153,-0.30208 0.55757,-0.45425 0.55757,-0.45425c0,0 -0.93281,1.32712 -1.44407,2.14984c-0.64223,1.03347 -2.10679,3.56415 -2.10679,3.56415l-0.1241,1.18892c0,0 1.96879,0.31011 2.58611,0.04879c0.33366,-0.14125 1.11064,-0.60528 1.78274,-1.11683c0.36836,-0.28036 0.76286,-0.19745 1.16003,-0.52699c0.63332,-0.52547 1.18785,-1.18713 1.71608,-1.72458c0.87322,-0.88845 1.55908,-1.553 1.55908,-1.553c0,0 -0.27596,0.60851 -0.5727,1.14634c-0.50619,0.91746 -2.25455,2.9238 -2.25455,2.9238c0,0 -0.14966,2.91233 0.38243,3.2417c0.31125,0.19267 0.71606,0.24096 1.07613,0.28768c0.51133,0.06635 1.06689,0.12845 1.65248,-0.05319c0.43545,-0.13507 1.05881,-0.3718 1.38792,-0.76821c0.77156,-0.92932 0.92494,-2.43642 2.05307,-3.41728c0.82952,-0.72124 1.62527,-1.14516 2.47728,-1.39069c1.41517,-0.40783 2.86833,-0.44078 4.02781,-1.38816c1.62207,-1.32534 3.08235,-5.29225 3.08235,-5.29225c0,0 0.24384,0.47984 0.4639,1.60054c0.13578,0.69151 0.3515,1.90316 -0.1683,3.36675c-0.12489,0.35163 -0.3769,0.83574 -0.78145,1.28198c-0.32507,0.35858 -0.77225,0.66908 -1.15221,1.04565c-0.35755,0.35437 -1.05602,0.58658 -1.19961,0.95714c-0.81603,2.10588 -1.79365,7.30586 -2.60111,9.09385c-0.13822,0.30606 -0.21247,3.13649 -0.35605,3.89003c-0.11868,0.62283 -0.57806,0.89521 -0.88268,1.37512c-0.87713,1.38186 -2.36084,2.10783 -3.35957,2.52826c-0.71944,0.30285 -0.65496,-0.32566 -1.19098,-0.39805c-1.0152,-0.13711 -2.20464,-0.16497 -2.69001,-0.02263c-0.49097,0.14398 -0.65966,-0.76116 -0.96104,-1.31746c-0.18169,-0.33537 -0.45405,-0.59241 -0.75422,-0.52325c-0.84073,0.19371 -1.61607,0.62367 -2.4491,0.74731c-0.7643,0.11344 -1.5621,-0.53353 -1.96419,-0.9014c-0.76093,-0.69617 -1.05973,-1.69199 -1.6021,-1.63103c-1.14793,0.12903 -2.23175,0.54756 -3.21417,0.575c-0.7808,0.02182 -1.2993,-3.03288 -1.93707,-3.03278c-1.10548,0.00018 -2.29452,-0.55696 -2.80252,-0.61189c-1.08032,-0.11679 -0.73083,-4.22315 -0.73083,-4.22315z" fill="#d396fc" stroke="none" stroke-width="0"/><path d="M231.12729,175.13083c-0.07323,-0.08465 -0.14208,-0.28645 -0.05943,-0.44146c0.07914,-0.14841 0.30271,-0.24839 0.5495,-0.40641c0.53413,-0.34199 1.53988,-0.593 2.42368,-1.19717c0.20845,-0.14249 0.51164,-0.62196 0.86377,-1.0113c0.31752,-0.35108 0.62062,-0.61641 0.77793,-0.71392c0.64087,-0.39724 1.1503,-0.52712 1.1503,-0.52712c0,0 -0.29182,0.40012 -0.9916,1.09662c-0.25924,0.25803 -0.63453,0.50937 -0.96358,0.8363c-0.27647,0.27469 -0.47269,0.58368 -0.74113,0.86037c-0.1457,0.15018 -0.3597,0.29085 -0.51174,0.41135c-0.55345,0.43866 -1.02795,0.62401 -1.47478,0.87351c-0.50096,0.27973 -0.83141,0.44063 -1.02292,0.21922z" fill="#000000" stroke="none" stroke-width="0"/><path d="M236.30189,177.10459c-0.15529,-0.16785 0.24124,-0.79116 0.95226,-1.49471c0.47897,-0.47394 1.2704,-0.88121 1.86099,-1.41452c0.86796,-0.78379 1.30894,-1.50593 2.05267,-2.14307c0.46022,-0.39426 0.95281,-0.81297 1.33674,-1.0702c0.4033,-0.27021 0.68669,-0.36912 0.68669,-0.36912c0,0 -0.67147,0.7222 -1.51257,1.69358c-1.01331,1.17027 -2.30292,2.70221 -3.3578,3.7687c-0.43699,0.4418 -0.75902,0.86698 -1.05514,1.08185c-0.26298,0.19082 -0.90707,0.00885 -0.96384,-0.0525z" fill="#000000" stroke="none" stroke-width="0"/><path d="M222.05384,185.60741c-0.21075,0.15467 -0.67392,0.23063 -0.96981,0.45907c-0.32704,0.25249 -0.34596,0.39504 -0.38344,0.64642c-0.06275,0.42085 0.2985,1.19284 0.44794,1.33681c0.79207,0.76309 2.21133,1.93639 2.23977,2.00251c0.26943,0.62644 0.66217,1.17893 0.66217,1.17893c0,0 -2.1038,0.09045 -2.82308,-0.28705c-0.66611,-0.34959 -1.67487,-1.99398 -1.82741,-2.58281c-0.10983,-0.42395 0.57739,0.21301 0.49504,-0.14147c-0.38467,-1.65571 -0.39245,-3.38411 -0.40842,-3.52624c-0.01528,-0.13592 -0.37894,-0.78412 -0.56054,-1.54765c-0.24289,-1.0212 -0.31784,-2.24869 -0.31273,-2.73275c0.00572,-0.54074 0.01993,-1.19519 0.1342,-1.82041c0.21265,-1.16351 0.60758,-2.2258 0.78215,-2.26568c0.15102,-0.0345 0.65373,0.65777 0.9056,1.1638c0.12353,0.24819 1.93218,-1.21413 3.63647,-2.04647c1.63536,-0.79868 4.36935,-1.36975 4.4721,-1.10563c0.1745,0.44854 -5.0736,2.75137 -6.91484,4.12477c-0.89715,0.6692 -0.30442,1.54939 -0.30442,1.54939c0,0 0.86438,0.14451 1.27807,-0.04128c0.5873,-0.26376 0.95353,-0.90002 1.74783,-1.3053c0.32767,-0.16718 0.66487,-0.24097 0.9825,-0.35259c0.29223,-0.10268 0.56789,-0.25646 0.80437,-0.31991c0.41273,-0.11074 0.77273,-0.21606 0.82629,-0.1396c0.11982,0.17106 -0.02163,0.73405 -0.50924,1.28892c-0.19904,0.22649 -0.41045,0.40622 -0.71819,0.51732c-0.37793,0.13645 -0.80059,0.26994 -1.17657,0.60695c-0.18096,0.16221 -0.63035,0.46249 -0.81242,0.63133c-0.49778,0.4616 -0.8188,0.89415 -1.11275,1.29704c-0.02334,0.03198 -0.22995,0.39369 -0.23484,0.81874c-0.00717,0.62413 0.1894,1.38485 0.14226,1.43885c-0.46397,0.53134 0.0105,0.78809 -0.48804,1.15397z" fill="#000000" stroke="none" stroke-width="0"/><path d="M227.85792,192.87963c0,0 -0.34562,-1.04799 -0.86862,-2.06367c-0.48798,-0.94767 -1.94016,-2.68216 -2.80164,-4.20951c-0.63474,-1.12535 -0.86308,-2.19348 -0.86308,-2.19348c0,0 -0.26218,-1.09206 0.17424,-1.55399c0.22514,-0.2383 0.35066,-0.52257 0.63304,-0.72774c1.11082,-0.8071 2.65235,-1.35523 3.87102,-2.28198c0.18276,-0.13898 0.52719,-1.07812 1.04328,-1.58424c0.53204,-0.52176 1.23396,-0.60843 1.27843,-0.58539c0.04771,0.02472 -0.20453,0.67158 -0.59103,1.3749c-0.12563,0.22861 -0.41343,0.83137 -0.68683,1.33297c-0.12005,0.22026 -0.11091,1.08444 -0.25345,1.21155c-0.20183,0.17998 -0.42033,0.60676 -0.9121,0.85718c-0.7028,0.35788 -1.75525,0.56401 -2.33884,0.95078c-0.39847,0.26408 -0.6716,0.74277 -0.68617,0.84663c-0.02015,0.14361 0.01459,0.55839 0.0912,0.71424c0.33161,0.67466 1.51441,1.42752 2.35852,2.65362c1.14321,1.66056 1.56467,2.72152 1.8336,3.70245c0.06934,0.25294 0.06177,0.6336 0.11131,0.8616c0.14381,0.66184 0.20714,1.56076 0.20714,1.56076c0,0 -1.5044,0.58641 -3.06655,0.578c-0.74534,-0.00401 -1.86426,-0.28272 -2.16491,-0.50651c-0.81025,-0.6031 -1.09394,-2.21102 -1.03918,-3.1462c0.02506,-0.42781 -0.03722,-0.66211 0.23349,-0.68842c0.06284,-0.00611 -0.42212,-1.5859 -1.0674,-2.81702c-0.5931,-1.13156 -1.35266,-1.91685 -1.26721,-2.0475c0.0366,-0.05596 0.14491,-2.49024 0.83809,-2.5148c0.49753,-0.01763 1.55494,2.24048 1.90087,2.70044c0.41253,0.54851 0.64984,3.00645 0.66538,3.42942c0.02437,0.6635 0.3267,1.62898 0.43026,1.88083c0.33982,0.8264 0.77372,1.72532 1.17549,2.07921c0.35448,0.31223 0.75741,0.24233 1.08836,0.22019c0.38546,-0.02579 0.67329,-0.0343 0.67329,-0.0343z" fill="#000000" stroke="none" stroke-width="0"/><path d="M232.72458,184.7463c0,0 0.36886,0.09202 0.95883,0.33911c0.34769,0.14562 0.88234,0.32194 1.27976,0.51459c0.64234,0.31136 1.14734,0.76773 1.56726,1.07154c0.45142,0.32659 0.79415,0.49765 0.79415,0.74143c0,0.21012 -0.7239,0.58413 -1.93753,0.6368c-0.60709,0.02635 -2.32466,-0.02472 -3.46153,-0.06405c-0.62022,-0.02146 -1.40094,-0.43942 -1.40094,-0.43942c0,0 -0.44474,-0.21253 -0.20745,-0.62165c0.35693,-0.61541 2.40744,-2.17835 2.40744,-2.17835z" fill="#ffc6ef" stroke="none" stroke-width="0"/><path d="M232.05789,196.3463c0,0 0.94877,-0.33526 1.49247,-0.91296c0.26556,-0.28217 0.48525,-0.62218 0.35244,-1.00921c-0.2515,-0.73291 -0.66163,-1.88942 -1.23244,-2.54656c-0.51932,-0.59787 -0.91646,-0.70201 -1.49256,-1.25355c-0.68552,-0.65629 -1.34124,-1.2853 -1.8006,-1.90018c-0.59053,-0.79047 -0.58091,-1.71432 -0.33754,-2.35925c0.28321,-0.7505 1.40689,-0.99502 2.12367,-1.83253c0.57368,-0.6703 1.21152,-1.39745 1.67049,-2.09088c0.59316,-0.89616 0.97693,-1.73601 1.46892,-2.324c0.06096,-0.07285 1.10894,-1.13948 1.28692,-0.63721c0.00865,0.02441 -0.96166,0.96745 -1.14486,1.86367c-0.11958,0.58496 -0.20252,1.14439 -0.25909,1.75405c-0.04469,0.48172 -0.0895,0.92813 -0.40436,1.50995c-0.53798,0.99412 -2.96701,2.49107 -2.91974,2.86306c0.12052,0.94849 2.72573,1.83183 3.1898,2.74443c0.45194,0.88877 0.82222,1.74205 1.12855,2.52389c0.39637,1.01165 0.48567,1.90371 0.70633,2.59825c0.30491,0.95973 0.70493,1.54236 0.70493,1.54236c0,0 -1.19939,-0.74111 -1.87986,-0.82116c-0.80847,-0.09511 -2.65347,0.28782 -2.65347,0.28782z" fill="#000000" stroke="none" stroke-width="0"/><path d="M239.92457,191.41297c-0.1211,-0.15016 0.1216,-0.62203 0.51565,-1.52c0.14358,-0.32719 0.48069,-0.82659 0.58173,-1.22367c0.10876,-0.42741 0.36111,-0.79784 0.33363,-1.32112c-0.02921,-0.5562 -0.53996,-1.25912 -0.46696,-1.4804c0.08561,-0.2595 0.67203,-0.34997 0.92706,-0.51865c0.31958,-0.21137 0.97555,-0.80283 0.97555,-0.80283c0,0 1.86279,-2.80499 4.36044,-4.53923c1.15392,-0.80122 3.09109,-1.14256 3.88097,-1.28806c0.14036,-0.02586 0.03929,4.07206 0.03603,4.1225c-0.02562,0.39695 -8.43906,3.6581 -8.37452,4.01976c0.11234,0.62944 0.67091,0.78314 0.66105,1.08385c-0.01321,0.40293 -0.6973,0.66785 -0.6973,0.66785c0,0 -0.48463,0.84369 -1.22749,1.64617c-0.5668,0.61229 -1.4232,1.2563 -1.50584,1.15383z" fill="#000000" stroke="none" stroke-width="0"/><path d="M242.55558,186.3349c0.45885,-1.43476 1.2636,-2.45173 1.67069,-3.17709c0.56794,-1.01197 2.34592,-1.9075 3.18492,-2.28631c0.2731,-0.1233 0.61758,-0.14888 0.90966,-0.0254c0.36839,0.15574 0.9296,0.43955 1.58398,0.92671c1.38469,1.03083 3.16038,2.92214 4.03051,3.65278c0.83745,0.70319 1.87781,1.84156 2.37099,2.3962c0.17814,0.20034 0.21292,0.53654 0.09518,0.86158c-0.27783,0.76701 -0.81054,2.16334 -1.25388,2.88804c-0.31888,0.52125 -1.09067,1.32388 -1.58347,1.81399c-0.25805,0.25663 -0.65733,0.42691 -1.03824,0.40444c-1.44825,-0.08542 -5.25538,-0.48586 -8.42251,-2.36196c-0.74438,-0.44095 -0.30307,-1.50025 -0.52215,-2.34565c-0.30202,-1.1654 -1.2121,-2.16442 -1.02569,-2.74732z" fill="#485e84" stroke="#000000" stroke-width="2"/><path d="M256.337,189.37532c-0.5138,0.74025 -1.52739,2.2004 -2.15923,3.10965c-0.27228,0.39182 -0.71856,0.86133 -1.1532,0.86133c-0.82232,0 -1.64244,0.1586 -2.2271,-0.20989c-0.17566,-0.11071 -0.09695,-0.02285 -0.1738,-0.24493c-0.24573,-0.71009 -0.10381,-2.2625 0.23423,-3.04518c0.86667,-2.00663 1.37398,-2.7 3.23334,-2.7c1.22412,0 1.94891,0.76573 2.30126,1.28894c0.18285,0.27151 0.1418,0.65582 -0.0555,0.94008z" fill="#343545" stroke="#000000" stroke-width="1"/></g></g></g></g></svg>