<svg version="1.1" xmlns="http://www.w3.org/2000/svg" xmlns:xlink="http://www.w3.org/1999/xlink" width="194.79701" height="316.29668" viewBox="0,0,194.79701,316.29668"><g transform="translate(-211.19266,-44.69072)"><g data-paper-data="{&quot;isPaintingLayer&quot;:true}" fill-rule="nonzero" stroke-linejoin="miter" stroke-miterlimit="10" stroke-dasharray="" stroke-dashoffset="0" style="mix-blend-mode: normal"><g stroke="#000000" stroke-linecap="butt"><path d="M285.48498,249.85166c-29.55998,15.41188 -56.55556,22.08941 -60.29632,14.91467c-3.74076,-7.17477 17.18989,-25.48486 46.74986,-40.89675c29.55998,-15.41188 56.55556,-22.08941 60.29632,-14.91467c3.74076,7.17477 -17.18989,25.48486 -46.74987,40.89675z" fill="#0d69be" stroke-width="2"/><path d="M250.53629,283.06348c-12.68789,6.61518 -28.47412,1.42756 -35.25956,-11.58686c-6.78542,-13.01441 -2.00054,-28.92735 10.68738,-35.54253c12.6879,-6.61517 28.47412,-1.42756 35.25956,11.58686c6.78542,13.01442 2.00051,28.92736 -10.68738,35.54253z" fill="#faddbf" stroke-width="2"/><path d="M242.513,242.43251c-12.6879,6.61517 -19.50787,42.01242 -26.29328,28.99799c-6.78542,-13.01441 -2.00053,-28.92735 10.68738,-35.54253c12.6879,-6.61517 28.2938,-0.07064 15.60591,6.54453z" fill="#ef8b89" stroke-width="0"/></g><g stroke="#000000" stroke-linecap="butt"><path d="M307.76518,340.83536v-95.29492h29.49199v95.29492z" fill="#73fffc" stroke-width="2"/><path d="M307.43943,340.21742l1.32626,-93.78573c0,0 5.20288,68.11227 6.3799,77.52842c0.2602,2.08162 2.52228,2.78987 2.52228,2.78987l18.60659,13.13896z" fill="#59a9e6" stroke-width="0"/></g><g stroke="#000000" stroke-linecap="butt"><path d="M268.4238,338.41282v-95.29492h29.49199v95.29492z" fill="#73fffc" stroke-width="2"/><path d="M268.09805,337.7949l1.32626,-93.78573c0,0 5.20288,68.11227 6.3799,77.52842c0.2602,2.08162 2.52228,2.78987 2.52228,2.78987l18.60659,13.13896z" fill="#59a9e6" stroke-width="0"/></g><g stroke="#000000" stroke-linecap="butt"><path d="M335.22917,235.69587c0,13.80271 10.04743,36.74388 4.95001,46.45977c-6.2338,11.88187 -28.61241,9.09579 -38.9397,9.09579c-13.66287,0 -32.94407,4.17018 -38.34426,-14.83216c-2.01935,-7.10576 4.35457,-32.37264 4.35457,-40.7234c0,-30.68249 15.2177,-55.55556 33.98969,-55.55556c18.77199,0 33.98969,24.87307 33.98969,55.55556z" fill="#0d69be" stroke-width="2"/><path d="M283.96554,251.27245c0,13.80271 62.04198,20.54886 56.94455,30.26474c-6.2338,11.88186 -28.61241,9.09579 -38.9397,9.09579c-13.66287,0 -32.94406,4.17018 -38.34425,-14.83215c-2.01936,-7.10576 4.35457,-32.37265 4.35457,-40.7234c0,-9.45244 3.34855,-28.59801 5.51953,-29.96813c5.94391,-16.76415 10.4653,25.13995 10.4653,46.16315z" fill="#10157d" stroke-width="0"/></g><g stroke-linecap="butt"><g stroke="#000000"><g><path d="M237.17144,107.99985c13.80214,-44.70882 61.23465,-69.76364 105.94347,-55.96151c44.70882,13.80214 69.76364,61.23465 55.96151,105.94347c-13.80214,44.70882 -61.23465,69.76364 -105.94347,55.96151c-44.70882,-13.80214 -69.76364,-61.23465 -55.96151,-105.94347z" fill="#faddbf" stroke-width="2"/><path d="M237.64843,107.2371c4.44064,-14.38444 20.36936,-36.63268 25.62588,-38.37378c0.6003,-0.19884 8.15727,-6.80697 17.32437,-11.00628c11.39407,-5.21946 24.8371,-8.1947 25.36256,-7.82624c6.85577,4.80719 -35.87731,56.79929 -42.15343,81.32938c-0.01497,0.0585 -1.60014,20.12504 -0.18315,21.02184c1.3582,5.3826 3.05575,20.98864 11.34673,31.02079c15.45121,18.6961 40.95903,33.24111 39.39256,33.2868c-2.50578,0.07309 -14.96086,-1.72062 -20.754,-3.50903c-44.70882,-13.80214 -69.76364,-61.23465 -55.96151,-105.94347z" fill="#ef8b89" stroke-width="0"/><path d="M398.71143,157.3896c-3.4289,11.10711 -6.12129,14.47934 -6.10256,12.54717c0.0191,-1.97117 2.7164,-9.43203 -4.31906,-16.66477c-1.70483,-1.75264 -11.60339,2.9862 -13.84737,1.00813c-1.40947,-1.24246 -5.26564,-12.27495 -6.89475,-13.48539c-1.13905,-0.84632 -14.36732,4.33233 -15.57165,3.4889c-3.00367,-2.10355 -8.10016,-14.4038 -11.49036,-16.13905c-1.86688,-0.95555 -12.36515,8.58431 -14.30545,7.71965c-2.50226,-1.11509 -6.06072,-14.50144 -8.67631,-15.3089c-6.95593,-2.14738 -9.21498,4.49249 -15.99143,8.68643c-4.4035,2.72533 -9.51602,-16.59738 -13.80911,-13.28097c-5.33152,4.11858 -10.56738,8.05919 -15.68151,10.24765c-4.01222,1.71694 -9.79119,-13.58971 -13.31139,-11.93675c-16.99651,7.98091 -27.32408,13.16978 -21.96384,-4.1935c10.77845,-34.91429 43.78433,4.92077 90.05634,-3.31847c44.29111,-7.88651 82.68691,15.71557 71.90846,50.62986z" fill="#ef8b89" stroke-width="0"/></g><path d="M402.62856,149.90096c-6.92701,22.43844 3.67027,10.25421 -10.70282,-4.20441c-1.75885,-1.76931 -11.86027,2.9069 -14.1729,0.90764c-1.45259,-1.25577 -5.48339,-12.34217 -7.16068,-13.56748c-1.17273,-0.85672 -14.68068,4.23559 -15.92023,3.38129c-3.09152,-2.13067 -8.40189,-14.49695 -11.8865,-16.26134c-1.91887,-0.9716 -12.59878,8.51219 -14.59217,7.63114c-2.57072,-1.13622 -6.31414,-14.57967 -8.99862,-15.4084c-7.13916,-2.20394 -9.40323,4.43438 -16.31151,8.58762c-4.48917,2.69888 -9.86808,-16.70606 -14.2398,-13.41393c-5.42915,4.08844 -10.76168,7.9992 -15.98254,10.15472c-4.09596,1.69109 -10.12755,-13.69355 -13.72013,-12.06294c-17.346,7.87302 -27.88343,12.9971 -22.52318,-4.36617c10.77845,-34.91429 62.05776,-65.88292 105.94108,-52.33563c43.88331,13.54729 71.04848,66.04362 60.27003,100.95791z" fill="#873412" stroke-width="2"/><path d="M402.73484,148.71684c-6.92701,22.43844 3.67027,10.25421 -10.70282,-4.20441c-1.75885,-1.76931 -11.86027,2.9069 -14.1729,0.90764c-1.45259,-1.25577 -5.48339,-12.34217 -7.16069,-13.56749c-1.17273,-0.85672 -14.68068,4.23559 -15.92023,3.38129c-3.09152,-2.13067 -8.40189,-14.49695 -11.8865,-16.26134c-1.91887,-0.9716 -12.59878,8.51219 -14.59217,7.63114c-2.57072,-1.13622 -6.31414,-14.57967 -8.99862,-15.4084c-7.13916,-2.20394 -9.40323,4.43438 -16.31151,8.58762c-4.48917,2.69888 -9.86808,-16.70606 -14.2398,-13.41393c-5.42915,4.08844 -10.76168,7.9992 -15.98255,10.15471c-4.09596,1.69109 -10.12755,-13.69355 -13.72013,-12.06294c-17.346,7.87302 -27.88343,12.9971 -22.52318,-4.36617c10.77845,-34.91429 44.87381,5.2571 92.19745,-2.65748c45.2977,-7.57576 84.79211,16.36547 74.01366,51.27976z" fill="#741d23" stroke-width="0"/></g><path d="M341.5679,59.56302c0.02804,0.12967 0.03995,0.27302 0.03878,0.42635c0.01357,0.27541 -0.01857,0.55764 -0.10172,0.83656c-0.2313,1.11783 -0.7843,2.38827 -0.88643,2.87175c-0.13417,0.63521 1.35779,-0.36296 1.9457,-0.08756c0.36013,0.1687 0.53074,0.96094 0.89127,0.7931c2.18795,-1.01858 4.56353,-3.27855 6.71671,-0.91502c0.7131,0.78275 0.08849,2.00603 0.42604,2.82685c0.02838,0.069 2.53341,0.63913 2.94532,1.32404c0.70976,1.18015 -0.35924,2.24584 -0.15226,3.34861c0.06623,0.35288 0.67938,-0.25311 1.03599,-0.29472c1.58711,-0.18515 4.41126,-0.7382 5.7908,0.73606c0.7269,0.77681 0.07891,2.26354 0.43292,2.83531c0.62063,1.00237 2.25018,-0.734 3.41324,-0.92693c1.60859,-0.26684 2.09683,0.61735 3.02442,1.83111c0.15999,0.20935 -0.76699,4.08767 -0.05533,5.51901c0.40002,0.80456 1.83136,-0.3333 2.69428,-0.08287c0.86097,0.24987 2.80798,0.09498 3.18052,0.31843c0.74727,0.44821 1.01768,2.03143 1.86572,1.8311c4.32978,-1.02282 8.59481,1.81006 5.56957,6.06723c-0.38285,0.53876 1.43238,-0.15845 1.96985,0.22621c0.20837,0.14912 1.20669,1.5047 1.44915,1.48954c1.58587,-0.09915 2.69483,-0.50728 4.21633,-0.04163c1.26358,0.38672 2.25625,1.47169 2.14215,2.88122c-0.05996,0.74077 -1.57927,1.73446 -0.90144,2.03922c1.59774,0.71839 3.9883,2.21552 2.50188,4.4123c-1.61353,2.38464 -4.51716,3.98864 -6.35868,1.23179c-0.63892,-0.95648 -2.56829,0.50765 -3.44241,-0.24002c-1.11982,-0.95781 -1.08308,-3.3415 -0.6677,-4.44466c0.19202,-0.50996 -1.13584,0.04076 -1.62174,-0.20592c-0.65419,-0.33211 -0.65983,-1.47567 -1.34266,-1.74403c-1.52734,-0.60025 -2.26178,2.72002 -5.74338,0.82202c-1.02764,-0.56021 -1.76071,-2.82611 -1.79949,-3.98715c-0.02251,-0.67396 2.1639,-2.10493 2.04402,-2.25244c-0.29108,-0.35817 -2.69323,2.12766 -3.14263,2.1377c-1.08113,0.02414 -1.94039,-0.99644 -2.76701,-1.69367c-0.73032,-0.61601 -1.65949,1.46564 -2.58663,1.23488c-0.81909,-0.20386 -8.79491,-3.22006 -8.96694,-3.79958c-0.20974,-0.70653 -0.27645,-1.88649 0.08358,-2.51807c0.12939,-0.22698 1.47555,-1.47145 1.29611,-1.50576c-0.63681,-0.12177 -5.01642,2.05125 -6.12942,-1.69797c-0.60524,-2.0388 1.99045,-3.15157 2.47263,-4.70249c0.29777,-0.95777 -1.55377,1.27378 -2.26392,1.98208c-0.54545,0.54403 -1.75617,0.82393 -2.50356,0.61935c-2.58406,-0.70733 -1.1217,-2.93632 -1.21205,-4.54912c-0.0417,-0.7443 -1.68314,0.10328 -2.19249,-0.44104c-1.24536,-1.33086 -0.67676,-2.37406 -0.35639,-3.87868c0.14669,-0.68894 -1.32519,2.4325 -2.94575,2.10651c-0.65722,-0.13221 -1.36737,-1.41359 -1.79844,-0.90017c-2.09871,2.49959 -1.78249,3.86575 -5.26773,2.28634c-0.33632,-0.15241 -1.16892,0.47185 -1.47815,0.14138c-3.42256,-3.65755 1.51753,-7.83229 2.81642,-11.62605c0.45818,-1.33822 0.19718,-3.63099 1.57765,-3.93928c0.63288,-0.57578 1.5451,-0.8115 2.42184,-0.54084c0.77737,0.23998 1.35338,0.82453 1.6121,1.53415c0.04849,0.09552 0.08586,0.19687 0.10934,0.30549z" fill="#ba587e" stroke="none" stroke-width="0.5"/></g><g stroke="#000000" stroke-linecap="butt"><path d="M338.01678,172.79981c-8.42419,27.2882 -25.35171,37.47897 -41.18303,32.59166c-15.83132,-4.88731 -24.57145,-23.00199 -16.14726,-50.29019c8.42419,-27.2882 28.08717,-45.44771 43.91849,-40.56039c15.83132,4.88731 21.83599,30.97072 13.4118,58.25893z" fill="#f0f0f0" stroke-width="2"/><path d="M299.11778,140.29695c-12.43918,25.70758 14.39992,69.37613 -1.4314,64.48881c-15.83132,-4.88731 -24.57145,-23.00199 -16.14726,-50.29019c8.42419,-27.2882 35.56204,-51.36419 17.57866,-14.19862z" fill="#9a99ff" stroke-width="0"/></g><path d="M331.86703,179.51796c-4.66717,15.1182 -12.93093,25.99081 -18.45762,24.28465c-5.5267,-1.70616 -6.22349,-15.345 -1.55632,-30.46319c4.66717,-15.1182 12.93093,-25.99081 18.45762,-24.28465c5.5267,1.70616 6.22349,15.345 1.55632,30.46319z" fill="#000000" stroke="none" stroke-width="0" stroke-linecap="butt"/><g stroke="#000000" stroke-linecap="butt"><path d="M342.08986,142.62393c1.24349,11.09006 -0.78344,34.16212 -15.79467,29.52797c-15.01123,-4.63414 -37.44097,-36.0409 -30.26213,-43.88768c6.83056,-7.46609 12.80569,-18.46307 27.81692,-13.82893c15.01123,4.63414 17.05481,17.61965 18.23987,28.18862z" fill="#a100fe" stroke-width="2"/><path d="M341.31121,142.01282c1.0982,11.04521 -0.54773,33.73805 -15.04712,29.26192c-14.49938,-4.47613 -36.46867,-35.24391 -29.4379,-43.1364c6.68967,-7.50958 5.98264,2.85374 20.48203,7.32987c14.49938,4.47613 22.95638,-3.98163 24.00298,6.5446z" fill="#99008e" stroke-width="0"/></g><g data-paper-data="{&quot;index&quot;:null}" stroke="#000000" stroke-linecap="butt"><path d="M385.8021,132.34756c15.83132,4.88731 21.83599,30.97072 13.4118,58.25893c-8.42419,27.28819 -25.85461,37.32372 -41.68593,32.4364c-15.83132,-4.88731 -24.06855,-22.84673 -15.64436,-50.13494c8.42419,-27.2882 28.08717,-45.44771 43.91849,-40.56039z" fill="#f0f0f0" stroke-width="2"/><path d="M398.8511,189.62554c-8.42419,27.28819 -25.85461,37.32372 -41.68593,32.4364c-15.83132,-4.88731 30.95322,-25.82738 35.17011,-54.07328c6.09638,-40.83522 14.94001,-5.65133 6.51582,21.63688z" fill="#9a99ff" stroke-width="0"/></g><path d="M389.36504,166.64427c5.5267,1.70616 6.22349,15.345 1.55632,30.46319c-4.66717,15.1182 -12.93093,25.99081 -18.45762,24.28465c-5.5267,-1.70616 -6.22349,-15.345 -1.55632,-30.46319c4.66717,-15.1182 12.93093,-25.99081 18.45762,-24.28465z" data-paper-data="{&quot;index&quot;:null}" fill="#000000" stroke="none" stroke-width="0" stroke-linecap="butt"/><g data-paper-data="{&quot;index&quot;:null}" stroke="#000000" stroke-linecap="butt"><path d="M355.52954,145.68727c6.93658,-8.06173 15.94448,-17.63551 30.95571,-13.00137c15.01123,4.63414 13.74754,17.08561 15.1808,27.10283c1.50633,10.528 -33.52017,23.94892 -48.5314,19.31478c-15.01123,-4.63414 -4.8837,-24.95703 2.39488,-33.41623z" fill="#a100fe" stroke-width="2"/><path d="M356.51718,145.62143c6.79811,-8.10447 9.01577,3.64868 23.51515,8.12481c14.49938,4.47613 19.75721,-4.48231 21.04958,5.49142c1.35826,10.48228 -33.08451,23.33817 -47.5839,18.86204c-14.49938,-4.47613 -4.11413,-23.97422 3.01915,-32.47827z" fill="#99008e" stroke-width="0"/></g><path d="M371.63632,338.87004c0,11.6628 -14.51982,21.11737 -32.43092,21.11737c-17.9111,0 -32.43092,-9.45457 -32.43092,-21.11737c0,-2.33142 -0.03339,-13.76009 1.08979,-15.13837c4.49546,-5.51647 17.81784,5.26144 32.14847,5.26144c17.9111,0 31.62358,-1.78588 31.62358,9.87692z" fill="#000082" stroke="#000000" stroke-width="2" stroke-linecap="butt"/><path d="M369.75004,336.13774c0,6.30841 -13.89058,10.1901 -31.80169,10.1901c-17.9111,0 -30.16566,-2.95748 -30.16566,-9.26589c0,-1.26107 -0.03338,-12.52602 1.0898,-13.27153c4.49546,-2.98386 15.55258,5.7726 29.88321,5.7726c17.9111,0 30.99434,0.26631 30.99434,6.57472z" fill="#2e0048" stroke="#000000" stroke-width="0" stroke-linecap="butt"/><path d="M328.64938,338.22523c0,11.6628 -14.51982,21.11737 -32.43092,21.11737c-17.9111,0 -32.43092,-9.45457 -32.43092,-21.11737c0,-2.33142 -0.03339,-13.76009 1.08979,-15.13837c4.49546,-5.51647 17.81784,5.26144 32.14847,5.26144c17.9111,0 31.62358,-1.78588 31.62358,9.87692z" fill="#000082" stroke="#000000" stroke-width="2" stroke-linecap="butt"/><path d="M326.7631,335.49289c0,6.30841 -13.89058,10.1901 -31.80169,10.1901c-17.9111,0 -30.16566,-2.95748 -30.16566,-9.26589c0,-1.26107 -0.03338,-12.52602 1.0898,-13.27153c4.49546,-2.98386 15.55258,5.7726 29.88321,5.7726c17.9111,0 30.99434,0.26631 30.99434,6.57472z" fill="#2e0048" stroke="#000000" stroke-width="0" stroke-linecap="butt"/><g><g><path d="M309.72565,193.52876c6.04761,13.82205 2.62886,24.93611 -10.76149,31.55484c-10.47273,5.17659 -27.44564,-1.14355 -33.49326,-14.96563c-6.04767,-13.8221 -1.50941,-27.77089 12.1749,-33.75827c2.13995,-0.93633 4.39281,-1.16533 6.44844,-1.39372c11.08932,-1.23191 20.52955,6.90219 25.63143,18.56275z" fill="#485e84" stroke="#000000" stroke-width="2" stroke-linecap="butt"/><path d="M275.25656,219.80433c0,0 5.43466,-1.89621 5.8911,-3.84686c4.37844,-18.71104 -0.28295,-31.95829 -2.15904,-36.22209c-0.42624,-0.96875 -1.54019,-1.10999 -1.54019,-1.10999c0,0 1.83684,-1.04599 4.52646,-1.57512c2.86198,-0.56305 6.67032,-0.58482 9.59767,0.35097c3.34387,1.06897 10.36298,5.56789 10.36298,5.56789l11.28782,17.64777c0,0 -3.80252,12.90334 -5.09426,14.64354c-1.26547,1.70485 -3.25187,3.35922 -5.29306,5.20323c-3.16931,2.86306 -7.385,4.54668 -10.25213,4.81949c-3.6591,0.34812 -8.19695,-0.72884 -11.70157,-2.23885c-3.2617,-1.40534 -5.62565,-3.24005 -5.62565,-3.24005z" fill="#343545" stroke="none" stroke-width="0" stroke-linecap="butt"/><path d="M296.59393,207.89285c0,0 -7.33702,5.25036 -12.48973,5.07851c-6.52282,-0.2175 -18.84647,-4.24612 -18.84647,-4.24612" fill="none" stroke="#000000" stroke-width="1" stroke-linecap="round"/><path d="M271.98149,180.62117c0,0 7.00796,-1.42078 11.30222,-1.24474c4.33526,0.17766 13.26795,3.96712 13.26795,3.96712" fill="none" stroke="#000000" stroke-width="1" stroke-linecap="round"/><path d="M303.64095,216.30091c0,0 -7.45084,5.50195 -13.02355,5.06168c-8.55113,-0.6756 -19.71578,-3.81352 -19.71578,-3.81352" fill="none" stroke="#000000" stroke-width="1" stroke-linecap="round"/><path d="M291.84463,226.01918c0,0 -15.16523,-8.33616 -17.14778,-25.6455c-2.17165,-18.96019 13.75809,-25.57335 13.75809,-25.57335" fill="none" stroke="#000000" stroke-width="1" stroke-linecap="round"/><path d="M301.00122,223.39974c0,0 -13.97617,-11.02402 -15.75847,-26.29435c-1.46341,-12.53835 11.43349,-19.36391 11.43349,-19.36391" fill="none" stroke="#000000" stroke-width="1" stroke-linecap="round"/><path d="M267.84879,194.90518c-0.16541,1.19158 -1.06422,2.05132 -2.00751,1.92036c-0.94331,-0.13091 -0.85675,-0.92241 -0.69133,-2.11398c0.16541,-1.19158 0.34708,-2.33192 1.29037,-2.20096c0.94331,0.13091 1.5739,1.20305 1.40846,2.39459z" fill="#8fbbbe" stroke="none" stroke-width="0" stroke-linecap="butt"/><path d="M269.81983,187.90701c0.24108,0.55105 -0.2335,1.29094 -1.06006,1.65261c-0.82659,0.36166 -1.21398,0.39521 -1.45509,-0.15582c-0.24108,-0.55105 0.16075,-1.45723 0.98731,-1.81886c0.82659,-0.36166 1.28676,-0.22889 1.52784,0.32216z" fill="#8fbbbe" stroke="none" stroke-width="0" stroke-linecap="butt"/><path d="M266.96133,201.7664c0.27152,0.86043 0.02667,1.7046 -0.54692,1.88564c-0.57354,0.18105 -0.75982,-0.58799 -1.03136,-1.44839c-0.27152,-0.86043 -0.52556,-1.48633 0.04803,-1.66737c0.57354,-0.18105 1.25873,0.36973 1.53024,1.23012z" fill="#8fbbbe" stroke="none" stroke-width="0" stroke-linecap="butt"/><path d="M278.94629,222.35062c0,0 -6.92132,-7.53491 -9.62117,-14.61523c-1.53066,-4.01417 -1.49397,-8.0805 -1.43162,-11.16308c0.05512,-2.72606 2.75281,-8.72175 5.29521,-13.09604c1.87183,-3.22055 3.80228,-5.44323 3.80228,-5.44323" fill="none" stroke="#000000" stroke-width="0.5" stroke-linecap="round"/><path d="M263.1058,192.03338c0,0 9.84175,-3.8624 15.24705,-3.8607c4.55408,0.0014 14.92516,3.53768 14.92516,3.53768" fill="none" stroke="#000000" stroke-width="1" stroke-linecap="round"/><path d="M294.03685,197.52025c0,0 -9.03659,3.43053 -13.53243,3.9185c-7.89385,0.85676 -17.65821,-2.75352 -17.65821,-2.75352" fill="none" stroke="#000000" stroke-width="1" stroke-linecap="round"/></g><g stroke="#000000" stroke-linecap="butt"><path d="M306.38735,223.1883c-3.47623,-33.15471 3.64815,-39.65843 11.69541,-40.50217c8.04727,-0.84375 17.3889,25.34947 20.86512,58.50419c3.47622,33.15471 -55.391,-8.67999 -63.43826,-7.83625c-6.30822,-3.24572 -1.5476,-7.71051 6.22465,-8.87155c9.58502,-1.43183 24.95022,1.53972 24.65308,-1.29422z" fill="#0d69be" stroke-width="2"/><path d="M291.75382,199.54065c-1.49207,-14.23085 9.13161,-27.00791 23.72869,-28.5384c14.59708,-1.53048 27.63993,8.76519 29.13201,22.99603c1.49207,14.23085 -9.13162,27.00792 -23.72869,28.53839c-14.59708,1.53049 -27.6399,-8.76519 -29.13198,-22.99605z" fill="#faddbf" stroke-width="2"/><path d="M332.4915,207.00317c-1.49207,-14.23085 -31.90955,-33.57645 -17.31247,-35.10696c14.59708,-1.53048 27.63991,8.7652 29.13198,22.99605c1.49207,14.23085 -10.32744,26.34177 -11.81952,12.11092z" fill="#ef8b89" stroke-width="0"/></g></g><path d="M267.22624,165.09452c0.09667,-0.24143 0.51323,-1.07976 1.54007,-0.76277c1.19438,0.36872 0.82566,1.5631 0.82566,1.5631l-0.15515,0.37605c-1.24141,2.04882 -2.69884,3.93789 -4.00919,5.93916c-1.3302,1.48676 -2.86027,3.46701 -4.79029,4.20002c-3.90831,1.48435 -7.57968,-2.56973 -8.01286,-6.15776c-0.55439,-4.59204 1.6749,-9.78034 4.13202,-13.58527c0,0 0.68265,-1.04713 1.72979,-0.36447c1.04713,0.68265 0.36447,1.72979 0.36447,1.72979c-1.75685,2.66458 -3.81748,6.878 -3.87592,10.14321c-0.03792,2.11866 1.00192,6.09303 3.86002,6.14702c1.80279,0.03405 3.5631,-2.47521 4.60981,-3.635c1.22683,-1.89067 2.60479,-3.66785 3.78155,-5.59307z" fill="#000000" stroke="none" stroke-width="0.5" stroke-linecap="butt"/></g></g></svg>