<svg version="1.1" xmlns="http://www.w3.org/2000/svg" xmlns:xlink="http://www.w3.org/1999/xlink" width="183.18182" height="183.18182" viewBox="0,0,183.18182,183.18182"><g transform="translate(-148.40909,-88.40909)"><g data-paper-data="{&quot;isPaintingLayer&quot;:true}" fill-rule="nonzero" stroke="none" stroke-width="0" stroke-linecap="butt" stroke-linejoin="miter" stroke-miterlimit="10" stroke-dasharray="" stroke-dashoffset="0" style="mix-blend-mode: normal"><path d="M148.40909,271.59091v-183.18182h183.18182v183.18182z" fill="none"/><g data-paper-data="{&quot;index&quot;:null}"><path d="M242.81084,246.597c-3.52499,0 -58.0873,-44.91367 -64.14855,-55.2378c-3.00811,-5.12374 -4.04728,-11.96262 -4.11701,-14.39164c-0.10448,-3.63955 1.64752,-11.88329 6.05804,-17.61186c6.15176,-7.99014 16.62267,-15.22201 26.56806,-22.38237c18.4447,-13.27961 37.38145,-23.90075 38.50654,-23.90075c1.50168,0 19.87902,20.94921 19.93989,25.24688c0.02741,1.93473 -23.23207,13.81493 -23.62719,15.98732c-0.2222,1.22167 -2.06193,4.58123 0.43644,4.93314c1.13837,0.16035 54.78087,-0.23479 54.99381,0.95955c0.3597,2.01752 5.28888,2.12823 6.33546,13.64551c0.85551,9.41437 -0.56531,21.61201 -1.3204,22.42425c-0.63262,0.68052 -4.33401,1.42296 -8.20262,1.53529c-12.53253,0.36388 -35.90752,-1.95099 -38.35898,-1.67081c-2.75572,0.31496 -12.30178,-1.16682 -14.49179,1.5652c-1.94659,2.42834 3.24075,7.46531 4.5619,8.94134c9.64546,10.77624 21.86399,17.96331 21.58283,19.44884c-0.25515,1.34817 -23.26719,20.50787 -24.71642,20.50787z" data-paper-data="{&quot;noHover&quot;:false,&quot;origItem&quot;:[&quot;Path&quot;,{&quot;applyMatrix&quot;:true,&quot;segments&quot;:[[[468.26192,506.02382],[0,0],[3.035,0]],[[519.97642,463.09056],[-0.53434,2.82334],[0.5888,-3.11102]],[[474.8537,422.54302],[20.1996,22.56768],[-2.76674,-3.0911]],[[465.26432,403.62164],[-4.07656,5.08546],[4.58634,-5.72142]],[[495.5535,400.37302],[-5.77106,0.65958],[5.13388,-0.58676]],[[575.86152,403.91104],[-26.24574,0.76204],[8.10168,-0.23524]],[[593.03778,400.70172],[-1.32484,1.42514],[1.58132,-1.70102]],[[595.80018,353.77508],[1.7916,19.71566],[-2.19178,-24.1196]],[[582.53724,325.22126],[0.7533,4.2251],[-0.44594,-2.5012]],[[467.44836,323.27862],[2.38398,0.3358],[-5.23212,-0.73698]],[[466.56002,312.74928],[-0.46532,2.55842],[0.82746,-4.54944]],[[515.97618,279.4524],[0.0574,4.05174],[-0.1275,-9.00022]],[[474.2619,226.59526],[3.14484,0],[-2.35618,0]],[[393.69066,276.6289],[38.62704,-27.81026],[-20.82772,14.9953]],[[338.08606,323.45518],[12.88306,-16.73304],[-9.23656,11.99682]],[[325.40476,360.30956],[-0.2188,-7.62198],[0.14602,5.08688]],[[334.02496,390.42556],[-6.2996,-10.73018],[12.69352,21.6209]],[[468.2619,506.02386],[-7.38206,0],[0,0]]],&quot;closed&quot;:true,&quot;fillColor&quot;:[0,0,0],&quot;strokeWidth&quot;:0}]}" fill="#8b78bc"/><path d="M171.35276,177.83371c0,-16.34667 13.92049,-29.22459 29.17034,-40.57679c20.84106,-15.51439 44.78645,-26.72898 44.78645,-26.72898l24.62618,27.1584l-23.80575,17.13569l57.27629,4.25248l1.54927,39.23008l-57.49334,1.80396l26.09084,25.86308l-30.15352,23.90885c0,0 -37.44647,-25.38836 -58.13231,-47.65623c-9.18902,-9.89177 -13.91444,-17.68495 -13.91444,-24.39054zM243.00159,243.30147c0.97035,0 23.70565,-20.28042 23.70565,-20.28042c0,0 -25.45652,-20.14206 -25.45652,-24.4461c0,-0.15126 -1.98399,-2.66986 1.97874,-3.58588c3.4165,-0.78976 19.49555,0.48285 26.38425,0.61132c17.10478,0.31897 29.34432,0.98324 29.2555,-0.37003c-0.01138,-0.17347 0.80774,-2.47067 1.13082,-6.12698c0.56686,-6.41515 0.09029,-15.77482 -0.955,-18.57662c-0.61428,-1.64651 -1.12957,-6.82142 -1.85726,-7.8798c-0.74597,-1.08494 -6.93355,-0.99996 -16.26797,-1.22841c-11.43475,-0.27986 -28.56572,-0.34755 -36.41089,-1.41765c-2.69918,-0.36817 -3.17654,-1.13566 -3.47231,-1.68932c-1.13219,-2.11937 7.62881,-6.06845 13.98938,-10.7122c5.24792,-3.83141 9.48605,-7.84673 9.48605,-7.84673c0,0 -18.41838,-23.41112 -19.60042,-23.30893c-2.65822,0.22979 -43.19504,24.18479 -61.73497,43.02081c-1.08189,1.09917 -5.5998,8.2991 -4.96061,19.13301c0.56235,9.53143 6.1692,17.80153 8.32913,19.86451c15.82763,15.11716 54.96971,44.83944 56.45642,44.83944z" fill="#ffffff"/><path d="M167.67484,171.4101c0.11345,-3.34512 6.1036,-16.71777 18.50494,-27.86217c3.25909,-2.92876 6.44232,-6.45601 10.11183,-9.3172c19.94681,-15.55297 44.63431,-28.10676 47.38648,-28.19934c0.76732,-0.02581 5.38316,-1.01858 8.78455,2.8147c7.68639,8.66236 19.40833,27.41872 20.51503,30.57271c0.12359,0.35223 -1.15537,3.06668 -4.16216,5.97604c-3.62219,3.50485 -9.34421,7.05385 -9.3832,7.33545c-0.23689,1.71073 42.59948,-1.47637 43.05876,1.01204c0.04648,0.2518 4.6134,2.12162 6.60385,6.97647c0.93125,2.2714 2.53187,4.92836 3.10967,8.45181c1.23007,7.5011 0.47691,22.83608 -0.84717,29.18698c-0.54892,2.63288 -6.32981,4.90651 -8.58148,6.00306c-2.55052,1.24208 -42.43477,-0.34169 -46.65479,0.68686c-0.66131,0.16119 13.03223,8.76009 18.0754,14.93437c1.40088,1.71509 2.26972,4.89046 2.10153,5.76316c-1.53025,7.93999 -30.42525,28.70012 -34.41065,28.35339c-4.68607,-0.40769 -33.34212,-22.8884 -53.35904,-40.95468c-5.02604,-4.53625 -10.35417,-11.00443 -14.02219,-16.72071c-3.15189,-4.91191 -5.38019,-9.06719 -5.95933,-10.41673c-2.40585,-5.60622 -0.93622,-12.70348 -0.87203,-14.59622zM242.80833,246.54929c1.44923,0 24.43891,-19.15278 24.69406,-20.50094c0.28115,-1.48553 -12.37848,-8.42634 -22.02394,-19.20257c-1.32114,-1.47603 -6.04808,-6.76593 -4.10149,-9.19427c2.19001,-2.73202 11.70758,-1.23629 14.4633,-1.55124c2.45147,-0.28018 25.81513,2.05331 38.34767,1.68943c3.86861,-0.11233 7.56916,-0.85196 8.20179,-1.53248c0.75509,-0.81225 2.17457,-12.99344 1.31906,-22.40782c-1.04659,-11.51729 -5.97345,-11.61714 -6.33315,-13.63466c-0.21294,-1.19434 -54.50435,-0.93291 -55.51287,-1.48471c-1.4567,-0.79703 -0.60502,-4.08973 0.29208,-4.94825c2.25419,-2.15728 9.21076,-6.9497 14.49805,-10.09581c5.31398,-3.162 8.9531,-4.67472 8.93936,-5.64453c-0.06088,-4.29767 -18.41719,-24.92133 -19.91888,-24.92133c-1.1251,0 -20.02866,10.61183 -38.47336,23.89142c-9.94538,7.16037 -20.39985,14.36975 -26.5516,22.35989c-4.41053,5.72857 -6.1599,13.95869 -6.05541,17.59824c0.06973,2.42902 1.1081,9.25687 4.11621,14.38061c6.06125,10.32414 60.57413,55.19904 64.09912,55.19904z" fill="#201e31"/></g></g></g></svg>