<svg version="1.1" xmlns="http://www.w3.org/2000/svg" xmlns:xlink="http://www.w3.org/1999/xlink" width="244.92354" height="303.62161" viewBox="0,0,244.92354,303.62161"><g transform="translate(-182.29038,-26.9565)"><g data-paper-data="{&quot;isPaintingLayer&quot;:true}" fill-rule="nonzero" stroke-linejoin="miter" stroke-miterlimit="10" stroke-dasharray="" stroke-dashoffset="0" style="mix-blend-mode: normal"><g data-paper-data="{&quot;index&quot;:null}" stroke="#000000" stroke-linecap="butt"><path d="M367.79086,246.57035v-44.18554h57.85848v44.18554z" fill="#ffcaa0" stroke-width="2"/><g><path d="M367.60131,202.55056v-60.92702h58.61261v60.92702z" fill="#ff0008" stroke-width="2"/><path d="M368.44493,202.7459v-31.91177c0,0 17.53271,13.25566 27.26316,13.25566c9.22592,0 29.68655,-13.25566 29.68655,-13.25566v31.91178c0,0 -18.73134,0 -28.17193,0c-9.54157,0 -28.77778,0 -28.77778,0z" fill="#8d005e" stroke-width="0"/></g><path d="M368.68793,246.06991v-44.18554l14.84327,29.94798l43.01521,14.23757z" fill="#ff6e5b" stroke-width="0"/></g><g data-paper-data="{&quot;index&quot;:null}" stroke="#000000" stroke-linecap="butt"><path d="M422.61786,92.08232c0,29.60873 -13.48292,53.61134 -30.11495,53.61134c-16.63204,0 -30.11495,-24.00262 -30.11495,-53.61134c0,-29.60873 13.48292,-53.61134 30.11495,-53.61134c16.63204,0 30.11495,24.00262 30.11495,53.61134z" fill="#01930e" stroke-width="2"/><path d="M372.80315,82.84401c0,29.60873 36.7877,62.4505 20.15568,62.4505c-16.63203,0 -30.11495,-24.00262 -30.11495,-53.61134c0,-29.60873 9.95928,-38.44788 9.95928,-8.83915z" fill="#31525b" stroke-width="0"/></g><g data-paper-data="{&quot;index&quot;:null}" stroke="#000000" stroke-linecap="butt"><path d="M300.88547,329.16956v-82.993h69.40986v82.993z" fill="#273750" stroke-width="2"/><path d="M301.77873,328.474v-82.993l20.90622,45.33958l48.50361,37.65342z" fill="#1f1e2e" stroke-width="0"/></g><path d="M241.90685,245.79844v-104.62625h129.11202v104.62625z" data-paper-data="{&quot;index&quot;:null}" fill="#ff0008" stroke="#000000" stroke-width="2" stroke-linecap="butt"/><g data-paper-data="{&quot;index&quot;:null}" stroke="#000000" stroke-linecap="butt"><path d="M241.20205,329.57811v-82.993h69.40986v82.993z" fill="#273750" stroke-width="2"/><path d="M242.09536,328.88251v-82.993l20.90622,45.33958l48.50361,37.65342z" fill="#1f1e2e" stroke-width="0"/></g><g data-paper-data="{&quot;index&quot;:null}" stroke="#000000" stroke-linecap="butt"><path d="M183.47994,246.25544v-44.18554h57.85848v44.18554z" fill="#ffcaa0" stroke-width="2"/><g><path d="M183.29038,202.23564v-60.92702h58.61261v60.92702z" fill="#ff0008" stroke-width="2"/><path d="M184.134,202.43099v-31.91177c0,0 17.53271,13.25566 27.26316,13.25566c9.22592,0 29.68655,-13.25566 29.68655,-13.25566v31.91178c0,0 -18.73134,0 -28.17193,0c-9.54157,0 -28.77778,0 -28.77778,0z" fill="#8d005e" stroke-width="0"/></g><path d="M184.37699,245.755v-44.18554l14.84327,29.94798l43.01521,14.23757z" fill="#ff6e5b" stroke-width="0"/></g><g data-paper-data="{&quot;index&quot;:null}" fill="#000000" stroke="#000000" stroke-linecap="butt"><path d="M272.41806,245.36706v-102.67889h69.40986v102.67889z" stroke-width="2"/><path d="M273.31138,244.50649v-102.67889l20.90622,56.09409l48.50361,46.58478z" stroke-width="0"/></g><g data-paper-data="{&quot;index&quot;:null}" stroke="#000000" stroke-linecap="butt"><path d="M221.31882,90.63958c0,-1.26549 1.00629,-25.17257 1.12219,-26.41866c2.92873,-31.48797 41.36549,-33.77352 89.52026,-33.77352c45.23383,0 84.30799,4.17591 91.11771,32.94376c0.72663,3.06963 -0.47526,24.04325 -0.47526,27.24843c0,11.45647 3.39172,36.63667 -4.9748,45.75264c-15.91061,17.33584 -52.85932,14.43954 -85.66767,14.43954c-34.68889,0 -67.03734,0.90215 -82.27481,-18.10544c-6.75213,-8.42276 -8.36765,-31.87908 -8.36765,-42.08673z" fill="#ffcaa0" stroke-width="2"/><path d="M219.2388,90.64896c0,-1.26549 1.00629,-25.17257 1.12219,-26.41866c1.66397,-17.88996 7.78692,55.67393 62.00277,75.83119c42.48725,15.7966 117.28946,-7.42498 113.92571,-3.75993c-15.91061,17.33584 -53.59986,14.53956 -86.4082,14.53956c-34.68889,0 -67.03734,0.90215 -82.27481,-18.10544c-6.75213,-8.42276 -8.36765,-31.87908 -8.36765,-42.08673z" fill="#ff6e5b" stroke-width="0"/></g><g data-paper-data="{&quot;index&quot;:null}" stroke="#000000" stroke-linecap="butt"><path d="M272.77278,90.17561c0,29.60873 -13.48292,53.61134 -30.11495,53.61134c-16.63204,0 -30.11495,-24.00262 -30.11495,-53.61134c0,-29.60873 13.48292,-53.61134 30.11495,-53.61134c16.63204,0 30.11495,24.00262 30.11495,53.61134z" fill="#01930e" stroke-width="2"/><path d="M222.95806,80.9373c0,29.60873 36.7877,62.4505 20.15568,62.4505c-16.63203,0 -30.11495,-24.00262 -30.11495,-53.61134c0,-29.60873 9.95928,-38.44788 9.95928,-8.83915z" fill="#31525b" stroke-width="0"/></g><g data-paper-data="{&quot;index&quot;:null}" stroke-linecap="butt"><path d="M421.21344,56.35627c0,16.23705 -46.92483,29.39978 -104.80954,29.39978c-57.88471,0 -104.80953,-13.16274 -104.80953,-29.39978c0,-16.23705 46.92482,-29.39977 104.80953,-29.39977c57.88471,0 104.80954,13.16273 104.80954,29.39978z" fill="#000000" stroke="none" stroke-width="NaN"/><path d="M420.3851,56.67281c0,16.23705 -46.92483,29.39978 -104.80954,29.39978c-57.88471,0 -104.80953,-13.16274 -104.80953,-29.39978c0,-16.23705 48.55008,8.13554 106.43479,8.13554c57.88471,0 103.18429,-24.3726 103.18429,-8.13554z" fill="#ff0000" stroke="#000000" stroke-width="2"/><path d="M414.27471,65.12824c0,4.46829 -41.23644,21.59009 -99.12116,20.27307c-20.25616,-0.46088 -39.36462,-1.96119 -54.94499,-4.67689c-28.92511,-5.04171 -46.68243,-12.93228 -44.04171,-16.69229c2.72739,-3.8834 42.72725,15.51746 100.61196,15.51746c57.88471,0 97.49589,-18.88963 97.49589,-14.42135z" fill="#900056" stroke="#000000" stroke-width="0"/></g><path d="M341.29358,113.42087c0,14.4503 -3.29591,26.16459 -7.36164,26.16459c-4.06573,0 -7.36164,-11.71428 -7.36164,-26.16458c0,-14.4503 3.29592,-26.16458 7.36164,-26.16458c4.06573,0 7.36164,11.71428 7.36164,26.16459z" data-paper-data="{&quot;index&quot;:null}" fill="#000000" stroke="none" stroke-width="0" stroke-linecap="butt"/><path d="M370.50749,109.44768c0,14.39249 -3.12246,26.05992 -6.97419,26.05992c-3.85174,0 -6.97419,-11.66743 -6.97419,-26.05992c0,-14.39249 3.12246,-26.05992 6.97419,-26.05992c3.85174,0 6.97419,11.66743 6.97419,26.05992z" data-paper-data="{&quot;index&quot;:null}" fill="#000000" stroke="none" stroke-width="0" stroke-linecap="butt"/><path d="M304.40216,134.99387c-0.58057,-1.57661 -1.11807,-3.16235 -1.75961,-4.72316c-0.54568,-1.05993 -0.94321,-1.79627 -1.42628,-2.89072c-1.10057,-2.49354 -4.67449,-4.01442 -5.20895,-0.23554c-0.48216,3.40906 0.41416,7.43584 2.03278,10.56366c0,0 0.54545,1.06082 -0.76363,1.50283c-1.30909,0.44201 -1.85454,-0.61882 -1.85454,-0.61882c-1.83773,-3.59471 -3.55327,-9.47707 -1.71914,-13.27573c1.78407,-3.69498 7.41991,-3.70592 9.5545,-0.20977c0.82467,1.35069 1.32157,2.95625 2.04151,4.35815c0.68302,1.65929 1.25534,3.34361 1.87564,5.01918l0.05981,0.44526c0,0 0,1.14922 -1.41817,1.14922c-1.21387,0 -1.38873,-0.84196 -1.41392,-1.08455z" data-paper-data="{&quot;index&quot;:null}" fill="#000000" stroke="none" stroke-width="0.5" stroke-linecap="butt"/><path d="M310.81874,88.83523h34.03612" fill="none" stroke="#000000" stroke-width="5" stroke-linecap="round"/><path d="M355.11972,86.42734l26.47254,-4.15908" fill="none" stroke="#000000" stroke-width="5" stroke-linecap="round"/></g></g></svg>