<svg version="1.1" xmlns="http://www.w3.org/2000/svg" xmlns:xlink="http://www.w3.org/1999/xlink" width="183.18182" height="183.18182" viewBox="0,0,183.18182,183.18182"><g transform="translate(-148.40909,-88.40909)"><g data-paper-data="{&quot;isPaintingLayer&quot;:true}" fill-rule="nonzero" stroke="none" stroke-width="0" stroke-linecap="butt" stroke-linejoin="miter" stroke-miterlimit="10" stroke-dasharray="" stroke-dashoffset="0" style="mix-blend-mode: normal"><path d="M148.40909,271.59091v-183.18182h183.18182v183.18182z" fill="none"/><g data-paper-data="{&quot;index&quot;:null}"><path d="M237.19059,113.43673c3.5232,0 58.05789,44.89093 64.11607,55.20984c3.00658,5.12114 4.04524,11.95656 4.11492,14.38435c0.10443,3.63771 -1.64667,11.87727 -6.05496,17.60295c-6.14864,7.9861 -16.61425,15.2143 -26.5546,22.37104c-18.43535,13.27288 -37.36252,23.88864 -38.48704,23.88865c-1.50092,0 -19.86895,-20.9386 -19.92981,-25.2341c-0.0274,-1.93376 23.22031,-13.80793 23.61523,-15.97921c0.22208,-1.22105 2.06089,-4.57891 -0.43622,-4.93065c-1.13779,-0.16027 -54.75313,0.23467 -54.96596,-0.95907c-0.35952,-2.01649 -5.28619,-2.12715 -6.33225,-13.63861c-0.85507,-9.4096 0.56503,-21.60107 1.31973,-22.4129c0.6323,-0.68017 4.33181,-1.42224 8.19847,-1.53451c12.52619,-0.3637 35.88934,1.95001 38.33956,1.66997c2.75433,-0.31479 12.29555,1.16623 14.48445,-1.56441c1.9456,-2.42711 -3.23912,-7.46153 -4.55959,-8.93681c-9.64057,-10.77078 -21.85292,-17.95421 -21.5719,-19.43899c0.25502,-1.34748 23.2554,-20.49749 24.7039,-20.49749z" data-paper-data="{&quot;noHover&quot;:false,&quot;origItem&quot;:[&quot;Path&quot;,{&quot;applyMatrix&quot;:true,&quot;segments&quot;:[[[468.26192,506.02382],[0,0],[3.035,0]],[[519.97642,463.09056],[-0.53434,2.82334],[0.5888,-3.11102]],[[474.8537,422.54302],[20.1996,22.56768],[-2.76674,-3.0911]],[[465.26432,403.62164],[-4.07656,5.08546],[4.58634,-5.72142]],[[495.5535,400.37302],[-5.77106,0.65958],[5.13388,-0.58676]],[[575.86152,403.91104],[-26.24574,0.76204],[8.10168,-0.23524]],[[593.03778,400.70172],[-1.32484,1.42514],[1.58132,-1.70102]],[[595.80018,353.77508],[1.7916,19.71566],[-2.19178,-24.1196]],[[582.53724,325.22126],[0.7533,4.2251],[-0.44594,-2.5012]],[[467.44836,323.27862],[2.38398,0.3358],[-5.23212,-0.73698]],[[466.56002,312.74928],[-0.46532,2.55842],[0.82746,-4.54944]],[[515.97618,279.4524],[0.0574,4.05174],[-0.1275,-9.00022]],[[474.2619,226.59526],[3.14484,0],[-2.35618,0]],[[393.69066,276.6289],[38.62704,-27.81026],[-20.82772,14.9953]],[[338.08606,323.45518],[12.88306,-16.73304],[-9.23656,11.99682]],[[325.40476,360.30956],[-0.2188,-7.62198],[0.14602,5.08688]],[[334.02496,390.42556],[-6.2996,-10.73018],[12.69352,21.6209]],[[468.2619,506.02386],[-7.38206,0],[0,0]]],&quot;closed&quot;:true,&quot;fillColor&quot;:[0,0,0],&quot;strokeWidth&quot;:0}]}" fill="#be7683"/><path d="M308.61247,182.1652c0,16.33839 -13.91345,29.20979 -29.15557,40.55625c-20.83051,15.50653 -44.76377,26.71546 -44.76377,26.71546l-24.61371,-27.14465l23.79369,-17.12702l-57.24728,-4.25033l-1.54849,-39.21021l57.46423,-1.80304l-26.07763,-25.84999l30.13826,-23.89675c0,0 37.4275,25.3755 58.10288,47.63209c9.18435,9.88676 13.9074,17.676 13.9074,24.37819zM236.99992,116.73058c-0.96986,0 -23.69366,20.27014 -23.69366,20.27014c0,0 25.44363,20.13186 25.44363,24.43372c0,0.15118 1.98298,2.66851 -1.97774,3.58406c-3.41477,0.78936 -19.48567,-0.48261 -26.37089,-0.611c-17.09612,-0.3188 -29.32946,-0.98275 -29.24068,0.36984c0.01138,0.17338 -0.80733,2.46942 -1.13025,6.12388c-0.56657,6.4119 -0.09024,15.76683 0.95452,18.56721c0.61396,1.64567 1.12899,6.81797 1.85632,7.87582c0.74559,1.08439 6.93004,0.99946 16.25973,1.22779c11.42895,0.27972 28.55125,0.34738 36.39245,1.41693c2.69782,0.36798 3.17493,1.13508 3.47055,1.68846c1.13162,2.1183 -7.62495,6.06538 -13.98229,10.70677c-5.24526,3.82947 -9.48125,7.84276 -9.48125,7.84276c0,0 18.40906,23.39926 19.59049,23.29713c2.65688,-0.22967 43.17317,-24.17254 61.70371,-42.99903c1.08134,-1.09861 5.59696,-8.2949 4.9581,-19.12331c-0.56206,-9.5266 -6.16607,-17.79252 -8.32491,-19.85446c-15.81961,-15.10951 -54.94188,-44.81673 -56.42783,-44.81673z" fill="#ffffff"/><path d="M312.28854,188.58555c-0.11339,3.34343 -6.1005,16.7093 -18.49557,27.84806c-3.25743,2.92727 -6.43907,6.45274 -10.10671,9.31249c-19.93671,15.54509 -44.61171,28.09253 -47.36248,28.18506c-0.76693,0.02579 -5.38043,1.01806 -8.7801,-2.81327c-7.6825,-8.65798 -19.3985,-27.40483 -20.50464,-30.55723c-0.12353,-0.35205 1.15479,-3.06512 4.16005,-5.97302c3.62036,-3.50308 9.33948,-7.05027 9.37845,-7.33173c0.23677,-1.70986 -42.57791,1.47562 -43.03696,-1.01153c-0.04646,-0.25167 -4.61106,-2.12054 -6.60051,-6.97294c-0.93078,-2.27026 -2.5306,-4.92587 -3.1081,-8.44753c-1.22945,-7.49731 -0.47667,-22.82452 0.84674,-29.1722c0.54865,-2.63155 6.3266,-4.90403 8.57714,-6.00002c2.54923,-1.24145 42.41328,0.34151 46.63117,-0.68652c0.66097,-0.16111 -13.02563,-8.75565 -18.06625,-14.92681c-1.40017,-1.71421 -2.26858,-4.88798 -2.10046,-5.76024c1.52947,-7.93596 30.40984,-28.68559 34.39322,-28.33903c4.68369,0.40749 33.32524,22.87681 53.33202,40.93394c5.0235,4.53396 10.34893,10.99886 14.01509,16.71224c3.15029,4.90943 5.37747,9.06259 5.95631,10.41145c2.40463,5.60338 0.93575,12.69705 0.87159,14.58883zM237.1931,113.48441c-1.4485,0 -24.42653,19.14308 -24.68155,20.49056c-0.28101,1.48478 12.37221,8.42208 22.01278,19.19285c1.32047,1.47528 6.04502,6.7625 4.09941,9.18961c-2.1889,2.73064 -11.70165,1.23566 -14.45598,1.55045c-2.45022,0.28004 -25.80206,-2.05227 -38.32825,-1.68857c-3.86665,0.11227 -7.56534,0.85153 -8.19764,1.5317c-0.75471,0.81184 -2.17347,12.98686 -1.3184,22.39647c1.04606,11.51145 5.97042,11.61126 6.32994,13.62775c0.21283,1.19374 54.47676,0.93244 55.48476,1.48396c1.45597,0.79662 0.60471,4.08766 -0.29192,4.94575c-2.25305,2.15619 -9.20609,6.94618 -14.49071,10.0907c-5.3113,3.16039 -8.94857,4.67235 -8.93483,5.64167c0.06085,4.29549 18.40786,24.90872 19.90879,24.90872c1.12452,0 20.01852,-10.60645 38.45387,-23.87933c9.94035,-7.15674 20.38952,-14.36247 26.53816,-22.34857c4.40829,-5.72567 6.15677,-13.95162 6.05235,-17.58932c-0.06969,-2.42779 -1.10754,-9.25218 -4.11412,-14.37333c-6.05818,-10.31891 -60.54346,-55.17108 -64.06666,-55.17108z" fill="#201e31"/></g></g></g></svg>