<svg version="1.1" xmlns="http://www.w3.org/2000/svg" xmlns:xlink="http://www.w3.org/1999/xlink" width="261.57294" height="242.40659" viewBox="0,0,261.57294,242.40659"><g transform="translate(-200.60725,-118.40929)"><g data-paper-data="{&quot;isPaintingLayer&quot;:true}" fill-rule="nonzero" stroke-linejoin="miter" stroke-miterlimit="10" stroke-dasharray="" stroke-dashoffset="0" style="mix-blend-mode: normal"><g stroke="#000000" stroke-linecap="butt"><path d="M380.89268,238.23635c35.16763,-6.98212 65.2974,-6.77697 67.29673,0.45823c1.99934,7.23519 -24.88888,18.76061 -60.05651,25.74274c-35.16761,6.98212 -65.29739,6.77697 -67.29673,-0.45823c-1.99934,-7.23519 24.88888,-18.76061 60.05651,-25.74273z" fill="#0d69be" stroke-width="2"/><path d="M426.49777,216.64419c15.09483,-2.9969 30.27158,5.21277 33.89821,18.33684c3.62663,13.12405 -5.67017,26.19268 -20.76501,29.18958c-15.09483,2.9969 -30.27158,-5.21277 -33.89821,-18.33684c-3.62664,-13.12405 5.67017,-26.19268 20.76501,-29.18958z" fill="#faddbf" stroke-width="2"/><path d="M424.0058,254.62103c15.09483,-2.9969 31.76137,-32.93773 35.388,-19.81368c3.62663,13.12405 -5.67017,26.19268 -20.76501,29.18958c-15.09483,2.9969 -29.71781,-6.379 -14.62299,-9.37591z" fill="#ef8b89" stroke-width="0"/></g><g stroke="#000000" stroke-linecap="butt"><path d="M349.47466,354.53189l-62.7738,-69.48508l25.37006,-16.46711l62.77381,69.48508z" fill="#73fffc" stroke-width="2"/><path d="M348.78739,354.2632l-60.63877,-69.12517c0,0 49.34343,46.75955 56.55867,52.96822c1.59507,1.37254 4.00754,0.62592 4.00754,0.62592l24.6611,-0.80876z" fill="#59a9e6" stroke-width="0"/></g><g stroke="#000000" stroke-linecap="butt"><path d="M246.00511,329.2969l39.10387,-80.9983l29.5737,10.25791l-39.10387,80.9983z" fill="#73fffc" stroke-width="2"/><path d="M245.93203,328.65836l39.81452,-79.25422c0,0 -22.73229,59.70339 -25.41588,68.11627c-0.59326,1.85982 1.38445,3.24862 1.38445,3.24862l13.26663,17.63952z" fill="#59a9e6" stroke-width="0"/></g><g stroke="#000000" stroke-linecap="butt"><path d="M336.53435,245.82557c0,12.67624 10.88621,33.74513 5.36324,42.66808c-6.75421,10.91217 -31.00103,8.35346 -42.19046,8.35346c-14.80347,0 -35.6943,3.82984 -41.54531,-13.62168c-2.18793,-6.52585 4.7181,-29.73064 4.7181,-37.39987c0,-28.17842 16.4881,-51.02155 36.82721,-51.02155c20.33911,0 36.82721,22.84312 36.82721,51.02155z" fill="#0d69be" stroke-width="2"/><path d="M280.99113,260.13093c0,12.67624 67.22136,18.87183 61.69838,27.79477c-6.75421,10.91216 -31.00103,8.35346 -42.19046,8.35346c-14.80347,0 -35.69429,3.82984 -41.5453,-13.62167c-2.18794,-6.52585 4.7181,-29.73065 4.7181,-37.39987c0,-8.68101 3.62809,-26.26406 5.98031,-27.52236c6.44012,-15.39599 11.33896,23.08822 11.33896,42.39567z" fill="#10157d" stroke-width="0"/></g><path d="M207.8137,336.31488c1.64651,-10.61966 16.12495,-7.3526 35.36586,-5.20927c15.39461,1.71487 31.22769,-6.50482 35.27811,-0.9438c1.01199,1.38941 -0.63734,11.79189 -0.96649,13.91478c-1.64651,10.61966 -18.57911,17.49108 -37.82003,15.34775c-19.24091,-2.14334 -33.50399,-12.48978 -31.85747,-23.10944z" data-paper-data="{&quot;index&quot;:null}" fill="#000082" stroke="#000000" stroke-width="2" stroke-linecap="butt"/><path d="M244.44947,331.77495c15.39461,1.71487 28.50887,-4.93524 32.91684,-1.68031c1.10132,0.81324 -0.52488,11.06663 -0.70291,12.21492c-0.8906,5.74417 -14.47252,6.9707 -33.71343,4.82736c-19.24091,-2.14334 -33.6148,-7.34005 -32.7242,-13.08423c0.8906,-5.74417 14.9828,-4.42106 34.2237,-2.27773z" data-paper-data="{&quot;index&quot;:null}" fill="#2e0048" stroke="#000000" stroke-width="0" stroke-linecap="butt"/><g><g><path d="M239.7991,266.71101c-7.73486,-12.20658 -5.01045,-22.63292 8.8745,-29.68013c10.85954,-5.51172 29.74023,-0.97889 37.4751,11.22772c7.73493,12.20663 4.04832,25.31053 -10.20904,31.80151c-2.22958,1.01508 -4.64266,1.39097 -6.84282,1.75177c-11.86895,1.94621 -22.77244,-4.80312 -29.29774,-15.10084z" fill="#0000c4" stroke="#000000" stroke-width="2" stroke-linecap="butt"/><path d="M274.73695,240.11378c0,0 -5.70418,2.13695 -6.02727,3.95629c-3.09933,17.45159 3.0884,29.23429 5.48581,32.99896c0.54469,0.85534 1.76003,0.90243 1.76003,0.90243c0,0 -1.89268,1.09309 -4.7513,1.77598c-3.04185,0.72667 -7.15287,1.02769 -10.39582,0.38711c-3.70437,-0.73176 -11.67661,-4.33208 -11.67661,-4.33208l-13.72729,-15.32195c0,0 2.98305,-12.09259 4.22656,-13.78094c1.21821,-1.65405 3.21941,-3.31509 5.26332,-5.15379c3.17348,-2.85482 7.57974,-4.70721 10.6524,-5.16856c3.92142,-0.58874 8.91599,0.0622 12.83237,1.18581c3.64493,1.04573 6.35769,2.55077 6.35769,2.55077z" fill="#2e006f" stroke="none" stroke-width="0" stroke-linecap="butt"/><path d="M252.7303,252.59263c0,0 7.46663,-5.34782 13.04642,-5.57082c7.06342,-0.28233 20.7235,2.49595 20.7235,2.49595" fill="none" stroke="#000000" stroke-width="1" stroke-linecap="round"/><path d="M281.68589,275.74097c0,0 -7.4447,1.81785 -12.09775,1.97366c-4.69747,0.15734 -14.67452,-2.65231 -14.67452,-2.65231" fill="none" stroke="#000000" stroke-width="1" stroke-linecap="round"/><path d="M244.38752,245.41586c0,0 7.56766,-5.58649 13.62438,-5.59479c9.29385,-0.0127 21.62464,2.03577 21.62464,2.03577" fill="none" stroke="#000000" stroke-width="1" stroke-linecap="round"/><path d="M256.28105,235.64892c0,0 17.10397,6.51175 20.75234,22.21068c3.99632,17.19619 -12.63159,24.42573 -12.63159,24.42573" fill="none" stroke="#000000" stroke-width="1" stroke-linecap="round"/><path d="M246.62021,238.72265c0,0 16.05389,9.06002 19.30843,22.90719c2.67226,11.36979 -10.66177,18.56996 -10.66177,18.56996" fill="none" stroke="#000000" stroke-width="1" stroke-linecap="round"/><path d="M284.90529,262.36014c0.07489,-1.103 0.97072,-1.95635 2.00084,-1.90609c1.03017,0.05021 1.0056,0.78116 0.9307,1.88415c-0.07489,1.103 -0.17178,2.16028 -1.20192,2.11003c-1.03017,-0.05021 -1.80456,-0.98513 -1.72962,-2.08807z" fill="#8fbbbe" stroke="none" stroke-width="0" stroke-linecap="butt"/><path d="M283.38599,268.91185c-0.30835,-0.48665 0.13977,-1.19897 1.00094,-1.59105c0.86118,-0.39208 1.27666,-0.45138 1.58504,0.03526c0.30835,0.48665 -0.04668,1.34584 -0.9079,1.7379c-0.86118,0.39208 -1.36974,0.3045 -1.67808,-0.18214z" fill="#8fbbbe" stroke="none" stroke-width="0" stroke-linecap="butt"/><path d="M285.26629,256.01376c-0.36816,-0.76762 -0.17723,-1.55847 0.42648,-1.7665c0.60365,-0.20807 0.8718,0.48218 1.23997,1.24976c0.36816,0.76762 0.69701,1.32182 0.09332,1.52988c-0.60365,0.20807 -1.39158,-0.24556 -1.75973,-1.01314z" fill="#8fbbbe" stroke="none" stroke-width="0" stroke-linecap="butt"/><path d="M270.5304,238.05519c0,0 8.13098,6.38674 11.66328,12.66891c2.00262,3.56167 2.31708,7.28677 2.51816,10.1132c0.17786,2.49955 -2.21351,8.18722 -4.57836,12.37917c-1.74109,3.08631 -3.63239,5.26347 -3.63239,5.26347" fill="none" stroke="#000000" stroke-width="0.5" stroke-linecap="round"/><path d="M290.27768,264.63894c0,0 -10.29253,4.26212 -16.13027,4.65952c-4.91843,0.33484 -16.42687,-2.13685 -16.42687,-2.13685" fill="none" stroke="#000000" stroke-width="1" stroke-linecap="round"/><path d="M256.39508,261.89915c0,0 9.46058,-3.80733 14.2735,-4.58585c8.45058,-1.36692 19.31024,1.21729 19.31024,1.21729" fill="none" stroke="#000000" stroke-width="1" stroke-linecap="round"/></g><g stroke="#000000" stroke-linecap="butt"><path d="M240.82174,239.31376c6.64124,30.0938 -0.48659,36.57327 -9.10398,37.9396c-8.61739,1.36633 -20.98696,-21.9219 -27.62819,-52.01571c-6.64124,-30.09381 60.57683,3.85749 69.19421,2.49116c7.09534,2.50559 2.3428,6.94411 -5.94997,8.5806c-10.22692,2.01817 -27.07973,0.43206 -26.51207,3.00436z" fill="#0d69be" stroke-width="2"/><path d="M258.68478,259.88111c2.85058,12.91703 -7.51016,25.39751 -23.14141,27.87591c-15.63124,2.47842 -30.61371,-5.98375 -33.46433,-18.90078c-2.85058,-12.91703 7.51018,-25.3975 23.14142,-27.87591c15.63124,-2.47842 30.61372,5.98374 33.46432,18.90078z" fill="#faddbf" stroke-width="2"/><path d="M214.03919,256.0566c2.85058,12.91702 37.38531,28.38129 21.75407,30.85969c-15.63124,2.47842 -30.61371,-5.98374 -33.46431,-18.90077c-2.85058,-12.91703 8.85964,-24.87596 11.71023,-11.95893z" fill="#ef8b89" stroke-width="0"/></g></g><g stroke="#000000" stroke-linecap="butt"><path d="M409.41871,336.39979c1.47305,10.63796 -12.95753,20.81617 -32.23157,22.7337c-19.27405,1.91752 -36.09289,-5.15178 -37.56594,-15.78973c-0.29447,-2.12654 -1.77388,-12.54736 -0.73931,-13.92478c4.1408,-5.51299 19.83823,2.89156 35.25935,1.35735c19.27405,-1.91752 33.80442,-5.0145 35.27746,5.62345z" fill="#000082" stroke-width="2"/><path d="M407.0438,334.10955c0.79677,5.75406 -13.66054,10.78176 -32.9346,12.69928c-19.27405,1.91752 -32.83466,0.53187 -33.63143,-5.22219c-0.15927,-1.15025 -1.61799,-11.42174 -0.50351,-12.22199c4.46067,-3.20294 17.46515,3.60032 32.88627,2.0661c19.27405,-1.91752 33.38649,-3.07527 34.18327,2.67879z" fill="#2e0048" stroke-width="0"/></g><g stroke-linecap="butt"><g stroke="#000000"><g><path d="M246.87072,181.89578c11.60397,-41.83129 61.01782,-67.76874 110.36891,-57.93291c49.35109,9.83583 79.95119,51.72031 68.34722,93.5516c-11.60397,41.83129 -61.01782,67.76874 -110.36891,57.93292c-49.35109,-9.83583 -79.9512,-51.72031 -68.34723,-93.5516z" fill="#faddbf" stroke-width="2"/><path d="M247.32974,181.16695c3.73341,-13.45864 19.30163,-34.84444 24.8545,-36.77008c0.63415,-0.21992 8.31277,-6.74951 17.91047,-11.17325c11.92927,-5.49842 26.23979,-9.0694 26.8351,-8.76484c7.76715,3.9736 -34.56938,54.29652 -39.5345,77.16633c-0.01184,0.05453 -0.23731,18.53985 1.36089,19.27245c1.86727,4.84636 4.85947,19.03845 14.56545,27.70912c18.08824,16.15883 46.73926,27.88218 45.04939,28.0225c-2.70319,0.22447 -16.29939,-0.63613 -22.69405,-1.91061c-49.35109,-9.83583 -79.95119,-51.72031 -68.34722,-93.5516z" fill="#ef8b89" stroke-width="0"/><path d="M425.14841,216.99482c-2.88279,10.39224 -5.54305,13.65123 -5.66609,11.87973c-0.12554,-1.80726 2.23685,-8.81269 -5.90441,-14.99735c-1.9728,-1.49867 -12.32115,3.46539 -14.89344,1.79407c-1.61569,-1.0498 -6.60208,-10.91575 -8.45282,-11.92241c-1.294,-0.70383 -15.20896,4.87249 -16.57333,4.1754c-3.40279,-1.73854 -9.8239,-12.68812 -13.61718,-14.06493c-2.08886,-0.75818 -12.72944,8.64244 -14.89091,7.97217c-2.78749,-0.86441 -7.62663,-12.90576 -10.51381,-13.48119c-7.67819,-1.53029 -9.62771,4.69539 -16.64165,8.96395c-4.55784,2.77382 -11.51702,-14.60896 -15.91167,-11.30051c-5.45765,4.10869 -10.82509,8.04831 -16.19088,10.3749c-4.20966,1.82531 -11.59142,-11.83593 -15.27399,-10.10018c-17.78041,8.38069 -28.55914,13.78405 -24.05258,-2.4617c9.06185,-32.66715 47.69318,1.75652 97.09954,-8.70097c47.29128,-10.00981 90.54507,9.20188 81.48323,41.86903z" fill="#ef8b89" stroke-width="0"/></g><path d="M428.82727,209.88727c-5.8238,20.99427 4.72774,9.16458 -11.88088,-3.1795c-2.03241,-1.51055 -12.6047,3.40887 -15.25276,1.72245c-1.66329,-1.05928 -6.84246,-10.96367 -8.74636,-11.98091c-1.33118,-0.71125 -15.55485,4.80354 -16.95809,4.09872c-3.49975,-1.75786 -10.15695,-12.75451 -14.05445,-14.15208c-2.14624,-0.76961 -12.98734,8.59106 -15.2074,7.90911c-2.86305,-0.87947 -7.90636,-12.96152 -10.86958,-13.5521c-7.88044,-1.5706 -9.83551,4.65396 -16.99499,8.89353c-4.65239,2.75498 -11.90564,-14.68642 -16.38708,-11.39527c-5.56541,4.08722 -11.03958,8.00557 -16.52317,10.30868c-4.3021,1.80689 -11.96272,-11.90993 -15.72517,-10.1901c-18.1662,8.3038 -29.17657,13.66099 -24.67001,-2.58475c9.06185,-32.66715 62.19533,-64.26483 110.63521,-54.6106c48.43986,9.65422 81.69663,56.0457 72.63479,88.71285z" fill="#873412" stroke-width="2"/><path d="M428.85437,208.79565c-5.8238,20.99427 4.72773,9.16458 -11.88089,-3.1795c-2.03241,-1.51055 -12.6047,3.40888 -15.25276,1.72245c-1.66329,-1.05928 -6.84246,-10.96367 -8.74637,-11.98091c-1.33118,-0.71125 -15.55485,4.80355 -16.95809,4.09872c-3.49975,-1.75786 -10.15696,-12.75451 -14.05445,-14.15208c-2.14624,-0.76961 -12.98734,8.59105 -15.2074,7.9091c-2.86305,-0.87947 -7.90636,-12.96152 -10.86958,-13.5521c-7.88044,-1.5706 -9.83551,4.65396 -16.99498,8.89352c-4.65239,2.75498 -11.90564,-14.68641 -16.38709,-11.39526c-5.56541,4.08722 -11.03957,8.00557 -16.52319,10.30867c-4.3021,1.80689 -11.96273,-11.90993 -15.72517,-10.1901c-18.1662,8.3038 -29.17657,13.661 -24.67,-2.58475c9.06184,-32.66715 48.8958,1.99621 99.46298,-8.22992c48.40239,-9.78835 92.86885,9.66502 83.80701,42.33217z" fill="#741d23" stroke-width="0"/></g><path d="M356.12539,130.95448c0.03993,0.11704 0.06344,0.24766 0.07354,0.38821c0.03509,0.25148 0.02128,0.5121 -0.04792,0.77287c-0.16714,1.03874 -0.67067,2.23752 -0.74521,2.68691c-0.09794,0.59043 1.44077,-0.4179 2.09669,-0.20252c0.40179,0.13192 0.64497,0.84709 1.02222,0.67064c2.28952,-1.07078 4.68979,-3.29076 7.19252,-1.26054c0.82886,0.67236 0.2444,1.83244 0.67016,2.56328c0.03579,0.06144 2.78586,0.42635 3.28191,1.02799c0.85473,1.03669 -0.22179,2.08029 0.08373,3.07769c0.09775,0.31916 0.7156,-0.27462 1.09799,-0.33515c1.70184,-0.26939 4.71357,-0.95365 6.31411,0.31041c0.84335,0.66605 0.25313,2.06898 0.6782,2.57059c0.74519,0.87939 2.3779,-0.81396 3.62079,-1.06382c1.71899,-0.3456 2.31232,0.43384 3.405,1.48762c0.18846,0.18175 -0.52596,3.79347 0.34945,5.06018c0.49206,0.71202 1.95488,-0.42049 2.90621,-0.24527c0.94919,0.17484 3.04231,-0.08947 3.46157,0.09184c0.84099,0.3637 1.25069,1.79731 2.15251,1.56044c4.60439,-1.20929 9.42471,1.11821 6.4703,5.20893c-0.37389,0.51769 1.53657,-0.23521 2.14606,0.08346c0.23628,0.12353 1.41595,1.30281 1.6769,1.27369c1.70687,-0.19053 2.87535,-0.63417 4.55453,-0.30315c1.39453,0.27491 2.54801,1.20659 2.52919,2.50523c-0.00988,0.68249 -1.57848,1.68844 -0.82319,1.92507c1.78034,0.55779 4.47541,1.77924 3.03159,3.88545c-1.56729,2.28631 -4.58703,3.93845 -6.78202,1.52829c-0.76156,-0.83621 -2.73852,0.62654 -3.73884,-0.00355c-1.28149,-0.80719 -1.41853,-2.99353 -1.05134,-4.03038c0.16974,-0.47932 -1.22476,0.10873 -1.76827,-0.08674c-0.73178,-0.26317 -0.82266,-1.31058 -1.58066,-1.51355c-1.69547,-0.45396 -2.24314,2.63433 -6.1473,1.11416c-1.15236,-0.44869 -2.11279,-2.47871 -2.2408,-3.54005c-0.0743,-0.61609 2.18296,-2.06462 2.04243,-2.19224c-0.3412,-0.30988 -2.75345,2.11873 -3.23847,2.15616c-1.16685,0.09006 -2.17134,-0.791 -3.11657,-1.37788c-0.83511,-0.5185 -1.68513,1.44717 -2.70442,1.29403c-0.9005,-0.1353 -9.74556,-2.39753 -9.9745,-2.91769c-0.27912,-0.63416 -0.43873,-1.71108 -0.09639,-2.3124c0.12304,-0.21611 1.48587,-1.44094 1.28937,-1.4611c-0.69737,-0.07154 -5.27035,2.19474 -6.75146,-1.17048c-0.80541,-1.82997 1.91786,-3.0127 2.32405,-4.464c0.25085,-0.89625 -1.58508,1.26474 -2.30018,1.95834c-0.54924,0.53274 -1.83723,0.8653 -2.66027,0.72484c-2.84568,-0.48567 -1.43023,-2.61985 -1.64749,-4.09188c-0.10027,-0.67933 -1.81171,0.20042 -2.40265,-0.26629c-1.44485,-1.14109 -0.90759,-2.13265 -0.67286,-3.53138c0.10748,-0.64045 -1.25207,2.31202 -3.02798,2.11521c-0.72021,-0.07983 -1.58286,-1.20924 -2.01077,-0.71172c-2.08323,2.42213 -1.6401,3.65396 -5.52457,2.42592c-0.37484,-0.1185 -1.22855,0.50581 -1.58731,0.22245c-3.97079,-3.13605 1.05956,-7.27159 2.18227,-10.82921c0.39604,-1.25492 -0.05612,-3.33923 1.41324,-3.70846c0.64141,-0.56733 1.61,-0.84064 2.57776,-0.64777c0.85809,0.17102 1.52407,0.67039 1.85635,1.30432c0.05949,0.08448 0.1074,0.17498 0.14086,0.27303z" fill="#ba587e" stroke="none" stroke-width="0.5"/></g><g stroke="#000000" stroke-linecap="butt"><path d="M342.01368,225.63331c-7.08254,25.53188 -24.6245,35.93299 -42.09965,32.45015c-17.47514,-3.48285 -28.26597,-19.53079 -21.18344,-45.06268c7.08254,-25.53188 26.99045,-43.40616 44.46559,-39.92331c17.47514,3.48285 25.90003,27.00395 18.81751,52.53583z" fill="#a100fe" stroke-width="2"/><path d="M297.79148,198.29805c-9.02752,19.03806 19.34305,47.23544 19.14209,56.68205c-0.05593,2.62883 -12.10291,3.25301 -15.90726,2.49479c-17.47514,-3.48285 -28.26598,-19.53078 -21.18345,-45.06267c7.08254,-25.53188 34.63163,-49.29688 17.94863,-14.11418z" fill="#99008e" stroke-width="0"/></g><g data-paper-data="{&quot;index&quot;:null}" stroke="#000000" stroke-linecap="butt"><path d="M389.39863,188.31503c17.47514,3.48285 25.90003,27.00396 18.81751,52.53584c-7.08253,25.53188 -25.17961,35.82236 -42.65475,32.33951c-17.47514,-3.48285 -27.71086,-19.42013 -20.62833,-44.95203c7.08254,-25.53188 26.99044,-43.40617 44.46559,-39.92332z" fill="#a100fe" stroke-width="2"/><path d="M407.75121,239.9749c-7.08253,25.53188 -25.17961,35.82236 -42.65475,32.33951c-4.74986,-0.94666 -18.24853,-8.4616 -15.44354,-11.86933c7.51483,-9.12961 47.65658,-20.84652 49.45061,-39.88507c3.56174,-37.79781 15.73022,-6.11698 8.64768,19.4149z" fill="#99008e" stroke-width="0"/></g><path d="M267.21616,229.68183c-3.39434,3.68149 -8.33469,5.21607 -11.03457,3.42759c-2.69989,-1.78849 -2.13692,-6.22278 1.25743,-9.90427c3.39434,-3.68149 8.33469,-5.21607 11.03457,-3.42759c2.69989,1.78849 2.13692,6.22278 -1.25743,9.90427z" fill="#000000" stroke="none" stroke-width="0" stroke-linecap="butt"/></g></g></svg>