<svg version="1.1" xmlns="http://www.w3.org/2000/svg" xmlns:xlink="http://www.w3.org/1999/xlink" width="264.12802" height="287.46778" viewBox="0,0,264.12802,287.46778"><g transform="translate(-173.82884,-43.11033)"><g data-paper-data="{&quot;isPaintingLayer&quot;:true}" fill-rule="nonzero" stroke-linejoin="miter" stroke-miterlimit="10" stroke-dasharray="" stroke-dashoffset="0" style="mix-blend-mode: normal"><g data-paper-data="{&quot;index&quot;:null}" stroke="#000000" stroke-linecap="butt"><path d="M373.91513,251.00128v-41.82693h62.43252v41.82693z" fill="#ffcaa0" stroke-width="2"/><g><path d="M373.7106,209.33124v-57.67476h63.24627v57.67476z" fill="#ff0008" stroke-width="2"/><path d="M374.62091,209.51616v-30.20833c0,0 18.91877,12.54808 29.41847,12.54808c9.95528,0 32.03344,-12.54808 32.03344,-12.54808v30.20834c0,0 -20.21216,0 -30.39908,0c-10.29588,0 -31.05282,0 -31.05282,0z" fill="#8d005e" stroke-width="0"/></g><path d="M374.88312,250.52755v-41.82693l16.01671,28.34936l46.41581,13.47757z" fill="#ff6e5b" stroke-width="0"/></g><g data-paper-data="{&quot;index&quot;:null}" stroke="#000000" stroke-linecap="butt"><path d="M433.07652,104.75977c0,28.02822 -14.54882,50.74958 -32.4957,50.74958c-17.9469,0 -32.4957,-22.72137 -32.4957,-50.74958c0,-28.02822 14.54882,-50.74958 32.4957,-50.74958c17.9469,0 32.4957,22.72137 32.4957,50.74958z" fill="#01930e" stroke-width="2"/><path d="M379.32367,96.01459c0,28.02822 39.69597,59.11691 21.7491,59.11691c-17.94689,0 -32.4957,-22.72137 -32.4957,-50.74958c0,-28.02822 10.74662,-36.39554 10.74662,-8.36732z" fill="#31525b" stroke-width="0"/></g><g data-paper-data="{&quot;index&quot;:null}" stroke="#000000" stroke-linecap="butt"><path d="M301.72049,329.19136v-78.56286h74.89711v78.56286z" fill="#273750" stroke-width="2"/><path d="M302.68437,328.53293v-78.56286l22.55897,42.91937l52.33809,35.64349z" fill="#1f1e2e" stroke-width="0"/></g><path d="M238.07928,250.27057v-99.04134h139.31906v99.04134z" data-paper-data="{&quot;index&quot;:null}" fill="#ff0008" stroke="#000000" stroke-width="2" stroke-linecap="butt"/><g data-paper-data="{&quot;index&quot;:null}" stroke="#000000" stroke-linecap="butt"><path d="M237.31876,329.57811v-78.56286h74.89711v78.56286z" fill="#273750" stroke-width="2"/><path d="M238.28269,328.91964v-78.56286l22.55897,42.91937l52.33809,35.64349z" fill="#1f1e2e" stroke-width="0"/></g><g data-paper-data="{&quot;index&quot;:null}" stroke="#000000" stroke-linecap="butt"><path d="M175.0334,250.70317v-41.82693h62.43252v41.82693z" fill="#ffcaa0" stroke-width="2"/><g><path d="M174.82884,209.03314v-57.67476h63.24627v57.67476z" fill="#ff0008" stroke-width="2"/><path d="M175.73916,209.21806v-30.20833c0,0 18.91877,12.54808 29.41847,12.54808c9.95528,0 32.03344,-12.54808 32.03344,-12.54808v30.20834c0,0 -20.21216,0 -30.39908,0c-10.29588,0 -31.05282,0 -31.05282,0z" fill="#8d005e" stroke-width="0"/></g><path d="M176.00136,250.22944v-41.82693l16.01671,28.34936l46.41581,13.47757z" fill="#ff6e5b" stroke-width="0"/></g><g data-paper-data="{&quot;index&quot;:null}" fill="#000000" stroke="#000000" stroke-linecap="butt"><path d="M271.00258,249.86222v-97.19792h74.89711v97.19792z" stroke-width="2"/><path d="M271.96652,249.04758v-97.19792l22.55897,53.09981l52.33809,44.0981z" stroke-width="0"/></g><g data-paper-data="{&quot;index&quot;:null}" stroke="#000000" stroke-linecap="butt"><path d="M215.86365,103.39404c0,-1.19794 1.08585,-23.82887 1.2109,-25.00844c3.16027,-29.80715 44.63566,-31.9707 96.59734,-31.9707c48.80983,0 90.97301,3.95301 98.32108,31.18524c0.78407,2.90578 -0.51283,22.75983 -0.51283,25.79392c0,10.84493 3.65985,34.68102 -5.36809,43.31038c-17.16844,16.41046 -57.03815,13.66876 -92.44019,13.66876c-37.43124,0 -72.33702,0.854 -88.7791,-17.13897c-7.28592,-7.97316 -9.02917,-30.17739 -9.02917,-39.84015z" fill="#ffcaa0" stroke-width="2"/><path d="M213.61919,103.40291c0,-1.19794 1.08585,-23.82887 1.2109,-25.00844c1.79551,-16.935 8.40252,52.70208 66.90444,71.78335c45.84611,14.95338 126.56186,-7.02864 122.93219,-3.55922c-17.16844,16.41046 -57.83723,13.76345 -93.23926,13.76345c-37.43124,0 -72.33702,0.854 -88.7791,-17.13897c-7.28592,-7.97316 -9.02917,-30.17739 -9.02917,-39.84015z" fill="#ff6e5b" stroke-width="0"/></g><g data-paper-data="{&quot;index&quot;:null}" stroke="#000000" stroke-linecap="butt"><path d="M271.38534,102.95483c0,28.02822 -14.54882,50.74958 -32.4957,50.74958c-17.9469,0 -32.4957,-22.72137 -32.4957,-50.74958c0,-28.02822 14.54882,-50.74958 32.4957,-50.74958c17.9469,0 32.4957,22.72137 32.4957,50.74958z" fill="#01930e" stroke-width="2"/><path d="M217.63248,94.20967c0,28.02822 39.69597,59.11691 21.7491,59.11691c-17.94689,0 -32.4957,-22.72137 -32.4957,-50.74958c0,-28.02822 10.74662,-36.39554 10.74662,-8.36732z" fill="#31525b" stroke-width="0"/></g><g data-paper-data="{&quot;index&quot;:null}" stroke-linecap="butt"><path d="M431.56108,70.94076c0,15.37032 -50.6345,27.83043 -113.09533,27.83043c-62.46083,0 -113.09532,-12.46012 -113.09532,-27.83043c0,-15.37032 50.63449,-27.83042 113.09532,-27.83042c62.46083,0 113.09533,12.46011 113.09533,27.83043z" fill="#000000" stroke="none" stroke-width="NaN"/><path d="M430.66725,71.24041c0,15.37032 -50.6345,27.83043 -113.09533,27.83043c-62.46083,0 -113.09532,-12.46012 -113.09532,-27.83043c0,-15.37032 52.38824,7.70126 114.84906,7.70126c62.46083,0 111.3416,-23.07159 111.3416,-7.70126z" fill="#ff0000" stroke="#000000" stroke-width="2"/><path d="M424.0738,79.24449c0,4.22978 -44.49642,20.43761 -106.95725,19.1909c-21.85752,-0.43628 -42.47662,-1.85651 -59.2887,-4.42724c-31.2118,-4.77259 -50.37295,-12.24195 -47.52346,-15.80127c2.94301,-3.67611 46.10508,14.68914 108.5659,14.68914c62.46083,0 105.20349,-17.88131 105.20349,-13.65154z" fill="#900056" stroke="#000000" stroke-width="0"/></g><path d="M345.3231,124.95927c0,13.67895 -3.55647,24.76794 -7.94362,24.76794c-4.38715,0 -7.94362,-11.08897 -7.94362,-24.76793c0,-13.67895 3.55648,-24.76793 7.94362,-24.76793c4.38715,0 7.94362,11.08897 7.94362,24.76794z" data-paper-data="{&quot;index&quot;:null}" fill="#000000" stroke="none" stroke-width="0" stroke-linecap="butt"/><path d="M376.84653,121.19817c0,13.62422 -3.36931,24.66885 -7.52554,24.66885c-4.15624,0 -7.52554,-11.04462 -7.52554,-24.66885c0,-13.62422 3.36931,-24.66885 7.52554,-24.66885c4.15624,0 7.52554,11.04462 7.52554,24.66885z" data-paper-data="{&quot;index&quot;:null}" fill="#000000" stroke="none" stroke-width="0" stroke-linecap="butt"/><path d="M305.5152,145.38071c-0.62647,-1.49246 -1.20646,-2.99354 -1.89872,-4.47104c-0.58882,-1.00335 -1.01777,-1.70039 -1.53903,-2.73641c-1.18757,-2.36043 -5.04403,-3.80013 -5.62074,-0.22297c-0.52028,3.22708 0.44691,7.03892 2.19349,9.99977c0,0 0.58857,1.00419 -0.824,1.42261c-1.41259,0.41842 -2.00115,-0.58579 -2.00115,-0.58579c-1.98302,-3.40282 -3.83417,-8.97119 -1.85505,-12.56707c1.92511,-3.49775 8.00649,-3.5081 10.30984,-0.19857c0.88986,1.27859 1.42605,2.79845 2.2029,4.12552c0.73702,1.57072 1.35459,3.16513 2.02392,4.75126l0.06454,0.42149c0,0 0,1.08788 -1.53028,1.08788c-1.30983,0 -1.49852,-0.79702 -1.52569,-1.02666z" data-paper-data="{&quot;index&quot;:null}" fill="#000000" stroke="none" stroke-width="0.5" stroke-linecap="butt"/><path d="M349.16592,101.686h-36.72687" fill="none" stroke="#000000" stroke-width="5" stroke-linecap="round"/><path d="M360.24228,99.40665l28.56535,-3.93707" fill="none" stroke="#000000" stroke-width="5" stroke-linecap="round"/></g></g></svg>