<svg version="1.1" xmlns="http://www.w3.org/2000/svg" xmlns:xlink="http://www.w3.org/1999/xlink" width="222.55698" height="267.04849" viewBox="0,0,222.55698,267.04849"><g transform="translate(-195.49856,-93.06096)"><g data-paper-data="{&quot;isPaintingLayer&quot;:true}" fill-rule="nonzero" stroke-linejoin="miter" stroke-miterlimit="10" stroke-dasharray="" stroke-dashoffset="0" style="mix-blend-mode: normal"><g stroke="#000000" stroke-linecap="butt"><path d="M336.18327,225.30622c32.99279,-0.56083 59.73498,4.90235 59.73034,12.20234c-0.00466,7.3 -26.75439,13.67246 -59.74718,14.2333c-32.99279,0.56083 -59.73498,-4.90235 -59.73034,-12.20234c0.00466,-7.3 26.75439,-13.67246 59.74719,-14.2333z" fill="#0d69be" stroke-width="2"/><path d="M382.05704,212.53439c14.16135,-0.24071 25.63455,10.29857 25.62609,23.54018c-0.00844,13.24159 -11.49532,24.17121 -25.65667,24.41191c-14.16137,0.24071 -25.63455,-10.29857 -25.62609,-23.54018c0.00843,-13.2416 11.49532,-24.1712 25.65667,-24.41191z" fill="#faddbf" stroke-width="2"/><path d="M370.48464,248.58162c14.16137,-0.24071 36.35855,-26.09066 36.35012,-12.84905c-0.00844,13.24159 -11.49533,24.17119 -25.65667,24.41191c-14.16137,0.24071 -24.8548,-11.32213 -10.69344,-11.56286z" fill="#ef8b89" stroke-width="0"/></g><g stroke="#000000" stroke-linecap="butt"><path d="M347.17244,354.63561l-57.93711,-67.55557l23.4153,-16.00984l57.93712,67.55557z" fill="#73fffc" stroke-width="2"/><path d="M346.53812,354.37439l-55.96657,-67.20565c0,0 45.54153,45.46111 52.20084,51.49737c1.47217,1.33443 3.69876,0.60854 3.69876,0.60854l22.76097,-0.7863z" fill="#59a9e6" stroke-width="0"/></g><g stroke="#000000" stroke-linecap="butt"><path d="M251.67518,330.10137l36.09093,-78.74908l27.29506,9.97306l-36.09093,78.74909z" fill="#73fffc" stroke-width="2"/><path d="M251.60773,329.48057l36.74682,-77.05343c0,0 -20.98077,58.04551 -23.4576,66.22477c-0.54755,1.80818 1.27778,3.15841 1.27778,3.15841l12.24444,17.14969z" fill="#59a9e6" stroke-width="0"/></g><g stroke="#000000" stroke-linecap="butt"><path d="M335.22917,248.94793c0,12.32424 10.04743,32.80807 4.95001,41.48325c-6.2338,10.60915 -28.61241,8.1215 -38.9397,8.1215c-13.66287,0 -32.94407,3.72349 -38.34426,-13.24342c-2.01935,-6.34463 4.35457,-28.90505 4.35457,-36.36133c0,-27.39594 15.2177,-49.60475 33.98969,-49.60475c18.77199,0 33.98969,22.2088 33.98969,49.60475z" fill="#0d69be" stroke-width="2"/><path d="M283.96554,262.85605c0,12.32424 62.04198,18.34778 56.94455,27.02294c-6.2338,10.60914 -28.61241,8.1215 -38.9397,8.1215c-13.66287,0 -32.94406,3.72349 -38.34425,-13.24341c-2.01936,-6.34463 4.35457,-28.90506 4.35457,-36.36133c0,-8.43995 3.34855,-25.53474 5.51953,-26.7581c5.94391,-14.96846 10.4653,22.44709 10.4653,41.2184z" fill="#10157d" stroke-width="0"/></g><g><g><path d="M226.60416,238.06223c4.37904,-13.0587 14.05732,-18.58031 28.2628,-15.04256c11.11028,2.76688 19.67108,17.27931 15.29203,30.33804c-4.37903,13.05879 -16.70984,19.83989 -30.7285,15.69502c-2.19225,-0.64818 -4.01423,-1.84641 -5.68921,-2.92652c-9.03575,-5.82682 -10.83138,-17.04737 -7.13714,-28.06396z" fill="#0000c4" stroke="#000000" stroke-width="2" stroke-linecap="butt"/><path d="M269.10328,240.87123c0,0 -5.25815,-1.97446 -6.85004,-0.91904c-15.26993,10.12379 -20.3105,21.95728 -21.6535,25.99194c-0.30514,0.91667 0.43237,1.68266 0.43237,1.68266c0,0 -2.03732,-0.39118 -4.37675,-1.64739c-2.48937,-1.3367 -5.3348,-3.61135 -6.91036,-6.00917c-1.7997,-2.73902 -4.12947,-10.02584 -4.12947,-10.02584l2.93959,-18.81714c0,0 11.11251,-6.51071 13.19031,-6.92051c2.03554,-0.40148 4.5747,-0.33516 7.27637,-0.36515c4.19474,-0.04655 8.41013,1.34005 10.71696,2.87772c2.94401,1.96244 5.62629,5.4247 7.26232,8.56104c1.52264,2.91893 2.10208,5.59086 2.10208,5.59086z" fill="#2e006f" stroke="none" stroke-width="0" stroke-linecap="butt"/><path d="M245.59078,236.16418c0,0 8.82629,0.83148 12.54691,4.04634c4.70994,4.06964 11.28554,14.22482 11.28554,14.22482" fill="none" stroke="#000000" stroke-width="1" stroke-linecap="round"/><path d="M246.37821,269.55276c0,0 -6.12259,-3.24441 -9.20227,-5.94606c-3.10912,-2.72739 -7.31715,-10.68093 -7.31715,-10.68093" fill="none" stroke="#000000" stroke-width="1" stroke-linecap="round"/><path d="M245.75037,226.19556c0,0 9.07245,0.7284 12.93296,4.37873c5.92381,5.60133 12.20962,14.4525 12.20962,14.4525" fill="none" stroke="#000000" stroke-width="1" stroke-linecap="round"/><path d="M260.76098,226.66193c0,0 5.92231,14.80006 -3.71826,27.79237c-10.56001,14.23143 -26.6499,9.16327 -26.6499,9.16327" fill="none" stroke="#000000" stroke-width="1" stroke-linecap="round"/><path d="M252.2712,222.94297c0,0 3.31238,15.91766 -5.1678,27.3995c-6.96301,9.42763 -20.93446,6.32755 -20.93446,6.32755" fill="none" stroke="#000000" stroke-width="1" stroke-linecap="round"/><path d="M258.62273,262.2993c0.88811,-0.71289 2.10841,-0.75865 2.72563,-0.1023c0.61728,0.65634 0.04469,1.14392 -0.84342,1.85679c-0.88811,0.71289 -1.75539,1.3811 -2.37263,0.72474c-0.61728,-0.65634 -0.39768,-1.76637 0.49042,-2.4792z" fill="#8fbbbe" stroke="none" stroke-width="0" stroke-linecap="butt"/><path d="M252.66368,265.88527c0.17459,-0.52061 1.00253,-0.73971 1.84929,-0.48933c0.84677,0.25036 1.15634,0.4604 0.98177,0.98101c-0.17459,0.52061 -1.05521,0.8968 -1.90196,0.64645c-0.84677,-0.25036 -1.10366,-0.61752 -0.92906,-1.13813z" fill="#8fbbbe" stroke="none" stroke-width="0" stroke-linecap="butt"/><path d="M263.68824,258.15527c0.35064,-0.74982 1.07474,-1.17812 1.61742,-0.9567c0.54266,0.22136 0.18735,0.85765 -0.16323,1.60745c-0.35064,0.74982 -0.56364,1.32922 -1.10635,1.10785c-0.54266,-0.22136 -0.69844,-1.00878 -0.34783,-1.75856z" fill="#8fbbbe" stroke="none" stroke-width="0" stroke-linecap="butt"/><path d="M267.99505,236.91711c0,0 0.30759,9.29777 -2.23147,15.74778c-1.43954,3.65683 -4.07786,6.40694 -6.10359,8.47095c-1.79141,1.82534 -7.64703,4.29102 -12.34607,5.74468c-3.45963,1.07028 -6.32211,1.42502 -6.32211,1.42502" fill="none" stroke="#000000" stroke-width="0.5" stroke-linecap="round"/><path d="M260.30505,267.10847c0,0 -9.79727,-3.28348 -13.81492,-6.53419c-3.38498,-2.73877 -8.82501,-11.38443 -8.82501,-11.38443" fill="none" stroke="#000000" stroke-width="1" stroke-linecap="round"/><path d="M240.83152,244.77282c0,0 8.92133,3.09386 12.57725,5.46401c6.41907,4.16153 11.36053,12.4929 11.36053,12.4929" fill="none" stroke="#000000" stroke-width="1" stroke-linecap="round"/></g><g stroke="#000000" stroke-linecap="butt"><path d="M248.13094,219.84912c-18.70458,24.69264 -28.17758,24.84347 -34.70236,20.58085c-6.5248,-4.26263 3.34891,-27.73552 22.0535,-52.42818c18.70458,-24.69264 35.60874,39.21729 42.13352,43.47991c2.60593,6.00508 -3.80041,6.18695 -10.32448,2.30596c-8.0457,-4.78617 -17.56139,-16.0492 -19.1602,-13.93856z" fill="#0d69be" stroke-width="2"/><path d="M243.82627,244.76794c-8.02849,10.59871 -24.13136,12.92261 -35.96678,5.19056c-11.83543,-7.73205 -14.92157,-22.59205 -6.89309,-33.19077c8.02849,-10.59871 24.13138,-12.9226 35.9668,-5.19056c11.83543,7.73205 14.92157,22.59205 6.89307,33.19077z" fill="#faddbf" stroke-width="2"/><path d="M218.33024,215.1899c-8.02849,10.59871 2.16429,42.07366 -9.67113,34.34162c-11.83543,-7.73205 -14.92157,-22.59205 -6.89307,-33.19077c8.02849,-10.59871 24.59269,-11.74957 16.56421,-1.15085z" fill="#ef8b89" stroke-width="0"/></g></g><g stroke="#000000" stroke-linecap="butt"><path d="M402.49782,337.00703c1.35955,10.34256 -11.95915,20.23815 -29.74814,22.10241c-17.78899,1.86428 -33.31195,-5.00871 -34.6715,-15.35128c-0.27178,-2.06749 -1.6372,-12.19894 -0.68234,-13.5381c3.82175,-5.3599 18.3097,2.81127 32.54263,1.31966c17.78899,-1.86428 31.1998,-4.87526 32.55935,5.46729z" fill="#000082" stroke-width="2"/><path d="M400.30589,334.78036c0.73538,5.59428 -12.608,10.48235 -30.397,12.34664c-17.78899,1.86428 -30.30476,0.5171 -31.04014,-5.07718c-0.147,-1.11832 -1.49333,-11.10458 -0.46472,-11.88259c4.11698,-3.11398 16.11947,3.50033 30.3524,2.00873c17.78899,-1.86428 30.81407,-2.98988 31.54946,2.60441z" fill="#2e0048" stroke-width="0"/></g><g stroke="#000000" stroke-linecap="butt"><path d="M247.26455,284.93778c11.22347,-2.12732 12.45469,10.36225 16.30773,26.25051c3.08281,12.71216 16.32064,22.56402 11.97903,27.55798c-1.08474,1.24773 -12.09009,3.30273 -14.33369,3.72797c-11.22347,2.12732 -23.44539,-9.02813 -27.29844,-24.9164c-3.85303,-15.88826 2.12187,-30.49276 13.34534,-32.62008z" data-paper-data="{&quot;index&quot;:null}" fill="#000082" stroke-width="2"/><path d="M263.29427,312.40729c3.08281,12.71216 13.88803,20.92331 11.98362,25.45533c-0.47581,1.13231 -11.3236,3.15745 -12.53716,3.38747c-6.07077,1.15067 -11.55306,-9.18044 -15.40608,-25.06871c-3.85303,-15.88826 -3.10571,-28.91808 2.96507,-30.06875c6.07077,-1.15067 9.14153,10.40639 12.99456,26.29465z" data-paper-data="{&quot;index&quot;:null}" fill="#2e0048" stroke-width="0"/></g><g stroke-linecap="butt"><g><g stroke="#000000"><g><path d="M250.69339,145.69524c15.83517,-39.22444 64.32306,-59.25453 108.30071,-44.73846c43.97766,14.51607 66.79165,58.08136 50.95648,97.3058c-15.83517,39.22444 -64.32306,59.25453 -108.30071,44.73846c-43.97766,-14.51607 -66.79165,-58.08136 -50.95648,-97.3058z" fill="#faddbf" stroke-width="2"/><path d="M251.20455,145.03792c5.09473,-12.61991 22.016,-31.69363 27.34171,-32.9892c0.60821,-0.14796 8.45399,-5.67429 17.7954,-8.9716c11.61073,-4.09834 25.16257,-6.09298 25.66993,-5.73831c6.61953,4.62742 -38.42134,48.93018 -45.81566,70.51492c-0.01764,0.05147 -2.52504,17.88305 -1.1524,18.7531c1.10705,4.87075 2.08118,18.88268 9.89189,28.24396c14.55618,17.44586 39.33916,31.68115 37.77389,31.64492c-2.50385,-0.05793 -14.84985,-2.27105 -20.54826,-4.15196c-43.97766,-14.51607 -66.79165,-58.08136 -50.95648,-97.3058z" fill="#ef8b89" stroke-width="0"/><path d="M409.61368,197.71609c-3.93397,9.7446 -6.77622,12.62201 -6.6684,10.89846c0.10998,-1.75833 3.14572,-8.28462 -3.54126,-15.08567c-1.62039,-1.64804 -11.7166,2.09487 -13.86459,0.21912c-1.34917,-1.17819 -4.68832,-11.21428 -6.25815,-12.37468c-1.0976,-0.81133 -14.53677,3.16043 -15.69965,2.34846c-2.9003,-2.02507 -7.41864,-13.25362 -10.72165,-14.96896c-1.81886,-0.9446 -12.73496,7.05376 -14.63127,6.18666c-2.44554,-1.11823 -5.37903,-13.24052 -7.95183,-14.08974c-6.84217,-2.25845 -9.40272,3.55662 -16.35828,6.96666c-4.5199,2.21592 -8.73033,-15.28099 -13.16731,-12.53211c-5.51022,3.41379 -10.91678,6.67345 -16.12102,8.37527c-4.08293,1.33517 -9.14365,-12.61015 -12.73265,-11.30792c-17.32869,6.28756 -27.87377,10.41102 -21.72397,-4.82232c12.3661,-30.63139 43.46477,6.54396 90.01898,1.46482c44.56122,-4.8617 81.78717,18.09057 69.42109,48.72196z" fill="#ef8b89" stroke-width="0"/></g><path d="M413.86794,191.22496c-7.94735,19.68594 3.18953,9.33234 -10.48625,-4.27853c-1.67351,-1.66558 -11.96927,2.01146 -14.1848,0.11343c-1.39161,-1.1922 -4.90251,-11.28499 -6.51974,-12.46102c-1.13073,-0.82226 -14.84501,3.05869 -16.04254,2.23528c-2.98671,-2.05359 -7.71545,-13.35158 -11.11131,-15.09759c-1.87,-0.96148 -12.96477,6.97791 -14.91331,6.09357c-2.51287,-1.14044 -5.6283,-13.32279 -8.26887,-14.1944c-7.0224,-2.31794 -9.5879,3.4955 -16.67313,6.86274c-4.60416,2.18811 -9.07663,-15.39529 -13.59096,-12.67195c-5.60625,3.3821 -11.10789,6.61035 -16.41714,8.27754c-4.16531,1.30796 -9.4745,-12.71936 -13.13471,-11.44062c-17.67247,6.17409 -28.42396,10.22942 -22.27416,-5.00391c12.3661,-30.63139 64.96542,-55.75052 108.13108,-41.50246c43.16565,14.24805 67.85196,62.43655 55.48586,93.06793z" fill="#873412" stroke-width="2"/><path d="M414.02862,190.17334c-7.94735,19.68594 3.18953,9.33234 -10.48625,-4.27853c-1.67351,-1.66558 -11.96927,2.01146 -14.1848,0.11343c-1.39161,-1.1922 -4.90251,-11.28499 -6.51975,-12.46102c-1.13073,-0.82226 -14.84501,3.05869 -16.04254,2.23528c-2.98671,-2.05359 -7.71545,-13.35158 -11.11131,-15.09759c-1.87,-0.96148 -12.96477,6.97791 -14.91331,6.09357c-2.51287,-1.14044 -5.6283,-13.32279 -8.26887,-14.1944c-7.0224,-2.31794 -9.5879,3.4955 -16.67313,6.86274c-4.60416,2.18811 -9.07663,-15.39529 -13.59096,-12.67195c-5.60625,3.3821 -11.10789,6.61035 -16.41715,8.27754c-4.16531,1.30796 -9.4745,-12.71936 -13.13471,-11.44062c-17.67247,6.17409 -28.42396,10.22942 -22.27416,-5.00391c12.3661,-30.63139 44.53644,6.89769 92.12507,2.16c45.55136,-4.53487 83.85796,18.77408 71.49185,49.40547z" fill="#741d23" stroke-width="0"/></g><path d="M357.10329,107.59655c0.022,0.11711 0.02728,0.24564 0.01904,0.38242c0.00083,0.24648 -0.04425,0.49679 -0.14009,0.74163c-0.28237,0.9863 -0.8928,2.09299 -1.01701,2.51948c-0.16319,0.56033 1.37166,-0.2572 1.94564,0.01749c0.35159,0.16826 0.48528,0.88374 0.8528,0.75166c2.2303,-0.80155 4.7051,-2.70181 6.74472,-0.48651c0.67548,0.73367 -0.00423,1.79474 0.29476,2.54393c0.02513,0.06298 2.49857,0.69496 2.87802,1.32649c0.65383,1.08819 -0.46207,1.98677 -0.3064,2.98118c0.04981,0.31818 0.68961,-0.1925 1.04739,-0.21211c1.59229,-0.08725 4.43598,-0.44202 5.74461,0.94157c0.68954,0.72903 -0.02566,2.0241 0.30123,2.55181c0.57308,0.92513 2.27928,-0.54448 3.44878,-0.65952c1.61749,-0.15909 2.06391,0.65406 2.93357,1.78292c0.14999,0.1947 -0.95391,3.61057 -0.30979,4.92302c0.36207,0.73773 1.84287,-0.20746 2.6924,0.05847c0.84763,0.26533 2.79766,0.2228 3.1591,0.44054c0.72501,0.43676 0.92183,1.86309 1.77732,1.72597c4.36781,-0.70004 8.49314,2.03794 5.27795,5.68881c-0.40689,0.46203 1.43667,-0.07101 1.95524,0.29873c0.20105,0.14335 1.13474,1.40227 1.37738,1.40066c1.58709,-0.01054 2.71252,-0.32029 4.20933,0.17009c1.24307,0.40726 2.1836,1.4244 2.00473,2.67679c-0.094,0.6582 -1.65594,1.47038 -0.9936,1.77571c1.56123,0.7197 3.87766,2.1734 2.29307,4.06098c-1.72011,2.049 -4.69159,3.33785 -6.40205,0.78684c-0.59346,-0.88506 -2.58627,0.32685 -3.42407,-0.38344c-1.07327,-0.90989 -0.92666,-3.03554 -0.46128,-3.99969c0.21513,-0.44571 -1.13532,-0.01945 -1.60882,-0.26349c-0.63749,-0.32856 -0.59036,-1.34948 -1.25937,-1.62256c-1.49642,-0.6108 -2.38246,2.31645 -5.76915,0.45135c-0.99962,-0.55051 -1.62663,-2.60886 -1.61177,-3.64701c0.00862,-0.60262 2.25642,-1.77229 2.1436,-1.90983c-0.27394,-0.33398 -2.78568,1.76656 -3.23459,1.75343c-1.07997,-0.0316 -1.89033,-0.98471 -2.68304,-1.64762c-0.70037,-0.58568 -1.72358,1.22652 -2.63812,0.97499c-0.80795,-0.22222 -8.62779,-3.30622 -8.77272,-3.83192c-0.17671,-0.64089 -0.18885,-1.69729 0.19954,-2.24328c0.13958,-0.19622 1.5403,-1.24075 1.36283,-1.28019c-0.62985,-0.13997 -5.10043,1.58417 -6.03813,-1.81673c-0.50991,-1.84939 2.13161,-2.71495 2.6843,-4.07547c0.34131,-0.84018 -1.60924,1.06049 -2.35056,1.65774c-0.56938,0.45875 -1.79047,0.64904 -2.52683,0.42971c-2.54598,-0.75832 -0.9839,-2.67582 -0.99965,-4.11968c-0.00728,-0.66634 -1.68435,0.00945 -2.16751,-0.50139c-1.18135,-1.24901 -0.56582,-2.15213 -0.17674,-3.47926c0.17815,-0.60768 -1.43459,2.10587 -3.03668,1.73528c-0.64973,-0.15029 -1.29927,-1.32885 -1.75312,-0.89181c-2.20958,2.12774 -1.95704,3.36258 -5.36205,1.78165c-0.32858,-0.15256 -1.18821,0.36368 -1.48154,0.05352c-3.24661,-3.43262 1.87559,-6.91577 3.34672,-10.23787c0.51894,-1.17185 0.36424,-3.23099 1.75601,-3.43827c0.6581,-0.48279 1.57927,-0.64832 2.44166,-0.36366c0.76467,0.25239 1.31249,0.80242 1.53793,1.44848c0.04398,0.08764 0.0766,0.17993 0.09503,0.27802z" fill="#ba587e" stroke="none" stroke-width="0.5"/></g><g stroke="#000000"><path d="M332.39321,197.61025c-9.66506,23.94079 -27.02684,32.20406 -42.59926,27.06394c-15.57242,-5.14013 -23.45851,-21.73717 -13.79345,-45.67795c9.66506,-23.94079 30.12408,-39.18175 45.69649,-34.04162c15.57242,5.14013 20.36127,28.71484 10.69622,52.65563z" fill="#f0f0f0" stroke-width="2"/><path d="M295.07567,166.68925c-13.59865,22.33273 11.16946,62.62636 -4.40296,57.48625c-15.57242,-5.14013 -23.45851,-21.73717 -13.79345,-45.67795c9.66506,-23.94079 37.85605,-44.09481 18.19642,-11.8083z" fill="#9a99ff" stroke-width="0"/></g><path d="M325.94658,203.30395c-5.35462,13.26368 -14.10242,22.56134 -19.53875,20.76693c-5.43631,-1.79441 -5.50254,-14.00139 -0.1479,-27.26506c5.35462,-13.26368 14.10242,-22.56134 19.53875,-20.76693c5.43631,1.79441 5.50254,14.00139 0.1479,27.26506z" fill="#000000" stroke="none" stroke-width="0"/><g stroke="#000000"><path d="M337.84956,170.87827c0.72932,9.95907 -7.04762,46.40454 -21.81335,41.5307c-14.76574,-4.87384 -31.0093,-49.96023 -23.4837,-56.61066c7.1605,-6.32779 13.63022,-15.84895 28.39597,-10.9751c14.76574,4.87384 16.20603,16.56393 16.90109,26.05504z" fill="#a100fe" stroke-width="2"/><path d="M337.10075,170.29459c0.58641,9.91189 -6.43613,45.78028 -20.69839,41.07263c-14.26225,-4.70766 -30.43255,-48.94376 -23.0526,-55.64225c7.0219,-6.37353 5.83837,2.84104 20.10063,7.54871c14.26225,4.70766 23.0915,-2.42525 23.65036,7.02092z" fill="#99008e" stroke-width="0"/></g><g data-paper-data="{&quot;index&quot;:null}" stroke="#000000"><path d="M380.43935,166.38148c15.57242,5.14013 20.36127,28.71484 10.69622,52.65563c-9.66506,23.94079 -27.52152,32.04078 -43.09394,26.90065c-15.57242,-5.14013 -22.96384,-21.57388 -13.29878,-45.51468c9.66506,-23.94079 30.12408,-39.18175 45.69649,-34.04162z" fill="#f0f0f0" stroke-width="2"/><path d="M390.81878,218.14377c-9.66506,23.94079 -27.52152,32.04078 -43.09394,26.90065c-15.57242,-5.14013 32.07907,-21.52962 37.5899,-46.53195c7.96704,-36.14599 15.16909,-4.30949 5.50403,19.6313z" fill="#9a99ff" stroke-width="0"/></g><path d="M382.4128,197.1666c5.43631,1.79441 5.50254,14.00139 0.1479,27.26506c-5.35462,13.26368 -14.10242,22.56134 -19.53875,20.76693c-5.43631,-1.79441 -5.50254,-14.00139 -0.1479,-27.26506c5.35462,-13.26368 14.10242,-22.56134 19.53875,-20.76693z" data-paper-data="{&quot;index&quot;:null}" fill="#000000" stroke="none" stroke-width="0"/><g data-paper-data="{&quot;index&quot;:null}" stroke="#000000"><path d="M349.61551,176.79923c7.29376,-6.85418 16.72421,-14.95606 31.48995,-10.08221c14.76574,4.87384 12.9304,15.92474 13.89856,24.9356c1.01753,9.47033 -43.47986,35.46493 -58.2456,30.59109c-14.76574,-4.87384 5.20369,-38.25235 12.85707,-45.44447z" fill="#a100fe" stroke-width="2"/><path d="M350.60409,176.78901c7.15757,-6.89914 8.82841,3.69962 23.09067,8.40727c14.26225,4.70766 19.92218,-3.02935 20.75178,5.93578c0.87189,9.42225 -43.33764,34.93613 -57.5999,30.22847c-14.26225,-4.70766 6.24698,-37.33223 13.75743,-44.57151z" fill="#99008e" stroke-width="0"/></g><path d="M266.91376,178.23216c0.93989,0.31023 0.60146,1.14853 0.60146,1.14853l-0.10311,0.24456c-1.90234,3.63561 -3.58801,7.6153 -7.50758,9.89279c-2.46703,1.90907 -6.30644,2.17897 -6.28632,-1.71525c0.02269,-4.38892 4.52742,-9.77675 7.21949,-13.10189c0,0 0.58361,-0.7208 1.39436,-0.19221c0.81074,0.5286 0.22714,1.24942 0.22714,1.24942c-2.44343,3.01769 -4.45102,6.04593 -5.86575,9.55028c-0.95495,2.36546 -1.34496,5.44437 2.1022,2.77686c3.62834,-2.10396 5.14608,-5.8666 6.90573,-9.2297l0.0341,-0.09531c0,0 0.33843,-0.83829 1.2783,-0.52806z" fill="#000000" stroke="none" stroke-width="0.5"/></g></g></g></svg>