<svg version="1.1" xmlns="http://www.w3.org/2000/svg" xmlns:xlink="http://www.w3.org/1999/xlink" width="189.6233" height="329.54888" viewBox="0,0,189.6233,329.54888"><g transform="translate(-183.01302,-31.43849)"><g data-paper-data="{&quot;isPaintingLayer&quot;:true}" fill-rule="nonzero" stroke-linejoin="miter" stroke-miterlimit="10" stroke-dasharray="" stroke-dashoffset="0" style="mix-blend-mode: normal"><g stroke="#000000" stroke-linecap="butt"><path d="M325.20955,239.71365c-14.02122,30.24441 -31.33862,52.00352 -38.67951,48.60031c-7.34088,-3.40321 -1.92539,-30.68 12.09583,-60.92442c14.02122,-30.24441 31.33862,-52.00352 38.67951,-48.60031c7.34088,3.40321 1.92539,30.68001 -12.09584,60.92443z" fill="#0d69be" stroke-width="2"/><path d="M317.77678,287.34966c-6.01826,12.98167 -21.69157,18.50106 -35.00734,12.32792c-13.31575,-6.17314 -19.23155,-21.70119 -13.21328,-34.68286c6.01827,-12.98167 21.69158,-18.50106 35.00734,-12.32792c13.31576,6.17314 19.23154,21.70119 13.21328,34.68285z" fill="#faddbf" stroke-width="2"/><path d="M286.6334,260.04877c-6.01827,12.98167 10.17085,45.19018 -3.14491,39.01704c-13.31575,-6.17314 -19.23154,-21.70118 -13.21328,-34.68285c6.01827,-12.98167 22.37645,-17.31587 16.35818,-4.3342z" fill="#ef8b89" stroke-width="0"/></g><g stroke="#000000" stroke-linecap="butt"><path d="M307.76518,340.83533v-95.29492h29.49199v95.29492z" fill="#73fffc" stroke-width="2"/><path d="M307.43943,340.21739l1.32626,-93.78573c0,0 5.20288,68.11227 6.3799,77.52842c0.2602,2.08162 2.52228,2.78987 2.52228,2.78987l18.60659,13.13896z" fill="#59a9e6" stroke-width="0"/></g><g stroke="#000000" stroke-linecap="butt"><path d="M268.4238,338.4128v-95.29492h29.49199v95.29492z" fill="#73fffc" stroke-width="2"/><path d="M268.09805,337.79487l1.32626,-93.78573c0,0 5.20288,68.11227 6.3799,77.52842c0.2602,2.08162 2.52228,2.78987 2.52228,2.78987l18.60659,13.13896z" fill="#59a9e6" stroke-width="0"/></g><g stroke="#000000" stroke-linecap="butt"><path d="M335.22917,235.69585c0,13.80271 10.04743,36.74388 4.95001,46.45977c-6.2338,11.88187 -28.61241,9.09579 -38.9397,9.09579c-13.66287,0 -32.94407,4.17018 -38.34426,-14.83216c-2.01935,-7.10576 4.35457,-32.37264 4.35457,-40.7234c0,-30.68249 15.2177,-55.55556 33.98969,-55.55556c18.77199,0 33.98969,24.87307 33.98969,55.55556z" fill="#0d69be" stroke-width="2"/><path d="M283.96554,251.27245c0,13.80271 62.04198,20.54886 56.94455,30.26474c-6.2338,11.88186 -28.61241,9.09579 -38.9397,9.09579c-13.66287,0 -32.94406,4.17018 -38.34425,-14.83215c-2.01936,-7.10576 4.35457,-32.37265 4.35457,-40.7234c0,-9.45244 3.34855,-28.59801 5.51953,-29.96813c5.94391,-16.76415 10.4653,25.13995 10.4653,46.16315z" fill="#10157d" stroke-width="0"/></g><path d="M371.63632,338.87001c0,11.6628 -14.51982,21.11737 -32.43092,21.11737c-17.9111,0 -32.43092,-9.45457 -32.43092,-21.11737c0,-2.33142 -0.03339,-13.76009 1.08979,-15.13837c4.49546,-5.51647 17.81784,5.26144 32.14847,5.26144c17.9111,0 31.62358,-1.78588 31.62358,9.87692z" fill="#000082" stroke="#000000" stroke-width="2" stroke-linecap="butt"/><path d="M369.75004,336.13771c0,6.30841 -13.89058,10.1901 -31.80169,10.1901c-17.9111,0 -30.16566,-2.95748 -30.16566,-9.26589c0,-1.26107 -0.03338,-12.52602 1.0898,-13.27153c4.49546,-2.98386 15.55258,5.7726 29.88321,5.7726c17.9111,0 30.99434,0.26631 30.99434,6.57472z" fill="#2e0048" stroke="#000000" stroke-width="0" stroke-linecap="butt"/><path d="M328.64938,338.2252c0,11.6628 -14.51982,21.11737 -32.43092,21.11737c-17.9111,0 -32.43092,-9.45457 -32.43092,-21.11737c0,-2.33142 -0.03339,-13.76009 1.08979,-15.13837c4.49546,-5.51647 17.81784,5.26144 32.14847,5.26144c17.9111,0 31.62358,-1.78588 31.62358,9.87692z" fill="#000082" stroke="#000000" stroke-width="2" stroke-linecap="butt"/><path d="M326.7631,335.49289c0,6.30841 -13.89058,10.1901 -31.80169,10.1901c-17.9111,0 -30.16566,-2.95748 -30.16566,-9.26589c0,-1.26107 -0.03338,-12.52602 1.0898,-13.27153c4.49546,-2.98386 15.55258,5.7726 29.88321,5.7726c17.9111,0 30.99434,0.26631 30.99434,6.57472z" fill="#2e0048" stroke="#000000" stroke-width="0" stroke-linecap="butt"/><g><g><path d="M257.09382,255.35646c-11.05103,-10.27121 -12.34019,-21.82751 -2.69238,-33.23054c7.54563,-8.91844 25.63158,-9.87892 36.68262,0.3923c11.05111,10.27123 12.44202,24.87361 2.2732,35.81455c-1.5902,1.71096 -3.56558,2.81802 -5.36032,3.84601c-9.68188,5.54543 -21.58022,1.8427 -30.9031,-6.82229z" fill="#485e84" stroke="#000000" stroke-width="2" stroke-linecap="butt"/><path d="M278.25075,217.52908c0,0 -4.23026,3.90332 -3.87229,5.87441c3.43369,18.90724 12.98426,29.2031 16.40293,32.36736c0.77672,0.71892 1.8548,0.40496 1.8548,0.40496c0,0 -1.26848,1.69088 -3.52501,3.24717c-2.40114,1.65603 -5.88592,3.19236 -8.94382,3.49952c-3.493,0.35082 -11.72304,-0.98132 -11.72304,-0.98132l-17.38121,-11.69411c0,0 -1.64957,-13.35044 -1.15753,-15.46107c0.48202,-2.06773 1.64545,-4.37623 2.78367,-6.8805c1.76727,-3.88823 4.96403,-7.11121 7.48546,-8.50304c3.21794,-1.77626 7.80937,-2.59516 11.62543,-2.60543c3.55156,-0.00957 6.45054,0.73219 6.45054,0.73219z" fill="#343545" stroke="none" stroke-width="0" stroke-linecap="butt"/><path d="M263.42043,236.95148c0,0 4.63983,-7.73758 9.43491,-9.63159c6.07007,-2.39765 18.97879,-3.60899 18.97879,-3.60899" fill="none" stroke="#000000" stroke-width="1" stroke-linecap="round"/><path d="M296.8564,252.1683c0,0 -5.86277,4.09362 -9.87206,5.64198c-4.04754,1.56319 -13.75044,1.64374 -13.75044,1.64374" fill="none" stroke="#000000" stroke-width="1" stroke-linecap="round"/><path d="M253.6083,232.04451c0,0 4.64408,-8.01367 9.93129,-9.82867c8.11307,-2.78503 19.60395,-4.35196 19.60395,-4.35196" fill="none" stroke="#000000" stroke-width="1" stroke-linecap="round"/><path d="M260.55975,218.43293c0,0 17.23044,1.6086 25.94106,16.6973c9.54139,16.52776 -2.43804,28.93677 -2.43804,28.93677" fill="none" stroke="#000000" stroke-width="1" stroke-linecap="round"/><path d="M253.20325,224.48162c0,0 17.20992,4.54764 24.92497,17.84567c6.33475,10.9189 -2.77805,22.3152 -2.77805,22.3152" fill="none" stroke="#000000" stroke-width="1" stroke-linecap="round"/><path d="M294.95999,237.4199c-0.3227,-1.15891 0.15947,-2.30543 1.07689,-2.56088c0.91744,-0.25552 1.15319,0.50501 1.47588,1.66391c0.3227,1.15891 0.61012,2.27729 -0.30732,2.53275c-0.91744,0.25552 -1.9228,-0.4769 -2.24544,-1.63578z" fill="#8fbbbe" stroke="none" stroke-width="0" stroke-linecap="butt"/><path d="M295.93835,244.6242c-0.44056,-0.40949 -0.2998,-1.27715 0.31441,-1.93802c0.61422,-0.66087 0.95624,-0.84589 1.39682,-0.43642c0.44056,0.40949 0.43277,1.40074 -0.18147,2.06158c-0.61422,0.66087 -1.08922,0.72231 -1.52978,0.31283z" fill="#8fbbbe" stroke="none" stroke-width="0" stroke-linecap="butt"/><path d="M293.04216,230.77265c-0.59166,-0.68118 -0.70317,-1.55304 -0.24909,-1.94748c0.45403,-0.39444 0.93112,0.23684 1.52278,0.91797c0.59166,0.68118 1.0739,1.15417 0.61983,1.54862c-0.45403,0.39444 -1.30185,0.16201 -1.8935,-0.51913z" fill="#8fbbbe" stroke="none" stroke-width="0" stroke-linecap="butt"/><path d="M273.85226,216.66247c0,0 9.34917,4.15606 14.6449,9.57592c3.00241,3.0728 4.58783,6.8175 5.758,9.67001c1.03487,2.5226 0.94751,9.09666 0.35701,14.12155c-0.43473,3.69956 -1.32057,6.50709 -1.32057,6.50709" fill="none" stroke="#000000" stroke-width="0.5" stroke-linecap="round"/><path d="M300.45424,238.16572c0,0 -7.49008,7.46168 -12.4491,9.61233c-4.17808,1.81199 -15.09963,2.69753 -15.09963,2.69753" fill="none" stroke="#000000" stroke-width="1" stroke-linecap="round"/><path d="M269.89609,245.44825c0,0 6.92345,-6.74492 10.85327,-8.98263c6.90001,-3.92897 17.29447,-4.50507 17.29447,-4.50507" fill="none" stroke="#000000" stroke-width="1" stroke-linecap="round"/></g><g stroke="#000000" stroke-linecap="butt"><path d="M248.34668,226.82015c16.38986,29.02914 12.44414,37.83179 5.39823,41.80991c-7.04592,3.97812 -26.04437,-16.32975 -42.43423,-45.3589c-16.38986,-29.02914 54.26698,-14.09254 61.31288,-18.07066c7.07894,0.46563 4.48971,6.45675 -2.1776,10.61643c-8.22237,5.12986 -23.50023,8.52192 -22.09929,11.00322z" fill="#0d69be" stroke-width="2"/><path d="M271.18588,242.68589c7.03495,12.46005 2.37709,28.41062 -10.40362,35.62661c-12.78071,7.21599 -28.84447,2.96485 -35.87942,-9.4952c-7.03495,-12.46004 -2.37708,-28.41062 10.40363,-35.62661c12.78071,-7.21599 28.84446,-2.96484 35.87941,9.4952z" fill="#faddbf" stroke-width="2"/><path d="M230.84534,252.06076c7.03495,12.46004 42.64007,18.09485 29.85936,25.31083c-12.78071,7.21599 -28.84447,2.96485 -35.87941,-9.4952c-7.03495,-12.46005 -1.0149,-28.27569 6.02004,-15.81563z" fill="#ef8b89" stroke-width="0"/></g></g><g stroke-linecap="butt"><g data-paper-data="{&quot;index&quot;:null}"><g stroke="#000000"><g><path d="M278.49009,204.61737c-46.79079,0 -84.72222,-37.93143 -84.72222,-84.72222c0,-46.79079 37.93143,-84.72222 84.72222,-84.72222c46.79079,0 84.72222,37.93143 84.72222,84.72222c0,46.79079 -37.93143,84.72222 -84.72222,84.72222z" fill="#faddbf" stroke-width="2"/><path d="M362.98153,119.02565c0,46.79079 -37.93143,84.72222 -84.72222,84.72222c-6.06291,0 -18.49289,-1.96005 -20.86562,-2.76903c-1.48329,-0.50573 27.17997,-6.87938 47.45857,-20.18586c10.88131,-7.14014 17.10673,-21.55104 19.99223,-26.29351c1.61848,-0.43891 6.02298,-20.08018 6.02593,-20.14049c1.23891,-25.28993 -24.25635,-87.57384 -16.28763,-90.14485c0.61077,-0.19706 12.57802,6.61116 21.9255,14.95935c7.52051,6.71653 12.79199,15.25975 13.30693,15.62682c4.50904,3.21417 13.16632,29.17106 13.16632,44.22534z" fill="#ef8b89" stroke-width="0"/><path d="M194.2913,119.43696c0,-36.54015 43.64941,-47.76623 83.64345,-27.16584c41.78276,21.52174 85.0704,-6.80492 85.0704,29.73523c0,18.17183 -8.33746,10.16746 -22.22353,-2.47189c-2.87599,-2.61778 -12.91291,10.30314 -16.24015,7.47909c-4.24103,-3.59963 -8.08154,-8.90935 -11.96095,-14.41734c-3.12381,-4.4352 -13.70857,12.51967 -17.11223,8.61668c-5.23782,-6.00622 -5.43775,-13.01701 -12.7176,-13.01701c-2.73739,0 -10.08616,11.74106 -12.80601,12.06843c-2.10902,0.25385 -9.32614,-11.95827 -11.39182,-11.59592c-3.75121,0.65801 -12.2492,10.90762 -15.73972,12.03156c-1.39954,0.45065 -12.51164,-8.39959 -13.84965,-7.92692c-1.91368,0.67603 -8.85258,10.08015 -10.56583,10.85157c-2.72761,1.22814 -10.78789,-6.21968 -12.93385,-5.04791c-8.8559,4.83563 -8.47938,12.76015 -9.04258,14.64925c-0.55205,1.85172 -2.12992,-2.16465 -2.12992,-13.78899z" fill="#ef8b89" stroke-width="0"/></g><path d="M192.75741,111.12607c0,-36.54015 41.44159,-78.68758 87.36842,-78.68758c45.92684,0 85.78948,44.71682 85.78948,81.25697c0,18.17183 -8.55708,10.16746 -22.80892,-2.47189c-2.95174,-2.61778 -13.25304,10.30314 -16.66792,7.47909c-4.35273,-3.59963 -8.29441,-8.90935 -12.276,-14.41734c-3.2061,-4.4352 -14.06966,12.51967 -17.56298,8.61668c-5.37579,-6.00622 -5.58098,-13.01701 -13.05259,-13.01701c-2.80949,0 -10.35184,11.74106 -13.14333,12.06843c-2.16458,0.25385 -9.5718,-11.95827 -11.69189,-11.59592c-3.85002,0.65801 -12.57185,10.90762 -16.15431,12.03156c-1.4364,0.45065 -12.8412,-8.39959 -14.21446,-7.92692c-1.96409,0.67603 -9.08576,10.08015 -10.84414,10.85157c-2.79946,1.22814 -11.07205,-6.21968 -13.27454,-5.04791c-17.99849,9.57557 -11.46679,24.3436 -11.46679,0.86026z" fill="#873412" stroke-width="2"/><path d="M193.00517,109.96328c0,-36.54015 44.79917,-47.76623 85.84668,-27.16584c42.88335,21.52174 87.31121,-6.80492 87.31121,29.73523c0,18.17183 -8.55708,10.16746 -22.80892,-2.47189c-2.95174,-2.61778 -13.25304,10.30314 -16.66792,7.47909c-4.35274,-3.59963 -8.29442,-8.90935 -12.27601,-14.41734c-3.2061,-4.4352 -14.06966,12.51967 -17.56298,8.61668c-5.37579,-6.00622 -5.58098,-13.01701 -13.05259,-13.01701c-2.80949,0 -10.35184,11.74106 -13.14333,12.06843c-2.16458,0.25385 -9.5718,-11.95827 -11.69189,-11.59592c-3.85002,0.65801 -12.57185,10.90762 -16.15431,12.03156c-1.4364,0.45065 -12.8412,-8.39959 -14.21446,-7.92692c-1.9641,0.67603 -9.08577,10.08015 -10.84415,10.85157c-2.79946,1.22814 -11.07205,-6.21968 -13.27454,-5.04791c-17.99849,9.57557 -11.46679,24.3436 -11.46679,0.86026z" fill="#741d23" stroke-width="0"/></g><path d="M277.74867,42.81917c0.05448,-0.09686 0.12008,-0.18267 0.19459,-0.25964c0.45653,-0.60173 1.17934,-0.99036 1.99291,-0.99036c0.91756,0 1.71966,0.49431 2.15454,1.23116c1.22811,0.70178 0.30241,2.81554 0.34546,4.22937c0.12203,4.0081 3.61086,9.45428 -0.7383,11.93952c-0.39296,0.22455 -1.00437,-0.61753 -1.37068,-0.57111c-3.79605,0.48107 -3.09092,-0.73102 -4.35893,-3.73846c-0.26045,-0.61773 -1.31698,0.39716 -1.98395,0.32962c-1.64461,-0.16655 -2.13025,-3.58326 -2.19331,-2.88171c-0.13771,1.53217 0.09787,2.69668 -1.48465,3.60097c-0.64725,0.36985 -1.96564,-0.9242 -2.22503,-0.22532c-0.56207,1.51439 0.17773,4.07556 -2.5,3.98918c-0.77448,-0.02498 -1.84877,-0.64956 -2.20947,-1.33028c-0.46962,-0.88626 -1.58052,-3.56468 -1.57852,-2.56169c0.00324,1.62414 2.15519,3.45307 0.97549,5.22262c-2.1694,3.25409 -5.71316,-0.11412 -6.35755,-0.18561c-0.18157,-0.02015 0.7376,1.56603 0.79428,1.82108c0.15771,0.70968 -0.25409,1.81746 -0.66291,2.43068c-0.33532,0.50299 -8.84596,1.03231 -9.68874,0.98549c-0.95396,-0.053 -1.22775,-2.3161 -2.10728,-1.94293c-0.9955,0.42238 -2.11757,1.14408 -3.14348,0.80211c-0.42644,-0.14215 -1.98845,-3.22595 -2.37223,-2.96958c-0.15805,0.10558 1.50897,2.11782 1.28866,2.75515c-0.37953,1.09794 -1.74837,3.04678 -2.89553,3.27894c-3.88655,0.78656 -3.60891,-2.60261 -5.24535,-2.4796c-0.7316,0.055 -1.07431,1.14602 -1.79736,1.27038c-0.53704,0.09237 -1.64337,-0.82553 -1.61032,-0.28162c0.07149,1.1766 -0.59654,3.46507 -1.94906,4.04994c-1.05577,0.45655 -2.46741,-1.51155 -3.36004,-0.78609c-2.57278,2.09098 -4.87408,-0.29815 -5.7124,-3.05264c-0.77228,-2.53749 1.95352,-3.26285 3.69208,-3.47798c0.73757,-0.09126 -0.42103,-1.48889 -0.25981,-2.21439c0.30676,-1.38047 1.5753,-2.12435 2.89673,-2.12114c1.59115,0.00387 2.53038,0.72096 4.01644,1.28349c0.2272,0.086 1.58097,-0.91478 1.82405,-0.9958c0.62702,-0.20901 2.15582,0.99263 1.94893,0.36491c-1.63487,-4.96012 3.27602,-6.40887 7.11144,-4.15438c0.75121,0.44157 1.4766,-0.99144 2.32283,-1.19928c0.42187,-0.10362 2.23656,0.6187 3.13293,0.63391c0.89839,0.01525 1.9304,1.52469 2.54995,0.87393c1.1022,-1.15773 1.36048,-5.13692 1.5751,-5.28976c1.24435,-0.88613 1.97168,-1.58696 3.42998,-0.8575c1.0544,0.52742 2.09926,2.66721 2.98795,1.89251c0.50691,-0.4419 0.3263,-2.05362 1.25,-2.58145c1.75303,-1.00173 4.28838,0.35977 5.75026,1.00484c0.32847,0.14495 0.73559,0.90484 0.90296,0.5872c0.52306,-0.99265 -0.18403,-2.32625 0.84227,-3.24453c0.59562,-0.53293 3.15736,-0.33877 3.20483,-0.39633c0.56466,-0.68473 0.32868,-2.03782 1.24094,-2.5754c2.75456,-1.62323 4.3578,1.23692 6.14794,2.85557c0.29498,0.26672 0.69169,-0.43995 1.08556,-0.49491c0.64299,-0.08972 1.77413,1.30412 1.8333,0.6576c0.04503,-0.4921 -0.10861,-1.86913 0.00011,-3.00545c0.00282,-0.29104 0.05537,-0.57019 0.14957,-0.82934c0.04411,-0.14685 0.09778,-0.28031 0.16282,-0.39594z" fill="#ba587e" stroke="none" stroke-width="0.5"/></g><g data-paper-data="{&quot;index&quot;:null}" stroke="#000000"><path d="M277.7397,100.35439c16.56854,0 30,23.15159 30,51.71053c0,28.55893 -13.69462,43.28947 -30.26316,43.28947c-16.56854,0 -29.73684,-14.73053 -29.73684,-43.28947c0,-28.55894 13.43146,-51.71053 30,-51.71053z" fill="#f0f0f0" stroke-width="2"/><path d="M307.10368,151.23467c0,28.55893 -13.69462,43.28947 -30.26316,43.28947c-16.56854,0 21.9575,-33.80863 17.65491,-62.0416c-6.22027,-40.81653 12.60825,-9.80681 12.60825,18.75213z" fill="#9a99ff" stroke-width="0"/></g><path d="M293.84075,132.17404c5.78406,0 10.47297,12.82644 10.47297,28.64865c0,15.82221 -4.68891,28.64865 -10.47297,28.64865c-5.78406,0 -10.47297,-12.82644 -10.47297,-28.64865c0,-15.82221 4.68891,-28.64865 10.47297,-28.64865z" data-paper-data="{&quot;index&quot;:null}" fill="#000000" stroke="none" stroke-width="0"/><g data-paper-data="{&quot;index&quot;:null}" stroke="#000000"><path d="M252.74901,122.03024c4.24992,-9.74914 10.03298,-21.55405 25.74324,-21.55405c15.71026,0 18.17568,12.27019 22.5,21.41892c4.54481,9.61522 -26.15114,33.0083 -41.8614,33.0083c-15.71026,0 -10.84131,-22.64335 -6.38185,-32.87316z" fill="#a100fe" stroke-width="2"/><path d="M253.67328,121.676c4.10501,-9.74914 9.69088,0.8269 24.86546,0.8269c15.17458,0 17.55594,-10.11076 21.73281,-0.96203c4.38984,9.61522 -25.67766,32.53358 -40.85224,32.53358c-15.17458,0 -10.05344,-22.16863 -5.74604,-32.39844z" fill="#99008e" stroke-width="0"/></g><g data-paper-data="{&quot;index&quot;:null}" stroke="#000000"><path d="M244.01302,151.02762c0,28.55894 -13.1683,43.28947 -29.73684,43.28947c-16.56854,0 -30.26316,-14.73054 -30.26316,-43.28947c0,-28.55894 13.43146,-51.71053 30,-51.71053c16.56854,0 30,23.15159 30,51.71053z" fill="#f0f0f0" stroke-width="2"/><path d="M197.25729,131.44522c-4.30259,28.23297 34.22345,62.0416 17.65491,62.0416c-16.56854,0 -30.26316,-14.73054 -30.26316,-43.28947c0,-28.55894 18.82852,-59.56866 12.60825,-18.75213z" fill="#9a99ff" stroke-width="0"/></g><path d="M237.71558,160.47222c0,15.82221 -4.68891,28.64865 -10.47297,28.64865c-5.78406,0 -10.47297,-12.82644 -10.47297,-28.64865c0,-15.82221 4.68891,-28.64865 10.47297,-28.64865c5.78406,0 10.47297,12.82644 10.47297,28.64865z" data-paper-data="{&quot;index&quot;:null}" fill="#000000" stroke="none" stroke-width="0"/><g data-paper-data="{&quot;index&quot;:null}" stroke="#000000"><path d="M239.00372,120.99292c4.45946,10.22981 8.14161,32.6358 -7.56865,32.6358c-15.71026,0 -45.21941,-23.15572 -40.6746,-32.77094c4.32432,-9.14873 6.78974,-21.41892 22.5,-21.41892c15.71026,0 21.49332,11.80491 25.74324,21.55405z" fill="#a100fe" stroke-width="2"/><path d="M238.07945,120.63868c4.3074,10.22981 8.4791,31.92372 -6.69548,31.92372c-15.17458,0 -44.29264,-22.44364 -39.9028,-32.05886c4.17687,-9.14873 6.55823,0.96203 21.73281,0.96203c15.17458,0 20.76045,-10.57604 24.86546,-0.8269z" fill="#99008e" stroke-width="0"/></g><path d="M323.57062,163.64001c-0.35368,-0.28363 -0.46399,-0.72485 -0.46399,-0.72485l-0.13127,-0.54147c-0.4824,-2.89442 -0.6779,-5.63328 -0.45168,-8.56671c0.69925,-3.89132 6.00804,-7.85127 9.32015,-3.84469c1.2788,1.54694 1.66285,4.13187 1.83409,6.05138c0.57138,6.40492 0.00081,13.73597 -3.53625,19.25698c-2.18926,3.28342 -4.57449,3.4762 -8.26329,3.45878c-2.96518,-0.014 -5.72899,-1.13766 -5.11323,-4.69061c0.35856,-2.06889 1.67087,-4.59256 3.30201,-5.94145c0.90259,-0.7464 2.15205,-1.03551 2.97618,-1.86773c0.53424,-0.53949 0.56615,-1.63471 0.52726,-2.58962z" fill="#000000" stroke="none" stroke-width="0.5"/></g></g></g></svg>