<svg version="1.1" xmlns="http://www.w3.org/2000/svg" xmlns:xlink="http://www.w3.org/1999/xlink" width="174.58649" height="321.50332" viewBox="0,0,174.58649,321.50332"><g transform="translate(-224.97498,-39.48413)"><g data-paper-data="{&quot;isPaintingLayer&quot;:true}" fill-rule="nonzero" stroke-linejoin="miter" stroke-miterlimit="10" stroke-dasharray="" stroke-dashoffset="0" style="mix-blend-mode: normal"><g stroke="#000000" stroke-linecap="butt"><path d="M314.39225,236.18127c0.89302,33.32448 -4.94001,60.51504 -13.02847,60.73181c-8.08848,0.21676 -15.36942,-26.62238 -16.26247,-59.94686c-0.89302,-33.32448 4.94001,-60.51504 13.02847,-60.73181c8.08848,-0.21676 15.36942,26.62238 16.26246,59.94686z" fill="#0d69be" stroke-width="2"/><path d="M328.92119,282.15241c0.38331,14.30371 -11.1998,26.21789 -25.87164,26.61109c-14.67182,0.39319 -26.87644,-10.88352 -27.25975,-25.18725c-0.38331,-14.30372 11.1998,-26.21789 25.87164,-26.61109c14.67182,-0.39318 26.87644,10.88355 27.25975,25.18725z" fill="#faddbf" stroke-width="2"/><path d="M288.8854,271.55125c0.38331,14.30372 29.20792,35.95132 14.5361,36.34449c-14.67182,0.39319 -26.87643,-10.88352 -27.25975,-25.18725c-0.38331,-14.30372 12.34032,-25.46095 12.72365,-11.15725z" fill="#ef8b89" stroke-width="0"/></g><g stroke="#000000" stroke-linecap="butt"><path d="M307.76518,340.8354v-95.29492h29.49199v95.29492z" fill="#73fffc" stroke-width="2"/><path d="M307.43943,340.21746l1.32626,-93.78573c0,0 5.20288,68.11227 6.3799,77.52842c0.2602,2.08162 2.52228,2.78987 2.52228,2.78987l18.60659,13.13896z" fill="#59a9e6" stroke-width="0"/></g><g stroke="#000000" stroke-linecap="butt"><path d="M268.4238,338.41286v-95.29492h29.49199v95.29492z" fill="#73fffc" stroke-width="2"/><path d="M268.09805,337.79494l1.32626,-93.78573c0,0 5.20288,68.11227 6.3799,77.52842c0.2602,2.08162 2.52228,2.78987 2.52228,2.78987l18.60659,13.13896z" fill="#59a9e6" stroke-width="0"/></g><g stroke="#000000" stroke-linecap="butt"><path d="M335.22917,235.69588c0,13.80271 10.04743,36.74388 4.95001,46.45977c-6.2338,11.88187 -28.61241,9.09579 -38.9397,9.09579c-13.66287,0 -32.94407,4.17018 -38.34426,-14.83216c-2.01935,-7.10576 4.35457,-32.37264 4.35457,-40.7234c0,-30.68249 15.2177,-55.55556 33.98969,-55.55556c18.77199,0 33.98969,24.87307 33.98969,55.55556z" fill="#0d69be" stroke-width="2"/><path d="M283.96554,251.27245c0,13.80271 62.04198,20.54886 56.94455,30.26474c-6.2338,11.88186 -28.61241,9.09579 -38.9397,9.09579c-13.66287,0 -32.94406,4.17018 -38.34425,-14.83215c-2.01936,-7.10576 4.35457,-32.37265 4.35457,-40.7234c0,-9.45244 3.34855,-28.59801 5.51953,-29.96813c5.94391,-16.76415 10.4653,25.13995 10.4653,46.16315z" fill="#10157d" stroke-width="0"/></g><g stroke-linecap="butt"><g stroke="#000000"><g><path d="M228.12244,109.85026c9.99037,-45.71182 55.14592,-74.66977 100.85774,-64.6794c45.71182,9.99037 74.66977,55.14592 64.6794,100.85774c-9.99037,45.71182 -55.14592,74.66977 -100.85774,64.6794c-45.71182,-9.99037 -74.66977,-55.14592 -64.6794,-100.85774z" fill="#faddbf" stroke-width="2"/><path d="M228.53354,109.05008c3.21426,-14.70714 17.214,-38.21705 22.30533,-40.39437c0.58144,-0.24866 7.55544,-7.46936 16.33659,-12.42529c10.91437,-6.15989 24.05929,-10.25597 24.6139,-9.93305c7.23603,4.21314 -30.96966,59.61728 -35.15901,84.58856c-0.00999,0.05955 0.0993,20.18831 1.58675,20.96267c1.80639,5.2492 4.81136,20.65699 13.91725,29.95577c16.9699,17.32935 43.61135,29.67597 42.05429,29.85334c-2.49074,0.28372 -15.05259,-0.45537 -20.97569,-1.74987c-45.71182,-9.99037 -74.66977,-55.14592 -64.6794,-100.85774z" fill="#ef8b89" stroke-width="0"/><path d="M393.24605,145.46921c-2.48193,11.35629 -4.88096,14.94315 -5.02491,13.01626c-0.14687,-1.96579 1.91295,-9.62718 -5.70628,-16.24214c-1.84629,-1.60294 -11.3109,3.95218 -13.71339,2.16998c-1.50904,-1.11943 -6.28004,-11.78823 -8.00525,-12.85727c-1.20624,-0.74745 -13.95172,5.52615 -15.22277,4.78707c-3.17006,-1.84329 -9.28368,-13.67097 -12.80789,-15.11473c-1.94068,-0.79504 -11.59881,9.59454 -13.60499,8.89624c-2.58723,-0.90054 -7.25969,-13.9399 -9.93396,-14.52437c-7.11198,-1.55433 -8.80418,5.25211 -15.20362,10.00149c-4.15851,3.08627 -10.87913,-15.7376 -14.87787,-12.07164c-4.96597,4.55268 -9.85161,8.91997 -14.76341,11.53108c-3.85348,2.04852 -10.90019,-12.71744 -14.26879,-10.77409c-16.26451,9.38306 -26.11874,15.42271 -22.23884,-2.33009c7.80174,-35.69755 44.04313,1.21832 89.45754,-10.88604c43.47022,-11.58617 83.7162,8.7007 75.91446,44.39825z" fill="#ef8b89" stroke-width="0"/></g><path d="M396.51902,137.67746c-5.01396,22.94183 4.52026,9.90893 -11.0187,-3.28871c-1.90152,-1.61501 -11.57354,3.89478 -14.04622,2.09724c-1.55313,-1.12907 -6.50269,-11.83689 -8.27714,-12.91669c-1.24067,-0.75498 -14.27211,5.45612 -15.57917,4.70918c-3.25988,-1.86292 -9.59218,-13.73839 -13.21292,-15.20325c-1.99384,-0.80666 -11.83768,9.54233 -13.89814,8.83217c-2.65722,-0.91584 -7.5188,-13.99653 -10.2635,-14.59639c-7.29932,-1.59527 -8.99666,5.21004 -15.53089,9.92997c-4.2461,3.06713 -11.23909,-15.81627 -15.31823,-12.16788c-5.0658,4.53086 -10.05027,8.87655 -15.07119,11.46382c-3.9391,2.02981 -11.24409,-12.7926 -14.6867,-10.86542c-16.62185,9.30496 -26.69063,15.29772 -22.81074,-2.45508c7.80174,-35.69755 56.29273,-70.8721 101.16052,-61.06619c44.86778,9.80591 76.35479,59.8297 68.55305,95.52725z" fill="#873412" stroke-width="2"/><path d="M396.52527,136.48859c-5.01396,22.94183 4.52026,9.90893 -11.0187,-3.28871c-1.90152,-1.61501 -11.57354,3.89478 -14.04622,2.09724c-1.55313,-1.12907 -6.50269,-11.83689 -8.27715,-12.91669c-1.24067,-0.75498 -14.27211,5.45612 -15.57917,4.70918c-3.25988,-1.86292 -9.59218,-13.73839 -13.21292,-15.20325c-1.99384,-0.80666 -11.83768,9.54233 -13.89814,8.83217c-2.65722,-0.91584 -7.5188,-13.99653 -10.2635,-14.59639c-7.29932,-1.59527 -8.99666,5.21004 -15.53089,9.92997c-4.2461,3.06713 -11.23909,-15.81627 -15.31823,-12.16788c-5.0658,4.53086 -10.05027,8.87655 -15.0712,11.46381c-3.9391,2.02981 -11.24409,-12.7926 -14.6867,-10.86542c-16.62185,9.30496 -26.69063,15.29772 -22.81074,-2.45508c7.80174,-35.69755 45.15705,1.46177 91.64668,-10.4076c44.4994,-11.36124 85.86863,9.17111 78.06688,44.86867z" fill="#741d23" stroke-width="0"/></g><path d="M328.07196,52.79904c0.03885,0.12685 0.06279,0.26869 0.07453,0.42157c0.0367,0.27329 0.02843,0.55722 -0.03095,0.84215c-0.1364,1.13333 -0.58051,2.4458 -0.64159,2.93617c-0.08023,0.64425 1.32242,-0.47594 1.93143,-0.25101c0.37305,0.13779 0.60973,0.91287 0.95486,0.71528c2.09446,-1.19911 4.27141,-3.651 6.61587,-1.47707c0.77644,0.71996 0.25701,1.99147 0.66245,2.78097c0.03409,0.06637 2.57821,0.42365 3.04631,1.07146c0.80657,1.11623 -0.16895,2.26811 0.1301,3.34955c0.09569,0.34605 0.65567,-0.30939 1.00751,-0.38087c1.5659,-0.31807 4.33348,-1.10684 5.83221,0.24608c0.7897,0.71288 0.26914,2.24887 0.67001,2.78881c0.70279,0.94658 2.18043,-0.92078 3.32312,-1.21091c1.58042,-0.40128 2.14134,0.43869 3.1678,1.57007c0.17704,0.19514 -0.42024,4.13772 0.40935,5.50408c0.46632,0.76803 1.79681,-0.48625 2.67774,-0.30933c0.87895,0.17653 2.80602,-0.14168 3.19603,0.04962c0.78234,0.38373 1.18504,1.93857 2.01321,1.66758c4.22834,-1.3836 8.71666,1.08028 6.06045,5.57696c-0.33614,0.56907 1.41397,-0.27844 1.9819,0.05962c0.22018,0.13105 1.32905,1.3978 1.56937,1.36229c1.5719,-0.23227 2.64258,-0.73229 4.19786,-0.39634c1.29164,0.279 2.37211,1.27658 2.37705,2.69071c0.0026,0.74319 -1.42769,1.86122 -0.72662,2.10785c1.65254,0.58137 4.16061,1.872 2.86435,4.18608c-1.4071,2.51198 -4.16544,4.35467 -6.23245,1.76258c-0.71715,-0.89932 -2.51645,0.722 -3.4504,0.05056c-1.19646,-0.86016 -1.36047,-3.23849 -1.03941,-4.3727c0.14842,-0.52431 -1.12838,0.13621 -1.63332,-0.0687c-0.67982,-0.27587 -0.78169,-1.41491 -1.48467,-1.62484c-1.57244,-0.46957 -2.02483,2.90072 -5.65382,1.30248c-1.07114,-0.47174 -1.99231,-2.6679 -2.12867,-3.82156c-0.07915,-0.66967 1.97906,-2.27958 1.8472,-2.41647c-0.32019,-0.3324 -2.50461,2.34678 -2.95157,2.3946c-1.07527,0.11504 -2.01737,-0.82959 -2.89973,-1.45478c-0.77957,-0.55235 -1.53025,1.6001 -2.47353,1.4482c-0.83334,-0.1342 -9.03472,-2.46844 -9.25491,-3.03142c-0.26846,-0.68637 -0.43424,-1.85653 -0.12865,-2.51617c0.10983,-0.23707 1.34647,-1.59042 1.16479,-1.6095c-0.64479,-0.06774 -4.82599,2.46616 -6.25058,-1.17608c-0.77468,-1.98062 1.71815,-3.30791 2.06809,-4.89391c0.2161,-0.97943 -1.44105,1.40003 -2.08907,2.16559c-0.49772,0.58801 -1.6806,0.96881 -2.44255,0.82786c-2.63443,-0.48734 -1.36485,-2.83149 -1.59062,-4.43097c-0.10419,-0.73815 -1.66847,0.24457 -2.22183,-0.25495c-1.35295,-1.22132 -0.87417,-2.30868 -0.68157,-3.83492c0.08818,-0.69884 -1.11577,2.5354 -2.75801,2.34696c-0.66601,-0.07642 -1.48149,-1.29349 -1.86782,-0.74562c-1.88089,2.66736 -1.45082,4.00205 -5.05662,2.72157c-0.34795,-0.12356 -1.12506,0.56856 -1.46101,0.26528c-3.71824,-3.35653 0.85296,-7.93222 1.82795,-11.82184c0.34393,-1.37204 -0.10912,-3.6347 1.24051,-4.05808c0.58218,-0.62701 1.47132,-0.93866 2.36772,-0.74275c0.79481,0.17371 1.41797,0.7077 1.7355,1.39303c0.05636,0.0911 0.10212,0.18894 0.13467,0.2952z" fill="#ba587e" stroke="none" stroke-width="0.5"/></g><g stroke="#000000" stroke-linecap="butt"><path d="M334.0637,165.93294c-6.09766,27.90039 -22.10745,39.47965 -38.29393,35.94208c-16.18648,-3.53757 -26.42017,-20.85239 -20.32251,-48.75277c6.09766,-27.90039 24.16253,-47.65034 40.34901,-44.11277c16.18648,3.53757 24.36509,29.02307 18.26742,56.92346z" fill="#f0f0f0" stroke-width="2"/><path d="M292.5672,136.81923c-10.23144,26.66328 20.18768,67.91806 4.0012,64.38048c-16.18648,-3.53757 -26.42017,-20.85239 -20.32251,-48.75277c6.09766,-27.90039 31.11294,-54.17493 16.32131,-15.62771z" fill="#9a99ff" stroke-width="0"/></g><path d="M328.50118,173.14483c-3.37822,15.45736 -10.6976,26.98689 -16.34829,25.75193c-5.65068,-1.23496 -7.49288,-14.76677 -4.11465,-30.22413c3.37822,-15.45736 10.6976,-26.98689 16.34829,-25.75193c5.65068,1.23496 7.49288,14.76677 4.11465,30.22413z" fill="#000000" stroke="none" stroke-width="0" stroke-linecap="butt"/><g stroke="#000000" stroke-linecap="butt"><path d="M335.58266,135.52132c2.17245,10.94606 2.0945,34.10685 -13.25349,30.75252c-15.34799,-3.35432 -40.34142,-32.76191 -33.84845,-41.18504c6.17796,-8.01447 11.20636,-19.47532 26.55435,-16.121c15.34799,3.35432 18.47721,16.12177 20.54758,26.5535z" fill="#a100fe" stroke-width="2"/><path d="M334.75533,134.97791c2.02389,10.9136 2.29368,33.66445 -12.53098,30.4245c-14.82466,-3.23995 -39.30549,-32.04958 -32.96392,-40.5058c6.03391,-8.04596 6.2016,2.3401 21.02626,5.58005c14.82466,3.23995 22.53983,-5.89957 24.46863,4.50123z" fill="#99008e" stroke-width="0"/></g><g data-paper-data="{&quot;index&quot;:null}" stroke="#000000" stroke-linecap="butt"><path d="M378.27493,121.60249c16.18648,3.53757 24.36509,29.02307 18.26742,56.92346c-6.09766,27.90038 -22.62163,39.36728 -38.80811,35.82971c-16.18648,-3.53757 -25.90599,-20.74001 -19.80832,-48.6404c6.09766,-27.90039 24.16253,-47.65034 40.34901,-44.11277z" fill="#f0f0f0" stroke-width="2"/><path d="M396.09827,177.57902c-6.09766,27.90038 -22.62163,39.36728 -38.80811,35.82971c-16.18648,-3.53757 28.6697,-28.34084 30.49439,-56.84143c2.63797,-41.20342 14.41138,-6.88866 8.31371,21.01172z" fill="#9a99ff" stroke-width="0"/></g><path d="M384.71171,155.47766c5.65068,1.23496 7.49288,14.76677 4.11465,30.22413c-3.37822,15.45736 -10.6976,26.98689 -16.34829,25.75193c-5.65068,-1.23496 -7.49288,-14.76677 -4.11465,-30.22413c3.37822,-15.45736 10.6976,-26.98689 16.34829,-25.75193z" data-paper-data="{&quot;index&quot;:null}" fill="#000000" stroke="none" stroke-width="0" stroke-linecap="butt"/><g data-paper-data="{&quot;index&quot;:null}" stroke="#000000" stroke-linecap="butt"><path d="M349.23247,137.44268c6.23347,-8.61692 14.40366,-18.91487 29.75165,-15.56055c15.34799,3.35432 15.13673,15.86796 17.40798,25.72902c2.38705,10.36387 -31.38565,26.68509 -46.73364,23.33076c-15.34799,-3.35432 -6.96681,-24.45746 -0.426,-33.49923z" fill="#a100fe" stroke-width="2"/><path d="M350.21106,137.29396c6.0919,-8.64786 9.29086,2.87695 24.11552,6.11689c14.82466,3.23995 19.30987,-6.12922 21.43707,3.70036c2.23565,10.33078 -31.00294,26.03984 -45.8276,22.79989c-14.82466,-3.23995 -6.11726,-23.5429 0.275,-32.61714z" fill="#99008e" stroke-width="0"/></g><path d="M371.63632,338.87008c0,11.6628 -14.51982,21.11737 -32.43092,21.11737c-17.9111,0 -32.43092,-9.45457 -32.43092,-21.11737c0,-2.33142 -0.03339,-13.76009 1.08979,-15.13837c4.49546,-5.51647 17.81784,5.26144 32.14847,5.26144c17.9111,0 31.62358,-1.78588 31.62358,9.87692z" fill="#000082" stroke="#000000" stroke-width="2" stroke-linecap="butt"/><path d="M369.75004,336.13778c0,6.30841 -13.89058,10.1901 -31.80169,10.1901c-17.9111,0 -30.16566,-2.95748 -30.16566,-9.26589c0,-1.26107 -0.03338,-12.52602 1.0898,-13.27153c4.49546,-2.98386 15.55258,5.7726 29.88321,5.7726c17.9111,0 30.99434,0.26631 30.99434,6.57472z" fill="#2e0048" stroke="#000000" stroke-width="0" stroke-linecap="butt"/><path d="M328.64938,338.22527c0,11.6628 -14.51982,21.11737 -32.43092,21.11737c-17.9111,0 -32.43092,-9.45457 -32.43092,-21.11737c0,-2.33142 -0.03339,-13.76009 1.08979,-15.13837c4.49546,-5.51647 17.81784,5.26144 32.14847,5.26144c17.9111,0 31.62358,-1.78588 31.62358,9.87692z" fill="#000082" stroke="#000000" stroke-width="2" stroke-linecap="butt"/><path d="M326.7631,335.49289c0,6.30841 -13.89058,10.1901 -31.80169,10.1901c-17.9111,0 -30.16566,-2.95748 -30.16566,-9.26589c0,-1.26107 -0.03338,-12.52602 1.0898,-13.27153c4.49546,-2.98386 15.55258,5.7726 29.88321,5.7726c17.9111,0 30.99434,0.26631 30.99434,6.57472z" fill="#2e0048" stroke="#000000" stroke-width="0" stroke-linecap="butt"/><g><g><path d="M319.77779,238.48662c-11.45499,9.81865 -23.08295,9.79273 -33.32184,-1.08266c-8.00795,-8.50575 -6.91707,-26.5843 4.53795,-36.40296c11.45503,-9.81872 26.12104,-9.54945 35.84187,1.79138c1.52016,1.77347 2.39677,3.86138 3.21519,5.76084c4.41502,10.24687 -0.60947,21.6502 -10.27313,29.93341z" fill="#485e84" stroke="#000000" stroke-width="2" stroke-linecap="butt"/><path d="M284.58556,213.18779c0,0 3.3999,4.64455 5.39885,4.51175c19.17425,-1.27359 30.48408,-9.59861 34.01461,-12.63753c0.80216,-0.69043 0.6121,-1.79711 0.6121,-1.79711c0,0 1.53657,1.45156 2.82771,3.86961c1.37388,2.573 2.50628,6.20917 2.46568,9.28219c-0.04641,3.51027 -2.3007,11.53688 -2.3007,11.53688l-13.58462,15.94732c0,0 -13.45134,0.12928 -15.4928,-0.59829c-1.99997,-0.71276 -4.1621,-2.12978 -6.52158,-3.54385c-3.66345,-2.19563 -6.50423,-5.73633 -7.60202,-8.39899c-1.40098,-3.39815 -1.69543,-8.05275 -1.27409,-11.8455c0.39211,-3.52986 1.45694,-6.32638 1.45694,-6.32638z" fill="#343545" stroke="none" stroke-width="0" stroke-linecap="butt"/><path d="M302.20631,230.11929c0,0 -7.16326,-5.48505 -8.50286,-10.46356c-1.69585,-6.30227 -1.43969,-19.26516 -1.43969,-19.26516" fill="none" stroke="#000000" stroke-width="1" stroke-linecap="round"/><path d="M321.10655,198.61856c0,0 3.4044,6.2881 4.48943,10.44675c1.09545,4.19834 0.07826,13.84813 0.07826,13.84813" fill="none" stroke="#000000" stroke-width="1" stroke-linecap="round"/><path d="M296.22124,239.3136c0,0 -7.43712,-5.52049 -8.64258,-10.97904c-1.84972,-8.37596 -2.10717,-19.97035 -2.10717,-19.97035" fill="none" stroke="#000000" stroke-width="1" stroke-linecap="round"/><path d="M283.48305,230.86752c0,0 3.54674,-16.93802 19.52368,-23.88648c17.50071,-7.61117 28.47546,5.69465 28.47546,5.69465" fill="none" stroke="#000000" stroke-width="1" stroke-linecap="round"/><path d="M288.66105,238.86082c0,0 6.46461,-16.58526 20.54978,-22.74705c11.56523,-5.05937 21.85792,5.28368 21.85792,5.28368" fill="none" stroke="#000000" stroke-width="1" stroke-linecap="round"/><path d="M306.23829,198.83502c-1.18798,0.1896 -2.27262,-0.41914 -2.42269,-1.35958c-0.15012,-0.94044 0.63219,-1.08867 1.82015,-1.27825c1.18798,-0.1896 2.33169,-0.34868 2.48175,0.59177c0.15012,0.94044 -0.69127,1.85651 -1.87921,2.04607z" fill="#8fbbbe" stroke="none" stroke-width="0" stroke-linecap="butt"/><path d="M313.50703,198.67761c-0.45669,0.39142 -1.30288,0.15347 -1.89006,-0.53154c-0.58717,-0.68503 -0.73234,-1.04576 -0.27567,-1.43722c0.45669,-0.39142 1.4407,-0.27158 2.02783,0.41343c0.58717,0.68503 0.59451,1.16392 0.13781,1.55535z" fill="#8fbbbe" stroke="none" stroke-width="0" stroke-linecap="butt"/><path d="M299.41681,199.98886c-0.7437,0.51085 -1.62258,0.52305 -1.96317,0.02727c-0.34058,-0.49573 0.34062,-0.89836 1.08429,-1.4092c0.7437,-0.51085 1.26821,-0.93651 1.60878,-0.44073c0.34058,0.49573 0.01377,1.31184 -0.72991,1.82265z" fill="#8fbbbe" stroke="none" stroke-width="0" stroke-linecap="butt"/><path d="M283.22709,217.46004c0,0 5.18661,-8.81923 11.17059,-13.46811c3.3926,-2.63566 7.29257,-3.78745 10.25913,-4.62756c2.62344,-0.74296 9.14545,0.08724 14.07134,1.24216c3.62667,0.8503 6.31601,2.04794 6.31601,2.04794" fill="none" stroke="#000000" stroke-width="0.5" stroke-linecap="round"/><path d="M307.60065,193.46035c0,0 6.56682,8.28584 8.14289,13.45625c1.32791,4.35617 0.97272,15.30781 0.97272,15.30781" fill="none" stroke="#000000" stroke-width="1" stroke-linecap="round"/><path d="M311.38086,224.646c0,0 -5.91875,-7.64179 -7.69771,-11.79942c-3.12351,-7.30003 -2.52046,-17.69299 -2.52046,-17.69299" fill="none" stroke="#000000" stroke-width="1" stroke-linecap="round"/></g><g stroke="#000000" stroke-linecap="butt"><path d="M290.43539,243.9507c30.69634,-13.00205 38.99633,-8.0862 42.15216,-0.63563c3.15584,7.45057 -19.17017,24.03069 -49.86652,37.03274c-30.69635,13.00203 -7.8655,-55.51251 -11.02133,-62.96308c1.26315,-6.98089 6.92304,-3.73076 10.30209,3.36418c4.16715,8.74971 5.80979,24.31318 8.4336,23.20181z" fill="#0d69be" stroke-width="2"/><path d="M308.78207,223.05211c13.17567,-5.5808 28.49718,0.8509 34.22161,14.36564c5.72443,13.51474 -0.31598,28.99473 -13.49162,34.57554c-13.17567,5.5808 -28.49719,-0.85092 -34.22161,-14.36565c-5.72443,-13.51474 0.31598,-28.9947 13.49166,-34.57551z" fill="#faddbf" stroke-width="2"/><path d="M313.535,264.19403c13.17567,-5.5808 22.80061,-40.32034 28.52507,-26.80561c5.72443,13.51474 -0.31599,28.99471 -13.49166,34.57551c-13.17567,5.5808 -28.20909,-2.1891 -15.03343,-7.7699z" fill="#ef8b89" stroke-width="0"/></g></g><path d="M262.87582,164.21288c0.076,-0.24871 0.42053,-1.11913 1.47041,-0.88968c1.22118,0.26689 0.95429,1.48807 0.95429,1.48807l-0.12295,0.38777c-1.06457,2.14603 -2.35784,4.15106 -3.49511,6.25551c-1.20036,1.59343 -2.55833,3.69543 -4.41981,4.58828c-3.76952,1.80802 -7.76906,-1.92269 -8.50268,-5.46153c-0.9389,-4.52909 0.84582,-9.88661 2.97399,-13.88484c0,0 0.5921,-1.10086 1.69298,-0.50876c1.10086,0.5921 0.50876,1.69298 0.50876,1.69298c-1.52636,2.80299 -3.22507,7.17489 -3.00849,10.43343c0.14052,2.11434 1.51117,5.98709 4.36367,5.80035c1.79926,-0.11779 3.34214,-2.7663 4.28752,-4.01007c1.06335,-1.98722 2.28685,-3.87406 3.29741,-5.89149z" fill="#000000" stroke="none" stroke-width="0.5" stroke-linecap="butt"/></g></g></svg>