<svg version="1.1" xmlns="http://www.w3.org/2000/svg" xmlns:xlink="http://www.w3.org/1999/xlink" width="195.77664" height="330.74437" viewBox="0,0,195.77664,330.74437"><g transform="translate(-212.9747,-30.24301)"><g data-paper-data="{&quot;isPaintingLayer&quot;:true}" fill-rule="nonzero" stroke-linejoin="miter" stroke-miterlimit="10" stroke-dasharray="" stroke-dashoffset="0" style="mix-blend-mode: normal"><g stroke="#000000" stroke-linecap="butt"><path d="M297.65427,226.57808c24.46735,-22.64216 48.7572,-36.18301 54.25287,-30.24433c5.49567,5.93868 -9.88392,29.10804 -34.35128,51.7502c-24.46735,22.64216 -48.75719,36.18302 -54.25286,30.24434c-5.49567,-5.93867 9.88392,-29.10804 34.35129,-51.7502z" fill="#0d69be" stroke-width="2"/><path d="M322.64033,185.34543c10.50201,-9.71859 27.09679,-8.8644 37.0655,1.90788c9.9687,10.77228 9.53639,27.38341 -0.96563,37.102c-10.50202,9.71859 -27.09679,8.86439 -37.0655,-1.90789c-9.9687,-10.77228 -9.53638,-27.38341 0.96563,-37.102z" fill="#faddbf" stroke-width="2"/><path d="M341.06494,222.43697c10.50202,-9.71859 7.77454,-45.66351 17.74324,-34.89122c9.9687,10.77228 9.53636,27.3834 -0.96563,37.102c-10.50202,9.71859 -27.27961,7.50782 -16.7776,-2.21076z" fill="#ef8b89" stroke-width="0"/></g><g stroke="#000000" stroke-linecap="butt"><path d="M307.76518,340.83533v-95.29492h29.49199v95.29492z" fill="#73fffc" stroke-width="2"/><path d="M307.43943,340.21739l1.32626,-93.78573c0,0 5.20288,68.11227 6.3799,77.52842c0.2602,2.08162 2.52228,2.78987 2.52228,2.78987l18.60659,13.13896z" fill="#59a9e6" stroke-width="0"/></g><g stroke="#000000" stroke-linecap="butt"><path d="M268.4238,338.41281v-95.29492h29.49199v95.29492z" fill="#73fffc" stroke-width="2"/><path d="M268.09805,337.79487l1.32626,-93.78573c0,0 5.20288,68.11227 6.3799,77.52842c0.2602,2.08162 2.52228,2.78987 2.52228,2.78987l18.60659,13.13896z" fill="#59a9e6" stroke-width="0"/></g><g stroke="#000000" stroke-linecap="butt"><path d="M335.22917,235.69585c0,13.80271 10.04743,36.74388 4.95001,46.45977c-6.2338,11.88187 -28.61241,9.09579 -38.9397,9.09579c-13.66287,0 -32.94407,4.17018 -38.34426,-14.83216c-2.01935,-7.10576 4.35457,-32.37264 4.35457,-40.7234c0,-30.68249 15.2177,-55.55556 33.98969,-55.55556c18.77199,0 33.98969,24.87307 33.98969,55.55556z" fill="#0d69be" stroke-width="2"/><path d="M283.96554,251.27245c0,13.80271 62.04198,20.54886 56.94455,30.26474c-6.2338,11.88186 -28.61241,9.09579 -38.9397,9.09579c-13.66287,0 -32.94406,4.17018 -38.34425,-14.83215c-2.01936,-7.10576 4.35457,-32.37265 4.35457,-40.7234c0,-9.45244 3.34855,-28.59801 5.51953,-29.96813c5.94391,-16.76415 10.4653,25.13995 10.4653,46.16315z" fill="#10157d" stroke-width="0"/></g><g stroke-linecap="butt"><g stroke="#000000"><g><path d="M216.32439,112.01851c3.73336,-46.64161 44.57034,-81.42563 91.21195,-77.69227c46.64161,3.73336 81.42563,44.57034 77.69227,91.21195c-3.73336,46.64161 -44.57034,81.42563 -91.21195,77.69227c-46.64161,-3.73336 -81.42563,-44.57034 -77.69227,-91.21195z" fill="#faddbf" stroke-width="2"/><path d="M216.6238,111.17018c1.20116,-15.00628 11.90189,-40.18967 16.65301,-43.03382c0.54259,-0.32481 6.47891,-8.42019 14.51134,-14.51526c9.98377,-7.57576 22.45608,-13.40742 23.04918,-13.16226c7.73818,3.19862 -22.64532,63.24974 -23.4282,88.55789c-0.00187,0.06035 2.82144,19.99043 4.39974,20.55708c2.49791,4.95758 7.55366,19.81925 17.83058,27.80483c19.15225,14.88205 47.21558,23.52237 45.69667,23.90814c-2.42971,0.61708 -14.97645,1.57912 -21.02003,1.09537c-46.64161,-3.73336 -81.42563,-44.57034 -77.69227,-91.21195z" fill="#ef8b89" stroke-width="0"/><path d="M384.7434,125.03968c-0.92749,11.58728 -2.82078,15.46495 -3.22333,13.57509c-0.41068,-1.92801 0.59693,-9.79723 -7.84491,-15.32404c-2.04562,-1.33926 -10.67446,5.4417 -13.29538,3.99985c-1.64624,-0.90566 -7.81268,-10.83344 -9.66632,-11.66c-1.29603,-0.57792 -13.07885,7.35749 -14.43797,6.79661c-3.38971,-1.39886 -11.04281,-12.29383 -14.72956,-13.24905c-2.03018,-0.52601 -10.19868,11.07133 -12.28072,10.65002c-2.68506,-0.54334 -9.0736,-12.83331 -11.80226,-13.05172c-7.25664,-0.58085 -8.01531,6.39164 -13.71566,11.96079c-3.70422,3.61897 -12.90244,-14.12638 -16.37016,-9.95456c-4.30651,5.1809 -8.55843,10.16726 -13.07315,13.41703c-3.54196,2.54957 -12.51594,-11.13098 -15.59163,-8.75102c-14.85027,11.49111 -23.7998,18.80473 -22.34991,0.69083c2.91548,-36.42365 43.80497,-4.73346 87.1717,-22.85281c41.5102,-17.34366 84.12474,-2.67066 81.20927,33.753z" fill="#ef8b89" stroke-width="0"/></g><path d="M386.93549,116.87768c-1.8737,23.40847 5.8155,9.20868 -11.36159,-1.77243c-2.10197,-1.34377 -10.94244,5.42025 -13.63498,3.97266c-1.69122,-0.90926 -8.03985,-10.85162 -9.94374,-11.68221c-1.33117,-0.58073 -13.40575,7.33132 -14.80162,6.7675c-3.48136,-1.4062 -11.35759,-12.31903 -15.14283,-13.28213c-2.08442,-0.53035 -10.44241,11.05182 -12.57983,10.62607c-2.75647,-0.54905 -9.33797,-12.85447 -12.13851,-13.07864c-7.44779,-0.59615 -8.2117,6.37592 -14.04958,11.93407c-3.7936,3.61182 -13.26972,-14.15578 -16.81948,-9.99053c-4.40837,5.17275 -8.76114,10.15104 -13.3872,13.39189c-3.62932,2.54258 -12.86684,-11.15907 -16.01804,-8.78515c-15.21487,11.46192 -24.38333,18.75802 -22.93343,0.64412c2.91548,-36.42365 46.2189,-77.81734 91.99932,-74.15291c45.78041,3.66442 83.727,48.98403 80.81153,85.40769z" fill="#873412" stroke-width="2"/><path d="M386.78133,115.69883c-1.8737,23.40847 5.8155,9.20868 -11.36159,-1.77243c-2.10197,-1.34377 -10.94244,5.42025 -13.63498,3.97266c-1.69122,-0.90926 -8.03985,-10.85162 -9.94375,-11.68221c-1.33117,-0.58073 -13.40575,7.33132 -14.80162,6.7675c-3.48136,-1.4062 -11.35759,-12.31903 -15.14283,-13.28213c-2.08442,-0.53035 -10.44241,11.05182 -12.57983,10.62607c-2.75647,-0.54905 -9.33797,-12.85447 -12.13851,-13.07864c-7.44779,-0.59615 -8.2117,6.37592 -14.04958,11.93407c-3.7936,3.61182 -13.26972,-14.15578 -16.81948,-9.99053c-4.40837,5.17275 -8.76114,10.15104 -13.38721,13.39189c-3.62932,2.54258 -12.86684,-11.15907 -16.01804,-8.78515c-15.21487,11.46192 -24.38333,18.75802 -22.93343,0.64412c2.91548,-36.42365 44.94156,-4.64248 89.40537,-22.67402c42.56031,-17.2596 86.32095,-2.49486 83.40547,33.92879z" fill="#741d23" stroke-width="0"/></g><path d="M307.66532,42.00721c0.05561,0.12045 0.09846,0.25777 0.13071,0.40767c0.07322,0.26584 0.10333,0.54829 0.08292,0.83863c0.01771,1.14137 -0.24531,2.50175 -0.23969,2.99588c0.0074,0.64918 1.24614,-0.64996 1.87992,-0.50923c0.38823,0.08621 0.72729,0.82228 1.04261,0.57995c1.91358,-1.47066 3.73992,-4.19377 6.35618,-2.35593c0.86646,0.60865 0.52327,1.9386 1.0315,2.6662c0.04273,0.06116 2.61179,0.07202 3.16299,0.65077c0.94976,0.99724 0.13852,2.27017 0.58071,3.30139c0.14149,0.32998 0.60794,-0.395 0.94693,-0.51328c1.50869,-0.52637 4.14459,-1.68124 5.8121,-0.54283c0.87864,0.59985 0.57001,2.19202 1.04005,2.67296c0.82404,0.84314 2.0363,-1.20646 3.12942,-1.64807c1.51185,-0.61078 2.18095,0.14585 3.35063,1.12844c0.20174,0.16948 0.1417,4.15659 1.14802,5.39857c0.56565,0.69812 1.71481,-0.72417 2.61155,-0.66769c0.89473,0.05636 2.76126,-0.51887 3.17352,-0.38192c0.82695,0.2747 1.43569,1.76102 2.21974,1.38079c4.00307,-1.94128 8.78271,-0.10532 6.7573,4.70854c-0.25632,0.60921 1.36349,-0.46662 1.97183,-0.20824c0.23584,0.10016 1.50544,1.20576 1.73878,1.13816c1.52621,-0.44217 2.51966,-1.08203 4.10604,-0.95893c1.31747,0.10223 2.52262,0.94496 2.71825,2.3455c0.10282,0.73605 -1.1636,2.03678 -0.43566,2.1866c1.71585,0.35316 4.37509,1.2937 3.40281,3.76148c-1.05542,2.67882 -3.54001,4.87672 -5.93775,2.58713c-0.8319,-0.79437 -2.39607,1.05482 -3.41205,0.51549c-1.30154,-0.69092 -1.78485,-3.0254 -1.61971,-4.19254c0.07634,-0.53954 -1.0997,0.28716 -1.62766,0.15224c-0.71082,-0.18165 -0.96539,-1.29654 -1.69027,-1.40974c-1.62141,-0.25319 -1.61507,3.14733 -5.42647,2.05318c-1.12498,-0.32295 -2.33396,-2.37479 -2.62468,-3.49952c-0.16876,-0.65288 1.6535,-2.52569 1.50438,-2.64355c-0.3621,-0.28617 -2.16518,2.66316 -2.6016,2.77084c-1.04992,0.25902 -2.11083,-0.5499 -3.06946,-1.05037c-0.84695,-0.44216 -1.30044,1.79188 -2.25558,1.7686c-0.84383,-0.02057 -9.2851,-1.22725 -9.57922,-1.7554c-0.35859,-0.64388 -0.68069,-1.78099 -0.46686,-2.47582c0.07685,-0.24971 1.11965,-1.7575 0.93705,-1.7519c-0.64804,0.01985 -4.44925,3.09457 -6.35209,-0.32224c-1.03475,-1.85803 1.25627,-3.50943 1.38908,-5.12814c0.08202,-0.99963 -1.23904,1.58161 -1.77788,2.42758c-0.41386,0.64977 -1.53456,1.18664 -2.30857,1.14975c-2.67609,-0.12755 -1.73429,-2.62152 -2.17374,-4.17593c-0.2028,-0.71735 -1.62024,0.46738 -2.23591,0.04707c-1.50532,-1.02767 -1.17758,-2.16967 -1.1926,-3.70795c-0.00688,-0.70434 -0.76359,2.66272 -2.41624,2.69752c-0.67023,0.01411 -1.64242,-1.08184 -1.95133,-0.48687c-1.50393,2.89668 -0.89775,4.16117 -4.64332,3.37875c-0.36144,-0.0755 -1.03809,0.71511 -1.41188,0.45993c-4.137,-2.82433 -0.22475,-7.97478 0.21669,-11.96036c0.15572,-1.40589 -0.59838,-3.58677 0.68181,-4.18832c0.49229,-0.6998 1.33127,-1.12854 2.2459,-1.05533c0.81098,0.06491 1.50047,0.50998 1.90754,1.14621c0.06813,0.08267 0.12668,0.17344 0.17325,0.27434z" fill="#ba587e" stroke="none" stroke-width="0.5"/></g><g stroke="#000000" stroke-linecap="butt"><path d="M344.68309,156.64139c-2.27867,28.46789 -16.58031,42.10078 -33.09603,40.7788c-16.51572,-1.32198 -28.99135,-17.09822 -26.71268,-45.5661c2.27867,-28.46789 17.51453,-50.474 34.03025,-49.15202c16.51572,1.32198 28.05713,25.47143 25.77846,53.93932z" fill="#f0f0f0" stroke-width="2"/><path d="M299.63887,133.39089c-6.54153,27.79966 29.16415,64.57443 12.64843,63.25246c-16.51572,-1.32198 -28.99135,-17.09822 -26.71268,-45.5661c2.27867,-28.46789 23.52137,-57.87645 14.06425,-17.68635z" fill="#9a99ff" stroke-width="0"/></g><path d="M340.14416,164.53766c-1.26243,15.77177 -6.95979,28.18319 -12.72541,27.72169c-5.76562,-0.4615 -9.41618,-13.62117 -8.15375,-29.39293c1.26243,-15.77177 6.95979,-28.18319 12.72541,-27.72169c5.76562,0.4615 9.41618,13.62117 8.15375,29.39293z" fill="#000000" stroke="none" stroke-width="0" stroke-linecap="butt"/><g stroke="#000000" stroke-linecap="butt"><path d="M342.08618,126.30279c3.62902,10.55301 -10.99303,13.28687 -26.65321,12.03337c-15.66017,-1.25349 -26.72296,-6.79538 -21.42545,-16.01733c5.04049,-8.77453 8.47707,-20.80889 24.13724,-19.5554c15.66017,1.25349 20.4829,13.48219 23.94141,23.53934z" fill="#a100fe" stroke-width="2"/><path d="M341.19312,125.87593c3.47745,10.54088 -10.65662,13.31379 -25.78282,12.10304c-15.1262,-1.21075 -25.79914,-6.72144 -20.65611,-15.95575c4.89351,-8.7863 6.46056,1.48223 21.58676,2.69299c15.1262,1.21075 21.53811,-8.88588 24.85216,1.15971z" fill="#99008e" stroke-width="0"/></g><g data-paper-data="{&quot;index&quot;:null}" stroke="#000000" stroke-linecap="butt"><path d="M381.68593,104.09175c16.51572,1.32198 28.05713,25.47143 25.77846,53.93932c-2.27867,28.46788 -17.10495,42.05879 -33.62067,40.73681c-16.51572,-1.32198 -28.46671,-17.05622 -26.18804,-45.52411c2.27867,-28.46789 17.51453,-50.474 34.03025,-49.15202z" fill="#f0f0f0" stroke-width="2"/><path d="M406.89664,157.15271c-2.27867,28.46788 -17.10495,42.05879 -33.62067,40.73681c-16.51572,-1.32198 24.58503,-31.94889 22.54882,-60.43515c-2.94376,-41.1827 13.35052,-8.76955 11.07185,19.69834z" fill="#9a99ff" stroke-width="0"/></g><path d="M393.34895,135.40329c5.78406,0 10.47297,12.82644 10.47297,28.64865c0,15.82221 -4.68891,28.64865 -10.47297,28.64865c-5.78406,0 -10.47297,-12.82644 -10.47297,-28.64865c0,-15.82221 4.68891,-28.64865 10.47297,-28.64865z" data-paper-data="{&quot;index&quot;:null}" fill="#000000" stroke="none" stroke-width="0" stroke-linecap="butt"/><g data-paper-data="{&quot;index&quot;:null}" stroke="#000000" stroke-linecap="butt"><path d="M355.04544,123.7045c5.01424,-9.37896 11.72075,-20.68482 27.38093,-19.43132c15.66017,1.25349 17.13872,13.68128 20.71929,23.14587c3.76314,9.94719 -8.04032,13.65878 -23.7005,12.40529c-15.66017,-1.25349 -29.66119,-6.27844 -24.39973,-16.11982z" fill="#a100fe" stroke-width="2"/><path d="M355.99503,123.42513c4.86979,-9.39053 9.59401,1.59748 24.72021,2.80824c15.1262,1.21075 18.30669,-8.67777 21.74028,0.77506c3.60866,9.93482 -7.80496,13.67762 -22.93116,12.46687c-15.1262,-1.21075 -28.63923,-6.19664 -23.52934,-16.05016z" fill="#99008e" stroke-width="0"/></g><path d="M371.63632,338.87001c0,11.6628 -14.51982,21.11737 -32.43092,21.11737c-17.9111,0 -32.43092,-9.45457 -32.43092,-21.11737c0,-2.33142 -0.03339,-13.76009 1.08979,-15.13837c4.49546,-5.51647 17.81784,5.26144 32.14847,5.26144c17.9111,0 31.62358,-1.78588 31.62358,9.87692z" fill="#000082" stroke="#000000" stroke-width="2" stroke-linecap="butt"/><path d="M369.75004,336.13771c0,6.30841 -13.89058,10.1901 -31.80169,10.1901c-17.9111,0 -30.16566,-2.95748 -30.16566,-9.26589c0,-1.26107 -0.03338,-12.52602 1.0898,-13.27153c4.49546,-2.98386 15.55258,5.7726 29.88321,5.7726c17.9111,0 30.99434,0.26631 30.99434,6.57472z" fill="#2e0048" stroke="#000000" stroke-width="0" stroke-linecap="butt"/><path d="M328.64938,338.2252c0,11.6628 -14.51982,21.11737 -32.43092,21.11737c-17.9111,0 -32.43092,-9.45457 -32.43092,-21.11737c0,-2.33142 -0.03339,-13.76009 1.08979,-15.13837c4.49546,-5.51647 17.81784,5.26144 32.14847,5.26144c17.9111,0 31.62358,-1.78588 31.62358,9.87692z" fill="#000082" stroke="#000000" stroke-width="2" stroke-linecap="butt"/><path d="M326.7631,335.49289c0,6.30841 -13.89058,10.1901 -31.80169,10.1901c-17.9111,0 -30.16566,-2.95748 -30.16566,-9.26589c0,-1.26107 -0.03338,-12.52602 1.0898,-13.27153c4.49546,-2.98386 15.55258,5.7726 29.88321,5.7726c17.9111,0 30.99434,0.26631 30.99434,6.57472z" fill="#2e0048" stroke="#000000" stroke-width="0" stroke-linecap="butt"/><g><g><path d="M310.90803,247.53319c-14.0426,5.51617 -25.01821,1.67609 -31.12153,-11.95692c-4.77349,-10.6625 2.18926,-27.38207 16.23189,-32.89824c14.04267,-5.51621 27.80824,-0.44938 33.26948,13.45329c0.85404,2.17411 0.99696,4.43404 1.1468,6.4969c0.80816,11.12823 -7.67998,20.25141 -19.52661,24.90496z" fill="#485e84" stroke="#000000" stroke-width="2" stroke-linecap="butt"/><path d="M285.96593,212.08722c0,0 1.68761,5.50299 3.61943,6.0335c18.53048,5.08874 31.94584,0.93587 36.27808,-0.77628c0.98429,-0.38899 1.16792,-1.49675 1.16792,-1.49675c0,0 0.97519,1.8754 1.40138,4.58323c0.45351,2.88136 0.33005,6.68776 -0.71668,9.5773c-1.1957,3.30066 -5.959,10.14314 -5.959,10.14314l-18.06536,10.60667c0,0 -12.74896,-4.29177 -14.43864,-5.64893c-1.65535,-1.32955 -3.23277,-3.37758 -4.9976,-5.48764c-2.74013,-3.27616 -4.26179,-7.55301 -4.42506,-10.42845c-0.20834,-3.66971 1.04088,-8.16319 2.68342,-11.60768c1.52868,-3.20573 3.4522,-5.498 3.4522,-5.498z" fill="#343545" stroke="none" stroke-width="0" stroke-linecap="butt"/><path d="M297.05513,233.8633c0,0 -4.96677,-7.53188 -4.59858,-12.67431c0.46607,-6.50978 4.96169,-18.67085 4.96169,-18.67085" fill="none" stroke="#000000" stroke-width="1" stroke-linecap="round"/><path d="M325.24547,210.30865c0,0 1.15251,7.05702 0.81287,11.34146c-0.34284,4.32534 -4.47017,13.10702 -4.47017,13.10702" fill="none" stroke="#000000" stroke-width="1" stroke-linecap="round"/><path d="M288.38445,240.58456c0,0 -5.21383,-7.65522 -4.56138,-13.20709c1.00116,-8.51915 4.56253,-19.55601 4.56253,-19.55601" fill="none" stroke="#000000" stroke-width="1" stroke-linecap="round"/><path d="M279.12306,228.42626c0,0 8.90837,-14.83632 26.28072,-16.15741c19.02921,-1.4471 25.03013,14.72322 25.03013,14.72322" fill="none" stroke="#000000" stroke-width="1" stroke-linecap="round"/><path d="M281.39145,237.67609c0,0 11.54893,-13.54565 26.87612,-14.74438c12.58502,-0.98424 18.91386,12.16355 18.91386,12.16355" fill="none" stroke="#000000" stroke-width="1" stroke-linecap="round"/><path d="M311.12945,205.63429c-1.1844,-0.21074 -2.00924,-1.14167 -1.8424,-2.07926c0.16678,-0.93764 0.95441,-0.82096 2.1388,-0.61022c1.1844,0.21074 2.31698,0.43574 2.15016,1.37336c-0.16678,0.93764 -1.26219,1.5269 -2.44655,1.31613z" fill="#8fbbbe" stroke="none" stroke-width="0" stroke-linecap="butt"/><path d="M318.04734,207.87075c-0.55985,0.2199 -1.28108,-0.28256 -1.61095,-1.12231c-0.32988,-0.83977 -0.34862,-1.22817 0.21121,-1.44809c0.55985,-0.2199 1.45005,0.21618 1.77989,1.05595c0.32988,0.83977 0.17965,1.29455 -0.38018,1.51445z" fill="#8fbbbe" stroke="none" stroke-width="0" stroke-linecap="butt"/><path d="M304.30705,204.48584c-0.87016,0.2385 -1.70439,-0.03836 -1.86341,-0.61843c-0.15904,-0.58002 0.61654,-0.73685 1.48666,-0.97537c0.87016,-0.2385 1.50529,-0.4685 1.66432,0.11157c0.15904,0.58002 -0.41746,1.2437 -1.28758,1.48223z" fill="#8fbbbe" stroke="none" stroke-width="0" stroke-linecap="butt"/><path d="M283.28079,215.67719c0,0 7.79336,-6.62896 14.97146,-9.05686c4.06963,-1.37648 8.1316,-1.18477 11.20955,-1.00491c2.72199,0.15902 8.61044,3.08339 12.88459,5.79075c3.14683,1.99327 5.29429,4.00707 5.29429,4.00707" fill="none" stroke="#000000" stroke-width="0.5" stroke-linecap="round"/><path d="M314.17999,201.00427c0,0 3.48432,9.98187 3.27651,15.38316c-0.17506,4.55072 -4.10421,14.7794 -4.10421,14.7794" fill="none" stroke="#000000" stroke-width="1" stroke-linecap="round"/><path d="M307.51768,231.70359c0,0 -3.08345,-9.1608 -3.39962,-13.672c-0.55512,-7.92078 3.42485,-17.54039 3.42485,-17.54039" fill="none" stroke="#000000" stroke-width="1" stroke-linecap="round"/></g><g stroke="#000000" stroke-linecap="butt"><path d="M281.39736,243.06635c33.26315,-2.20946 39.49048,5.15773 40.02675,13.23131c0.53628,8.07359 -25.9941,16.40964 -59.25725,18.6191c-33.26315,2.20946 10.7858,-55.01973 10.24953,-63.09331c3.48391,-6.17986 7.76393,-1.25248 8.62774,6.5584c1.06529,9.63265 -2.48997,24.87335 0.35322,24.6845z" fill="#0d69be" stroke-width="2"/><path d="M305.5858,229.34519c14.27739,-0.94837 26.64007,10.15482 27.61283,24.79963c0.97276,14.64482 -9.81277,27.28559 -24.09015,28.23396c-14.27739,0.94837 -26.64008,-10.15482 -27.61284,-24.79966c-0.97276,-14.64482 9.81277,-27.28557 24.09016,-28.23393z" fill="#faddbf" stroke-width="2"/><path d="M296.57532,269.76868c14.27739,-0.94837 34.7688,-30.60604 35.74156,-15.96121c0.97276,14.64482 -9.81277,27.28559 -24.09016,28.23393c-14.27739,0.94837 -25.92881,-11.32438 -11.65141,-12.27272z" fill="#ef8b89" stroke-width="0"/></g></g><path d="M272.69698,165.67941c-0.83623,0.74307 0.21024,2.00062 1.29512,3.65347c1.69423,2.58123 3.26526,6.3075 -0.10598,8.34192c-0.81597,0.49241 -2.73759,0.50037 -3.47592,0.50857c-0.85622,0.00952 -3.26127,-0.13652 -4.114,-0.23591c-1.42918,-0.16658 -2.82662,-0.63708 -4.13755,-1.23018c-6.26625,-3.56761 -7.62242,-14.97191 -2.57675,-20.17021c3.28609,-3.38549 9.06939,-3.91057 13.26417,-2.47001c3.19041,2.64573 8.5868,12.22792 0.4602,11.65111z" fill="#000000" stroke="none" stroke-width="0.5" stroke-linecap="butt"/></g></g></svg>