<svg version="1.1" xmlns="http://www.w3.org/2000/svg" xmlns:xlink="http://www.w3.org/1999/xlink" width="208.30044" height="343.63562" viewBox="0,0,208.30044,343.63562"><g transform="translate(-207.98331,-17.35174)"><g data-paper-data="{&quot;isPaintingLayer&quot;:true}" fill-rule="nonzero" stroke-linejoin="miter" stroke-miterlimit="10" stroke-dasharray="" stroke-dashoffset="0" style="mix-blend-mode: normal"><g stroke="#000000" stroke-linecap="butt"><path d="M342.98936,196.5087c28.06902,-17.98469 54.36217,-27.04124 58.72739,-20.22837c4.36522,6.81287 -14.85052,26.91527 -42.91954,44.89996c-28.06902,17.98469 -54.36217,27.04124 -58.72739,20.22837c-4.36522,-6.81287 14.85052,-26.91527 42.91955,-44.89996z" fill="#0d69be" stroke-width="2"/><path d="M374.83947,160.31472c12.04793,-7.71948 28.23364,-3.95923 36.15179,8.39876c7.91814,12.35799 4.5703,28.63401 -7.47764,36.35349c-12.04794,7.71948 -28.23364,3.95923 -36.15179,-8.39876c-7.91815,-12.35799 -4.57029,-28.63401 7.47764,-36.35349z" fill="#faddbf" stroke-width="2"/><path d="M386.45151,200.06907c12.04794,-7.71948 15.68651,-43.58363 23.60466,-31.22564c7.91814,12.35799 4.57029,28.634 -7.47764,36.35349c-12.04794,7.71948 -28.17495,2.59164 -16.12701,-5.12784z" fill="#ef8b89" stroke-width="0"/></g><g stroke="#000000" stroke-linecap="butt"><path d="M307.76518,340.83532v-95.29492h29.49199v95.29492z" fill="#73fffc" stroke-width="2"/><path d="M307.43943,340.21738l1.32626,-93.78573c0,0 5.20288,68.11227 6.3799,77.52842c0.2602,2.08162 2.52228,2.78987 2.52228,2.78987l18.60659,13.13896z" fill="#59a9e6" stroke-width="0"/></g><g stroke="#000000" stroke-linecap="butt"><path d="M268.4238,338.41279v-95.29492h29.49199v95.29492z" fill="#73fffc" stroke-width="2"/><path d="M268.09805,337.79486l1.32626,-93.78573c0,0 5.20288,68.11227 6.3799,77.52842c0.2602,2.08162 2.52228,2.78987 2.52228,2.78987l18.60659,13.13896z" fill="#59a9e6" stroke-width="0"/></g><g stroke="#000000" stroke-linecap="butt"><path d="M335.22917,235.69584c0,13.80271 10.04743,36.74388 4.95001,46.45977c-6.2338,11.88187 -28.61241,9.09579 -38.9397,9.09579c-13.66287,0 -32.94407,4.17018 -38.34426,-14.83216c-2.01935,-7.10576 4.35457,-32.37264 4.35457,-40.7234c0,-30.68249 15.2177,-55.55556 33.98969,-55.55556c18.77199,0 33.98969,24.87307 33.98969,55.55556z" fill="#0d69be" stroke-width="2"/><path d="M283.96554,251.27246c0,13.80271 62.04198,20.54886 56.94455,30.26474c-6.2338,11.88186 -28.61241,9.09579 -38.9397,9.09579c-13.66287,0 -32.94406,4.17018 -38.34425,-14.83215c-2.01936,-7.10576 4.35457,-32.37265 4.35457,-40.7234c0,-9.45244 3.34855,-28.59801 5.51953,-29.96813c5.94391,-16.76415 10.4653,25.13995 10.4653,46.16315z" fill="#10157d" stroke-width="0"/></g><g stroke-linecap="butt"><g stroke="#000000"><g><path d="M211.68631,105.8084c0,-46.79079 37.93143,-84.72222 84.72222,-84.72222c46.79079,0 84.72222,37.93143 84.72222,84.72222c0,46.79079 -37.93143,84.72222 -84.72222,84.72222c-46.79079,0 -84.72222,-37.93143 -84.72222,-84.72222z" fill="#faddbf" stroke-width="2"/><path d="M211.91708,104.93889c0,-15.05428 8.65728,-41.01117 13.16632,-44.22534c0.51494,-0.36707 5.78642,-8.91029 13.30693,-15.62682c9.34748,-8.34819 21.31473,-15.15641 21.9255,-14.95935c7.96872,2.57101 -17.52654,64.85492 -16.28763,90.14485c0.00295,0.06031 4.40745,19.70158 6.02593,20.14049c2.8855,4.74247 9.11092,19.15337 19.99223,26.29351c20.2786,13.30648 48.94186,19.68013 47.45857,20.18586c-2.37273,0.80898 -14.80271,2.76903 -20.86562,2.76903c-46.79079,0 -84.72222,-37.93143 -84.72222,-84.72222z" fill="#ef8b89" stroke-width="0"/><path d="M380.60731,105.3502c0,11.62434 -1.57787,15.64071 -2.12992,13.78899c-0.5632,-1.8891 -0.18668,-9.81362 -9.04258,-14.64925c-2.14596,-1.17177 -10.20624,6.27605 -12.93385,5.04791c-1.71325,-0.77142 -8.65215,-10.17554 -10.56583,-10.85157c-1.33801,-0.47267 -12.45011,8.37757 -13.84965,7.92692c-3.49052,-1.12394 -11.98851,-11.37355 -15.73972,-12.03156c-2.06568,-0.36235 -9.2828,11.84977 -11.39182,11.59592c-2.71985,-0.32737 -10.06862,-12.06843 -12.80601,-12.06843c-7.27985,0 -7.47978,7.01079 -12.7176,13.01701c-3.40366,3.90299 -13.98842,-13.05188 -17.11223,-8.61668c-3.87941,5.50799 -7.71992,10.81771 -11.96095,14.41734c-3.32724,2.82405 -13.36416,-10.09687 -16.24015,-7.47909c-13.88607,12.63935 -22.22353,20.64372 -22.22353,2.47189c0,-36.54015 43.28764,-8.21349 85.0704,-29.73523c39.99404,-20.60039 83.64345,-9.37431 83.64345,27.16584z" fill="#ef8b89" stroke-width="0"/></g><path d="M382.14118,97.03931c0,23.48334 6.5317,8.71531 -11.46679,-0.86026c-2.20249,-1.17177 -10.47508,6.27605 -13.27454,5.04791c-1.75838,-0.77142 -8.88005,-10.17554 -10.84414,-10.85157c-1.37326,-0.47267 -12.77806,8.37757 -14.21446,7.92692c-3.58246,-1.12394 -12.30429,-11.37355 -16.15431,-12.03156c-2.12009,-0.36235 -9.52731,11.84977 -11.69189,11.59592c-2.79149,-0.32737 -10.33384,-12.06843 -13.14333,-12.06843c-7.47161,0 -7.6768,7.01079 -13.05259,13.01701c-3.49332,3.90299 -14.35688,-13.05188 -17.56298,-8.61668c-3.98159,5.50799 -7.92327,10.81771 -12.276,14.41734c-3.41488,2.82405 -13.71618,-10.09687 -16.66792,-7.47909c-14.25184,12.63935 -22.80892,20.64372 -22.80892,2.47189c0,-36.54015 39.86264,-81.25697 85.78948,-81.25697c45.92683,0 87.36842,42.14743 87.36842,78.68758z" fill="#873412" stroke-width="2"/><path d="M381.89345,95.87652c0,23.48334 6.5317,8.71531 -11.46679,-0.86026c-2.20249,-1.17177 -10.47508,6.27605 -13.27454,5.04791c-1.75838,-0.77142 -8.88005,-10.17554 -10.84415,-10.85157c-1.37326,-0.47267 -12.77806,8.37757 -14.21446,7.92692c-3.58246,-1.12394 -12.30429,-11.37355 -16.15431,-12.03156c-2.12009,-0.36235 -9.52731,11.84977 -11.69189,11.59592c-2.79149,-0.32737 -10.33384,-12.06843 -13.14333,-12.06843c-7.47161,0 -7.6768,7.01079 -13.05259,13.01701c-3.49332,3.90299 -14.35688,-13.05188 -17.56298,-8.61668c-3.98159,5.50799 -7.92327,10.81771 -12.27601,14.41734c-3.41488,2.82405 -13.71618,-10.09687 -16.66792,-7.47909c-14.25184,12.63935 -22.80892,20.64372 -22.80892,2.47189c0,-36.54015 44.42786,-8.21349 87.31121,-29.73523c41.04751,-20.60039 85.84668,-9.37431 85.84668,27.16584z" fill="#741d23" stroke-width="0"/></g><path d="M297.14995,28.73237c0.06504,0.11563 0.11871,0.24909 0.16282,0.39594c0.0942,0.25915 0.14675,0.5383 0.14957,0.82934c0.10872,1.13632 -0.04492,2.51335 0.00011,3.00545c0.05917,0.64652 1.19031,-0.74732 1.8333,-0.6576c0.39387,0.05496 0.79058,0.76163 1.08556,0.49491c1.79014,-1.61865 3.39338,-4.4788 6.14794,-2.85557c0.91226,0.53758 0.67628,1.89067 1.24094,2.5754c0.04747,0.05756 2.60921,-0.1366 3.20483,0.39633c1.0263,0.91828 0.31921,2.25188 0.84227,3.24453c0.16737,0.31764 0.57449,-0.44225 0.90296,-0.5872c1.46188,-0.64507 3.99723,-2.00657 5.75026,-1.00484c0.9237,0.52783 0.74309,2.13955 1.25,2.58145c0.88869,0.7747 1.93355,-1.36509 2.98795,-1.89251c1.4583,-0.72946 2.18563,-0.02863 3.42998,0.8575c0.21462,0.15284 0.4729,4.13203 1.5751,5.28976c0.61955,0.65076 1.65156,-0.85868 2.54995,-0.87393c0.89637,-0.01521 2.71106,-0.73753 3.13293,-0.63391c0.84623,0.20784 1.57162,1.64085 2.32283,1.19928c3.83542,-2.25449 8.74631,-0.80574 7.11144,4.15438c-0.20689,0.62772 1.32191,-0.57392 1.94893,-0.36491c0.24308,0.08102 1.59685,1.0818 1.82405,0.9958c1.48606,-0.56253 2.42529,-1.27962 4.01644,-1.28349c1.32143,-0.00321 2.58997,0.74067 2.89673,2.12114c0.16122,0.7255 -0.99738,2.12313 -0.25981,2.21439c1.73856,0.21513 4.46436,0.94049 3.69208,3.47798c-0.83832,2.75449 -3.13962,5.14362 -5.7124,3.05264c-0.89263,-0.72546 -2.30427,1.24264 -3.36004,0.78609c-1.35252,-0.58487 -2.02055,-2.87334 -1.94906,-4.04994c0.03305,-0.54391 -1.07328,0.37399 -1.61032,0.28162c-0.72305,-0.12436 -1.06576,-1.21538 -1.79736,-1.27038c-1.63644,-0.12301 -1.3588,3.26616 -5.24535,2.4796c-1.14716,-0.23216 -2.516,-2.181 -2.89553,-3.27894c-0.22031,-0.63733 1.44671,-2.64957 1.28866,-2.75515c-0.38378,-0.25637 -1.94579,2.82743 -2.37223,2.96958c-1.02591,0.34197 -2.14798,-0.37973 -3.14348,-0.80211c-0.87953,-0.37317 -1.15332,1.88993 -2.10728,1.94293c-0.84278,0.04682 -9.35342,-0.4825 -9.68874,-0.98549c-0.40882,-0.61322 -0.82062,-1.721 -0.66291,-2.43068c0.05668,-0.25505 0.97585,-1.84123 0.79428,-1.82108c-0.64439,0.07149 -4.18815,3.4397 -6.35755,0.18561c-1.1797,-1.76955 0.97225,-3.59848 0.97549,-5.22262c0.002,-1.00299 -1.1089,1.67543 -1.57852,2.56169c-0.3607,0.68072 -1.43499,1.3053 -2.20947,1.33028c-2.67773,0.08638 -1.93793,-2.47479 -2.5,-3.98918c-0.25939,-0.69888 -1.57778,0.59517 -2.22503,0.22532c-1.58252,-0.90429 -1.34694,-2.0688 -1.48465,-3.60097c-0.06306,-0.70155 -0.5487,2.71516 -2.19331,2.88171c-0.66697,0.06754 -1.7235,-0.94735 -1.98395,-0.32962c-1.26801,3.00744 -0.56288,4.21953 -4.35893,3.73846c-0.36631,-0.04642 -0.97772,0.79566 -1.37068,0.57111c-4.34916,-2.48524 -0.86033,-7.93142 -0.7383,-11.93952c0.04305,-1.41383 -0.88265,-3.52759 0.34546,-4.22937c0.43488,-0.73685 1.23698,-1.23116 2.15454,-1.23116c0.81357,0 1.53638,0.38863 1.99291,0.99036c0.07451,0.07697 0.14011,0.16278 0.19459,0.25964z" fill="#ba587e" stroke="none" stroke-width="0.5"/></g><g stroke="#000000" stroke-linecap="butt"><path d="M327.15892,137.97817c0,28.55894 -13.1683,43.28947 -29.73684,43.28947c-16.56854,0 -30.26316,-14.73054 -30.26316,-43.28947c0,-28.55894 13.43146,-51.71053 30,-51.71053c16.56854,0 30,23.15159 30,51.71053z" fill="#f0f0f0" stroke-width="2"/><path d="M280.40319,118.39579c-4.30259,28.23297 34.22345,62.0416 17.65491,62.0416c-16.56854,0 -30.26316,-14.73054 -30.26316,-43.28947c0,-28.55894 18.82852,-59.56866 12.60825,-18.75213z" fill="#9a99ff" stroke-width="0"/></g><path d="M323.26449,146.21142c0,15.82221 -4.68891,28.64865 -10.47297,28.64865c-5.78406,0 -10.47297,-12.82644 -10.47297,-28.64865c0,-15.82221 4.68891,-28.64865 10.47297,-28.64865c5.78406,0 10.47297,12.82644 10.47297,28.64865z" fill="#000000" stroke="none" stroke-width="0" stroke-linecap="butt"/><g stroke="#000000" stroke-linecap="butt"><path d="M322.14962,107.9435c4.45946,10.22981 -9.89785,14.12162 -25.60811,14.12162c-15.71026,0 -27.17995,-4.64154 -22.63514,-14.25676c4.32432,-9.14873 6.78974,-21.41892 22.5,-21.41892c15.71026,0 21.49332,11.80491 25.74324,21.55405z" fill="#a100fe" stroke-width="2"/><path d="M321.22535,107.58926c4.3074,10.22981 -9.56036,14.12162 -24.73494,14.12162c-15.17458,0 -26.25318,-4.64154 -21.86334,-14.25676c4.17687,-9.14873 6.55823,0.96203 21.73281,0.96203c15.17458,0 20.76045,-10.57604 24.86546,-0.8269z" fill="#99008e" stroke-width="0"/></g><g data-paper-data="{&quot;index&quot;:null}" stroke="#000000" stroke-linecap="butt"><path d="M360.8856,85.23034c16.56854,0 30,23.15159 30,51.71053c0,28.55893 -13.69462,43.28947 -30.26316,43.28947c-13.95828,0 -25.50331,-10.45476 -28.79453,-30.82488c-0.61548,-3.80929 -0.9423,-7.96533 -0.9423,-12.46459c0,-28.55894 13.43146,-51.71053 30,-51.71053z" fill="#f0f0f0" stroke-width="2"/><path d="M390.24958,136.1106c0,28.55893 -13.69462,43.28947 -30.26316,43.28947c-16.56854,0 21.9575,-33.80863 17.65491,-62.0416c-6.22027,-40.81653 12.60825,-9.80681 12.60825,18.75213z" fill="#9a99ff" stroke-width="0"/></g><path d="M374.40669,116.95004c5.78406,0 10.47297,12.82644 10.47297,28.64865c0,15.82221 -4.68891,28.64865 -10.47297,28.64865c-5.78406,0 -10.47297,-12.82644 -10.47297,-28.64865c0,-15.82221 4.68891,-28.64865 10.47297,-28.64865z" data-paper-data="{&quot;index&quot;:null}" fill="#000000" stroke="none" stroke-width="0" stroke-linecap="butt"/><g data-paper-data="{&quot;index&quot;:null}" stroke="#000000" stroke-linecap="butt"><path d="M335.89491,106.90616c4.24992,-9.74914 10.03298,-21.55405 25.74324,-21.55405c15.71026,0 18.17568,12.27019 22.5,21.41892c4.54481,9.61522 -6.92488,14.25676 -22.63514,14.25676c-15.71026,0 -30.06757,-3.89181 -25.60811,-14.12162z" fill="#a100fe" stroke-width="2"/><path d="M336.81918,106.55192c4.10501,-9.74914 9.69088,0.8269 24.86546,0.8269c15.17458,0 17.55594,-10.11076 21.73281,-0.96203c4.38984,9.61522 -6.68876,14.25676 -21.86334,14.25676c-15.17458,0 -29.04234,-3.89181 -24.73494,-14.12162z" fill="#99008e" stroke-width="0"/></g><path d="M371.63632,338.87c0,11.6628 -14.51982,21.11737 -32.43092,21.11737c-17.9111,0 -32.43092,-9.45457 -32.43092,-21.11737c0,-2.33142 -0.03339,-13.76009 1.08979,-15.13837c4.49546,-5.51647 17.81784,5.26144 32.14847,5.26144c17.9111,0 31.62358,-1.78588 31.62358,9.87692z" fill="#000082" stroke="#000000" stroke-width="2" stroke-linecap="butt"/><path d="M369.75004,336.1377c0,6.30841 -13.89058,10.1901 -31.80169,10.1901c-17.9111,0 -30.16566,-2.95748 -30.16566,-9.26589c0,-1.26107 -0.03338,-12.52602 1.0898,-13.27153c4.49546,-2.98386 15.55258,5.7726 29.88321,5.7726c17.9111,0 30.99434,0.26631 30.99434,6.57472z" fill="#2e0048" stroke="#000000" stroke-width="0" stroke-linecap="butt"/><path d="M328.64938,338.22519c0,11.6628 -14.51982,21.11737 -32.43092,21.11737c-17.9111,0 -32.43092,-9.45457 -32.43092,-21.11737c0,-2.33142 -0.03339,-13.76009 1.08979,-15.13837c4.49546,-5.51647 17.81784,5.26144 32.14847,5.26144c17.9111,0 31.62358,-1.78588 31.62358,9.87692z" fill="#000082" stroke="#000000" stroke-width="2" stroke-linecap="butt"/><path d="M326.7631,335.49289c0,6.30841 -13.89058,10.1901 -31.80169,10.1901c-17.9111,0 -30.16566,-2.95748 -30.16566,-9.26589c0,-1.26107 -0.03338,-12.52602 1.0898,-13.27153c4.49546,-2.98386 15.55258,5.7726 29.88321,5.7726c17.9111,0 30.99434,0.26631 30.99434,6.57472z" fill="#2e0048" stroke="#000000" stroke-width="0" stroke-linecap="butt"/><g><g><path d="M276.23325,263.11235c-13.85595,-5.96956 -18.94655,-16.42402 -13.68234,-30.40248c4.11717,-10.93271 20.83327,-17.90379 34.68923,-11.93422c13.85602,5.96956 20.06418,19.25951 14.15415,32.9774c-0.92421,2.14522 -2.41384,3.85072 -3.75981,5.42114c-7.26102,8.47161 -19.71205,8.97422 -31.40121,3.93819z" fill="#485e84" stroke="#000000" stroke-width="2" stroke-linecap="butt"/><path d="M283.47683,220.37998c0,0 -2.67599,5.09608 -1.67763,6.83293c9.5765,16.66027 22.02717,23.15634 26.30913,24.99062c0.97286,0.41676 1.88318,-0.24062 1.88318,-0.24062c0,0 -0.62786,2.01839 -2.23168,4.2414c-1.70659,2.36548 -4.47419,4.98164 -7.25193,6.29666c-3.17298,1.50209 -11.37309,3.00757 -11.37309,3.00757l-20.29668,-5.18683c0,0 -6.03191,-12.02377 -6.27631,-14.17718c-0.23945,-2.10963 0.08229,-4.67463 0.31461,-7.41561c0.36073,-4.25576 2.29129,-8.36426 4.19981,-10.52118c2.43574,-2.7527 6.48654,-5.06418 10.0781,-6.35382c3.34261,-1.20024 6.32246,-1.47381 6.32246,-1.47381z" fill="#343545" stroke="none" stroke-width="0" stroke-linecap="butt"/><path d="M276.02011,243.65153c0,0 1.77577,-8.84561 5.65782,-12.23822c4.91424,-4.29473 16.66888,-9.76564 16.66888,-9.76564" fill="none" stroke="#000000" stroke-width="1" stroke-linecap="round"/><path d="M312.6231,246.77204c0,0 -4.1501,5.82293 -7.4078,8.62635c-3.28876,2.83023 -12.40257,6.16059 -12.40257,6.16059" fill="none" stroke="#000000" stroke-width="1" stroke-linecap="round"/><path d="M265.13053,242.31992c0,0 1.68717,-9.10713 6.05934,-12.59038c6.70895,-5.34492 17.00862,-10.67525 17.00862,-10.67525" fill="none" stroke="#000000" stroke-width="1" stroke-linecap="round"/><path d="M267.1138,227.16524c0,0 16.77184,-4.26388 30.03881,7.02911c14.53228,12.37003 7.40893,28.07826 7.40893,28.07826" fill="none" stroke="#000000" stroke-width="1" stroke-linecap="round"/><path d="M262.21225,235.33101c0,0 17.73831,-1.48821 29.46676,8.45176c9.63012,8.16163 4.86767,21.95431 4.86767,21.95431" fill="none" stroke="#000000" stroke-width="1" stroke-linecap="round"/><path d="M305.88974,233.51408c-0.69271,-0.98354 -0.62304,-2.22537 0.15556,-2.77373c0.77859,-0.54843 1.25577,0.08897 1.94848,1.0725c0.69271,0.98354 1.3386,1.94073 0.55999,2.48911c-0.77859,0.54843 -1.97137,0.19565 -2.66402,-0.78787z" fill="#8fbbbe" stroke="none" stroke-width="0" stroke-linecap="butt"/><path d="M309.22784,239.97288c-0.55239,-0.238 -0.71081,-1.10261 -0.35384,-1.93121c0.35698,-0.8286 0.61713,-1.11762 1.16953,-0.87965c0.55239,0.238 0.87753,1.17444 0.52052,2.00302c-0.35698,0.8286 -0.78386,1.0458 -1.33623,0.80781z" fill="#8fbbbe" stroke="none" stroke-width="0" stroke-linecap="butt"/><path d="M301.85345,227.89514c-0.78586,-0.44327 -1.18335,-1.22723 -0.88787,-1.75112c0.29543,-0.52388 0.95662,-0.08919 1.74247,0.35404c0.78586,0.44327 1.39881,0.72711 1.10335,1.25101c-0.29543,0.52388 -1.17209,0.58929 -1.95793,0.14605z" fill="#8fbbbe" stroke="none" stroke-width="0" stroke-linecap="butt"/><path d="M279.04246,221.03888c0,0 10.20157,0.77948 17.00842,4.10912c3.85913,1.88775 6.60874,4.88376 8.66789,7.17854c1.82104,2.02936 3.94375,8.2519 5.07287,13.18376c0.83132,3.63106 0.93849,6.57308 0.93849,6.57308" fill="none" stroke="#000000" stroke-width="0.5" stroke-linecap="round"/><path d="M311.31588,232.37386c0,0 -4.55346,9.5417 -8.50385,13.23108c-3.32829,3.1084 -13.32014,7.60586 -13.32014,7.60586" fill="none" stroke="#000000" stroke-width="1" stroke-linecap="round"/><path d="M284.97057,249.48409c0,0 4.26006,-8.67641 7.21167,-12.1026c5.18248,-6.01572 14.78158,-10.04487 14.78158,-10.04487" fill="none" stroke="#000000" stroke-width="1" stroke-linecap="round"/></g><g stroke="#000000" stroke-linecap="butt"><path d="M258.42139,239.16302c25.17715,21.85017 24.41251,31.46633 19.10907,37.57729c-5.30345,6.11097 -30.01285,-6.64819 -55.19,-28.49838c-25.17714,-21.85018 46.39656,-31.47798 51.7,-37.58894c6.82505,-1.93571 6.39531,4.57682 1.50942,10.73183c-6.02544,7.59057 -19.28054,15.91052 -17.1285,17.7782z" fill="#0d69be" stroke-width="2"/><path d="M285.25912,246.44912c10.80667,9.37865 11.76865,25.96753 2.14864,37.05231c-9.62001,11.08478 -26.17911,12.46788 -36.98578,3.08923c-10.80667,-9.37865 -11.76864,-25.96754 -2.14864,-37.05232c9.62001,-11.08478 26.1791,-12.46787 36.98577,-3.08923z" fill="#faddbf" stroke-width="2"/><path d="M250.39989,268.81164c10.80667,9.37865 46.23923,2.74464 36.61922,13.82943c-9.62001,11.08478 -26.17911,12.46788 -36.98577,3.08923c-10.80667,-9.37865 -10.44012,-26.29731 0.36656,-16.91865z" fill="#ef8b89" stroke-width="0"/></g></g><path d="M257.90354,153.96262c0,5.02398 -4.00129,9.09671 -8.93712,9.09671c-4.93584,0 -10.21385,-12.69067 -10.21385,-17.71465c0,-5.02398 4.48006,4.94733 9.4159,4.94733c4.93584,0 9.73508,-1.35337 9.73508,3.6706z" fill="#000000" stroke="none" stroke-width="0" stroke-linecap="butt"/></g></g></svg>