<svg version="1.1" xmlns="http://www.w3.org/2000/svg" xmlns:xlink="http://www.w3.org/1999/xlink" width="209.65233" height="316.06915" viewBox="0,0,209.65233,316.06915"><g transform="translate(-197.50832,-14.50895)"><g data-paper-data="{&quot;isPaintingLayer&quot;:true}" fill-rule="nonzero" stroke-linecap="butt" stroke-linejoin="miter" stroke-miterlimit="10" stroke-dasharray="" stroke-dashoffset="0" style="mix-blend-mode: normal"><g data-paper-data="{&quot;index&quot;:null}" stroke="#000000"><path d="M278.37389,226.05139l24.19656,-41.01837l50.56663,22.09987l-24.19656,41.01837z" fill="#ffcaa0" stroke-width="2"/><g><path d="M302.31402,185.11447l33.3644,-56.55986l51.22571,22.38792l-33.3644,56.55986z" fill="#0000c0" stroke-width="2"/><path d="M302.94435,185.61806l17.47529,-29.62438c0,0 8.06412,19.00238 16.56824,22.71907c8.06318,3.52398 33.20416,-0.96631 33.20416,-0.96631l-17.47529,29.62439c0,0 -16.37064,-7.1547 -24.62145,-10.76067c-8.33906,-3.64453 -25.15094,-10.99208 -25.15094,-10.99208z" fill="#56006b" stroke-width="0"/></g><path d="M279.43196,225.92946l24.19656,-41.01837l-3.42731,33.47094l29.79738,29.6473z" fill="#ff6e5b" stroke-width="0"/></g><g data-paper-data="{&quot;index&quot;:null}" stroke="#000000"><path d="M406.16065,82.31354c0,30.8266 -13.21565,55.81651 -29.518,55.81651c-16.30234,0 -29.518,-24.9899 -29.518,-55.81651c0,-30.8266 13.21565,-55.81651 29.518,-55.81651c16.30234,0 29.518,24.9899 29.518,55.81651z" fill="#01930e" stroke-width="2"/><path d="M357.33341,72.69523c0,30.8266 36.05847,65.01923 19.75614,65.01923c-16.30233,0 -29.518,-24.9899 -29.518,-55.81651c0,-30.8266 9.76186,-40.02932 9.76186,-9.20272z" fill="#31525b" stroke-width="0"/></g><g data-paper-data="{&quot;index&quot;:null}" stroke="#000000"><path d="M286.84134,329.15276v-86.40671h68.03395v86.40671z" fill="#273750" stroke-width="2"/><path d="M287.7169,328.42857v-86.40671l20.4918,47.20451l47.54213,39.20219z" fill="#1f1e2e" stroke-width="0"/></g><path d="M229.03186,242.35237v-108.92978h126.55266v108.92978z" data-paper-data="{&quot;index&quot;:null}" fill="#0000c0" stroke="#000000" stroke-width="2"/><g data-paper-data="{&quot;index&quot;:null}" stroke="#000000"><path d="M228.34102,329.57811v-86.40671h68.03395v86.40671z" fill="#273750" stroke-width="2"/><path d="M229.21662,328.85389v-86.40671l20.4918,47.20451l47.54213,39.20219z" fill="#1f1e2e" stroke-width="0"/></g><g data-paper-data="{&quot;index&quot;:null}" stroke="#000000"><path d="M258.93825,241.90324v-106.90231h68.03395v106.90231z" fill="#ffffff" stroke-width="2"/><path d="M259.81385,241.00728v-106.90231l20.4918,58.40138l47.54213,48.50094z" fill="#8ebbfc" stroke-width="0"/></g><g data-paper-data="{&quot;index&quot;:null}" stroke="#000000"><path d="M208.85193,80.81146c0,-1.31754 0.98634,-26.20797 1.09995,-27.50534c2.87068,-32.78315 40.54551,-35.1627 87.74572,-35.1627c44.33716,0 82.63676,4.34768 89.31151,34.2988c0.71223,3.1959 -0.46584,25.03221 -0.46584,28.36921c0,11.92769 3.32449,38.14362 -4.87619,47.63455c-15.59522,18.0489 -51.8115,15.03347 -83.96948,15.03347c-34.00126,0 -65.70847,0.93924 -80.6439,-18.85016c-6.61829,-8.76921 -8.20177,-33.19033 -8.20177,-43.81786z" fill="#ffcaa0" stroke-width="2"/><path d="M206.81314,80.82121c0,-1.31754 0.98634,-26.20797 1.09995,-27.50534c1.63099,-18.62582 7.63256,57.96393 60.77369,78.9503c41.64503,16.44637 114.96445,-7.73039 111.66738,-3.91458c-15.59522,18.0489 -52.53736,15.13761 -84.69534,15.13761c-34.00126,0 -65.70847,0.93924 -80.6439,-18.85016c-6.61829,-8.76921 -8.20177,-33.19033 -8.20177,-43.81786z" fill="#ff6e5b" stroke-width="0"/></g><g data-paper-data="{&quot;index&quot;:null}" stroke="#000000"><path d="M259.28592,80.32842c0,30.8266 -13.21565,55.81651 -29.518,55.81651c-16.30234,0 -29.518,-24.9899 -29.518,-55.81651c0,-30.8266 13.21565,-55.81651 29.518,-55.81651c16.30234,0 29.518,24.9899 29.518,55.81651z" fill="#01930e" stroke-width="2"/><path d="M210.45868,70.71011c0,30.8266 36.05847,65.01923 19.75614,65.01923c-16.30233,0 -29.518,-24.9899 -29.518,-55.81651c0,-30.8266 9.76186,-40.02932 9.76186,-9.20272z" fill="#31525b" stroke-width="0"/></g><g data-paper-data="{&quot;index&quot;:null}"><path d="M404.78407,45.118c0,16.90491 -45.99465,30.60905 -102.73192,30.60905c-56.73728,0 -102.73191,-13.70415 -102.73191,-30.60905c0,-16.90491 45.99464,-30.60904 102.73191,-30.60904c56.73728,0 102.73192,13.70414 102.73192,30.60905z" fill="#000000" stroke="none" stroke-width="NaN"/><path d="M403.97215,45.44755c0,16.90491 -45.99465,30.60905 -102.73192,30.60905c-56.73728,0 -102.73191,-13.70415 -102.73191,-30.60905c0,-16.90491 47.58768,8.47018 104.32494,8.47018c56.73728,0 101.13888,-25.37511 101.13888,-8.47018z" fill="#ff0000" stroke="#000000" stroke-width="2"/><path d="M397.98288,54.25079c0,4.65209 -40.41901,22.47816 -97.15629,21.10695c-19.85462,-0.47984 -38.58429,-2.04186 -53.85582,-4.86926c-28.35173,-5.2491 -45.75704,-13.46422 -43.16868,-17.37888c2.67332,-4.04314 41.88028,16.15573 98.61754,16.15573c56.73728,0 95.56326,-19.66662 95.56326,-15.01453z" fill="#900056" stroke="#000000" stroke-width="0"/></g><path d="M326.44845,104.5298c0,15.04467 -3.23057,27.24079 -7.21571,27.24079c-3.98514,0 -7.21571,-12.19612 -7.21571,-27.24078c0,-15.04467 3.23058,-27.24078 7.21571,-27.24078c3.98514,0 7.21571,12.19612 7.21571,27.24079z" data-paper-data="{&quot;index&quot;:null}" fill="#000000" stroke="none" stroke-width="0"/><path d="M355.08325,100.39318c0,14.98449 -3.06056,27.13183 -6.83593,27.13183c-3.77539,0 -6.83593,-12.14733 -6.83593,-27.13183c0,-14.98449 3.06056,-27.13183 6.83593,-27.13183c3.77539,0 6.83593,12.14733 6.83593,27.13183z" data-paper-data="{&quot;index&quot;:null}" fill="#000000" stroke="none" stroke-width="0"/><g data-paper-data="{&quot;index&quot;:null}" stroke="#000000"><path d="M311.76757,229.0561l-47.39686,-21.25808l26.20653,-43.28982l47.39686,21.25808z" fill="#ffcaa0" stroke-width="2"/><g><path d="M264.46265,208.01959l-65.35508,-29.31257l26.54811,-43.85406l65.35508,29.31257z" fill="#0000c0" stroke-width="2"/><path d="M265.05431,207.48238l-34.23106,-15.35306c0,0 22.16036,-6.74058 26.56769,-14.02092c4.17881,-6.90285 -0.77278,-28.58896 -0.77278,-28.58896l34.23107,15.35307c0,0 -8.48421,14.01483 -12.76025,21.07829c-4.32178,7.13902 -13.03466,21.53159 -13.03466,21.53159z" fill="#56006b" stroke-width="0"/></g><path d="M311.63708,228.14415l-47.39686,-21.25808l38.84767,3.3025l34.75572,-25.33423z" fill="#ff6e5b" stroke-width="0"/></g><path d="M285.0352,115.15662c-0.45832,0.71107 -0.66328,1.54504 -0.13879,2.35821c0.3796,0.58851 2.15745,1.72717 2.5751,2.08171c1.69949,1.44268 4.64381,3.92548 5.28793,6.03087c0.8113,2.65178 -1.47065,5.32237 -4.32315,5.82744c-0.59774,0.10584 -3.83936,-0.07443 -4.09279,-0.1202c-2.29764,-0.41493 -4.77117,-1.41532 -6.92506,-2.21331c-5.62491,-4.37581 -6.50077,-15.70873 0.70619,-19.39695c4.23408,-2.16682 8.94544,-0.44082 7.65418,4.21201l-0.30771,0.69984c0,0 -0.13382,0.2952 -0.43593,0.52038z" fill="#000000" stroke="none" stroke-width="0.5"/></g></g></svg>