<svg version="1.1" xmlns="http://www.w3.org/2000/svg" xmlns:xlink="http://www.w3.org/1999/xlink" width="213.19884" height="328.91978" viewBox="0,0,213.19884,328.91978"><g transform="translate(-187.05545,-32.0676)"><g data-paper-data="{&quot;isPaintingLayer&quot;:true}" fill-rule="nonzero" stroke-linejoin="miter" stroke-miterlimit="10" stroke-dasharray="" stroke-dashoffset="0" style="mix-blend-mode: normal"><g stroke="#000000" stroke-linecap="butt"><path d="M344.60245,210.31387c26.34755,20.42366 43.68785,42.1645 38.73065,48.55955c-4.9572,6.39504 -30.33473,-4.97741 -56.68227,-25.40106c-26.34755,-20.42366 -43.68785,-42.1645 -38.73065,-48.55955c4.9572,-6.39504 30.33473,4.97741 56.68227,25.40107z" fill="#0d69be" stroke-width="2"/><path d="M389.37393,228.20102c11.30903,8.76636 13.1874,25.27659 4.19544,36.87669c-8.99195,11.60007 -25.44916,13.89728 -36.75819,5.13092c-11.30903,-8.76636 -13.1874,-25.27659 -4.19544,-36.87669c8.99196,-11.60008 25.44917,-13.89727 36.75819,-5.13092z" fill="#faddbf" stroke-width="2"/><path d="M355.80542,252.45802c11.30903,8.76636 46.32026,0.18204 37.32831,11.78211c-8.99195,11.60007 -25.44915,13.89727 -36.75819,5.13092c-11.30903,-8.76636 -11.87915,-25.67937 -0.57011,-16.91302z" fill="#ef8b89" stroke-width="0"/></g><g stroke="#000000" stroke-linecap="butt"><path d="M307.76518,340.83532v-95.29492h29.49199v95.29492z" fill="#73fffc" stroke-width="2"/><path d="M307.43943,340.21738l1.32626,-93.78573c0,0 5.20288,68.11227 6.3799,77.52842c0.2602,2.08162 2.52228,2.78987 2.52228,2.78987l18.60659,13.13896z" fill="#59a9e6" stroke-width="0"/></g><g stroke="#000000" stroke-linecap="butt"><path d="M268.4238,338.4128v-95.29492h29.49199v95.29492z" fill="#73fffc" stroke-width="2"/><path d="M268.09805,337.79486l1.32626,-93.78573c0,0 5.20288,68.11227 6.3799,77.52842c0.2602,2.08162 2.52228,2.78987 2.52228,2.78987l18.60659,13.13896z" fill="#59a9e6" stroke-width="0"/></g><g stroke="#000000" stroke-linecap="butt"><path d="M334.02818,235.41416c0.15293,13.80186 10.45395,36.6303 5.4645,46.40206c-6.10175,11.95021 -28.50987,9.41227 -38.83653,9.52671c-13.66204,0.15139 -32.89583,4.53495 -38.50625,-14.40637c-2.09796,-7.08296 3.9956,-32.4189 3.90307,-40.76915c-0.33998,-30.68061 14.60118,-55.72077 33.37202,-55.92877c18.77083,-0.20801 34.26322,24.49493 34.60318,55.17554z" fill="#0d69be" stroke-width="2"/><path d="M282.94029,251.55785c0.15293,13.80186 62.26586,19.86015 57.27641,29.63191c-6.10176,11.9502 -28.50987,9.41227 -38.83653,9.52671c-13.66204,0.15139 -32.89582,4.53495 -38.50624,-14.40636c-2.09797,-7.08296 3.9956,-32.41891 3.90307,-40.76915c-0.10473,-9.45186 3.03146,-28.63335 5.18714,-30.02745c5.75779,-16.82898 10.74322,25.02245 10.97616,46.04435z" fill="#10157d" stroke-width="0"/></g><g stroke-linecap="butt"><g stroke="#000000"><g><path d="M191.22681,125.5675c-2.8526,-46.70375 32.69579,-86.87712 79.39955,-89.72972c46.70375,-2.8526 86.87711,32.69579 89.72971,79.39955c2.8526,46.70375 -32.69579,86.87712 -79.39955,89.72972c-46.70375,2.8526 -86.87711,-32.69579 -89.72971,-79.39955z" fill="#faddbf" stroke-width="2"/><path d="M191.40414,124.68553c-0.91778,-15.02628 6.14093,-41.46268 10.44564,-44.94576c0.4916,-0.39778 5.23244,-9.24649 12.32949,-16.40901c8.82116,-8.90253 20.35107,-16.42767 20.97272,-16.26821c8.11064,2.08041 -13.54006,65.80278 -10.76165,90.97015c0.00662,0.06002 5.60036,19.39623 7.24259,19.73565c3.16925,4.55774 10.26166,18.56231 21.55802,25.02577c21.0521,12.04544 50.05062,16.65978 48.60093,17.255c-2.319,0.95213 -14.60636,3.66633 -20.65799,4.03596c-46.70375,2.8526 -86.87712,-32.69579 -89.72972,-79.39955z" fill="#ef8b89" stroke-width="0"/><path d="M359.80566,114.8119c0.70868,11.60272 -0.62141,15.70781 -1.28531,13.89319c-0.67732,-1.85125 -0.78462,-9.78398 -9.91885,-14.07072c-2.2134,-1.03877 -9.80463,6.8866 -12.60204,5.82703c-1.75709,-0.66553 -9.25641,-9.62913 -11.20774,-10.18724c-1.36434,-0.39022 -11.91622,9.121 -13.34062,8.75652c-3.55255,-0.90905 -12.6596,-10.62152 -16.44395,-11.04962c-2.08392,-0.23575 -8.5431,12.39366 -10.66369,12.26885c-2.73476,-0.16094 -10.78565,-11.43215 -13.51795,-11.26527c-7.26631,0.44382 -7.03845,7.45376 -11.90036,13.76812c-3.15939,4.10324 -14.7581,-12.1748 -17.6057,-7.5574c-3.5364,5.73426 -7.04606,11.26824 -11.05976,15.11973c-3.14889,3.02164 -13.95487,-9.26335 -16.66591,-6.4751c-13.08968,13.4624 -20.92364,21.96018 -22.03149,3.82215c-2.22767,-36.47218 42.70639,-10.83723 83.09935,-34.86622c38.66374,-23.0003 82.91636,-14.45618 85.14402,22.016z" fill="#ef8b89" stroke-width="0"/></g><path d="M360.83001,106.42295c1.43166,23.43966 7.05087,8.3009 -11.49791,-0.15959c-2.26983,-1.03532 -10.07297,6.90299 -12.94211,5.8478c-1.80214,-0.66278 -9.48388,-9.61524 -11.48553,-10.17028c-1.39952,-0.38807 -12.24355,9.14101 -13.70475,8.77877c-3.64431,-0.90344 -12.97478,-10.60227 -16.85777,-11.02434c-2.13824,-0.23242 -8.78717,12.40856 -10.96319,12.28714c-2.80626,-0.15658 -11.05037,-11.41597 -13.85463,-11.2447c-7.45771,0.45551 -7.23511,7.46577 -12.23473,13.78855c-3.24887,4.1087 -15.12588,-12.15234 -18.05563,-7.52993c-3.6384,5.74047 -7.24903,11.28063 -11.37421,15.13893c-3.23636,3.02698 -14.30622,-9.24188 -17.09288,-6.44902c-13.45478,13.4847 -21.50795,21.99586 -22.61579,3.85783c-2.22767,-36.47218 34.83467,-83.53604 80.67608,-86.33597c45.84139,-2.79993 89.77542,36.74262 92.00309,73.2148z" fill="#873412" stroke-width="2"/><path d="M360.51185,105.27743c1.43166,23.43966 7.05087,8.3009 -11.49791,-0.15959c-2.26983,-1.03532 -10.07297,6.90299 -12.94211,5.8478c-1.80214,-0.66278 -9.48388,-9.61524 -11.48554,-10.17028c-1.39952,-0.38807 -12.24355,9.14101 -13.70475,8.77877c-3.64431,-0.90344 -12.97478,-10.60226 -16.85776,-11.02433c-2.13824,-0.23242 -8.78717,12.40855 -10.96319,12.28713c-2.80626,-0.15658 -11.05037,-11.41597 -13.85463,-11.24469c-7.45771,0.45551 -7.23511,7.46576 -12.23473,13.78854c-3.24887,4.1087 -15.12588,-12.15234 -18.05563,-7.52993c-3.6384,5.74047 -7.24904,11.28063 -11.37423,15.13893c-3.23636,3.02698 -14.30622,-9.24188 -17.09288,-6.44902c-13.45478,13.4847 -21.50795,21.99586 -22.61579,3.85783c-2.22767,-36.47218 43.84449,-10.90676 85.33599,-35.00284c39.71526,-23.06452 85.11549,-14.5905 87.34316,21.88168z" fill="#741d23" stroke-width="0"/></g><path d="M271.83254,43.42455c0.07196,0.11146 0.13367,0.2414 0.18666,0.38527c0.10982,0.25292 0.1793,0.52835 0.19986,0.81867c0.1778,1.12758 0.10838,2.51142 0.18334,2.99985c0.09848,0.64171 1.14254,-0.81849 1.7898,-0.76814c0.39649,0.03084 0.83554,0.71202 1.11371,0.4278c1.68813,-1.72477 3.11402,-4.67734 5.96242,-3.22507c0.94334,0.48096 0.79029,1.84593 1.39565,2.49496c0.05089,0.05456 2.59603,-0.29542 3.22303,0.20021c1.08038,0.854 0.4559,2.22822 1.0385,3.18715c0.18642,0.30685 0.54646,-0.47645 0.86548,-0.64115c1.41983,-0.73299 3.86747,-2.24653 5.67831,-1.35354c0.95417,0.47054 0.87214,2.09027 1.40505,2.50044c0.93426,0.71907 1.84674,-1.48042 2.86702,-2.07115c1.41111,-0.81701 2.17983,-0.16183 3.47588,0.64679c0.22354,0.13948 0.72393,4.09552 1.89466,5.18389c0.65806,0.61178 1.59614,-0.95777 2.49192,-1.02776c0.89378,-0.06982 2.66105,-0.90143 3.08846,-0.82373c0.85732,0.15586 1.66872,1.54198 2.39163,1.05543c3.69084,-2.48412 8.68092,-1.33746 7.35149,3.7131c-0.16825,0.63916 1.28447,-0.65344 1.92306,-0.48304c0.24756,0.06605 1.65984,0.98243 1.88137,0.88274c1.449,-0.65208 2.34277,-1.4251 3.93072,-1.52597c1.31878,-0.08376 2.63031,0.5814 3.02065,1.9406c0.20516,0.71432 -0.86609,2.17999 -0.12432,2.22611c1.74845,0.10874 4.51339,0.66658 3.89725,3.24643c-0.66884,2.80047 -2.82019,5.32546 -5.51566,3.39521c-0.9352,-0.6697 -2.22424,1.3808 -3.30587,0.98947c-1.38566,-0.50132 -2.19197,-2.74481 -2.19235,-3.92358c-0.00017,-0.54491 -1.04848,0.43873 -1.59015,0.37927c-0.72929,-0.08005 -1.13787,-1.14815 -1.87147,-1.15845c-1.6409,-0.02302 -1.15715,3.34292 -5.08442,2.79477c-1.15918,-0.16179 -2.64428,-2.02355 -3.09005,-3.09631c-0.25876,-0.62272 1.28248,-2.73284 1.1183,-2.82859c-0.39869,-0.23249 -1.76979,2.9408 -2.18678,3.10868c-1.00315,0.40388 -2.16713,-0.24807 -3.18653,-0.60898c-0.90063,-0.31886 -1.03595,1.95672 -1.98491,2.06779c-0.83836,0.09811 -9.36544,0.08862 -9.7308,-0.39298c-0.44545,-0.58715 -0.92401,-1.66777 -0.80987,-2.38574c0.04103,-0.25802 0.86179,-1.89729 0.68179,-1.86611c-0.63883,0.11064 -3.97067,3.68863 -6.33441,0.57286c-1.28538,-1.69433 0.75106,-3.65106 0.65528,-5.27238c-0.05915,-1.00125 -1.0047,1.73992 -1.41941,2.65315c-0.31852,0.70145 -1.35274,1.39036 -2.12426,1.4625c-2.66748,0.24946 -2.0852,-2.35205 -2.73854,-3.82936c-0.3015,-0.68176 -1.53855,0.69024 -2.20716,0.36055c-1.63471,-0.80613 -1.47056,-1.98283 -1.70143,-3.50375c-0.10571,-0.69641 -0.38214,2.74356 -2.01354,3.01007c-0.66161,0.10807 -1.77806,-0.84052 -2.00036,-0.20806c-1.0823,3.07915 -0.30459,4.246 -4.1229,3.99725c-0.36846,-0.02401 -0.92739,0.85377 -1.33331,0.65361c-4.49259,-2.21547 -1.34227,-7.86421 -1.46483,-11.8723c-0.04322,-1.41382 -1.09607,-3.46721 0.08698,-4.24256c0.38916,-0.76199 1.15962,-1.30429 2.07548,-1.36022c0.81206,-0.0496 1.5572,0.29423 2.04958,0.86702c0.07906,0.07228 0.14978,0.15393 0.21005,0.2473z" fill="#ba587e" stroke="none" stroke-width="0.5"/></g><g stroke="#000000" stroke-linecap="butt"><path d="M300.19015,150.35401c1.74109,28.50582 -10.50466,44.01176 -27.04239,45.02186c-16.53773,1.0101 -31.10492,-12.85815 -32.84601,-41.36396c-1.74109,-28.50582 10.25395,-52.4332 26.79167,-53.4433c16.53773,-1.0101 31.35563,21.27958 33.09672,49.7854z" fill="#f0f0f0" stroke-width="2"/><path d="M252.32754,133.65852c-2.57336,28.44276 37.94215,59.83977 21.40443,60.84987c-16.53773,1.0101 -31.10492,-12.85815 -32.84601,-41.36396c-1.74109,-28.50582 15.16189,-60.60573 11.44158,-19.48591z" fill="#9a99ff" stroke-width="0"/></g><path d="M300.15144,156.14647c0.9646,15.79278 -2.93362,28.88123 -8.70693,29.23384c-5.77331,0.35263 -11.23546,-12.1641 -12.20005,-27.95688c-0.9646,-15.79278 2.93362,-28.88122 8.70693,-29.23384c5.77331,-0.35263 11.23545,12.16409 12.20004,27.95687z" fill="#000000" stroke="none" stroke-width="0" stroke-linecap="butt"/><g stroke="#000000" stroke-linecap="butt"><path d="M293.3591,120.6806c5.07483,9.93891 -9.01852,14.69878 -24.69955,15.65655c-15.68104,0.95778 -27.41236,-2.97588 -23.4622,-12.85028c3.75852,-9.39535 5.47131,-21.79302 21.15235,-22.75079c15.68104,-0.95778 22.17303,10.47261 27.00939,19.94452z" fill="#a100fe" stroke-width="2"/><path d="M292.41495,120.38338c4.92304,9.94819 -8.68165,14.6782 -23.828,15.60331c-15.14635,0.92511 -26.48732,-3.03238 -22.69183,-12.89734c3.61135,-9.38635 6.60468,0.56042 21.75103,-0.3647c15.14635,-0.92511 20.07707,-11.82203 24.76879,-2.34129z" fill="#99008e" stroke-width="0"/></g><g data-paper-data="{&quot;index&quot;:null}" stroke="#000000" stroke-linecap="butt"><path d="M331.38014,94.8897c16.53773,-1.0101 31.35563,21.27958 33.09672,49.7854c1.74109,28.50581 -11.03001,44.04384 -27.56773,45.05394c-16.53773,1.0101 -30.57957,-12.89023 -32.32066,-41.39604c-1.74109,-28.50582 10.25395,-52.4332 26.79167,-53.44329z" fill="#f0f0f0" stroke-width="2"/><path d="M363.79142,143.88514c1.74109,28.50581 -11.03,44.04385 -27.56772,45.05394c-16.53773,1.0101 19.85552,-35.08438 13.83971,-63.00253c-8.69708,-40.36139 11.98692,-10.55723 13.72801,17.94858z" fill="#9a99ff" stroke-width="0"/></g><path d="M350.19382,126.43883c5.77331,-0.35263 11.23545,12.16409 12.20004,27.95687c0.9646,15.79278 -2.93362,28.88123 -8.70693,29.23384c-5.77331,0.35263 -11.23546,-12.1641 -12.20005,-27.95688c-0.9646,-15.79278 2.93362,-28.88122 8.70693,-29.23384z" data-paper-data="{&quot;index&quot;:null}" fill="#000000" stroke="none" stroke-width="0" stroke-linecap="butt"/><g data-paper-data="{&quot;index&quot;:null}" stroke="#000000" stroke-linecap="butt"><path d="M307.75741,118.04876c3.64766,-9.99011 8.70028,-22.12561 24.38131,-23.08339c15.68104,-0.95778 18.88992,11.13928 23.76395,20.00736c5.12254,9.32026 -6.04284,14.65242 -21.72387,15.61019c-15.68104,0.95778 -30.24891,-2.0515 -26.42141,-12.53416z" fill="#a100fe" stroke-width="2"/><path d="M308.65836,117.63883c3.50303,-9.98127 9.72326,0.23456 24.86962,-0.69056c15.14635,-0.92511 16.90688,-11.16224 21.63374,-2.28517c4.96787,9.3297 -5.80715,14.63802 -20.95351,15.56313c-15.14635,0.92511 -29.22557,-2.11401 -25.54985,-12.58738z" fill="#99008e" stroke-width="0"/></g><path d="M371.63632,338.87c0,11.6628 -14.51982,21.11737 -32.43092,21.11737c-17.9111,0 -32.43092,-9.45457 -32.43092,-21.11737c0,-2.33142 -0.03339,-13.76009 1.08979,-15.13837c4.49546,-5.51647 17.81784,5.26144 32.14847,5.26144c17.9111,0 31.62358,-1.78588 31.62358,9.87692z" fill="#000082" stroke="#000000" stroke-width="2" stroke-linecap="butt"/><path d="M369.75004,336.1377c0,6.30841 -13.89058,10.1901 -31.80169,10.1901c-17.9111,0 -30.16566,-2.95748 -30.16566,-9.26589c0,-1.26107 -0.03338,-12.52602 1.0898,-13.27153c4.49546,-2.98386 15.55258,5.7726 29.88321,5.7726c17.9111,0 30.99434,0.26631 30.99434,6.57472z" fill="#2e0048" stroke="#000000" stroke-width="0" stroke-linecap="butt"/><path d="M328.64938,338.22519c0,11.6628 -14.51982,21.11737 -32.43092,21.11737c-17.9111,0 -32.43092,-9.45457 -32.43092,-21.11737c0,-2.33142 -0.03339,-13.76009 1.08979,-15.13837c4.49546,-5.51647 17.81784,5.26144 32.14847,5.26144c17.9111,0 31.62358,-1.78588 31.62358,9.87692z" fill="#000082" stroke="#000000" stroke-width="2" stroke-linecap="butt"/><path d="M326.7631,335.49289c0,6.30841 -13.89058,10.1901 -31.80169,10.1901c-17.9111,0 -30.16566,-2.95748 -30.16566,-9.26589c0,-1.26107 -0.03338,-12.52602 1.0898,-13.27153c4.49546,-2.98386 15.55258,5.7726 29.88321,5.7726c17.9111,0 30.99434,0.26631 30.99434,6.57472z" fill="#2e0048" stroke="#000000" stroke-width="0" stroke-linecap="butt"/><g><g><path d="M301.93446,254.38584c-14.61225,3.75562 -25.03523,-1.39916 -29.42374,-15.67679c-3.43231,-11.16666 5.52482,-26.90813 20.13709,-30.66375c14.61233,-3.75568 27.65409,2.9582 31.37235,17.42484c0.58147,2.2623 0.44667,4.52273 0.34284,6.58843c-0.56021,11.14346 -10.10133,19.15894 -22.42852,22.32727z" fill="#485e84" stroke="#000000" stroke-width="2" stroke-linecap="butt"/><path d="M281.51912,216.15315c0,0 1.00126,5.6682 2.85361,6.43119c17.76816,7.3189 31.59099,4.83953 36.10025,3.67059c1.0245,-0.26557 1.34237,-1.34252 1.34237,-1.34252c0,0 0.73828,1.98066 0.82978,4.72031c0.09737,2.91521 -0.49113,6.67787 -1.88372,9.41754c-1.59077,3.12947 -7.15588,9.33737 -7.15588,9.33737l-19.22792,8.31539c0,0 -12.12768,-5.82016 -13.63853,-7.37397c-1.48013,-1.52219 -2.79498,-3.74794 -4.28823,-6.05815c-2.31846,-3.58697 -3.30512,-8.01791 -3.11518,-10.89171c0.24246,-3.66762 2.03237,-7.97438 4.08422,-11.19188c1.90961,-2.99449 4.09927,-5.03404 4.09927,-5.03404z" fill="#343545" stroke="none" stroke-width="0" stroke-linecap="butt"/><path d="M289.85916,239.12293c0,0 -4.00739,-8.08325 -3.01243,-13.14193c1.25947,-6.40376 7.21,-17.92305 7.21,-17.92305" fill="none" stroke="#000000" stroke-width="1" stroke-linecap="round"/><path d="M320.72096,219.19642c0,0 0.27995,7.14503 -0.58164,11.35567c-0.86975,4.25085 -6.04106,12.46122 -6.04106,12.46122" fill="none" stroke="#000000" stroke-width="1" stroke-linecap="round"/><path d="M280.4309,244.73222c0,0 -4.23748,-8.2359 -2.9103,-13.66614c2.03653,-8.33252 6.9222,-18.8504 6.9222,-18.8504" fill="none" stroke="#000000" stroke-width="1" stroke-linecap="round"/><path d="M272.72756,231.5316c0,0 10.65757,-13.6342 28.061,-12.81869c19.06323,0.89328 23.03949,17.6766 23.03949,17.6766" fill="none" stroke="#000000" stroke-width="1" stroke-linecap="round"/><path d="M273.84654,240.98955c0,0 13.12028,-12.02999 28.47893,-11.34339c12.61086,0.56377 17.28258,14.38744 17.28258,14.38744" fill="none" stroke="#000000" stroke-width="1" stroke-linecap="round"/><path d="M307.28334,212.82919c-1.14968,-0.35415 -1.85437,-1.37906 -1.574,-2.28917c0.28031,-0.91017 1.04774,-0.69795 2.19741,-0.34381c1.14968,0.35415 2.24621,0.7161 1.96586,1.62623c-0.28031,0.91017 -1.43962,1.3609 -2.58925,1.00673z" fill="#8fbbbe" stroke="none" stroke-width="0" stroke-linecap="butt"/><path d="M313.87541,215.89568c-0.58255,0.14971 -1.23686,-0.43725 -1.46145,-1.31108c-0.2246,-0.87383 -0.19565,-1.2616 0.38689,-1.41135c0.58255,-0.14971 1.41267,0.39206 1.63722,1.2659c0.2246,0.87383 0.01983,1.30681 -0.56271,1.45651z" fill="#8fbbbe" stroke="none" stroke-width="0" stroke-linecap="butt"/><path d="M300.65283,210.85419c-0.89281,0.1302 -1.68687,-0.24672 -1.77369,-0.84189c-0.08684,-0.59513 0.70211,-0.65583 1.59489,-0.78605c0.89281,-0.1302 1.55132,-0.2807 1.63814,0.31447c0.08684,0.59513 -0.56657,1.18325 -1.45934,1.31345z" fill="#8fbbbe" stroke="none" stroke-width="0" stroke-linecap="butt"/><path d="M278.41472,219.38741c0,0 8.54625,-5.62507 15.96757,-7.15599c4.20752,-0.86794 8.21548,-0.18042 11.24825,0.37488c2.68204,0.49104 8.16822,4.11426 12.0788,7.32448c2.87915,2.36351 4.76393,4.62504 4.76393,4.62504" fill="none" stroke="#000000" stroke-width="0.5" stroke-linecap="round"/><path d="M310.87772,208.60741c0,0 2.23616,10.33332 1.36872,15.66855c-0.73083,4.49506 -5.88258,14.16581 -5.88258,14.16581" fill="none" stroke="#000000" stroke-width="1" stroke-linecap="round"/><path d="M300.50741,238.26027c0,0 -1.93882,-9.46937 -1.70038,-13.98534c0.41868,-7.92917 5.54632,-16.9892 5.54632,-16.9892" fill="none" stroke="#000000" stroke-width="1" stroke-linecap="round"/></g><g stroke="#000000" stroke-linecap="butt"><path d="M273.19256,246.34c33.28344,1.87912 38.56208,9.95323 38.10598,18.03174c-0.4561,8.07852 -27.80741,13.10412 -61.09087,11.22498c-33.28344,-1.87913 17.44001,-53.28556 17.89611,-61.36406c4.21422,-5.70688 7.85885,-0.29262 7.76,7.56525c-0.1219,9.69061 -5.51616,24.38146 -2.67123,24.54208z" fill="#0d69be" stroke-width="2"/><path d="M298.87877,235.6831c14.28609,0.80656 25.19659,13.33963 24.36927,27.99337c-0.82732,14.65376 -13.07917,25.87913 -27.36527,25.07256c-14.28609,-0.80656 -25.19659,-13.33964 -24.36926,-27.99338c0.82732,-14.65376 13.07916,-25.87912 27.36527,-25.07255z" fill="#faddbf" stroke-width="2"/><path d="M284.98755,274.69953c14.28609,0.80656 38.25398,-26.11955 37.42666,-11.4658c-0.82732,14.65376 -13.07917,25.87913 -27.36527,25.07255c-14.28609,-0.80656 -24.34751,-14.41331 -10.0614,-13.60675z" fill="#ef8b89" stroke-width="0"/></g></g><path d="M223.66955,160.95548l0.04103,-0.2685c0.09505,-0.29187 0.19011,-0.58372 0.28516,-0.87559c1.29599,-2.00234 5.02936,-2.23202 6.06628,0.44592c0.65286,1.68606 0.28984,4.06818 -0.43047,5.68568c-0.46201,1.03747 -1.35753,1.83881 -1.16556,3.0785c0.28362,1.83154 2.66804,2.59603 2.66071,4.67151c-0.00209,0.59277 -0.35068,1.13251 -0.52603,1.69874c-5.9689,1.21348 -9.90304,-4.51565 -8.93323,-10.1066c0.26993,-1.55612 1.12604,-3.01553 2.00212,-4.32968z" fill="#000000" stroke="none" stroke-width="0.5" stroke-linecap="butt"/></g></g></svg>