<svg version="1.1" xmlns="http://www.w3.org/2000/svg" xmlns:xlink="http://www.w3.org/1999/xlink" width="180.18824" height="328.04329" viewBox="0,0,180.18824,328.04329"><g transform="translate(-214.14881,-32.9441)"><g data-paper-data="{&quot;isPaintingLayer&quot;:true}" fill-rule="nonzero" stroke-linejoin="miter" stroke-miterlimit="10" stroke-dasharray="" stroke-dashoffset="0" style="mix-blend-mode: normal"><g stroke="#000000" stroke-linecap="butt"><path d="M337.82247,222.85747c8.47204,32.24195 8.996,60.0462 1.17028,62.10253c-7.82572,2.05632 -21.03767,-22.41398 -29.50972,-54.65593c-8.47204,-32.24195 -8.996,-60.0462 -1.17028,-62.10253c7.82572,-2.05632 21.03767,22.41398 29.50971,54.65593z" fill="#0d69be" stroke-width="2"/><path d="M362.45598,264.3017c3.63642,13.83906 -4.92318,28.0816 -19.1184,31.8116c-14.19521,3.73 -28.65061,-4.465 -32.28703,-18.30407c-3.63641,-13.83907 4.92318,-28.0816 19.1184,-31.8116c14.19522,-3.73001 28.65061,4.46501 32.28703,18.30407z" fill="#faddbf" stroke-width="2"/><path d="M321.05746,263.11377c3.63641,13.83907 36.6395,28.33983 22.44429,32.06983c-14.19521,3.73 -28.6506,-4.46501 -32.28703,-18.30407c-3.63641,-13.83907 6.20631,-27.60482 9.84273,-13.76575z" fill="#ef8b89" stroke-width="0"/></g><g stroke="#000000" stroke-linecap="butt"><path d="M307.76518,340.83534v-95.29492h29.49199v95.29492z" fill="#73fffc" stroke-width="2"/><path d="M307.43943,340.2174l1.32626,-93.78573c0,0 5.20288,68.11227 6.3799,77.52842c0.2602,2.08162 2.52228,2.78987 2.52228,2.78987l18.60659,13.13896z" fill="#59a9e6" stroke-width="0"/></g><g stroke="#000000" stroke-linecap="butt"><path d="M268.4238,338.41279v-95.29492h29.49199v95.29492z" fill="#73fffc" stroke-width="2"/><path d="M268.09805,337.79488l1.32626,-93.78573c0,0 5.20288,68.11227 6.3799,77.52842c0.2602,2.08162 2.52228,2.78987 2.52228,2.78987l18.60659,13.13896z" fill="#59a9e6" stroke-width="0"/></g><g stroke="#000000" stroke-linecap="butt"><path d="M335.22917,235.69586c0,13.80271 10.04743,36.74388 4.95001,46.45977c-6.2338,11.88187 -28.61241,9.09579 -38.9397,9.09579c-13.66287,0 -32.94407,4.17018 -38.34426,-14.83216c-2.01935,-7.10576 4.35457,-32.37264 4.35457,-40.7234c0,-30.68249 15.2177,-55.55556 33.98969,-55.55556c18.77199,0 33.98969,24.87307 33.98969,55.55556z" fill="#0d69be" stroke-width="2"/><path d="M283.96554,251.27245c0,13.80271 62.04198,20.54886 56.94455,30.26474c-6.2338,11.88186 -28.61241,9.09579 -38.9397,9.09579c-13.66287,0 -32.94406,4.17018 -38.34425,-14.83215c-2.01936,-7.10576 4.35457,-32.37265 4.35457,-40.7234c0,-9.45244 3.34855,-28.59801 5.51953,-29.96813c5.94391,-16.76415 10.4653,25.13995 10.4653,46.16315z" fill="#10157d" stroke-width="0"/></g><g stroke-linecap="butt"><g stroke="#000000"><g><path d="M217.45882,113.52185c4.39679,-46.58376 45.72468,-80.78305 92.30844,-76.38626c46.58376,4.39679 80.78305,45.72468 76.38626,92.30844c-4.39679,46.58376 -45.72468,80.78305 -92.30844,76.38626c-46.58376,-4.39679 -80.78305,-45.72468 -76.38626,-92.30844z" fill="#faddbf" stroke-width="2"/><path d="M217.77027,112.67787c1.4146,-14.98767 12.47267,-40.01621 17.26378,-42.79246c0.54715,-0.31706 6.59809,-8.32713 14.71646,-14.30726c10.09057,-7.4329 22.64462,-13.08647 23.23417,-12.83289c7.69187,3.30843 -23.54321,62.92104 -24.6862,88.21549c-0.00273,0.06032 2.53665,20.02856 4.10673,20.61761c2.4271,4.99263 7.27082,19.92475 17.43305,28.05578c18.9385,15.15312 46.87603,24.19197 45.35178,24.55608c-2.43825,0.58244 -14.99741,1.36581 -21.03349,0.7961c-46.58376,-4.39679 -80.78305,-45.72468 -76.38626,-92.30844z" fill="#ef8b89" stroke-width="0"/><path d="M385.67545,128.93867c-1.0923,11.57291 -3.0406,15.42324 -3.4162,13.52784c-0.3832,-1.93366 0.7363,-9.78774 -7.62602,-15.43414c-2.02636,-1.36823 -10.75082,5.28923 -13.35096,3.81022c-1.63318,-0.929 -7.6577,-10.94353 -9.49939,-11.79639c-1.28767,-0.59631 -13.18224,7.1706 -14.53324,6.59044c-3.36946,-1.44696 -10.86673,-12.44975 -14.53951,-13.45734c-2.02249,-0.55485 -10.35521,10.92506 -12.43105,10.47416c-2.67705,-0.5815 -8.89004,-12.96115 -11.61531,-13.21837c-7.24764,-0.68407 -8.10547,6.27692 -13.8845,11.76438c-3.75535,3.56589 -12.70008,-14.30858 -16.22683,-10.18654c-4.37981,5.11908 -8.70227,10.04443 -13.26278,13.22961c-3.57789,2.4989 -12.35626,-11.30798 -15.46551,-8.97203c-15.01231,11.27859 -24.06503,18.4641 -22.35747,0.37268c3.43357,-36.37847 43.8679,-4.10954 87.48812,-21.60986c41.75283,-16.75112 84.15423,-1.47311 80.72066,34.90536z" fill="#ef8b89" stroke-width="0"/></g><path d="M387.98348,120.80869c-2.20666,23.37943 5.68385,9.29051 -11.33522,-1.93395c-2.08264,-1.37355 -11.01847,5.26397 -13.69014,3.77821c-1.67811,-0.93324 -7.88459,-10.96495 -9.77647,-11.82255c-1.32277,-0.59962 -13.50874,7.13979 -14.89643,6.55616c-3.461,-1.4556 -11.18111,-12.47942 -14.95226,-13.4963c-2.07666,-0.55997 -10.59864,10.90209 -12.72979,10.44596c-2.74838,-0.58823 -9.15408,-12.98607 -11.95114,-13.25007c-7.43855,-0.70208 -8.30162,6.2584 -14.21801,11.7329c-3.84462,3.55746 -13.06691,-14.3432 -16.67559,-10.22889c-4.48154,5.10948 -8.90472,10.02532 -13.57644,13.20001c-3.66514,2.49067 -12.70672,-11.34106 -15.89138,-9.01223c-15.37646,11.24422 -24.64782,18.40909 -22.94027,0.31767c3.43357,-36.37847 47.32173,-77.15166 93.04536,-72.83606c45.72362,4.3156 83.02138,50.17068 79.58781,86.54916z" fill="#873412" stroke-width="2"/><path d="M387.84611,119.62776c-2.20666,23.37943 5.68385,9.29051 -11.33522,-1.93395c-2.08264,-1.37355 -11.01847,5.26397 -13.69014,3.77821c-1.67811,-0.93324 -7.88459,-10.96495 -9.77648,-11.82255c-1.32277,-0.59962 -13.50874,7.13979 -14.89643,6.55616c-3.461,-1.4556 -11.18111,-12.47942 -14.95226,-13.4963c-2.07666,-0.55997 -10.59864,10.90209 -12.72979,10.44596c-2.74838,-0.58823 -9.15408,-12.98607 -11.95114,-13.25007c-7.43855,-0.70208 -8.30162,6.2584 -14.21801,11.7329c-3.84462,3.55746 -13.06691,-14.3432 -16.67559,-10.22889c-4.48154,5.10948 -8.90472,10.02532 -13.57645,13.20001c-3.66514,2.49067 -12.70672,-11.34106 -15.89138,-9.01223c-15.37646,11.24422 -24.64782,18.40909 -22.94027,0.31767c3.43357,-36.37847 45.00308,-4.0024 89.71901,-21.39929c42.80164,-16.65213 86.34771,-1.26608 82.91414,35.11239z" fill="#741d23" stroke-width="0"/></g><path d="M309.78691,44.81762c0.05389,0.12123 0.09478,0.25914 0.12489,0.40949c0.06943,0.26686 0.09552,0.54971 0.07098,0.83973c0.00146,1.14151 -0.28089,2.49801 -0.2823,2.99216c-0.00184,0.64922 1.25527,-0.63216 1.88698,-0.48242c0.38696,0.09173 0.71551,0.83255 1.03425,0.59473c1.93432,-1.44327 3.79922,-4.14012 6.38907,-2.26523c0.85771,0.62092 0.49563,1.94585 0.99345,2.68061c0.04185,0.06177 2.6105,0.10918 3.15341,0.69572c0.93547,1.01066 0.1062,2.27191 0.53366,3.30932c0.13678,0.33196 0.6135,-0.38631 0.95414,-0.49975c1.51603,-0.50485 4.16809,-1.62208 5.81924,-0.46006c0.87001,0.61229 0.53876,2.19991 1.0019,2.68749c0.81196,0.85478 2.05327,-1.17736 3.15256,-1.60337c1.52039,-0.5892 2.17865,0.17687 3.33423,1.17601c0.19931,0.17233 0.08253,4.15818 1.07107,5.41436c0.55566,0.7061 1.72494,-0.69969 2.62079,-0.63045c0.89383,0.06909 2.76837,-0.47952 3.17863,-0.33671c0.82296,0.28644 1.41048,1.78127 2.19986,1.41224c4.0303,-1.88411 8.78332,0.01969 6.6896,4.80424c-0.26496,0.6055 1.36999,-0.44716 1.9746,-0.18016c0.23439,0.1035 1.48813,1.22706 1.72241,1.16279c1.53234,-0.4204 2.5348,-1.04606 4.11927,-0.9004c1.31588,0.12097 2.50891,0.98076 2.6846,2.38395c0.09233,0.73744 -1.19247,2.02002 -0.46674,2.18018c1.71065,0.37755 4.35623,1.35583 3.34893,3.80952c-1.09344,2.66353 -3.60906,4.82584 -5.97397,2.50236c-0.82051,-0.80613 -2.41084,1.02062 -3.41904,0.46688c-1.29158,-0.70937 -1.74161,-3.05049 -1.55988,-4.21517c0.08401,-0.5384 -1.10367,0.27148 -1.62966,0.12906c-0.70817,-0.19175 -0.94684,-1.31015 -1.67003,-1.43365c-1.61764,-0.27624 -1.6597,3.12403 -5.45514,1.97574c-1.12027,-0.33893 -2.29993,-2.40777 -2.57461,-3.53652c-0.15945,-0.65521 1.68928,-2.5019 1.54185,-2.62187c-0.35799,-0.2913 -2.20287,2.63208 -2.64078,2.73353c-1.0535,0.24406 -2.10279,-0.57989 -3.0542,-1.09394c-0.84057,-0.45417 -1.32581,1.77319 -2.28053,1.73632c-0.84345,-0.03258 -9.2667,-1.35928 -9.55327,-1.89155c-0.34939,-0.64892 -0.65527,-1.7905 -0.43157,-2.48222c0.0804,-0.2486 1.14455,-1.74139 0.96189,-1.73839c-0.64826,0.01062 -4.49284,3.03093 -6.34686,-0.41261c-1.0082,-1.87257 1.30609,-3.4912 1.46193,-5.10785c0.09624,-0.99836 -1.26143,1.56382 -1.81225,2.40203c-0.42307,0.64381 -1.5513,1.16468 -2.3247,1.11678c-2.674,-0.16562 -1.69681,-2.64594 -2.11409,-4.20645c-0.19257,-0.72016 -1.62673,0.44428 -2.23636,0.01524c-1.49054,-1.04899 -1.14658,-2.18621 -1.13971,-3.72454c0.00314,-0.70437 -0.80141,2.65159 -2.45439,2.66286c-0.67037,0.00457 -1.62685,-1.10511 -1.9442,-0.51459c-1.545,2.87498 -0.95689,4.14797 -4.69093,3.31232c-0.36033,-0.08064 -1.04816,0.70027 -1.41828,0.43978c-4.09639,-2.88292 -0.11123,-7.97717 0.38689,-11.95607c0.17571,-1.40353 -0.54727,-3.59492 0.74135,-4.17819c0.5022,-0.69273 1.3472,-1.10948 2.2607,-1.02326c0.80997,0.07645 1.49306,0.53128 1.89103,1.17325c0.06695,0.08363 0.12419,0.17523 0.16933,0.27678z" fill="#ba587e" stroke="none" stroke-width="0.5"/></g><g stroke="#000000" stroke-linecap="butt"><path d="M329.3976,156.39989c-2.6836,28.43258 -17.17781,41.86054 -33.67304,40.30365c-16.49523,-1.55689 -28.74507,-17.5091 -26.06148,-45.94166c2.6836,-28.43258 18.23111,-50.21961 34.72634,-48.66272c16.49523,1.55689 27.69178,25.86816 25.00818,54.30074z" fill="#f0f0f0" stroke-width="2"/><path d="M284.68885,132.51066c-6.93652,27.70375 28.24216,64.98296 11.74693,63.42606c-16.49523,-1.55689 -28.74507,-17.5091 -26.06148,-45.94166c2.6836,-28.43258 24.34269,-57.53583 14.31454,-17.4844z" fill="#9a99ff" stroke-width="0"/></g><path d="M324.74675,164.23076c-1.48676,15.7522 -7.36019,28.08129 -13.11866,27.53778c-5.75847,-0.54351 -9.22137,-13.7538 -7.7346,-29.506c1.48676,-15.7522 7.36019,-28.08129 13.11866,-27.53778c5.75847,0.54351 9.22137,13.7538 7.7346,29.506z" fill="#000000" stroke="none" stroke-width="0" stroke-linecap="butt"/><g stroke="#000000" stroke-linecap="butt"><path d="M327.23273,126.0274c3.47846,10.60359 6.19814,33.60427 -9.4426,32.12802c-15.64075,-1.47625 -44.0027,-27.65022 -38.57449,-36.79584c5.16486,-8.70191 8.77237,-20.68614 24.41312,-19.20989c15.64075,1.47625 20.28895,13.77234 23.60397,23.87769z" fill="#a100fe" stroke-width="2"/><path d="M326.34584,125.58789c3.32708,10.5893 6.34244,33.14106 -8.765,31.71515c-15.10744,-1.42591 -42.88833,-27.06821 -37.6144,-36.22839c5.01807,-8.71576 6.43881,1.57403 21.54625,2.99994c15.10744,1.42591 21.66239,-8.57845 24.83314,1.51329z" fill="#99008e" stroke-width="0"/></g><g data-paper-data="{&quot;index&quot;:null}" stroke="#000000" stroke-linecap="butt"><path d="M367.93161,107.05464c16.49523,1.55689 27.69178,25.86816 25.00818,54.30074c-2.6836,28.43257 -17.7018,41.81109 -34.19703,40.25419c-16.49523,-1.55689 -28.22108,-17.45963 -25.53748,-45.89221c2.6836,-28.43258 18.23111,-50.21961 34.72634,-48.66272z" fill="#f0f0f0" stroke-width="2"/><path d="M392.3846,160.46902c-2.6836,28.43257 -17.7018,41.81109 -34.19703,40.25419c-16.49523,-1.55689 25.03724,-31.59576 23.40665,-60.10811c-2.35734,-41.22043 13.47398,-8.57866 10.79038,19.85392z" fill="#9a99ff" stroke-width="0"/></g><path d="M378.41227,139.90453c5.75847,0.54351 9.22137,13.7538 7.7346,29.506c-1.48676,15.7522 -7.36019,28.08129 -13.11866,27.53778c-5.75847,-0.54351 -9.22137,-13.7538 -7.7346,-29.506c1.48676,-15.7522 7.36019,-28.08129 13.11866,-27.53778z" data-paper-data="{&quot;index&quot;:null}" fill="#000000" stroke="none" stroke-width="0" stroke-linecap="butt"/><g data-paper-data="{&quot;index&quot;:null}" stroke="#000000" stroke-linecap="butt"><path d="M341.01468,126.28626c5.14721,-9.30665 12.01396,-20.51591 27.6547,-19.03967c15.64075,1.47625 16.94227,13.92381 20.38777,23.4384c3.62119,9.99974 -27.93327,30.28012 -43.57401,28.80387c-15.64075,-1.47625 -9.86947,-23.4371 -4.46847,-33.2026z" fill="#a100fe" stroke-width="2"/><path d="M341.96815,126.02045c5.00294,-9.32027 9.5703,1.73386 24.67774,3.15977c15.10744,1.42591 18.42834,-8.41635 21.72705,1.08439c3.4669,9.98518 -27.63128,29.59337 -42.73872,28.16747c-15.10744,-1.42591 -8.91569,-22.63183 -3.66608,-32.41162z" fill="#99008e" stroke-width="0"/></g><path d="M371.63632,338.87002c0,11.6628 -14.51982,21.11737 -32.43092,21.11737c-17.9111,0 -32.43092,-9.45457 -32.43092,-21.11737c0,-2.33142 -0.03339,-13.76009 1.08979,-15.13837c4.49546,-5.51647 17.81784,5.26144 32.14847,5.26144c17.9111,0 31.62358,-1.78588 31.62358,9.87692z" fill="#000082" stroke="#000000" stroke-width="2" stroke-linecap="butt"/><path d="M369.75004,336.13772c0,6.30841 -13.89058,10.1901 -31.80169,10.1901c-17.9111,0 -30.16566,-2.95748 -30.16566,-9.26589c0,-1.26107 -0.03338,-12.52602 1.0898,-13.27153c4.49546,-2.98386 15.55258,5.7726 29.88321,5.7726c17.9111,0 30.99434,0.26631 30.99434,6.57472z" fill="#2e0048" stroke="#000000" stroke-width="0" stroke-linecap="butt"/><path d="M328.64938,338.2252c0,11.6628 -14.51982,21.11737 -32.43092,21.11737c-17.9111,0 -32.43092,-9.45457 -32.43092,-21.11737c0,-2.33142 -0.03339,-13.76009 1.08979,-15.13837c4.49546,-5.51647 17.81784,5.26144 32.14847,5.26144c17.9111,0 31.62358,-1.78588 31.62358,9.87692z" fill="#000082" stroke="#000000" stroke-width="2" stroke-linecap="butt"/><path d="M326.7631,335.49289c0,6.30841 -13.89058,10.1901 -31.80169,10.1901c-17.9111,0 -30.16566,-2.95748 -30.16566,-9.26589c0,-1.26107 -0.03338,-12.52602 1.0898,-13.27153c4.49546,-2.98386 15.55258,5.7726 29.88321,5.7726c17.9111,0 30.99434,0.26631 30.99434,6.57472z" fill="#2e0048" stroke="#000000" stroke-width="0" stroke-linecap="butt"/><g><g><path d="M311.23289,246.19444c-13.96928,5.69931 -24.99416,2.00309 -31.27522,-11.54894c-4.91251,-10.59917 1.83102,-27.40836 15.80032,-33.10768c13.96933,-5.69937 27.79999,-0.81296 33.44255,13.0171c0.8824,2.16275 1.05486,4.42063 1.23166,6.48135c0.9536,11.11671 -7.41452,20.3501 -19.19928,25.15817z" fill="#485e84" stroke="#000000" stroke-width="2" stroke-linecap="butt"/><path d="M285.82941,211.07767c0,0 1.75942,5.48046 3.69801,5.98565c18.59543,4.846 31.95534,0.51806 36.26483,-1.25059c0.97912,-0.40183 1.14824,-1.51189 1.14824,-1.51189c0,0 0.99963,1.86248 1.46119,4.56451c0.49115,2.87519 0.41747,6.68288 -0.59139,9.58586c-1.15244,3.31602 -5.82586,10.22018 -5.82586,10.22018l-17.92512,10.84199c0,0 -12.80398,-4.12469 -14.51127,-5.45964c-1.67259,-1.30779 -3.27666,-3.33503 -5.06893,-5.42182c-2.78273,-3.24006 -4.36019,-7.49664 -4.56105,-10.36969c-0.25631,-3.66668 0.93405,-8.1761 2.53141,-11.64178c1.48664,-3.22545 3.38001,-5.54267 3.38001,-5.54267z" fill="#343545" stroke="none" stroke-width="0" stroke-linecap="butt"/><path d="M297.20241,232.70687c0,0 -5.06484,-7.4663 -4.76391,-12.6131c0.3809,-6.51531 4.71712,-18.73414 4.71712,-18.73414" fill="none" stroke="#000000" stroke-width="1" stroke-linecap="round"/><path d="M325.08234,208.78561c0,0 1.2447,7.04135 0.9611,11.32986c-0.28625,4.32946 -4.2984,13.16436 -4.2984,13.16436" fill="none" stroke="#000000" stroke-width="1" stroke-linecap="round"/><path d="M288.62036,239.54095c0,0 -5.31348,-7.58639 -4.73369,-13.14631c0.88969,-8.53151 4.30643,-19.614 4.30643,-19.614" fill="none" stroke="#000000" stroke-width="1" stroke-linecap="round"/><path d="M279.20079,227.50477c0,0 8.71361,-14.95154 26.0672,-16.49968c19.00866,-1.6958 25.22051,14.39467 25.22051,14.39467" fill="none" stroke="#000000" stroke-width="1" stroke-linecap="round"/><path d="M281.58993,236.72414c0,0 11.37082,-13.69551 26.68102,-15.09455c12.57107,-1.14873 19.07129,11.91519 19.07129,11.91519" fill="none" stroke="#000000" stroke-width="1" stroke-linecap="round"/><path d="M310.9064,204.29624c-1.18705,-0.19523 -2.02399,-1.1153 -1.86943,-2.055c0.15451,-0.93974 0.9436,-0.83337 2.13064,-0.63813c1.18705,0.19523 2.32248,0.40541 2.16793,1.34512c-0.15451,0.93974 -1.24212,1.54327 -2.42913,1.348z" fill="#8fbbbe" stroke="none" stroke-width="0" stroke-linecap="butt"/><path d="M317.85295,206.44203c-0.55692,0.2272 -1.28467,-0.26578 -1.6255,-1.10115c-0.34083,-0.83538 -0.36465,-1.2235 0.19225,-1.45073c0.55692,-0.2272 1.45275,0.19721 1.79354,1.03259c0.34083,0.83538 0.19657,1.29209 -0.36034,1.51929z" fill="#8fbbbe" stroke="none" stroke-width="0" stroke-linecap="butt"/><path d="M304.06957,203.2371c-0.86697,0.24987 -1.70474,-0.01607 -1.87133,-0.59401c-0.16662,-0.5779 0.60685,-0.74485 1.47378,-0.99474c0.86697,-0.24987 1.49903,-0.48814 1.66564,0.0898c0.16662,0.5779 -0.40116,1.24906 -1.26809,1.49893z" fill="#8fbbbe" stroke="none" stroke-width="0" stroke-linecap="butt"/><path d="M283.19145,214.70242c0,0 7.70602,-6.7303 14.85175,-9.25186c4.05128,-1.42958 8.11541,-1.291 11.19545,-1.15141c2.72383,0.12341 8.65002,2.97053 12.95921,5.62177c3.17263,1.95195 5.34624,3.9375 5.34624,3.9375" fill="none" stroke="#000000" stroke-width="0.5" stroke-linecap="round"/><path d="M313.89614,199.62671c0,0 3.61454,9.93545 3.47738,15.339c-0.11554,4.55262 -3.91061,14.8318 -3.91061,14.8318" fill="none" stroke="#000000" stroke-width="1" stroke-linecap="round"/><path d="M307.63583,230.41054c0,0 -3.20298,-9.11971 -3.57811,-13.62638c-0.65865,-7.91285 3.19519,-17.58367 3.19519,-17.58367" fill="none" stroke="#000000" stroke-width="1" stroke-linecap="round"/></g><g stroke="#000000" stroke-linecap="butt"><path d="M281.66633,242.11386c33.23141,-2.64423 39.55455,4.6409 40.19635,12.70678c0.6418,8.06589 -25.77731,16.74814 -59.00873,19.39236c-33.23141,2.64422 10.06544,-55.15606 9.42364,-63.22194c3.4028,-6.22489 7.74688,-1.35389 8.71277,6.44503c1.19116,9.61789 -2.16452,24.90379 0.67597,24.67778z" fill="#0d69be" stroke-width="2"/><path d="M305.67328,228.07759c14.26377,-1.13497 26.77058,9.8056 27.93476,24.43645c1.16418,14.63085 -9.45514,27.41157 -23.7189,28.54654c-14.26377,1.13497 -26.77058,-9.80561 -27.93476,-24.43646c-1.16418,-14.63085 9.45514,-27.41156 23.71891,-28.54653z" fill="#faddbf" stroke-width="2"/><path d="M297.19215,268.61546c14.26377,-1.13497 34.36562,-31.05806 35.5298,-16.42721c1.16418,14.63085 -9.45514,27.41157 -23.71891,28.54653c-14.26377,1.13497 -26.07467,-10.98436 -11.8109,-12.11932z" fill="#ef8b89" stroke-width="0"/></g></g><path d="M258.52303,163.28954c0.04541,-0.25607 0.2823,-1.16172 1.35221,-1.06074c1.24447,0.11746 1.12701,1.36193 1.12701,1.36193l-0.07522,0.39978c-0.79761,2.25889 -1.83927,4.40542 -2.71407,6.63182c-0.99914,1.72673 -2.09332,3.97735 -3.83335,5.08847c-3.52358,2.25002 -7.9444,-0.97037 -9.10002,-4.39472c-1.47899,-4.38256 -0.35434,-9.91639 1.2754,-14.14237c0,0 0.45482,-1.16431 1.61914,-0.70949c1.16431,0.45482 0.70949,1.61914 0.70949,1.61914c-1.17668,2.96681 -2.33498,7.51186 -1.72646,10.72039c0.39484,2.08189 2.22315,5.76077 5.03222,5.23091c1.77187,-0.33422 2.9836,-3.14968 3.77186,-4.49851c0.81558,-2.10109 1.80226,-4.12189 2.56178,-6.24659z" fill="#000000" stroke="none" stroke-width="0.5" stroke-linecap="butt"/></g></g></svg>