<svg version="1.1" xmlns="http://www.w3.org/2000/svg" xmlns:xlink="http://www.w3.org/1999/xlink" width="208.17799" height="320.10085" viewBox="0,0,208.17799,320.10085"><g transform="translate(-210.75191,-40.88652)"><g data-paper-data="{&quot;isPaintingLayer&quot;:true}" fill-rule="nonzero" stroke-linejoin="miter" stroke-miterlimit="10" stroke-dasharray="" stroke-dashoffset="0" style="mix-blend-mode: normal"><g stroke="#000000" stroke-linecap="butt"><g><path d="M308.34787,342.01121v-89.44407h31.63255v89.44407z" fill="#73fffc" stroke-width="2"/><path d="M307.99848,341.43121l1.42252,-88.02754c0,0 5.58051,63.93036 6.84296,72.76838c0.27909,1.95381 2.70535,2.61858 2.70535,2.61858l19.95708,12.33226z" fill="#59a9e6" stroke-width="0"/></g><g><path d="M266.15105,339.73743v-89.44407h31.63255v89.44407z" fill="#73fffc" stroke-width="2"/><path d="M265.80166,339.15743l1.42252,-88.02754c0,0 5.58051,63.93036 6.84296,72.76838c0.27909,1.95381 2.70535,2.61858 2.70535,2.61858l19.95708,12.33226z" fill="#59a9e6" stroke-width="0"/></g><path d="M376.85485,340.16655c0,10.94674 -15.57368,19.82082 -34.78479,19.82082c-19.21111,0 -34.78479,-8.87408 -34.78479,-19.82082c0,-2.18828 -0.03581,-12.91526 1.16889,-14.20891c4.82175,-5.17777 19.11108,4.9384 34.48184,4.9384c19.21111,0 33.91885,-1.67623 33.91885,9.2705z" fill="#000082" stroke-width="2"/><path d="M374.83166,337.60201c0,5.92109 -14.89877,9.56446 -34.10989,9.56446c-19.21111,0 -32.35512,-2.7759 -32.35512,-8.69699c0,-1.18364 -0.0358,-11.75696 1.1689,-12.45669c4.82175,-2.80066 16.6814,5.41818 32.05217,5.41818c19.21111,0 33.24394,0.24996 33.24394,6.17105z" fill="#2e0048" stroke-width="0"/><path d="M330.74787,339.56133c0,10.94674 -15.57368,19.82082 -34.78479,19.82082c-19.21111,0 -34.78479,-8.87408 -34.78479,-19.82082c0,-2.18828 -0.03581,-12.91526 1.16889,-14.20891c4.82175,-5.17777 19.11108,4.9384 34.48184,4.9384c19.21111,0 33.91885,-1.67623 33.91885,9.2705z" fill="#000082" stroke-width="2"/><path d="M328.72468,336.99679c0,5.92109 -14.89877,9.56446 -34.10989,9.56446c-19.21111,0 -32.35512,-2.7759 -32.35512,-8.69699c0,-1.18364 -0.0358,-11.75696 1.1689,-12.45669c4.82175,-2.80066 16.6814,5.41818 32.05217,5.41818c19.21111,0 33.24394,0.24996 33.24394,6.17105z" fill="#2e0048" stroke-width="0"/></g><g stroke="#000000" stroke-linecap="butt"><path d="M350.06356,214.60753c32.39954,7.84783 57.12042,20.58476 55.2156,28.44873c-1.90482,7.86398 -29.71401,7.87705 -62.11355,0.02922c-32.39954,-7.84783 -57.12042,-20.58476 -55.2156,-28.44873c1.90482,-7.86398 29.71401,-7.87705 62.11355,-0.02921z" fill="#0d69be" stroke-width="2"/><path d="M398.23408,212.59884c13.9067,3.36849 22.37934,17.66294 18.92416,31.92754c-3.45517,14.2646 -17.52977,23.09766 -31.43646,19.72915c-13.9067,-3.3685 -22.37934,-17.66294 -18.92416,-31.92754c3.45516,-14.2646 17.52977,-23.09765 31.43646,-19.72915z" fill="#faddbf" stroke-width="2"/><path d="M377.53751,248.47223c13.9067,3.3685 42.33556,-18.79627 38.88038,-4.53165c-3.45517,14.2646 -17.52976,23.09765 -31.43646,19.72915c-13.9067,-3.3685 -21.35062,-18.56597 -7.44392,-15.19747z" fill="#ef8b89" stroke-width="0"/></g><g stroke="#000000" stroke-linecap="butt"><path d="M335.22917,235.69585c0,13.80271 10.04743,36.74388 4.95001,46.45977c-6.2338,11.88187 -28.61241,9.09579 -38.9397,9.09579c-13.66287,0 -32.94407,4.17018 -38.34426,-14.83216c-2.01935,-7.10576 4.35457,-32.37264 4.35457,-40.7234c0,-30.68249 15.2177,-55.55556 33.98969,-55.55556c18.77199,0 33.98969,24.87307 33.98969,55.55556z" fill="#0d69be" stroke-width="2"/><path d="M283.96554,251.27246c0,13.80271 62.04198,20.54886 56.94455,30.26474c-6.2338,11.88186 -28.61241,9.09579 -38.9397,9.09579c-13.66287,0 -32.94406,4.17018 -38.34425,-14.83215c-2.01936,-7.10576 4.35457,-32.37265 4.35457,-40.7234c0,-9.45244 3.34855,-28.59801 5.51953,-29.96813c5.94391,-16.76415 10.4653,25.13995 10.4653,46.16315z" fill="#10157d" stroke-width="0"/></g><g><g><path d="M265.02697,262.37784c-12.34445,-8.67396 -15.19227,-19.94781 -7.18375,-32.55627c6.2635,-9.86122 24.05112,-13.27084 36.39556,-4.59688c12.34453,8.67396 15.70715,22.95183 7.11966,35.17329c-1.34292,1.91122 -3.1495,3.27648 -4.78787,4.53884c-8.83837,6.80985 -21.12955,4.75856 -31.54357,-2.55895z" fill="#485e84" stroke="#000000" stroke-width="2" stroke-linecap="butt"/><path d="M280.84647,222.02604c0,0 -3.66051,4.44203 -3.03796,6.34619c5.97151,18.26513 16.83278,27.16745 20.64978,29.8377c0.86721,0.60669 1.89262,0.14912 1.89262,0.14912c0,0 -1.0269,1.84758 -3.05099,3.69612c-2.15379,1.967 -5.39742,3.9627 -8.3852,4.6826c-3.4129,0.8223 -11.74763,0.62107 -11.74763,0.62107l-18.80927,-9.22333c0,0 -3.44872,-13.00236 -3.2481,-15.16029c0.19652,-2.11406 1.03541,-4.55925 1.82271,-7.19499c1.22243,-4.09236 3.95149,-7.71989 6.26036,-9.44149c2.94667,-2.19712 7.38421,-3.63245 11.16345,-4.16128c3.5173,-0.49216 6.4902,-0.15129 6.4902,-0.15129z" fill="#343545" stroke="none" stroke-width="0" stroke-linecap="butt"/><path d="M268.79346,243.28379c0,0 3.54516,-8.29639 8.03834,-10.82452c5.68788,-3.20038 18.3122,-6.15492 18.3122,-6.15492" fill="none" stroke="#000000" stroke-width="1" stroke-linecap="round"/><path d="M303.98731,253.81514c0,0 -5.252,4.85244 -9.01367,6.93134c-3.79753,2.09879 -13.39946,3.49732 -13.39946,3.49732" fill="none" stroke="#000000" stroke-width="1" stroke-linecap="round"/><path d="M258.40546,239.75593c0,0 3.51186,-8.57049 8.50333,-11.08722c7.65928,-3.86184 18.83056,-6.97595 18.83056,-6.97595" fill="none" stroke="#000000" stroke-width="1" stroke-linecap="round"/><path d="M263.44247,225.32587c0,0 17.28918,-0.74812 27.96968,13.01672c11.69916,15.07763 1.51738,28.99963 1.51738,28.99963" fill="none" stroke="#000000" stroke-width="1" stroke-linecap="round"/><path d="M256.9763,232.31827c0,0 17.6683,2.16645 27.1191,14.29254c7.75996,9.95663 0.28058,22.48571 0.28058,22.48571" fill="none" stroke="#000000" stroke-width="1" stroke-linecap="round"/><path d="M300.10402,239.46134c-0.47721,-1.10431 -0.15535,-2.30572 0.71884,-2.68348c0.8742,-0.37783 1.21113,0.3436 1.68833,1.44789c0.47721,1.10431 0.91395,2.17323 0.03975,2.55102c-0.8742,0.37783 -1.96977,-0.21114 -2.44693,-1.31542z" fill="#8fbbbe" stroke="none" stroke-width="0" stroke-linecap="butt"/><path d="M302.05243,246.46581c-0.49214,-0.34581 -0.4706,-1.22456 0.0481,-1.96277c0.5187,-0.73822 0.83241,-0.968 1.32456,-0.62221c0.49214,0.34581 0.61914,1.32892 0.10041,2.06712c-0.5187,0.73822 -0.98095,0.86365 -1.47306,0.51783z" fill="#8fbbbe" stroke="none" stroke-width="0" stroke-linecap="butt"/><path d="M297.30057,233.1364c-0.67875,-0.59445 -0.90773,-1.44307 -0.51146,-1.89555c0.39621,-0.45249 0.95466,0.10809 1.63342,0.7025c0.67875,0.59445 1.2208,0.99751 0.82455,1.45001c-0.39621,0.45249 -1.26776,0.33745 -1.94649,-0.25697z" fill="#8fbbbe" stroke="none" stroke-width="0" stroke-linecap="butt"/><path d="M276.371,221.76527c0,0 9.82726,2.84683 15.81048,7.49668c3.39218,2.63623 5.47182,6.13072 7.01883,8.79771c1.36811,2.35854 2.17505,8.88348 2.27296,13.94199c0.0721,3.72432 -0.42394,6.62619 -0.42394,6.62619" fill="none" stroke="#000000" stroke-width="0.5" stroke-linecap="round"/><path d="M305.64866,239.45352c0,0 -6.40647,8.41042 -11.02718,11.21509c-3.89305,2.36301 -14.5929,4.7247 -14.5929,4.7247" fill="none" stroke="#000000" stroke-width="1" stroke-linecap="round"/><path d="M276.36383,250.82163c0,0 5.94251,-7.62332 9.53173,-10.37434c6.302,-4.8303 16.52172,-6.81377 16.52172,-6.81377" fill="none" stroke="#000000" stroke-width="1" stroke-linecap="round"/></g><g stroke="#000000" stroke-linecap="butt"><path d="M252.48262,235.29516c20.18313,26.53223 17.47039,35.78946 11.03053,40.68829c-6.43987,4.89882 -28.02208,-12.63852 -48.20521,-39.17078c-20.18313,-26.53224 51.84812,-21.33719 58.28798,-26.23602c7.07655,-0.50078 5.32559,5.78666 -0.71452,10.81389c-7.44887,6.19975 -22.12395,11.63677 -20.39879,13.90466z" fill="#0d69be" stroke-width="2"/><path d="M277.26622,247.90961c8.66312,11.3883 6.21632,27.82392 -5.46508,36.70999c-11.68139,8.88606 -28.17387,6.85759 -36.83699,-4.53073c-8.66311,-11.38831 -6.21631,-27.82393 5.46508,-36.71c11.68139,-8.88606 28.17386,-6.85757 36.83697,4.53073z" fill="#faddbf" stroke-width="2"/><path d="M238.57413,262.68017c8.66311,11.38831 44.7037,12.13173 33.0223,21.0178c-11.68139,8.88606 -28.17388,6.85758 -36.83697,-4.53073c-8.66311,-11.38831 -4.84844,-27.87539 3.81468,-16.48706z" fill="#ef8b89" stroke-width="0"/></g></g><g stroke-linecap="butt"><g><g stroke="#000000"><g><path d="M234.11418,104.53043c13.62209,-44.76401 60.95337,-70.00953 105.71738,-56.38745c44.76401,13.62209 70.00953,60.95337 56.38745,105.71738c-13.62209,44.76401 -60.95337,70.00953 -105.71738,56.38745c-44.76401,-13.62209 -70.00953,-60.95337 -56.38745,-105.71738z" fill="#faddbf" stroke-width="2"/><path d="M234.5881,103.76577c4.38272,-14.40218 20.22176,-36.71437 25.47123,-38.47661c0.5995,-0.20125 8.12981,-6.83975 17.27993,-11.07592c11.37298,-5.26527 24.80392,-8.2946 25.33085,-7.92825c6.87506,4.77957 -35.64842,56.94322 -41.82577,81.49839c-0.01474,0.05856 -1.51913,20.13132 -0.09854,21.0224c1.37985,5.3771 3.1402,20.97617 11.47148,30.97487c15.52633,18.63375 41.09248,33.076 39.5262,33.12799c-2.50547,0.08316 -14.96767,-1.66038 -20.76795,-3.42547c-44.76401,-13.62209 -70.00953,-60.95337 -56.38745,-105.71738z" fill="#ef8b89" stroke-width="0"/><path d="M395.85165,153.26963c-3.38417,11.12082 -6.06297,14.50385 -6.05201,12.57163c0.01117,-1.97123 2.67842,-9.44288 -4.38609,-16.64725c-1.71187,-1.74576 -11.59128,3.03288 -13.8432,1.06385c-1.41446,-1.23678 -5.31499,-12.25365 -6.94898,-13.45752c-1.14244,-0.84172 -14.34976,4.39011 -15.55749,3.55154c-3.01211,-2.09144 -8.15806,-14.37108 -11.55522,-16.09267c-1.87071,-0.94803 -12.3305,8.63401 -14.27426,7.77716c-2.50673,-1.10502 -6.11903,-14.47693 -8.73786,-15.27387c-6.96452,-2.11936 -9.19682,4.52954 -15.95633,8.75072c-4.3925,2.74303 -9.58274,-16.55894 -13.86245,-13.22528c-5.3149,4.14001 -10.53486,8.10165 -15.64014,10.31068c-4.00527,1.73307 -9.8458,-13.55019 -13.35933,-11.88308c-16.96425,8.04924 -27.27085,13.27963 -21.98054,-4.10506c10.63785,-34.95738 43.80378,4.7445 90.04226,-3.68089c44.25901,-8.0647 82.74949,15.38265 72.11165,50.34004z" fill="#ef8b89" stroke-width="0"/></g><path d="M399.73861,145.76529c-6.83665,22.46615 3.7115,10.23936 -10.71965,-4.1613c-1.76596,-1.76222 -11.84848,2.95461 -14.16913,0.96467c-1.45763,-1.24992 -5.53302,-12.32001 -7.21523,-13.53856c-1.17617,-0.85199 -14.66352,4.29464 -15.9065,3.44534c-3.10007,-2.1182 -8.46017,-14.46301 -11.95186,-16.21337c-1.92277,-0.96386 -12.56442,8.56283 -14.56134,7.6898c-2.57527,-1.12587 -6.37277,-14.55414 -9.06057,-15.37207c-7.14797,-2.17519 -9.3853,4.47218 -16.27682,8.6532c-4.47827,2.71693 -9.93524,-16.66621 -14.29367,-13.35651c-5.41264,4.11025 -10.72941,8.04245 -15.94154,10.21896c-4.08912,1.70756 -10.18257,-13.65267 -13.76857,-12.00762c-17.31418,7.94276 -27.83089,13.10922 -22.54058,-4.27549c10.63785,-34.95738 61.7921,-66.13215 105.72958,-52.76158c43.93747,13.37056 71.31372,65.75714 60.67587,100.71452z" fill="#873412" stroke-width="2"/><path d="M399.84012,144.58074c-6.83665,22.46615 3.7115,10.23936 -10.71965,-4.1613c-1.76596,-1.76222 -11.84848,2.95461 -14.16913,0.96467c-1.45763,-1.24992 -5.53302,-12.32001 -7.21524,-13.53856c-1.17617,-0.85199 -14.66352,4.29464 -15.9065,3.44534c-3.10007,-2.1182 -8.46017,-14.46301 -11.95186,-16.21337c-1.92277,-0.96386 -12.56442,8.56283 -14.56134,7.6898c-2.57527,-1.12587 -6.37277,-14.55414 -9.06057,-15.37207c-7.14797,-2.17519 -9.3853,4.47218 -16.27682,8.6532c-4.47827,2.71693 -9.93524,-16.66621 -14.29367,-13.35651c-5.41264,4.11025 -10.72941,8.04245 -15.94155,10.21896c-4.08912,1.70756 -10.18257,-13.65267 -13.76857,-12.00762c-17.31418,7.94276 -27.83089,13.10922 -22.54058,-4.27549c10.63785,-34.95738 44.89461,5.07645 92.18601,-3.02853c45.26685,-7.75801 84.85729,16.02408 74.21944,50.98146z" fill="#741d23" stroke-width="0"/></g><path d="M338.31486,55.67383c0.02856,0.12956 0.04105,0.27286 0.0405,0.42619c0.01467,0.27535 -0.01631,0.55771 -0.09835,0.83696c-0.22681,1.11875 -0.77469,2.39141 -0.87486,2.8753c-0.13161,0.63574 1.35632,-0.36841 1.94534,-0.09538c0.36081,0.16724 0.53461,0.9588 0.89445,0.78951c2.18383,-1.02738 4.55029,-3.29689 6.71297,-0.94205c0.71624,0.77987 0.09655,2.00566 0.43742,2.82511c0.02865,0.06889 2.53596,0.62892 2.95063,1.31217c0.71451,1.17729 -0.35021,2.24727 -0.13878,3.3492c0.06764,0.35261 0.67835,-0.25585 1.03479,-0.29888c1.58636,-0.19153 4.40825,-0.75595 5.79372,0.71275c0.73003,0.77389 0.08802,2.26321 0.44433,2.83354c0.62466,0.99986 2.24721,-0.74305 3.40949,-0.94066c1.6075,-0.27332 2.09929,0.6089 3.03177,1.81892c0.16082,0.2087 -0.75053,4.09072 -0.03312,5.51919c0.40326,0.80295 1.83001,-0.34067 2.69392,-0.09371c0.86198,0.2464 2.80834,0.08368 3.18178,0.30563c0.74906,0.4452 1.02585,2.02732 1.87307,1.82357c4.32563,-1.04024 8.60203,1.77545 5.59395,6.04476c-0.38068,0.5403 1.43174,-0.16421 1.97075,0.21828c0.20896,0.14828 1.21275,1.49983 1.45514,1.4837c1.58546,-0.10554 2.69277,-0.51812 4.21612,-0.0586c1.26513,0.38164 2.26216,1.4626 2.15374,2.87258c-0.05698,0.74101 -1.57228,1.74081 -0.89322,2.04283c1.60062,0.71195 3.99718,2.19946 2.51962,4.4022c-1.60391,2.39112 -4.50107,4.0068 -6.35367,1.25738c-0.64276,-0.9539 -2.56623,0.51798 -3.44334,-0.22617c-1.12366,-0.95329 -1.09651,-3.33711 -0.68559,-4.44194c0.18996,-0.51073 -1.13566,0.04532 -1.62256,-0.19939c-0.65553,-0.32947 -0.66577,-1.473 -1.34966,-1.73861c-1.52974,-0.5941 -2.25082,2.7291 -5.74002,0.84513c-1.02988,-0.55608 -1.77207,-2.81901 -1.81551,-3.97988c-0.02522,-0.67386 2.15541,-2.11362 2.03494,-2.26064c-0.29251,-0.357 -2.68465,2.13849 -3.13401,2.15032c-1.08102,0.02848 -1.94438,-0.98862 -2.7738,-1.68251c-0.73279,-0.61306 -1.65357,1.47231 -2.58165,1.24529c-0.8199,-0.20057 -8.8078,-3.18464 -8.98216,-3.76347c-0.21259,-0.70567 -0.28404,-1.88536 0.07344,-2.51838c0.12848,-0.2275 1.46961,-1.47738 1.29004,-1.51096c-0.63729,-0.1192 -5.00812,2.07141 -6.1362,-1.67329c-0.61343,-2.03635 1.97775,-3.15956 2.45368,-4.71242c0.29391,-0.95896 -1.54863,1.28003 -2.25593,1.99118c-0.54326,0.54623 -1.75284,0.83099 -2.50104,0.62942c-2.58689,-0.69692 -1.13351,-2.93177 -1.23035,-4.5442c-0.04468,-0.74412 -1.6827,0.11005 -2.19424,-0.43221c-1.25071,-1.32583 -0.68632,-2.37132 -0.37201,-3.87722c0.14391,-0.68952 -1.31539,2.43781 -2.93725,2.11835c-0.65774,-0.12956 -1.37304,-1.40808 -1.80205,-0.89292c-2.08863,2.50802 -1.76691,3.87289 -5.25848,2.30752c-0.33693,-0.15105 -1.16702,0.47654 -1.47757,0.14733c-3.43725,-3.64375 1.48599,-7.83833 2.7696,-11.63729c0.4528,-1.34006 0.18257,-3.63175 1.56179,-3.9456c0.63056,-0.57833 1.54182,-0.81771 2.41963,-0.55058c0.77832,0.23684 1.35668,0.81908 1.61826,1.52766c0.04887,0.09534 0.08665,0.19652 0.11057,0.30504z" fill="#ba587e" stroke="none" stroke-width="0.5"/></g><g stroke="#000000"><path d="M335.21951,168.92399c-8.3143,27.3219 -25.20066,37.58071 -41.05152,32.75714c-15.85086,-4.82356 -24.66382,-22.90291 -16.34953,-50.22479c8.3143,-27.3219 27.90403,-45.56038 43.75488,-40.73682c15.85086,4.82356 21.96046,30.88259 13.64616,58.20447z" fill="#f0f0f0" stroke-width="2"/><path d="M296.19001,136.57796c-12.33562,25.75744 14.67902,69.31762 -1.17185,64.49405c-15.85086,-4.82356 -24.66382,-22.90291 -16.34953,-50.22479c8.3143,-27.3219 35.35502,-51.5069 17.52138,-14.26926z" fill="#9a99ff" stroke-width="0"/></g><path d="M329.09685,175.66684c-4.60628,15.13686 -12.82622,26.04264 -18.35973,24.35874c-5.53351,-1.6839 -6.28519,-15.31982 -1.67891,-30.45668c4.60628,-15.13686 12.82622,-26.04264 18.35973,-24.35874c5.53351,1.6839 6.28519,15.31982 1.67891,30.45668z" fill="#000000" stroke="none" stroke-width="0"/><g stroke="#000000"><path d="M339.17111,138.73197c1.28812,11.08497 -13.58031,10.62839 -28.61007,6.0547c-15.02976,-4.57369 -24.65135,-12.35333 -17.50414,-20.22893c6.80046,-7.49351 12.73127,-18.51447 27.76103,-13.94078c15.02976,4.57369 17.12559,17.55087 18.35317,28.11499z" fill="#a100fe" stroke-width="2"/><path d="M338.39001,138.12398c1.14264,11.0407 -13.25743,10.72665 -27.77471,6.30891c-14.51728,-4.41774 -23.76472,-12.08351 -16.76577,-20.00423c6.65939,-7.53645 5.99409,2.82964 20.51137,7.24738c14.51728,4.41774 22.94017,-4.07399 24.02913,6.44794z" fill="#99008e" stroke-width="0"/></g><g data-paper-data="{&quot;index&quot;:null}" stroke="#000000"><path d="M382.84164,128.27975c15.85086,4.82356 21.96046,30.88259 13.64616,58.20447c-8.3143,27.32189 -25.70418,37.42748 -41.55505,32.60392c-15.85086,-4.82356 -24.1603,-22.74967 -15.84601,-50.07157c8.3143,-27.3219 27.90403,-45.56038 43.75488,-40.73682z" fill="#f0f0f0" stroke-width="2"/><path d="M396.12105,185.50475c-8.3143,27.32189 -25.70418,37.42748 -41.55505,32.60392c-15.85086,-4.82356 30.84902,-25.95175 34.95219,-54.21439c5.93199,-40.85942 14.91714,-5.71141 6.60285,21.61048z" fill="#9a99ff" stroke-width="0"/></g><path d="M386.54258,162.56184c5.53351,1.6839 6.28519,15.31982 1.67891,30.45668c-4.60628,15.13686 -12.82622,26.04264 -18.35973,24.35874c-5.53351,-1.6839 -6.28519,-15.31982 -1.67891,-30.45668c4.60628,-15.13686 12.82622,-26.04264 18.35973,-24.35874z" data-paper-data="{&quot;index&quot;:null}" fill="#000000" stroke="none" stroke-width="0"/><g data-paper-data="{&quot;index&quot;:null}" stroke="#000000"><path d="M352.62301,141.74119c6.90407,-8.08958 15.87336,-17.69954 30.90313,-13.12586c15.02976,4.57369 13.81619,17.03014 15.28976,27.04151c1.54869,10.52185 -10.77546,11.62319 -25.80522,7.04951c-15.02976,-4.57369 -27.63215,-12.47673 -20.38769,-20.96515z" fill="#a100fe" stroke-width="2"/><path d="M353.61037,141.67138c6.76544,-8.13177 9.03038,3.61237 23.54766,8.0301c14.51728,4.41774 19.73902,-4.56179 21.07151,5.40666c1.40044,10.47674 -10.54957,11.69193 -25.06685,7.27419c-14.51728,-4.41774 -26.65134,-12.17826 -19.55233,-20.71096z" fill="#99008e" stroke-width="0"/></g><path d="M268.39224,150.57218c0.95668,0.29112 0.66556,1.24781 0.66556,1.24781l-0.08931,0.27935c-1.69693,4.17476 -3.15801,8.72112 -6.94713,11.4975c-2.35822,2.27888 -6.17995,2.80728 -6.37853,-1.54522c-0.2238,-4.90544 3.97543,-11.19179 6.47899,-15.06624c0,0 0.54275,-0.83989 1.38265,-0.29715c0.83989,0.54275 0.29715,1.38265 0.29715,1.38265c-2.27236,3.51625 -4.10858,7.01854 -5.3256,11.01779c-0.8215,2.69954 -1.03834,6.16287 2.25675,2.97862c3.50782,-2.56525 4.81325,-6.8592 6.3829,-10.72102l0.02874,-0.10851c0,0 0.29112,-0.95668 1.24781,-0.66556z" fill="#000000" stroke="none" stroke-width="0.5"/></g></g></g></svg>