<svg version="1.1" xmlns="http://www.w3.org/2000/svg" xmlns:xlink="http://www.w3.org/1999/xlink" width="275.24753" height="299.55195" viewBox="0,0,275.24753,299.55195"><defs><radialGradient cx="256.77437" cy="276.1758" r="15.45701" gradientUnits="userSpaceOnUse" id="color-1"><stop offset="0" stop-color="#1e202b"/><stop offset="1" stop-color="#1e202b" stop-opacity="0"/></radialGradient></defs><g transform="translate(-102.37623,-30.22402)"><g data-paper-data="{&quot;isPaintingLayer&quot;:true}" fill-rule="nonzero" stroke-linecap="butt" stroke-linejoin="miter" stroke-miterlimit="10" stroke-dasharray="" stroke-dashoffset="0" style="mix-blend-mode: normal"><path d="M102.37624,329.77598v-299.55195h275.24753v299.55195z" fill="none" stroke="none" stroke-width="0"/><g><path d="M183.0221,296.77428c5.32846,-4.42748 11.08781,-9.21109 11.89342,-10.59832c0.72283,-1.24468 1.44356,-2.66918 2.37605,-4.24402c3.2828,-5.54413 7.76591,-12.95136 11.6227,-20.93454c0.8746,-1.81034 1.48122,-3.77139 2.30422,-5.61678c0.61112,-1.37028 0.92548,-2.25276 1.45584,-3.63595c0.38084,-0.99323 0.36915,-1.36182 0.71965,-2.35151c0.30077,-0.84926 1.2171,-2.82065 1.50199,-3.66149c1.21416,-3.58353 2.31122,-7.0661 3.52221,-10.23949c3.62512,-9.49963 5.36761,-17.33917 5.36761,-17.33917l27.45834,-4.95833c0,0 -3.42603,15.43283 -8.80873,29.3744c-1.30969,3.39218 -3.73313,7.48255 -5.51451,10.46325c-0.89401,1.49592 -1.67388,2.80735 -2.37235,3.88784c-0.41878,0.64782 -0.91506,1.10586 -1.09071,1.76929c-0.73873,2.7901 -0.24373,6.36396 -0.37672,10.60135c-0.22679,7.22568 -0.68986,15.10889 -0.68986,15.10889c0,0 -6.79322,9.04611 -6.91859,9.04576c-0.5421,-0.00153 -1.96716,-6.06177 -2.46663,-8.26178c-0.11077,-0.4879 -0.38881,-0.64265 -0.72827,-0.38578c-0.92642,0.70101 -2.79633,2.24795 -3.85961,4.03695c-0.7607,1.2799 -1.80925,4.82234 -2.46047,5.11997c-0.71461,0.32661 -1.58618,1.16395 -2.36017,1.5089c-3.07451,1.37021 -6.5586,2.64291 -10.18768,3.95065c-4.81352,1.73456 -9.88212,3.43585 -14.58839,4.57985c-7.38935,1.79619 -14.42095,1.56661 -15.48505,1.60085c-1.05786,0.03404 -0.83468,-0.09894 -0.23274,-0.59705c0,0 5.7138,-4.73004 9.91847,-8.22374z" fill="#1b1f25" stroke="#000000" stroke-width="1.5"/><path d="M249.78578,213.15304l25.125,-3.625c0,0 -0.5865,4.35498 -2.47868,10.90887c-1.66819,5.77806 -4.54612,13.20957 -6.17742,21.65968c-0.79586,4.12256 1.10303,8.78345 0.21302,13.09196c-0.63349,3.06672 -1.55877,3.30047 -2.82752,6.52074c-0.6626,1.68178 -1.14487,3.89 -1.84581,6.15326c-0.96652,3.12079 -2.12348,6.34624 -2.70607,8.44044c-0.91131,3.27583 -0.29991,6.06304 -0.3419,8.66695c-0.09643,5.97856 12.85581,15.6336 14.7462,17.35242c0.18786,0.1708 0.38588,0.27467 0.27605,0.27891c-1.60694,0.06193 -5.62419,0.09467 -8.12327,-0.23658c-4.47105,-0.59264 -8.46903,-1.55837 -12.01739,-2.34336c-4.87832,-1.07922 -8.90685,-2.03936 -12.14658,-3.24057c-3.88093,-1.43895 -6.62993,-2.99485 -8.35187,-3.76051c-0.31364,-0.13946 0.06762,-5.82186 0.14314,-7.42147c0.07644,-1.61891 -0.88146,-1.19904 -0.88146,-1.19904c0,0 -0.42826,-5.52578 0.53776,-9.48252c0.67721,-2.7738 1.88911,-8.40791 4.11409,-15.09502c1.05578,-3.17311 2.78992,-6.72617 4.05925,-10.18038c1.24177,-3.37922 2.27029,-6.6577 3.17489,-9.94037c4.00838,-14.5458 5.50856,-26.54841 5.50856,-26.54841z" fill="#1b1f25" stroke="#000000" stroke-width="1.5"/><path d="M241.82807,241.52763c0,0 -4.50519,0.91546 -4.59805,-0.3095c-0.3072,-4.05265 2.43138,-28.27383 2.43138,-28.27383h20c0,0 -10.96839,27.34195 -12.79072,30.93653c-0.42792,0.8441 -2.37596,-1.01986 -2.37596,-1.01986c0,0 1.95122,-7.83334 1.16666,-7.83334c-1.03643,0 -1.72435,1.75172 -2.34699,3.11172c-0.74056,1.61756 -1.48633,3.38828 -1.48633,3.38828z" fill="#1b1f25" stroke="none" stroke-width="0"/><path d="M228.18627,283.90344c0.01539,-2.06169 1.6418,-10.00081 1.6418,-10.00081c0,0 0.77629,-11.45916 1.30401,-11.84226c0.32356,-0.23489 1.2063,2.50945 1.38747,4.84034c0.15167,1.95123 0.05381,5.51298 -0.01543,5.75281c-0.02641,0.09147 -0.30411,1.81692 -0.26583,2.82637c0.02457,0.64806 0.32634,0.75608 0.4231,0.75608c0.42888,0 1.53363,-3.46857 2.38617,-6.60705c0.50578,-1.86194 1.06012,-3.82371 1.10111,-4.28627c0.11702,-1.32054 0.51273,8.39332 0.51273,8.39332l-0.75,10.83333c0,0 -7.73516,0.67881 -7.72513,-0.66586z" fill="#1b1f25" stroke="none" stroke-width="0"/><path d="M241.31736,276.1758c0,-8.53667 6.92034,-15.45701 15.45701,-15.45701c2.28595,0 4.45494,-0.83372 6.40724,0.05689c0.10688,0.04876 -0.17644,0.88356 -0.56173,2.04874c-0.26682,0.8069 -0.53918,1.77223 -0.94337,2.74467c-0.48465,1.166 -0.82913,2.92882 -1.42448,4.5568c-0.29816,0.81531 -0.69657,2.22773 -0.99781,3.47544c-0.04906,0.2032 -0.13583,0.51148 -0.23525,0.84519c-0.19209,0.64475 -0.37275,1.38441 -0.4785,1.64457c-1.46486,3.60413 0.22294,8.72529 -0.7833,9.8576c-0.1107,0.12456 0.53561,2.57836 1.34154,3.64879c0.58774,0.78062 1.9961,2.01579 1.9232,2.03096c-1.0214,0.21248 -3.16309,0.00436 -4.24753,0.00436c-8.53667,0 -15.45701,-6.92034 -15.45701,-15.45701z" fill="url(#color-1)" stroke="none" stroke-width="0"/><path d="M262.82804,293.48596c0,0 -1.51418,-1.2475 -2.7242,-2.67579c-0.78426,-0.92573 -1.32788,-1.92595 -1.8097,-2.79791c-0.13891,-0.2514 -0.91728,0.02671 -1.00531,-0.36944c-0.25612,-1.15252 -0.17586,-2.98728 0.04369,-4.91584c0.22758,-1.99922 0.55901,-4.09923 0.82277,-5.6445c0.2392,-1.40137 0.67275,-2.84652 0.67275,-2.84652l3.25,-6.33334c0,0 -1.43448,8.41925 -1.62701,9.57607c-0.12866,0.77304 -0.17753,1.86001 -0.35282,2.76119c-0.21681,1.1146 -0.53874,2.07745 -0.39196,3.38907c0.21952,1.96177 1.77283,3.74556 2.18901,4.69333c0.88142,2.0072 1.68278,3.74701 1.68278,3.74701z" fill="#000000" stroke="none" stroke-width="0"/><path d="M216.98283,294.00978c0,0 -6.44133,2.48624 -6.73273,2.38489c-0.1259,-0.04379 1.16827,-1.08024 2.48293,-1.81413c1.29355,-0.7221 2.60694,-1.14218 2.60694,-1.14218c0,0 0.69692,-2.34896 1.92981,-4.34904c0.30932,-0.5018 0.51851,-1.1155 0.91526,-1.50828c0.90039,-0.89139 2.61414,-3.06664 4.48108,-4.20146c0.64647,-0.39295 0.97206,0.69232 1.39864,2.41037c0.68589,2.76236 1.39427,6.79127 1.39427,6.79127c0,0 -0.29922,1.41708 -1.17709,-0.3342c-1.08684,-2.16816 -1.15604,-6.30865 -2.09672,-6.30865c-0.88995,0 -1.75362,1.90769 -2.79655,3.85133c-1.17247,2.18505 -2.40584,4.2201 -2.40584,4.2201z" fill="#000000" stroke="none" stroke-width="0"/><path d="M225.18521,293.15263c0,0 -0.80868,-1.64016 -0.64102,-2.16835c0.08231,-0.25931 1.05049,0.72521 1.19863,0.40353c0.60027,-1.30349 1.69817,-3.05498 2.88613,-4.79625c1.2534,-1.83718 3.17511,-3.50396 4.05425,-4.12662c0.43105,-0.3053 0.97302,-0.29058 1.1445,0.00339c0.43546,0.74651 0.22751,2.29405 0.05559,3.97567c-0.20611,2.01596 -0.5021,4.15319 -0.72489,5.40544c-0.11202,0.62963 -0.2589,1.08891 -0.2589,1.08891c0,0 -0.63749,0.25152 -0.70332,-1.07904c-0.01592,-0.32175 -0.08534,-0.68437 -0.07468,-1.06158c0.04685,-1.65769 0.33228,-3.59701 -0.07353,-3.58573c-0.95889,0.02663 -3.31794,3.59045 -5.03105,5.48911c-0.82667,0.91622 -1.8317,0.45152 -1.8317,0.45152z" fill="#000000" stroke="none" stroke-width="0"/><path d="M232.90864,292.26725c0.11961,-0.44412 0.31677,-1.24417 0.42193,-1.76996c0.17407,-0.87036 0.93256,-5.72778 0.93256,-5.72778l1.70779,2.95455l8.57792,9.07792c0,0 -8.74622,-3.01561 -9.23771,-3.21085c-0.73178,-0.29068 -1.70497,-0.67727 -2.01621,-0.8009c-0.19244,-0.07644 -0.44597,-0.30138 -0.38629,-0.52299z" fill="#1b1f25" stroke="none" stroke-width="0"/><path d="M194.79475,286.60686c-0.6388,-0.10276 0.0559,-2.24419 1.09462,-4.03529c0.70771,-1.22033 2.18124,-2.99036 2.78935,-2.89945c0.34104,0.05099 0.38871,0.74937 0.29137,1.54217c-0.0987,0.80388 -0.34517,1.65755 -0.94427,2.56778c-0.66864,1.01588 -1.44574,1.98728 -2.16628,2.47951c-0.45383,0.31003 -1.04976,0.34771 -1.0648,0.34529z" fill="#000000" stroke="none" stroke-width="0"/><path d="M220.03247,281.24402c0,0 -0.39172,-1.01423 -1.37022,-2.38421c-0.44548,-0.62371 -0.98181,-1.36877 -1.49445,-1.99132c-0.6771,-0.82225 -1.31289,-1.48802 -1.64356,-1.94376c-0.17512,-0.24135 -0.19473,-0.47216 -0.17767,-0.50353c0.21863,-0.40232 3.00908,-1.39258 4.60328,-2.17554c0.60329,-0.2963 1.10118,-0.49701 1.12725,-0.72121c0.0353,-0.30349 -2.37247,-5.21896 -3.27757,-6.99252c-0.22694,-0.44469 -0.04173,-0.32888 0.26172,-0.45394c1.2527,-0.51629 4.71976,-1.97867 7.3354,-3.39988c1.57742,-0.85709 2.90398,-1.64041 3.13576,-2.30487c0.01992,-0.0571 -0.67495,-0.59733 -1.46981,-1.14985c-0.76443,-0.53136 -1.77937,-1.26026 -2.6753,-1.98916c-0.81808,-0.66558 -1.44723,-1.40809 -2.03091,-1.9233c-0.5885,-0.51946 -1.16954,-0.63181 -1.07896,-0.84971c0.27004,-0.64966 2.08515,-1.60128 3.62395,-2.2999c0.58014,-0.26338 2.20363,-1.04776 2.22999,-1.28137c0.01855,-0.16443 -0.6934,-0.58104 -1.66922,-1.18631c-0.27591,-0.17114 -0.6437,-0.28659 -0.93548,-0.50224c-2.13855,-1.58057 -4.69807,-3.91607 -4.56374,-4.60031c0.15624,-0.79581 0.65399,-1.56015 1.15224,-2.31788c0.73415,-1.11648 1.55946,-2.21861 2.03097,-3.38589c1.89171,-4.68315 3.01234,-8.96533 3.01234,-8.96533c0,0 0.68386,7.8181 1.41046,8.55894c0.65309,0.6659 1.67736,-0.26869 2.73083,-0.38047c1.24873,-0.13251 2.53849,-0.07716 3.29973,-0.15608c0.39353,-0.0408 0.64581,-0.17385 0.67816,-0.26854c0.26693,-0.78124 0.18677,-1.0997 -0.03154,-1.78504c-0.26245,-0.82393 -0.72457,-1.70006 -1.02329,-2.22413c-0.16805,-0.29481 -0.30747,-0.39316 0.06876,-0.52199c0.74268,-0.25431 2.37291,-0.74249 4.12806,-1.39684c1.62688,-0.60653 3.48245,-1.46329 5.48078,-2.26605c1.93218,-0.77618 4.00284,-1.49688 5.84138,-2.17998c2.21508,-0.823 4.2049,-1.2312 5.5904,-1.73447c0.60225,-0.21876 1.09031,-0.58028 1.43305,-0.79344c0.33158,-0.20622 -2.10706,-2.36829 -3.11411,-3.24039c-0.25755,-0.22304 -0.69543,-0.50695 -0.38215,-0.62064c1.11047,-0.40302 4.26195,-1.29924 5.77617,-1.82071c1.47292,-0.50725 4.30689,-1.47682 5.52518,-1.88161c0.39233,-0.13035 0.32232,0.02192 0.04468,0.28426c-0.64191,0.60654 -1.9293,1.78627 -3.41544,2.94735c-1.58378,1.23737 -3.7368,2.52226 -3.74641,2.70394c-0.02432,0.45942 6.50178,0.01916 6.50029,0.66834c-0.00001,0.0049 -0.52073,0.68818 -1.87101,1.39796c-1.15905,0.60926 -2.75761,1.21298 -4.55531,2.03333c-2.45449,1.12007 -5.28021,2.51103 -7.86534,3.64753c-6.11357,2.68769 -11.35434,4.19397 -11.36802,4.53908c-0.01772,0.44687 2.3403,2.3698 2.45145,2.98852c0.05066,0.28201 -1.30903,0.71447 -2.45605,1.34199c-3.2709,1.78947 -9.20126,4.61655 -9.92598,5.79435c-0.11605,0.1886 1.3677,0.43378 3.22705,0.7875c3.02243,0.57498 7.0373,1.31044 6.78626,1.61493c-0.10308,0.12504 -2.67277,0.95582 -5.45384,2.07841c-1.84103,0.74313 -3.80654,1.50536 -5.36577,2.19699c-1.68409,0.74702 -2.8942,1.39887 -2.96159,1.49487c-0.1,0.14247 1.86583,1.27302 3.96122,2.67685c2.58362,1.73092 5.40421,3.79728 5.27448,3.97474c-0.30573,0.41822 -2.42405,1.85525 -4.83114,3.27472c-3.3887,1.99832 -7.3497,4.11289 -7.63145,4.6183c-0.19572,0.35109 5.9819,7.01661 5.76869,6.98713c-0.3868,-0.05348 -1.71754,0.73068 -3.07361,1.25044c-1.10051,0.42181 -2.16518,0.53818 -3.17518,0.94045c-1.06747,0.42516 -1.90202,0.74007 -2.11816,0.73474c-0.16788,-0.00415 0.52563,1.28208 0.97592,2.05863c0.91126,1.57153 1.28637,2.99816 1.28637,2.99816z" fill="#2b263c" stroke="none" stroke-width="0"/><path d="M244.73774,286.33162c0.31841,-0.30216 0.66199,-0.75198 1.15304,-1.149c1.41452,-1.14367 3.39211,-2.5099 4.653,-3.51036c0.76265,-0.60512 1.36817,-1.12522 1.41357,-1.2422c0.20227,-0.52121 0.0405,-1.64003 -0.23236,-2.13464c-0.28634,-0.51904 -0.79687,-1.29482 -1.49748,-2.05295c-0.58712,-0.63532 -1.33061,-1.23533 -1.96601,-1.88293c-0.98206,-1.0009 -1.88966,-1.93171 -2.31439,-2.53049c-0.19756,-0.27853 -0.2935,-0.63621 -0.24778,-0.73791c0.01916,-0.04261 0.19972,-0.329 0.63137,-0.53658c0.33897,-0.16301 0.93918,-0.20366 1.46188,-0.43539c0.66966,-0.29689 1.46459,-0.6549 2.31946,-1.0861c0.84795,-0.42771 1.75485,-0.97065 2.65696,-1.45314c1.195,-0.63915 2.38157,-1.30721 3.41146,-1.95342c1.65202,-1.03656 2.9646,-2.20794 3.16106,-2.81015c0.39379,-1.20707 0.72048,-2.39223 0.95319,-3.53933c0.09352,-0.461 -0.13372,-1.83614 -0.06782,-2.27783c0.01555,-0.10422 -4.16823,0.01217 -4.15342,-0.07571c0.11604,-0.68858 2.98428,-2.12104 3.06427,-2.75391c0.02964,-0.2345 -0.33828,-0.27441 -0.71485,-0.38328c-0.65062,-0.18809 -1.47978,-0.42927 -1.42912,-1.13533c0.04721,-0.65797 1.48819,-0.4428 1.57741,-0.82789c0.02583,-0.11148 -1.29798,-1.67061 -3.09113,-3.29162c-1.42378,-1.28709 -3.22874,-2.55632 -4.28164,-3.57571c-0.75348,-0.7295 -1.24,-1.45988 -1.2134,-1.51716c0.02643,-0.05691 0.55839,-0.38663 1.38415,-1.11668c0.52955,-0.46816 1.79531,-0.42669 2.51067,-1.05733c1.48622,-1.31021 3.14357,-2.97472 4.56355,-4.46186c0.77647,-0.8132 1.63581,-1.49643 2.20355,-2.11664c0.44981,-0.49138 0.6593,-0.97183 0.90294,-1.24428c0.22034,-0.24639 0.26872,-0.47841 0.50686,-0.27009c0.54596,0.47758 1.75079,1.55589 2.24639,1.95971c0.18651,0.15197 1.01423,0.53069 1.20462,0.65504c0.30259,0.19764 -0.20542,0.23663 -0.45235,0.46989c-0.39938,0.37727 -1.079,1.02025 -1.90069,1.80151c-0.42647,0.40549 -0.89119,1.00207 -1.37486,1.46425c-1.28992,1.23259 -2.71456,2.26644 -3.90743,3.40459c-0.31171,0.29741 -0.70878,0.48021 -1.01154,0.72048c-0.45974,0.36483 -0.80249,0.76173 -1.09178,1.10067c-0.4622,0.54152 -0.81124,0.68652 -0.79988,0.74427c0.04286,0.218 0.50104,0.76264 0.86053,0.89028c1.17054,0.41559 3.74142,0.56466 5.90102,1.17622c1.45605,0.41233 2.78161,1.4086 3.24646,2.20964c0.04771,0.08222 -0.3377,0.21873 -0.91583,0.60191c-0.95243,0.63127 -2.35098,1.65312 -3.27454,2.31809c-0.53484,0.3851 -0.96152,0.59938 -0.91739,0.6814c0.14119,0.26248 0.67038,0.21928 0.81799,0.48541c0.21357,0.38506 -0.95193,0.77419 -0.72821,1.16622c0.05084,0.08909 1.00821,0.5984 2.0555,0.96562c1.30694,0.45826 2.75393,0.70405 2.75393,0.70405c0,0 -0.00636,1.18474 -1.19115,3.22481c-0.56392,0.971 -1.03782,2.19527 -2.5707,3.46685c-0.58708,0.48701 -1.35453,0.92668 -2.11452,1.45696c-1.90627,1.33008 -4.17268,2.82313 -6.41704,4.07412c-1.33867,0.74617 -2.79393,1.35665 -3.7969,1.93201c-0.81754,0.46898 -1.30877,0.94042 -1.40276,1.23162c-0.16478,0.51053 1.42522,1.56215 3.47945,2.58204c1.65177,0.82009 3.63088,1.59247 5.03253,2.25319c1.19644,0.56399 2.23397,0.67478 2.18202,1.01182c-0.06138,0.39819 -3.52802,1.17495 -3.27553,1.90011c0.0439,0.1261 0.3364,0.1873 0.61684,0.33336c0.70065,0.36492 1.80626,0.77941 1.65173,1.17987c-0.05824,0.15091 -0.51499,0.32679 -1.08388,0.75483c-0.84062,0.63249 -2.28162,1.46756 -3.47969,2.33068c-1.06243,0.7654 -1.88454,1.56928 -2.66164,2.02882c-0.30091,0.17794 -0.83002,0.20893 -1.1233,0.40188c-0.21606,0.14215 0.15831,0.45501 0.56591,0.88846c0.78653,0.83641 2.50965,2.14591 4.51483,3.54928c0.73391,0.51365 1.50562,0.80911 2.28301,1.32931c0.57127,0.38228 1.14563,0.99207 1.71032,1.36048c1.87543,1.22352 3.64426,2.32981 4.83995,3.04856c0.91994,0.55298 1.95078,0.81102 1.95078,0.81102c0,0 -2.01071,-0.17806 -4.91117,-1.12482c-1.1746,-0.38341 -2.55943,-0.82858 -3.91596,-1.5388c-3.08668,-1.65393 -6.2802,-3.88037 -8.5403,-5.59936c-1.24787,-0.9491 -2.13426,-1.82044 -2.63793,-2.27838c-0.18227,-0.16572 -0.63303,-0.31391 -0.47809,-0.5602c0.06753,-0.10735 0.624,-0.29566 0.74228,-0.40789z" fill="#2b263c" stroke="none" stroke-width="0"/></g><g><path d="M273.0005,175.2075c0,0 5.34237,-14.81296 5.34237,-19.86695c0,-3.25107 -0.83475,-8.18051 -0.83475,-8.18051l3.33898,0.50085c0,0 4.45118,1.54111 12.24945,14.4852c2.20677,3.66294 4.77937,12.39362 4.77937,12.39362z" fill="#2b263c" stroke="#000000" stroke-width="2"/><path d="M279.0662,171.38444c0,0 -5.03128,3.87487 -5.18922,2.10999c-0.27873,-3.11476 4.29113,-12.9943 4.67899,-15.5704c0.29283,-1.94491 -1.47848,-7.48052 -0.45715,-9.42421c0.68977,-1.3127 4.33777,0.49923 4.33777,0.49923c0,0 2.85773,3.37157 4.12983,4.9637c1.13928,1.4259 3.0714,4.22241 3.0714,4.22241c0,0 -4.10942,3.03054 -4.24035,4.55603c-0.04559,0.53121 4.00573,2.53599 3.95665,3.08456c-0.15295,1.7095 -0.2345,3.40932 -0.68284,3.79713c-0.7101,0.61423 -2.96456,0.48628 -2.96456,0.48628z" fill="#1b1f25" stroke="none" stroke-width="0"/></g><g><g><path d="M227.36544,148.07019c0,0 0.08684,-5.31502 0.14017,-12.76613c0.02341,-3.27008 -0.54706,-6.9516 -0.48634,-10.77583c0.04404,-2.77321 0.35007,-5.78814 0.51712,-8.60898c0.2255,-3.80803 2.04333,-8.92049 2.04333,-8.92049c0,0 26.80287,2.44806 32.62802,7.26224c2.47884,2.04864 4.62912,20.20919 4.62912,20.20919c0,0 6.43352,9.92477 9.00684,14.07854c3.29437,5.31769 3.66459,16.80717 3.66459,16.80717c0,0 0.59923,8.97391 -1.12895,20.10064c-1.10585,7.11988 -1.47405,20.50492 -1.9784,21.09301c-3.4287,3.99792 -9.23657,2.85513 -14.11704,3.56275c-10.26118,1.48777 -20.42015,0.87634 -23.80565,1.27253c-4.07819,0.47726 -11.11281,-63.31464 -11.11281,-63.31464z" fill="#ffc6ef" stroke="#000000" stroke-width="2"/><path d="M229.71068,146.34697c0,0 -1.61545,-9.27552 -1.7449,-18.26656c-0.0618,-4.2926 0.48626,-8.29029 0.47589,-11.75895c-0.00546,-1.82867 0.60235,-7.09948 0.60235,-7.09948l29.625,15c0,0 3.51011,9.28728 -0.09375,13.01376c-1.87569,1.93952 -10.78041,0.54879 -16.48659,-0.50548c-2.83616,-0.52401 -4.88216,-0.87078 -4.88216,-0.87078c0,0 0.87792,1.48616 1.80045,3.4461c0.92091,1.9565 1.88583,4.38558 2.56454,5.78148c1.18976,2.44702 3.34752,6.63491 3.34752,6.63491c0,0 6.2685,14.38331 5.75427,14.20157c-1.9669,-0.69515 -20.96261,-19.57657 -20.96261,-19.57657z" fill="#d396fc" stroke="none" stroke-width="0"/><path d="M277.91709,159.10554c0,0 -3.49119,-9.2009 -3.52301,-9.24489c-3.59985,-4.97734 -14.60006,-19.81664 -14.60006,-19.81664c0,0 9.118,3.31468 13.23376,5.74278c1.50223,0.88625 3.46388,2.4877 5.35091,3.51949c1.75679,0.96057 3.43558,1.84744 4.96686,2.79211c0.67001,0.41334 1.29708,0.9097 1.86052,1.27959c1.02621,0.6737 1.84132,1.52938 2.32027,1.89055c0.55813,0.42087 0.85989,0.98158 0.81679,1.02524c-0.69781,0.70701 -2.00246,2.36426 -2.77671,3.37607c-1.62023,2.11734 -7.64933,9.4357 -7.64933,9.4357z" fill="#2b263c" stroke="#000000" stroke-width="2"/><path d="M261.24044,137.05234l-2.64286,-2.07143c0,0 3.70038,0.55265 3.90992,0.86948c0.39083,0.59093 0.77635,1.96104 1.41431,2.91461c0.56725,0.84787 1.1082,1.64879 1.40235,2.06435c0.40571,0.57314 1.05913,1.22299 1.05913,1.22299c0,0 -0.34367,-0.05821 -0.74505,-0.36226c-0.90112,-0.6826 -2.3817,-2.02714 -2.9654,-2.6382c-0.56993,-0.59665 -1.4324,-1.99954 -1.4324,-1.99954z" fill="#000000" stroke="none" stroke-width="0"/><path d="M257.46652,165.97242c0,0 -1.08966,-1.73551 0.31986,-3.484c0.32409,-0.40204 1.24797,-1.46499 1.48333,-1.81538c0.21499,-0.32005 -0.09722,-0.06077 -0.42174,-0.39883c-0.23374,-0.24349 -0.90439,-0.69916 -1.14391,-0.85827c-0.48266,-0.32064 -2.00385,-1.0147 -2.65528,-1.31937c-0.34693,-0.16225 -0.1931,0.10831 -0.01204,-0.09589c0.31595,-0.35631 1.65195,-1.92467 2.28834,-2.64236c0.3037,-0.3425 0.7652,-0.63675 0.37434,-1.0169c-0.29526,-0.28717 -1.17022,-0.84612 -1.57682,-1.2214c-1.12048,-1.03421 -2.18116,-2.03313 -2.77596,-2.77014c-0.42303,-0.52418 -1.32834,-1.54123 -1.5223,-2.10136c-0.1734,-0.50075 -0.45469,-0.77343 0.04809,-0.78932c0.9426,-0.0298 3.38694,-0.12484 5.05113,-0.425c2.11597,-0.38165 4.1703,-0.98866 5.7035,-1.5665c2.69279,-1.01487 7.41545,-4.2664 8.94578,-5.34436c0.31408,-0.22124 0.53377,-0.20837 0.40695,0.41083c-0.06567,0.3206 -2.77914,5.78044 -3.15211,6.82437c-0.1725,0.48282 -0.53326,1.73208 -0.5943,2.18762c-0.04913,0.36658 0.08179,0.22017 0.40999,0.09729c1.26508,-0.47368 2.48712,-1.83352 6.25581,-2.03098c1.28185,-0.08506 2.37653,-0.04588 3.05122,-0.00042c0.45637,0.03075 0.56187,0.209 0.31327,0.45815c-0.68505,0.68652 -2.38349,2.38979 -3.19424,3.92476c-1.67039,3.92463 -5.80288,18.47747 -5.80288,18.47747z" fill="#696f96" stroke="#000000" stroke-width="1.5"/><path d="M256.66652,165.07242l3.39819,-4.37872c0,0 -0.80348,-0.90666 -1.40375,-1.32937c-0.76846,-0.54115 -2.82835,-1.65089 -2.82835,-1.65089l2.92381,-3.14092c0,0 -2.4759,-2.17495 -3.54894,-3.33789c-0.93898,-1.01764 -2.64096,-2.86221 -2.64096,-2.86221c0,0 3.27547,-0.31819 4.88701,-0.66107c1.51595,-0.32254 4.51299,-1.33893 4.51299,-1.33893c0,0 -1.33395,1.33748 -2.08068,1.8912c-0.72067,0.5344 -2.5243,1.37524 -2.5243,1.37524c0,0 1.56718,1.39324 2.53143,1.8813c0.4861,0.24604 1.47646,0.51719 2.27142,0.75926c1.30705,0.398 2.42652,0.91741 2.42652,0.91741c0,0 -1.42002,1.05964 -2.1367,1.68925c-0.80115,0.70382 -2.8451,2.73589 -2.8451,2.73589c0,0 2.63589,-1.00568 3.57256,-1.15359c0.89676,-0.1416 2.43294,-0.21575 2.43294,-0.21575c0,0 -2.45031,4.07684 -0.83073,7.06694c1.14304,2.1103 3.18264,6.05286 3.18264,6.05286z" fill="#4a5c6f" stroke="none" stroke-width="0"/></g><path d="M235.30314,212.88669l18.73614,-22.58274l22.87204,-8.68136c0,0 0.82937,16.22443 0.65936,20.70138c-0.07371,1.94109 -1.66105,5.67659 -1.66105,5.67659z" fill="#d396fc" stroke="none" stroke-width="0"/><path d="M252.78193,209.37003c0,0 3.71631,-3.65184 5.2776,-5.26244c0.96519,-0.99567 2.8516,-3.12911 3.57005,-3.91629c0.20868,-0.22865 0.0815,0.10541 -0.01489,0.39688c-0.20128,0.6087 -0.5139,1.61895 -0.52504,2.05314c-0.00543,0.21166 -0.07176,1.12025 -0.04123,1.36584c0.00923,0.07431 0.48573,0.11889 0.95649,0.03841c0.54505,-0.09318 1.19774,-0.64935 1.47473,-0.72568c0.55003,-0.15159 -2.0181,0.5314 -1.82832,0.4611c0.62038,-0.22983 1.62867,-0.63054 2.56271,-0.86236c0.34289,-0.0851 0.75443,-0.06878 1.02095,-0.12505c0.92829,-0.19598 3.16939,-0.51009 4.11187,-0.56955c0.37541,-0.02369 0.01825,0.23374 -0.20859,0.52372c-0.3006,0.38426 -0.74649,0.964 -1.19488,1.58252c-0.75986,1.04817 -1.97533,4.66838 -2.38801,4.84332c-2.51292,1.06526 -12.77344,0.19645 -12.77344,0.19645z" fill="#4a5c6f" stroke="#000000" stroke-width="1"/><path d="M232.60011,217.91549l6.45454,-9c0,0 3.10778,-0.46922 5.91214,-0.79172c1.58404,-0.18216 4.79384,-0.41699 8.09645,-0.87339c2.72781,-0.37697 5.40339,-0.96287 8.30002,-1.28434c0.83045,-0.09216 1.65075,-0.27003 2.45282,-0.35178c3.41332,-0.34792 6.49631,-0.51078 8.62486,-0.67154c1.84862,-0.13961 2.97735,-0.20905 2.97735,-0.20905l-1.09091,7c0,0 -2.77467,0.60804 -6.7198,1.14575c-2.79315,0.3807 -6.30903,0.59011 -9.2393,1.12654c-3.48401,0.6378 -4.4609,1.48999 -7.75591,2.0701c-0.66138,0.11644 -0.94263,0.59288 -1.56596,0.70105c-0.30467,0.05288 -0.96783,-0.25899 -1.2616,-0.20845c-2.177,0.37457 -4.03831,0.68205 -5.34212,0.8752c-3.39804,0.50341 -9.84259,0.47163 -9.84259,0.47163z" fill="#000000" stroke="none" stroke-width="0"/><g><path d="M273.22511,218.89842c0,0 0.37739,-2.77501 0.64151,-4.41691c0.37011,-2.3008 0.91412,-5.18404 1.17343,-7.85108c0.2973,-3.05775 0.20793,-5.8313 -0.00318,-7.11715c-0.1258,-0.76625 -0.18293,-1.74615 -0.41291,-2.79964c-0.41203,-1.88746 -1.10264,-4.01115 -1.77303,-5.56557c-1.9601,-4.54485 -4.50083,-7.37464 -4.50083,-7.37464c0,0 7.20089,-2.83415 11.14375,1.37669c0.64387,0.68763 1.44245,6.6699 1.32089,7.86973c-0.1907,1.88228 -0.4925,3.68473 -0.71175,5.10979c-0.63822,4.14838 -3.11743,11.896 -4.94256,16.66687c-0.90733,2.37174 -1.93533,4.10192 -1.93533,4.10192z" fill="#2b263c" stroke="#000000" stroke-width="1.5"/><path d="M275.72511,199.27342c0,0 -0.73391,-5.2219 -1.91663,-7.66948c-0.59139,-1.22386 -1.6005,-3.59656 -2.65336,-5.3376c-0.5432,-0.89825 -1.34805,-1.74332 -1.8632,-2.49185c-1.2812,-1.86164 -2.0668,-3.12607 -2.0668,-3.12607l11.375,-0.5c0,0 0.97654,6.26993 1.44358,10.07049c0.18589,1.51266 0.06087,2.63415 0.04701,2.81345c-0.16406,2.12251 -0.49059,4.49107 -0.49059,4.49107c0,0 -1.31565,0.57981 -1.92518,0.90634c-0.55128,0.29533 -1.94982,0.84366 -1.94982,0.84366z" fill="#1b1f25" stroke="none" stroke-width="0"/></g><g><path d="M217.18559,236.63532c-0.01317,-0.46257 0.39008,-1.34148 0.663,-2.52582c0.36901,-1.60134 0.70678,-3.76107 1.3977,-6.20507c1.21228,-4.28826 2.74211,-9.45172 3.96502,-14.00969c0.52358,-1.95147 0.68523,-5.03432 0.76758,-6.77416c0.19454,-4.1099 0.12122,-8.59714 0.12122,-8.59714l33.125,-7.875c0,0 -1.75753,2.13276 -4.36357,5.56907c-0.3452,0.45518 -3.30947,4.00625 -3.86769,4.45427c-0.36807,0.2954 1.65236,-2.52465 1.39015,-2.19553c-0.36089,0.45298 2.04109,-1.79045 1.8928,-1.27681c-0.11429,0.39589 -2.75845,3.54597 -3.07585,3.92896c-1.18497,1.4298 -2.59906,3.32631 -3.94379,4.9039c-2.24184,2.63004 -4.6383,5.41598 -6.96479,8.19275c-2.00306,2.39075 -4.13403,4.7747 -6.06943,7.04653c-1.84107,2.1611 -3.47759,4.44135 -5.23658,6.27858c-1.86901,1.95215 -3.84404,3.43636 -5.21756,4.87806c-0.45869,0.48146 -1.8878,1.22973 -2.69575,2.06494c-1.24503,1.28705 -1.87416,2.60873 -1.88744,2.14217z" fill="#2b263c" stroke="#000000" stroke-width="1.5"/><path d="M217.85011,234.52342v-1.75c0,0 0.41927,-0.25 0.75,-0.25c0.43303,0 1.625,0.25 1.625,0.25v1.25z" fill="#000000" stroke="none" stroke-width="0"/><path d="M223.97511,213.52342c0,0 0.50802,-4.72951 0.81882,-7.16408c0.15993,-1.25285 -0.06506,-3.19106 -0.09418,-5.09128c-0.04569,-2.9816 0.02536,-5.86964 0.02536,-5.86964l31.125,-3.625c0,0 -1.51037,1.5389 -3.50546,3.7577c-0.27417,0.30491 -0.48159,1.16323 -0.96341,1.53288c-0.65013,0.49876 -1.59469,0.89316 -1.94344,1.32977c-0.38227,0.47858 -0.4836,1.91844 -0.78544,2.29638c-2.6359,3.30041 -7.92724,9.58328 -7.92724,9.58328c0,0 -0.96093,0.96784 -2.6633,2.1273c-0.72478,0.49364 -1.53865,0.79467 -2.38607,1.36248c-0.86304,0.57828 -1.7609,1.42398 -2.63491,1.99418c-2.73211,1.78242 -5.23122,3.31578 -5.70576,3.28972c-0.49455,-0.02715 -3.35997,-5.52368 -3.35997,-5.52368z" fill="#1b1f25" stroke="none" stroke-width="0"/></g><path d="M257.21128,196.81496c0,0 4.3222,-2.10703 5.93643,-2.95983c1.22866,-0.6491 3.41272,-1.5478 3.41272,-1.5478c0,0 1.23517,0.7752 1.86588,0.83005c0.64872,0.05641 1.807,0.0047 1.807,0.0047c0,0 0.08761,1.31081 -0.21658,3.13594c-0.23325,1.39951 -1.28596,3.87593 -1.28596,3.87593z" fill="#ffc6ef" stroke="none" stroke-width="0"/><path d="M250.23647,214.09729c-0.16193,-0.27422 0.13204,-0.4906 0.18772,-1.04463c0.03694,-0.36753 0.18378,-0.7904 0.24158,-1.20634c0.09758,-0.70213 0.10959,-1.38452 0.13553,-1.74765c0.0319,-0.4466 0.00468,-1.1494 0.4309,-1.21218c0.44304,-0.06526 1.1034,-0.3139 2.47301,-0.50635c1.32478,-0.18616 2.91461,-0.10533 4.37147,-0.27121c0.9896,-0.11267 1.91784,-0.44383 2.65998,-0.57874c1.01479,-0.18447 1.68163,-0.16018 1.68163,-0.16018c0,0 -0.56018,1.12772 -0.7301,1.79429c-0.21384,0.83891 -0.45173,2.84207 -0.45173,2.84207c0,0 -1.19689,0.27283 -2.50215,0.65603c-0.9785,0.28726 -1.97807,0.67638 -2.79855,0.84047c-0.76713,0.15342 -1.97066,0.14126 -3.05816,0.27083c-0.34814,0.04148 -0.77531,0.03176 -1.08155,0.10779c-0.31764,0.07886 -0.51208,0.24308 -0.7449,0.2608c-0.39019,0.02969 -0.65276,0.22922 -0.81469,-0.045z" fill="#fead41" stroke="none" stroke-width="0"/></g><text transform="translate(229.06742,108.51782) scale(0.07561,0.07561)" font-size="40" xml:space="preserve" fill="#000000" fill-rule="nonzero" stroke="none" stroke-width="1" stroke-linecap="butt" stroke-linejoin="miter" stroke-miterlimit="10" stroke-dasharray="" stroke-dashoffset="0" font-family="Sans Serif" font-weight="normal" text-anchor="start" style="mix-blend-mode: normal"><tspan x="0" dy="0">sus</tspan></text><g><path d="M229.80917,207.97461c-0.59172,-0.5777 -1.26305,-1.25447 -2.1524,-2.19264c-3.79041,-3.99847 -9.87414,-10.90637 -13.7356,-16.13645c-3.38946,-4.59081 -8.28166,-12.83496 -12.62422,-19.70797c-2.17669,-3.44506 -4.79672,-6.24681 -6.23019,-8.3748c-0.5643,-0.83771 -0.97523,-1.66892 -1.25119,-2.16848c-0.325,-0.58834 -0.64738,-0.85084 -0.19287,-1.4756c0.42299,-0.58143 1.73416,-1.96722 2.51243,-2.88327c2.43257,-2.86319 6.5062,-7.05607 11.6279,-10.80184c3.89164,-2.84615 8.47201,-5.55968 12.01471,-7.38909c3.36638,-1.73836 5.79613,-2.66457 5.79613,-2.66457c0,0 12.79136,11.96542 15.89634,19.94135c4.25771,10.93704 7.30182,39.64906 7.30182,39.64906c0,0 -5.6461,6.77345 -8.64449,9.09881c-1.19922,0.93004 -2.58949,2.39864 -4.17953,3.49301c-1.20931,0.83233 -2.65732,1.33048 -3.50677,1.89707c-0.8368,0.55814 -1.80813,0.51747 -2.51848,-0.17605z" fill="#2b263c" stroke="#000000" stroke-width="2"/><path d="M231.96251,203.95667c-0.28026,-0.55341 2.32663,-1.32427 3.09961,-1.88601c0.97743,-0.71032 2.19549,-1.82007 2.9524,-2.53689c0.55619,-0.52673 1.09314,-1.53987 1.76715,-2.31254c0.93582,-1.07279 1.80093,-2.39351 1.80093,-2.39351l3.09279,1.13099c0,0 -2.30998,2.2554 -3.77934,3.1884c-0.88245,0.56032 -2.43678,1.42551 -3.83987,2.14828c-0.64408,0.33178 -1.24834,0.62311 -1.7644,0.93003c-0.95018,0.56511 -2.83696,2.70337 -3.32926,1.73125z" fill="#2b263c" stroke="#000000" stroke-width="1.5"/><path d="M230.20161,207.66848c-2.28364,-2.53071 -9.17653,-10.20735 -12.72317,-15.04372c-1.94842,-2.65696 -4.55214,-6.06136 -7.47207,-10.33844c-2.7141,-3.97559 -5.44784,-8.30418 -7.94605,-12.09986c-3.89888,-5.92378 -7.01905,-10.55414 -7.01905,-10.55414c0,0 1.0957,-1.11057 2.68054,-2.32222c1.89438,-1.44832 4.42502,-3.10094 5.76516,-3.98996c1.75022,-1.16107 4.93027,-2.56118 4.93027,-2.56118c0,0 8.03663,10.90646 13.01739,17.63721c2.28267,3.08468 5.73301,7.74303 9.43013,12.73319c2.71742,3.66782 5.99045,6.32923 8.9243,8.19808c1.09278,0.6961 2.68058,1.31189 2.68058,1.31189l-1.37417,3.6713c0,0 -1.06251,1.89551 -1.8444,2.90731c-0.95295,1.23314 -2.44155,2.95425 -3.71475,4.00476c-0.30026,0.24775 -0.60363,0.49673 -0.8932,0.73513c-0.59613,0.49078 -1.01244,0.40048 -1.34413,0.6982c-0.24384,0.21888 -0.30076,0.75608 -0.26339,0.77379c0.17631,0.08352 -0.19909,0.3426 0.87183,-0.11913c1.42432,-0.61409 3.55607,-1.56934 5.54421,-2.78712c1.94759,-1.19295 3.74621,-2.7111 5.3296,-3.90156c0.4115,-0.30939 1.09039,-0.95498 1.09039,-0.95498c0,0 -5.33524,-1.62065 -5.12933,-1.91075c0.25004,-0.35228 -0.92002,-3.36237 0.95969,-3.43401c0.63327,-0.02414 5.98417,2.78832 5.98417,2.78832l1.12283,0.18265c0,0 -1.93252,3.27219 -3.99978,5.30355c-3.71279,3.64829 -10.64885,7.72927 -13.15982,9.1534c-0.59185,0.33568 -0.94011,0.4809 -1.44775,-0.08165z" fill="#1b1f25" stroke="none" stroke-width="0"/></g><path d="M236.99401,194.18152l-3.5,-15.25l27,-6.75l20.875,9.375c0,0 -8.12889,4.55024 -11.50389,6.24165c-2.30391,1.15462 -4.7887,2.2418 -7.41269,3.33379c-3.25016,1.35257 -6.45532,3.02072 -8.33613,3.66666c-2.77961,0.95461 -7.21337,2.65324 -10.30321,2.38703c-7.21216,-0.62138 -6.81907,-3.00412 -6.81907,-3.00412z" fill="#1b1f25" stroke="#000000" stroke-width="1.5"/><g><path d="M218.24468,154.88125c0,0 -0.16195,-2.35291 0.16929,-4.01568c0.66421,-3.33423 3.43865,-13.89347 3.43865,-13.89347l2.827,-2.18246c0,0 13.97577,21.73529 14.69161,26.81208c0.65134,4.61944 -10.57179,2.40636 -10.57179,2.40636l1.48985,-6.00865c0,0 -2.46261,-1.53899 -4.80406,-1.99431c-2.92382,-0.56857 -7.24056,-1.12387 -7.24056,-1.12387z" fill="#1b1f25" stroke="none" stroke-width="0"/><path d="M235.20612,153.74539c-1.09228,-0.12783 -3.50632,-0.38964 -5.55224,-0.77728c-2.84048,-0.53818 -5.70558,-1.21559 -6.46182,-1.36342c-0.36918,-0.07217 -0.37332,-0.6198 -0.34114,-1.48299c0.01293,-0.34673 0.03436,-0.75513 0.06906,-1.21878c0.11011,-1.47164 0.40084,-3.54413 0.62528,-5.60128c0.3005,-2.75426 0.45484,-5.79096 0.84385,-7.95589c0.19739,-1.09853 0.16757,-1.88607 0.33769,-2.46839c0.1653,-0.56583 1.43812,0.01258 1.56238,0.09001c2.2206,1.38376 6.98155,5.18515 13.26673,13.3645c3.78511,4.92583 10.48164,15.38195 10.48164,15.38195c0,0 0.30429,7.98529 -0.41785,9.11947c-1.70815,2.68282 -13.49585,-2.1896 -16.57785,-3.59484c-0.48469,-0.221 -0.35945,-0.76045 -0.23889,-1.25473c0.06233,-0.25554 0.13789,-0.56533 0.22369,-0.91716c0.0704,-0.28868 1.47472,-1.06863 1.55727,-1.40718c0.10912,-0.44743 -1.41124,1.09051 -1.28758,0.58333c0.78616,-3.22426 2.10124,-8.90143 2.34562,-9.91195c0.1182,-0.48875 0.05395,-0.52806 -0.43585,-0.58538z" fill="#2b263c" stroke="#000000" stroke-width="2"/><path d="M233.86837,165.77793c0.06664,-0.25283 0.9112,-1.34803 0.99795,-1.695c0.10626,-0.42505 -0.3325,-1.12507 -0.2028,-1.6463c0.2277,-0.91506 0.27756,-0.93708 0.54606,-1.93768c0.81135,-3.02356 1.4933,-6.65427 1.29856,-7.22199c-0.13964,-0.40707 -12.99438,-2.10251 -12.97762,-2.48551c0.13186,-3.01589 0.82907,-7.89666 1.2506,-11.50063c0.37345,-3.19282 0.47754,-5.75557 0.47754,-5.75557l1.45669,0.86868c0,0 0.99735,11.3831 1.20378,13.19365c0.05188,0.45502 0.10472,0.96165 0.48769,1.0774c1.15972,0.3505 8.22858,2.31982 10.81715,3.10356c0.70381,0.21309 0.5227,0.51574 0.41853,0.9767c-0.53513,2.36808 -2.17032,9.68979 -2.08538,10.3649c0.11743,0.93335 11.48315,2.42016 11.48315,2.42016c0,0 0.8644,4.90891 -0.49342,5.29785c-0.41858,0.1199 -3.05624,-0.09446 -5.71272,-0.8335c-3.55448,-0.98885 -7.4024,-2.64994 -8.50475,-3.14431c-0.44924,-0.20147 -0.62251,-0.46969 -0.461,-1.08242z" fill="#1b1f25" stroke="none" stroke-width="0"/><path d="M227.71437,164.65526c-0.20844,-0.23044 0.72901,-1.89296 0.8617,-2.16491c0.51163,-1.04862 1.47158,-3.53043 2.16121,-4.91278c0.32917,-0.65982 0.67504,-0.99301 0.73463,-0.94284c0.37819,0.31836 -1.75232,6.38159 -1.67459,6.65667c0.04553,0.16113 0.83323,0.10686 1.65627,0.11009c0.92664,0.00364 1.89772,0.05341 1.89772,0.05341l-0.66928,2.20954c0,0 -4.7436,-0.76146 -4.96768,-1.00919z" fill="#000000" stroke="none" stroke-width="0"/></g><g><path d="M264.74402,169.84819c0,0 1.47344,-4.09785 2.22769,-6.06726c0.51551,-1.34605 1.30383,-2.93541 1.76288,-4.11929c0.20495,-0.52855 0.3211,-1.15328 0.41328,-1.39037c0.14107,-0.36282 -0.5815,-1.21556 0.06585,-2.2522c0.15736,-0.25199 0.75997,-0.94067 1.67457,-1.67718c1.20961,-0.97407 2.52036,-2.09434 3.02871,-2.17994c1.12576,-0.18956 2.63128,-0.20648 3.71004,0.15774c0.8012,0.27051 1.36699,1.08619 1.36699,1.08619c0,0 2.04651,-0.26481 2.72569,-0.24666c0.09542,0.00255 1.56579,-0.25401 2.40807,1.99739c0.18783,0.50206 1.02302,1.38943 1.98285,2.11745c1.08312,0.82154 2.22701,1.57228 2.4594,2.29986c0.09582,0.3 0.34557,0.63416 0.30202,1.11562c-0.08911,0.98494 -0.91715,2.18821 -0.91715,2.18821c0,0 0.62421,0.15804 0.82272,0.58568c0.10104,0.21766 0.11451,0.50515 0.15724,0.8772c0.04708,0.40989 0.22909,2.58435 -0.68493,2.78119c-1.02283,0.22027 -5.38358,-0.15179 -5.68125,0.07455c-0.15656,0.11904 -1.74108,3.74892 -2.50691,4.60032c-2.02503,2.25131 -3.94275,3.1765 -3.94275,3.1765z" fill="#d396fc" stroke="#000000" stroke-width="1.5"/><path d="M287.77286,163.35297c0,0 -0.73314,0.60807 -1.54118,1.14979c-0.51875,0.34777 -1.02315,0.71341 -1.53359,0.72392c-1.11264,0.02291 -2.27232,-1.7044 -2.99055,-1.70459c-0.98703,-0.00026 -2.01681,1.49356 -2.85002,1.38625c-0.90767,-0.11691 -1.60665,-1.97634 -1.89623,-2.21306c-0.12791,-0.10457 1.46547,-1.7915 3.44078,-2.1c1.97937,-0.30913 4.64834,0.68322 4.50064,0.55446c-0.91247,-0.79544 -2.00154,-2.5012 -3.20605,-3.0455c-0.64704,-0.29239 -1.62104,0.36836 -2.67038,0.70409c-0.56787,0.18169 -1.22154,0.13689 -1.5159,-0.00492c-0.19016,-0.09161 -0.40161,-0.62473 -0.66333,-1.012c-0.18511,-0.27391 -0.43382,-0.43642 -0.54808,-0.48798c-0.89636,-0.40446 -1.57502,0.16963 -1.67341,0.12383c-1.90344,-0.88593 -3.69885,-2.0743 -3.69885,-2.0743c0,0 2.67514,-2.55689 3.10183,-2.63772c0.32694,-0.06193 1.6594,-0.28199 2.56061,0.09393c0.7804,0.32552 1.14122,1.25188 1.41824,1.23878c0.59684,-0.02822 0.91213,0.07394 1.54392,0.00548c0.20931,-0.02268 0.69389,-0.05431 1.17554,-0.10629c0.50649,-0.05466 1.0179,-0.12368 1.5435,0.1124c0.32858,0.14759 0.47767,0.58454 0.74565,0.91284c0.3031,0.37132 0.63841,0.72352 0.83862,1.07972c0.19575,0.34827 1.4779,1.46824 1.69946,1.80511c0.17396,0.2645 0.41147,0.32134 0.67201,0.5074c0.7095,0.50669 1.58974,0.98457 1.82227,1.71538c0.21729,0.6829 -0.11828,1.36189 -0.21024,1.97507c-0.10569,0.70478 -0.06527,1.29791 -0.06527,1.29791z" fill="#ffc6ef" stroke="none" stroke-width="0"/><path d="M271.31133,159.89144c-0.16701,-0.12412 -0.03628,-0.40055 -0.00113,-0.85806c0.02292,-0.29826 0.10329,-0.41001 0.26002,-0.76215c0.18991,-0.42668 0.54019,-0.95546 0.85316,-1.4315c0.24586,-0.37396 0.36231,-0.91671 0.63577,-1.32005c0.34496,-0.50879 0.43105,-1.65893 0.86756,-2.01286c0.60012,-0.48658 1.09749,-0.19849 1.835,-0.30676c0.36999,-0.05432 1.05588,-0.32703 1.42501,-0.35936c0.41199,-0.03609 -0.36363,-1.19718 -0.03102,-1.18855c0.21518,0.00558 0.89791,0.02578 1.5942,0.23778c0.70076,0.21336 1.41525,0.61901 1.68066,0.77622c0.57125,0.33837 -0.65769,0.3022 -0.65769,0.3022c0,0 -0.10194,0.78258 -0.30072,1.19435c-0.12772,0.26456 -0.23774,0.57488 -0.23774,0.57488c0,0 0.27916,0.09623 1.38833,-0.04844c0.30277,-0.03949 0.69273,0.04845 0.99907,-0.01505c0.52436,-0.10869 0.95218,-0.36419 1.35224,-0.31435c1.33747,0.16663 1.09712,1.379 0.91555,1.58502c-0.0929,0.10541 -2.99728,0.5771 -4.32052,0.66421c-1.91563,0.1261 -2.45625,-0.13235 -2.56884,0.04959c-0.16286,0.26318 -0.392,0.48556 -0.55017,0.8023c-0.2958,0.59238 -0.61239,1.24574 -1.0582,1.83782c-0.58026,0.77064 -1.23506,1.39426 -1.67425,2.09667c-0.69917,1.11818 -0.48294,2.23063 -0.63987,2.21156c-0.0544,-0.00661 -0.45184,-0.38765 -0.58688,-1.01209c-0.06245,-0.28876 -0.12926,-0.69004 0.02849,-1.02182c0.3995,-0.84022 0.93977,-1.94461 1.49505,-3.02331c0.62344,-1.21111 1.26581,-2.38983 1.74914,-3.12591c0.38941,-0.59305 0.9274,-0.58402 0.8579,-0.5871c-0.41082,-0.01818 -0.83994,-0.01173 -1.22338,0.04464c-0.304,0.04469 -0.56567,0.12529 -0.74655,0.25662c-0.08648,0.06278 -0.34348,0.32115 -0.57961,0.78803c-0.4559,0.90143 -1.04377,2.37035 -1.647,3.23873c-0.57024,0.8209 -0.9787,0.82699 -1.11359,0.72674z" fill="#000000" stroke="none" stroke-width="0"/><path d="M274.6339,166.82975c0.02055,-0.22764 0.13898,-0.44709 0.22044,-0.80111c0.05271,-0.22909 0.12213,-0.55924 0.21341,-0.83362c0.11818,-0.35522 0.18503,-0.8228 0.35963,-1.24238c0.24804,-0.59608 0.13834,-1.95044 0.63395,-2.46434c0.71664,-0.7431 3.23757,-1.67901 4.17306,-1.82763c0.3631,-0.05768 0.75566,0.06734 1.15384,0.06706c0.72546,-0.00053 1.46957,-0.06019 2.08814,0.12661c0.70047,0.21153 1.22842,0.59697 1.76678,0.91996c0.53586,0.32149 1.08273,0.5804 1.51547,0.84923c0.72716,0.45174 1.245,0.65252 1.245,0.65252c0,0 1.00486,1.18533 1.30446,2.48009c0.17831,0.77057 0.09402,1.41642 0.10762,1.51617c0.00822,0.06029 0.0878,1.47833 -0.66611,1.71392c-0.46449,0.14515 -4.48829,0.37204 -6.21661,0.02787c-0.82457,-0.1642 -0.11661,-0.93369 -0.13974,-1.01495c-0.06658,-0.23398 3.46598,-0.08519 5.33899,-0.4152c0.88133,-0.15528 0.91608,-0.71603 0.91541,-0.92263c-0.00288,-0.89462 -0.41325,-1.69296 -0.41325,-1.69296c0,0 -1.61205,-0.49137 -3.05462,-1.19585c-1.10363,-0.53896 -2.05568,-1.26266 -2.75618,-1.51693c-0.27853,-0.1011 -0.45254,-0.06323 -0.67925,-0.00877c-0.13374,0.03213 -0.52372,-0.06292 -0.82126,0.01554c-0.66089,0.17427 -1.5217,0.93315 -2.31727,1.24627c-0.57063,0.22458 -0.99122,0.1496 -1.26099,0.35082c-0.10066,0.07507 -0.30428,1.4468 -0.9613,2.52051c-0.44987,0.73518 -1.01265,1.34579 -1.40751,1.68473c-0.21471,0.18431 -0.37253,0.10192 -0.34213,-0.23494z" fill="#000000" stroke="none" stroke-width="0"/></g><g><path d="M261.50906,180.26375l-3.74716,-15.90817c0,0 1.84019,-0.30345 3.87808,0.30206c2.48169,0.73737 5.41072,2.41964 8.68656,3.57338c0.93962,0.33093 1.93919,0.69346 2.81528,1.05577c1.88397,0.77913 3.55451,1.62496 4.7129,2.02771c0.54693,0.19015 1.6782,0.51141 1.96666,0.50084c1.00533,-0.03685 2.37552,-0.54147 5.16869,-1.19595c0.7007,-0.16418 5.281,3.12301 6.0296,2.81689c0.83446,-0.34123 3.37923,-4.87516 3.73248,-5.23922c1.8657,-1.92286 -1.13765,-4.06882 -0.5578,-3.90562c3.50169,0.98557 9.00355,2.92957 11.86561,4.29603c2.56213,1.22326 3.50383,1.89429 2.89799,3.64147c-0.91412,2.63625 -1.84283,4.0933 -2.54416,5.16504c-1.96814,3.0076 -5.18469,6.62105 -7.8113,9.50253c-0.95634,1.04914 -2.26095,2.59632 -3.37134,3.88513c-0.56869,0.66008 -0.99187,1.34219 -1.4875,1.66855c-1.00646,0.66275 -1.18734,0.3091 -2.15507,0.06611c-1.5044,-0.37774 -3.49129,-1.77968 -5.45062,-2.47571c-5.97654,-2.12312 -13.21125,-4.88648 -18.33185,-6.95044c-3.63744,-1.46615 -6.29708,-2.82638 -6.29708,-2.82638z" fill="#2b263c" stroke="#000000" stroke-width="2"/><path d="M279.52202,177.31642l-2.23451,-4.19346c0,0 5.93728,-2.09776 8.75613,-3.09657c0.60488,-0.21433 1.3468,0.7806 2.98873,-0.05982c1.66777,-0.85364 1.94717,-4.07614 1.94717,-4.07614c0,0 0.2813,-2.20439 1.22881,-2.4461c0.26889,-0.0686 2.09383,1.61872 2.36701,1.74842c2.15619,1.02379 4.98547,1.71106 4.98547,1.71106l0.7042,9.87448z" fill="#2b263c" stroke="none" stroke-width="0"/><path d="M262.32307,179.87872l-2.18722,-7.56121c0,0 4.67087,1.2454 7.06792,2.23945c2.39351,0.99258 5.40122,2.28314 8.3628,3.4642c2.69354,1.07417 5.34213,1.95869 6.99468,2.63237c3.65556,1.49021 9.15131,3.9084 9.15131,3.9084c0,0 2.61905,-2.26626 5.24652,-4.38394c1.24725,-1.00525 2.46751,-2.00446 3.35412,-2.76534c1.3129,-1.12672 3.04972,-2.70973 4.57809,-4.13742c0.06453,-0.06027 0.64913,-0.11089 1.27688,-0.57154c0.81149,-0.59547 1.70161,-1.62455 1.70161,-1.62455c0,0 1.3791,-0.0588 -0.74409,3.46701c-1.05036,1.74424 -3.05152,4.75154 -5.36384,7.57224c-2.03294,2.4799 -4.33622,4.75958 -6.03365,6.68252c-1.79948,2.03855 -3.06822,3.30474 -3.06822,3.30474c0,0 -0.77739,-0.55508 -1.66986,-0.90835c-1.64223,-0.65006 -7.45177,-2.98606 -13.38136,-5.34917c-1.11303,-0.44357 -2.352,-0.75991 -3.44672,-1.19441c-1.30429,-0.5177 -2.45488,-1.14937 -3.64992,-1.62008c-1.54125,-0.60707 -2.954,-1.15963 -4.1411,-1.61788c-2.22653,-0.85948 -4.04795,-1.53708 -4.04795,-1.53708z" fill="#1b1f25" stroke="none" stroke-width="0"/><path d="M248.66787,174.81291l-5.96589,-4.53912c0,0 -1.30455,-4.45594 -1.56399,-5.08588c-0.08718,-0.21167 -0.86338,-2.82394 -0.54684,-3.26032c0.53755,-0.74108 2.0707,-1.66362 4.76947,-1.83618c5.6508,-0.3613 9.79799,0.93314 9.79799,0.93314c0,0 3.07238,2.75876 5.17435,6.16822c0.3921,0.636 1.01633,1.4679 1.35935,2.24673c0.13629,0.30946 0.17726,0.67667 0.25954,0.91807c0.35735,1.04842 0.77418,2.34393 0.96776,3.67827c0.51313,3.53695 0.38446,7.32275 0.38446,7.32275z" fill="#afcad3" stroke="#000000" stroke-width="1.5"/><path d="M247.44984,163.45603c0,0 0.79249,-2.73078 2.33744,-3.15537c0.96944,-0.26643 2.94335,-0.51783 4.87306,0.67721c1.41128,0.87397 2.48709,2.15928 3.69247,3.85127c0.69138,0.9705 1.62067,2.48022 1.1574,3.90743c-0.41825,1.2885 -1.77806,2.26806 -2.7461,1.84917c-0.88541,-0.38314 -2.81822,-1.89871 -4.06017,-2.8812c-0.57533,-0.45514 -0.89187,-2.23582 -1.46591,-2.68761c-0.74169,-0.58374 -1.41597,-0.95108 -1.98326,-1.18164c-1.10564,-0.44937 -1.80492,-0.37926 -1.80492,-0.37926z" fill="#afcad3" stroke="#000000" stroke-width="2"/><path d="M248.37261,163.43209c0,0 0.71272,-1.56384 1.57374,-2.14725c0.40163,-0.27214 1.51521,-0.39527 1.51521,-0.39527l6.74084,4.74986c0,0 2.26571,1.98527 0.27783,3.70863c-1.37268,1.19002 -2.73174,-0.58091 -3.40795,-1.07684c-1.86654,-1.36893 -4.29309,-3.87992 -4.95742,-4.33842c-0.49811,-0.34378 -1.74223,-0.50072 -1.74223,-0.50072z" fill="#afcad3" stroke="none" stroke-width="0"/><path d="M258.50928,166.99263c-0.44566,0.48651 -0.98708,0.52346 -1.51758,0.4497c-0.83587,-0.1162 -1.76459,-0.73225 -3.16355,-2.01376c-1.14134,-1.04551 -2.31751,-1.87108 -2.83766,-2.67464c-0.24653,-0.38087 -0.6589,-1.22066 -0.03099,-1.89403c0.45295,-0.48576 1.69359,-0.31246 2.25491,-0.13311c1.24768,0.39864 2.78435,1.23549 3.7438,2.11439c1.62635,1.4898 2.14871,2.2536 1.99189,3.06337c-0.06369,0.32886 -0.10929,0.72618 -0.44082,1.08809z" fill="#ffffff" stroke="#000000" stroke-width="1"/></g><g><g><path d="M233.90816,176.44755c-0.21242,6.38455 -6.36657,12.16169 -13.13751,11.93641c-1.87936,-0.06253 -3.78246,-0.28905 -5.14888,-1.0925c-1.89979,-1.11708 -3.31875,-2.98323 -4.14208,-5.2082c-0.39609,-1.07037 -0.60142,-2.27329 -0.75623,-3.42216c-0.12582,-0.93371 -0.03894,-1.88841 -0.00689,-2.85173c0.21242,-6.38455 4.58086,-12.62133 11.35182,-12.39604c2.06232,0.06862 3.99069,0.12736 5.64705,1.18524c1.81114,1.15672 3.30099,3.39072 4.38116,5.25382c1.17529,2.02719 1.88856,4.28158 1.81159,6.59518z" fill="#000000" stroke="#000000" stroke-width="1.5"/><path d="M233.15516,175.02171c-0.15488,4.65502 -3.85329,6.04188 -9.83307,5.84293c-5.97977,-0.19895 -11.35531,-2.82155 -11.20043,-7.47658c0.078,-2.34446 1.37352,-4.60692 3.33581,-6.32311c1.93392,-1.69138 4.51347,-2.85428 7.48158,-2.75553c5.97977,0.19895 10.37099,6.05728 10.21611,10.7123z" fill="#485e84" stroke="none" stroke-width="0"/><path d="M224.94121,181.31872c-0.14814,4.45264 -1.37574,5.69073 -5.2212,5.56279c-0.52334,-0.01741 -1.48202,-0.04406 -2.46613,-0.70156c-1.00623,-0.67229 -2.09887,-1.76226 -3.03741,-2.83995c-0.86944,-0.99836 -1.53558,-1.97435 -1.94205,-2.83013c-0.4516,-0.95085 -0.58368,-1.64625 -0.65311,-2.29932c-0.05597,-0.52649 -0.16761,-1.02866 -0.10917,-1.60619c0.17069,-1.68629 0.65034,-3.54035 0.65034,-3.54035c0,0 1.84346,0.74682 3.50031,0.74839c0.96291,0.00092 2.58605,-0.85417 2.58605,-0.85417c0,0 6.84051,3.90787 6.69236,8.36051z" fill="#343545" stroke="none" stroke-width="0"/><path d="M221.24898,165.98745c-0.74812,-0.02489 -1.18701,-0.12849 -1.47455,-0.35705c-0.20748,-0.16493 -0.3681,-0.39599 -0.35784,-0.70447c0.02448,-0.73597 3.05461,-0.62962 3.13533,-0.62209c0.34268,0.03201 0.41331,1.27349 -0.04135,1.54607c-0.29326,0.17581 -0.90451,0.14942 -1.26161,0.13754z" fill="#8fbbbe" stroke="none" stroke-width="0"/><path d="M218.20743,166.31872c0.02965,0.13795 -0.09063,0.24651 -0.21427,0.40625c-0.13445,0.17371 -0.28464,0.39536 -0.55655,0.4538c-0.52195,0.11219 -0.79061,-0.02351 -0.8525,-0.31148c-0.0619,-0.28797 0.16844,-0.47894 0.69039,-0.59114c0.52195,-0.11219 0.87103,-0.2454 0.93293,0.04258z" fill="#8fbbbe" stroke="none" stroke-width="0"/><path d="M215.08301,184.6237l-2.26083,-2.93394c0,0 -0.38766,-1.63129 -0.22016,-3.86625c0.01569,-0.2093 -0.85146,-1.47666 -1.02988,-2.34925c-0.21284,-1.04098 0.25843,-1.71145 0.30705,-1.98399c0.04151,-0.23261 0.99425,2.42003 1.05019,2.18117c0.25261,-1.07861 0.66068,-2.21182 1.29952,-3.31765c0.21741,-0.37634 0.45382,-0.8044 0.71457,-1.24495c0.09715,-0.16415 -0.54543,-1.13784 -0.75349,-1.86542c-0.19596,-0.68519 0.04112,-1.12628 0.14596,-1.28001c0.06369,-0.0934 0.46937,0.70451 0.88078,1.23405c0.29063,0.37407 0.62227,0.54388 0.67046,0.48042c0.31421,-0.41378 0.65748,-0.79849 1.03484,-1.11696c0.49962,-0.42165 0.83511,-0.44559 1.33153,-0.77482c0.19236,-0.12756 0.46247,-0.40909 0.65857,-0.55089c0.06188,-0.04474 -0.27474,-0.51413 -0.50723,-1.04217c-0.31573,-0.71711 -0.41479,-1.61307 -0.32928,-1.67123c0.07719,-0.05251 0.48341,0.55725 0.89551,1.10326c0.41994,0.55639 0.84591,1.0493 0.92622,1.00433c0.14277,-0.07995 0.28696,-0.15062 0.43272,-0.2076c1.38119,-0.53995 2.86852,-0.76017 3.66159,-0.67276c0.24378,0.02686 0.4829,0.05667 0.71636,0.08896c0.36977,0.05113 -1.48856,-1.26963 -1.52988,-1.90371c-0.03051,-0.46814 1.73372,-0.30766 1.96134,-0.25828c0.10818,0.02347 0.75511,1.2464 1.2568,2.00333c0.24071,0.36317 0.50477,0.56595 0.5528,0.57762c0.66672,0.16205 1.20412,0.40569 1.56591,0.56363c1.26353,0.55161 2.92704,2.98175 2.92704,2.98175c0,0 -0.94736,-1.02755 -2.52045,-1.91461c-0.50388,-0.28413 -1.15937,-0.61749 -1.81401,-0.82236c-0.18996,-0.05945 0.18616,1.08211 0.07683,1.46667c-0.09398,0.33058 -0.32349,0.2085 -0.49474,0.1843c-0.22438,-0.03171 -1.10975,-1.93827 -1.35875,-1.96681c-0.54383,-0.06235 -1.11599,-0.08348 -1.71124,-0.05243c-0.45251,0.02363 -1.56735,0.25423 -2.59704,0.6513c-0.18517,0.07142 -0.36974,0.14351 -0.55014,0.21436c-0.06624,0.02603 0.22843,0.34627 0.23798,0.73845c0.01012,0.41543 -0.26451,0.90398 -0.33143,0.93039c-0.1647,0.06499 -0.33876,-0.46465 -0.57094,-0.81577c-0.19245,-0.29103 -0.44865,-0.41549 -0.55739,-0.37377c-0.25871,0.09925 -0.61102,0.10076 -0.75213,0.14388c-0.29889,0.09133 -0.47995,0.74618 -0.75031,0.89373c-0.46793,0.25537 -0.83204,0.68092 -1.23083,1.20522c-0.0535,0.07034 0.27341,0.64292 0.65661,1.03887c0.49301,0.50942 1.07453,0.86681 1.00965,0.96694c-0.10691,0.16501 -0.86641,0.19445 -1.50384,-0.02619c-0.55837,-0.19328 -1.00427,-0.64432 -1.08751,-0.48305c-1.05378,2.04157 -1.70641,4.53186 -1.82362,5.37784c-0.00415,0.02997 0.20224,0.42658 0.42304,0.57805c0.45721,0.31364 1.17964,0.5228 1.64843,0.88438c0.55221,0.42594 0.43387,0.52427 0.48795,0.90952c0.02201,0.15688 -2.3619,-0.33209 -2.33535,-0.1651c0.02855,0.17953 -0.15445,0.35665 -0.12072,0.54318c0.04124,0.22802 -0.03897,0.90254 0.04348,1.3478c0.15768,0.8516 0.71975,1.61813 0.81019,2.04848c0.00572,0.02723 0.91385,0.43972 1.74608,0.68526c0.69717,0.2057 1.34249,0.25165 1.3457,0.26666c0.0143,0.06648 -0.61534,0.60312 -1.14422,0.54891c-0.67422,-0.0691 -1.59034,-0.18271 -1.59034,-0.18271z" fill="#000000" stroke="none" stroke-width="0"/><path d="M236.42137,179.09925c-0.16161,4.85742 -4.52865,8.6542 -9.75405,8.48034c-2.07375,-0.06899 -4.20202,0.28507 -5.80932,-0.60585c-2.44274,-1.35401 -4.08989,-4.59486 -3.99242,-7.52457c0.05146,-1.54651 0.81987,-3.41594 1.52437,-5.21291c0.53601,-1.36721 0.88262,-2.76324 1.67082,-3.57816c0.55158,-0.57028 1.34297,-0.94208 2.06641,-1.2728c1.15163,-0.52647 2.55584,-0.68213 3.96596,-0.63521c1.76427,0.0587 3.53521,0.63717 5.09804,1.65296c3.06594,1.99277 5.33726,5.47881 5.23021,8.69621z" fill="#000000" stroke="#000000" stroke-width="2"/><path d="M232.90662,178.48204c-0.13773,4.13984 -4.05287,7.36931 -8.74469,7.2132c-2.65441,-0.08832 -3.59488,0.71121 -4.98981,-0.87044c-1.5683,-1.77823 -1.568,-5.51911 -1.50819,-7.31684c0.13773,-4.13984 4.55474,-8.41986 9.24657,-8.26376c4.69183,0.15611 6.13387,5.09799 5.99613,9.23783z" fill="#485e84" stroke="none" stroke-width="0"/><path d="M223.77685,172.20831c0,0 -1.6385,-0.55062 -2.11937,-1.05234c-0.41044,-0.42824 2.2658,-1.34411 2.2658,-1.34411l1.6681,1.9899z" fill="#8fbbbe" stroke="none" stroke-width="0"/><path d="M234.66005,177.90666c-0.11264,3.38548 -3.78369,6.01085 -8.19953,5.86393c-4.41584,-0.14692 -6.66934,-2.03556 -6.5567,-5.42102c0.07817,-2.34949 1.66711,-4.91546 4.06879,-6.2589c1.05899,-0.59237 2.22412,-1.00253 3.57541,-0.95757c4.41584,0.14692 7.22467,3.3881 7.11203,6.77357z" fill="#485e84" stroke="#000000" stroke-width="2"/></g><g><path d="M223.51145,190.20941c0,0 -1.31953,-0.15753 -2.31351,-0.7411c-1.65242,-0.97014 -1.66007,-2.76482 -1.16002,-4.67719c0.16235,-0.6209 1.4089,-0.77029 1.5387,-1.39365c0.39097,-1.87737 -1.39523,-3.20991 -0.17609,-4.93235c0.30871,-0.43615 0.80335,-0.47702 1.22004,-0.81631c0.75271,-0.61289 1.97403,-0.82037 2.9003,-1.28696c1.26063,-0.635 2.26,-1.77985 3.33887,-2.62181c1.84462,-1.43955 3.39256,-3.09091 4.7866,-4.51168c2.48156,-2.52913 4.24266,-4.57643 4.66297,-5.17024c0.23913,-0.33785 1.09464,-0.57786 1.63726,-0.59169c1.57225,-0.04009 4.75722,-0.23227 5.67179,-0.2556c0.48132,-0.01228 1.23359,0.35009 1.60307,0.82446c0.37796,0.48524 1.0137,1.08257 1.5748,1.94788c0.45506,0.70176 1.0149,1.39963 1.42102,2.22306c0.82252,1.66769 1.37046,3.51742 1.63242,4.62604c0.43373,1.83553 0.70053,5.08244 -1.78066,6.94146c-1.6452,1.23265 -3.29124,1.77939 -4.34444,3.66793c-1.40455,2.51856 -0.68802,7.37274 -0.68802,7.37274c0,0 0.53081,1.7298 -0.4307,3.49703c-0.25708,0.47248 -0.52113,1.05418 -1.04965,1.4789c-0.6321,0.50794 -2.37427,1.89822 -3.43808,2.15458c-0.73679,0.17756 -1.28469,-0.4689 -1.75326,-0.52643c-1.01211,-0.12427 -1.45813,-0.05063 -2.18052,-0.0874c-0.71168,-0.03623 -0.92066,-0.36807 -1.18168,-0.77185c-0.41766,-0.64605 -0.62213,-1.46478 -0.62213,-1.46478c0,0 -0.58082,0.43981 -1.23441,0.72752c-0.39185,0.17249 -0.89379,0.24477 -1.07782,0.26209c-0.48252,0.0454 -0.99634,-0.1187 -1.40576,-0.29846c-1.57368,-0.69096 -2.49198,-2.56164 -2.49198,-2.56164c0,0 -1.0043,0.19551 -1.89696,0.16055c-0.50617,-0.01982 -0.97144,-0.26443 -1.20977,-0.28633c-1.45257,-0.13341 -1.55236,-2.88877 -1.55236,-2.88877z" fill="#ffc6ef" stroke="#000000" stroke-width="1.5"/><path d="M220.07749,185.15912c0,0 3.67387,-0.1848 4.67516,-1.44432c0.1638,-0.20603 0.11461,0.87057 1.02244,0.91972c1.97106,0.10673 3.56617,-0.30046 3.5739,-0.33383c0.07405,-0.31927 -0.95885,-2.00242 -1.01325,-2.3248c-0.05746,-0.34046 -2.67154,-0.3552 -2.75369,-0.66776c-0.11027,-0.41956 -0.2445,-0.8072 -0.40734,-1.14468c-0.46424,-0.96204 -2.04331,-0.07258 -2.92782,0.01812c-0.53259,0.05461 -0.62793,-0.64192 -0.59985,-0.90391c0.06784,-0.63269 5.67474,-3.34942 5.67474,-3.34942c0,0 0.63098,0.74439 1.55069,0.70515c0.42839,-0.01828 1.08076,-0.25703 1.65048,-0.63637c0.49907,-0.33229 0.90245,-0.80696 1.23738,-1.12088c0.3114,-0.29188 0.57236,-0.43546 0.57236,-0.43546c0,0 -0.97642,1.29537 -1.51476,2.10063c-0.67624,1.01154 -2.22414,3.49213 -2.22414,3.49213l-0.16357,1.18413c0,0 1.95739,0.37541 2.58306,0.13476c0.33817,-0.13007 1.13015,-0.56802 1.81889,-1.05693c0.37748,-0.26796 0.76901,-0.17198 1.17691,-0.48812c0.65044,-0.50412 1.22666,-1.14697 1.77247,-1.66656c0.90228,-0.85893 1.60986,-1.50029 1.60986,-1.50029c0,0 -0.29604,0.599 -0.6105,1.12666c-0.53641,0.90012 -2.35053,2.84722 -2.35053,2.84722c0,0 -0.24642,2.90575 0.27443,3.25262c0.30467,0.20291 0.70765,0.26464 1.06597,0.32331c0.50884,0.08331 1.06203,0.16386 1.65333,0.00179c0.4397,-0.12052 1.07059,-0.33638 1.4127,-0.72164c0.80203,-0.90315 1.00544,-2.40431 2.16556,-3.34712c0.85304,-0.69325 1.66245,-1.09048 2.52215,-1.30754c1.42795,-0.36054 2.88141,-0.34516 4.07174,-1.25346c1.66525,-1.27067 3.25663,-5.18682 3.25663,-5.18682c0,0 0.22774,0.48768 0.41042,1.61508c0.11271,0.69565 0.28802,1.91379 -0.28016,3.35929c-0.13651,0.34728 -0.40448,0.82275 -0.82365,1.25528c-0.33682,0.34758 -0.79407,0.64303 -1.18634,1.00676c-0.36914,0.34228 -1.07495,0.55114 -1.23078,0.91672c-0.8856,2.07758 -2.0356,7.24217 -2.90207,9.00233c-0.14832,0.3013 -0.31665,3.12769 -0.4852,3.87603c-0.13933,0.61854 -0.60751,0.8755 -0.92791,1.34501c-0.9226,1.35193 -2.42962,2.02816 -3.44178,2.41515c-0.72911,0.27876 -0.64377,-0.34726 -1.17708,-0.43743c-1.01008,-0.17079 -2.19794,-0.23819 -2.68777,-0.11207c-0.49548,0.12758 -0.63398,-0.78267 -0.91669,-1.34868c-0.17044,-0.34122 -0.4341,-0.60718 -0.7364,-0.54804c-0.84671,0.16565 -1.63592,0.56958 -2.47259,0.66546c-0.76765,0.08797 -1.5435,-0.58518 -1.93313,-0.96622c-0.73736,-0.72108 -1.00288,-1.7263 -1.54698,-1.6834c-1.15159,0.09078 -2.24873,0.47305 -3.23152,0.4678c-0.7811,-0.00416 -1.19774,-3.07441 -1.83515,-3.09552c-1.10487,-0.03658 -2.27473,-0.63295 -2.78063,-0.70474c-1.07584,-0.15265 -0.59,-4.24512 -0.59,-4.24512z" fill="#d396fc" stroke="none" stroke-width="0"/><path d="M231.28943,175.04419c-0.07037,-0.08704 -0.13247,-0.29102 -0.04471,-0.44319c0.08403,-0.1457 0.3108,-0.23819 0.56271,-0.38791c0.5452,-0.32404 1.55875,-0.54146 2.46215,-1.11592c0.21308,-0.13548 0.53204,-0.6046 0.89692,-0.98202c0.32902,-0.34033 0.64077,-0.59543 0.80124,-0.68765c0.65372,-0.37571 1.16719,-0.48858 1.16719,-0.48858c0,0 -0.30496,0.39019 -1.02752,1.06304c-0.26768,0.24927 -0.65111,0.48799 -0.99086,0.8038c-0.28545,0.26535 -0.49184,0.56763 -0.76933,0.83525c-0.15061,0.14525 -0.36917,0.27872 -0.52513,0.3941c-0.56773,0.42002 -1.04813,0.58948 -1.50301,0.82399c-0.50998,0.26291 -0.84561,0.41274 -1.02964,0.18508z" fill="#000000" stroke="none" stroke-width="0"/><path d="M236.39554,177.18895c-0.14962,-0.17292 0.26742,-0.7827 1.00143,-1.46222c0.49446,-0.45775 1.299,-0.83848 1.907,-1.35185c0.89354,-0.7545 1.35829,-1.46158 2.1228,-2.07363c0.47307,-0.37874 0.97932,-0.78084 1.37159,-1.02516c0.41207,-0.25665 0.69859,-0.34608 0.69859,-0.34608c0,0 -0.69511,0.69947 -1.56804,1.64235c-1.05167,1.13593 -2.39151,2.62413 -3.48126,3.65497c-0.45144,0.42702 -0.78743,0.84126 -1.09053,1.04617c-0.26918,0.18197 -0.90687,-0.02131 -0.96157,-0.08453z" fill="#000000" stroke="none" stroke-width="0"/><path d="M221.87261,185.21326c-0.21577,0.14758 -0.68122,0.20809 -0.98453,0.42657c-0.33525,0.24147 -0.3589,0.38332 -0.40472,0.63332c-0.07671,0.41853 0.25867,1.2021 0.40324,1.35096c0.76625,0.789 2.14572,2.00885 2.17194,2.07588c0.24845,0.63505 0.6226,1.2003 0.6226,1.2003c0,0 -2.10565,0.02045 -2.81198,-0.38077c-0.65411,-0.37155 -1.60763,-2.04857 -1.74052,-2.64214c-0.09567,-0.42737 0.56999,0.23209 0.49947,-0.12493c-0.3294,-1.66759 -0.27971,-3.39528 -0.29094,-3.53787c-0.01076,-0.13635 -0.35266,-0.79628 -0.50877,-1.56543c-0.2088,-1.02871 -0.24289,-2.25802 -0.22168,-2.74164c0.0237,-0.54025 0.05966,-1.19387 0.19466,-1.81494c0.25122,-1.1558 0.68125,-2.20437 0.85706,-2.23842c0.15208,-0.02945 0.63149,0.67914 0.8664,1.19327c0.11521,0.25216 1.97148,-1.14921 3.70251,-1.92442c1.66102,-0.74386 4.41248,-1.2237 4.50639,-0.95631c0.15949,0.45409 -5.16229,2.58114 -7.04817,3.89255c-0.91891,0.63899 -0.35578,1.53841 -0.35578,1.53841c0,0 0.85909,0.17318 1.27873,0.00124c0.59575,-0.24408 0.98293,-0.86782 1.79027,-1.24646c0.33305,-0.15619 0.67252,-0.21873 0.99368,-0.31972c0.29549,-0.0929 0.5761,-0.23743 0.81456,-0.29298c0.41618,-0.09695 0.77948,-0.19024 0.83048,-0.11205c0.11406,0.17495 -0.04602,0.73292 -0.55182,1.27128c-0.20647,0.21975 -0.42374,0.39235 -0.73499,0.49316c-0.38226,0.1238 -0.80912,0.24317 -1.1961,0.56749c-0.18625,0.1561 -0.64538,0.44128 -0.83297,0.60396c-0.51285,0.44479 -0.84808,0.86643 -1.15526,1.25932c-0.02439,0.03119 -0.24291,0.38583 -0.26193,0.81048c-0.02792,0.62354 0.14325,1.39038 0.09433,1.44278c-0.48138,0.51562 -0.01571,0.788 -0.52614,1.1371z" fill="#000000" stroke="none" stroke-width="0"/><path d="M227.43166,192.67448c0,0 -0.31058,-1.0589 -0.79951,-2.09141c-0.4562,-0.96338 -1.8499,-2.74519 -2.66011,-4.30034c-0.59697,-1.14583 -0.78966,-2.22097 -0.78966,-2.22097c0,0 -0.22572,-1.10018 0.22582,-1.54734c0.23294,-0.23068 0.36784,-0.51062 0.65689,-0.70629c1.13705,-0.76971 2.69595,-1.26629 3.94476,-2.15199c0.18728,-0.13283 0.56275,-1.05999 1.09538,-1.54867c0.5491,-0.50378 1.25351,-0.56706 1.29719,-0.54256c0.04686,0.0263 -0.22675,0.66441 -0.63643,1.35449c-0.13316,0.2243 -0.44085,0.81717 -0.73077,1.3094c-0.12731,0.21614 -0.14691,1.08015 -0.29359,1.20245c-0.2077,0.17317 -0.44027,0.59245 -0.9401,0.82637c-0.71431,0.33431 -1.77303,0.50533 -2.36916,0.87249c-0.40703,0.25068 -0.69593,0.72003 -0.71394,0.82334c-0.02491,0.14286 -0.00398,0.55856 0.0674,0.71688c0.309,0.68531 1.4661,1.47709 2.26898,2.73058c1.08736,1.69765 1.47331,2.77204 1.70947,3.76137c0.06089,0.25511 0.04067,0.6353 0.0826,0.86482c0.12172,0.66625 0.15512,1.56679 0.15512,1.56679c0,0 -1.52306,0.53606 -3.08407,0.47571c-0.74479,-0.02879 -1.85383,-0.34456 -2.14687,-0.57822c-0.78974,-0.62971 -1.01981,-2.24617 -0.93399,-3.17901c0.03927,-0.42674 -0.01518,-0.66298 0.25625,-0.68028c0.06301,-0.00402 -0.36915,-1.59906 -0.97313,-2.85095c-0.55515,-1.15066 -1.28817,-1.96077 -1.19843,-2.08851c0.03844,-0.05471 0.22763,-2.48404 0.92125,-2.48554c0.49784,-0.00108 1.47958,2.29094 1.81002,2.76215c0.39406,0.56193 0.54951,3.0264 0.55097,3.44965c0.00229,0.66394 0.27236,1.63894 0.36748,1.8941c0.31215,0.83724 0.71592,1.75009 1.1057,2.11715c0.3439,0.32385 0.74894,0.26738 1.08044,0.25625c0.38611,-0.01296 0.67405,-0.01189 0.67405,-0.01189z" fill="#000000" stroke="none" stroke-width="0"/><path d="M232.56608,184.70748c0,0 0.36559,0.10423 0.94703,0.37081c0.34266,0.1571 0.87115,0.3511 1.26194,0.55686c0.63163,0.33255 1.12118,0.80546 1.53076,1.12307c0.44031,0.34142 0.77716,0.52379 0.76905,0.76743c-0.00699,0.21 -0.74293,0.55974 -1.95763,0.57202c-0.60763,0.00615 -2.32255,-0.10201 -3.45748,-0.17912c-0.61917,-0.04207 -1.38555,-0.48576 -1.38555,-0.48576c0,0 -0.43742,-0.22721 -0.18667,-0.62821c0.37719,-0.6032 2.47854,-2.0971 2.47854,-2.0971z" fill="#ffc6ef" stroke="none" stroke-width="0"/><path d="M231.51405,196.27889c0,0 0.9594,-0.30352 1.52201,-0.86282c0.2748,-0.27318 0.50567,-0.6057 0.3858,-0.99694c-0.22699,-0.74087 -0.59844,-1.91037 -1.14708,-2.58614c-0.49915,-0.61481 -0.89261,-0.73209 -1.45005,-1.30248c-0.66332,-0.67872 -1.29776,-1.32919 -1.73641,-1.959c-0.56392,-0.80967 -0.52358,-1.73269 -0.2589,-2.36917c0.30801,-0.74067 1.4392,-0.94769 2.18343,-1.7609c0.59565,-0.65085 1.25732,-1.35639 1.73909,-2.03417c0.62264,-0.87594 1.03412,-1.70256 1.54539,-2.27387c0.06335,-0.07079 1.14621,-1.10198 1.30739,-0.59406c0.00783,0.02468 -0.9933,0.93494 -1.2062,1.82457c-0.13896,0.58066 -0.24046,1.13702 -0.31728,1.74447c-0.06068,0.47997 -0.12031,0.92464 -0.45435,1.49567c-0.57074,0.97568 -3.0482,2.39103 -3.01333,2.76439c0.08891,0.95197 2.66331,1.92146 3.09678,2.84898c0.42214,0.90331 0.76384,1.76843 1.044,2.56002c0.36251,1.02427 0.4221,1.91881 0.61954,2.6203c0.27283,0.96934 0.65325,1.56494 0.65325,1.56494c0,0 -1.17408,-0.78059 -1.85151,-0.88322c-0.80486,-0.12194 -2.66157,0.19942 -2.66157,0.19942z" fill="#000000" stroke="none" stroke-width="0"/><path d="M239.54042,191.60988c-0.11604,-0.1541 0.14222,-0.61764 0.56591,-1.50201c0.15439,-0.32223 0.50791,-0.81015 0.6221,-1.20365c0.12291,-0.42356 0.38744,-0.78539 0.37738,-1.30929c-0.0107,-0.55687 -0.49779,-1.27638 -0.41747,-1.49511c0.09419,-0.25651 0.6833,-0.32743 0.9438,-0.48754c0.32643,-0.20063 1.00171,-0.76995 1.00171,-0.76995c0,0 1.95503,-2.7415 4.50897,-4.39172c1.17992,-0.7624 3.12738,-1.03914 3.92165,-1.15829c0.14114,-0.02118 -0.09614,4.07111 -0.10107,4.12142c-0.03881,0.39587 -8.55604,3.37545 -8.50356,3.73906c0.09134,0.63283 0.6445,0.80502 0.62464,1.10524c-0.0266,0.40227 -0.71912,0.6443 -0.71912,0.6443c0,0 -0.51241,0.82711 -1.28155,1.60444c-0.58684,0.5931 -1.46418,1.20828 -1.54337,1.10311z" fill="#000000" stroke="none" stroke-width="0"/><path d="M242.33884,186.6221c0.50631,-1.41871 1.34443,-2.40836 1.77541,-3.11978c0.60127,-0.99253 2.40805,-1.82844 3.25918,-2.17914c0.27705,-0.11415 0.62219,-0.12826 0.91,0.00486c0.363,0.1679 0.91447,0.47021 1.55229,0.97886c1.34964,1.07631 3.06147,3.02561 3.90682,3.78479c0.81361,0.73065 1.81554,1.90299 2.29,2.47371c0.17138,0.20616 0.19496,0.54332 0.06648,0.86427c-0.30318,0.75734 -0.88203,2.13519 -1.34922,2.84475c-0.33603,0.51036 -1.13409,1.28688 -1.64292,1.76033c-0.26644,0.2479 -0.67116,0.40481 -1.05112,0.36969c-1.44461,-0.13353 -5.23631,-0.66035 -8.33931,-2.64072c-0.72931,-0.46546 -0.25301,-1.5095 -0.44387,-2.36171c-0.2631,-1.17479 -1.13946,-2.20353 -0.93376,-2.77991z" fill="#485e84" stroke="#000000" stroke-width="2"/><path d="M256.01153,190.11911c-0.53813,0.72275 -1.59971,2.14839 -2.26144,3.03613c-0.28516,0.38255 -0.7468,0.83696 -1.18121,0.8225c-0.82186,-0.02734 -1.64681,0.1039 -2.21889,-0.28383c-0.17188,-0.11649 -0.09613,-0.02606 -0.16556,-0.25058c-0.22198,-0.71787 -0.02852,-2.26471 0.33536,-3.03571c0.93292,-1.9767 1.463,-2.65282 3.32134,-2.59099c1.22344,0.04071 1.92237,0.83012 2.25713,1.36475c0.17372,0.27744 0.11992,0.66018 -0.08673,0.93771z" fill="#343545" stroke="#000000" stroke-width="1"/></g></g><g><g><path d="M253.10627,136.99074c-0.36865,0.02226 -2.69506,-1.35806 -4.04201,-1.83113c-1.01087,-0.35503 -2.13272,-1.78521 -3.64538,-2.38412c-1.0189,-0.40342 -0.85365,1.22405 -2.08418,0.72139c-3.21474,-1.31315 -5.01345,-2.12155 -7.53351,-3.65308c-0.40806,-0.24799 -0.71713,-1.01183 -1.15644,-1.28815c-0.34601,-0.21763 -1.07181,-0.18478 -1.44485,-0.42348c-0.30599,-0.1958 -1.30189,-0.77623 -1.45182,-1.50399c-0.13105,-0.63611 -0.10381,-1.57156 -0.26529,-2.60713c-0.1355,-0.86896 -0.43868,-1.80746 -0.74039,-2.70812c-0.83142,-2.482 -1.73066,-5.0304 -2.30923,-6.31156c-0.23514,-0.5207 -0.51003,-0.8295 -0.56155,-0.84342c-1.88571,-0.50972 -4.39251,3.17151 -5.92652,2.24317c-5.21137,-3.1538 -8.51993,-13.62866 -8.3137,-15.7586c0.16399,-1.6936 3.57082,0.42935 6.15708,0.48473c1.07268,0.16258 1.76361,-0.15371 1.76361,-0.15371c0,0 10.71078,-12.79245 18.58171,-15.93963c8.17948,-3.27056 29.60514,-3.32782 29.60514,-3.32782c0,0 -0.1178,2.05347 -0.2777,4.01048c-0.07079,0.86642 -0.20125,1.71534 -0.22812,2.3559c-0.01305,0.31094 -0.33489,0.58196 -0.28044,0.77287c0.0529,0.18548 0.56243,0.35091 0.79621,0.54173c0.33594,0.27422 0.79053,0.58189 1.168,1.00343c0.63056,0.70418 1.2347,1.53268 1.24991,1.68553c0.20643,2.07456 -1.72159,6.0003 -1.49874,7.80871c0.25425,2.06314 1.16156,0.84266 1.2435,2.56936c0.36374,7.66598 -1.37773,20.83531 -1.15727,21.74552c0.20389,1.0834 1.16047,2.51507 2.05431,4.32946c0.77626,1.57573 1.4778,3.25742 1.84825,4.22286c0.19022,0.49576 -0.10611,1.18958 -0.3252,1.35252c-0.2513,0.18688 -0.60737,0.39327 -1.19956,0.61878c-1.151,0.43832 -2.23268,0.08722 -3.5167,0.34657c-2.6976,0.54486 -5.69321,1.22335 -8.74715,1.47937c-3.47907,0.29167 -6.49375,0.36694 -7.70314,0.43996z" fill="#ffc6ef" stroke="#000000" stroke-width="2"/><path d="M232.50369,107.66028l-5.02726,-17.41352l40.96877,-5.67337l-0.45375,4.01072c0,0 -1.74023,1.78085 -2.79688,2.84629c-0.77936,0.78585 -0.9922,1.2574 -1.61771,1.91433c-0.21436,0.22512 -0.63979,0.39624 -0.93238,0.7121c-1.28171,1.38366 -1.76819,2.66021 -2.73143,3.06959c-0.42205,0.17937 1.64351,-5.27286 1.24353,-5.13397c-0.49795,0.17291 -0.87882,0.39312 -1.30721,0.4651c-2.49588,0.41941 -7.41054,-0.1732 -10.48362,-0.39573c-1.72477,-0.12489 -2.73806,0.11235 -2.73806,0.11235c0,0 2.06535,2.71799 3.77352,4.64844c0.83732,0.94627 1.65976,1.77045 1.97324,1.86209c1.04568,0.30568 2.72739,-0.19859 4.73911,0.10968c1.04198,0.15966 2.31022,1.34082 5.40508,0.11403c0.70739,-0.2804 1.3482,-0.60351 2.02565,-1.05623c1.12738,-0.75339 2.34257,-1.78582 3.21864,-2.43995c1.61451,-1.2055 2.68033,-1.65872 2.68033,-1.65872c0,0 -0.90038,2.53306 -0.40786,5.24227c0.20108,1.10608 0.58047,2.08573 0.78586,3.06037c0.1082,0.51347 0.10428,1.09301 0.13928,1.5423c0.28499,3.65802 -0.72229,12.65613 -0.72229,12.65613c0,0 -1.33826,0.91389 -2.18969,1.85277c-1.21158,1.33602 -4.47932,5.40348 -4.47932,5.40348c0,0 -0.01022,-3.09916 0.8473,-5.53841c0.72996,-2.07641 2.32085,-3.43059 2.58846,-4.60951c0.04342,-0.19128 0.54327,-0.91661 0.54327,-0.91661c0,0 -0.80182,-0.3227 -0.81937,-0.64431c-0.0649,-1.18918 0.03134,-2.34833 0.03134,-2.34833l-4.9581,-8.05394l-3.77453,1.82817c0,0 0.68955,4.07638 1.08076,5.78783c0.50982,2.23037 1.66704,3.97553 1.66704,3.97553c0,0 -5.25611,-0.38615 -8.84387,-2.23455c-4.13153,-2.12854 -6.77507,-5.5791 -8.67155,-5.61178c-4.01164,-0.06913 -6.78452,0.44906 -8.5069,1.12791c-1.55121,0.61139 -2.24939,1.38744 -2.24939,1.38744z" fill="#d396fc" stroke="none" stroke-width="0"/><path d="M232.10567,127.54263l-0.0843,-3.05766l2.58726,-0.07133l0.0843,3.05766z" fill="#000000" stroke="none" stroke-width="0"/><path d="M216.09994,106.21094c0,0 0.32376,-1.21898 1.26295,-1.40546c0.15241,-0.03026 0.45575,-0.02734 0.76552,0.10329c1.84187,0.77672 6.05152,3.98776 6.05152,3.98776c0,0 -0.66927,-1.89903 -0.9053,-2.8108c-0.22294,-0.86119 -0.47387,-2.51676 -0.47387,-2.51676l11.78855,11.60639l0.15607,3.52645c0,0 0.65574,1.08581 1.93089,1.49974c0.74151,0.2407 2.94677,-4.68791 3.52203,-4.25007c0.42258,0.32164 1.27551,2.39568 1.45928,3.28465c0.27622,1.33619 -1.1832,4.54485 -1.1832,4.54485l0.29811,5.68259c0,0 0.49554,0.11187 1.00043,0.31031c0.74683,0.29353 2.8997,1.54905 5.47649,2.57573c1.79728,0.7161 3.77022,1.61418 5.48907,2.22376c0.57062,0.20237 1.75678,0.13363 2.26126,0.29804c1.79737,0.58577 3.30522,0.91277 3.30522,0.91277c0,0 -2.02203,0.21013 -4.25385,0.19676c-0.61073,-0.00366 -1.23579,0.02594 -1.84143,-0.04251c-0.97597,-0.1103 -5.41293,-1.00935 -5.41293,-1.00935c0,0 -1.4397,0.9336 -2.45957,0.55372c-0.0308,-0.01148 -2.87328,-1.23368 -3.91444,-1.91645c-0.13986,-0.09172 -0.77002,-1.02463 -1.83568,-2.04144c-0.43247,-0.41264 -0.81387,-0.91242 -1.31779,-1.27803c-0.70277,-0.50989 -1.53575,-0.87302 -2.12062,-1.38637c-0.92445,-0.81141 -1.74,-1.97928 -1.75659,-1.99694c-0.62571,-0.6659 -1.11028,-3.25091 -2.03139,-6.111c-0.90446,-2.80844 -1.83761,-5.76927 -2.8014,-7.10612c-0.29467,-0.40873 -0.6941,-0.49182 -0.96624,-0.56131c-0.52801,-0.13485 -1.67583,0.263 -2.59228,0.98742c-1.07262,0.84784 -2.16161,1.74918 -2.68252,1.4516c-1.29571,-0.87664 -2.62972,-2.53561 -3.68603,-4.26094c-1.52431,-2.48974 -2.53224,-5.0523 -2.53224,-5.0523z" fill="#d396fc" stroke="none" stroke-width="0"/><path d="M221.29024,100.9884c-0.68841,-1.64388 -1.89858,-4.77469 -2.93655,-7.96284c-1.22408,-3.75981 -2.60739,-8.09278 -3.16718,-10.02353c-0.12987,-0.44796 0.01553,-1.85255 0.48963,-2.07748c1.07289,-0.50901 3.37322,-1.58024 5.13531,-2.3226c0.30809,-0.1298 0.59909,0.00439 0.84713,-0.09106c0.24104,-0.09276 -0.01991,-0.29637 0.22293,-0.3883c4.63998,-1.75637 10.2203,-3.59449 10.2203,-3.59449c0,0 9.87785,8.10744 9.36877,12.14539c-0.4557,3.6145 -12.27402,11.20286 -12.27402,11.20286c0,0 1.09666,3.13203 1.56748,4.76076c0.44738,1.5477 1.31566,4.7775 1.31566,4.7775c0,0 -0.63993,1.10167 -0.62845,1.64797c0.02058,0.97963 0.46577,2.04996 0.85887,2.80997c0.31659,0.61208 0.31615,0.64704 -0.13064,0.24316c-1.24082,-1.12167 -3.76969,-3.42355 -5.1707,-4.80967c-0.92247,-0.91267 -1.73726,-1.58841 -2.85106,-2.78192c-0.47908,-0.51337 -0.29243,-1.00361 -0.63909,-1.37918c-0.13274,-0.14382 -0.22615,-0.65478 -0.56376,-0.90849c-0.23059,-0.17329 -0.70477,-0.08957 -0.87195,-0.22714c-0.46648,-0.38381 -0.54273,-0.55869 -0.6993,-0.93254z" fill="#4a5c6f" stroke="#000000" stroke-width="2"/><path d="M235.67055,88.95494c-0.05661,-0.14297 -0.72627,-0.22738 -1.55805,-0.47848c-2.46711,-0.74477 -7.43292,-1.9514 -9.46533,-2.54703c-0.80719,-0.23656 -0.62195,-0.02137 -0.12774,-0.4343c1.17638,-0.98294 7.44319,-5.79176 7.44319,-5.79176c0,0 -4.36017,-2.7094 -5.80876,-5.6038c-3.12389,-6.2418 -1.36857,-9.27586 -1.01034,-10.03127c0.14259,-0.30067 1.33771,-1.9258 2.92116,-3.23576c1.11523,-0.92262 2.42542,-1.60394 3.67441,-2.3453c2.37635,-1.41053 6.25953,-2.68496 7.67628,-3.20711c0.68763,-0.25344 -0.02593,0.2564 -0.45702,0.95346c-1.25522,2.02967 -4.05575,5.86912 -3.43537,7.07098c0.32747,0.63441 1.40997,1.53126 2.28766,2.54478c0.64201,0.74137 1.61306,1.69979 2.71673,2.47982c0.80019,0.56554 2.05822,0.64129 3.60822,0.64782c6.54829,0.02756 18.23039,-3.98731 21.83818,-5.7902c0.3605,-0.18014 -0.0967,-4.78619 0.05581,-4.81281c0.6851,-0.11955 13.50542,9.91773 8.73553,19.29212c-1.80036,3.5383 -5.42859,6.1692 -9.66264,7.88702c-8.24037,3.34325 -18.30506,3.42933 -18.30506,3.42933c0,0 -5.71666,3.38253 -10.4852,5.83919c-2.69589,1.38886 -5.08966,2.44844 -5.96364,2.88405c-0.71185,0.35479 -1.90326,0.69715 -1.61953,-0.02189c0,0 0.59656,-0.81065 1.28921,-1.63525c1.41721,-1.68716 3.73442,-4.36833 4.68067,-5.80946c0,0 1.02311,-1.15401 0.9716,-1.28413z" fill="#4a5c6f" stroke="#000000" stroke-width="2"/><path d="M243.60367,80.48421c0,0 -15.02999,-1.68913 -15.35637,-12.95109c-0.07623,-2.63051 0.15053,-3.0189 0.76394,-4.21561c2.40348,-4.68906 8.76172,-6.84839 8.76172,-6.84839c0,0 -3.52943,4.96361 -3.4205,6.40894c0.08125,1.0781 4.06812,5.8243 5.59838,6.39174c1.66497,0.61739 3.90204,0.56485 6.37615,0.36205c7.70841,-0.63183 17.67781,-4.17281 19.4875,-5.31652c0.27108,-0.17133 0.98115,-0.72682 1.14033,-1.36343c0.30295,-1.21163 -0.25016,-2.91528 -0.25016,-2.91528c0,0 2.5982,2.41378 3.66208,3.66445c1.21681,1.43045 3.46271,4.90398 3.46271,4.90398c0,0 -5.9826,7.29557 -14.30927,8.47379c-3.89459,0.55108 -7.38452,0.69397 -10.15814,0.3672c-2.72897,-0.3215 -4.74029,-1.2947 -6.37865,-1.9573c-2.65115,-1.0722 -4.07091,-1.87783 -4.07091,-1.87783c0,0 0.67351,1.41177 1.23024,2.23841c0.83445,1.23899 3.46097,4.63492 3.46097,4.63492z" fill="#696f96" stroke="none" stroke-width="0"/><path d="M232.09578,80.03461l0.30013,-0.99062c0,0 1.99543,0.19097 3.24449,0.83112c0.9074,0.46505 1.42894,1.05577 1.20589,1.34518c-0.28211,0.36604 -1.4173,-0.11543 -2.49252,-0.49608c-0.45173,-0.15992 -0.91498,-0.50374 -1.29914,-0.61819c-0.56051,-0.167 -0.95886,-0.0714 -0.95886,-0.0714z" fill="#000000" stroke="none" stroke-width="0"/><path d="M227.44593,80.7284l-0.04134,-1.49943c0,0 1.40326,0.07132 2.50524,0.0891c0.68887,0.01111 1.25833,-0.05961 1.29883,0.0061c0.38098,0.61813 -2.65212,1.77376 -2.65212,1.77376z" fill="#4a5c6f" stroke="none" stroke-width="0"/><path d="M222.79746,101.9597l-1.18069,-3.24142l9.14873,8.5693c0,0 -0.45712,0.75822 -0.45869,1.18808c-0.00192,0.52221 0.44799,1.72241 0.44799,1.72241z" fill="#4a5c6f" stroke="none" stroke-width="0"/><path d="M227.56984,108.4784l-0.21182,-1.08548l1.27225,-0.03508l0.04009,1.45399z" fill="#000000" stroke="none" stroke-width="0"/><path d="M222.9753,108.88114c0,0 -0.25686,-0.3658 -0.68469,-0.74903c-0.47953,-0.42953 -1.22746,-0.89777 -1.6457,-1.27152c-0.43504,-0.38875 -1.16867,-0.99179 -1.75497,-1.52995c-0.68171,-0.62573 -0.89395,-0.81393 -0.89395,-0.81393c0,0 0.39114,0.07949 0.9817,0.3703c0.34253,0.16866 0.70476,0.40973 1.21995,0.74421c1.35331,0.8786 2.99482,2.09571 4.21435,3.20674c1.5504,1.41249 2.48344,2.52524 1.49176,3.48694c-0.51707,0.50144 -0.71486,0.31629 -1.08956,0.13777c-0.37875,-0.18045 -0.64383,-0.54279 -0.9276,-0.9919c-0.22669,-0.35879 -0.49819,-0.77203 -0.60755,-1.19882c-0.20236,-0.78972 -0.30373,-1.39081 -0.30373,-1.39081z" fill="#000000" stroke="none" stroke-width="0"/><path d="M232.18261,108.81463l0.27809,-2.00843c0,0 2.57795,-1.20118 3.03567,-0.98498c0.75159,0.35499 -3.31376,2.99341 -3.31376,2.99341z" fill="#000000" stroke="none" stroke-width="0"/><path d="M227.92024,109.43234c0,0 0.30198,-0.59062 0.76011,-0.3397c0.88658,0.48558 2.29912,1.98851 2.82724,2.06378c0.71404,0.10175 0.98792,-1.07214 0.98792,-1.07214c0,0 2.83505,3.81056 2.95877,4.38862c0.04617,0.21576 0.13245,0.52386 0.14788,0.80503c0.02922,0.53243 -0.17179,0.6572 -0.32814,0.91753c-0.11807,0.19658 -0.18612,0.49368 -0.24905,0.97068c-0.10008,0.75843 -0.03074,1.75036 -0.04575,2.62339c-0.01555,0.90522 -0.0473,2.06541 -0.0473,2.06541c0,0 -0.30745,-0.98388 -0.38363,-1.94055c-0.0394,-0.49483 -0.13603,-1.0484 -0.19389,-1.67538c-0.11374,-1.23276 -0.23233,-2.58576 -0.5549,-3.18877c-0.18804,-0.35151 -0.57126,-0.54006 -0.89421,-0.88853c-0.6541,-0.7058 -1.53817,-1.32886 -2.20443,-1.83234c-0.66547,-0.50289 -2.78066,-2.897 -2.78066,-2.897z" fill="#000000" stroke="none" stroke-width="0"/><path d="M237.70285,104.68524c0,0 -0.1312,-1.7729 -0.17525,-3.05864c-0.00956,-0.27888 -0.62082,0.16961 -0.61995,-0.04036c0.00178,-0.42684 0.0617,-1.22363 0.26345,-2.01769c0.18793,-0.73963 0.50719,-1.4771 0.79951,-1.90502c0.44047,-0.64479 -0.05435,-1.11226 -0.05435,-1.11226c0,0 0.81946,-0.58595 2.1065,-0.84767c0.55638,-0.11315 1.14796,-0.2151 1.88505,-0.101c0.53615,0.083 1.05732,0.30324 1.67931,0.56039c0.63299,0.2617 1.33701,0.94802 2.11602,1.67483c0.70998,0.66241 1.49253,1.34758 2.13714,1.99033c0.67623,0.67427 1.17513,1.28064 1.67126,1.44729c2.38001,0.59402 5.81502,0.76191 7.85227,0.69516c1.23714,-0.04053 3.68852,-2.15819 4.91803,-2.30781c0.6464,-0.07866 1.97414,0.65131 2.65141,0.28457c0.35802,-0.19387 1.09875,-0.96086 1.94531,-2.01725c0.21074,-0.26298 0.4248,-0.6611 0.64492,-0.93623c0.69124,-0.86397 1.41029,-1.67127 2.0196,-2.47815c0.91038,-1.20558 1.58346,-2.1313 1.58346,-2.1313c0,0 0.76073,-1.0965 0.74934,-0.66013c-0.03562,1.36562 -0.99251,9.98287 -0.99251,9.98287c0,0 -0.41076,1.55405 -1.14742,3.29392c-0.48876,1.15437 -1.15693,2.35653 -1.81382,3.36386c-0.5588,0.8569 -0.79479,1.80272 -1.45176,1.99013c-0.19152,0.05463 -1.67853,0.32001 -2.15511,-0.0329c-0.78971,-0.58478 -1.62419,-1.21414 -2.15585,-2.01887c-1.07713,-1.63037 -1.61607,-3.88559 -1.88708,-4.81125c-0.11577,-0.39545 -0.19481,-0.00751 -0.25983,0.28469c-0.19317,0.86801 -0.62152,2.64864 -0.97757,3.1042c-1.11732,1.42957 -7.41783,5.3104 -8.365,5.36912c-1.52047,0.09426 -3.88448,-1.15737 -6.22788,-2.61825c-1.49725,-0.93338 -3.02204,-1.9142 -4.1958,-2.80787c-1.54582,-1.17698 -2.5434,-2.13871 -2.5434,-2.13871z" fill="#000000" stroke="none" stroke-width="0"/><path d="M232.47645,101.07789c-0.14163,-0.21348 1.47407,-2.11204 3.24008,-3.34232c1.6086,-1.12063 3.31225,-1.65265 3.31225,-1.65265l-1.06773,2.09272c0,0 -0.50146,-0.17447 -1.43626,0.37567c-1.56752,0.9225 -3.86776,2.79877 -4.04834,2.52658z" fill="#000000" stroke="none" stroke-width="0"/><path d="M233.89915,102.78934c-0.00655,-0.23744 1.1176,-0.85556 2.24019,-1.33984c0.67232,-0.29004 1.20509,-0.69338 1.20509,-0.69338l0.54459,1.6106c0,0 0.03182,-0.26496 -0.29102,-0.18411c-0.16273,0.04075 -0.48015,-0.2844 -0.67443,-0.23342c-0.40256,0.10561 -1.10552,0.30082 -1.54824,0.43979c-0.76577,0.24037 -1.47352,0.49681 -1.47618,0.40036z" fill="#000000" stroke="none" stroke-width="0"/><path d="M233.95599,104.85107c-0.09372,-0.27945 0.13113,-0.64163 1.66372,-1.08814c1.00867,-0.29387 2.11116,-0.32893 2.11116,-0.32893l0.59674,1.23402c0,0 -1.45873,-0.12588 -2.74211,0.06958c-0.84697,0.12899 -1.56572,0.3037 -1.6295,0.11347z" fill="#000000" stroke="none" stroke-width="0"/><path d="M261.25847,100.34575c0,0 0.08636,-0.47814 -0.02095,-0.97901c-0.03498,-0.16328 -0.15141,-0.4448 -0.39779,-0.71056c-0.64056,-0.69092 -1.8092,-1.64553 -2.09876,-2.89683c-0.10005,-0.43238 0.56707,-1.22094 1.14251,-1.89297c0.36884,-0.43075 0.73789,-0.77778 0.71855,-1.07031c-0.04131,-0.62486 -0.48427,-1.19868 -0.6597,-1.72458c-0.36574,-1.09645 -0.77724,-1.92627 -1.03022,-2.38798c-0.14689,-0.2681 -0.80682,-0.52169 -0.80682,-0.52169c0,0 3.71169,-1.46384 4.53019,-1.52058c0.45454,-0.03151 -0.03113,1.20872 -0.03113,1.20872c0,0 -1.80963,0.65118 -1.80166,1.17636c0.00364,0.23966 0.1904,0.98164 0.44981,1.75765c0.29176,0.87279 0.65886,1.7891 0.64095,2.09102c-0.03588,0.60491 -1.56917,2.28867 -1.51324,2.79936c0.02654,0.24226 0.96042,1.12712 1.64938,1.88341c0.44712,0.4908 0.75586,0.96468 0.76624,1.04714c0.06838,0.54337 0.08056,1.38324 0.08056,1.38324z" fill="#000000" stroke="none" stroke-width="0"/><path d="M261.09934,96.84418c0,0 -0.42628,-1.09036 -0.34128,-1.6031c0.02785,-0.16799 0.48077,-0.6668 0.99687,-1.1398c0.50031,-0.45853 1.06388,-0.88914 1.11532,-1.19941c0.01031,-0.0622 -0.39949,-1.62802 -0.61513,-2.97218c-0.20824,-1.29801 -0.22242,-2.377 -0.22242,-2.377l0.91941,-0.71402c0,0 0.01487,0.35912 0.34137,1.8226c0.15969,0.71577 0.6,1.59586 0.81068,2.49599c0.23968,1.02409 0.36199,2.05073 0.28481,2.53937c-0.02507,0.15866 -0.4552,0.59888 -1.05328,0.92099c-0.59758,0.32184 -1.36303,0.52556 -1.54621,0.69859c-0.13505,0.12756 -0.18103,1.82697 -0.18103,1.82697z" fill="#000000" stroke="none" stroke-width="0"/><path d="M249.42809,91.34355c0,0 0.59641,0.36467 1.6082,0.5961c1.11039,0.25397 2.72177,0.37302 4.61093,0.28002c0.80683,-0.03972 1.72608,-0.14928 2.61477,-0.34783c1.11393,-0.24887 2.2156,-0.63855 3.39497,-1.21702c0.38345,-0.18808 0.77018,-0.33541 1.1555,-0.5694c2.02543,-1.22998 3.98728,-4.47975 3.98728,-4.47975c0,0 1.76636,-1.29341 2.09534,-1.32524c0.2562,-0.02478 -0.28458,1.1501 -0.28458,1.1501c0,0 -0.4359,0.64871 -0.92096,1.45128c-0.15989,0.26455 -0.3851,0.48342 -0.56434,0.77189c-0.31448,0.50613 -0.62101,1.10006 -1.14142,1.62561c-0.3957,0.39962 -0.87715,0.51901 -1.3677,0.84475c-0.98738,0.65564 -1.96842,1.4445 -2.57309,1.63089c-1.16743,0.35986 -2.47298,1.18259 -4.31275,1.13377c-1.13415,-0.0301 -3.63731,0.224 -4.78366,0.08929c-3.22947,-0.3795 -3.51848,-1.63445 -3.51848,-1.63445z" fill="#000000" stroke="none" stroke-width="0"/><path d="M253.1001,90.55362c-0.0034,-0.12336 1.02334,-0.30878 2.01935,-0.49041c0.40713,-0.07424 0.87312,-0.09747 1.19672,-0.19539c1.74872,-0.52919 2.99844,-0.98808 2.99844,-0.98808l0.33349,0.74208c0,0 -0.97963,0.17169 -2.11722,0.48234c-1.02234,0.27918 -2.10046,0.56748 -2.984,0.66893c-0.89699,0.10299 -1.44379,-0.11107 -1.44678,-0.21946z" fill="#000000" stroke="none" stroke-width="0"/><path d="M239.97822,123.76834c-0.00127,-0.55599 -0.0869,-1.82573 -0.00101,-2.85286c0.09798,-1.17178 0.33908,-3.68026 0.41163,-4.91907c0.00481,-0.08219 -0.4296,0.34097 -0.50379,0.61178c-0.14823,0.54104 0.04732,0.60171 -0.13288,1.33683c-0.02366,0.0965 -0.60849,0.60844 -0.9857,1.1113c-0.20283,0.2704 -0.28945,0.59132 -0.32293,0.72395c-0.09451,0.37446 -0.23793,0.68099 -0.28123,1.05429c-0.19242,1.6593 0.1116,3.23562 -0.03252,3.27741c-0.04129,0.01197 -0.3029,-0.28195 -0.43429,-0.84024c-0.31858,-1.35362 -0.4556,-3.79287 -0.35302,-4.39601c0.06754,-0.39715 0.92654,-0.73205 1.02914,-1.11196c0.09575,-0.35451 0.52287,-1.05469 0.85514,-1.64697c0.08599,-0.15329 0.0289,-0.43107 0.10836,-0.73288c0.09538,-0.3623 0.3197,-0.75733 0.31705,-0.98813c-0.00883,-0.76944 -0.04628,-1.73781 -0.00783,-1.75682c1.00371,-0.49604 3.89538,0.93247 5.81844,1.50828c0.42421,0.12702 0.87241,0.13738 1.16281,0.16099c0.70479,0.0573 3.67697,-1.00011 4.00573,-0.88112c0.1378,0.04988 -0.33251,0.29328 -1.0493,0.62961c-0.61867,0.2903 -1.4162,0.82324 -2.17544,0.97387c-1.54837,0.3072 -2.21703,0.23449 -2.21703,0.23449c0,0 0.12347,0.51777 0.5147,1.04369c0.34655,0.46586 0.95287,0.93674 1.13724,1.07999c0.9849,0.7653 1.71984,1.18038 1.79453,1.19372c1.44085,0.25729 1.51279,-0.2349 3.32867,-0.37387c3.5762,-0.27368 8.09484,-0.64217 10.09368,-0.92846c0.52212,-0.07479 1.08528,-0.22153 1.16249,-0.26762c1.18618,-0.708 2.8055,-2.95689 3.43864,-4.32337c0.13362,-0.28838 -0.5585,-0.86686 -0.2725,-0.84968c0.27964,0.0168 1.05046,-0.20239 1.50104,-0.06402c0.38771,0.11906 0.71554,0.73178 0.72423,0.89353c-0.09871,0.26952 -0.16199,0.50819 -0.31212,0.64279c-0.16431,0.14731 -0.41704,0.18478 -0.55326,0.36204c-0.24002,0.31229 -0.43006,0.73916 -0.6874,1.10927c-0.52488,0.75489 -1.12999,1.49889 -1.5348,2.14724c-0.4333,0.69399 -0.64861,1.26751 -0.65373,1.28367c-0.34872,1.10202 -0.97289,3.39468 -0.93842,5.59561c0.01843,1.17645 0.52135,2.65181 0.80913,3.46767c0.12656,0.35878 -0.0993,0.83014 -0.41206,0.94878c-0.58511,0.22193 -1.50713,0.47259 -2.49059,0.78663c-2.13282,0.68104 -4.69581,1.52651 -6.07771,1.7555c-0.39631,0.06567 -0.76799,0.01202 -0.91529,-0.02632c-3.24375,-0.84407 -6.67009,-3.45657 -9.24285,-4.73933c-3.54958,-1.76981 -5.62357,-1.64762 -5.62493,-2.23417z" fill="#000000" stroke="none" stroke-width="0"/><path d="M268.03047,117.84767c-0.20184,-0.05163 -0.36118,-1.51025 -0.22721,-2.58694c0.033,-0.26523 0.15118,-0.50993 0.19482,-0.72528c0.13656,-0.67405 0.21913,-1.0792 0.21913,-1.0792c0,0 0.18486,0.14029 0.31194,0.62787c0.07295,0.27988 0.12405,0.57196 0.11086,1.04009c-0.00986,0.34987 -0.20094,1.69008 -0.38123,2.36589c-0.07042,0.26399 -0.20616,0.36324 -0.22831,0.35757z" fill="#000000" stroke="none" stroke-width="0"/><path d="M261.73172,107.09409l0.79438,0.90153c0,0 0.29651,1.2918 0.59059,2.08824c0.19841,0.53735 0.72975,1.6149 1.13397,2.41173c0.28333,0.55853 0.39383,1.21566 -0.05805,0.86159c-0.36809,-0.28843 -0.73748,-0.90269 -1.12137,-1.52794c-0.24389,-0.39723 -0.53951,-0.79762 -0.697,-1.12579c-0.25898,-0.5396 -0.45696,-1.57543 -0.51145,-2.30922c-0.04194,-0.56462 -0.13107,-1.30014 -0.13107,-1.30014z" fill="#000000" stroke="none" stroke-width="0"/><path d="M245.5383,124.32038c-0.40335,-1.02973 -3.76281,-9.60613 -3.76281,-9.60613c0,0 2.90162,3.09864 4.50749,4.04577c1.00751,0.59422 4.20014,1.08994 4.20014,1.08994c0,0 6.21564,-0.78471 7.43413,-0.93854c0.39723,-0.05015 0.65405,0.11705 0.48652,0.46619c-0.19917,0.41508 -0.44282,1.0172 -0.55527,1.66444c-0.09592,0.55212 -0.02266,2.47475 -0.02266,2.47475c0,0 -3.0542,0.03179 -5.17012,0.44149c-1.23071,0.2383 -2.0756,0.8508 -2.09747,1.01727c-0.01914,0.1457 1.91185,-0.11084 3.99884,-0.22724c2.42562,-0.13529 5.06016,-0.14702 5.06016,-0.14702c0,0 0.00166,4.04331 -0.20336,4.04437c-0.25935,0.00134 -1.16702,0.34076 -2.23434,0.52345c-1.22851,0.21029 -2.66742,0.25351 -3.55412,0.00611c-0.77508,-0.21626 -2.73963,-1.7792 -4.6564,-2.9287c-1.06777,-0.64035 -2.3503,-1.26719 -2.97029,-1.53841c-0.32047,-0.14018 -0.38316,-0.19045 -0.46045,-0.38775z" fill="#ffffff" stroke="none" stroke-width="0"/><path d="M246.20876,122.21911c-0.36383,-0.86136 -1.13043,-2.57217 -2.06413,-4.05876c-0.42176,-0.67149 -0.68355,-1.28338 -1.09922,-1.82012c-0.84414,-1.09001 -1.48749,-1.89317 -1.54418,-2.36253c-0.04081,-0.33788 0.42579,-0.74152 0.74703,-0.40557c0.81437,0.85165 2.23355,2.57967 3.37603,3.70077c0.41464,0.40688 0.78088,0.74645 1.03813,0.96727c0.65712,0.56404 1.61917,1.27456 1.61917,1.27456c0,0 -0.75553,0.8549 -1.05738,1.46892c-0.18559,0.37751 -0.57803,1.13557 -0.74877,1.53931c-0.09576,0.22642 -0.11972,0.04407 -0.26668,-0.30385z" fill="#f44254" stroke="#000000" stroke-width="1"/><path d="M248.17022,119.844c0.16849,-0.00751 0.32166,-0.31633 0.72075,-0.34079c1.02831,-0.06303 2.64885,0.13134 2.64885,0.13134c0,0 -0.66053,1.48482 -0.92146,2.06918c-0.04729,0.10589 -0.28597,1.07669 -0.6006,1.06634c-0.28365,-0.00933 -0.70978,-1.052 -0.75934,-1.11749c-0.20733,-0.27397 -1.32712,-1.79794 -1.0882,-1.80858z" fill="#f44254" stroke="#000000" stroke-width="0.5"/><path d="M251.07041,119.8061c-0.25217,0.50509 -0.6121,1.23335 -0.77308,1.59384c-0.08991,0.20136 -0.18571,0.47094 -0.25711,0.6838c-0.06626,0.19755 -0.22454,0.22236 -0.36491,0.05982c-0.11494,-0.1331 -0.24819,-0.29211 -0.35273,-0.43023c-0.20759,-0.27431 -0.62579,-0.84815 -0.99112,-1.35203c-0.09826,-0.13552 -0.19269,-0.266 -0.27817,-0.38422c-0.12107,-0.16745 3.0914,-0.31975 3.01712,-0.17097z" fill="#f44254" stroke="#000000" stroke-width="0.5"/><path d="M269.63056,126.86116c0.00806,0.29227 -0.20918,0.53539 -0.48522,0.543c-0.27604,0.00761 -0.50634,-0.22316 -0.5144,-0.51544c-0.00806,-0.29227 0.20918,-0.53538 0.48522,-0.54299c0.27604,-0.00761 0.50634,0.22316 0.5144,0.51543z" fill="#000000" stroke="none" stroke-width="0"/><path d="M271.3828,128.51939c0.00627,0.22732 -0.22559,0.41815 -0.51786,0.4262c-0.29228,0.00806 -0.53429,-0.1697 -0.54056,-0.39702c-0.00627,-0.22732 0.22558,-0.41815 0.51786,-0.4262c0.29228,-0.00806 0.53429,0.1697 0.54056,0.39702z" fill="#000000" stroke="none" stroke-width="0"/><path d="M272.47808,131.9611c0.00895,0.32475 -0.26021,0.59564 -0.6012,0.60504c-0.34099,0.0094 -0.62467,-0.24624 -0.63363,-0.57099c-0.00895,-0.32475 0.26021,-0.59563 0.6012,-0.60503c0.34099,-0.0094 0.62467,0.24624 0.63363,0.57098z" fill="#000000" stroke="none" stroke-width="0"/><path d="M270.9894,131.32539c0.00671,0.24356 -0.22478,0.44754 -0.51705,0.4556c-0.29228,0.00806 -0.53465,-0.18286 -0.54137,-0.42642c-0.00671,-0.24356 0.22478,-0.44754 0.51705,-0.4556c0.29228,-0.00806 0.53465,0.18285 0.54137,0.42642z" fill="#000000" stroke="none" stroke-width="0"/><path d="M269.98456,129.0287c0.00537,0.19486 -0.17455,0.3579 -0.40189,0.36416c-0.22732,0.00627 -0.41597,-0.14661 -0.42134,-0.34147c-0.00537,-0.19486 0.17455,-0.35789 0.40189,-0.36415c0.22732,-0.00627 0.41597,0.14661 0.42134,0.34146z" fill="#000000" stroke="none" stroke-width="0"/><path d="M268.36811,130.1619c0.00761,0.27604 -0.23633,0.50671 -0.54484,0.51521c-0.30851,0.00851 -0.56479,-0.20837 -0.5724,-0.48441c-0.00761,-0.27604 0.23633,-0.50671 0.54484,-0.51521c0.30851,-0.00851 0.56479,0.20837 0.5724,0.48441z" fill="#000000" stroke="none" stroke-width="0"/><path d="M269.14342,132.67091c0.00671,0.24356 -0.21162,0.44717 -0.48765,0.45478c-0.27604,0.00761 -0.50525,-0.18367 -0.51197,-0.42722c-0.00671,-0.24356 0.21162,-0.44718 0.48765,-0.45479c0.27604,-0.00761 0.50525,0.18367 0.51197,0.42723z" fill="#000000" stroke="none" stroke-width="0"/><path d="M265.40653,131.59702c0.00671,0.24356 -0.21162,0.44717 -0.48765,0.45478c-0.27604,0.00761 -0.50525,-0.18367 -0.51197,-0.42722c-0.00671,-0.24356 0.21162,-0.44718 0.48765,-0.45479c0.27604,-0.00761 0.50525,0.18368 0.51197,0.42723z" fill="#000000" stroke="none" stroke-width="0"/><path d="M267.14743,132.84363c0.00671,0.24356 -0.21162,0.44718 -0.48765,0.45479c-0.27604,0.00761 -0.50525,-0.18367 -0.51197,-0.42723c-0.00671,-0.24356 0.21162,-0.44718 0.48765,-0.45479c0.27604,-0.00761 0.50525,0.18367 0.51197,0.42723z" fill="#000000" stroke="none" stroke-width="0"/><path d="M264.36307,134.30327c0.00716,0.2598 -0.22396,0.47694 -0.51624,0.485c-0.29228,0.00806 -0.53502,-0.19602 -0.54218,-0.45582c-0.00716,-0.2598 0.22397,-0.47694 0.51624,-0.485c0.29228,-0.00806 0.53502,0.19602 0.54218,0.45582z" fill="#000000" stroke="none" stroke-width="0"/><path d="M261.84801,132.72492c0.00716,0.2598 -0.21081,0.47658 -0.48684,0.48419c-0.27604,0.00761 -0.50562,-0.19683 -0.51278,-0.45663c-0.00716,-0.2598 0.21081,-0.47658 0.48684,-0.48419c0.27604,-0.00761 0.50562,0.19683 0.51278,0.45663z" fill="#000000" stroke="none" stroke-width="0"/><path d="M261.29868,135.21159c-0.27604,0.00761 -0.50453,-0.15735 -0.51035,-0.36844c-0.00582,-0.21109 0.21324,-0.38837 0.48927,-0.39598c0.27604,-0.00761 0.50453,0.15734 0.51035,0.36843c0.00582,0.21109 -0.21324,0.38838 -0.48927,0.39599z" fill="#000000" stroke="none" stroke-width="0"/><path d="M258.35803,134.20403c0.00851,0.30851 -0.26102,0.56623 -0.602,0.57563c-0.34099,0.0094 -0.62431,-0.23307 -0.63282,-0.54159c-0.00851,-0.30851 0.26102,-0.56624 0.60201,-0.57564c0.34099,-0.0094 0.6243,0.23308 0.63281,0.5416z" fill="#000000" stroke="none" stroke-width="0"/><path d="M253.2002,132.81622c0.00851,0.30851 -0.23469,0.5655 -0.54321,0.57401c-0.30851,0.00851 -0.5655,-0.23469 -0.57401,-0.54321c-0.00851,-0.30851 0.23469,-0.5655 0.54321,-0.57401c0.30851,-0.00851 0.5655,0.23469 0.57401,0.54321z" fill="#000000" stroke="none" stroke-width="0"/><path d="M252.94245,135.20662c-0.24357,0.00672 -0.44464,-0.11948 -0.44912,-0.28185c-0.00448,-0.16238 0.18935,-0.29945 0.43291,-0.30617c0.24356,-0.00671 0.44463,0.11948 0.44911,0.28185c0.00448,0.16237 -0.18934,0.29945 -0.4329,0.30617z" fill="#000000" stroke="none" stroke-width="0"/><path d="M251.4106,134.0719c0.00716,0.2598 -0.21081,0.47657 -0.48684,0.48418c-0.27604,0.00761 -0.50562,-0.19683 -0.51278,-0.45662c-0.00716,-0.2598 0.21081,-0.47658 0.48684,-0.48419c0.27604,-0.00761 0.50562,0.19683 0.51278,0.45663z" fill="#000000" stroke="none" stroke-width="0"/><path d="M251.60527,132.59541c0.00716,0.2598 -0.21081,0.47658 -0.48684,0.48419c-0.27604,0.00761 -0.50562,-0.19683 -0.51278,-0.45663c-0.00716,-0.2598 0.21081,-0.47657 0.48684,-0.48418c0.27604,-0.00761 0.50562,0.19683 0.51278,0.45662z" fill="#000000" stroke="none" stroke-width="0"/><path d="M249.13724,132.72229c0.00895,0.32475 -0.24705,0.59526 -0.5718,0.60422c-0.32475,0.00895 -0.59526,-0.24705 -0.60422,-0.5718c-0.00895,-0.32475 0.24705,-0.59526 0.5718,-0.60422c0.32475,-0.00895 0.59526,0.24705 0.60422,0.5718z" fill="#000000" stroke="none" stroke-width="0"/><path d="M246.75439,131.66991c0.00716,0.2598 -0.22396,0.47694 -0.51624,0.485c-0.29227,0.00806 -0.53503,-0.19602 -0.54219,-0.45582c-0.00716,-0.2598 0.22397,-0.47693 0.51625,-0.48499c0.29227,-0.00806 0.53502,0.19602 0.54218,0.45581z" fill="#000000" stroke="none" stroke-width="0"/><path d="M271.33552,134.00921c0.00899,0.32623 -0.22783,0.59742 -0.52897,0.60572c-0.30113,0.0083 -0.55254,-0.24943 -0.56154,-0.57565c-0.00899,-0.32623 0.22783,-0.59742 0.52897,-0.60572c0.30113,-0.0083 0.55254,0.24943 0.56154,0.57565z" fill="#000000" stroke="none" stroke-width="0"/><path d="M244.41579,107.60471c0,0 1.97216,-0.78204 2.74383,-0.9768c0.72453,-0.18286 2.1147,-0.25919 2.1147,-0.25919c0,0 0.14764,-0.78709 0.31056,-1.74938c0.14468,-0.85458 0.3998,-1.57724 0.47588,-2.27962c0.12096,-1.11691 -0.02753,-3.59193 0.07087,-5.06984c0.07616,-1.14397 0.40555,-1.83848 0.40555,-1.83848c0,0 -0.24368,1.19939 -0.19076,2.64336c0.0585,1.59646 0.24217,3.68032 0.35249,4.623c0.11299,0.96545 0.73004,2.75968 0.73004,2.75968l5.5633,-0.20021c0,0 -0.75583,0.64776 -2.08469,0.96433c-1.43934,0.34289 -3.47009,0.37375 -3.73957,0.85524c-0.07475,0.13355 -0.23558,0.22395 -0.2797,0.98632c-0.15406,2.66182 -0.04247,8.45868 -0.04247,8.45868c0,0 -0.37297,-4.68801 -0.68206,-7.18906c-0.06575,-0.532 -0.21297,-0.87589 -0.25903,-1.15407c-0.11551,-0.69755 -0.42118,-1.13801 -0.42118,-1.13801c0,0 -0.86514,-0.13535 -1.35517,-0.10544c-0.8312,0.05072 -3.71255,0.66951 -3.71255,0.66951z" fill="#ff0000" stroke="none" stroke-width="0"/><path d="M258.32989,105.52398c0,0 1.46705,-0.41182 2.92411,-1.04997c0.58048,-0.25423 1.16894,-0.49842 1.70723,-0.80933c0.74532,-0.43048 1.47328,-0.42119 1.73699,-0.94443c0.20095,-0.3987 0.27372,-1.84422 0.30316,-3.33148c0.06143,-3.10318 -0.12528,-7.19471 -0.12528,-7.19471c0,0 0.15881,0.4656 0.2505,1.30862c0.20911,1.92268 0.07952,5.05446 0.22746,6.35161c0.1245,1.09163 0.79391,2.91518 0.79391,2.91518c0,0 0.33716,0.13228 0.93383,-0.08529c1.03721,-0.37822 2.67474,-1.14621 3.35486,-1.16291c2.50833,-0.06159 3.50556,0.20434 3.50556,0.20434c0,0 -1.29007,-0.06666 -2.73487,0.25151c-0.91201,0.20084 -1.92342,0.63226 -2.80822,1.07257c-0.15831,0.07878 -0.37264,-0.00545 -0.52144,0.07682c-0.23138,0.12794 -0.38954,0.4244 -0.58981,0.55686c-0.46124,0.30507 -0.82686,0.61582 -1.0366,0.90314c-0.04416,0.06049 -0.19557,0.24501 -0.24864,0.67635c-0.15985,1.29894 -0.25681,4.05179 -0.49235,6.10756c-0.18728,1.63457 -0.52769,2.8291 -0.52769,2.8291c0,0 -0.02799,-4.135 -0.28643,-6.70907c-0.11238,-1.11935 0.00729,-2.14576 -0.27062,-2.47612c-0.13941,-0.16573 -1.0324,-0.20454 -2.32372,-0.0745c-1.64987,0.16614 -3.77197,0.58419 -3.77197,0.58419z" fill="#ff0000" stroke="none" stroke-width="0"/><path d="M251.48175,106.29079c0.01437,0.5214 -0.39665,0.95573 -0.91805,0.97011c-0.5214,0.01437 -0.95573,-0.39665 -0.97011,-0.91805c-0.01437,-0.5214 0.39665,-0.95573 0.91805,-0.97011c0.5214,-0.01437 0.95573,0.39665 0.97011,0.91805z" fill="#ff0000" stroke="none" stroke-width="0"/><path d="M266.36848,103.99076c0.01268,0.46007 -0.33756,0.84295 -0.78229,0.85521c-0.44473,0.01226 -0.81554,-0.35076 -0.82822,-0.81081c-0.01268,-0.46007 0.33756,-0.84295 0.78229,-0.85521c0.44473,-0.01226 0.81554,0.35076 0.82822,0.81081z" fill="#ff0000" stroke="none" stroke-width="0"/></g><path d="M246.58183,89.9449v-1.94737h1.42105v1.94737z" fill="#000000" stroke="none" stroke-width="0"/></g></g></g></svg>