<svg version="1.1" xmlns="http://www.w3.org/2000/svg" xmlns:xlink="http://www.w3.org/1999/xlink" width="174.82368" height="319.56475" viewBox="0,0,174.82368,319.56475"><g transform="translate(-225.44182,-41.4227)"><g data-paper-data="{&quot;isPaintingLayer&quot;:true}" fill-rule="nonzero" stroke-linejoin="miter" stroke-miterlimit="10" stroke-dasharray="" stroke-dashoffset="0" style="mix-blend-mode: normal"><g stroke="#000000" stroke-linecap="butt"><path d="M306.30718,242.16509c-7.67216,32.44158 -20.27493,57.23112 -28.1491,55.36896c-7.87419,-1.86217 -8.03795,-29.67089 -0.36581,-62.11248c7.67216,-32.44158 20.27493,-57.23112 28.1491,-55.36896c7.87419,1.86217 8.03795,29.67089 0.3658,62.11248z" fill="#0d69be" stroke-width="2"/><path d="M308.57689,290.32405c-3.29308,13.92475 -17.54139,22.47472 -31.82452,19.09691c-14.28311,-3.37782 -23.19231,-17.40433 -19.89922,-31.3291c3.29309,-13.92476 17.54139,-22.47472 31.82452,-19.09691c14.28311,3.37783 23.1923,17.40436 19.89922,31.3291z" fill="#faddbf" stroke-width="2"/><path d="M272.59187,269.82216c-3.29309,13.92476 19.02541,42.23309 4.7423,38.85525c-14.28311,-3.37782 -23.1923,-17.40433 -19.89922,-31.3291c3.29309,-13.92476 18.44999,-21.45091 15.15692,-7.52616z" fill="#ef8b89" stroke-width="0"/></g><g stroke="#000000" stroke-linecap="butt"><path d="M307.76518,340.83539v-95.29492h29.49199v95.29492z" fill="#73fffc" stroke-width="2"/><path d="M307.43943,340.21745l1.32626,-93.78573c0,0 5.20288,68.11227 6.3799,77.52842c0.2602,2.08162 2.52228,2.78987 2.52228,2.78987l18.60659,13.13896z" fill="#59a9e6" stroke-width="0"/></g><g stroke="#000000" stroke-linecap="butt"><path d="M268.4238,338.41285v-95.29492h29.49199v95.29492z" fill="#73fffc" stroke-width="2"/><path d="M268.09805,337.79493l1.32626,-93.78573c0,0 5.20288,68.11227 6.3799,77.52842c0.2602,2.08162 2.52228,2.78987 2.52228,2.78987l18.60659,13.13896z" fill="#59a9e6" stroke-width="0"/></g><g stroke="#000000" stroke-linecap="butt"><path d="M335.22917,235.69588c0,13.80271 10.04743,36.74388 4.95001,46.45977c-6.2338,11.88187 -28.61241,9.09579 -38.9397,9.09579c-13.66287,0 -32.94407,4.17018 -38.34426,-14.83216c-2.01935,-7.10576 4.35457,-32.37264 4.35457,-40.7234c0,-30.68249 15.2177,-55.55556 33.98969,-55.55556c18.77199,0 33.98969,24.87307 33.98969,55.55556z" fill="#0d69be" stroke-width="2"/><path d="M283.96554,251.27245c0,13.80271 62.04198,20.54886 56.94455,30.26474c-6.2338,11.88186 -28.61241,9.09579 -38.9397,9.09579c-13.66287,0 -32.94406,4.17018 -38.34425,-14.83215c-2.01936,-7.10576 4.35457,-32.37265 4.35457,-40.7234c0,-9.45244 3.34855,-28.59801 5.51953,-29.96813c5.94391,-16.76415 10.4653,25.13995 10.4653,46.16315z" fill="#10157d" stroke-width="0"/></g><g stroke-linecap="butt"><g stroke="#000000"><g><path d="M228.59111,112.18336c9.77613,-45.75811 54.79555,-74.92727 100.55366,-65.15114c45.75811,9.77613 74.92727,54.79555 65.15114,100.55366c-9.77613,45.75811 -54.79555,74.92727 -100.55366,65.15114c-45.75811,-9.77613 -74.92727,-54.79555 -65.15114,-100.55366z" fill="#faddbf" stroke-width="2"/><path d="M228.99846,111.38125c3.14534,-14.72203 17.0348,-38.29727 22.11587,-40.49841c0.58027,-0.25138 7.52037,-7.50467 16.2782,-12.50168c10.8854,-6.21095 24.01099,-10.36856 24.5671,-10.04824c7.25568,4.1792 -30.69006,59.7617 -34.76239,84.75233c-0.00972,0.0596 0.19387,20.18763 1.68493,20.955c1.83095,5.24068 4.90807,20.63422 14.05742,29.89025c17.05089,17.24967 43.74989,29.47135 42.19367,29.65601c-2.48938,0.29538 -15.05456,-0.38485 -20.98365,-1.6516c-45.75811,-9.77613 -74.92727,-54.79555 -65.15114,-100.55366z" fill="#ef8b89" stroke-width="0"/><path d="M393.87975,147.02843c-2.42871,11.36779 -4.8109,14.96585 -4.96388,13.03966c-0.15608,-1.96508 1.86783,-9.63604 -5.7823,-16.21523c-1.85378,-1.59427 -11.29226,4.00512 -13.70308,2.2342c-1.51426,-1.11235 -6.33519,-11.75869 -8.06539,-12.81963c-1.20972,-0.74179 -13.92568,5.59144 -15.20019,4.85832c-3.17865,-1.82842 -9.34761,-13.62733 -12.87855,-15.05456c-1.94438,-0.78595 -11.55373,9.64876 -13.56317,8.95987c-2.59142,-0.88842 -7.32492,-13.90574 -10.00189,-14.47768c-7.11919,-1.521 -8.77948,5.29329 -15.1566,10.0726c-4.14401,3.10571 -10.95273,-15.68646 -14.93425,-12.00182c-4.94459,4.57589 -9.80972,8.96602 -14.70923,11.60012c-3.84384,2.06656 -10.95965,-12.66624 -14.3191,-10.70713c-16.22038,9.45914 -26.04621,15.54489 -22.24951,-2.22589c7.63444,-35.73371 44.04835,1.01199 89.40556,-11.30497c43.41547,-11.78966 83.75604,8.30846 76.1216,44.04215z" fill="#ef8b89" stroke-width="0"/></g><path d="M397.11619,139.22143c-4.90645,22.96506 4.56663,9.88765 -11.03398,-3.23706c-1.90906,-1.60609 -11.55516,3.94895 -14.03625,2.16302c-1.55839,-1.12178 -6.55806,-11.8063 -8.33756,-12.87778c-1.24419,-0.74915 -14.2464,5.52292 -15.55694,4.7821c-3.26857,-1.84763 -9.65643,-13.69331 -13.284,-15.14119c-1.99759,-0.79731 -11.79284,9.59768 -13.85662,8.89717c-2.66149,-0.90338 -7.58428,-13.96115 -10.33177,-14.54815c-7.30672,-1.56107 -8.97216,5.25212 -15.4842,10.00261c-4.23168,3.08698 -11.31306,-15.76345 -15.37505,-12.09599c-5.04452,4.55454 -10.00858,8.92353 -15.01733,11.53429c-3.92955,2.04825 -11.30389,-12.73979 -14.73743,-10.79651c-16.57808,9.38272 -26.61867,15.42257 -22.82198,-2.3482c7.63444,-35.73371 55.96012,-71.13501 100.87336,-61.53938c44.91322,9.59562 76.63421,59.47137 68.99977,95.20508z" fill="#873412" stroke-width="2"/><path d="M397.11687,138.03255c-4.90645,22.96506 4.56663,9.88765 -11.03398,-3.23706c-1.90906,-1.60609 -11.55516,3.94895 -14.03625,2.16302c-1.55839,-1.12178 -6.55806,-11.8063 -8.33757,-12.87777c-1.24419,-0.74915 -14.2464,5.52292 -15.55694,4.7821c-3.26857,-1.84763 -9.65643,-13.69331 -13.284,-15.14119c-1.99759,-0.79731 -11.79284,9.59768 -13.85662,8.89717c-2.66149,-0.90338 -7.58428,-13.96115 -10.33177,-14.54815c-7.30672,-1.56107 -8.97216,5.25212 -15.4842,10.00261c-4.23168,3.08698 -11.31306,-15.76345 -15.37505,-12.09599c-5.04452,4.55454 -10.00858,8.92353 -15.01734,11.53429c-3.92955,2.04825 -11.30389,-12.73979 -14.73743,-10.79651c-16.57808,9.38272 -26.61867,15.42257 -22.82198,-2.3482c7.63444,-35.73371 45.1634,1.25022 91.59692,-10.83679c44.44569,-11.56956 85.91064,8.76877 78.27621,44.50248z" fill="#741d23" stroke-width="0"/></g><path d="M328.27229,54.66456c0.03945,0.12667 0.06405,0.26839 0.0765,0.42122c0.03798,0.27311 0.03105,0.55708 -0.02701,0.84228c-0.13109,1.13396 -0.56905,2.44849 -0.62783,2.93915c-0.07722,0.64462 1.32018,-0.48213 1.93024,-0.26005c0.3737,0.13604 0.614,0.91 0.95819,0.7108c2.08882,-1.20891 4.25426,-3.67096 6.60888,-1.50805c0.77981,0.71631 0.26633,1.99024 0.67546,2.77783c0.03439,0.0662 2.58017,0.41156 3.05129,1.05718c0.81179,1.11244 -0.15833,2.26888 0.14579,3.3489c0.09732,0.3456 0.65421,-0.31246 1.00572,-0.38558c1.5644,-0.3254 4.32825,-1.12713 5.8333,0.21876c0.79304,0.70917 0.27967,2.24758 0.68307,2.78564c0.70722,0.94328 2.17609,-0.93098 3.31742,-1.22646c1.57852,-0.40868 2.14337,0.42865 3.17512,1.55521c0.17795,0.19431 -0.40085,4.13964 0.43513,5.50211c0.46991,0.76584 1.79452,-0.49467 2.67627,-0.32187c0.87976,0.17241 2.80532,-0.15483 3.19623,0.03465c0.78413,0.38006 1.19411,1.93299 2.02099,1.65813c4.22181,-1.40338 8.72163,1.03944 6.0865,5.54851c-0.33347,0.57064 1.41264,-0.28506 1.98216,0.05034c0.22079,0.13002 1.33559,1.39156 1.57574,1.35493c1.57079,-0.23963 2.63912,-0.74465 4.19596,-0.41599c1.29294,0.27295 2.37806,1.26545 2.38962,2.67955c0.00608,0.74318 -1.41896,1.86788 -0.71674,2.11124c1.65524,0.57363 4.16933,1.85248 2.88393,4.17262c-1.39532,2.51855 -4.145,4.37413 -6.22412,1.79176c-0.72136,-0.89594 -2.51304,0.73378 -3.45013,0.06672c-1.20048,-0.85455 -1.37562,-3.23208 -1.05988,-4.36778c0.14596,-0.525 -1.12774,0.14149 -1.63362,-0.06104c-0.68111,-0.27269 -0.78831,-1.41123 -1.49227,-1.61787c-1.57462,-0.4622 -2.01122,2.91018 -5.64765,1.32895c-1.07333,-0.46672 -2.00479,-2.65854 -2.14655,-3.81155c-0.08229,-0.6693 1.96836,-2.28883 1.83586,-2.4251c-0.32175,-0.33089 -2.49359,2.35849 -2.94032,2.4084c-1.07472,0.12008 -2.02123,-0.82013 -2.90652,-1.44119c-0.78215,-0.54869 -1.52273,1.60725 -2.46671,1.45977c-0.83396,-0.1303 -9.04618,-2.42609 -9.26901,-2.98804c-0.27167,-0.68511 -0.44294,-1.85447 -0.14043,-2.51554c0.10872,-0.23758 1.33901,-1.5967 1.15724,-1.61494c-0.6451,-0.06472 -4.81438,2.48875 -6.25602,-1.14679c-0.78394,-1.97697 1.70263,-3.31592 2.04514,-4.90354c0.21152,-0.98044 -1.43448,1.40677 -2.0789,2.17535c-0.49497,0.59034 -1.67604,0.97667 -2.43864,0.83929c-2.63668,-0.47499 -1.3781,-2.82507 -1.61135,-4.42347c-0.10764,-0.73765 -1.66731,0.25239 -2.223,-0.24453c-1.35866,-1.21497 -0.88497,-2.30456 -0.69952,-3.83169c0.08491,-0.69924 -1.10388,2.54059 -2.74698,2.35986c-0.66636,-0.0733 -1.48753,-1.28653 -1.8713,-0.73686c-1.86838,2.67614 -1.43206,4.0088 -5.04382,2.74522c-0.34853,-0.12193 -1.12238,0.57383 -1.45975,0.27213c-3.73392,-3.33908 0.81579,-7.93612 1.77256,-11.83027c0.33749,-1.37363 -0.12614,-3.63415 1.22149,-4.06385c0.57923,-0.62973 1.46691,-0.94555 2.36421,-0.75384c0.79561,0.16998 1.42128,0.70105 1.742,1.38489c0.05678,0.09084 0.10301,0.18846 0.13605,0.29457z" fill="#ba587e" stroke="none" stroke-width="0.5"/></g><g stroke="#000000" stroke-linecap="butt"><path d="M334.79391,167.76916c-5.9669,27.92864 -21.92227,39.58278 -38.12514,36.12107c-16.20287,-3.46172 -26.51755,-20.7284 -20.55065,-48.65704c5.9669,-27.92864 23.93906,-47.763 40.14193,-44.30129c16.20287,3.46172 24.50077,28.90862 18.53387,56.83726z" fill="#f0f0f0" stroke-width="2"/><path d="M293.16149,138.85016c-10.10643,26.71091 20.50561,67.82274 4.30274,64.36103c-16.20287,-3.46172 -26.51755,-20.7284 -20.55065,-48.65704c5.9669,-27.92864 30.85882,-54.32008 16.24793,-15.70399z" fill="#9a99ff" stroke-width="0"/></g><path d="M329.26523,175.00703c-3.30578,15.47301 -10.57107,27.03671 -16.22747,25.82823c-5.6564,-1.20848 -7.56197,-14.7315 -4.25619,-30.20453c3.30578,-15.47301 10.57107,-27.03671 16.22747,-25.82823c5.6564,1.20848 7.56197,14.7315 4.25619,30.20453z" fill="#000000" stroke="none" stroke-width="0" stroke-linecap="butt"/><g stroke="#000000" stroke-linecap="butt"><path d="M336.1704,137.35075c2.22369,10.93576 2.25425,34.09666 -13.10928,30.81427c-15.36353,-3.2824 -40.49444,-32.57258 -34.041,-41.02604c6.14036,-8.04333 11.11501,-19.5276 26.47854,-16.24521c15.36353,3.2824 18.55253,16.03504 20.67174,26.45696z" fill="#a100fe" stroke-width="2"/><path d="M335.34053,136.81124c2.07499,10.904 2.45135,33.65334 -12.38833,30.48287c-14.83968,-3.17047 -39.45519,-31.86511 -33.1533,-40.35094c5.99615,-8.07413 6.21249,2.31103 21.05216,5.4815c14.83968,3.17047 22.51195,-6.00508 24.48944,4.38657z" fill="#99008e" stroke-width="0"/></g><g data-paper-data="{&quot;index&quot;:null}" stroke="#000000" stroke-linecap="butt"><path d="M378.797,123.2321c16.20287,3.46172 24.50077,28.90862 18.53387,56.83726c-5.9669,27.92863 -22.43697,39.47281 -38.63984,36.0111c-16.20287,-3.46172 -26.00285,-20.61843 -20.03595,-48.54707c5.9669,-27.92864 23.93906,-47.763 40.14193,-44.30129z" fill="#f0f0f0" stroke-width="2"/><path d="M396.88236,179.12452c-5.9669,27.92863 -22.43697,39.47281 -38.63984,36.0111c-16.20287,-3.46172 28.53663,-28.47483 30.22779,-56.98365c2.44492,-41.21533 14.37895,-6.9561 8.41205,20.97255z" fill="#9a99ff" stroke-width="0"/></g><path d="M385.39239,157.07674c5.6564,1.20848 7.56197,14.7315 4.25619,30.20453c-3.30578,15.47301 -10.57107,27.03671 -16.22747,25.82823c-5.6564,-1.20848 -7.56197,-14.7315 -4.25619,-30.20453c3.30578,-15.47301 10.57107,-27.03671 16.22747,-25.82823z" data-paper-data="{&quot;index&quot;:null}" fill="#000000" stroke="none" stroke-width="0" stroke-linecap="butt"/><g data-paper-data="{&quot;index&quot;:null}" stroke="#000000" stroke-linecap="butt"><path d="M349.82906,139.20816c6.19304,-8.64602 14.3149,-18.98213 29.67844,-15.69975c15.36353,3.2824 15.2109,15.79688 17.52831,25.6472c2.43557,10.35257 -31.26031,26.83182 -46.62384,23.54942c-15.36353,-3.2824 -7.0813,-24.42455 -0.58292,-33.49687z" fill="#a100fe" stroke-width="2"/><path d="M350.80695,139.05485c6.05133,-8.6763 9.30423,2.8334 24.14391,6.00386c14.83968,3.17047 19.28095,-6.2196 21.45416,3.5999c2.28402,10.3202 -30.88062,26.18479 -45.7203,23.01431c-14.83968,-3.17047 -6.22747,-23.51399 0.1222,-32.61807z" fill="#99008e" stroke-width="0"/></g><path d="M371.63632,338.87007c0,11.6628 -14.51982,21.11737 -32.43092,21.11737c-17.9111,0 -32.43092,-9.45457 -32.43092,-21.11737c0,-2.33142 -0.03339,-13.76009 1.08979,-15.13837c4.49546,-5.51647 17.81784,5.26144 32.14847,5.26144c17.9111,0 31.62358,-1.78588 31.62358,9.87692z" fill="#000082" stroke="#000000" stroke-width="2" stroke-linecap="butt"/><path d="M369.75004,336.13777c0,6.30841 -13.89058,10.1901 -31.80169,10.1901c-17.9111,0 -30.16566,-2.95748 -30.16566,-9.26589c0,-1.26107 -0.03338,-12.52602 1.0898,-13.27153c4.49546,-2.98386 15.55258,5.7726 29.88321,5.7726c17.9111,0 30.99434,0.26631 30.99434,6.57472z" fill="#2e0048" stroke="#000000" stroke-width="0" stroke-linecap="butt"/><path d="M328.64938,338.22526c0,11.6628 -14.51982,21.11737 -32.43092,21.11737c-17.9111,0 -32.43092,-9.45457 -32.43092,-21.11737c0,-2.33142 -0.03339,-13.76009 1.08979,-15.13837c4.49546,-5.51647 17.81784,5.26144 32.14847,5.26144c17.9111,0 31.62358,-1.78588 31.62358,9.87692z" fill="#000082" stroke="#000000" stroke-width="2" stroke-linecap="butt"/><path d="M326.7631,335.49289c0,6.30841 -13.89058,10.1901 -31.80169,10.1901c-17.9111,0 -30.16566,-2.95748 -30.16566,-9.26589c0,-1.26107 -0.03338,-12.52602 1.0898,-13.27153c4.49546,-2.98386 15.55258,5.7726 29.88321,5.7726c17.9111,0 30.99434,0.26631 30.99434,6.57472z" fill="#2e0048" stroke="#000000" stroke-width="0" stroke-linecap="butt"/><g><g><path d="M324.51308,229.01525c-8.84654,12.22135 -20.1593,14.91049 -32.65399,6.72564c-9.77223,-6.40145 -12.9316,-24.23519 -4.08504,-36.45656c8.84656,-12.22143 23.17025,-15.38312 35.26984,-6.62475c1.89215,1.36962 3.23192,3.19522 4.47113,4.85116c6.68499,8.93317 4.46122,21.19434 -3.0019,31.50452z" fill="#485e84" stroke="#000000" stroke-width="2" stroke-linecap="butt"/><path d="M284.38754,212.63033c0,0 4.39016,3.72259 6.30288,3.12684c18.34723,-5.71429 27.40128,-16.44939 30.12489,-20.2285c0.61883,-0.85861 0.17569,-1.89035 0.17569,-1.89035c0,0 1.83296,1.05277 3.65288,3.10263c1.93655,2.18121 3.88646,5.45258 4.56432,8.45018c0.77428,3.42413 0.45594,11.75521 0.45594,11.75521l-9.4867,18.67783c0,0 -13.04954,3.26568 -15.20444,3.03476c-2.1111,-0.22621 -4.54427,-1.09937 -7.16866,-1.9236c-4.07477,-1.27981 -7.66358,-4.05956 -9.35259,-6.3924c-2.15551,-2.97724 -3.52836,-7.43451 -4.00401,-11.22083c-0.4427,-3.52387 -0.06009,-6.4917 -0.06009,-6.4917z" fill="#343545" stroke="none" stroke-width="0" stroke-linecap="butt"/><path d="M305.47384,224.98083c0,0 -8.24575,-3.66138 -10.71048,-8.18964c-3.12015,-5.73229 -5.89702,-18.39685 -5.89702,-18.39685" fill="none" stroke="#000000" stroke-width="1" stroke-linecap="round"/><path d="M316.49865,189.93844c0,0 4.77819,5.31968 6.80401,9.11016c2.04521,3.82664 3.3087,13.44728 3.3087,13.44728" fill="none" stroke="#000000" stroke-width="1" stroke-linecap="round"/><path d="M301.80037,235.31823c0,0 -8.52031,-3.63191 -10.96667,-8.65827c-3.75384,-7.71277 -6.71068,-18.92675 -6.71068,-18.92675" fill="none" stroke="#000000" stroke-width="1" stroke-linecap="round"/><path d="M287.44251,230.07899c0,0 -0.50512,-17.298 13.40843,-27.78402c15.24053,-11.48613 29.01809,-1.10976 29.01809,-1.10976" fill="none" stroke="#000000" stroke-width="1" stroke-linecap="round"/><path d="M294.34335,236.64276c0,0 2.41448,-17.63611 14.67216,-26.9156c10.0647,-7.61929 22.48743,0.03537 22.48743,0.03537" fill="none" stroke="#000000" stroke-width="1" stroke-linecap="round"/><path d="M302.09168,193.61966c-1.1109,0.46167 -2.30768,0.12294 -2.67313,-0.75648c-0.3655,-0.87942 0.36059,-1.20617 1.47148,-1.66782c1.1109,-0.46167 2.18588,-0.88334 2.55132,-0.0039c0.3655,0.87942 -0.2388,1.96658 -1.34968,2.42821z" fill="#8fbbbe" stroke="none" stroke-width="0" stroke-linecap="butt"/><path d="M309.12286,191.76984c-0.3527,0.48721 -1.23106,0.45336 -1.96192,-0.07565c-0.73086,-0.52904 -0.95622,-0.84592 -0.60355,-1.33316c0.3527,-0.48721 1.3375,-0.60038 2.06832,-0.07135c0.73086,0.52904 0.84978,0.99299 0.49707,1.48021z" fill="#8fbbbe" stroke="none" stroke-width="0" stroke-linecap="butt"/><path d="M295.728,196.33396c-0.60391,0.67034 -1.45566,0.88736 -1.90257,0.48478c-0.44689,-0.40253 0.1215,-0.95305 0.72538,-1.62338c0.60391,-0.67034 1.01456,-1.20668 1.46145,-0.80409c0.44689,0.40253 0.31961,1.27238 -0.28428,1.94268z" fill="#8fbbbe" stroke="none" stroke-width="0" stroke-linecap="butt"/><path d="M284.06389,217.10168c0,0 2.98463,-9.7863 7.71809,-15.7036c2.68362,-3.35479 6.20699,-5.38514 8.89548,-6.89452c2.37753,-1.33483 8.91315,-2.05001 13.97255,-2.07686c3.72496,-0.01977 6.61957,0.517 6.61957,0.517" fill="none" stroke="#000000" stroke-width="0.5" stroke-linecap="round"/><path d="M302.16178,188.07544c0,0 8.31958,6.52402 11.05905,11.18368c2.30809,3.92585 4.51918,14.65784 4.51918,14.65784" fill="none" stroke="#000000" stroke-width="1" stroke-linecap="round"/><path d="M313.11729,217.51712c0,0 -7.53907,-6.04905 -10.23941,-9.67655c-4.74128,-6.36923 -6.58094,-16.61583 -6.58094,-16.61583" fill="none" stroke="#000000" stroke-width="1" stroke-linecap="round"/></g><g stroke="#000000" stroke-linecap="butt"><path d="M297.25681,241.17783c26.8132,-19.80836 36.0314,-16.9658 40.83925,-10.45774c4.80786,6.50806 -13.03102,27.84173 -39.84423,47.65009c-26.81321,19.80834 -20.6066,-52.14281 -25.41445,-58.65087c-0.40131,-7.08289 5.8609,-5.24375 10.80278,0.8664c6.09449,7.53524 11.32476,22.28529 13.61665,20.59214z" fill="#0d69be" stroke-width="2"/><path d="M310.21823,216.5739c11.50893,-8.50224 27.90852,-5.82476 36.62958,5.98034c8.72106,11.8051 6.46105,28.26746 -5.04785,36.7697c-11.50893,8.50224 -27.90853,5.82475 -36.62958,-5.98035c-8.72106,-11.8051 -6.46104,-28.26743 5.04789,-36.76968z" fill="#faddbf" stroke-width="2"/><path d="M324.4437,255.4697c11.50893,-8.50224 12.75864,-44.52881 21.47972,-32.72372c8.72106,11.8051 6.46104,28.26744 -5.04789,36.76968c-11.50893,8.50224 -27.94077,4.45629 -16.43185,-4.04596z" fill="#ef8b89" stroke-width="0"/></g></g><path d="M263.59875,166.38259c0.07484,-0.24906 0.41529,-1.12108 1.46623,-0.89655c1.22241,0.26116 0.96125,1.48358 0.96125,1.48358l-0.12113,0.38834c-1.0545,2.151 -2.33836,4.16205 -3.46576,6.27182c-1.19287,1.59904 -2.54099,3.70737 -4.39827,4.60894c-3.761,1.82566 -7.77798,-1.88628 -8.52817,-5.42164c-0.9601,-4.52464 0.79949,-9.89046 2.90892,-13.89861c0,0 0.58693,-1.10363 1.69057,-0.51668c1.10363,0.58693 0.51668,1.69057 0.51668,1.69057c-1.51321,2.81011 -3.19143,7.18992 -2.95958,10.44741c0.15042,2.11366 1.5392,5.97994 4.3908,5.77984c1.79869,-0.12622 3.32914,-2.78193 4.26869,-4.03011c1.05403,-1.99218 2.26868,-3.88474 3.26978,-5.90687z" fill="#000000" stroke="none" stroke-width="0.5" stroke-linecap="butt"/></g></g></svg>