<svg version="1.1" xmlns="http://www.w3.org/2000/svg" xmlns:xlink="http://www.w3.org/1999/xlink" width="35.01786" height="30.64286" viewBox="0,0,35.01786,30.64286"><g transform="translate(-282.30357,-164.67857)"><g data-paper-data="{&quot;isPaintingLayer&quot;:true}" fill-rule="nonzero" stroke-linecap="butt" stroke-linejoin="miter" stroke-miterlimit="10" stroke-dasharray="" stroke-dashoffset="0" style="mix-blend-mode: normal"><path d="M283.05357,180c0,-8.04758 7.50323,-14.57143 16.75893,-14.57143c9.2557,0 16.75893,6.52385 16.75893,14.57143c0,8.04758 -7.50323,14.57143 -16.75893,14.57143c-9.2557,0 -16.75893,-6.52385 -16.75893,-14.57143z" fill="#2740ff" stroke="#000000" stroke-width="1.5"/><path d="M303.56136,181.07322c-0.01066,0.41499 -0.04047,1.0477 -0.0463,1.52778c-0.01115,0.91985 -0.00149,1.83984 0,2.75975c0.00968,5.98066 -3.30637,-6.12559 -1.21118,-7.32284c0.13046,-0.22106 0.37109,-0.36935 0.64636,-0.36935c0.01016,0 0.02027,0.0002 0.03033,0.0006c0.00241,-0.00349 0.00484,-0.00696 0.00731,-0.01041c0.62767,-1.53895 2.6498,-3.12811 4.44702,-4.31194c-0.20584,-0.49812 -0.37661,-1.03684 -0.71456,-1.21471c-0.60539,-0.31863 -2.73829,1.60588 -3.17041,1.98187c-0.85503,0.74303 -1.46107,1.82159 -2.80293,1.43095c-0.7301,-0.21255 -1.26511,-2.18095 -2.10251,-1.99459c-1.06635,0.23732 -1.75476,1.59711 -2.49573,2.46774c1.21411,1.09407 2.20879,2.12019 2.56441,2.54002c0.08861,0.10461 0.15376,0.20427 0.19835,0.29805c0.0715,0.11487 0.11279,0.25049 0.11279,0.39575c0,0.08419 -0.01387,0.16514 -0.03946,0.24069c0.02734,0.36406 -0.09225,0.78327 -0.09943,1.3674c-0.01245,1.01214 -0.01242,2.0245 0,3.03664c0.00847,0.6901 0.11928,1.38366 0.13889,2.06823c0.15181,5.29977 -3.23564,-4.30525 -1.83419,-6.71546c-0.53441,-0.43593 -1.03808,-0.91858 -1.58804,-1.34195c-0.65949,-0.50769 -1.28266,-1.11907 -1.92187,-1.64957c-0.23479,-0.19486 -0.66486,-0.46478 -1.15308,-0.7686c-0.25255,0.1971 -0.47161,0.41741 -0.55493,0.4841c-0.5596,0.47611 -1.65962,2.10548 -2.47494,2.05502c-0.85492,-0.05292 -1.39212,-2.50491 -2.40761,-2.32932c-1.29947,0.22469 -0.7465,3.3069 -2.65019,2.82345c-0.52972,-0.13452 -1.06849,-1.45959 -1.26464,-1.8879c0,0 -0.2069,-0.45519 0.24829,-0.66208c0.45518,-0.2069 0.66208,0.24828 0.66208,0.24828c1.40206,3.11112 0.77576,-1.16765 2.82935,-1.5063c1.48824,-0.24543 2.13427,2.32424 2.70867,2.32183c0.1175,-0.0005 1.5466,-1.69205 1.71257,-1.83432c0.10245,-0.08132 0.2091,-0.17038 0.31974,-0.26124c-0.74777,-0.48281 -1.45148,-0.98779 -1.67853,-1.38514c-0.22106,-0.13046 -0.36935,-0.37109 -0.36935,-0.64636c0,-0.41421 0.33579,-0.75 0.75,-0.75c0.27276,0 0.51152,0.14561 0.64278,0.36334c1.19472,0.31287 2.87056,1.53179 4.36747,2.80999c0.8585,-1.1169 1.43207,-2.55723 3.13137,-2.77169c1.65235,-0.20854 1.55379,1.57486 2.66493,2.07518c0.48915,0.22026 1.47575,-1.05593 1.72954,-1.27675c0.83315,-0.72402 2.90625,-2.64338 4.15759,-2.17089c0.41485,0.15664 0.81617,0.77419 1.02641,1.15747c0.0569,0.10373 0.11512,0.29457 0.16513,0.4847c0.07025,-0.04358 0.13968,-0.08635 0.20817,-0.12825c0.12162,-0.29796 0.38299,-0.52601 0.839,-0.50027c0.03247,-0.0189 0.06449,-0.03748 0.09603,-0.05575c0.42086,-0.2437 1.05318,-0.29917 1.26643,0.34057c0.05628,0.16883 -0.06368,0.40281 -0.28841,0.66799c0.1217,0.45304 0.15224,0.94596 0.43631,1.18393c0.64703,0.54203 1.15951,-1.49931 2.00203,-1.55047c0.962,-0.05841 1.28152,1.40184 1.46412,2.05311c-0.04955,0.49536 0.83606,-0.53437 1.04478,-0.74406l0.11628,-0.11628c0,0 0.35355,-0.35356 0.70711,0h0.00003c0.35355,0.35356 0,0.70711 0,0.70711l-0.11628,0.11628c-0.94455,0.94066 -1.71617,1.70393 -2.67615,0.41873c-0.13998,-0.48836 -0.12306,-1.76134 -0.51262,-1.43526c-0.56104,0.46963 -1.48163,1.83121 -2.41658,1.47279c-0.46362,-0.17773 -0.5393,-0.90852 -0.716,-1.45835c-0.96609,0.82499 -2.32978,1.69149 -2.49644,1.84155c-0.72144,0.64959 -2.23843,2.89621 -3.39972,3.1728c-0.03145,0.0088 -0.06374,0.0156 -0.09671,0.02026c0.0853,0.68624 -0.12399,1.50041 -0.1429,2.23615z" fill="#000000" stroke="none" stroke-width="0.5"/><path d="M295.76401,186.88434c0,2.01993 -1.63748,3.65741 -3.65741,3.65741c-2.01993,0 -4.35185,-5.0634 -4.35185,-7.08333c0,-2.01993 1.77637,1.71296 3.7963,1.71296c2.01993,0 4.21296,-0.30697 4.21296,1.71296z" fill="#f9f9f9" stroke="#000000" stroke-width="0.5"/></g></g></svg>