<svg version="1.1" xmlns="http://www.w3.org/2000/svg" xmlns:xlink="http://www.w3.org/1999/xlink" width="256.75205" height="330.16003" viewBox="0,0,256.75205,330.16003"><g transform="translate(-129.6538,-0.41806)"><g data-paper-data="{&quot;isPaintingLayer&quot;:true}" fill-rule="nonzero" stroke-linejoin="miter" stroke-miterlimit="10" stroke-dasharray="" stroke-dashoffset="0" style="mix-blend-mode: normal"><g data-paper-data="{&quot;index&quot;:null}" stroke="#000000" stroke-linecap="butt"><path d="M298.86371,329.13374v-90.27109h61.17899v90.27109z" fill="#273750" stroke-width="2"/><path d="M299.65105,328.37717v-90.27109l18.42709,49.31565l42.75189,40.95544z" fill="#1f1e2e" stroke-width="0"/></g><g data-paper-data="{&quot;index&quot;:null}" stroke="#000000" stroke-linecap="butt"><path d="M246.25776,329.57809v-90.27109h61.17899v90.27109z" fill="#273750" stroke-width="2"/><path d="M247.04514,328.82151v-90.27109l18.42709,49.31565l42.75189,40.95544z" fill="#1f1e2e" stroke-width="0"/></g><g data-paper-data="{&quot;index&quot;:null}" stroke="#000000" stroke-linecap="butt"><path d="M130.72175,128.74561l53.00849,-3.02283l3.54482,50.89645l-53.00849,3.02283z" fill="#ffcaa0" stroke-width="2"/><g><path d="M183.49681,125.23748l73.09291,-4.16815l3.59101,51.55983l-73.09291,4.16815z" fill="#ff0008" stroke-width="2"/><path d="M186.80177,176.06857c0,0 -1.17856,-16.92154 -1.76312,-25.31499c-0.5784,-8.30462 -1.726,-24.78205 -1.726,-24.78205l38.28392,-2.18315c0,0 -14.64899,18.90548 -14.08374,27.02126c0.59617,8.5596 17.57289,23.07577 17.57289,23.07577l-38.28391,2.18315z" fill="#8d005e" stroke-width="0"/></g><path d="M131.26716,127.92225l19.71593,36.86523l36.83738,11.00839l-53.00849,3.02283z" fill="#ff6e5b" stroke-width="0"/></g><g data-paper-data="{&quot;index&quot;:null}" stroke="#000000" stroke-linecap="butt"><path d="M208.3774,12.94228c16.20113,0 29.33475,26.10753 29.33475,58.3128c0,32.20527 -13.13361,58.3128 -29.33475,58.3128c-16.20113,0 -29.33475,-26.10753 -29.33475,-58.3128c0,-32.20527 13.13361,-58.3128 29.33475,-58.3128z" fill="#01930e" stroke-width="2"/><path d="M237.26802,70.82092c0,32.20527 -13.13362,58.3128 -29.33475,58.3128c-16.20112,0 19.6335,-35.72183 19.6335,-67.9271c0,-32.20527 9.70125,-22.59097 9.70125,9.6143z" fill="#31525b" stroke-width="0"/></g><path d="M229.30482,238.45138v-113.80147h125.767v113.80147z" data-paper-data="{&quot;index&quot;:null}" fill="#ff0008" stroke="#000000" stroke-width="2" stroke-linecap="butt"/><g data-paper-data="{&quot;index&quot;:null}" fill="#000000" stroke="#000000" stroke-linecap="butt"><path d="M257.7395,237.98216v-111.68333h67.61159v111.68333z" stroke-width="2"/><path d="M256.86935,237.04613l47.247,-50.67005l20.36459,-61.01328v111.68333z" stroke-width="0"/></g><g data-paper-data="{&quot;index&quot;:null}" stroke="#000000" stroke-linecap="butt"><path d="M375.12648,69.68581c0,11.10283 -1.57366,36.61614 -8.15085,45.77754c-14.8427,20.67445 -46.35308,19.6932 -80.14324,19.6932c-31.95834,0 -67.9498,3.15028 -83.44818,-15.70582c-8.14977,-9.91539 -4.84591,-37.30378 -4.84591,-49.76492c0,-3.48625 -1.17075,-26.29915 -0.46294,-29.63798c6.63331,-31.29064 44.69514,-35.83276 88.75705,-35.83276c46.90718,0 84.34812,2.48597 87.20099,36.73529c0.1129,1.35538 1.09313,27.359 1.09313,28.73546z" fill="#ffcaa0" stroke-width="2"/><path d="M377.15258,69.69599c0,11.10283 -1.57366,36.61614 -8.15085,45.77754c-14.8427,20.67445 -46.35308,19.6932 -80.14324,19.6932c-31.95833,0 -68.67115,3.04149 -84.16954,-15.81461c-3.27659,-3.98647 69.58765,21.27155 110.97414,4.08965c52.81122,-21.92495 58.77555,-101.94005 60.3964,-82.48122c0.1129,1.35538 1.09313,27.359 1.09313,28.73546z" fill="#ff6e5b" stroke-width="0"/></g><g data-paper-data="{&quot;index&quot;:null}" stroke="#000000" stroke-linecap="butt"><path d="M354.34031,10.86837c16.20113,0 29.33475,26.10753 29.33475,58.3128c0,32.20527 -13.13361,58.3128 -29.33475,58.3128c-16.20113,0 -29.33475,-26.10753 -29.33475,-58.3128c0,-32.20527 13.13361,-58.3128 29.33475,-58.3128z" fill="#01930e" stroke-width="2"/><path d="M383.23095,68.747c0,32.20527 -13.13362,58.3128 -29.33475,58.3128c-16.20112,0 19.6335,-35.72183 19.6335,-67.9271c0,-32.20527 9.70125,-22.59097 9.70125,9.6143z" fill="#31525b" stroke-width="0"/></g><g data-paper-data="{&quot;index&quot;:null}" stroke-linecap="butt"><path d="M180.41069,32.39605c0,-17.66096 45.70911,-31.97799 102.09414,-31.97799c56.38505,0 102.09413,14.31702 102.09413,31.97798c0,17.66095 -45.7091,31.97799 -102.09413,31.97799c-56.38505,0 -102.09414,-14.31703 -102.09414,-31.97799z" fill="#000000" stroke="none" stroke-width="NaN"/><path d="M281.72856,41.58933c56.38505,0 103.67729,-26.50996 103.67729,-8.849c0,17.66095 -45.7091,31.97799 -102.09413,31.97799c-56.38505,0 -102.09414,-14.31703 -102.09414,-31.97799c0,-17.66096 44.12596,8.849 100.51099,8.849z" fill="#ff0000" stroke="#000000" stroke-width="2"/><path d="M282.13965,57.6233c56.38505,0 95.34858,-21.10222 98.00532,-16.87826c2.5723,4.08974 -14.72496,12.67227 -42.90068,18.15612c-15.17673,2.95385 -33.79011,4.58573 -53.52148,5.08703c-56.38505,1.43253 -96.55314,-17.19078 -96.55314,-22.05092c0,-4.86014 38.58493,15.68603 94.96998,15.68603z" fill="#900056" stroke="#000000" stroke-width="0"/></g><path d="M285.8886,92.15725c0,-15.71752 3.21053,-28.45909 7.17091,-28.45909c3.96039,0 7.17091,12.74156 7.17091,28.45908c0,15.71751 -3.21053,28.45908 -7.17091,28.45908c-3.9604,0 -7.17091,-12.74157 -7.17091,-28.45909z" data-paper-data="{&quot;index&quot;:null}" fill="#000000" stroke="none" stroke-width="0" stroke-linecap="butt"/><path d="M257.84923,66.02882c3.75194,0 6.79351,12.6906 6.79351,28.34525c0,15.65465 -3.04154,28.34525 -6.79351,28.34525c-3.75194,0 -6.79351,-12.6906 -6.79351,-28.34525c0,-15.65465 3.04154,-28.34525 6.79351,-28.34525z" data-paper-data="{&quot;index&quot;:null}" fill="#000000" stroke="none" stroke-width="0" stroke-linecap="butt"/><path d="M305.37259,65.41555h-33.15432" data-paper-data="{&quot;index&quot;:null}" fill="none" stroke="#000000" stroke-width="5" stroke-linecap="round"/><path d="M263.06945,68.95035l-25.78669,-4.52381" data-paper-data="{&quot;index&quot;:null}" fill="none" stroke="#000000" stroke-width="5" stroke-linecap="round"/><path d="M323.77938,114.41365c3.53569,5.29115 3.91671,10.9402 0.85103,12.6175c-3.06566,1.6773 -8.41714,-1.2523 -11.95282,-6.54345c-3.53569,-5.29115 -3.91671,-10.9402 -0.85103,-12.6175c3.06566,-1.6773 8.41714,1.2523 11.95282,6.54345z" fill="#000000" stroke="none" stroke-width="0" stroke-linecap="butt"/><g data-paper-data="{&quot;index&quot;:null}" stroke="#000000" stroke-linecap="butt"><path d="M242.32572,136.61561l52.74873,-5.62423l6.59542,50.64702l-52.74873,5.62423z" fill="#ffcaa0" stroke-width="2"/><g><path d="M294.81222,130.51827l72.7347,-7.7552l6.68139,51.30715l-72.7347,7.7552z" fill="#ff0008" stroke-width="2"/><path d="M301.16422,181.11182c0,0 -2.19278,-16.83861 -3.28045,-25.19093c-1.07615,-8.26393 -3.21137,-24.6606 -3.21137,-24.6606l38.09631,-4.06195c0,0 -13.49226,19.5977 -12.44057,27.6737c1.1092,8.51765 18.9324,22.17782 18.9324,22.17782l-38.09629,4.06195z" fill="#8d005e" stroke-width="0"/></g><path d="M242.82088,135.76666l21.90022,35.84156l37.44392,9.18123l-52.74873,5.62423z" fill="#ff6e5b" stroke-width="0"/></g></g></g></svg>