<svg version="1.1" xmlns="http://www.w3.org/2000/svg" xmlns:xlink="http://www.w3.org/1999/xlink" width="181.16945" height="327.23863" viewBox="0,0,181.16945,327.23863"><g transform="translate(-216.96405,-33.74873)"><g data-paper-data="{&quot;isPaintingLayer&quot;:true}" fill-rule="nonzero" stroke-linejoin="miter" stroke-miterlimit="10" stroke-dasharray="" stroke-dashoffset="0" style="mix-blend-mode: normal"><g stroke="#000000" stroke-linecap="butt"><g><path d="M306.101,343.11764v-83.93877h34.40199v83.93877z" fill="#73fffc" stroke-width="2"/><path d="M305.72102,342.57334l1.54706,-82.60943c0,0 6.06909,59.99543 7.44206,68.28947c0.30352,1.83355 2.9422,2.45741 2.9422,2.45741l21.70433,11.57321z" fill="#59a9e6" stroke-width="0"/></g><g><path d="M260.20983,340.98381l8.25206,-83.56368l26.14993,-0.37509v83.93877z" fill="#73fffc" stroke-width="2"/><path d="M259.82985,340.43951l10.17422,-77.35812c0,0 -2.55807,54.74412 -1.1851,63.03816c0.30352,1.83355 2.9422,2.45741 2.9422,2.45741l21.70433,11.57321z" fill="#59a9e6" stroke-width="0"/></g><path d="M380.60578,341.38652c0,10.27297 -16.93716,18.60084 -37.83021,18.60084c-20.89305,0 -37.83021,-8.32788 -37.83021,-18.60084c0,-2.05359 -0.03895,-12.12032 1.27123,-13.33435c5.2439,-4.85908 20.78426,4.63444 37.50074,4.63444c20.89305,0 36.88846,-1.57306 36.88846,8.6999z" fill="#000082" stroke-width="2"/><path d="M378.40546,338.97983c0,5.55665 -16.20316,8.97577 -37.09622,8.97577c-20.89305,0 -35.18782,-2.60504 -35.18782,-8.16169c0,-1.11079 -0.03893,-11.03332 1.27124,-11.68998c5.2439,-2.62828 18.14186,5.08469 34.85835,5.08469c20.89305,0 36.15446,0.23457 36.15446,5.79122z" fill="#2e0048" stroke-width="0"/><path d="M330.46212,340.81855c0,10.27297 -16.93716,18.60084 -37.83021,18.60084c-20.89305,0 -37.83021,-8.32788 -37.83021,-18.60084c0,-2.05359 -0.03895,-12.12032 1.27123,-13.33435c5.2439,-4.85908 20.78426,4.63444 37.50074,4.63444c20.89305,0 36.88846,-1.57306 36.88846,8.6999z" fill="#000082" stroke-width="2"/><path d="M328.2618,338.41186c0,5.55665 -16.20316,8.97577 -37.09622,8.97577c-20.89305,0 -35.18782,-2.60504 -35.18782,-8.16169c0,-1.11079 -0.03893,-11.03332 1.27124,-11.68998c5.2439,-2.62828 18.14186,5.08469 34.85835,5.08469c20.89305,0 36.15446,0.23457 36.15446,5.79122z" fill="#2e0048" stroke-width="0"/></g><g stroke="#000000" stroke-linecap="butt"><path d="M341.70349,216.63968c26.76056,19.87941 44.54278,41.26033 39.71768,47.75562c-4.82511,6.49529 -30.43036,-4.35471 -57.19092,-24.23412c-26.76056,-19.87941 -44.54278,-41.26033 -39.71768,-47.75562c4.82511,-6.49529 30.43036,4.35471 57.19092,24.23413z" fill="#0d69be" stroke-width="2"/><path d="M386.83212,233.60553c11.48631,8.53274 13.70263,25.00104 4.95029,36.78296c-8.75234,11.78192 -25.15902,14.4159 -36.64532,5.88314c-11.48631,-8.53275 -13.70263,-25.00104 -4.95029,-36.78296c8.75233,-11.78192 25.15902,-14.41589 36.64532,-5.88314z" fill="#faddbf" stroke-width="2"/><path d="M353.76777,258.54539c11.48631,8.53275 46.31426,-0.76727 37.56191,11.01466c-8.75234,11.78192 -25.15901,14.41589 -36.64532,5.88314c-11.48631,-8.53275 -12.40291,-25.43053 -0.9166,-16.89778z" fill="#ef8b89" stroke-width="0"/></g><g stroke="#000000" stroke-linecap="butt"><path d="M335.22917,235.69585c0,13.80271 10.04743,36.74388 4.95001,46.45977c-6.2338,11.88187 -28.61241,9.09579 -38.9397,9.09579c-13.66287,0 -32.94407,4.17018 -38.34426,-14.83216c-2.01935,-7.10576 4.35457,-32.37264 4.35457,-40.7234c0,-30.68249 15.2177,-55.55556 33.98969,-55.55556c18.77199,0 33.98969,24.87307 33.98969,55.55556z" fill="#0d69be" stroke-width="2"/><path d="M283.96554,251.27246c0,13.80271 62.04198,20.54886 56.94455,30.26474c-6.2338,11.88186 -28.61241,9.09579 -38.9397,9.09579c-13.66287,0 -32.94406,4.17018 -38.34425,-14.83215c-2.01936,-7.10576 4.35457,-32.37265 4.35457,-40.7234c0,-9.45244 3.34855,-28.59801 5.51953,-29.96813c5.94391,-16.76415 10.4653,25.13995 10.4653,46.16315z" fill="#10157d" stroke-width="0"/></g><g stroke-linecap="butt"><g stroke="#000000"><g><path d="M220.14714,108.34229c7.68744,-46.15497 51.33533,-77.33907 97.4903,-69.65163c46.15497,7.68744 77.33907,51.33533 69.65163,97.4903c-7.68744,46.15497 -51.33533,77.33907 -97.4903,69.65163c-46.15497,-7.68744 -77.33907,-51.33533 -69.65163,-97.4903z" fill="#faddbf" stroke-width="2"/><path d="M220.51763,107.52251c2.47333,-14.84971 15.27752,-39.03155 20.25336,-41.46124c0.56825,-0.27748 7.1717,-7.83854 15.6935,-13.22823c10.59202,-6.69902 23.5152,-11.44858 24.08529,-11.15385c7.43804,3.84529 -27.94364,61.09413 -30.87655,86.24396c-0.007,0.05998 1.11071,20.15798 2.63509,20.85683c2.06713,5.1521 5.84034,20.38997 15.4007,29.22082c17.81687,16.45731 45.04349,27.45355 43.49726,27.70871c-2.4734,0.40816 -15.0565,0.29941 -21.03702,-0.69669c-46.15497,-7.68744 -77.33907,-51.33533 -69.65163,-97.4903z" fill="#ef8b89" stroke-width="0"/><path d="M386.84803,135.64299c-1.90981,11.46638 -4.1261,15.16894 -4.36642,13.25168c-0.24518,-1.95596 1.42817,-9.71094 -6.51292,-15.93583c-1.92428,-1.50842 -11.09867,4.51395 -13.58744,2.85436c-1.56323,-1.04241 -6.8628,-11.45876 -8.63941,-12.44001c-1.24217,-0.68607 -13.65731,6.21825 -14.9638,5.54379c-3.25843,-1.68214 -9.957,-13.18864 -13.54913,-14.45401c-1.97808,-0.6968 -11.1035,10.16364 -13.14216,9.56674c-2.62911,-0.76978 -7.94903,-13.55865 -10.64923,-14.00839c-7.18093,-1.19603 -8.52997,5.68664 -14.6834,10.7507c-3.99865,3.29075 -11.65399,-15.17273 -15.46403,-11.31103c-4.73162,4.79578 -9.3923,9.40238 -14.1671,12.25632c-3.746,2.23903 -11.52371,-12.15532 -14.7907,-10.04562c-15.77395,10.1862 -25.31318,16.71201 -22.32766,-1.21289c6.00332,-36.04362 44.04885,-0.98999 88.79973,-15.35463c42.8351,-13.74969 84.047,4.49517 78.04368,40.5388z" fill="#ef8b89" stroke-width="0"/></g><path d="M389.72649,127.69704c-3.85817,23.16424 5.01107,9.67 -11.16964,-2.73249c-1.98005,-1.5177 -11.36386,4.46978 -13.9235,2.79839c-1.60775,-1.04983 -7.0876,-11.49621 -8.91394,-12.48574c-1.27694,-0.69187 -13.98081,6.16437 -15.32365,5.48386c-3.34912,-1.69724 -10.26849,-13.24052 -13.95809,-14.52212c-2.03175,-0.70574 -11.34469,10.12347 -13.43815,9.51744c-2.69977,-0.78155 -8.21065,-13.60222 -10.98196,-14.06381c-7.37008,-1.22754 -8.72431,5.65427 -15.01384,10.69567c-4.08709,3.27602 -12.01745,-15.23327 -15.90866,-11.38508c-4.83241,4.77899 -9.59289,9.36897 -14.47787,12.20456c-3.83245,2.22463 -11.87094,-12.21315 -15.21266,-10.1159c-16.13475,10.12611 -25.89062,16.61584 -22.9051,-1.30906c6.00332,-36.04362 52.67098,-73.60362 97.97374,-66.05812c45.30275,7.54549 79.25665,55.9288 73.25333,91.97242z" fill="#873412" stroke-width="2"/><path d="M389.67316,126.50935c-3.85817,23.16424 5.01107,9.67 -11.16964,-2.73249c-1.98005,-1.5177 -11.36386,4.46978 -13.9235,2.79839c-1.60775,-1.04983 -7.0876,-11.49621 -8.91395,-12.48574c-1.27694,-0.69187 -13.98081,6.16437 -15.32365,5.48386c-3.34912,-1.69724 -10.26849,-13.24052 -13.95809,-14.52212c-2.03175,-0.70574 -11.34469,10.12347 -13.43815,9.51744c-2.69977,-0.78155 -8.21065,-13.60222 -10.98196,-14.06381c-7.37008,-1.22754 -8.72431,5.65427 -15.01384,10.69567c-4.08709,3.27602 -12.01745,-15.23327 -15.90866,-11.38508c-4.83241,4.77899 -9.59289,9.36897 -14.47788,12.20456c-3.83245,2.22463 -11.87094,-12.21315 -15.21266,-10.1159c-16.13475,10.12611 -25.89062,16.61584 -22.9051,-1.30906c6.00332,-36.04362 45.17358,-0.80266 91.01009,-14.98648c43.87425,-13.57661 86.22029,4.85715 80.21697,40.90077z" fill="#741d23" stroke-width="0"/></g><path d="M317.11257,46.35476c0.04516,0.12474 0.07617,0.26521 0.09556,0.41731c0.05034,0.27111 0.05632,0.5551 0.01128,0.84264c-0.07945,1.13874 -0.45724,2.47182 -0.49367,2.96463c-0.04785,0.64746 1.29692,-0.5416 1.91643,-0.34746c0.37949,0.11892 0.65471,0.88117 0.9895,0.66654c2.03175,-1.30255 4.08311,-3.86043 6.53355,-1.8067c0.81154,0.68015 0.35646,1.97609 0.80096,2.74428c0.03737,0.06458 2.5962,0.29393 3.09617,0.91748c0.86149,1.07442 -0.0551,2.27372 0.29777,3.33882c0.11291,0.34082 0.63934,-0.34186 0.98716,-0.43087c1.548,-0.39613 4.27258,-1.32258 5.83721,-0.04645c0.82443,0.67242 0.38148,2.23256 0.8089,2.75174c0.74934,0.91018 2.13155,-1.02887 3.25828,-1.37589c1.55833,-0.47996 2.16063,0.33084 3.24249,1.40937c0.18659,0.18602 -0.21239,4.15358 0.68462,5.47666c0.50422,0.74371 1.77019,-0.57567 2.65888,-0.44311c0.88669,0.13226 2.79539,-0.2821 3.19451,-0.11058c0.80058,0.34405 1.28068,1.87676 2.09423,1.56461c4.1537,-1.59372 8.75984,0.64217 6.33227,5.26629c-0.30721,0.5852 1.39824,-0.34894 1.9824,-0.03975c0.22647,0.11986 1.39742,1.32945 1.63566,1.28195c1.55829,-0.31074 2.60257,-0.86377 4.17273,-0.60617c1.304,0.21394 2.43309,1.15612 2.50888,2.56823c0.03983,0.74213 -1.33264,1.93042 -0.62009,2.14161c1.67959,0.49784 4.24918,1.66118 3.0705,4.03731c-1.27947,2.57933 -3.94202,4.55791 -6.13631,2.07265c-0.76131,-0.86226 -2.47712,0.84718 -3.44353,0.22337c-1.23805,-0.79913 -1.52102,-3.16626 -1.2572,-4.31513c0.12196,-0.53109 -1.12014,0.19257 -1.63471,0.01323c-0.69279,-0.24146 -0.8516,-1.37396 -1.56422,-1.54841c-1.59399,-0.3902 -1.87695,2.99854 -5.58146,1.58413c-1.09343,-0.41748 -2.12349,-2.56473 -2.31747,-3.7101c-0.11261,-0.66487 1.86236,-2.37588 1.7238,-2.50599c-0.33644,-0.31594 -2.38388,2.46933 -2.82788,2.53948c-1.06815,0.16877 -2.0564,-0.72747 -2.96898,-1.30766c-0.80627,-0.5126 -1.44815,1.67477 -2.39786,1.57032c-0.83902,-0.09228 -9.14705,-2.01265 -9.39517,-2.5639c-0.30252,-0.67205 -0.52672,-1.83244 -0.25456,-2.50656c0.09781,-0.24227 1.26509,-1.65588 1.08268,-1.66584c-0.64738,-0.03535 -4.69636,2.70487 -6.30165,-0.86142c-0.87294,-1.93932 1.55025,-3.38985 1.82028,-4.99139c0.16676,-0.98903 -1.36909,1.47048 -1.97794,2.26754c-0.46764,0.61221 -1.62994,1.0518 -2.398,0.9492c-2.65554,-0.35473 -1.505,-2.75955 -1.81063,-4.34571c-0.14104,-0.732 -1.65412,0.32786 -2.23181,-0.1433c-1.41245,-1.152 -0.98875,-2.26198 -0.87286,-3.79596c0.05306,-0.70238 -0.98733,2.58812 -2.63695,2.4822c-0.669,-0.04296 -1.54444,-1.21764 -1.90284,-0.65109c-1.74488,2.75825 -1.24847,4.06971 -4.9139,2.97151c-0.35371,-0.10597 -1.09516,0.62421 -1.44588,0.33816c-3.88175,-3.16601 0.45444,-7.96499 1.23332,-11.89858c0.27475,-1.38755 -0.29109,-3.62467 1.03563,-4.11514c0.55003,-0.65539 1.42244,-1.0112 2.32753,-0.86045c0.80251,0.13366 1.45165,0.63577 1.80312,1.30433c0.06085,0.08817 0.11146,0.18359 0.14929,0.28808z" fill="#ba587e" stroke="none" stroke-width="0.5"/></g><g stroke="#000000" stroke-linecap="butt"><path d="M328.76535,159.04635c-4.69206,28.17087 -20.10155,40.53776 -36.44495,37.81565c-16.3434,-2.72211 -27.43179,-19.50242 -22.73974,-47.67328c4.69206,-28.17087 21.74467,-48.80115 38.08806,-46.07904c16.3434,2.72211 25.78868,27.76581 21.09662,55.93667z" fill="#f0f0f0" stroke-width="2"/><path d="M285.86223,132.04839c-8.88263,27.14244 23.56535,66.82125 7.22195,64.09914c-16.3434,-2.72211 -27.43179,-19.50242 -22.73974,-47.67328c4.69206,-28.17087 28.35943,-55.6658 15.51778,-16.42586z" fill="#9a99ff" stroke-width="0"/></g><path d="M323.57117,166.52789c-2.59949,15.60721 -9.33199,27.489 -15.03745,26.53871c-5.70546,-0.95029 -8.22335,-14.37279 -5.62386,-29.98c2.59949,-15.60721 9.33199,-27.489 15.03745,-26.53871c5.70546,0.95029 8.22335,14.37279 5.62386,29.98z" fill="#000000" stroke="none" stroke-width="0" stroke-linecap="butt"/><g stroke="#000000" stroke-linecap="butt"><path d="M328.75863,128.59682c2.71817,10.82346 -12.08345,12.30357 -27.58023,9.72247c-15.49678,-2.5811 -26.04804,-9.04397 -19.98526,-17.78184c5.76864,-8.31395 10.21647,-20.01236 25.71325,-17.43126c15.49678,2.5811 19.26178,15.17572 21.85223,25.49062z" fill="#a100fe" stroke-width="2"/><path d="M327.90512,128.09554c2.56817,10.79848 -11.75054,12.35902 -26.71892,9.86593c-14.96838,-2.49309 -25.13386,-8.8917 -19.22395,-17.65504c5.62319,-8.33818 6.31106,2.02643 21.27944,4.51952c14.96838,2.49309 22.21592,-7.02151 24.66343,3.26958z" fill="#99008e" stroke-width="0"/></g><g data-paper-data="{&quot;index&quot;:null}" stroke="#000000" stroke-linecap="butt"><path d="M370.69988,112.55638c16.3434,2.72211 25.78868,27.76581 21.09662,55.93667c-4.69206,28.17086 -20.62072,40.45129 -36.96412,37.72918c-16.3434,-2.72211 -26.91262,-19.41594 -22.22057,-47.58681c4.69206,-28.17087 21.74467,-48.80115 38.08806,-46.07904z" fill="#f0f0f0" stroke-width="2"/><path d="M391.30553,167.56956c-4.69206,28.17086 -20.62072,40.45129 -36.96412,37.72918c-16.3434,-2.72211 27.21368,-29.74174 27.60806,-58.29795c0.57016,-41.28384 14.04812,-7.60209 9.35606,20.56877z" fill="#9a99ff" stroke-width="0"/></g><path d="M378.82589,146.06648c5.70546,0.95029 8.22335,14.37279 5.62386,29.98c-2.59949,15.60721 -9.33199,27.489 -15.03745,26.53871c-5.70546,-0.95029 -8.22335,-14.37279 -5.62386,-29.98c2.59949,-15.60721 9.33199,-27.489 15.03745,-26.53871z" data-paper-data="{&quot;index&quot;:null}" fill="#000000" stroke="none" stroke-width="0" stroke-linecap="butt"/><g data-paper-data="{&quot;index&quot;:null}" stroke="#000000" stroke-linecap="butt"><path d="M342.48757,129.83184c5.79389,-8.91843 13.43784,-19.61281 28.93462,-17.03171c15.49678,2.5811 15.91278,15.08961 18.67526,24.82448c2.90333,10.23125 -9.17308,12.92532 -24.66986,10.34422c-15.49678,-2.5811 -29.01959,-8.77884 -22.94004,-18.13698z" fill="#a100fe" stroke-width="2"/><path d="M343.45748,129.63427c5.65095,-8.94224 9.42334,2.40782 24.39172,4.9009c14.96838,2.49309 18.97852,-7.08904 21.59555,2.62161c2.75047,10.20579 -8.94017,12.96411 -23.90855,10.47102c-14.96838,-2.49309 -28.0083,-8.6104 -22.07873,-17.99353z" fill="#99008e" stroke-width="0"/></g><path d="M260.1195,149.53741c0.98641,0.16429 0.82212,1.15071 0.82212,1.15071l-0.05223,0.28859c-1.13984,4.35992 -1.99752,9.05765 -5.39357,12.30302c-2.04196,2.5661 -5.76258,3.58682 -6.52527,-0.70294c-0.85958,-4.83472 2.48683,-11.61361 4.46549,-15.78063c0,0 0.42896,-0.90332 1.33229,-0.47436c0.90332,0.42896 0.47436,1.33229 0.47436,1.33229c-1.79599,3.78181 -3.16135,7.49307 -3.84816,11.6166c-0.4636,2.78342 -0.22839,6.24556 2.62481,2.65998c3.14459,-2.99948 3.88076,-7.42669 4.93507,-11.45979l0.01438,-0.11133c0,0 0.16429,-0.98641 1.15071,-0.82212z" fill="#000000" stroke="none" stroke-width="0.5" stroke-linecap="butt"/><g><g><path d="M292.02212,256.4662c-15.04465,-1.13211 -23.26218,-9.35902 -22.83686,-24.28981c0.3326,-11.67752 13.86751,-23.7121 28.91216,-22.57998c15.04471,1.13208 25.24225,11.67602 24.12146,26.57075c-0.17526,2.32926 -1.02831,4.42688 -1.78953,6.34999c-4.10654,10.37435 -15.71524,14.90412 -28.4072,13.94906z" fill="#485e84" stroke="#000000" stroke-width="2" stroke-linecap="butt"/><path d="M284.95546,213.70422c0,0 -0.87063,5.68972 0.6389,7.00679c14.47979,12.63367 28.36721,14.7212 33.01309,15.06112c1.05554,0.07724 1.70218,-0.84074 1.70218,-0.84074c0,0 0.06363,2.11283 -0.72887,4.73694c-0.84328,2.79227 -2.60809,6.16709 -4.8062,8.31497c-2.51089,2.45347 -9.77378,6.54719 -9.77378,6.54719l-20.87943,1.70533c0,0 -9.61857,-9.40416 -10.55088,-11.36061c-0.91338,-1.91667 -1.44444,-4.44662 -2.11737,-7.11385c-1.04478,-4.14127 -0.55736,-8.6545 0.54476,-11.31534c1.40659,-3.39584 4.48388,-6.90044 7.4597,-9.28934c2.76957,-2.22332 5.49791,-3.45233 5.49791,-3.45233z" fill="#343545" stroke="none" stroke-width="0" stroke-linecap="butt"/><path d="M285.48336,238.13552c0,0 -1.20152,-8.94173 1.36415,-13.41358c3.24784,-5.66092 12.58022,-14.66143 12.58022,-14.66143" fill="none" stroke="#000000" stroke-width="1" stroke-linecap="round"/><path d="M321.10741,229.1665c0,0 -2.0277,6.85698 -4.19493,10.56845c-2.18785,3.74692 -9.7204,9.86359 -9.7204,9.86359" fill="none" stroke="#000000" stroke-width="1" stroke-linecap="round"/><path d="M274.7537,240.4226c0,0 -1.37044,-9.16014 1.62912,-13.87729c4.60275,-7.2383 12.60523,-15.63209 12.60523,-15.63209" fill="none" stroke="#000000" stroke-width="1" stroke-linecap="round"/><path d="M271.69388,225.44811c0,0 14.46917,-9.49308 30.69046,-3.13591c17.76838,6.96346 16.14854,24.13515 16.14854,24.13515" fill="none" stroke="#000000" stroke-width="1" stroke-linecap="round"/><path d="M269.71861,234.76494c0,0 16.28683,-7.18342 30.61287,-1.60451c11.76298,4.58081 11.75158,19.17254 11.75158,19.17254" fill="none" stroke="#000000" stroke-width="1" stroke-linecap="round"/><path d="M310.42372,218.82385c-0.97524,-0.70436 -1.31376,-1.90119 -0.75617,-2.6732c0.55756,-0.77208 1.2163,-0.32481 2.19153,0.37953c0.97524,0.70436 1.89761,1.39904 1.34003,2.17108c-0.55756,0.77208 -1.8002,0.82695 -2.77538,0.12259z" fill="#8fbbbe" stroke="none" stroke-width="0" stroke-linecap="butt"/><path d="M315.68311,223.84358c-0.59979,-0.04514 -1.03112,-0.81105 -0.96343,-1.71072c0.06769,-0.89969 0.21955,-1.25767 0.81934,-1.21255c0.59979,0.04514 1.21215,0.82466 1.14442,1.72434c-0.06769,0.89969 -0.40057,1.24406 -1.00034,1.19891z" fill="#8fbbbe" stroke="none" stroke-width="0" stroke-linecap="butt"/><path d="M304.77767,214.82556c-0.88738,-0.1632 -1.51849,-0.77499 -1.40971,-1.36654c0.10873,-0.59153 0.87543,-0.39584 1.76278,-0.23268c0.88738,0.1632 1.55935,0.23197 1.45059,0.82353c-0.10873,0.59153 -0.91632,0.93886 -1.80366,0.77567z" fill="#8fbbbe" stroke="none" stroke-width="0" stroke-linecap="butt"/><path d="M280.97735,215.77122c0,0 9.89934,-2.58507 17.41945,-1.6535c4.26352,0.52816 7.83887,2.46549 10.53307,3.96463c2.38262,1.32574 6.41595,6.51787 9.08954,10.81322c1.96843,3.16244 3.0278,5.90919 3.0278,5.90919" fill="none" stroke="#000000" stroke-width="0.5" stroke-linecap="round"/><path d="M315.18279,215.9788c0,0 -1.19809,10.50441 -3.73175,15.2791c-2.13466,4.0228 -10.11732,11.52889 -10.11732,11.52889" fill="none" stroke="#000000" stroke-width="1" stroke-linecap="round"/><path d="M295.84527,240.73553c0,0 1.20246,-9.59075 2.87748,-13.79134c2.94103,-7.37546 10.70486,-14.31086 10.70486,-14.31086" fill="none" stroke="#000000" stroke-width="1" stroke-linecap="round"/></g><g stroke="#000000" stroke-linecap="butt"><path d="M267.38224,239.62255c30.92014,12.46046 33.3286,21.80148 30.30422,29.30637c-3.02439,7.50489 -30.54187,3.48761 -61.46202,-8.97287c-30.92014,-12.46047 33.6171,-44.87085 36.64149,-52.37575c5.8227,-4.05271 7.53712,2.24479 4.92188,9.65535c-3.22521,9.13896 -13.04849,21.32183 -10.40556,22.38692z" fill="#0d69be" stroke-width="2"/><path d="M295.12979,237.77204c13.27171,5.34834 19.58328,20.71976 14.09729,34.33303c-5.48599,13.61326 -20.69211,20.3133 -33.96383,14.96495c-13.27171,-5.34835 -19.58328,-20.71977 -14.09729,-34.33304c5.48599,-13.61326 20.69211,-20.31328 33.96382,-14.96494z" fill="#faddbf" stroke-width="2"/><path d="M269.45278,270.26725c13.27171,5.34835 44.61265,-12.46237 39.12666,1.1509c-5.48599,13.61326 -20.69212,20.31329 -33.96382,14.96494c-13.27171,-5.34835 -18.43456,-21.46419 -5.16283,-16.11584z" fill="#ef8b89" stroke-width="0"/></g></g></g></g></svg>