<svg version="1.1" xmlns="http://www.w3.org/2000/svg" xmlns:xlink="http://www.w3.org/1999/xlink" width="303.232" height="334.7502" viewBox="0,0,303.232,334.7502"><g transform="translate(-144.71784,4.17209)"><g data-paper-data="{&quot;isPaintingLayer&quot;:true}" fill-rule="nonzero" stroke-linecap="butt" stroke-linejoin="miter" stroke-miterlimit="10" stroke-dasharray="" stroke-dashoffset="0" style="mix-blend-mode: normal"><g data-paper-data="{&quot;index&quot;:null}" stroke="#000000"><path d="M446.56518,71.92793l-28.27209,41.88132l-44.08105,-30.18116l28.27209,-41.88131z" fill="#ffcaa0" stroke-width="2"/><g><path d="M418.54353,113.75104l-38.98418,57.74975l-44.65561,-30.57454l38.98418,-57.74975z" fill="#0000c0" stroke-width="2"/><path d="M418.02578,113.12582l-20.41875,30.24762c0,0 -4.87616,-21.71011 -12.28955,-26.78592c-7.02901,-4.8126 -31.09915,-2.92122 -31.09915,-2.92122l20.41875,-30.24763c0,0 14.27099,9.77096 21.46356,14.69556c7.26951,4.97725 21.92515,15.01158 21.92515,15.01158z" fill="#56006b" stroke-width="0"/></g><path d="M445.56152,71.93434l-28.27209,41.88132l7.85346,-36.12901l-23.66242,-35.93343z" fill="#ff6e5b" stroke-width="0"/></g><g data-paper-data="{&quot;index&quot;:null}" stroke="#000000"><path d="M297.67428,329.13835v-89.33255h68.08986v89.33255z" fill="#273750" stroke-width="2"/><path d="M298.55057,328.38966v-89.33255l20.50864,48.80292l47.58121,40.52963z" fill="#1f1e2e" stroke-width="0"/></g><path d="M239.81729,239.39882v-112.6183h126.65667v112.6183z" data-paper-data="{&quot;index&quot;:null}" fill="#0000c0" stroke="#000000" stroke-width="2"/><g data-paper-data="{&quot;index&quot;:null}" stroke="#000000"><path d="M239.12588,329.57811v-89.33255h68.08986v89.33255z" fill="#273750" stroke-width="2"/><path d="M240.0022,328.82937v-89.33255l20.50864,48.80292l47.58121,40.52963z" fill="#1f1e2e" stroke-width="0"/></g><g data-paper-data="{&quot;index&quot;:null}" stroke="#000000"><path d="M146.19518,196.69043l36.68121,-32.94625l40.00903,37.65722l-36.68121,32.94625z" fill="#ffcaa0" stroke-width="2"/><g><path d="M182.60773,163.7444l50.57934,-45.42926l40.53049,38.14806l-50.57934,45.42926z" fill="#0000c0" stroke-width="2"/><path d="M183.02891,164.43914l26.49198,-23.7945c0,0 1.11946,21.29505 7.84804,27.62811c6.3797,6.0047 31.53255,9.43762 31.53255,9.43762l-26.49198,23.79451c0,0 -12.95269,-12.19129 -19.48084,-18.33572c-6.59796,-6.21011 -19.89977,-18.73003 -19.89977,-18.73003z" fill="#56006b" stroke-width="0"/></g><path d="M147.23093,196.90114l36.68121,-32.94625l-14.59762,31.99095l17.92542,38.61249z" fill="#ff6e5b" stroke-width="0"/></g><g data-paper-data="{&quot;index&quot;:null}" stroke="#000000"><path d="M269.74825,238.93446v-110.52215h68.08986v110.52215z" fill="#ffffff" stroke-width="2"/><path d="M270.62458,238.00816v-110.52215l20.50864,60.37892l47.58121,50.14323z" fill="#8ebbfc" stroke-width="0"/></g><g><g data-paper-data="{&quot;index&quot;:null}" stroke="#000000"><path d="M403.73232,51.24731c5.47115,31.56226 -3.02268,59.60934 -18.97155,62.64488c-15.94886,3.03554 -33.31317,-20.08993 -38.78434,-51.65218c-5.47115,-31.56226 3.02268,-59.60934 18.97155,-62.64488c15.94886,-3.03554 33.31317,20.08993 38.78433,51.65218z" fill="#01930e" stroke-width="2"/><path d="M354.25674,50.49129c5.47115,31.56226 46.81632,59.85666 30.86747,62.89221c-15.94884,3.03554 -33.31317,-20.08993 -38.78433,-51.65218c-5.47115,-31.56226 2.44571,-42.8023 7.91687,-11.24002z" fill="#31525b" stroke-width="0"/></g><g data-paper-data="{&quot;index&quot;:null}" stroke="#000000"><path d="M210.43536,86.44893c-0.23384,-1.34898 -3.68648,-27.01708 -3.80559,-28.36654c-3.00998,-34.10003 33.42562,-43.55152 79.60236,-52.34037c43.37577,-8.25573 81.61654,-10.9358 93.46232,18.48721c1.26397,3.13954 3.98703,25.71634 4.57929,29.13297c2.11694,12.21234 10.02219,38.43487 3.68379,49.67928c-12.05371,21.38351 -48.01986,25.03972 -79.48058,31.02765c-33.26399,6.33114 -64.11698,13.19681 -82.24081,-4.28386c-8.03112,-7.74613 -13.91462,-32.4552 -15.80081,-43.33636z" fill="#ffcaa0" stroke-width="2"/><path d="M208.44255,86.83857c-0.23384,-1.34898 -3.68648,-27.01708 -3.80559,-28.36654c-1.71012,-19.37401 17.75459,57.92602 73.46814,69.51814c43.66093,9.08439 111.0996,-29.32165 108.55125,-24.80085c-12.05371,21.38351 -48.71152,25.28151 -80.17217,31.26943c-33.26399,6.33114 -64.11697,13.19681 -82.2408,-4.28386c-8.03112,-7.74613 -13.91462,-32.4552 -15.80081,-43.33636z" fill="#ff6e5b" stroke-width="0"/></g><g data-paper-data="{&quot;index&quot;:null}" stroke="#000000"><path d="M259.69006,76.56338c5.47115,31.56226 -3.02268,59.60934 -18.97155,62.64488c-15.94886,3.03554 -33.31318,-20.08993 -38.78434,-51.65218c-5.47114,-31.56226 3.02269,-59.60934 18.97156,-62.64488c15.94886,-3.03554 33.31317,20.08993 38.78434,51.65218z" fill="#01930e" stroke-width="2"/><path d="M210.21447,75.80733c5.47114,31.56227 46.81632,59.85666 30.86747,62.89221c-15.94884,3.03555 -33.31317,-20.08993 -38.78434,-51.65218c-5.47114,-31.56226 2.44571,-42.8023 7.91687,-11.24002z" fill="#31525b" stroke-width="0"/></g><g data-paper-data="{&quot;index&quot;:null}"><path d="M395.78407,13.42043c3.00031,17.30834 -39.56477,39.90389 -95.07177,50.46855c-55.50701,10.56466 -102.93654,5.09784 -105.93685,-12.21049c-3.00031,-17.30834 39.56476,-39.90387 95.07177,-50.46853c55.50701,-10.56466 102.93654,-5.09786 105.93685,12.21048z" fill="#000000" stroke="none" stroke-width="NaN"/><path d="M395.04824,13.90904c3.00031,17.30834 -39.56478,39.90389 -95.07177,50.46855c-55.50701,10.56466 -102.93654,5.09785 -105.93684,-12.21048c-3.00031,-17.30834 48.05908,-0.18868 103.56612,-10.75334c55.50701,-10.56466 94.4422,-44.81305 97.44251,-27.50473z" fill="#ff0000" stroke="#000000" stroke-width="2"/><path d="M390.75125,24.03759c0.82565,4.7631 -35.55313,30.54073 -91.30349,39.70148c-19.50926,3.20572 -38.11004,5.09396 -53.55223,5.04267c-28.66859,-0.09515 -47.15452,-5.26541 -45.31705,-9.75546c1.89777,-4.63741 43.83951,8.74302 99.3465,-1.82166c55.50701,-10.56466 90.00063,-37.93015 90.8263,-33.16703z" fill="#900056" stroke="#000000" stroke-width="0"/></g><path d="M329.69153,88.83644c2.67015,15.40369 1.67422,28.49242 -2.22451,29.23447c-3.89871,0.74203 -9.22383,-11.14357 -11.89399,-26.54728c-2.67015,-15.40369 -1.67419,-28.4924 2.22452,-29.23446c3.89871,-0.74204 9.22383,11.14357 11.89399,26.54729z" data-paper-data="{&quot;index&quot;:null}" fill="#000000" stroke="none" stroke-width="0"/><path d="M356.97127,79.2692c2.65946,15.34209 1.82122,28.3492 -1.87231,29.05219c-3.69353,0.70301 -8.84363,-11.16434 -11.5031,-26.50644c-2.65946,-15.34209 -1.82122,-28.34921 1.87231,-29.05219c3.69353,-0.70301 8.84363,11.16434 11.5031,26.50645z" data-paper-data="{&quot;index&quot;:null}" fill="#000000" stroke="none" stroke-width="0"/></g><path d="M298.85168,105.08006c-0.14461,0.14243 -0.27162,0.21864 -0.27162,0.21864c-6.32542,3.70036 1.96034,7.77562 3.20325,11.88492c1.45712,4.81755 -2.54681,7.92452 -7.40184,7.39596c-2.65585,-0.28914 -3.18193,-0.8289 -5.30454,-2.00786c-5.82662,-4.33918 -9.15939,-10.53242 -9.15562,-17.69246c0.00163,-3.083 0.58203,-6.538 3.57698,-8.41429c2.03324,-1.2738 4.28344,-0.95383 6.54367,-0.94697c2.21979,0.00673 3.92405,0.45317 5.99087,1.20281c3.29975,1.89961 6.4487,4.45611 3.62159,8.12193z" fill="#000000" stroke="none" stroke-width="0.5"/></g></g></svg>