<svg version="1.1" xmlns="http://www.w3.org/2000/svg" xmlns:xlink="http://www.w3.org/1999/xlink" width="241.57293" height="263.77024" viewBox="0,0,241.57293,263.77024"><g transform="translate(-209.69816,-97.04563)"><g data-paper-data="{&quot;isPaintingLayer&quot;:true}" fill-rule="nonzero" stroke-linejoin="miter" stroke-miterlimit="10" stroke-dasharray="" stroke-dashoffset="0" style="mix-blend-mode: normal"><g stroke="#000000" stroke-linecap="butt"><path d="M376.16971,227.43222c32.45797,-7.60259 60.26626,-7.3792 62.11154,0.49895c1.84529,7.87815 -22.9712,20.42777 -55.42917,28.03036c-32.45796,7.60258 -60.26625,7.3792 -62.11154,-0.49895c-1.84529,-7.87815 22.9712,-20.42777 55.42917,-28.03035z" fill="#0d69be" stroke-width="2"/><path d="M418.26094,203.92129c13.93178,-3.26322 27.93916,5.67601 31.28637,19.96633c3.3472,14.29032 -5.23329,28.52028 -19.16508,31.7835c-13.93178,3.26322 -27.93916,-5.67601 -31.28637,-19.96633c-3.34721,-14.29032 5.23329,-28.52028 19.16508,-31.7835z" fill="#faddbf" stroke-width="2"/><path d="M415.96098,245.27293c13.93178,-3.26322 29.31416,-35.86473 32.66137,-21.57441c3.3472,14.29032 -5.23329,28.52028 -19.16508,31.78351c-13.93178,3.26322 -27.42807,-6.94587 -13.49629,-10.20909z" fill="#ef8b89" stroke-width="0"/></g><g stroke="#000000" stroke-linecap="butt"><path d="M347.17244,354.06232l-57.93711,-75.65985l23.4153,-17.93045l57.93712,75.65985z" fill="#73fffc" stroke-width="2"/><path d="M346.53812,353.76975l-55.96657,-75.26795c0,0 45.54153,50.91482 52.20084,57.67522c1.47217,1.49451 3.69876,0.68154 3.69876,0.68154l22.76097,-0.88063z" fill="#59a9e6" stroke-width="0"/></g><g stroke="#000000" stroke-linecap="butt"><path d="M251.67518,326.58483l36.09093,-88.19618l27.29506,11.16947l-36.09093,88.19619z" fill="#73fffc" stroke-width="2"/><path d="M251.60773,325.88955l36.74682,-86.29712c0,0 -20.98077,65.00891 -23.4576,74.1694c-0.54755,2.0251 1.27778,3.53731 1.27778,3.53731l12.24444,19.20705z" fill="#59a9e6" stroke-width="0"/></g><g stroke="#000000" stroke-linecap="butt"><path d="M335.22917,235.69586c0,13.80271 10.04743,36.74388 4.95001,46.45977c-6.2338,11.88187 -28.61241,9.09579 -38.9397,9.09579c-13.66287,0 -32.94407,4.17018 -38.34426,-14.83216c-2.01935,-7.10576 4.35457,-32.37264 4.35457,-40.7234c0,-30.68249 15.2177,-55.55556 33.98969,-55.55556c18.77199,0 33.98969,24.87307 33.98969,55.55556z" fill="#0d69be" stroke-width="2"/><path d="M283.96554,251.27246c0,13.80271 62.04198,20.54886 56.94455,30.26474c-6.2338,11.88186 -28.61241,9.09579 -38.9397,9.09579c-13.66287,0 -32.94406,4.17018 -38.34425,-14.83215c-2.01936,-7.10576 4.35457,-32.37265 4.35457,-40.7234c0,-9.45244 3.34855,-28.59801 5.51953,-29.96813c5.94391,-16.76415 10.4653,25.13995 10.4653,46.16315z" fill="#10157d" stroke-width="0"/></g><path d="M216.4264,334.22647c1.51965,-11.56337 14.88253,-8.00599 32.64094,-5.67219c14.20846,1.86726 28.82161,-7.08287 32.55995,-1.02767c0.93402,1.51288 -0.58823,12.83977 -0.89202,15.15131c-1.51965,11.56337 -17.1476,19.04542 -34.90601,16.71162c-17.75841,-2.3338 -30.92252,-13.59968 -29.40287,-25.16305z" data-paper-data="{&quot;index&quot;:null}" fill="#000082" stroke="#000000" stroke-width="2" stroke-linecap="butt"/><path d="M250.2394,329.2831c14.20846,1.86726 26.31227,-5.37381 30.38061,-1.82963c1.01647,0.88551 -0.48444,12.05007 -0.64875,13.30039c-0.82198,6.25463 -13.35742,7.59014 -31.11583,5.25634c-17.75841,-2.3338 -31.02479,-7.99232 -30.20281,-14.24696c0.82198,-6.25463 13.82838,-4.81394 31.58678,-2.48014z" data-paper-data="{&quot;index&quot;:null}" fill="#2e0048" stroke="#000000" stroke-width="0" stroke-linecap="butt"/><g><g><path d="M245.94733,258.43727c-7.13889,-13.29131 -4.6244,-24.64418 8.19072,-32.31764c10.02282,-6.00152 27.44876,-1.06588 34.58766,12.22546c7.13896,13.29137 3.7364,27.55974 -9.42244,34.62754c-2.05779,1.10528 -4.28494,1.51458 -6.31558,1.90744c-10.95445,2.11915 -21.01783,-5.22995 -27.04036,-16.44277z" fill="#0000c4" stroke="#000000" stroke-width="2" stroke-linecap="butt"/><path d="M278.19324,229.47649c0,0 -5.26467,2.32685 -5.56287,4.30787c-2.86053,19.00241 2.85044,31.83218 5.06313,35.9314c0.50272,0.93135 1.62442,0.98262 1.62442,0.98262c0,0 -1.74685,1.19023 -4.38522,1.93381c-2.80747,0.79124 -6.60174,1.11901 -9.59483,0.42151c-3.41895,-0.79678 -10.77693,-4.71705 -10.77693,-4.71705l-12.6696,-16.68352c0,0 2.75321,-13.16719 3.90091,-15.00558c1.12435,-1.80103 2.97136,-3.60969 4.85778,-5.61178c2.92896,-3.10851 6.99572,-5.12551 9.83164,-5.62786c3.61928,-0.64106 8.22901,0.06773 11.84364,1.29118c3.36409,1.13866 5.86783,2.77744 5.86783,2.77744z" fill="#2e006f" stroke="none" stroke-width="0" stroke-linecap="butt"/><path d="M257.88219,243.06427c0,0 6.89132,-5.82305 12.0412,-6.06587c6.51919,-0.30742 19.12676,2.71775 19.12676,2.71775" fill="none" stroke="#000000" stroke-width="1" stroke-linecap="round"/><path d="M284.60677,268.26968c0,0 -6.87108,1.97939 -11.16562,2.14904c-4.33553,0.17133 -13.54386,-2.888 -13.54386,-2.888" fill="none" stroke="#000000" stroke-width="1" stroke-linecap="round"/><path d="M250.18222,235.24974c0,0 6.98457,-6.08293 12.57463,-6.09196c8.57776,-0.01382 19.95847,2.21668 19.95847,2.21668" fill="none" stroke="#000000" stroke-width="1" stroke-linecap="round"/><path d="M261.15936,224.61486c0,0 15.78612,7.09041 19.15338,24.18443c3.68841,18.72432 -11.65833,26.59632 -11.65833,26.59632" fill="none" stroke="#000000" stroke-width="1" stroke-linecap="round"/><path d="M252.24289,227.96174c0,0 14.81694,9.86513 17.82072,24.94283c2.46636,12.38016 -9.84029,20.22017 -9.84029,20.22017" fill="none" stroke="#000000" stroke-width="1" stroke-linecap="round"/><path d="M287.57812,253.69977c0.06912,-1.20101 0.89592,-2.1302 1.84668,-2.07547c0.95079,0.05467 0.92812,0.85058 0.85899,2.05158c-0.06912,1.20101 -0.15854,2.35225 -1.10931,2.29754c-0.95079,-0.05467 -1.66552,-1.07267 -1.59635,-2.27363z" fill="#8fbbbe" stroke="none" stroke-width="0" stroke-linecap="butt"/><path d="M286.17588,260.83369c-0.28459,-0.52989 0.129,-1.30552 0.92382,-1.73243c0.79483,-0.42692 1.17829,-0.49149 1.46291,0.03839c0.28459,0.52989 -0.04309,1.46544 -0.83794,1.89233c-0.79483,0.42692 -1.26421,0.33156 -1.54879,-0.19832z" fill="#8fbbbe" stroke="none" stroke-width="0" stroke-linecap="butt"/><path d="M287.9113,246.78941c-0.33979,-0.83584 -0.16357,-1.69696 0.39362,-1.92348c0.55714,-0.22656 0.80462,0.52502 1.14443,1.36082c0.33979,0.83584 0.64331,1.43928 0.08613,1.66583c-0.55714,0.22656 -1.28436,-0.26738 -1.62414,-1.10317z" fill="#8fbbbe" stroke="none" stroke-width="0" stroke-linecap="butt"/><path d="M274.3108,227.23496c0,0 7.50449,6.9543 10.76463,13.79472c1.84832,3.87818 2.13855,7.9343 2.32414,11.01191c0.16415,2.72168 -2.04296,8.91478 -4.2256,13.47924c-1.60694,3.36057 -3.35252,5.73121 -3.35252,5.73121" fill="none" stroke="#000000" stroke-width="0.5" stroke-linecap="round"/><path d="M292.53656,256.18107c0,0 -9.49949,4.64087 -14.88744,5.07359c-4.53947,0.3646 -15.16118,-2.32674 -15.16118,-2.32674" fill="none" stroke="#000000" stroke-width="1" stroke-linecap="round"/><path d="M261.2646,253.19781c0,0 8.73164,-4.14567 13.17373,-4.99337c7.79947,-1.48839 17.82239,1.32546 17.82239,1.32546" fill="none" stroke="#000000" stroke-width="1" stroke-linecap="round"/></g><g stroke="#000000" stroke-linecap="butt"><path d="M246.89118,228.60537c6.12954,32.76808 -0.4491,39.82334 -8.40252,41.31109c-7.95343,1.48775 -19.36992,-23.86998 -25.49945,-56.63807c-6.12954,-32.76809 55.90941,4.20028 63.86282,2.71253c6.54865,2.72825 2.16229,7.5612 -5.49153,9.34311c-9.43894,2.19751 -24.99325,0.47046 -24.46933,3.27134z" fill="#0d69be" stroke-width="2"/><path d="M263.37788,251.00044c2.63095,14.0649 -6.93151,27.65445 -21.35837,30.3531c-14.42686,2.69867 -28.25494,-6.5155 -30.88591,-20.58039c-2.63095,-14.0649 6.93153,-27.65444 21.35838,-30.3531c14.42686,-2.69867 28.25495,6.51549 30.8859,20.58039z" fill="#faddbf" stroke-width="2"/><path d="M222.17222,246.83606c2.63095,14.06489 34.50479,30.90338 20.07793,33.60203c-14.42686,2.69867 -28.25494,-6.51549 -30.88589,-20.58038c-2.63095,-14.0649 8.17701,-27.08655 10.80796,-13.02165z" fill="#ef8b89" stroke-width="0"/></g></g><g stroke="#000000" stroke-linecap="butt"><path d="M402.49782,334.31892c1.35955,11.58329 -11.95915,22.666 -29.74814,24.75392c-17.78899,2.08792 -33.31195,-5.60959 -34.6715,-17.19288c-0.27178,-2.31552 -1.6372,-13.66238 -0.68234,-15.1622c3.82175,-6.0029 18.3097,3.14852 32.54263,1.47797c17.78899,-2.08792 31.1998,-5.46011 32.55935,6.12317z" fill="#000082" stroke-width="2"/><path d="M400.30589,331.82515c0.73538,6.2654 -12.608,11.73987 -30.397,13.8278c-17.78899,2.08792 -30.30476,0.57914 -31.04014,-5.68626c-0.147,-1.25247 -1.49333,-12.43673 -0.46472,-13.30809c4.11698,-3.48756 16.11947,3.92026 30.3524,2.24971c17.78899,-2.08792 30.81407,-3.34856 31.54946,2.91684z" fill="#2e0048" stroke-width="0"/></g><g stroke-linecap="butt"><g stroke="#000000"><g><path d="M252.47409,166.08498c10.70989,-45.54861 56.31642,-73.79098 101.86503,-63.08109c45.54861,10.70989 73.79098,56.31642 63.08109,101.86503c-10.70989,45.54861 -56.31642,73.79098 -101.86503,63.0811c-45.54861,-10.70989 -73.79099,-56.31642 -63.0811,-101.86503z" fill="#faddbf" stroke-width="2"/><path d="M252.89775,165.29138c3.44575,-14.65463 17.81445,-37.94087 22.93947,-40.03764c0.58529,-0.23946 7.67227,-7.3493 16.53047,-12.16616c11.01013,-5.98704 24.21802,-9.87534 24.76747,-9.54372c7.1687,4.32671 -31.90582,59.12156 -36.48838,84.02368c-0.01093,0.05938 -0.21902,20.18738 1.25603,20.98509c1.72339,5.27703 4.48505,20.73029 13.44319,30.17148c16.69455,17.59477 43.13802,30.35992 41.57835,30.51271c-2.49491,0.24441 -15.04353,-0.69266 -20.94549,-2.08039c-45.54861,-10.70989 -73.79098,-56.31642 -63.08109,-101.86503z" fill="#ef8b89" stroke-width="0"/><path d="M417.01555,204.30308c-2.66068,11.31574 -5.11596,14.86434 -5.22952,12.93542c-0.11586,-1.96786 2.0645,-9.59582 -5.44948,-16.33009c-1.82079,-1.63185 -11.37181,3.77334 -13.7459,1.95349c-1.4912,-1.14309 -6.09339,-11.88578 -7.80153,-12.98189c-1.1943,-0.76638 -14.03712,5.30548 -15.29636,4.54645c-3.1406,-1.89304 -9.06697,-13.81565 -12.56798,-15.3148c-1.92791,-0.82555 -11.74864,9.41045 -13.74357,8.68061c-2.57272,-0.94122 -7.039,-14.05263 -9.70372,-14.67919c-7.08659,-1.66628 -8.8859,5.11264 -15.35942,9.76053c-4.20666,3.02032 -10.62964,-15.90718 -14.68569,-12.30472c-5.03714,4.47381 -9.99102,8.76352 -14.94338,11.29686c-3.88531,1.98751 -10.69831,-12.88772 -14.09713,-10.99773c-16.41044,9.12544 -26.35867,15.00896 -22.19934,-2.68045c8.36364,-35.5701 44.01844,1.91261 89.61806,-9.47418c43.6475,-10.89932 83.56861,10.0196 75.20498,45.58971z" fill="#ef8b89" stroke-width="0"/></g><path d="M420.41096,196.56391c-5.37507,22.85992 4.36347,9.97898 -10.96547,-3.46204c-1.87581,-1.64479 -11.63351,3.7118 -14.07754,1.87551c-1.53513,-1.15341 -6.31525,-11.93795 -8.07246,-13.04559c-1.22861,-0.77445 -14.35636,5.23041 -15.65148,4.46295c-3.2301,-1.91408 -9.37436,-13.88793 -12.97156,-15.4097c-1.98087,-0.838 -11.98667,9.3545 -14.03568,8.61194c-2.64245,-0.95762 -7.29717,-14.11334 -10.03208,-14.7564c-7.27326,-1.71017 -9.07769,5.06753 -15.68553,9.68385c-4.29393,2.9998 -10.98831,-15.99152 -15.12446,-12.4079c-5.1366,4.45042 -10.18899,8.71698 -15.25007,11.22476c-3.97062,1.96745 -11.04099,-12.9683 -14.51355,-11.09564c-16.7665,9.04172 -26.92852,14.87497 -22.76919,-2.81444c8.36364,-35.5701 57.4032,-69.97569 102.11081,-59.46355c44.70759,10.51214 75.40194,61.02618 67.03831,96.59628z" fill="#873412" stroke-width="2"/><path d="M420.43596,195.37529c-5.37507,22.85992 4.36346,9.97898 -10.96548,-3.46204c-1.87581,-1.64479 -11.63351,3.71181 -14.07754,1.87551c-1.53513,-1.15341 -6.31525,-11.93795 -8.07247,-13.04559c-1.22861,-0.77445 -14.35636,5.23042 -15.65148,4.46295c-3.2301,-1.91408 -9.37437,-13.88793 -12.97156,-15.4097c-1.98087,-0.838 -11.98667,9.35449 -14.03568,8.61193c-2.64245,-0.95762 -7.29717,-14.11334 -10.03208,-14.7564c-7.27326,-1.71017 -9.07769,5.06753 -15.68552,9.68384c-4.29393,2.9998 -10.98831,-15.99151 -15.12447,-12.40789c-5.1366,4.45042 -10.18898,8.71698 -15.25008,11.22475c-3.97062,1.96745 -11.041,-12.9683 -14.51355,-11.09564c-16.7665,9.04172 -26.92852,14.87498 -22.76918,-2.81444c8.36363,-35.5701 45.1284,2.1736 91.79939,-8.96127c44.673,-10.65819 85.71334,10.52389 77.34971,46.094z" fill="#741d23" stroke-width="0"/></g><path d="M353.31073,110.6168c0.03685,0.12744 0.05855,0.26966 0.06787,0.4227c0.03238,0.27383 0.01964,0.5576 -0.04423,0.84155c-0.15426,1.13104 -0.619,2.43635 -0.6878,2.92569c-0.09039,0.6429 1.32976,-0.45503 1.93514,-0.22052c0.37083,0.14365 0.59527,0.92236 0.94346,0.73024c2.11311,-1.16594 4.32844,-3.58319 6.63833,-1.37256c0.76499,0.73211 0.22557,1.99528 0.61852,2.79107c0.03303,0.0669 2.57121,0.46424 3.02904,1.11935c0.78887,1.12881 -0.2047,2.26516 0.07727,3.35119c0.09022,0.34752 0.66046,-0.29902 1.01339,-0.36494c1.57072,-0.29333 4.35039,-1.03839 5.82761,0.338c0.77837,0.72524 0.23363,2.25284 0.62595,2.79903c0.68778,0.95754 2.19468,-0.88629 3.34181,-1.15836c1.58655,-0.37631 2.13416,0.4724 3.14265,1.61982c0.17394,0.19791 -0.48543,4.13057 0.32252,5.50985c0.45415,0.77529 1.80426,-0.45786 2.68229,-0.26707c0.87606,0.19037 2.8079,-0.09742 3.19486,0.10001c0.77619,0.39602 1.15433,1.95702 1.98666,1.69911c4.24963,-1.31676 8.69854,1.21758 5.97176,5.67182c-0.34508,0.5637 1.41818,-0.25611 1.98071,0.09087c0.21808,0.13451 1.30685,1.41858 1.5477,1.38687c1.57536,-0.20746 2.6538,-0.69053 4.2036,-0.33009c1.28708,0.29934 2.35168,1.31382 2.33432,2.72786c-0.00912,0.74314 -1.45686,1.83848 -0.75976,2.09614c1.64317,0.60736 4.13058,1.93736 2.798,4.23073c-1.44653,2.48948 -4.2336,4.28844 -6.25947,1.6641c-0.70288,-0.91052 -2.52752,0.68222 -3.45076,-0.00386c-1.18275,-0.87892 -1.30923,-3.25955 -0.97033,-4.38854c0.15666,-0.52191 -1.13039,0.1184 -1.63203,-0.09444c-0.67539,-0.28656 -0.75928,-1.42705 -1.45887,-1.64805c-1.56484,-0.4943 -2.07031,2.86843 -5.67365,1.21317c-1.06357,-0.48857 -1.95,-2.69898 -2.06815,-3.85464c-0.06858,-0.67084 2.01476,-2.2481 1.88507,-2.38705c-0.31491,-0.33741 -2.5413,2.307 -2.98895,2.34776c-1.07695,0.09807 -2.00404,-0.8613 -2.87644,-1.50033c-0.77076,-0.56458 -1.55529,1.57577 -2.49605,1.40902c-0.83112,-0.14732 -8.99467,-2.61058 -9.20596,-3.17697c-0.25761,-0.69052 -0.40492,-1.86314 -0.08896,-2.51789c0.11356,-0.23531 1.37138,-1.56899 1.19002,-1.59094c-0.64364,-0.0779 -4.86427,2.38977 -6.23126,-1.27449c-0.74335,-1.99259 1.77009,-3.28042 2.14499,-4.8607c0.23152,-0.9759 -1.46295,1.37713 -2.12295,2.13237c-0.50693,0.58008 -1.69567,0.9422 -2.4553,0.78925c-2.62642,-0.52882 -1.32003,-2.85266 -1.52056,-4.4555c-0.09254,-0.7397 -1.67212,0.21823 -2.21753,-0.28995c-1.33353,-1.2425 -0.83766,-2.32217 -0.62101,-3.84519c0.09919,-0.69736 -1.1556,2.51748 -2.79467,2.30318c-0.66472,-0.08692 -1.46091,-1.31669 -1.85584,-0.77497c-1.92272,2.63737 -1.51373,3.97867 -5.0989,2.6415c-0.34596,-0.12904 -1.13389,0.55075 -1.46501,0.24222c-3.66485,-3.41474 0.97792,-7.91778 2.01412,-11.79154c0.36552,-1.36644 -0.05179,-3.63597 1.30435,-4.03802c0.59199,-0.61775 1.48595,-0.91535 2.37914,-0.70533c0.79197,0.18622 1.40664,0.72997 1.71332,1.42023c0.05491,0.09198 0.09913,0.19053 0.13,0.29729z" fill="#ba587e" stroke="none" stroke-width="0.5"/></g><g stroke="#000000" stroke-linecap="butt"><path d="M340.28632,213.70922c-6.53683,27.80077 -22.72719,39.12617 -38.85588,35.33382c-16.12869,-3.79235 -26.08809,-21.26639 -19.55127,-49.06715c6.53683,-27.80077 24.91085,-47.26343 41.03954,-43.47108c16.12869,3.79235 23.90444,29.40364 17.36762,57.20441z" fill="#a100fe" stroke-width="2"/><path d="M299.47142,183.94483c-8.33195,20.72988 17.85268,51.43299 17.6672,61.71908c-0.05162,2.86244 -11.17039,3.54209 -14.68161,2.71649c-16.12869,-3.79235 -26.0881,-21.26638 -19.55128,-49.06714c6.53683,-27.80077 31.96328,-53.67763 16.56569,-15.36843z" fill="#99008e" stroke-width="0"/></g><g data-paper-data="{&quot;index&quot;:null}" stroke="#000000" stroke-linecap="butt"><path d="M384.02028,173.07466c16.12869,3.79235 23.90444,29.40365 17.36762,57.20442c-6.53682,27.80076 -23.23953,39.0057 -39.36822,35.21334c-16.12869,-3.79235 -25.57575,-21.1459 -19.03893,-48.94667c6.53683,-27.80077 24.91084,-47.26344 41.03954,-43.47109z" fill="#a100fe" stroke-width="2"/><path d="M400.9588,229.32527c-6.53682,27.80076 -23.23953,39.0057 -39.36822,35.21335c-4.38389,-1.03079 -16.84249,-9.21353 -14.25362,-12.9241c6.93581,-9.94091 43.98466,-22.69904 45.64046,-43.42945c3.28731,-41.1567 14.51821,-6.66057 7.98138,21.1402z" fill="#99008e" stroke-width="0"/></g><path d="M271.25192,218.11751c-3.13281,4.00865 -7.6925,5.6796 -10.18436,3.73218c-2.49186,-1.94742 -1.97227,-6.77577 1.16054,-10.78441c3.13281,-4.00865 7.6925,-5.6796 10.18436,-3.73218c2.49186,1.94742 1.97227,6.77577 -1.16054,10.78441z" fill="#000000" stroke="none" stroke-width="0" stroke-linecap="butt"/></g></g></svg>