<svg version="1.1" xmlns="http://www.w3.org/2000/svg" xmlns:xlink="http://www.w3.org/1999/xlink" width="35.01786" height="30.64286" viewBox="0,0,35.01786,30.64286"><g transform="translate(-282.30357,-164.67857)"><g data-paper-data="{&quot;isPaintingLayer&quot;:true}" fill-rule="nonzero" stroke-linecap="butt" stroke-linejoin="miter" stroke-miterlimit="10" stroke-dasharray="" stroke-dashoffset="0" style="mix-blend-mode: normal"><path d="M283.05357,180c0,-8.04758 7.50323,-14.57143 16.75893,-14.57143c9.2557,0 16.75893,6.52385 16.75893,14.57143c0,8.04758 -7.50323,14.57143 -16.75893,14.57143c-9.2557,0 -16.75893,-6.52385 -16.75893,-14.57143z" fill="#2740ff" stroke="#000000" stroke-width="1.5"/><path d="M302.40106,173.42178c0.27884,0.15934 0.52731,0.39801 0.74842,0.70096c0.63346,0.8679 1.04243,2.26329 1.29807,3.83202c0.31691,-0.71478 0.82236,-1.29819 1.24802,-2.00952c0.11341,-0.16992 1.0356,-1.55702 1.06223,-1.56887c3.00813,-1.33927 2.6088,3.48826 4.12884,3.58713c1.05628,0.0687 1.59373,-4.18678 3.16034,-4.1319c0.90339,0.03164 1.57988,1.65415 2.00842,2.29676l0.49829,0.63984c0,0 0.46046,0.59202 -0.13156,1.05247c-0.59202,0.46045 -1.05247,-0.13156 -1.05247,-0.13156l-0.53112,-0.68368c-0.0478,-0.07172 -0.73036,-0.92343 -0.84668,-1.39408c-0.20459,0.48404 -0.69667,1.41655 -0.70525,1.43014c-0.63767,1.0097 -1.1262,2.46359 -2.69107,2.3935c-2.26337,-0.10136 -1.82674,-5.39912 -3.63246,-2.68762c-0.38762,0.6444 -1.46141,2.5238 -2.2769,3.16101c0.2597,2.98135 0.11257,6.06342 -0.02242,7.16c-0.05762,0.46804 -0.01406,1.05516 -0.77146,1.05516c-1.45902,0 -0.54131,-4.27557 -0.74849,-7.58748c-0.00678,-0.10845 -0.24443,-0.89774 -0.52892,-1.90126c-0.55036,-0.90051 -1.01094,-1.93993 -1.22138,-2.29027c-0.31489,-0.5242 -0.64398,1.05302 -1.07589,1.48592c-0.19547,0.19592 -0.46736,0.48204 -0.78416,0.79299c0.78417,3.98627 0.88641,9.39415 0.36597,9.91458c-1.73838,1.73838 -1.31636,-5.13041 -1.35764,-5.66872c-0.08076,-1.05318 -0.2264,-2.05375 -0.43322,-3.0294c-0.53805,0.37013 -1.08217,0.61633 -1.54314,0.55362c-0.96504,-0.13129 -2.53134,-3.43399 -2.47647,-3.04782c-2.2446,4.12459 -3.85784,2.3552 -5.85077,-0.55864c-0.30201,-0.44157 -0.54385,0.92148 -0.808,1.3867c-0.47456,0.83577 -0.92591,1.89434 -2.24923,1.69156c-0.90128,-0.1381 -1.75227,-2.64995 -2.04797,-3.38751c0,0 -0.27855,-0.69635 0.41781,-0.9749c0.69636,-0.27855 0.9749,0.41781 0.9749,0.41781c0.12501,0.31331 0.91772,2.45023 1.04026,2.49484c0.34452,0.12543 0.37591,-0.63011 0.54489,-0.9555c0.4124,-0.79413 1.23003,-2.36501 2.4273,-2.14271c2.26524,0.42059 1.79793,5.25268 3.84856,2.02505c0.16685,-0.26261 0.29848,-0.54599 0.44772,-0.81899c0.35857,-0.33256 0.58695,-0.98049 1.0757,-0.99769c1.43912,-0.05066 2.31294,3.4206 2.91841,3.39104c0.31847,-0.01555 0.62933,-0.19882 0.93697,-0.47984c-0.29814,-1.07695 -0.67134,-2.13935 -1.11436,-3.22653c-0.02855,-0.04151 -0.05303,-0.08604 -0.07287,-0.13301c-0.05091,-0.08502 -0.09707,-0.17106 -0.05765,-0.24991c-0.00076,-0.01379 -0.00113,-0.02767 -0.00113,-0.04164c0,-0.41422 0.33578,-0.75 0.75,-0.75c0.36086,0 0.66219,0.25485 0.73383,0.59439c0.42682,0.39613 0.7902,1.1802 1.09172,2.18346c0.81895,-1.11144 1.66031,-2.19756 2.60722,-1.9373c-0.08976,-0.58686 -0.09331,-1.00196 0.05244,-1.08524z" fill="#000000" stroke="none" stroke-width="0.5"/><path d="M293.82547,184.96746c0.48809,0.10847 0.37963,0.59656 0.37963,0.59656l-0.08957,0.39572c-0.51067,1.57687 -3.18101,4.1155 -4.23635,1.50548c-0.61668,-1.52515 0.48311,-3.41264 1.22339,-4.68224c0,0 0.25194,-0.43189 0.68382,-0.17995c0.43189,0.25194 0.17995,0.68382 0.17995,0.68382c-0.58842,1.00827 -1.31182,2.21563 -1.2431,3.43717c0.1154,2.0513 2.19958,-0.22645 2.4365,-1.05838l0.06916,-0.31857c0,0 0.10847,-0.48809 0.59656,-0.37963z" fill="#000000" stroke="none" stroke-width="0.5"/></g></g></svg>