<svg version="1.1" xmlns="http://www.w3.org/2000/svg" xmlns:xlink="http://www.w3.org/1999/xlink" width="243.38895" height="357.46776" viewBox="0,0,243.38895,357.46776"><g transform="translate(-181.90577,26.88965)"><g data-paper-data="{&quot;isPaintingLayer&quot;:true}" fill-rule="nonzero" stroke-linejoin="miter" stroke-miterlimit="10" stroke-dasharray="" stroke-dashoffset="0" style="mix-blend-mode: normal"><g data-paper-data="{&quot;index&quot;:null}" stroke="#000000" stroke-linecap="butt"><path d="M298.86371,329.13374v-90.27109h61.17899v90.27109z" fill="#273750" stroke-width="2"/><path d="M299.65105,328.37717v-90.27109l18.42709,49.31565l42.75189,40.95544z" fill="#1f1e2e" stroke-width="0"/></g><g data-paper-data="{&quot;index&quot;:null}" stroke="#000000" stroke-linecap="butt"><path d="M246.25776,329.57811v-90.27109h61.17899v90.27109z" fill="#273750" stroke-width="2"/><path d="M247.04514,328.82151v-90.27109l18.42709,49.31565l42.75189,40.95544z" fill="#1f1e2e" stroke-width="0"/></g><g><g data-paper-data="{&quot;index&quot;:null}" stroke="#000000" stroke-linecap="butt"><path d="M366.55189,270.44122v-52.17689h57.18482v52.17689z" fill="#ffcaa0" stroke-width="2"/><g><path d="M366.36455,218.46005v-71.94623h57.93017v71.94623z" fill="#ff0008" stroke-width="2"/><path d="M367.19834,218.69072v-37.68331c0,0 17.32857,15.65308 26.94573,15.65308c9.1185,0 29.34091,-15.65308 29.34091,-15.65308v37.68332c0,0 -18.51324,0 -27.84392,0c-9.43047,0 -28.44271,0 -28.44271,0z" fill="#8d005e" stroke-width="0"/></g><path d="M367.43852,269.85026v-52.17689l14.67044,35.36434l42.51438,16.81256z" fill="#ff6e5b" stroke-width="0"/></g><g data-paper-data="{&quot;index&quot;:null}" stroke="#000000" stroke-linecap="butt"><path d="M408.66469,50.01477c0,34.96374 -13.32593,63.30744 -29.76432,63.30744c-16.43839,0 -29.76432,-28.34371 -29.76432,-63.30744c0,-34.96374 13.32593,-63.30744 29.76432,-63.30744c16.43839,0 29.76432,28.34371 29.76432,63.30744z" fill="#01930e" stroke-width="2"/><path d="M359.42998,39.10561c0,34.96374 36.35938,73.74523 19.921,73.74523c-16.43838,0 -29.76432,-28.34371 -29.76432,-63.30744c0,-34.96374 9.84331,-45.40153 9.84331,-10.4378z" fill="#31525b" stroke-width="0"/></g><path d="M240.40847,239.46548v-123.54887h127.60874v123.54887z" data-paper-data="{&quot;index&quot;:null}" fill="#ff0008" stroke="#000000" stroke-width="2" stroke-linecap="butt"/><g data-paper-data="{&quot;index&quot;:null}" stroke="#000000" stroke-linecap="butt"><path d="M183.09312,270.48691v-52.17689h57.18482v52.17689z" fill="#ffcaa0" stroke-width="2"/><g><path d="M182.90577,218.50574v-71.94623h57.93017v71.94623z" fill="#ff0008" stroke-width="2"/><path d="M183.73956,218.73641v-37.68331c0,0 17.32857,15.65308 26.94573,15.65308c9.1185,0 29.34091,-15.65308 29.34091,-15.65308v37.68332c0,0 -18.51324,0 -27.84392,0c-9.43047,0 -28.44271,0 -28.44271,0z" fill="#8d005e" stroke-width="0"/></g><path d="M183.97973,269.89597v-52.17689l14.67044,35.36434l42.51438,16.81256z" fill="#ff6e5b" stroke-width="0"/></g><g data-paper-data="{&quot;index&quot;:null}" fill="#000000" stroke="#000000" stroke-linecap="butt"><path d="M270.56443,238.95607v-121.2493h68.60169v121.2493z" stroke-width="2"/><path d="M271.44733,237.93988v-121.2493l20.6628,66.23923l47.93888,55.01007z" stroke-width="0"/></g><g data-paper-data="{&quot;index&quot;:null}" stroke="#000000" stroke-linecap="butt"><path d="M209.70942,48.3111c0,-1.49435 0.99458,-29.72526 1.10913,-31.19673c2.89463,-37.18287 40.88387,-39.88176 88.47796,-39.88176c44.70715,0 83.32636,4.93117 90.0568,38.90193c0.71816,3.62481 -0.46972,28.3917 -0.46972,32.17655c0,13.52847 3.35223,43.26275 -4.91687,54.02741c-15.72536,20.47117 -52.24387,17.05106 -84.67021,17.05106c-34.285,0 -66.2568,1.0653 -81.31687,-21.37998c-6.67352,-9.9461 -8.27021,-37.64469 -8.27021,-49.69851z" fill="#ffcaa0" stroke-width="2"/><path d="M207.65362,48.32216c0,-1.49435 0.99458,-29.72526 1.10913,-31.19673c1.6446,-21.12554 7.69626,65.74308 61.28085,89.54595c41.99256,18.65357 115.92382,-8.76786 112.59924,-4.43994c-15.72536,20.47117 -52.97579,17.16917 -85.40212,17.16917c-34.285,0 -66.2568,1.0653 -81.31687,-21.37998c-6.67352,-9.9461 -8.27021,-37.64469 -8.27021,-49.69851z" fill="#ff6e5b" stroke-width="0"/></g><g data-paper-data="{&quot;index&quot;:null}" stroke="#000000" stroke-linecap="butt"><path d="M260.56429,47.76321c0,34.96374 -13.32593,63.30744 -29.76432,63.30744c-16.43839,0 -29.76432,-28.34371 -29.76432,-63.30744c0,-34.96374 13.32593,-63.30744 29.76432,-63.30744c16.43839,0 29.76432,28.34371 29.76432,63.30744z" fill="#01930e" stroke-width="2"/><path d="M211.32959,36.85408c0,34.96374 36.35938,73.74523 19.921,73.74523c-16.43838,0 -29.76432,-28.34371 -29.76432,-63.30744c0,-34.96374 9.84331,-45.40153 9.84331,-10.4378z" fill="#31525b" stroke-width="0"/></g><g data-paper-data="{&quot;index&quot;:null}" stroke-linecap="butt"><path d="M407.27661,7.82734c0,19.17368 -46.37848,34.71699 -103.58922,34.71699c-57.21074,0 -103.58921,-15.54333 -103.58921,-34.71699c0,-19.17368 46.37846,-34.71698 103.58921,-34.71698c57.21074,0 103.58922,15.54332 103.58922,34.71699z" fill="#000000" stroke="none" stroke-width="NaN"/><path d="M406.45792,8.20112c0,19.17368 -46.37848,34.71699 -103.58922,34.71699c-57.21074,0 -103.58921,-15.54333 -103.58921,-34.71699c0,-19.17368 47.9848,9.60694 105.19554,9.60694c57.21074,0 101.98288,-28.78061 101.98288,-9.60694z" fill="#ff0000" stroke="#000000" stroke-width="2"/><path d="M400.41866,18.1858c0,5.27643 -40.75631,25.49487 -97.96706,23.93964c-20.02031,-0.54424 -38.90628,-2.31589 -54.30525,-5.52275c-28.58833,-5.95355 -46.13889,-15.2712 -43.52892,-19.71124c2.69564,-4.58575 42.22976,18.32393 99.4405,18.32393c57.21074,0 96.36072,-22.306 96.36072,-17.02958z" fill="#900056" stroke="#000000" stroke-width="0"/></g><path d="M328.28729,75.21259c0,17.06377 -3.25754,30.89669 -7.27593,30.89669c-4.01839,0 -7.27593,-13.83292 -7.27593,-30.89668c0,-17.06377 3.25755,-30.89668 7.27593,-30.89668c4.01839,0 7.27593,13.83292 7.27593,30.89669z" data-paper-data="{&quot;index&quot;:null}" fill="#000000" stroke="none" stroke-width="0" stroke-linecap="butt"/><path d="M357.16105,70.52082c0,16.99551 -3.08609,30.7731 -6.89298,30.7731c-3.80689,0 -6.89298,-13.77758 -6.89298,-30.7731c0,-16.99551 3.08609,-30.7731 6.89298,-30.7731c3.80689,0 6.89298,13.77758 6.89298,30.7731z" data-paper-data="{&quot;index&quot;:null}" fill="#000000" stroke="none" stroke-width="0" stroke-linecap="butt"/><path d="M298.16726,46.18042h33.63983" fill="none" stroke="#000000" stroke-width="5" stroke-linecap="round"/><path d="M368.11676,38.42575l-26.16431,4.91129" fill="none" stroke="#000000" stroke-width="5" stroke-linecap="round"/><path d="M292.59574,102.6188c-3.3604,6.68526 -9.10904,10.67964 -12.83994,8.92171c-3.73089,-1.75793 -4.03124,-8.6025 -0.67083,-15.28774c3.3604,-6.68526 9.10904,-10.67964 12.83994,-8.92171c3.73089,1.75793 4.03124,8.6025 0.67083,15.28774z" fill="#000000" stroke="none" stroke-width="0" stroke-linecap="butt"/></g></g></g></svg>