<svg version="1.1" xmlns="http://www.w3.org/2000/svg" xmlns:xlink="http://www.w3.org/1999/xlink" width="250.2093" height="251.95204" viewBox="0,0,250.2093,251.95204"><g transform="translate(-206.0618,-108.86383)"><g data-paper-data="{&quot;isPaintingLayer&quot;:true}" fill-rule="nonzero" stroke-linejoin="miter" stroke-miterlimit="10" stroke-dasharray="" stroke-dashoffset="0" style="mix-blend-mode: normal"><g stroke="#000000" stroke-linecap="butt"><path d="M378.49843,233.40897c33.62805,-7.25935 62.4388,-7.04605 64.3506,0.47642c1.91181,7.52247 -23.79929,19.50551 -57.42734,26.76487c-33.62804,7.25935 -62.43879,7.04605 -64.3506,-0.47642c-1.91181,-7.52247 23.79929,-19.50551 57.42734,-26.76486z" fill="#0d69be" stroke-width="2"/><path d="M422.10701,210.95949c14.43401,-3.11589 28.94634,5.41975 32.41421,19.06491c3.46786,13.64515 -5.42194,27.23267 -19.85596,30.34857c-14.43401,3.11589 -28.94634,-5.41975 -32.41421,-19.06491c-3.46787,-13.64515 5.42194,-27.23267 19.85596,-30.34857z" fill="#faddbf" stroke-width="2"/><path d="M419.72414,250.44422c14.43401,-3.11589 30.37091,-34.24554 33.83878,-20.60039c3.46786,13.64515 -5.42194,27.23267 -19.85596,30.34857c-14.43401,3.11589 -28.41682,-6.63228 -13.98282,-9.74818z" fill="#ef8b89" stroke-width="0"/></g><g stroke="#000000" stroke-linecap="butt"><path d="M348.45584,354.32208l-60.02568,-72.24402l24.2594,-17.12094l60.02569,72.24402z" fill="#73fffc" stroke-width="2"/><path d="M347.79865,354.04272l-57.98411,-71.86982c0,0 47.18326,48.61616 54.08263,55.07135c1.52524,1.42704 3.8321,0.65077 3.8321,0.65077l23.58148,-0.84087z" fill="#59a9e6" stroke-width="0"/></g><g stroke="#000000" stroke-linecap="butt"><path d="M249.516,328.08512l37.39197,-84.21437l28.27902,10.6652l-37.39197,84.21438z" fill="#73fffc" stroke-width="2"/><path d="M249.44612,327.42123l38.07151,-82.40105c0,0 -21.73711,62.07394 -24.30322,70.82086c-0.56729,1.93367 1.32384,3.37761 1.32384,3.37761l12.68584,18.33991z" fill="#59a9e6" stroke-width="0"/></g><g stroke="#000000" stroke-linecap="butt"><path d="M336.08203,241.29953c0,13.17956 10.40963,35.085 5.12845,44.36224c-6.45852,11.34544 -29.64386,8.68514 -40.34344,8.68514c-14.1554,0 -34.13167,3.98191 -39.72653,-14.16253c-2.09215,-6.78496 4.51155,-30.91111 4.51155,-38.88485c0,-29.29726 15.76628,-53.04738 35.21498,-53.04738c19.4487,0 35.21498,23.75012 35.21498,53.04738z" fill="#0d69be" stroke-width="2"/><path d="M282.97039,256.17289c0,13.17956 64.27853,19.62114 58.99734,28.89837c-6.45852,11.34543 -29.64386,8.68514 -40.34344,8.68514c-14.1554,0 -34.13166,3.98191 -39.72652,-14.16252c-2.09216,-6.78496 4.51155,-30.91112 4.51155,-38.88485c0,-9.02569 3.46926,-27.30689 5.7185,-28.61515c6.15818,-16.0073 10.84256,24.00495 10.84256,44.07901z" fill="#10157d" stroke-width="0"/></g><path d="M212.99654,335.38176c1.57443,-11.04132 15.41903,-7.64454 33.81761,-5.41611c14.72066,1.78296 29.8606,-6.7631 33.7337,-0.98127c0.96769,1.44458 -0.60944,12.26009 -0.92418,14.46727c-1.57443,11.04132 -17.76575,18.18557 -36.16434,15.95714c-18.39858,-2.22844 -32.03725,-12.98569 -30.46281,-24.02701z" data-paper-data="{&quot;index&quot;:null}" fill="#000082" stroke="#000000" stroke-width="2" stroke-linecap="butt"/><path d="M248.02846,330.66157c14.72066,1.78296 27.2608,-5.1312 31.4758,-1.74703c1.05311,0.84553 -0.5019,11.50604 -0.67214,12.69992c-0.85161,5.97225 -13.83894,7.24747 -32.23752,5.01903c-18.39858,-2.22844 -32.1432,-7.63149 -31.29159,-13.60375c0.85161,-5.97225 14.32688,-4.5966 32.72545,-2.36817z" data-paper-data="{&quot;index&quot;:null}" fill="#2e0048" stroke="#000000" stroke-width="0" stroke-linecap="butt"/><g><g><path d="M243.58167,263.01423c-7.39624,-12.69125 -4.7911,-23.53157 8.48599,-30.85859c10.38413,-5.73057 28.43826,-1.01776 35.83451,11.67352c7.39631,12.6913 3.87109,26.3155 -9.76211,33.0642c-2.13197,1.05538 -4.43941,1.4462 -6.54325,1.82132c-11.34935,2.02348 -21.7755,-4.99383 -28.01514,-15.70043z" fill="#0000c4" stroke="#000000" stroke-width="2" stroke-linecap="butt"/><path d="M276.99001,235.36095c0,0 -5.45446,2.2218 -5.76341,4.11338c-2.96365,18.14451 2.9532,30.39505 5.24565,34.3092c0.52084,0.8893 1.68298,0.93826 1.68298,0.93826c0,0 -1.80982,1.13649 -4.5433,1.8465c-2.90868,0.75552 -6.83973,1.06849 -9.94071,0.40248c-3.5422,-0.76081 -11.16543,-4.50409 -11.16543,-4.50409l-13.12633,-15.93031c0,0 2.85246,-12.57273 4.04153,-14.32812c1.16488,-1.71972 3.07847,-3.44672 5.0329,-5.35842c3.03455,-2.96817 7.24791,-4.89411 10.18606,-5.37378c3.74975,-0.61212 8.52566,0.06467 12.27059,1.23289c3.48536,1.08725 6.07936,2.65205 6.07936,2.65205z" fill="#2e006f" stroke="none" stroke-width="0" stroke-linecap="butt"/><path d="M255.94677,248.33528c0,0 7.13975,-5.56016 12.47527,-5.79201c6.7542,-0.29354 19.81626,2.59505 19.81626,2.59505" fill="none" stroke="#000000" stroke-width="1" stroke-linecap="round"/><path d="M283.63474,272.40273c0,0 -7.11878,1.89003 -11.56813,2.05202c-4.49182,0.16359 -14.0321,-2.75762 -14.0321,-2.75762" fill="none" stroke="#000000" stroke-width="1" stroke-linecap="round"/><path d="M247.96922,240.87355c0,0 7.23636,-5.8083 13.02793,-5.81693c8.88698,-0.0132 20.67795,2.1166 20.67795,2.1166" fill="none" stroke="#000000" stroke-width="1" stroke-linecap="round"/><path d="M259.34207,230.71881c0,0 16.35519,6.7703 19.84384,23.09257c3.82137,17.87897 -12.0786,25.39557 -12.0786,25.39557" fill="none" stroke="#000000" stroke-width="1" stroke-linecap="round"/><path d="M250.10417,233.91458c0,0 15.35108,9.41975 18.46314,23.81673c2.55527,11.82123 -10.19502,19.30729 -10.19502,19.30729" fill="none" stroke="#000000" stroke-width="1" stroke-linecap="round"/><path d="M286.7132,258.49061c0.07161,-1.14679 0.92822,-2.03403 1.91325,-1.98177c0.98507,0.0522 0.96158,0.81218 0.88996,1.95896c-0.07161,1.14679 -0.16426,2.24605 -1.1493,2.19381c-0.98507,-0.0522 -1.72556,-1.02424 -1.6539,-2.17098z" fill="#8fbbbe" stroke="none" stroke-width="0" stroke-linecap="butt"/><path d="M285.26041,265.30246c-0.29485,-0.50597 0.13365,-1.24658 0.95712,-1.65422c0.82348,-0.40765 1.22077,-0.4693 1.51565,0.03666c0.29485,0.50597 -0.04464,1.39928 -0.86815,1.8069c-0.82348,0.40765 -1.30978,0.31659 -1.60462,-0.18937z" fill="#8fbbbe" stroke="none" stroke-width="0" stroke-linecap="butt"/><path d="M287.05839,251.89224c-0.35204,-0.7981 -0.16947,-1.62035 0.40781,-1.83664c0.57722,-0.21633 0.83363,0.50132 1.18569,1.29938c0.35204,0.7981 0.6665,1.3743 0.08923,1.59062c-0.57722,0.21633 -1.33066,-0.25531 -1.68269,-1.05337z" fill="#8fbbbe" stroke="none" stroke-width="0" stroke-linecap="butt"/><path d="M272.96761,233.22062c0,0 7.77502,6.64033 11.15268,13.17193c1.91495,3.70309 2.21564,7.57609 2.40792,10.51475c0.17007,2.5988 -2.11661,8.5123 -4.37793,12.87069c-1.66487,3.20885 -3.47337,5.47246 -3.47337,5.47246" fill="none" stroke="#000000" stroke-width="0.5" stroke-linecap="round"/><path d="M291.85039,260.85989c0,0 -9.84194,4.43135 -15.42412,4.84453c-4.70311,0.34814 -15.70773,-2.22169 -15.70773,-2.22169" fill="none" stroke="#000000" stroke-width="1" stroke-linecap="round"/><path d="M259.45111,258.01132c0,0 9.04641,-3.9585 13.64863,-4.76793c8.08063,-1.42119 18.46487,1.26562 18.46487,1.26562" fill="none" stroke="#000000" stroke-width="1" stroke-linecap="round"/></g><g stroke="#000000" stroke-linecap="butt"><path d="M244.55954,234.52916c6.3505,31.28869 -0.46529,38.02543 -8.70542,39.44601c-8.24014,1.42058 -20.06819,-22.79232 -26.41868,-54.08102c-6.3505,-31.2887 57.92489,4.01065 66.16501,2.59007c6.78472,2.60508 2.24024,7.21983 -5.68949,8.9213c-9.7792,2.0983 -25.89423,0.44922 -25.35142,3.12365z" fill="#0d69be" stroke-width="2"/><path d="M261.64057,255.91315c2.72579,13.42991 -7.18138,26.40593 -22.12832,28.98274c-14.94693,2.57683 -29.2735,-6.22134 -31.99932,-19.65124c-2.72579,-13.42991 7.1814,-26.40592 22.12833,-28.98274c14.94693,-2.57683 29.27351,6.22133 31.99931,19.65124z" fill="#faddbf" stroke-width="2"/><path d="M218.94949,251.93678c2.72579,13.4299 35.74865,29.50818 20.80172,32.08499c-14.94693,2.57683 -29.2735,-6.22133 -31.9993,-19.65123c-2.72579,-13.42991 8.47178,-25.86367 11.19758,-12.43376z" fill="#ef8b89" stroke-width="0"/></g></g><g stroke="#000000" stroke-linecap="butt"><path d="M405.77564,335.47004c1.40856,11.06034 -12.39027,21.64269 -30.82053,23.63635c-18.43027,1.99366 -34.51281,-5.35633 -35.92137,-16.41667c-0.28158,-2.21098 -1.69622,-13.04556 -0.70694,-14.47767c3.95952,-5.73189 18.96975,3.00637 33.71576,1.41124c18.43027,-1.99366 32.32452,-5.2136 33.73308,5.84673z" fill="#000082" stroke-width="2"/><path d="M403.5047,333.08886c0.76189,5.98253 -13.06251,11.20985 -31.49278,13.20351c-18.43027,1.99366 -31.39722,0.55299 -32.15911,-5.42954c-0.1523,-1.19592 -1.54716,-11.87525 -0.48147,-12.70727c4.26539,-3.33011 16.70056,3.74327 31.44657,2.14814c18.43027,-1.99366 31.92489,-3.19738 32.68679,2.78515z" fill="#2e0048" stroke-width="0"/></g><g stroke-linecap="butt"><g stroke="#000000"><g><path d="M250.34371,174.83138c11.09597,-43.49222 58.34657,-70.45953 105.53716,-60.23316c47.19059,10.22637 76.45107,53.77389 65.3551,97.26611c-11.09597,43.49222 -58.34657,70.45953 -105.53716,60.23317c-47.19059,-10.22637 -76.45108,-53.77389 -65.35511,-97.26611z" fill="#faddbf" stroke-width="2"/><path d="M250.78264,174.07361c3.56997,-13.99302 18.45664,-36.22795 23.76641,-38.23005c0.60639,-0.22865 7.94885,-7.0175 17.12638,-11.61689c11.40703,-5.71674 25.09106,-9.4295 25.66031,-9.11285c7.42712,4.13137 -33.05599,56.45239 -37.80375,80.23025c-0.01132,0.0567 -0.22692,19.27598 1.30131,20.03767c1.78552,5.03879 4.64673,19.79438 13.9278,28.80932c17.29637,16.80042 44.6931,28.98926 43.07721,29.13515c-2.58485,0.23338 -15.58583,-0.66139 -21.70055,-1.98647c-47.19059,-10.22637 -76.45107,-53.77389 -65.3551,-97.26611z" fill="#ef8b89" stroke-width="0"/><path d="M420.81672,211.32404c-2.75659,10.80487 -5.30039,14.19326 -5.41804,12.35142c-0.12004,-1.87902 2.13892,-9.1626 -5.64593,-15.59283c-1.88643,-1.55818 -11.78175,3.60298 -14.24143,1.8653c-1.54496,-1.09148 -6.31305,-11.34917 -8.08277,-12.39579c-1.23735,-0.73178 -14.54314,5.06595 -15.84778,4.34119c-3.25382,-1.80757 -9.39383,-13.19191 -13.02104,-14.62338c-1.99741,-0.78828 -12.17217,8.98559 -14.23901,8.28871c-2.66546,-0.89873 -7.29275,-13.41819 -10.05353,-14.01647c-7.34205,-1.59105 -9.20623,4.88182 -15.91311,9.31987c-4.35831,2.88396 -11.01283,-15.18902 -15.21509,-11.7492c-5.21872,4.27183 -10.35119,8.36787 -15.48207,10.78684c-4.02537,1.89778 -11.08397,-12.30588 -14.60532,-10.50121c-17.00202,8.71345 -27.30887,14.33135 -22.9996,-2.55944c8.66514,-33.96421 45.60526,1.82626 92.8487,-9.04645c45.22095,-10.40725 86.58117,9.56724 77.91604,43.53146z" fill="#ef8b89" stroke-width="0"/></g><path d="M424.33453,203.93428c-5.56884,21.82786 4.52077,9.52846 -11.36076,-3.30574c-1.94343,-1.57053 -12.05289,3.54422 -14.58502,1.79084c-1.59047,-1.10134 -6.54291,-11.39899 -8.36346,-12.45662c-1.2729,-0.73949 -14.87389,4.99427 -16.2157,4.26146c-3.34654,-1.82766 -9.7123,-13.26093 -13.43917,-14.714c-2.05228,-0.80017 -12.41878,8.93217 -14.54165,8.22314c-2.73771,-0.91439 -7.56023,-13.47616 -10.39373,-14.09019c-7.53545,-1.63296 -9.40493,4.83875 -16.25098,9.24665c-4.44872,2.86437 -11.38443,-15.26955 -15.66968,-11.84772c-5.32177,4.2495 -10.55629,8.32343 -15.79982,10.71799c-4.11376,1.87863 -11.43901,-12.38282 -15.03675,-10.5947c-17.37092,8.63351 -27.89927,14.20341 -23.59,-2.68738c8.66514,-33.96421 59.47253,-66.81649 105.7918,-56.77894c46.31925,10.03755 78.1201,58.27102 69.45497,92.23523z" fill="#873412" stroke-width="2"/><path d="M424.36044,202.79932c-5.56884,21.82786 4.52076,9.52846 -11.36077,-3.30574c-1.94343,-1.57053 -12.05289,3.54423 -14.58502,1.79084c-1.59047,-1.10134 -6.54291,-11.39899 -8.36347,-12.45662c-1.2729,-0.73949 -14.87389,4.99428 -16.2157,4.26146c-3.34654,-1.82766 -9.71231,-13.26093 -13.43917,-14.714c-2.05228,-0.80017 -12.41878,8.93216 -14.54165,8.22313c-2.73771,-0.91439 -7.56023,-13.47616 -10.39373,-14.09019c-7.53545,-1.63296 -9.40493,4.83875 -16.25097,9.24664c-4.44872,2.86437 -11.38443,-15.26954 -15.66969,-11.84771c-5.32177,4.2495 -10.55628,8.32343 -15.79983,10.71798c-4.11376,1.87863 -11.43902,-12.38282 -15.03675,-10.5947c-17.37092,8.63351 -27.89927,14.20342 -23.58999,-2.68738c8.66513,-33.96421 46.75523,2.07547 95.10867,-8.55669c46.28342,-10.177 88.80322,10.04877 80.13809,44.01299z" fill="#741d23" stroke-width="0"/></g><path d="M354.81541,121.86743c0.03818,0.12169 0.06066,0.25749 0.07032,0.40362c0.03355,0.26147 0.02035,0.53243 -0.04582,0.80356c-0.15982,1.07998 -0.64131,2.32636 -0.71259,2.7936c-0.09365,0.61387 1.3777,-0.43449 2.0049,-0.21056c0.3842,0.13716 0.61673,0.88072 0.97747,0.69727c2.18929,-1.1133 4.48448,-3.42142 6.87764,-1.31059c0.79257,0.69906 0.2337,1.9052 0.64082,2.66506c0.03422,0.06388 2.6639,0.44328 3.13823,1.06881c0.81731,1.07785 -0.21208,2.16289 0.08006,3.19989c0.09347,0.33183 0.68427,-0.28552 1.04992,-0.34846c1.62734,-0.28009 4.50722,-0.99151 6.03769,0.32274c0.80643,0.6925 0.24205,2.15113 0.64851,2.67266c0.71257,0.91431 2.2738,-0.84628 3.46228,-1.10606c1.64374,-0.35932 2.21109,0.45107 3.25594,1.54669c0.18021,0.18897 -0.50293,3.94409 0.33415,5.2611c0.47052,0.74029 1.8693,-0.43719 2.77898,-0.25501c0.90764,0.18178 2.90912,-0.09302 3.31003,0.09549c0.80417,0.37814 1.19594,1.86867 2.05828,1.6224c4.40282,-1.25731 9.01211,1.16261 6.18704,5.41575c-0.35752,0.53825 1.4693,-0.24455 2.05211,0.08677c0.22594,0.12844 1.35396,1.35454 1.60349,1.32426c1.63215,-0.19809 2.74947,-0.65935 4.35514,-0.31519c1.33348,0.28583 2.43646,1.2545 2.41847,2.6047c-0.00945,0.70959 -1.50938,1.75548 -0.78715,2.00151c1.7024,0.57994 4.27948,1.84989 2.89887,4.03972c-1.49868,2.37709 -4.38622,4.09483 -6.48512,1.58897c-0.72822,-0.86941 -2.61863,0.65142 -3.57516,-0.00369c-1.22539,-0.83924 -1.35643,-3.11239 -1.00531,-4.19041c0.16231,-0.49835 -1.17114,0.11305 -1.69086,-0.09018c-0.69974,-0.27362 -0.78665,-1.36262 -1.51146,-1.57365c-1.62125,-0.47198 -2.14494,2.73893 -5.87818,1.1584c-1.10191,-0.46651 -2.0203,-2.57713 -2.1427,-3.68061c-0.07105,-0.64055 2.08739,-2.1466 1.95302,-2.27928c-0.32626,-0.32218 -2.63291,2.20285 -3.0967,2.24177c-1.11577,0.09364 -2.07628,-0.82241 -2.98013,-1.43259c-0.79855,-0.53909 -1.61136,1.50463 -2.58603,1.34541c-0.86108,-0.14067 -9.31892,-2.49272 -9.53783,-3.03354c-0.2669,-0.65934 -0.41952,-1.77902 -0.09217,-2.40421c0.11765,-0.22469 1.42082,-1.49815 1.23292,-1.51911c-0.66684,-0.07438 -5.03962,2.28188 -6.45589,-1.21695c-0.77015,-1.90263 1.8339,-3.13232 2.22231,-4.64125c0.23987,-0.93184 -1.51569,1.31496 -2.19948,2.0361c-0.5252,0.55389 -1.7568,0.89966 -2.54381,0.75362c-2.7211,-0.50495 -1.36762,-2.72387 -1.57537,-4.25435c-0.09588,-0.7063 -1.7324,0.20838 -2.29747,-0.27686c-1.3816,-1.1864 -0.86786,-2.21733 -0.6434,-3.67159c0.10277,-0.66588 -1.19726,2.40382 -2.89542,2.1992c-0.68868,-0.083 -1.51357,-1.25725 -1.92274,-0.73998c-1.99203,2.5183 -1.5683,3.79904 -5.28271,2.52224c-0.35843,-0.12321 -1.17477,0.52589 -1.51782,0.23128c-3.79696,-3.26057 1.01317,-7.56031 2.08673,-11.25919c0.3787,-1.30475 -0.05366,-3.47182 1.35137,-3.85571c0.61333,-0.58986 1.53952,-0.87402 2.46491,-0.67349c0.82052,0.17781 1.45735,0.69701 1.77508,1.35611c0.05689,0.08783 0.1027,0.18193 0.13469,0.28387z" fill="#ba587e" stroke="none" stroke-width="0.5"/></g><g stroke="#000000" stroke-linecap="butt"><path d="M341.32148,220.30552c-6.77248,26.54564 -23.54648,37.35973 -40.2566,33.7386c-16.71011,-3.62114 -27.02854,-20.30627 -20.25607,-46.85191c6.77248,-26.54564 25.80886,-45.12962 42.51897,-41.50848c16.71011,3.62114 24.76617,28.07615 17.99371,54.62179z" fill="#a100fe" stroke-width="2"/><path d="M299.03525,191.88491c-8.63231,19.79398 18.49625,49.11094 18.30408,58.93264c-0.05348,2.73321 -11.57307,3.38217 -15.21087,2.59385c-16.71011,-3.62114 -27.02855,-20.30626 -20.25608,-46.8519c6.77248,-26.54564 33.11552,-51.25424 17.16287,-14.67459z" fill="#99008e" stroke-width="0"/></g><g data-paper-data="{&quot;index&quot;:null}" stroke="#000000" stroke-linecap="butt"><path d="M386.63201,181.5055c16.71011,3.62114 24.76617,28.07616 17.99371,54.6218c-6.77247,26.54563 -24.07729,37.2447 -40.7874,33.62356c-16.71011,-3.62114 -26.49773,-20.19122 -19.72526,-46.73687c6.77248,-26.54564 25.80885,-45.12963 42.51897,-41.50849z" fill="#a100fe" stroke-width="2"/><path d="M404.18114,235.21655c-6.77247,26.54563 -24.07729,37.2447 -40.7874,33.62357c-4.54192,-0.98425 -17.44964,-8.79757 -14.76745,-12.34061c7.18584,-9.49211 45.57026,-21.67424 47.28575,-41.46873c3.40581,-39.29859 15.04158,-6.35986 8.2691,20.18578z" fill="#99008e" stroke-width="0"/></g><path d="M269.79846,224.51479c-3.24574,3.82767 -7.96981,5.42318 -10.5515,3.56368c-2.58169,-1.8595 -2.04337,-6.46986 1.20238,-10.29752c3.24574,-3.82767 7.96981,-5.42318 10.5515,-3.56368c2.58169,1.8595 2.04337,6.46986 -1.20238,10.29752z" fill="#000000" stroke="none" stroke-width="0" stroke-linecap="butt"/></g></g></svg>