<svg version="1.1" xmlns="http://www.w3.org/2000/svg" xmlns:xlink="http://www.w3.org/1999/xlink" width="181.02949" height="328.64554" viewBox="0,0,181.02949,328.64554"><g transform="translate(-243.75891,-32.34184)"><g data-paper-data="{&quot;isPaintingLayer&quot;:true}" fill-rule="nonzero" stroke-linejoin="miter" stroke-miterlimit="10" stroke-dasharray="" stroke-dashoffset="0" style="mix-blend-mode: normal"><g stroke="#000000" stroke-linecap="butt"><path d="M333.69255,221.13966c17.77824,28.20023 26.64162,54.55913 19.7969,58.87424c-6.84472,4.31511 -26.80558,-15.04762 -44.58382,-43.24785c-17.77824,-28.20023 -26.64162,-54.55913 -19.7969,-58.87424c6.84472,-4.31511 26.80558,15.04762 44.58382,43.24786z" fill="#0d69be" stroke-width="2"/><path d="M369.65185,253.25452c7.63087,12.10425 3.75195,28.26193 -8.66381,36.08919c-12.41576,7.82725 -28.66677,4.36007 -36.29764,-7.74419c-7.63087,-12.10426 -3.75195,-28.26193 8.66381,-36.08919c12.41576,-7.82726 28.66677,-4.36006 36.29764,7.74419z" fill="#faddbf" stroke-width="2"/><path d="M329.81336,264.57453c7.63087,12.10426 43.46735,16.00589 31.05159,23.83315c-12.41576,7.82725 -28.66676,4.36006 -36.29764,-7.74419c-7.63087,-12.10426 -2.38483,-28.19321 5.24604,-16.08895z" fill="#ef8b89" stroke-width="0"/></g><g stroke="#000000" stroke-linecap="butt"><path d="M307.76518,340.83533v-95.29492h29.49199v95.29492z" fill="#73fffc" stroke-width="2"/><path d="M307.43943,340.21739l1.32626,-93.78573c0,0 5.20288,68.11227 6.3799,77.52842c0.2602,2.08162 2.52228,2.78987 2.52228,2.78987l18.60659,13.13896z" fill="#59a9e6" stroke-width="0"/></g><g stroke="#000000" stroke-linecap="butt"><path d="M268.4238,338.41279v-95.29492h29.49199v95.29492z" fill="#73fffc" stroke-width="2"/><path d="M268.09805,337.79487l1.32626,-93.78573c0,0 5.20288,68.11227 6.3799,77.52842c0.2602,2.08162 2.52228,2.78987 2.52228,2.78987l18.60659,13.13896z" fill="#59a9e6" stroke-width="0"/></g><g stroke="#000000" stroke-linecap="butt"><path d="M335.22917,235.69585c0,13.80271 10.04743,36.74388 4.95001,46.45977c-6.2338,11.88187 -28.61241,9.09579 -38.9397,9.09579c-13.66287,0 -32.94407,4.17018 -38.34426,-14.83216c-2.01935,-7.10576 4.35457,-32.37264 4.35457,-40.7234c0,-30.68249 15.2177,-55.55556 33.98969,-55.55556c18.77199,0 33.98969,24.87307 33.98969,55.55556z" fill="#0d69be" stroke-width="2"/><path d="M283.96554,251.27245c0,13.80271 62.04198,20.54886 56.94455,30.26474c-6.2338,11.88186 -28.61241,9.09579 -38.9397,9.09579c-13.66287,0 -32.94406,4.17018 -38.34425,-14.83215c-2.01936,-7.10576 4.35457,-32.37265 4.35457,-40.7234c0,-9.45244 3.34855,-28.59801 5.51953,-29.96813c5.94391,-16.76415 10.4653,25.13995 10.4653,46.16315z" fill="#10157d" stroke-width="0"/></g><g stroke-linecap="butt"><g stroke="#000000"><g><path d="M254.93687,99.39008c11.78703,-45.28183 58.05048,-72.43472 103.33231,-60.64769c45.28183,11.78703 72.43472,58.05048 60.64769,103.33231c-11.78703,45.28183 -58.05048,72.43472 -103.33231,60.64769c-45.28183,-11.78703 -72.43472,-58.05048 -60.64769,-103.33231z" fill="#faddbf" stroke-width="2"/><path d="M255.37924,98.60674c3.79231,-14.56879 18.70918,-37.50775 23.88249,-39.48239c0.5908,-0.22551 7.8444,-7.16529 16.81433,-11.77073c11.14902,-5.72425 24.44539,-9.29825 24.98682,-8.95369c7.06407,4.49549 -33.29888,58.34831 -38.47069,83.13475c-0.01234,0.05911 -0.6977,20.1765 0.75802,21.00896c1.59777,5.31641 3.99219,20.83082 12.72392,30.48179c16.27261,17.98572 42.40592,31.37437 40.84307,31.49014c-2.5,0.18518 -15.02288,-1.04921 -20.89027,-2.57651c-45.28183,-11.78703 -72.43472,-58.05048 -60.64769,-103.33231z" fill="#ef8b89" stroke-width="0"/><path d="M418.52574,141.49942c-2.92828,11.24947 -5.46702,14.73883 -5.53481,12.80776c-0.06916,-1.97005 2.29148,-9.54417 -5.06068,-16.45473c-1.78157,-1.67457 -11.45809,3.50261 -13.78836,1.62696c-1.46367,-1.17813 -5.80981,-12.02694 -7.49148,-13.16325c-1.17579,-0.79448 -14.15899,4.9711 -15.39988,4.18243c-3.09482,-1.96699 -8.73679,-14.02678 -12.20127,-15.60853c-1.90778,-0.87103 -11.9685,9.1292 -13.94556,8.35226c-2.54967,-1.00197 -6.70377,-14.21561 -9.35288,-14.90519c-7.04508,-1.83386 -9.00465,4.90047 -15.58657,9.39354c-4.27709,2.91971 -10.24942,-16.15478 -14.38975,-12.64953c-5.14182,4.3531 -10.19604,8.52413 -15.20708,10.93932c-3.93134,1.89481 -10.38968,-13.13781 -13.83237,-11.32894c-16.62223,8.73371 -26.70718,14.37967 -22.12953,-3.20614c9.2048,-35.36176 43.96071,2.95594 89.81753,-7.34627c43.8937,-9.86118 83.3075,11.99856 74.10269,47.36032z" fill="#ef8b89" stroke-width="0"/></g><path d="M422.10373,133.84294c-5.91567,22.72602 4.12559,10.07964 -10.88029,-3.72111c-1.83628,-1.68881 -11.71826,3.43488 -14.11806,1.54114c-1.50735,-1.18949 -6.03036,-12.08435 -7.76082,-13.23336c-1.2099,-0.80336 -14.47637,4.88849 -15.75292,4.09053c-3.1838,-1.99015 -9.04238,-14.10633 -12.60249,-15.71297c-1.96044,-0.88473 -12.20513,9.06761 -14.23596,8.27667c-2.619,-1.02001 -6.96043,-14.28242 -9.67932,-14.99016c-7.23066,-1.88217 -9.19531,4.85084 -15.91076,9.30915c-4.36386,2.89712 -10.60599,-16.2476 -14.82597,-12.76308c-5.2407,4.32736 -10.39283,8.4729 -15.51197,10.85996c-4.01616,1.87274 -10.73035,-13.22649 -14.24634,-11.4367c-16.9762,8.64157 -27.2737,14.2322 -22.69604,-3.3536c9.2048,-35.36176 59.04649,-68.59474 103.49222,-57.02534c44.44573,11.56939 73.93354,62.79712 64.72874,98.15889z" fill="#873412" stroke-width="2"/><path d="M422.15691,132.65525c-5.91567,22.72602 4.12559,10.07964 -10.88029,-3.72111c-1.83628,-1.68881 -11.71826,3.43488 -14.11806,1.54114c-1.50735,-1.18949 -6.03036,-12.08435 -7.76082,-13.23336c-1.2099,-0.80336 -14.47637,4.88849 -15.75292,4.09053c-3.1838,-1.99015 -9.04238,-14.10633 -12.60249,-15.71297c-1.96044,-0.88473 -12.20513,9.06761 -14.23596,8.27667c-2.619,-1.02001 -6.96043,-14.28242 -9.67932,-14.99016c-7.23066,-1.88217 -9.19531,4.85084 -15.91076,9.30915c-4.36386,2.89712 -10.60599,-16.2476 -14.82597,-12.76308c-5.2407,4.32736 -10.39283,8.4729 -15.51198,10.85995c-4.01616,1.87274 -10.73035,-13.22649 -14.24634,-11.4367c-16.9762,8.64157 -27.2737,14.2322 -22.69604,-3.3536c9.2048,-35.36176 45.06415,3.24318 91.98608,-6.78179c44.91319,-9.5958 85.43967,12.55358 76.23487,47.91534z" fill="#741d23" stroke-width="0"/></g><path d="M357.06055,46.32877c0.03381,0.12829 0.05213,0.27096 0.05783,0.42419c0.02588,0.27452 0.00641,0.55791 -0.06417,0.84027c-0.18104,1.12706 -0.67661,2.42098 -0.75699,2.90855c-0.1056,0.64058 1.34018,-0.42337 1.93983,-0.17457c0.36732,0.15241 0.57322,0.93622 0.92588,0.75241c2.14016,-1.1155 4.4122,-3.47954 6.66902,-1.21476c0.74742,0.75005 0.17819,2.00006 0.55215,2.80495c0.03144,0.06766 2.55948,0.52509 3.00164,1.19087c0.76188,1.1472 -0.25835,2.25967 -0.00222,3.35207c0.08196,0.34956 0.66737,-0.28327 1.02176,-0.3408c1.57723,-0.25601 4.3738,-0.93492 5.81795,0.47611c0.76095,0.7435 0.18015,2.25774 0.5594,2.81309c0.66488,0.97359 2.21507,-0.83399 3.36833,-1.07879c1.59503,-0.33858 2.12236,0.52287 3.10335,1.69389c0.1692,0.20198 -0.58325,4.1179 0.19176,5.51595c0.43564,0.78584 1.81461,-0.41495 2.68787,-0.20339c0.87129,0.21108 2.80942,-0.0308 3.19158,0.17575c0.76658,0.41431 1.10759,1.98384 1.94581,1.74575c4.27966,-1.21561 8.66722,1.42352 5.83558,5.81184c-0.35835,0.55536 1.42386,-0.22241 1.978,0.13781c0.21483,0.13964 1.27284,1.44917 1.51437,1.42318c1.57984,-0.17004 2.66942,-0.6274 4.21024,-0.23032c1.27962,0.32977 2.31986,1.36922 2.26898,2.78245c-0.02674,0.74272 -1.50005,1.80341 -0.80926,2.07753c1.6283,0.64615 4.08347,2.03477 2.69688,4.29589c-1.50517,2.45448 -4.3341,4.18684 -6.29717,1.51519c-0.68109,-0.92693 -2.54299,0.6221 -3.4497,-0.08569c-1.16157,-0.90672 -1.23157,-3.28967 -0.86599,-4.41032c0.169,-0.51804 -1.13288,0.09156 -1.62933,-0.13312c-0.6684,-0.30249 -0.72522,-1.44466 -1.41938,-1.68218c-1.55268,-0.53128 -2.13776,2.81853 -5.70083,1.07828c-1.05168,-0.51365 -1.88545,-2.74447 -1.97616,-3.90261c-0.05266,-0.67227 2.06751,-2.19968 1.94115,-2.34167c-0.30682,-0.34478 -2.5953,2.24609 -3.04379,2.27623c-1.07897,0.07251 -1.98305,-0.90858 -2.84005,-1.56811c-0.75716,-0.5827 -1.59222,1.53845 -2.52876,1.34943c-0.8274,-0.16699 -8.93023,-2.82315 -9.12803,-3.39439c-0.24116,-0.69643 -0.36062,-1.87222 -0.02922,-2.51929c0.1191,-0.23255 1.4082,-1.53603 1.22741,-1.56227c-0.64162,-0.09314 -4.91958,2.27374 -6.19928,-1.4219c-0.69589,-2.00966 1.84739,-3.23751 2.25966,-4.80846c0.2546,-0.97014 -1.4952,1.34206 -2.17293,2.08143c-0.52055,0.5679 -1.71753,0.90172 -2.47333,0.73079c-2.61314,-0.59095 -1.25201,-2.88316 -1.41447,-4.49031c-0.07497,-0.74168 -1.67683,0.17852 -2.21003,-0.34245c-1.30369,-1.27378 -0.78235,-2.34139 -0.52965,-3.85884c0.1157,-0.69481 -1.21498,2.48938 -2.84851,2.23626c-0.66247,-0.10265 -1.42927,-1.35096 -1.83694,-0.81877c-1.98472,2.59103 -1.60767,3.94166 -5.16011,2.51984c-0.3428,-0.1372 -1.14662,0.5237 -1.47034,0.20741c-3.58285,-3.50069 1.16541,-7.89236 2.29318,-11.74047c0.39782,-1.35739 0.03445,-3.63618 1.39974,-4.00595c0.60647,-0.60354 1.50723,-0.87985 2.3952,-0.64871c0.78733,0.20495 1.38893,0.76313 1.67916,1.46045c0.05272,0.09326 0.09459,0.19283 0.12291,0.30029z" fill="#ba587e" stroke="none" stroke-width="0.5"/></g><g stroke="#000000" stroke-linecap="butt"><path d="M358.58173,159.61102c-7.19426,27.63794 -23.64865,38.57621 -39.68287,34.40244c-16.03422,-4.17377 -25.57644,-21.87906 -18.38218,-49.51699c7.19426,-27.63794 26.02467,-46.6594 42.05889,-42.48563c16.03422,4.17377 23.20043,29.96225 16.00617,57.60019z" fill="#f0f0f0" stroke-width="2"/><path d="M318.26681,128.88195c-11.27598,26.23862 17.49092,68.66202 1.4567,64.48825c-16.03422,-4.17377 -25.57644,-21.87906 -18.38218,-49.51699c7.19426,-27.63794 33.22721,-52.90454 16.92548,-14.97126z" fill="#9a99ff" stroke-width="0"/></g><path d="M352.73886,166.59771c-3.98576,15.31196 -11.75456,26.54358 -17.35209,25.08652c-5.59753,-1.45706 -6.90413,-15.05104 -2.91837,-30.36299c3.98576,-15.31196 11.75456,-26.54358 17.35209,-25.08652c5.59753,1.45706 6.90413,15.05104 2.91837,30.36299z" fill="#000000" stroke="none" stroke-width="0" stroke-linecap="butt"/><g stroke="#000000" stroke-linecap="butt"><path d="M361.29998,129.28305c1.73866,11.02329 0.74652,34.16294 -14.45709,30.20538c-15.20362,-3.95756 -39.01672,-34.32883 -32.19631,-42.48908c6.48951,-7.76436 11.9664,-19.01778 27.17002,-15.06022c15.20362,3.95756 17.82641,16.83858 19.48338,27.34391z" fill="#a100fe" stroke-width="2"/><path d="M360.49476,128.7074c1.59151,10.98498 0.96301,33.72875 -13.7222,29.90614c-14.68521,-3.82262 -38.00972,-33.57616 -31.33928,-41.77546c6.34682,-7.8015 6.10439,2.58308 20.7896,6.4057c14.68521,3.82262 22.75515,-5.00522 24.27187,5.46361z" fill="#99008e" stroke-width="0"/></g><g data-paper-data="{&quot;index&quot;:null}" stroke="#000000" stroke-linecap="butt"><path d="M404.50842,117.06032c16.03422,4.17377 23.20043,29.96225 16.00617,57.60019c-7.19426,27.63793 -24.158,38.44362 -40.19222,34.26985c-16.03422,-4.17377 -25.0671,-21.74647 -17.87284,-49.38441c7.19426,-27.63794 26.02467,-46.6594 42.05889,-42.48563z" fill="#f0f0f0" stroke-width="2"/><path d="M420.10823,173.6968c-7.19426,27.63793 -24.158,38.44362 -40.19222,34.26985c-16.03422,-4.17377 29.7661,-27.18703 32.71441,-55.59338c4.26239,-41.06718 14.67207,-6.31441 7.47781,21.32352z" fill="#9a99ff" stroke-width="0"/></g><path d="M409.60298,151.16318c5.59753,1.45706 6.90413,15.05104 2.91837,30.36299c-3.98576,15.31196 -11.75456,26.54358 -17.35209,25.08652c-5.59753,-1.45706 -6.90413,-15.05104 -2.91837,-30.36299c3.98576,-15.31196 11.75456,-26.54358 17.35209,-25.08652z" data-paper-data="{&quot;index&quot;:null}" fill="#000000" stroke="none" stroke-width="0" stroke-linecap="butt"/><g data-paper-data="{&quot;index&quot;:null}" stroke="#000000" stroke-linecap="butt"><path d="M374.86332,131.74173c6.56876,-8.36414 15.13909,-18.33155 30.34271,-14.37399c15.20362,3.95756 14.49856,16.45311 16.37877,26.39614c1.97608,10.45002 -32.41456,25.42536 -47.61818,21.4678c-15.20362,-3.95756 -5.99594,-24.71341 0.89669,-33.48994z" fill="#a100fe" stroke-width="2"/><path d="M375.84702,131.63175c6.42853,-8.40065 9.17005,3.24146 23.85527,7.06407c14.68521,3.82262 19.53677,-5.36219 21.27429,4.54369c1.82611,10.41098 -32.00668,24.79572 -46.69189,20.97311c-14.68521,-3.82262 -5.18315,-23.76603 1.56232,-32.58086z" fill="#99008e" stroke-width="0"/></g><path d="M371.63632,338.87001c0,11.6628 -14.51982,21.11737 -32.43092,21.11737c-17.9111,0 -32.43092,-9.45457 -32.43092,-21.11737c0,-2.33142 -0.03339,-13.76009 1.08979,-15.13837c4.49546,-5.51647 17.81784,5.26144 32.14847,5.26144c17.9111,0 31.62358,-1.78588 31.62358,9.87692z" fill="#000082" stroke="#000000" stroke-width="2" stroke-linecap="butt"/><path d="M369.75004,336.13771c0,6.30841 -13.89058,10.1901 -31.80169,10.1901c-17.9111,0 -30.16566,-2.95748 -30.16566,-9.26589c0,-1.26107 -0.03338,-12.52602 1.0898,-13.27153c4.49546,-2.98386 15.55258,5.7726 29.88321,5.7726c17.9111,0 30.99434,0.26631 30.99434,6.57472z" fill="#2e0048" stroke="#000000" stroke-width="0" stroke-linecap="butt"/><path d="M328.64938,338.2252c0,11.6628 -14.51982,21.11737 -32.43092,21.11737c-17.9111,0 -32.43092,-9.45457 -32.43092,-21.11737c0,-2.33142 -0.03339,-13.76009 1.08979,-15.13837c4.49546,-5.51647 17.81784,5.26144 32.14847,5.26144c17.9111,0 31.62358,-1.78588 31.62358,9.87692z" fill="#000082" stroke="#000000" stroke-width="2" stroke-linecap="butt"/><path d="M326.7631,335.49289c0,6.30841 -13.89058,10.1901 -31.80169,10.1901c-17.9111,0 -30.16566,-2.95748 -30.16566,-9.26589c0,-1.26107 -0.03338,-12.52602 1.0898,-13.27153c4.49546,-2.98386 15.55258,5.7726 29.88321,5.7726c17.9111,0 30.99434,0.26631 30.99434,6.57472z" fill="#2e0048" stroke="#000000" stroke-width="0" stroke-linecap="butt"/><g><g><path d="M307.31317,248.24441c-14.46362,4.29262 -25.06982,-0.47378 -29.98253,-14.57962c-3.84231,-11.03231 4.52747,-27.09378 18.99111,-31.3864c14.46368,-4.29267 27.74447,1.93506 31.99436,16.25454c0.66461,2.23929 0.61336,4.50316 0.58589,6.57127c-0.14835,11.15655 -9.387,19.51886 -21.5888,23.14021z" fill="#485e84" stroke="#000000" stroke-width="2" stroke-linecap="butt"/><path d="M285.50001,210.79164c0,0 1.20987,5.62736 3.08913,6.32144c18.02629,6.65783 31.74815,3.66974 36.21117,2.3351c1.014,-0.30322 1.29187,-1.39117 1.29187,-1.39117c0,0 0.81091,1.95206 1.00351,4.68645c0.20495,2.90963 -0.24421,6.69145 -1.53469,9.48067c-1.47413,3.18607 -6.80621,9.59522 -6.80621,9.59522l-18.90776,9.01971c0,0 -12.33432,-5.36839 -13.9015,-6.86534c-1.53533,-1.4665 -2.93147,-3.64217 -4.50901,-5.89568c-2.44933,-3.49891 -3.59893,-7.89041 -3.51522,-10.76926c0.10687,-3.67407 1.73653,-8.04398 3.66817,-11.33506c1.79775,-3.06296 3.9106,-5.18197 3.9106,-5.18197z" fill="#343545" stroke="none" stroke-width="0" stroke-linecap="butt"/><path d="M294.68252,233.43781c0,0 -4.30313,-7.92977 -3.49565,-13.02173c1.02215,-6.4459 6.54327,-18.17704 6.54327,-18.17704" fill="none" stroke="#000000" stroke-width="1" stroke-linecap="round"/><path d="M324.78749,212.38532c0,0 0.54359,7.12982 -0.16193,11.3694c-0.7122,4.28006 -5.57682,12.67579 -5.57682,12.67579" fill="none" stroke="#000000" stroke-width="1" stroke-linecap="round"/><path d="M285.46781,239.39141c0,0 -4.5387,-8.07382 -3.41294,-13.54936c1.72746,-8.40203 6.22143,-19.09314 6.22143,-19.09314" fill="none" stroke="#000000" stroke-width="1" stroke-linecap="round"/><path d="M277.28229,226.48422c0,0 10.14687,-14.01843 27.56853,-13.8461c19.08322,0.18876 23.6765,16.81381 23.6765,16.81381" fill="none" stroke="#000000" stroke-width="1" stroke-linecap="round"/><path d="M278.74975,235.8944c0,0 12.66713,-12.50625 28.04066,-12.38724c12.62307,0.09773 17.80205,13.73947 17.80205,13.73947" fill="none" stroke="#000000" stroke-width="1" stroke-linecap="round"/><path d="M311.12391,206.51859c-1.16198,-0.31145 -1.90402,-1.30964 -1.65746,-2.22949c0.24651,-0.9199 1.02125,-0.73616 2.18322,-0.42471c1.16198,0.31145 2.27112,0.63267 2.02457,1.55254c-0.24651,0.9199 -1.38839,1.41313 -2.55032,1.10165z" fill="#8fbbbe" stroke="none" stroke-width="0" stroke-linecap="butt"/><path d="M317.82473,209.33959c-0.57663,0.17112 -1.25216,-0.39129 -1.50887,-1.25622c-0.25671,-0.86494 -0.2421,-1.25352 0.33451,-1.42467c0.57663,-0.17112 1.42619,0.33964 1.68286,1.20458c0.25671,0.86494 0.06807,1.30518 -0.50854,1.4763z" fill="#8fbbbe" stroke="none" stroke-width="0" stroke-linecap="butt"/><path d="M304.42501,204.78979c-0.8874,0.16307 -1.69483,-0.18426 -1.80356,-0.77582c-0.10876,-0.59152 0.67741,-0.68131 1.56477,-0.84441c0.8874,-0.16307 1.53989,-0.33779 1.64864,0.25377c0.10876,0.59152 -0.52249,1.20336 -1.40985,1.36644z" fill="#8fbbbe" stroke="none" stroke-width="0" stroke-linecap="butt"/><path d="M282.51714,214.13831c0,0 8.33271,-5.9368 15.69244,-7.74071c4.1726,-1.02271 8.20321,-0.48365 11.25443,-0.04072c2.69835,0.39167 8.31457,3.80984 12.34102,6.87348c2.96447,2.25558 4.93147,4.44598 4.93147,4.44598" fill="none" stroke="#000000" stroke-width="0.5" stroke-linecap="round"/><path d="M314.55996,202.16697c0,0 2.61619,10.24371 1.94634,15.60733c-0.56435,4.51898 -5.35551,14.37337 -5.35551,14.37337" fill="none" stroke="#000000" stroke-width="1" stroke-linecap="round"/><path d="M305.29165,232.18254c0,0 -2.28716,-9.39133 -2.21562,-13.91302c0.12562,-7.93922 4.91521,-17.18241 4.91521,-17.18241" fill="none" stroke="#000000" stroke-width="1" stroke-linecap="round"/></g><g stroke="#000000" stroke-linecap="butt"><path d="M278.29377,241.26536c33.33013,0.64885 38.9033,8.52254 38.74581,16.61238c-0.15749,8.08985 -27.30458,14.12196 -60.63472,13.4731c-33.33013,-0.64886 15.46056,-53.89318 15.61805,-61.98302c4.00062,-5.85861 7.84269,-0.58261 8.03405,7.27356c0.23599,9.6885 -4.61212,24.56852 -1.76319,24.62399z" fill="#0d69be" stroke-width="2"/><path d="M303.56896,229.66728c14.30614,0.2785 25.67197,12.40015 25.3863,27.07446c-0.28567,14.67431 -12.11467,26.34442 -26.42081,26.06592c-14.30614,-0.2785 -25.67197,-12.40016 -25.3863,-27.07447c0.28567,-14.67431 12.11467,-26.34441 26.42081,-26.06591z" fill="#faddbf" stroke-width="2"/><path d="M291.12789,269.17003c14.30614,0.2785 37.26344,-27.51427 36.97777,-12.83996c-0.28567,14.67431 -12.11467,26.34442 -26.42081,26.06591c-14.30614,-0.2785 -24.86311,-13.50446 -10.55696,-13.22595z" fill="#ef8b89" stroke-width="0"/></g></g><path d="M279.80712,141.79158c-0.07868,0.06902 -0.28752,0.2341 -0.56645,0.31506c-0.48287,0.73356 -0.82374,1.5339 -0.66256,2.2726c0.43742,2.00469 5.18157,3.9926 6.50559,5.44743c3.1673,3.48022 3.1983,11.66494 -1.89585,13.56405c-0.98145,0.36589 -3.13744,0.27204 -4.2312,0.26345c-3.66069,-1.23353 -8.85916,-5.01637 -10.34039,-8.75998c-1.38645,-3.50408 -0.64664,-8.97424 -0.11788,-12.67993c0.64355,-4.51022 1.71324,-9.09842 6.07801,-11.10286c2.92978,-0.64924 6.01437,-0.75837 8.55804,1.21248c2.79767,2.16765 2.43096,6.8302 -0.5509,8.63232c-0.13998,0.0846 -1.9961,0.61387 -2.77642,0.83538z" fill="#000000" stroke="none" stroke-width="0.5" stroke-linecap="butt"/></g></g></svg>