<svg version="1.1" xmlns="http://www.w3.org/2000/svg" xmlns:xlink="http://www.w3.org/1999/xlink" width="186.19538" height="329.16619" viewBox="0,0,186.19538,329.16619"><g transform="translate(-203.29632,-31.82119)"><g data-paper-data="{&quot;isPaintingLayer&quot;:true}" fill-rule="nonzero" stroke-linejoin="miter" stroke-miterlimit="10" stroke-dasharray="" stroke-dashoffset="0" style="mix-blend-mode: normal"><g stroke="#000000" stroke-linecap="butt"><path d="M326.73381,239.71365c-14.19797,30.24441 -31.73368,52.00352 -39.16711,48.60031c-7.43342,-3.40321 -1.94966,-30.68 12.24831,-60.92442c14.19797,-30.24441 31.73368,-52.00352 39.16711,-48.60031c7.43342,3.40321 1.94966,30.68001 -12.24832,60.92443z" fill="#0d69be" stroke-width="2"/><path d="M319.20734,287.34966c-6.09412,12.98167 -21.96502,18.50106 -35.44865,12.32792c-13.48361,-6.17314 -19.47399,-21.70119 -13.37985,-34.68286c6.09413,-12.98167 21.96503,-18.50106 35.44865,-12.32792c13.48362,6.17314 19.47398,21.70119 13.37985,34.68285z" fill="#faddbf" stroke-width="2"/><path d="M287.67137,260.04877c-6.09413,12.98167 10.29907,45.19018 -3.18456,39.01704c-13.48361,-6.17314 -19.47398,-21.70118 -13.37985,-34.68285c6.09413,-12.98167 22.65853,-17.31587 16.56439,-4.3342z" fill="#ef8b89" stroke-width="0"/></g><g stroke="#000000" stroke-linecap="butt"><path d="M309.06954,340.83533v-95.29492h29.86377v95.29492z" fill="#73fffc" stroke-width="2"/><path d="M308.73968,340.21739l1.34298,-93.78573c0,0 5.26847,68.11227 6.46033,77.52842c0.26348,2.08162 2.55407,2.78987 2.55407,2.78987l18.84115,13.13896z" fill="#59a9e6" stroke-width="0"/></g><g stroke="#000000" stroke-linecap="butt"><path d="M269.23221,338.4128v-95.29492h29.86377v95.29492z" fill="#73fffc" stroke-width="2"/><path d="M268.90236,337.79487l1.34298,-93.78573c0,0 5.26847,68.11227 6.46033,77.52842c0.26348,2.08162 2.55407,2.78987 2.55407,2.78987l18.84115,13.13896z" fill="#59a9e6" stroke-width="0"/></g><g stroke="#000000" stroke-linecap="butt"><path d="M336.87975,235.69585c0,13.80271 10.17409,36.74388 5.01241,46.45977c-6.31239,11.88187 -28.97311,9.09579 -39.43058,9.09579c-13.83511,0 -33.35937,4.17018 -38.82764,-14.83216c-2.04481,-7.10576 4.40946,-32.37264 4.40946,-40.7234c0,-30.68249 15.40953,-55.55556 34.41817,-55.55556c19.00864,0 34.41817,24.87307 34.41817,55.55556z" fill="#0d69be" stroke-width="2"/><path d="M284.96987,251.27245c0,13.80271 62.82409,20.54886 57.6624,30.26474c-6.31239,11.88186 -28.97311,9.09579 -39.43058,9.09579c-13.83511,0 -33.35936,4.17018 -38.82763,-14.83215c-2.04482,-7.10576 4.40946,-32.37265 4.40946,-40.7234c0,-9.45244 3.39077,-28.59801 5.58912,-29.96813c6.01884,-16.76415 10.59723,25.13995 10.59723,46.16315z" fill="#10157d" stroke-width="0"/></g><path d="M373.74586,338.87001c0,11.6628 -14.70286,21.11737 -32.83975,21.11737c-18.13689,0 -32.83975,-9.45457 -32.83975,-21.11737c0,-2.33142 -0.03381,-13.76009 1.10353,-15.13837c4.55213,-5.51647 18.04245,5.26144 32.55374,5.26144c18.13689,0 32.02224,-1.78588 32.02224,9.87692z" fill="#000082" stroke="#000000" stroke-width="2" stroke-linecap="butt"/><path d="M371.8358,336.13771c0,6.30841 -14.06568,10.1901 -32.20259,10.1901c-18.13689,0 -30.54593,-2.95748 -30.54593,-9.26589c0,-1.26107 -0.0338,-12.52602 1.10354,-13.27153c4.55213,-2.98386 15.74864,5.7726 30.25993,5.7726c18.13689,0 31.38506,0.26631 31.38506,6.57472z" fill="#2e0048" stroke="#000000" stroke-width="0" stroke-linecap="butt"/><path d="M330.21701,338.2252c0,11.6628 -14.70286,21.11737 -32.83975,21.11737c-18.13689,0 -32.83975,-9.45457 -32.83975,-21.11737c0,-2.33142 -0.03381,-13.76009 1.10353,-15.13837c4.55213,-5.51647 18.04245,5.26144 32.55374,5.26144c18.13689,0 32.02224,-1.78588 32.02224,9.87692z" fill="#000082" stroke="#000000" stroke-width="2" stroke-linecap="butt"/><path d="M328.30695,335.49289c0,6.30841 -14.06568,10.1901 -32.20259,10.1901c-18.13689,0 -30.54593,-2.95748 -30.54593,-9.26589c0,-1.26107 -0.0338,-12.52602 1.10354,-13.27153c4.55213,-2.98386 15.74864,5.7726 30.25993,5.7726c18.13689,0 31.38506,0.26631 31.38506,6.57472z" fill="#2e0048" stroke="#000000" stroke-width="0" stroke-linecap="butt"/><g><g><path d="M288.25522,260.70972c-15.08491,-2.38726 -22.67965,-11.27305 -20.98514,-26.11585c1.32526,-11.60871 16.00257,-22.46831 31.0875,-20.08105c15.08499,2.38722 24.48128,13.74762 22.08807,28.49629c-0.37424,2.30641 -1.41279,4.32528 -2.34387,6.17795c-5.02292,9.99426 -17.12059,13.53661 -29.84652,11.52268z" fill="#485e84" stroke="#000000" stroke-width="2" stroke-linecap="butt"/><path d="M284.7485,217.50632c0,0 -1.3607,5.5969 0.05088,7.03568c13.54023,13.80118 27.37645,17.04365 32.03561,17.77121c1.05855,0.1653 1.78884,-0.69534 1.78884,-0.69534c0,0 -0.11484,2.11074 -1.13689,4.65932c-1.08755,2.7119 -3.15435,5.92718 -5.55439,7.88357c-2.74155,2.23473 -10.41712,5.70624 -10.41712,5.70624l-21.21299,-0.04808c0,0 -8.90869,-10.17617 -9.68364,-12.20377c-0.75921,-1.98638 -1.0807,-4.55191 -1.53365,-7.2661c-0.70329,-4.21417 0.17104,-8.67077 1.50863,-11.23005c1.70711,-3.2662 5.10925,-6.50097 8.31449,-8.63243c2.98305,-1.98373 5.84026,-2.9801 5.84026,-2.9801z" fill="#343545" stroke="none" stroke-width="0" stroke-linecap="butt"/><path d="M283.2107,241.89611c0,0 -0.45461,-9.01092 2.51325,-13.25235c3.75699,-5.36925 13.93662,-13.55713 13.93662,-13.55713" fill="none" stroke="#000000" stroke-width="1" stroke-linecap="round"/><path d="M319.91738,235.93999c0,0 -2.62717,6.66322 -5.12854,10.18029c-2.52521,3.55067 -10.64431,9.01546 -10.64431,9.01546" fill="none" stroke="#000000" stroke-width="1" stroke-linecap="round"/><path d="M272.19009,243.27718c0,0 -0.60656,-9.24271 2.81992,-13.69226c5.25784,-6.8277 14.04413,-14.52231 14.04413,-14.52231" fill="none" stroke="#000000" stroke-width="1" stroke-linecap="round"/><path d="M270.3716,228.09915c0,0 15.40468,-8.24882 31.23408,-0.55636c17.33911,8.4261 14.24938,25.40197 14.24938,25.40197" fill="none" stroke="#000000" stroke-width="1" stroke-linecap="round"/><path d="M267.58888,237.21796c0,0 17.04306,-5.79515 31.026,0.96316c11.48126,5.5492 10.23316,20.08878 10.23316,20.08878" fill="none" stroke="#000000" stroke-width="1" stroke-linecap="round"/><path d="M310.01348,224.73947c-0.92439,-0.7835 -1.16452,-2.00446 -0.53647,-2.72711c0.62804,-0.72272 1.25484,-0.22188 2.1792,0.56161c0.92439,0.7835 1.79624,1.55295 1.16817,2.27561c-0.62804,0.72272 -1.88659,0.67339 -2.81091,-0.11012z" fill="#8fbbbe" stroke="none" stroke-width="0" stroke-linecap="butt"/><path d="M314.89509,230.18177c-0.60139,-0.09518 -0.97172,-0.8945 -0.82718,-1.78535c0.14455,-0.89086 0.32811,-1.23488 0.92951,-1.13973c0.60139,0.09518 1.15323,0.92322 1.00865,1.81407c-0.14455,0.89086 -0.50964,1.20617 -1.11101,1.11099z" fill="#8fbbbe" stroke="none" stroke-width="0" stroke-linecap="butt"/><path d="M304.65515,220.28271c-0.88158,-0.23689 -1.46654,-0.89935 -1.30665,-1.47973c0.15985,-0.58036 0.9169,-0.32118 1.79846,-0.08434c0.88158,0.23689 1.5538,0.36166 1.39394,0.94204c-0.15985,0.58036 -1.00417,0.85886 -1.88572,0.62199z" fill="#8fbbbe" stroke="none" stroke-width="0" stroke-linecap="butt"/><path d="M280.55921,219.23314c0,0 10.20805,-1.74749 17.7173,-0.18983c4.25736,0.88313 7.70091,3.11288 10.29243,4.83226c2.29184,1.5205 5.92167,7.03196 8.25544,11.53601c1.71826,3.31608 2.55443,6.14186 2.55443,6.14186" fill="none" stroke="#000000" stroke-width="0.5" stroke-linecap="round"/><path d="M315.05675,222.3027c0,0 -2.09915,10.36728 -5.06039,14.91318c-2.49489,3.83004 -11.18596,10.64171 -11.18596,10.64171" fill="none" stroke="#000000" stroke-width="1" stroke-linecap="round"/><path d="M293.4461,245.3542c0,0 2.02614,-9.45646 4.07231,-13.50214c3.5927,-7.10343 12.01458,-13.36474 12.01458,-13.36474" fill="none" stroke="#000000" stroke-width="1" stroke-linecap="round"/></g><g stroke="#000000" stroke-linecap="butt"><path d="M264.81969,241.86299c30.1441,15.00451 31.78276,24.51433 28.09498,31.73977c-3.68779,7.22545 -31.11396,0.91926 -61.25807,-14.08525c-30.1441,-15.00451 37.72414,-41.89997 41.41191,-49.12541c6.21886,-3.55119 7.41511,2.8677 4.14817,10.03339c-4.02891,8.83699 -14.97359,20.15498 -12.397,21.43751z" fill="#0d69be" stroke-width="2"/><path d="M292.97528,242.34123c12.93863,6.44032 18.00467,22.28604 11.31532,35.3924c-6.68935,13.10638 -22.60093,18.51028 -35.53956,12.06996c-12.93861,-6.44031 -18.00466,-22.28604 -11.31531,-35.39241c6.68935,-13.10638 22.60093,-18.51027 35.53955,-12.06996z" fill="#faddbf" stroke-width="2"/><path d="M264.31193,272.57347c12.93861,6.44031 46.0727,-8.68493 39.38336,4.42144c-6.68935,13.10638 -22.60093,18.51028 -35.53955,12.06996c-12.93863,-6.44032 -16.78243,-22.93171 -3.84381,-16.49138z" fill="#ef8b89" stroke-width="0"/></g></g><g stroke-linecap="butt"><g data-paper-data="{&quot;index&quot;:null}"><g stroke="#000000"><g><path d="M299.9644,205.00007c-47.38064,0 -85.79025,-37.93143 -85.79025,-84.72222c0,-46.79079 38.4096,-84.72222 85.79025,-84.72222c47.38064,0 85.79025,37.93143 85.79025,84.72222c0,46.79079 -38.4096,84.72222 -85.79025,84.72222z" fill="#faddbf" stroke-width="2"/><path d="M385.52095,119.40835c0,46.79079 -38.4096,84.72222 -85.79025,84.72222c-6.13934,0 -18.72601,-1.96005 -21.12865,-2.76903c-1.50199,-0.50573 27.52261,-6.87938 48.05684,-20.18586c11.01848,-7.14014 17.32238,-21.55104 20.24426,-26.29351c1.63888,-0.43891 6.09891,-20.08018 6.10189,-20.14049c1.25453,-25.28993 -24.56213,-87.57384 -16.49296,-90.14485c0.61847,-0.19706 12.73658,6.61116 22.2019,14.95935c7.61531,6.71653 12.95325,15.25975 13.47468,15.62682c4.56589,3.21417 13.33229,29.17106 13.33229,44.22534z" fill="#ef8b89" stroke-width="0"/><path d="M214.70418,119.81966c0,-36.54015 44.19966,-47.76623 84.69788,-27.16584c42.30949,21.52174 86.14281,-6.80492 86.14281,29.73523c0,18.17183 -8.44256,10.16746 -22.50368,-2.47189c-2.91224,-2.61778 -13.07569,10.30314 -16.44487,7.47909c-4.2945,-3.59963 -8.18342,-8.90935 -12.11173,-14.41734c-3.16319,-4.4352 -13.88138,12.51967 -17.32795,8.61668c-5.30385,-6.00622 -5.5063,-13.01701 -12.87792,-13.01701c-2.7719,0 -10.21331,11.74106 -12.96744,12.06843c-2.1356,0.25385 -9.44371,-11.95827 -11.53542,-11.59592c-3.7985,0.65801 -12.40361,10.90762 -15.93814,12.03156c-1.41718,0.45065 -12.66936,-8.39959 -14.02424,-7.92692c-1.9378,0.67603 -8.96418,10.08015 -10.69903,10.85157c-2.76199,1.22814 -10.92389,-6.21968 -13.0969,-5.04791c-8.96754,4.83563 -8.58627,12.76015 -9.15657,14.64925c-0.55901,1.85172 -2.15677,-2.16465 -2.15677,-13.78899z" fill="#ef8b89" stroke-width="0"/></g><path d="M213.15095,111.50877c0,-36.54015 41.96401,-78.68758 88.4698,-78.68758c46.5058,0 86.87096,44.71682 86.87096,81.25697c0,18.17183 -8.66495,10.16746 -23.09646,-2.47189c-2.98895,-2.61778 -13.42011,10.30314 -16.87804,7.47909c-4.4076,-3.59963 -8.39897,-8.90935 -12.43076,-14.41734c-3.24652,-4.4352 -14.24702,12.51967 -17.78438,8.61668c-5.44356,-6.00622 -5.65134,-13.01701 -13.21713,-13.01701c-2.8449,0 -10.48234,11.74106 -13.30901,12.06843c-2.19187,0.25385 -9.69246,-11.95827 -11.83928,-11.59592c-3.89855,0.65801 -12.73033,10.90762 -16.35795,12.03156c-1.45451,0.45065 -13.00307,-8.39959 -14.39365,-7.92692c-1.98885,0.67603 -9.2003,10.08015 -10.98084,10.85157c-2.83475,1.22814 -11.21163,-6.21968 -13.44188,-5.04791c-18.22538,9.57557 -11.61134,24.3436 -11.61134,0.86026z" fill="#873412" stroke-width="2"/><path d="M213.40184,110.34598c0,-36.54015 45.36392,-47.76623 86.92888,-27.16584c43.42394,21.52174 88.41188,-6.80492 88.41188,29.73523c0,18.17183 -8.66495,10.16746 -23.09646,-2.47189c-2.98895,-2.61778 -13.42011,10.30314 -16.87804,7.47909c-4.40761,-3.59963 -8.39898,-8.90935 -12.43077,-14.41734c-3.24652,-4.4352 -14.24702,12.51967 -17.78438,8.61668c-5.44356,-6.00622 -5.65134,-13.01701 -13.21713,-13.01701c-2.8449,0 -10.48234,11.74106 -13.30901,12.06843c-2.19187,0.25385 -9.69246,-11.95827 -11.83928,-11.59592c-3.89855,0.65801 -12.73033,10.90762 -16.35795,12.03156c-1.45451,0.45065 -13.00307,-8.39959 -14.39365,-7.92692c-1.98886,0.67603 -9.20031,10.08015 -10.98085,10.85157c-2.83475,1.22814 -11.21163,-6.21968 -13.44188,-5.04791c-18.22538,9.57557 -11.61134,24.3436 -11.61134,0.86026z" fill="#741d23" stroke-width="0"/></g><path d="M299.21363,43.20187c0.05517,-0.09686 0.1216,-0.18267 0.19705,-0.25964c0.46229,-0.60173 1.19421,-0.99036 2.01803,-0.99036c0.92913,0 1.74134,0.49431 2.1817,1.23116c1.24359,0.70178 0.30623,2.81554 0.34982,4.22937c0.12357,4.0081 3.65638,9.45428 -0.7476,11.93952c-0.39791,0.22455 -1.01703,-0.61753 -1.38796,-0.57111c-3.8439,0.48107 -3.12988,-0.73102 -4.41388,-3.73846c-0.26373,-0.61773 -1.33358,0.39716 -2.00896,0.32962c-1.66535,-0.16655 -2.15711,-3.58326 -2.22096,-2.88171c-0.13945,1.53217 0.0991,2.69668 -1.50337,3.60097c-0.65541,0.36985 -1.99042,-0.9242 -2.25308,-0.22532c-0.56916,1.51439 0.17997,4.07556 -2.53152,3.98918c-0.78424,-0.02498 -1.87208,-0.64956 -2.23732,-1.33028c-0.47554,-0.88626 -1.60044,-3.56468 -1.59842,-2.56169c0.00328,1.62414 2.18236,3.45307 0.98779,5.22262c-2.19675,3.25409 -5.78518,-0.11412 -6.4377,-0.18561c-0.18386,-0.02015 0.7469,1.56603 0.8043,1.82108c0.1597,0.70968 -0.25729,1.81746 -0.67127,2.43068c-0.33955,0.50299 -8.95747,1.03231 -9.81088,0.98549c-0.96598,-0.053 -1.24323,-2.3161 -2.13385,-1.94293c-1.00805,0.42238 -2.14426,1.14408 -3.18311,0.80211c-0.43181,-0.14215 -2.01352,-3.22595 -2.40213,-2.96958c-0.16004,0.10558 1.52799,2.11782 1.30491,2.75515c-0.38431,1.09794 -1.77041,3.04678 -2.93203,3.27894c-3.93555,0.78656 -3.6544,-2.60261 -5.31147,-2.4796c-0.74083,0.055 -1.08786,1.14602 -1.82001,1.27038c-0.54381,0.09237 -1.66409,-0.82553 -1.63062,-0.28162c0.0724,1.1766 -0.60406,3.46507 -1.97363,4.04994c-1.06908,0.45655 -2.49852,-1.51155 -3.4024,-0.78609c-2.60521,2.09098 -4.93553,-0.29815 -5.78441,-3.05264c-0.78202,-2.53749 1.97815,-3.26285 3.73862,-3.47798c0.74687,-0.09126 -0.42633,-1.48889 -0.26308,-2.21439c0.31063,-1.38047 1.59516,-2.12435 2.93325,-2.12114c1.61121,0.00387 2.56228,0.72096 4.06707,1.28349c0.23006,0.086 1.6009,-0.91478 1.84704,-0.9958c0.63492,-0.20901 2.18299,0.99263 1.9735,0.36491c-1.65548,-4.96012 3.31732,-6.40887 7.20109,-4.15438c0.76068,0.44157 1.49522,-0.99144 2.35211,-1.19928c0.42718,-0.10362 2.26475,0.6187 3.17242,0.63391c0.90972,0.01525 1.95474,1.52469 2.5821,0.87393c1.1161,-1.15773 1.37763,-5.13692 1.59496,-5.28976c1.26004,-0.88613 1.99653,-1.58696 3.47322,-0.8575c1.06769,0.52742 2.12573,2.66721 3.02562,1.89251c0.5133,-0.4419 0.33041,-2.05362 1.26576,-2.58145c1.77513,-1.00173 4.34244,0.35977 5.82275,1.00484c0.33261,0.14495 0.74486,0.90484 0.91435,0.5872c0.52965,-0.99265 -0.18635,-2.32625 0.85289,-3.24453c0.60313,-0.53293 3.19716,-0.33877 3.24523,-0.39633c0.57177,-0.68473 0.33283,-2.03782 1.25658,-2.5754c2.78929,-1.62323 4.41273,1.23692 6.22544,2.85557c0.2987,0.26672 0.7004,-0.43995 1.09924,-0.49491c0.6511,-0.08972 1.7965,1.30412 1.85641,0.6576c0.04559,-0.4921 -0.10998,-1.86913 0.00011,-3.00545c0.00285,-0.29104 0.05606,-0.57019 0.15145,-0.82934c0.04467,-0.14685 0.09901,-0.28031 0.16487,-0.39594z" fill="#ba587e" stroke="none" stroke-width="0.5"/></g><g data-paper-data="{&quot;index&quot;:null}" stroke="#000000"><path d="M299.20454,100.73709c16.7774,0 30.37819,23.15159 30.37819,51.71053c0,28.55893 -13.86725,43.28947 -30.64467,43.28947c-16.7774,0 -30.11171,-14.73053 -30.11171,-43.28947c0,-28.55894 13.60078,-51.71053 30.37819,-51.71053z" fill="#f0f0f0" stroke-width="2"/><path d="M328.93869,151.61737c0,28.55893 -13.86725,43.28947 -30.64467,43.28947c-16.7774,0 22.2343,-33.80863 17.87747,-62.0416c-6.29868,-40.81653 12.76719,-9.80681 12.76719,18.75213z" fill="#9a99ff" stroke-width="0"/></g><path d="M315.50857,132.55674c5.85697,0 10.605,12.82644 10.605,28.64865c0,15.82221 -4.74802,28.64865 -10.605,28.64865c-5.85697,0 -10.605,-12.82644 -10.605,-28.64865c0,-15.82221 4.74802,-28.64865 10.605,-28.64865z" data-paper-data="{&quot;index&quot;:null}" fill="#000000" stroke="none" stroke-width="0"/><g data-paper-data="{&quot;index&quot;:null}" stroke="#000000"><path d="M273.89882,122.41294c4.3035,-9.74914 10.15946,-21.55405 26.06777,-21.55405c15.90831,0 18.4048,12.27019 22.78364,21.41892c4.60211,9.61522 -26.48081,33.0083 -42.38912,33.0083c-15.90831,0 -10.97798,-22.64335 -6.4623,-32.87316z" fill="#a100fe" stroke-width="2"/><path d="M274.83474,122.0587c4.15676,-9.74914 9.81305,0.8269 25.17892,0.8269c15.36588,0 17.77725,-10.11076 22.00678,-0.96203c4.44518,9.61522 -26.00136,32.53358 -41.36723,32.53358c-15.36588,0 -10.18018,-22.16863 -5.81848,-32.39844z" fill="#99008e" stroke-width="0"/></g><g data-paper-data="{&quot;index&quot;:null}" stroke="#000000"><path d="M265.0527,151.41032c0,28.55894 -13.33431,43.28947 -30.11171,43.28947c-16.7774,0 -30.64467,-14.73054 -30.64467,-43.28947c0,-28.55894 13.60078,-51.71053 30.37819,-51.71053c16.7774,0 30.37819,23.15159 30.37819,51.71053z" fill="#f0f0f0" stroke-width="2"/><path d="M217.70756,131.82792c-4.35683,28.23297 34.65488,62.0416 17.87747,62.0416c-16.7774,0 -30.64467,-14.73054 -30.64467,-43.28947c0,-28.55894 19.06587,-59.56866 12.76719,-18.75213z" fill="#9a99ff" stroke-width="0"/></g><path d="M258.67587,160.85492c0,15.82221 -4.74802,28.64865 -10.605,28.64865c-5.85697,0 -10.605,-12.82644 -10.605,-28.64865c0,-15.82221 4.74802,-28.64865 10.605,-28.64865c5.85697,0 10.605,12.82644 10.605,28.64865z" data-paper-data="{&quot;index&quot;:null}" fill="#000000" stroke="none" stroke-width="0"/><g data-paper-data="{&quot;index&quot;:null}" stroke="#000000"><path d="M259.98025,121.37562c4.51567,10.22981 8.24425,32.6358 -7.66406,32.6358c-15.90831,0 -45.78946,-23.15572 -41.18736,-32.77094c4.37883,-9.14873 6.87533,-21.41892 22.78364,-21.41892c15.90831,0 21.76427,11.80491 26.06777,21.55405z" fill="#a100fe" stroke-width="2"/><path d="M259.04433,121.02138c4.3617,10.22981 8.58599,31.92372 -6.77989,31.92372c-15.36588,0 -44.851,-22.44364 -40.40582,-32.05886c4.22953,-9.14873 6.6409,0.96203 22.00678,0.96203c15.36588,0 21.02217,-10.57604 25.17892,-0.8269z" fill="#99008e" stroke-width="0"/></g><path d="M345.61322,164.02271c-0.35814,-0.28363 -0.46984,-0.72485 -0.46984,-0.72485l-0.13293,-0.54147c-0.48848,-2.89442 -0.68644,-5.63328 -0.45737,-8.56671c0.70807,-3.89132 6.08378,-7.85127 9.43764,-3.84469c1.29492,1.54694 1.68381,4.13187 1.85721,6.05138c0.57858,6.40492 0.00082,13.73597 -3.58082,19.25698c-2.21686,3.28342 -4.63215,3.4762 -8.36746,3.45878c-3.00256,-0.014 -5.80121,-1.13766 -5.17769,-4.69061c0.36308,-2.06889 1.69194,-4.59256 3.34363,-5.94145c0.91396,-0.7464 2.17917,-1.03551 3.0137,-1.86773c0.54097,-0.53949 0.57329,-1.63471 0.53391,-2.58962z" fill="#000000" stroke="none" stroke-width="0.5"/></g></g></g></svg>