<svg version="1.1" xmlns="http://www.w3.org/2000/svg" xmlns:xlink="http://www.w3.org/1999/xlink" width="189.26227" height="324.43017" viewBox="0,0,189.26227,324.43017"><g transform="translate(-245.25776,-6.14794)"><g data-paper-data="{&quot;isPaintingLayer&quot;:true}" fill-rule="nonzero" stroke-linecap="butt" stroke-linejoin="miter" stroke-miterlimit="10" stroke-dasharray="" stroke-dashoffset="0" style="mix-blend-mode: normal"><g data-paper-data="{&quot;index&quot;:null}" stroke="#000000"><path d="M313.38279,231.29611l17.82861,-44.63119l47.35864,18.91813l-17.82861,44.63119z" fill="#ffcaa0" stroke-width="2"/><g><path d="M330.98937,186.77036l24.5837,-61.54152l47.97592,19.16471l-24.5837,61.54152z" fill="#0000c0" stroke-width="2"/><path d="M331.60108,187.24352l12.87621,-32.23363c0,0 9.00239,19.12207 16.96701,22.30366c7.55165,3.01662 29.64779,-3.68267 29.64779,-3.68267l-12.87622,32.23364c0,0 -15.33208,-6.12463 -23.05945,-9.21145c-7.81002,-3.11983 -23.55535,-9.40954 -23.55535,-9.40954z" fill="#56006b" stroke-width="0"/></g><path d="M314.31899,231.08393l17.82861,-44.63119l0.06576,35.10337l29.46428,28.44595z" fill="#ff6e5b" stroke-width="0"/></g><g data-paper-data="{&quot;index&quot;:null}" stroke="#000000"><path d="M432.67103,84.34245c-2.35112,32.11933 -16.10944,57.28961 -30.73007,56.21939c-14.62063,-1.07022 -24.56703,-27.97567 -22.21591,-60.09501c2.35112,-32.11933 16.10944,-57.28961 30.73007,-56.21939c14.62063,1.07022 24.56703,27.97567 22.21591,60.09501z" fill="#01930e" stroke-width="2"/><path d="M389.61426,71.11536c-2.35112,32.11933 27.37981,70.11303 12.75918,69.0428c-14.62062,-1.07022 -24.56703,-27.97567 -22.21591,-60.09501c2.35112,-32.11933 11.80785,-41.06713 9.45673,-8.9478z" fill="#31525b" stroke-width="0"/></g><g data-paper-data="{&quot;index&quot;:null}" stroke="#000000"><path d="M298.86371,329.13374v-90.27109h61.17899v90.27109z" fill="#273750" stroke-width="2"/><path d="M299.65105,328.37717v-90.27109l18.42709,49.31565l42.75189,40.95544z" fill="#1f1e2e" stroke-width="0"/></g><path d="M246.87899,238.45137v-113.80147h113.80147v113.80147z" data-paper-data="{&quot;index&quot;:null}" fill="#0000c0" stroke="#000000" stroke-width="2"/><g data-paper-data="{&quot;index&quot;:null}" stroke="#000000"><path d="M246.25776,329.57811v-90.27109h61.17899v90.27109z" fill="#273750" stroke-width="2"/><path d="M247.04514,328.82151v-90.27109l18.42709,49.31565l42.75189,40.95544z" fill="#1f1e2e" stroke-width="0"/></g><g data-paper-data="{&quot;index&quot;:null}" stroke="#000000"><path d="M273.77207,237.98215v-111.68333h61.17899v111.68333z" fill="#ffffff" stroke-width="2"/><path d="M274.55945,237.04612v-111.68333l18.42709,61.01328l42.75189,50.67005z" fill="#8ebbfc" stroke-width="0"/></g><g data-paper-data="{&quot;index&quot;:null}" stroke="#000000"><path d="M255.83074,69.82437c0.10049,-1.37279 2.88345,-27.24227 3.08429,-28.58657c5.07488,-33.96948 39.04477,-33.97552 81.37592,-30.8769c39.76345,2.91066 73.78057,9.95497 77.48242,41.6003c0.395,3.37668 -2.32697,26.05137 -2.58148,29.52831c-0.90972,12.42789 0.07236,39.96144 -8.00622,49.31202c-15.36302,17.78198 -47.61335,12.26257 -76.454,10.15145c-30.49377,-2.23213 -59.00179,-3.33502 -70.88719,-24.93479c-5.26674,-9.57143 -4.8243,-35.12062 -4.01375,-46.19382z" fill="#ffcaa0" stroke-width="2"/><path d="M254.00152,69.70069c0.10049,-1.37279 2.88345,-27.24227 3.08429,-28.58657c2.88331,-19.29984 2.42435,60.89575 48.48296,86.25083c36.09468,19.86998 103.69459,-0.50734 100.44662,3.25205c-15.36302,17.78198 -48.27228,12.32342 -77.11292,10.2123c-30.49377,-2.23213 -59.00179,-3.33502 -70.88719,-24.93479c-5.26674,-9.57143 -4.8243,-35.12062 -4.01375,-46.19382z" fill="#ff6e5b" stroke-width="0"/></g><g data-paper-data="{&quot;index&quot;:null}" stroke="#000000"><path d="M301.09893,72.63198c-2.35112,32.11933 -16.10944,57.28961 -30.73007,56.21939c-14.62063,-1.07022 -24.56703,-27.97567 -22.21591,-60.09501c2.35112,-32.11933 16.10944,-57.28961 30.73007,-56.21939c14.62063,1.07022 24.56703,27.97567 22.21591,60.09501z" fill="#01930e" stroke-width="2"/><path d="M258.04216,59.40489c-2.35112,32.11933 27.37981,70.11303 12.75918,69.0428c-14.62062,-1.07022 -24.56703,-27.97567 -22.21591,-60.09501c2.35112,-32.11933 11.80785,-41.06713 9.45673,-8.9478z" fill="#31525b" stroke-width="0"/></g><g data-paper-data="{&quot;index&quot;:null}"><path d="M434.27333,45.49672c-1.28932,17.61383 -43.58448,28.87319 -94.46888,25.14847c-50.8844,-3.72471 -91.08914,-21.02302 -89.79982,-38.63685c1.28932,-17.61383 43.58447,-28.87318 94.46887,-25.14846c50.8844,3.72471 91.08915,21.02301 89.79983,38.63685z" fill="#000000" stroke="none" stroke-width="NaN"/><path d="M433.52003,45.78679c-1.28932,17.61383 -43.58448,28.87319 -94.46888,25.14847c-50.8844,-3.72471 -91.08914,-21.02302 -89.79982,-38.63685c1.28932,-17.61383 42.03264,11.94944 92.91704,15.67415c50.8844,3.72471 92.64098,-19.79962 91.35166,-2.18578z" fill="#ff0000" stroke="#000000" stroke-width="2"/><path d="M427.47718,54.56601c-0.35481,4.84717 -37.96388,20.76734 -88.7437,15.61392c-17.76987,-1.80339 -34.44831,-4.66049 -47.92882,-8.60901c-25.0267,-7.33046 -40.00996,-17.03272 -37.39003,-20.94163c2.70592,-4.03719 36.32782,19.5826 87.21222,23.30731c50.8844,3.72471 87.20514,-14.21777 86.85033,-9.3706z" fill="#900056" stroke="#000000" stroke-width="0"/></g><path d="M383.28676,106.51102c-1.14744,15.67558 -4.97495,28.17107 -8.54899,27.90945c-3.57404,-0.26162 -5.54117,-13.18127 -4.39372,-28.85684c1.14744,-15.67558 4.97496,-28.17106 8.54899,-27.90944c3.57404,0.26162 5.54117,13.18127 4.39372,28.85685z" data-paper-data="{&quot;index&quot;:null}" fill="#000000" stroke="none" stroke-width="0"/><path d="M406.29158,100.34562c-1.14285,15.61288 -4.81416,28.06869 -8.20008,27.82085c-3.38593,-0.24785 -5.20429,-13.10551 -4.06144,-28.71838c1.14285,-15.61288 4.81416,-28.06869 8.20008,-27.82085c3.38593,0.24785 5.20429,13.10551 4.06144,28.71838z" data-paper-data="{&quot;index&quot;:null}" fill="#000000" stroke="none" stroke-width="0"/><path d="M353.41409,110.85318c0.01213,0.38414 -0.15696,0.70015 -0.15696,0.70015c-2.51791,4.44052 5.83947,9.27845 7.39623,13.01168c1.23065,2.95121 0.03725,5.27371 -2.75475,6.36453c-1.21278,0.47382 -2.58879,0.47875 -3.88733,0.38308c-1.91523,-0.14109 -3.23655,-0.98378 -4.8984,-1.89277c-6.30087,-4.3442 -6.95685,-11.04741 -6.73704,-18.14411c0.06247,-2.01684 0.19868,-3.84432 1.23831,-5.66998c2.0249,-3.55587 6.56567,-5.32489 9.31584,-1.36107c0.27416,0.39515 0.95359,2.6672 1.10266,3.14063c0.12705,1.12463 -0.07795,2.32982 -0.57595,3.34615z" fill="#000000" stroke="none" stroke-width="0.5"/><g data-paper-data="{&quot;index&quot;:null}" stroke="#000000"><path d="M416.94249,195.45944l-48.04145,-1.34939l1.43185,-50.97732l48.04145,1.34939z" fill="#ffcaa0" stroke-width="2"/><g><path d="M369.07655,194.28213l-66.2439,-1.86066l1.45051,-51.64175l66.2439,1.86066z" fill="#0000c0" stroke-width="2"/><path d="M369.30983,193.54481l-34.6966,-0.97456c0,0 14.84633,-15.04271 15.08713,-23.61591c0.22832,-8.12867 -13.67777,-26.56072 -13.67777,-26.56072l34.69661,0.97456c0,0 -0.46355,16.5036 -0.69718,24.82142c-0.23613,8.40678 -0.71218,25.35521 -0.71218,25.35521z" fill="#56006b" stroke-width="0"/></g><path d="M416.42058,194.65379l-48.04145,-1.34939l32.92876,-12.16336l16.54454,-37.46457z" fill="#ff6e5b" stroke-width="0"/></g></g></g></svg>