<svg version="1.1" xmlns="http://www.w3.org/2000/svg" xmlns:xlink="http://www.w3.org/1999/xlink" width="262.97765" height="317.84598" viewBox="0,0,262.97765,317.84598"><g transform="translate(-182.12022,-12.73213)"><g data-paper-data="{&quot;isPaintingLayer&quot;:true}" fill-rule="nonzero" stroke-linecap="butt" stroke-linejoin="miter" stroke-miterlimit="10" stroke-dasharray="" stroke-dashoffset="0" style="mix-blend-mode: normal"><g data-paper-data="{&quot;index&quot;:null}" stroke="#000000"><path d="M412.27547,235.69952l-37.51461,-28.22123l31.40343,-39.79637l37.51461,28.22123z" fill="#ffcaa0" stroke-width="2"/><g><path d="M374.7987,207.71452l-51.72854,-38.91401l31.81274,-40.31507l51.72854,38.91401z" fill="#0000c0" stroke-width="2"/><path d="M375.42244,207.25902l-27.09388,-20.382c0,0 20.77049,-3.59302 26.05182,-10.28584c5.00749,-6.34579 4.85837,-28.88545 4.85837,-28.88545l27.09389,20.38201c0,0 -10.16667,12.88384 -15.29068,19.3773c-5.17881,6.56291 -15.61951,19.79401 -15.61951,19.79401z" fill="#56006b" stroke-width="0"/></g><path d="M412.33747,234.76287l-37.51461,-28.22123l33.48293,8.91819l35.43509,-20.49333z" fill="#ff6e5b" stroke-width="0"/></g><g data-paper-data="{&quot;index&quot;:null}" stroke="#000000"><path d="M298.86371,329.14675v-87.62783h61.17899v87.62783z" fill="#273750" stroke-width="2"/><path d="M299.65105,328.41233v-87.62783l18.42709,47.87162l42.75189,39.75621z" fill="#1f1e2e" stroke-width="0"/></g><path d="M246.87899,241.11968v-110.46922h113.80147v110.46922z" data-paper-data="{&quot;index&quot;:null}" fill="#0000c0" stroke="#000000" stroke-width="2"/><g data-paper-data="{&quot;index&quot;:null}" stroke="#000000"><path d="M246.25776,329.57811v-87.62783h61.17899v87.62783z" fill="#273750" stroke-width="2"/><path d="M247.04514,328.84366v-87.62783l18.42709,47.87162l42.75189,39.75621z" fill="#1f1e2e" stroke-width="0"/></g><g data-paper-data="{&quot;index&quot;:null}" stroke="#000000"><path d="M183.32462,234.45926l10.69687,-45.43861l49.70565,11.27748l-10.69687,45.43861z" fill="#ffcaa0" stroke-width="2"/><g><path d="M193.81852,189.15415l14.74981,-62.65486l50.35351,11.42448l-14.74981,62.65486z" fill="#0000c0" stroke-width="2"/><path d="M194.49597,189.51948l7.72552,-32.81676c0,0 11.85311,17.04898 20.21244,18.94558c7.9259,1.79827 28.71248,-7.84523 28.71248,-7.84523l-7.72552,32.81677c0,0 -16.0919,-3.65102 -24.20223,-5.49112c-8.19706,-1.8598 -24.72271,-5.60923 -24.72271,-5.60923z" fill="#56006b" stroke-width="0"/></g><path d="M184.21642,234.11948l10.69687,-45.43861l5.50159,33.69044l33.50717,23.02564z" fill="#ff6e5b" stroke-width="0"/></g><g data-paper-data="{&quot;index&quot;:null}" stroke="#000000"><path d="M273.77207,240.66419v-108.41309h61.17899v108.41309z" fill="#ffffff" stroke-width="2"/><path d="M274.55945,239.75557v-108.41309l18.42709,59.22673l42.75189,49.18636z" fill="#8ebbfc" stroke-width="0"/></g><g><g data-paper-data="{&quot;index&quot;:null}" stroke="#000000"><path d="M403.87803,108.57588c-7.58351,30.34314 -25.27536,52.1409 -39.51587,48.68664c-14.2405,-3.45425 -19.63705,-30.85245 -12.05354,-61.19559c7.58351,-30.34314 25.27536,-52.1409 39.51587,-48.68664c14.2405,3.45425 19.63705,30.85245 12.05354,61.19559z" fill="#01930e" stroke-width="2"/><path d="M363.59236,88.76258c-7.58351,30.34314 15.5029,71.63982 1.2624,68.18557c-14.24049,-3.45424 -19.63705,-30.85245 -12.05354,-61.19559c7.58351,-30.34314 18.37465,-37.33313 10.79114,-6.98998z" fill="#31525b" stroke-width="0"/></g><g data-paper-data="{&quot;index&quot;:null}" stroke="#000000"><path d="M231.89345,65.29026c0.32412,-1.29688 7.3089,-25.58796 7.72729,-26.84089c10.57244,-31.66074 44.06773,-26.02017 85.29829,-16.01908c38.72962,9.39445 71.11573,21.78912 69.57814,52.6848c-0.16407,3.29667 -6.56497,24.54092 -7.3859,27.82559c-2.93428,11.74062 -6.47951,38.24982 -15.97783,45.85428c-18.06294,14.46142 -48.95695,3.81954 -77.04777,-2.99431c-29.70095,-7.20441 -57.62905,-12.99822 -65.80721,-35.64189c-3.62396,-10.034 1.00054,-34.40765 3.61497,-44.86851z" fill="#ffcaa0" stroke-width="2"/><path d="M230.11013,64.86789c0.32412,-1.29688 7.3089,-25.58796 7.72729,-26.84089c6.00676,-17.98812 -7.59221,58.67211 33.66515,90.58924c32.33208,25.01246 102.32603,16.75028 98.50725,19.80763c-18.06294,14.46142 -49.61664,3.76823 -77.70742,-3.04561c-29.70095,-7.20441 -57.62905,-12.99822 -65.80721,-35.64189c-3.62396,-10.034 1.00054,-34.40765 3.61497,-44.86851z" fill="#ff6e5b" stroke-width="0"/></g><g data-paper-data="{&quot;index&quot;:null}" stroke="#000000"><path d="M276.06765,75.50109c-7.58351,30.34314 -25.27536,52.1409 -39.51587,48.68664c-14.2405,-3.45425 -19.63705,-30.85245 -12.05354,-61.19559c7.58351,-30.34314 25.27536,-52.1409 39.51587,-48.68664c14.2405,3.45425 19.63705,30.85245 12.05354,61.19559z" fill="#01930e" stroke-width="2"/><path d="M235.78198,55.68779c-7.58351,30.34314 15.5029,71.63982 1.2624,68.18557c-14.24049,-3.45424 -19.63705,-30.85245 -12.05354,-61.19559c7.58351,-30.34314 18.37465,-37.33313 10.79114,-6.98998z" fill="#31525b" stroke-width="0"/></g><g data-paper-data="{&quot;index&quot;:null}"><path d="M411.82586,71.672c-4.1587,16.63978 -47.70747,20.38335 -97.26888,8.36148c-49.56142,-12.02188 -86.3676,-35.25674 -82.2089,-51.89652c4.1587,-16.63978 47.70745,-20.38335 97.26887,-8.36147c49.56142,12.02188 86.36761,35.25673 82.20891,51.89652z" fill="#000000" stroke="none" stroke-width="NaN"/><path d="M411.03555,71.82435c-4.1587,16.63978 -47.70747,20.38335 -97.26888,8.36148c-49.56142,-12.02188 -86.3676,-35.25674 -82.2089,-51.89652c4.1587,-16.63978 39.48531,18.42053 89.04674,30.44241c49.56142,12.02188 94.58975,-3.54715 90.43105,13.09263z" fill="#ff0000" stroke="#000000" stroke-width="2"/><path d="M403.63813,79.22047c-1.14444,4.57912 -40.83677,13.56137 -90.06087,0.1898c-17.22546,-4.67924 -33.20204,-10.18533 -45.84654,-16.20423c-23.47465,-11.17412 -36.65766,-22.94836 -33.43363,-26.25319c3.32985,-3.41329 32.60907,24.77622 82.17049,36.79808c49.56142,12.02188 88.31498,0.89039 87.17054,5.46953z" fill="#900056" stroke="#000000" stroke-width="0"/></g><path d="M328.78211,113.55375c-3.70107,14.80872 -9.52337,26.12906 -13.00448,25.28465c-3.48111,-0.8444 -3.3028,-13.53376 0.39828,-28.34247c3.70107,-14.80872 9.52338,-26.12904 13.00448,-25.28464c3.48111,0.8444 3.3028,13.53376 -0.39828,28.34248z" data-paper-data="{&quot;index&quot;:null}" fill="#000000" stroke="none" stroke-width="0"/><path d="M354.81296,115.54935c-3.68627,14.74949 -9.34804,26.05782 -12.64593,25.25787c-3.2979,-0.79995 -2.98305,-13.40526 0.70322,-28.15476c3.68627,-14.74949 9.34804,-26.05782 12.64593,-25.25787c3.2979,0.79995 2.98305,13.40526 -0.70322,28.15476z" data-paper-data="{&quot;index&quot;:null}" fill="#000000" stroke="none" stroke-width="0"/><path d="M293.75863,119.64286c0.08371,-0.24337 0.44908,-1.06989 1.48839,-0.8178c1.21425,0.29454 0.91992,1.47225 0.91992,1.47225l-0.16526,0.44388c-0.96026,1.58829 -1.88168,3.19552 -2.89147,4.75412c-0.97549,1.28715 -1.81216,2.82932 -2.8642,4.04226c-2.72309,3.13953 -7.54575,1.95783 -8.12692,-2.19933c-0.59747,-4.2738 2.37801,-9.94579 4.87218,-13.24799c0,0 0.73873,-0.97384 1.74637,-0.24899c1.00764,0.72486 0.26891,1.6987 0.26891,1.6987c-2.18699,2.86923 -3.98578,6.80974 -4.44608,10.40351c-0.51025,3.98361 2.93931,3.16726 4.52028,0.84044c0.69391,-1.02127 1.22289,-1.69332 1.96158,-2.66621c0.94904,-1.46629 1.8154,-2.97972 2.7163,-4.47486z" data-paper-data="{&quot;index&quot;:null}" fill="#000000" stroke="none" stroke-width="0.5"/></g></g></g></svg>