<svg version="1.1" xmlns="http://www.w3.org/2000/svg" xmlns:xlink="http://www.w3.org/1999/xlink" width="204.09423" height="277.95832" viewBox="0,0,204.09423,277.95832"><g transform="translate(-203.06641,-52.61979)"><g data-paper-data="{&quot;isPaintingLayer&quot;:true}" fill-rule="nonzero" stroke-linecap="butt" stroke-linejoin="miter" stroke-miterlimit="10" stroke-dasharray="" stroke-dashoffset="0" style="mix-blend-mode: normal"><g data-paper-data="{&quot;index&quot;:null}" stroke="#000000"><path d="M298.86371,329.13374v-90.27109h61.17899v90.27109z" fill="#273750" stroke-width="2"/><path d="M299.65105,328.37717v-90.27109l18.42709,49.31565l42.75189,40.95544z" fill="#1f1e2e" stroke-width="0"/></g><g data-paper-data="{&quot;index&quot;:null}" stroke="#000000"><path d="M246.25776,329.57811v-90.27109h61.17899v90.27109z" fill="#273750" stroke-width="2"/><path d="M247.04514,328.82151v-90.27109l18.42709,49.31565l42.75189,40.95544z" fill="#1f1e2e" stroke-width="0"/></g><g data-paper-data="{&quot;index&quot;:null}" stroke="#000000"><path d="M308.2871,288.25302l18.45069,-44.37763l47.08959,19.57823l-18.45069,44.37763z" fill="#ffcaa0" stroke-width="2"/><g><path d="M326.51432,243.97772l25.44148,-61.19189l47.70336,19.83342l-25.44148,61.19189z" fill="#0000c0" stroke-width="2"/><path d="M327.11934,244.45938l13.3255,-32.0505c0,0 8.73423,19.24603 16.65361,22.53864c7.50875,3.12188 29.69636,-3.26791 29.69636,-3.26791l-13.3255,32.05051c0,0 -15.24497,-6.33834 -22.92844,-9.53286c-7.76565,-3.22869 -23.42153,-9.73787 -23.42153,-9.73787z" fill="#56006b" stroke-width="0"/></g><path d="M309.22618,288.05395l18.45069,-44.37763l-0.4249,35.10086l29.0638,28.85501z" fill="#ff6e5b" stroke-width="0"/></g><g data-paper-data="{&quot;index&quot;:null}" stroke="#000000"><path d="M406.16065,123.45682c0,32.20527 -11.88407,58.3128 -26.54382,58.3128c-14.65975,0 -26.54382,-26.10753 -26.54382,-58.3128c0,-32.20527 11.88407,-58.3128 26.54382,-58.3128c14.65975,0 26.54382,26.10753 26.54382,58.3128z" fill="#01930e" stroke-width="2"/><path d="M362.25314,113.40835c0,32.20527 32.42529,67.9271 17.76555,67.9271c-14.65974,0 -26.54382,-26.10753 -26.54382,-58.3128c0,-32.20527 8.77827,-41.81957 8.77827,-9.6143z" fill="#31525b" stroke-width="0"/></g><path d="M246.87899,290.65311v-113.80147h113.80147v113.80147z" data-paper-data="{&quot;index&quot;:null}" fill="#0000c0" stroke="#000000" stroke-width="2"/><g data-paper-data="{&quot;index&quot;:null}" stroke="#000000"><path d="M273.77207,290.18389v-111.68333h61.17899v111.68333z" fill="#ffffff" stroke-width="2"/><path d="M274.55945,289.24786v-111.68333l18.42709,61.01328l42.75189,50.67005z" fill="#8ebbfc" stroke-width="0"/></g><g data-paper-data="{&quot;index&quot;:null}" stroke="#000000"><path d="M228.73235,121.88756c0,-1.37646 0.88696,-27.38008 0.98912,-28.73546c2.58143,-34.24932 36.46023,-36.73529 78.90464,-36.73529c39.86984,0 74.31045,4.54212 80.31266,35.83276c0.64046,3.33883 -0.4189,26.15173 -0.4189,29.63798c0,12.46114 2.98952,39.84953 -4.38487,49.76492c-14.02387,18.8561 -46.59108,15.70582 -75.50889,15.70582c-30.57536,0 -59.08782,0.98125 -72.51838,-19.6932c-5.95144,-9.1614 -7.37538,-34.67471 -7.37538,-45.77754z" fill="#ffcaa0" stroke-width="2"/><path d="M226.89899,121.89775c0,-1.37646 0.88696,-27.38008 0.98912,-28.73546c1.46665,-19.45883 6.86352,60.55627 54.65026,82.48122c37.44896,17.1819 103.38086,-8.07612 100.416,-4.08965c-14.02387,18.8561 -47.24381,15.81461 -76.16161,15.81461c-30.57536,0 -59.08782,0.98125 -72.51838,-19.6932c-5.95144,-9.1614 -7.37538,-34.67471 -7.37538,-45.77754z" fill="#ff6e5b" stroke-width="0"/></g><g data-paper-data="{&quot;index&quot;:null}" stroke="#000000"><path d="M274.08472,121.38291c0,32.20527 -11.88407,58.3128 -26.54382,58.3128c-14.65975,0 -26.54382,-26.10753 -26.54382,-58.3128c0,-32.20527 11.88407,-58.3128 26.54382,-58.3128c14.65975,0 26.54382,26.10753 26.54382,58.3128z" fill="#01930e" stroke-width="2"/><path d="M230.17721,111.33444c0,32.20527 32.42529,67.9271 17.76555,67.9271c-14.65974,0 -26.54382,-26.10753 -26.54382,-58.3128c0,-32.20527 8.77827,-41.81957 8.77827,-9.6143z" fill="#31525b" stroke-width="0"/></g><g data-paper-data="{&quot;index&quot;:null}"><path d="M404.92277,84.59777c0,17.66096 -41.36032,31.97799 -92.38086,31.97799c-51.02054,0 -92.38085,-14.31704 -92.38085,-31.97799c0,-17.66096 41.36031,-31.97798 92.38085,-31.97798c51.02054,0 92.38086,14.31703 92.38086,31.97799z" fill="#000000" stroke="none" stroke-width="NaN"/><path d="M404.19266,84.94206c0,17.66096 -41.36032,31.97799 -92.38086,31.97799c-51.02054,0 -92.38085,-14.31704 -92.38085,-31.97799c0,-17.66096 42.79284,8.849 93.81338,8.849c51.02054,0 90.94833,-26.50996 90.94833,-8.849z" fill="#ff0000" stroke="#000000" stroke-width="2"/><path d="M398.80685,94.13901c0,4.86014 -36.34648,23.48345 -87.36702,22.05092c-17.85411,-0.5013 -34.69662,-2.13318 -48.42942,-5.08703c-25.49507,-5.48385 -41.14666,-14.06638 -38.81909,-18.15612c2.40397,-4.22396 37.6605,16.87826 88.68104,16.87826c51.02054,0 85.93449,-20.54617 85.93449,-15.68603z" fill="#900056" stroke="#000000" stroke-width="0"/></g><path d="M360.67195,157.02136c0,15.71752 -2.90507,28.45909 -6.48867,28.45909c-3.5836,0 -6.48867,-12.74157 -6.48867,-28.45908c0,-15.71752 2.90508,-8.41605 6.48867,-8.41605c3.5836,0 6.48867,-7.30146 6.48867,8.41606z" data-paper-data="{&quot;index&quot;:null}" fill="#000000" stroke="none" stroke-width="0"/><path d="M379.00642,146.47018c0,15.65465 -2.75218,28.34525 -6.14716,28.34525c-3.39499,0 -6.14716,-12.6906 -6.14716,-28.34525c0,-15.65465 2.75218,-18.32373 6.14716,-18.32373c3.39499,0 6.14716,2.66908 6.14716,18.32373z" data-paper-data="{&quot;index&quot;:null}" fill="#000000" stroke="none" stroke-width="0"/><g data-paper-data="{&quot;index&quot;:null}" stroke="#000000"><path d="M241.2135,310.97556l-15.46029,-45.50584l48.28675,-16.40509l15.46029,45.50584z" fill="#ffcaa0" stroke-width="2"/><g><path d="M225.653,265.69417l-21.31805,-62.74757l48.91612,-16.61891l21.31805,62.74757z" fill="#0000c0" stroke-width="2"/><path d="M226.42541,265.65616l-11.16576,-32.86532c0,0 19.2703,8.68056 27.39101,5.92161c7.69965,-2.6159 20.13732,-22.06902 20.13732,-22.06902l11.16577,32.86533c0,0 -15.63255,5.31105 -23.51135,7.98782c-7.96308,2.7054 -24.01697,8.1596 -24.01697,8.1596z" fill="#56006b" stroke-width="0"/></g><path d="M241.78705,310.20583l-15.46029,-45.50584l22.86633,26.63421l40.88071,2.46654z" fill="#ff6e5b" stroke-width="0"/></g><path d="M332.92106,169.52856c0,5.99596 -2.24339,10.85664 -5.01076,10.85664c-2.76737,0 -5.01076,-4.86068 -5.01076,-10.85664c0,-5.99596 2.24339,-10.85664 5.01076,-10.85664c2.76737,0 5.01076,4.86068 5.01076,10.85664z" fill="#000000" stroke="none" stroke-width="0"/></g></g></svg>