<svg version="1.1" xmlns="http://www.w3.org/2000/svg" xmlns:xlink="http://www.w3.org/1999/xlink" width="180.72695" height="327.94649" viewBox="0,0,180.72695,327.94649"><g transform="translate(-214.38536,-33.04086)"><g data-paper-data="{&quot;isPaintingLayer&quot;:true}" fill-rule="nonzero" stroke-linejoin="miter" stroke-miterlimit="10" stroke-dasharray="" stroke-dashoffset="0" style="mix-blend-mode: normal"><g stroke="#000000" stroke-linecap="butt"><g><path d="M308.34787,342.0112v-89.44407h31.63255v89.44407z" fill="#73fffc" stroke-width="2"/><path d="M307.99848,341.4312l1.42252,-88.02754c0,0 5.58051,63.93036 6.84296,72.76838c0.27909,1.95381 2.70535,2.61858 2.70535,2.61858l19.95708,12.33226z" fill="#59a9e6" stroke-width="0"/></g><g><path d="M266.15105,339.73742v-89.44407h31.63255v89.44407z" fill="#73fffc" stroke-width="2"/><path d="M265.80166,339.15742l1.42252,-88.02754c0,0 5.58051,63.93036 6.84296,72.76838c0.27909,1.95381 2.70535,2.61858 2.70535,2.61858l19.95708,12.33226z" fill="#59a9e6" stroke-width="0"/></g><path d="M376.85485,340.16654c0,10.94674 -15.57368,19.82082 -34.78479,19.82082c-19.21111,0 -34.78479,-8.87408 -34.78479,-19.82082c0,-2.18828 -0.03581,-12.91526 1.16889,-14.20891c4.82175,-5.17777 19.11108,4.9384 34.48184,4.9384c19.21111,0 33.91885,-1.67623 33.91885,9.2705z" fill="#000082" stroke-width="2"/><path d="M374.83166,337.602c0,5.92109 -14.89877,9.56446 -34.10989,9.56446c-19.21111,0 -32.35512,-2.7759 -32.35512,-8.69699c0,-1.18364 -0.0358,-11.75696 1.1689,-12.45669c4.82175,-2.80066 16.6814,5.41818 32.05217,5.41818c19.21111,0 33.24394,0.24996 33.24394,6.17105z" fill="#2e0048" stroke-width="0"/><path d="M330.74787,339.56132c0,10.94674 -15.57368,19.82082 -34.78479,19.82082c-19.21111,0 -34.78479,-8.87408 -34.78479,-19.82082c0,-2.18828 -0.03581,-12.91526 1.16889,-14.20891c4.82175,-5.17777 19.11108,4.9384 34.48184,4.9384c19.21111,0 33.91885,-1.67623 33.91885,9.2705z" fill="#000082" stroke-width="2"/><path d="M328.72468,336.99678c0,5.92109 -14.89877,9.56446 -34.10989,9.56446c-19.21111,0 -32.35512,-2.7759 -32.35512,-8.69699c0,-1.18364 -0.0358,-11.75696 1.1689,-12.45669c4.82175,-2.80066 16.6814,5.41818 32.05217,5.41818c19.21111,0 33.24394,0.24996 33.24394,6.17105z" fill="#2e0048" stroke-width="0"/></g><g stroke="#000000" stroke-linecap="butt"><path d="M336.97547,217.90985c22.19598,24.87282 35.29536,49.40356 29.25827,54.79094c-6.0371,5.38738 -28.92454,-10.40871 -51.12052,-35.28153c-22.19598,-24.87282 -35.29536,-49.40356 -29.25827,-54.79094c6.0371,-5.38738 28.92454,10.40871 51.12052,35.28154z" fill="#0d69be" stroke-width="2"/><path d="M377.74951,243.63749c9.52708,10.67604 8.37292,27.25267 -2.57787,37.02494c-10.9508,9.77226 -27.5514,9.03961 -37.07847,-1.63644c-9.52708,-10.67605 -8.37292,-27.25267 2.57787,-37.02494c10.95079,-9.77227 27.5514,-9.0396 37.07847,1.63644z" fill="#faddbf" stroke-width="2"/><path d="M340.33085,261.3883c9.52708,10.67605 45.51544,8.59906 34.56464,18.37133c-10.9508,9.77226 -27.55139,9.0396 -37.07847,-1.63644c-9.52708,-10.67605 -7.01326,-27.41092 2.51382,-16.73487z" fill="#ef8b89" stroke-width="0"/></g><g stroke="#000000" stroke-linecap="butt"><path d="M335.22917,235.69584c0,13.80271 10.04743,36.74388 4.95001,46.45977c-6.2338,11.88187 -28.61241,9.09579 -38.9397,9.09579c-13.66287,0 -32.94407,4.17018 -38.34426,-14.83216c-2.01935,-7.10576 4.35457,-32.37264 4.35457,-40.7234c0,-30.68249 15.2177,-55.55556 33.98969,-55.55556c18.77199,0 33.98969,24.87307 33.98969,55.55556z" fill="#0d69be" stroke-width="2"/><path d="M283.96554,251.27245c0,13.80271 62.04198,20.54886 56.94455,30.26474c-6.2338,11.88186 -28.61241,9.09579 -38.9397,9.09579c-13.66287,0 -32.94406,4.17018 -38.34425,-14.83215c-2.01936,-7.10576 4.35457,-32.37265 4.35457,-40.7234c0,-9.45244 3.34855,-28.59801 5.51953,-29.96813c5.94391,-16.76415 10.4653,25.13995 10.4653,46.16315z" fill="#10157d" stroke-width="0"/></g><g stroke-linecap="butt"><g stroke="#000000"><g><path d="M217.73119,114.70691c3.79405,-46.63672 44.67627,-81.36756 91.31298,-77.5735c46.63672,3.79405 81.36756,44.67627 77.5735,91.31298c-3.79405,46.63672 -44.67627,81.36756 -91.31298,77.5735c-46.63672,-3.79405 -81.36756,-44.67627 -77.5735,-91.31298z" fill="#faddbf" stroke-width="2"/><path d="M218.0317,113.85898c1.22068,-15.00471 11.95418,-40.17415 16.709,-43.01212c0.54301,-0.32411 6.48986,-8.41176 14.53022,-14.49636c9.99362,-7.56276 22.47351,-13.37819 23.06629,-13.13225c7.73401,3.20869 -22.72762,63.22022 -23.54343,88.52733c-0.00195,0.06035 2.79543,19.99409 4.37299,20.56279c2.49145,4.96083 7.52786,19.82906 17.79438,27.82801c19.13286,14.90696 47.18493,23.5838 45.66552,23.96759c-2.43051,0.61392 -14.97849,1.55963 -21.02144,1.06801c-46.63672,-3.79405 -81.36756,-44.67627 -77.5735,-91.31298z" fill="#ef8b89" stroke-width="0"/><path d="M386.13311,127.94726c-0.94256,11.58606 -2.84091,15.46127 -3.24099,13.57088c-0.40817,-1.92855 0.60968,-9.79644 -7.82496,-15.33423c-2.04388,-1.34192 -10.68153,5.42781 -13.30057,3.98254c-1.64506,-0.9078 -7.79857,-10.8436 -9.65113,-11.67257c-1.29528,-0.57961 -13.08841,7.34046 -14.4468,6.77781c-3.38789,-1.40327 -11.0268,-12.30819 -14.71231,-13.2682c-2.0295,-0.52865 -10.21308,11.05805 -12.29457,10.63403c-2.68435,-0.54683 -9.05689,-12.84511 -11.78527,-13.06707c-7.25588,-0.59029 -8.02362,6.3812 -13.73121,11.94293c-3.70893,3.61415 -12.88404,-14.14316 -16.35719,-9.97586c-4.31325,5.17529 -8.57166,10.15612 -13.0906,13.40001c-3.54527,2.54496 -12.50144,-11.14726 -15.58023,-8.7713c-14.86521,11.47177 -23.82426,18.77374 -22.35079,0.66175c2.96287,-36.41983 43.81109,-4.67645 87.20137,-22.73934c41.53274,-17.28962 84.12815,-2.56118 81.16527,33.85865z" fill="#ef8b89" stroke-width="0"/></g><path d="M388.33582,119.78811c-1.90416,23.40601 5.80351,9.21624 -11.35928,-1.78722c-2.10022,-1.3465 -10.94948,5.40601 -13.64014,3.95492c-1.69004,-0.91146 -8.02572,-10.86208 -9.92853,-11.69514c-1.33041,-0.58246 -13.41528,7.31387 -14.81041,6.74823c-3.47953,-1.41072 -11.34154,-12.3338 -15.12553,-13.30182c-2.08373,-0.53307 -10.45678,11.03822 -12.59365,10.60969c-2.75575,-0.55264 -9.32124,-12.86661 -12.12148,-13.09442c-7.44701,-0.60584 -8.21999,6.36523 -14.0651,11.91577c-3.79829,3.60688 -13.25129,-14.17304 -16.80646,-10.01241c-4.4151,5.167 -8.77434,10.13963 -13.40461,13.37446c-3.63262,2.53785 -12.85231,-11.17581 -16.00659,-8.80599c-15.22978,11.44211 -24.40772,18.72627 -22.93425,0.61428c2.96287,-36.41983 46.32014,-77.75712 92.09575,-74.03312c45.7756,3.724 83.66319,49.09295 80.70031,85.51278z" fill="#873412" stroke-width="2"/><path d="M388.18319,118.60906c-1.90416,23.40601 5.80351,9.21624 -11.35928,-1.78722c-2.10022,-1.3465 -10.94948,5.40601 -13.64014,3.95492c-1.69004,-0.91146 -8.02572,-10.86208 -9.92854,-11.69514c-1.33041,-0.58246 -13.41528,7.31387 -14.81041,6.74823c-3.47953,-1.41072 -11.34154,-12.3338 -15.12553,-13.30182c-2.08373,-0.53307 -10.45678,11.03822 -12.59365,10.60969c-2.75575,-0.55264 -9.32124,-12.86661 -12.12148,-13.09442c-7.44701,-0.60584 -8.21999,6.36523 -14.0651,11.91577c-3.79829,3.60688 -13.25129,-14.17304 -16.80646,-10.01241c-4.4151,5.167 -8.77434,10.13963 -13.40462,13.37446c-3.63262,2.53785 -12.85231,-11.17581 -16.00659,-8.80599c-15.22978,11.44211 -24.40772,18.72627 -22.93425,0.61428c2.96287,-36.41983 44.94756,-4.58399 89.4348,-22.55765c42.58274,-17.2042 86.32412,-2.38253 83.36125,34.0373z" fill="#741d23" stroke-width="0"/></g><path d="M309.16315,44.81454c0.05545,0.12052 0.09812,0.2579 0.13018,0.40784c0.07288,0.26593 0.10262,0.54843 0.08183,0.83874c0.01622,1.14139 -0.24857,2.50143 -0.24359,2.99556c0.00655,0.64919 1.24699,-0.64834 1.88059,-0.50678c0.38812,0.08672 0.72622,0.82323 1.04186,0.5813c1.91549,-1.46817 3.74537,-4.1889 6.35924,-2.34766c0.86567,0.60978 0.52075,1.93928 1.02803,2.66754c0.04265,0.06122 2.61169,0.07542 3.16214,0.65489c0.94846,0.99847 0.13556,2.27035 0.57641,3.30214c0.14106,0.33017 0.60846,-0.39421 0.9476,-0.51205c1.50937,-0.52441 4.14677,-1.67585 5.8128,-0.53527c0.87786,0.60099 0.56716,2.19276 1.03657,2.67431c0.82295,0.84421 2.03787,-1.20381 3.13157,-1.644c1.51265,-0.60881 2.18075,0.14869 3.34915,1.1328c0.20152,0.16974 0.1363,4.15677 1.14099,5.40006c0.56474,0.69885 1.71575,-0.72194 2.61242,-0.66429c0.89465,0.05752 2.76194,-0.51527 3.17401,-0.37779c0.82659,0.27577 1.4334,1.76288 2.21794,1.38368c4.0056,-1.93607 8.78284,-0.09389 6.75116,4.71733c-0.25711,0.60888 1.36409,-0.46484 1.9721,-0.20568c0.23571,0.10046 1.50387,1.20772 1.7373,1.14042c1.52678,-0.44018 2.52106,-1.07875 4.10729,-0.95359c1.31734,0.10395 2.52138,0.94824 2.7152,2.34904c0.10186,0.73618 -1.16625,2.03527 -0.43851,2.18603c1.71539,0.35539 4.3734,1.29939 3.39791,3.7659c-1.05891,2.67744 -3.54635,4.87211 -5.94111,2.5794c-0.83087,-0.79545 -2.39744,1.05171 -3.41272,0.51105c-1.30064,-0.69261 -1.78091,-3.02772 -1.61425,-4.19464c0.07704,-0.53944 -1.10007,0.28573 -1.62785,0.15012c-0.71059,-0.18258 -0.9637,-1.2978 -1.68843,-1.41194c-1.62108,-0.2553 -1.61916,3.14523 -5.42914,2.04611c-1.12456,-0.32441 -2.33087,-2.37783 -2.62012,-3.50293c-0.16791,-0.6531 1.65679,-2.52354 1.50782,-2.64159c-0.36173,-0.28664 -2.16865,2.66034 -2.60521,2.76745c-1.05026,0.25766 -2.11012,-0.55265 -3.06809,-1.05436c-0.84638,-0.44326 -1.30277,1.79019 -2.25788,1.76566c-0.8438,-0.02167 -9.2835,-1.23934 -9.57693,-1.76786c-0.35775,-0.64435 -0.67837,-1.78187 -0.46363,-2.47643c0.07717,-0.24961 1.12193,-1.75604 0.93933,-1.75068c-0.64806,0.019 -4.45327,3.08878 -6.35167,-0.33051c-1.03233,-1.85938 1.26083,-3.5078 1.39576,-5.12632c0.08332,-0.99953 -1.2411,1.58 -1.78104,2.42526c-0.41471,0.64923 -1.53611,1.18465 -2.31006,1.14674c-2.67592,-0.13103 -1.73088,-2.62378 -2.1683,-4.17876c-0.20187,-0.71761 -1.62084,0.46528 -2.23597,0.04416c-1.50398,-1.02963 -1.17476,-2.1712 -1.18778,-3.7095c-0.00597,-0.70435 -0.76705,2.66173 -2.41975,2.69438c-0.67025,0.01324 -1.64101,-1.08398 -1.95069,-0.4894c-1.50769,2.89472 -0.90317,4.15999 -4.64771,3.3727c-0.36134,-0.07597 -1.03902,0.71376 -1.41248,0.45809c-4.13332,-2.82971 -0.21437,-7.97506 0.23225,-11.96007c0.15755,-1.40568 -0.59371,-3.58754 0.68726,-4.18743c0.4932,-0.69916 1.33274,-1.1268 2.24727,-1.0524c0.81089,0.06597 1.49981,0.51193 1.90604,1.14869c0.06802,0.08276 0.12645,0.1736 0.1729,0.27456z" fill="#ba587e" stroke="none" stroke-width="0.5"/></g><g stroke="#000000" stroke-linecap="butt"><path d="M330.21506,156.13389c-2.31571,28.4649 -16.63508,42.07917 -33.14907,40.7357c-16.51398,-1.34347 -28.96908,-17.13594 -26.65336,-45.60083c2.31571,-28.4649 17.5802,-50.45116 34.09419,-49.10769c16.51398,1.34347 28.02396,25.50792 25.70824,53.97282z" fill="#f0f0f0" stroke-width="2"/><path d="M285.20114,132.82478c-6.57771,27.79113 29.08009,64.61233 12.5661,63.26886c-16.51398,-1.34347 -28.96908,-17.13594 -26.65336,-45.60083c2.31571,-28.4649 23.59667,-57.84579 14.08726,-17.66804z" fill="#9a99ff" stroke-width="0"/></g><path d="M325.66586,164.02425c-1.28295,15.77011 -6.99646,28.17411 -12.76147,27.70511c-5.76501,-0.469 -9.39845,-13.63341 -8.1155,-29.40352c1.28295,-15.77011 6.99646,-28.17411 12.76147,-27.70511c5.76501,0.469 9.39845,13.63341 8.1155,29.40352z" fill="#000000" stroke="none" stroke-width="0" stroke-linecap="butt"/><g stroke="#000000" stroke-linecap="butt"><path d="M327.65763,125.79195c3.61529,10.55772 -11.01032,13.27255 -26.66884,11.99867c-15.65853,-1.27387 -26.71409,-6.83015 -21.40459,-16.0452c5.05191,-8.76797 8.50415,-20.79784 24.16267,-19.52397c15.65853,1.27387 20.46534,13.50883 23.91075,23.57048z" fill="#a100fe" stroke-width="2"/><path d="M326.76513,125.36393c3.46373,10.54539 -10.67394,13.29991 -25.79855,12.06948c-15.12461,-1.23044 -25.79037,-6.75501 -20.63533,-15.98261c4.90495,-8.77992 6.45863,1.49064 21.58324,2.72108c15.12461,1.23044 21.54965,-8.85784 24.85063,1.19205z" fill="#99008e" stroke-width="0"/></g><g data-paper-data="{&quot;index&quot;:null}" stroke="#000000" stroke-linecap="butt"><path d="M368.10777,106.2945c16.51398,1.34347 28.02396,25.50792 25.70824,53.97282c-2.31571,28.46489 -17.15967,42.03649 -33.67365,40.69302c-16.51398,-1.34347 -28.44449,-17.09325 -26.12878,-45.55815c2.31571,-28.4649 17.5802,-50.45116 34.09419,-49.10769z" fill="#f0f0f0" stroke-width="2"/><path d="M393.24941,159.3882c-2.31571,28.46489 -17.15967,42.03649 -33.67365,40.69302c-16.51398,-1.34347 24.62659,-31.91687 22.62745,-60.40575c-2.89016,-41.1865 13.36192,-8.75217 11.04621,19.71273z" fill="#9a99ff" stroke-width="0"/></g><path d="M379.01233,139.00612c5.76501,0.469 9.39845,13.63341 8.1155,29.40352c-1.28295,15.77011 -6.99646,28.17411 -12.76147,27.70511c-5.76501,-0.469 -9.39845,-13.63341 -8.1155,-29.40352c1.28295,-15.77011 6.99646,-28.17411 12.76147,-27.70511z" data-paper-data="{&quot;index&quot;:null}" fill="#000000" stroke="none" stroke-width="0" stroke-linecap="butt"/><g data-paper-data="{&quot;index&quot;:null}" stroke="#000000" stroke-linecap="butt"><path d="M341.44177,125.87257c5.02644,-9.37243 11.74766,-20.66955 27.40619,-19.39567c15.65853,1.27387 17.1209,13.70357 20.68915,23.17281c3.75019,9.95208 -8.05809,13.64831 -23.71662,12.37443c-15.65853,-1.27387 -29.65299,-6.31704 -24.37873,-16.15156z" fill="#a100fe" stroke-width="2"/><path d="M342.39172,125.59444c4.88201,-9.38418 9.59192,1.60997 24.71653,2.8404c15.12461,1.23044 18.31797,-8.65394 21.73925,0.80335c3.59573,9.93951 -7.82275,13.66745 -22.94736,12.43702c-15.12461,-1.23044 -28.63114,-6.23391 -23.50843,-16.08076z" fill="#99008e" stroke-width="0"/></g><path d="M261.01393,152.40879c0.99671,0.08109 0.91562,1.07779 0.91562,1.07779l-0.02787,0.29195c-0.7706,4.44008 -1.23175,9.19314 -4.344,12.71159c-1.81982,2.72813 -5.44186,4.05694 -6.56122,-0.15386c-1.26156,-4.74572 1.50522,-11.78111 3.12786,-16.09924c0,0 0.35178,-0.93608 1.28787,-0.5843c0.93608,0.35178 0.5843,1.28787 0.5843,1.28787c-1.47288,3.91897 -2.52255,7.73156 -2.86152,11.89813c-0.2288,2.81247 0.2956,6.24274 2.83841,2.43075c2.88227,-3.25236 3.245,-7.72568 3.95775,-11.83292l0.005,-0.11214c0,0 0.08109,-0.99671 1.07779,-0.91562z" fill="#000000" stroke="none" stroke-width="0.5" stroke-linecap="butt"/><g><g><path d="M300.62836,253.17518c-15.00509,1.57173 -24.55924,-5.05611 -26.80608,-19.823c-1.75732,-11.54933 9.41186,-25.80675 24.41696,-27.37847c15.00515,-1.57177 26.92111,6.98242 28.47722,21.83798c0.24336,2.32313 -0.22154,4.53934 -0.62723,6.56745c-2.18863,10.94078 -12.80225,17.47009 -25.46084,18.79604z" fill="#485e84" stroke="#000000" stroke-width="2" stroke-linecap="butt"/><path d="M286.04166,212.36153c0,0 0.15904,5.75375 1.87944,6.78019c16.50248,9.84592 30.53948,9.42085 35.17142,8.92596c1.05237,-0.11243 1.52476,-1.1311 1.52476,-1.1311c0,0 0.43977,2.06753 0.12844,4.79097c-0.33128,2.89796 -1.4653,6.53361 -3.24468,9.03938c-2.03258,2.86229 -8.44804,8.18677 -8.44804,8.18677l-20.23964,5.40517c0,0 -11.14283,-7.53607 -12.40942,-9.29467c-1.24086,-1.72283 -2.21502,-4.11735 -3.35327,-6.62161c-1.76727,-3.88824 -2.09334,-8.41599 -1.48392,-11.23084c0.7778,-3.59239 3.18004,-7.59003 5.68162,-10.47178c2.32819,-2.68201 4.79332,-4.37832 4.79332,-4.37832z" fill="#343545" stroke="none" stroke-width="0" stroke-linecap="butt"/><path d="M290.92237,236.30618c0,0 -2.77843,-8.58362 -1.05225,-13.44164c2.18513,-6.14977 9.76091,-16.67166 9.76091,-16.67166" fill="none" stroke="#000000" stroke-width="1" stroke-linecap="round"/><path d="M324.37314,221.12189c0,0 -0.77108,7.10881 -2.24095,11.14754c-1.48384,4.07729 -7.8035,11.44037 -7.8035,11.44037" fill="none" stroke="#000000" stroke-width="1" stroke-linecap="round"/><path d="M280.77333,240.4719c0,0 -2.98363,-8.76837 -0.87432,-13.94521c3.23669,-7.94368 9.61224,-17.63119 9.61224,-17.63119" fill="none" stroke="#000000" stroke-width="1" stroke-linecap="round"/><path d="M275.08952,226.28415c0,0 12.54213,-11.92352 29.6377,-8.56416c18.72604,3.67974 20.19758,20.86477 20.19758,20.86477" fill="none" stroke="#000000" stroke-width="1" stroke-linecap="round"/><path d="M274.80915,235.80394c0,0 14.7429,-9.97544 29.83473,-7.04351c12.39177,2.40739 14.98536,16.76678 14.98536,16.76678" fill="none" stroke="#000000" stroke-width="1" stroke-linecap="round"/><path d="M312.01476,212.85254c-1.08531,-0.51895 -1.63204,-1.63613 -1.22122,-2.49528c0.41078,-0.85921 1.13878,-0.53672 2.22408,-0.01778c1.08531,0.51895 2.11688,1.03782 1.70607,1.897c-0.41078,0.85921 -1.62366,1.13502 -2.70892,0.61606z" fill="#8fbbbe" stroke="none" stroke-width="0" stroke-linecap="butt"/><path d="M318.08576,216.85276c-0.59821,0.06265 -1.15934,-0.61395 -1.25334,-1.51126c-0.094,-0.89732 -0.00849,-1.27666 0.58972,-1.33934c0.59821,-0.06265 1.33989,0.59503 1.43385,1.49235c0.094,0.89732 -0.17206,1.29558 -0.77025,1.35823z" fill="#8fbbbe" stroke="none" stroke-width="0" stroke-linecap="butt"/><path d="M305.74566,209.92635c-0.90226,-0.00217 -1.63244,-0.49147 -1.63101,-1.09294c0.00139,-0.60144 0.79071,-0.54576 1.69293,-0.54362c0.90226,0.00217 1.57571,-0.05012 1.5743,0.55135c-0.00139,0.60144 -0.734,1.08735 -1.63622,1.08519z" fill="#8fbbbe" stroke="none" stroke-width="0" stroke-linecap="butt"/><path d="M282.49644,215.10548c0,0 9.27887,-4.3107 16.84448,-4.73653c4.28932,-0.24141 8.15308,1.02655 11.07162,2.02067c2.58101,0.87912 7.47641,5.26785 10.87383,9.01694c2.50135,2.76025 4.03403,5.27378 4.03403,5.27378" fill="none" stroke="#000000" stroke-width="0.5" stroke-linecap="round"/><path d="M316.18951,209.20363c0,0 0.69632,10.54956 -0.9443,15.69985c-1.38225,4.33925 -7.89676,13.14977 -7.89676,13.14977" fill="none" stroke="#000000" stroke-width="1" stroke-linecap="round"/><path d="M301.58198,237.0147c0,0 -0.52892,-9.65135 0.36934,-14.08349c1.57718,-7.782 7.97825,-15.99194 7.97825,-15.99194" fill="none" stroke="#000000" stroke-width="1" stroke-linecap="round"/></g><g stroke="#000000" stroke-linecap="butt"><path d="M273.37745,241.00059c32.64784,6.74069 36.6851,15.50173 35.04901,23.42597c-1.6361,7.92424 -29.42872,8.88369 -62.07657,2.14298c-32.64784,-6.7407 25.06713,-50.15119 26.70323,-58.07543c5.00571,-5.02704 7.81678,0.86326 6.56642,8.62165c-1.54199,9.56791 -9.03269,23.30867 -6.24208,23.88485z" fill="#0d69be" stroke-width="2"/><path d="M300.34897,234.22652c14.01328,2.89327 22.96746,16.8911 19.99972,31.26502c-2.96774,14.37392 -16.73357,23.68082 -30.74686,20.78754c-14.01328,-2.89328 -22.96746,-16.89111 -19.99973,-31.26503c2.96774,-14.37392 16.73358,-23.6808 30.74686,-20.78753z" fill="#faddbf" stroke-width="2"/><path d="M280.88519,270.78345c14.01328,2.89328 41.67138,-20.2261 38.70364,-5.85218c-2.96774,14.37392 -16.73358,23.68081 -30.74686,20.78753c-14.01328,-2.89328 -21.97008,-17.82863 -7.95678,-14.93535z" fill="#ef8b89" stroke-width="0"/></g></g></g></g></svg>