<svg version="1.1" xmlns="http://www.w3.org/2000/svg" xmlns:xlink="http://www.w3.org/1999/xlink" width="183.18182" height="183.18182" viewBox="0,0,183.18182,183.18182"><g transform="translate(-148.40909,-92.40909)"><g data-paper-data="{&quot;isPaintingLayer&quot;:true}" fill-rule="nonzero" stroke="none" stroke-width="0" stroke-linecap="butt" stroke-linejoin="miter" stroke-miterlimit="10" stroke-dasharray="" stroke-dashoffset="0" style="mix-blend-mode: normal"><path d="" data-paper-data="{&quot;index&quot;:null}" fill="#87a9bc"/><path d="" data-paper-data="{&quot;index&quot;:null}" fill="#87a9bc"/><path d="M148.40909,275.59091v-183.18182h183.18182v183.18182z" fill="none"/><g><path d="M309.73402,177.05675c0,3.69103 -47.0293,60.82347 -57.83975,67.17023c-5.36509,3.1498 -12.52611,4.23792 -15.06955,4.31094c-3.81099,0.1094 -12.44304,-1.72512 -18.44145,-6.3434c-8.36652,-6.44153 -15.93903,-17.40567 -23.43668,-27.81953c-13.90513,-19.31352 -25.02658,-39.14228 -25.02658,-40.32037c0,-1.57242 21.93601,-20.8154 26.43612,-20.87915c2.02587,-0.0287 14.46567,24.32641 16.74039,24.74014c1.27921,0.23266 4.79703,2.15906 5.16552,-0.457c0.1679,-1.19199 -0.24585,-57.36129 1.00475,-57.58426c2.11255,-0.37665 2.22848,-5.538 14.28828,-6.63389c9.85783,-0.8958 22.63003,0.59194 23.48054,1.3826c0.71257,0.66242 1.48999,4.53816 1.60761,8.589c0.38102,13.12287 -2.0429,37.59892 -1.74952,40.16586c0.32979,2.88553 -1.22178,12.88125 1.63893,15.17442c2.54273,2.03828 7.81696,-3.39341 9.36251,-4.77678c11.28384,-10.0998 18.80946,-22.89388 20.36496,-22.59948c1.41167,0.26717 21.47389,24.36317 21.47389,25.88067z" data-paper-data="{&quot;noHover&quot;:false,&quot;origItem&quot;:[&quot;Path&quot;,{&quot;applyMatrix&quot;:true,&quot;segments&quot;:[[[468.26192,506.02382],[0,0],[3.035,0]],[[519.97642,463.09056],[-0.53434,2.82334],[0.5888,-3.11102]],[[474.8537,422.54302],[20.1996,22.56768],[-2.76674,-3.0911]],[[465.26432,403.62164],[-4.07656,5.08546],[4.58634,-5.72142]],[[495.5535,400.37302],[-5.77106,0.65958],[5.13388,-0.58676]],[[575.86152,403.91104],[-26.24574,0.76204],[8.10168,-0.23524]],[[593.03778,400.70172],[-1.32484,1.42514],[1.58132,-1.70102]],[[595.80018,353.77508],[1.7916,19.71566],[-2.19178,-24.1196]],[[582.53724,325.22126],[0.7533,4.2251],[-0.44594,-2.5012]],[[467.44836,323.27862],[2.38398,0.3358],[-5.23212,-0.73698]],[[466.56002,312.74928],[-0.46532,2.55842],[0.82746,-4.54944]],[[515.97618,279.4524],[0.0574,4.05174],[-0.1275,-9.00022]],[[474.2619,226.59526],[3.14484,0],[-2.35618,0]],[[393.69066,276.6289],[38.62704,-27.81026],[-20.82772,14.9953]],[[338.08606,323.45518],[12.88306,-16.73304],[-9.23656,11.99682]],[[325.40476,360.30956],[-0.2188,-7.62198],[0.14602,5.08688]],[[334.02496,390.42556],[-6.2996,-10.73018],[12.69352,21.6209]],[[468.2619,506.02386],[-7.38206,0],[0,0]]],&quot;closed&quot;:true,&quot;fillColor&quot;:[0,0,0],&quot;strokeWidth&quot;:0}]}" fill="#87a3ad"/><path d="M237.73167,251.88081c-17.11667,0 -30.6012,-14.57621 -42.48814,-30.54439c-16.24518,-21.82277 -27.98804,-46.89609 -27.98804,-46.89609l28.43768,-25.78618l17.94286,24.9271l4.45279,-59.97425l41.07798,-1.62225l1.88894,60.20153l27.08135,-27.31984l25.03507,31.57389c0,0 -26.58426,39.21036 -49.90104,60.8706c-10.35772,9.62186 -18.51799,14.56987 -25.53944,14.56987zM306.28327,176.85701c0,-1.01606 -21.23571,-24.8223 -21.23571,-24.8223c0,0 -21.09084,26.65563 -25.59762,26.65563c-0.15838,0 -2.79562,2.07744 -3.75479,-2.07195c-0.82696,-3.57743 0.5056,-20.41387 0.64011,-27.62706c0.33399,-17.91049 1.02956,-30.72657 -0.38746,-30.63356c-0.18164,0.01192 -2.58705,-0.84579 -6.41559,-1.18409c-6.71733,-0.59356 -16.51788,-0.09454 -19.45166,0.99999c-1.72406,0.64321 -7.14274,1.18277 -8.25098,1.94475c-1.13604,0.78111 -1.04707,7.26015 -1.28628,17.03426c-0.29304,11.97337 -0.36393,29.91129 -1.48443,38.126c-0.38551,2.82633 -1.18915,3.32617 -1.76889,3.63587c-2.2192,1.18552 -6.3543,-7.98816 -11.21679,-14.64834c-4.01189,-5.49512 -8.21635,-9.93289 -8.21635,-9.93289c0,0 -24.51388,19.28597 -24.40689,20.52368c0.24061,2.78344 25.324,45.22972 45.04728,64.64296c1.15094,1.13285 8.69003,5.86357 20.03425,5.19428c9.9804,-0.58883 18.64006,-6.45979 20.80022,-8.72147c15.82925,-16.57318 46.95157,-57.55903 46.95157,-59.11576z" fill="#ffffff"/><path d="M231.00549,255.732c-3.50269,-0.11879 -17.50525,-6.3911 -29.1746,-19.3766c-3.06671,-3.4126 -6.76012,-6.74579 -9.75609,-10.58814c-16.28558,-20.88639 -29.43071,-46.73678 -29.52765,-49.61859c-0.02702,-0.80346 -1.06656,-5.63673 2.94728,-9.19834c9.0704,-8.04846 28.71026,-20.32255 32.01282,-21.48138c0.36882,-0.12941 3.21113,1.2098 6.25754,4.35821c3.66995,3.79282 7.38611,9.78436 7.68098,9.82519c1.79131,0.24805 -1.54591,-44.6061 1.05971,-45.08702c0.26366,-0.04867 2.22155,-4.83071 7.30509,-6.91492c2.3784,-0.97512 5.16051,-2.65114 8.84993,-3.25615c7.85444,-1.28801 23.91176,-0.49938 30.56181,0.88707c2.7569,0.57478 5.13763,6.62797 6.28583,8.98571c1.30059,2.67066 -0.35778,44.43363 0.71922,48.85244c0.16878,0.69246 9.17272,-13.6461 15.63785,-18.92683c1.79587,-1.46687 5.12082,-2.37664 6.03463,-2.20052c8.31399,1.60233 30.05203,31.85841 29.68896,36.03154c-0.4269,4.9068 -23.96654,34.91268 -42.88382,55.87248c-4.74993,5.26279 -11.52279,10.8419 -17.50833,14.6827c-5.14329,3.30035 -9.49429,5.63362 -10.9074,6.24004c-5.8703,2.51917 -13.30187,0.98032 -15.28377,0.91311zM309.68406,177.05938c0,-1.5175 -20.05496,-25.59008 -21.46663,-25.85725c-1.55551,-0.2944 -8.82326,12.96156 -20.1071,23.06136c-1.54555,1.38337 -7.08463,6.33297 -9.62736,4.29469c-2.86071,-2.29317 -1.29452,-12.25906 -1.62431,-15.14459c-0.29338,-2.56694 2.15003,-27.03114 1.76901,-40.15401c-0.11762,-4.05084 -0.89209,-7.92571 -1.60466,-8.58813c-0.85051,-0.79066 -13.60549,-2.277 -23.46332,-1.3812c-12.0598,1.09589 -12.16436,6.25482 -14.27691,6.63147c-1.2506,0.22297 -0.97686,57.07175 -1.55465,58.12777c-0.83457,1.52532 -4.28237,0.63352 -5.18134,-0.30583c-2.2589,-2.36037 -7.27706,-9.64462 -10.57137,-15.18097c-3.31094,-5.5643 -4.89492,-9.37483 -5.91041,-9.36044c-4.50011,0.06375 -26.09524,19.28472 -26.09524,20.85714c0,1.17809 11.11169,20.9721 25.01682,40.28562c7.49765,10.41386 15.04662,21.36077 23.41314,27.8023c5.99841,4.61828 14.6162,6.45005 18.42719,6.34065c2.54344,-0.07301 9.69291,-1.1603 15.058,-4.3101c10.81045,-6.34676 57.79915,-63.42744 57.79915,-67.11847z" fill="#000000"/></g></g></g></svg>