<svg version="1.1" xmlns="http://www.w3.org/2000/svg" xmlns:xlink="http://www.w3.org/1999/xlink" width="217.27067" height="337.46775" viewBox="0,0,217.27067,337.46775"><g transform="translate(-194.59808,6.88964)"><g data-paper-data="{&quot;isPaintingLayer&quot;:true}" fill-rule="nonzero" stroke-linejoin="miter" stroke-miterlimit="10" stroke-dasharray="" stroke-dashoffset="0" style="mix-blend-mode: normal"><g data-paper-data="{&quot;index&quot;:null}" stroke="#000000" stroke-linecap="butt"><path d="M359.37369,266.98328v-48.0604h50.99742v48.0604z" fill="#ffcaa0" stroke-width="2"/><g><path d="M359.20662,219.10316v-66.27003h51.66212v66.27003z" fill="#ff0008" stroke-width="2"/><path d="M359.9502,219.31564v-34.71028c0,0 15.45362,14.41812 24.0302,14.41812c8.13188,0 26.16622,-14.41812 26.16622,-14.41812v34.71029c0,0 -16.51011,0 -24.83121,0c-8.4101,0 -25.36521,0 -25.36521,0z" fill="#8d005e" stroke-width="0"/></g><path d="M360.16438,266.43895v-48.0604l13.0831,32.57427l37.91432,15.48613z" fill="#ff6e5b" stroke-width="0"/></g><g data-paper-data="{&quot;index&quot;:null}" stroke="#000000" stroke-linecap="butt"><path d="M396.92988,63.94739c0,32.20527 -11.88407,58.3128 -26.54382,58.3128c-14.65975,0 -26.54382,-26.10753 -26.54382,-58.3128c0,-32.20527 11.88407,-58.3128 26.54382,-58.3128c14.65975,0 26.54382,26.10753 26.54382,58.3128z" fill="#01930e" stroke-width="2"/><path d="M353.02237,53.89892c0,32.20527 32.42529,67.9271 17.76555,67.9271c-14.65974,0 -26.54382,-26.10753 -26.54382,-58.3128c0,-32.20527 8.77827,-41.81957 8.77827,-9.6143z" fill="#31525b" stroke-width="0"/></g><g data-paper-data="{&quot;index&quot;:null}" stroke="#000000" stroke-linecap="butt"><path d="M298.86371,329.13374v-90.27109h61.17899v90.27109z" fill="#273750" stroke-width="2"/><path d="M299.65105,328.37717v-90.27109l18.42709,49.31565l42.75189,40.95544z" fill="#1f1e2e" stroke-width="0"/></g><path d="M246.87899,238.45138v-113.80147h113.80147v113.80147z" data-paper-data="{&quot;index&quot;:null}" fill="#ff0008" stroke="#000000" stroke-width="2" stroke-linecap="butt"/><g data-paper-data="{&quot;index&quot;:null}" stroke="#000000" stroke-linecap="butt"><path d="M246.25776,329.57811v-90.27109h61.17899v90.27109z" fill="#273750" stroke-width="2"/><path d="M247.04514,328.82151v-90.27109l18.42709,49.31565l42.75189,40.95544z" fill="#1f1e2e" stroke-width="0"/></g><g data-paper-data="{&quot;index&quot;:null}" stroke="#000000" stroke-linecap="butt"><path d="M195.76516,267.02537v-48.0604h50.99742v48.0604z" fill="#ffcaa0" stroke-width="2"/><g><path d="M195.59808,219.14525v-66.27003h51.66212v66.27003z" fill="#ff0008" stroke-width="2"/><path d="M196.34166,219.35773v-34.71028c0,0 15.45362,14.41812 24.0302,14.41812c8.13188,0 26.16622,-14.41812 26.16622,-14.41812v34.71029c0,0 -16.51011,0 -24.83121,0c-8.4101,0 -25.36521,0 -25.36521,0z" fill="#8d005e" stroke-width="0"/></g><path d="M196.55584,266.48105v-48.0604l13.0831,32.57427l37.91432,15.48613z" fill="#ff6e5b" stroke-width="0"/></g><g data-paper-data="{&quot;index&quot;:null}" fill="#000000" stroke="#000000" stroke-linecap="butt"><path d="M273.77207,237.98216v-111.68333h61.17899v111.68333z" stroke-width="2"/><path d="M274.55945,237.04613v-111.68333l18.42709,61.01328l42.75189,50.67005z" stroke-width="0"/></g><g data-paper-data="{&quot;index&quot;:null}" stroke="#000000" stroke-linecap="butt"><path d="M219.50158,62.37813c0,-1.37646 0.88696,-27.38008 0.98912,-28.73546c2.58143,-34.24932 36.46023,-36.73529 78.90464,-36.73529c39.86984,0 74.31045,4.54212 80.31266,35.83276c0.64046,3.33883 -0.4189,26.15173 -0.4189,29.63798c0,12.46114 2.98952,39.84953 -4.38487,49.76492c-14.02387,18.8561 -46.59108,15.70582 -75.50889,15.70582c-30.57536,0 -59.08782,0.98125 -72.51838,-19.6932c-5.95144,-9.1614 -7.37538,-34.67471 -7.37538,-45.77754z" fill="#ffcaa0" stroke-width="2"/><path d="M217.66822,62.38832c0,-1.37646 0.88696,-27.38008 0.98912,-28.73546c1.46665,-19.45883 6.86352,60.55627 54.65026,82.48122c37.44896,17.1819 103.38086,-8.07612 100.416,-4.08965c-14.02387,18.8561 -47.24381,15.81461 -76.16161,15.81461c-30.57536,0 -59.08782,0.98125 -72.51838,-19.6932c-5.95144,-9.1614 -7.37538,-34.67471 -7.37538,-45.77754z" fill="#ff6e5b" stroke-width="0"/></g><g data-paper-data="{&quot;index&quot;:null}" stroke="#000000" stroke-linecap="butt"><path d="M264.85395,61.87347c0,32.20527 -11.88407,58.3128 -26.54382,58.3128c-14.65975,0 -26.54382,-26.10753 -26.54382,-58.3128c0,-32.20527 11.88407,-58.3128 26.54382,-58.3128c14.65975,0 26.54382,26.10753 26.54382,58.3128z" fill="#01930e" stroke-width="2"/><path d="M220.94644,51.82501c0,32.20527 32.42529,67.9271 17.76555,67.9271c-14.65974,0 -26.54382,-26.10753 -26.54382,-58.3128c0,-32.20527 8.77827,-41.81957 8.77827,-9.6143z" fill="#31525b" stroke-width="0"/></g><g data-paper-data="{&quot;index&quot;:null}" stroke-linecap="butt"><path d="M395.692,25.08834c0,17.66096 -41.36032,31.97799 -92.38086,31.97799c-51.02054,0 -92.38085,-14.31704 -92.38085,-31.97799c0,-17.66096 41.36031,-31.97798 92.38085,-31.97798c51.02054,0 92.38086,14.31703 92.38086,31.97799z" fill="#000000" stroke="none" stroke-width="NaN"/><path d="M394.96189,25.43263c0,17.66096 -41.36032,31.97799 -92.38086,31.97799c-51.02054,0 -92.38085,-14.31704 -92.38085,-31.97799c0,-17.66096 42.79284,8.849 93.81338,8.849c51.02054,0 90.94833,-26.50996 90.94833,-8.849z" fill="#ff0000" stroke="#000000" stroke-width="2"/><path d="M389.57608,34.62957c0,4.86014 -36.34648,23.48345 -87.36702,22.05092c-17.85411,-0.5013 -34.69662,-2.13318 -48.42942,-5.08703c-25.49507,-5.48385 -41.14666,-14.06638 -38.81909,-18.15612c2.40397,-4.22396 37.6605,16.87826 88.68104,16.87826c51.02054,0 85.93449,-20.54617 85.93449,-15.68603z" fill="#900056" stroke="#000000" stroke-width="0"/></g><path d="M325.24932,87.15723c0,15.71752 -2.90507,28.45909 -6.48867,28.45909c-3.5836,0 -6.48867,-12.74157 -6.48867,-28.45908c0,-15.71752 2.90508,-28.45908 6.48867,-28.45908c3.5836,0 6.48867,12.74157 6.48867,28.45909z" data-paper-data="{&quot;index&quot;:null}" fill="#000000" stroke="none" stroke-width="0" stroke-linecap="butt"/><path d="M350.99894,82.83561c0,15.65465 -2.75218,28.34525 -6.14716,28.34525c-3.39499,0 -6.14716,-12.6906 -6.14716,-28.34525c0,-15.65465 2.75218,-28.34525 6.14716,-28.34525c3.39499,0 6.14716,12.6906 6.14716,28.34525z" data-paper-data="{&quot;index&quot;:null}" fill="#000000" stroke="none" stroke-width="0" stroke-linecap="butt"/><path d="M328.38828,60.41555h-30" fill="none" stroke="#000000" stroke-width="5" stroke-linecap="round"/><path d="M337.4359,57.7965l23.33333,-4.52381" fill="none" stroke="#000000" stroke-width="5" stroke-linecap="round"/><path d="M293.41959,112.40123c-2.99681,6.15782 -8.12344,9.83707 -11.45065,8.21783c-3.32721,-1.61924 -3.59506,-7.9238 -0.59825,-14.08162c2.99681,-6.15782 8.12344,-9.83707 11.45065,-8.21783c3.32721,1.61924 3.59506,7.9238 0.59825,14.08162z" fill="#000000" stroke="none" stroke-width="0" stroke-linecap="butt"/></g></g></svg>