<svg version="1.1" xmlns="http://www.w3.org/2000/svg" xmlns:xlink="http://www.w3.org/1999/xlink" width="256.60107" height="310.80609" viewBox="0,0,256.60107,310.80609"><g transform="translate(-146.99226,-50.00978)"><g data-paper-data="{&quot;isPaintingLayer&quot;:true}" fill-rule="nonzero" stroke-linejoin="miter" stroke-miterlimit="10" stroke-dasharray="" stroke-dashoffset="0" style="mix-blend-mode: normal"><g stroke="#000000" stroke-linecap="butt"><path d="M347.17247,354.06232l-57.93711,-75.65985l23.4153,-17.93045l57.93712,75.65985z" fill="#73fffc" stroke-width="2"/><path d="M346.53815,353.76975l-55.96657,-75.26795c0,0 45.54153,50.91482 52.20084,57.67522c1.47217,1.49451 3.69876,0.68154 3.69876,0.68154l22.76097,-0.88063z" fill="#59a9e6" stroke-width="0"/></g><g stroke="#000000" stroke-linecap="butt"><path d="M251.67521,326.58483l36.09093,-88.19618l27.29506,11.16947l-36.09093,88.19619z" fill="#73fffc" stroke-width="2"/><path d="M251.60776,325.88955l36.74682,-86.29712c0,0 -20.98077,65.00891 -23.4576,74.1694c-0.54755,2.0251 1.27778,3.53731 1.27778,3.53731l12.24444,19.20705z" fill="#59a9e6" stroke-width="0"/></g><path d="M216.42643,334.22647c1.51965,-11.56337 14.88253,-8.00599 32.64094,-5.67219c14.20846,1.86726 28.82161,-7.08287 32.55995,-1.02767c0.93402,1.51288 -0.58823,12.83977 -0.89202,15.15131c-1.51965,11.56337 -17.1476,19.04542 -34.90601,16.71162c-17.75841,-2.3338 -30.92252,-13.59968 -29.40287,-25.16305z" data-paper-data="{&quot;index&quot;:null}" fill="#000082" stroke="#000000" stroke-width="2" stroke-linecap="butt"/><path d="M250.23943,329.2831c14.20846,1.86726 26.31227,-5.37381 30.38061,-1.82963c1.01647,0.88551 -0.48444,12.05007 -0.64875,13.30039c-0.82198,6.25463 -13.35742,7.59014 -31.11583,5.25634c-17.75841,-2.3338 -31.02479,-7.99232 -30.20281,-14.24696c0.82198,-6.25463 13.82838,-4.81394 31.58678,-2.48014z" data-paper-data="{&quot;index&quot;:null}" fill="#2e0048" stroke="#000000" stroke-width="0" stroke-linecap="butt"/><g stroke="#000000" stroke-linecap="butt"><path d="M402.49785,334.31892c1.35955,11.58329 -11.95915,22.666 -29.74814,24.75392c-17.78899,2.08792 -33.31195,-5.60959 -34.6715,-17.19288c-0.27178,-2.31552 -1.6372,-13.66238 -0.68234,-15.1622c3.82175,-6.0029 18.3097,3.14852 32.54263,1.47797c17.78899,-2.08792 31.1998,-5.46011 32.55935,6.12317z" fill="#000082" stroke-width="2"/><path d="M400.30592,331.82515c0.73538,6.2654 -12.608,11.73987 -30.397,13.8278c-17.78899,2.08792 -30.30476,0.57914 -31.04014,-5.68626c-0.147,-1.25247 -1.49333,-12.43673 -0.46472,-13.30809c4.11698,-3.48756 16.11947,3.92026 30.3524,2.24971c17.78899,-2.08792 30.81407,-3.34856 31.54946,2.91684z" fill="#2e0048" stroke-width="0"/></g><g><g stroke="#000000" stroke-linecap="butt"><path d="M316.78056,222.28771c23.87464,23.98885 38.3607,47.99041 32.35553,53.60899c-6.00518,5.61858 -30.22756,-9.27348 -54.1022,-33.26233c-23.87464,-23.98885 -38.3607,-47.99041 -32.35553,-53.60899c6.00518,-5.61858 30.22756,9.27348 54.1022,33.26234z" fill="#0d69be" stroke-width="2"/><path d="M359.83581,246.40668c10.2476,10.29662 9.72448,26.90563 -1.16843,37.09727c-10.8929,10.19163 -28.03067,10.10654 -38.27826,-0.19009c-10.2476,-10.29663 -9.72448,-26.90563 1.16843,-37.09727c10.8929,-10.19164 28.03067,-10.10653 38.27826,0.19009z" fill="#faddbf" stroke-width="2"/><path d="M321.98626,265.60237c10.2476,10.29663 47.25314,6.81859 36.36024,17.01023c-10.8929,10.19163 -28.03065,10.10653 -38.27826,-0.19009c-10.2476,-10.29663 -8.32958,-27.11676 1.91801,-16.82013z" fill="#ef8b89" stroke-width="0"/></g><g stroke="#000000" stroke-linecap="butt"><path d="M321.38945,236.22594c2.89902,13.51347 17.86285,33.9278 14.75635,44.47816c-3.79903,12.90236 -26.98111,14.73195 -37.40916,16.83505c-13.79615,2.78237 -32.38958,10.79168 -41.83355,-6.71275c-3.53149,-6.54563 -2.40225,-32.58105 -4.15618,-40.75682c-6.44432,-30.03953 3.69768,-57.49039 22.65279,-61.3132c18.95511,-3.82281 39.54542,17.43003 45.98974,47.46957z" fill="#0d69be" stroke-width="2"/><path d="M272.89731,261.9157c2.89902,13.51347 66.96314,7.48374 63.85663,18.03409c-3.79903,12.90235 -26.98111,14.73195 -37.40916,16.83505c-13.79615,2.78237 -32.38957,10.79167 -41.83354,-6.71274c-3.5315,-6.54563 -2.40226,-32.58106 -4.15618,-40.75682c-1.98532,-9.25436 -2.62529,-28.68065 -0.72091,-30.46417c2.48088,-17.6233 15.84759,22.48194 20.26316,43.06459z" fill="#10157d" stroke-width="0"/></g><g><g><path d="M265.94925,277.84415c-15.19675,-3.24276 -22.39058,-12.54647 -19.78434,-27.26801c2.03833,-11.51387 17.60888,-21.51911 32.80566,-18.27634c15.19683,3.24274 24.07529,15.11957 20.76418,29.70732c-0.51779,2.28125 -1.69395,4.23758 -2.75094,6.03411c-5.70215,9.69143 -18.21425,12.53858 -31.03454,9.80293z" fill="#0000c4" stroke="#000000" stroke-width="2" stroke-linecap="butt"/><path d="M264.95432,234.51294c0,0 -1.71665,5.51005 -0.36691,7.02686c12.94689,14.54967 26.82307,18.57508 31.51733,19.56688c1.06654,0.22534 1.86033,-0.59226 1.86033,-0.59226c0,0 -0.24238,2.10069 -1.43329,4.58678c-1.26722,2.64543 -3.56014,5.73758 -6.11698,7.55397c-2.92067,2.0748 -10.93202,5.1032 -10.93202,5.1032l-21.56717,-1.25665c0,0 -8.4531,-10.66679 -9.12045,-12.73519c-0.65379,-2.02633 -0.82801,-4.60591 -1.12711,-7.34138c-0.46435,-4.24722 0.68987,-8.64659 2.20226,-11.12539c1.93019,-3.1635 5.58209,-6.19903 8.96809,-8.14433c3.15131,-1.81046 6.11589,-2.64237 6.11589,-2.64237z" fill="#2e006f" stroke="none" stroke-width="0" stroke-linecap="butt"/><path d="M261.93933,258.77446c0,0 0.07393,-9.02181 3.34414,-13.08709c4.13971,-5.14623 14.9779,-12.74049 14.9779,-12.74049" fill="none" stroke="#000000" stroke-width="1" stroke-linecap="round"/><path d="M299.61824,254.91967c0,0 -3.06789,6.50244 -5.82065,9.87112c-2.77899,3.40088 -11.35994,8.39397 -11.35994,8.39397" fill="none" stroke="#000000" stroke-width="1" stroke-linecap="round"/><path d="M250.65104,259.52533c0,0 -0.06679,-9.26187 3.68213,-13.50879c5.75261,-6.51675 15.14465,-13.69792 15.14465,-13.69792" fill="none" stroke="#000000" stroke-width="1" stroke-linecap="round"/><path d="M249.7051,244.26894c0,0 16.1548,-7.35738 31.7929,1.22417c17.12955,9.39999 12.97767,26.17154 12.97767,26.17154" fill="none" stroke="#000000" stroke-width="1" stroke-linecap="round"/><path d="M246.33294,253.21405c0,0 17.67475,-4.81445 31.4909,2.7293c11.34431,6.19411 9.21003,20.63838 9.21003,20.63838" fill="none" stroke="#000000" stroke-width="1" stroke-linecap="round"/><path d="M290.21413,243.17355c-0.89331,-0.83486 -1.06486,-2.06748 -0.38321,-2.75314c0.68161,-0.68573 1.28916,-0.15002 2.18247,0.68484c0.89331,0.83486 1.73406,1.6527 1.05242,2.33838c-0.68161,0.68573 -1.9584,0.56477 -2.85165,-0.27009z" fill="#8fbbbe" stroke="none" stroke-width="0" stroke-linecap="butt"/><path d="M294.85407,248.88491c-0.60585,-0.12929 -0.93486,-0.94837 -0.73486,-1.82951c0.19999,-0.88114 0.40712,-1.21413 1.01297,-1.08487c0.60585,0.12929 1.11771,0.98739 0.91768,1.86852c-0.19999,0.88114 -0.58998,1.17512 -1.19582,1.04583z" fill="#8fbbbe" stroke="none" stroke-width="0" stroke-linecap="butt"/><path d="M285.03082,238.4189c-0.88232,-0.28673 -1.43773,-0.98141 -1.24061,-1.55172c0.19706,-0.57028 0.95145,-0.26841 1.83375,0.01828c0.88232,0.28673 1.55844,0.44959 1.36134,1.01989c-0.19706,0.57028 -1.07218,0.80023 -1.95446,0.51352z" fill="#8fbbbe" stroke="none" stroke-width="0" stroke-linecap="butt"/><path d="M260.59175,235.99817c0,0 10.48385,-1.16297 18.02679,0.81995c4.27646,1.12424 7.64529,3.54648 10.17812,5.41064c2.23994,1.64855 5.6029,7.35764 7.70796,11.98716c1.54985,3.40846 2.23195,6.27718 2.23195,6.27718" fill="none" stroke="#000000" stroke-width="0.5" stroke-linecap="round"/><path d="M295.48727,241.02819c0,0 -2.75138,10.23041 -6.03296,14.60002c-2.7648,3.68151 -12.00745,9.98663 -12.00745,9.98663" fill="none" stroke="#000000" stroke-width="1" stroke-linecap="round"/><path d="M272.14123,262.80998c0,0 2.62293,-9.32526 4.94428,-13.24762c4.07586,-6.88691 13.01205,-12.65793 13.01205,-12.65793" fill="none" stroke="#000000" stroke-width="1" stroke-linecap="round"/></g><g stroke="#000000" stroke-linecap="butt"><path d="M243.24074,257.69356c29.75863,16.69703 30.85897,26.28435 26.67917,33.28765c-4.1798,7.0033 -31.69235,-0.85503 -61.45098,-17.55207c-29.75863,-16.69703 40.85231,-39.68079 45.0321,-46.68408c6.53485,-3.19094 7.36929,3.2854 3.62097,10.25303c-4.62256,8.59271 -16.42492,19.26827 -13.88128,20.69547z" fill="#0d69be" stroke-width="2"/><path d="M271.84176,259.77517c12.77316,7.16679 16.98158,23.27475 9.39976,35.97815c-7.58181,12.70341 -24.08279,17.19172 -36.85595,10.02494c-12.77316,-7.16679 -16.98157,-23.27477 -9.39975,-35.97817c7.58181,-12.70341 24.08279,-17.19172 36.85594,-10.02493z" fill="#faddbf" stroke-width="2"/><path d="M240.89704,288.32395c12.77316,7.16679 47.36496,-6.0454 39.78314,6.658c-7.58181,12.70341 -24.08279,17.19172 -36.85594,10.02493c-12.77316,-7.16679 -15.70036,-23.84972 -2.9272,-16.68292z" fill="#ef8b89" stroke-width="0"/></g></g><g stroke-linecap="butt"><g data-paper-data="{&quot;index&quot;:null}"><g stroke="#000000"><g><path d="M232.28653,222.90375c-48.1666,-2.8864 -84.80006,-43.08549 -81.82311,-89.78716c2.97694,-46.70168 44.43698,-82.22098 92.60357,-79.33456c48.1666,2.8864 84.80005,43.08549 81.8231,89.78716c-2.97694,46.70168 -44.43698,82.22098 -92.60357,79.33457z" fill="#faddbf" stroke-width="2"/><path d="M324.70786,142.6871c-2.97694,46.70168 -44.43698,82.22097 -92.60357,79.33456c-6.24118,-0.374 -18.91194,-3.0971 -21.30297,-4.0509c-1.49473,-0.59627 28.41684,-5.18961 50.1383,-17.21982c11.65553,-6.45531 18.98086,-20.45473 22.25293,-25.01016c1.69399,-0.33823 7.47762,-19.6704 7.48449,-19.73041c2.88435,-25.16534 -19.39791,-88.90336 -11.0313,-90.97791c0.64126,-0.15901 12.52724,7.37447 21.61844,16.28338c7.31432,7.16766 12.19726,16.01979 12.704,16.41793c4.43713,3.4862 11.69751,29.9277 10.73973,44.95332z" fill="#ef8b89" stroke-width="0"/><path d="M151.0314,132.69155c2.32477,-36.47056 47.97186,-44.98264 87.83121,-21.95435c41.64205,24.05823 88.00471,-1.54418 85.67993,34.92638c-1.15613,18.13722 -9.22949,9.63379 -22.71971,-3.83809c-2.79401,-2.79021 -13.9481,9.48695 -17.1935,6.46303c-4.13671,-3.85439 -7.75233,-9.39091 -11.39538,-15.12772c-2.93349,-4.61946 -14.90818,11.65018 -18.1636,7.54466c-5.0097,-6.3179 -4.76946,-13.32766 -12.26336,-13.77674c-2.81787,-0.16886 -11.12973,11.09652 -13.95037,11.25548c-2.18719,0.12327 -8.83955,-12.5108 -10.98902,-12.27657c-3.90338,0.42536 -13.30333,10.13122 -16.968,11.0377c-1.46936,0.36346 -12.34512,-9.1554 -13.75255,-8.76618c-2.01295,0.55669 -9.7542,9.51486 -11.5669,10.17912c-2.88595,1.05754 -10.70938,-6.87331 -12.99298,-5.83615c-9.42394,4.28012 -9.54054,12.21277 -10.24048,14.06353c-0.6861,1.81414 -2.05482,-2.29191 -1.31525,-13.89411z" fill="#ef8b89" stroke-width="0"/></g><path d="M149.98116,124.30187c2.32477,-36.47056 47.66641,-75.9813 94.94364,-73.14818c47.27724,2.83311 85.46699,49.9238 83.14222,86.39436c-1.15613,18.13722 -9.45557,9.62024 -23.32232,-3.87421c-2.87198,-2.79489 -14.29823,9.46597 -17.63385,6.43665c-4.2517,-3.86129 -7.97146,-9.40405 -11.7197,-15.14716c-3.01818,-4.62453 -15.27989,11.6279 -18.62761,7.51685c-5.15172,-6.3264 -4.9169,-13.3365 -12.6082,-13.79741c-2.8921,-0.17331 -11.40321,11.08012 -14.29761,11.23467c-2.24438,0.11984 -9.09243,-12.52595 -11.29791,-12.29507c-4.00509,0.41926 -13.63547,10.11132 -17.39477,11.01213c-1.5073,0.36118 -12.68437,-9.17574 -14.12808,-8.78868c-2.06485,0.55358 -9.99424,9.50047 -11.8534,10.16196c-2.95991,1.05311 -11.00189,-6.89084 -13.34369,-5.85717c-19.13692,8.44705 -13.35276,23.58988 -11.85869,0.15126z" fill="#873412" stroke-width="2"/><path d="M150.31019,123.15658c2.32477,-36.47056 49.15544,-44.91172 90.09923,-21.81843c42.775,24.12612 90.31141,-1.40595 87.98664,35.06461c-1.15613,18.13722 -9.45557,9.62023 -23.32232,-3.87421c-2.87198,-2.79489 -14.29823,9.46597 -17.63385,6.43665c-4.25171,-3.86129 -7.97147,-9.40405 -11.71971,-15.14716c-3.01818,-4.62453 -15.27989,11.6279 -18.62761,7.51686c-5.15172,-6.3264 -4.9169,-13.3365 -12.6082,-13.79741c-2.8921,-0.17331 -11.40321,11.08012 -14.29761,11.23467c-2.24438,0.11984 -9.09243,-12.52595 -11.29791,-12.29508c-4.00509,0.41926 -13.63547,10.11133 -17.39477,11.01213c-1.5073,0.36118 -12.68437,-9.17574 -14.12808,-8.78868c-2.06486,0.55357 -9.99425,9.50048 -11.85341,10.16196c-2.95991,1.05311 -11.00189,-6.89084 -13.34369,-5.85717c-19.13692,8.44705 -13.35276,23.58989 -11.85869,0.15127z" fill="#741d23" stroke-width="0"/></g><path d="M241.81731,61.36796c0.06225,-0.09332 0.13524,-0.17491 0.21683,-0.24714c0.50825,-0.57242 1.27702,-0.91573 2.11452,-0.86554c0.94455,0.0566 1.73878,0.59945 2.13957,1.36172c1.21957,0.7762 0.13217,2.82883 0.08653,4.24263c-0.12939,4.008 3.11552,9.65901 -1.51963,11.87123c-0.41881,0.19988 -0.99462,-0.67831 -1.37465,-0.65458c-3.93827,0.24599 -3.1353,-0.9203 -4.24925,-4.00023c-0.22881,-0.63262 -1.38097,0.31516 -2.06325,0.20661c-1.68238,-0.26769 -1.96492,-3.70784 -2.07446,-3.01152c-0.23924,1.52075 -0.07081,2.69758 -1.7574,3.50253c-0.68982,0.32922 -1.96464,-1.0437 -2.27613,-0.36214c-0.67495,1.47684 -0.07634,4.07875 -2.82731,3.82736c-0.79567,-0.07271 -1.8618,-0.76237 -2.1898,-1.46405c-0.42705,-0.91354 -1.40021,-3.65539 -1.46195,-2.65418c-0.09999,1.62125 1.99887,3.57944 0.67191,5.27285c-2.44022,3.11407 -5.87389,-0.46633 -6.53268,-0.57744c-0.18563,-0.03131 0.65966,1.60855 0.70177,1.86662c0.11719,0.71806 -0.37719,1.79832 -0.83705,2.38515c-0.37717,0.48135 -9.17173,0.48466 -10.03631,0.38594c-0.97863,-0.11175 -1.11649,-2.38743 -2.04562,-2.06923c-1.05164,0.36017 -2.25263,1.01128 -3.28694,0.60667c-0.42994,-0.16819 -1.84167,-3.34247 -2.25305,-3.11026c-0.16941,0.09562 1.41859,2.20688 1.15126,2.8294c-0.46055,1.07244 -1.99362,2.93313 -3.18929,3.09407c-4.05087,0.54532 -3.54943,-2.82029 -5.24182,-2.79845c-0.75661,0.00976 -1.17881,1.07757 -1.93103,1.15709c-0.55871,0.05907 -1.63917,-0.92534 -1.63975,-0.38042c-0.00127,1.17878 -0.83454,3.42167 -2.26404,3.92199c-1.11586,0.39056 -2.44378,-1.66089 -3.40881,-0.99187c-2.78146,1.92829 -4.99842,-0.59825 -5.68615,-3.39921c-0.63355,-2.5803 2.21854,-3.13613 4.02191,-3.2436c0.76506,-0.04559 -0.33868,-1.51203 -0.12656,-2.22621c0.40361,-1.35892 1.75678,-2.02313 3.11685,-1.93841c1.63768,0.10201 2.55892,0.87568 4.05288,1.52882c0.22842,0.09985 1.68566,-0.81552 1.94104,-0.88138c0.65874,-0.16993 2.15606,1.12372 1.98301,0.48444c-1.36737,-5.05152 3.7801,-6.19458 7.58485,-3.70778c0.7452,0.48707 1.58309,-0.89846 2.46742,-1.0537c0.44088,-0.0774 2.26297,0.7555 3.18473,0.82597c0.92384,0.07064 1.89016,1.64087 2.56932,1.02956c1.20827,-1.08753 1.72731,-5.04321 1.95797,-5.18252c1.33731,-0.80769 2.13062,-1.46231 3.58538,-0.64429c1.05184,0.59146 1.99128,2.79164 2.9554,2.07323c0.54994,-0.40979 0.46656,-2.02958 1.45099,-2.49943c1.8683,-0.89168 4.39158,0.62362 5.85541,1.35764c0.3289,0.16494 0.69965,0.9485 0.89215,0.64178c0.6016,-0.95849 -0.04144,-2.33317 1.07346,-3.18639c0.64704,-0.49518 3.27176,-0.14335 3.32428,-0.19787c0.62482,-0.6486 0.46799,-2.01367 1.44127,-2.49395c2.93883,-1.45022 4.40723,1.50339 6.14703,3.22938c0.28668,0.28441 0.74003,-0.39645 1.14897,-0.427c0.6676,-0.04988 1.74332,1.41108 1.84537,0.76944c0.07766,-0.48839 0.00711,-1.87227 0.19133,-2.99972c0.02142,-0.29031 0.09328,-0.56569 0.20674,-0.81854c0.05474,-0.14385 0.11848,-0.27374 0.19279,-0.38514z" fill="#ba587e" stroke="none" stroke-width="0.5"/></g><g data-paper-data="{&quot;index&quot;:null}" stroke="#000000"><path d="M258.17573,114.07289c17.05571,1.02207 29.40914,24.95812 27.59216,53.46267c-1.81699,28.50455 -16.85148,42.36224 -33.90718,41.34017c-17.05571,-1.02208 -29.67402,-16.53687 -27.85701,-45.04142c1.81699,-28.50455 17.11635,-50.78349 34.17205,-49.76142z" fill="#f0f0f0" stroke-width="2"/><path d="M285.166,166.66765c-1.81699,28.50455 -16.85148,42.36224 -33.90718,41.34017c-17.05571,-1.02208 24.75411,-32.38974 22.12127,-60.83436c-3.80632,-41.12251 13.6029,-9.01035 11.78592,19.49419z" fill="#9a99ff" stroke-width="0"/></g><path d="M274.2541,145.28721c5.95414,0.3568 9.96486,13.44806 8.95821,29.24014c-1.00665,15.79208 -6.64947,28.30484 -12.60361,27.94804c-5.95414,-0.3568 -9.96486,-13.44807 -8.95821,-29.24014c1.00665,-15.79208 6.64947,-28.30484 12.60361,-27.94804z" data-paper-data="{&quot;index&quot;:null}" fill="#000000" stroke="none" stroke-width="0"/><g data-paper-data="{&quot;index&quot;:null}" stroke="#000000"><path d="M231.07117,134.16583c4.99515,-9.46841 11.69931,-20.89409 27.8715,-19.92497c16.1722,0.96913 17.92945,13.36804 21.79885,22.7661c4.06669,9.87727 -31.88383,49.61816 -48.05603,48.64904c-16.1722,-0.96913 -6.85576,-41.55492 -1.61433,-51.49016z" fill="#a100fe" stroke-width="2"/><path d="M232.04515,133.86928c4.84597,-9.47734 9.92322,1.42312 25.54399,2.35921c15.62076,0.93608 18.71542,-9.00853 22.43304,0.38045c3.90718,9.86771 -31.58546,48.76481 -47.20623,47.82874c-15.62076,-0.93609 -5.85569,-40.62376 -0.7708,-50.56838z" fill="#99008e" stroke-width="0"/></g><g data-paper-data="{&quot;index&quot;:null}" stroke="#000000"><path d="M220.4989,165.77289c-1.81699,28.50456 -16.30968,42.39471 -33.36539,41.37264c-17.05572,-1.02208 -30.21581,-16.56934 -28.39881,-45.07389c1.81699,-28.50455 17.11634,-50.78349 34.17205,-49.76142c17.05572,1.02207 29.40915,24.95812 27.59216,53.46267z" fill="#f0f0f0" stroke-width="2"/><path d="M173.61427,143.34354c-6.22536,27.91378 31.28251,64.03461 14.22679,63.01253c-17.05572,-1.02208 -30.21581,-16.56935 -28.39881,-45.07389c1.81699,-28.50455 23.17205,-58.29372 14.17202,-17.93864z" fill="#9a99ff" stroke-width="0"/></g><path d="M213.52573,175.49245c-1.00665,15.79208 -6.64947,28.30484 -12.6036,27.94804c-5.95414,-0.3568 -9.96486,-13.44806 -8.95822,-29.24014c1.00665,-15.79208 6.64947,-28.30484 12.60361,-27.94804c5.95414,0.3568 9.96486,13.44806 8.95821,29.24014z" data-paper-data="{&quot;index&quot;:null}" fill="#000000" stroke="none" stroke-width="0"/><g data-paper-data="{&quot;index&quot;:null}" stroke="#000000"><path d="M217.25318,135.48637c3.93973,10.48542 7.53942,52.85505 -8.63277,51.88592c-16.1722,-0.96913 -46.31057,-45.68025 -41.02039,-54.99681c5.03354,-8.86455 8.3521,-20.95928 24.5243,-19.99015c16.1722,0.96913 21.37425,13.10829 25.12886,23.10104z" fill="#a100fe" stroke-width="2"/><path d="M216.32428,135.07579c3.7832,10.47604 8.23733,52.28966 -7.38344,51.35357c-15.62076,-0.93609 -45.70706,-45.03688 -40.5764,-54.36298c4.88175,-8.87365 6.68986,1.36476 22.31063,2.30084c15.62076,0.93608 22.04375,-9.27523 25.6492,0.70856z" fill="#99008e" stroke-width="0"/></g><path d="M309.27685,178.02435c-0.07206,5.61764 -7.42237,12.32524 -12.87252,12.25952c-5.45014,-0.06572 -0.70413,-7.49445 -0.63206,-13.11209c0.07206,-5.61764 -1.68345,-9.50379 3.7667,-9.43807c5.45014,0.06572 9.80995,4.67299 9.73788,10.29062z" fill="#000000" stroke="none" stroke-width="0"/></g></g></g></g></svg>