<svg version="1.1" xmlns="http://www.w3.org/2000/svg" xmlns:xlink="http://www.w3.org/1999/xlink" width="269.37888" height="310.80609" viewBox="0,0,269.37888,310.80609"><g transform="translate(-134.21445,-50.00978)"><g data-paper-data="{&quot;isPaintingLayer&quot;:true}" fill-rule="nonzero" stroke-linejoin="miter" stroke-miterlimit="10" stroke-dasharray="" stroke-dashoffset="0" style="mix-blend-mode: normal"><g stroke="#000000" stroke-linecap="butt"><path d="M347.17247,354.06232l-57.93711,-75.65985l23.4153,-17.93045l57.93712,75.65985z" fill="#73fffc" stroke-width="2"/><path d="M346.53815,353.76975l-55.96657,-75.26795c0,0 45.54153,50.91482 52.20084,57.67522c1.47217,1.49451 3.69876,0.68154 3.69876,0.68154l22.76097,-0.88063z" fill="#59a9e6" stroke-width="0"/></g><g stroke="#000000" stroke-linecap="butt"><path d="M251.67521,326.58483l36.09093,-88.19618l27.29506,11.16947l-36.09093,88.19619z" fill="#73fffc" stroke-width="2"/><path d="M251.60776,325.88955l36.74682,-86.29712c0,0 -20.98077,65.00891 -23.4576,74.1694c-0.54755,2.0251 1.27778,3.53731 1.27778,3.53731l12.24444,19.20705z" fill="#59a9e6" stroke-width="0"/></g><path d="M216.42643,334.22647c1.51965,-11.56337 14.88253,-8.00599 32.64094,-5.67219c14.20846,1.86726 28.82161,-7.08287 32.55995,-1.02767c0.93402,1.51288 -0.58823,12.83977 -0.89202,15.15131c-1.51965,11.56337 -17.1476,19.04542 -34.90601,16.71162c-17.75841,-2.3338 -30.92252,-13.59968 -29.40287,-25.16305z" data-paper-data="{&quot;index&quot;:null}" fill="#000082" stroke="#000000" stroke-width="2" stroke-linecap="butt"/><path d="M250.23943,329.2831c14.20846,1.86726 26.31227,-5.37381 30.38061,-1.82963c1.01647,0.88551 -0.48444,12.05007 -0.64875,13.30039c-0.82198,6.25463 -13.35742,7.59014 -31.11583,5.25634c-17.75841,-2.3338 -31.02479,-7.99232 -30.20281,-14.24696c0.82198,-6.25463 13.82838,-4.81394 31.58678,-2.48014z" data-paper-data="{&quot;index&quot;:null}" fill="#2e0048" stroke="#000000" stroke-width="0" stroke-linecap="butt"/><g stroke="#000000" stroke-linecap="butt"><path d="M402.49785,334.31892c1.35955,11.58329 -11.95915,22.666 -29.74814,24.75392c-17.78899,2.08792 -33.31195,-5.60959 -34.6715,-17.19288c-0.27178,-2.31552 -1.6372,-13.66238 -0.68234,-15.1622c3.82175,-6.0029 18.3097,3.14852 32.54263,1.47797c17.78899,-2.08792 31.1998,-5.46011 32.55935,6.12317z" fill="#000082" stroke-width="2"/><path d="M400.30592,331.82515c0.73538,6.2654 -12.608,11.73987 -30.397,13.8278c-17.78899,2.08792 -30.30476,0.57914 -31.04014,-5.68626c-0.147,-1.25247 -1.49333,-12.43673 -0.46472,-13.30809c4.11698,-3.48756 16.11947,3.92026 30.3524,2.24971c17.78899,-2.08792 30.81407,-3.34856 31.54946,2.91684z" fill="#2e0048" stroke-width="0"/></g><g><g stroke="#000000" stroke-linecap="butt"><path d="M313.84193,222.28771c25.26636,23.98885 40.59686,47.99041 34.24163,53.60899c-6.35524,5.61858 -31.98961,-9.27348 -57.25597,-33.26233c-25.26636,-23.98885 -40.59686,-47.99041 -34.24163,-53.60899c6.35524,-5.61858 31.98961,9.27348 57.25597,33.26234z" fill="#0d69be" stroke-width="2"/><path d="M359.40699,246.40668c10.84496,10.29662 10.29135,26.90563 -1.23654,37.09727c-11.52788,10.19163 -29.66466,10.10654 -40.50961,-0.19009c-10.84496,-10.29663 -10.29135,-26.90563 1.23654,-37.09727c11.52788,-10.19164 29.66466,-10.10653 40.50961,0.19009z" fill="#faddbf" stroke-width="2"/><path d="M319.35108,265.60237c10.84496,10.29663 50.00766,6.81859 38.47979,17.01023c-11.52788,10.19163 -29.66464,10.10653 -40.50961,-0.19009c-10.84496,-10.29663 -8.81514,-27.11676 2.02982,-16.82013z" fill="#ef8b89" stroke-width="0"/></g><g stroke="#000000" stroke-linecap="butt"><path d="M318.71948,236.22594c3.06801,13.51347 18.90413,33.9278 15.61654,44.47816c-4.02049,12.90236 -28.55392,14.73195 -39.58984,16.83505c-14.60036,2.78237 -34.27766,10.79168 -44.27214,-6.71275c-3.73735,-6.54563 -2.54229,-32.58105 -4.39845,-40.75682c-6.81998,-30.03953 3.91322,-57.49039 23.97329,-61.3132c20.06006,-3.82281 41.85063,17.43003 48.67062,47.46957z" fill="#0d69be" stroke-width="2"/><path d="M267.4006,261.9157c3.06801,13.51347 70.86662,7.48374 67.57902,18.03409c-4.02049,12.90235 -28.55392,14.73195 -39.58984,16.83505c-14.60036,2.78237 -34.27765,10.79167 -44.27213,-6.71274c-3.73736,-6.54563 -2.5423,-32.58106 -4.39845,-40.75682c-2.10105,-9.25436 -2.77832,-28.68065 -0.76293,-30.46417c2.6255,-17.6233 16.77139,22.48194 21.44436,43.06459z" fill="#10157d" stroke-width="0"/></g><g><g><path d="M260.04751,277.84415c-16.08261,-3.24276 -23.69579,-12.54647 -20.93763,-27.26801c2.15715,-11.51387 18.63535,-21.51911 34.718,-18.27634c16.08269,3.24274 25.4787,15.11957 21.97459,29.70732c-0.54797,2.28125 -1.7927,4.23758 -2.9113,6.03411c-6.03455,9.69143 -19.27601,12.53858 -32.84364,9.80293z" fill="#0000c4" stroke="#000000" stroke-width="2" stroke-linecap="butt"/><path d="M258.99459,234.51294c0,0 -1.81672,5.51005 -0.3883,7.02686c13.7016,14.54967 28.38666,18.57508 33.35457,19.56688c1.12871,0.22534 1.96877,-0.59226 1.96877,-0.59226c0,0 -0.25651,2.10069 -1.51684,4.58678c-1.34109,2.64543 -3.76767,5.73758 -6.47356,7.55397c-3.09092,2.0748 -11.56928,5.1032 -11.56928,5.1032l-22.82438,-1.25665c0,0 -8.94586,-10.66679 -9.65211,-12.73519c-0.6919,-2.02633 -0.87628,-4.60591 -1.19281,-7.34138c-0.49142,-4.24722 0.73009,-8.64659 2.33063,-11.12539c2.04271,-3.1635 5.90749,-6.19903 9.49086,-8.14433c3.33501,-1.81046 6.47241,-2.64237 6.47241,-2.64237z" fill="#2e006f" stroke="none" stroke-width="0" stroke-linecap="butt"/><path d="M255.80385,258.77446c0,0 0.07824,-9.02181 3.53908,-13.08709c4.38103,-5.14623 15.851,-12.74049 15.851,-12.74049" fill="none" stroke="#000000" stroke-width="1" stroke-linecap="round"/><path d="M295.67916,254.91967c0,0 -3.24673,6.50244 -6.15995,9.87112c-2.94099,3.40088 -12.02214,8.39397 -12.02214,8.39397" fill="none" stroke="#000000" stroke-width="1" stroke-linecap="round"/><path d="M243.85753,259.52533c0,0 -0.07068,-9.26187 3.89677,-13.50879c6.08795,-6.51675 16.02747,-13.69792 16.02747,-13.69792" fill="none" stroke="#000000" stroke-width="1" stroke-linecap="round"/><path d="M242.85645,244.26894c0,0 17.0965,-7.35738 33.6462,1.22417c18.12808,9.39999 13.73417,26.17154 13.73417,26.17154" fill="none" stroke="#000000" stroke-width="1" stroke-linecap="round"/><path d="M239.28771,253.21405c0,0 18.70507,-4.81445 33.3266,2.7293c12.00561,6.19411 9.74691,20.63838 9.74691,20.63838" fill="none" stroke="#000000" stroke-width="1" stroke-linecap="round"/><path d="M285.72686,243.17355c-0.94539,-0.83486 -1.12693,-2.06748 -0.40555,-2.75314c0.72135,-0.68573 1.36431,-0.15002 2.30969,0.68484c0.94539,0.83486 1.83514,1.6527 1.11377,2.33838c-0.72135,0.68573 -2.07256,0.56477 -3.01788,-0.27009z" fill="#8fbbbe" stroke="none" stroke-width="0" stroke-linecap="butt"/><path d="M290.63728,248.88491c-0.64117,-0.12929 -0.98935,-0.94837 -0.77769,-1.82951c0.21165,-0.88114 0.43086,-1.21413 1.07202,-1.08487c0.64117,0.12929 1.18287,0.98739 0.97117,1.86852c-0.21165,0.88114 -0.62437,1.17512 -1.26553,1.04583z" fill="#8fbbbe" stroke="none" stroke-width="0" stroke-linecap="butt"/><path d="M280.2414,238.4189c-0.93376,-0.28673 -1.52153,-0.98141 -1.31293,-1.55172c0.20854,-0.57028 1.00691,-0.26841 1.94065,0.01828c0.93376,0.28673 1.64929,0.44959 1.44069,1.01989c-0.20854,0.57028 -1.13468,0.80023 -2.06839,0.51352z" fill="#8fbbbe" stroke="none" stroke-width="0" stroke-linecap="butt"/><path d="M254.37771,235.99817c0,0 11.09498,-1.16297 19.07763,0.81995c4.52575,1.12424 8.09095,3.54648 10.77144,5.41064c2.37051,1.64855 5.92951,7.35764 8.15728,11.98716c1.64019,3.40846 2.36206,6.27718 2.36206,6.27718" fill="none" stroke="#000000" stroke-width="0.5" stroke-linecap="round"/><path d="M291.30739,241.02819c0,0 -2.91177,10.23041 -6.38464,14.60002c-2.92597,3.68151 -12.7074,9.98663 -12.7074,9.98663" fill="none" stroke="#000000" stroke-width="1" stroke-linecap="round"/><path d="M266.60044,262.80998c0,0 2.77583,-9.32526 5.2325,-13.24762c4.31345,-6.88691 13.77056,-12.65793 13.77056,-12.65793" fill="none" stroke="#000000" stroke-width="1" stroke-linecap="round"/></g><g stroke="#000000" stroke-linecap="butt"><path d="M236.01526,257.69356c31.49334,16.69703 32.65783,26.28435 28.23438,33.28765c-4.42345,7.0033 -33.53979,-0.85503 -65.03313,-17.55207c-31.49334,-16.69703 43.23371,-39.68079 47.65715,-46.68408c6.91578,-3.19094 7.79887,3.2854 3.83205,10.25303c-4.89202,8.59271 -17.38238,19.26827 -14.69046,20.69547z" fill="#0d69be" stroke-width="2"/><path d="M266.28351,259.77517c13.51775,7.16679 17.97148,23.27475 9.9477,35.97815c-8.02377,12.70341 -25.48664,17.19172 -39.00439,10.02494c-13.51775,-7.16679 -17.97147,-23.27477 -9.94769,-35.97817c8.02377,-12.70341 25.48664,-17.19172 39.00437,-10.02493z" fill="#faddbf" stroke-width="2"/><path d="M233.53494,288.32395c13.51775,7.16679 50.126,-6.0454 42.10221,6.658c-8.02377,12.70341 -25.48664,17.19172 -39.00437,10.02493c-13.51775,-7.16679 -16.61558,-23.84972 -3.09783,-16.68292z" fill="#ef8b89" stroke-width="0"/></g></g><g stroke-linecap="butt"><g data-paper-data="{&quot;index&quot;:null}"><g stroke="#000000"><g><path d="M224.4225,222.90375c-50.97437,-2.8864 -89.7433,-43.08549 -86.59282,-89.78716c3.15047,-46.70168 47.02734,-82.22098 98.0017,-79.33456c50.97437,2.8864 89.74329,43.08549 86.59281,89.78716c-3.15047,46.70168 -47.02734,82.22098 -98.0017,79.33457z" fill="#faddbf" stroke-width="2"/><path d="M322.23133,142.6871c-3.15047,46.70168 -47.02734,82.22097 -98.0017,79.33456c-6.60499,-0.374 -20.01437,-3.0971 -22.54478,-4.0509c-1.58187,-0.59627 30.07334,-5.18961 53.06101,-17.21982c12.33497,-6.45531 20.08731,-20.45473 23.55011,-25.01016c1.79274,-0.33823 7.91352,-19.6704 7.92078,-19.73041c3.05248,-25.16534 -20.52867,-88.90336 -11.67435,-90.97791c0.67864,-0.15901 13.25749,7.37447 22.87864,16.28338c7.74069,7.16766 12.90827,16.01979 13.44455,16.41793c4.69578,3.4862 12.37939,29.9277 11.36578,44.95332z" fill="#ef8b89" stroke-width="0"/><path d="M138.43078,132.69155c2.46029,-36.47056 50.76828,-44.98264 92.95114,-21.95435c44.06949,24.05823 93.13476,-1.54418 90.67446,34.92638c-1.22352,18.13722 -9.76751,9.63379 -24.0441,-3.83809c-2.95688,-2.79021 -14.76117,9.48695 -18.19576,6.46303c-4.37785,-3.85439 -8.20423,-9.39091 -12.05965,-15.12772c-3.10449,-4.61946 -15.77722,11.65018 -19.22241,7.54466c-5.30173,-6.3179 -5.04748,-13.32766 -12.97823,-13.77674c-2.98214,-0.16886 -11.77851,11.09652 -14.76358,11.25548c-2.31469,0.12327 -9.35483,-12.5108 -11.6296,-12.27657c-4.13092,0.42536 -14.07882,10.13122 -17.95711,11.0377c-1.55502,0.36346 -13.06476,-9.1554 -14.55423,-8.76618c-2.13029,0.55669 -10.3228,9.51486 -12.24116,10.17912c-3.05418,1.05754 -11.33366,-6.87331 -13.75037,-5.83615c-9.97329,4.28012 -10.09668,12.21277 -10.83743,14.06353c-0.72609,1.81414 -2.1746,-2.29191 -1.39192,-13.89411z" fill="#ef8b89" stroke-width="0"/></g><path d="M137.31931,124.30187c2.46029,-36.47056 50.44502,-75.9813 100.47818,-73.14818c50.03317,2.83311 90.4491,49.9238 87.98881,86.39436c-1.22352,18.13722 -10.00676,9.62024 -24.68185,-3.87421c-3.0394,-2.79489 -15.13172,9.46597 -18.66178,6.43665c-4.49954,-3.86129 -8.43614,-9.40405 -12.40288,-15.14716c-3.19412,-4.62453 -16.1706,11.6279 -19.71347,7.51685c-5.45203,-6.3264 -5.20352,-13.3365 -13.34317,-13.79741c-3.06069,-0.17331 -12.06794,11.08012 -15.13106,11.23467c-2.37521,0.11984 -9.62245,-12.52595 -11.9565,-12.29507c-4.23856,0.41926 -14.43032,10.11132 -18.40876,11.01213c-1.59516,0.36118 -13.42377,-9.17574 -14.95164,-8.78868c-2.18522,0.55358 -10.57683,9.50047 -12.54437,10.16196c-3.13246,1.05311 -11.64323,-6.89084 -14.12153,-5.85717c-20.25247,8.44705 -14.13113,23.58988 -12.54997,0.15126z" fill="#873412" stroke-width="2"/><path d="M137.66752,123.15658c2.46029,-36.47056 52.02085,-44.91172 95.35138,-21.81843c45.26848,24.12612 95.57592,-1.40595 93.11564,35.06461c-1.22352,18.13722 -10.00676,9.62023 -24.68185,-3.87421c-3.0394,-2.79489 -15.13172,9.46597 -18.66178,6.43665c-4.49955,-3.86129 -8.43615,-9.40405 -12.40289,-15.14716c-3.19412,-4.62453 -16.1706,11.6279 -19.71347,7.51686c-5.45203,-6.3264 -5.20352,-13.3365 -13.34317,-13.79741c-3.06069,-0.17331 -12.06794,11.08012 -15.13106,11.23467c-2.37521,0.11984 -9.62245,-12.52595 -11.9565,-12.29508c-4.23856,0.41926 -14.43032,10.11133 -18.40876,11.01213c-1.59516,0.36118 -13.42377,-9.17574 -14.95164,-8.78868c-2.18523,0.55357 -10.57684,9.50048 -12.54438,10.16196c-3.13246,1.05311 -11.64323,-6.89084 -14.12153,-5.85717c-20.25247,8.44705 -14.13113,23.58989 -12.54997,0.15127z" fill="#741d23" stroke-width="0"/></g><path d="M234.50886,61.36796c0.06588,-0.09332 0.14312,-0.17491 0.22947,-0.24714c0.53787,-0.57242 1.35146,-0.91573 2.23778,-0.86554c0.99962,0.0566 1.84014,0.59945 2.26429,1.36172c1.29066,0.7762 0.13987,2.82883 0.09157,4.24263c-0.13693,4.008 3.29714,9.65901 -1.60821,11.87123c-0.44322,0.19988 -1.0526,-0.67831 -1.45479,-0.65458c-4.16784,0.24599 -3.31807,-0.9203 -4.49695,-4.00023c-0.24215,-0.63262 -1.46147,0.31516 -2.18352,0.20661c-1.78046,-0.26769 -2.07946,-3.70784 -2.19539,-3.01152c-0.25319,1.52075 -0.07494,2.69758 -1.85985,3.50253c-0.73004,0.32922 -2.07916,-1.0437 -2.40881,-0.36214c-0.7143,1.47684 -0.08079,4.07875 -2.99212,3.82736c-0.84205,-0.07271 -1.97033,-0.76237 -2.31745,-1.46405c-0.45194,-0.91354 -1.48183,-3.65539 -1.54717,-2.65418c-0.10582,1.62125 2.11539,3.57944 0.71108,5.27285c-2.58247,3.11407 -6.21629,-0.46633 -6.91349,-0.57744c-0.19645,-0.03131 0.69812,1.60855 0.74268,1.86662c0.12402,0.71806 -0.39917,1.79832 -0.88584,2.38515c-0.39915,0.48135 -9.70638,0.48466 -10.62135,0.38594c-1.03567,-0.11175 -1.18158,-2.38743 -2.16486,-2.06923c-1.11294,0.36017 -2.38394,1.01128 -3.47855,0.60667c-0.45501,-0.16819 -1.94903,-3.34247 -2.38438,-3.11026c-0.17928,0.09562 1.50129,2.20688 1.21837,2.8294c-0.4874,1.07244 -2.10983,2.93313 -3.3752,3.09407c-4.28701,0.54532 -3.75633,-2.82029 -5.54738,-2.79845c-0.80072,0.00976 -1.24753,1.07757 -2.0436,1.15709c-0.59127,0.05907 -1.73472,-0.92534 -1.73533,-0.38042c-0.00135,1.17878 -0.88319,3.42167 -2.39601,3.92199c-1.1809,0.39056 -2.58623,-1.66089 -3.60752,-0.99187c-2.9436,1.92829 -5.2898,-0.59825 -6.01761,-3.39921c-0.67048,-2.5803 2.34787,-3.13613 4.25636,-3.2436c0.80966,-0.04559 -0.35843,-1.51203 -0.13394,-2.22621c0.42714,-1.35892 1.85919,-2.02313 3.29854,-1.93841c1.73315,0.10201 2.70809,0.87568 4.28914,1.52882c0.24173,0.09985 1.78392,-0.81552 2.05419,-0.88138c0.69714,-0.16993 2.28174,1.12372 2.0986,0.48444c-1.44708,-5.05152 4.00046,-6.19458 8.02699,-3.70778c0.78864,0.48707 1.67537,-0.89846 2.61125,-1.0537c0.46658,-0.0774 2.39489,0.7555 3.37037,0.82597c0.97769,0.07064 2.00035,1.64087 2.7191,1.02956c1.2787,-1.08753 1.828,-5.04321 2.0721,-5.18252c1.41526,-0.80769 2.25482,-1.46231 3.79438,-0.64429c1.11315,0.59146 2.10736,2.79164 3.12768,2.07323c0.58199,-0.40979 0.49375,-2.02958 1.53557,-2.49943c1.97721,-0.89168 4.64757,0.62362 6.19674,1.35764c0.34807,0.16494 0.74044,0.9485 0.94416,0.64178c0.63667,-0.95849 -0.04386,-2.33317 1.13604,-3.18639c0.68476,-0.49518 3.46248,-0.14335 3.51806,-0.19787c0.66124,-0.6486 0.49528,-2.01367 1.52529,-2.49395c3.11015,-1.45022 4.66414,1.50339 6.50536,3.22938c0.30339,0.28441 0.78317,-0.39645 1.21595,-0.427c0.70652,-0.04988 1.84495,1.41108 1.95294,0.76944c0.08219,-0.48839 0.00752,-1.87227 0.20248,-2.99972c0.02267,-0.29031 0.09872,-0.56569 0.2188,-0.81854c0.05793,-0.14385 0.12538,-0.27374 0.20403,-0.38514z" fill="#ba587e" stroke="none" stroke-width="0.5"/></g><g data-paper-data="{&quot;index&quot;:null}" stroke="#000000"><path d="M251.82086,114.07289c18.04993,1.02207 31.12348,24.95812 29.20058,53.46267c-1.92291,28.50455 -17.8338,42.36224 -35.88373,41.34017c-18.04993,-1.02208 -31.4038,-16.53687 -29.48088,-45.04142c1.92291,-28.50455 18.11411,-50.78349 36.16403,-49.76142z" fill="#f0f0f0" stroke-width="2"/><path d="M280.38446,166.66765c-1.92291,28.50455 -17.8338,42.36224 -35.88373,41.34017c-18.04993,-1.02208 26.1971,-32.38974 23.41078,-60.83436c-4.0282,-41.12251 14.39586,-9.01035 12.47296,19.49419z" fill="#9a99ff" stroke-width="0"/></g><path d="M268.83648,145.28721c6.30123,0.3568 10.54574,13.44806 9.48041,29.24014c-1.06533,15.79208 -7.03709,28.30484 -13.33831,27.94804c-6.30123,-0.3568 -10.54574,-13.44807 -9.48041,-29.24014c1.06533,-15.79208 7.03709,-28.30484 13.33831,-27.94804z" data-paper-data="{&quot;index&quot;:null}" fill="#000000" stroke="none" stroke-width="0"/><g data-paper-data="{&quot;index&quot;:null}" stroke="#000000"><path d="M223.1363,134.16583c5.28633,-9.46841 12.38129,-20.89409 29.49621,-19.92497c17.11492,0.96913 18.97461,13.36804 23.06957,22.7661c4.30375,9.87727 -33.74243,49.61816 -50.85735,48.64904c-17.11492,-0.96913 -7.2554,-41.55492 -1.70843,-51.49016z" fill="#a100fe" stroke-width="2"/><path d="M224.16704,133.86928c5.12846,-9.47734 10.50167,1.42312 27.03302,2.35921c16.53134,0.93608 19.80639,-9.00853 23.74072,0.38045c4.13494,9.86771 -33.42666,48.76481 -49.95802,47.82874c-16.53134,-0.93609 -6.19704,-40.62376 -0.81573,-50.56838z" fill="#99008e" stroke-width="0"/></g><g data-paper-data="{&quot;index&quot;:null}" stroke="#000000"><path d="M211.94773,165.77289c-1.92291,28.50456 -17.26042,42.39471 -35.31035,41.37264c-18.04995,-1.02208 -31.97718,-16.56934 -30.05425,-45.07389c1.92291,-28.50455 18.1141,-50.78349 36.16403,-49.76142c18.04995,1.02207 31.12349,24.95812 29.20058,53.46267z" fill="#f0f0f0" stroke-width="2"/><path d="M162.33006,143.34354c-6.58825,27.91378 33.10606,64.03461 15.05611,63.01253c-18.04995,-1.02208 -31.97718,-16.56935 -30.05425,-45.07389c1.92291,-28.50455 24.52281,-58.29372 14.99815,-17.93864z" fill="#9a99ff" stroke-width="0"/></g><path d="M204.56808,175.49245c-1.06533,15.79208 -7.03709,28.30484 -13.3383,27.94804c-6.30123,-0.3568 -10.54574,-13.44806 -9.48042,-29.24014c1.06533,-15.79208 7.03709,-28.30484 13.33831,-27.94804c6.30123,0.3568 10.54574,13.44806 9.48041,29.24014z" data-paper-data="{&quot;index&quot;:null}" fill="#000000" stroke="none" stroke-width="0"/><g data-paper-data="{&quot;index&quot;:null}" stroke="#000000"><path d="M208.51281,135.48637c4.16939,10.48542 7.97892,52.85505 -9.136,51.88592c-17.11492,-0.96913 -49.01015,-45.68025 -43.41159,-54.99681c5.32696,-8.86455 8.83896,-20.95928 25.9539,-19.99015c17.11492,0.96913 22.62021,13.10829 26.5937,23.10104z" fill="#a100fe" stroke-width="2"/><path d="M207.52977,135.07579c4.00374,10.47604 8.71751,52.28966 -7.81384,51.35357c-16.53134,-0.93609 -48.37146,-45.03688 -42.94172,-54.36298c5.16632,-8.87365 7.07983,1.36476 23.61118,2.30084c16.53134,0.93608 23.32874,-9.27523 27.14436,0.70856z" fill="#99008e" stroke-width="0"/></g><path d="M305.90081,178.02435c-0.07626,5.61764 -7.85505,12.32524 -13.6229,12.25952c-5.76785,-0.06572 -0.74517,-7.49445 -0.66891,-13.11209c0.07626,-5.61764 -1.78158,-9.50379 3.98627,-9.43807c5.76785,0.06572 10.3818,4.67299 10.30553,10.29062z" fill="#000000" stroke="none" stroke-width="0"/></g></g></g></g></svg>