<svg version="1.1" xmlns="http://www.w3.org/2000/svg" xmlns:xlink="http://www.w3.org/1999/xlink" width="34.79858" height="30.74664" viewBox="0,0,34.79858,30.74664"><g transform="translate(-282.48382,-164.5941)"><g data-paper-data="{&quot;isPaintingLayer&quot;:true}" fill-rule="nonzero" stroke-linecap="butt" stroke-linejoin="miter" stroke-miterlimit="10" stroke-dasharray="" stroke-dashoffset="0" style="mix-blend-mode: normal"><path d="M283.23382,177.53221c1.16938,-7.96217 9.54094,-13.3265 18.6984,-11.98157c9.15746,1.34493 15.63309,8.88981 14.46371,16.85198c-1.16938,7.96217 -9.54094,13.3265 -18.6984,11.98157c-9.15746,-1.34493 -15.63309,-8.88981 -14.46371,-16.85198z" fill="#2740ff" stroke="#000000" stroke-width="1.5"/><path d="M293.52283,186.61984c-0.26884,1.83051 -1.60526,3.15018 -2.98498,2.94754c-1.37972,-0.20263 -2.28026,-1.85083 -2.01142,-3.68135c0.26884,-1.83051 1.60526,-3.15018 2.98498,-2.94754c1.37972,0.20263 2.28026,1.85083 2.01142,3.68135z" fill="#ffffff" stroke="#000000" stroke-width="0.5"/><path d="M303.69995,188.64503c-0.02811,0.80216 -0.51597,2.51108 -1.59672,1.37196c-0.74946,-0.78995 0.14597,-4.72801 0.16375,-5.40405c-0.00029,-0.00093 -0.00056,-0.00185 -0.00084,-0.00277c-0.63791,-0.33933 -1.29997,-0.74904 -1.93136,-1.16732c-0.02257,0.02048 -0.04637,0.0396 -0.07129,0.05724c0.13321,2.42766 -1.24871,6.69936 -2.17913,5.71867c-0.51171,-0.53935 0.28847,-4.54248 0.99855,-6.27338c-0.00195,-0.02555 -0.00261,-0.05145 -0.00192,-0.07762c0.00234,-0.08911 0.02014,-0.17418 0.05075,-0.25271c-0.86482,-0.61434 -1.57314,-1.15276 -1.9298,-1.39514c-0.27239,-0.18511 -1.92961,-1.09142 -1.86623,-1.50899c-0.02566,-0.06627 -0.04214,-0.13701 -0.04795,-0.21063c-0.49086,0.00605 -0.98432,-0.2458 -1.54603,-0.94859c-1.66022,-2.73153 -1.88045,-0.11124 -3.9915,0.79485c-1.70821,0.73319 -1.67017,0.25259 -2.3789,-0.89603c-0.25606,-0.41499 -0.27466,-1.383 -0.74609,-1.25834c-1.09184,0.28872 -0.2677,3.47631 -2.67966,2.78564c-0.61698,-0.17668 -0.76459,-3.423 -0.8516,-4.0454c0,0 -0.10381,-0.74279 0.63898,-0.84658c0.74279,-0.10381 0.84658,0.63898 0.84658,0.63898c0.01689,0.12088 0.18272,0.94892 0.25098,1.68923c0.55885,-0.79936 1.46929,-1.69653 1.58698,-1.7074c1.91602,-0.17706 1.49189,1.8802 2.32975,2.47387c0.14058,0.09961 2.2151,-1.90509 2.25859,-1.93303c1.96476,-1.26239 3.00435,-0.12869 4.01085,1.51397c0.16097,0.70058 3.98657,-2.30199 5.48677,-1.24158c0.493,0.34847 1.2557,1.74841 1.56311,2.3195c0.24908,0.46273 0.40039,1.77873 0.75022,1.38658c2.54167,-2.84908 4.87991,-3.72138 6.3221,0.59341c0.87078,-0.39183 1.14575,-2.62109 2.41342,-2.5607c2.98246,0.14207 0.92192,4.67364 3.42372,2.08332l0.53612,-0.50962c0,0 0.54409,-0.51621 1.06029,0.02788l-0.00001,0c0.51621,0.54409 -0.02788,1.06029 -0.02788,1.06029l-0.48982,0.46374c-0.18628,0.1927 -1.11539,1.18188 -1.31696,1.26168c-2.8761,1.1386 -1.77592,-1.98466 -3.16455,-2.88745c-0.40379,-0.26252 -0.40315,0.88474 -0.70006,1.26394c-0.54875,0.70085 -1.5301,1.08009 -2.41872,1.13164c-0.28391,-0.39855 -1.75346,-3.27361 -2.16932,-3.18783c-1.82647,0.37674 -2.21185,3.78676 -4.4606,2.40666c-1.07193,-0.65786 -1.20346,-2.71989 -2.11302,-3.57917c-0.31625,-0.29877 -1.61341,0.38228 -1.77991,0.46749c-0.47509,0.24314 -0.89555,0.51516 -1.28649,0.74225c0.00593,0.00828 0.01172,0.01667 0.01731,0.02519c1.10462,0.25718 2.26422,1.57958 3.29407,2.25993c0.87536,0.57829 1.80567,1.13963 2.76857,1.55431c0.39367,0.16953 4.99817,1.77365 2.42959,2.55544c-0.31576,0.0961 -0.71908,0.06266 -1.17692,-0.06308c0.06565,1.07184 -0.23988,2.22778 -0.27778,3.30974z" fill="#000000" stroke="none" stroke-width="0.5"/></g></g></svg>