<svg version="1.1" xmlns="http://www.w3.org/2000/svg" xmlns:xlink="http://www.w3.org/1999/xlink" width="272.02749" height="233.31567" viewBox="0,0,272.02749,233.31567"><g transform="translate(-195.15271,-127.50021)"><g data-paper-data="{&quot;isPaintingLayer&quot;:true}" fill-rule="nonzero" stroke-linejoin="miter" stroke-miterlimit="10" stroke-dasharray="" stroke-dashoffset="0" style="mix-blend-mode: normal"><g stroke="#000000" stroke-linecap="butt"><path d="M382.65903,242.83385c36.58404,-6.71809 67.92731,-6.5207 70.00717,0.4409c2.07987,6.96159 -25.8913,18.05118 -62.47534,24.76929c-36.58402,6.71809 -67.9273,6.5207 -70.00717,-0.4409c-2.07987,-6.96159 25.8913,-18.05118 62.47534,-24.76928z" fill="#0d69be" stroke-width="2"/><path d="M430.1009,222.05819c15.70279,-2.88357 31.4908,5.01565 35.26349,17.64344c3.7727,12.62777 -5.89854,25.20221 -21.60134,28.08578c-15.70279,2.88357 -31.4908,-5.01565 -35.26349,-17.64344c-3.77271,-12.62777 5.89854,-25.20221 21.60134,-28.08578z" fill="#faddbf" stroke-width="2"/><path d="M427.50857,258.59895c15.70279,-2.88357 33.04059,-31.6922 36.81329,-19.06443c3.7727,12.62777 -5.89854,25.20221 -21.60134,28.08578c-15.70279,2.88357 -30.91472,-6.13778 -15.21194,-9.02136z" fill="#ef8b89" stroke-width="0"/></g><g stroke="#000000" stroke-linecap="butt"><path d="M349.97562,354.7317l-65.30207,-66.85752l26.39186,-15.84441l65.30208,66.85752z" fill="#73fffc" stroke-width="2"/><path d="M349.26067,354.47317l-63.08105,-66.51122c0,0 51.33078,44.99135 58.83662,50.96524c1.65931,1.32064 4.16895,0.60225 4.16895,0.60225l25.65435,-0.77818z" fill="#59a9e6" stroke-width="0"/></g><g stroke="#000000" stroke-linecap="butt"><path d="M242.33873,330.45097l40.67882,-77.93537l30.76481,9.87001l-40.67882,77.93537z" fill="#73fffc" stroke-width="2"/><path d="M242.26271,329.83657l41.41809,-76.25724c0,0 -23.64785,57.44572 -26.43953,65.54047c-0.61715,1.78949 1.44021,3.12577 1.44021,3.12577l13.80096,16.97249z" fill="#59a9e6" stroke-width="0"/></g><g stroke="#000000" stroke-linecap="butt"><path d="M336.51412,250.13608c0,12.19689 11.32466,32.46907 5.57925,41.0546c-7.02624,10.49953 -32.24963,8.03758 -43.88972,8.03758c-15.39969,0 -37.13192,3.68502 -43.21859,-13.10658c-2.27605,-6.27908 4.90813,-28.60638 4.90813,-35.9856c0,-27.11286 17.15217,-49.09218 38.31046,-49.09218c21.15829,0 38.31046,21.97931 38.31046,49.09218z" fill="#0d69be" stroke-width="2"/><path d="M278.73385,263.90049c0,12.19689 69.92876,18.1582 64.18334,26.74372c-7.02624,10.49952 -32.24963,8.03758 -43.88972,8.03758c-15.39969,0 -37.13191,3.68502 -43.21858,-13.10657c-2.27606,-6.27908 4.90813,-28.60639 4.90813,-35.9856c0,-8.35274 3.77421,-25.27089 6.22117,-26.48161c6.6995,-14.81379 11.79565,22.21515 11.79565,40.79249z" fill="#10157d" stroke-width="0"/></g><path d="M202.60913,337.20356c1.71282,-10.21808 16.7744,-7.07456 36.79025,-5.01228c16.01464,1.65002 32.48541,-6.25884 36.69897,-0.90811c1.05275,1.33687 -0.66301,11.34598 -1.00542,13.3886c-1.71282,10.21808 -19.3274,16.82966 -39.34327,14.76738c-20.01586,-2.06229 -34.85339,-12.01748 -33.14056,-22.23556z" data-paper-data="{&quot;index&quot;:null}" fill="#000082" stroke="#000000" stroke-width="2" stroke-linecap="butt"/><path d="M240.72044,332.83531c16.01464,1.65002 29.65709,-4.74862 34.2426,-1.61677c1.14568,0.78249 -0.54602,10.64815 -0.73122,11.75302c-0.92647,5.52696 -15.05541,6.7071 -35.07127,4.64481c-20.01586,-2.06229 -34.96867,-7.06249 -34.0422,-12.58945c0.92647,-5.52696 15.58625,-4.25388 35.60209,-2.1916z" data-paper-data="{&quot;index&quot;:null}" fill="#2e0048" stroke="#000000" stroke-width="0" stroke-linecap="butt"/><g><g><path d="M235.88277,270.23175c-8.04639,-11.74499 -5.21225,-21.77706 9.23193,-28.55778c11.29692,-5.3033 30.93805,-0.94187 38.98445,10.80315c8.04646,11.74504 4.21137,24.35342 -10.62022,30.59894c-2.31938,0.9767 -4.82965,1.33837 -7.11842,1.68553c-12.34698,1.87261 -23.68962,-4.62149 -30.47773,-14.52981z" fill="#0000c4" stroke="#000000" stroke-width="2" stroke-linecap="butt"/><path d="M272.22777,244.64028c0,0 -5.93392,2.05614 -6.27002,3.80668c-3.22416,16.79166 3.21279,28.1288 5.70676,31.75111c0.56663,0.823 1.83092,0.8683 1.83092,0.8683c0,0 -1.96891,1.05176 -4.94266,1.70882c-3.16436,0.69919 -7.44096,0.98883 -10.81452,0.37247c-3.85357,-0.70409 -12.1469,-4.16826 -12.1469,-4.16826l-14.28017,-14.74255c0,0 3.1032,-11.63531 4.39679,-13.25982c1.26727,-1.5915 3.34907,-3.18973 5.47531,-4.9589c3.30129,-2.74687 7.88502,-4.52921 11.08144,-4.97311c4.07936,-0.56648 9.27509,0.05985 13.34921,1.14097c3.79173,1.00619 6.61375,2.45431 6.61375,2.45431z" fill="#2e006f" stroke="none" stroke-width="0" stroke-linecap="butt"/><path d="M249.33479,256.64725c0,0 7.76736,-5.14559 13.57188,-5.36016c7.34791,-0.27165 21.55816,2.40157 21.55816,2.40157" fill="none" stroke="#000000" stroke-width="1" stroke-linecap="round"/><path d="M279.45659,278.92024c0,0 -7.74454,1.74911 -12.585,1.89903c-4.88667,0.15139 -15.26555,-2.55201 -15.26555,-2.55201" fill="none" stroke="#000000" stroke-width="1" stroke-linecap="round"/><path d="M240.65599,249.74187c0,0 7.87245,-5.37524 14.17311,-5.38322c9.66817,-0.01222 22.49559,1.95879 22.49559,1.95879" fill="none" stroke="#000000" stroke-width="1" stroke-linecap="round"/><path d="M253.02855,240.34426c0,0 17.79285,6.26551 21.58816,21.37079c4.15728,16.54592 -13.14034,23.50208 -13.14034,23.50208" fill="none" stroke="#000000" stroke-width="1" stroke-linecap="round"/><path d="M242.97861,243.30176c0,0 16.70048,8.71742 20.0861,22.04096c2.77989,10.93984 -11.09118,17.86774 -11.09118,17.86774" fill="none" stroke="#000000" stroke-width="1" stroke-linecap="round"/><path d="M282.80565,266.0454c0.07791,-1.06129 1.00982,-1.88237 2.08143,-1.83401c1.07166,0.04831 1.0461,0.75162 0.96818,1.8129c-0.07791,1.06129 -0.1787,2.07859 -1.25033,2.03024c-1.07166,-0.04831 -1.87724,-0.94788 -1.79928,-2.00911z" fill="#8fbbbe" stroke="none" stroke-width="0" stroke-linecap="butt"/><path d="M281.22516,272.34936c-0.32077,-0.46825 0.1454,-1.15363 1.04125,-1.53088c0.89586,-0.37725 1.32808,-0.43431 1.64888,0.03393c0.32077,0.46825 -0.04856,1.29495 -0.94447,1.67218c-0.89586,0.37725 -1.42491,0.29299 -1.74567,-0.17525z" fill="#8fbbbe" stroke="none" stroke-width="0" stroke-linecap="butt"/><path d="M283.18119,259.93901c-0.38299,-0.73859 -0.18437,-1.49954 0.44366,-1.6997c0.62796,-0.2002 0.90691,0.46395 1.28991,1.2025c0.38299,0.73859 0.72508,1.27184 0.09708,1.47203c-0.62796,0.2002 -1.44763,-0.23627 -1.8306,-0.97483z" fill="#8fbbbe" stroke="none" stroke-width="0" stroke-linecap="butt"/><path d="M267.8518,242.65954c0,0 8.45846,6.14523 12.13303,12.18984c2.08328,3.42699 2.4104,7.01122 2.61958,9.73077c0.18502,2.40503 -2.30266,7.87762 -4.76276,11.91106c-1.81121,2.9696 -3.77869,5.06443 -3.77869,5.06443" fill="none" stroke="#000000" stroke-width="0.5" stroke-linecap="round"/><path d="M288.39442,268.23803c0,0 -10.70707,4.10095 -16.77993,4.48332c-5.11652,0.32218 -17.08848,-2.05605 -17.08848,-2.05605" fill="none" stroke="#000000" stroke-width="1" stroke-linecap="round"/><path d="M253.14717,265.60185c0,0 9.84161,-3.66336 14.84838,-4.41244c8.79094,-1.31523 20.08798,1.17126 20.08798,1.17126" fill="none" stroke="#000000" stroke-width="1" stroke-linecap="round"/></g><g stroke="#000000" stroke-linecap="butt"><path d="M236.9466,243.87052c6.90872,28.95581 -0.50619,35.19026 -9.47065,36.50492c-8.96446,1.31466 -21.83223,-21.09293 -28.74094,-50.04875c-6.90872,-28.95582 63.01662,3.71162 71.98107,2.39696c7.38111,2.41084 2.43716,6.68152 -6.18961,8.25613c-10.63882,1.94185 -28.17039,0.41572 -27.57987,2.89075z" fill="#0d69be" stroke-width="2"/><path d="M255.52909,263.66012c2.96539,12.42858 -7.81264,24.43711 -24.07345,26.82179c-16.2608,2.3847 -31.84671,-5.75748 -34.81214,-18.18605c-2.96539,-12.42858 7.81266,-24.4371 24.07346,-26.82179c16.2608,-2.3847 31.84672,5.75747 34.81213,18.18605z" fill="#faddbf" stroke-width="2"/><path d="M209.08535,259.98023c2.96539,12.42857 38.89104,27.30806 22.63024,29.69274c-16.2608,2.3847 -31.84671,-5.75747 -34.81212,-18.18604c-2.96539,-12.42858 9.21647,-23.93528 12.18187,-11.50671z" fill="#ef8b89" stroke-width="0"/></g></g><g stroke="#000000" stroke-linecap="butt"><path d="M412.33397,337.28526c1.53238,10.23569 -13.47941,20.02901 -33.52973,21.87403c-20.05033,1.84501 -37.54657,-4.95697 -39.07894,-15.19265c-0.30633,-2.04613 -1.84532,-12.07289 -0.76909,-13.39822c4.30757,-5.30452 20.63723,2.78222 36.67945,1.30602c20.05033,-1.84501 35.16592,-4.82488 36.69829,5.4108z" fill="#000082" stroke-width="2"/><path d="M409.86341,335.08163c0.82886,5.53647 -14.21073,10.37405 -34.26107,12.21906c-20.05033,1.84501 -34.15711,0.51176 -34.98597,-5.02471c-0.16568,-1.10675 -1.68316,-10.98983 -0.52379,-11.75982c4.64033,-3.08182 18.16858,3.46417 34.2108,1.98797c20.05033,-1.84501 34.73116,-2.95898 35.56003,2.57749z" fill="#2e0048" stroke-width="0"/></g><g stroke-linecap="butt"><g stroke="#000000"><g><path d="M243.23921,188.62378c12.07133,-40.24945 63.47537,-65.20608 114.81412,-55.74219c51.33875,9.46389 83.1713,49.76452 71.09997,90.01397c-12.07133,40.24945 -63.47537,65.20608 -114.81412,55.7422c-51.33875,-9.46389 -83.17131,-49.76452 -71.09998,-90.01397z" fill="#faddbf" stroke-width="2"/><path d="M243.71671,187.92251c3.88378,-12.94971 20.07902,-33.52681 25.85554,-35.37963c0.65969,-0.2116 8.64757,-6.49428 18.63183,-10.75074c12.40973,-5.2905 27.29662,-8.72644 27.91591,-8.4334c8.07998,3.82334 -35.96169,52.24331 -41.12679,74.24831c-0.01232,0.05247 -0.24687,17.83877 1.4157,18.54367c1.94248,4.6631 5.05519,18.31852 15.15209,26.66131c18.81676,15.54779 48.62173,26.82782 46.8638,26.96284c-2.81206,0.21598 -16.95586,-0.61207 -23.60807,-1.83836c-51.33875,-9.46389 -83.1713,-49.76452 -71.09997,-90.01397z" fill="#ef8b89" stroke-width="0"/><path d="M428.6972,222.39556c-2.9989,9.99926 -5.7663,13.13501 -5.8943,11.4305c-0.1306,-1.73892 2.32694,-8.47944 -6.14222,-14.43023c-2.05226,-1.442 -12.8174,3.33435 -15.49329,1.72623c-1.68076,-1.0101 -6.86799,-10.50297 -8.79327,-11.47157c-1.34612,-0.67721 -15.82152,4.68824 -17.24084,4.01751c-3.53984,-1.6728 -10.21957,-12.20832 -14.16562,-13.53307c-2.17299,-0.72951 -13.24213,8.31563 -15.49066,7.6707c-2.89976,-0.83172 -7.9338,-12.41773 -10.93726,-12.9714c-7.98744,-1.47242 -10.01548,4.51784 -17.31191,8.62498c-4.74141,2.66893 -11.98088,-14.05653 -16.55253,-10.87318c-5.67746,3.95332 -11.26108,7.74397 -16.84298,9.98258c-4.37921,1.75629 -12.05828,-11.38836 -15.88916,-9.71824c-18.49653,8.06378 -29.70939,13.26281 -25.02132,-2.36861c9.42682,-31.43185 49.61407,1.6901 101.01032,-8.37195c49.19598,-9.63129 94.19186,8.85391 84.76504,40.28576z" fill="#ef8b89" stroke-width="0"/></g><path d="M432.52423,215.55678c-6.05836,20.20038 4.91815,8.81802 -12.35939,-3.05927c-2.11427,-1.45343 -13.11237,3.27996 -15.86708,1.65732c-1.73028,-1.01922 -7.11805,-10.54908 -9.09863,-11.52786c-1.38479,-0.68435 -16.18134,4.6219 -17.64109,3.94373c-3.64071,-1.69139 -10.56603,-12.2722 -14.62051,-13.61692c-2.23268,-0.74051 -13.51042,8.26619 -15.81989,7.61003c-2.97836,-0.84621 -8.2248,-12.47138 -11.30736,-13.03963c-8.19783,-1.51121 -10.23164,4.47797 -17.67948,8.55722c-4.83977,2.6508 -12.38515,-14.13106 -17.04709,-10.96436c-5.78956,3.93266 -11.48421,7.70284 -17.18866,9.91886c-4.47537,1.73856 -12.44453,-11.45956 -16.35852,-9.80476c-18.89786,7.98979 -30.35168,13.1444 -25.66362,-2.48701c9.42682,-31.43185 64.70031,-61.83467 115.09115,-52.54552c50.39082,9.28915 84.98704,53.92635 75.56022,85.3582z" fill="#873412" stroke-width="2"/><path d="M432.55242,214.50644c-6.05836,20.20038 4.91814,8.81802 -12.3594,-3.05927c-2.11427,-1.45343 -13.11237,3.27997 -15.86708,1.65732c-1.73028,-1.01922 -7.11805,-10.54908 -9.09864,-11.52786c-1.38479,-0.68435 -16.18134,4.62191 -17.64109,3.94373c-3.64071,-1.69139 -10.56604,-12.2722 -14.62051,-13.61692c-2.23268,-0.74051 -13.51042,8.26618 -15.81989,7.61002c-2.97836,-0.84621 -8.2248,-12.47138 -11.30736,-13.03963c-8.19783,-1.51121 -10.23164,4.47797 -17.67947,8.55721c-4.83977,2.6508 -12.38515,-14.13105 -17.0471,-10.96435c-5.78956,3.93266 -11.4842,7.70284 -17.18868,9.91885c-4.47537,1.73856 -12.44454,-11.45956 -16.35852,-9.80476c-18.89786,7.98979 -30.35168,13.14441 -25.66361,-2.48701c9.42681,-31.43185 50.86512,1.92072 103.46895,-7.91871c50.35184,-9.41821 96.60923,9.29954 87.18242,40.73139z" fill="#741d23" stroke-width="0"/></g><path d="M356.89421,139.60881c0.04154,0.11261 0.066,0.23829 0.0765,0.37353c0.0365,0.24197 0.02214,0.49274 -0.04985,0.74364c-0.17387,0.99946 -0.69768,2.15291 -0.77522,2.58531c-0.10188,0.5681 1.4988,-0.4021 2.18114,-0.19486c0.41797,0.12693 0.67095,0.81506 1.06339,0.64528c2.38173,-1.03029 4.87868,-3.16632 7.48221,-1.21287c0.86224,0.64693 0.25424,1.76315 0.69715,2.46635c0.03723,0.05912 2.89806,0.41023 3.41409,0.98912c0.88916,0.99749 -0.23072,2.00162 0.0871,2.96131c0.10169,0.30709 0.74442,-0.26424 1.14221,-0.32248c1.77038,-0.2592 4.90341,-0.91759 6.56842,0.29867c0.87732,0.64086 0.26333,1.99074 0.70552,2.47338c0.7752,0.84614 2.47367,-0.78318 3.76662,-1.02359c1.78822,-0.33253 2.40545,0.41743 3.54214,1.43137c0.19605,0.17488 -0.54714,3.65002 0.36352,4.86883c0.51188,0.6851 2.03361,-0.40459 3.02326,-0.236c0.98742,0.16823 3.16484,-0.08609 3.60099,0.08837c0.87486,0.34995 1.30106,1.72935 2.2392,1.50143c4.78984,-1.16356 9.8043,1.07593 6.7309,5.01196c-0.38895,0.49811 1.59846,-0.22632 2.23249,0.0803c0.2458,0.11886 1.47298,1.25354 1.74444,1.22553c1.77562,-0.18333 2.99116,-0.61019 4.73797,-0.29169c1.4507,0.26451 2.65063,1.16096 2.63106,2.4105c-0.01028,0.65668 -1.64205,1.62459 -0.85634,1.85227c1.85204,0.5367 4.65566,1.71196 3.15369,3.73852c-1.63041,2.19985 -4.77178,3.78952 -7.05517,1.4705c-0.79223,-0.80459 -2.84882,0.60285 -3.88943,-0.00342c-1.3331,-0.77667 -1.47566,-2.88033 -1.09368,-3.87797c0.17658,-0.46119 -1.27409,0.10462 -1.83949,-0.08346c-0.76125,-0.25322 -0.85579,-1.26102 -1.64432,-1.45632c-1.76376,-0.43679 -2.33348,2.53471 -6.39489,1.07203c-1.19877,-0.43172 -2.19788,-2.38498 -2.33105,-3.40618c-0.07729,-0.59279 2.27088,-1.98655 2.12469,-2.10934c-0.35494,-0.29816 -2.86435,2.03861 -3.3689,2.07463c-1.21385,0.08665 -2.25879,-0.76109 -3.24209,-1.32578c-0.86874,-0.49889 -1.753,1.39245 -2.81334,1.2451c-0.93677,-0.13018 -10.13807,-2.30687 -10.37623,-2.80736c-0.29036,-0.61018 -0.4564,-1.64638 -0.10027,-2.22496c0.128,-0.20794 1.54571,-1.38645 1.3413,-1.40585c-0.72546,-0.06883 -5.48262,2.11175 -7.02338,-1.12622c-0.83785,-1.76077 1.9951,-2.89878 2.41765,-4.2952c0.26095,-0.86236 -1.64892,1.21691 -2.39282,1.88429c-0.57136,0.51259 -1.91123,0.83258 -2.76741,0.69743c-2.96029,-0.4673 -1.48783,-2.52078 -1.71384,-3.93715c-0.10431,-0.65364 -1.88468,0.19284 -2.49942,-0.25622c-1.50304,-1.09794 -0.94414,-2.052 -0.69996,-3.39784c0.11181,-0.61623 -1.3025,2.22459 -3.14993,2.03522c-0.74922,-0.07681 -1.64661,-1.16351 -2.09176,-0.68481c-2.16713,2.33054 -1.70616,3.51579 -5.74708,2.33418c-0.38994,-0.11402 -1.27803,0.48668 -1.65124,0.21404c-4.13072,-3.01746 1.10223,-6.99662 2.27016,-10.41971c0.41199,-1.20747 -0.05838,-3.21296 1.47016,-3.56823c0.66724,-0.54588 1.67484,-0.80885 2.68158,-0.62327c0.89265,0.16455 1.58545,0.64504 1.93112,1.255c0.06189,0.08129 0.11173,0.16836 0.14653,0.26271z" fill="#ba587e" stroke="none" stroke-width="0.5"/></g><g stroke="#000000" stroke-linecap="butt"><path d="M342.21414,230.70739c-7.3678,24.5664 -25.61628,34.57419 -43.79525,31.22306c-18.17897,-3.35115 -29.40441,-18.79224 -22.03662,-43.35865c7.3678,-24.5664 28.07752,-41.76477 46.25648,-38.41362c18.17897,3.35115 26.94318,25.9828 19.5754,50.5492z" fill="#a100fe" stroke-width="2"/><path d="M296.21085,204.4058c-9.39111,18.31814 20.12211,45.44924 19.91306,54.53863c-0.05818,2.52942 -12.59037,3.13 -16.54794,2.40045c-18.17897,-3.35115 -29.40442,-18.79223 -22.03663,-43.35864c7.3678,-24.5664 36.02645,-47.43273 18.67153,-13.58046z" fill="#99008e" stroke-width="0"/></g><g data-paper-data="{&quot;index&quot;:null}" stroke="#000000" stroke-linecap="butt"><path d="M391.50756,194.80029c18.17897,3.35115 26.94318,25.98281 19.5754,50.54921c-7.36779,24.5664 -26.19374,34.46775 -44.37271,31.1166c-18.17897,-3.35115 -28.82694,-18.68576 -21.45916,-43.25218c7.3678,-24.5664 28.07751,-41.76478 46.25648,-38.41363z" fill="#a100fe" stroke-width="2"/><path d="M410.59931,244.50665c-7.36779,24.5664 -26.19374,34.46775 -44.37271,31.1166c-4.94117,-0.91086 -18.98351,-8.14163 -16.06554,-11.42049c7.8175,-8.78438 49.57599,-20.05821 51.44228,-38.37683c3.70519,-36.3685 16.36377,-5.88567 8.99597,18.68073z" fill="#99008e" stroke-width="0"/></g><path d="M264.40408,234.60281c-3.53105,3.54228 -8.67038,5.01883 -11.479,3.29798c-2.80863,-1.72086 -2.22299,-5.98747 1.30807,-9.52974c3.53105,-3.54228 8.67038,-5.01883 11.479,-3.29798c2.80863,1.72086 2.22299,5.98747 -1.30807,9.52974z" fill="#000000" stroke="none" stroke-width="0" stroke-linecap="butt"/></g></g></svg>