<svg version="1.1" xmlns="http://www.w3.org/2000/svg" xmlns:xlink="http://www.w3.org/1999/xlink" width="35.01786" height="30.64286" viewBox="0,0,35.01786,30.64286"><g transform="translate(-282.30357,-164.67857)"><g data-paper-data="{&quot;isPaintingLayer&quot;:true}" fill-rule="nonzero" stroke-linecap="butt" stroke-linejoin="miter" stroke-miterlimit="10" stroke-dasharray="" stroke-dashoffset="0" style="mix-blend-mode: normal"><path d="M283.05357,180c0,-8.04758 7.50323,-14.57143 16.75893,-14.57143c9.2557,0 16.75893,6.52385 16.75893,14.57143c0,8.04758 -7.50323,14.57143 -16.75893,14.57143c-9.2557,0 -16.75893,-6.52385 -16.75893,-14.57143z" fill="#2740ff" stroke="#000000" stroke-width="1.5"/><path d="M314.69213,185.93483c0.13907,0.02221 0.42627,0.11396 0.42627,0.4929c0,0.5 -0.5,0.5 -0.5,0.5l-0.28175,-0.05279c-1.0712,-0.55717 -1.80571,-1.56329 -1.99041,-2.76808c-1.06119,-0.18497 -2.01092,2.70174 -2.86162,2.40813c-1.13665,-0.39229 -1.3139,-3.428 -1.86854,-4.29303c-0.17241,-0.2689 -2.10174,0.86625 -2.27218,0.96982c-1.77468,1.07839 -2.72488,2.624 -3.97081,0.13015c-0.16721,-0.40051 -1.02919,-3.34098 -1.37417,-3.39176c-1.4377,-0.21162 -2.19757,2.55749 -3.58237,2.50608c-0.68746,-0.02552 -0.92878,-2.29683 -1.3855,-2.656c-0.41073,-0.323 -4.5447,1.52485 -5.04398,1.73106c-2.89642,0.41283 -1.5414,-1.45584 -3.02652,-2.88847c-0.15094,-0.1456 -1.85549,1.57254 -2.53875,1.25837c-0.99567,-0.45782 -0.51682,-4.27446 -0.59204,-5.09427c0,0 -0.04527,-0.49795 0.45268,-0.54321c0.49795,-0.04527 0.54321,0.45268 0.54321,0.45268c0.08763,0.97226 -0.39507,3.52741 0.10564,4.32433c0.09524,0.15158 0.18589,-0.31018 0.31243,-0.43681c0.41293,-0.41322 1.46715,-1.23624 2.14882,-0.86296c1.44761,0.7927 0.43675,3.2168 2.31836,2.82924c0.97395,-0.40888 4.75373,-2.27439 5.77393,-1.66107c0.57754,0.34721 0.82528,1.21021 1.0513,1.77149c0.10138,0.25174 -0.04941,1.01602 0.12133,0.80507c0.7599,-0.93887 2.13243,-2.89638 3.62693,-2.49392c1.07347,0.28908 1.62249,3.03277 1.99792,3.93382c1.08068,2.15945 2.86053,-1.70156 5.02795,-1.68553c0.99757,0.00738 2.76034,2.96701 2.3908,4.15375c0.188,-0.35244 0.55201,-0.98674 0.78471,-1.21827c0.92714,-0.92246 1.31919,-1.15831 2.56757,-0.75581c0.37672,0.98994 0.67277,2.0269 1.63878,2.53507z" fill="#000000" stroke="none" stroke-width="0.5"/><path d="M301.8098,184.92506c0.22361,0.44721 -0.22361,0.67082 -0.22361,0.67082l-0.03292,0.0056c-1.37829,1.07166 -2.83529,1.97137 -4.31904,2.83343c0.32215,0.61427 0.66293,1.19956 1.01303,1.73517c0.07134,-0.01058 0.1543,-0.00446 0.25018,0.0275c0.47434,0.15811 0.31623,0.63246 0.31623,0.63246l-0.99749,0.48134c-0.50457,-0.70754 -0.99339,-1.51698 -1.44576,-2.37937c-0.98046,0.56018 -1.96813,1.11532 -2.94827,1.70354c0,0 -0.42875,0.25725 -0.68599,-0.1715c-0.25725,-0.42875 0.1715,-0.68599 0.1715,-0.68599c1.00254,-0.60138 2.0134,-1.16711 3.01606,-1.73949c-0.84201,-1.76747 -1.51354,-3.67745 -1.85376,-5.34998c0,0 -0.09806,-0.49029 0.39223,-0.58835c0.49029,-0.09806 0.58835,0.39223 0.58835,0.39223c0.30648,1.5635 0.94225,3.37217 1.73767,5.04854c1.42633,-0.82971 2.82615,-1.69801 4.15111,-2.72887l0.19964,-0.11068c0,0 0.44721,-0.22361 0.67082,0.22361z" fill="#000000" stroke="none" stroke-width="0.5"/><path d="M306.08112,187.02543c0.15811,0.47434 -0.31623,0.63246 -0.31623,0.63246l-0.49727,0.16495c-0.40094,0.18375 -0.78987,0.39303 -1.16923,0.62084c0.28666,0.65572 0.5698,1.31304 0.86063,1.96703l0.01293,-0.03421c0,0 0.35355,0.35355 0,0.70711c-0.35355,0.35355 -0.70711,0 -0.70711,0l-0.21963,-0.26676c-0.26937,-0.60645 -0.53213,-1.21576 -0.79739,-1.82393c-0.90817,0.62486 -1.76891,1.3309 -2.6194,2.0113c0,0 -0.39043,0.31235 -0.70278,-0.07809c-0.31235,-0.39043 0.07809,-0.70278 0.07809,-0.70278c0.92311,-0.73848 1.85413,-1.48919 2.83864,-2.15156c-0.29998,-0.67302 -0.6087,-1.34213 -0.93862,-2.00184c0,0 -0.22361,-0.44721 0.22361,-0.67082c0.44721,-0.22361 0.67082,0.22361 0.67082,0.22361c0.31455,0.62922 0.61006,1.26687 0.89715,1.90828c0.39073,-0.23173 0.79123,-0.44626 1.20409,-0.63792l0.54925,-0.18389c0,0 0.47434,-0.15811 0.63246,0.31623z" fill="#000000" stroke="none" stroke-width="0.5"/><path d="M292.62376,186.24436c-0.22361,0.44721 -0.67082,0.22361 -0.67082,0.22361l-0.35639,-0.19315c-0.99942,0.02908 -1.84545,0.0976 -2.7237,0.58999c0,0 -0.43708,0.24282 -0.6799,-0.19426c-0.24282,-0.43708 0.19426,-0.6799 0.19426,-0.6799c1.1071,-0.61024 2.18522,-0.71201 3.43909,-0.68908l0.57385,0.27197c0,0 0.44721,0.22361 0.22361,0.67082z" fill="#000000" stroke="none" stroke-width="0.5"/></g></g></svg>