<svg version="1.1" xmlns="http://www.w3.org/2000/svg" xmlns:xlink="http://www.w3.org/1999/xlink" width="223.93699" height="315.16484" viewBox="0,0,223.93699,315.16484"><g transform="translate(-217.15021,-45.82253)"><g data-paper-data="{&quot;isPaintingLayer&quot;:true}" fill-rule="nonzero" stroke-linejoin="miter" stroke-miterlimit="10" stroke-dasharray="" stroke-dashoffset="0" style="mix-blend-mode: normal"><g stroke="#000000" stroke-linecap="butt"><path d="M334.66592,233.77223c-13.14797,30.63413 -29.83414,52.88098 -37.26962,49.68973c-7.43547,-3.19126 -2.80457,-30.61216 10.3434,-61.24629c13.14797,-30.63413 29.83414,-52.88098 37.26962,-49.68973c7.43547,3.19126 2.80457,30.61216 -10.3434,61.2463z" fill="#0d69be" stroke-width="2"/><path d="M328.60251,281.60184c-5.64344,13.14894 -21.152,19.11562 -34.63934,13.32694c-13.48733,-5.78868 -19.84608,-21.14065 -14.20263,-34.2896c5.64345,-13.14895 21.152,-19.11562 34.63934,-13.32694c13.48734,5.78868 19.84607,21.14066 14.20263,34.2896z" fill="#faddbf" stroke-width="2"/><path d="M296.6889,255.20544c-5.64345,13.14895 11.46283,44.87987 -2.02452,39.09119c-13.48733,-5.78868 -19.84607,-21.14064 -14.20263,-34.2896c5.64345,-13.14895 21.87059,-17.95055 16.22713,-4.8016z" fill="#ef8b89" stroke-width="0"/></g><g stroke="#000000" stroke-linecap="butt"><path d="M307.76518,340.83533v-95.29492h29.49199v95.29492z" fill="#73fffc" stroke-width="2"/><path d="M307.43943,340.21739l1.32626,-93.78573c0,0 5.20288,68.11227 6.3799,77.52842c0.2602,2.08162 2.52228,2.78987 2.52228,2.78987l18.60659,13.13896z" fill="#59a9e6" stroke-width="0"/></g><g stroke="#000000" stroke-linecap="butt"><path d="M268.4238,338.41279v-95.29492h29.49199v95.29492z" fill="#73fffc" stroke-width="2"/><path d="M268.09805,337.79487l1.32626,-93.78573c0,0 5.20288,68.11227 6.3799,77.52842c0.2602,2.08162 2.52228,2.78987 2.52228,2.78987l18.60659,13.13896z" fill="#59a9e6" stroke-width="0"/></g><g stroke="#000000" stroke-linecap="butt"><path d="M335.22917,235.69585c0,13.80271 10.04743,36.74388 4.95001,46.45977c-6.2338,11.88187 -28.61241,9.09579 -38.9397,9.09579c-13.66287,0 -32.94407,4.17018 -38.34426,-14.83216c-2.01935,-7.10576 4.35457,-32.37264 4.35457,-40.7234c0,-30.68249 15.2177,-55.55556 33.98969,-55.55556c18.77199,0 33.98969,24.87307 33.98969,55.55556z" fill="#0d69be" stroke-width="2"/><path d="M283.96554,251.27245c0,13.80271 62.04198,20.54886 56.94455,30.26474c-6.2338,11.88186 -28.61241,9.09579 -38.9397,9.09579c-13.66287,0 -32.94406,4.17018 -38.34425,-14.83215c-2.01936,-7.10576 4.35457,-32.37265 4.35457,-40.7234c0,-9.45244 3.34855,-28.59801 5.51953,-29.96813c5.94391,-16.76415 10.4653,25.13995 10.4653,46.16315z" fill="#10157d" stroke-width="0"/></g><g stroke-linecap="butt"><g stroke="#000000"><g><path d="M275.47627,100.54031c18.40458,-43.01918 68.19836,-62.97325 111.21754,-44.56867c43.01918,18.40458 62.97325,68.19836 44.56867,111.21754c-18.40458,43.01918 -68.19836,62.97325 -111.21754,44.56867c-43.01918,-18.40458 -62.97325,-68.19836 -44.56867,-111.21754z" fill="#faddbf" stroke-width="2"/><path d="M276.03046,99.83165c5.92142,-13.84082 24.09069,-34.3002 29.50052,-35.48171c0.61781,-0.13494 8.82475,-5.91606 18.38092,-9.13309c11.87767,-3.99855 25.55823,-5.55082 26.04225,-5.12942c6.31511,5.49816 -41.62367,52.73339 -50.43211,76.4721c-0.02101,0.05661 -3.6972,19.84714 -2.38181,20.88727c0.78752,5.49517 0.84278,21.19318 8.03852,32.03779c13.41008,20.21023 37.25593,37.34447 35.69328,37.22601c-2.49967,-0.18951 -14.6987,-3.27664 -20.27289,-5.6614c-43.01918,-18.40458 -62.97325,-68.19836 -44.56867,-111.21754z" fill="#ef8b89" stroke-width="0"/><path d="M430.96147,166.56202c-4.57229,10.68735 -7.60277,13.75935 -7.38197,11.83974c0.22525,-1.95835 3.68844,-9.09602 -2.55159,-17.02522c-1.51208,-1.9214 -11.85216,1.75567 -13.87684,-0.44635c-1.27172,-1.38313 -3.95231,-12.75854 -5.44584,-14.13282c-1.04424,-0.96085 -14.74176,2.80518 -15.85124,1.84037c-2.76707,-2.40631 -6.54853,-15.1723 -9.73854,-17.25277c-1.75664,-1.14566 -13.19551,7.24333 -15.03468,6.1804c-2.37185,-1.3708 -4.51007,-15.056 -7.0268,-16.13273c-6.69305,-2.86344 -9.63447,3.50359 -16.81256,6.96544c-4.66449,2.2496 -7.72707,-17.50199 -12.34361,-14.65301c-5.73321,3.53809 -11.35266,6.9092 -16.66771,8.55053c-4.16984,1.28768 -8.31545,-14.53963 -11.9893,-13.2641c-17.7383,6.15862 -28.55213,10.23837 -21.40447,-6.4687c14.37261,-33.5948 43.02908,9.47521 89.90921,6.123c44.8732,-3.20872 80.58857,24.28143 66.21594,57.87623z" fill="#ef8b89" stroke-width="0"/></g><path d="M435.64069,159.52436c-9.23687,21.59045 2.57715,10.58196 -10.20413,-5.30124c-1.56406,-1.94363 -12.09933,1.64992 -14.19006,-0.58036c-1.31322,-1.40087 -4.16184,-12.84819 -5.70172,-14.24229c-1.07665,-0.97472 -15.04329,2.67619 -16.18664,1.69688c-2.85161,-2.44246 -6.83885,-15.29652 -10.11971,-17.41584c-1.80666,-1.16705 -13.42031,7.14717 -15.31057,6.06237c-2.43771,-1.39898 -4.7539,-15.16033 -7.33693,-16.26541c-6.86935,-2.93887 -9.81561,3.42611 -17.12055,6.83368c-4.74693,2.21432 -8.06583,-17.64693 -12.75804,-14.83031c-5.82715,3.4979 -11.53962,6.82922 -16.95736,8.4266c-4.25043,1.25322 -8.6391,-14.67809 -12.38258,-13.43235c-18.0746,6.01476 -29.09034,10.00811 -21.94268,-6.69896c14.37261,-33.5948 68.6109,-59.0277 110.83576,-40.96295c42.22486,18.06474 63.74785,73.11538 49.37523,106.71018z" fill="#873412" stroke-width="2"/><path d="M435.8703,158.35787c-9.23687,21.59045 2.57715,10.58196 -10.20413,-5.30124c-1.56406,-1.94363 -12.09933,1.64992 -14.19006,-0.58036c-1.31322,-1.40087 -4.16184,-12.84819 -5.70172,-14.24229c-1.07665,-0.97472 -15.04329,2.67619 -16.18664,1.69688c-2.85161,-2.44246 -6.83885,-15.29652 -10.11971,-17.41584c-1.80666,-1.16705 -13.42031,7.14717 -15.31057,6.06237c-2.43771,-1.39898 -4.7539,-15.16033 -7.33693,-16.26541c-6.86935,-2.93887 -9.81561,3.42611 -17.12055,6.83368c-4.74693,2.21432 -8.06583,-17.64693 -12.75804,-14.83031c-5.82715,3.4979 -11.53962,6.82922 -16.95737,8.42659c-4.25043,1.25322 -8.6391,-14.67809 -12.38258,-13.43235c-18.0746,6.01476 -29.09034,10.00811 -21.94268,-6.69896c14.37261,-33.5948 44.07738,9.92371 91.9694,7.00439c45.84175,-2.79435 82.6142,25.14804 68.24158,58.74284z" fill="#741d23" stroke-width="0"/></g><path d="M384.36794,63.29312c0.01431,0.1319 0.01116,0.27571 -0.00604,0.42807c-0.01533,0.27531 -0.07682,0.55262 -0.1887,0.82132c-0.347,1.08749 -1.02989,2.29309 -1.18205,2.76323c-0.19989,0.61768 1.38832,-0.21888 1.94418,0.11651c0.3405,0.20545 0.42727,1.0112 0.80339,0.882c2.28253,-0.78405 4.88154,-2.78304 6.77558,-0.20718c0.62728,0.85308 -0.12191,2.00428 0.12791,2.85591c0.02101,0.07159 2.45263,0.90071 2.79061,1.62496c0.58238,1.24795 -0.59227,2.19592 -0.50181,3.3143c0.02894,0.35787 0.70214,-0.18063 1.06114,-0.1847c1.59777,-0.01806 4.46429,-0.27256 5.682,1.33794c0.64163,0.84861 -0.15837,2.25938 0.13387,2.86505c0.51234,1.06181 2.31464,-0.49451 3.4915,-0.5647c1.62768,-0.09706 2.02072,0.83336 2.81621,2.13752c0.1372,0.22494 -1.1905,3.98497 -0.63253,5.48292c0.31364,0.84199 1.85619,-0.13985 2.68816,0.19951c0.8301,0.33859 2.78263,0.38828 3.12974,0.6495c0.69626,0.52394 0.79953,2.12676 1.66387,2.01626c4.41304,-0.56416 8.35823,2.69946 4.90415,6.61671c-0.43712,0.49575 1.4411,-0.00769 1.93537,0.43109c0.19162,0.1701 1.04262,1.6227 1.28533,1.633c1.58753,0.06734 2.73311,-0.22251 4.19754,0.39978c1.21618,0.51682 2.08987,1.69969 1.82891,3.08956c-0.13714,0.73044 -1.75208,1.55969 -1.10987,1.9337c1.51381,0.88163 3.73457,2.62067 2.02646,4.64986c-1.85419,2.20272 -4.90973,3.49408 -6.45266,0.55968c-0.53532,-1.01809 -2.60731,0.23612 -3.39839,-0.59891c-1.01344,-1.06973 -0.72749,-3.43649 -0.19896,-4.49013c0.24432,-0.48706 -1.13387,-0.07831 -1.59128,-0.37449c-0.61585,-0.39873 -0.50179,-1.53661 -1.1528,-1.87495c-1.45615,-0.75677 -2.53398,2.46841 -5.79787,0.21653c-0.96337,-0.66467 -1.45532,-2.99484 -1.3724,-4.15356c0.04813,-0.67261 2.37227,-1.86694 2.26849,-2.02619c-0.25201,-0.38666 -2.90109,1.83418 -3.34906,1.79714c-1.07772,-0.08912 -1.82547,-1.194 -2.57461,-1.9739c-0.66185,-0.68905 -1.80374,1.28394 -2.70164,0.95745c-0.79327,-0.28844 -8.40969,-4.12266 -8.52013,-4.71699c-0.13466,-0.7246 -0.07754,-1.90506 0.34661,-2.49551c0.15243,-0.21219 1.62142,-1.30898 1.44655,-1.36188c-0.62057,-0.18773 -5.20352,1.51509 -5.9181,-2.33001c-0.38858,-2.09094 2.30931,-2.92599 2.95112,-4.41795c0.39635,-0.92136 -1.67853,1.10421 -2.4589,1.73431c-0.59938,0.48397 -1.83274,0.63565 -2.55463,0.35398c-2.49587,-0.97384 -0.80829,-3.03756 -0.72939,-4.65098c0.03641,-0.74458 -1.68471,-0.07341 -2.1343,-0.66803c-1.09927,-1.45387 -0.42463,-2.43184 0.05143,-3.89468c0.21797,-0.66981 -1.57245,2.28048 -3.15,1.78671c-0.63977,-0.20025 -1.21195,-1.5489 -1.69438,-1.08341c-2.34874,2.26627 -2.17721,3.65801 -5.47805,1.72258c-0.31851,-0.18676 -1.21187,0.34695 -1.48483,-0.01405c-3.02105,-3.9956 2.32874,-7.63051 4.01747,-11.26753c0.59569,-1.28293 0.57603,-3.59044 1.98119,-3.75257c0.68965,-0.5064 1.62154,-0.64537 2.46513,-0.28446c0.74799,0.32001 1.25967,0.96163 1.44273,1.69441c0.03823,0.10008 0.06478,0.20477 0.07678,0.31525z" fill="#ba587e" stroke="none" stroke-width="0.5"/></g><g stroke="#000000" stroke-linecap="butt"><path d="M368.98753,175.53672c-11.2333,26.25692 -29.13423,34.6205 -44.36725,28.10347c-15.23302,-6.51703 -22.0297,-25.44681 -10.7964,-51.70371c11.2333,-26.25692 32.6885,-42.25925 47.92153,-35.74222c15.23302,6.51703 18.47543,33.08557 7.24213,59.34249z" fill="#f0f0f0" stroke-width="2"/><path d="M333.70307,139.14201c-15.06086,24.26485 7.06154,70.50206 -8.17147,63.98503c-15.23302,-6.51703 -22.0297,-25.44681 -10.7964,-51.70371c11.2333,-26.25692 40.74142,-47.36111 18.96786,-12.2813z" fill="#9a99ff" stroke-width="0"/></g><path d="M362.16857,181.57449c-6.22347,14.54685 -15.57955,24.49508 -20.89739,22.21999c-5.31783,-2.27509 -4.58367,-15.91198 1.6398,-30.45881c6.22347,-14.54685 15.57955,-24.49508 20.89739,-22.21999c5.31783,2.27509 4.58367,15.91198 -1.6398,30.45881z" fill="#000000" stroke="none" stroke-width="0" stroke-linecap="butt"/><g stroke="#000000" stroke-linecap="butt"><path d="M376.19578,145.95267c0.07623,11.15931 -4.35377,33.8926 -18.79768,27.71316c-14.44392,-6.17944 -33.46422,-39.76077 -25.50373,-46.81329c7.5743,-6.71038 14.66731,-17.02177 29.11124,-10.84233c14.44392,6.17944 15.11751,19.30751 15.19017,29.94245z" fill="#a100fe" stroke-width="2"/><path d="M375.48535,145.26344c-0.06357,11.09949 -4.07498,33.49553 -18.0264,27.52681c-13.95141,-5.96873 -32.58066,-38.86642 -24.76262,-45.97991c7.43873,-6.76836 5.6512,3.46408 19.60261,9.43282c13.95141,5.96873 23.24699,-1.55768 23.1864,9.02028z" fill="#99008e" stroke-width="0"/></g><g data-paper-data="{&quot;index&quot;:null}" stroke="#000000" stroke-linecap="butt"><path d="M420.74335,140.30665c15.23302,6.51703 18.47543,33.08557 7.24213,59.34249c-11.2333,26.25691 -29.61814,34.41347 -44.85115,27.89644c-15.23302,-6.51703 -21.54582,-25.23978 -10.3125,-51.49671c11.2333,-26.25692 32.6885,-42.25925 47.92153,-35.74222z" fill="#f0f0f0" stroke-width="2"/><path d="M427.7273,198.63563c-11.2333,26.25691 -29.61814,34.41347 -44.85115,27.89644c-15.23302,-6.51703 33.4858,-22.44674 40.63512,-50.09635c10.3358,-39.97315 15.44934,-4.05702 4.21603,22.19989z" fill="#9a99ff" stroke-width="0"/></g><path d="M420.69801,174.78791c5.31783,2.27509 4.58367,15.91198 -1.6398,30.45881c-6.22347,14.54685 -15.57955,24.49508 -20.89739,22.21999c-5.31783,-2.27509 -4.58367,-15.91198 1.6398,-30.45881c6.22347,-14.54685 15.57955,-24.49508 20.89739,-22.21999z" data-paper-data="{&quot;index&quot;:null}" fill="#000000" stroke="none" stroke-width="0" stroke-linecap="butt"/><g data-paper-data="{&quot;index&quot;:null}" stroke="#000000" stroke-linecap="butt"><path d="M389.24114,150.4055c7.74205,-7.29164 17.70227,-15.87032 32.14621,-9.69088c14.44392,6.17944 11.8843,18.43032 12.26149,28.54253c0.39644,10.62782 -35.84211,20.30999 -50.28602,14.13056c-14.44392,-6.17944 -2.24546,-25.33105 5.87831,-32.98221z" fill="#a100fe" stroke-width="2"/><path d="M390.23025,150.44336c7.60883,-7.34864 8.58448,4.57204 22.53591,10.54077c13.95141,5.96873 20.11777,-2.39036 20.35942,7.66385c0.25397,10.56687 -35.34494,19.74819 -49.29635,13.77945c-13.95141,-5.96873 -1.58295,-24.2731 6.40101,-31.98407z" fill="#99008e" stroke-width="0"/></g><path d="M371.63632,338.87001c0,11.6628 -14.51982,21.11737 -32.43092,21.11737c-17.9111,0 -32.43092,-9.45457 -32.43092,-21.11737c0,-2.33142 -0.03339,-13.76009 1.08979,-15.13837c4.49546,-5.51647 17.81784,5.26144 32.14847,5.26144c17.9111,0 31.62358,-1.78588 31.62358,9.87692z" fill="#000082" stroke="#000000" stroke-width="2" stroke-linecap="butt"/><path d="M369.75004,336.13771c0,6.30841 -13.89058,10.1901 -31.80169,10.1901c-17.9111,0 -30.16566,-2.95748 -30.16566,-9.26589c0,-1.26107 -0.03338,-12.52602 1.0898,-13.27153c4.49546,-2.98386 15.55258,5.7726 29.88321,5.7726c17.9111,0 30.99434,0.26631 30.99434,6.57472z" fill="#2e0048" stroke="#000000" stroke-width="0" stroke-linecap="butt"/><path d="M328.64938,338.2252c0,11.6628 -14.51982,21.11737 -32.43092,21.11737c-17.9111,0 -32.43092,-9.45457 -32.43092,-21.11737c0,-2.33142 -0.03339,-13.76009 1.08979,-15.13837c4.49546,-5.51647 17.81784,5.26144 32.14847,5.26144c17.9111,0 31.62358,-1.78588 31.62358,9.87692z" fill="#000082" stroke="#000000" stroke-width="2" stroke-linecap="butt"/><path d="M326.7631,335.49289c0,6.30841 -13.89058,10.1901 -31.80169,10.1901c-17.9111,0 -30.16566,-2.95748 -30.16566,-9.26589c0,-1.26107 -0.03338,-12.52602 1.0898,-13.27153c4.49546,-2.98386 15.55258,5.7726 29.88321,5.7726c17.9111,0 30.99434,0.26631 30.99434,6.57472z" fill="#2e0048" stroke="#000000" stroke-width="0" stroke-linecap="butt"/><g><g><path d="M278.54865,256.88891c-14.14443,-5.2496 -19.76557,-15.42863 -15.22668,-29.65915c3.54988,-11.12985 19.88564,-18.95078 34.03008,-13.70118c14.1445,5.24959 21.02743,18.20294 15.8302,32.20643c-0.81274,2.18988 -2.21276,3.96968 -3.47624,5.6072c-6.81606,8.83357 -19.22481,9.97539 -31.15733,5.54673z" fill="#485e84" stroke="#000000" stroke-width="2" stroke-linecap="butt"/><path d="M283.58658,213.84075c0,0 -2.41056,5.22687 -1.32426,6.91011c10.42004,16.14611 23.18809,21.99373 27.55867,23.60554c0.99299,0.36622 1.86833,-0.33709 1.86833,-0.33709c0,0 -0.52331,2.04799 -2.01076,4.35048c-1.58277,2.45006 -4.21227,5.20499 -6.91875,6.66102c-3.0916,1.66317 -11.2035,3.58808 -11.2035,3.58808l-20.53643,-4.1369c0,0 -6.64186,-11.6979 -6.9966,-13.83591c-0.34755,-2.09453 -0.15805,-4.67268 -0.0669,-7.42198c0.14155,-4.26868 1.85841,-8.47096 3.65357,-10.72312c2.29106,-2.87424 6.21772,-5.39084 9.73825,-6.86335c3.27651,-1.37044 6.23836,-1.79679 6.23836,-1.79679z" fill="#343545" stroke="none" stroke-width="0" stroke-linecap="butt"/><path d="M277.33567,237.46475c0,0 1.31885,-8.92518 5.0214,-12.51281c4.68703,-4.5416 16.14498,-10.60937 16.14498,-10.60937" fill="none" stroke="#000000" stroke-width="1" stroke-linecap="round"/><path d="M314.05066,238.70007c0,0 -3.84538,6.02851 -6.9547,8.99564c-3.13896,2.99551 -12.06958,6.78983 -12.06958,6.78983" fill="none" stroke="#000000" stroke-width="1" stroke-linecap="round"/><path d="M266.39204,236.69454c0,0 1.21691,-9.1818 5.40429,-12.88515c6.42541,-5.68264 16.43753,-11.53524 16.43753,-11.53524" fill="none" stroke="#000000" stroke-width="1" stroke-linecap="round"/><path d="M267.59388,221.45794c0,0 16.53055,-5.12017 30.36035,5.47609c15.1488,11.60685 8.84213,27.6604 8.84213,27.6604" fill="none" stroke="#000000" stroke-width="1" stroke-linecap="round"/><path d="M263.11846,229.86482c0,0 17.63839,-2.39784 29.86217,6.92625c10.03684,7.65594 5.98949,21.67515 5.98949,21.67515" fill="none" stroke="#000000" stroke-width="1" stroke-linecap="round"/><path d="M306.64487,225.80565c-0.74234,-0.94664 -0.73658,-2.19041 0.01281,-2.77806c0.74938,-0.58772 1.25868,0.02431 2.00103,0.97094c0.74234,0.94664 1.43656,1.86937 0.68718,2.45705c-0.74938,0.58772 -1.9587,0.29671 -2.70099,-0.64993z" fill="#8fbbbe" stroke="none" stroke-width="0" stroke-linecap="butt"/><path d="M310.31047,232.08437c-0.56389,-0.2093 -0.76654,-1.06463 -0.45261,-1.91048c0.31393,-0.84586 0.55888,-1.14786 1.12278,-0.93859c0.56389,0.2093 0.93673,1.12779 0.62277,1.97362c-0.31393,0.84586 -0.72907,1.0847 -1.29296,0.87541z" fill="#8fbbbe" stroke="none" stroke-width="0" stroke-linecap="butt"/><path d="M302.32514,220.40158c-0.80761,-0.4023 -1.24485,-1.1648 -0.97669,-1.70317c0.26811,-0.53837 0.95076,-0.13823 1.75836,0.26402c0.80761,0.4023 1.43433,0.65426 1.16619,1.19265c-0.26811,0.53837 -1.14026,0.64875 -1.94784,0.24648z" fill="#8fbbbe" stroke="none" stroke-width="0" stroke-linecap="butt"/><path d="M279.19194,214.72665c0,0 10.22815,0.25418 17.19712,3.22961c3.95105,1.68693 6.85099,4.53768 9.02536,6.72361c1.92292,1.93309 4.36262,8.03832 5.74369,12.90564c1.01683,3.58354 1.27505,6.51616 1.27505,6.51616" fill="none" stroke="#000000" stroke-width="0.5" stroke-linecap="round"/><path d="M312.00522,224.38808c0,0 -4.05709,9.7631 -7.81265,13.65062c-3.16415,3.27534 -12.91167,8.28035 -12.91167,8.28035" fill="none" stroke="#000000" stroke-width="1" stroke-linecap="round"/><path d="M286.57404,242.82962c0,0 3.80854,-8.88387 6.58018,-12.45722c4.86648,-6.27411 14.24583,-10.79124 14.24583,-10.79124" fill="none" stroke="#000000" stroke-width="1" stroke-linecap="round"/></g><g stroke="#000000" stroke-linecap="butt"><path d="M259.52953,233.8866c26.26679,20.52741 25.99735,30.17016 21.01496,36.54559c-4.98239,6.37544 -30.31485,-5.09701 -56.58164,-25.62443c-26.26678,-20.52741 44.71756,-33.82076 49.69994,-40.1962c6.71655,-2.28389 6.62207,4.24211 2.05895,10.64008c-5.62739,7.8902 -18.4374,16.88035 -16.19222,18.63496z" fill="#0d69be" stroke-width="2"/><path d="M286.70624,239.78385c11.27437,8.81088 13.08761,25.32841 4.04997,36.89293c-9.03764,11.56452 -25.50377,13.79678 -36.77814,4.9859c-11.27437,-8.81088 -13.0876,-25.32842 -4.04996,-36.89294c9.03764,-11.56452 25.50377,-13.79678 36.77814,-4.98589z" fill="#faddbf" stroke-width="2"/><path d="M253.04231,263.90827c11.27437,8.81088 46.31918,0.36473 37.28154,11.92924c-9.03764,11.56452 -25.50377,13.79678 -36.77814,4.98589c-11.27437,-8.81088 -11.77778,-25.72603 -0.5034,-16.91514z" fill="#ef8b89" stroke-width="0"/></g></g><path d="M293.74881,146.17505c-0.0881,0.05652 -0.3192,0.18863 -0.60707,0.22711c-0.58681,0.65339 -1.04317,1.39399 -0.99389,2.14846c0.13374,2.04749 4.5286,4.72031 5.62099,6.35623c2.6132,3.91343 1.42393,12.01135 -3.89638,13.12996c-1.02502,0.21552 -3.14294,-0.19863 -4.22321,-0.37015c-3.43595,-1.76537 -8.01252,-6.28079 -8.91922,-10.20335c-0.84868,-3.67159 0.69819,-8.97038 1.77336,-12.55586c1.3086,-4.36392 3.0502,-8.74143 7.66499,-10.07292c2.99382,-0.2053 6.06022,0.14653 8.28173,2.4745c2.44333,2.56043 1.38577,7.11624 -1.83138,8.45378c-0.15103,0.06279 -2.0653,0.3095 -2.86992,0.41223z" fill="#000000" stroke="none" stroke-width="0.5" stroke-linecap="butt"/></g></g></svg>