<svg version="1.1" xmlns="http://www.w3.org/2000/svg" xmlns:xlink="http://www.w3.org/1999/xlink" width="183.18182" height="183.18182" viewBox="0,0,183.18182,183.18182"><g transform="translate(-148.40909,-88.40909)"><g data-paper-data="{&quot;isPaintingLayer&quot;:true}" fill-rule="nonzero" stroke="none" stroke-width="0" stroke-linecap="butt" stroke-linejoin="miter" stroke-miterlimit="10" stroke-dasharray="" stroke-dashoffset="0" style="mix-blend-mode: normal"><path d="M148.40909,271.59091v-183.18182h183.18182v183.18182z" data-paper-data="{&quot;index&quot;:null}" fill="none"/><g data-paper-data="{&quot;index&quot;:null}"><path d="M173.28845,182.81567c0,-3.53105 44.99094,-58.18723 55.33283,-64.25891c5.13255,-3.01328 11.9832,-4.05425 14.4164,-4.12409c3.64581,-0.10466 11.90374,1.65035 17.64216,6.06846c8.00389,6.16234 15.24819,16.65127 22.42088,26.61376c13.30245,18.47642 23.94187,37.44576 23.94187,38.57279c0,1.50427 -20.98525,19.91321 -25.29031,19.9742c-1.93806,0.02746 -13.83869,-23.27204 -16.01482,-23.66784c-1.22377,-0.22258 -4.58912,-2.06548 -4.94163,0.43719c-0.16062,1.14033 0.23519,54.87511 -0.9612,55.08842c-2.02099,0.36033 -2.13189,5.29797 -13.66899,6.34636c-9.43057,0.85697 -21.64919,-0.56628 -22.46284,-1.32267c-0.68169,-0.63371 -1.42541,-4.34147 -1.53793,-8.21673c-0.36451,-12.55409 1.95436,-35.96929 1.67369,-38.42497c-0.3155,-2.76046 1.16883,-12.32295 -1.56789,-14.51672c-2.43252,-1.94994 -7.47815,3.24633 -8.95672,4.56974c-10.79477,9.66205 -17.99421,21.9016 -19.4823,21.61996c-1.35048,-0.25559 -20.54316,-23.30721 -20.54316,-24.75894z" data-paper-data="{&quot;noHover&quot;:false,&quot;origItem&quot;:[&quot;Path&quot;,{&quot;applyMatrix&quot;:true,&quot;segments&quot;:[[[468.26192,506.02382],[0,0],[3.035,0]],[[519.97642,463.09056],[-0.53434,2.82334],[0.5888,-3.11102]],[[474.8537,422.54302],[20.1996,22.56768],[-2.76674,-3.0911]],[[465.26432,403.62164],[-4.07656,5.08546],[4.58634,-5.72142]],[[495.5535,400.37302],[-5.77106,0.65958],[5.13388,-0.58676]],[[575.86152,403.91104],[-26.24574,0.76204],[8.10168,-0.23524]],[[593.03778,400.70172],[-1.32484,1.42514],[1.58132,-1.70102]],[[595.80018,353.77508],[1.7916,19.71566],[-2.19178,-24.1196]],[[582.53724,325.22126],[0.7533,4.2251],[-0.44594,-2.5012]],[[467.44836,323.27862],[2.38398,0.3358],[-5.23212,-0.73698]],[[466.56002,312.74928],[-0.46532,2.55842],[0.82746,-4.54944]],[[515.97618,279.4524],[0.0574,4.05174],[-0.1275,-9.00022]],[[474.2619,226.59526],[3.14484,0],[-2.35618,0]],[[393.69066,276.6289],[38.62704,-27.81026],[-20.82772,14.9953]],[[338.08606,323.45518],[12.88306,-16.73304],[-9.23656,11.99682]],[[325.40476,360.30956],[-0.2188,-7.62198],[0.14602,5.08688]],[[334.02496,390.42556],[-6.2996,-10.73018],[12.69352,21.6209]],[[468.2619,506.02386],[-7.38206,0],[0,0]]],&quot;closed&quot;:true,&quot;fillColor&quot;:[0,0,0],&quot;strokeWidth&quot;:0}]}" fill="#6dc782"/><path d="M242.17003,111.23467c16.37479,0 29.27487,13.94445 40.64661,29.22052c15.54107,20.87691 26.77497,44.86349 26.77497,44.86349l-27.20512,24.66854l-17.16518,-23.8467l-4.25979,57.37482l-39.29756,1.55194l-1.80706,-57.59225l-25.90758,26.13572l-23.94999,-30.2054c0,0 25.43203,-37.51089 47.73821,-58.23232c9.90878,-9.20482 17.71538,-13.93838 24.4325,-13.93838zM176.58964,183.00676c0,0.97202 20.3153,23.74644 20.3153,23.74644c0,0 20.17671,-25.50031 24.48816,-25.50031c0.15152,0 2.67445,-1.9874 3.59205,1.98215c0.79112,3.42238 -0.48369,19.52908 -0.61237,26.42964c-0.31951,17.13421 -0.98494,29.39481 0.37067,29.30583c0.17377,-0.0114 2.47492,0.80913 6.13752,1.13277c6.42618,0.56783 15.80195,0.09044 18.60858,-0.95665c1.64934,-0.61533 6.83316,-1.13151 7.89336,-1.86046c1.0868,-0.74725 1.00169,-6.94548 1.23053,-16.29595c0.28034,-11.45441 0.34816,-28.61486 1.42009,-36.47353c0.3688,-2.70383 1.13761,-3.18201 1.69222,-3.47828c2.12301,-1.13414 6.07889,7.64193 10.73063,14.01345c3.838,5.25695 7.86023,9.50237 7.86023,9.50237c0,0 23.45139,-18.45007 23.34904,-19.63413c-0.23018,-2.6628 -24.2264,-43.26935 -43.09482,-61.84118c-1.10106,-1.08375 -8.31338,-5.60943 -19.16592,-4.96915c-9.54783,0.56331 -17.83215,6.17981 -19.89869,8.34346c-15.14317,15.85486 -44.91657,55.06428 -44.91657,56.55354z" fill="#ffffff"/><path d="M248.60468,107.55041c3.35087,0.11364 16.74653,6.11409 27.9101,18.53677c2.93379,3.26469 6.46712,6.45341 9.33324,10.12922c15.57972,19.98112 28.15511,44.71109 28.24785,47.468c0.02585,0.76864 1.02033,5.39242 -2.81954,8.79966c-8.67727,7.69962 -27.46589,19.44172 -30.62531,20.55032c-0.35283,0.1238 -3.07195,-1.15736 -5.98632,-4.16931c-3.51089,-3.62843 -7.06598,-9.36028 -7.34807,-9.39934c-1.71367,-0.2373 1.47891,42.67276 -1.01378,43.13284c-0.25223,0.04656 -2.12526,4.62134 -6.98847,6.61521c-2.27531,0.93286 -4.93684,2.53623 -8.46635,3.11502c-7.51401,1.23218 -22.87537,0.47774 -29.23719,-0.84862c-2.63741,-0.54987 -4.91495,-6.3407 -6.01339,-8.59625c-1.24422,-2.55491 0.34227,-42.50777 -0.68805,-46.73506c-0.16146,-0.66245 -8.77515,13.05464 -14.96007,18.1065c-1.71803,1.40329 -4.89887,2.27363 -5.77307,2.10514c-7.95364,-1.53288 -28.7495,-30.47759 -28.40217,-34.46985c0.4084,-4.69413 22.92777,-33.39948 41.02513,-53.45083c4.54406,-5.03469 11.02336,-10.37199 16.74948,-14.04632c4.92037,-3.1573 9.08278,-5.38945 10.43465,-5.96958c5.61587,-2.40998 12.72533,-0.93783 14.62133,-0.87353zM173.33625,182.81316c0,1.45173 19.18573,24.48094 20.53621,24.73653c1.48809,0.28164 8.44084,-12.39977 19.23561,-22.06182c1.47856,-1.32341 6.77756,-6.05848 9.21009,-4.10855c2.73672,2.19378 1.23841,11.72772 1.55391,14.48819c0.28066,2.45568 -2.05684,25.85954 -1.69234,38.41364c0.11252,3.87527 0.85342,7.58219 1.53511,8.2159c0.81365,0.75639 13.01579,2.17831 22.44636,1.32134c11.5371,-1.04839 11.63713,-5.98372 13.65811,-6.34405c1.1964,-0.21331 0.93452,-54.59812 1.48727,-55.60837c0.7984,-1.45921 4.09676,-0.60606 4.95677,0.29257c2.16099,2.25807 6.96165,9.2266 10.11318,14.52299c3.16744,5.32313 4.68276,8.9685 5.65424,8.95474c4.30506,-0.06099 24.96421,-18.44887 24.96421,-19.95314c0,-1.12703 -10.63008,-20.06312 -23.93253,-38.53954c-7.17268,-9.9625 -14.39446,-20.43494 -22.39836,-26.59728c-5.73842,-4.41811 -13.9827,-6.17049 -17.62851,-6.06583c-2.4332,0.06985 -9.2728,1.11001 -14.40535,4.12329c-10.3419,6.07168 -55.29399,60.67834 -55.29399,64.20939z" fill="#201e31"/></g></g></g></svg>