<svg version="1.1" xmlns="http://www.w3.org/2000/svg" xmlns:xlink="http://www.w3.org/1999/xlink" width="275.24753" height="299.55195" viewBox="0,0,275.24753,299.55195"><defs><radialGradient cx="261.52598" cy="276.89045" r="16.46418" gradientUnits="userSpaceOnUse" id="color-1"><stop offset="0" stop-color="#1e202b"/><stop offset="1" stop-color="#1e202b" stop-opacity="0"/></radialGradient></defs><g transform="translate(-102.37623,-30.22403)"><g data-paper-data="{&quot;isPaintingLayer&quot;:true}" fill-rule="nonzero" stroke-linejoin="miter" stroke-miterlimit="10" stroke-dasharray="" stroke-dashoffset="0" style="mix-blend-mode: normal"><path d="M102.37623,329.77597v-299.55195h275.24753v299.55195z" fill="none" stroke="none" stroke-width="0" stroke-linecap="butt"/><g stroke-linecap="butt"><g><path d="M246.03983,165.63357c0,0 -2.00142,-18.00027 -1.1461,-26.77525c0.93718,-9.61481 6.94609,-29.42474 6.94609,-29.42474l28.8,8l-0.4,48.6z" fill="#d396fc" stroke="#000000" stroke-width="2"/><path d="M253.63983,186.23357c0,0 6.25508,-9.93809 6.2857,-16.79694c0.03536,-7.92102 -6.0857,-27.40306 -6.0857,-27.40306c0,0 3.46978,3.01174 7.43863,4.05275c4.15587,1.09007 16.96138,1.74725 16.96138,1.74725l13.8,38.4z" fill="#ffc6ef" stroke="none" stroke-width="0"/></g><g><path d="M270.50552,182.09119c0,0 2.3029,-3.65551 2.18757,-4.31531c-0.02245,-0.12843 -0.98279,-0.6927 -2.08159,-0.76986c-1.45294,-0.10203 -3.14796,0.27341 -3.23673,-0.05186c-0.24797,-0.90862 4.22202,-5.37373 4.18689,-5.75897c-0.06868,-0.7532 -3.99924,-3.12489 -4.17568,-3.89955c-0.13392,-0.58796 3.74726,-2.16015 3.64184,-2.71344c-0.17885,-0.93872 -2.07607,-2.48379 -2.73774,-3.23547c-0.35941,-0.40831 -2.6456,-3.62248 -2.02369,-4.09946c0.23203,-0.17796 1.08484,0.11749 1.95075,0.17817c1.57,0.11002 3.64056,0.13443 5.37385,0.02832c6.3674,-0.38983 13.91454,-0.96258 13.91454,-0.96258v19.9z" fill="#4a5c6f" stroke="#000000" stroke-width="1.5"/><path d="M279.09328,168.24673c0.18333,-0.46287 -6.70138,0.27473 -6.44879,-0.17801c0.71313,-1.27816 5.29149,-3.98414 5.31235,-4.48374c0.03397,-0.81357 -6.82189,-3.18642 -6.76508,-3.64606c0.03922,-0.31734 2.01377,-1.64774 2.01377,-1.64774l13.5,-1.2l0.4,18.7c0,0 -3.33348,1.17874 -5.29019,1.08815c-2.25777,-0.10453 -4.47902,-1.20137 -6.15818,-1.56438c-0.55077,-0.11907 -1.07559,0.03472 -1.31316,-0.14448c-0.71067,-0.53607 4.24585,-5.65263 4.74929,-6.92374z" fill="#696f96" stroke="none" stroke-width="0"/></g></g><g stroke-linecap="butt"><path d="M183.70137,296.98868c5.67566,-4.31995 11.81029,-8.98737 12.66839,-10.34091c0.76993,-1.21445 1.53762,-2.60435 2.53087,-4.14094c3.4967,-5.40948 8.27194,-12.6368 12.38003,-20.42609c0.93159,-1.76637 1.57773,-3.6798 2.45436,-5.48037c0.65094,-1.337 0.98578,-2.19805 1.5507,-3.54764c0.40565,-0.96911 0.3932,-1.32874 0.76655,-2.2944c0.32037,-0.82863 1.2964,-2.75214 1.59985,-3.57256c1.29327,-3.4965 2.46182,-6.89449 3.75172,-9.9908c3.86133,-9.26891 5.71737,-16.91805 5.71737,-16.91805l29.2475,-4.83791c0,0 -3.64927,15.05801 -9.3827,28.66098c-1.39503,3.3098 -3.97637,7.30082 -5.87383,10.20913c-0.95227,1.45959 -1.78296,2.73916 -2.52694,3.79342c-0.44607,0.63209 -0.97468,1.079 -1.16178,1.72632c-0.78687,2.72233 -0.25961,6.20939 -0.40126,10.34387c-0.24157,7.05019 -0.73481,14.74194 -0.73481,14.74194c0,0 -7.23586,8.82641 -7.3694,8.82607c-0.57743,-0.00149 -2.09534,-5.91454 -2.62736,-8.06113c-0.11799,-0.47605 -0.41414,-0.62704 -0.77572,-0.37641c-0.98678,0.68399 -2.97853,2.19335 -4.1111,3.9389c-0.81026,1.24881 -1.92713,4.70522 -2.62079,4.99562c-0.76118,0.31868 -1.68954,1.13568 -2.51396,1.47225c-3.27484,1.33693 -6.98595,2.57872 -10.85151,3.8547c-5.12716,1.69243 -10.52603,3.3524 -15.53896,4.46862c-7.87083,1.75257 -15.36061,1.52856 -16.49404,1.56197c-1.12679,0.03321 -0.88907,-0.09654 -0.24791,-0.58255c0,0 6.08611,-4.61516 10.56475,-8.02401z" fill="#1b1f25" stroke="#000000" stroke-width="1.5"/><path d="M254.48202,215.39837l26.76213,-3.53696c0,0 -0.62472,4.24921 -2.64019,10.64392c-1.77689,5.63772 -4.84234,12.88875 -6.57994,21.13362c-0.84772,4.02244 0.9749,8.57012 0.0269,12.77399c-0.67477,2.99224 -2.127,3.22031 -3.47842,6.36237c-0.70578,1.64094 -1.21947,3.79552 -1.96608,6.00381c-1.0295,3.04499 -2.26184,6.19211 -2.88239,8.23545c-0.97069,3.19627 -0.31946,5.91578 -0.36418,8.45645c-0.10271,5.83335 13.69349,15.2539 15.70706,16.93097c0.2001,0.16665 0.67769,0.26801 0.5607,0.27214c-1.71164,0.06043 -5.59066,0.09237 -8.25258,-0.23084c-4.76238,-0.57824 -9.02087,-1.52052 -12.80044,-2.28645c-5.19619,-1.05301 -9.48721,-1.98983 -12.93804,-3.16186c-4.13381,-1.404 -7.06193,-2.92211 -8.89607,-3.66918c-0.33408,-0.13608 0.07202,-5.68046 0.15247,-7.24122c0.08142,-1.57959 -0.9389,-1.16992 -0.9389,-1.16992c0,0 -0.45616,-5.39157 0.5728,-9.25221c0.72134,-2.70643 2.0122,-8.2037 4.38216,-14.7284c1.12457,-3.09605 2.97171,-6.56281 4.32375,-9.93313c1.32269,-3.29715 2.41822,-6.496 3.38177,-9.69895c4.26957,-14.19252 5.86749,-25.90362 5.86749,-25.90362z" fill="#1b1f25" stroke="#000000" stroke-width="1.5"/><path d="M246.00579,243.08382c0,0 -4.79875,0.89323 -4.89766,-0.30199c-0.32721,-3.95422 2.58981,-27.58714 2.58981,-27.58714h21.30319c0,0 -11.68309,26.67789 -13.62416,30.18517c-0.4558,0.8236 -2.53077,-0.99509 -2.53077,-0.99509c0,0 2.07836,-7.64309 1.24268,-7.64309c-1.10396,0 -1.83671,1.70918 -2.49992,3.03615c-0.78881,1.57827 -1.58317,3.30599 -1.58317,3.30599z" fill="#1b1f25" stroke="none" stroke-width="0"/><path d="M231.80843,284.43044c0.01639,-2.01162 1.74878,-9.75792 1.74878,-9.75792c0,0 0.82688,-11.18085 1.38898,-11.55464c0.34465,-0.22918 1.2849,2.4485 1.47788,4.72278c0.16155,1.90384 0.05731,5.37908 -0.01644,5.61309c-0.02813,0.08925 -0.32393,1.77279 -0.28315,2.75772c0.02617,0.63232 0.3476,0.73771 0.45067,0.73771c0.45683,0 1.63357,-3.38432 2.54165,-6.44658c0.53874,-1.81672 1.1292,-3.73084 1.17285,-4.18217c0.12464,-1.28847 0.54614,8.18947 0.54614,8.18947l-0.79887,10.57022c0,0 -8.23918,0.66233 -8.22849,-0.64968z" fill="#1b1f25" stroke="none" stroke-width="0"/><path d="M245.0618,276.89045c0,-8.32934 7.37127,-15.0816 16.46418,-15.0816c2.4349,0 4.74522,-0.81347 6.82473,0.05551c0.11385,0.04757 -0.18794,0.8621 -0.59834,1.99898c-0.2842,0.78731 -0.57432,1.72919 -1.00484,2.67801c-0.51623,1.13768 -0.88315,2.85769 -1.51729,4.44613c-0.31759,0.79551 -0.74196,2.17363 -1.06283,3.39103c-0.05226,0.19826 -0.14468,0.49906 -0.25058,0.82466c-0.20461,0.62909 -0.39704,1.35079 -0.50968,1.60463c-1.56031,3.51659 0.23746,8.51337 -0.83434,9.61818c-0.11791,0.12153 0.57051,2.51574 1.42896,3.56017c0.62604,0.76166 2.12616,1.96684 2.04851,1.98163c-1.08796,0.20732 -3.3692,0.00426 -4.5243,0.00426c-9.09292,0 -16.46418,-6.75227 -16.46418,-15.08161z" fill="url(#color-1)" stroke="none" stroke-width="0"/><path d="M267.97409,293.78022c0,0 -1.61285,-1.21721 -2.90171,-2.61081c-0.83536,-0.90325 -1.4144,-1.87917 -1.92762,-2.72995c-0.14796,-0.24529 -0.97705,0.02606 -1.07081,-0.36047c-0.27281,-1.12453 -0.18732,-2.91473 0.04654,-4.79645c0.24241,-1.95067 0.59544,-3.99967 0.87638,-5.50741c0.25479,-1.36734 0.71659,-2.77738 0.71659,-2.77738l3.46177,-6.17952c0,0 -1.52795,8.21477 -1.73302,9.3435c-0.13705,0.75426 -0.1891,1.81483 -0.37581,2.69412c-0.23093,1.08753 -0.57385,2.02699 -0.4175,3.30676c0.23383,1.91413 1.88835,3.65459 2.33165,4.57934c0.93885,1.95845 1.79243,3.656 1.79243,3.656z" fill="#000000" stroke="none" stroke-width="0"/><path d="M219.87497,294.29132c0,0 -6.86105,2.42586 -7.17143,2.32697c-0.13411,-0.04273 1.24439,-1.054 2.64471,-1.77007c1.37784,-0.70456 2.77681,-1.11444 2.77681,-1.11444c0,0 0.74233,-2.29191 2.05555,-4.24342c0.32948,-0.48962 0.5523,-1.0884 0.9749,-1.47164c0.95906,-0.86974 2.78448,-2.99216 4.77307,-4.09942c0.68859,-0.3834 1.0354,0.6755 1.48978,2.35183c0.73058,2.69527 1.48512,6.62633 1.48512,6.62633c0,0 -0.31872,1.38266 -1.25379,-0.32609c-1.15766,-2.1155 -1.23137,-6.15543 -2.23334,-6.15543c-0.94794,0 -1.86789,1.86136 -2.97877,3.75779c-1.24886,2.13198 -2.5626,4.1176 -2.5626,4.1176z" fill="#000000" stroke="none" stroke-width="0"/><path d="M228.27849,293.45498c0,0 -0.86137,-1.60032 -0.68279,-2.11568c0.08767,-0.25301 1.11894,0.7076 1.27673,0.39373c0.63939,-1.27183 1.80882,-2.98079 3.07419,-4.67977c1.33507,-1.79256 3.382,-3.41886 4.31843,-4.02639c0.45914,-0.29789 1.03642,-0.28352 1.21908,0.00331c0.46383,0.72838 0.24233,2.23833 0.05921,3.87911c-0.21954,1.967 -0.53482,4.05232 -0.77212,5.27416c-0.11932,0.61434 -0.27577,1.06247 -0.27577,1.06247c0,0 -0.67903,0.24541 -0.74915,-1.05284c-0.01695,-0.31394 -0.0909,-0.66775 -0.07954,-1.0358c0.0499,-1.61743 0.35393,-3.50965 -0.07832,-3.49865c-1.02137,0.02598 -3.53413,3.50325 -5.35887,5.3558c-0.88054,0.89396 -1.95105,0.44056 -1.95105,0.44056z" fill="#000000" stroke="none" stroke-width="0"/><path d="M236.83851,292.59112c0.12741,-0.43333 0.33742,-1.21395 0.44943,-1.72697c0.18541,-0.84922 0.99332,-5.58866 0.99332,-5.58866l1.81907,2.88279c0,0 2.20909,2.14153 3.51853,3.41092c0.44735,0.43367 1.06347,1.03095 1.7244,1.67167c1.78375,1.7292 3.89392,3.77485 3.89392,3.77485c0,0 -9.31612,-2.94237 -9.83963,-3.13287c-0.77946,-0.28362 -1.81607,-0.66082 -2.14759,-0.78145c-0.20498,-0.07459 -0.47503,-0.29406 -0.41146,-0.51029z" fill="#1b1f25" stroke="none" stroke-width="0"/><path d="M196.24112,287.0682c-0.68043,-0.10026 0.05955,-2.18968 1.16595,-3.93728c0.75383,-1.19069 2.32336,-2.91773 2.9711,-2.82903c0.36326,0.04975 0.41404,0.73117 0.31036,1.50471c-0.10513,0.78436 -0.36766,1.61729 -1.0058,2.50542c-0.71221,0.9912 -1.53994,1.93901 -2.30743,2.41929c-0.4834,0.3025 -1.11816,0.33927 -1.13418,0.33691z" fill="#000000" stroke="none" stroke-width="0"/><path d="M223.12334,281.83558c0,0 -0.41724,-0.9896 -1.4595,-2.3263c-0.4745,-0.60856 -1.04578,-1.33553 -1.59182,-1.94296c-0.72122,-0.80228 -1.39844,-1.45189 -1.75066,-1.89655c-0.18653,-0.23549 -0.20741,-0.46069 -0.18924,-0.4913c0.23288,-0.39255 3.20515,-1.35876 4.90323,-2.1227c0.6426,-0.28911 1.17293,-0.48494 1.2007,-0.70369c0.0376,-0.29612 -2.52706,-5.09221 -3.49113,-6.82269c-0.24173,-0.43389 -0.04445,-0.32089 0.27877,-0.44291c1.33433,-0.50375 5.02729,-1.93061 7.81337,-3.3173c1.68021,-0.83628 3.0932,-1.60057 3.34009,-2.24889c0.02122,-0.05572 -0.71893,-0.58283 -1.56558,-1.12193c-0.81424,-0.51846 -1.89532,-1.22965 -2.84963,-1.94085c-0.87139,-0.64942 -1.54153,-1.37389 -2.16324,-1.87659c-0.62685,-0.50684 -1.24574,-0.61647 -1.14926,-0.82908c0.28763,-0.63388 2.22102,-1.56239 3.86008,-2.24404c0.61794,-0.25698 2.34722,-1.02232 2.37529,-1.25025c0.01976,-0.16044 -0.73858,-0.56692 -1.77799,-1.15749c-0.29389,-0.16699 -0.68564,-0.27964 -0.99643,-0.49005c-2.2779,-1.54218 -5.0042,-3.82096 -4.86112,-4.48858c0.16642,-0.77648 0.69661,-1.52226 1.22732,-2.26159c0.78198,-1.08936 1.66108,-2.16473 2.16331,-3.30365c2.01497,-4.56941 3.20862,-8.74758 3.20862,-8.74758c0,0 0.72842,7.62822 1.50236,8.35106c0.69565,0.64972 1.78665,-0.26217 2.90877,-0.37123c1.3301,-0.12929 2.7039,-0.07528 3.51474,-0.15229c0.41917,-0.03981 0.68788,-0.16962 0.72234,-0.26201c0.28432,-0.76227 0.19894,-1.07299 -0.03359,-1.74169c-0.27955,-0.80392 -0.77178,-1.65877 -1.08997,-2.17011c-0.179,-0.28765 -0.32751,-0.38361 0.07324,-0.50931c0.79108,-0.24813 2.52752,-0.72446 4.39704,-1.36292c1.73289,-0.5918 3.70937,-1.42775 5.83791,-2.21102c2.05808,-0.75733 4.26366,-1.46052 6.222,-2.12703c2.35942,-0.80301 4.47889,-1.2013 5.95467,-1.69235c0.64149,-0.21345 1.16135,-0.56618 1.52642,-0.77417c0.35318,-0.20121 -2.24435,-2.31077 -3.31703,-3.16169c-0.27433,-0.21762 -0.74074,-0.49464 -0.40705,-0.60557c1.18283,-0.39323 4.53966,-1.26769 6.15254,-1.77649c1.56889,-0.49493 4.58752,-1.44095 5.8852,-1.83591c0.41789,-0.12718 0.34332,0.02139 0.04759,0.27736c-0.68374,0.59181 -2.05501,1.74289 -3.63799,2.87577c-1.68698,1.20732 -3.98029,2.461 -3.99052,2.63826c-0.02591,0.44826 6.92543,0.0187 6.92384,0.65211c-0.00001,0.00478 -0.55466,0.67146 -1.99292,1.364c-1.23458,0.59447 -2.9373,1.18352 -4.85213,1.98395c-2.61442,1.09286 -5.62426,2.45005 -8.37784,3.55894c-6.51192,2.62241 -12.09419,4.09211 -12.10876,4.42883c-0.01888,0.43601 2.4928,2.31225 2.61119,2.91594c0.05396,0.27516 -1.39433,0.69711 -2.61608,1.30939c-3.48403,1.74601 -9.80081,4.50443 -10.57275,5.65362c-0.12361,0.18402 1.45682,0.42324 3.43732,0.76837c3.21937,0.56101 7.49585,1.27861 7.22844,1.5757c-0.10979,0.12201 -2.84692,0.93261 -5.8092,2.02793c-1.96099,0.72508 -4.05457,1.4688 -5.71541,2.14363c-1.79382,0.72887 -3.08279,1.3649 -3.15456,1.45857c-0.10652,0.13901 1.98741,1.2421 4.21934,2.61183c2.75197,1.68888 5.75634,3.70505 5.61816,3.8782c-0.32565,0.40807 -2.582,1.81019 -5.14593,3.19519c-3.60951,1.94979 -7.8286,4.013 -8.12871,4.50613c-0.20847,0.34256 6.37168,6.8462 6.14458,6.81743c-0.412,-0.05218 -1.82945,0.71294 -3.27389,1.22007c-1.17222,0.41156 -2.30626,0.52511 -3.38207,0.91761c-1.13702,0.41483 -2.02595,0.7221 -2.25618,0.7169c-0.17882,-0.00405 0.55988,1.25094 1.03951,2.00863c0.97063,1.53336 1.37019,2.92534 1.37019,2.92534z" fill="#2b263c" stroke="none" stroke-width="0"/><path d="M248.50505,286.79965c0.33916,-0.29482 0.70513,-0.73372 1.22817,-1.12109c1.50669,-1.1159 3.61314,-2.44894 4.95619,-3.4251c0.81234,-0.59042 1.45732,-1.09789 1.50568,-1.21203c0.21545,-0.50855 0.04314,-1.60021 -0.2475,-2.0828c-0.305,-0.50644 -0.84879,-1.26337 -1.59506,-2.00308c-0.62537,-0.61989 -1.41732,-1.20533 -2.09411,-1.8372c-1.04605,-0.97659 -2.01279,-1.88479 -2.46519,-2.46903c-0.21043,-0.27177 -0.31262,-0.62076 -0.26393,-0.71999c0.02041,-0.04158 0.21273,-0.32101 0.67251,-0.52355c0.36105,-0.15905 1.00038,-0.19872 1.55714,-0.42482c0.71329,-0.28968 1.56001,-0.63899 2.47059,-1.05972c0.9032,-0.41732 1.8692,-0.94707 2.83009,-1.41784c1.27287,-0.62363 2.53675,-1.27546 3.63374,-1.90598c1.75966,-1.01139 3.15778,-2.15432 3.36704,-2.7419c0.41945,-1.17775 0.76742,-2.33412 1.0153,-3.45336c0.09961,-0.44981 -0.14243,-1.79154 -0.07224,-2.22251c0.01657,-0.10169 -4.43983,0.01187 -4.42406,-0.07387c0.1236,-0.67185 3.17874,-2.06952 3.26394,-2.68703c0.03157,-0.2288 -0.36033,-0.26775 -0.76143,-0.37397c-0.69302,-0.18352 -0.9762,-0.41885 -0.92224,-1.10776c0.05028,-0.64199 1.58516,-0.43204 1.68019,-0.80778c0.02751,-0.10877 -1.38255,-1.63004 -3.29254,-3.21168c-1.51655,-1.25583 -3.43913,-2.49424 -4.56063,-3.48887c-0.80257,-0.71178 -1.3208,-1.42442 -1.29246,-1.48031c0.02815,-0.05553 0.59477,-0.37723 1.47434,-1.08955c0.56405,-0.45679 1.91229,-0.41633 2.67426,-1.03166c1.58306,-1.27839 3.3484,-2.90247 4.86091,-4.35349c0.82707,-0.79345 1.7424,-1.46009 2.34713,-2.06524c0.47912,-0.47944 0.70226,-0.94823 0.96178,-1.21406c0.23469,-0.24041 0.28623,-0.46679 0.53988,-0.26353c0.58153,0.46598 1.86487,1.5181 2.39276,1.91212c0.19867,0.14828 1.08032,0.5178 1.28311,0.63913c0.3223,0.19284 -0.21881,0.23089 -0.48183,0.45848c-0.42541,0.36811 -1.14931,0.99547 -2.02454,1.75776c-0.45426,0.39564 -0.94926,0.97773 -1.46445,1.42869c-1.37397,1.20265 -2.89144,2.2114 -4.16203,3.3219c-0.33202,0.29019 -0.75497,0.46855 -1.07746,0.70298c-0.48969,0.35597 -0.85478,0.74323 -1.16292,1.07394c-0.49232,0.52837 -0.8641,0.66985 -0.852,0.72619c0.04566,0.2127 0.53369,0.74412 0.91661,0.86866c1.24681,0.4055 3.9852,0.55095 6.28552,1.14765c1.55093,0.40231 2.96286,1.37439 3.458,2.15597c0.05082,0.08023 -0.35971,0.21341 -0.9755,0.58729c-1.01449,0.61594 -2.50417,1.61297 -3.48791,2.26179c-0.56969,0.37574 -1.62417,0.58482 -1.57716,0.66485c0.15039,0.2561 0.71406,0.21396 0.87129,0.47362c0.22749,0.37571 -1.01396,0.75539 -0.77566,1.1379c0.05415,0.08693 1.07391,0.58387 2.18944,0.94216c1.3921,0.44713 2.93338,0.68695 2.93338,0.68695c0,0 -0.00678,1.15597 -1.26877,3.14649c-0.60066,0.94741 -1.10544,2.14195 -2.7382,3.38265c-0.62534,0.47518 -1.44279,0.90417 -2.2523,1.42157c-2.03048,1.29778 -4.44457,2.75457 -6.83517,3.97517c-1.42589,0.72805 -2.97598,1.3237 -4.04431,1.88509c-0.87081,0.45759 -1.39405,0.91758 -1.49416,1.20171c-0.17551,0.49813 1.51809,1.5242 3.70617,2.51932c1.7594,0.80017 3.86747,1.55379 5.36044,2.19847c1.2744,0.55029 2.37954,0.65839 2.3242,0.98725c-0.06538,0.38852 -3.7579,1.14641 -3.48896,1.85396c0.04676,0.12304 0.35832,0.18275 0.65703,0.32527c0.74631,0.35606 1.92396,0.76048 1.75936,1.15121c-0.06203,0.14724 -0.54855,0.31885 -1.15451,0.7365c-0.8954,0.61713 -2.43029,1.43192 -3.70642,2.27407c-1.13165,0.74681 -2.00734,1.53116 -2.83507,1.97954c-0.32052,0.17362 -0.88411,0.20386 -1.19649,0.39212c-0.23014,0.1387 0.16863,0.44395 0.60279,0.86688c0.83778,0.8161 2.67318,2.0938 4.80901,3.46308c0.78173,0.50117 1.60372,0.78946 2.43177,1.29703c0.6085,0.373 1.22028,0.96797 1.82177,1.32743c1.99763,1.1938 3.88172,2.27323 5.15532,2.97452c0.97989,0.53955 2.07789,0.79132 2.07789,0.79132c0,0 -2.14173,-0.17374 -5.23118,-1.0975c-1.25113,-0.3741 -2.7262,-0.80845 -4.17112,-1.50142c-3.2878,-1.61376 -6.68942,-3.78613 -9.09678,-5.46337c-1.32918,-0.92605 -2.27333,-1.77622 -2.80982,-2.22304c-0.19414,-0.1617 -0.67428,-0.30628 -0.50924,-0.54659c0.07193,-0.10474 0.66466,-0.28848 0.79065,-0.39799z" fill="#2b263c" stroke="none" stroke-width="0"/></g><g stroke-linecap="butt"><g fill="none" stroke="none" stroke-width="1" font-family="sans-serif" font-weight="normal" font-size="12" text-anchor="start"/><path d="M239.45678,215.97272l19.7223,-22.18561c0,0 2.31435,-4.41603 6.55541,-5.9184c3.71411,-1.31569 17.52046,-2.6103 17.52046,-2.6103c0,0 0.87301,15.93911 0.69406,20.33733c-0.07759,1.90696 -1.74848,5.57676 -1.74848,5.57676z" fill="#d396fc" stroke="none" stroke-width="0"/><path d="M257.85552,212.51789c0,0 3.91192,-3.58762 5.55538,-5.16989c1.01599,-0.97816 3.00169,-3.07408 3.75795,-3.84742c0.21967,-0.22463 0.0858,0.10356 -0.01567,0.3899c-0.21188,0.59799 -0.54094,1.59048 -0.55267,2.01703c-0.00572,0.20794 -0.07555,1.10055 -0.04341,1.34182c0.00972,0.073 0.5113,0.1168 1.00683,0.03773c0.57374,-0.09154 1.26078,-0.63793 1.55235,-0.71292c0.57898,-0.14892 -2.12432,0.52205 -1.92455,0.45299c0.65303,-0.22579 1.71439,-0.61945 2.6976,-0.84719c0.36094,-0.08361 0.79413,-0.06757 1.07468,-0.12285c0.97715,-0.19253 3.3362,-0.50112 4.3283,-0.55954c0.39517,-0.02328 0.01921,0.22963 -0.21957,0.51451c-0.31642,0.3775 -0.78578,0.94705 -1.25777,1.55469c-0.79985,1.02973 -2.07929,4.58629 -2.5137,4.75815c-2.64519,1.04653 -13.44574,0.19299 -13.44574,0.19299z" fill="#4a5c6f" stroke="#000000" stroke-width="1"/><path d="M236.61147,220.91308l6.79427,-8.84173c0,0 3.27136,-0.46096 6.22332,-0.77779c1.66742,-0.17896 5.04616,-0.40965 8.5226,-0.85803c2.87138,-0.37034 5.68779,-0.94594 8.73688,-1.26175c0.87416,-0.09054 1.73763,-0.26529 2.58191,-0.3456c3.59298,-0.3418 6.83823,-0.50179 9.07881,-0.65973c1.94592,-0.13716 3.13406,-0.20537 3.13406,-0.20537l-1.14832,6.8769c0,0 -2.92071,0.59735 -7.07349,1.1256c-2.94016,0.37401 -6.64109,0.57973 -9.72559,1.10673c-3.66739,0.62659 -4.69569,1.46379 -8.16413,2.0337c-0.69619,0.11439 -0.99224,0.58245 -1.64838,0.68872c-0.3207,0.05195 -1.01877,-0.25444 -1.32801,-0.20479c-2.29158,0.36799 -4.25086,0.67006 -5.6233,0.85981c-3.57689,0.49455 -10.36064,0.46334 -10.36064,0.46334z" fill="#000000" stroke="none" stroke-width="0"/><g><path d="M280.04998,217.53948c0.38959,-2.26034 0.96224,-5.09287 1.2352,-7.71301c0.31295,-3.00397 0.21887,-5.72876 -0.00335,-6.99199c-0.13242,-0.75278 -0.19255,-1.71544 -0.43464,-2.75041c-0.43372,-1.85427 -1.16067,-3.94061 -1.86635,-5.46769c-2.06327,-4.46492 -49.58404,1.79326 -49.58404,1.79326c0,0 51.82018,-16.34162 55.97057,-12.20484c0.67775,0.67553 2.1244,11.07171 1.99645,12.25044c-0.20074,1.84918 -0.51842,3.61993 -0.74921,5.01993c-0.67181,4.07542 -3.28151,11.6868 -5.20271,16.37377c-0.95508,2.33003 -2.03719,4.02979 -2.03719,4.02979c0,0 0.39727,-2.72622 0.67528,-4.33925z" fill="#2b263c" stroke="#000000" stroke-width="1.5"/><path d="M282.00628,202.59885c0,0 -0.77254,-5.13007 -2.01751,-7.5346c-0.62252,-1.20234 -1.68474,-3.53332 -2.79302,-5.24374c-0.57179,-0.88245 -1.41901,-1.71266 -1.96127,-2.44803c-1.34863,-1.8289 -2.17558,-3.0711 -2.17558,-3.0711l11.9737,-0.4912c0,0 1.02794,6.15966 1.51957,9.89339c0.19567,1.48606 0.06407,2.58783 0.04948,2.76398c-0.1727,2.08518 -0.51641,4.41209 -0.51641,4.41209c0,0 -1.3849,0.56961 -2.02651,0.8904c-0.58029,0.29013 -2.05244,0.82882 -2.05244,0.82882z" fill="#1b1f25" stroke="none" stroke-width="0"/></g><g><path d="M220.38563,239.30371c-0.01387,-0.45443 0.41061,-1.31789 0.6979,-2.4814c0.38843,-1.57318 0.74398,-3.69493 1.47126,-6.09595c1.27609,-4.21285 2.88644,-9.2855 4.17371,-13.76332c0.55113,-1.91715 0.7213,-4.94579 0.80799,-6.65503c0.20478,-4.03762 -0.47844,-22.00326 -0.47844,-22.00326l35.47452,5.8208c0,0 -1.85004,2.09526 -4.59325,5.47114c-0.36336,0.44717 -3.48366,3.9358 -4.07126,4.37594c-0.38745,0.2902 1.73933,-2.48025 1.46332,-2.15692c-0.37988,0.44502 2.14853,-1.75896 1.99243,-1.25436c-0.1203,0.38893 -2.90364,3.48361 -3.23775,3.85987c-1.24734,1.40465 -2.73586,3.26781 -4.15136,4.81766c-2.35984,2.58379 -4.88243,5.32074 -7.33137,8.04868c-2.10849,2.3487 -4.35162,4.69073 -6.38888,6.92261c-1.93796,2.1231 -3.66064,4.36325 -5.5122,6.16817c-1.96738,1.91782 -4.04636,3.37593 -5.49218,4.79227c-0.48283,0.47299 -1.98716,1.20811 -2.83764,2.02863c-1.31056,1.26442 -1.9728,2.56285 -1.98678,2.1045z" fill="#2b263c" stroke="#000000" stroke-width="1.5"/><path d="M221.08512,237.22896v-1.71922c0,0 0.44134,-0.2456 0.78948,-0.2456c0.45583,0 1.71053,0.2456 1.71053,0.2456v1.22802z" fill="#000000" stroke="none" stroke-width="0"/><path d="M227.53252,216.59826c0,0 0.53476,-4.64634 0.86192,-7.03809c0.16834,-1.23082 -0.06848,-3.13494 -0.09914,-5.00174c-0.0481,-2.92917 -1.18536,-16.3765 -1.18536,-16.3765l33.97528,7.04882c0,0 -1.58986,1.51184 -3.68996,3.69162c-0.2886,0.29955 -0.50693,1.14278 -1.01411,1.50592c-0.68435,0.48999 -1.67863,0.87745 -2.04573,1.30639c-0.4024,0.47017 -0.50906,1.8847 -0.82678,2.256c-2.77463,3.24237 -8.34448,9.41475 -8.34448,9.41475c0,0 -1.01151,0.95082 -2.80348,2.08989c-0.76292,0.48496 -1.61963,0.78069 -2.51165,1.33852c-0.90846,0.56811 -1.85358,1.39894 -2.77359,1.95911c-2.87591,1.75107 -5.50655,3.25747 -6.00607,3.23187c-0.52058,-0.02668 -3.53682,-5.42654 -3.53682,-5.42654z" fill="#1b1f25" stroke="none" stroke-width="0"/></g><path d="M262.51803,200.18362c0,0 4.54969,-2.06997 6.24888,-2.90778c1.29333,-0.63769 3.59234,-1.52058 3.59234,-1.52058c0,0 1.30018,0.76157 1.96409,0.81545c0.68286,0.05542 1.90211,0.00462 1.90211,0.00462c0,0 0.09222,1.28776 -0.22798,3.08079c-0.24552,1.3749 -1.35364,3.80777 -1.35364,3.80777z" fill="#ffc6ef" stroke="none" stroke-width="0"/><path d="M255.1761,217.16204c-0.17046,-0.2694 0.13899,-0.48198 0.1976,-1.02626c0.03888,-0.36106 0.19346,-0.7765 0.25429,-1.18512c0.10271,-0.68978 0.11536,-1.36017 0.14266,-1.71692c0.03358,-0.43875 0.00493,-1.12919 0.45358,-1.19086c0.46636,-0.06411 1.16148,-0.30838 2.60318,-0.49744c1.39451,-0.18288 3.06802,-0.10348 4.60156,-0.26644c1.04168,-0.11069 2.01878,-0.43602 2.79998,-0.56856c1.0682,-0.18123 1.77014,-0.15736 1.77014,-0.15736c0,0 -0.58967,1.10788 -0.76853,1.76273c-0.22509,0.82415 -0.4755,2.79209 -0.4755,2.79209c0,0 -1.25988,0.26803 -2.63384,0.6445c-1.03,0.28221 -2.08218,0.66448 -2.94585,0.82569c-0.8075,0.15072 -2.07438,0.13878 -3.21911,0.26607c-0.36647,0.04075 -0.81612,0.0312 -1.13848,0.10589c-0.33436,0.07747 -0.53904,0.2388 -0.78411,0.25621c-0.41073,0.02917 -0.68712,0.22519 -0.85757,-0.04421z" fill="#fead41" stroke="none" stroke-width="0"/></g><g stroke-linecap="butt"><path d="M264.98119,149.42474c-0.18534,-0.07738 -1.0386,-1.05056 -1.7015,-2.16299c-3.18316,-5.34178 -1.12968,-4.01692 -1.59549,-4.49574c-0.76144,-0.78271 -1.71164,-0.23225 -2.60836,-1.25118c-2.34267,-2.6619 -3.62188,-4.22042 -5.24327,-6.7783c-0.26254,-0.41419 -0.21473,-1.26842 -0.49338,-1.72308c-0.21947,-0.3581 -0.74656,-0.65005 -0.98144,-1.03994c-0.19266,-0.31982 -0.27261,-1.30738 -0.09643,-2.05699c0.15399,-0.6552 0.00779,-1.52091 0.30535,-2.5645c0.24969,-0.87569 0.66334,-1.89121 0.77641,-2.87056c0.3116,-2.69885 0.73322,-5.49016 0.75905,-6.94969c0.00541,-0.30524 -0.5354,-1.55003 -0.78986,-2.13674c-0.24005,-0.55348 -0.76525,-0.45841 -0.78496,-0.47588c-0.34554,-0.30628 0.32433,0.7368 -0.21055,1.06471c-0.32982,0.20219 -0.9689,0.11833 -1.33044,0.17074c-1.57317,0.22805 -3.30112,0.77466 -3.91806,-0.19466c-3.35868,-5.27709 -1.86259,-17.0066 -0.76408,-18.91362c0.87348,-1.51634 3.04293,2.41947 5.35631,3.62159c0.89971,0.6296 1.65953,0.64006 1.65953,0.64006c0,0 15.1573,-7.24114 23.61773,-6.69411c8.79208,0.56846 28.17809,10.04306 28.17809,10.04306c0,0 -1.27157,0.50462 -2.25416,2.26996c-0.43502,0.78157 -1.45602,2.22925 -1.48858,2.43261c-0.03163,0.19758 0.28688,8.00081 0.24667,8.09202c-0.88723,2.01226 -2.90117,2.95915 -3.44939,4.67738c-0.32302,1.0124 -2.43755,6.08866 -5.24024,11.22542c-2.87001,5.26014 -6.28406,11.00533 -6.38048,11.48707c-0.27972,1.10733 -1.84156,10.59314 -3.11294,10.26549c-2.67105,-0.68837 -6.95434,-1.09816 -9.8237,-2.21605c-3.2688,-1.27349 -7.02528,-2.68639 -8.14943,-3.15571z" fill="#ffc6ef" stroke="#000000" stroke-width="2"/><path d="M259.24289,112.09638l-0.14286,-15.85714l44.21841,8.28549l-2.93269,4.79006c0,0 0.31454,1.14418 0.4696,2.63446c0.23446,2.25334 0.14523,5.41093 -0.34714,5.62024c-0.19362,0.08231 -0.46869,0.55067 -0.98032,1.09024c-0.60856,0.64179 -1.3497,1.44358 -2.00362,2.64205c-1.46238,2.68017 -2.76745,6.2897 -2.76745,6.2897c0,0 -3.64512,-0.70501 -5.59715,1.6944c-0.91261,1.12176 -1.49192,2.0875 -1.67488,2.86725c-0.03811,0.16241 1.0494,0.64448 1.16887,0.9947c0.18177,0.53284 -0.41961,0.94832 -0.41961,0.94832c0,0 -3.36106,3.68238 -4.54921,3.48928c-1.56829,-0.25488 -12.57128,-3.10602 -12.57128,-3.10602l-0.6027,-0.1923c0,0 -1.47313,-1.26266 -1.20669,-0.13759c0.26327,1.11168 0.49939,3.31517 0.49939,3.31517c0,0 -1.95669,0.38873 -2.15297,1.3975c-0.40053,2.05856 -0.11254,10.24623 -0.11254,10.24623c0,0 -7.2488,-8.53864 -9.23197,-9.55446c-2.38587,-1.22209 -3.80336,-10.5844 -3.80336,-10.5844z" fill="#d396fc" stroke="none" stroke-width="0"/><path d="M257.90889,122.89414c0.16407,-1.02817 1.06374,-2.17472 0.9333,-3.66981c-0.18547,-2.1258 -1.43184,-4.6643 -1.06566,-6.06305c0.42866,-1.63738 3.46635,-1.20777 3.46635,-1.20777c0,0 3.79074,-0.38717 7.68134,1.91288c2.64138,1.56153 1.18592,4.3963 6.19293,6.4819c2.62241,1.09233 6.5543,2.17665 6.5543,2.17665c0,0 -0.12034,2.01676 -1.70778,1.90641c-0.68887,-0.04789 -5.14623,-1.45065 -5.2266,-1.34735c-0.45513,0.58498 2.40012,2.60277 2.82713,3.95606c0.51753,1.64015 -1.39303,2.63915 -2.44379,3.23512c-0.98766,0.56017 -5.27066,-0.05647 -6.24348,0.401c-1.28962,0.60645 -1.71949,2.7256 -2.94199,2.8128c-1.14962,0.082 -2.14075,-0.34312 -2.99447,-0.62834c-1.33303,-0.44535 -2.33108,-0.96049 -3.07448,-1.82909c-2.33316,-2.72613 -2.15781,-6.87967 -1.9571,-8.13741z" fill="#ffc6ef" stroke="none" stroke-width="0"/><path d="M251.8547,128.16974l3.22569,0.9408l-2.37613,4.04965z" fill="#000000" stroke="none" stroke-width="0"/><path d="M246.15021,102.65523c0,0 0.8146,-0.28561 1.74317,-0.04293c0.15069,0.03938 0.42355,0.31988 0.64754,0.58022c1.33179,1.54798 3.76073,6.71902 3.76073,6.71902c0,0 0.20848,-2.07967 0.38566,-3.04024c0.16735,-0.90728 0.07816,-6.71532 0.07816,-6.71532l6.25378,20.27681l-1.36918,3.37861l0.83769,12.77915c0,0 0.39989,0.32535 0.77115,0.7361c0.54917,0.60757 1.95695,2.74316 3.84581,4.85253c1.31745,1.47126 2.71571,3.19142 4.00791,4.52784c0.42898,0.44367 1.5303,0.90667 1.91577,1.2853c1.37335,1.34901 -0.47178,1.89033 -0.47178,1.89033c0,0 -0.71749,0.05262 -2.70473,-1.00008c-1.68966,-0.89506 -4.97518,-4.62699 -4.97518,-4.62699c0,0 -3.27224,-0.3356 -4.03117,-1.14563c-0.02292,-0.02447 0.21758,-1.72119 -0.43088,-2.82492c-0.08711,-0.14827 -0.25704,-1.30395 -0.78458,-2.73203c-0.21409,-0.57954 -0.34472,-1.21815 -0.64352,-1.78534c-0.4167,-0.79101 -1.01391,-1.50221 -1.3226,-2.24403c-0.4879,-1.17254 -0.72473,-2.63116 -0.73216,-2.65511c-0.28026,-0.90314 0.81747,-3.5444 1.20995,-6.63793c0.3854,-3.03766 0.95299,-6.23108 0.65456,-7.91419c-0.09124,-0.51459 -1.07469,-2.10899 -1.54485,-2.15857c-0.26325,-0.02776 -0.91597,0.09215 -1.29083,0.37176c-0.34942,0.26063 -0.41995,0.67875 -0.70534,0.747c-1.33238,0.3186 -3.13102,0.53727 -3.47431,0.02636c-0.79546,-1.39886 -1.29048,-3.54888 -1.50615,-5.63768c-0.31122,-3.01425 -0.12464,-7.01004 -0.12464,-7.01004z" fill="#d396fc" stroke="none" stroke-width="0"/><path d="M253.07703,101.20549c0.08191,-1.84876 -0.33756,-5.32488 0.08981,-8.77823c0.504,-4.07256 0.4429,-9.51569 0.76389,-11.57644c0.07448,-0.47812 0.14073,-1.39818 0.66548,-1.39842c1.18751,-0.00052 5.72499,0.01723 7.63523,0.10424c0.334,0.01521 0.53949,0.27054 0.80451,0.29128c0.25754,0.02015 0.10893,-0.28697 0.36775,-0.26524c4.94513,0.4153 10.77501,1.17207 10.77501,1.17207c0,0 5.45417,12.4294 3.26487,15.9922c-1.95972,3.18918 -15.88919,5.05427 -15.88919,5.05427c0,0 -0.35029,3.42679 -0.62234,5.16456c-0.25853,1.65131 -0.85708,5.06828 -0.85708,5.06828c0,0 -1.05007,0.74922 -1.27365,1.26697c-0.40093,0.92843 -0.457,2.13081 -0.42726,3.01882c0.02396,0.71516 0.0086,0.74778 -0.22219,0.17008c-0.64092,-1.60438 -1.94036,-4.88909 -2.61279,-6.81287c-0.44275,-1.26668 -0.88965,-2.26315 -1.38502,-3.87846c-0.21307,-0.6948 0.16554,-1.07183 0.01312,-1.57843c-0.05836,-0.19399 0.07604,-0.71502 -0.12038,-1.10324c-0.13416,-0.26516 -0.59851,-0.39747 -0.69067,-0.60092c-0.25717,-0.56762 -0.25118,-0.76563 -0.23256,-1.18608z" fill="#4a5c6f" stroke="#000000" stroke-width="2"/><path d="M270.02225,94.88087c-1.91048,-1.79605 -7.02399,-5.42244 -8.60551,-6.88522c-0.62811,-0.58096 -0.69573,-0.4395 -0.0723,-0.60721c1.48399,-0.39924 10.49216,-1.69629 10.49216,-1.69629c0,0 -2.7798,-4.48153 -2.84929,-7.84183c-0.14986,-7.24653 2.7357,-9.31305 3.38292,-9.86262c0.25761,-0.21873 2.03357,-1.21227 4.02546,-1.73734c1.4029,-0.36983 2.87865,-0.42651 4.32479,-0.56676c2.75148,-0.26684 6.80632,0.26416 8.31019,0.40422c0.72992,0.06798 -0.13323,0.22907 -0.82131,0.69148c-2.00351,1.34642 -6.17849,3.7039 -6.13258,5.10762c0.02423,0.74096 0.61837,2.06396 0.97746,3.40537c0.26267,0.98121 0.72971,2.31243 1.39301,3.53523c0.48091,0.88656 1.58529,1.51711 2.98317,2.21254c5.90562,2.93799 18.18163,4.36567 22.21393,4.27828c0.40292,-0.00872 1.96232,-4.53435 2.11154,-4.49151c0.6703,0.19249 7.95699,15.31283 -0.36798,21.98848c-3.1422,2.51968 -7.54757,3.37498 -12.10937,3.10403c-8.87824,-0.52733 -18.01015,-4.92248 -18.01015,-4.92248c0,0 -6.61449,0.63187 -11.9757,0.81654c-3.03095,0.10439 -5.64787,0.03415 -6.6242,0.05425c-0.79521,0.01636 -2.01845,-0.19221 -1.45413,-0.74077c0,0 0.88625,-0.49541 1.86531,-0.96118c2.0032,-0.95297 5.24539,-2.43847 6.71765,-3.37001c0,0 1.41875,-0.62792 1.42792,-0.77293c0,0 -0.55888,-0.53635 -1.20299,-1.14189z" fill="#4a5c6f" stroke="#000000" stroke-width="2"/><path d="M273.69119,72.61936c1.05764,-2.50236 1.42888,-2.76599 2.49569,-3.61618c4.18003,-3.33133 10.85045,-2.53002 10.85045,-2.53002c0,0 -5.31509,3.08824 -5.83562,4.49298c-0.38828,1.04782 1.18192,7.27465 2.32174,8.48767c1.24016,1.31979 3.28421,2.26535 5.60681,3.17532c7.23636,2.83514 17.76173,3.94585 19.88687,3.6774c0.31833,-0.04022 1.19789,-0.24571 1.61436,-0.77232c0.79265,-1.00226 1.02242,-2.84694 1.02242,-2.84694c0,0 1.31418,3.42055 1.73996,5.0673c0.48699,1.88347 1.02896,6.14179 1.02896,6.14179c0,0 -8.53058,4.18558 -16.55962,1.58822c-3.75538,-1.21485 -6.97028,-2.6328 -9.33675,-4.1729c-2.32837,-1.51531 -3.72915,-3.32302 -4.9259,-4.67341c-1.93656,-2.18515 -3.87453,-4.28684 -3.87453,-4.28684c0,0 0.00402,1.91004 0.15311,2.93334c0.22346,1.53375 0.28547,4.17425 0.28547,4.17425c0,0 -11.00147,-6.12633 -6.47343,-16.83965z" fill="#696f96" stroke="none" stroke-width="0"/><path d="M271.81507,86.34792l0.69545,-0.79613c0,0 1.72141,1.06661 2.57599,2.2228c0.62082,0.83993 0.83913,1.6262 0.51363,1.79859c-0.41169,0.21803 -1.23133,-0.73861 -2.03994,-1.57398c-0.33972,-0.35096 -0.6111,-0.87962 -0.90924,-1.15785c-0.43499,-0.40598 -0.83591,-0.49342 -0.83591,-0.49342z" fill="#000000" stroke="none" stroke-width="0"/><path d="M267.3161,84.64537l0.60478,-1.42544c0,0 1.23753,0.69098 2.22573,1.19773c0.61775,0.31678 1.16262,0.50366 1.17109,0.58333c0.07956,0.74948 -3.15623,0.19934 -3.15623,0.19934z" fill="#4a5c6f" stroke="none" stroke-width="0"/><path d="M254.02308,102.78724l0.32121,-3.56681l4.5975,12.10998c0,0 -0.73779,0.50822 -0.9233,0.9109c-0.22537,0.48919 -0.3328,1.81553 -0.3328,1.81553z" fill="#4a5c6f" stroke="none" stroke-width="0"/><path d="M255.54403,111.02672l0.27345,-1.11281l1.1647,0.53287l-0.58645,1.38224z" fill="#000000" stroke="none" stroke-width="0"/><path d="M251.0768,109.07567c0,0 -0.07546,-0.45749 -0.29796,-1.00738c-0.24938,-0.61633 -0.72473,-1.38833 -0.94261,-1.92506c-0.22664,-0.55827 -0.63135,-1.45042 -0.93069,-2.21616c-0.34806,-0.89035 -0.45926,-1.16134 -0.45926,-1.16134c0,0 0.31941,0.24854 0.72854,0.78406c0.2373,0.3106 0.4614,0.69791 0.78371,1.2409c0.84667,1.42632 1.8088,3.29845 2.43504,4.88338c0.79613,2.01497 1.16273,3.47411 -0.14525,3.93555c-0.682,0.2406 -0.78144,-0.02111 -1.04359,-0.35527c-0.26498,-0.33777 -0.34935,-0.79567 -0.41345,-1.34331c-0.0512,-0.4375 -0.11957,-0.94603 -0.03562,-1.39516c0.15534,-0.83106 0.32115,-1.4402 0.32115,-1.4402z" fill="#000000" stroke="none" stroke-width="0"/><path d="M259.56841,113.39361l1.11141,-1.76103c0,0 2.844,0.01927 3.16503,0.42571c0.52715,0.66737 -4.27644,1.33532 -4.27644,1.33532z" fill="#000000" stroke="none" stroke-width="0"/><path d="M255.45216,112.07772c0,0 0.52582,-0.41994 0.83236,0.01926c0.59321,0.84994 1.22604,2.88847 1.67104,3.19396c0.60168,0.41303 1.35189,-0.56675 1.35189,-0.56675c0,0 0.93004,4.83661 0.79428,5.43408c-0.05068,0.223 -0.10465,0.55049 -0.21112,0.8212c-0.20161,0.51262 -0.43669,0.54031 -0.68946,0.71507c-0.19088,0.13196 -0.37961,0.3805 -0.64076,0.80013c-0.41524,0.6672 -0.77738,1.62886 -1.16482,2.44143c-0.40172,0.84254 -0.92726,1.91714 -0.92726,1.91714c0,0 0.14352,-1.06 0.48438,-1.99161c0.17631,-0.48187 0.32606,-1.04431 0.54228,-1.65839c0.42515,-1.2074 0.89741,-2.52979 0.86416,-3.23911c-0.01939,-0.41348 -0.28494,-0.76084 -0.42755,-1.23146c-0.28882,-0.95321 -0.8209,-1.93105 -1.20735,-2.69981c-0.38599,-0.76785 -1.27211,-3.95513 -1.27211,-3.95513z" fill="#000000" stroke="none" stroke-width="0"/><path d="M280.66141,102.08988l0.83397,-1.82741l1.28415,0.63197l-0.83397,1.39883z" fill="#000000" stroke="none" stroke-width="0"/><path d="M271.52861,135.09639c0,0 -0.16566,-0.53725 0.48985,-1.07415c1.80575,-1.47902 5.96322,-4.11931 7.30396,-4.42175c0.37987,-0.08569 2.29327,3.85495 2.29327,3.85495c0,0 1.87827,-5.81779 2.6918,-7.76058c0.58455,-1.39595 2.36398,-5.31276 2.36398,-5.31276c0,0 -8.41874,-5.01594 -9.33491,-7.24028c-1.31062,-3.18202 1.936,-9.45819 1.936,-9.45819c0,0 4.40942,4.77776 6.54107,6.36465c1.62256,1.20789 5.14355,2.33382 5.14355,2.33382c0,0 -1.99534,1.43321 -2.30802,2.49038c-0.26671,0.90173 0.99087,2.73779 0.88559,4.38541c-0.11108,1.73843 -1.00614,1.40992 -1.00614,1.40992c0,0 -2.85721,6.8124 -3.34547,9.3565c-0.39786,2.07308 -0.05801,6.76128 -0.05801,6.76128c0,0 -1.51407,0.90358 -2.46005,0.79519c-2.28516,-0.26184 -11.13646,-2.48439 -11.13646,-2.48439z" fill="#ffc6ef" stroke="none" stroke-width="0"/><path d="M291.81432,119.23924c-0.8494,-0.10757 0.94492,-0.76979 0.68664,-1.70666c-0.12098,-0.43883 -1.16258,-1.79841 -0.90436,-2.33466c0.6426,-1.33449 8.78914,-5.95868 8.78914,-5.95868c0,0 0.3248,1.6766 0.42999,2.72843c0.12829,1.28292 0.14144,4.41443 0.14144,4.41443c0,0 -1.58359,0.46793 -3.38296,1.12493c-2.15808,0.78798 -5.34084,1.78529 -5.7599,1.73222z" fill="#ffc6ef" stroke="none" stroke-width="0"/><path d="M262.62385,105.4202c0,0 0.32805,-0.08532 1.03643,-0.23422c0.89852,-0.18887 2.32777,-0.19776 3.58357,-0.17361c0.41741,0.00803 0.89521,-0.05569 1.42698,0.04927c0.5472,0.108 1.15155,0.13654 1.80601,0.35754c0.944,0.31876 1.99227,0.66754 3.12376,1.61866c0.49465,0.4158 0.30599,7.55544 0.64485,7.77367c0.55865,0.35979 1.41329,1.01421 2.45874,1.65948c1.45545,0.89833 3.29763,1.82069 4.61767,2.74172c0.49736,0.34702 1.98917,1.40412 3.69509,1.37494c0.55497,-0.00949 1.17105,-0.7089 1.66967,-0.76705c0.93681,-0.10925 1.69434,-0.30821 1.97262,-0.61126c0.40054,-0.43618 -1.40237,-3.9746 -1.0743,-4.48785c0.46497,-0.7274 2.43884,-1.45719 2.84541,-2.17114c0.10969,-0.19262 -2.72244,-0.58672 -4.24544,-1.6572c-2.18211,-1.53375 -3.33126,-3.85436 -3.33126,-3.85436c0,0 1.95859,2.25071 4.35769,3.54464c1.42325,0.76761 3.99777,0.78743 4.61312,0.69254c0.45006,-0.0694 0.2899,-1.22143 0.49789,-1.88619c0.023,-0.07352 -0.41543,0.02394 -1.02695,-0.03947c-0.83715,-0.0868 -1.99867,-0.35853 -2.74483,-0.71568c-1.51083,-0.72317 -1.88453,-2.3007 -1.88453,-2.3007c0,0 1.34574,1.34275 2.79171,1.83786c1.03043,0.35283 2.52493,0.20936 2.95791,0.15103c0.42558,-0.05733 0.4558,-2.79787 0.4558,-2.79787l1.37143,0.28571c0,0 -0.31867,0.67819 -0.09741,1.49906c0.13537,0.50223 1.39516,-1.35428 1.39516,-1.35428l2.14122,0.14466c0,0 -3.54923,2.3289 -3.95693,2.89071c-0.51198,0.70551 -0.22795,1.40238 -0.28041,1.55637c-0.02368,0.06952 0.43553,-0.13134 1.00632,-0.63751c1.43096,-1.26897 3.91551,-3.75214 3.83717,-3.53142c-0.08318,0.23436 1.81707,-0.17134 1.70234,0.11354c-0.35065,0.87062 -2.90217,3.08841 -5.72583,5.03959c-1.85672,1.28301 -4.05816,2.18585 -5.0285,3.44839c-0.45363,0.59023 0.39569,1.58784 0.57723,2.08439c0.10733,0.29355 0.84148,1.29552 0.47672,2.64897c-0.10819,0.40144 -0.78609,0.79472 -1.19107,1.23037c-0.03311,0.03561 0.80939,0.19133 2.06153,-0.18326c3.43942,-1.02895 9.96967,-3.4411 9.93403,-3.33639c-0.04675,0.13735 -1.27047,2.29311 -2.30986,2.76779c-0.27633,0.1262 -6.44925,1.71042 -9.10924,2.29991c-0.72892,0.16154 -1.19905,0.20174 -1.21951,0.21443c-0.24883,0.15445 -0.25865,0.3892 -0.39408,0.79403c-0.01946,0.05816 0.66715,0.04016 1.68889,0.09094c1.42629,0.07088 3.50565,0.14928 5.22911,-0.3626c1.33348,-0.39605 2.72816,-2.35547 3.32523,-2.9429c0.29195,-0.28724 0.19029,0.51447 0.19029,0.51447l-1.54932,2.79105c0,0 -2.08936,0.73869 -3.37232,0.91123c-0.67458,0.09072 -1.74442,0.16942 -2.81512,0.23224c-0.12654,0.00742 0.54121,0.16955 1.2577,0.27013c0.80885,0.11354 1.67982,0.16694 1.54024,0.17422c-0.58635,0.0306 -1.72027,0.2583 -2.86854,0.20063c-0.73592,-0.03696 -1.47773,-0.1973 -2.08509,-0.29226c-0.80911,-0.1265 -1.37959,-0.18861 -1.37959,-0.18861c0,0 -0.74791,2.26104 -1.03991,3.35948c-0.13057,0.49114 -0.45525,1.27828 -0.63553,2.03585c-0.25914,1.08894 -0.36207,2.11682 -0.36207,2.11682c0,0 -0.2145,-0.74166 -0.19733,-1.87867c0.01172,-0.77626 0.2026,-1.73679 0.36309,-2.7714c0.25312,-1.63177 1.24505,-3.6558 1.55503,-4.64495c0.1351,-0.4311 -0.25003,-0.57029 -0.27343,-0.5992c-0.06752,-0.0834 -1.4749,-0.08709 -1.97552,0.26968c-0.44831,0.3195 -1.63016,1.64585 -2.16028,2.15458c-0.21191,0.20336 -0.54893,0.1341 -0.74376,0.32322c-0.68196,0.66199 -1.29074,1.32307 -1.80314,1.7321c-0.50209,0.4008 -0.9143,0.55695 -0.95605,0.49094c-0.10591,-0.16746 0.32881,-0.5158 0.75682,-0.96727c0.57482,-0.60633 1.19111,-1.3451 0.97926,-1.57162c-0.09381,-0.10031 -1.24812,0.20246 -1.83463,0.01107c-0.78658,-0.25668 -2.20774,-0.97875 -3.04959,-1.34299c-1.15891,-0.50141 -1.63768,-0.62304 -1.63768,-0.62304c0,0 1.06332,-0.03821 2.33096,0.19556c1.97568,0.36433 4.44769,1.00821 4.16405,0.55345c-0.0661,-0.10599 -0.02461,-0.2362 -0.13991,-0.38842c-0.37738,-0.4982 -2.40494,-1.2467 -4.49611,-1.90619c-1.78627,-0.56333 -3.61895,-0.98963 -4.50918,-1.93314c-1.03551,-1.09749 -2.05985,-5.05113 -2.73088,-5.30518c-0.15039,-0.05694 -0.10897,0.88822 0.12509,1.80172c0.22104,0.86266 0.63552,1.6971 0.5073,1.63274c-0.67998,-0.34131 -1.11226,-0.95412 -1.53163,-1.6051c-0.58838,-0.91332 -1.08681,-1.96633 -1.64218,-3.01619c-0.07111,-0.13442 -0.92657,-0.1198 -1.4728,-0.35056c-0.37558,-0.15867 -0.49951,-0.50727 -0.54634,-0.60065c-0.1311,-0.26142 1.34584,-0.05665 2.34002,-0.16684c0.4136,-0.04584 0.74364,-0.09107 0.83959,-0.33486c0.11338,-0.28807 -0.60467,-1.03827 -1.35065,-1.44961c-0.7452,-0.41091 -1.45817,-0.33945 -1.51828,-0.61644c-0.0518,-0.2387 0.62019,-0.17496 1.7653,-0.10927c0.68729,0.03943 2.20343,0.64009 2.09541,0.3279c-0.06651,-0.19222 -0.63338,-1.23088 -1.22999,-1.76818c-0.18854,-0.1698 1.58018,-0.01612 2.30825,1.04032c0.14042,0.20376 0.3705,0.44109 0.40016,0.71617c0.25255,2.34238 -1.37428,2.61666 -1.00499,2.76992c1.6157,0.67056 2.22674,4.33824 3.96071,6.12825c0.53789,0.55527 1.6212,0.66796 2.52276,1.04053c1.99469,0.82432 4.13838,1.62246 4.86508,2.11556c0.58217,0.39503 1.32172,0.21969 1.47759,0.0517c0.07088,-0.07639 -1.40274,-1.22313 -3.35105,-2.29874c-1.73875,-0.95991 -3.8827,-1.74104 -5.21526,-3.58497c-0.46814,-0.64779 -0.35335,-2.27296 -0.4497,-3.07447c-0.11989,-0.9973 -0.38393,-1.19452 -0.37089,-2.19454c0.01389,-1.0655 -0.12289,-2.36234 -0.38558,-2.60701c-0.36601,-0.3409 -1.91667,-1.24898 -3.63094,-1.81184c-2.51286,-0.82506 -5.71059,-0.82458 -5.71059,-0.82458z" fill="#000000" stroke="none" stroke-width="0"/><path d="M269.38379,150.16008c0,0 -0.64149,-0.12822 -1.41396,-0.38806c-1.06115,-0.35695 -2.36947,-0.9156 -2.60151,-1.30663c-0.51673,-0.87079 1.17337,-2.93688 1.17337,-2.93688c0,0 4.02673,4.15854 5.63056,4.08354c0.49088,-0.02295 2.47284,0.6533 0.3168,0.6533c-2.78598,0 -3.10526,-0.10526 -3.10526,-0.10526z" fill="#d396fc" stroke="none" stroke-width="0"/><path d="M277.59431,147.58113c0,0 0.05904,1.17059 -0.28597,0.87824c-1.77782,-1.50646 -3.50351,-7.2993 -3.50351,-7.2993c0,0 8.41481,-3.15474 10.95408,-4.27585c1.41621,-0.62527 2.99329,-1.88204 2.99329,-1.88204c0,0 0.73444,0.38127 0.43437,1.21087c-0.49397,1.36567 -3.11857,6.21019 -3.11857,6.21019c0,0 -0.01572,-1.07585 0.05291,-1.98407c0.05346,-0.70747 0.22019,-1.31322 0.08243,-1.22955c-0.25836,0.15692 -0.89594,0.54571 -1.64705,1.22417c-0.15034,0.1358 -0.2547,0.33372 -0.41706,0.48813c-2.62385,2.49528 -5.54493,6.65922 -5.54493,6.65922z" fill="#d396fc" stroke="none" stroke-width="0"/><path d="M265.85041,141.41508c-0.1108,-0.85246 0.00094,-1.92039 -0.27766,-3.62898c-0.10792,-0.66185 -0.52445,-2.17291 -0.64995,-2.81777c-0.24747,-1.27162 2.60562,-1.21725 2.70063,-5.46937c0.00745,-0.33356 0.4983,-0.76566 0.79933,-0.66015c0.61301,0.21486 1.5507,1.36196 3.80183,1.02714c0.69675,-0.10363 1.78212,-0.13396 2.82642,-0.41348c1.02105,-0.27329 2.00284,-0.72324 2.54371,-0.95349c0.27024,-0.11504 0.43041,-0.13105 0.43041,-0.13105c0,0 -0.25812,0.49251 -0.79714,0.9716c-0.84002,0.74662 -2.337,1.62892 -3.8959,1.8591c-1.26179,0.18631 -2.73382,-0.07657 -2.95375,0.21168c-0.11811,0.15479 0.05898,0.07913 0.22385,0.41278c0.53937,1.0915 2.14905,2.89718 2.43227,2.8492c0.39287,-0.06656 2.18763,-0.41537 4.30793,-0.30013c0.92518,0.05029 1.91234,0.37962 2.87205,0.53979c0.88925,0.14841 2.37397,2.19543 3.24635,2.17295c0.63462,-0.01636 1.26035,-0.74019 1.84857,-1.13737c0.88477,-0.59741 1.68468,-1.05048 2.30231,-1.9884c0.10998,-0.16701 0.08246,-0.55168 -0.02597,-0.83051c-0.13135,-0.33777 -0.35391,-0.57529 -0.24002,-0.79181c0.21542,-0.40954 0.8998,0.40735 1.45391,0.82747c0.28902,0.21913 0.56801,0.12219 0.84629,0.41763c0.23334,0.24773 0.18924,0.50544 0.27484,0.96141c0.06328,0.33709 -1.11719,1.47131 -2.04292,2.59349c-0.3739,0.45324 -0.63469,0.97607 -0.8649,1.33391c-0.24486,0.38061 -0.44738,0.5823 -0.44738,0.5823c0,0 0.03587,-0.27427 0.16502,-0.6637c0.33951,-1.02372 0.97559,-2.84326 0.69402,-2.56853c-0.35314,0.34456 -1.5846,1.1518 -2.72707,2.46213c-0.04076,0.04675 -0.28658,0.25692 -0.47122,0.28546c-0.45171,0.06982 -1.12439,-0.00789 -1.80427,0.12358c-0.34132,0.066 -0.59778,0.27139 -0.87095,0.36546c-0.51887,0.17869 -0.94447,0.26291 -1.04799,0.38435c-0.32117,0.37673 -1.33742,0.65243 -1.63519,1.05722c-0.36102,0.49076 -0.65613,1.10408 -0.82563,1.77197c-0.43359,1.70848 -0.16301,3.76059 -0.69554,5.04508c-0.26635,0.64245 -1.87933,2.22828 -2.80129,2.00286c-0.32258,-0.07887 -2.27987,-0.66224 -2.67815,-1.82663c-0.25637,-0.7495 -0.51352,-1.85763 -0.60639,-2.889c-0.05927,-0.65825 -0.01698,-1.24531 0.07975,-1.85272c0.08477,-0.53227 0.22501,-1.08016 0.19202,-1.70526c-0.01939,-0.36749 -0.1317,-0.69866 -0.20704,-1.0978c-0.22309,-1.18198 -0.57946,-2.5025 -0.87222,-3.49372c-0.31068,-1.0519 -0.95975,-2.00683 -1.23045,-2.78337c-0.32199,-0.92365 -0.21314,-1.82084 -0.4876,-2.07956c-0.21382,-0.20156 -0.35113,0.07887 -0.53122,0.30883c-0.17432,0.22257 -0.46829,0.85991 -0.77437,1.37859c-0.45101,0.76429 -0.98718,1.48794 -1.14659,2.5604c-0.10748,0.72305 0.19273,1.83057 0.17309,2.56385c-0.01221,0.45585 0.06421,0.85483 0.09558,1.29259c0.07422,1.03564 0.10808,2.13542 0.12634,2.65308c0.01606,0.45514 -0.74744,-0.31515 -0.82775,-0.93306z" fill="#000000" stroke="none" stroke-width="0"/><path d="M274.75639,136.22363l5.12307,0.05889c0,0 -0.41814,0.86607 -0.98047,1.73803c-0.3075,0.47682 -0.75221,0.93778 -1.21009,1.22299c-0.33189,0.20673 -1.95548,0.26519 -2.10811,0.26519c-0.20851,0 -1.08951,-0.21719 -1.80953,-0.43316c-0.50262,-0.15076 -0.92679,-0.46998 -0.98901,-0.71945c-0.047,-0.18845 0.00739,-0.27592 0.12374,-0.48326c0.45384,-0.80869 1.85039,-1.64923 1.85039,-1.64923z" fill="#ffffff" stroke="none" stroke-width="0"/><path d="M272.16541,135.51699l-0.05903,1.75594c0,0 -1.11869,-1.11513 -1.41312,-2.16814c-0.20229,-0.72349 -0.26184,-2.19993 -0.26184,-2.19993c0,0 0.66804,1.21511 0.98752,1.67467c0.22351,0.32152 0.74648,0.93746 0.74648,0.93746z" fill="#ffffff" stroke="none" stroke-width="0"/><path d="M272.57759,137.28357v-1.17772l1.05995,0.35332z" fill="#f44254" stroke="none" stroke-width="0"/><path d="M275.06315,150.00063c0,0.81278 -0.15753,1.1796 -1.52396,1.09915c-0.09681,-0.0057 -0.36082,-0.10668 -0.60558,-0.31438c-0.26272,-0.22295 -0.51712,-0.56194 -0.93929,-0.82779c-0.58556,-0.36875 -1.51716,-0.68424 -1.65845,-0.68424c-0.83524,0 -1.97446,0.02747 -2.65003,-0.09431c-0.37619,-0.06781 -0.57725,-0.21326 -0.57725,-0.36024c0,-0.14283 0.3619,-0.14348 0.88633,-0.1332c0.9274,0.01819 2.0449,0.07636 2.8864,0.22411c0.3098,0.05439 0.51943,0.14461 0.8077,0.18358c0.87525,0.11832 1.50484,0.10825 2.1221,0.19577c0.70842,0.10045 1.25203,0.26956 1.25203,0.71155z" fill="#000000" stroke="none" stroke-width="0"/><path d="M277.2794,147.55113c0.09918,-0.29564 0.43937,-0.59957 0.6484,-0.88326c0.1497,-0.20317 0.2566,-0.39594 0.37508,-0.56786c0.29878,-0.43351 0.53805,-0.68887 0.64663,-0.68887c0.0543,0 -0.1831,0.56359 -0.30761,1.07121c-0.10325,0.42099 -0.23684,0.56491 -0.18276,1.01305c0.05401,0.44754 -0.07534,0.84014 -0.36159,1.01129c-0.23328,0.13948 -0.60129,0.1319 -0.80949,-0.11288c-0.13338,-0.15681 -0.06213,-0.6833 -0.00866,-0.84268z" fill="#000000" stroke="none" stroke-width="0"/><path d="M262.01768,141.90973c0,0.20083 -0.14245,0.36364 -0.31818,0.36364c-0.17572,0 -0.31818,-0.16281 -0.31818,-0.36364c0,-0.20083 0.14246,-0.36364 0.31818,-0.36364c0.17572,0 0.31818,0.16281 0.31818,0.36364z" fill="#000000" stroke="none" stroke-width="0"/><path d="M263.83588,144.09156c0,0.25104 -0.20351,0.45454 -0.45455,0.45454c-0.25104,0 -0.45454,-0.20351 -0.45454,-0.45454c0,-0.25104 0.20351,-0.45454 0.45454,-0.45454c0.25104,0 0.45455,0.20351 0.45455,0.45454z" fill="#000000" stroke="none" stroke-width="0"/><path d="M265.74496,145.09156c0,0.20083 -0.14246,0.36364 -0.31818,0.36364c-0.17572,0 -0.31818,-0.16281 -0.31818,-0.36364c0,-0.20083 0.14246,-0.36363 0.31818,-0.36363c0.17572,0 0.31818,0.1628 0.31818,0.36363z" fill="#000000" stroke="none" stroke-width="0"/><path d="M267.19952,146.00063c0,0.20083 -0.18315,0.36364 -0.40909,0.36364c-0.22593,0 -0.40909,-0.16281 -0.40909,-0.36364c0,-0.20083 0.18316,-0.36363 0.40909,-0.36363c0.22593,0 0.40909,0.1628 0.40909,0.36363z" fill="#000000" stroke="none" stroke-width="0"/><path d="M265.19952,146.36429c0,0.20083 -0.1628,0.36364 -0.36363,0.36364c-0.20083,0 -0.36364,-0.16281 -0.36364,-0.36364c0,-0.20083 0.16281,-0.36364 0.36364,-0.36364c0.20083,0 0.36363,0.16281 0.36363,0.36364z" fill="#000000" stroke="none" stroke-width="0"/><path d="M266.38131,147.72792c0,0.15062 -0.10175,0.27272 -0.22727,0.27272c-0.12552,0 -0.22727,-0.1221 -0.22727,-0.27272c0,-0.15062 0.10175,-0.27273 0.22727,-0.27273c0.12552,0 0.22727,0.12211 0.22727,0.27273z" fill="#000000" stroke="none" stroke-width="0"/></g><g stroke-linecap="butt"><path d="M205.05556,155.21521c0,-0.95154 11.70976,-6.85184 16.04952,-8.90556c3.09055,-1.46256 8.15165,-3.76747 12.45702,-5.40804c3.73879,-1.42467 6.90767,-2.09898 7.72123,-2.09898c8.816,0 11.20859,23.6181 11.20859,23.6181l9.37695,31.95942c0,0 -7.23103,4.7203 -16.34949,8.15321c-3.898,1.46751 -12.52711,9.43126 -14.53335,8.19351c-2.03835,-1.25755 -6.91953,-8.12074 -10.24228,-14.71875c-2.85644,-5.67204 -5.62246,-13.04175 -7.62135,-19.65549c-1.05593,-3.49377 -1.46489,-6.63229 -2.50507,-9.51317c-1.29054,-3.57428 -2.39208,-4.49904 -3.50961,-6.44927c-0.97099,-1.69451 -2.05215,-4.60463 -2.05215,-5.17498z" fill="#1b1f25" stroke="#000000" stroke-width="1.5"/><path d="M230.87535,179.43378c0,0 -1.54852,-2.21575 -2.16422,-5.12726c-0.61667,-2.91614 -1.05635,-6.69008 -1.86183,-10.23383c-0.97498,-4.28948 -2.39283,-8.2417 -4.10595,-9.92718c-3.39008,-3.3354 -16.68703,0.86956 -16.68703,0.86956c0,0 15.49981,-8.40518 22.20322,-11.24124c4.76362,-2.01538 14.62501,-4.57088 14.62501,-4.57088l11.20859,45.63498c0,0 -8.29154,-4.22217 -14.60649,-5.62549c-4.00345,-0.88965 -8.61131,0.22135 -8.61131,0.22135z" fill="#2b263c" stroke="none" stroke-width="0"/></g><g stroke-linecap="butt"><path d="M245.83983,191.63357c0,0 -0.04808,0.67166 1.57184,-6.2995c0.24145,-1.03906 0.24852,-3.90313 -1.08914,-6.53951c-0.93955,-1.85175 -2.59407,-3.58382 -3.29717,-4.77791c-0.1242,-0.21094 -4.6903,-3.17041 -4.74594,-3.34546c-0.04999,-0.15731 3.48962,2.56011 4.63361,3.13075c0.27386,0.13661 -0.19968,-0.84818 -0.19057,-0.87607c0.66894,-2.04846 3.11294,-6.44944 4.70611,-9.39004c0.71833,-1.32586 1.42304,-2.19549 1.43676,-2.69608c0.03286,-1.19818 -11.31404,-6.67901 -11.23698,-7.60713c0.56504,-6.80505 5.07868,-16.19661 5.81148,-16.39904c0.78296,-0.21629 7.59873,8.05385 10.57625,13.58113c2.63203,4.88595 4.97038,10.76709 7.18916,18.28807c2.64424,8.96319 3.43459,19.13079 3.43459,19.13079z" fill="#2b263c" stroke="#000000" stroke-width="1.5"/><path d="M246.83133,183.55647c0.14703,-0.46838 -0.56641,-5.08898 -2.78141,-8.18713c-0.51609,-0.72186 -1.98474,-1.60741 -2.58585,-2.18721c-2.19956,-2.1216 -3.83527,-2.71229 -3.7426,-3.01085c1.24093,-3.99814 3.26441,-10.93844 3.26441,-10.93844l-9.26653,-4.35105l8.32048,-15.24823l2.6,-0.4l-1.28156,11.33209l12.77382,8.71235l-7.71947,13.82591c0,0 2.22637,2.93299 3.50942,6.06005c0.99545,2.42614 1.54226,5.20588 1.63791,7.15035c0.13538,2.75229 -1.13039,7.32155 -1.13039,7.32155c0,0 -5.72256,-3.31205 -3.59821,-10.0794z" fill="#1b1f25" stroke="none" stroke-width="0"/><path d="M245.83983,191.63357c0,0 -0.04808,0.67166 1.57184,-6.29949c0.24145,-1.03905 0.24852,-3.90313 -1.08913,-6.53952c-0.94125,-1.85511 -2.60005,-3.59008 -3.30097,-4.78438c-0.05569,-0.09489 -4.525,-2.97502 -4.67198,-3.26449c-0.09984,-0.19664 2.78616,-3.95539 4.31558,-6.19464c0.47442,-0.6946 1.13736,-2.0938 1.1321,-2.10695c-0.01136,-0.02839 -0.34951,1.0496 -1.12033,2.14309c-1.65027,2.34112 -4.4403,5.80757 -4.31902,6.05639c0.38131,0.7823 3.39264,2.51691 4.2038,2.98986c0.49471,0.28844 0.15756,-0.69782 0.16075,-0.70757c0.66894,-2.04846 3.11294,-6.44944 4.70611,-9.39004c0.71833,-1.32586 1.42303,-2.19549 1.43676,-2.69607c0.01875,-0.68381 -3.55127,-3.11551 -6.70661,-4.94675c-2.3735,-1.37749 -4.56346,-2.26194 -4.53037,-2.66038c0.56504,-6.80505 5.07868,-16.19662 5.81148,-16.39904c0.78296,-0.21629 7.59873,8.05385 10.57625,13.58113c2.63203,4.88594 4.97038,10.76709 7.18916,18.28807c2.64424,8.96319 3.4346,19.1308 3.4346,19.1308z" fill="none" stroke="#000000" stroke-width="1.5"/></g><path d="M278.00552,195.19119l1.8,-14.5l26.3,-7.7l-10.8,32.1z" fill="#1b1f25" stroke="#000000" stroke-width="1.5" stroke-linecap="butt"/><g stroke-linecap="butt"><path d="M299.60553,178.34119c0,1.43607 -0.90039,3.408 -2.55417,4.05736c-1.50298,0.59014 -3.73265,-0.13837 -4.47791,0.97109c-1.38968,2.06881 -1.09229,3.89534 -2.20052,5.85958c-1.42855,2.53198 -4.33259,4.96197 -7.1674,4.96197c-7.51107,0 -10,-5.23811 -10,-13.55c0,-1.18306 3.50715,-1.98083 7.5126,-7.46516c4.27191,-5.84917 -1.25459,-9.68484 5.1874,-9.68484c7.51107,0 13.7,6.53811 13.7,14.85z" fill="#d396fc" stroke="#000000" stroke-width="1.5"/><path d="M282.00552,174.89119c0,0 -0.08881,-1.47274 0.18238,-2.09486c0.12854,-0.29488 0.96512,-0.94558 1.52796,-1.58417c0.30287,-0.34363 0.28153,-1.63027 0.30299,-3.01116c0.00836,-0.53805 -1.20582,-1.15126 -1.23208,-1.61997c-0.08189,-1.46119 1.31876,-3.08984 1.31876,-3.08984l7.3,0.9c0,0 7.83647,5.17653 6.21918,6.91781c-0.6869,0.73956 -11.52114,-1.27155 -11.64916,-1.09473c-0.76186,1.05238 -1.9293,2.61852 -2.5432,3.20881c-0.61888,0.59508 -1.42683,1.4681 -1.42683,1.4681z" fill="#000000" stroke="none" stroke-width="0"/><path d="M288.60553,180.39119l-0.2,-4.2c0,0 1.11026,-1.40169 2.09536,-2.84014c0.11846,-0.17297 -2.66784,-0.15532 -2.55885,-0.33808c0.41115,-0.68948 0.25521,-2.28507 0.53428,-2.50698c1.53124,-1.21761 8.2292,-0.91479 8.2292,-0.91479l-3.4,8.2z" fill="#ffc6ef" stroke="none" stroke-width="0"/><path d="M283.60301,176.29705c-0.03199,-0.55976 0.06194,-1.28498 0.87311,-2.04449c0.48727,-0.45624 1.44814,-0.98217 1.8539,-1.63311c0.93369,-1.4979 1.07552,-3.22826 1.07552,-3.22826l7.3,-1.5l-2.1,2.2c0,0 -1.92395,1.60598 -3.77462,2.96161c-1.69382,1.24073 -3.2938,2.20682 -3.97538,2.88839c-0.46403,0.46403 -0.15262,1.57341 -0.30716,2.13425c-0.09884,0.35871 -0.89836,-0.95575 -0.94537,-1.77839z" fill="#000000" stroke="none" stroke-width="0"/><path d="M286.30554,179.29119c0,0 2.03826,-3.30955 2.89454,-4.76217c0.99071,-1.68068 2.70546,-4.73783 2.70546,-4.73783c0,0 2.03146,-5.35346 2.10628,-4.81476c0.08928,0.64281 -1.60628,8.41476 -1.60628,8.41476c0,0 -2.84711,3.78327 -3.84582,4.74924c-1.03343,0.99955 -2.25418,1.15076 -2.25418,1.15076z" fill="#000000" stroke="none" stroke-width="0"/></g><g stroke-linecap="butt"><path d="M231.34955,210.39642c-1.71798,-0.31283 -5.99942,-5.92828 -6.38045,-8.24911c-0.5019,-3.05707 3.50545,-8.00089 3.50545,-8.00089c0,0 2.08198,-4.2372 4.92884,-7.43829c2.06709,-2.32429 4.77383,-3.80683 6.23322,-4.15747c0.77103,-0.18525 2.59081,0.49083 4.77222,0.91808c3.54704,0.69473 8.05018,1.09807 10.55523,0.91163c3.57266,-0.26589 6.89277,-0.77969 10.12777,-1.75949c2.43246,-0.73673 5.3168,-1.82924 7.7242,-2.19511c0.27618,-0.04197 8.98757,0.69883 10.27195,9.57679c0.34679,2.39711 -0.38872,5.93801 -2.97512,7.86926c-1.85469,1.38488 -4.86213,3.0442 -8.71019,3.99056c-5.82853,1.43342 -12.62502,1.77733 -16.82559,2.02015c-2.43202,0.14058 -3.99386,0.41349 -3.99386,0.41349c0,0 -1.85077,1.18036 -3.50959,1.94134c-2.04716,0.93913 -4.62312,1.87605 -4.79814,1.93354c-5.29523,1.73927 -8.83655,2.60598 -10.92593,2.22553z" fill="#1b1f25" stroke="#000000" stroke-width="1.5"/><path d="M229.22455,194.02142c0,0 3.35384,-9.12528 10.43712,-10.97964c0.86918,-0.22754 14.09744,2.34355 15.29845,2.13636c2.02601,-0.3495 7.53285,-0.65309 12.43177,-2.43811c1.82155,-0.66372 4.69762,-1.96326 5.49288,-1.7534c2.63889,0.69637 6.25059,1.9051 7.98069,4.69666c1.16953,1.88707 1.59332,4.0754 1.49679,5.83625c-0.14441,2.63402 -1.2627,4.50188 -1.2627,4.50188c0,0 -0.44858,-4.8896 -0.75126,-6.68662c-0.20443,-1.21368 -0.88875,-3.05007 -0.88875,-3.05007c0,0 -21.27838,6.05545 -30.44877,7.4713c-0.13824,0.02134 -7.23843,-4.56392 -10.90815,-4.49084c-4.02348,0.08013 -8.87807,4.75623 -8.87807,4.75623z" fill="#2b263c" stroke="none" stroke-width="0"/><path d="M230.44122,208.89642c0,0 -5.11501,-6.59178 -6.10869,-8.05718c-0.36859,-0.54358 -0.62464,-1.18448 -0.62464,-1.18448l3.06667,-6.825c0,0 1.82834,-3.90234 2.69899,-2.75957c0.11446,0.15024 -0.82662,1.66131 -1.03765,2.36844c-0.10717,0.3591 -0.36244,0.86718 -0.38972,1.36034c-0.04492,0.81184 0.186,1.58328 0.186,1.58328c0,0 1.07942,-1.67648 1.15651,-1.47141c1.15361,3.06859 2.83587,14.61058 2.83587,14.61058z" fill="#1b1f25" stroke="none" stroke-width="0"/><path d="M227.80554,191.99119c0,0 -0.27987,-4.26534 3.32375,-7.67565c1.25499,-1.18767 3.55901,-2.33062 5.47747,-3.05703c1.76202,-0.66717 3.19878,-0.96732 3.19878,-0.96732c0,0 -5.35399,2.84197 -7.73394,5.64821c-1.6536,1.94979 -2.86606,6.05178 -2.86606,6.05178z" fill="#000000" stroke="none" stroke-width="0"/></g><g stroke-linecap="butt"><path d="M289.21248,194.93524c1.15481,-4.59827 3.75529,-6.53273 4.42279,-9.35105c1.36781,-5.77518 3.00361,-14.45967 3.00361,-14.45967l19.83333,2.83333c0,0 0.24718,1.74822 0.04977,4.99289c-0.17542,2.88317 -0.8071,7.19339 -0.6788,8.78362c0.08288,1.02729 2.32486,2.39438 2.38877,3.41562c0.06113,0.97686 -1.92242,0.89856 -1.8378,1.86243c0.46554,5.30276 2.96254,11.24047 2.66304,11.8017c-0.44067,0.82578 -1.41236,1.45181 -2.45515,2.29027c-3.51008,2.82232 -9.46329,5.92259 -13.48398,7.29239c-1.6401,0.55876 -3.09758,0.72763 -3.71946,0.75639c-4.11976,0.19057 -9.62268,-13.77059 -10.18167,-18.66616c-0.05443,-0.47668 -0.05837,-1.33711 -0.00446,-1.55176z" fill="#1b1f25" stroke="#000000" stroke-width="1.5"/><path d="M306.91665,203.4023c0,0 1.12631,-2.54331 1.31128,-4.17859c0.35414,-3.13072 0.65931,-13.24227 0.65931,-13.24227c0,0 2.69246,-2.56288 3.84432,-3.97697c1.11607,-1.37016 3.18509,-4.37995 3.18509,-4.37995c0,0 -0.77713,8.71888 -1.0509,9.49181c-0.34374,0.97048 2.66371,3.02709 2.38501,4.15385c-0.13569,0.54857 -1.5813,0.34312 -1.66445,0.93873c-0.17265,1.23676 0.45088,2.54376 0.8869,4.35312c0.82457,3.42173 1.8373,7.49504 1.56062,8.2417c-0.07878,0.21259 -1.35409,1.48199 -3.05621,2.61978c-2.32244,1.55244 -5.24798,3.05135 -5.24798,3.05135c0,0 2.56383,-4.36936 3.18426,-5.61592c0.31915,-0.64124 0.61388,-1.34553 0.61388,-1.34553z" fill="#2b263c" stroke="none" stroke-width="0"/><path d="M317.11109,204.34674c0,0 -0.645,-1.90747 -1.52837,-4.4132c-0.12219,-0.34661 -0.44698,-0.92723 -0.8064,-1.25188c-0.59696,-0.53922 -1.28943,-0.76315 -1.30783,-0.90768c-0.1797,-1.41196 0.13763,-4.69221 0.4356,-6.85427c0.40686,-2.95222 2.09589,-15.23963 2.09589,-15.23963c0,0 0.57406,6.47161 0.74401,6.72613c0.2782,0.41662 -0.45518,5.8701 -0.45518,5.8701c0,0 -0.1462,1.73918 -0.2647,3.50906c-0.00519,0.07755 0.47068,-0.3685 1.06026,-0.87358c0.34265,-0.29354 -2.15,-1.47606 -1.31159,-1.89347c0.61662,-0.30699 2.72291,1.58043 2.72081,1.61183c-0.02503,0.37381 -2.54792,2.77127 -2.56675,3.05247c-0.09387,1.40211 -0.42687,3.66412 -0.42687,3.66412c0,0 1.08354,1.31936 1.19991,1.86541c0.25105,1.17801 0.4112,5.13459 0.4112,5.13459z" fill="#000000" stroke="none" stroke-width="0"/></g><g><g><path d="M298.19457,159.52245c0,7.55626 -3.79991,11.96948 -11.27273,12.31819c-5.84458,0.27273 -12.36363,-6.03465 -12.36363,-13.59091c0,-7.55626 4.88268,-13.04546 12.36363,-13.04546c1.16988,0 2.24955,0.34718 3.2386,0.65509c5.33555,1.66103 8.03413,7.28849 8.03413,13.66309z" fill="#485e84" stroke="#000000" stroke-width="2" stroke-linecap="butt"/><path d="M277.10366,164.65881c0,0 2.87433,0.22098 3.47537,-0.5824c5.76542,-7.70638 6.28607,-14.7206 6.28123,-17.05365c-0.0011,-0.53007 -0.48387,-0.8185 -0.48387,-0.8185c0,0 1.05281,-0.11118 2.39315,0.186c1.42623,0.31622 3.17802,1.07077 4.33334,2.08785c1.31969,1.16179 3.63715,4.63524 3.63715,4.63524l1.63636,10.36364c0,0 -4.33521,5.1572 -5.27727,5.69636c-0.9229,0.52819 -2.16648,0.88849 -3.47329,1.32481c-2.02899,0.67745 -4.30133,0.60361 -5.67165,0.15318c-1.74884,-0.57485 -3.61478,-1.98003 -4.91969,-3.37647c-1.21447,-1.29964 -1.93082,-2.61606 -1.93082,-2.61606z" fill="#343545" stroke="none" stroke-width="0" stroke-linecap="butt"/><path d="M289.28548,163.47699c0,0 -4.42058,0.9361 -6.75037,-0.17719c-2.94927,-1.40932 -7.79508,-5.7319 -7.79508,-5.7319" fill="none" stroke="#000000" stroke-width="1" stroke-linecap="round"/><path d="M283.46729,146.02245c0,0 3.50077,0.75501 5.43583,1.69787c1.95354,0.95186 5.29145,4.48395 5.29145,4.48395" fill="none" stroke="#000000" stroke-width="1" stroke-linecap="round"/><path d="M290.83094,168.74972c0,0 -4.52332,1.02869 -6.99193,-0.29209c-3.78799,-2.0267 -8.2808,-5.70791 -8.2808,-5.70791" fill="none" stroke="#000000" stroke-width="1" stroke-linecap="round"/><path d="M283.46729,170.84063c0,0 -5.28487,-6.86952 -2.71956,-15.20976c2.80998,-9.13571 11.44684,-8.97206 11.44684,-8.97206" fill="none" stroke="#000000" stroke-width="1" stroke-linecap="round"/><path d="M288.19458,171.477c0,0 -4.19968,-7.86412 -1.95182,-15.22859c1.84569,-6.04691 9.13363,-6.5896 9.13363,-6.5896" fill="none" stroke="#000000" stroke-width="1" stroke-linecap="round"/><path d="M278.7034,151.74687c-0.31511,0.51352 -0.90013,0.72757 -1.30666,0.47811c-0.40654,-0.24946 -0.20792,-0.59525 0.10719,-1.10877c0.31511,-0.51352 0.6274,-1.0003 1.03393,-0.75083c0.40654,0.24946 0.48065,0.86798 0.16554,1.3815z" fill="#8fbbbe" stroke="none" stroke-width="0" stroke-linecap="butt"/><path d="M281.01275,148.93154c0,0.30124 -0.36631,0.54545 -0.81818,0.54545c-0.45187,0 -0.63637,-0.06239 -0.63637,-0.36364c0,-0.30124 0.36631,-0.63636 0.81818,-0.63636c0.45187,0 0.63636,0.1533 0.63636,0.45455z" fill="#8fbbbe" stroke="none" stroke-width="0" stroke-linecap="butt"/><path d="M276.91874,154.71692c-0.04814,0.4493 -0.32998,0.78751 -0.62951,0.75541c-0.29953,-0.03209 -0.2306,-0.42234 -0.18246,-0.87163c0.04814,-0.4493 0.05725,-0.78751 0.35679,-0.75541c0.29953,0.03209 0.50333,0.42234 0.45519,0.87163z" fill="#8fbbbe" stroke="none" stroke-width="0" stroke-linecap="butt"/><path d="M278.28548,166.5679c0,0 -1.66308,-4.84684 -1.48044,-8.63761c0.10355,-2.14917 0.93673,-4.0076 1.58419,-5.40948c0.57258,-1.23976 3.01408,-3.44923 5.05882,-4.94593c1.50543,-1.10194 2.83743,-1.73425 2.83743,-1.73425" fill="none" stroke="#000000" stroke-width="0.5" stroke-linecap="round"/><path d="M277.10366,149.47699c0,0 5.29122,0.20358 7.77103,1.28951c2.08931,0.91493 6.13806,4.61959 6.13806,4.61959" fill="none" stroke="#000000" stroke-width="1" stroke-linecap="round"/><path d="M290.19457,158.20426c0,0 -4.83507,-0.24011 -6.99591,-0.9188c-3.79402,-1.19165 -7.54954,-4.80847 -7.54954,-4.80847" fill="none" stroke="#000000" stroke-width="1" stroke-linecap="round"/></g><g stroke-linecap="butt"><path d="M290.88576,174.52562c0.39707,-1.77612 0.68235,-3.20228 0.70767,-3.33587c0.05303,-0.27982 -0.89952,-3.06851 -1.59692,-6.11369c-0.75961,-3.31682 -1.12692,-6.76843 -1.06835,-7.07505c0.27476,-1.43841 2.39034,-3.07834 3.88563,-4.52698c2.23425,-2.16455 4.42586,-4.47344 5.22625,-4.47344c1.01895,0 2.06819,2.16699 3.36658,2.70825c1.06423,0.44364 4.76672,0.30562 5.92899,0.97709c0.85071,0.49148 1.40356,1.46894 2.2221,2.05923c0.85134,0.61393 2.5425,0.12545 3.3493,0.80328c0.83238,0.69932 1.61775,1.59051 2.35044,2.36226c0.95931,1.01044 4.25689,1.19683 5.02289,2.21909c2.68302,3.58062 1.67366,7.75755 1.28283,8.48138c-2.19743,4.06984 -5.15507,7.15087 -6.63963,8.80111c-1.03671,1.1524 -3.08592,1.74187 -4.74185,1.07948c-1.3736,-0.54946 -2.20006,-1.79908 -3.30906,-2.3065c-1.08143,-0.4948 -2.23296,0.22809 -2.23296,0.22809c0,0 1.70075,2.02186 1.57341,4.14c-0.11122,1.85009 -1.31665,3.87524 -3.30181,3.36405c-1.8386,-0.47346 -3.85816,-4.23216 -5.41203,-4.69343c-1.95992,-0.58182 -4.60545,0.66003 -5.77625,0.01636c-1.382,-0.75978 -0.98428,-4.05676 -0.8372,-4.71469z" fill="#d396fc" stroke="#000000" stroke-width="1.5"/><path d="M291.37639,166.11336c0,0 -2.0598,-7.2324 -1.57932,-8.40443c0.52853,-1.28922 3.39615,-3.64103 4.91183,-4.96905c0.56357,-0.4938 0.94022,-0.89925 0.94022,-0.89925c0,0 0.83749,0.84483 1.44101,1.96534c0.57794,1.07302 0.92625,2.41393 0.78697,2.83996c-0.28113,0.85993 -2.93691,1.52148 -4.0978,3.14452c-0.2883,0.40307 0.22279,4.94757 -0.04928,5.36075c-0.64085,0.97323 -1.31388,1.02925 -1.80535,1.03761c-0.43674,0.00743 -0.54828,-0.07545 -0.54828,-0.07545z" fill="#ffc6ef" stroke="none" stroke-width="0"/><path d="M301.10366,169.65881c0,0 2.19159,-6.99988 2.50552,-9.1478c0.17334,-1.186 -0.59643,-3.03402 -0.59643,-3.03402c0,0 2.98625,-1.31189 3.39154,0.37874c0.34415,1.43557 0.4323,7.85042 -1.1321,10.65403c-1.10253,1.97588 -4.16853,1.14905 -4.16853,1.14905z" fill="#ffc6ef" stroke="none" stroke-width="0"/><path d="M306.74003,172.65881c0,0 2.31175,-6.72321 2.63889,-9.12767c0.26634,-1.95755 -0.82071,-4.23596 -0.82071,-4.23596c0,0 2.55495,-0.4678 3.62061,0.4614c0.78651,0.6858 1.67545,2.00051 1.7148,3.44101c0.03409,1.24814 -0.77366,2.29534 -1.18935,3.65984c-0.65864,2.16199 -1.24782,4.4804 -2.1078,5.57832c-0.46626,0.59527 -3.85643,0.22306 -3.85643,0.22306z" fill="#ffc6ef" stroke="none" stroke-width="0"/><path d="M295.28548,168.29518c0,0 2.77463,-8.29109 3.28356,-10.85216c0.27183,-1.36793 -0.46537,-3.32966 -0.46537,-3.32966c0,0 3.86048,1.05006 3.96233,1.65791c0.15503,0.92521 0.21455,2.43033 0.09422,4.08668c-0.28275,3.89204 -1.14747,8.61905 -1.14747,8.61905c0,0 -3.41205,0.30437 -4.35791,0.27435c-0.96292,-0.03057 -1.36936,-0.45617 -1.36936,-0.45617z" fill="#ffc6ef" stroke="none" stroke-width="0"/><path d="M291.84003,172.48154c0,0 -2.48918,-12.72293 -2.47085,-13.63923c0.00646,-0.32332 0.67258,2.72207 1.41373,5.32374c0.48442,1.70045 1.15712,3.31549 1.15712,3.31549c0,0 0.36659,2.49246 1.02372,3.12762c0.21446,0.20729 0.45019,0.12584 0.69821,-0.21371c0.54228,-0.74241 1.12418,-4.25763 1.66152,-6.72839c0.19438,-0.89379 0.46194,-1.59141 0.60827,-1.86912c0.18479,-0.3507 -0.88736,0.10751 -0.88736,0.10751c0,0 0.6511,-2.06028 1.1222,-2.8227c0.33936,-0.54921 1.2972,-0.87855 1.58609,-1.32485c0.3464,-0.53517 -0.02317,-2.25821 0.13365,-3.27235c0.0969,-0.62665 0.55016,-0.68843 0.66823,-0.55087c0.156,0.18176 1.1034,2.39286 0.85512,3.50926c-0.77562,3.48759 -3.5176,9.34695 -3.74149,12.41135c-0.13093,1.79213 1.42057,3.47704 1.69525,3.59365c0.71073,0.30174 1.70258,0.39662 2.39206,0.16603c0.05016,-0.01677 -0.78051,-1.22516 -0.54596,-2.52427c0.23266,-1.28865 0.48946,-3.09437 1.17119,-4.9758c0.7701,-2.12531 1.98203,-4.34723 2.43793,-6.02954c0.08528,-0.31468 -0.12061,-2.95687 -0.07143,-2.95869c0.27018,-0.00994 2.03825,2.93649 1.54399,4.03686c-0.45596,1.01509 -0.81464,2.6352 -1.38959,4.30337c-0.58056,1.68445 -1.08964,3.48108 -1.47852,4.71826c-0.31786,1.01123 -0.1631,2.12391 -0.15617,2.13767c0.27342,0.54309 0.79874,1.11907 1.32509,1.76288c0.45535,0.55696 0.91146,1.0286 1.20591,1.20213c0.8014,0.47228 1.65059,-0.11818 1.65059,-0.11818c0,0 -0.77316,-1.08127 -0.57301,-2.27591c0.15829,-0.94484 1.01241,-3.12147 1.91519,-5.39669c0.18107,-0.45634 0.39733,-1.00384 0.62108,-1.45719c0.56162,-1.13792 1.17038,-2.1646 1.38809,-3.20695c0.24007,-1.14937 -0.44856,-2.52343 -0.65619,-3.38741c-0.1232,-0.51264 -0.14618,-0.84571 -0.14618,-0.84571c0,0 1.01952,0.85197 1.53433,1.98859c0.45682,1.0086 0.69232,2.26066 0.64031,3.05097c-0.15632,2.37575 -3.01727,6.73084 -2.87436,9.85181c0.06189,1.35151 2.7059,4.69943 2.7059,4.69943c0,0 -3.82234,-2.06709 -4.42793,-1.77479c-0.51655,0.24932 0.47339,5.42024 0.47339,5.42024c0,0 -0.86475,-1.55666 -1.52418,-2.84527c-0.4466,-0.87273 -0.7006,-1.62251 -0.90619,-1.68252c-0.46105,-0.13459 -0.95692,-0.30378 -1.17262,-0.45985c-0.55336,-0.40038 -1.38738,-1.69636 -1.38738,-1.69636c0,0 -1.4241,0.15152 -2.7794,0.0293c-0.94334,-0.08507 -1.85336,-0.39649 -2.22663,-0.5914c-0.98084,-0.51215 -1.31148,-2.11603 -1.31148,-2.11603c0,0 -0.97096,0.09344 -1.45527,0.09471c-0.48275,0.00126 -1.44593,-0.08713 -1.44593,-0.08713z" fill="#000000" stroke="none" stroke-width="0"/><path d="M296.01275,151.38609c0,0 1.4099,-1.72728 2,-1.72728c0.55982,0 2.45454,2.54546 2.45454,2.54546c0,0 -1.88829,-0.09751 -2.64438,-0.27078c-0.69293,-0.15879 -1.81016,-0.5474 -1.81016,-0.5474z" fill="#ffc6ef" stroke="none" stroke-width="0"/><path d="M300.55821,152.38609c0,0 3.34306,0.52073 4.51753,0.67173c0.75079,0.09653 2.11884,0.32827 2.11884,0.32827c0,0 -1.99043,1.0689 -2.93104,1.44514c-0.66539,0.26615 -2.91114,-0.08656 -3.75784,-0.64219c-0.73811,-0.48436 0.05251,-1.80295 0.05251,-1.80295z" fill="#ffc6ef" stroke="none" stroke-width="0"/><path d="M307.92184,157.84063c0,-0.33177 0.21542,-1.00481 0.33411,-1.48435c0.10809,-0.43672 0.30226,-1.33383 0.30226,-1.33383c0,0 0.34187,0.47849 0.81651,0.55576c0.72175,0.11749 2.91077,0.44424 2.91077,0.44424c0,0 0.23462,1.37767 -0.95015,1.87846c-0.97687,0.41291 -3.41348,0.17866 -3.41348,-0.06027z" fill="#ffc6ef" stroke="none" stroke-width="0"/><path d="M313.67347,160.48564c0.04841,-0.64537 0.52111,-2.46319 0.52111,-2.46319c0,0 0.47528,0.57662 1.12169,0.83079c0.56177,0.2209 1.18412,0.4729 1.54809,0.64327c0.5793,0.27116 1.78476,0.52594 1.78476,0.52594c0,0 -1.75084,1.28146 -3.01849,1.36919c-1.07666,0.07451 -1.97618,-0.65242 -1.95716,-0.906z" fill="#ffc6ef" stroke="none" stroke-width="0"/></g><g stroke="#000000" stroke-width="1.5" stroke-linecap="butt"><path d="M314.30235,168.9594c0.45421,-1.75702 2.29814,-2.37191 2.45851,-3.04456c0.17028,-0.71425 0.41093,-1.59583 0.52461,-1.61966c0.10807,-0.02266 -0.20813,1.54546 0.36364,1.54546c0.56297,0 2.18832,0.4351 3.6649,1.20978c2.49115,1.30696 5.88055,3.15385 5.88055,3.15385c0,0 -0.53278,1.22609 -1.00234,3.67452c-0.29631,1.54504 -2.45221,3.96185 -2.45221,3.96185c0,0 -7.76648,-1.22471 -8.82111,-2.08733c-1.58958,-1.30019 -0.91451,-5.64135 -0.61656,-6.7939z" fill="#485e84"/><path d="M324.2815,177.3848c-0.09267,0.28487 -0.40123,0.37522 -0.68911,0.06088c-0.70297,-0.76757 -1.79059,-2.38672 -0.94975,-4.43947c0.61004,-1.48928 1.99912,-2.14145 2.94753,-2.42051c0.56113,-0.16511 0.88653,0.05088 0.75408,0.45807c0,0 -1.79906,5.53041 -2.06275,6.34103z" fill="#343545"/></g></g></g></g></svg>