<svg version="1.1" xmlns="http://www.w3.org/2000/svg" xmlns:xlink="http://www.w3.org/1999/xlink" width="260.47394" height="327.45339" viewBox="0,0,260.47394,327.45339"><g transform="translate(-215.4264,-33.36249)"><g data-paper-data="{&quot;isPaintingLayer&quot;:true}" fill-rule="nonzero" stroke-linejoin="miter" stroke-miterlimit="10" stroke-dasharray="" stroke-dashoffset="0" style="mix-blend-mode: normal"><g stroke="#000000" stroke-linecap="butt"><path d="M347.17244,354.06232l-57.93711,-75.65985l23.4153,-17.93045l57.93712,75.65985z" fill="#73fffc" stroke-width="2"/><path d="M346.53812,353.76975l-55.96657,-75.26795c0,0 45.54153,50.91482 52.20084,57.67522c1.47217,1.49451 3.69876,0.68154 3.69876,0.68154l22.76097,-0.88063z" fill="#59a9e6" stroke-width="0"/></g><g stroke="#000000" stroke-linecap="butt"><path d="M251.67518,326.58483l36.09093,-88.19618l27.29506,11.16947l-36.09093,88.19619z" fill="#73fffc" stroke-width="2"/><path d="M251.60773,325.88955l36.74682,-86.29712c0,0 -20.98077,65.00891 -23.4576,74.1694c-0.54755,2.0251 1.27778,3.53731 1.27778,3.53731l12.24444,19.20705z" fill="#59a9e6" stroke-width="0"/></g><path d="M216.4264,334.22647c1.51965,-11.56337 14.88253,-8.00599 32.64094,-5.67219c14.20846,1.86726 28.82161,-7.08287 32.55995,-1.02767c0.93402,1.51288 -0.58823,12.83977 -0.89202,15.15131c-1.51965,11.56337 -17.1476,19.04542 -34.90601,16.71162c-17.75841,-2.3338 -30.92252,-13.59968 -29.40287,-25.16305z" data-paper-data="{&quot;index&quot;:null}" fill="#000082" stroke="#000000" stroke-width="2" stroke-linecap="butt"/><path d="M250.2394,329.2831c14.20846,1.86726 26.31227,-5.37381 30.38061,-1.82963c1.01647,0.88551 -0.48444,12.05007 -0.64875,13.30039c-0.82198,6.25463 -13.35742,7.59014 -31.11583,5.25634c-17.75841,-2.3338 -31.02479,-7.99232 -30.20281,-14.24696c0.82198,-6.25463 13.82838,-4.81394 31.58678,-2.48014z" data-paper-data="{&quot;index&quot;:null}" fill="#2e0048" stroke="#000000" stroke-width="0" stroke-linecap="butt"/><g stroke="#000000" stroke-linecap="butt"><path d="M402.49782,334.31892c1.35955,11.58329 -11.95915,22.666 -29.74814,24.75392c-17.78899,2.08792 -33.31195,-5.60959 -34.6715,-17.19288c-0.27178,-2.31552 -1.6372,-13.66238 -0.68234,-15.1622c3.82175,-6.0029 18.3097,3.14852 32.54263,1.47797c17.78899,-2.08792 31.1998,-5.46011 32.55935,6.12317z" fill="#000082" stroke-width="2"/><path d="M400.30589,331.82515c0.73538,6.2654 -12.608,11.73987 -30.397,13.8278c-17.78899,2.08792 -30.30476,0.57914 -31.04014,-5.68626c-0.147,-1.25247 -1.49333,-12.43673 -0.46472,-13.30809c4.11698,-3.48756 16.11947,3.92026 30.3524,2.24971c17.78899,-2.08792 30.81407,-3.34856 31.54946,2.91684z" fill="#2e0048" stroke-width="0"/></g><g><g stroke="#000000" stroke-linecap="butt"><path d="M374.7751,204.02311c34.4157,12.77718 59.50509,29.19357 56.03872,36.66703c-3.46637,7.47346 -34.17589,3.17393 -68.59157,-9.60326c-34.4157,-12.77718 -59.50509,-29.19357 -56.03872,-36.66703c3.46637,-7.47346 34.17589,-3.17393 68.5916,9.60327z" fill="#0d69be" stroke-width="2"/><path d="M428.31375,209.50866c14.77209,5.48429 21.65001,20.91969 15.3623,34.47593c-6.28773,13.55623 -23.36009,20.09985 -38.13217,14.61556c-14.7721,-5.4843 -21.65001,-20.91969 -15.3623,-34.47593c6.28773,-13.55624 23.3601,-20.09984 38.13217,-14.61555z" fill="#faddbf" stroke-width="2"/><path d="M399.24242,241.7386c14.7721,5.4843 50.0054,-12.00379 43.71766,1.55245c-6.28773,13.55623 -23.36009,20.09983 -38.13217,14.61555c-14.7721,-5.4843 -20.35757,-21.65228 -5.58547,-16.16798z" fill="#ef8b89" stroke-width="0"/></g><g stroke="#000000" stroke-linecap="butt"><path d="M353.07602,228.37785c-3.83423,13.36964 0.67096,38.0881 -7.54679,46.23229c-10.04976,9.9598 -33.50432,1.69941 -44.68531,-0.86721c-14.7923,-3.39561 -36.82578,-4.1482 -37.39374,-23.89643c-0.21238,-7.38468 13.70728,-30.2747 16.02702,-38.36345c8.52324,-29.71982 31.90834,-50.03045 52.2321,-45.36508c20.32376,4.66537 29.88996,32.54007 21.36672,62.25989z" fill="#0d69be" stroke-width="2"/><path d="M293.24775,230.72527c-3.83423,13.36964 61.46237,35.32332 53.24462,43.46751c-10.04976,9.95979 -33.50432,1.69941 -44.68531,-0.86721c-14.7923,-3.39561 -36.82577,-4.14819 -37.39373,-23.89642c-0.21239,-7.38468 13.70729,-30.27471 16.02702,-38.36345c2.62579,-9.15587 11.56953,-26.86853 14.3006,-27.65611c11.09214,-14.76094 4.34682,26.9521 -1.49319,47.31569z" fill="#10157d" stroke-width="0"/></g><g stroke-linecap="butt"><g stroke="#000000"><g><path d="M286.1173,100.60042c13.0602,-45.30838 64.70158,-72.5659 115.34425,-60.88136c50.64267,11.68454 81.10931,57.88643 68.04911,103.19481c-13.0602,45.30838 -64.70158,72.5659 -115.34425,60.88136c-50.64267,-11.68454 -81.10931,-57.88643 -68.04911,-103.19481z" fill="#faddbf" stroke-width="2"/><path d="M286.60977,99.81608c4.20193,-14.57734 20.81695,-37.54999 26.59433,-39.53633c0.65978,-0.22685 8.74979,-7.18302 18.76412,-11.80875c12.4471,-5.74946 27.29983,-9.35355 27.90589,-9.01021c7.90711,4.4795 -37.07159,58.42351 -42.78958,83.2216c-0.01365,0.05914 -0.7288,20.17802 0.90039,21.0072c1.79932,5.31279 4.51488,20.82172 14.299,30.45292c18.23386,17.94886 47.47774,31.27833 45.73118,31.39764c-2.79387,0.19084 -16.79418,-1.01521 -23.35619,-2.52924c-50.64267,-11.68454 -81.10931,-57.88643 -68.04911,-103.19481z" fill="#ef8b89" stroke-width="0"/><path d="M469.07202,142.33947c-3.24458,11.25606 -6.07337,14.75116 -6.15402,12.82025c-0.08228,-1.96989 2.53713,-9.54933 -5.6981,-16.44324c-1.99557,-1.67053 -12.79818,3.52853 -15.40755,1.65816c-1.63896,-1.17481 -6.52423,-12.01376 -8.40674,-13.14626c-1.31622,-0.79182 -15.81335,5.00313 -17.20233,4.21727c-3.46415,-1.95998 -9.80085,-14.00697 -13.67721,-15.58089c-2.1346,-0.86671 -13.35447,9.15626 -15.56626,8.38379c-2.85238,-0.9962 -7.52897,-14.2004 -10.4917,-14.88398c-7.87913,-1.81792 -10.05237,4.92083 -17.39782,9.42878c-4.77325,2.92938 -11.49694,-16.13154 -16.11585,-12.61693c-5.73615,4.36473 -11.37487,8.54718 -16.96975,10.9737c-4.38938,1.9037 -11.64608,-13.11427 -15.48952,-11.29761c-18.55708,8.7713 -29.81505,14.44006 -24.74295,-3.15605c10.19904,-35.3825 49.14369,2.85646 100.37318,-7.5495c49.03636,-9.96047 93.14564,11.81002 82.9466,47.19252z" fill="#ef8b89" stroke-width="0"/></g><path d="M473.05189,134.67492c-6.55464,22.73935 4.6368,10.07028 -12.17064,-3.69648c-2.05674,-1.68465 -13.08917,3.46139 -15.7763,1.57308c-1.68781,-1.18608 -6.77087,-12.07068 -8.70796,-13.21576c-1.35437,-0.80062 -16.16831,4.92124 -17.59717,4.12617c-3.56366,-1.98294 -10.14262,-14.08583 -14.12591,-15.68441c-2.19349,-0.8803 -13.6191,9.0952 -15.89103,8.30885c-2.92991,-1.01408 -7.81602,-14.26663 -10.85679,-14.96821c-8.08669,-1.8658 -10.2656,4.87163 -17.76038,9.34513c-4.8703,2.90699 -11.89572,-16.22356 -16.60371,-12.72949c-5.84675,4.33921 -11.59495,8.4964 -17.31074,10.89503c-4.48424,1.88182 -12.02711,-13.20217 -15.95249,-11.40443c-18.95295,8.67996 -30.44864,14.29388 -25.37652,-3.30223c10.19904,-35.3825 65.82455,-68.72817 115.53216,-57.25938c49.7076,11.46879 82.79657,62.62966 72.59754,98.01217z" fill="#873412" stroke-width="2"/><path d="M473.10834,133.48711c-6.55464,22.73935 4.6368,10.07028 -12.17064,-3.69648c-2.05674,-1.68465 -13.08917,3.46139 -15.7763,1.57308c-1.68781,-1.18608 -6.77087,-12.07067 -8.70797,-13.21576c-1.35437,-0.80062 -16.1683,4.92124 -17.59717,4.12617c-3.56366,-1.98294 -10.14262,-14.08583 -14.12591,-15.68441c-2.19349,-0.8803 -13.6191,9.0952 -15.89103,8.30885c-2.92991,-1.01408 -7.81601,-14.26663 -10.85678,-14.96821c-8.08669,-1.8658 -10.2656,4.87163 -17.76038,9.34513c-4.8703,2.90699 -11.89572,-16.22356 -16.60371,-12.72949c-5.84675,4.33921 -11.59495,8.4964 -17.31075,10.89503c-4.48424,1.88182 -12.0271,-13.20217 -15.95248,-11.40443c-18.95295,8.67996 -30.44864,14.29388 -25.37653,-3.30224c10.19904,-35.3825 50.37777,3.14119 102.79846,-6.98992c50.17656,-9.6974 95.53027,12.36021 85.3312,47.74271z" fill="#741d23" stroke-width="0"/></g><path d="M400.12982,47.30815c0.03811,0.12821 0.05895,0.27084 0.06571,0.42405c0.02961,0.27447 0.00858,0.55789 -0.06959,0.84042c-0.19949,1.12747 -0.75014,2.42251 -0.83876,2.91026c-0.1164,0.64081 1.49689,-0.4264 2.16777,-0.17896c0.41096,0.15157 0.64308,0.93492 1.03679,0.75031c2.38929,-1.12034 4.92285,-3.48951 7.45109,-1.22984c0.83731,0.74836 0.20423,1.99965 0.62425,2.8037c0.03531,0.06759 2.86213,0.5193 3.35802,1.18408c0.85448,1.14548 -0.28305,2.26025 0.006,3.35207c0.09249,0.34937 0.74522,-0.28478 1.14119,-0.34311c1.76227,-0.25958 4.88637,-0.94481 6.50409,0.46294c0.85242,0.74177 0.20708,2.25733 0.63237,2.81181c0.74562,0.97208 2.47374,-0.839 3.76215,-1.08641c1.78196,-0.34219 2.37355,0.51807 3.47301,1.68686c0.18962,0.20159 -0.64149,4.11922 0.22828,5.51551c0.48893,0.78485 2.02719,-0.41905 3.0038,-0.20947c0.97441,0.20911 3.1401,-0.03716 3.56778,0.16852c0.85788,0.41257 1.243,1.98133 2.1793,1.74134c4.78044,-1.22529 9.69121,1.40391 6.5373,5.79862c-0.39914,0.55617 1.59093,-0.22563 2.21123,0.13333c0.24048,0.13915 1.42635,1.44629 1.69627,1.41975c1.76539,-0.17361 2.98212,-0.63344 4.70533,-0.23984c1.43112,0.32688 2.59644,1.36397 2.54315,2.7773c-0.028,0.74278 -1.67209,1.8068 -0.89927,2.07936c1.82164,0.64246 4.56936,2.02552 3.02524,4.28977c-1.67616,2.45788 -4.83375,4.19664 -7.0347,1.52944c-0.76363,-0.92538 -2.8408,0.62785 -3.85605,-0.07788c-1.30062,-0.90409 -1.38488,-3.28688 -0.9791,-4.40835c0.1876,-0.51843 -1.26603,0.09412 -1.82148,-0.12943c-0.74786,-0.30098 -0.81427,-1.44302 -1.59073,-1.67897c-1.73682,-0.52776 -2.38232,2.82336 -6.36926,1.09118c-1.17678,-0.51127 -2.11437,-2.74019 -2.21868,-3.89812c-0.06055,-0.67216 2.30537,-2.20436 2.16376,-2.34606c-0.34381,-0.34408 -2.89516,2.25195 -3.39638,2.28311c-1.20583,0.07495 -2.2188,-0.90409 -3.17838,-1.56168c-0.84778,-0.58098 -1.77577,1.54205 -2.82307,1.35515c-0.92522,-0.16512 -9.98874,-2.80294 -10.21127,-3.37373c-0.27133,-0.69588 -0.4078,-1.8714 -0.03904,-2.51921c0.13253,-0.23282 1.57011,-1.53921 1.36796,-1.56504c-0.7174,-0.09169 -5.49302,2.28487 -6.93272,-1.40787c-0.7829,-2.00808 2.0567,-3.24168 2.51352,-4.81356c0.28212,-0.97071 -1.66783,1.34544 -2.42347,2.08634c-0.58039,0.56908 -1.91745,0.9056 -2.76267,0.73639c-2.92228,-0.58504 -1.40671,-2.88032 -1.59234,-4.48709c-0.08567,-0.74151 -1.8738,0.18231 -2.47109,-0.33745c-1.46039,-1.27083 -0.88038,-2.33961 -0.60176,-3.85763c0.12756,-0.69507 -1.35173,2.49212 -3.1782,2.2427c-0.74072,-0.10116 -1.60097,-1.34773 -2.05527,-0.81461c-2.21183,2.59551 -1.78696,3.94529 -5.76124,2.53151c-0.3835,-0.13642 -1.28029,0.5263 -1.64293,0.21073c-4.01351,-3.49257 1.28265,-7.89498 2.53346,-11.74562c0.44122,-1.35829 0.0293,-3.63625 1.55439,-4.00911c0.67636,-0.60491 1.68245,-0.88325 2.67554,-0.65412c0.88054,0.20316 1.55438,0.75998 1.88054,1.45665c0.05916,0.09314 0.1062,0.19261 0.13813,0.30001z" fill="#ba587e" stroke="none" stroke-width="0.5"/></g><g stroke="#000000" stroke-linecap="butt"><path d="M383.10344,150.09744c-7.97133,27.65415 -26.33525,38.62962 -44.26773,34.49215c-17.93248,-4.13748 -28.6429,-21.82113 -20.67156,-49.47527c7.97133,-27.65415 28.97053,-46.71817 46.90302,-42.5807c17.93248,4.13748 26.0076,29.90967 18.03625,57.56382z" fill="#f0f0f0" stroke-width="2"/><path d="M337.9645,119.45967c-12.53713,26.26407 19.72379,68.62226 1.79131,64.48479c-17.93248,-4.13748 -28.6429,-21.82113 -20.67156,-49.47527c7.97133,-27.65415 37.00526,-52.9796 18.88026,-15.00952z" fill="#9a99ff" stroke-width="0"/></g><path d="M377.02026,158.6358c-4.41628,15.32094 -13.07129,26.5701 -19.33151,25.12572c-6.26021,-1.44439 -7.75502,-15.03538 -3.33874,-30.35631c4.41628,-15.32094 13.07128,-26.5701 19.3315,-25.12572c6.26021,1.44439 7.75503,15.03538 3.33875,30.35631z" fill="#000000" stroke="none" stroke-width="0" stroke-linecap="butt"/><g stroke="#000000" stroke-linecap="butt"><path d="M385.93814,120.20353c1.97124,11.01932 -2.44263,52.41026 -19.44619,48.48711c-17.00354,-3.92315 -40.33353,-52.48954 -32.73081,-60.66521c7.23388,-7.77902 13.32711,-19.04481 30.33067,-15.12167c17.00354,3.92315 19.96773,16.7982 21.84633,27.29975z" fill="#a100fe" stroke-width="2"/><path d="M385.03666,119.6297c1.80665,10.98135 -1.83464,51.65252 -18.25841,47.86314c-16.42378,-3.78938 -39.57319,-51.41609 -32.13819,-59.63046c7.0743,-7.81584 6.8296,2.56926 23.25338,6.35864c16.42378,3.78938 25.42146,-5.0567 27.14323,5.40867z" fill="#99008e" stroke-width="0"/></g><g data-paper-data="{&quot;index&quot;:null}" stroke="#000000" stroke-linecap="butt"><path d="M432.9494,110.41042c17.93248,4.13748 26.0076,29.90967 18.03625,57.56382c-7.97133,27.65414 -26.90489,38.49819 -44.83739,34.36072c-17.93248,-4.13748 -28.07325,-21.68969 -20.10192,-49.34384c7.97133,-27.65415 28.97053,-46.71817 46.90302,-42.5807z" fill="#f0f0f0" stroke-width="2"/><path d="M450.52902,167.01145c-7.97133,27.65414 -26.90489,38.49819 -44.83739,34.36072c-17.93248,-4.13748 33.20171,-27.25432 36.42527,-55.66726c4.66034,-41.07672 16.38344,-6.3476 8.4121,21.30655z" fill="#9a99ff" stroke-width="0"/></g><path d="M433.84857,143.9555c6.41079,0.74758 9.75483,14.07246 7.46909,29.76196c-2.28574,15.6895 -9.33569,27.80233 -15.74651,27.05475c-6.41079,-0.74758 -9.75484,-14.07246 -7.4691,-29.76196c2.28574,-15.6895 9.33571,-27.80232 15.74652,-27.05475z" data-paper-data="{&quot;index&quot;:null}" fill="#000000" stroke="none" stroke-width="0" stroke-linecap="butt"/><g data-paper-data="{&quot;index&quot;:null}" stroke="#000000" stroke-linecap="butt"><path d="M399.85131,125.15887c7.32096,-8.37899 16.87506,-18.36576 33.8786,-14.44261c17.00354,3.92315 16.24709,16.42026 18.37381,26.35901c2.23515,10.44552 -44.26993,43.94009 -61.27348,40.01694c-17.00354,-3.92315 1.33917,-43.14122 9.02105,-51.93333z" fill="#a100fe" stroke-width="2"/><path d="M400.95055,125.04666c7.1641,-8.41517 10.25785,3.2207 26.68163,7.01007c16.42378,3.78938 21.82327,-5.40639 23.79041,4.49554c2.06742,10.40682 -44.17318,43.33652 -60.59697,39.54714c-16.42378,-3.78938 2.6076,-42.22268 10.12492,-51.05275z" fill="#99008e" stroke-width="0"/></g><g><g><path d="M332.66782,232.96975c-15.33927,6.26793 -27.82136,3.02738 -35.45777,-10.25539c-5.97255,-10.38859 0.78733,-27.46041 16.12662,-33.72836c15.33934,-6.26799 31.00947,-1.95343 37.94561,11.63335c1.0847,2.12471 1.38087,4.3736 1.67287,6.42533c1.57504,11.0682 -7.34678,20.6373 -20.28728,25.92507z" fill="#0000c4" stroke="#000000" stroke-width="2" stroke-linecap="butt"/><path d="M302.68622,198.92535c0,0 2.21634,5.40362 4.40454,5.8288c20.98957,4.0786 35.71121,-0.7941 40.44284,-2.73816c1.07504,-0.44168 1.21298,-1.55775 1.21298,-1.55775c0,0 1.20183,1.81988 1.84128,4.50068c0.68044,2.85261 0.77284,6.66011 -0.22064,9.60206c-1.13489,3.36053 -6.03736,10.45071 -6.03736,10.45071l-19.52118,11.56865c0,0 -14.48862,-3.59562 -16.45654,-4.85937c-1.92792,-1.23802 -3.81237,-3.19771 -5.9097,-5.20917c-3.25639,-3.1231 -5.21338,-7.31134 -5.56952,-10.17373c-0.45447,-3.65306 0.668,-8.20755 2.2929,-11.73587c1.51226,-3.28376 3.52046,-5.67674 3.52046,-5.67674z" fill="#2e006f" stroke="none" stroke-width="0" stroke-linecap="butt"/><path d="M316.37987,220.06946c0,0 -5.99893,-7.2521 -5.899,-12.40691c0.12645,-6.52545 4.40848,-18.91198 4.40848,-18.91198" fill="none" stroke="#000000" stroke-width="1" stroke-linecap="round"/><path d="M346.41837,195.02394c0,0 1.71313,6.98431 1.59317,11.28086c-0.12103,4.33756 -4.19641,13.32971 -4.19641,13.32971" fill="none" stroke="#000000" stroke-width="1" stroke-linecap="round"/><path d="M307.10908,227.25008c0,0 -6.2821,-7.36189 -5.88971,-12.94092c0.60217,-8.56084 3.90947,-19.77424 3.90947,-19.77424" fill="none" stroke="#000000" stroke-width="1" stroke-linecap="round"/><path d="M296.03713,215.6107c0,0 9.04527,-15.29661 28.35457,-17.5558c21.15088,-2.47466 28.8265,13.34727 28.8265,13.34727" fill="none" stroke="#000000" stroke-width="1" stroke-linecap="round"/><path d="M299.12831,224.72424c0,0 12.07045,-14.15072 29.10456,-16.17706c13.98655,-1.66379 21.84533,11.1223 21.84533,11.1223" fill="none" stroke="#000000" stroke-width="1" stroke-linecap="round"/><path d="M330.38084,191.12026c-1.33463,-0.14634 -2.31154,-1.03128 -2.18205,-1.97653c0.12943,-0.94529 1.01557,-0.8714 2.35021,-0.72506c1.33463,0.14634 2.61231,0.30973 2.48284,1.255c-0.12943,0.94529 -1.3164,1.59296 -2.65098,1.44658z" fill="#8fbbbe" stroke="none" stroke-width="0" stroke-linecap="butt"/><path d="M338.23713,192.97911c-0.61155,0.24987 -1.44692,-0.21283 -1.86587,-1.0335c-0.41896,-0.82068 -0.46336,-1.2075 0.14814,-1.4574c0.61155,-0.24987 1.63147,0.1374 2.05039,0.95809c0.41896,0.82068 0.27881,1.28293 -0.33272,1.5328z" fill="#8fbbbe" stroke="none" stroke-width="0" stroke-linecap="butt"/><path d="M322.69694,190.34265c-0.95676,0.28524 -1.90458,0.05393 -2.11715,-0.51669c-0.2126,-0.57057 0.64356,-0.76913 1.60027,-1.0544c0.95676,-0.28524 1.65171,-0.54926 1.86429,0.02136c0.2126,0.57057 -0.39071,1.26448 -1.34743,1.54971z" fill="#8fbbbe" stroke="none" stroke-width="0" stroke-linecap="butt"/><path d="M299.90647,202.65534c0,0 8.29721,-7.04095 16.16181,-9.85371c4.45883,-1.59467 9.00399,-1.62303 12.45016,-1.60999c3.04762,0.01149 9.79655,2.61295 14.73066,5.08507c3.63272,1.82007 6.15129,3.71473 6.15129,3.71473" fill="none" stroke="#000000" stroke-width="0.5" stroke-linecap="round"/><path d="M333.5055,186.33195c0,0 4.49253,9.7787 4.5873,15.18333c0.07985,4.55352 -3.68682,14.97983 -3.68682,14.97983" fill="none" stroke="#000000" stroke-width="1" stroke-linecap="round"/><path d="M327.92645,217.34681c0,0 -3.99548,-8.98055 -4.62121,-13.46801c-1.09863,-7.87915 2.76159,-17.7 2.76159,-17.7" fill="none" stroke="#000000" stroke-width="1" stroke-linecap="round"/></g><g stroke="#000000" stroke-linecap="butt"><path d="M299.46093,230.10629c36.99122,-4.00611 44.38709,3.01333 45.47392,11.04606c1.08684,8.03274 -28.01944,17.79215 -65.01066,21.79825c-36.99122,4.00611 8.71034,-55.52275 7.6235,-63.55548c3.51462,-6.35932 8.58952,-1.67076 10.02606,6.08194c1.77156,9.56089 -1.27468,24.97165 1.88717,24.62923z" fill="#0d69be" stroke-width="2"/><path d="M325.62765,215.09638c15.87757,-1.71952 30.34706,8.69843 32.31847,23.26915c1.97143,14.57073 -9.30173,27.77658 -25.1793,29.49612c-15.87757,1.71952 -30.34706,-8.69844 -32.31847,-23.26917c-1.97143,-14.57073 9.30173,-27.77658 25.1793,-29.4961z" fill="#faddbf" stroke-width="2"/><path d="M318.01596,255.94822c15.87757,-1.71952 36.95423,-32.44255 38.92565,-17.87182c1.97143,14.57073 -9.30173,27.77658 -25.1793,29.49611c-15.87757,1.71952 -29.62393,-9.90477 -13.74634,-11.62428z" fill="#ef8b89" stroke-width="0"/></g></g><path d="M301.72139,140.44399c-1.2416,1.09393 0.97695,2.51194 2.43785,3.76194c2.92135,2.49964 6.48115,5.55528 4.7466,9.61869c-2.95614,6.92514 -11.45166,-0.34985 -13.7448,-3.36589c-3.69725,-5.76009 -5.8459,-17.34955 4.02848,-19.2824c0.60267,-0.11797 3.79689,-0.31168 4.35451,-0.18723c5.27581,1.17744 4.04096,7.17801 0.20976,8.90279l-0.93588,0.44358c0,0 -0.54119,0.25595 -1.09648,0.10852z" fill="#000000" stroke="none" stroke-width="0.5" stroke-linecap="butt"/></g></g></g></svg>