<svg version="1.1" xmlns="http://www.w3.org/2000/svg" xmlns:xlink="http://www.w3.org/1999/xlink" width="205.02901" height="288.2213" viewBox="0,0,205.02901,288.2213"><g transform="translate(-203.94808,-71.87474)"><g data-paper-data="{&quot;isPaintingLayer&quot;:true}" fill-rule="nonzero" stroke-linejoin="miter" stroke-miterlimit="10" stroke-dasharray="" stroke-dashoffset="0" style="mix-blend-mode: normal"><g stroke="#000000" stroke-linecap="butt"><path d="M335.18455,225.3966c30.34653,12.31643 52.27915,27.93432 48.98787,34.88353c-3.2913,6.9492 -30.56016,2.59821 -60.90669,-9.7182c-30.34653,-12.31643 -52.27915,-27.93432 -48.98787,-34.88353c3.2913,-6.9492 30.56016,-2.59821 60.9067,9.71821z" fill="#0d69be" stroke-width="2"/><path d="M382.7787,231.10282c13.0255,5.28653 18.74501,19.79071 12.77486,32.396c-5.97013,12.60529 -21.36915,18.53835 -34.39465,13.25181c-13.02552,-5.28654 -18.74501,-19.79071 -12.77486,-32.396c5.97013,-12.60529 21.36915,-18.53834 34.39465,-13.25181z" fill="#faddbf" stroke-width="2"/><path d="M355.99168,260.91946c13.02552,5.28654 44.91216,-10.68201 38.94203,1.92329c-5.97013,12.60529 -21.36915,18.53833 -34.39465,13.25181c-13.02552,-5.28654 -17.57289,-20.46163 -4.54737,-15.17511z" fill="#ef8b89" stroke-width="0"/></g><g stroke="#000000" stroke-linecap="butt"><path d="M347.17244,354.42575l-57.93711,-70.52224l23.4153,-16.7129l57.93712,70.52224z" fill="#73fffc" stroke-width="2"/><path d="M346.53812,354.15306l-55.96657,-70.15696c0,0 45.54153,47.45751 52.20084,53.75885c1.47217,1.39302 3.69876,0.63526 3.69876,0.63526l22.76097,-0.82083z" fill="#59a9e6" stroke-width="0"/></g><g stroke="#000000" stroke-linecap="butt"><path d="M251.67518,328.81409l36.09093,-82.20731l27.29506,10.41101l-36.09093,82.20732z" fill="#73fffc" stroke-width="2"/><path d="M251.60773,328.16603l36.74682,-80.4372c0,0 -20.98077,60.59455 -23.4576,69.13301c-0.54755,1.88759 1.27778,3.29711 1.27778,3.29711l12.24444,17.90282z" fill="#59a9e6" stroke-width="0"/></g><g stroke="#000000" stroke-linecap="butt"><path d="M335.22917,244.09684c0,12.86545 10.04743,34.24883 4.95001,43.30497c-6.2338,11.07504 -28.61241,8.47815 -38.9397,8.47815c-13.66287,0 -32.94407,3.88701 -38.34426,-13.825c-2.01935,-6.62325 4.35457,-30.17441 4.35457,-37.95812c0,-28.59903 15.2177,-51.78312 33.98969,-51.78312c18.77199,0 33.98969,23.18409 33.98969,51.78312z" fill="#0d69be" stroke-width="2"/><path d="M283.96554,258.61572c0,12.86545 62.04198,19.15351 56.94455,28.20965c-6.2338,11.07503 -28.61241,8.47815 -38.9397,8.47815c-13.66287,0 -32.94406,3.88701 -38.34425,-13.82499c-2.01936,-6.62325 4.35457,-30.17442 4.35457,-37.95812c0,-8.81058 3.34855,-26.65609 5.51953,-27.93317c5.94391,-15.6258 10.4653,23.43285 10.4653,43.0285z" fill="#10157d" stroke-width="0"/></g><g><g><path d="M239.4298,257.31179c-4.85348,-13.48632 -0.56207,-23.54498 13.22798,-28.45833c10.78534,-3.84281 27.06208,3.67132 31.91557,17.15764c4.85354,13.48639 -0.77733,26.0871 -14.80661,30.38277c-2.19391,0.67176 -4.44166,0.67203 -6.49425,0.69043c-11.07286,0.09914 -19.74819,-8.39516 -23.84269,-19.7725z" fill="#0000c4" stroke="#000000" stroke-width="2" stroke-linecap="butt"/><path d="M275.68316,236.03386c0,0 -5.53226,1.25604 -6.14338,3.03506c-5.86216,17.06485 -2.33323,29.88273 -0.82561,34.04395c0.34252,0.94544 1.43316,1.18304 1.43316,1.18304c0,0 -1.90297,0.80299 -4.60742,1.0422c-2.87777,0.25457 -6.64765,-0.08626 -9.46755,-1.23813c-3.22111,-1.31579 -9.79817,-6.18445 -9.79817,-6.18445l-9.72548,-17.55735c0,0 4.81741,-11.69384 6.2378,-13.19705c1.39148,-1.47266 3.49217,-2.82982 5.6626,-4.35892c3.36992,-2.37414 7.67874,-3.54718 10.53787,-3.53013c3.64889,0.02182 8.05072,1.45831 11.39483,3.20136c3.11232,1.62222 5.30124,3.56044 5.30124,3.56044z" fill="#2e006f" stroke="none" stroke-width="0" stroke-linecap="butt"/><path d="M253.5973,245.13808c0,0 7.6888,-4.2091 12.77302,-3.55989c6.43609,0.82182 18.3001,5.75422 18.3001,5.75422" fill="none" stroke="#000000" stroke-width="1" stroke-linecap="round"/><path d="M275.71967,272.94992c0,0 -7.05005,0.66267 -11.28455,0.09093c-4.27493,-0.57714 -12.80334,-4.9645 -12.80334,-4.9645" fill="none" stroke="#000000" stroke-width="1" stroke-linecap="round"/><path d="M247.31226,236.61479c0,0 7.82199,-4.43334 13.2998,-3.49351c8.40551,1.44214 19.19557,5.43252 19.19557,5.43252" fill="none" stroke="#000000" stroke-width="1" stroke-linecap="round"/><path d="M259.77858,228.65462c0,0 14.3233,9.22604 14.86955,25.58471c0.59835,17.91884 -15.70378,22.58613 -15.70378,22.58613" fill="none" stroke="#000000" stroke-width="1" stroke-linecap="round"/><path d="M250.50454,230.23332c0,0 12.92705,11.6243 13.44188,26.0591c0.42271,11.85228 -12.89603,17.00567 -12.89603,17.00567" fill="none" stroke="#000000" stroke-width="1" stroke-linecap="round"/><path d="M280.97665,259.99756c0.26111,-1.09749 1.22072,-1.81542 2.14331,-1.60362c0.92264,0.21176 0.77228,0.94299 0.51117,2.04047c-0.26111,1.09749 -0.53408,2.14558 -1.4567,1.93379c-0.92264,-0.21176 -1.45891,-1.27318 -1.19778,-2.37063z" fill="#8fbbbe" stroke="none" stroke-width="0" stroke-linecap="butt"/><path d="M278.45421,266.34841c-0.19349,-0.53766 0.33659,-1.18386 1.184,-1.44333c0.84741,-0.25947 1.23347,-0.25406 1.42697,0.2836c0.19349,0.53766 -0.2782,1.34611 -1.1256,1.60557c-0.84741,0.25947 -1.29188,0.0918 -1.48535,-0.44587z" fill="#8fbbbe" stroke="none" stroke-width="0" stroke-linecap="butt"/><path d="M282.41578,253.67189c-0.19828,-0.82958 0.11301,-1.595 0.69533,-1.70971c0.58227,-0.11474 0.70371,0.62138 0.90203,1.45092c0.19828,0.82958 0.39847,1.43838 -0.18386,1.55313c-0.58227,0.11474 -1.21519,-0.46478 -1.41348,-1.29433z" fill="#8fbbbe" stroke="none" stroke-width="0" stroke-linecap="butt"/><path d="M272.24063,233.30512c0,0 6.23204,7.69567 8.32441,14.56624c1.18625,3.89527 0.81746,7.69062 0.50369,10.56448c-0.27743,2.5415 -3.43689,7.8869 -6.31012,11.73229c-2.11538,2.83117 -4.20718,4.72453 -4.20718,4.72453" fill="none" stroke="#000000" stroke-width="0.5" stroke-linecap="round"/><path d="M285.43469,263.13026c0,0 -10.05355,2.67491 -15.40158,2.16068c-4.50584,-0.43323 -14.47814,-4.72046 -14.47814,-4.72046" fill="none" stroke="#000000" stroke-width="1" stroke-linecap="round"/><path d="M255.27918,255.07081c0,0 9.22158,-2.34781 13.70982,-2.37727c7.88048,-0.05172 17.24645,4.24709 17.24645,4.24709" fill="none" stroke="#000000" stroke-width="1" stroke-linecap="round"/></g><g stroke="#000000" stroke-linecap="butt"><path d="M245.15806,229.92004c0.72847,31.30327 -6.85242,36.70346 -14.88363,36.72849c-8.03122,0.02503 -15.13232,-25.33102 -15.86079,-56.63431c-0.72847,-31.30327 54.09585,13.36231 62.12705,13.33728c5.97614,3.63047 0.90078,7.35005 -6.88429,7.69758c-9.6008,0.42857 -24.56063,-3.80474 -24.49838,-1.12905z" fill="#0d69be" stroke-width="2"/><path d="M257.70331,253.39984c0.31267,13.43617 -11.2435,24.36513 -25.81146,24.41051c-14.56796,0.04539 -26.63109,-10.80996 -26.94377,-24.24613c-0.31267,-13.43617 11.24353,-24.36513 25.81148,-24.41052c14.56796,-0.04539 26.63109,10.80996 26.94376,24.24614z" fill="#faddbf" stroke-width="2"/><path d="M218.00634,242.56466c0.31267,13.43617 28.82681,34.39395 14.25886,34.43935c-14.56796,0.04539 -26.63109,-10.80996 -26.94376,-24.24614c-0.31267,-13.43617 12.37222,-23.62938 12.6849,-10.19321z" fill="#ef8b89" stroke-width="0"/></g></g><g stroke="#000000" stroke-linecap="butt"><path d="M402.49782,336.02301c1.35955,10.79674 -11.95915,21.12689 -29.74814,23.07303c-17.78899,1.94614 -33.31195,-5.22868 -34.6715,-16.02542c-0.27178,-2.15829 -1.6372,-12.73465 -0.68234,-14.13262c3.82175,-5.59528 18.3097,2.93472 32.54263,1.37761c17.78899,-1.94614 31.1998,-5.08935 32.55935,5.70738z" fill="#000082" stroke-width="2"/><path d="M400.30589,333.69856c0.73538,5.83996 -12.608,10.94268 -30.397,12.88883c-17.78899,1.94614 -30.30476,0.53981 -31.04014,-5.30015c-0.147,-1.16743 -1.49333,-11.59223 -0.46472,-12.40442c4.11698,-3.25074 16.11947,3.65406 30.3524,2.09695c17.78899,-1.94614 30.81407,-3.12118 31.54946,2.71877z" fill="#2e0048" stroke-width="0"/></g><g stroke="#000000" stroke-linecap="butt"><path d="M232.09952,294.81564c9.8981,-5.49633 15.42769,6.49321 24.6301,21.05453c7.36284,11.65046 23.35476,17.40193 20.98267,23.65638c-0.59266,1.56266 -10.30922,6.92152 -12.28788,8.02024c-9.8981,5.49633 -25.38213,-1.85227 -34.58457,-16.41359c-9.20242,-14.56131 -8.63846,-30.82123 1.25964,-36.31756z" data-paper-data="{&quot;index&quot;:null}" fill="#000082" stroke-width="2"/><path d="M256.89181,317.16069c7.36284,11.65046 20.47532,16.51298 20.25263,21.57389c-0.05564,1.26446 -9.63325,6.54616 -10.70349,7.14046c-5.35388,2.97297 -14.16006,-5.59593 -23.36247,-20.15725c-9.20242,-14.56131 -13.04482,-27.68335 -7.69092,-30.65632c5.35388,-2.97297 12.30185,7.5379 21.50427,22.09919z" data-paper-data="{&quot;index&quot;:null}" fill="#2e0048" stroke-width="0"/></g><g stroke-linecap="butt"><g><g stroke="#000000"><g><path d="M240.01405,131.23166c13.34918,-41.73928 60.50168,-65.24549 105.31805,-52.50259c44.81638,12.7429 70.32558,56.90943 56.9764,98.64873c-13.34918,41.73928 -60.50168,65.24549 -105.31805,52.50259c-44.81638,-12.7429 -70.32558,-56.90943 -56.9764,-98.64873z" fill="#faddbf" stroke-width="2"/><path d="M240.48315,130.51887c4.2949,-13.42903 19.99226,-34.22592 25.22802,-35.86511c0.59794,-0.1872 8.08431,-6.37247 17.20367,-10.31577c11.33474,-4.90126 24.73937,-7.71533 25.26815,-7.3732c6.89897,4.46363 -35.28976,53.08008 -41.31822,75.97712c-0.01438,0.0546 -1.39929,18.77493 0.02568,19.60723c1.41074,5.0163 3.26211,19.56684 11.64722,28.89952c15.62664,17.39256 41.26204,30.8842 39.69705,30.93137c-2.5034,0.07547 -14.96807,-1.56126 -20.77515,-3.21242c-44.81638,-12.7429 -70.32558,-56.90943 -56.9764,-98.64873z" fill="#ef8b89" stroke-width="0"/><path d="M401.93787,176.82651c-3.31637,10.36937 -5.97351,13.52244 -5.97397,11.72029c-0.00048,-1.83853 2.62098,-8.80499 -4.48166,-15.53036c-1.72111,-1.62969 -11.5661,2.81896 -13.82823,0.98056c-1.42087,-1.15472 -5.38403,-11.4333 -7.02408,-12.55751c-1.1467,-0.78603 -14.31484,4.08249 -15.52675,3.29934c-3.02258,-1.9532 -8.23781,-13.4106 -11.64302,-15.01915c-1.87514,-0.88579 -12.27177,8.04242 -14.21938,7.2416c-2.51169,-1.03274 -6.2007,-13.50759 -8.82257,-14.25309c-6.97266,-1.98258 -9.16431,4.21689 -15.89465,8.14821c-4.37354,2.55468 -9.67452,-15.45239 -13.93185,-12.34674c-5.28712,3.85684 -10.48041,7.54741 -15.56943,9.60342c-3.99253,1.61304 -9.91965,-12.64638 -13.42112,-11.09447c-16.90607,7.49311 -27.17532,12.36273 -21.99099,-3.84729c10.42472,-32.5953 43.80431,4.4621 89.96402,-3.35713c44.18361,-7.48449 82.78841,14.41701 72.36371,47.0123z" fill="#ef8b89" stroke-width="0"/></g><path d="M405.77807,169.83059c-6.69968,20.94808 3.76965,9.55324 -10.7375,-3.89023c-1.77525,-1.64509 -11.82359,2.74574 -14.15455,0.88778c-1.46411,-1.16702 -5.60231,-11.49537 -7.29066,-12.63331c-1.18046,-0.79563 -14.62895,3.99318 -15.87617,3.19999c-3.11064,-1.97824 -8.54028,-13.49659 -12.04011,-15.13207c-1.92725,-0.90061 -12.50597,7.97582 -14.50679,7.15989c-2.5803,-1.05226 -6.45473,-13.57983 -9.14566,-14.34496c-7.15633,-2.0348 -9.35302,4.16323 -16.2155,8.05699c-4.45941,2.53026 -10.02742,-15.55273 -14.36358,-12.46949c-5.38498,3.82902 -10.67517,7.49202 -15.87119,9.51763c-4.07648,1.58916 -10.25681,-12.74225 -13.83084,-11.21095c-17.2564,7.3935 -27.73601,12.20331 -22.55167,-4.0067c10.42472,-32.5953 61.36277,-61.62841 105.35166,-49.12079c43.98888,12.50761 71.65732,61.39095 61.23259,93.98624z" fill="#873412" stroke-width="2"/><path d="M405.87253,168.72586c-6.69968,20.94808 3.76965,9.55324 -10.7375,-3.89023c-1.77525,-1.64509 -11.82359,2.74574 -14.15455,0.88778c-1.46411,-1.16702 -5.60231,-11.49537 -7.29067,-12.63331c-1.18046,-0.79563 -14.62895,3.99318 -15.87617,3.19999c-3.11064,-1.97824 -8.54028,-13.49659 -12.04011,-15.13207c-1.92725,-0.90061 -12.50597,7.97582 -14.50679,7.15989c-2.5803,-1.05226 -6.45473,-13.57983 -9.14566,-14.34496c-7.15633,-2.0348 -9.35302,4.16323 -16.2155,8.05699c-4.45941,2.53026 -10.02742,-15.55273 -14.36358,-12.46949c-5.38498,3.82902 -10.67517,7.49202 -15.8712,9.51763c-4.07648,1.58916 -10.25681,-12.74225 -13.83084,-11.21095c-17.2564,7.3935 -27.73601,12.20331 -22.55167,-4.0067c10.42472,-32.5953 44.89642,4.77262 92.11028,-2.74688c45.19263,-7.19759 84.89869,15.01704 74.47396,47.61233z" fill="#741d23" stroke-width="0"/></g><path d="M343.86082,85.75171c0.02931,0.12085 0.04264,0.25452 0.04299,0.39754c0.01629,0.25684 -0.01302,0.52016 -0.09335,0.78053c-0.22005,1.04324 -0.76007,2.22977 -0.85733,2.68101c-0.12778,0.59282 1.35329,-0.34248 1.94356,-0.08733c0.36157,0.15629 0.53992,0.89471 0.89855,0.73711c2.17639,-0.95638 4.52797,-3.07112 6.7032,-0.87297c0.72039,0.72799 0.10834,1.87073 0.45383,2.63532c0.02904,0.06427 2.53808,0.58873 2.95652,1.22635c0.72101,1.09865 -0.33671,2.0957 -0.11892,3.12364c0.06969,0.32892 0.67641,-0.23805 1.03238,-0.27789c1.58422,-0.1773 4.40102,-0.70135 5.7943,0.66966c0.73414,0.72241 0.10133,2.11093 0.46079,2.64319c0.63017,0.93309 2.24141,-0.69113 3.40179,-0.87448c1.60487,-0.25355 2.10157,0.56969 3.04061,1.69904c0.16196,0.1948 -0.7259,3.81472 -0.00051,5.14764c0.40775,0.74923 1.82685,-0.31619 2.69168,-0.08514c0.86289,0.23054 2.80707,0.08042 3.18158,0.28774c0.75122,0.41586 1.03718,1.89172 1.88267,1.70239c4.31678,-0.96656 8.60711,1.6632 5.62614,5.64259c-0.37725,0.50361 1.42987,-0.15195 1.97079,0.20526c0.20971,0.13848 1.22084,1.3999 1.46298,1.38505c1.58384,-0.09708 2.68801,-0.48098 4.21313,-0.05109c1.26659,0.35701 2.26938,1.36606 2.16935,2.68103c-0.05256,0.69108 -1.56102,1.62229 -0.88061,1.90458c1.60382,0.66538 4.00765,2.05477 2.54403,4.10799c-1.58879,2.22881 -4.47459,3.73328 -6.34226,1.16738c-0.648,-0.89023 -2.56155,0.48096 -3.44253,-0.21385c-1.12859,-0.89007 -1.11554,-3.11341 -0.71139,-4.1435c0.18682,-0.47619 -1.13469,0.04132 -1.62272,-0.18734c-0.65706,-0.30785 -0.67404,-1.37442 -1.35908,-1.62272c-1.53229,-0.5554 -2.23329,2.54349 -5.73143,0.7834c-1.03252,-0.51952 -1.78761,-2.63074 -1.83788,-3.7135c-0.02919,-0.62853 2.14158,-1.96953 2.02032,-2.10676c-0.29444,-0.33321 -2.67034,1.99227 -3.11934,2.00294c-1.08019,0.02565 -1.94901,-0.92371 -2.782,-1.57161c-0.73596,-0.57241 -1.64384,1.3718 -2.57267,1.15928c-0.82057,-0.18777 -8.82108,-2.9777 -8.99875,-3.51771c-0.21662,-0.65836 -0.295,-1.75869 0.05852,-2.3488c0.12705,-0.21208 1.45997,-1.3767 1.28031,-1.40817c-0.6376,-0.11171 -4.99275,1.92775 -6.14223,-1.56583c-0.62507,-1.89979 1.95785,-2.94521 2.42431,-4.39312c0.28806,-0.89417 -1.5401,1.19256 -2.24275,1.85524c-0.53968,0.50901 -1.74684,0.77358 -2.49576,0.58494c-2.58939,-0.6522 -1.15012,-2.73538 -1.25641,-4.23934c-0.04906,-0.69407 -1.68101,0.10123 -2.19542,-0.40496c-1.25776,-1.23764 -0.69988,-2.21227 -0.39467,-3.61654c0.13975,-0.64299 -1.30017,2.27259 -2.92289,1.97328c-0.6581,-0.1214 -1.3805,-1.31445 -1.80619,-0.83434c-2.07252,2.33743 -1.74295,3.61071 -5.24156,2.14776c-0.33761,-0.14117 -1.16346,0.44349 -1.47577,0.13616c-3.45661,-3.40138 1.43877,-7.30945 2.69914,-10.8516c0.44459,-1.24947 0.161,-3.38714 1.5375,-3.67869c0.62675,-0.53887 1.53603,-0.76137 2.41487,-0.51148c0.77925,0.22156 1.36068,0.76509 1.62627,1.42619c0.04941,0.08895 0.08776,0.18337 0.11231,0.28461z" fill="#ba587e" stroke="none" stroke-width="0.5"/></g><g stroke="#000000"><path d="M324.83672,180.90565c-8.14772,25.47574 -24.96291,35.02974 -40.83232,30.51749c-15.86941,-4.51225 -24.78361,-21.38205 -16.63588,-46.85777c8.14772,-25.47574 27.61746,-42.46999 43.48686,-37.95775c15.86941,4.51225 22.12906,28.82229 13.98134,54.29803z" fill="#f0f0f0" stroke-width="2"/><path d="M285.64068,150.704c-12.17576,24.0132 15.07918,64.66396 -0.79023,60.15173c-15.86941,-4.51225 -24.78361,-21.38205 -16.63588,-46.85777c8.14772,-25.47574 35.02867,-48.00994 17.42612,-13.29396z" fill="#9a99ff" stroke-width="0"/></g><path d="M318.75772,187.18944c-4.51399,14.11406 -12.66437,24.2788 -18.20437,22.70357c-5.53999,-1.57522 -6.37173,-14.29389 -1.85773,-28.40795c4.51399,-14.11406 12.66437,-24.2788 18.20437,-22.70357c5.53999,1.57522 6.37173,14.29389 1.85773,28.40795z" fill="#000000" stroke="none" stroke-width="0"/><g stroke="#000000"><path d="M328.60754,152.74925c1.35277,10.33989 -4.12562,48.74572 -19.17296,44.46722c-15.04734,-4.2785 -34.09223,-50.38679 -26.99603,-57.72623c6.75194,-6.98337 12.61394,-17.25745 27.66129,-12.97894c15.04734,4.2785 17.21849,16.3839 18.5077,26.23793z" fill="#a100fe" stroke-width="2"/><path d="M327.82334,152.18155c1.20713,10.29848 -3.55428,48.06193 -18.08854,43.92932c-14.53425,-4.13261 -33.45267,-49.35871 -26.50489,-56.74034c6.6107,-7.02352 6.00704,2.64422 20.5413,6.77684c14.53425,4.13261 22.90172,-3.78041 24.05214,6.03418z" fill="#99008e" stroke-width="0"/></g><g data-paper-data="{&quot;index&quot;:null}" stroke="#000000"><path d="M370.84582,145.75201c15.86941,4.51225 22.12906,28.82229 13.98134,54.29803c-8.14772,25.47574 -25.46702,34.8864 -41.33643,30.37415c-15.86941,-4.51225 -24.2795,-21.23869 -16.13178,-46.71444c8.14772,-25.47574 27.61746,-42.46999 43.48686,-37.95775z" fill="#f0f0f0" stroke-width="2"/><path d="M384.45486,199.13618c-8.14772,25.47574 -25.46702,34.8864 -41.33643,30.37415c-15.86941,-4.51225 30.6764,-24.17881 34.61009,-50.53552c5.68696,-38.10402 14.87406,-5.31437 6.72633,20.16135z" fill="#9a99ff" stroke-width="0"/></g><path d="M374.7469,177.72956c5.53999,1.57522 6.37173,14.29389 1.85773,28.40795c-4.51399,14.11406 -12.66437,24.2788 -18.20437,22.70357c-5.53999,-1.57522 -6.37173,-14.29389 -1.85773,-28.40795c4.51399,-14.11406 12.66437,-24.2788 18.20437,-22.70357z" data-paper-data="{&quot;index&quot;:null}" fill="#000000" stroke="none" stroke-width="0"/><g data-paper-data="{&quot;index&quot;:null}" stroke="#000000"><path d="M340.72566,158.2818c6.85197,-7.53922 15.75888,-16.49472 30.80623,-12.21622c15.04734,4.2785 13.90811,15.89545 15.43986,25.23414c1.60985,9.8149 -41.18457,39.32088 -56.23191,35.04239c-15.04734,-4.2785 2.79601,-40.14937 9.98581,-48.06031z" fill="#a100fe" stroke-width="2"/><path d="M341.71199,158.21752c6.71318,-7.57868 9.04605,3.37682 23.58031,7.50943c14.53425,4.13261 19.69968,-4.23806 21.09022,5.0605c1.46143,9.77268 -41.07575,38.76203 -55.61001,34.62942c-14.53425,-4.13261 3.89531,-39.247 10.93946,-47.19934z" fill="#99008e" stroke-width="0"/></g><path d="M258.24868,164.26202c0.95781,0.27234 0.67251,1.16438 0.67251,1.16438l-0.0876,0.26048c-1.67121,3.89229 -3.10452,8.13141 -6.87486,10.7177c-2.34327,2.12349 -6.15949,2.6131 -6.38365,-1.44659c-0.25262,-4.57542 3.90684,-10.43508 6.38596,-14.04661c0,0 0.53745,-0.78289 1.38003,-0.27597c0.84257,0.50692 0.30513,1.28983 0.30513,1.28983c-2.25017,3.27764 -4.06456,6.54263 -5.25719,10.27165c-0.80503,2.51712 -1.00129,5.74716 2.27294,2.78002c3.49046,-2.38961 4.76973,-6.39342 6.31558,-9.99396l0.02807,-0.10118c0,0 0.2853,-0.89204 1.24309,-0.61971z" fill="#000000" stroke="none" stroke-width="0.5"/></g></g></g></svg>