<svg version="1.1" xmlns="http://www.w3.org/2000/svg" xmlns:xlink="http://www.w3.org/1999/xlink" width="240.20879" height="330.16005" viewBox="0,0,240.20879,330.16005"><g transform="translate(-146.19706,-0.41806)"><g data-paper-data="{&quot;isPaintingLayer&quot;:true}" fill-rule="nonzero" stroke-linejoin="miter" stroke-miterlimit="10" stroke-dasharray="" stroke-dashoffset="0" style="mix-blend-mode: normal"><g data-paper-data="{&quot;index&quot;:null}" stroke="#000000" stroke-linecap="butt"><path d="M298.86371,329.13374v-90.27109h61.17899v90.27109z" fill="#273750" stroke-width="2"/><path d="M299.65105,328.37717v-90.27109l18.42709,49.31565l42.75189,40.95544z" fill="#1f1e2e" stroke-width="0"/></g><g data-paper-data="{&quot;index&quot;:null}" stroke="#000000" stroke-linecap="butt"><path d="M246.25776,329.5781v-90.27109h61.17899v90.27109z" fill="#273750" stroke-width="2"/><path d="M247.04514,328.82151v-90.27109l18.42709,49.31565l42.75189,40.95544z" fill="#1f1e2e" stroke-width="0"/></g><g data-paper-data="{&quot;index&quot;:null}" stroke="#000000" stroke-linecap="butt"><path d="M147.2602,128.74561l49.56627,-3.02283l3.31463,50.89645l-49.56627,3.02283z" fill="#ffcaa0" stroke-width="2"/><g><path d="M196.6082,125.23748l68.34647,-4.16815l3.35782,51.55983l-68.34647,4.16815z" fill="#ff0008" stroke-width="2"/><path d="M199.69855,176.06857c0,0 -1.10202,-16.92154 -1.64863,-25.31499c-0.54084,-8.30462 -1.61392,-24.78205 -1.61392,-24.78205l35.79787,-2.18315c0,0 -13.69773,18.90548 -13.16919,27.02126c0.55745,8.5596 16.43175,23.07577 16.43175,23.07577l-35.79786,2.18315z" fill="#8d005e" stroke-width="0"/></g><path d="M147.7702,127.92225l18.43563,36.86523l34.44527,11.00839l-49.56627,3.02283z" fill="#ff6e5b" stroke-width="0"/></g><g data-paper-data="{&quot;index&quot;:null}" stroke="#000000" stroke-linecap="butt"><path d="M219.87312,12.94228c15.14908,0 27.42983,26.10753 27.42983,58.3128c0,32.20527 -12.28075,58.3128 -27.42983,58.3128c-15.14908,0 -27.42983,-26.10753 -27.42983,-58.3128c0,-32.20527 12.28075,-58.3128 27.42983,-58.3128z" fill="#01930e" stroke-width="2"/><path d="M246.88767,70.82092c0,32.20527 -12.28076,58.3128 -27.42983,58.3128c-15.14907,0 18.35855,-35.72183 18.35855,-67.9271c0,-32.20527 9.07128,-22.59097 9.07128,9.6143z" fill="#31525b" stroke-width="0"/></g><path d="M239.44157,238.45138v-113.80147h117.60005v113.80147z" data-paper-data="{&quot;index&quot;:null}" fill="#ff0008" stroke="#000000" stroke-width="2" stroke-linecap="butt"/><g data-paper-data="{&quot;index&quot;:null}" fill="#000000" stroke="#000000" stroke-linecap="butt"><path d="M266.02979,237.98216v-111.68333h63.22109v111.68333z" stroke-width="2"/><path d="M265.21614,237.04613l44.17891,-50.67005l19.04217,-61.01328v111.68333z" stroke-width="0"/></g><g data-paper-data="{&quot;index&quot;:null}" stroke="#000000" stroke-linecap="butt"><path d="M375.79398,69.68581c0,11.10283 -1.47147,36.61614 -7.62156,45.77754c-13.87886,20.67445 -43.34304,19.6932 -74.93897,19.6932c-29.88306,0 -63.53733,3.15028 -78.0293,-15.70582c-7.62054,-9.91539 -4.53123,-37.30378 -4.53123,-49.76492c0,-3.48625 -1.09472,-26.29915 -0.43288,-29.63798c6.20256,-31.29064 41.79276,-35.83276 82.99342,-35.83276c43.86116,0 78.8708,2.48597 81.5384,36.73529c0.10557,1.35538 1.02214,27.359 1.02214,28.73546z" fill="#ffcaa0" stroke-width="2"/><path d="M377.68852,69.69599c0,11.10283 -1.47147,36.61614 -7.62156,45.77754c-13.87886,20.67445 -43.34304,19.6932 -74.93897,19.6932c-29.88305,0 -64.21184,3.04149 -78.70381,-15.81461c-3.06382,-3.98647 65.06882,21.27155 103.76779,4.08965c49.38181,-21.92495 54.95883,-101.94005 56.47443,-82.48122c0.10557,1.35538 1.02214,27.359 1.02214,28.73546z" fill="#ff6e5b" stroke-width="0"/></g><g data-paper-data="{&quot;index&quot;:null}" stroke="#000000" stroke-linecap="butt"><path d="M356.35762,10.86837c15.14908,0 27.42983,26.10753 27.42983,58.3128c0,32.20527 -12.28075,58.3128 -27.42983,58.3128c-15.14908,0 -27.42983,-26.10753 -27.42983,-58.3128c0,-32.20527 12.28075,-58.3128 27.42983,-58.3128z" fill="#01930e" stroke-width="2"/><path d="M383.37217,68.747c0,32.20527 -12.28076,58.3128 -27.42983,58.3128c-15.14907,0 18.35855,-35.72183 18.35855,-67.9271c0,-32.20527 9.07128,-22.59097 9.07128,9.6143z" fill="#31525b" stroke-width="0"/></g><g data-paper-data="{&quot;index&quot;:null}" stroke-linecap="butt"><path d="M193.72249,32.39605c0,-17.66096 42.74089,-31.97799 95.46444,-31.97799c52.72356,0 95.46443,14.31702 95.46443,31.97798c0,17.66095 -42.74088,31.97799 -95.46443,31.97799c-52.72356,0 -95.46444,-14.31703 -95.46444,-31.97799z" fill="#000000" stroke="none" stroke-width="NaN"/><path d="M288.46107,41.58933c52.72356,0 96.94478,-26.50996 96.94478,-8.849c0,17.66095 -42.74088,31.97799 -95.46443,31.97799c-52.72356,0 -95.46444,-14.31703 -95.46444,-31.97799c0,-17.66096 41.26054,8.849 93.9841,8.849z" fill="#ff0000" stroke="#000000" stroke-width="2"/><path d="M288.84546,57.6233c52.72356,0 89.15691,-21.10222 91.64113,-16.87826c2.40526,4.08974 -13.76876,12.67227 -40.11483,18.15612c-14.19119,2.95385 -31.59588,4.58573 -50.04595,5.08703c-52.72356,1.43253 -90.28325,-17.19078 -90.28325,-22.05092c0,-4.86014 36.07934,15.68603 88.8029,15.68603z" fill="#900056" stroke="#000000" stroke-width="0"/></g><path d="M292.35096,92.15725c0,-15.71752 3.00204,-28.45909 6.70526,-28.45909c3.70321,0 6.70526,12.74156 6.70526,28.45908c0,15.71751 -3.00204,28.45908 -6.70526,28.45908c-3.70322,0 -6.70526,-12.74157 -6.70526,-28.45909z" data-paper-data="{&quot;index&quot;:null}" fill="#000000" stroke="none" stroke-width="0" stroke-linecap="butt"/><path d="M266.13239,66.02882c3.5083,0 6.35235,12.6906 6.35235,28.34525c0,15.65465 -2.84403,28.34525 -6.35235,28.34525c-3.5083,0 -6.35235,-12.6906 -6.35235,-28.34525c0,-15.65465 2.84403,-28.34525 6.35235,-28.34525z" data-paper-data="{&quot;index&quot;:null}" fill="#000000" stroke="none" stroke-width="0" stroke-linecap="butt"/><path d="M310.56971,65.41555h-31.00137" data-paper-data="{&quot;index&quot;:null}" fill="none" stroke="#000000" stroke-width="5" stroke-linecap="round"/><path d="M271.01362,68.95035l-24.11217,-4.52381" data-paper-data="{&quot;index&quot;:null}" fill="none" stroke="#000000" stroke-width="5" stroke-linecap="round"/><path d="M327.78122,114.41365c3.30609,5.29115 3.66237,10.9402 0.79577,12.6175c-2.86659,1.6773 -7.87055,-1.2523 -11.17663,-6.54345c-3.30609,-5.29115 -3.66237,-10.9402 -0.79577,-12.6175c2.86659,-1.6773 7.87055,1.2523 11.17663,6.54345z" fill="#000000" stroke="none" stroke-width="0" stroke-linecap="butt"/><g data-paper-data="{&quot;index&quot;:null}" stroke="#000000" stroke-linecap="butt"><path d="M251.61693,136.61561l49.32337,-5.62423l6.16714,50.64702l-49.32337,5.62423z" fill="#ffcaa0" stroke-width="2"/><g><path d="M300.69511,130.51827l68.01152,-7.7552l6.24752,51.30715l-68.01152,7.7552z" fill="#ff0008" stroke-width="2"/><path d="M306.63463,181.11182c0,0 -2.05039,-16.83861 -3.06743,-25.19093c-1.00627,-8.26393 -3.00284,-24.6606 -3.00284,-24.6606l35.62244,-4.06195c0,0 -12.61611,19.5977 -11.63272,27.6737c1.03717,8.51765 17.70299,22.17782 17.70299,22.17782l-35.62242,4.06195z" fill="#8d005e" stroke-width="0"/></g><path d="M252.07994,135.76666l20.47808,35.84156l35.01242,9.18123l-49.32337,5.62423z" fill="#ff6e5b" stroke-width="0"/></g></g></g></svg>