<svg version="1.1" xmlns="http://www.w3.org/2000/svg" xmlns:xlink="http://www.w3.org/1999/xlink" width="264.37887" height="310.8061" viewBox="0,0,264.37887,310.8061"><g transform="translate(-139.21446,-50.00977)"><g data-paper-data="{&quot;isPaintingLayer&quot;:true}" fill-rule="nonzero" stroke-linejoin="miter" stroke-miterlimit="10" stroke-dasharray="" stroke-dashoffset="0" style="mix-blend-mode: normal"><g stroke="#000000" stroke-linecap="butt"><path d="M251.67519,326.58483l36.09093,-88.19618l27.29506,11.16947l-36.09093,88.19619z" fill="#73fffc" stroke-width="2"/><path d="M251.60774,325.88955l36.74682,-86.29712c0,0 -20.98077,65.00891 -23.4576,74.1694c-0.54755,2.0251 1.27778,3.53731 1.27778,3.53731l12.24444,19.20705z" fill="#59a9e6" stroke-width="0"/></g><g stroke="#000000" stroke-linecap="butt"><path d="M347.17247,354.06232l-57.93711,-75.65985l23.4153,-17.93045l57.93712,75.65985z" fill="#73fffc" stroke-width="2"/><path d="M346.53815,353.76975l-55.96657,-75.26795c0,0 45.54153,50.91482 52.20084,57.67522c1.47217,1.49451 3.69876,0.68154 3.69876,0.68154l22.76097,-0.88063z" fill="#59a9e6" stroke-width="0"/></g><g stroke="#000000" stroke-linecap="butt"><path d="M251.67521,326.58483l36.09093,-88.19618l27.29506,11.16947l-36.09093,88.19619z" fill="#73fffc" stroke-width="2"/><path d="M251.60776,325.88955l36.74682,-86.29712c0,0 -20.98077,65.00891 -23.4576,74.1694c-0.54755,2.0251 1.27778,3.53731 1.27778,3.53731l12.24444,19.20705z" fill="#59a9e6" stroke-width="0"/></g><path d="M216.42643,334.22647c1.51965,-11.56337 14.88253,-8.00599 32.64094,-5.67219c14.20846,1.86726 28.82161,-7.08287 32.55995,-1.02767c0.93402,1.51288 -0.58823,12.83977 -0.89202,15.15131c-1.51965,11.56337 -17.1476,19.04542 -34.90601,16.71162c-17.75841,-2.3338 -30.92252,-13.59968 -29.40287,-25.16305z" data-paper-data="{&quot;index&quot;:null}" fill="#000082" stroke="#000000" stroke-width="2" stroke-linecap="butt"/><path d="M250.23943,329.2831c14.20846,1.86726 26.31227,-5.37381 30.38061,-1.82963c1.01647,0.88551 -0.48444,12.05007 -0.64875,13.30039c-0.82198,6.25463 -13.35742,7.59014 -31.11583,5.25634c-17.75841,-2.3338 -31.02479,-7.99232 -30.20281,-14.24696c0.82198,-6.25463 13.82838,-4.81394 31.58678,-2.48014z" data-paper-data="{&quot;index&quot;:null}" fill="#2e0048" stroke="#000000" stroke-width="0" stroke-linecap="butt"/><g stroke="#000000" stroke-linecap="butt"><path d="M402.49785,334.31892c1.35955,11.58329 -11.95915,22.666 -29.74814,24.75392c-17.78899,2.08792 -33.31195,-5.60959 -34.6715,-17.19288c-0.27178,-2.31552 -1.6372,-13.66238 -0.68234,-15.1622c3.82175,-6.0029 18.3097,3.14852 32.54263,1.47797c17.78899,-2.08792 31.1998,-5.46011 32.55935,6.12317z" fill="#000082" stroke-width="2"/><path d="M400.30592,331.82515c0.73538,6.2654 -12.608,11.73987 -30.397,13.8278c-17.78899,2.08792 -30.30476,0.57914 -31.04014,-5.68626c-0.147,-1.25247 -1.49333,-12.43673 -0.46472,-13.30809c4.11698,-3.48756 16.11947,3.92026 30.3524,2.24971c17.78899,-2.08792 30.81407,-3.34856 31.54946,2.91684z" fill="#2e0048" stroke-width="0"/></g><g><g stroke="#000000" stroke-linecap="butt"><path d="M314.99183,222.28771c24.72177,23.98885 39.72184,47.99041 33.50359,53.60899c-6.21826,5.61858 -31.30011,-9.27348 -56.02189,-33.26233c-24.72177,-23.98885 -39.72184,-47.99041 -33.50359,-53.60899c6.21826,-5.61858 31.30011,9.27348 56.02189,33.26234z" fill="#0d69be" stroke-width="2"/><path d="M359.57479,246.40668c10.61121,10.29662 10.06953,26.90563 -1.20989,37.09727c-11.27941,10.19163 -29.02527,10.10654 -39.63647,-0.19009c-10.61121,-10.29663 -10.06953,-26.90563 1.20989,-37.09727c11.27941,-10.19164 29.02527,-10.10653 39.63647,0.19009z" fill="#faddbf" stroke-width="2"/><path d="M320.38224,265.60237c10.61121,10.29663 48.9298,6.81859 37.6504,17.01023c-11.27941,10.19163 -29.02525,10.10653 -39.63647,-0.19009c-10.61121,-10.29663 -8.62514,-27.11676 1.98607,-16.82013z" fill="#ef8b89" stroke-width="0"/></g><g stroke="#000000" stroke-linecap="butt"><path d="M319.76425,236.22594c3.00188,13.51347 18.49667,33.9278 15.27994,44.47816c-3.93383,12.90236 -27.93847,14.73195 -38.73653,16.83505c-14.28567,2.78237 -33.53885,10.79168 -43.31791,-6.71275c-3.6568,-6.54563 -2.48749,-32.58105 -4.30365,-40.75682c-6.67298,-30.03953 3.82888,-57.49039 23.45657,-61.3132c19.62769,-3.82281 40.94859,17.43003 47.62158,47.46957z" fill="#0d69be" stroke-width="2"/><path d="M269.55149,261.9157c3.00188,13.51347 69.33917,7.48374 66.12243,18.03409c-3.93383,12.90235 -27.93847,14.73195 -38.73653,16.83505c-14.28567,2.78237 -33.53884,10.79167 -43.3179,-6.71274c-3.65681,-6.54563 -2.4875,-32.58106 -4.30365,-40.75682c-2.05576,-9.25436 -2.71844,-28.68065 -0.74649,-30.46417c2.56891,-17.6233 16.4099,22.48194 20.98215,43.06459z" fill="#10157d" stroke-width="0"/></g><g><g><path d="M262.35689,277.84415c-15.73597,-3.24276 -23.18506,-12.54647 -20.48634,-27.26801c2.11066,-11.51387 18.23369,-21.51911 33.96969,-18.27634c15.73605,3.24274 24.92954,15.11957 21.50095,29.70732c-0.53616,2.28125 -1.75406,4.23758 -2.84855,6.03411c-5.90448,9.69143 -18.86054,12.53858 -32.13573,9.80293z" fill="#0000c4" stroke="#000000" stroke-width="2" stroke-linecap="butt"/><path d="M261.32666,234.51294c0,0 -1.77756,5.51005 -0.37993,7.02686c13.40628,14.54967 27.77482,18.57508 32.63565,19.56688c1.10438,0.22534 1.92634,-0.59226 1.92634,-0.59226c0,0 -0.25098,2.10069 -1.48415,4.58678c-1.31218,2.64543 -3.68646,5.73758 -6.33403,7.55397c-3.0243,2.0748 -11.31992,5.1032 -11.31992,5.1032l-22.33243,-1.25665c0,0 -8.75304,-10.66679 -9.44407,-12.73519c-0.67699,-2.02633 -0.85739,-4.60591 -1.1671,-7.34138c-0.48083,-4.24722 0.71435,-8.64659 2.2804,-11.12539c1.99868,-3.1635 5.78016,-6.19903 9.2863,-8.14433c3.26313,-1.81046 6.3329,-2.64237 6.3329,-2.64237z" fill="#2e006f" stroke="none" stroke-width="0" stroke-linecap="butt"/><path d="M258.20469,258.77446c0,0 0.07655,-9.02181 3.4628,-13.08709c4.2866,-5.14623 15.50935,-12.74049 15.50935,-12.74049" fill="none" stroke="#000000" stroke-width="1" stroke-linecap="round"/><path d="M297.22054,254.91967c0,0 -3.17675,6.50244 -6.02718,9.87112c-2.8776,3.40088 -11.76302,8.39397 -11.76302,8.39397" fill="none" stroke="#000000" stroke-width="1" stroke-linecap="round"/><path d="M246.51586,259.52533c0,0 -0.06916,-9.26187 3.81278,-13.50879c5.95673,-6.51675 15.68202,-13.69792 15.68202,-13.69792" fill="none" stroke="#000000" stroke-width="1" stroke-linecap="round"/><path d="M245.53636,244.26894c0,0 16.72801,-7.35738 32.921,1.22417c17.73735,9.39999 13.43815,26.17154 13.43815,26.17154" fill="none" stroke="#000000" stroke-width="1" stroke-linecap="round"/><path d="M242.04454,253.21405c0,0 18.3019,-4.81445 32.60828,2.7293c11.74684,6.19411 9.53683,20.63838 9.53683,20.63838" fill="none" stroke="#000000" stroke-width="1" stroke-linecap="round"/><path d="M287.48275,243.17355c-0.92501,-0.83486 -1.10264,-2.06748 -0.39681,-2.75314c0.7058,-0.68573 1.3349,-0.15002 2.25991,0.68484c0.92501,0.83486 1.79559,1.6527 1.08976,2.33838c-0.7058,0.68573 -2.02789,0.56477 -2.95283,-0.27009z" fill="#8fbbbe" stroke="none" stroke-width="0" stroke-linecap="butt"/><path d="M292.28733,248.88491c-0.62735,-0.12929 -0.96803,-0.94837 -0.76093,-1.82951c0.20709,-0.88114 0.42157,-1.21413 1.04891,-1.08487c0.62735,0.12929 1.15737,0.98739 0.95024,1.86852c-0.20709,0.88114 -0.61091,1.17512 -1.23825,1.04583z" fill="#8fbbbe" stroke="none" stroke-width="0" stroke-linecap="butt"/><path d="M282.11552,238.4189c-0.91363,-0.28673 -1.48874,-0.98141 -1.28463,-1.55172c0.20405,-0.57028 0.98521,-0.26841 1.89882,0.01828c0.91363,0.28673 1.61374,0.44959 1.40964,1.01989c-0.20405,0.57028 -1.11022,0.80023 -2.02381,0.51352z" fill="#8fbbbe" stroke="none" stroke-width="0" stroke-linecap="butt"/><path d="M256.80929,235.99817c0,0 10.85584,-1.16297 18.66643,0.81995c4.4282,1.12424 7.91656,3.54648 10.53927,5.41064c2.31942,1.64855 5.80171,7.35764 7.98146,11.98716c1.60484,3.40846 2.31115,6.27718 2.31115,6.27718" fill="none" stroke="#000000" stroke-width="0.5" stroke-linecap="round"/><path d="M292.943,241.02819c0,0 -2.84901,10.23041 -6.24703,14.60002c-2.8629,3.68151 -12.43351,9.98663 -12.43351,9.98663" fill="none" stroke="#000000" stroke-width="1" stroke-linecap="round"/><path d="M268.76858,262.80998c0,0 2.716,-9.32526 5.11972,-13.24762c4.22048,-6.88691 13.47375,-12.65793 13.47375,-12.65793" fill="none" stroke="#000000" stroke-width="1" stroke-linecap="round"/></g><g stroke="#000000" stroke-linecap="butt"><path d="M238.84262,257.69356c30.81454,16.69703 31.95393,26.28435 27.62582,33.28765c-4.32811,7.0033 -32.81688,-0.85503 -63.63142,-17.55207c-30.81454,-16.69703 42.30186,-39.68079 46.62996,-46.68408c6.76672,-3.19094 7.63077,3.2854 3.74945,10.25303c-4.78658,8.59271 -17.00772,19.26827 -14.37382,20.69547z" fill="#0d69be" stroke-width="2"/><path d="M268.45848,259.77517c13.22639,7.16679 17.58413,23.27475 9.73329,35.97815c-7.85083,12.70341 -24.93731,17.19172 -38.1637,10.02494c-13.22639,-7.16679 -17.58412,-23.27477 -9.73328,-35.97817c7.85083,-12.70341 24.93731,-17.19172 38.16368,-10.02493z" fill="#faddbf" stroke-width="2"/><path d="M236.41576,288.32395c13.22639,7.16679 49.04559,-6.0454 41.19475,6.658c-7.85083,12.70341 -24.93731,17.19172 -38.16368,10.02493c-13.22639,-7.16679 -16.25745,-23.84972 -3.03106,-16.68292z" fill="#ef8b89" stroke-width="0"/></g></g><g stroke-linecap="butt"><g data-paper-data="{&quot;index&quot;:null}"><g stroke="#000000"><g><path d="M227.49973,222.90375c-49.87568,-2.8864 -87.80899,-43.08549 -84.72641,-89.78716c3.08257,-46.70168 46.01372,-82.22098 95.88939,-79.33456c49.87568,2.8864 87.80898,43.08549 84.7264,89.78716c-3.08257,46.70168 -46.01372,82.22098 -95.88939,79.33457z" fill="#faddbf" stroke-width="2"/><path d="M323.20041,142.6871c-3.08257,46.70168 -46.01372,82.22097 -95.88939,79.33456c-6.46263,-0.374 -19.58298,-3.0971 -22.05885,-4.0509c-1.54777,-0.59627 29.42514,-5.18961 51.91734,-17.21982c12.0691,-6.45531 19.65435,-20.45473 23.04252,-25.01016c1.7541,-0.33823 7.74295,-19.6704 7.75006,-19.73041c2.98669,-25.16534 -20.0862,-88.90336 -11.42272,-90.97791c0.66401,-0.15901 12.97174,7.37447 22.38552,16.28338c7.57385,7.16766 12.63005,16.01979 13.15477,16.41793c4.59457,3.4862 12.11257,29.9277 11.1208,44.95332z" fill="#ef8b89" stroke-width="0"/><path d="M143.36146,132.69155c2.40726,-36.47056 49.67403,-44.98264 90.94769,-21.95435c43.11962,24.05823 91.12735,-1.54418 88.72008,34.92638c-1.19715,18.13722 -9.55698,9.63379 -23.52586,-3.83809c-2.89315,-2.79021 -14.44301,9.48695 -17.80357,6.46303c-4.28349,-3.85439 -8.0274,-9.39091 -11.79972,-15.12772c-3.03758,-4.61946 -15.43716,11.65018 -18.80809,7.54466c-5.18746,-6.3179 -4.93869,-13.32766 -12.6985,-13.77674c-2.91786,-0.16886 -11.52464,11.09652 -14.44537,11.25548c-2.2648,0.12327 -9.1532,-12.5108 -11.37894,-12.27657c-4.04188,0.42536 -13.77537,10.13122 -17.57007,11.0377c-1.5215,0.36346 -12.78316,-9.1554 -14.24053,-8.76618c-2.08437,0.55669 -10.1003,9.51486 -11.97732,10.17912c-2.98835,1.05754 -11.08938,-6.87331 -13.454,-5.83615c-9.75833,4.28012 -9.87906,12.21277 -10.60384,14.06353c-0.71044,1.81414 -2.12773,-2.29191 -1.36192,-13.89411z" fill="#ef8b89" stroke-width="0"/></g><path d="M142.27395,124.30187c2.40726,-36.47056 49.35774,-75.9813 98.31249,-73.14818c48.95476,2.83311 88.49958,49.9238 86.09232,86.39436c-1.19715,18.13722 -9.79108,9.62024 -24.14986,-3.87421c-2.97389,-2.79489 -14.80557,9.46597 -18.25955,6.43665c-4.40256,-3.86129 -8.25431,-9.40405 -12.13555,-15.14716c-3.12527,-4.62453 -15.82206,11.6279 -19.28857,7.51685c-5.33452,-6.3264 -5.09136,-13.3365 -13.05557,-13.79741c-2.99472,-0.17331 -11.80783,11.08012 -14.80493,11.23467c-2.32402,0.11984 -9.41505,-12.52595 -11.69879,-12.29507c-4.1472,0.41926 -14.11929,10.11132 -18.01198,11.01213c-1.56078,0.36118 -13.13444,-9.17574 -14.62938,-8.78868c-2.13812,0.55358 -10.34886,9.50047 -12.27399,10.16196c-3.06494,1.05311 -11.39227,-6.89084 -13.81716,-5.85717c-19.81595,8.44705 -13.82655,23.58988 -12.27947,0.15126z" fill="#873412" stroke-width="2"/><path d="M142.61465,123.15658c2.40726,-36.47056 50.8996,-44.91172 93.29619,-21.81843c44.29277,24.12612 93.51589,-1.40595 91.10864,35.06461c-1.19715,18.13722 -9.79108,9.62023 -24.14986,-3.87421c-2.97389,-2.79489 -14.80557,9.46597 -18.25955,6.43665c-4.40257,-3.86129 -8.25432,-9.40405 -12.13556,-15.14716c-3.12527,-4.62453 -15.82206,11.6279 -19.28857,7.51686c-5.33452,-6.3264 -5.09136,-13.3365 -13.05557,-13.79741c-2.99472,-0.17331 -11.80783,11.08012 -14.80493,11.23467c-2.32402,0.11984 -9.41505,-12.52595 -11.69879,-12.29508c-4.1472,0.41926 -14.11929,10.11133 -18.01198,11.01213c-1.56078,0.36118 -13.13444,-9.17574 -14.62938,-8.78868c-2.13813,0.55357 -10.34887,9.50048 -12.274,10.16196c-3.06494,1.05311 -11.39227,-6.89084 -13.81716,-5.85717c-19.81595,8.44705 -13.82655,23.58989 -12.27947,0.15127z" fill="#741d23" stroke-width="0"/></g><path d="M237.36869,61.36796c0.06446,-0.09332 0.14004,-0.17491 0.22452,-0.24714c0.52628,-0.57242 1.32233,-0.91573 2.18955,-0.86554c0.97807,0.0566 1.80048,0.59945 2.21549,1.36172c1.26284,0.7762 0.13686,2.82883 0.0896,4.24263c-0.13398,4.008 3.22607,9.65901 -1.57355,11.87123c-0.43367,0.19988 -1.02991,-0.67831 -1.42343,-0.65458c-4.07801,0.24599 -3.24655,-0.9203 -4.40002,-4.00023c-0.23693,-0.63262 -1.42997,0.31516 -2.13646,0.20661c-1.74208,-0.26769 -2.03464,-3.70784 -2.14807,-3.01152c-0.24773,1.52075 -0.07332,2.69758 -1.81976,3.50253c-0.7143,0.32922 -2.03435,-1.0437 -2.35689,-0.36214c-0.6989,1.47684 -0.07905,4.07875 -2.92763,3.82736c-0.8239,-0.07271 -1.92786,-0.76237 -2.2675,-1.46405c-0.4422,-0.91354 -1.44989,-3.65539 -1.51382,-2.65418c-0.10354,1.62125 2.0698,3.57944 0.69575,5.27285c-2.52681,3.11407 -6.08231,-0.46633 -6.76448,-0.57744c-0.19222,-0.03131 0.68307,1.60855 0.72667,1.86662c0.12135,0.71806 -0.39057,1.79832 -0.86675,2.38515c-0.39055,0.48135 -9.49717,0.48466 -10.39242,0.38594c-1.01335,-0.11175 -1.15611,-2.38743 -2.1182,-2.06923c-1.08895,0.36017 -2.33256,1.01128 -3.40357,0.60667c-0.4452,-0.16819 -1.90702,-3.34247 -2.33299,-3.11026c-0.17542,0.09562 1.46893,2.20688 1.19211,2.8294c-0.47689,1.07244 -2.06436,2.93313 -3.30245,3.09407c-4.19461,0.54532 -3.67537,-2.82029 -5.42781,-2.79845c-0.78346,0.00976 -1.22064,1.07757 -1.99955,1.15709c-0.57853,0.05907 -1.69733,-0.92534 -1.69793,-0.38042c-0.00132,1.17878 -0.86415,3.42167 -2.34437,3.92199c-1.15545,0.39056 -2.53049,-1.66089 -3.52976,-0.99187c-2.88015,1.92829 -5.17578,-0.59825 -5.88791,-3.39921c-0.65603,-2.5803 2.29726,-3.13613 4.16462,-3.2436c0.79221,-0.04559 -0.3507,-1.51203 -0.13105,-2.22621c0.41793,-1.35892 1.81912,-2.02313 3.22744,-1.93841c1.69579,0.10201 2.64972,0.87568 4.19669,1.52882c0.23652,0.09985 1.74547,-0.81552 2.00991,-0.88138c0.68211,-0.16993 2.23256,1.12372 2.05337,0.48444c-1.41589,-5.05152 3.91423,-6.19458 7.85398,-3.70778c0.77164,0.48707 1.63926,-0.89846 2.55497,-1.0537c0.45652,-0.0774 2.34327,0.7555 3.29773,0.82597c0.95662,0.07064 1.95723,1.64087 2.66049,1.02956c1.25114,-1.08753 1.7886,-5.04321 2.02744,-5.18252c1.38476,-0.80769 2.20622,-1.46231 3.7126,-0.64429c1.08916,0.59146 2.06194,2.79164 3.06027,2.07323c0.56945,-0.40979 0.48311,-2.02958 1.50247,-2.49943c1.93459,-0.89168 4.5474,0.62362 6.06318,1.35764c0.34057,0.16494 0.72448,0.9485 0.92381,0.64178c0.62295,-0.95849 -0.04291,-2.33317 1.11155,-3.18639c0.67,-0.49518 3.38785,-0.14335 3.44223,-0.19787c0.64699,-0.6486 0.4846,-2.01367 1.49241,-2.49395c3.04311,-1.45022 4.56361,1.50339 6.36514,3.22938c0.29685,0.28441 0.76629,-0.39645 1.18974,-0.427c0.69129,-0.04988 1.80518,1.41108 1.91085,0.76944c0.08042,-0.48839 0.00736,-1.87227 0.19812,-2.99972c0.02218,-0.29031 0.09659,-0.56569 0.21408,-0.81854c0.05668,-0.14385 0.12268,-0.27374 0.19963,-0.38514z" fill="#ba587e" stroke="none" stroke-width="0.5"/></g><g data-paper-data="{&quot;index&quot;:null}" stroke="#000000"><path d="M254.30755,114.07289c17.66089,1.02207 30.45265,24.95812 28.5712,53.46267c-1.88146,28.50455 -17.44941,42.36224 -35.1103,41.34017c-17.66089,-1.02208 -30.72693,-16.53687 -28.84545,-45.04142c1.88146,-28.50455 17.72368,-50.78349 35.38456,-49.76142z" fill="#f0f0f0" stroke-width="2"/><path d="M282.2555,166.66765c-1.88146,28.50455 -17.44941,42.36224 -35.1103,41.34017c-17.66089,-1.02208 25.63245,-32.38974 22.90619,-60.83436c-3.94138,-41.12251 14.08557,-9.01035 12.20412,19.49419z" fill="#9a99ff" stroke-width="0"/></g><path d="M270.95642,145.28721c6.16541,0.3568 10.31844,13.44806 9.27607,29.24014c-1.04237,15.79208 -6.88541,28.30484 -13.05082,27.94804c-6.16541,-0.3568 -10.31844,-13.44807 -9.27607,-29.24014c1.04237,-15.79208 6.88541,-28.30484 13.05082,-27.94804z" data-paper-data="{&quot;index&quot;:null}" fill="#000000" stroke="none" stroke-width="0"/><g data-paper-data="{&quot;index&quot;:null}" stroke="#000000"><path d="M226.24125,134.16583c5.17239,-9.46841 12.11443,-20.89409 28.86045,-19.92497c16.74603,0.96913 18.56563,13.36804 22.57233,22.7661c4.21099,9.87727 -33.01515,49.61816 -49.76118,48.64904c-16.74603,-0.96913 -7.09902,-41.55492 -1.67161,-51.49016z" fill="#a100fe" stroke-width="2"/><path d="M227.24978,133.86928c5.01792,-9.47734 10.27532,1.42312 26.45036,2.35921c16.17503,0.93608 19.37949,-9.00853 23.22902,0.38045c4.04582,9.86771 -32.70619,48.76481 -48.88123,47.82874c-16.17503,-0.93609 -6.06347,-40.62376 -0.79815,-50.56838z" fill="#99008e" stroke-width="0"/></g><g data-paper-data="{&quot;index&quot;:null}" stroke="#000000"><path d="M215.29384,165.77289c-1.88146,28.50456 -16.88839,42.39471 -34.54928,41.37264c-17.6609,-1.02208 -31.28795,-16.56934 -29.40647,-45.07389c1.88146,-28.50455 17.72367,-50.78349 35.38456,-49.76142c17.6609,1.02207 30.45266,24.95812 28.5712,53.46267z" fill="#f0f0f0" stroke-width="2"/><path d="M166.74562,143.34354c-6.44625,27.91378 32.3925,64.03461 14.73159,63.01253c-17.6609,-1.02208 -31.28795,-16.56935 -29.40647,-45.07389c1.88146,-28.50455 23.99425,-58.29372 14.67488,-17.93864z" fill="#9a99ff" stroke-width="0"/></g><path d="M208.07325,175.49245c-1.04237,15.79208 -6.88541,28.30484 -13.05081,27.94804c-6.16541,-0.3568 -10.31844,-13.44806 -9.27608,-29.24014c1.04237,-15.79208 6.88541,-28.30484 13.05082,-27.94804c6.16541,0.3568 10.31844,13.44806 9.27607,29.24014z" data-paper-data="{&quot;index&quot;:null}" fill="#000000" stroke="none" stroke-width="0"/><g data-paper-data="{&quot;index&quot;:null}" stroke="#000000"><path d="M211.93296,135.48637c4.07952,10.48542 7.80694,52.85505 -8.93908,51.88592c-16.74603,-0.96913 -47.95379,-45.68025 -42.4759,-54.99681c5.21214,-8.86455 8.64845,-20.95928 25.39449,-19.99015c16.74603,0.96913 22.13266,13.10829 26.0205,23.10104z" fill="#a100fe" stroke-width="2"/><path d="M210.9711,135.07579c3.91744,10.47604 8.52961,52.28966 -7.64542,51.35357c-16.17503,-0.93609 -47.32887,-45.03688 -42.01616,-54.36298c5.05497,-8.87365 6.92723,1.36476 23.10227,2.30084c16.17503,0.93608 22.82592,-9.27523 26.5593,0.70856z" fill="#99008e" stroke-width="0"/></g><path d="M307.22187,178.02435c-0.07462,5.61764 -7.68574,12.32524 -13.32927,12.25952c-5.64353,-0.06572 -0.72911,-7.49445 -0.65449,-13.11209c0.07462,-5.61764 -1.74318,-9.50379 3.90035,-9.43807c5.64353,0.06572 10.15803,4.67299 10.08341,10.29062z" fill="#000000" stroke="none" stroke-width="0"/></g></g></g></g></svg>