<svg version="1.1" xmlns="http://www.w3.org/2000/svg" xmlns:xlink="http://www.w3.org/1999/xlink" width="202.04226" height="300.70793" viewBox="0,0,202.04226,300.70793"><g transform="translate(-214.55041,-60.27951)"><g data-paper-data="{&quot;isPaintingLayer&quot;:true}" fill-rule="nonzero" stroke-linejoin="miter" stroke-miterlimit="10" stroke-dasharray="" stroke-dashoffset="0" style="mix-blend-mode: normal"><g stroke="#000000" stroke-linecap="butt"><path d="M333.43461,231.372c28.02963,18.04603 47.20137,38.19037 42.82129,44.99368c-4.3801,6.80332 -30.65341,-2.31071 -58.68303,-20.35671c-28.02963,-18.04603 -47.20137,-38.19037 -42.82129,-44.99368c4.3801,-6.80332 30.65341,2.31071 58.68303,20.35672z" fill="#0d69be" stroke-width="2"/><path d="M379.59647,245.28307c12.03101,7.7458 15.3433,24.02908 7.39816,36.36976c-7.94513,12.34065 -24.13902,16.06553 -36.17008,8.31972c-12.03103,-7.74581 -15.3433,-24.02908 -7.39816,-36.36976c7.94515,-12.34065 24.13905,-16.06551 36.17008,-8.31972z" fill="#faddbf" stroke-width="2"/><path d="M348.27328,272.37748c12.03103,7.74581 46.15937,-3.86165 38.21423,8.479c-7.94513,12.34065 -24.13902,16.06552 -36.17008,8.31972c-12.03103,-7.74581 -14.07519,-24.54451 -2.04416,-16.79872z" fill="#ef8b89" stroke-width="0"/></g><g stroke="#000000" stroke-linecap="butt"><path d="M307.76518,341.21813v-95.29492h29.49199v95.29492z" fill="#73fffc" stroke-width="2"/><path d="M307.43943,340.6002l1.32626,-93.78573c0,0 5.20288,68.11227 6.3799,77.52842c0.2602,2.08162 2.52228,2.78987 2.52228,2.78987l18.60659,13.13896z" fill="#59a9e6" stroke-width="0"/></g><g stroke="#000000" stroke-linecap="butt"><path d="M268.4238,338.41288v-95.29492h29.49199v95.29492z" fill="#73fffc" stroke-width="2"/><path d="M268.09805,337.79495l1.32626,-93.78573c0,0 5.20288,68.11227 6.3799,77.52842c0.2602,2.08162 2.52228,2.78987 2.52228,2.78987l18.60659,13.13896z" fill="#59a9e6" stroke-width="0"/></g><g stroke="#000000" stroke-linecap="butt"><path d="M335.22917,235.69588c0,13.80271 10.04743,36.74388 4.95001,46.45977c-6.2338,11.88187 -28.61241,9.09579 -38.9397,9.09579c-13.66287,0 -32.94407,4.17018 -38.34426,-14.83216c-2.01935,-7.10576 4.35457,-32.37264 4.35457,-40.7234c0,-30.68249 15.2177,-55.55556 33.98969,-55.55556c18.77199,0 33.98969,24.87307 33.98969,55.55556z" fill="#0d69be" stroke-width="2"/><path d="M283.96554,251.27245c0,13.80271 62.04198,20.54886 56.94455,30.26474c-6.2338,11.88186 -28.61241,9.09579 -38.9397,9.09579c-13.66287,0 -32.94406,4.17018 -38.34425,-14.83215c-2.01936,-7.10576 4.35457,-32.37265 4.35457,-40.7234c0,-9.45244 3.34855,-28.59801 5.51953,-29.96813c5.94391,-16.76415 10.4653,25.13995 10.4653,46.16315z" fill="#10157d" stroke-width="0"/></g><g stroke-linecap="butt"><g stroke="#000000"><g><path d="M250.19702,116.83476c17.4225,-43.4262 66.75012,-64.50636 110.17631,-47.08385c43.4262,17.4225 64.50636,66.75012 47.08385,110.17631c-17.4225,43.4262 -66.75012,64.50636 -110.17631,47.08385c-43.4262,-17.4225 -64.50636,-66.75012 -47.08385,-110.17631z" fill="#faddbf" stroke-width="2"/><path d="M250.73496,116.1137c5.60545,-13.97177 23.30522,-34.83864 28.68683,-36.14275c0.61459,-0.14894 8.68807,-6.11501 18.1687,-9.54832c11.78377,-4.26737 25.42552,-6.13004 25.919,-5.71973c6.4384,5.35328 -40.41492,53.6654 -48.68177,77.59811c-0.01972,0.05707 -3.24534,19.926 -1.90667,20.93599c0.91216,5.47587 1.32404,21.16855 8.76428,31.8469c13.86577,19.90036 38.09471,36.48844 36.52977,36.4055c-2.50334,-0.13267 -14.76933,-2.94186 -20.39628,-5.19937c-43.4262,-17.4225 -64.50636,-66.75012 -47.08385,-110.17631z" fill="#ef8b89" stroke-width="0"/><path d="M407.142,179.30706c-4.32831,10.78847 -7.28821,13.92851 -7.11108,12.00439c0.1807,-1.96297 3.48083,-9.17746 -2.93772,-16.96286c-1.55534,-1.88656 -11.80922,2.02447 -13.8834,-0.13098c-1.30282,-1.35388 -4.24115,-12.66546 -5.7655,-14.00544c-1.0658,-0.93689 -14.67424,3.13938 -15.80534,2.20002c-2.82103,-2.34281 -6.89152,-15.01962 -10.12798,-17.02707c-1.78222,-1.10545 -13.02755,7.54125 -14.89039,6.52036c-2.40238,-1.31656 -4.85095,-14.94966 -7.3915,-15.96893c-6.75638,-2.71064 -9.55239,3.72158 -16.64998,7.34561c-4.61219,2.35499 -8.1227,-17.32193 -12.67333,-14.3688c-5.65135,3.66743 -11.19277,7.16533 -16.46915,8.92698c-4.13952,1.38209 -8.64362,-14.34696 -12.28754,-12.98829c-17.59381,6.56003 -28.31217,10.88438 -21.5459,-5.98076c13.60569,-33.91265 43.23323,8.49523 90.02511,4.07882c44.78871,-4.22734 81.1194,22.44432 67.51371,56.35697z" fill="#ef8b89" stroke-width="0"/></g><path d="M411.66013,172.16492c-8.744,21.79472 2.81689,10.52069 -10.32193,-5.06805c-1.60781,-1.90761 -12.05873,1.92437 -14.19959,-0.25783c-1.3447,-1.37068 -4.45266,-12.75032 -6.0238,-14.10907c-1.09851,-0.95001 -14.9786,3.01727 -16.14392,2.06418c-2.90636,-2.37705 -7.18459,-15.1372 -10.51276,-17.18144c-1.83272,-1.12571 -13.25448,7.4502 -15.16889,6.40863c-2.46887,-1.34324 -5.0971,-15.04842 -7.70456,-16.09453c-6.93435,-2.78205 -9.73524,3.64822 -16.96088,7.22088c-4.6954,2.3216 -8.46466,-17.45913 -13.09166,-14.53664c-5.74618,3.62939 -11.38149,7.08962 -16.76155,8.80967c-4.22086,1.34945 -8.97033,-14.47804 -12.68455,-13.14757c-17.93328,6.42383 -28.85546,10.66641 -22.0892,-6.19873c13.60569,-33.91265 67.25218,-60.5712 109.87655,-43.47039c42.62436,17.10081 65.39245,71.64827 51.78677,105.56092z" fill="#873412" stroke-width="2"/><path d="M411.86317,170.9935c-8.744,21.79472 2.81689,10.52069 -10.32193,-5.06805c-1.60781,-1.90761 -12.05873,1.92437 -14.19959,-0.25783c-1.3447,-1.37068 -4.45266,-12.75032 -6.02381,-14.10907c-1.09851,-0.95001 -14.9786,3.01727 -16.14392,2.06418c-2.90636,-2.37705 -7.18459,-15.1372 -10.51276,-17.18144c-1.83272,-1.12571 -13.25448,7.4502 -15.16889,6.40863c-2.46887,-1.34324 -5.0971,-15.04842 -7.70456,-16.09453c-6.93435,-2.78205 -9.73524,3.64822 -16.96088,7.22088c-4.6954,2.3216 -8.46466,-17.45913 -13.09166,-14.53664c-5.74618,3.62939 -11.38149,7.08962 -16.76156,8.80967c-4.22086,1.34945 -8.97033,-14.47804 -12.68455,-13.14757c-17.93328,6.42383 -28.85546,10.66641 -22.0892,-6.19873c13.60569,-33.91265 44.29146,8.91979 92.10479,4.91318c45.76643,-3.83508 83.1642,23.26469 69.55852,57.17734z" fill="#741d23" stroke-width="0"/></g><path d="M358.21439,77.12334c0.01731,0.13153 0.01743,0.27538 0.00368,0.42809c-0.00907,0.27559 -0.06424,0.55423 -0.16999,0.8254c-0.32221,1.09509 -0.97753,2.3159 -1.11897,2.78938c-0.18582,0.62206 1.38298,-0.25037 1.94633,0.07231c0.34508,0.19767 0.45014,1.00123 0.82322,0.86353c2.26412,-0.8357 4.81705,-2.89322 6.76913,-0.36106c0.64649,0.8386 -0.07634,2.00653 0.19276,2.85227c0.02262,0.0711 2.47245,0.84476 2.82681,1.56115c0.61058,1.23439 -0.54223,2.20881 -0.42639,3.32484c0.03706,0.35712 0.69785,-0.19654 1.05667,-0.20876c1.59695,-0.05436 4.45694,-0.37392 5.71093,1.20852c0.66074,0.83381 -0.107,2.26239 0.19892,2.86126c0.53633,1.0499 2.3028,-0.54697 3.47777,-0.64386c1.62505,-0.13401 2.03913,0.78725 2.86405,2.07299c0.14228,0.22176 -1.09966,4.01099 -0.5078,5.49588c0.33269,0.83465 1.85253,-0.18198 2.692,0.13838c0.83758,0.31965 2.79073,0.32496 3.14369,0.57822c0.70799,0.50799 0.84764,2.10805 1.70925,1.97795c4.39908,-0.66426 8.4174,2.50888 5.0532,6.50359c-0.42574,0.50555 1.44055,-0.04044 1.94466,0.38701c0.19543,0.1657 1.07922,1.5986 1.3221,1.60338c1.58866,0.03125 2.72736,-0.28455 4.20554,0.30432c1.2276,0.48905 2.12794,1.65178 1.89863,3.04721c-0.12051,0.73336 -1.71621,1.59909 -1.06565,1.95842c1.53344,0.84701 3.79315,2.53516 2.13157,4.60263c-1.80367,2.24427 -4.82908,3.60472 -6.43828,0.70613c-0.55832,-1.00566 -2.60127,0.29529 -3.41113,-0.52154c-1.03749,-1.04642 -0.80537,-3.41908 -0.30092,-4.48445c0.2332,-0.49249 -1.13536,-0.05254 -1.59939,-0.33823c-0.62475,-0.38464 -0.53658,-1.52482 -1.19509,-1.84828c-1.47297,-0.72349 -2.47724,2.52535 -5.79145,0.3482c-0.97823,-0.64261 -1.52299,-2.961 -1.46641,-4.12131c0.03284,-0.67353 2.32925,-1.92037 2.22187,-2.0772c-0.26072,-0.38084 -2.85866,1.8996 -3.30737,1.87275c-1.07947,-0.06462 -1.85213,-1.15222 -2.61878,-1.9149c-0.67734,-0.67383 -1.7741,1.32459 -2.6792,1.01858c-0.79961,-0.27035 -8.50118,-3.93054 -8.6251,-4.52222c-0.15109,-0.72135 -0.1208,-1.9028 0.28982,-2.50273c0.14757,-0.21561 1.59126,-1.34548 1.41524,-1.39438c-0.62467,-0.17359 -5.16776,1.63291 -5.96951,-2.19496c-0.43598,-2.08157 2.24223,-2.97771 2.84998,-4.48385c0.37532,-0.93012 -1.65301,1.14206 -2.41886,1.78973c-0.58823,0.49747 -1.81783,0.67712 -2.54592,0.41193c-2.51735,-0.91688 -0.87709,-3.01842 -0.83487,-4.6332c0.01949,-0.74521 -1.68594,-0.03511 -2.14893,-0.61937c-1.13201,-1.42851 -0.47977,-2.42157 -0.03708,-3.89484c0.2027,-0.67458 -1.52023,2.31561 -3.1086,1.85782c-0.64416,-0.18566 -1.24682,-1.52097 -1.71856,-1.04464c-2.29665,2.31904 -2.09354,3.70653 -5.4375,1.84659c-0.32269,-0.17948 -1.20368,0.37439 -1.48477,0.01967c-3.11105,-3.92594 2.15479,-7.68144 3.76046,-11.35589c0.56639,-1.29614 0.49431,-3.60258 1.89542,-3.79662c0.67797,-0.52194 1.60645,-0.68204 2.45803,-0.34039c0.75507,0.30293 1.2812,0.93275 1.48085,1.6612c0.04049,0.09918 0.06942,0.20324 0.08392,0.31343z" fill="#ba587e" stroke="none" stroke-width="0.5"/></g><g stroke="#000000" stroke-linecap="butt"><path d="M345.38795,189.68738c-10.63389,26.50535 -28.34019,35.27344 -43.71734,29.10417c-15.37714,-6.16928 -22.60212,-24.93976 -11.96823,-51.4451c10.63389,-26.50535 31.72,-42.99098 47.09715,-36.8217c15.37714,6.16928 19.22231,32.65729 8.58842,59.16264z" fill="#f0f0f0" stroke-width="2"/><path d="M309.28577,154.10367c-14.50572,24.60075 8.66141,70.32343 -6.71573,64.15415c-15.37714,-6.16928 -22.60212,-24.93976 -11.96823,-51.4451c10.63389,-26.50535 39.65494,-48.27447 18.68396,-12.70905z" fill="#9a99ff" stroke-width="0"/></g><path d="M338.70791,195.87852c-5.89138,14.68448 -15.01904,24.8427 -20.38718,22.68901c-5.36814,-2.15369 -4.94398,-15.80373 0.94741,-30.48821c5.89138,-14.68448 15.01904,-24.8427 20.38718,-22.68901c5.36814,2.15369 4.94398,15.80373 -0.94741,30.48821z" fill="#000000" stroke="none" stroke-width="0" stroke-linecap="butt"/><g stroke="#000000" stroke-linecap="butt"><path d="M351.92223,159.94722c0.32973,11.15469 -3.58266,33.98277 -18.16324,28.13307c-14.58058,-5.8497 -34.35888,-38.99025 -26.56066,-46.22181c7.41989,-6.88071 14.27682,-17.35059 28.8574,-11.50089c14.58058,5.8497 15.55225,18.95907 15.86649,29.58963z" fill="#a100fe" stroke-width="2"/><path d="M351.19632,159.27431c0.18861,11.09807 -3.31296,33.57947 -17.39638,27.92923c-14.08342,-5.65024 -33.45522,-38.11621 -25.80083,-45.40547c7.28304,-6.93562 5.72844,3.3348 19.81185,8.98504c14.08342,5.65024 23.2056,-2.08542 23.38535,8.49119z" fill="#99008e" stroke-width="0"/></g><g data-paper-data="{&quot;index&quot;:null}" stroke="#000000" stroke-linecap="butt"><path d="M396.33003,153.2906c15.37714,6.16928 19.22231,32.65729 8.58842,59.16264c-10.63389,26.50534 -28.82867,35.07747 -44.20581,28.90819c-15.37714,-6.16928 -22.11365,-24.74378 -11.47976,-51.24913c10.63389,-26.50535 31.72,-42.99098 47.09715,-36.8217z" fill="#f0f0f0" stroke-width="2"/><path d="M404.63732,211.44584c-10.63389,26.50534 -28.82867,35.07747 -44.20581,28.90819c-15.37714,-6.16928 32.96721,-23.20169 39.48652,-51.00658c9.425,-40.19764 15.35318,-4.40696 4.71929,22.09839z" fill="#9a99ff" stroke-width="0"/></g><path d="M391.3275,189.67751c5.36814,2.15369 4.94398,15.80373 -0.94741,30.48821c-5.89138,14.68448 -15.01904,24.8427 -20.38718,22.68901c-5.36814,-2.15369 -4.94398,-15.80373 0.94741,-30.48821c5.89138,-14.68448 15.01904,-24.8427 20.38718,-22.68901z" data-paper-data="{&quot;index&quot;:null}" fill="#000000" stroke="none" stroke-width="0" stroke-linecap="butt"/><g data-paper-data="{&quot;index&quot;:null}" stroke="#000000" stroke-linecap="butt"><path d="M365.06538,164.10252c7.5744,-7.46565 17.33716,-16.26839 31.91774,-10.41869c14.58058,5.8497 12.29993,18.15557 12.90678,28.2566c0.63779,10.61607 -35.37145,21.11903 -49.95203,15.26933c-14.58058,-5.8497 -2.82036,-25.27349 5.1275,-33.10723z" fill="#a100fe" stroke-width="2"/><path d="M366.05509,164.11791c7.43991,-7.51961 8.68614,4.37583 22.76956,10.02607c14.08342,5.65024 20.05827,-2.84679 20.52828,7.19934c0.49396,10.55837 -34.88717,20.54607 -48.97058,14.89583c-14.08342,-5.65024 -2.13399,-24.23087 5.67274,-32.12123z" fill="#99008e" stroke-width="0"/></g><path d="M371.63632,338.87008c0,11.6628 -14.51982,21.11737 -32.43092,21.11737c-17.9111,0 -32.43092,-9.45457 -32.43092,-21.11737c0,-2.33142 -0.03339,-13.76009 1.08979,-15.13837c4.49546,-5.51647 17.81784,5.26144 32.14847,5.26144c17.9111,0 31.62358,-1.78588 31.62358,9.87692z" fill="#000082" stroke="#000000" stroke-width="2" stroke-linecap="butt"/><path d="M369.75004,336.13782c0,6.30841 -13.89058,10.1901 -31.80169,10.1901c-17.9111,0 -30.16566,-2.95748 -30.16566,-9.26589c0,-1.26107 -0.03338,-12.52602 1.0898,-13.27153c4.49546,-2.98386 15.55258,5.7726 29.88321,5.7726c17.9111,0 30.99434,0.26631 30.99434,6.57472z" fill="#2e0048" stroke="#000000" stroke-width="0" stroke-linecap="butt"/><path d="M328.64938,338.22529c0,11.6628 -14.51982,21.11737 -32.43092,21.11737c-17.9111,0 -32.43092,-9.45457 -32.43092,-21.11737c0,-2.33142 -0.03339,-13.76009 1.08979,-15.13837c4.49546,-5.51647 17.81784,5.26144 32.14847,5.26144c17.9111,0 31.62358,-1.78588 31.62358,9.87692z" fill="#000082" stroke="#000000" stroke-width="2" stroke-linecap="butt"/><path d="M326.7631,335.49289c0,6.30841 -13.89058,10.1901 -31.80169,10.1901c-17.9111,0 -30.16566,-2.95748 -30.16566,-9.26589c0,-1.26107 -0.03338,-12.52602 1.0898,-13.27153c4.49546,-2.98386 15.55258,5.7726 29.88321,5.7726c17.9111,0 30.99434,0.26631 30.99434,6.57472z" fill="#2e0048" stroke="#000000" stroke-width="0" stroke-linecap="butt"/><g><g><path d="M274.46045,264.22585c-13.77265,-6.15927 -18.71922,-16.68267 -13.26355,-30.58751c4.26693,-10.87513 21.07718,-17.616 34.84986,-11.45669c13.77274,6.15928 19.79781,19.53325 13.69992,33.16867c-0.95357,2.13232 -2.46649,3.81723 -3.83389,5.36899c-7.37667,8.37111 -19.83347,8.70267 -31.45235,3.50659z" fill="#485e84" stroke="#000000" stroke-width="2" stroke-linecap="butt"/><path d="M282.29021,221.59701c0,0 -2.74574,5.05886 -1.77131,6.80926c9.3468,16.79021 21.70708,23.45666 25.96344,25.34957c0.96704,0.43009 1.88631,-0.21474 1.88631,-0.21474c0,0 -0.65554,2.00957 -2.28973,4.21034c-1.73891,2.34181 -4.5422,4.91972 -7.33773,6.19647c-3.19331,1.45839 -11.41334,2.85111 -11.41334,2.85111l-20.22354,-5.46507c0,0 -5.86621,-12.10549 -6.08101,-14.26205c-0.21045,-2.11273 0.14648,-4.67307 0.41639,-7.41056c0.41914,-4.25041 2.40593,-8.33198 4.34391,-10.46251c2.47331,-2.71899 6.55547,-4.97465 10.16441,-6.21482c3.35878,-1.15425 6.34211,-1.38685 6.34211,-1.38685z" fill="#343545" stroke="none" stroke-width="0" stroke-linecap="butt"/><path d="M274.51461,244.76394c0,0 1.89708,-8.82038 5.82536,-12.15936c4.97276,-4.22684 16.8014,-9.53582 16.8014,-9.53582" fill="none" stroke="#000000" stroke-width="1" stroke-linecap="round"/><path d="M311.07129,248.38685c0,0 -4.22968,5.76541 -7.52558,8.52381c-3.32732,2.78479 -12.48601,5.98968 -12.48601,5.98968" fill="none" stroke="#000000" stroke-width="1" stroke-linecap="round"/><path d="M263.64436,243.28292c0,0 1.81208,-9.08312 6.23166,-12.50599c6.78172,-5.25228 17.15364,-10.44067 17.15364,-10.44067" fill="none" stroke="#000000" stroke-width="1" stroke-linecap="round"/><path d="M265.83553,228.1569c0,0 16.82883,-4.03315 29.93943,7.44098c14.36101,12.56844 7.02264,28.17736 7.02264,28.17736" fill="none" stroke="#000000" stroke-width="1" stroke-linecap="round"/><path d="M260.82231,236.25458c0,0 17.75707,-1.24446 29.3479,8.85565c9.51712,8.29314 4.56572,22.01908 4.56572,22.01908" fill="none" stroke="#000000" stroke-width="1" stroke-linecap="round"/><path d="M304.52064,235.03764c-0.67918,-0.99296 -0.59243,-2.23372 0.19364,-2.77135c0.78604,-0.53767 1.25442,0.10622 1.93356,1.09917c0.67918,0.99296 1.31183,1.95894 0.52576,2.49657c-0.78604,0.53767 -1.97385,0.16856 -2.65297,-0.82438z" fill="#8fbbbe" stroke="none" stroke-width="0" stroke-linecap="butt"/><path d="M307.76972,241.5417c-0.54906,-0.24557 -0.69561,-1.11229 -0.3273,-1.9359c0.36834,-0.82363 0.63241,-1.10905 1.1815,-0.86351c0.54906,0.24557 0.86131,1.1864 0.49296,2.00998c-0.36834,0.82363 -0.79814,1.03495 -1.34721,0.78938z" fill="#8fbbbe" stroke="none" stroke-width="0" stroke-linecap="butt"/><path d="M300.56189,229.36382c-0.77971,-0.454 -1.16638,-1.24334 -0.86375,-1.76316c0.3026,-0.51979 0.95775,-0.07604 1.73744,0.37794c0.77971,0.454 1.38871,0.74626 1.08607,1.26605c-0.3026,0.51979 -1.18009,0.57315 -1.95975,0.11915z" fill="#8fbbbe" stroke="none" stroke-width="0" stroke-linecap="butt"/><path d="M277.84723,222.19491c0,0 10.18991,0.91949 16.95041,4.34231c3.83283,1.94057 6.54103,4.97405 8.5685,7.29691c1.79298,2.05418 3.83005,8.30527 4.89136,13.25218c0.78138,3.64214 0.84812,6.58535 0.84812,6.58535" fill="none" stroke="#000000" stroke-width="0.5" stroke-linecap="round"/><path d="M309.96194,233.97206c0,0 -4.68408,9.47827 -8.68476,13.11306c-3.37065,3.06241 -13.42334,7.42221 -13.42334,7.42221" fill="none" stroke="#000000" stroke-width="1" stroke-linecap="round"/><path d="M283.38413,250.71886c0,0 4.37882,-8.61711 7.37718,-12.00242c5.26459,-5.94399 14.91814,-9.84092 14.91814,-9.84092" fill="none" stroke="#000000" stroke-width="1" stroke-linecap="round"/></g><g stroke="#000000" stroke-linecap="butt"><path d="M256.97919,240.03417c24.8747,22.19386 23.97807,31.79863 18.59121,37.83617c-5.38686,6.03755 -29.91871,-7.05976 -54.79343,-29.25361c-24.8747,-22.19389 46.82448,-30.83785 52.21135,-36.87538c6.85099,-1.84179 6.33183,4.66421 1.36189,10.75156c-6.12911,7.5071 -19.49725,15.64424 -17.37103,17.54128z" fill="#0d69be" stroke-width="2"/><path d="M283.71433,247.68816c10.67685,9.52619 11.41093,26.12669 1.63957,37.07833c-9.77135,10.95163 -26.34787,12.10719 -37.02472,2.58102c-10.67685,-9.52619 -11.4109,-26.12671 -1.63957,-37.07833c9.77135,-10.95163 26.34784,-12.10717 37.02471,-2.58097z" fill="#faddbf" stroke-width="2"/><path d="M248.55128,269.56982c10.67685,9.52619 46.19716,3.37938 36.42584,14.33104c-9.77135,10.95163 -26.34786,12.10717 -37.02471,2.58097c-10.67685,-9.52619 -10.07799,-26.43822 0.59887,-16.91203z" fill="#ef8b89" stroke-width="0"/></g></g><path d="M275.46786,176.20206c0.11614,-0.23269 0.60006,-1.03403 1.59744,-0.63388c1.16012,0.46544 0.69468,1.62555 0.69468,1.62555l-0.18547,0.36206c-1.40526,1.9401 -3.01271,3.70327 -4.48279,5.59033c-1.44766,1.37265 -3.13499,3.22074 -5.11862,3.79299c-4.01688,1.1588 -7.34338,-3.18273 -7.48082,-6.7942c-0.1759,-4.62204 2.4714,-9.61003 5.23231,-13.20061c0,0 0.76623,-0.98761 1.75385,-0.22137c0.98761,0.76623 0.22137,1.75385 0.22137,1.75385c-1.96947,2.51152 -4.36873,6.54174 -4.69477,9.79115c-0.21156,2.10842 0.49882,6.15468 3.34286,6.4429c1.79392,0.1818 3.7541,-2.17464 4.89241,-3.24467c1.37776,-1.78368 2.89684,-3.44186 4.22753,-5.26408z" fill="#000000" stroke="none" stroke-width="0.5" stroke-linecap="butt"/></g></g></svg>