<svg version="1.1" xmlns="http://www.w3.org/2000/svg" xmlns:xlink="http://www.w3.org/1999/xlink" width="280.67211" height="300.53286" viewBox="0,0,280.67211,300.53286"><g transform="translate(-161.3134,-30.04525)"><g data-paper-data="{&quot;isPaintingLayer&quot;:true}" fill-rule="nonzero" stroke-linecap="butt" stroke-linejoin="miter" stroke-miterlimit="10" stroke-dasharray="" stroke-dashoffset="0" style="mix-blend-mode: normal"><g data-paper-data="{&quot;index&quot;:null}" stroke="#000000"><path d="M437.04399,207.38616l-46.67382,-1.64099l3.86169,-48.49114l46.67382,1.64099z" fill="#ffcaa0" stroke-width="2"/><g><path d="M390.53258,205.91018l-64.35811,-2.26278l3.91202,-49.12317l64.35811,2.26278z" fill="#0000c0" stroke-width="2"/><path d="M390.79523,205.2104l-33.70887,-1.18517c0,0 15.17234,-14.20186 15.82181,-22.35694c0.61578,-7.73223 -12.02077,-25.37257 -12.02077,-25.37257l33.70888,1.18517c0,0 -1.25019,15.69872 -1.8803,23.61088c-0.63684,7.99678 -1.92073,24.11864 -1.92073,24.11864z" fill="#56006b" stroke-width="0"/></g><path d="M436.57523,206.61575l-46.67382,-1.64099l32.62516,-11.32789l17.91032,-35.52224z" fill="#ff6e5b" stroke-width="0"/></g><g data-paper-data="{&quot;index&quot;:null}" stroke="#000000"><path d="M298.86371,329.16662v-83.59174h61.17899v83.59174z" fill="#273750" stroke-width="2"/><path d="M299.65105,328.46603v-83.59174l18.42709,45.66668l42.75189,37.92506z" fill="#1f1e2e" stroke-width="0"/></g><path d="M246.87899,245.19404v-105.38107h113.80147v105.38107z" data-paper-data="{&quot;index&quot;:null}" fill="#0000c0" stroke="#000000" stroke-width="2"/><g data-paper-data="{&quot;index&quot;:null}" stroke="#000000"><path d="M246.25776,329.57811v-83.59174h61.17899v83.59174z" fill="#273750" stroke-width="2"/><path d="M247.04514,328.87749v-83.59174l18.42709,45.66668l42.75189,37.92506z" fill="#1f1e2e" stroke-width="0"/></g><g data-paper-data="{&quot;index&quot;:null}" stroke="#000000"><path d="M162.75919,205.23024l32.9582,-30.82901l35.94826,35.23724l-32.9582,30.82901z" fill="#ffcaa0" stroke-width="2"/><g><path d="M195.47599,174.40143l45.44573,-42.50983l36.41679,35.69654l-45.44573,42.50983z" fill="#0000c0" stroke-width="2"/><path d="M195.85442,175.05151l23.80314,-22.26538c0,0 1.00584,19.92656 7.0515,25.85264c5.73218,5.61882 28.33211,8.83113 28.33211,8.83113l-23.80314,22.26539c0,0 -11.63803,-11.40784 -17.50361,-17.1574c-5.92829,-5.81104 -17.88002,-17.52638 -17.88002,-17.52638z" fill="#56006b" stroke-width="0"/></g><path d="M163.68982,205.4274l32.9582,-30.82901l-13.11602,29.93511l16.10606,36.13113z" fill="#ff6e5b" stroke-width="0"/></g><g data-paper-data="{&quot;index&quot;:null}" stroke="#000000"><path d="M273.77207,244.75952v-103.41963h61.17899v103.41963z" fill="#ffffff" stroke-width="2"/><path d="M274.55945,243.89276v-103.41963l18.42709,56.49877l42.75189,46.92086z" fill="#8ebbfc" stroke-width="0"/></g><g><g data-paper-data="{&quot;index&quot;:null}" stroke="#000000"><path d="M403.03559,128.69189c-9.15287,28.50694 -27.9546,48.34433 -41.99484,44.30801c-14.04024,-4.03631 -18.00222,-30.41781 -8.84935,-58.92475c9.15287,-28.50694 27.9546,-48.34433 41.99484,-44.30801c14.04024,4.03631 18.00222,30.41781 8.84935,58.92475z" fill="#01930e" stroke-width="2"/><path d="M363.83939,107.70821c-9.15287,28.50694 11.74986,69.05434 -2.29038,65.01804c-14.04023,-4.0363 -18.00222,-30.41781 -8.84935,-58.92475c9.15287,-28.50694 20.2926,-34.60023 11.13973,-6.09327z" fill="#31525b" stroke-width="0"/></g><g data-paper-data="{&quot;index&quot;:null}" stroke="#000000"><path d="M233.5513,78.45111c0.3912,-1.2184 8.63101,-23.99165 9.11406,-25.16325c12.20614,-29.6055 45.35976,-22.47806 86.0105,-10.79176c38.18496,10.97745 69.87925,24.48059 66.73487,53.83053c-0.33552,3.13174 -7.83362,23.03324 -8.82444,26.11913c-3.54151,11.03015 -8.46222,36.09647 -18.34297,42.84281c-18.79022,12.82952 -49.08582,1.07421 -76.7816,-6.8878c-29.28326,-8.41838 -56.86968,-15.4002 -63.8569,-37.39836c-3.09622,-9.74795 2.79099,-32.72348 5.94646,-42.55131z" fill="#ffcaa0" stroke-width="2"/><path d="M231.79253,77.95537c0.3912,-1.2184 8.63101,-23.99165 9.11406,-25.16325c6.93495,-16.82044 -10.63688,55.49198 28.89927,88.05637c30.98322,25.51969 101.30731,21.31539 97.33477,24.02774c-18.79022,12.82952 -49.7419,0.99078 -77.43763,-6.97121c-29.28326,-8.41838 -56.86968,-15.4002 -63.8569,-37.39836c-3.09622,-9.74795 2.79099,-32.72348 5.94646,-42.55131z" fill="#ff6e5b" stroke-width="0"/></g><g data-paper-data="{&quot;index&quot;:null}" stroke="#000000"><path d="M277.13054,90.49139c-9.15287,28.50694 -27.9546,48.34433 -41.99484,44.30801c-14.04024,-4.03631 -18.00222,-30.41781 -8.84935,-58.92475c9.15287,-28.50694 27.9546,-48.34433 41.99484,-44.30801c14.04024,4.03631 18.00222,30.41781 8.84935,58.92475z" fill="#01930e" stroke-width="2"/><path d="M237.93434,69.50769c-9.15287,28.50694 11.74986,69.05434 -2.29038,65.01804c-14.04023,-4.0363 -18.00222,-30.41781 -8.84935,-58.92475c9.15287,-28.50694 20.2926,-34.60023 11.13973,-6.09327z" fill="#31525b" stroke-width="0"/></g><g data-paper-data="{&quot;index&quot;:null}"><path d="M412.89393,93.95443c-5.01932,15.63284 -48.70074,16.91794 -97.56517,2.87034c-48.86444,-14.04761 -84.40793,-38.10835 -79.38861,-53.74117c5.01932,-15.63284 48.70072,-16.91794 97.56516,-2.87033c48.86444,14.04761 84.40794,38.10834 79.38862,53.74117z" fill="#000000" stroke="none" stroke-width="NaN"/><path d="M412.09681,94.05818c-5.01932,15.63284 -48.70074,16.91794 -97.56517,2.87034c-48.86444,-14.04761 -84.40793,-38.10835 -79.38861,-53.74117c5.01932,-15.63284 38.46951,19.61505 87.33396,33.66267c48.86444,14.04761 94.63915,1.57536 89.61983,17.20818z" fill="#ff0000" stroke="#000000" stroke-width="2"/><path d="M404.3248,100.71608c-1.38127,4.30202 -41.48459,10.77934 -89.9419,-4.53628c-16.95713,-5.35954 -32.62411,-11.4413 -44.93706,-17.83704c-22.85914,-11.87371 -35.41011,-23.78005 -32.01858,-26.75929c3.50284,-3.07701 31.27212,25.30917 80.13656,39.35677c48.86444,14.04761 88.14226,5.47379 86.76098,9.77584z" fill="#900056" stroke="#000000" stroke-width="0"/></g><path d="M327.78787,129.50044c-4.46698,13.91257 -10.8705,24.3911 -14.30265,23.40442c-3.43215,-0.98668 -2.59326,-13.06491 1.87373,-26.97749c4.46698,-13.91257 10.8705,-24.39108 14.30265,-23.40441c3.43215,0.98668 2.59326,13.06491 -1.87373,26.9775z" data-paper-data="{&quot;index&quot;:null}" fill="#000000" stroke="none" stroke-width="0"/><path d="M353.67755,132.7648c-4.44912,13.85693 -10.69171,24.33243 -13.94322,23.39768c-3.25152,-0.93474 -2.28066,-12.92576 2.16846,-26.78271c4.44912,-13.85693 10.69171,-24.33243 13.94322,-23.39768c3.25152,0.93474 2.28066,12.92576 -2.16846,26.78271z" data-paper-data="{&quot;index&quot;:null}" fill="#000000" stroke="none" stroke-width="0"/><path d="M292.49739,133.46636c0.09626,-0.22744 0.50416,-0.99564 1.52885,-0.70105c1.19717,0.34417 0.84193,1.45061 0.84193,1.45061l-0.18814,0.41417c-1.0416,1.46268 -2.0454,2.94543 -3.13492,4.37721c-1.04113,1.17501 -1.95691,2.60023 -3.07062,3.70055c-2.88269,2.84801 -7.63691,1.46976 -8.00076,-2.52069c-0.37404,-4.1024 2.89257,-9.34956 5.55514,-12.36452c0,0 0.78839,-0.88896 1.75684,-0.14572c0.96845,0.74326 0.18006,1.63223 0.18006,1.63223c-2.33329,2.61862 -4.33472,6.27804 -4.98151,9.67726c-0.71698,3.76796 2.77016,3.171 4.47004,1.03733c0.7461,-0.93649 1.30932,-1.54896 2.09762,-2.43702c1.02404,-1.34704 1.96798,-2.74333 2.94546,-4.12038z" data-paper-data="{&quot;index&quot;:null}" fill="#000000" stroke="none" stroke-width="0.5"/></g></g></g></svg>