<svg version="1.1" xmlns="http://www.w3.org/2000/svg" xmlns:xlink="http://www.w3.org/1999/xlink" width="275.24753" height="299.55195" viewBox="0,0,275.24753,299.55195"><defs><radialGradient cx="257.65397" cy="276.63521" r="15.98577" gradientUnits="userSpaceOnUse" id="color-1"><stop offset="0" stop-color="#1e202b"/><stop offset="1" stop-color="#1e202b" stop-opacity="0"/></radialGradient></defs><g transform="translate(-102.37623,-30.22402)"><g data-paper-data="{&quot;isPaintingLayer&quot;:true}" fill-rule="nonzero" stroke-linecap="butt" stroke-linejoin="miter" stroke-miterlimit="10" stroke-dasharray="" stroke-dashoffset="0" style="mix-blend-mode: normal"><path d="M102.37624,329.77598v-299.55195h275.24753v299.55195z" fill="none" stroke="none" stroke-width="0"/><g><path d="M181.37873,296.91208c5.51074,-4.35835 11.46711,-9.06727 12.30028,-10.43285c0.74756,-1.22525 1.49294,-2.62751 2.45733,-4.17776c3.3951,-5.45757 8.03157,-12.74915 12.0203,-20.60768c0.90452,-1.78207 1.53189,-3.71251 2.38304,-5.52908c0.63203,-1.34889 0.95714,-2.21759 1.50564,-3.57918c0.39387,-0.97772 0.38178,-1.34056 0.74427,-2.3148c0.31106,-0.836 1.25874,-2.77661 1.55337,-3.60432c1.25569,-3.52758 2.39028,-6.95577 3.6427,-10.07962c3.74913,-9.35131 5.55123,-17.06845 5.55123,-17.06845l28.39765,-4.88091c0,0 -3.54323,15.19187 -9.11007,28.91577c-1.35449,3.33922 -3.86084,7.36572 -5.70315,10.29988c-0.92459,1.47256 -1.73114,2.76352 -2.4535,3.82714c-0.43311,0.63771 -0.94636,1.08859 -1.12802,1.74167c-0.764,2.74654 -0.25207,6.2646 -0.38961,10.43583c-0.23455,7.11286 -0.71346,14.87299 -0.71346,14.87299c0,0 -7.02561,8.90487 -7.15527,8.90453c-0.56064,-0.00151 -2.03445,-5.96713 -2.55101,-8.13279c-0.11456,-0.48028 -0.40211,-0.63262 -0.75318,-0.37976c-0.95811,0.69006 -2.89199,2.21285 -3.99164,3.97392c-0.78672,1.25992 -1.87114,4.74705 -2.54464,5.04003c-0.73906,0.32151 -1.64044,1.14578 -2.44091,1.48534c-3.17968,1.34882 -6.78296,2.60165 -10.53619,3.88897c-4.97818,1.70748 -10.22017,3.38221 -15.08744,4.50834c-7.64213,1.76815 -14.91427,1.54215 -16.01477,1.57586c-1.09405,0.03351 -0.86323,-0.0974 -0.2407,-0.58773c0,0 5.90926,-4.65619 10.25777,-8.09534z" fill="#1b1f25" stroke="#000000" stroke-width="1.5"/><path d="M250.42631,214.59644l25.98449,-3.5684c0,0 -0.60656,4.28698 -2.56347,10.73855c-1.72526,5.68785 -4.70164,13.00333 -6.38874,21.3215c-0.82309,4.05819 1.14076,8.64631 0.22031,12.88755c-0.65516,3.01884 -1.61209,3.24894 -2.92425,6.41893c-0.68527,1.65552 -1.18403,3.82926 -1.90895,6.05719c-0.99958,3.07206 -2.19612,6.24715 -2.79864,8.30866c-0.94248,3.22468 -0.31017,5.96838 -0.3536,8.53163c-0.09973,5.88522 13.29559,15.38951 15.25065,17.08149c0.19429,0.16813 0.39908,0.27038 0.28549,0.27456c-1.66191,0.06096 -5.81659,0.09319 -8.40116,-0.23289c-4.624,-0.58339 -8.75874,-1.53404 -12.42849,-2.30677c-5.0452,-1.06237 -9.21154,-2.00752 -12.5621,-3.18997c-4.01369,-1.41648 -6.85673,-2.94809 -8.63758,-3.7018c-0.32437,-0.13728 0.06993,-5.73096 0.14804,-7.3056c0.07905,-1.59363 -0.91161,-1.18032 -0.91161,-1.18032c0,0 -0.44291,-5.4395 0.55616,-9.33447c0.70038,-2.73049 1.95373,-8.27663 4.25483,-14.85934c1.0919,-3.12357 2.88536,-6.62115 4.19811,-10.02143c1.28425,-3.32646 2.34795,-6.55375 3.2835,-9.78517c4.1455,-14.31869 5.697,-26.1339 5.697,-26.1339z" fill="#1b1f25" stroke="#000000" stroke-width="1.5"/><path d="M242.19638,242.52802c0,0 -4.65931,0.90117 -4.75534,-0.30467c-0.31771,-3.98937 2.51455,-27.83238 2.51455,-27.83238h20.68417c0,0 -11.3436,26.91505 -13.22827,30.45351c-0.44256,0.83092 -2.45724,-1.00394 -2.45724,-1.00394c0,0 2.01797,-7.71104 1.20657,-7.71104c-1.07188,0 -1.78334,1.72437 -2.42728,3.06314c-0.76589,1.5923 -1.53718,3.33538 -1.53718,3.33538z" fill="#1b1f25" stroke="none" stroke-width="0"/><path d="M228.08791,284.2422c0.01592,-2.0295 1.69796,-9.84466 1.69796,-9.84466c0,0 0.80285,-11.28024 1.34862,-11.65736c0.33463,-0.23122 1.24757,2.47027 1.43493,4.76477c0.15686,1.92076 0.05565,5.4269 -0.01596,5.66299c-0.02731,0.09004 -0.31451,1.78855 -0.27492,2.78224c0.02541,0.63794 0.3375,0.74428 0.43757,0.74428c0.44355,0 1.58609,-3.41441 2.4678,-6.50389c0.52308,-1.83287 1.09639,-3.76401 1.13878,-4.21935c0.12102,-1.29992 0.53027,8.26227 0.53027,8.26227l-0.77566,10.66419c0,0 -7.99977,0.66821 -7.9894,-0.65546z" fill="#1b1f25" stroke="none" stroke-width="0"/><path d="M241.6682,276.63521c0,-8.40338 7.15708,-15.21568 15.98577,-15.21568c2.36415,0 4.60734,-0.8207 6.62642,0.056c0.11054,0.048 -0.18248,0.86976 -0.58095,2.01675c-0.27595,0.7943 -0.55762,1.74456 -0.97564,2.70182c-0.50123,1.14779 -0.85749,2.88309 -1.47321,4.48565c-0.30836,0.80258 -0.7204,2.19295 -1.03194,3.42118c-0.05074,0.20003 -0.14048,0.50349 -0.2433,0.83199c-0.19866,0.63468 -0.3855,1.36279 -0.49487,1.61889c-1.51497,3.54786 0.23057,8.58906 -0.8101,9.70369c-0.11449,0.12262 0.55393,2.5381 1.38743,3.59182c0.60785,0.76843 2.06438,1.98432 1.98899,1.99925c-1.05634,0.20916 -3.2713,0.00429 -4.39283,0.00429c-8.8287,0 -15.98577,-6.81229 -15.98577,-15.21568z" fill="url(#color-1)" stroke="none" stroke-width="0"/><path d="M263.91471,293.67511c0,0 -1.56598,-1.22802 -2.81739,-2.63401c-0.81109,-0.91128 -1.37331,-1.89588 -1.87161,-2.75423c-0.14366,-0.24747 -0.94866,0.02629 -1.0397,-0.36367c-0.26488,-1.13453 -0.18188,-2.94064 0.04518,-4.83909c0.23537,-1.96801 0.57813,-4.03523 0.85092,-5.55637c0.24738,-1.37949 0.69576,-2.80208 0.69576,-2.80208l3.36118,-6.23446c0,0 -1.48355,8.2878 -1.68267,9.42656c-0.13306,0.76097 -0.1836,1.83097 -0.36489,2.71808c-0.22423,1.0972 -0.55717,2.04501 -0.40537,3.33616c0.22703,1.93114 1.83348,3.68708 2.26389,4.62005c0.91157,1.97586 1.74035,3.68851 1.74035,3.68851z" fill="#000000" stroke="none" stroke-width="0"/><path d="M216.50122,294.19075c0,0 -6.66168,2.44742 -6.96305,2.34765c-0.13021,-0.04311 1.20823,-1.06337 2.56787,-1.78581c1.3378,-0.71083 2.69612,-1.12435 2.69612,-1.12435c0,0 0.72076,-2.31229 1.99583,-4.28114c0.3199,-0.49397 0.53625,-1.09808 0.94657,-1.48473c0.93119,-0.87747 2.70357,-3.01876 4.63437,-4.13586c0.66858,-0.38681 1.00531,0.68151 1.44649,2.37274c0.70935,2.71923 1.44197,6.68524 1.44197,6.68524c0,0 -0.30946,1.39495 -1.21736,-0.32898c-1.12402,-2.13431 -1.19559,-6.21015 -2.16845,-6.21015c-0.92039,0 -1.81361,1.8779 -2.89222,3.7912c-1.21258,2.15093 -2.48814,4.15421 -2.48814,4.15421z" fill="#000000" stroke="none" stroke-width="0"/><path d="M224.98419,293.34698c0,0 -0.83634,-1.61455 -0.66295,-2.13449c0.08513,-0.25526 1.08643,0.71389 1.23963,0.39723c0.6208,-1.28314 1.75626,-3.00728 2.98486,-4.72136c1.29628,-1.8085 3.28373,-3.44925 4.19294,-4.06219c0.4458,-0.30053 1.00631,-0.28604 1.18365,0.00334c0.45036,0.73485 0.23529,2.25823 0.05749,3.9136c-0.21316,1.98448 -0.51928,4.08835 -0.74969,5.32104c-0.11585,0.6198 -0.26776,1.07191 -0.26776,1.07191c0,0 -0.6593,0.24759 -0.72738,-1.06219c-0.01646,-0.31673 -0.08826,-0.67368 -0.07723,-1.04501c0.04845,-1.63181 0.34365,-3.54085 -0.07605,-3.52974c-0.99169,0.02621 -3.43144,3.53439 -5.20316,5.40341c-0.85495,0.90191 -1.89436,0.44447 -1.89436,0.44447z" fill="#000000" stroke="none" stroke-width="0"/><path d="M232.97183,292.47542c0.1237,-0.43719 0.32761,-1.22474 0.43636,-1.74233c0.18002,-0.85677 0.96446,-5.63835 0.96446,-5.63835l1.76621,2.90842l8.87136,8.93618c0,0 -9.04542,-2.96853 -9.55372,-3.16072c-0.75681,-0.28614 -1.76329,-0.6667 -2.08518,-0.7884c-0.19902,-0.07525 -0.46123,-0.29667 -0.3995,-0.51482z" fill="#1b1f25" stroke="none" stroke-width="0"/><path d="M193.55411,286.90341c-0.66065,-0.10116 0.05781,-2.20915 1.13207,-3.97229c0.73192,-1.20128 2.25586,-2.94367 2.88477,-2.85418c0.35271,0.05019 0.40201,0.73767 0.30134,1.51809c-0.10208,0.79133 -0.35698,1.63167 -0.97657,2.52769c-0.69151,1.00002 -1.4952,1.95625 -2.24039,2.4408c-0.46935,0.30519 -1.08567,0.34228 -1.10123,0.3399z" fill="#000000" stroke="none" stroke-width="0"/><path d="M219.65518,281.6243c0,0 -0.40512,-0.99839 -1.41709,-2.34698c-0.46072,-0.61397 -1.0154,-1.3474 -1.54557,-1.96023c-0.70026,-0.80941 -1.3578,-1.46479 -1.69978,-1.91341c-0.18111,-0.23758 -0.20139,-0.46479 -0.18375,-0.49567c0.22611,-0.39604 3.11202,-1.37084 4.76075,-2.14157c0.62393,-0.29167 1.13885,-0.48925 1.16581,-0.70995c0.03651,-0.29875 -2.45363,-5.13747 -3.38969,-6.88334c-0.2347,-0.43775 -0.04316,-0.32375 0.27067,-0.44685c1.29555,-0.50823 4.88122,-1.94778 7.58633,-3.3468c1.63138,-0.84371 3.00332,-1.6148 3.24303,-2.26888c0.0206,-0.05621 -0.69804,-0.588 -1.52009,-1.1319c-0.79058,-0.52306 -1.84024,-1.24058 -2.76682,-1.9581c-0.84607,-0.65519 -1.49674,-1.38611 -2.10038,-1.89327c-0.60863,-0.51135 -1.20955,-0.62195 -1.11587,-0.83644c0.27928,-0.63952 2.15648,-1.57628 3.74792,-2.26399c0.59999,-0.25927 2.27901,-1.0314 2.30628,-1.26136c0.01918,-0.16186 -0.71712,-0.57197 -1.72632,-1.16779c-0.28535,-0.16847 -0.66572,-0.28212 -0.96748,-0.4944c-2.21171,-1.55589 -4.85878,-3.85493 -4.71986,-4.52848c0.16158,-0.78338 0.67636,-1.53579 1.19166,-2.28169c0.75926,-1.09905 1.61281,-2.18397 2.10045,-3.33303c1.95642,-4.61003 3.11539,-8.82535 3.11539,-8.82535c0,0 0.70725,7.69603 1.45871,8.42531c0.67543,0.6555 1.73474,-0.26449 2.82425,-0.37453c1.29145,-0.13044 2.62533,-0.07596 3.41261,-0.15364c0.40699,-0.04016 0.6679,-0.17114 0.70136,-0.26435c0.27606,-0.76904 0.19316,-1.08253 -0.03262,-1.75717c-0.27143,-0.81107 -0.74936,-1.67352 -1.0583,-2.1894c-0.1738,-0.29021 -0.31799,-0.38702 0.07111,-0.51384c0.76809,-0.25034 2.45408,-0.7309 4.26928,-1.37503c1.68253,-0.59706 3.60158,-1.44044 5.66827,-2.23067c1.99828,-0.76406 4.13977,-1.47351 6.04121,-2.14594c2.29085,-0.81015 4.34874,-1.21198 5.78164,-1.70739c0.62285,-0.21534 1.12761,-0.57122 1.48207,-0.78105c0.34292,-0.203 -2.17914,-2.33131 -3.22064,-3.1898c-0.26636,-0.21956 -0.71922,-0.49903 -0.39522,-0.61095c1.14846,-0.39673 4.40775,-1.27895 5.97377,-1.79228c1.52331,-0.49933 4.45422,-1.45376 5.71419,-1.85223c0.40575,-0.12831 0.33335,0.02158 0.04621,0.27982c-0.66387,0.59707 -1.9953,1.75838 -3.53228,2.90133c-1.63796,1.21805 -3.86463,2.48288 -3.87457,2.66172c-0.02515,0.45225 6.7242,0.01886 6.72266,0.65791c-0.00001,0.00482 -0.53854,0.67744 -1.93501,1.37613c-1.1987,0.59975 -2.85194,1.19404 -4.71114,2.00158c-2.53845,1.10258 -5.46084,2.47182 -8.1344,3.59058c-6.32271,2.64573 -11.74276,4.12849 -11.75691,4.46821c-0.01833,0.43989 2.42036,2.3328 2.53531,2.94186c0.05239,0.27761 -1.35381,0.70331 -2.54007,1.32104c-3.38279,1.76153 -9.51602,4.54447 -10.26553,5.70388c-0.12002,0.18566 1.41449,0.42701 3.33744,0.7752c3.12582,0.566 7.27804,1.28998 7.01841,1.58972c-0.10661,0.12309 -2.7642,0.9409 -5.64041,2.04596c-1.90401,0.73153 -3.93676,1.48186 -5.54933,2.16269c-1.7417,0.73536 -2.99321,1.37703 -3.0629,1.47153c-0.10342,0.14025 1.92966,1.25314 4.09673,2.63506c2.672,1.70389 5.58908,3.73799 5.45491,3.91268c-0.31619,0.41169 -2.50697,1.82628 -4.99641,3.22359c-3.50462,1.96712 -7.60112,4.04867 -7.89251,4.54619c-0.20242,0.34561 6.18653,6.90706 5.96603,6.87804c-0.40003,-0.05265 -1.77629,0.71927 -3.17875,1.23092c-1.13816,0.41522 -2.23925,0.52978 -3.2838,0.92577c-1.10399,0.41852 -1.96709,0.72852 -2.19062,0.72327c-0.17362,-0.00409 0.54361,1.26206 1.0093,2.02649c0.94243,1.54699 1.33038,2.95135 1.33038,2.95135z" fill="#2b263c" stroke="none" stroke-width="0"/><path d="M245.20558,286.63247c0.3293,-0.29744 0.68464,-0.74024 1.19248,-1.13106c1.46291,-1.12581 3.50815,-2.47071 4.81217,-3.45555c0.78874,-0.59567 1.41497,-1.10765 1.46193,-1.22281c0.20919,-0.51307 0.04189,-1.61442 -0.24031,-2.10131c-0.29614,-0.51094 -0.82413,-1.2746 -1.54871,-2.0209c-0.6072,-0.6254 -1.37613,-1.21604 -2.03326,-1.85353c-1.01565,-0.98527 -1.9543,-1.90155 -2.39356,-2.49098c-0.20432,-0.27418 -0.30354,-0.62628 -0.25626,-0.72639c0.01982,-0.04194 0.20655,-0.32386 0.65297,-0.5282c0.35057,-0.16046 0.97131,-0.20048 1.51189,-0.42859c0.69257,-0.29225 1.51469,-0.64467 2.39881,-1.06914c0.87696,-0.42103 1.81488,-0.95549 2.74785,-1.43045c1.23588,-0.62917 2.46304,-1.2868 3.52816,-1.92292c1.70853,-1.02038 3.06602,-2.17347 3.2692,-2.76627c0.40726,-1.18822 0.74513,-2.35488 0.9858,-3.48407c0.09672,-0.4538 -0.13829,-1.80747 -0.07014,-2.24227c0.01608,-0.10259 -4.31082,0.01198 -4.2955,-0.07453c0.12001,-0.67783 3.08637,-2.08792 3.16909,-2.71091c0.03065,-0.23084 -0.34985,-0.27013 -0.7393,-0.3773c-0.67288,-0.18515 -1.5304,-0.42257 -1.47801,-1.1176c0.04882,-0.6477 1.5391,-0.43589 1.63137,-0.81496c0.02671,-0.10974 -1.34238,-1.64453 -3.19687,-3.24023c-1.47249,-1.26699 -3.33919,-2.51641 -4.42811,-3.51988c-0.77926,-0.71811 -1.28242,-1.43709 -1.25491,-1.49347c0.02733,-0.05602 0.57749,-0.38059 1.4315,-1.09924c0.54767,-0.46085 1.85673,-0.42003 2.59656,-1.04082c1.53706,-1.28975 3.25111,-2.92827 4.71966,-4.3922c0.80303,-0.8005 1.69177,-1.47307 2.27893,-2.08359c0.4652,-0.48371 0.68185,-0.95666 0.93383,-1.22485c0.22788,-0.24254 0.27791,-0.47094 0.5242,-0.26587c0.56464,0.47012 1.81068,1.5316 2.32324,1.92911c0.19289,0.1496 1.04893,0.5224 1.24583,0.64481c0.31294,0.19455 -0.21245,0.23294 -0.46782,0.46255c-0.41304,0.37138 -1.11591,1.00432 -1.96571,1.77338c-0.44106,0.39916 -0.92168,0.98642 -1.42189,1.44139c-1.33405,1.21335 -2.80742,2.23105 -4.0411,3.35143c-0.32237,0.29277 -0.73303,0.47271 -1.04614,0.70923c-0.47547,0.35913 -0.82994,0.74984 -1.12913,1.08348c-0.47801,0.53307 -0.83899,0.6758 -0.82724,0.73265c0.04433,0.2146 0.51818,0.75073 0.88997,0.87638c1.21058,0.4091 3.86941,0.55584 6.10289,1.15786c1.50586,0.40589 2.87677,1.38661 3.35752,2.17514c0.04934,0.08094 -0.34925,0.21531 -0.94716,0.59251c-0.98501,0.62141 -2.4314,1.62731 -3.38656,2.2819c-0.55314,0.37909 -0.99441,0.59002 -0.94877,0.67076c0.14602,0.25838 0.69331,0.21586 0.84597,0.47783c0.22088,0.37905 -0.98449,0.7621 -0.75312,1.14801c0.05258,0.0877 1.0427,0.58906 2.12582,0.95054c1.35165,0.45111 2.84814,0.69306 2.84814,0.69306c0,0 -0.00658,1.16624 -1.2319,3.17446c-0.58321,0.95584 -1.07332,2.16099 -2.65864,3.41272c-0.60716,0.47941 -1.40087,0.91221 -2.18685,1.43421c-1.97148,1.30931 -4.31542,2.77905 -6.63656,4.01051c-1.38446,0.73452 -2.88951,1.33547 -3.92679,1.90184c-0.84551,0.46166 -1.35354,0.92574 -1.45075,1.21239c-0.17042,0.50256 1.47397,1.53776 3.59848,2.54173c1.70827,0.80729 3.75509,1.56761 5.20469,2.21801c1.23737,0.55518 2.31039,0.66424 2.25666,0.99602c-0.06348,0.39197 -3.64871,1.15661 -3.38758,1.87044c0.0454,0.12413 0.34791,0.18438 0.63794,0.32816c0.72462,0.35922 1.86805,0.76724 1.70823,1.16145c-0.06023,0.14855 -0.53261,0.32169 -1.12096,0.74304c-0.86938,0.62261 -2.35967,1.44465 -3.59873,2.29429c-1.09877,0.75345 -1.94901,1.54478 -2.75269,1.99714c-0.3112,0.17516 -0.85841,0.20567 -1.16173,0.39561c-0.22345,0.13993 0.16373,0.44791 0.58527,0.87459c0.81344,0.82335 2.5955,2.11241 4.66928,3.49386c0.75902,0.50563 1.55713,0.79648 2.36111,1.30856c0.59081,0.37631 1.18482,0.97658 1.76883,1.33924c1.93959,1.20442 3.76893,2.29343 5.00552,3.00096c0.95141,0.54435 2.01751,0.79836 2.01751,0.79836c0,0 -2.07949,-0.17528 -5.07917,-1.10726c-1.21478,-0.37742 -2.64698,-0.81564 -4.04992,-1.51477c-3.19227,-1.62811 -6.49504,-3.81978 -8.83245,-5.51194c-1.29056,-0.93428 -2.20727,-1.79202 -2.72817,-2.24281c-0.18851,-0.16313 -0.65469,-0.30901 -0.49444,-0.55145c0.06984,-0.10567 0.64535,-0.29104 0.76767,-0.40152z" fill="#2b263c" stroke="none" stroke-width="0"/></g><g><path d="M272.0005,175.45751c0,0 5.34237,-14.81296 5.34237,-19.86695c0,-3.25107 -0.83475,-8.18051 -0.83475,-8.18051l3.33898,0.50085c0,0 4.45118,1.54111 12.24945,14.4852c2.20677,3.66294 4.77937,12.39362 4.77937,12.39362z" fill="#2b263c" stroke="#000000" stroke-width="2"/><path d="M279.06622,174.13445c0,0 -5.03128,3.87487 -5.18922,2.10999c-0.27873,-3.11476 4.29113,-12.9943 4.67899,-15.5704c0.29283,-1.94491 -1.47848,-7.48052 -0.45715,-9.42421c0.68977,-1.3127 4.33777,0.49923 4.33777,0.49923c0,0 3.10773,2.87157 4.37983,4.4637c1.13928,1.4259 3.3214,4.22241 3.3214,4.22241c0,0 -4.60942,3.53054 -4.74035,5.05603c-0.04559,0.53121 4.00573,2.53599 3.95665,3.08456c-0.15295,1.7095 -0.2345,3.40932 -0.68284,3.79713c-0.7101,0.61423 -2.96456,0.48628 -2.96456,0.48628z" fill="#1b1f25" stroke="none" stroke-width="0"/></g><g><g><path d="M226.85897,150.27873c0,0 1.11284,-2.7126 1.16744,-10.02012c0.02397,-3.20706 -0.56015,-7.81764 -0.49797,-11.56818c0.04509,-2.71977 0.8704,-7.9266 1.04145,-10.69308c0.23089,-3.73465 4.90798,-7.99859 4.90798,-7.99859c0,0 23.09232,2.40088 29.05681,7.12229c2.53813,2.00916 4.73985,19.81975 4.73985,19.81975c0,0 6.58741,9.73352 9.22228,13.80724c3.37317,5.21522 3.75225,16.48329 3.75225,16.48329c0,0 0.61356,8.80098 -1.15595,19.71329c-1.1323,6.98268 -1.50931,20.10978 -2.02572,20.68654c-3.51071,3.92088 -9.4575,2.80011 -14.45471,3.49409c-10.50662,1.4591 -20.90859,0.85945 -24.37507,1.24801c-4.17574,0.46806 -11.37862,-62.09454 -11.37862,-62.09454z" fill="#ffc6ef" stroke="#000000" stroke-width="2"/><path d="M231.30815,150.83872c0,0 -2.67801,-9.84678 -2.81056,-18.66456c-0.06328,-4.20988 1.00985,-10.88053 0.99923,-14.28235c-0.00559,-1.79343 3.43254,-5.71267 3.43254,-5.71267l25.98196,14.71094c0,0 3.59407,9.10831 -0.09599,12.76298c-1.92056,1.90214 -11.03827,0.03821 -16.88094,-0.99574c-2.904,-0.51391 -3.49894,-0.854 -3.49894,-0.854c0,0 1.14892,2.20752 2.09352,4.12969c0.94294,1.9188 1.93094,4.30107 2.62588,5.67007c1.21822,2.39986 3.42759,6.50705 3.42759,6.50705c0,0 6.41844,14.10614 5.89191,13.9279c-2.01395,-0.68175 -21.1662,-17.19932 -21.1662,-17.19932z" fill="#d396fc" stroke="none" stroke-width="0"/><path d="M279.91763,161.35142c0,0 -3.5747,-9.02359 -3.60728,-9.06674c-3.68596,-4.88142 -14.94929,-19.43476 -14.94929,-19.43476c0,0 9.3361,3.2508 13.55031,5.63211c1.53816,0.86917 3.54673,2.43976 5.4789,3.45167c1.79881,0.94206 3.51776,1.81184 5.08567,2.7383c0.68604,0.40537 1.32811,0.89217 1.90502,1.25493c1.05076,0.66072 1.88536,1.49991 2.37577,1.85412c0.57148,0.41276 0.88046,0.96266 0.83633,1.00548c-0.7145,0.69339 -2.05036,2.3187 -2.84313,3.31101c-1.65899,2.07654 -7.8323,9.25387 -7.8323,9.25387z" fill="#2b263c" stroke="#000000" stroke-width="2"/><path d="M262.82414,139.9732l-2.70608,-2.03151c0,0 3.78889,0.542 4.00344,0.85272c0.40018,0.57954 0.79492,1.92325 1.44814,2.85844c0.58082,0.83153 1.13471,1.61702 1.43589,2.02457c0.41541,0.5621 1.08446,1.19942 1.08446,1.19942c0,0 -0.35189,-0.05709 -0.76287,-0.35528c-0.92267,-0.66945 -2.43867,-1.98808 -3.03633,-2.58736c-0.58356,-0.58515 -1.46666,-1.96101 -1.46666,-1.96101z" fill="#000000" stroke="none" stroke-width="0"/><path d="M258.45398,167.83598c0,0 -1.11572,-1.70207 0.32751,-3.41686c0.33184,-0.39429 1.27782,-1.43676 1.51881,-1.7804c0.22013,-0.31388 -0.09955,-0.0596 -0.43183,-0.39114c-0.23933,-0.2388 -0.92602,-0.68569 -1.17127,-0.84173c-0.49421,-0.31446 -2.05178,-0.99515 -2.71879,-1.29395c-0.35523,-0.15912 -0.19772,0.10622 -0.01233,-0.09404c0.32351,-0.34944 1.69146,-1.88758 2.34308,-2.59144c0.31096,-0.3359 0.7835,-0.62448 0.38329,-0.9973c-0.30232,-0.28164 -1.19821,-0.82981 -1.61454,-1.19786c-1.14728,-1.01428 -2.23333,-1.99395 -2.84236,-2.71676c-0.43315,-0.51408 -1.36011,-1.51153 -1.55871,-2.06087c-0.17755,-0.4911 -0.46557,-0.75853 0.04924,-0.77411c0.96515,-0.02923 3.46795,-0.12243 5.17195,-0.41681c2.16658,-0.3743 4.27005,-0.96961 5.83993,-1.53631c2.7572,-0.99531 7.59282,-4.18418 9.15976,-5.24137c0.32159,-0.21698 0.54654,-0.20435 0.41668,0.40291c-0.06724,0.31442 -2.84562,5.66905 -3.22751,6.69286c-0.17663,0.47352 -0.54602,1.6987 -0.60852,2.14546c-0.05031,0.35952 0.08375,0.21593 0.4198,0.09542c1.29534,-0.46455 2.54661,-1.79819 6.40545,-1.99184c1.31251,-0.08342 2.43338,-0.045 3.1242,-0.00041c0.46729,0.03016 0.57531,0.20497 0.32076,0.44932c-0.70144,0.67329 -2.4405,2.34374 -3.27064,3.84913c-1.71034,3.849 -5.94168,18.1214 -5.94168,18.1214z" fill="#696f96" stroke="#000000" stroke-width="1.5"/><path d="M257.63482,166.95332l3.47947,-4.29434c0,0 -0.8227,-0.88919 -1.43733,-1.30375c-0.78684,-0.53072 -2.896,-1.61908 -2.896,-1.61908l2.99375,-3.08039c0,0 -2.53512,-2.13304 -3.63383,-3.27357c-0.96144,-0.99803 -2.70413,-2.80705 -2.70413,-2.80705c0,0 3.35382,-0.31206 5.00391,-0.64833c1.55221,-0.31632 4.62094,-1.31313 4.62094,-1.31313c0,0 -1.36586,1.31171 -2.13045,1.85476c-0.73791,0.5241 -2.58468,1.34874 -2.58468,1.34874c0,0 1.60467,1.36639 2.59198,1.84505c0.49773,0.2413 1.51178,0.50722 2.32575,0.74463c1.33831,0.39033 2.48456,0.89973 2.48456,0.89973c0,0 -1.45399,1.03922 -2.18781,1.6567c-0.82031,0.69026 -2.91315,2.68317 -2.91315,2.68317c0,0 2.69894,-0.9863 3.65801,-1.13136c0.91821,-0.13887 2.49113,-0.21159 2.49113,-0.21159c0,0 -2.50892,3.99828 -0.8506,6.93076c1.17038,2.06963 3.25877,5.93622 3.25877,5.93622z" fill="#4a5c6f" stroke="none" stroke-width="0"/></g><path d="M234.98654,213.84618l19.1843,-22.14756l23.41913,-8.51407c0,0 0.84921,15.91178 0.67513,20.30246c-0.07547,1.90368 -1.70078,5.5672 -1.70078,5.5672z" fill="#d396fc" stroke="none" stroke-width="0"/><path d="M252.88341,210.39729c0,0 3.8052,-3.58147 5.40384,-5.16103c0.98828,-0.97648 2.91981,-3.06881 3.65544,-3.84082c0.21367,-0.22424 0.08345,0.10338 -0.01525,0.38923c-0.20609,0.59697 -0.52619,1.58775 -0.5376,2.01358c-0.00556,0.20758 -0.07348,1.09866 -0.04222,1.33952c0.00945,0.07288 0.49735,0.1166 0.97937,0.03767c0.55809,-0.09138 1.22639,-0.63684 1.51,-0.7117c0.56319,-0.14867 -2.06637,0.52116 -1.87205,0.45221c0.63522,-0.2254 1.66763,-0.61839 2.62401,-0.84574c0.35109,-0.08346 0.77248,-0.06745 1.04537,-0.12264c0.95049,-0.1922 3.2452,-0.50026 4.21022,-0.55857c0.38439,-0.02323 0.01869,0.22924 -0.21358,0.51363c-0.30779,0.37686 -0.76435,0.94542 -1.22346,1.55202c-0.77804,1.02797 -2.02258,4.57842 -2.44513,4.74999c-2.57303,1.04473 -13.07897,0.19266 -13.07897,0.19266z" fill="#4a5c6f" stroke="#000000" stroke-width="1"/><path d="M232.21885,218.77807l6.60893,-8.82657c0,0 3.18212,-0.46018 6.05356,-0.77646c1.62193,-0.17865 4.90851,-0.40895 8.29011,-0.85656c2.79306,-0.36971 5.53264,-0.94432 8.49855,-1.25959c0.85031,-0.09038 1.69024,-0.26483 2.51149,-0.345c3.49497,-0.34122 6.6517,-0.50094 8.83116,-0.6586c1.89284,-0.13692 3.04857,-0.20502 3.04857,-0.20502l-1.117,6.86511c0,0 -2.84104,0.59632 -6.88053,1.12367c-2.85996,0.37336 -6.45994,0.57874 -9.4603,1.10483c-3.56735,0.62551 -4.5676,1.46128 -7.94143,2.03021c-0.6772,0.1142 -0.96518,0.58145 -1.60342,0.68754c-0.31196,0.05186 -0.99098,-0.254 -1.29178,-0.20443c-2.22907,0.36735 -4.1349,0.66891 -5.4699,0.85833c-3.47932,0.49371 -10.07802,0.46254 -10.07802,0.46254z" fill="#000000" stroke="none" stroke-width="0"/><g><path d="M274.31558,219.74207c0,0 0.38642,-2.72153 0.65685,-4.33179c0.37896,-2.25646 0.93599,-5.08414 1.2015,-7.69979c0.30441,-2.99883 0.2129,-5.71893 -0.00326,-6.98c-0.12881,-0.75148 -0.18731,-1.7125 -0.42279,-2.74569c-0.42189,-1.85109 -1.12901,-3.93385 -1.81544,-5.45832c-2.00698,-4.45727 -4.60849,-7.23253 -4.60849,-7.23253c0,0 7.37313,-2.77953 11.4103,1.35016c0.65927,0.67438 1.47695,6.54137 1.35249,7.71808c-0.19526,1.84601 -0.50428,3.61372 -0.72877,5.01132c-0.65349,4.06844 -3.192,11.66676 -5.06078,16.34569c-0.92903,2.32604 -1.98162,4.02287 -1.98162,4.02287z" fill="#2b263c" stroke="#000000" stroke-width="1.5"/><path d="M276.87538,200.49525c0,0 -0.75146,-5.12127 -1.96247,-7.52169c-0.60554,-1.20028 -1.63878,-3.52725 -2.71683,-5.23474c-0.55619,-0.88094 -1.38029,-1.70973 -1.90777,-2.44383c-1.31185,-1.82577 -2.11624,-3.06583 -2.11624,-3.06583l11.64708,-0.49036c0,0 0.9999,6.14911 1.47811,9.87643c0.19034,1.48351 0.06233,2.58339 0.04813,2.75923c-0.16798,2.08161 -0.50232,4.40453 -0.50232,4.40453c0,0 -1.34712,0.56864 -1.97123,0.88887c-0.56447,0.28964 -1.99646,0.8274 -1.99646,0.8274z" fill="#1b1f25" stroke="none" stroke-width="0"/></g><g><path d="M216.43562,237.13717c-0.01349,-0.45366 0.39941,-1.31563 0.67886,-2.47715c0.37784,-1.57048 0.72369,-3.68859 1.43113,-6.0855c1.24128,-4.20562 2.8077,-9.26958 4.05986,-13.73972c0.5361,-1.91386 0.70162,-4.93731 0.78594,-6.64362c0.19919,-4.0307 0.12412,-8.43147 0.12412,-8.43147l33.91734,-7.72325c0,0 -1.79957,2.09166 -4.46794,5.46175c-0.35346,0.44641 -3.38863,3.92905 -3.9602,4.36843c-0.37687,0.28971 1.69188,-2.476 1.4234,-2.15322c-0.36952,0.44425 2.08991,-1.75595 1.93807,-1.25221c-0.11702,0.38826 -2.82443,3.47764 -3.14942,3.85325c-1.21331,1.40225 -2.66123,3.26221 -4.03812,4.8094c-2.29546,2.57936 -4.74925,5.31161 -7.13138,8.03487c-2.05097,2.34468 -4.23291,4.68269 -6.21461,6.91074c-1.88511,2.11945 -3.56077,4.35576 -5.36184,6.15759c-1.91372,1.91453 -3.93599,3.37014 -5.34236,4.78406c-0.46966,0.47218 -1.93296,1.20603 -2.76023,2.02515c-1.27481,1.26225 -1.91899,2.55846 -1.93259,2.10089z" fill="#2b263c" stroke="#000000" stroke-width="1.5"/><path d="M217.11604,235.06597v-1.71628c0,0 0.4293,-0.24518 0.76794,-0.24518c0.44339,0 1.66387,0.24518 1.66387,0.24518v1.22591z" fill="#000000" stroke="none" stroke-width="0"/><path d="M223.38754,214.47065c0,0 0.52017,-4.63837 0.83841,-7.02603c0.16376,-1.22871 -0.06662,-3.12957 -0.09643,-4.99317c-0.04678,-2.92414 0.02597,-5.75653 0.02597,-5.75653l31.8695,-3.55514c0,0 -1.5465,1.50924 -3.58931,3.68529c-0.28073,0.29903 -0.49311,1.14081 -0.98645,1.50334c-0.66568,0.48915 -1.63283,0.87595 -1.98993,1.30414c-0.39141,0.46936 -0.49517,1.88147 -0.80423,2.25213c-2.69895,3.23681 -8.11686,9.39861 -8.11686,9.39861c0,0 -0.98392,0.94919 -2.727,2.08631c-0.74212,0.48413 -1.57545,0.77936 -2.44314,1.33622c-0.88368,0.56714 -1.80302,1.39654 -2.69794,1.95575c-2.79746,1.74807 -5.35635,3.25188 -5.84224,3.22633c-0.50638,-0.02663 -3.44034,-5.41724 -3.44034,-5.41724z" fill="#1b1f25" stroke="none" stroke-width="0"/></g><path d="M257.41869,198.08416c0,0 4.42559,-2.06643 6.07843,-2.90279c1.25805,-0.63659 3.49435,-1.51797 3.49435,-1.51797c0,0 1.26471,0.76026 1.91051,0.81405c0.66424,0.05532 1.85022,0.00461 1.85022,0.00461c0,0 0.08971,1.28555 -0.22176,3.07551c-0.23883,1.37254 -1.31672,3.80124 -1.31672,3.80124z" fill="#ffc6ef" stroke="none" stroke-width="0"/><path d="M250.27706,215.03346c-0.1658,-0.26894 0.1352,-0.48115 0.19221,-1.0245c0.03782,-0.36045 0.18818,-0.77517 0.24736,-1.18309c0.09991,-0.6886 0.11221,-1.35784 0.13877,-1.71397c0.03266,-0.43799 0.00479,-1.12725 0.44121,-1.18882c0.45364,-0.064 1.12979,-0.30785 2.53216,-0.49659c1.35647,-0.18257 2.98433,-0.1033 4.47603,-0.26598c1.01327,-0.1105 1.96371,-0.43528 2.72361,-0.56759c1.03906,-0.18092 1.72185,-0.15709 1.72185,-0.15709c0,0 -0.57358,1.10599 -0.74756,1.75971c-0.21895,0.82274 -0.46254,2.7873 -0.46254,2.7873c0,0 -1.22552,0.26757 -2.562,0.64339c-1.00191,0.28172 -2.02538,0.66335 -2.86549,0.82427c-0.78548,0.15046 -2.0178,0.13854 -3.13131,0.26561c-0.35647,0.04068 -0.79386,0.03115 -1.10742,0.10571c-0.32524,0.07734 -0.52433,0.2384 -0.76272,0.25577c-0.39952,0.02912 -0.66837,0.2248 -0.83418,-0.04413z" fill="#fead41" stroke="none" stroke-width="0"/></g><text transform="translate(229.06744,108.51783) scale(0.07561,0.07561)" font-size="40" xml:space="preserve" fill="#000000" fill-rule="nonzero" stroke="none" stroke-width="1" stroke-linecap="butt" stroke-linejoin="miter" stroke-miterlimit="10" stroke-dasharray="" stroke-dashoffset="0" font-family="Sans Serif" font-weight="normal" text-anchor="start" style="mix-blend-mode: normal"><tspan x="0" dy="0">sus</tspan></text><g><path d="M227.8334,207.96227c-0.57614,-0.57733 -1.22923,-1.2531 -2.09331,-2.18882c-3.68269,-3.98802 -9.58049,-10.86582 -13.30145,-16.05384c-3.26613,-4.55389 -7.93727,-12.70081 -12.09544,-19.49959c-2.08427,-3.40786 -4.62883,-6.20135 -6.00518,-8.30866c-0.54181,-0.82957 -0.93049,-1.64884 -1.19306,-2.14198c-0.30923,-0.58078 -0.62452,-0.84449 -0.15355,-1.44052c0.43831,-0.55469 1.78588,-1.8689 2.58825,-2.73992c2.50788,-2.72245 6.69162,-6.69599 11.91115,-10.20743c3.96598,-2.6681 8.61692,-5.18935 12.20704,-6.87735c3.41144,-1.60399 5.86497,-2.44214 5.86497,-2.44214c0,0 12.46851,11.97164 15.3602,19.81135c3.96524,10.75025 6.24442,38.76132 6.24442,38.76132c0,0 -5.8243,6.44332 -8.88349,8.6279c-1.22354,0.87373 -2.65239,2.26645 -4.27098,3.28994c-1.23103,0.77842 -2.69178,1.22555 -3.556,1.75476c-0.85135,0.52132 -1.82126,0.4566 -2.5129,-0.23647z" fill="#2b263c" stroke="#000000" stroke-width="2"/><path d="M230.09287,204.1092c-0.26544,-0.54564 2.36104,-1.22807 3.14869,-1.75454c0.99598,-0.66572 2.24313,-1.7138 3.01885,-2.39155c0.57001,-0.49803 1.13372,-1.46975 1.82805,-2.20398c0.96403,-1.01943 1.86397,-2.28188 1.86397,-2.28188l3.06161,1.18035c0,0 -2.36916,2.13434 -3.86283,3.00396c-0.89704,0.52226 -2.47384,1.32371 -3.89566,1.99052c-0.65268,0.30609 -1.26448,0.57387 -1.78852,0.85909c-0.96488,0.52516 -2.90788,2.5565 -3.37414,1.59804z" fill="#2b263c" stroke="#000000" stroke-width="1.5"/><path d="M228.23384,207.67461c-2.21551,-2.52111 -8.90173,-10.16772 -12.31845,-14.96457c-1.87704,-2.63525 -4.38927,-6.0146 -7.19438,-10.25113c-2.60737,-3.93789 -5.22499,-8.2197 -7.62133,-11.97698c-3.7399,-5.86385 -6.73578,-10.44924 -6.73578,-10.44924c0,0 1.12486,-1.05204 2.74137,-2.18975c1.93224,-1.35994 4.50595,-2.90216 5.86927,-3.73234c1.78049,-1.08422 4.99666,-2.36398 4.99666,-2.36398c0,0 7.74363,10.81834 12.54356,17.49525c2.1998,3.06001 5.52499,7.68118 9.08804,12.63153c2.61888,3.63857 5.81995,6.31244 8.70304,8.20649c1.07387,0.70549 2.64473,1.34566 2.64473,1.34566l-1.47135,3.53602c0,0 -1.11256,1.81652 -1.92109,2.7806c-0.98542,1.17498 -2.51928,2.81081 -3.81998,3.79982c-0.30674,0.23325 -0.61663,0.46761 -0.91244,0.69204c-0.60898,0.46202 -1.02274,0.36339 -1.36223,0.64444c-0.24958,0.20662 -0.32077,0.72776 -0.28388,0.74596c0.17403,0.08582 -0.20813,0.32814 0.87469,-0.09332c1.44015,-0.56054 3.59656,-1.43465 5.6164,-2.56789c1.97864,-1.11013 3.81701,-2.54048 5.43151,-3.65762c0.41959,-0.29033 1.11541,-0.90081 1.11541,-0.90081c0,0 -5.29024,-1.71477 -5.07668,-1.99166c0.25932,-0.33624 -0.83024,-3.29487 1.05071,-3.3159c0.63369,-0.00709 5.90787,2.86753 5.90787,2.86753l1.11757,0.20676c0,0 -2.01889,3.13329 -4.13946,5.05596c-3.80853,3.45308 -10.85071,7.24366 -13.39868,8.5641c-0.60057,0.31124 -0.95257,0.4435 -1.44507,-0.11692z" fill="#1b1f25" stroke="none" stroke-width="0"/></g><path d="M237.29557,194.39824l-2.73346,-15.40587l27.30361,-5.39215l20.38037,10.40658c0,0 -8.34614,4.13829 -11.80146,5.65891c-2.35874,1.03803 -4.89476,1.99967 -7.57004,2.95915c-3.3137,1.18844 -6.59822,2.69432 -8.50897,3.24545c-2.82385,0.8145 -7.33696,2.28941 -10.40963,1.86911c-7.17209,-0.98105 -6.66041,-3.34117 -6.66041,-3.34117z" fill="#1b1f25" stroke="#000000" stroke-width="1.5"/><g><path d="M218.93128,154.94312c0,0 -0.10306,-2.3261 0.26966,-3.95863c0.74738,-3.2736 3.78497,-13.62382 3.78497,-13.62382l2.88067,-2.08217c0,0 13.42776,21.80373 14.01641,26.83195c0.53561,4.57524 -10.62858,2.10695 -10.62858,2.10695l1.63963,-5.89196c0,0 -2.42333,-1.58115 -4.75264,-2.0898c-2.90867,-0.63517 -7.21013,-1.29252 -7.21013,-1.29252z" fill="#1b1f25" stroke="none" stroke-width="0"/><path d="M235.91568,154.25184c-1.08873,-0.15382 -3.49545,-0.47334 -5.53102,-0.90772c-2.82611,-0.60306 -5.67336,-1.34415 -6.42565,-1.50919c-0.36726,-0.08057 -0.3577,-0.62111 -0.30395,-1.47215c0.02159,-0.34184 0.05324,-0.74434 0.09951,-1.20101c0.14688,-1.44951 0.48934,-3.48741 0.76515,-5.51185c0.36928,-2.71046 0.5995,-5.70335 1.04253,-7.82998c0.22479,-1.0791 0.21468,-1.85705 0.39931,-2.4274c0.17939,-0.55421 1.43734,0.04885 1.55963,0.1284c2.18529,1.42183 6.84964,5.29387 12.92827,13.52496c3.66072,4.95699 10.09363,15.44536 10.09363,15.44536c0,0 0.10451,7.88808 -0.64576,8.98906c-1.77469,2.6043 -13.43676,-2.5027 -16.48263,-3.96755c-0.479,-0.23037 -0.34032,-0.75956 -0.20744,-1.2443c0.0687,-0.2506 0.15199,-0.55441 0.24655,-0.89945c0.0776,-0.2831 1.50097,-1.01723 1.59196,-1.34925c0.12028,-0.43879 -1.43806,1.04043 -1.30175,0.54305c0.86653,-3.16199 2.32316,-8.73125 2.59274,-9.7223c0.13039,-0.47933 0.06713,-0.51975 -0.42107,-0.58873z" fill="#2b263c" stroke="#000000" stroke-width="2"/><path d="M234.27747,166.09239c0.07294,-0.24782 0.94462,-1.30724 1.04002,-1.64745c0.11685,-0.41677 -0.30425,-1.11871 -0.16156,-1.62981c0.25051,-0.89727 0.30091,-0.91774 0.59434,-1.89839c0.8867,-2.96328 1.65922,-6.52901 1.47874,-7.09421c-0.12942,-0.40525 -12.93764,-2.40405 -12.91131,-2.78159c0.20724,-2.97293 1.02628,-7.7719 1.53779,-11.31784c0.45317,-3.14141 0.62131,-5.66785 0.62131,-5.66785l1.4345,0.89416c0,0 0.71238,11.25879 0.87346,13.05078c0.04049,0.45036 0.08064,0.95166 0.46059,1.0756c1.15059,0.37527 8.16793,2.49778 10.73607,3.33679c0.69825,0.22812 0.50964,0.5222 0.39397,0.97446c-0.59418,2.32341 -2.41193,9.5075 -2.3439,10.17589c0.09405,0.92406 11.41894,2.67924 11.41894,2.67924c0,0 0.74137,4.86631 -0.62575,5.21574c-0.42144,0.10772 -3.0529,-0.17064 -5.69004,-0.96726c-3.52861,-1.06589 -7.33376,-2.80264 -8.42339,-3.31844c-0.44406,-0.2102 -0.61056,-0.47929 -0.43378,-1.07987z" fill="#1b1f25" stroke="none" stroke-width="0"/><path d="M228.15351,164.82858c-0.20261,-0.2327 0.77611,-1.84963 0.91556,-2.11464c0.53769,-1.02188 1.55939,-3.44677 2.28337,-4.79349c0.34557,-0.64281 0.69965,-0.96286 0.75797,-0.91184c0.37011,0.32376 -1.91134,6.25336 -1.84051,6.52678c0.04149,0.16016 0.83029,0.12656 1.65299,0.1506c0.92626,0.02706 1.89578,0.10078 1.89578,0.10078l-0.72432,2.16356c0,0 -4.72303,-0.87162 -4.94085,-1.12177z" fill="#000000" stroke="none" stroke-width="0"/></g><g><path d="M265.49404,172.8482c0,0 1.47344,-4.09785 2.22769,-6.06726c0.51551,-1.34605 1.30383,-2.93541 1.76288,-4.11929c0.20495,-0.52855 0.3211,-1.15328 0.41328,-1.39037c0.14107,-0.36282 -0.5815,-1.21556 0.06585,-2.2522c0.15736,-0.25199 0.75997,-0.94067 1.67457,-1.67718c1.20961,-0.97407 2.52036,-2.09434 3.02871,-2.17994c1.12576,-0.18956 2.63128,-0.20648 3.71004,0.15774c0.8012,0.27051 1.36699,1.08619 1.36699,1.08619c0,0 2.04651,-0.26481 2.72569,-0.24666c0.09542,0.00255 1.56579,-0.25401 2.40807,1.99739c0.18783,0.50206 1.02302,1.38943 1.98285,2.11745c1.08312,0.82154 2.22701,1.57228 2.4594,2.29986c0.09582,0.3 0.34557,0.63416 0.30202,1.11562c-0.08911,0.98494 -0.91715,2.18821 -0.91715,2.18821c0,0 0.62421,0.15804 0.82272,0.58568c0.10104,0.21766 0.11451,0.50515 0.15724,0.8772c0.04708,0.40989 0.22909,2.58435 -0.68493,2.78119c-1.02283,0.22027 -5.38358,-0.15179 -5.68125,0.07455c-0.15656,0.11904 -1.74108,3.74892 -2.50691,4.60032c-2.02503,2.25131 -3.94275,3.1765 -3.94275,3.1765z" fill="#d396fc" stroke="#000000" stroke-width="1.5"/><path d="M288.52288,166.35297c0,0 -0.73314,0.60807 -1.54118,1.14979c-0.51875,0.34777 -1.02315,0.71341 -1.53359,0.72392c-1.11264,0.02291 -2.27232,-1.7044 -2.99055,-1.70459c-0.98703,-0.00026 -2.01681,1.49356 -2.85002,1.38625c-0.90767,-0.11691 -1.60665,-1.97634 -1.89623,-2.21306c-0.12791,-0.10457 1.46547,-1.7915 3.44078,-2.1c1.97937,-0.30913 4.64834,0.68322 4.50064,0.55446c-0.91247,-0.79544 -2.00154,-2.5012 -3.20605,-3.0455c-0.64704,-0.29239 -1.62104,0.36836 -2.67038,0.70409c-0.56787,0.18169 -1.22154,0.13689 -1.5159,-0.00492c-0.19016,-0.09161 -0.40161,-0.62473 -0.66333,-1.012c-0.18511,-0.27391 -0.43382,-0.43642 -0.54808,-0.48798c-0.89636,-0.40446 -1.57502,0.16963 -1.67341,0.12383c-1.90344,-0.88593 -3.69885,-2.0743 -3.69885,-2.0743c0,0 2.67514,-2.55689 3.10183,-2.63772c0.32694,-0.06193 1.6594,-0.28199 2.56061,0.09393c0.7804,0.32552 1.14122,1.25188 1.41824,1.23878c0.59684,-0.02822 0.91213,0.07394 1.54392,0.00548c0.20931,-0.02268 0.69389,-0.05431 1.17554,-0.10629c0.50649,-0.05466 1.0179,-0.12368 1.5435,0.1124c0.32858,0.14759 0.47767,0.58454 0.74565,0.91284c0.3031,0.37132 0.63841,0.72352 0.83862,1.07972c0.19575,0.34827 1.4779,1.46824 1.69946,1.80511c0.17396,0.2645 0.41147,0.32134 0.67201,0.5074c0.7095,0.50669 1.58974,0.98457 1.82227,1.71538c0.21729,0.6829 -0.11828,1.36189 -0.21024,1.97507c-0.10569,0.70478 -0.06527,1.29791 -0.06527,1.29791z" fill="#ffc6ef" stroke="none" stroke-width="0"/><path d="M272.06134,162.89145c-0.16701,-0.12412 -0.03628,-0.40055 -0.00113,-0.85806c0.02292,-0.29826 0.10329,-0.41001 0.26002,-0.76215c0.18991,-0.42668 0.54019,-0.95546 0.85316,-1.4315c0.24586,-0.37396 0.36231,-0.91671 0.63577,-1.32005c0.34496,-0.50879 0.43105,-1.65893 0.86756,-2.01286c0.60012,-0.48658 1.09749,-0.19849 1.835,-0.30676c0.36999,-0.05432 1.05588,-0.32703 1.42501,-0.35936c0.41199,-0.03609 -0.36363,-1.19718 -0.03102,-1.18855c0.21518,0.00558 0.89791,0.02578 1.5942,0.23778c0.70076,0.21336 1.41525,0.61901 1.68066,0.77622c0.57125,0.33837 -0.65769,0.3022 -0.65769,0.3022c0,0 -0.10194,0.78258 -0.30072,1.19435c-0.12772,0.26456 -0.23774,0.57488 -0.23774,0.57488c0,0 0.27916,0.09623 1.38833,-0.04844c0.30277,-0.03949 0.69273,0.04845 0.99907,-0.01505c0.52436,-0.10869 0.95218,-0.36419 1.35224,-0.31435c1.33747,0.16663 1.09712,1.379 0.91555,1.58502c-0.0929,0.10541 -2.99728,0.5771 -4.32052,0.66421c-1.91563,0.1261 -2.45625,-0.13235 -2.56884,0.04959c-0.16286,0.26318 -0.392,0.48556 -0.55017,0.8023c-0.2958,0.59238 -0.61239,1.24574 -1.0582,1.83782c-0.58026,0.77064 -1.23506,1.39426 -1.67425,2.09667c-0.69917,1.11818 -0.48294,2.23063 -0.63987,2.21156c-0.0544,-0.00661 -0.45184,-0.38765 -0.58688,-1.01209c-0.06245,-0.28876 -0.12926,-0.69004 0.02849,-1.02182c0.3995,-0.84022 0.93977,-1.94461 1.49505,-3.02331c0.62344,-1.21111 1.26581,-2.38983 1.74914,-3.12591c0.38941,-0.59305 0.9274,-0.58402 0.8579,-0.5871c-0.41082,-0.01818 -0.83994,-0.01173 -1.22338,0.04464c-0.304,0.04469 -0.56567,0.12529 -0.74655,0.25662c-0.08648,0.06278 -0.34348,0.32115 -0.57961,0.78803c-0.4559,0.90143 -1.04377,2.37035 -1.647,3.23873c-0.57024,0.8209 -0.9787,0.82699 -1.11359,0.72674z" fill="#000000" stroke="none" stroke-width="0"/><path d="M275.38392,169.82976c0.02055,-0.22764 0.13898,-0.44709 0.22044,-0.80111c0.05271,-0.22909 0.12213,-0.55924 0.21341,-0.83362c0.11818,-0.35522 0.18503,-0.8228 0.35963,-1.24238c0.24804,-0.59608 0.13834,-1.95044 0.63395,-2.46434c0.71664,-0.7431 3.23757,-1.67901 4.17306,-1.82763c0.3631,-0.05768 0.75566,0.06734 1.15384,0.06706c0.72546,-0.00053 1.46957,-0.06019 2.08814,0.12661c0.70047,0.21153 1.22842,0.59697 1.76678,0.91996c0.53586,0.32149 1.08273,0.5804 1.51547,0.84923c0.72716,0.45174 1.245,0.65252 1.245,0.65252c0,0 1.00486,1.18533 1.30446,2.48009c0.17831,0.77057 0.09402,1.41642 0.10762,1.51617c0.00822,0.06029 0.0878,1.47833 -0.66611,1.71392c-0.46449,0.14515 -4.48829,0.37204 -6.21661,0.02787c-0.82457,-0.1642 -0.11661,-0.93369 -0.13974,-1.01495c-0.06658,-0.23398 3.46598,-0.08519 5.33899,-0.4152c0.88133,-0.15528 0.91608,-0.71603 0.91541,-0.92263c-0.00288,-0.89462 -0.41325,-1.69296 -0.41325,-1.69296c0,0 -1.61205,-0.49137 -3.05462,-1.19585c-1.10363,-0.53896 -2.05568,-1.26266 -2.75618,-1.51693c-0.27853,-0.1011 -0.45254,-0.06323 -0.67925,-0.00877c-0.13374,0.03213 -0.52372,-0.06292 -0.82126,0.01554c-0.66089,0.17427 -1.5217,0.93315 -2.31727,1.24627c-0.57063,0.22458 -0.99122,0.1496 -1.26099,0.35082c-0.10066,0.07507 -0.30428,1.4468 -0.9613,2.52051c-0.44987,0.73518 -1.01265,1.34579 -1.40751,1.68473c-0.21471,0.18431 -0.37253,0.10192 -0.34213,-0.23494z" fill="#000000" stroke="none" stroke-width="0"/></g><g><path d="M261.81755,182.02976l-2.87899,-16.08796c0,0 1.85394,-0.20322 3.85599,0.51191c2.43805,0.87086 5.27155,2.70949 8.48,4.03917c0.92029,0.3814 1.89873,0.7976 2.75389,1.20688c1.83895,0.88015 3.46116,1.81532 4.59601,2.28029c0.53581,0.21953 1.648,0.60166 1.93661,0.60675c1.00585,0.01772 2.40139,-0.41186 5.22594,-0.91391c0.70857,-0.12594 5.10388,3.40479 5.86798,3.13971c0.85174,-0.29548 3.63862,-4.68474 4.0111,-5.02911c1.96723,-1.81886 -0.91534,-4.12452 -0.34519,-3.93012c3.44309,1.17401 8.83144,3.4135 11.61519,4.93315c2.49203,1.3604 3.39595,2.08151 2.69626,3.79326c-1.05573,2.5828 -2.06209,3.98735 -2.8205,5.01948c-2.12834,2.89645 -5.5361,6.33016 -8.3151,9.06496c-1.01182,0.99574 -2.39841,2.46989 -3.57706,3.69659c-0.60365,0.62827 -1.06319,1.28643 -1.57579,1.58543c-1.04092,0.6072 -1.20235,0.24426 -2.15548,-0.05085c-1.4817,-0.45876 -3.38965,-1.96638 -5.30835,-2.76764c-5.85262,-2.44409 -12.92683,-5.5957 -17.92797,-7.9343c-3.55258,-1.66124 -6.13455,-3.16369 -6.13455,-3.16369z" fill="#2b263c" stroke="#000000" stroke-width="2"/><path d="M279.96382,180.06356l-2.00382,-4.30846c0,0 6.0423,-1.77271 8.91116,-2.61719c0.61561,-0.18121 1.30249,0.85248 2.98758,0.10234c1.71161,-0.76195 2.16534,-3.96455 2.16534,-3.96455c0,0 0.40042,-2.18589 1.35965,-2.37587c0.27221,-0.05392 2.00297,1.72988 2.26872,1.8742c2.0975,1.13921 4.88535,1.97889 4.88535,1.97889l0.1677,9.89814z" fill="#2b263c" stroke="none" stroke-width="0"/><path d="M262.65123,181.68944l-1.77398,-7.66869c0,0 4.59646,1.49686 6.93608,2.61943c2.33616,1.12091 5.26946,2.57267 8.16264,3.91259c2.63133,1.21865 5.22806,2.2455 6.84164,3.0078c3.56937,1.68625 8.9259,4.3989 8.9259,4.3989c0,0 2.73809,-2.1209 5.47653,-4.09299c1.29993,-0.93614 2.57258,-1.8677 3.49914,-2.57939c1.37207,-1.05387 3.19217,-2.54036 4.79571,-3.88307c0.0677,-0.05668 0.65419,-0.07553 1.30599,-0.50146c0.84259,-0.55059 1.7872,-1.52989 1.7872,-1.52989c0,0 1.38026,0.01607 -0.931,3.42156c-1.1434,1.68472 -3.30469,4.57907 -5.76657,7.27023c-2.16443,2.36601 -4.58794,4.51744 -6.38715,6.3455c-1.90738,1.93797 -3.24291,3.1335 -3.24291,3.1335c0,0 -0.74615,-0.59642 -1.61815,-0.99757c-1.60456,-0.73816 -7.27888,-3.38576 -13.0716,-6.06693c-1.08734,-0.50327 -2.30733,-0.88633 -3.37688,-1.37956c-1.2743,-0.58767 -2.38894,-1.2808 -3.5567,-1.81562c-1.50606,-0.68975 -2.88677,-1.31811 -4.04727,-1.84006c-2.17665,-0.97895 -3.95864,-1.75433 -3.95864,-1.75433z" fill="#1b1f25" stroke="none" stroke-width="0"/><path d="M249.29083,175.89059l-5.71097,-4.85596c0,0 -1.061,-4.52013 -1.2859,-5.16321c-0.07557,-0.21609 -0.70898,-2.8666 -0.36924,-3.28518c0.57695,-0.71084 2.15787,-1.54888 4.86202,-1.57484c5.66208,-0.05434 9.73297,1.46309 9.73297,1.46309c0,0 2.91826,2.92131 4.83225,6.43974c0.35703,0.65633 0.93523,1.52085 1.23552,2.31714c0.11931,0.3164 0.14031,0.68529 0.20937,0.93079c0.29997,1.06626 0.64594,2.38246 0.76687,3.72534c0.32058,3.55957 -0.0132,7.33282 -0.0132,7.33282z" fill="#afcad3" stroke="#000000" stroke-width="1.5"/><path d="M248.69044,164.48438c0,0 0.93941,-2.68379 2.50511,-3.02397c0.98246,-0.21347 2.9671,-0.35746 4.82917,0.94047c1.36181,0.94921 2.36634,2.29097 3.47819,4.04584c0.63774,1.00656 1.48379,2.56446 0.94381,3.96444c-0.48751,1.26392 -1.89843,2.1683 -2.84233,1.69754c-0.86333,-0.43059 -2.71111,-2.04874 -3.89796,-3.09713c-0.5498,-0.48567 -0.76932,-2.28089 -1.31801,-2.76315c-0.70894,-0.6231 -1.36231,-1.02646 -1.91626,-1.28745c-1.07965,-0.50866 -1.7817,-0.47658 -1.7817,-0.47658z" fill="#afcad3" stroke="#000000" stroke-width="2"/><path d="M249.61315,164.51051c0,0 0.79647,-1.52289 1.68786,-2.05875c0.4158,-0.24996 1.53441,-0.31252 1.53441,-0.31252l6.47335,5.10841c0,0 2.15472,2.10521 0.07631,3.71824c-1.43519,1.11383 -2.69622,-0.72819 -3.34454,-1.26006c-1.78956,-1.46813 -4.07638,-4.10701 -4.71487,-4.60086c-0.47873,-0.37029 -1.71251,-0.59446 -1.71251,-0.59446z" fill="#afcad3" stroke="none" stroke-width="0"/><path d="M259.54184,168.6155c-0.47139,0.46163 -1.01401,0.46916 -1.53973,0.36674c-0.82834,-0.16136 -1.72229,-0.82686 -3.04969,-2.18235c-1.08297,-1.10586 -2.21264,-1.994 -2.68845,-2.82458c-0.22551,-0.39368 -0.59174,-1.25459 0.07176,-1.89292c0.47862,-0.46048 1.70804,-0.22016 2.25881,-0.01064c1.22423,0.46571 2.71326,1.38466 3.62363,2.3143c1.54317,1.5758 2.02334,2.3668 1.82284,3.16688c-0.08143,0.32492 -0.14851,0.71919 -0.49918,1.06258z" fill="#ffffff" stroke="#000000" stroke-width="1"/></g><g><g><path d="M235.08242,180.18454c1.04906,6.30135 -3.84687,13.17731 -10.52958,14.28985c-1.85487,0.3088 -3.76531,0.4615 -5.2632,-0.05713c-2.08258,-0.72108 -3.84125,-2.27124 -5.08663,-4.2905c-0.59912,-0.97141 -1.03733,-2.11033 -1.41535,-3.20622c-0.30723,-0.89065 -0.41007,-1.84376 -0.56835,-2.79453c-1.04906,-6.30135 2.00561,-13.27629 8.68835,-14.38882c2.03545,-0.33886 3.93762,-0.66103 5.76988,0.04995c2.00347,0.7774 3.90409,2.67425 5.33001,4.28815c1.55149,1.75604 2.69476,3.82582 3.07491,6.10927z" fill="#000000" stroke="#000000" stroke-width="1.5"/><path d="M234.06337,178.93492c0.76487,4.59436 -2.58799,6.6824 -8.48985,7.66495c-5.90185,0.98255 -11.68859,-0.53007 -12.45347,-5.12445c-0.38523,-2.31391 0.43937,-4.78719 2.02526,-6.85621c1.56296,-2.03911 3.86299,-3.68723 6.79242,-4.17493c5.90185,-0.98255 11.36077,3.89628 12.12564,8.49065z" fill="#485e84" stroke="none" stroke-width="0"/><path d="M227.25035,186.72621c0.73163,4.39462 -0.22811,5.85022 -4.02346,6.48208c-0.51652,0.08599 -1.46167,0.24866 -2.556,-0.20216c-1.11892,-0.46097 -2.40481,-1.31442 -3.53721,-2.18617c-1.04902,-0.80759 -1.89432,-1.63328 -2.46136,-2.39226c-0.63001,-0.8433 -0.89645,-1.49907 -1.09313,-2.12567c-0.15856,-0.50516 -0.3669,-0.97551 -0.42334,-1.55324c-0.16474,-1.68688 -0.0596,-3.59909 -0.0596,-3.59909c0,0 1.95443,0.36916 3.57915,0.04441c0.94423,-0.18873 2.36719,-1.34672 2.36719,-1.34672c0,0 7.47614,2.48423 8.20775,6.87885z" fill="#343545" stroke="none" stroke-width="0"/><path d="M220.61121,172.42228c-0.73837,0.12293 -1.18907,0.10779 -1.51599,-0.05967c-0.2359,-0.12084 -0.43887,-0.31574 -0.48957,-0.6202c-0.12094,-0.72638 2.8708,-1.21884 2.95142,-1.22735c0.34227,-0.0361 0.65601,1.16716 0.26393,1.52394c-0.25289,0.23012 -0.85737,0.32462 -1.20982,0.3833z" fill="#8fbbbe" stroke="none" stroke-width="0"/><path d="M217.69446,173.34604c0.05624,0.12941 -0.04031,0.25953 -0.13007,0.44049c-0.09761,0.19679 -0.20121,0.44367 -0.45628,0.55452c-0.48963,0.21278 -0.77976,0.13265 -0.89715,-0.1375c-0.1174,-0.27014 0.07082,-0.50273 0.56046,-0.71552c0.48963,-0.21278 0.80565,-0.41213 0.92305,-0.14198z" fill="#8fbbbe" stroke="none" stroke-width="0"/><path d="M218.23606,191.90785l-2.79434,-2.43126c0,0 -0.70132,-1.523 -0.97724,-3.74718c-0.02584,-0.20829 -1.12559,-1.28006 -1.47235,-2.10043c-0.41367,-0.97868 -0.08367,-1.72883 -0.08967,-2.00561c-0.00511,-0.23623 1.45136,2.17684 1.45917,1.93164c0.03525,-1.10723 0.21216,-2.29862 0.62072,-3.5086c0.13904,-0.41179 0.28652,-0.87802 0.45541,-1.36129c0.06292,-0.18007 -0.75883,-1.00815 -1.1061,-1.6805c-0.32706,-0.63318 -0.18149,-1.11232 -0.10897,-1.28369c0.04405,-0.10411 0.59892,0.59828 1.10656,1.03643c0.3586,0.30951 0.71719,0.41068 0.75194,0.33898c0.22657,-0.46755 0.48736,-0.91233 0.79461,-1.29888c0.4068,-0.51178 0.73101,-0.60132 1.15287,-1.02187c0.16347,-0.16294 0.37285,-0.49215 0.53719,-0.6698c0.05186,-0.05605 -0.37061,-0.44996 -0.70253,-0.92187c-0.45077,-0.64089 -0.72433,-1.4998 -0.65195,-1.57366c0.06534,-0.06668 0.58368,0.45114 1.09524,0.9053c0.52129,0.46279 1.03599,0.86217 1.10587,0.80226c0.12423,-0.1065 0.25168,-0.20418 0.38336,-0.28875c1.24781,-0.80138 2.66264,-1.31019 3.4574,-1.38067c0.2443,-0.02167 0.4846,-0.03954 0.71985,-0.05386c0.3726,-0.02269 -1.70944,-0.95162 -1.87482,-1.56515c-0.1221,-0.45296 1.63918,-0.64306 1.87207,-0.63947c0.11068,0.00171 0.98578,1.07329 1.62671,1.7166c0.30752,0.30865 0.60634,0.45546 0.65573,0.45744c0.68558,0.02758 1.26043,0.16062 1.64624,0.24422c1.34742,0.29198 3.45692,2.34693 3.45692,2.34693c0,0 -1.13117,-0.82086 -2.84814,-1.38076c-0.54997,-0.17934 -1.25827,-0.37708 -1.94044,-0.44902c-0.19795,-0.02088 0.39562,1.02426 0.36416,1.42282c-0.02704,0.34261 -0.27609,0.26812 -0.44876,0.27812c-0.22623,0.0131 -1.46972,-1.68177 -1.71947,-1.66071c-0.54546,0.04597 -1.11058,0.13793 -1.68805,0.28559c-0.439,0.11228 -1.48659,0.55791 -2.41792,1.14999c-0.16748,0.10649 -0.33424,0.21351 -0.49715,0.3185c-0.05982,0.03857 0.29215,0.2945 0.37874,0.67712c0.09173,0.4053 -0.08131,0.93837 -0.14172,0.97744c-0.14868,0.09615 -0.42363,-0.38884 -0.72041,-0.68736c-0.24599,-0.24743 -0.52169,-0.319 -0.62008,-0.25668c-0.2341,0.14825 -0.57921,0.21912 -0.70907,0.28918c-0.27505,0.1484 -0.3236,0.82609 -0.55961,1.02399c-0.40848,0.34252 -0.68165,0.83144 -0.96938,1.42401c-0.0386,0.0795 0.39467,0.57649 0.84834,0.88922c0.58368,0.40235 1.22419,0.63823 1.1803,0.74917c-0.07232,0.18283 -0.81115,0.36127 -1.47955,0.27048c-0.5855,-0.07953 -1.11149,-0.43393 -1.16134,-0.25943c-0.63109,2.20911 -0.78053,4.77916 -0.72884,5.63166c0.00183,0.0302 0.28229,0.3784 0.52859,0.48342c0.51002,0.21746 1.2595,0.28025 1.79031,0.54243c0.62528,0.30885 0.52862,0.42856 0.65751,0.79562c0.05247,0.14947 -2.38105,0.13955 -2.32213,0.29804c0.06335,0.17039 -0.08119,0.38008 -0.01139,0.55632c0.08534,0.21543 0.13953,0.89254 0.30805,1.31284c0.3223,0.80387 1.02432,1.4447 1.19773,1.84881c0.01097,0.02557 0.98255,0.25114 1.84684,0.32798c0.72403,0.06438 1.36576,-0.01766 1.37186,-0.00357c0.02711,0.06236 -0.48452,0.71249 -1.01372,0.76349c-0.67462,0.06503 -1.59518,0.13406 -1.59518,0.13406z" fill="#000000" stroke="none" stroke-width="0"/><path d="M238.06861,182.28938c0.79814,4.79412 -2.73568,9.37656 -7.89299,10.23515c-2.04673,0.34075 -4.06359,1.107 -5.81487,0.55005c-2.66155,-0.84644 -4.91467,-3.69945 -5.39606,-6.59098c-0.2541,-1.52636 0.13111,-3.5105 0.46793,-5.41102c0.25627,-1.44599 0.32117,-2.88294 0.93345,-3.83713c0.42847,-0.66774 1.13115,-1.1881 1.77529,-1.65482c1.0254,-0.74295 2.37146,-1.1721 3.7632,-1.40379c1.74128,-0.28989 3.59146,-0.0715 5.32373,0.61662c3.39834,1.34996 6.31169,4.32044 6.84035,7.49592z" fill="#000000" stroke="#000000" stroke-width="2"/><path d="M234.50115,182.37642c0.68023,4.08589 -2.52225,8.02314 -7.15294,8.79405c-2.61982,0.43615 -3.38442,1.40523 -5.06351,0.12926c-1.88778,-1.43456 -2.62418,-5.10224 -2.91957,-6.87655c-0.68023,-4.08589 2.80741,-9.15195 7.4381,-9.92288c4.63069,-0.77092 7.01771,3.7902 7.69793,7.8761z" fill="#485e84" stroke="none" stroke-width="0"/><path d="M224.31466,178.02349c0,0 -1.71485,-0.21716 -2.28511,-0.61436c-0.48674,-0.33903 1.95673,-1.764 1.95673,-1.764l2.02731,1.62243z" fill="#8fbbbe" stroke="none" stroke-width="0"/><path d="M236.10693,181.46702c0.55627,3.34137 -2.52587,6.63827 -6.88417,7.36385c-4.3583,0.72558 -6.9396,-0.68229 -7.49587,-4.02364c-0.38605,-2.31887 0.66645,-5.14751 2.75654,-6.93761c0.9216,-0.78932 1.98314,-1.4209 3.31682,-1.64293c4.3583,-0.72558 7.75042,1.89898 8.30669,5.24034z" fill="#485e84" stroke="#000000" stroke-width="2"/></g><g><path d="M227.59945,195.72436c0,0 -1.32471,0.10541 -2.41415,-0.27098c-1.81111,-0.62573 -2.17204,-2.38376 -2.05839,-4.35715c0.0369,-0.64071 1.22962,-1.03266 1.23411,-1.66938c0.0136,-1.9176 -2.00004,-2.87229 -1.14398,-4.80108c0.21677,-0.4884 0.69368,-0.62588 1.03539,-1.04059c0.61727,-0.74912 1.77382,-1.19305 2.59006,-1.83292c1.11089,-0.87082 1.86523,-2.19006 2.75717,-3.228c1.525,-1.77462 2.71743,-3.69848 3.80437,-5.36596c1.9349,-2.9683 3.25833,-5.32233 3.55347,-5.98728c0.16791,-0.37833 0.9594,-0.78211 1.48868,-0.90253c1.53357,-0.34893 4.61832,-1.16457 5.51038,-1.36755c0.46948,-0.10683 1.27838,0.1003 1.73404,0.49262c0.46612,0.40131 1.20704,0.86174 1.92756,1.59961c0.58435,0.5984 1.27066,1.17236 1.83098,1.89968c1.13483,1.47305 2.03631,3.17865 2.51147,4.21397c0.78671,1.71417 1.68771,4.84495 -0.3788,7.1562c-1.37023,1.5325 -2.87637,2.39269 -3.53703,4.45166c-0.88106,2.74584 0.77738,7.36385 0.77738,7.36385c0,0 0.86107,1.59139 0.26641,3.51337c-0.159,0.51385 -0.30332,1.13616 -0.73785,1.65665c-0.51969,0.62247 -1.95396,2.32862 -2.94645,2.78945c-0.68739,0.31918 -1.35187,-0.20672 -1.8226,-0.17085c-1.01676,0.07748 -1.43955,0.23751 -2.15503,0.34373c-0.70488,0.10463 -0.97512,-0.17955 -1.31054,-0.52402c-0.53671,-0.55115 -0.89841,-1.31358 -0.89841,-1.31358c0,0 -0.48283,0.54558 -1.06696,0.95637c-0.35021,0.24628 -0.82808,0.41599 -1.0051,0.46921c-0.46413,0.13953 -1.0002,0.07984 -1.43701,-0.01578c-1.67893,-0.36752 -2.94765,-2.02073 -2.94765,-2.02073c0,0 -0.94613,0.38946 -1.82819,0.53098c-0.50016,0.08025 -1.00449,-0.06794 -1.24247,-0.04248c-1.4504,0.15526 -2.09085,-2.52649 -2.09085,-2.52649z" fill="#ffc6ef" stroke="#000000" stroke-width="1.5"/><path d="M223.23818,191.44922c0,0 3.56553,-0.90468 4.29917,-2.33672c0.12002,-0.23425 0.28381,0.83095 1.18354,0.70036c1.95348,-0.28352 3.43716,-0.99687 3.43817,-1.03111c0.00973,-0.3276 -1.33441,-1.77438 -1.45123,-2.07973c-0.12338,-0.32248 -2.68917,0.17787 -2.83127,-0.11239c-0.19074,-0.38963 -0.39868,-0.74324 -0.62479,-1.04205c-0.64461,-0.85178 -2.01759,0.33123 -2.86692,0.59435c-0.51141,0.15842 -0.74205,-0.50569 -0.76611,-0.76808c-0.05809,-0.63366 4.90401,-4.40137 4.90401,-4.40137c0,0 0.76522,0.60555 1.65919,0.38596c0.4164,-0.10229 1.00898,-0.46483 1.49284,-0.94894c0.42386,-0.42407 0.72586,-0.96888 0.99241,-1.34261c0.24782,-0.34749 0.4754,-0.53965 0.4754,-0.53965c0,0 -0.7022,1.46229 -1.07142,2.3578c-0.46379,1.1249 -1.49287,3.86175 -1.49287,3.86175l0.07283,1.19315c0,0 1.99299,-0.01741 2.55901,-0.37657c0.30593,-0.19412 0.99616,-0.77946 1.57513,-1.39443c0.31732,-0.33705 0.72008,-0.32005 1.05774,-0.71033c0.53843,-0.62234 0.97676,-1.36608 1.40956,-1.98298c0.71546,-1.0198 1.28288,-1.78794 1.28288,-1.78794c0,0 -0.17228,0.64557 -0.37667,1.22482c-0.34864,0.98813 -1.74379,3.25436 -1.74379,3.25436c0,0 0.33064,2.89738 0.9096,3.13488c0.33866,0.13894 0.74591,0.1201 1.10877,0.10706c0.51528,-0.01853 1.0735,-0.0485 1.62131,-0.32384c0.40736,-0.20475 0.98338,-0.54063 1.24292,-0.98571c0.60847,-1.04341 0.51227,-2.55523 1.464,-3.70804c0.69981,-0.84766 1.41514,-1.39651 2.21526,-1.77863c1.32898,-0.63469 2.75701,-0.90584 3.74516,-2.03077c1.3824,-1.57373 2.17141,-5.72658 2.17141,-5.72658c0,0 0.31932,0.43328 0.72044,1.50263c0.2475,0.65983 0.65927,1.81959 0.38688,3.34868c-0.06545,0.36736 -0.23453,0.88629 -0.56032,1.3929c-0.26177,0.4071 -0.65189,0.78682 -0.96485,1.22067c-0.29451,0.40827 -0.94536,0.75204 -1.02615,1.14115c-0.45912,2.2113 -0.56952,7.50122 -1.07239,9.39755c-0.08608,0.32461 0.30549,3.1288 0.28762,3.89568c-0.01479,0.63387 -0.4232,0.97799 -0.64486,1.50141c-0.63829,1.50714 -1.98263,2.46691 -2.89876,3.04565c-0.65994,0.41689 -0.69955,-0.21368 -1.24017,-0.19706c-1.02393,0.03147 -2.20181,0.19932 -2.65721,0.41943c-0.46065,0.22266 -0.7757,-0.64249 -1.16434,-1.14174c-0.2343,-0.30097 -0.54517,-0.5098 -0.82991,-0.39229c-0.79751,0.32915 -1.49172,0.88059 -2.29312,1.13936c-0.73529,0.23742 -1.62851,-0.26976 -2.08555,-0.5666c-0.86492,-0.56175 -1.3232,-1.495 -1.8482,-1.34578c-1.11116,0.31579 -2.11153,0.90663 -3.07611,1.09503c-0.76662,0.14974 -1.77973,-2.77833 -2.40882,-2.6735c-1.09044,0.18172 -2.35483,-0.17259 -2.86496,-0.14334c-1.08483,0.06221 -1.41445,-4.0458 -1.41445,-4.0458z" fill="#d396fc" stroke="none" stroke-width="0"/><path d="M232.2386,179.32438c-0.08613,-0.07148 -0.18719,-0.25923 -0.13111,-0.42571c0.05369,-0.15939 0.25781,-0.29473 0.4753,-0.49113c0.47071,-0.42506 1.42159,-0.83782 2.19417,-1.57894c0.18223,-0.17479 0.40256,-0.69754 0.68596,-1.13942c0.25556,-0.39846 0.51096,-0.70996 0.65013,-0.83197c0.56693,-0.49709 1.04812,-0.70887 1.04812,-0.70887c0,0 -0.22215,0.44261 -0.79805,1.24457c-0.21335,0.2971 -0.54226,0.60666 -0.81316,0.98319c-0.2276,0.31637 -0.37042,0.65337 -0.58978,0.9704c-0.11906,0.17207 -0.30705,0.34596 -0.43724,0.4898c-0.4739,0.5236 -0.91152,0.78435 -1.31131,1.10384c-0.44822,0.35819 -0.74777,0.57118 -0.97303,0.38422z" fill="#000000" stroke="none" stroke-width="0"/><path d="M237.66709,180.42159c-0.18074,-0.14007 0.10804,-0.82004 0.69386,-1.6308c0.39463,-0.54616 1.10844,-1.07787 1.60343,-1.70093c0.72746,-0.91569 1.04386,-1.70045 1.67287,-2.45107c0.38922,-0.46449 0.80637,-0.95841 1.14284,-1.27519c0.35346,-0.33277 0.61676,-0.47688 0.61676,-0.47688c0,0 -0.54375,0.82266 -1.2139,1.91899c-0.80737,1.32079 -1.8279,3.04371 -2.69331,4.26897c-0.35851,0.50756 -0.60634,0.97986 -0.86315,1.24044c-0.22807,0.23142 -0.89331,0.1577 -0.95939,0.10649z" fill="#000000" stroke="none" stroke-width="0"/><path d="M225.0088,191.14878c-0.18248,0.18718 -0.6269,0.33817 -0.88124,0.6121c-0.28113,0.30276 -0.27638,0.44649 -0.27207,0.70062c0.00721,0.42544 0.49034,1.12762 0.66139,1.24509c0.90662,0.62265 2.49931,1.54695 2.53821,1.6075c0.36865,0.57369 0.84678,1.05419 0.84678,1.05419c0,0 -2.06039,0.43472 -2.8319,0.18045c-0.71447,-0.23546 -1.97958,-1.69186 -2.22676,-2.24764c-0.17796,-0.40016 0.60453,0.1153 0.46509,-0.22085c-0.65135,-1.57006 -0.94287,-3.27371 -0.98196,-3.41129c-0.0374,-0.13156 -0.50257,-0.71124 -0.80709,-1.43458c-0.4073,-0.96745 -0.68281,-2.16597 -0.75725,-2.6443c-0.08316,-0.53434 -0.17662,-1.18224 -0.16657,-1.81773c0.01869,-1.18264 0.2338,-2.29536 0.39946,-2.36337c0.1433,-0.05882 0.75287,0.54148 1.08443,0.99928c0.16261,0.22453 1.70656,-1.51495 3.25103,-2.61588c1.482,-1.0564 4.08509,-2.06869 4.22981,-1.82503c0.24579,0.41379 -4.55289,3.54721 -6.14358,5.20433c-0.77508,0.80744 -0.04585,1.57835 -0.04585,1.57835c0,0 0.87637,0.00061 1.25393,-0.25061c0.53602,-0.35662 0.79278,-1.0444 1.50974,-1.57461c0.29577,-0.21872 0.61628,-0.34689 0.91126,-0.50915c0.27141,-0.14927 0.51806,-0.34623 0.74091,-0.44766c0.38894,-0.17701 0.72675,-0.34002 0.79215,-0.2734c0.14628,0.14906 0.09922,0.72763 -0.29066,1.35506c-0.15915,0.25611 -0.33818,0.46811 -0.62348,0.62825c-0.35039,0.19665 -0.74539,0.39775 -1.06092,0.79193c-0.15186,0.18972 -0.54584,0.55973 -0.69772,0.75617c-0.41521,0.53708 -0.66084,1.01648 -0.88464,1.46217c-0.01777,0.03538 -0.16217,0.42611 -0.09719,0.84619c0.09542,0.61683 0.41425,1.33494 0.37661,1.39595c-0.37041,0.60032 0.13978,0.77566 -0.29191,1.21845z" fill="#000000" stroke="none" stroke-width="0"/><path d="M231.92834,197.36914c0,0 -0.51303,-0.977 -1.19572,-1.89301c-0.63699,-0.85467 -2.35429,-2.32713 -3.45489,-3.69227c-0.81093,-1.00583 -1.21158,-2.02197 -1.21158,-2.02197c0,0 -0.43796,-1.03418 -0.08332,-1.56151c0.18295,-0.27204 0.26008,-0.57306 0.50494,-0.82182c0.9632,-0.97856 2.39378,-1.77241 3.44372,-2.8867c0.15745,-0.16711 0.34298,-1.15006 0.76895,-1.73406c0.43914,-0.60205 1.11729,-0.80281 1.16494,-0.78739c0.05112,0.01656 -0.09147,0.69605 -0.35722,1.4533c-0.08638,0.24613 -0.27129,0.88798 -0.4586,1.42767c-0.08225,0.23698 0.06868,1.08793 -0.05104,1.23672c-0.16953,0.21068 -0.31498,0.66755 -0.75895,0.99532c-0.63449,0.46843 -1.63879,0.8446 -2.15094,1.32197c-0.34969,0.32593 -0.5405,0.84298 -0.53782,0.94781c0.00371,0.14497 0.1061,0.54841 0.20726,0.68957c0.43791,0.61104 1.72828,1.15944 2.76228,2.23027c1.40039,1.45027 1.99036,2.42761 2.41673,3.35106c0.10994,0.23812 0.16498,0.61485 0.25129,0.83162c0.25054,0.62923 0.46063,1.50556 0.46063,1.50556c0,0 -1.38767,0.8255 -2.92999,1.07375c-0.73587,0.11845 -1.88538,0.02727 -2.2187,-0.14411c-0.89828,-0.46185 -1.44218,-2.00135 -1.54175,-2.93282c-0.04554,-0.42612 -0.14544,-0.64701 0.11726,-0.71742c0.06098,-0.01635 -0.67683,-1.49505 -1.51552,-2.60348c-0.77088,-1.0188 -1.64908,-1.66869 -1.58626,-1.8116c0.02691,-0.06121 -0.26601,-2.48022 0.41373,-2.61829c0.48788,-0.0991 1.90176,1.9547 2.31853,2.35161c0.49701,0.47332 1.13474,2.85892 1.21953,3.27359c0.133,0.65049 0.58979,1.55321 0.73329,1.78464c0.47092,0.75937 1.04655,1.57483 1.50098,1.85794c0.40094,0.24978 0.78693,0.11465 1.10975,0.03846c0.376,-0.08874 0.65851,-0.1444 0.65851,-0.1444z" fill="#000000" stroke="none" stroke-width="0"/><path d="M235.39326,188.54703c0,0 0.37896,0.03019 1.00151,0.17705c0.36689,0.08654 0.92323,0.17267 1.34689,0.29744c0.68475,0.20165 1.25784,0.56889 1.72195,0.79962c0.49892,0.24802 0.86509,0.36049 0.90512,0.60095c0.0345,0.20726 -0.61815,0.69509 -1.80665,0.94634c-0.59452,0.12569 -2.29716,0.35737 -3.42505,0.50528c-0.61533,0.08069 -1.45408,-0.20339 -1.45408,-0.20339c0,0 -0.4736,-0.13662 -0.30673,-0.57915c0.25101,-0.66567 2.01702,-2.54414 2.01702,-2.54414z" fill="#ffc6ef" stroke="none" stroke-width="0"/><path d="M236.64061,200.09901c0,0 0.88084,-0.48651 1.32229,-1.14566c0.21562,-0.32195 0.37649,-0.69342 0.18192,-1.05339c-0.36845,-0.68166 -0.96293,-1.75511 -1.63391,-2.3096c-0.61045,-0.50447 -1.0193,-0.54197 -1.67815,-0.99141c-0.78399,-0.5348 -1.53411,-1.04759 -2.0882,-1.57868c-0.71233,-0.68276 -0.85455,-1.59565 -0.72039,-2.27179c0.15612,-0.78682 1.22439,-1.21256 1.7939,-2.1564c0.45581,-0.75541 0.96558,-1.57743 1.30444,-2.33682c0.43795,-0.9814 0.67858,-1.87287 1.06733,-2.53368c0.04817,-0.08188 0.90675,-1.30613 1.1648,-0.83989c0.01254,0.02265 -0.78973,1.11224 -0.82326,2.02638c-0.02189,0.59665 -0.01184,1.16211 0.03247,1.77279c0.03503,0.48252 0.06414,0.93023 -0.15091,1.55586c-0.36742,1.06897 -2.51764,2.94449 -2.40992,3.30368c0.27464,0.91582 2.98955,1.35934 3.59719,2.18333c0.59176,0.80249 1.09714,1.58337 1.5277,2.30429c0.55712,0.93282 0.79171,1.79811 1.12343,2.44698c0.45838,0.89663 0.94864,1.40565 0.94864,1.40565c0,0 -1.30481,-0.53409 -1.98919,-0.5013c-0.81311,0.03895 -2.57018,0.71966 -2.57018,0.71966z" fill="#000000" stroke="none" stroke-width="0"/><path d="M243.59033,193.94078c-0.14411,-0.12823 0.0178,-0.63355 0.25903,-1.58404c0.08791,-0.34632 0.33842,-0.89431 0.37288,-1.30259c0.03709,-0.43947 0.22518,-0.84631 0.11215,-1.35797c-0.12016,-0.54386 -0.7394,-1.15335 -0.70373,-1.38362c0.04183,-0.27004 0.60544,-0.45558 0.82931,-0.66386c0.28053,-0.26099 0.83047,-0.95214 0.83047,-0.95214c0,0 1.37686,-3.07282 3.5558,-5.19368c1.00667,-0.97983 2.8615,-1.63467 3.61675,-1.9079c0.13421,-0.04856 0.70747,4.01032 0.71255,4.06061c0.03991,0.39576 -7.72376,4.99431 -7.6007,5.34046c0.21418,0.60245 0.79041,0.66233 0.83006,0.96058c0.05314,0.39963 -0.57815,0.7733 -0.57815,0.7733c0,0 -0.33949,0.91182 -0.94049,1.8254c-0.45855,0.69705 -1.19756,1.47296 -1.29591,1.38545z" fill="#000000" stroke="none" stroke-width="0"/><path d="M245.35169,188.49958c0.21701,-1.49064 0.84382,-2.62596 1.12626,-3.40832c0.39403,-1.0915 2.00082,-2.26686 2.76621,-2.7783c0.24914,-0.16647 0.58475,-0.24828 0.89314,-0.17444c0.38896,0.09313 0.98916,0.28091 1.71466,0.654c1.53517,0.78945 3.59736,2.36346 4.57566,2.9413c0.94157,0.55612 2.15475,1.50819 2.73231,1.97429c0.20862,0.16837 0.29814,0.49429 0.23538,0.83425c-0.1481,0.80221 -0.44427,2.26708 -0.76258,3.05475c-0.22894,0.56654 -0.85845,1.48502 -1.26408,2.0494c-0.2124,0.29552 -0.5783,0.52906 -0.95773,0.56945c-1.44262,0.15357 -5.26381,0.38378 -8.69604,-0.94673c-0.80669,-0.31272 -0.54532,-1.43011 -0.90027,-2.22805c-0.4893,-1.09997 -1.55109,-1.93598 -1.46293,-2.54158z" fill="#485e84" stroke="#000000" stroke-width="2"/><path d="M259.4453,189.23553c-0.38526,0.81457 -1.1453,2.42135 -1.61924,3.42202c-0.20424,0.43122 -0.56735,0.96764 -0.9961,1.03901c-0.81115,0.13505 -1.5941,0.42617 -2.23133,0.1587c-0.19145,-0.08036 -0.09938,-0.00662 -0.21167,-0.21307c-0.359,-0.6601 -0.47395,-2.21474 -0.26904,-3.04231c0.52538,-2.12171 0.91193,-2.88898 2.74605,-3.19433c1.2075,-0.20102 2.0482,0.43529 2.48169,0.89352c0.22495,0.2378 0.24758,0.62364 0.09963,0.93643z" fill="#343545" stroke="#000000" stroke-width="1"/></g></g><g><g><path d="M250.37988,139.92502c-0.36646,-0.04593 -2.39927,-1.8306 -3.63623,-2.54336c-0.92832,-0.53492 -1.76798,-2.14704 -3.14467,-3.01396c-0.92731,-0.58396 -1.06423,1.04615 -2.18131,0.32574c-2.91835,-1.88206 -4.53769,-3.0075 -6.73305,-4.97643c-0.35548,-0.31882 -0.51878,-1.12647 -0.89978,-1.47888c-0.30007,-0.27756 -1.01954,-0.37877 -1.34231,-0.68201c-0.26475,-0.24874 -1.1369,-1.00246 -1.15041,-1.74537c-0.01181,-0.64937 0.18703,-1.56385 0.21879,-2.61144c0.02664,-0.87905 -0.09874,-1.85731 -0.22964,-2.7981c-0.3607,-2.59258 -0.77587,-5.2629 -1.10892,-6.62862c-0.13535,-0.55507 -0.34876,-0.90915 -0.39684,-0.93231c-1.75977,-0.84788 -4.90092,2.30946 -6.238,1.1148c-4.54236,-4.05854 -5.86778,-14.96324 -5.2733,-17.0189c0.4727,-1.63455 3.43092,1.07882 5.96287,1.60896c1.02447,0.35711 1.76179,0.1733 1.76179,0.1733c0,0 12.88102,-10.6041 21.19654,-12.24984c8.64149,-1.71026 29.71213,2.17439 29.71213,2.17439c0,0 -0.4935,1.99676 -1.01064,3.89097c-0.22895,0.83862 -0.51333,1.64907 -0.65755,2.27374c-0.07002,0.30324 -0.43622,0.51043 -0.41782,0.7081c0.01788,0.19204 0.48829,0.44838 0.68298,0.67895c0.27977,0.33133 0.67001,0.71737 0.9635,1.20114c0.49027,0.80814 0.93172,1.73364 0.91855,1.88667c-0.17868,2.07713 -2.79588,5.58126 -2.90947,7.39981c-0.12957,2.0747 0.98675,1.04193 0.74968,2.75425c-1.0525,7.60209 -5.18656,20.22641 -5.13728,21.16164c0.00113,1.10242 0.67805,2.68561 1.22292,4.63346c0.47319,1.69162 0.85343,3.47366 1.03998,4.49077c0.09578,0.52229 -0.3231,1.14977 -0.56842,1.26964c-0.28139,0.13747 -0.66935,0.27484 -1.29291,0.38758c-1.21199,0.21912 -2.21062,-0.32494 -3.52044,-0.30618c-2.7518,0.03939 -5.8211,0.1553 -8.87002,-0.15477c-3.47336,-0.35323 -6.45044,-0.83375 -7.65264,-0.98442z" fill="#ffc6ef" stroke="#000000" stroke-width="2"/><path d="M235.5237,107.30544l-1.73853,-18.04111l41.31331,1.95902l-1.18372,3.85883c0,0 -2.0381,1.43039 -3.2727,2.28329c-0.91061,0.62909 -1.20654,1.05344 -1.94221,1.58411c-0.2521,0.18185 -0.70175,0.27181 -1.04746,0.52846c-1.51435,1.1243 -2.22733,2.28959 -3.24943,2.51482c-0.44784,0.09868 2.58533,-4.8806 2.16663,-4.81765c-0.52125,0.07837 -0.93613,0.22477 -1.37046,0.21672c-2.53045,-0.04682 -7.25225,-1.53329 -10.23197,-2.31728c-1.67237,-0.44 -2.71201,-0.3932 -2.71201,-0.3932c0,0 1.53018,3.05152 2.85413,5.26322c0.64899,1.08414 1.30579,2.04554 1.59706,2.19326c0.97161,0.49281 2.71739,0.30646 4.63809,0.9795c0.99483,0.3486 2.02418,1.74287 5.29188,1.10627c0.74689,-0.14549 1.4362,-0.34522 2.18537,-0.66562c1.24672,-0.53317 2.63108,-1.32448 3.61252,-1.8063c1.8087,-0.88796 2.9397,-1.13741 2.9397,-1.13741c0,0 -1.35094,2.32422 -1.36514,5.0778c-0.0058,1.12419 0.18694,2.15691 0.20954,3.1527c0.01191,0.5246 -0.09855,1.09355 -0.14678,1.54161c-0.39272,3.64803 -3.03787,12.30734 -3.03787,12.30734c0,0 -1.48352,0.65215 -2.49312,1.4184c-1.43665,1.09037 -5.39679,4.48738 -5.39679,4.48738c0,0 0.56,-3.04816 1.85155,-5.28807c1.09943,-1.90672 2.91225,-2.94518 3.39214,-4.05476c0.07786,-0.18003 0.70259,-0.80103 0.70259,-0.80103c0,0 -0.72878,-0.46469 -0.68687,-0.78403c0.15494,-1.18084 0.46274,-2.3025 0.46274,-2.3025l-3.39211,-8.82849l-4.04639,1.10271c0,0 -0.07201,4.13367 -0.00227,5.88788c0.09089,2.28609 0.90736,4.21432 0.90736,4.21432c0,0 -5.09541,-1.34634 -8.28197,-3.82312c-3.66952,-2.85215 -5.63329,-6.73008 -7.4914,-7.11104c-3.93048,-0.80584 -6.75136,-0.80652 -8.56923,-0.45605c-1.6372,0.31564 -2.46621,0.95003 -2.46621,0.95003z" fill="#d396fc" stroke="none" stroke-width="0"/><path d="M231.47542,126.77536l0.47955,-3.02101l2.55623,0.40578l-0.47955,3.02099z" fill="#000000" stroke="none" stroke-width="0"/><path d="M219.66641,102.86361c0,0 0.54245,-1.13864 1.49991,-1.14919c0.15537,-0.00171 0.453,0.05694 0.73345,0.24233c1.66759,1.10224 5.21479,5.03281 5.21479,5.03281c0,0 -0.30856,-1.98974 -0.37285,-2.92937c-0.06072,-0.8875 -0.00287,-2.56097 -0.00287,-2.56097l9.45259,13.57669l-0.49522,3.49499c0,0 0.44483,1.18789 1.62208,1.82931c0.68458,0.37298 3.75876,-4.06592 4.24368,-3.52973c0.35621,0.39387 0.8131,2.58942 0.83022,3.49702c0.02574,1.3642 -1.99897,4.24967 -1.99897,4.24967l-0.7522,5.64048c0,0 0.46651,0.2011 0.92629,0.48902c0.68009,0.42589 2.56529,2.05598 4.90928,3.5391c1.6349,1.03447 3.40899,2.28011 4.98639,3.19545c0.52366,0.30387 1.70222,0.45449 2.16786,0.70889c1.65896,0.90638 3.08094,1.50515 3.08094,1.50515c0,0 -2.02618,-0.16537 -4.21746,-0.58902c-0.59964,-0.11593 -1.21948,-0.20181 -1.8022,-0.38049c-0.93903,-0.28793 -5.13492,-1.98776 -5.13492,-1.98776c0,0 -1.58686,0.65286 -2.51945,0.09188c-0.02817,-0.01695 -2.59735,-1.74113 -3.49516,-2.60376c-0.12061,-0.11588 -0.56841,-1.14878 -1.42886,-2.34426c-0.34919,-0.48514 -0.63215,-1.04655 -1.06023,-1.49862c-0.59699,-0.63046 -1.34898,-1.1406 -1.82945,-1.75277c-0.75943,-0.96761 -1.34625,-2.26556 -1.35931,-2.28597c-0.49255,-0.76963 -0.49339,-3.39967 -0.87271,-6.38038c-0.37246,-2.92688 -0.74507,-6.00884 -1.44653,-7.50015c-0.21446,-0.45596 -0.5918,-0.6111 -0.84652,-0.72947c-0.4942,-0.22966 -1.69562,-0.04972 -2.72967,0.49377c-1.21027,0.63608 -2.44647,1.32174 -2.90376,0.93343c-1.11236,-1.10001 -2.11846,-2.97605 -2.8394,-4.86622c-1.04036,-2.72764 -1.55973,-5.43187 -1.55973,-5.43187z" fill="#d396fc" stroke="none" stroke-width="0"/><path d="M225.72876,98.68484c-0.37429,-1.74246 -0.98795,-5.04243 -1.4218,-8.36711c-0.51164,-3.92081 -1.07436,-8.43429 -1.26946,-10.43507c-0.04525,-0.46421 0.35601,-1.81809 0.86339,-1.95198c1.1482,-0.30299 3.60633,-0.93283 5.47491,-1.3384c0.32672,-0.07091 0.58805,0.11451 0.84943,0.06631c0.25398,-0.04684 0.03494,-0.29498 0.29055,-0.34068c4.88388,-0.87295 10.70709,-1.65329 10.70709,-1.65329c0,0 8.21807,9.786 6.97496,13.66142c-1.11276,3.46901 -14.1252,8.7541 -14.1252,8.7541c0,0 0.50185,3.2803 0.66507,4.96784c0.15507,1.60358 0.41447,4.93799 0.41447,4.93799c0,0 -0.83166,0.96517 -0.92086,1.50426c-0.15996,0.9667 0.08076,2.10067 0.32737,2.92001c0.19861,0.65987 0.19174,0.69415 -0.17314,0.21498c-1.01334,-1.33076 -3.07566,-4.05852 -4.19781,-5.67869c-0.73886,-1.06677 -1.41545,-1.88086 -2.29073,-3.25886c-0.37648,-0.59273 -0.10284,-1.04027 -0.37451,-1.47319c-0.10402,-0.16578 -0.10186,-0.6852 -0.38703,-0.99668c-0.19477,-0.21274 -0.67627,-0.21767 -0.81529,-0.38365c-0.38792,-0.46307 -0.4307,-0.64897 -0.51584,-1.04526z" fill="#4a5c6f" stroke="#000000" stroke-width="2"/><path d="M242.0771,89.50174c-0.02935,-0.15094 -0.67207,-0.3571 -1.44347,-0.7569c-2.28803,-1.18585 -6.94717,-3.28527 -8.83534,-4.24458c-0.74991,-0.381 -0.6074,-0.1354 -0.04568,-0.45038c1.33711,-0.74979 8.38151,-4.32388 8.38151,-4.32388c0,0 -3.78743,-3.46517 -4.67892,-6.57663c-1.92251,-6.7099 0.36094,-9.36932 0.852,-10.04595c0.19546,-0.26931 1.66912,-1.64688 3.4665,-2.64324c1.26591,-0.70175 2.67905,-1.13045 4.0431,-1.62944c2.59526,-0.94938 6.64659,-1.4878 8.13521,-1.74045c0.72251,-0.12264 -0.07265,0.24725 -0.62459,0.85312c-1.60713,1.76417 -5.06609,5.02298 -4.67736,6.31845c0.20519,0.68381 1.10426,1.76448 1.78055,2.92215c0.49469,0.84681 1.27289,1.96749 2.21425,2.93721c0.68251,0.70307 1.90515,1.00892 3.42749,1.30044c6.43149,1.23154 18.65276,-0.56607 22.5306,-1.67461c0.38749,-0.11075 0.78529,-4.72231 0.9401,-4.72043c0.6954,0.00851 11.45078,12.23265 5.038,20.56974c-2.42046,3.14678 -6.4707,5.06543 -10.94847,5.97516c-8.71472,1.77052 -18.62351,0.00388 -18.62351,0.00388c0,0 -6.2413,2.27333 -11.38034,3.81098c-2.90536,0.8693 -5.45317,1.47049 -6.39236,1.73792c-0.76495,0.2178 -1.99902,0.33518 -1.58787,-0.31941c0,0 0.73549,-0.68708 1.568,-1.37022c1.70336,-1.39769 4.47419,-3.6069 5.66938,-4.8494c0,0 1.21793,-0.94614 1.19121,-1.08351z" fill="#4a5c6f" stroke="#000000" stroke-width="2"/><path d="M251.43294,82.63471c0,0 -14.46286,-4.42485 -12.7122,-15.55469c0.40892,-2.59965 0.70325,-2.93971 1.52631,-4.00318c3.22495,-4.16698 9.87189,-5.11996 9.87189,-5.11996c0,0 -4.3822,4.22973 -4.54098,5.67044c-0.11844,1.07465 2.92742,6.4732 4.3272,7.31242c1.52301,0.91311 3.73157,1.27294 6.20077,1.52867c7.69311,0.79679 18.14371,-0.85004 20.1329,-1.64138c0.29796,-0.11854 1.09811,-0.53396 1.37166,-1.13042c0.52065,-1.13523 0.29033,-2.91155 0.29033,-2.91155c0,0 2.10989,2.8505 2.92558,4.27551c0.93293,1.62985 2.50161,5.45722 2.50161,5.45722c0,0 -7.22244,6.0707 -15.62376,5.69724c-3.9295,-0.17467 -7.38617,-0.67615 -10.05236,-1.5075c-2.62328,-0.81797 -4.42128,-2.14452 -5.90981,-3.09717c-2.4087,-1.54154 -3.65605,-2.59458 -3.65605,-2.59458c0,0 0.40233,1.51157 0.79752,2.42651c0.59232,1.37134 2.5494,5.19244 2.5494,5.19244z" fill="#696f96" stroke="none" stroke-width="0"/><path d="M240.20408,80.07607l0.47722,-0.91851c0,0 1.92627,0.55474 3.03626,1.41371c0.80638,0.62402 1.21037,1.30059 0.93789,1.54403c-0.34463,0.3079 -1.37189,-0.37414 -2.35874,-0.94607c-0.41461,-0.24027 -0.80672,-0.66345 -1.16327,-0.84661c-0.52024,-0.26726 -0.92936,-0.24654 -0.92936,-0.24654z" fill="#000000" stroke="none" stroke-width="0"/><path d="M235.50596,79.90276l0.23516,-1.48145c0,0 1.3662,0.32822 2.44611,0.54838c0.67507,0.13762 1.24782,0.17285 1.27555,0.24489c0.26078,0.67766 -2.93312,1.25568 -2.93312,1.25568z" fill="#4a5c6f" stroke="none" stroke-width="0"/><path d="M227.03162,99.91681l-0.56433,-3.40329l7.41644,10.10587c0,0 -0.58879,0.6612 -0.6694,1.08344c-0.09794,0.51295 0.12354,1.77543 0.12354,1.77543z" fill="#4a5c6f" stroke="none" stroke-width="0"/><path d="M230.52355,107.2021l-0.00856,-1.10592l1.257,0.19952l-0.22804,1.43656z" fill="#000000" stroke="none" stroke-width="0"/><path d="M225.93332,106.75286c0,0 -0.18519,-0.4068 -0.53524,-0.86219c-0.39235,-0.51041 -1.04139,-1.10822 -1.38375,-1.55253c-0.35612,-0.46214 -0.9663,-1.18984 -1.44361,-1.82666c-0.55499,-0.74044 -0.72899,-0.96446 -0.72899,-0.96446c0,0 0.36985,0.15007 0.89684,0.54454c0.30567,0.22879 0.61737,0.53237 1.06225,0.95591c1.16861,1.11253 2.55824,2.61081 3.55261,3.92719c1.26414,1.67357 1.9766,2.93895 0.82494,3.70184c-0.60048,0.39777 -0.76083,0.1794 -1.09631,-0.06499c-0.3391,-0.24703 -0.53301,-0.65196 -0.72933,-1.1456c-0.15683,-0.39436 -0.3477,-0.85049 -0.37669,-1.29012c-0.05365,-0.81347 -0.04273,-1.42295 -0.04273,-1.42295z" fill="#000000" stroke="none" stroke-width="0"/><path d="M234.99578,108.38103l0.64277,-1.923c0,0 2.75491,-0.70652 3.16505,-0.40981c0.67347,0.48718 -3.80782,2.33282 -3.80782,2.33282z" fill="#000000" stroke="none" stroke-width="0"/><path d="M230.69251,108.20421c0,0 0.40546,-0.525 0.80963,-0.1941c0.78214,0.64037 1.89413,2.37747 2.39939,2.5486c0.68314,0.23135 1.16826,-0.87213 1.16826,-0.87213c0,0 2.08579,4.26701 2.10107,4.85796c0.0057,0.22057 0.03383,0.53929 -0.00272,0.81849c-0.06922,0.52872 -0.28974,0.6144 -0.49131,0.84152c-0.15221,0.1715 -0.27375,0.45103 -0.42334,0.90831c-0.23788,0.72709 -0.35217,1.71483 -0.5275,2.57021c-0.18178,0.88692 -0.42639,2.02147 -0.42639,2.02147c0,0 -0.12124,-1.02365 -0.02016,-1.978c0.05229,-0.49364 0.05913,-1.05554 0.11758,-1.68246c0.11495,-1.23265 0.24725,-2.58437 0.0411,-3.23642c-0.12017,-0.38011 -0.46218,-0.63593 -0.71553,-1.03785c-0.51311,-0.81408 -1.2675,-1.58911 -1.82979,-2.20655c-0.56162,-0.61671 -2.20035,-3.35903 -2.20035,-3.35903z" fill="#000000" stroke="none" stroke-width="0"/><path d="M241.18137,105.33747c0,0 0.19714,-1.76677 0.39033,-3.03869c0.0419,-0.27589 -0.64143,0.05252 -0.60196,-0.1537c0.08026,-0.41924 0.28572,-1.1914 0.63009,-1.9348c0.32077,-0.69244 0.77023,-1.3586 1.13627,-1.72546c0.55155,-0.55277 0.15116,-1.10328 0.15116,-1.10328c0,0 0.91325,-0.42522 2.22647,-0.44575c0.5677,-0.00889 1.16794,-0.00028 1.87147,0.24746c0.51173,0.18021 0.9835,0.49254 1.54758,0.85972c0.57405,0.37367 1.13983,1.17777 1.77186,2.03546c0.57603,0.78169 1.2192,1.59912 1.73459,2.34947c0.54067,0.78714 0.91953,1.47493 1.37654,1.73c2.23014,1.02165 5.57566,1.81849 7.59043,2.12761c1.22349,0.18771 4.02256,-1.44292 5.25862,-1.36384c0.64983,0.04158 1.82066,1.00331 2.55383,0.76741c0.38756,-0.12471 1.25674,-0.74236 2.28316,-1.62502c0.25552,-0.21972 0.53915,-0.57169 0.80613,-0.80164c0.83836,-0.72209 1.69362,-1.38335 2.44095,-2.06439c1.1166,-1.01756 1.94847,-1.80368 1.94847,-1.80368c0,0 0.94943,-0.93787 0.85798,-0.51104c-0.2862,1.33576 -2.81178,9.62999 -2.81178,9.62999c0,0 -0.68959,1.45198 -1.7337,3.02666c-0.69275,1.04478 -1.57064,2.10353 -2.40161,2.97285c-0.70688,0.73949 -1.11282,1.62578 -1.79304,1.68915c-0.1983,0.01847 -1.70876,0.0058 -2.11229,-0.42874c-0.66868,-0.72006 -1.37315,-1.49218 -1.74773,-2.38097c-0.75887,-1.80067 -0.8738,-4.11653 -0.96993,-5.07625c-0.04106,-0.41 -0.19011,-0.04322 -0.30776,0.23203c-0.34954,0.81767 -1.0981,2.48913 -1.53187,2.87144c-1.3612,1.19966 -8.26804,3.8554 -9.20984,3.73889c-1.51187,-0.18702 -3.60532,-1.85211 -5.64004,-3.7191c-1.30003,-1.19285 -2.6184,-2.4374 -3.60775,-3.53171c-1.30296,-1.44124 -2.10662,-2.57005 -2.10662,-2.57005z" fill="#000000" stroke="none" stroke-width="0"/><path d="M236.70766,100.83034c-0.09994,-0.23588 1.83739,-1.80487 3.79956,-2.68933c1.78727,-0.80563 3.55972,-1.01522 3.55972,-1.01522l-1.43443,1.86062c0,0 -0.46081,-0.26373 -1.48085,0.10509c-1.71045,0.61844 -4.31656,2.0396 -4.444,1.73884z" fill="#000000" stroke="none" stroke-width="0"/><path d="M237.79129,102.77428c0.03724,-0.23459 1.25591,-0.63539 2.44842,-0.90493c0.71419,-0.16143 1.31206,-0.45989 1.31206,-0.45989l0.23905,1.68328c0,0 0.08002,-0.25458 -0.25219,-0.2345c-0.16745,0.01013 -0.41965,-0.36786 -0.61999,-0.35349c-0.41511,0.02976 -1.142,0.09234 -1.60272,0.14751c-0.79692,0.09542 -1.53976,0.2173 -1.52464,0.12201z" fill="#000000" stroke="none" stroke-width="0"/><path d="M237.46794,104.81129c-0.04072,-0.29192 0.24691,-0.60656 1.83548,-0.76355c1.04551,-0.10332 2.13564,0.06499 2.13564,0.06499l0.35958,1.32273c0,0 -1.41069,-0.39203 -2.70812,-0.43597c-0.85625,-0.029 -1.59487,0.01052 -1.62257,-0.1882z" fill="#000000" stroke="none" stroke-width="0"/><path d="M265.13329,105.40472c0,0 0.17283,-0.4541 0.15948,-0.96617c-0.00435,-0.16693 -0.06701,-0.46506 -0.2603,-0.7716c-0.50255,-0.79695 -1.47566,-1.95024 -1.53013,-3.23344c-0.01882,-0.44341 0.78197,-1.0958 1.4712,-1.65052c0.44178,-0.35556 0.86837,-0.62878 0.90316,-0.91988c0.07433,-0.6218 -0.25553,-1.2673 -0.33123,-1.81649c-0.15783,-1.14502 -0.40967,-2.03638 -0.57341,-2.53674c-0.09506,-0.29054 -0.69709,-0.66119 -0.69709,-0.66119c0,0 3.91762,-0.75615 4.73258,-0.66137c0.45258,0.05263 -0.25293,1.18237 -0.25293,1.18237c0,0 -1.89852,0.30722 -1.98729,0.82491c-0.0405,0.23624 0.00659,0.99992 0.11885,1.8104c0.12624,0.91156 0.31855,1.87976 0.24541,2.17324c-0.14653,0.588 -1.96337,1.96099 -2.00232,2.47325c-0.01847,0.24301 0.73672,1.28455 1.27482,2.15466c0.34922,0.56467 0.56552,1.08725 0.56056,1.17021c-0.03273,0.54667 -0.17523,1.37446 -0.17523,1.37446z" fill="#000000" stroke="none" stroke-width="0"/><path d="M265.62092,101.93362c0,0 -0.21845,-1.15016 -0.04059,-1.63851c0.05827,-0.16 0.59522,-0.567 1.18951,-0.937c0.57612,-0.35868 1.20928,-0.67829 1.3169,-0.9738c0.02157,-0.05925 -0.09322,-1.67372 -0.05795,-3.03461c0.03406,-1.31417 0.21859,-2.37736 0.21859,-2.37736l1.03505,-0.53273c0,0 -0.05144,0.35572 0.0003,1.85429c0.02531,0.73293 0.29622,1.679 0.33775,2.60253c0.04723,1.0507 -0.02138,2.08231 -0.18713,2.54842c-0.05383,0.15134 -0.55759,0.50494 -1.2047,0.71154c-0.64658,0.20643 -1.43644,0.26588 -1.64832,0.40227c-0.1562,0.10054 -0.51398,1.7625 -0.51398,1.7625z" fill="#000000" stroke="none" stroke-width="0"/><path d="M255.16057,94.38008c0,0 0.51916,0.46814 1.47113,0.88174c1.04473,0.45387 2.60672,0.86729 4.48075,1.12336c0.80037,0.10936 1.72409,0.17076 2.63414,0.13905c1.14071,-0.03974 2.29525,-0.22012 3.5609,-0.5718c0.4115,-0.11435 0.81874,-0.18802 1.24052,-0.34716c2.21711,-0.83645 4.74324,-3.66991 4.74324,-3.66991c0,0 1.97412,-0.94646 2.30334,-0.91723c0.25639,0.02277 -0.49127,1.07814 -0.49127,1.07814c0,0 -0.54778,0.55747 -1.17219,1.25713c-0.20581,0.23064 -0.46745,0.40433 -0.69669,0.65491c-0.40222,0.43966 -0.81275,0.96707 -1.42095,1.38793c-0.46245,0.32001 -0.95765,0.34881 -1.49975,0.57876c-1.09113,0.46284 -2.20052,1.0578 -2.82916,1.12979c-1.21371,0.13899 -2.64832,0.70754 -4.44772,0.32116c-1.10926,-0.2382 -3.61644,-0.44884 -4.71847,-0.79211c-3.10457,-0.96703 -3.15782,-2.25374 -3.15782,-2.25374z" fill="#000000" stroke="none" stroke-width="0"/><path d="M258.91522,94.27905c0.01935,-0.12188 1.06268,-0.11528 2.07511,-0.11061c0.41384,0.00191 0.87615,0.06479 1.21224,0.02806c1.81622,-0.1985 3.12903,-0.4197 3.12903,-0.4197l0.1913,0.79076c0,0 -0.99449,-0.01142 -2.16981,0.08468c-1.05625,0.08637 -2.16901,0.17144 -3.05613,0.10865c-0.90063,-0.06376 -1.39873,-0.37473 -1.38173,-0.48182z" fill="#000000" stroke="none" stroke-width="0"/><path d="M239.90787,124.5135c0.10102,-0.54673 0.25039,-1.81057 0.52374,-2.80438c0.31184,-1.13377 1.01022,-3.5551 1.30939,-4.75943c0.01984,-0.0799 -0.48498,0.25614 -0.60772,0.50867c-0.24522,0.50455 -0.06417,0.60015 -0.37651,1.28958c-0.04101,0.0905 -0.71001,0.48613 -1.17329,0.91103c-0.24911,0.22848 -0.39328,0.52799 -0.45059,0.6522c-0.16178,0.35068 -0.35913,0.62561 -0.47035,0.98458c-0.49435,1.5956 -0.48544,3.20094 -0.63479,3.2155c-0.04279,0.00417 -0.24587,-0.33285 -0.27233,-0.90578c-0.06417,-1.38913 0.24981,-3.81195 0.46158,-4.38594c0.13944,-0.37795 1.04538,-0.54914 1.21612,-0.9037c0.15932,-0.33085 0.70794,-0.94052 1.14348,-1.46158c0.11272,-0.13486 0.1077,-0.41841 0.24131,-0.70044c0.16039,-0.33858 0.45354,-0.6856 0.49339,-0.91295c0.13285,-0.75794 0.27416,-1.71666 0.31545,-1.72828c1.07782,-0.30295 3.65741,1.63305 5.44174,2.55276c0.39361,0.20288 0.83225,0.29551 1.11336,0.37213c0.68222,0.18596 3.79819,-0.30673 4.09945,-0.1293c0.12627,0.07438 -0.38078,0.22713 -1.14721,0.42587c-0.66152,0.17155 -1.54346,0.54871 -2.31745,0.55712c-1.57846,0.01717 -2.22233,-0.1773 -2.22233,-0.1773c0,0 0.02614,0.53165 0.31395,1.12056c0.25495,0.52165 0.76431,1.09602 0.91918,1.27074c0.82733,0.9334 1.47338,1.47658 1.54434,1.50343c1.36894,0.51793 1.53019,0.04735 3.34065,0.24477c3.56552,0.38877 8.07484,0.85771 10.09223,0.94396c0.52697,0.02252 1.10752,-0.01813 1.19188,-0.04923c1.29616,-0.47774 3.30151,-2.39041 4.17519,-3.61711c0.18437,-0.25888 -0.38952,-0.9548 -0.11156,-0.88531c0.27177,0.06795 1.06976,-0.00572 1.48721,0.21317c0.35919,0.18833 0.56874,0.8509 0.54752,1.01149c-0.1466,0.24676 -0.2527,0.46972 -0.42503,0.57442c-0.1886,0.11458 -0.44391,0.10492 -0.61042,0.25409c-0.29337,0.26282 -0.55868,0.64744 -0.87971,0.9639c-0.65477,0.64547 -1.38641,1.26548 -1.90357,1.82831c-0.55355,0.60245 -0.87067,1.12658 -0.87868,1.14153c-0.54546,1.01908 -1.58069,3.15781 -1.95164,5.32753c-0.19828,1.15977 0.0247,2.70246 0.1575,3.55734c0.05841,0.37595 -0.25031,0.79772 -0.57955,0.8568c-0.61595,0.11052 -1.56833,0.18732 -2.59278,0.3151c-2.2217,0.27712 -4.89647,0.63673 -6.29691,0.60764c-0.40163,-0.00834 -0.7571,-0.12944 -0.89484,-0.19422c-3.03315,-1.42631 -5.9205,-4.62446 -8.21342,-6.35855c-3.16349,-2.39251 -5.22457,-2.65388 -5.11802,-3.23067z" fill="#000000" stroke="none" stroke-width="0"/><path d="M268.57052,123.85363c-0.1889,-0.08787 -0.07723,-1.55091 0.2525,-2.58459c0.08122,-0.25464 0.24239,-0.47343 0.3249,-0.67708c0.25821,-0.63743 0.4139,-1.02047 0.4139,-1.02047c0,0 0.15589,0.1719 0.19113,0.67453c0.02022,0.28853 0.01673,0.58501 -0.08234,1.04273c-0.07405,0.3421 -0.50838,1.62429 -0.80989,2.2554c-0.11778,0.24653 -0.26945,0.31911 -0.29018,0.30948z" fill="#000000" stroke="none" stroke-width="0"/><path d="M264.35719,112.12496l0.61501,1.03227c0,0 0.05385,1.3243 0.19642,2.16124c0.09618,0.56467 0.42025,1.72157 0.67102,2.57917c0.17577,0.60111 0.1635,1.26735 -0.21554,0.83621c-0.30876,-0.35122 -0.55886,-1.02293 -0.82119,-1.70813c-0.16667,-0.4353 -0.38359,-0.88326 -0.47803,-1.23479c-0.15531,-0.57802 -0.15939,-1.63259 -0.07798,-2.36389c0.06263,-0.5627 0.1103,-1.30206 0.1103,-1.30206z" fill="#000000" stroke="none" stroke-width="0"/><path d="M245.27155,126.07882c-0.20707,-1.08634 -1.9317,-10.13435 -1.9317,-10.13435c0,0 2.28217,3.57948 3.68643,4.80583c0.88102,0.7694 3.928,1.8439 3.928,1.8439c0,0 6.25392,0.37195 7.47992,0.44486c0.39968,0.02377 0.62137,0.23536 0.39247,0.54773c-0.27212,0.37137 -0.62236,0.9184 -0.85195,1.5339c-0.19583,0.52505 -0.47747,2.42836 -0.47747,2.42836c0,0 -3.00794,-0.53053 -5.16311,-0.51702c-1.25355,0.00786 -2.19668,0.45452 -2.2488,0.61413c-0.04562,0.1397 1.89961,0.24271 3.97241,0.51216c2.40913,0.31317 5.00087,0.78623 5.00087,0.78623c0,0 -0.74207,3.97463 -0.94379,3.93796c-0.25517,-0.04638 -1.20978,0.12029 -2.29251,0.10355c-1.24624,-0.01926 -2.66854,-0.24144 -3.4946,-0.64773c-0.72207,-0.35513 -2.36563,-2.25275 -4.03826,-3.73521c-0.93177,-0.82582 -2.07712,-1.67786 -2.63665,-2.0585c-0.28922,-0.19673 -0.34159,-0.25768 -0.38127,-0.46583z" fill="#ffffff" stroke="none" stroke-width="0"/><path d="M246.31707,124.13671c-0.19919,-0.91358 -0.63803,-2.7362 -1.28236,-4.36917c-0.29106,-0.73761 -0.43582,-1.38721 -0.74568,-1.99125c-0.62924,-1.22668 -1.11389,-2.13448 -1.08328,-2.60626c0.02203,-0.33962 0.55491,-0.65054 0.80888,-0.26124c0.64383,0.98691 1.72095,2.94649 2.63773,4.2586c0.33273,0.4762 0.63026,0.87735 0.8425,1.14172c0.54216,0.67529 1.3571,1.55063 1.3571,1.55063c0,0 -0.89988,0.70135 -1.30952,1.24937c-0.25187,0.33694 -0.77704,1.00988 -1.01913,1.37532c-0.13578,0.20494 -0.12578,0.0213 -0.20624,-0.34772z" fill="#f44254" stroke="#000000" stroke-width="1"/><path d="M248.68193,122.16291c0.167,0.02362 0.37434,-0.25176 0.77113,-0.2024c1.02237,0.12718 2.57951,0.61632 2.57951,0.61632c0,0 -0.92237,1.33799 -1.28634,1.86438c-0.06596,0.09538 -0.47913,1.00572 -0.78648,0.93768c-0.2771,-0.06135 -0.50418,-1.1646 -0.54084,-1.2381c-0.1534,-0.30743 -0.97377,-2.01138 -0.73698,-1.97789z" fill="#f44254" stroke="#000000" stroke-width="0.5"/><path d="M251.53961,122.6591c-0.34078,0.45009 -0.82852,1.09972 -1.05307,1.42445c-0.12542,0.18139 -0.26916,0.42874 -0.3785,0.62484c-0.10147,0.18199 -0.2616,0.17727 -0.36968,-0.00832c-0.08849,-0.15197 -0.19022,-0.33279 -0.26757,-0.48777c-0.15359,-0.30781 -0.45911,-0.94879 -0.72553,-1.51126c-0.07166,-0.15129 -0.14048,-0.2969 -0.20275,-0.42883c-0.0882,-0.18687 3.09747,0.25432 2.99709,0.3869z" fill="#f44254" stroke="#000000" stroke-width="0.5"/><path d="M268.48542,133.00765c-0.04584,0.28877 -0.30409,0.48779 -0.57682,0.4445c-0.27272,-0.04329 -0.45665,-0.31249 -0.41081,-0.60127c0.04584,-0.28877 0.30409,-0.48777 0.57681,-0.44448c0.27272,0.04329 0.45666,0.31248 0.41082,0.60125z" fill="#000000" stroke="none" stroke-width="0"/><path d="M269.90275,134.95989c-0.03564,0.2246 -0.29865,0.36952 -0.58741,0.32368c-0.28877,-0.04584 -0.49397,-0.26508 -0.45831,-0.48967c0.03564,-0.2246 0.29864,-0.36952 0.58742,-0.32367c0.28877,0.04584 0.49395,0.26508 0.45831,0.48967z" fill="#000000" stroke="none" stroke-width="0"/><path d="M270.34629,138.54434c-0.05093,0.32085 -0.36533,0.53761 -0.70222,0.48413c-0.3369,-0.05348 -0.56872,-0.35694 -0.5178,-0.67779c0.05093,-0.32085 0.36534,-0.53761 0.70222,-0.48413c0.3369,0.05348 0.56871,0.35694 0.51779,0.67779z" fill="#000000" stroke="none" stroke-width="0"/><path d="M268.99994,137.64565c-0.03821,0.24063 -0.30326,0.39856 -0.59202,0.35273c-0.28877,-0.04584 -0.49189,-0.27809 -0.4537,-0.51873c0.03821,-0.24063 0.30326,-0.39855 0.59203,-0.35272c0.28877,0.04584 0.49189,0.27807 0.4537,0.51872z" fill="#000000" stroke="none" stroke-width="0"/><path d="M268.43469,135.20333c-0.03057,0.19252 -0.23741,0.31968 -0.46202,0.28402c-0.2246,-0.03564 -0.3819,-0.22063 -0.35134,-0.41315c0.03057,-0.19252 0.2374,-0.31967 0.46202,-0.28401c0.2246,0.03564 0.38191,0.22063 0.35134,0.41314z" fill="#000000" stroke="none" stroke-width="0"/><path d="M266.63739,136.01987c-0.0433,0.27274 -0.32551,0.4546 -0.63031,0.4062c-0.30481,-0.04838 -0.51683,-0.3087 -0.47353,-0.58143c0.0433,-0.27274 0.32549,-0.4546 0.63031,-0.4062c0.30481,0.04838 0.51684,0.30871 0.47355,0.58143z" fill="#000000" stroke="none" stroke-width="0"/><path d="M266.93798,138.62867c-0.03821,0.24063 -0.29026,0.40061 -0.56298,0.35732c-0.27272,-0.04329 -0.46285,-0.27347 -0.42466,-0.5141c0.03821,-0.24063 0.29027,-0.40063 0.56298,-0.35734c0.27272,0.04329 0.46284,0.27348 0.42465,0.51411z" fill="#000000" stroke="none" stroke-width="0"/><path d="M263.46236,136.88576c-0.03821,0.24063 -0.29026,0.40061 -0.56298,0.35732c-0.27272,-0.04329 -0.46285,-0.27346 -0.42467,-0.5141c0.03821,-0.24063 0.29027,-0.40063 0.56299,-0.35734c0.27272,0.04329 0.46284,0.27348 0.42465,0.51411z" fill="#000000" stroke="none" stroke-width="0"/><path d="M264.94426,138.43132c-0.03821,0.24063 -0.29026,0.40063 -0.56299,0.35734c-0.27272,-0.04329 -0.46283,-0.27347 -0.42464,-0.51411c0.03821,-0.24063 0.29025,-0.40062 0.56297,-0.35733c0.27272,0.04329 0.46285,0.27347 0.42465,0.51411z" fill="#000000" stroke="none" stroke-width="0"/><path d="M261.93894,139.35392c-0.04074,0.25669 -0.30786,0.4276 -0.59664,0.38177c-0.28877,-0.04584 -0.48984,-0.29108 -0.44909,-0.54776c0.04074,-0.25669 0.30788,-0.42761 0.59664,-0.38177c0.28877,0.04584 0.48984,0.29109 0.44909,0.54778z" fill="#000000" stroke="none" stroke-width="0"/><path d="M259.7571,137.33988c-0.04074,0.25669 -0.29487,0.42968 -0.5676,0.38639c-0.27272,-0.04329 -0.46078,-0.28648 -0.42003,-0.54316c0.04074,-0.25669 0.29487,-0.42968 0.56759,-0.38638c0.27272,0.04329 0.46078,0.28647 0.42004,0.54316z" fill="#000000" stroke="none" stroke-width="0"/><path d="M258.75977,139.68309c-0.27272,-0.04329 -0.46699,-0.24747 -0.43387,-0.45604c0.0331,-0.20855 0.28103,-0.34252 0.55375,-0.29922c0.27272,0.04329 0.46699,0.24746 0.43387,0.45601c-0.0331,0.20855 -0.28103,0.34254 -0.55375,0.29925z" fill="#000000" stroke="none" stroke-width="0"/><path d="M256.0546,138.15183c-0.04838,0.30481 -0.36071,0.50857 -0.6976,0.45508c-0.3369,-0.05348 -0.5708,-0.34393 -0.52241,-0.64875c0.04838,-0.30481 0.36072,-0.50857 0.69761,-0.45509c0.3369,0.05348 0.57079,0.34393 0.5224,0.64875z" fill="#000000" stroke="none" stroke-width="0"/><path d="M251.24004,135.83899c-0.04838,0.30481 -0.3347,0.51269 -0.63952,0.46429c-0.30481,-0.04838 -0.51269,-0.3347 -0.4643,-0.63952c0.04838,-0.30481 0.3347,-0.51269 0.63952,-0.4643c0.30481,0.04838 0.51269,0.3347 0.4643,0.63952z" fill="#000000" stroke="none" stroke-width="0"/><path d="M250.54702,138.1412c-0.24065,-0.0382 -0.41508,-0.19923 -0.38962,-0.35965c0.02546,-0.16044 0.2412,-0.25951 0.48184,-0.22132c0.24063,0.03821 0.41507,0.19923 0.38961,0.35966c-0.02546,0.16043 -0.24119,0.25952 -0.48183,0.22132z" fill="#000000" stroke="none" stroke-width="0"/><path d="M249.25001,136.74408c-0.04074,0.25669 -0.29487,0.42966 -0.56759,0.38637c-0.27274,-0.04329 -0.46079,-0.28647 -0.42004,-0.54315c0.04074,-0.25669 0.29488,-0.42968 0.56759,-0.38638c0.27274,0.04329 0.46079,0.28647 0.42004,0.54316z" fill="#000000" stroke="none" stroke-width="0"/><path d="M249.71294,135.32858c-0.04074,0.25669 -0.29488,0.42968 -0.5676,0.38638c-0.27274,-0.04329 -0.46078,-0.28647 -0.42003,-0.54316c0.04074,-0.25669 0.29487,-0.42966 0.56758,-0.38637c0.27274,0.04329 0.4608,0.28647 0.42005,0.54315z" fill="#000000" stroke="none" stroke-width="0"/><path d="M247.26368,134.99935c-0.05094,0.32085 -0.35232,0.53966 -0.67318,0.48873c-0.32085,-0.05094 -0.53967,-0.35232 -0.48873,-0.67317c0.05094,-0.32085 0.35232,-0.53966 0.67317,-0.48874c0.32085,0.05094 0.53968,0.35233 0.48874,0.67319z" fill="#000000" stroke="none" stroke-width="0"/><path d="M245.11506,133.52663c-0.04074,0.25669 -0.30786,0.42761 -0.59664,0.38177c-0.28877,-0.04583 -0.48984,-0.29109 -0.4491,-0.54778c0.04074,-0.25669 0.30787,-0.4276 0.59664,-0.38176c0.28877,0.04583 0.48983,0.29109 0.44909,0.54776z" fill="#000000" stroke="none" stroke-width="0"/><path d="M268.8465,140.34734c-0.05117,0.32231 -0.33383,0.54532 -0.63136,0.49809c-0.29751,-0.04724 -0.49723,-0.34681 -0.44608,-0.66912c0.05117,-0.32231 0.33383,-0.54532 0.63136,-0.49809c0.29751,0.04724 0.49723,0.34681 0.44608,0.66912z" fill="#000000" stroke="none" stroke-width="0"/><path d="M247.24278,109.44187c0,0 2.08237,-0.40595 2.87669,-0.45545c0.74581,-0.04648 2.12629,0.13421 2.12629,0.13421c0,0 0.2899,-0.74651 0.62704,-1.66241c0.29939,-0.81338 0.68308,-1.47679 0.88705,-2.15319c0.32433,-1.0756 0.63363,-3.5357 1.00219,-4.9703c0.28528,-1.11044 0.73679,-1.73252 0.73679,-1.73252c0,0 -0.46013,1.1341 -0.67371,2.56317c-0.23615,1.57998 -0.4389,3.66208 -0.50386,4.60896c-0.06652,0.96976 0.20998,2.84689 0.20998,2.84689l5.50521,0.82648c0,0 -0.86208,0.49768 -2.2265,0.56443c-1.47785,0.07229 -3.47962,-0.27089 -3.83307,0.15281c-0.09805,0.11752 -0.27275,0.17681 -0.45634,0.91805c-0.64103,2.58808 -1.59759,8.30655 -1.59759,8.30655c0,0 0.49568,-4.67663 0.65189,-7.19187c0.03323,-0.53502 -0.04824,-0.90013 -0.04234,-1.18203c0.01476,-0.7069 -0.20468,-1.19606 -0.20468,-1.19606c0,0 -0.82548,-0.29217 -1.31266,-0.35291c-0.82635,-0.10303 -3.77236,-0.02477 -3.77236,-0.02477z" fill="#ff0000" stroke="none" stroke-width="0"/><path d="M261.30221,109.95593c0,0 1.51777,-0.13495 3.06735,-0.49421c0.61735,-0.14311 1.24066,-0.27491 1.82696,-0.4815c0.81179,-0.28605 1.52562,-0.14302 1.88107,-0.60883c0.27086,-0.35493 0.60827,-1.76241 0.91077,-3.21888c0.63117,-3.03893 1.20022,-7.095 1.20022,-7.095c0,0 0.07045,0.48687 0.00552,1.33237c-0.1481,1.92834 -0.85153,4.98284 -0.94471,6.28507c-0.07841,1.09591 0.24416,3.01147 0.24416,3.01147c0,0 0.30709,0.19204 0.9336,0.08792c1.08908,-0.18099 2.83992,-0.63466 3.51152,-0.52599c2.47686,0.40083 3.40817,0.84564 3.40817,0.84564c0,0 -1.25581,-0.30282 -2.73447,-0.25582c-0.9334,0.02966 -2.0069,0.2677 -2.9576,0.53775c-0.1701,0.04831 -0.36527,-0.0739 -0.52668,-0.0204c-0.25097,0.0832 -0.46096,0.34551 -0.68216,0.43887c-0.50948,0.21503 -0.92602,0.45323 -1.18503,0.69706c-0.05453,0.05133 -0.2373,0.20486 -0.36881,0.61908c-0.39604,1.24738 -0.99769,3.93542 -1.60735,5.91279c-0.48474,1.57224 -1.03906,2.68377 -1.03906,2.68377c0,0 0.73306,-4.0696 0.95249,-6.64729c0.09542,-1.12093 0.40185,-2.1078 0.18944,-2.48364c-0.10655,-0.18855 -0.97716,-0.39095 -2.27036,-0.50064c-1.65229,-0.14017 -3.81507,-0.11957 -3.81507,-0.11957z" fill="#ff0000" stroke="none" stroke-width="0"/><path d="M254.42986,109.45004c-0.08177,0.51515 -0.56567,0.86646 -1.08083,0.78469c-0.51515,-0.08177 -0.86645,-0.56567 -0.78469,-1.08083c0.08177,-0.51516 0.56567,-0.86646 1.08083,-0.78469c0.51515,0.08177 0.86646,0.56567 0.78469,1.08082z" fill="#ffffff" stroke="none" stroke-width="0"/><path d="M269.48566,109.92744c-0.07216,0.45455 -0.48685,0.76649 -0.92624,0.69673c-0.43939,-0.06976 -0.73711,-0.49479 -0.66495,-0.94932c0.07216,-0.45455 0.48685,-0.76647 0.92624,-0.69673c0.43939,0.06976 0.73711,0.49478 0.66495,0.94931z" fill="#ffffff" stroke="none" stroke-width="0"/></g><path d="M252.62013,92.48178l0.35819,-1.91415l1.3968,0.26138l-0.35818,1.91415z" fill="#000000" stroke="none" stroke-width="0"/></g></g></g></svg>