<svg version="1.1" xmlns="http://www.w3.org/2000/svg" xmlns:xlink="http://www.w3.org/1999/xlink" width="174.28389" height="303.25322" viewBox="0,0,174.28389,303.25322"><g transform="translate(-228.6277,-57.73415)"><g data-paper-data="{&quot;isPaintingLayer&quot;:true}" fill-rule="nonzero" stroke-linejoin="miter" stroke-miterlimit="10" stroke-dasharray="" stroke-dashoffset="0" style="mix-blend-mode: normal"><g stroke="#000000" stroke-linecap="butt"><path d="M343.00046,228.2266c-8.44768,32.24834 -21.64113,56.72862 -29.46841,54.67821c-7.82727,-2.05041 -7.32433,-29.85505 1.12335,-62.10339c8.44768,-32.24834 21.64113,-56.72862 29.46841,-54.67821c7.82727,2.05041 7.32433,29.85505 -1.12336,62.1034z" fill="#0d69be" stroke-width="2"/><path d="M344.11498,276.42611c-3.62596,13.8418 -18.07515,22.04774 -32.27319,18.32847c-14.19803,-3.71928 -22.76839,-17.95534 -19.14243,-31.79715c3.62596,-13.84181 18.07515,-22.04774 32.27319,-18.32847c14.19803,3.71927 22.76839,17.95534 19.14243,31.79715z" fill="#faddbf" stroke-width="2"/><path d="M308.6318,255.06744c-3.62596,13.84181 18.00746,42.67705 3.80943,38.95778c-14.19803,-3.71928 -22.76838,-17.95534 -19.14243,-31.79715c3.62596,-13.84181 18.95895,-21.00244 15.33299,-7.16063z" fill="#ef8b89" stroke-width="0"/></g><g stroke="#000000" stroke-linecap="butt"><path d="M307.76518,340.83532v-95.29492h29.49199v95.29492z" fill="#73fffc" stroke-width="2"/><path d="M307.43943,340.21738l1.32626,-93.78573c0,0 5.20288,68.11227 6.3799,77.52842c0.2602,2.08162 2.52228,2.78987 2.52228,2.78987l18.60659,13.13896z" fill="#59a9e6" stroke-width="0"/></g><g stroke="#000000" stroke-linecap="butt"><path d="M268.4238,338.4128v-95.29492h29.49199v95.29492z" fill="#73fffc" stroke-width="2"/><path d="M268.09805,337.79486l1.32626,-93.78573c0,0 5.20288,68.11227 6.3799,77.52842c0.2602,2.08162 2.52228,2.78987 2.52228,2.78987l18.60659,13.13896z" fill="#59a9e6" stroke-width="0"/></g><g stroke="#000000" stroke-linecap="butt"><path d="M335.22917,235.69584c0,13.80271 10.04743,36.74388 4.95001,46.45977c-6.2338,11.88187 -28.61241,9.09579 -38.9397,9.09579c-13.66287,0 -32.94407,4.17018 -38.34426,-14.83216c-2.01935,-7.10576 4.35457,-32.37264 4.35457,-40.7234c0,-30.68249 15.2177,-55.55556 33.98969,-55.55556c18.77199,0 33.98969,24.87307 33.98969,55.55556z" fill="#0d69be" stroke-width="2"/><path d="M283.96554,251.27246c0,13.80271 62.04198,20.54886 56.94455,30.26474c-6.2338,11.88186 -28.61241,9.09579 -38.9397,9.09579c-13.66287,0 -32.94406,4.17018 -38.34425,-14.83215c-2.01936,-7.10576 4.35457,-32.37265 4.35457,-40.7234c0,-9.45244 3.34855,-28.59801 5.51953,-29.96813c5.94391,-16.76415 10.4653,25.13995 10.4653,46.16315z" fill="#10157d" stroke-width="0"/></g><path d="M371.63632,338.87c0,11.6628 -14.51982,21.11737 -32.43092,21.11737c-17.9111,0 -32.43092,-9.45457 -32.43092,-21.11737c0,-2.33142 -0.03339,-13.76009 1.08979,-15.13837c4.49546,-5.51647 17.81784,5.26144 32.14847,5.26144c17.9111,0 31.62358,-1.78588 31.62358,9.87692z" fill="#000082" stroke="#000000" stroke-width="2" stroke-linecap="butt"/><path d="M369.75004,336.1377c0,6.30841 -13.89058,10.1901 -31.80169,10.1901c-17.9111,0 -30.16566,-2.95748 -30.16566,-9.26589c0,-1.26107 -0.03338,-12.52602 1.0898,-13.27153c4.49546,-2.98386 15.55258,5.7726 29.88321,5.7726c17.9111,0 30.99434,0.26631 30.99434,6.57472z" fill="#2e0048" stroke="#000000" stroke-width="0" stroke-linecap="butt"/><path d="M328.64938,338.22519c0,11.6628 -14.51982,21.11737 -32.43092,21.11737c-17.9111,0 -32.43092,-9.45457 -32.43092,-21.11737c0,-2.33142 -0.03339,-13.76009 1.08979,-15.13837c4.49546,-5.51647 17.81784,5.26144 32.14847,5.26144c17.9111,0 31.62358,-1.78588 31.62358,9.87692z" fill="#000082" stroke="#000000" stroke-width="2" stroke-linecap="butt"/><path d="M326.7631,335.49289c0,6.30841 -13.89058,10.1901 -31.80169,10.1901c-17.9111,0 -30.16566,-2.95748 -30.16566,-9.26589c0,-1.26107 -0.03338,-12.52602 1.0898,-13.27153c4.49546,-2.98386 15.55258,5.7726 29.88321,5.7726c17.9111,0 30.99434,0.26631 30.99434,6.57472z" fill="#2e0048" stroke="#000000" stroke-width="0" stroke-linecap="butt"/><g stroke-linecap="butt"><g><g stroke="#000000"><g><path d="M231.77325,127.60134c10.26111,-45.65181 55.58749,-74.34164 101.2393,-64.08053c45.65181,10.26111 74.34164,55.58749 64.08053,101.2393c-10.26111,45.65181 -55.58749,74.34164 -101.2393,64.08053c-45.65181,-10.26111 -74.34164,-55.58749 -64.08053,-101.2393z" fill="#faddbf" stroke-width="2"/><path d="M232.18909,126.8036c3.30137,-14.68783 17.4402,-38.11435 22.54434,-40.26146c0.5829,-0.24521 7.59957,-7.42445 16.40994,-12.32825c10.95068,-6.0951 24.11965,-10.1132 24.67234,-9.787c7.21093,4.25595 -31.32244,59.43269 -35.65971,84.37871c-0.01035,0.05949 -0.02035,20.18855 1.46248,20.9717c1.77525,5.25981 4.68885,20.68514 13.73947,30.03772c16.8669,17.42962 43.43471,29.93391 41.87662,30.10205c-2.49238,0.26895 -15.04962,-0.54457 -20.96495,-1.87416c-45.65181,-10.26111 -74.34164,-55.58749 -64.08053,-101.2393z" fill="#ef8b89" stroke-width="0"/><path d="M396.68286,164.19827c-2.54919,11.34138 -4.96943,14.91396 -5.10197,12.98625c-0.13522,-1.96662 1.96997,-9.61568 -5.60992,-16.27567c-1.83676,-1.61385 -11.33412,3.88507 -13.72601,2.08867c-1.50238,-1.12835 -6.21007,-11.82524 -7.92891,-12.90448c-1.20178,-0.75459 -13.98423,5.44336 -15.25088,4.69677c-3.15908,-1.86204 -9.20249,-13.72575 -12.71809,-15.19037c-1.93593,-0.80653 -11.65546,9.52563 -13.65748,8.81545c-2.58185,-0.91586 -7.17695,-13.98269 -9.84771,-14.58299c-7.10264,-1.59645 -8.83516,5.19984 -15.26263,9.91121c-4.17672,3.06157 -10.78567,-15.8018 -14.80607,-12.1596c-4.99287,4.52317 -9.9043,8.86142 -14.83149,11.44338c-3.86556,2.02565 -10.82463,-12.78182 -14.20469,-10.85846c-16.31984,9.2865 -26.20968,15.26764 -22.22464,-2.46185c8.01317,-35.65069 44.03513,1.47932 89.52048,-10.35568c43.53812,-11.32834 83.66317,9.19669 75.65,44.84738z" fill="#ef8b89" stroke-width="0"/></g><path d="M400.00195,156.42606c-5.14984,22.91171 4.46146,9.93555 -10.99901,-3.35396c-1.89191,-1.62625 -11.59642,3.82612 -14.05841,2.01396c-1.54641,-1.13825 -6.43242,-11.87522 -8.20045,-12.96552c-1.23618,-0.76232 -14.3042,5.37144 -15.60681,4.61677c-3.24878,-1.88221 -9.51059,-13.795 -13.12259,-15.28129c-1.98902,-0.81846 -11.89402,9.47201 -13.95024,8.74965c-2.65175,-0.93157 -7.43572,-14.04085 -10.17682,-14.65696c-7.28974,-1.63851 -9.02738,5.15663 -15.58946,9.83775c-4.2642,3.04191 -11.14516,-15.8826 -15.24584,-12.25845c-5.09256,4.50076 -10.1027,8.81683 -15.13887,11.3743c-3.95106,2.00643 -11.16808,-12.85902 -14.62204,-10.95227c-16.6767,9.20629 -26.78082,15.13927 -22.79579,-2.59022c8.01317,-35.65069 56.71177,-70.53723 101.52066,-60.46558c44.80888,10.07165 75.99887,60.28117 67.9857,95.93186z" fill="#873412" stroke-width="2"/><path d="M400.01525,155.23725c-5.14984,22.91171 4.46146,9.93555 -10.99901,-3.35396c-1.89191,-1.62625 -11.59642,3.82612 -14.05841,2.01396c-1.54641,-1.13825 -6.43242,-11.87522 -8.20046,-12.96552c-1.23618,-0.76232 -14.3042,5.37144 -15.60681,4.61677c-3.24878,-1.88221 -9.51059,-13.795 -13.12259,-15.28129c-1.98902,-0.81846 -11.89402,9.47201 -13.95024,8.74965c-2.65175,-0.93157 -7.43572,-14.04085 -10.17682,-14.65696c-7.28974,-1.63851 -9.02738,5.15663 -15.58946,9.83775c-4.2642,3.04191 -11.14516,-15.8826 -15.24584,-12.25845c-5.09256,4.50076 -10.1027,8.81683 -15.13888,11.37429c-3.95106,2.00643 -11.16808,-12.85902 -14.62204,-10.95227c-16.6767,9.20629 -26.78082,15.13927 -22.79579,-2.59022c8.01317,-35.65069 45.1476,1.72937 91.70675,-9.86427c44.56595,-11.09731 85.81276,9.67986 77.7996,45.33054z" fill="#741d23" stroke-width="0"/></g><path d="M332.05913,71.14347c0.0381,0.12708 0.0612,0.26906 0.07203,0.42201c0.03508,0.2735 0.02513,0.55738 -0.03594,0.84195c-0.14312,1.1325 -0.595,2.44232 -0.65898,2.93232c-0.08405,0.64376 1.32522,-0.4681 1.93288,-0.23955c0.37223,0.14 0.60431,0.91646 0.9506,0.72092c2.10153,-1.18668 4.29297,-3.62562 6.62451,-1.43783c0.77216,0.72455 0.2452,1.99295 0.64595,2.78484c0.03369,0.06657 2.57565,0.43892 3.0399,1.08949c0.79994,1.12099 -0.18239,2.26707 0.11025,3.35026c0.09364,0.34661 0.65749,-0.3055 1.00975,-0.37489c1.56776,-0.30878 4.33997,-1.08114 5.83065,0.28064c0.78546,0.71755 0.2558,2.25043 0.65347,2.79273c0.69717,0.95073 2.18584,-0.90784 3.33024,-1.19119c1.58277,-0.3919 2.13871,0.45137 3.15844,1.58881c0.17588,0.19619 -0.44476,4.13515 0.37673,5.50641c0.46176,0.77079 1.79966,-0.47559 2.67953,-0.29346c0.87789,0.18173 2.80681,-0.12505 3.19568,0.06856c0.78005,0.38836 1.17353,1.94556 2.00329,1.67948c4.23646,-1.35851 8.7101,1.13192 6.02729,5.61278c-0.33951,0.56707 1.41559,-0.27006 1.98151,0.07137c0.2194,0.13235 1.32074,1.40565 1.56127,1.37157c1.57325,-0.22295 2.64687,-0.71661 4.20014,-0.37145c1.28997,0.28665 2.3645,1.29061 2.36106,2.70475c-0.0018,0.7432 -1.4387,1.85273 -0.7391,2.10351c1.64906,0.59116 4.14944,1.89662 2.83949,4.20298c-1.42197,2.5036 -4.19118,4.3299 -6.24279,1.72562c-0.71181,-0.90355 -2.52069,0.70707 -3.45064,0.03011c-1.19134,-0.86724 -1.34125,-3.2465 -1.01347,-4.37878c0.15152,-0.52342 -1.12917,0.12952 -1.63288,-0.07837c-0.67818,-0.2799 -0.77329,-1.41951 -1.47502,-1.63361c-1.56963,-0.47888 -2.04199,2.88867 -5.66144,1.26895c-1.06832,-0.47808 -1.97647,-2.67966 -2.10598,-3.83411c-0.07518,-0.67013 1.99254,-2.26781 1.86149,-2.40548c-0.31822,-0.33429 -2.51847,2.3319 -2.96571,2.37707c-1.07593,0.10867 -2.01242,-0.84153 -2.89106,-1.47194c-0.77629,-0.55697 -1.5397,1.591 -2.48206,1.43351c-0.83253,-0.13914 -9.01993,-2.52194 -9.23678,-3.08622c-0.26439,-0.68795 -0.42323,-1.85907 -0.11373,-2.51689c0.11123,-0.23641 1.35587,-1.58241 1.1743,-1.60257c-0.64438,-0.07156 -4.84052,2.43752 -6.2435,-1.2131c-0.76293,-1.98518 1.73772,-3.29767 2.09705,-4.88157c0.2219,-0.97814 -1.44933,1.39147 -2.10187,2.15317c-0.5012,0.58505 -1.68631,0.95884 -2.44741,0.81337c-2.63149,-0.50294 -1.34804,-2.83953 -1.56433,-4.44032c-0.09981,-0.73875 -1.66989,0.23468 -2.22028,-0.26811c-1.34569,-1.22932 -0.86047,-2.31382 -0.65883,-3.8389c0.09232,-0.6983 -1.13077,2.52874 -2.77187,2.33058c-0.66555,-0.08037 -1.47379,-1.30225 -1.86337,-0.75667c-1.89667,2.65616 -1.47451,3.99338 -5.07266,2.69156c-0.34721,-0.12562 -1.12841,0.56188 -1.46256,0.25662c-3.69829,-3.3785 0.89995,-7.92702 1.89798,-11.8108c0.35205,-1.36997 -0.08757,-3.63528 1.26454,-4.05066c0.58588,-0.62355 1.47686,-0.92992 2.37208,-0.72871c0.79377,0.17841 1.41376,0.71609 1.72721,1.40329c0.05582,0.09144 0.101,0.18954 0.13291,0.29599z" fill="#ba587e" stroke="none" stroke-width="0.5"/></g><g stroke="#000000"><path d="M337.38027,184.31091c-6.26291,27.86376 -22.34104,39.34794 -38.50627,35.7145c-16.16523,-3.63344 -26.29612,-21.00861 -20.03321,-48.87236c6.26291,-27.86376 24.44451,-47.5063 40.60974,-43.87286c16.16523,3.63344 24.19265,29.16696 17.92974,57.03072z" fill="#f0f0f0" stroke-width="2"/><path d="M296.05704,154.95178c-10.38928,26.60218 19.78481,68.03651 3.61958,64.40306c-16.16523,-3.63344 -26.29612,-21.00861 -20.03321,-48.87236c6.26291,-27.86376 31.43346,-53.98959 16.41364,-15.53071z" fill="#9a99ff" stroke-width="0"/></g><path d="M318.29233,195.34164c-3.46977,15.43707 -10.85735,26.92302 -16.50062,25.65459c-5.64326,-1.26843 -7.40523,-14.81092 -3.93546,-30.24798c3.46977,-15.43707 10.85735,-26.92302 16.50062,-25.65459c5.64326,1.26843 7.40523,14.81092 3.93546,30.24798z" fill="#000000" stroke="none" stroke-width="0"/><g stroke="#000000"><path d="M339.07944,153.90881c2.10753,10.95875 -12.75375,11.6073 -28.0816,8.16207c-15.32784,-3.44522 -25.50046,-10.48905 -18.95768,-18.87356c6.22535,-7.97772 11.32158,-19.40857 26.64942,-15.96334c15.32784,3.44522 18.38134,16.23099 20.38985,26.67481z" fill="#a100fe" stroke-width="2"/><path d="M338.25535,153.36051c1.95918,10.9254 -12.42448,11.68131 -27.22968,8.35356c-14.8052,-3.32775 -24.59625,-10.28582 -18.20467,-18.7043c6.08149,-8.01005 6.18762,2.37682 20.99282,5.70457c14.8052,3.32775 22.5744,-5.76588 24.44152,4.64617z" fill="#99008e" stroke-width="0"/></g><g data-paper-data="{&quot;index&quot;:null}" stroke="#000000"><path d="M381.85345,140.24325c16.16523,3.63344 24.19265,29.16696 17.92974,57.03072c-6.26291,27.86375 -22.85454,39.23252 -39.01977,35.59908c-16.16523,-3.63344 -25.78262,-20.89318 -19.51971,-48.75694c6.26291,-27.86376 24.44451,-47.5063 40.60974,-43.87286z" fill="#f0f0f0" stroke-width="2"/><path d="M399.34473,196.32443c-6.26291,27.86375 -22.85454,39.23252 -39.01977,35.59908c-16.16523,-3.63344 28.83716,-28.17043 30.83073,-56.6597c2.88211,-41.18706 14.45195,-6.80313 8.18904,21.06063z" fill="#9a99ff" stroke-width="0"/></g><path d="M371.85709,176.43729c5.64326,1.26843 7.40523,14.81092 3.93546,30.24798c-3.46977,15.43707 -10.85735,26.92302 -16.50062,25.65459c-5.64326,-1.26843 -7.40523,-14.81092 -3.93546,-30.24798c3.46977,-15.43707 10.85735,-26.92302 16.50062,-25.65459z" data-paper-data="{&quot;index&quot;:null}" fill="#000000" stroke="none" stroke-width="0"/><g data-paper-data="{&quot;index&quot;:null}" stroke="#000000"><path d="M352.71763,155.91103c6.28443,-8.57983 14.51551,-18.82917 29.84335,-15.38395c15.32784,3.44522 15.04242,15.95739 17.25519,25.83174c2.32559,10.37783 -9.88279,12.39111 -25.21063,8.94589c-15.32784,-3.44522 -28.4822,-10.39082 -21.88792,-19.39367z" fill="#a100fe" stroke-width="2"/><path d="M353.69708,155.76811c6.14305,-8.61161 9.27365,2.93196 24.07885,6.25971c14.8052,3.32775 19.34586,-6.01467 21.41476,3.82734c2.17439,10.34385 -9.65242,12.44289 -24.45762,9.11514c-14.8052,-3.32775 -27.48193,-10.16599 -21.036,-19.20219z" fill="#99008e" stroke-width="0"/></g><path d="M260.10374,182.06888c-3.93972,4.70367 -9.02789,6.93004 -11.36475,4.97272c-2.33686,-1.95731 -1.03748,-7.35711 2.90224,-12.06079c3.93972,-4.70367 9.02789,-6.93004 11.36475,-4.97272c2.33686,1.95731 1.03748,7.35711 -2.90224,12.06079z" fill="#000000" stroke="none" stroke-width="0"/></g><g><g><path d="M313.45056,239.08697c-13.07364,7.53013 -24.49611,5.35361 -32.54644,-7.22818c-6.29627,-9.84033 -1.87987,-27.40505 11.19378,-34.93519c13.07368,-7.5302 27.43674,-4.55251 34.89188,8.39083c1.16585,2.02409 1.64106,4.23811 2.094,6.2562c2.44325,10.88674 -4.60401,21.16376 -15.63319,27.51634z" fill="#485e84" stroke="#000000" stroke-width="2" stroke-linecap="butt"/><path d="M283.54573,207.71459c0,0 2.48204,5.19331 4.47103,5.4326c19.07891,2.29543 31.73358,-3.79371 35.76535,-6.12707c0.91602,-0.53013 0.93399,-1.65286 0.93399,-1.65286c0,0 1.24154,1.71076 2.06308,4.32592c0.8742,2.78276 1.3144,6.56563 0.70602,9.5781c-0.69498,3.44109 -4.39519,10.91215 -4.39519,10.91215l-16.30024,13.15906c0,0 -13.24309,-2.36129 -15.11472,-3.45395c-1.83359,-1.07042 -3.69627,-2.86296 -5.75345,-4.68914c-3.19405,-2.83543 -5.33083,-6.84055 -5.91709,-9.66032c-0.74818,-3.59867 -0.17647,-8.22739 0.93919,-11.87674c1.03833,-3.39639 2.60211,-5.94766 2.60211,-5.94766z" fill="#343545" stroke="none" stroke-width="0" stroke-linecap="butt"/><path d="M297.7302,227.61354c0,0 -6.02495,-6.71551 -6.42048,-11.85591c-0.50073,-6.5072 2.14903,-19.19898 2.14903,-19.19898" fill="none" stroke="#000000" stroke-width="1" stroke-linecap="round"/><path d="M322.13155,200.15282c0,0 2.18239,6.80933 2.4794,11.09694c0.2999,4.32853 -2.48484,13.62359 -2.48484,13.62359" fill="none" stroke="#000000" stroke-width="1" stroke-linecap="round"/><path d="M290.14758,235.54197c0,0 -6.28751,-6.801 -6.46239,-12.38833c-0.26834,-8.57358 1.62349,-20.01546 1.62349,-20.01546" fill="none" stroke="#000000" stroke-width="1" stroke-linecap="round"/><path d="M279.19169,224.88523c0,0 6.61888,-15.98955 23.60546,-19.86255c18.60664,-4.24238 26.93054,10.86402 26.93054,10.86402" fill="none" stroke="#000000" stroke-width="1" stroke-linecap="round"/><path d="M282.80165,233.69846c0,0 9.42114,-15.10313 24.40307,-18.55297c12.30153,-2.83262 20.50324,9.23598 20.50324,9.23598" fill="none" stroke="#000000" stroke-width="1" stroke-linecap="round"/><path d="M307.47987,197.61509c-1.20253,-0.03346 -2.15585,-0.83233 -2.12935,-1.78428c0.02643,-0.95199 0.82266,-0.95295 2.02518,-0.91949c1.20253,0.03346 2.35593,0.08868 2.32945,1.04064c-0.02643,0.95199 -1.02278,1.69661 -2.22527,1.66311z" fill="#8fbbbe" stroke="none" stroke-width="0" stroke-linecap="butt"/><path d="M314.65225,198.80503c-0.52122,0.30019 -1.30877,-0.09021 -1.75908,-0.87201c-0.45032,-0.78182 -0.52623,-1.16319 -0.00504,-1.46341c0.52122,-0.30019 1.46607,-0.0004 1.91635,0.78143c0.45032,0.78182 0.36893,1.2538 -0.15227,1.55399z" fill="#8fbbbe" stroke="none" stroke-width="0" stroke-linecap="butt"/><path d="M300.56267,197.4871c-0.82538,0.36444 -1.69135,0.21385 -1.93432,-0.33636c-0.24299,-0.55017 0.50092,-0.81984 1.32626,-1.1843c0.82538,-0.36444 1.41956,-0.68573 1.66254,-0.13552c0.24299,0.55017 -0.22915,1.29173 -1.05449,1.65617z" fill="#8fbbbe" stroke="none" stroke-width="0" stroke-linecap="butt"/><path d="M281.4204,211.66184c0,0 6.72857,-7.70753 13.46923,-11.1692c3.82162,-1.96258 7.86735,-2.37304 10.9381,-2.64986c2.71561,-0.24484 8.97147,1.77755 13.59868,3.82379c3.40677,1.50652 5.82816,3.18099 5.82816,3.18099" fill="none" stroke="#000000" stroke-width="0.5" stroke-linecap="round"/><path d="M309.81295,192.58521c0,0 4.92069,9.35761 5.51309,14.73034c0.49913,4.52665 -1.87585,15.22355 -1.87585,15.22355" fill="none" stroke="#000000" stroke-width="1" stroke-linecap="round"/><path d="M307.75891,223.93192c0,0 -4.40294,-8.60479 -5.38207,-13.01977c-1.71916,-7.75187 0.79605,-17.85387 0.79605,-17.85387" fill="none" stroke="#000000" stroke-width="1" stroke-linecap="round"/></g><g stroke="#000000" stroke-linecap="butt"><path d="M283.60379,239.02872c32.57178,-7.09914 39.81914,-0.73274 41.54223,7.17304c1.72309,7.90578 -23.28472,20.06967 -55.85651,27.1688c-32.57178,7.09913 2.53948,-56.00942 0.81639,-63.91519c2.53274,-6.62673 7.49371,-2.38569 9.50194,5.21188c2.47662,9.36958 1.21185,24.96828 3.99596,24.36149z" fill="#0d69be" stroke-width="2"/><path d="M305.49983,221.88478c13.98064,-3.04713 27.84793,6.1079 30.97348,20.44833c3.12555,14.34043 -5.67424,28.43583 -19.65488,31.48297c-13.98064,3.04713 -27.84794,-6.10791 -30.97348,-20.44834c-3.12555,-14.34043 5.67424,-28.43583 19.65488,-31.48296z" fill="#faddbf" stroke-width="2"/><path d="M302.55991,263.19585c13.98064,-3.04713 29.86593,-35.40657 32.99148,-21.06614c3.12555,14.34043 -5.67424,28.43583 -19.65488,31.48296c-13.98064,3.04713 -27.31725,-7.36969 -13.3366,-10.41682z" fill="#ef8b89" stroke-width="0"/></g></g></g></g></svg>