<svg version="1.1" xmlns="http://www.w3.org/2000/svg" xmlns:xlink="http://www.w3.org/1999/xlink" width="257.60036" height="366.69853" viewBox="0,0,257.60036,366.69853"><g transform="translate(-176.13654,36.12042)"><g data-paper-data="{&quot;isPaintingLayer&quot;:true}" fill-rule="nonzero" stroke-linejoin="miter" stroke-miterlimit="10" stroke-dasharray="" stroke-dashoffset="0" style="mix-blend-mode: normal"><g data-paper-data="{&quot;index&quot;:null}" stroke="#000000" stroke-linecap="butt"><path d="M298.86371,329.13374v-90.27109h61.17899v90.27109z" fill="#273750" stroke-width="2"/><path d="M299.65105,328.37717v-90.27109l18.42709,49.31565l42.75189,40.95544z" fill="#1f1e2e" stroke-width="0"/></g><g data-paper-data="{&quot;index&quot;:null}" stroke="#000000" stroke-linecap="butt"><path d="M246.25776,329.57811v-90.27109h61.17899v90.27109z" fill="#273750" stroke-width="2"/><path d="M247.04514,328.82151v-90.27109l18.42709,49.31565l42.75189,40.95544z" fill="#1f1e2e" stroke-width="0"/></g><g><g data-paper-data="{&quot;index&quot;:null}" stroke="#000000" stroke-linecap="butt"><path d="M371.59455,271.20891v-53.93147h60.55149v53.93147z" fill="#ffcaa0" stroke-width="2"/><g><path d="M371.39618,217.47975v-74.3656h61.34072v74.3656z" fill="#ff0008" stroke-width="2"/><path d="M372.27906,217.71818v-38.95051c0,0 18.34876,16.17945 28.53212,16.17945c9.65534,0 31.06831,-16.17945 31.06831,-16.17945v38.95052c0,0 -19.60318,0 -29.48319,0c-9.98568,0 -30.11723,0 -30.11723,0z" fill="#8d005e" stroke-width="0"/></g><path d="M372.53338,270.59809v-53.93147l15.53414,36.55355l45.01735,17.37792z" fill="#ff6e5b" stroke-width="0"/></g><g data-paper-data="{&quot;index&quot;:null}" stroke="#000000" stroke-linecap="butt"><path d="M416.18668,43.3701c0,36.13948 -14.11047,65.43631 -31.51665,65.43631c-17.40618,0 -31.51665,-29.29684 -31.51665,-65.43631c0,-36.13948 14.11047,-65.43631 31.51665,-65.43631c17.40618,0 31.51665,29.29684 31.51665,65.43631z" fill="#01930e" stroke-width="2"/><path d="M364.05335,32.0941c0,36.13948 38.49999,76.22509 21.09382,76.22509c-17.40617,0 -31.51665,-29.29684 -31.51665,-65.43631c0,-36.13948 10.42282,-46.92826 10.42282,-10.7888z" fill="#31525b" stroke-width="0"/></g><path d="M238.02462,239.19155v-127.7035h135.12152v127.7035z" data-paper-data="{&quot;index&quot;:null}" fill="#ff0008" stroke="#000000" stroke-width="2" stroke-linecap="butt"/><g data-paper-data="{&quot;index&quot;:null}" stroke="#000000" stroke-linecap="butt"><path d="M177.33492,271.25614v-53.93147h60.55149v53.93147z" fill="#ffcaa0" stroke-width="2"/><g><path d="M177.13654,217.52698v-74.3656h61.34072v74.3656z" fill="#ff0008" stroke-width="2"/><path d="M178.01942,217.76541v-38.95051c0,0 18.34876,16.17945 28.53212,16.17945c9.65534,0 31.06831,-16.17945 31.06831,-16.17945v38.95052c0,0 -19.60318,0 -29.48319,0c-9.98568,0 -30.11723,0 -30.11723,0z" fill="#8d005e" stroke-width="0"/></g><path d="M178.27372,270.64534v-53.93147l15.53414,36.55355l45.01735,17.37792z" fill="#ff6e5b" stroke-width="0"/></g><g data-paper-data="{&quot;index&quot;:null}" fill="#000000" stroke="#000000" stroke-linecap="butt"><path d="M269.95597,238.665v-125.3266h72.64051v125.3266z" stroke-width="2"/><path d="M270.89085,237.61464v-125.3266l21.87929,68.46668l50.76121,56.85992z" stroke-width="0"/></g><g data-paper-data="{&quot;index&quot;:null}" stroke="#000000" stroke-linecap="butt"><path d="M205.51821,41.60914c0,-1.54461 1.05313,-30.72484 1.17443,-32.2458c3.06505,-38.43323 43.29085,-41.22289 93.68697,-41.22289c47.33922,0 88.23208,5.097 95.35876,40.2101c0.76044,3.74671 -0.49737,29.34644 -0.49737,33.25857c0,13.9834 3.54959,44.71756 -5.20634,55.84422c-16.65117,21.15956 -55.31965,17.62445 -89.65505,17.62445c-36.30348,0 -70.15757,1.10113 -86.10428,-22.09893c-7.06641,-10.28055 -8.75711,-38.91059 -8.75711,-51.36975z" fill="#ffcaa0" stroke-width="2"/><path d="M203.34138,41.62057c0,-1.54461 1.05313,-30.72484 1.17443,-32.2458c1.74142,-21.83593 8.14937,67.95385 64.88867,92.55715c44.46481,19.28084 122.74867,-9.0627 119.22836,-4.58925c-16.65117,21.15956 -56.09466,17.74653 -90.43005,17.74653c-36.30348,0 -70.15757,1.10113 -86.10428,-22.09893c-7.06641,-10.28055 -8.75711,-38.91059 -8.75711,-51.36975z" fill="#ff6e5b" stroke-width="0"/></g><g data-paper-data="{&quot;index&quot;:null}" stroke="#000000" stroke-linecap="butt"><path d="M259.36709,41.04283c0,36.13948 -14.11047,65.43631 -31.51665,65.43631c-17.40618,0 -31.51665,-29.29684 -31.51665,-65.43631c0,-36.13948 14.11047,-65.43631 31.51665,-65.43631c17.40618,0 31.51665,29.29684 31.51665,65.43631z" fill="#01930e" stroke-width="2"/><path d="M207.23377,29.76684c0,36.13948 38.49999,76.22509 21.09382,76.22509c-17.40617,0 -31.51665,-29.29684 -31.51665,-65.43631c0,-36.13948 10.42282,-46.92826 10.42282,-10.7888z" fill="#31525b" stroke-width="0"/></g><g data-paper-data="{&quot;index&quot;:null}" stroke-linecap="butt"><path d="M414.71688,-0.23599c0,19.81843 -49.10895,35.88444 -109.68788,35.88444c-60.57894,0 -109.68787,-16.06601 -109.68787,-35.88444c0,-19.81843 49.10892,-35.88443 109.68787,-35.88443c60.57894,0 109.68788,16.066 109.68788,35.88444z" fill="#000000" stroke="none" stroke-width="NaN"/><path d="M413.84999,0.15036c0,19.81843 -49.10895,35.88444 -109.68788,35.88444c-60.57894,0 -109.68787,-16.06601 -109.68787,-35.88444c0,-19.81843 50.80984,9.93 111.38877,9.93c60.57894,0 107.98697,-29.74843 107.98697,-9.93z" fill="#ff0000" stroke="#000000" stroke-width="2"/><path d="M407.45518,10.47081c0,5.45386 -43.15578,26.35219 -103.73473,24.74467c-21.19898,-0.56253 -41.19683,-2.39377 -57.50239,-5.70846c-30.27143,-6.15375 -48.85525,-15.78473 -46.09162,-20.37408c2.85434,-4.73995 44.71598,18.94011 105.29491,18.94011c60.57894,0 102.03382,-23.05609 102.03382,-17.60224z" fill="#900056" stroke="#000000" stroke-width="0"/></g><path d="M331.07718,69.41526c0,17.63758 -3.44932,31.93566 -7.70429,31.93566c-4.25497,0 -7.70429,-14.29808 -7.70429,-31.93565c0,-17.63758 3.44933,-31.93565 7.70429,-31.93565c4.25497,0 7.70429,14.29808 7.70429,31.93566z" data-paper-data="{&quot;index&quot;:null}" fill="#000000" stroke="none" stroke-width="0" stroke-linecap="butt"/><path d="M361.65084,64.56571c0,17.56702 -3.26778,31.80792 -7.29879,31.80792c-4.03102,0 -7.29879,-14.24089 -7.29879,-31.80792c0,-17.56702 3.26778,-31.80792 7.29879,-31.80792c4.03102,0 7.29879,14.24089 7.29879,31.80792z" data-paper-data="{&quot;index&quot;:null}" fill="#000000" stroke="none" stroke-width="0" stroke-linecap="butt"/><path d="M334.80421,39.40681h-35.62033" fill="none" stroke="#000000" stroke-width="5" stroke-linecap="round"/><path d="M373.25155,31.39137l-27.7047,5.07644" fill="none" stroke="#000000" stroke-width="5" stroke-linecap="round"/><path d="M293.28434,97.74307c-3.55824,6.91006 -9.64532,11.03877 -13.59587,9.22173c-3.95054,-1.81705 -4.26857,-8.89178 -0.71032,-15.80183c3.55824,-6.91006 9.64532,-11.03877 13.59587,-9.22173c3.95054,1.81705 4.26857,8.89178 0.71032,15.80183z" fill="#000000" stroke="none" stroke-width="0" stroke-linecap="butt"/></g></g></g></svg>