<svg version="1.1" xmlns="http://www.w3.org/2000/svg" xmlns:xlink="http://www.w3.org/1999/xlink" width="173.6138" height="324.58846" viewBox="0,0,173.6138,324.58846"><g transform="translate(-224.38864,-36.39898)"><g data-paper-data="{&quot;isPaintingLayer&quot;:true}" fill-rule="nonzero" stroke-linejoin="miter" stroke-miterlimit="10" stroke-dasharray="" stroke-dashoffset="0" style="mix-blend-mode: normal"><g stroke="#000000" stroke-linecap="butt"><path d="M325.09049,232.60328c18.68062,27.61075 28.39153,53.66931 21.68991,58.20345c-6.70164,4.53414 -27.27805,-14.17317 -45.95868,-41.78389c-18.68062,-27.61075 -28.39153,-53.66931 -21.68991,-58.20345c6.70164,-4.53414 27.27805,14.17317 45.95867,41.7839z" fill="#0d69be" stroke-width="2"/><path d="M362.06924,263.53882c8.01819,11.85122 4.66368,28.12585 -7.49255,36.35043c-12.15621,8.22456 -28.51082,5.28457 -36.52904,-6.56668c-8.0182,-11.85123 -4.66368,-28.12585 7.49255,-36.35043c12.15622,-8.22455 28.51084,-5.28455 36.52904,6.56668z" fill="#faddbf" stroke-width="2"/><path d="M322.61752,276.14085c8.0182,11.85123 43.9621,14.59227 31.80587,22.81682c-12.15621,8.22456 -28.51082,5.28456 -36.52904,-6.56668c-8.0182,-11.85123 -3.29505,-28.10136 4.72316,-16.25015z" fill="#ef8b89" stroke-width="0"/></g><g stroke="#000000" stroke-linecap="butt"><path d="M307.76518,340.83542v-95.29492h29.49199v95.29492z" fill="#73fffc" stroke-width="2"/><path d="M307.43943,340.21748l1.32626,-93.78573c0,0 5.20288,68.11227 6.3799,77.52842c0.2602,2.08162 2.52228,2.78987 2.52228,2.78987l18.60659,13.13896z" fill="#59a9e6" stroke-width="0"/></g><g stroke="#000000" stroke-linecap="butt"><path d="M268.4238,338.41288v-95.29492h29.49199v95.29492z" fill="#73fffc" stroke-width="2"/><path d="M268.09805,337.79495l1.32626,-93.78573c0,0 5.20288,68.11227 6.3799,77.52842c0.2602,2.08162 2.52228,2.78987 2.52228,2.78987l18.60659,13.13896z" fill="#59a9e6" stroke-width="0"/></g><g stroke="#000000" stroke-linecap="butt"><path d="M335.22917,235.69588c0,13.80271 10.04743,36.74388 4.95001,46.45977c-6.2338,11.88187 -28.61241,9.09579 -38.9397,9.09579c-13.66287,0 -32.94407,4.17018 -38.34426,-14.83216c-2.01935,-7.10576 4.35457,-32.37264 4.35457,-40.7234c0,-30.68249 15.2177,-55.55556 33.98969,-55.55556c18.77199,0 33.98969,24.87307 33.98969,55.55556z" fill="#0d69be" stroke-width="2"/><path d="M283.96554,251.27245c0,13.80271 62.04198,20.54886 56.94455,30.26474c-6.2338,11.88186 -28.61241,9.09579 -38.9397,9.09579c-13.66287,0 -32.94406,4.17018 -38.34425,-14.83215c-2.01936,-7.10576 4.35457,-32.37265 4.35457,-40.7234c0,-9.45244 3.34855,-28.59801 5.51953,-29.96813c5.94391,-16.76415 10.4653,25.13995 10.4653,46.16315z" fill="#10157d" stroke-width="0"/></g><g stroke-linecap="butt"><g stroke="#000000"><g><path d="M228.81034,100.97245c13.12179,-44.91321 60.16845,-70.68525 105.08167,-57.56347c44.91321,13.12179 70.68525,60.16845 57.56347,105.08167c-13.12179,44.91321 -60.16845,70.68525 -105.08167,57.56347c-44.91321,-13.12179 -70.68525,-60.16845 -57.56347,-105.08167z" fill="#faddbf" stroke-width="2"/><path d="M229.27569,100.20254c4.22175,-14.4502 19.81087,-36.93771 25.04034,-38.75841c0.59722,-0.20793 8.05299,-6.93003 17.15527,-11.26803c11.31352,-5.39184 24.70982,-8.57083 25.24082,-8.21039c6.92796,4.70255 -35.01086,57.33742 -40.91385,81.95998c-0.01408,0.05872 -1.29443,20.14702 0.13602,21.02219c1.43976,5.36136 3.37404,20.93982 11.81637,30.84496c15.73327,18.45937 41.45896,32.61545 39.89337,32.68492c-2.50439,0.11112 -14.98525,-1.49329 -20.80488,-3.19354c-44.91321,-13.12179 -70.68525,-60.16845 -57.56347,-105.08167z" fill="#ef8b89" stroke-width="0"/><path d="M391.08153,147.90404c-3.25988,11.15789 -5.90076,14.5706 -5.91137,12.63837c-0.01083,-1.97124 2.5729,-9.47218 -4.57156,-16.59728c-1.73124,-1.72655 -11.55672,3.16202 -13.83046,1.21824c-1.42817,-1.22092 -5.45138,-12.19359 -7.09869,-13.37916c-1.15177,-0.82893 -14.29989,4.54995 -15.51689,3.72491c-3.03526,-2.0577 -8.3179,-14.27916 -11.73406,-15.96274c-1.88117,-0.9271 -12.2334,8.77105 -14.1866,7.93594c-2.5189,-1.07698 -6.28018,-14.40776 -8.90773,-15.17542c-6.98773,-2.04153 -9.14571,4.63187 -15.85771,8.92821c-4.36162,2.79187 -9.7669,-16.45099 -14.00915,-13.06979c-5.26838,4.19905 -10.44381,8.21869 -15.52412,10.48454c-3.98569,1.77765 -9.99638,-13.43949 -13.49108,-11.73329c-16.87338,8.23803 -27.12099,13.58309 -22.02497,-3.85956c10.24715,-35.0739 43.85399,4.25548 89.99558,-4.6853c44.16627,-8.55802 82.91597,14.45843 72.66882,49.53233z" fill="#ef8b89" stroke-width="0"/></g><path d="M394.88452,140.3568c-6.58556,22.54102 3.82552,10.19731 -10.76541,-4.04143c-1.7855,-1.74241 -11.81477,3.08663 -14.15748,1.1227c-1.47149,-1.23358 -5.67014,-12.2575 -7.36583,-13.45721c-1.1856,-0.83881 -14.61468,4.45798 -15.86706,3.6226c-3.12351,-2.08349 -8.62101,-14.36772 -12.13201,-16.07901c-1.9334,-0.94236 -12.4681,8.70248 -14.47463,7.85179c-2.58767,-1.09707 -6.53476,-14.48213 -9.23151,-15.27001c-7.1718,-2.0953 -9.33483,4.57662 -16.17926,8.83427c-4.44768,2.76672 -10.12057,-16.55432 -14.44181,-13.1962c-5.36646,4.17039 -10.639,8.16166 -15.82653,10.39619c-4.06981,1.75308 -10.33427,-13.53821 -13.90168,-11.85325c-17.22448,8.13545 -27.68289,13.41892 -22.58687,-4.02373c10.24715,-35.0739 61.05039,-66.81748 105.13432,-53.93797c44.08392,12.8795 72.04295,64.95737 61.79581,100.03127z" fill="#873412" stroke-width="2"/><path d="M394.97282,139.17119c-6.58556,22.54102 3.82552,10.19731 -10.76541,-4.04143c-1.7855,-1.74241 -11.81477,3.08663 -14.15748,1.1227c-1.47149,-1.23358 -5.67014,-12.2575 -7.36584,-13.45721c-1.1856,-0.83881 -14.61468,4.45798 -15.86706,3.6226c-3.12351,-2.08349 -8.62101,-14.36772 -12.13201,-16.07901c-1.9334,-0.94236 -12.4681,8.70248 -14.47463,7.85179c-2.58767,-1.09707 -6.53476,-14.48213 -9.23151,-15.27001c-7.1718,-2.0953 -9.33483,4.57662 -16.17926,8.83427c-4.44768,2.76672 -10.12057,-16.55432 -14.44181,-13.1962c-5.36646,4.17039 -10.639,8.16166 -15.82654,10.39619c-4.06981,1.75308 -10.33427,-13.53821 -13.90168,-11.85325c-17.22448,8.13545 -27.68289,13.41892 -22.58687,-4.02373c10.24715,-35.0739 44.94845,4.57523 92.14648,-4.0569c45.17747,-8.26259 85.03079,15.07629 74.78364,50.15019z" fill="#741d23" stroke-width="0"/></g><path d="M332.45942,50.95627c0.03,0.12923 0.04409,0.27239 0.04525,0.42571c0.01775,0.27517 -0.0101,0.55785 -0.08901,0.83801c-0.21431,1.12121 -0.74795,2.3999 -0.84273,2.88488c-0.12451,0.63717 1.35212,-0.38353 1.94415,-0.11709c0.36265,0.16321 0.54527,0.95277 0.90321,0.77948c2.17223,-1.05168 4.51323,-3.34746 6.70204,-1.01689c0.7249,0.77184 0.11893,2.00446 0.46891,2.82006c0.02942,0.06856 2.54282,0.6006 2.96508,1.27917c0.7276,1.16924 -0.32511,2.25104 -0.10141,3.35054c0.07158,0.35183 0.67546,-0.2634 1.0314,-0.31042c1.58412,-0.20922 4.39955,-0.80509 5.80131,0.64806c0.73861,0.76569 0.11327,2.26208 0.47591,2.82841c0.63578,0.99283 2.23878,-0.76808 3.39878,-0.97864c1.60435,-0.29123 2.10596,0.58545 3.05187,1.78498c0.16315,0.20689 -0.70484,4.09884 0.02846,5.51921c0.41219,0.79839 1.82609,-0.36107 2.69271,-0.12377c0.86467,0.23677 2.8091,0.05234 3.18499,0.27011c0.75399,0.43681 1.0484,2.01575 1.8933,1.80256c4.31375,-1.08844 8.6213,1.67937 5.66104,5.98198c-0.37462,0.54451 1.42981,-0.18018 1.97306,0.19628c0.21061,0.14594 1.2294,1.4862 1.4716,1.46737c1.58418,-0.12321 2.68682,-0.54814 4.21521,-0.10564c1.26931,0.36749 2.27833,1.43727 2.18565,2.84837c-0.04871,0.7416 -1.55276,1.75823 -0.87038,2.05267c1.60847,0.69405 4.02147,2.15471 2.56858,4.37381c-1.57714,2.40887 -4.45609,4.05676 -6.33925,1.32819c-0.65337,-0.94667 -2.56029,0.54658 -3.44566,-0.18773c-1.13423,-0.9407 -1.13369,-3.32467 -0.7351,-4.43401c0.18426,-0.51282 -1.13509,0.058 -1.62468,-0.18127c-0.65916,-0.32214 -0.68216,-1.46549 -1.36898,-1.72345c-1.53628,-0.57699 -2.22022,2.75404 -5.73024,0.90912c-1.03602,-0.54455 -1.80341,-2.79906 -1.85981,-3.95937c-0.03274,-0.67354 2.13169,-2.13754 2.00959,-2.28321c-0.29648,-0.35371 -2.66062,2.16831 -3.10981,2.18516c-1.08064,0.04055 -1.9553,-0.96686 -2.7924,-1.65147c-0.73959,-0.60485 -1.63704,1.49066 -2.56759,1.27401c-0.82209,-0.1914 -8.84278,-3.08617 -9.02359,-3.66301c-0.22045,-0.70326 -0.30506,-1.88207 0.04534,-2.51905c0.12593,-0.22892 1.45304,-1.49368 1.2731,-1.52526c-0.63858,-0.11209 -4.98471,2.12717 -6.15449,-1.60472c-0.63612,-2.02937 1.94238,-3.18143 2.40095,-4.73949c0.28319,-0.96218 -1.53425,1.29723 -2.23357,2.01622c-0.53712,0.55225 -1.74346,0.8505 -2.49387,0.65729c-2.5945,-0.66802 -1.16615,-2.91895 -1.28098,-4.53019c-0.05299,-0.74358 -1.68137,0.12882 -2.19893,-0.4077c-1.26542,-1.3118 -0.71273,-2.36351 -0.41524,-3.87282c0.13621,-0.69108 -1.28811,2.45233 -2.91343,2.15099c-0.65915,-0.12221 -1.38867,-1.39267 -1.8119,-0.87276c-2.06052,2.53117 -1.7236,3.89236 -5.23242,2.36605c-0.33859,-0.14728 -1.16162,0.48955 -1.47584,0.16381c-3.47769,-3.60517 1.39844,-7.85442 2.63959,-11.66747c0.43781,-1.34502 0.14203,-3.63356 1.51766,-3.96278c0.62407,-0.58533 1.5326,-0.83486 2.41335,-0.57755c0.78092,0.22815 1.36574,0.80389 1.63521,1.5095c0.04994,0.09478 0.08884,0.19554 0.11397,0.30379z" fill="#ba587e" stroke="none" stroke-width="0.5"/></g><g stroke="#000000" stroke-linecap="butt"><path d="M330.62784,164.23392c-8.00893,27.41295 -24.77979,37.85953 -40.68348,33.21313c-15.90369,-4.6464 -24.91782,-22.6263 -16.90889,-50.03925c8.00893,-27.41295 27.39395,-45.86888 43.29765,-41.22248c15.90369,4.6464 22.30367,30.63564 14.29473,58.0486z" fill="#f0f0f0" stroke-width="2"/><path d="M291.23987,132.32537c-12.04746,25.89347 15.45151,69.14952 -0.45218,64.50311c-15.90369,-4.6464 -24.91782,-22.6263 -16.90889,-50.03925c8.00893,-27.41295 34.77814,-51.89816 17.36108,-14.46386z" fill="#9a99ff" stroke-width="0"/></g><path d="M324.58079,171.04466c-4.43711,15.18731 -12.53485,26.18413 -18.08681,24.56207c-5.55196,-1.62205 -6.45573,-15.24874 -2.01863,-30.43605c4.43711,-15.18731 12.53485,-26.18413 18.08681,-24.56207c5.55196,1.62205 6.45573,15.24874 2.01863,30.43605z" fill="#000000" stroke="none" stroke-width="0" stroke-linecap="butt"/><g stroke="#000000" stroke-linecap="butt"><path d="M334.24233,133.99968c1.41172,11.06991 -0.26471,34.17007 -15.34456,29.76436c-15.07985,-4.40571 -37.98382,-35.46832 -30.92493,-43.42319c6.71642,-7.56893 12.52391,-18.65536 27.60376,-14.24965c15.07985,4.40571 17.32034,17.3587 18.66572,27.90846z" fill="#a100fe" stroke-width="2"/><path d="M333.45448,133.40047c1.26576,11.02726 -0.03547,33.74248 -14.60113,29.48699c-14.56567,-4.25549 -36.99953,-34.68619 -30.0894,-42.68451c6.57489,-7.61028 6.02528,2.76259 20.59095,7.01807c14.56567,4.25549 22.89329,-4.32969 24.09957,6.17943z" fill="#99008e" stroke-width="0"/></g><g data-paper-data="{&quot;index&quot;:null}" stroke="#000000" stroke-linecap="butt"><path d="M377.79352,123.06087c15.90369,4.6464 22.30367,30.63564 14.29473,58.0486c-8.00893,27.41294 -25.28499,37.71194 -41.18868,33.06553c-15.90369,-4.6464 -24.41263,-22.4787 -16.40369,-49.89165c8.00893,-27.41295 27.39395,-45.86888 43.29765,-41.22248z" fill="#f0f0f0" stroke-width="2"/><path d="M391.71059,180.13414c-8.00893,27.41294 -25.28499,37.71194 -41.18868,33.06553c-15.90369,-4.6464 30.55754,-26.29433 34.34512,-54.60099c5.47573,-40.92307 14.85249,-5.87749 6.84356,21.53546z" fill="#9a99ff" stroke-width="0"/></g><path d="M381.87672,157.29954c5.55196,1.62205 6.45573,15.24874 2.01863,30.43605c-4.43711,15.18731 -12.53485,26.18413 -18.08681,24.56207c-5.55196,-1.62205 -6.45573,-15.24874 -2.01863,-30.43605c4.43711,-15.18731 12.53485,-26.18413 18.08681,-24.56207z" data-paper-data="{&quot;index&quot;:null}" fill="#000000" stroke="none" stroke-width="0" stroke-linecap="butt"/><g data-paper-data="{&quot;index&quot;:null}" stroke="#000000" stroke-linecap="butt"><path d="M347.72696,136.85863c6.81339,-8.16611 15.6749,-17.87555 30.75476,-13.46984c15.07985,4.40571 14.00535,16.87493 15.59052,26.86924c1.66599,10.50391 -33.15272,24.45506 -48.23258,20.04935c-15.07985,-4.40571 -5.26203,-24.88001 1.88729,-33.44874z" fill="#a100fe" stroke-width="2"/><path d="M348.71349,136.77781c6.67429,-8.20675 9.07012,3.51138 23.63579,7.76687c14.56567,4.25549 19.68689,-4.78174 21.13052,5.17122c1.51724,10.46046 -32.72638,23.83777 -47.29205,19.58228c-14.56567,-4.25549 -4.47763,-23.90899 2.52573,-32.52036z" fill="#99008e" stroke-width="0"/></g><path d="M371.63632,338.87008c0,11.6628 -14.51982,21.11737 -32.43092,21.11737c-17.9111,0 -32.43092,-9.45457 -32.43092,-21.11737c0,-2.33142 -0.03339,-13.76009 1.08979,-15.13837c4.49546,-5.51647 17.81784,5.26144 32.14847,5.26144c17.9111,0 31.62358,-1.78588 31.62358,9.87692z" fill="#000082" stroke="#000000" stroke-width="2" stroke-linecap="butt"/><path d="M369.75004,336.1378c0,6.30841 -13.89058,10.1901 -31.80169,10.1901c-17.9111,0 -30.16566,-2.95748 -30.16566,-9.26589c0,-1.26107 -0.03338,-12.52602 1.0898,-13.27153c4.49546,-2.98386 15.55258,5.7726 29.88321,5.7726c17.9111,0 30.99434,0.26631 30.99434,6.57472z" fill="#2e0048" stroke="#000000" stroke-width="0" stroke-linecap="butt"/><path d="M328.64938,338.22529c0,11.6628 -14.51982,21.11737 -32.43092,21.11737c-17.9111,0 -32.43092,-9.45457 -32.43092,-21.11737c0,-2.33142 -0.03339,-13.76009 1.08979,-15.13837c4.49546,-5.51647 17.81784,5.26144 32.14847,5.26144c17.9111,0 31.62358,-1.78588 31.62358,9.87692z" fill="#000082" stroke="#000000" stroke-width="2" stroke-linecap="butt"/><path d="M326.7631,335.49289c0,6.30841 -13.89058,10.1901 -31.80169,10.1901c-17.9111,0 -30.16566,-2.95748 -30.16566,-9.26589c0,-1.26107 -0.03338,-12.52602 1.0898,-13.27153c4.49546,-2.98386 15.55258,5.7726 29.88321,5.7726c17.9111,0 30.99434,0.26631 30.99434,6.57472z" fill="#2e0048" stroke="#000000" stroke-width="0" stroke-linecap="butt"/><g><g><path d="M301.44871,255.35643c-14.93066,2.1675 -24.74096,-4.07495 -27.57358,-18.74074c-2.21543,-11.47026 8.37762,-26.16078 23.30832,-28.32827c14.93073,-2.16754 27.17762,5.90576 29.32354,20.68765c0.3356,2.31159 -0.04074,4.54457 -0.36542,6.5872c-1.75158,11.0192 -12.09703,17.96565 -24.69283,19.7942z" fill="#485e84" stroke="#000000" stroke-width="2" stroke-linecap="butt"/><path d="M285.24969,215.15549c0,0 0.38782,5.74289 2.14772,6.70006c16.88116,9.18153 30.89013,8.19831 35.4987,7.51951c1.04708,-0.1542 1.47854,-1.19088 1.47854,-1.19088c0,0 0.52167,2.0484 0.31895,4.78206c-0.21571,2.90884 -1.20419,6.58674 -2.88246,9.16133c-1.91709,2.94091 -8.11564,8.51642 -8.11564,8.51642l-20.00855,6.20618c0,0 -11.43385,-7.08677 -12.7694,-8.79358c-1.30842,-1.67211 -2.37709,-4.02597 -3.61408,-6.48292c-1.92057,-3.81485 -2.42652,-8.32601 -1.92958,-11.1629c0.63424,-3.62048 2.87551,-7.71056 5.26048,-10.68955c2.21963,-2.77253 4.61532,-4.56558 4.61532,-4.56558z" fill="#343545" stroke="none" stroke-width="0" stroke-linecap="butt"/><path d="M291.07924,238.88696c0,0 -3.11774,-8.46627 -1.58621,-13.38913c1.93872,-6.23184 9.08983,-17.04682 9.08983,-17.04682" fill="none" stroke="#000000" stroke-width="1" stroke-linecap="round"/><path d="M323.89937,222.38379c0,0 -0.48762,7.13389 -1.79565,11.22788c-1.32045,4.1331 -7.34215,11.74179 -7.34215,11.74179" fill="none" stroke="#000000" stroke-width="1" stroke-linecap="round"/><path d="M281.10399,243.45319c0,0 -3.33016,-8.64272 -1.42849,-13.89938c2.91806,-8.06617 8.90314,-17.99969 8.90314,-17.99969" fill="none" stroke="#000000" stroke-width="1" stroke-linecap="round"/><path d="M274.86017,229.50283c0,0 12.0578,-12.41311 29.27348,-9.73658c18.8576,2.93179 21.01174,20.04464 21.01174,20.04464" fill="none" stroke="#000000" stroke-width="1" stroke-linecap="round"/><path d="M274.95878,239.02623c0,0 14.33432,-10.55412 29.53086,-8.22497c12.47775,1.91247 15.6406,16.15727 15.6406,16.15727" fill="none" stroke="#000000" stroke-width="1" stroke-linecap="round"/><path d="M311.22175,214.61267c-1.10513,-0.47534 -1.69585,-1.56989 -1.31954,-2.44473c0.37627,-0.87486 1.11652,-0.58159 2.22161,-0.10624c1.10513,0.47534 2.15652,0.95278 1.78019,1.82762c-0.37627,0.87486 -1.5772,1.19872 -2.68227,0.72336z" fill="#8fbbbe" stroke="none" stroke-width="0" stroke-linecap="butt"/><path d="M317.44713,218.36821c-0.59524,0.08639 -1.18287,-0.56734 -1.3125,-1.4602c-0.12962,-0.89288 -0.05929,-1.27531 0.53596,-1.36174c0.59524,-0.08639 1.3625,0.54127 1.49209,1.43412c0.12962,0.89288 -0.12037,1.30141 -0.71562,1.3878z" fill="#8fbbbe" stroke="none" stroke-width="0" stroke-linecap="butt"/><path d="M304.8412,211.93826c-0.90162,0.03375 -1.65069,-0.42611 -1.67322,-1.02719c-0.02255,-0.60103 0.76837,-0.57678 1.66996,-0.61054c0.90162,-0.03375 1.57248,-0.11278 1.59499,0.48828c0.02255,0.60103 -0.69016,1.11571 -1.59174,1.14943z" fill="#8fbbbe" stroke="none" stroke-width="0" stroke-linecap="butt"/><path d="M281.81645,218.03828c0,0 9.10001,-4.67648 16.64271,-5.40299c4.2763,-0.41188 8.18745,0.70135 11.14326,1.57857c2.61394,0.77574 7.68008,4.9662 11.224,8.57715c2.6092,2.65854 4.24066,5.1091 4.24066,5.1091" fill="none" stroke="#000000" stroke-width="0.5" stroke-linecap="round"/><path d="M315.24804,210.80055c0,0 1.1155,10.51351 -0.3189,15.725c-1.20848,4.3908 -7.36732,13.45354 -7.36732,13.45354" fill="none" stroke="#000000" stroke-width="1" stroke-linecap="round"/><path d="M301.7586,239.17079c0,0 -0.91251,-9.62268 -0.19132,-14.08703c1.26629,-7.83858 7.33566,-16.2967 7.33566,-16.2967" fill="none" stroke="#000000" stroke-width="1" stroke-linecap="round"/></g><g stroke="#000000" stroke-linecap="butt"><path d="M273.73498,244.27573c32.89018,5.43637 37.27283,14.02986 35.95331,22.01291c-1.31951,7.98305 -29.05197,10.04753 -61.94216,4.61116c-32.89019,-5.4364 23.0519,-51.10885 24.37142,-59.0919c4.80173,-5.22223 7.84492,0.55156 6.90425,8.35357c-1.16008,9.62168 -8.09817,23.64962 -5.28683,24.11429z" fill="#0d69be" stroke-width="2"/><path d="M300.41563,236.43388c14.11731,2.33345 23.62133,15.9639 21.22783,30.44453c-2.3935,14.48063 -15.77813,24.32786 -29.89543,21.99443c-14.11731,-2.33345 -23.62132,-15.96393 -21.22783,-30.44453c2.3935,-14.48063 15.77812,-24.32783 29.89545,-21.99438z" fill="#faddbf" stroke-width="2"/><path d="M282.42176,273.73627c14.11731,2.33345 40.83362,-21.86808 38.44016,-7.38745c-2.3935,14.48063 -15.77813,24.32784 -29.89545,21.99438c-14.11731,-2.33345 -22.66204,-16.94039 -8.54473,-14.60695z" fill="#ef8b89" stroke-width="0"/></g></g><path d="M259.72847,157.60425c0.09299,-0.24287 0.49678,-1.08743 1.52832,-0.78606c1.19984,0.35054 0.8493,1.55039 0.8493,1.55039l-0.14942,0.37836c-1.21016,2.06743 -2.63874,3.97841 -3.91856,5.99934c-1.30748,1.50678 -2.80731,3.51003 -4.72597,4.27226c-3.88532,1.54352 -7.61782,-2.45436 -8.10542,-6.0354c-0.62404,-4.5831 1.52622,-9.80465 3.92529,-13.64644c0,0 0.66668,-1.05737 1.72405,-0.39069c1.05737,0.66668 0.39069,1.72405 0.39069,1.72405c-1.71619,2.69095 -3.71262,6.93517 -3.72148,10.20089c-0.00575,2.119 1.09431,6.07712 3.9529,6.08771c1.8031,0.00668 3.52511,-2.52902 4.55409,-3.70456c1.19798,-1.90908 2.5488,-3.70698 3.6962,-5.64984z" fill="#000000" stroke="none" stroke-width="0.5" stroke-linecap="butt"/></g></g></svg>