<svg version="1.1" xmlns="http://www.w3.org/2000/svg" xmlns:xlink="http://www.w3.org/1999/xlink" width="191.56711" height="324.2752" viewBox="0,0,191.56711,324.2752"><g transform="translate(-217.2353,-36.71217)"><g data-paper-data="{&quot;isPaintingLayer&quot;:true}" fill-rule="nonzero" stroke-linejoin="miter" stroke-miterlimit="10" stroke-dasharray="" stroke-dashoffset="0" style="mix-blend-mode: normal"><g stroke="#000000" stroke-linecap="butt"><g><path d="M308.15488,342.68737v-86.07972h32.76084v86.07972z" fill="#73fffc" stroke-width="2"/><path d="M307.79302,342.12918l1.47326,-84.71647c0,0 5.77956,61.52568 7.08704,70.03127c0.28904,1.88032 2.80185,2.52008 2.80185,2.52008l20.66892,11.86839z" fill="#59a9e6" stroke-width="0"/></g><g><path d="M264.45295,340.49911v-86.07972h32.76084v86.07972z" fill="#73fffc" stroke-width="2"/><path d="M264.0911,339.94093l1.47326,-84.71647c0,0 5.77956,61.52568 7.08704,70.03127c0.28904,1.88032 2.80185,2.52008 2.80185,2.52008l20.66892,11.86839z" fill="#59a9e6" stroke-width="0"/></g><path d="M379.10541,340.91209c0,10.53499 -16.12917,19.07528 -36.02552,19.07528c-19.89634,0 -36.02552,-8.54029 -36.02552,-19.07528c0,-2.10597 -0.03709,-12.42947 1.21058,-13.67446c4.99374,-4.98301 19.79275,4.75265 35.71176,4.75265c19.89634,0 35.12869,-1.61318 35.12869,8.9218z" fill="#000082" stroke-width="2"/><path d="M377.01005,338.44401c0,5.69837 -15.43019,9.2047 -35.32654,9.2047c-19.89634,0 -33.50918,-2.67149 -33.50918,-8.36986c0,-1.13912 -0.03708,-11.31473 1.21059,-11.98814c4.99374,-2.69532 17.2764,5.21438 33.19543,5.21438c19.89634,0 34.42971,0.24056 34.42971,5.93893z" fill="#2e0048" stroke-width="0"/><path d="M331.35385,340.32964c0,10.53499 -16.12917,19.07528 -36.02552,19.07528c-19.89634,0 -36.02552,-8.54029 -36.02552,-19.07528c0,-2.10597 -0.03709,-12.42947 1.21058,-13.67446c4.99374,-4.98301 19.79275,4.75265 35.71176,4.75265c19.89634,0 35.12869,-1.61318 35.12869,8.9218z" fill="#000082" stroke-width="2"/><path d="M329.2585,337.86156c0,5.69837 -15.43019,9.2047 -35.32654,9.2047c-19.89634,0 -33.50918,-2.67149 -33.50918,-8.36986c0,-1.13912 -0.03708,-11.31473 1.21059,-11.98814c4.99374,-2.69532 17.2764,5.21438 33.19543,5.21438c19.89634,0 34.42971,0.24056 34.42971,5.93893z" fill="#2e0048" stroke-width="0"/></g><g stroke="#000000" stroke-linecap="butt"><path d="M346.01801,214.77071c29.92117,14.69837 51.28501,32.50111 47.71744,39.76354c-3.56757,7.26243 -30.71558,1.23439 -60.63675,-13.46398c-29.92117,-14.69837 -51.28501,-32.50111 -47.71744,-39.76354c3.56757,-7.26243 30.71558,-1.23439 60.63675,13.46399z" fill="#0d69be" stroke-width="2"/><path d="M393.47464,223.27373c12.84292,6.30891 18.00817,22.10249 11.53689,35.27594c-6.47127,13.17345 -22.12854,18.73826 -34.97145,12.42933c-12.84292,-6.30892 -18.00817,-22.10249 -11.53689,-35.27594c6.47126,-13.17345 22.12854,-18.73825 34.97145,-12.42933z" fill="#faddbf" stroke-width="2"/><path d="M365.47974,253.79476c12.84292,6.30892 45.40766,-9.15119 38.93637,4.02227c-6.47127,13.17345 -22.12853,18.73825 -34.97145,12.42933c-12.84292,-6.30892 -16.80785,-22.7605 -3.96493,-16.45158z" fill="#ef8b89" stroke-width="0"/></g><g stroke="#000000" stroke-linecap="butt"><path d="M335.22917,235.69585c0,13.80271 10.04743,36.74388 4.95001,46.45977c-6.2338,11.88187 -28.61241,9.09579 -38.9397,9.09579c-13.66287,0 -32.94407,4.17018 -38.34426,-14.83216c-2.01935,-7.10576 4.35457,-32.37264 4.35457,-40.7234c0,-30.68249 15.2177,-55.55556 33.98969,-55.55556c18.77199,0 33.98969,24.87307 33.98969,55.55556z" fill="#0d69be" stroke-width="2"/><path d="M283.96554,251.27246c0,13.80271 62.04198,20.54886 56.94455,30.26474c-6.2338,11.88186 -28.61241,9.09579 -38.9397,9.09579c-13.66287,0 -32.94406,4.17018 -38.34425,-14.83215c-2.01936,-7.10576 4.35457,-32.37265 4.35457,-40.7234c0,-9.45244 3.34855,-28.59801 5.51953,-29.96813c5.94391,-16.76415 10.4653,25.13995 10.4653,46.16315z" fill="#10157d" stroke-width="0"/></g><g><g><path d="M279.09117,260.49525c-14.25791,-4.93307 -20.10451,-14.98429 -15.88389,-29.31244c3.30094,-11.2062 19.45837,-19.38926 33.71627,-14.45619c14.25798,4.93305 21.4279,17.7298 16.54403,31.84564c-0.76374,2.20746 -2.12373,4.01802 -3.35041,5.68327c-6.6175,8.98329 -18.99772,10.40136 -31.02597,6.23974z" fill="#485e84" stroke="#000000" stroke-width="2" stroke-linecap="butt"/><path d="M283.16847,217.34551c0,0 -2.29347,5.27929 -1.16992,6.93791c10.77729,15.90987 23.67251,21.47149 28.07791,22.98549c1.0009,0.34399 1.86035,-0.37863 1.86035,-0.37863c0,0 -0.47753,2.05914 -1.91331,4.39421c-1.52778,2.48471 -4.09522,5.29758 -6.76858,6.81356c-3.05376,1.73166 -11.12074,3.83688 -11.12074,3.83688l-20.62352,-3.67819c0,0 -6.90091,-11.54697 -7.30321,-13.67654c-0.39414,-2.08627 -0.26215,-4.66799 -0.2323,-7.41864c0.04638,-4.27078 1.66916,-8.51028 3.41368,-10.80188c2.22644,-2.92458 6.09603,-5.52808 9.58286,-7.07868c3.24516,-1.44312 6.19677,-1.93536 6.19677,-1.93536z" fill="#343545" stroke="none" stroke-width="0" stroke-linecap="butt"/><path d="M277.44561,241.10295c0,0 1.1196,-8.95236 4.74128,-12.62162c4.58465,-4.64493 15.90453,-10.96656 15.90453,-10.96656" fill="none" stroke="#000000" stroke-width="1" stroke-linecap="round"/><path d="M314.17901,241.51971c0,0 -3.71005,6.11271 -6.75249,9.14842c-3.07142,3.06472 -11.91526,7.05714 -11.91526,7.05714" fill="none" stroke="#000000" stroke-width="1" stroke-linecap="round"/><path d="M266.48753,240.57683c0,0 1.01199,-9.20664 5.11579,-13.00238c6.29717,-5.82443 16.17636,-11.89871 16.17636,-11.89871" fill="none" stroke="#000000" stroke-width="1" stroke-linecap="round"/><path d="M267.3495,225.31724c0,0 16.41234,-5.48731 30.47485,4.7981c15.40372,11.26635 9.45638,27.45647 9.45638,27.45647" fill="none" stroke="#000000" stroke-width="1" stroke-linecap="round"/><path d="M263.06255,233.82177c0,0 17.58057,-2.79034 30.00911,6.25902c10.20496,7.43036 6.47107,21.53628 6.47107,21.53628" fill="none" stroke="#000000" stroke-width="1" stroke-linecap="round"/><path d="M306.48767,228.79356c-0.76326,-0.92987 -0.78522,-2.17346 -0.04912,-2.77766c0.73609,-0.60427 1.25892,-0.00374 2.02217,0.92611c0.76326,0.92987 1.47786,1.83689 0.74176,2.44112c-0.73609,0.60427 -1.95161,0.34029 -2.71481,-0.58956z" fill="#8fbbbe" stroke="none" stroke-width="0" stroke-linecap="butt"/><path d="M310.29229,234.98902c-0.56842,-0.19667 -0.79007,-1.04728 -0.49508,-1.89991c0.29499,-0.85264 0.53316,-1.16003 1.10159,-0.96338c0.56842,0.19667 0.96163,1.10663 0.66661,1.95926c-0.29499,0.85264 -0.70472,1.10069 -1.27312,0.90401z" fill="#8fbbbe" stroke="none" stroke-width="0" stroke-linecap="butt"/><path d="M302.04858,223.48709c-0.81637,-0.3842 -1.27051,-1.13676 -1.0144,-1.68098c0.25605,-0.54421 0.94745,-0.15939 1.76381,0.22477c0.81637,0.3842 1.44856,0.62214 1.19247,1.16637c-0.25605,0.54421 -1.12553,0.674 -1.94187,0.28982z" fill="#8fbbbe" stroke="none" stroke-width="0" stroke-linecap="butt"/><path d="M278.79465,218.32915c0,0 10.23127,0.02615 17.26483,2.84554c3.98767,1.59846 6.95041,4.38387 9.17296,6.52078c1.96552,1.88976 4.54068,7.9391 6.02989,12.77442c1.09644,3.56 1.41995,6.48613 1.41995,6.48613" fill="none" stroke="#000000" stroke-width="0.5" stroke-linecap="round"/><path d="M311.81512,227.25688c0,0 -3.83849,9.85109 -7.50649,13.82134c-3.09037,3.34504 -12.72392,8.56606 -12.72392,8.56606" fill="none" stroke="#000000" stroke-width="1" stroke-linecap="round"/><path d="M286.80125,246.26061c0,0 3.6096,-8.96656 6.30091,-12.60077c4.72544,-6.38101 14.00179,-11.10606 14.00179,-11.10606" fill="none" stroke="#000000" stroke-width="1" stroke-linecap="round"/></g><g stroke="#000000" stroke-linecap="butt"><path d="M259.56415,237.92253c26.71774,19.93691 26.66327,29.58327 21.82422,36.06817c-4.83906,6.48489 -30.42091,-4.42012 -57.13866,-24.35705c-26.71774,-19.93692 43.9527,-34.80895 48.79176,-41.29385c6.66399,-2.43301 6.71496,4.09349 2.29557,10.59156c-5.45015,8.01364 -18.05661,17.28706 -15.77289,18.99121z" fill="#0d69be" stroke-width="2"/><path d="M286.86554,243.21265c11.46794,8.55742 13.64883,25.03043 4.87117,36.79351c-8.77766,11.76306 -25.18995,14.36175 -36.6579,5.80431c-11.46793,-8.55743 -13.64883,-25.03044 -4.87117,-36.79352c8.77766,-11.76306 25.18995,-14.36173 36.65788,-5.80431z" fill="#faddbf" stroke-width="2"/><path d="M253.74762,268.08132c11.46793,8.55743 46.3158,-0.66767 37.53814,11.09541c-8.77766,11.76306 -25.18996,14.36174 -36.65788,5.80431c-11.46793,-8.55743 -12.3482,-25.45715 -0.88025,-16.89971z" fill="#ef8b89" stroke-width="0"/></g></g><g stroke-linecap="butt"><g><g stroke="#000000"><g><path d="M227.90889,105.25863c10.97682,-45.48502 56.74819,-73.45945 102.23321,-62.48263c45.48502,10.97682 73.45945,56.74819 62.48263,102.23321c-10.97682,45.48502 -56.74819,73.45945 -102.23321,62.48263c-45.48502,-10.97682 -73.45945,-56.74819 -62.48263,-102.23321z" fill="#faddbf" stroke-width="2"/><path d="M228.3372,104.46753c3.53164,-14.63416 18.03664,-37.83575 23.17388,-39.90243c0.58668,-0.23602 7.71524,-7.30418 16.60154,-12.06901c11.04506,-5.92236 24.27551,-9.73315 24.823,-9.3983c7.1432,4.36868 -32.25199,58.93343 -36.98051,83.80826c-0.01128,0.05932 -0.33741,20.18574 1.13294,20.99208c1.69242,5.28705 4.36341,20.75623 13.26602,30.2498c16.59108,17.69237 42.95923,30.61238 41.39869,30.75602c-2.4963,0.22977 -15.03922,-0.78086 -20.93293,-2.20319c-45.48502,-10.97682 -73.45945,-56.74819 -62.48263,-102.23321z" fill="#ef8b89" stroke-width="0"/><path d="M392.2234,144.44101c-2.727,11.29994 -5.20305,14.83407 -5.30529,12.90452c-0.10431,-1.9685 2.12074,-9.58355 -5.35361,-16.36177c-1.81118,-1.6425 -11.39374,3.70659 -13.75712,1.87284c-1.48447,-1.15181 -6.02358,-11.92131 -7.72527,-13.02741c-1.18978,-0.77336 -14.06799,5.22306 -15.32276,4.45666c-3.12944,-1.91143 -8.98579,-13.86858 -12.47795,-15.38824c-1.92303,-0.83683 -11.80363,9.3414 -13.79424,8.59987c-2.56715,-0.9563 -6.95646,-14.09368 -9.61747,-14.73586c-7.0767,-1.7078 -8.91573,5.06043 -15.4164,9.67028c-4.2243,2.99559 -10.53616,-15.96924 -14.61327,-12.39064c-5.06329,4.4442 -10.04225,8.70478 -15.00938,11.20904c-3.89689,1.96469 -10.62255,-12.95025 -14.0324,-11.08021c-16.46367,9.02904 -26.44623,14.85412 -22.18324,-2.81059c8.57209,-35.52044 44.00647,2.17072 89.67208,-8.94845c43.71067,-10.64316 83.50841,10.50951 74.93633,46.02996z" fill="#ef8b89" stroke-width="0"/></g><path d="M395.66415,136.72189c-5.50905,22.82801 4.30486,10.00439 -10.94498,-3.52629c-1.86614,-1.65576 -11.65508,3.64352 -14.0883,1.79292c-1.52834,-1.1624 -6.24512,-11.97478 -7.99581,-13.09271c-1.22405,-0.78164 -14.3868,5.14613 -15.67739,4.37109c-3.21881,-1.93299 -9.29276,-13.94266 -12.88098,-15.4855c-1.97592,-0.84959 -12.04132,9.28404 -14.08594,8.52947c-2.63679,-0.9731 -7.21428,-14.15589 -9.94537,-14.81499c-7.2631,-1.75279 -9.10725,5.01421 -15.74205,9.5917c-4.31145,2.97456 -10.89434,-16.05568 -15.05144,-12.49638c-5.16261,4.42022 -10.23993,8.65708 -15.31564,11.13513c-3.98209,1.94413 -10.96474,-13.03283 -14.44823,-11.18057c-16.81924,8.94324 -27.01529,14.7168 -22.7523,-2.94792c8.57209,-35.52044 57.81258,-69.63785 102.45776,-58.8637c44.64517,10.77414 75.04276,61.46732 66.47067,96.98776z" fill="#873412" stroke-width="2"/><path d="M395.69611,135.53343c-5.50905,22.82801 4.30486,10.00439 -10.94498,-3.52629c-1.86614,-1.65576 -11.65508,3.64352 -14.0883,1.79292c-1.52834,-1.1624 -6.24512,-11.97478 -7.99582,-13.09271c-1.22405,-0.78164 -14.3868,5.14613 -15.67739,4.37109c-3.21881,-1.93299 -9.29276,-13.94266 -12.88098,-15.4855c-1.97592,-0.84959 -12.04132,9.28404 -14.08594,8.52947c-2.63679,-0.9731 -7.21428,-14.15589 -9.94537,-14.81499c-7.2631,-1.75279 -9.10725,5.01421 -15.74205,9.5917c-4.31145,2.97456 -10.89434,-16.05568 -15.05144,-12.49638c-5.16261,4.42022 -10.23993,8.65708 -15.31565,11.13513c-3.98209,1.94413 -10.96474,-13.03283 -14.44823,-11.18057c-16.81924,8.94324 -27.01529,14.7168 -22.7523,-2.94792c8.57209,-35.52044 45.11487,2.43821 91.85036,-8.42277c44.73474,-10.39602 85.65016,11.02638 77.07807,46.54682z" fill="#741d23" stroke-width="0"/></g><path d="M329.06909,50.38275c0.0361,0.12766 0.05696,0.26999 0.06539,0.42309c0.03077,0.27402 0.01638,0.55771 -0.04916,0.84128c-0.16089,1.13011 -0.63329,2.43268 -0.70495,2.92161c-0.09415,0.64236 1.33241,-0.44722 1.93641,-0.20916c0.36999,0.14582 0.58985,0.92584 0.93916,0.73577c2.11991,-1.15353 4.34938,-3.55775 6.64627,-1.33362c0.76069,0.73658 0.21386,1.99656 0.60214,2.79464c0.03264,0.06709 2.56844,0.47931 3.02242,1.1371c0.78224,1.13342 -0.21798,2.26392 0.05762,3.35158c0.08818,0.34804 0.6622,-0.29514 1.01551,-0.35898c1.57242,-0.28412 4.35641,-1.01285 5.82552,0.37218c0.7741,0.7298 0.22043,2.25417 0.60953,2.80265c0.68215,0.96156 2.19983,-0.8734 3.34854,-1.13874c1.58873,-0.367 2.13135,0.4849 3.1331,1.63822c0.17277,0.19892 -0.50964,4.12766 0.2902,5.51165c0.4496,0.77795 1.80691,-0.44727 2.68381,-0.25134c0.87493,0.19549 2.80842,-0.08095 3.19422,0.11874c0.77385,0.40056 1.14283,1.96375 1.97666,1.71073c4.25728,-1.29181 8.69125,1.26857 5.9384,5.70674c-0.34838,0.56167 1.41966,-0.24779 1.98015,0.10248c0.21729,0.13579 1.29851,1.42622 1.53954,1.39592c1.57656,-0.19822 2.6578,-0.67495 4.20545,-0.30544c1.28531,0.30688 2.34394,1.32759 2.31829,2.7415c-0.01348,0.74308 -1.46762,1.82991 -0.77204,2.09164c1.63957,0.61698 4.11914,1.96156 2.77314,4.24707c-1.46111,2.48096 -4.25866,4.26355 -6.26912,1.62736c-0.69753,-0.91462 -2.53149,0.6674 -3.45068,-0.0241c-1.17757,-0.88584 -1.29009,-3.26716 -0.94458,-4.39416c0.15972,-0.52098 -1.13106,0.11176 -1.63145,-0.10401c-0.6737,-0.29051 -0.7509,-1.43148 -1.44918,-1.65657c-1.56191,-0.50348 -2.08711,2.85625 -5.68067,1.17988c-1.06068,-0.4948 -1.93414,-2.71038 -2.0455,-3.86671c-0.06465,-0.67123 2.02791,-2.23624 1.89904,-2.37595c-0.31292,-0.33925 -2.55479,2.29206 -3.00268,2.33019c-1.0775,0.09175 -1.99895,-0.87304 -2.86758,-1.51716c-0.76744,-0.56909 -1.5645,1.56663 -2.50428,1.39436c-0.83024,-0.1522 -8.97921,-2.66329 -9.18717,-3.23091c-0.25356,-0.69201 -0.39398,-1.86549 -0.07419,-2.51836c0.11493,-0.23463 1.38056,-1.56092 1.19933,-1.58393c-0.64318,-0.08167 -4.8782,2.36119 -6.22367,-1.31101c-0.73165,-1.99692 1.7893,-3.26998 2.17346,-4.84804c0.23724,-0.97453 -1.471,1.36854 -2.13543,2.11989c-0.51033,0.57711 -1.70116,0.93223 -2.45988,0.77483c-2.62327,-0.54421 -1.30328,-2.86035 -1.4944,-4.46434c-0.08819,-0.74023 -1.67337,0.20842 -2.21579,-0.30295c-1.32622,-1.2503 -0.82403,-2.32705 -0.59846,-3.84877c0.10328,-0.69677 -1.17035,2.51067 -2.80813,2.28675c-0.6642,-0.09081 -1.45316,-1.32524 -1.85126,-0.78584c-1.93815,2.62605 -1.53704,3.96973 -5.1143,2.61155c-0.3452,-0.13106 -1.1371,0.54408 -1.4664,0.23362c-3.64477,-3.43617 1.02434,-7.91191 2.08324,-11.77953c0.37353,-1.36428 -0.03046,-3.63621 1.32801,-4.0303c0.5956,-0.61427 1.49128,-0.90661 2.38323,-0.69136c0.79086,0.19085 1.40233,0.73821 1.70496,1.43025c0.05437,0.09231 0.09801,0.19111 0.12825,0.29804z" fill="#ba587e" stroke="none" stroke-width="0.5"/></g><g stroke="#000000"><path d="M332.61225,163.61979c-6.69975,27.76197 -22.95625,38.99222 -39.06242,35.10534c-16.10617,-3.88688 -25.96293,-21.419 -19.26319,-49.18096c6.69975,-27.76197 25.1876,-47.11653 41.29376,-43.22966c16.10617,3.88688 23.73159,29.54332 17.03184,57.30528z" fill="#f0f0f0" stroke-width="2"/><path d="M291.75521,133.61529c-10.8058,26.43573 18.71383,68.33885 2.60765,64.45197c-16.10617,-3.88688 -25.96293,-21.419 -19.26319,-49.18096c6.69975,-27.76197 32.27751,-53.48926 16.65553,-15.27101z" fill="#9a99ff" stroke-width="0"/></g><path d="M326.89503,170.70967c-3.71179,15.38067 -11.27885,26.74918 -16.90149,25.39227c-5.62264,-1.35691 -7.1717,-14.92539 -3.45991,-30.30606c3.71179,-15.38067 11.27885,-26.74918 16.90149,-25.39227c5.62264,1.35691 7.1717,14.92539 3.45991,30.30606z" fill="#000000" stroke="none" stroke-width="0"/><g stroke="#000000"><path d="M334.78868,133.24815c1.93517,10.99049 -12.93448,11.40556 -28.20632,7.72003c-15.27184,-3.68553 -25.33258,-10.88826 -18.65892,-19.16896c6.34988,-7.87896 11.625,-19.22837 26.89684,-15.54284c15.27184,3.68553 18.12416,16.51767 19.96839,26.99176z" fill="#a100fe" stroke-width="2"/><path d="M333.97331,132.68696c1.78734,10.95482 -12.6064,11.48474 -27.35751,7.92488c-14.75111,-3.55986 -24.43167,-10.67084 -17.90866,-18.9879c6.20654,-7.91356 6.14953,2.4737 20.90064,6.03356c14.75111,3.55986 22.66217,-5.41063 24.36554,5.02946z" fill="#99008e" stroke-width="0"/></g><g data-paper-data="{&quot;index&quot;:null}" stroke="#000000"><path d="M377.77204,120.25604c16.10617,3.88688 23.73159,29.54332 17.03184,57.30528c-6.69975,27.76196 -23.46788,38.86875 -39.57406,34.98187c-16.10617,-3.88688 -25.4513,-21.29552 -18.75156,-49.05749c6.69975,-27.76197 25.1876,-47.11653 41.29376,-43.22966z" fill="#f0f0f0" stroke-width="2"/><path d="M394.38039,176.60501c-6.69975,27.76196 -23.46788,38.86875 -39.57406,34.98187c-16.10617,-3.88688 29.27604,-27.71406 31.71679,-56.16851c3.52862,-41.13672 14.55701,-6.57532 7.85726,21.18664z" fill="#9a99ff" stroke-width="0"/></g><path d="M383.47457,154.26251c5.62264,1.35691 7.1717,14.92539 3.45991,30.30606c-3.71179,15.38067 -11.27885,26.74918 -16.90149,25.39227c-5.62264,-1.35691 -7.1717,-14.92539 -3.45991,-30.30606c3.71179,-15.38067 11.27885,-26.74918 16.90149,-25.39227z" data-paper-data="{&quot;index&quot;:null}" fill="#000000" stroke="none" stroke-width="0"/><g data-paper-data="{&quot;index&quot;:null}" stroke="#000000"><path d="M348.39374,135.46431c6.4184,-8.48007 14.80943,-18.59888 30.08128,-14.91336c15.27184,3.68553 14.78995,16.19167 16.84736,26.09955c2.16231,10.41308 -10.07618,12.23437 -25.34802,8.54885c-15.27184,-3.68553 -28.31549,-10.83686 -21.58064,-19.73503z" fill="#a100fe" stroke-width="2"/><path d="M349.37532,135.33679c6.27754,-8.51407 9.22646,3.07725 23.97757,6.6371c14.75111,3.55986 19.43794,-5.7101 21.35201,4.1632c2.01167,10.37673 -9.84665,12.28976 -24.59776,8.7299c-14.75111,-3.55986 -27.31888,-10.59635 -20.73183,-19.5302z" fill="#99008e" stroke-width="0"/></g><path d="M264.82482,149.21363c0.97209,0.23459 0.7375,1.20669 0.7375,1.20669l-0.07279,0.2841c-1.4495,4.26698 -2.64178,8.89112 -6.26178,11.88466c-2.22069,2.41309 -6.00491,3.16443 -6.45808,-1.16897c-0.51073,-4.88391 3.31309,-11.40542 5.58542,-15.41986c0,0 0.49262,-0.87024 1.36287,-0.37762c0.87024,0.49262 0.37762,1.36287 0.37762,1.36287c-2.06251,3.64331 -3.69044,7.24713 -4.67113,11.3108c-0.66197,2.74302 -0.67559,6.21311 2.42734,2.84133c3.35155,-2.7663 4.40324,-7.12934 5.744,-11.07647l0.02233,-0.11001c0,0 0.23459,-0.97209 1.20669,-0.7375z" fill="#000000" stroke="none" stroke-width="0.5"/></g></g></g></svg>