<svg version="1.1" xmlns="http://www.w3.org/2000/svg" xmlns:xlink="http://www.w3.org/1999/xlink" width="282.93657" height="223.77022" viewBox="0,0,282.93657,223.77022"><g transform="translate(-189.69816,-137.04566)"><g data-paper-data="{&quot;isPaintingLayer&quot;:true}" fill-rule="nonzero" stroke-linejoin="miter" stroke-miterlimit="10" stroke-dasharray="" stroke-dashoffset="0" style="mix-blend-mode: normal"><g stroke="#000000" stroke-linecap="butt"><path d="M384.73933,247.66122c38.06203,-6.44086 70.67157,-6.25162 72.83545,0.42271c2.1639,6.67431 -26.93731,17.30628 -64.99934,23.74716c-38.06201,6.44086 -70.67156,6.25162 -72.83545,-0.42271c-2.1639,-6.67431 26.93731,-17.30628 64.99934,-23.74715z" fill="#0d69be" stroke-width="2"/><path d="M434.09784,227.74288c16.33718,-2.76458 32.76303,4.80867 36.68813,16.91537c3.92512,12.10667 -6.13684,24.16222 -22.47403,26.92679c-16.33718,2.76458 -32.76303,-4.80867 -36.68813,-16.91537c-3.92513,-12.10667 6.13684,-24.16222 22.47403,-26.92679z" fill="#faddbf" stroke-width="2"/><path d="M431.40078,262.77576c16.33718,-2.76458 34.37543,-30.38439 38.30054,-18.27772c3.92512,12.10667 -6.13684,24.16222 -22.47403,26.92679c-16.33718,2.76458 -32.16367,-5.8845 -15.8265,-8.64909z" fill="#ef8b89" stroke-width="0"/></g><g stroke="#000000" stroke-linecap="butt"><path d="M350.73551,354.9415l-67.94027,-64.09858l27.45809,-15.19058l67.94028,64.09858z" fill="#73fffc" stroke-width="2"/><path d="M349.99167,354.69364l-65.62952,-63.76657c0,0 53.40454,43.13474 61.21362,48.86211c1.72635,1.26614 4.33738,0.5774 4.33738,0.5774l26.69078,-0.74607z" fill="#59a9e6" stroke-width="0"/></g><g stroke="#000000" stroke-linecap="butt"><path d="M238.7501,331.66274l42.32224,-74.7193l32.00771,9.46271l-42.32224,74.7193z" fill="#73fffc" stroke-width="2"/><path d="M238.671,331.07369l43.09138,-73.11041c0,0 -24.60322,55.07517 -27.50769,62.83588c-0.64208,1.71565 1.49839,2.99678 1.49839,2.99678l14.35852,16.2721z" fill="#59a9e6" stroke-width="0"/></g><g stroke="#000000" stroke-linecap="butt"><path d="M336.73016,254.66211c0,11.69357 11.78218,31.1292 5.80465,39.36044c-7.3101,10.06626 -33.55251,7.7059 -45.66286,7.7059c-16.02184,0 -38.63205,3.53295 -44.96462,-12.56572c-2.368,-6.01997 5.10642,-27.42591 5.10642,-34.50062c0,-25.99402 17.84512,-47.06635 39.8582,-47.06635c22.01308,0 39.8582,21.07231 39.8582,47.06635z" fill="#0d69be" stroke-width="2"/><path d="M276.61558,267.85852c0,11.69357 72.75388,17.40889 66.77634,25.64012c-7.3101,10.06625 -33.55251,7.7059 -45.66286,7.7059c-16.02184,0 -38.63204,3.53295 -44.96461,-12.56572c-2.36801,-6.01997 5.10642,-27.42592 5.10642,-34.50062c0,-8.00806 3.92669,-24.22806 6.4725,-25.38882c6.97016,-14.20249 12.27219,21.29842 12.27219,39.10915z" fill="#10157d" stroke-width="0"/></g><path d="M197.41542,338.13667c1.78202,-9.79642 17.45208,-6.78262 38.27657,-4.80544c16.66163,1.58193 33.79782,-6.00056 38.18161,-0.87064c1.09528,1.2817 -0.6898,10.87778 -1.04604,12.83611c-1.78202,9.79642 -20.10823,16.13517 -40.93274,14.15799c-20.8245,-1.97719 -36.26146,-11.52157 -34.47944,-21.31799z" data-paper-data="{&quot;index&quot;:null}" fill="#000082" stroke="#000000" stroke-width="2" stroke-linecap="butt"/><path d="M237.06643,333.94868c16.66163,1.58193 30.85523,-4.55266 35.626,-1.55005c1.19197,0.7502 -0.56808,10.20874 -0.76076,11.26802c-0.9639,5.29888 -15.66365,6.43033 -36.48815,4.45314c-20.8245,-1.97719 -36.3814,-6.77105 -35.4175,-12.06993c0.9639,-5.29888 16.21593,-4.07834 37.04041,-2.10116z" data-paper-data="{&quot;index&quot;:null}" fill="#2e0048" stroke="#000000" stroke-width="0" stroke-linecap="butt"/><g><g><path d="M232.03332,273.92852c-8.37146,-11.26032 -5.42282,-20.87841 9.6049,-27.37932c11.75331,-5.08445 32.18795,-0.903 40.55942,10.35735c8.37154,11.26037 4.38151,23.34845 -11.04928,29.33625c-2.41308,0.9364 -5.02477,1.28314 -7.406,1.61598c-12.8458,1.79534 -24.64668,-4.43078 -31.70903,-13.93022z" fill="#0000c4" stroke="#000000" stroke-width="2" stroke-linecap="butt"/><path d="M269.84665,249.3931c0,0 -6.17365,1.97129 -6.52333,3.64959c-3.35442,16.09874 3.34259,26.96804 5.93731,30.44087c0.58952,0.78904 1.90489,0.83247 1.90489,0.83247c0,0 -2.04845,1.00836 -5.14234,1.6383c-3.2922,0.67034 -7.74157,0.94803 -11.25143,0.3571c-4.00925,-0.67504 -12.63763,-3.99625 -12.63763,-3.99625l-14.85709,-14.13419c0,0 3.22857,-11.15517 4.57442,-12.71264c1.31847,-1.52583 3.48437,-3.0581 5.69651,-4.75427c3.43466,-2.63352 8.20357,-4.34231 11.52913,-4.76789c4.24417,-0.5431 9.6498,0.05738 13.88852,1.09389c3.94492,0.96467 6.88095,2.35303 6.88095,2.35303z" fill="#2e006f" stroke="none" stroke-width="0" stroke-linecap="butt"/><path d="M246.0288,260.90459c0,0 8.08116,-4.93325 14.12018,-5.13897c7.64477,-0.26044 22.42911,2.30247 22.42911,2.30247" fill="none" stroke="#000000" stroke-width="1" stroke-linecap="round"/><path d="M277.36751,282.25847c0,0 -8.05742,1.67693 -13.09343,1.82066c-5.08409,0.14514 -15.88228,-2.4467 -15.88228,-2.4467" fill="none" stroke="#000000" stroke-width="1" stroke-linecap="round"/><path d="M236.99937,254.28417c0,0 8.1905,-5.15343 14.7457,-5.16108c10.05876,-0.01172 23.40441,1.87796 23.40441,1.87796" fill="none" stroke="#000000" stroke-width="1" stroke-linecap="round"/><path d="M249.87178,245.27436c0,0 18.51168,6.00696 22.46032,20.4889c4.32523,15.86314 -13.67121,22.53225 -13.67121,22.53225" fill="none" stroke="#000000" stroke-width="1" stroke-linecap="round"/><path d="M239.41583,248.10982c0,0 17.37518,8.35769 20.89758,21.13142c2.8922,10.4884 -11.53926,17.13041 -11.53926,17.13041" fill="none" stroke="#000000" stroke-width="1" stroke-linecap="round"/><path d="M280.85188,269.91492c0.08106,-1.01749 1.05062,-1.80469 2.16552,-1.75833c1.11495,0.04632 1.08836,0.7206 1.00729,1.73809c-0.08106,1.01749 -0.18592,1.99282 -1.30084,1.94646c-1.11495,-0.04632 -1.95308,-0.90876 -1.87197,-1.9262z" fill="#8fbbbe" stroke="none" stroke-width="0" stroke-linecap="butt"/><path d="M279.20753,275.95874c-0.33373,-0.44893 0.15127,-1.10602 1.08332,-1.46771c0.93205,-0.36168 1.38173,-0.41639 1.71549,0.03253c0.33373,0.44893 -0.05052,1.24151 -0.98263,1.60318c-0.93205,0.36168 -1.48248,0.2809 -1.81619,-0.16802z" fill="#8fbbbe" stroke="none" stroke-width="0" stroke-linecap="butt"/><path d="M281.24259,264.06052c-0.39846,-0.70811 -0.19182,-1.43766 0.46158,-1.62956c0.65333,-0.19194 0.94355,0.4448 1.34202,1.15288c0.39846,0.70811 0.75437,1.21936 0.101,1.41129c-0.65333,0.19194 -1.50611,-0.22652 -1.90456,-0.9346z" fill="#8fbbbe" stroke="none" stroke-width="0" stroke-linecap="butt"/><path d="M265.29389,247.4941c0,0 8.80018,5.89164 12.6232,11.68682c2.16744,3.28557 2.50778,6.7219 2.72541,9.32922c0.19249,2.30578 -2.39569,7.55254 -4.95518,11.41954c-1.88438,2.84706 -3.93135,4.85544 -3.93135,4.85544" fill="none" stroke="#000000" stroke-width="0.5" stroke-linecap="round"/><path d="M286.66643,272.01707c0,0 -11.13963,3.93172 -17.45784,4.29831c-5.32323,0.30888 -17.77885,-1.97121 -17.77885,-1.97121" fill="none" stroke="#000000" stroke-width="1" stroke-linecap="round"/><path d="M249.9952,269.48967c0,0 10.23921,-3.51219 15.44825,-4.23036c9.14609,-1.26096 20.89953,1.12293 20.89953,1.12293" fill="none" stroke="#000000" stroke-width="1" stroke-linecap="round"/></g><g stroke="#000000" stroke-linecap="butt"><path d="M233.14012,248.65511c7.18783,27.76092 -0.52664,33.7381 -9.85326,34.99851c-9.32662,1.26041 -22.71425,-20.22251 -29.90207,-47.98344c-7.18783,-27.76093 65.56249,3.55846 74.8891,2.29805c7.67931,2.31135 2.53562,6.4058 -6.43967,7.91543c-11.06863,1.86172 -29.30847,0.39856 -28.69409,2.77146z" fill="#0d69be" stroke-width="2"/><path d="M252.47335,267.62807c3.08519,11.9157 -8.12827,23.42869 -25.04602,25.71496c-16.91774,2.28629 -33.13331,-5.51989 -36.21855,-17.43559c-3.08519,-11.9157 8.12829,-23.42868 25.04603,-25.71496c16.91774,-2.28629 33.13333,5.51988 36.21854,17.43559z" fill="#faddbf" stroke-width="2"/><path d="M204.15328,264.10004c3.08519,11.91569 40.46224,26.18117 23.5445,28.46744c-16.91774,2.28629 -33.13331,-5.51988 -36.21853,-17.43558c-3.08519,-11.9157 9.58881,-22.94757 12.67402,-11.03188z" fill="#ef8b89" stroke-width="0"/></g></g><g stroke="#000000" stroke-linecap="butt"><path d="M415.61313,338.215c1.59429,9.8133 -14.02398,19.20249 -34.88433,20.97138c-20.86036,1.76887 -39.06345,-4.75242 -40.65773,-14.56571c-0.31871,-1.96169 -1.91987,-11.57469 -0.80016,-12.84533c4.4816,-5.08562 21.47097,2.66741 38.1613,1.25213c20.86036,-1.76887 36.58662,-4.62578 38.1809,5.18752z" fill="#000082" stroke-width="2"/><path d="M413.04276,336.10231c0.86235,5.308 -14.78484,9.94596 -35.64521,11.71483c-20.86036,1.76887 -35.53705,0.49064 -36.3994,-4.81736c-0.17237,-1.06108 -1.75116,-10.53632 -0.54495,-11.27454c4.8278,-2.95465 18.90259,3.32122 35.59291,1.90593c20.86036,-1.76887 36.1343,-2.83687 36.99665,2.47113z" fill="#2e0048" stroke-width="0"/></g><g stroke-linecap="butt"><g stroke="#000000"><g><path d="M239.68695,195.68818c12.55901,-38.58852 66.03977,-62.51529 119.4526,-53.44194c53.41283,9.07335 86.53141,47.71094 73.9724,86.29946c-12.55901,38.58852 -66.03977,62.51529 -119.4526,53.44195c-53.41283,-9.07335 -86.53143,-47.71094 -73.97241,-86.29946z" fill="#faddbf" stroke-width="2"/><path d="M240.18375,195.01584c4.04068,-12.41533 20.89021,-32.1433 26.9001,-33.91966c0.68634,-0.20287 8.99693,-6.22629 19.38455,-10.3071c12.91108,-5.07218 28.3994,-8.36634 29.04371,-8.08539c8.40641,3.66557 -37.41454,50.08744 -42.78831,71.18439c-0.01282,0.0503 -0.25684,17.10264 1.47289,17.77845c2.02096,4.47067 5.25942,17.56259 15.76423,25.56111c19.57696,14.9062 50.58604,25.72075 48.75709,25.85019c-2.92567,0.20707 -17.64088,-0.58681 -24.56183,-1.7625c-53.41283,-9.07335 -86.53141,-47.71094 -73.9724,-86.29946z" fill="#ef8b89" stroke-width="0"/><path d="M432.63743,228.06633c-3.12006,9.58663 -5.99926,12.59298 -6.13243,10.95881c-0.13588,-1.66716 2.42095,-8.12953 -6.39037,-13.83475c-2.13517,-1.38249 -13.33522,3.19675 -16.11922,1.655c-1.74866,-0.96842 -7.14546,-10.06956 -9.14852,-10.99819c-1.4005,-0.64926 -16.46071,4.49478 -17.93737,3.85172c-3.68285,-1.60377 -10.63244,-11.70453 -14.73791,-12.97462c-2.26078,-0.69941 -13.77711,7.97248 -16.11648,7.35416c-3.01691,-0.7974 -8.25432,-11.9053 -11.37912,-12.43612c-8.31013,-1.41166 -10.4201,4.33141 -18.01131,8.26906c-4.93296,2.55879 -12.46491,-13.47647 -17.22125,-10.42449c-5.90683,3.79018 -11.71603,7.42441 -17.52344,9.57064c-4.55613,1.68382 -12.54543,-10.91841 -16.53108,-9.31721c-19.24379,7.73102 -30.90965,12.71551 -26.03218,-2.27087c9.80766,-30.13479 51.61847,1.62036 105.09113,-8.02647c51.18349,-9.23385 97.9972,8.48855 88.18954,38.62333z" fill="#ef8b89" stroke-width="0"/></g><path d="M436.61908,221.50976c-6.30312,19.36679 5.11684,8.45414 -12.85871,-2.93303c-2.19969,-1.39345 -13.64211,3.14461 -16.50811,1.58893c-1.80018,-0.97716 -7.40562,-10.11376 -9.46621,-11.05215c-1.44074,-0.65611 -16.83506,4.43117 -18.35379,3.78099c-3.78779,-1.62159 -10.9929,-11.76578 -15.21118,-13.05501c-2.32288,-0.70995 -14.05624,7.92508 -16.45901,7.296c-3.09869,-0.81129 -8.55708,-11.95674 -11.76418,-12.50154c-8.52902,-1.44885 -10.645,4.29318 -18.39373,8.2041c-5.0353,2.54141 -12.88551,-13.54793 -17.73579,-10.51191c-6.02346,3.77038 -11.94817,7.38498 -17.88308,9.50955c-4.65617,1.66682 -12.94729,-10.98667 -17.0194,-9.40016c-19.66133,7.66008 -31.57789,12.60198 -26.70043,-2.38438c9.80766,-30.13479 67.3142,-59.28301 119.74082,-50.37718c52.42661,8.90582 88.42051,51.70103 78.61285,81.83582z" fill="#873412" stroke-width="2"/><path d="M436.64841,220.50276c-6.30312,19.36679 5.11683,8.45414 -12.85872,-2.93303c-2.19969,-1.39345 -13.64211,3.14462 -16.50811,1.58893c-1.80018,-0.97716 -7.40562,-10.11376 -9.46622,-11.05215c-1.44074,-0.65611 -16.83506,4.43118 -18.35379,3.78099c-3.78779,-1.62159 -10.99291,-11.76578 -15.21118,-13.05501c-2.32288,-0.70995 -14.05624,7.92507 -16.45901,7.29599c-3.09869,-0.81129 -8.55708,-11.95674 -11.76418,-12.50154c-8.52902,-1.44885 -10.645,4.29318 -18.39372,8.20409c-5.0353,2.54141 -12.88551,-13.54792 -17.7358,-10.5119c-6.02346,3.77038 -11.94816,7.38498 -17.8831,9.50954c-4.65617,1.66682 -12.9473,-10.98667 -17.0194,-9.40016c-19.66133,7.66008 -31.57789,12.60199 -26.70042,-2.38438c9.80765,-30.13479 52.92007,1.84146 107.64909,-7.59194c52.38605,-9.02956 100.51224,8.91579 90.70458,39.05057z" fill="#741d23" stroke-width="0"/></g><path d="M357.93361,148.69585c0.04322,0.10796 0.06867,0.22846 0.07959,0.35812c0.03797,0.23198 0.02303,0.47241 -0.05186,0.71295c-0.18089,0.95822 -0.72587,2.06407 -0.80654,2.47862c-0.106,0.54466 1.55935,-0.38551 2.26926,-0.18682c0.43486,0.12169 0.69806,0.78143 1.10635,0.61865c2.47795,-0.98777 5.07578,-3.03566 7.78449,-1.16282c0.89707,0.62023 0.26451,1.69039 0.72531,2.36457c0.03873,0.05668 3.01514,0.3933 3.55202,0.9483c0.92508,0.95633 -0.24004,1.91902 0.09062,2.83911c0.1058,0.29442 0.77449,-0.25334 1.18836,-0.30917c1.8419,-0.2485 5.10151,-0.87972 6.83378,0.28635c0.91276,0.61441 0.27397,1.90859 0.73402,2.37131c0.80652,0.81122 2.57361,-0.75086 3.91879,-0.98135c1.86046,-0.31881 2.50263,0.4002 3.68524,1.3723c0.20397,0.16766 -0.56924,3.4994 0.37821,4.66791c0.53256,0.65683 2.11577,-0.38789 3.1454,-0.22626c1.02731,0.16129 3.2927,-0.08254 3.74647,0.08472c0.9102,0.33551 1.35362,1.65799 2.32966,1.43947c4.98335,-1.11554 10.20039,1.03153 7.00283,4.80514c-0.40466,0.47756 1.66304,-0.21698 2.32268,0.07699c0.25573,0.11396 1.53249,1.20181 1.81492,1.17496c1.84735,-0.17576 3.112,-0.58501 4.92938,-0.27965c1.50931,0.25359 2.75772,1.11305 2.73735,2.31103c-0.0107,0.62958 -1.70839,1.55755 -0.89094,1.77583c1.92686,0.51455 4.84375,1.64131 3.2811,3.58425c-1.69628,2.10907 -4.96456,3.63314 -7.3402,1.40982c-0.82424,-0.77139 -2.96391,0.57797 -4.04656,-0.00328c-1.38696,-0.74462 -1.53528,-2.76147 -1.13786,-3.71794c0.18371,-0.44216 -1.32556,0.1003 -1.91381,-0.08002c-0.792,-0.24277 -0.89036,-1.20898 -1.71075,-1.39622c-1.83502,-0.41877 -2.42775,2.43011 -6.65324,1.02779c-1.2472,-0.4139 -2.28667,-2.28656 -2.42522,-3.26562c-0.08041,-0.56833 2.36262,-1.90457 2.21053,-2.0223c-0.36928,-0.28586 -2.98007,1.95448 -3.505,1.98902c-1.26289,0.08307 -2.35004,-0.72968 -3.37307,-1.27107c-0.90384,-0.4783 -1.82382,1.33499 -2.927,1.19372c-0.97462,-0.12481 -10.54765,-2.21167 -10.79543,-2.69151c-0.30209,-0.585 -0.47484,-1.57844 -0.10432,-2.13314c0.13317,-0.19936 1.60816,-1.32924 1.39549,-1.34784c-0.75477,-0.06599 -5.70412,2.02461 -7.30712,-1.07975c-0.8717,-1.68811 2.0757,-2.77916 2.51532,-4.11795c0.27149,-0.82677 -1.71554,1.16669 -2.48949,1.80653c-0.59444,0.49144 -1.98844,0.79822 -2.87921,0.66865c-3.07989,-0.44802 -1.54794,-2.41676 -1.78308,-3.77468c-0.10852,-0.62667 -1.96082,0.18488 -2.6004,-0.24565c-1.56376,-1.05263 -0.98228,-1.96732 -0.72824,-3.25763c0.11633,-0.5908 -1.35512,2.13279 -3.27719,1.95123c-0.77949,-0.07364 -1.71313,-1.1155 -2.17627,-0.65655c-2.25468,2.23437 -1.77509,3.37071 -5.97926,2.23786c-0.40569,-0.10931 -1.32966,0.4666 -1.71795,0.20521c-4.2976,-2.89294 1.14676,-6.7079 2.36187,-9.98973c0.42863,-1.15764 -0.06074,-3.08037 1.52955,-3.42098c0.6942,-0.52335 1.7425,-0.77547 2.78992,-0.59755c0.92871,0.15776 1.6495,0.61842 2.00914,1.20321c0.06439,0.07794 0.11624,0.16141 0.15245,0.25187z" fill="#ba587e" stroke="none" stroke-width="0.5"/></g><g stroke="#000000" stroke-linecap="butt"><path d="M342.66046,236.03517c-7.66546,23.55264 -26.65118,33.14745 -45.56457,29.93461c-18.9134,-3.21286 -30.59235,-18.01676 -22.9269,-41.56942c7.66546,-23.55264 29.21185,-40.04131 48.12524,-36.82845c18.9134,3.21286 28.03168,24.9106 20.36624,48.46324z" fill="#a100fe" stroke-width="2"/><path d="M294.79865,210.81894c-9.77051,17.56223 20.93504,43.57374 20.71755,52.28804c-0.06053,2.42504 -13.09902,3.00084 -17.21648,2.30139c-18.9134,-3.21286 -30.59236,-18.01675 -22.92691,-41.56941c7.66546,-23.55264 37.48192,-45.47537 19.42586,-13.02005z" fill="#99008e" stroke-width="0"/></g><g data-paper-data="{&quot;index&quot;:null}" stroke="#000000" stroke-linecap="butt"><path d="M393.94534,201.60981c18.9134,3.21286 28.03168,24.91061 20.36624,48.46325c-7.66545,23.55264 -27.25197,33.04541 -46.16536,29.83254c-18.9134,-3.21286 -29.99155,-17.91467 -22.32611,-41.46734c7.66546,-23.55264 29.21184,-40.04132 48.12524,-36.82846z" fill="#a100fe" stroke-width="2"/><path d="M413.80839,249.26499c-7.66545,23.55264 -27.25197,33.04541 -46.16536,29.83254c-5.14079,-0.87327 -19.75044,-7.80566 -16.71459,-10.94921c8.13333,-8.42188 51.57886,-19.23049 53.52054,-36.79317c3.85488,-34.86772 17.02487,-5.64279 9.35941,17.90985z" fill="#99008e" stroke-width="0"/></g><path d="M261.70688,239.76984c-3.6737,3.3961 -9.02066,4.81172 -11.94275,3.16189c-2.9221,-1.64985 -2.3128,-5.74039 1.36092,-9.13649c3.6737,-3.3961 9.02066,-4.81172 11.94275,-3.16189c2.9221,1.64985 2.3128,5.74039 -1.36092,9.13649z" fill="#000000" stroke="none" stroke-width="0" stroke-linecap="butt"/></g></g></svg>