<svg version="1.1" xmlns="http://www.w3.org/2000/svg" xmlns:xlink="http://www.w3.org/1999/xlink" width="193.42855" height="330.16006" viewBox="0,0,193.42855,330.16006"><g transform="translate(-213.7321,-0.41805)"><g data-paper-data="{&quot;isPaintingLayer&quot;:true}" fill-rule="nonzero" stroke-linecap="butt" stroke-linejoin="miter" stroke-miterlimit="10" stroke-dasharray="" stroke-dashoffset="0" style="mix-blend-mode: normal"><g data-paper-data="{&quot;index&quot;:null}" stroke="#000000"><path d="M288.35781,221.42135l22.30609,-42.85285l46.61588,23.08825l-22.30609,42.85285z" fill="#ffcaa0" stroke-width="2"/><g><path d="M310.42751,178.6536l30.75765,-59.0894l47.22347,23.38918l-30.75765,59.0894z" fill="#0000c0" stroke-width="2"/><path d="M311.00859,179.17971l16.10995,-30.94928c0,0 7.43407,19.85223 15.27377,23.73514c7.43321,3.68158 30.60993,-1.00953 30.60993,-1.00953l-16.10995,30.94929c0,0 -15.09161,-7.47468 -22.69779,-11.24192c-7.68753,-3.80753 -23.18591,-11.48368 -23.18591,-11.48368z" fill="#56006b" stroke-width="0"/></g><path d="M289.33321,221.29397l22.30609,-42.85285l-3.15953,34.96787l27.46932,30.97323z" fill="#ff6e5b" stroke-width="0"/></g><g data-paper-data="{&quot;index&quot;:null}" stroke="#000000"><path d="M406.16065,71.25508c0,32.20527 -12.18312,58.3128 -27.21177,58.3128c-15.02865,0 -27.21177,-26.10753 -27.21177,-58.3128c0,-32.20527 12.18312,-58.3128 27.21177,-58.3128c15.02865,0 27.21177,26.10753 27.21177,58.3128z" fill="#01930e" stroke-width="2"/><path d="M361.14826,61.20661c0,32.20527 33.24124,67.9271 18.2126,67.9271c-15.02864,0 -27.21177,-26.10753 -27.21177,-58.3128c0,-32.20527 8.99917,-41.81957 8.99917,-9.6143z" fill="#31525b" stroke-width="0"/></g><g data-paper-data="{&quot;index&quot;:null}" stroke="#000000"><path d="M296.1637,329.13374v-90.27109h62.71849v90.27109z" fill="#273750" stroke-width="2"/><path d="M296.97085,328.37717v-90.27109l18.89079,49.31565l43.82769,40.95544z" fill="#1f1e2e" stroke-width="0"/></g><path d="M242.87084,238.45137v-113.80147h116.66516v113.80147z" data-paper-data="{&quot;index&quot;:null}" fill="#0000c0" stroke="#000000" stroke-width="2"/><g data-paper-data="{&quot;index&quot;:null}" stroke="#000000"><path d="M242.23398,329.57811v-90.27109h62.71849v90.27109z" fill="#273750" stroke-width="2"/><path d="M243.04117,328.82151v-90.27109l18.89079,49.31565l43.82769,40.95544z" fill="#1f1e2e" stroke-width="0"/></g><g data-paper-data="{&quot;index&quot;:null}" stroke="#000000"><path d="M270.44066,237.98215v-111.68333h62.71849v111.68333z" fill="#ffffff" stroke-width="2"/><path d="M271.24785,237.04612v-111.68333l18.89079,61.01328l43.82769,50.67005z" fill="#8ebbfc" stroke-width="0"/></g><g data-paper-data="{&quot;index&quot;:null}" stroke="#000000"><path d="M224.26756,69.68582c0,-1.37646 0.90928,-27.38008 1.01401,-28.73546c2.64639,-34.24932 37.37771,-36.73529 80.89019,-36.73529c40.87312,0 76.18039,4.54212 82.33364,35.83276c0.65658,3.33883 -0.42944,26.15173 -0.42944,29.63798c0,12.46114 3.06475,39.84953 -4.49521,49.76492c-14.37677,18.8561 -47.76349,15.70582 -77.40899,15.70582c-31.34476,0 -60.5747,0.98125 -74.34323,-19.6932c-6.1012,-9.1614 -7.56097,-34.67471 -7.56097,-45.77754z" fill="#ffcaa0" stroke-width="2"/><path d="M222.38807,69.69601c0,-1.37646 0.90928,-27.38008 1.01401,-28.73546c1.50356,-19.45883 7.03623,60.55627 56.02547,82.48122c38.39132,17.1819 105.98233,-8.07612 102.94286,-4.08965c-14.37677,18.8561 -48.43265,15.81461 -78.07813,15.81461c-31.34476,0 -60.5747,0.98125 -74.34323,-19.6932c-6.1012,-9.1614 -7.56097,-34.67471 -7.56097,-45.77754z" fill="#ff6e5b" stroke-width="0"/></g><g data-paper-data="{&quot;index&quot;:null}" stroke="#000000"><path d="M270.76117,69.18117c0,32.20527 -12.18312,58.3128 -27.21177,58.3128c-15.02865,0 -27.21177,-26.10753 -27.21177,-58.3128c0,-32.20527 12.18312,-58.3128 27.21177,-58.3128c15.02865,0 27.21177,26.10753 27.21177,58.3128z" fill="#01930e" stroke-width="2"/><path d="M225.74878,59.1327c0,32.20527 33.24124,67.9271 18.2126,67.9271c-15.02864,0 -27.21177,-26.10753 -27.21177,-58.3128c0,-32.20527 8.99917,-41.81957 8.99917,-9.6143z" fill="#31525b" stroke-width="0"/></g><g data-paper-data="{&quot;index&quot;:null}"><path d="M404.89162,32.39603c0,17.66096 -42.40111,31.97799 -94.70552,31.97799c-52.30442,0 -94.70551,-14.31704 -94.70551,-31.97799c0,-17.66096 42.4011,-31.97798 94.70551,-31.97798c52.30442,0 94.70552,14.31703 94.70552,31.97799z" fill="#000000" stroke="none" stroke-width="NaN"/><path d="M404.14314,32.74032c0,17.66096 -42.40111,31.97799 -94.70552,31.97799c-52.30442,0 -94.70551,-14.31704 -94.70551,-31.97799c0,-17.66096 43.86968,8.849 96.17409,8.849c52.30442,0 93.23695,-26.50996 93.23695,-8.849z" fill="#ff0000" stroke="#000000" stroke-width="2"/><path d="M398.6218,41.93727c0,4.86014 -37.2611,23.48345 -89.56552,22.05092c-18.30339,-0.5013 -35.56972,-2.13318 -49.64809,-5.08703c-26.13663,-5.48385 -42.18207,-14.06638 -39.79593,-18.15612c2.46446,-4.22396 38.60819,16.87826 90.9126,16.87826c52.30442,0 88.09694,-20.54617 88.09694,-15.68603z" fill="#900056" stroke="#000000" stroke-width="0"/></g><path d="M332.67633,94.46492c0,15.71752 -2.97817,28.45909 -6.65195,28.45909c-3.67378,0 -6.65195,-12.74157 -6.65195,-28.45908c0,-15.71752 2.97818,-28.45908 6.65195,-28.45908c3.67378,0 6.65195,12.74157 6.65195,28.45909z" data-paper-data="{&quot;index&quot;:null}" fill="#000000" stroke="none" stroke-width="0"/><path d="M359.07391,90.1433c0,15.65465 -2.82144,28.34525 -6.30185,28.34525c-3.48042,0 -6.30185,-12.6906 -6.30185,-28.34525c0,-15.65465 2.82144,-28.34525 6.30185,-28.34525c3.48042,0 6.30185,12.6906 6.30185,28.34525z" data-paper-data="{&quot;index&quot;:null}" fill="#000000" stroke="none" stroke-width="0"/><g data-paper-data="{&quot;index&quot;:null}" stroke="#000000"><path d="M319.14246,224.56044l-43.69376,-22.20881l24.15903,-45.22588l43.69376,22.20881z" fill="#ffcaa0" stroke-width="2"/><g><path d="M275.53345,202.58311l-60.24892,-30.62352l24.47392,-45.81535l60.24892,30.62352z" fill="#0000c0" stroke-width="2"/><path d="M276.07888,202.02187l-31.5566,-16.03969c0,0 20.42898,-7.04204 24.49197,-14.64798c3.85232,-7.21157 -0.7124,-29.86755 -0.7124,-29.86755l31.55661,16.0397c0,0 -7.82134,14.64161 -11.7633,22.02098c-3.98412,7.4583 -12.01627,22.49455 -12.01627,22.49455z" fill="#56006b" stroke-width="0"/></g><path d="M319.02217,223.60771l-43.69376,-22.20881l35.81252,3.4502l32.04027,-26.46726z" fill="#ff6e5b" stroke-width="0"/></g><path d="M294.49868,105.56701c-0.42251,0.74287 -0.61146,1.61414 -0.12794,2.46367c0.34994,0.61483 1.98889,1.80442 2.37391,2.17481c1.56671,1.5072 4.28099,4.10104 4.87479,6.30059c0.74791,2.77038 -1.35575,5.56041 -3.98538,6.08806c-0.55104,0.11057 -3.53939,-0.07776 -3.77302,-0.12557c-2.11813,-0.43349 -4.3984,-1.47862 -6.384,-2.3123c-5.18544,-4.57151 -5.99287,-16.41127 0.65102,-20.26445c3.90327,-2.26373 8.24653,-0.46054 7.05616,4.40039l-0.28367,0.73113c0,0 -0.12336,0.3084 -0.40187,0.54365z" fill="#000000" stroke="none" stroke-width="0.5"/></g></g></svg>