<svg version="1.1" xmlns="http://www.w3.org/2000/svg" xmlns:xlink="http://www.w3.org/1999/xlink" width="315.31211" height="340.27153" viewBox="0,0,315.31211,340.27153"><g transform="translate(-138.67591,9.69342)"><g data-paper-data="{&quot;isPaintingLayer&quot;:true}" fill-rule="nonzero" stroke-linecap="butt" stroke-linejoin="miter" stroke-miterlimit="10" stroke-dasharray="" stroke-dashoffset="0" style="mix-blend-mode: normal"><g data-paper-data="{&quot;index&quot;:null}" stroke="#000000"><path d="M452.58846,67.66554l-29.40596,42.57418l-45.84895,-30.68046l29.40596,-42.57417z" fill="#ffcaa0" stroke-width="2"/><g><path d="M423.44298,110.18054l-40.54767,58.70512l-46.44656,-31.08034l40.54767,-58.70512z" fill="#0000c0" stroke-width="2"/><path d="M422.90446,109.54498l-21.23766,30.74802c0,0 -5.07172,-22.06927 -12.78243,-27.22905c-7.31091,-4.89222 -32.3464,-2.96955 -32.3464,-2.96955l21.23766,-30.74803c0,0 14.84334,9.9326 22.32437,14.93867c7.56106,5.05959 22.80447,15.25992 22.80447,15.25992z" fill="#56006b" stroke-width="0"/></g><path d="M451.54455,67.67206l-29.40596,42.57418l8.16843,-36.7267l-24.61142,-36.52789z" fill="#ff6e5b" stroke-width="0"/></g><g data-paper-data="{&quot;index&quot;:null}" stroke="#000000"><path d="M297.72618,329.13108v-90.81041h70.82065v90.81041z" fill="#273750" stroke-width="2"/><path d="M298.63761,328.37v-90.81041l21.33115,49.61028l49.48949,41.20012z" fill="#1f1e2e" stroke-width="0"/></g><path d="M237.54879,237.90696v-114.48138h131.73633v114.48138z" data-paper-data="{&quot;index&quot;:null}" fill="#0000c0" stroke="#000000" stroke-width="2"/><g data-paper-data="{&quot;index&quot;:null}" stroke="#000000"><path d="M236.82965,329.57811v-90.81041h70.82065v90.81041z" fill="#273750" stroke-width="2"/><path d="M237.74112,328.81698v-90.81041l21.33115,49.61028l49.48949,41.20012z" fill="#1f1e2e" stroke-width="0"/></g><g data-paper-data="{&quot;index&quot;:null}" stroke="#000000"><path d="M140.1719,194.49203l38.15234,-33.49129l41.61362,38.2802l-38.15234,33.49129z" fill="#ffcaa0" stroke-width="2"/><g><path d="M178.0448,161.00096l52.60786,-46.18081l42.15599,38.77916l-52.60786,46.18081z" fill="#0000c0" stroke-width="2"/><path d="M178.48287,161.70719l27.55446,-24.18814c0,0 1.16436,21.64734 8.16279,28.08517c6.63556,6.10404 32.79719,9.59375 32.79719,9.59375l-27.55446,24.18815c0,0 -13.47217,-12.39297 -20.26213,-18.63905c-6.86258,-6.31285 -20.69786,-19.03989 -20.69786,-19.03989z" fill="#56006b" stroke-width="0"/></g><path d="M141.24919,194.70622l38.15234,-33.49129l-15.18307,32.52019l18.64433,39.25127z" fill="#ff6e5b" stroke-width="0"/></g><g data-paper-data="{&quot;index&quot;:null}" stroke="#000000"><path d="M268.68016,237.43491v-112.35055h70.82065v112.35055z" fill="#ffffff" stroke-width="2"/><path d="M269.59163,236.49329v-112.35055l21.33115,61.37779l49.48949,50.97277z" fill="#8ebbfc" stroke-width="0"/></g><g><g data-paper-data="{&quot;index&quot;:null}" stroke="#000000"><path d="M408.03776,46.64279c5.69057,32.0844 -3.14391,60.59548 -19.73242,63.68123c-16.5885,3.08576 -34.64922,-20.42228 -40.33981,-52.50668c-5.69057,-32.0844 3.14391,-60.59548 19.73242,-63.68123c16.5885,-3.08576 34.64922,20.42228 40.3398,52.50668z" fill="#01930e" stroke-width="2"/><path d="M356.57792,45.87427c5.69057,32.0844 48.69392,60.84689 32.10543,63.93266c-16.58848,3.08576 -34.64922,-20.42228 -40.3398,-52.50668c-5.69057,-32.0844 2.5438,-43.51039 8.23438,-11.42597z" fill="#31525b" stroke-width="0"/></g><g data-paper-data="{&quot;index&quot;:null}" stroke="#000000"><path d="M206.98848,82.42677c-0.24322,-1.3713 -3.83433,-27.46403 -3.95822,-28.83582c-3.1307,-34.66416 34.76618,-44.27201 82.79487,-53.20625c45.11539,-8.39231 84.88983,-11.11671 97.21069,18.79305c1.31466,3.19148 4.14693,26.14177 4.76295,29.61493c2.20184,12.41437 10.42414,39.07071 3.83153,50.50114c-12.53713,21.73726 -49.94573,25.45396 -82.66821,31.54095c-34.59807,6.43588 -66.68844,13.41513 -85.53914,-4.35473c-8.35321,-7.87428 -14.47268,-32.99212 -16.43451,-44.05329z" fill="#ffcaa0" stroke-width="2"/><path d="M204.91575,82.82285c-0.24322,-1.3713 -3.83433,-27.46403 -3.95822,-28.83582c-1.77871,-19.69452 18.46665,58.88431 76.41463,70.6682c45.41198,9.23468 115.55533,-29.80673 112.90478,-25.21114c-12.53713,21.73726 -50.66513,25.69975 -83.38753,31.78673c-34.59807,6.43588 -66.68843,13.41513 -85.53913,-4.35473c-8.35321,-7.87428 -14.47268,-32.99212 -16.43451,-44.05329z" fill="#ff6e5b" stroke-width="0"/></g><g data-paper-data="{&quot;index&quot;:null}" stroke="#000000"><path d="M258.21858,72.37768c5.69057,32.0844 -3.14391,60.59548 -19.73242,63.68123c-16.5885,3.08576 -34.64923,-20.42228 -40.33981,-52.50668c-5.69056,-32.0844 3.14392,-60.59548 19.73243,-63.68123c16.5885,-3.08576 34.64922,20.42228 40.33981,52.50668z" fill="#01930e" stroke-width="2"/><path d="M206.75873,71.60912c5.69056,32.08441 48.69392,60.84689 32.10543,63.93266c-16.58848,3.08577 -34.64922,-20.42228 -40.33981,-52.50668c-5.69056,-32.0844 2.5438,-43.51039 8.23438,-11.42597z" fill="#31525b" stroke-width="0"/></g><g data-paper-data="{&quot;index&quot;:null}"><path d="M399.77073,8.19013c3.12064,17.59468 -41.15154,40.56403 -98.88469,51.30347c-57.73316,10.73943 -107.06488,5.18218 -110.18552,-12.41249c-3.12064,-17.59468 41.15153,-40.56401 98.88469,-51.30345c57.73316,-10.73943 107.06488,-5.1822 110.18552,12.41248z" fill="#000000" stroke="none" stroke-width="NaN"/><path d="M399.00539,8.68682c3.12064,17.59468 -41.15155,40.56403 -98.88469,51.30347c-57.73316,10.73943 -107.06488,5.18219 -110.18551,-12.41248c-3.12064,-17.59468 49.98652,-0.1918 107.71971,-10.93124c57.73316,-10.73943 98.22987,-45.55441 101.35051,-27.95975z" fill="#ff0000" stroke="#000000" stroke-width="2"/><path d="M394.53607,18.98293c0.85876,4.8419 -36.97901,31.04598 -94.96528,40.35827c-20.29169,3.25875 -39.63847,5.17823 -55.69998,5.12609c-29.81836,-0.09672 -49.04569,-5.35252 -47.13452,-9.91685c1.97388,-4.71413 45.59773,8.88766 103.33086,-1.8518c57.73316,-10.73943 93.61017,-38.55764 94.46895,-33.71572z" fill="#900056" stroke="#000000" stroke-width="0"/></g><path d="M331.02751,84.85377c2.77724,15.65852 1.74137,28.96378 -2.31373,29.71811c-4.05507,0.75431 -9.59376,-11.32792 -12.37101,-26.98646c-2.77724,-15.65852 -1.74133,-28.96376 2.31374,-29.7181c4.05507,-0.75432 9.59376,11.32792 12.37101,26.98647z" data-paper-data="{&quot;index&quot;:null}" fill="#000000" stroke="none" stroke-width="0"/><path d="M359.40132,75.12826c2.76612,15.5959 1.89426,28.81819 -1.9474,29.53281c-3.84166,0.71464 -9.19831,-11.34904 -11.96444,-26.94494c-2.76612,-15.5959 -1.89426,-28.8182 1.9474,-29.53281c3.84166,-0.71464 9.19831,11.34904 11.96444,26.94495z" data-paper-data="{&quot;index&quot;:null}" fill="#000000" stroke="none" stroke-width="0"/></g><path d="M298.9508,101.36612c-0.15041,0.14479 -0.28251,0.22226 -0.28251,0.22226c-6.57911,3.76158 2.03896,7.90425 3.33172,12.08154c1.51556,4.89725 -2.64895,8.05562 -7.6987,7.51831c-2.76236,-0.29392 -3.30954,-0.84261 -5.51728,-2.04108c-6.0603,-4.41096 -9.52673,-10.70666 -9.52281,-17.98515c0.0017,-3.134 0.60537,-6.64616 3.72044,-8.55349c2.11478,-1.29487 4.45523,-0.96961 6.80611,-0.96264c2.30882,0.00684 4.08143,0.46067 6.23114,1.22271c3.43209,1.93104 6.70733,4.52983 3.76684,8.25629z" fill="#000000" stroke="none" stroke-width="0.5"/></g></g></svg>