<svg version="1.1" xmlns="http://www.w3.org/2000/svg" xmlns:xlink="http://www.w3.org/1999/xlink" width="291.15756" height="327.72304" viewBox="0,0,291.15756,327.72304"><g transform="translate(-151.7605,-2.85507)"><g data-paper-data="{&quot;isPaintingLayer&quot;:true}" fill-rule="nonzero" stroke-linecap="butt" stroke-linejoin="miter" stroke-miterlimit="10" stroke-dasharray="" stroke-dashoffset="0" style="mix-blend-mode: normal"><g data-paper-data="{&quot;index&quot;:null}" stroke="#000000"><path d="M441.54578,77.35279l-27.13822,40.9995l-42.31315,-29.54569l27.13822,-40.99949z" fill="#ffcaa0" stroke-width="2"/><g><path d="M414.64796,118.29531l-37.42069,56.53382l-42.86466,-29.93079l37.42069,-56.53382z" fill="#0000c0" stroke-width="2"/><path d="M414.15097,117.68325l-19.59984,29.61075c0,0 -4.6806,-21.253 -11.79667,-26.22194c-6.74711,-4.71127 -29.8519,-2.85971 -29.8519,-2.85971l19.59984,-29.61076c0,0 13.69864,9.56523 20.60275,14.38614c6.97796,4.87245 21.04583,14.69551 21.04583,14.69551z" fill="#56006b" stroke-width="0"/></g><path d="M440.58237,77.35906l-27.13822,40.9995l7.53849,-35.36831l-22.71342,-35.17685z" fill="#ff6e5b" stroke-width="0"/></g><g data-paper-data="{&quot;index&quot;:null}" stroke="#000000"><path d="M298.62626,329.14761v-87.45164h65.35907v87.45164z" fill="#273750" stroke-width="2"/><path d="M299.4674,328.41468v-87.45164l19.68613,47.77537l45.67293,39.67627z" fill="#1f1e2e" stroke-width="0"/></g><path d="M243.08966,241.29756v-110.24711h121.57701v110.24711z" data-paper-data="{&quot;index&quot;:null}" fill="#0000c0" stroke="#000000" stroke-width="2"/><g data-paper-data="{&quot;index&quot;:null}" stroke="#000000"><path d="M242.42598,329.57811v-87.45164h65.35907v87.45164z" fill="#273750" stroke-width="2"/><path d="M243.26716,328.84513v-87.45164l19.68613,47.77537l45.67293,39.67627z" fill="#1f1e2e" stroke-width="0"/></g><g data-paper-data="{&quot;index&quot;:null}" stroke="#000000"><path d="M153.22234,199.4884l35.21008,-32.25256l38.40444,36.86434l-35.21008,32.25256z" fill="#ffcaa0" stroke-width="2"/><g><path d="M188.17453,167.23605l48.55082,-44.47274l38.90499,37.34485l-48.55082,44.47274z" fill="#0000c0" stroke-width="2"/><path d="M188.57882,167.91616l25.4295,-23.2935c0,0 1.07456,20.84668 7.53329,27.0464c6.12384,5.87827 30.26791,9.23891 30.26791,9.23891l-25.4295,23.29351c0,0 -12.43321,-11.9346 -18.69955,-17.94966c-6.33334,-6.07936 -19.10168,-18.33567 -19.10168,-18.33567z" fill="#56006b" stroke-width="0"/></g><path d="M154.21655,199.69467l35.21008,-32.25256l-14.01217,31.31738l17.20651,37.7995z" fill="#ff6e5b" stroke-width="0"/></g><g data-paper-data="{&quot;index&quot;:null}" stroke="#000000"><path d="M271.82022,240.84297v-108.19509h65.35907v108.19509z" fill="#ffffff" stroke-width="2"/><path d="M272.6614,239.93618v-108.19509l19.68613,59.10763l45.67293,49.08746z" fill="#8ebbfc" stroke-width="0"/></g><g><g data-paper-data="{&quot;index&quot;:null}" stroke="#000000"><path d="M400.43076,57.1076c5.25173,30.89771 -2.90145,58.35426 -18.21068,61.32588c-15.30922,2.97163 -31.97712,-19.66693 -37.22887,-50.56464c-5.25173,-30.89771 2.90145,-58.35426 18.21068,-61.32588c15.30922,-2.97163 31.97712,19.66693 37.22886,50.56464z" fill="#01930e" stroke-width="2"/><path d="M352.93944,56.3675c5.25173,30.89771 44.93872,58.59637 29.62951,61.56801c-15.3092,2.97163 -31.97712,-19.66693 -37.22886,-50.56464c-5.25173,-30.89771 2.34762,-41.90109 7.59936,-11.00336z" fill="#31525b" stroke-width="0"/></g><g data-paper-data="{&quot;index&quot;:null}" stroke="#000000"><path d="M214.88612,91.56805c-0.22446,-1.32058 -3.53863,-26.44823 -3.65296,-27.76928c-2.88926,-33.38205 32.08506,-42.63454 76.40985,-51.23834c41.63615,-8.0819 78.34325,-10.70555 89.71395,18.09796c1.21328,3.07344 3.82713,25.17488 4.39563,28.51957c2.03204,11.95521 9.62024,37.62562 3.53605,48.63328c-11.57029,20.93328 -46.09399,24.51251 -76.29295,30.37436c-31.92991,6.19784 -61.54552,12.91895 -78.94248,-4.19366c-7.70903,-7.58303 -13.35656,-31.77185 -15.16711,-42.42391z" fill="#ffcaa0" stroke-width="2"/><path d="M212.97323,91.94948c-0.22446,-1.32058 -3.53863,-26.44823 -3.65296,-27.76928c-1.64153,-18.96609 17.04253,56.70638 70.52165,68.05443c41.90988,8.89312 106.64387,-28.70428 104.19772,-24.27866c-11.57029,20.93328 -46.75791,24.7492 -76.95681,30.61105c-31.92991,6.19784 -61.54551,12.91895 -78.94247,-4.19366c-7.70903,-7.58303 -13.35656,-31.77185 -15.16711,-42.42391z" fill="#ff6e5b" stroke-width="0"/></g><g data-paper-data="{&quot;index&quot;:null}" stroke="#000000"><path d="M262.16542,81.89064c5.25173,30.89771 -2.90145,58.35426 -18.21068,61.32588c-15.30922,2.97163 -31.97713,-19.66693 -37.22887,-50.56464c-5.25172,-30.89771 2.90146,-58.35426 18.21069,-61.32588c15.30922,-2.97163 31.97712,19.66693 37.22887,50.56464z" fill="#01930e" stroke-width="2"/><path d="M214.67409,81.15051c5.25172,30.89772 44.93872,58.59637 29.62951,61.56801c-15.3092,2.97164 -31.97712,-19.66693 -37.22887,-50.56464c-5.25172,-30.89771 2.34762,-41.90109 7.59936,-11.00336z" fill="#31525b" stroke-width="0"/></g><g data-paper-data="{&quot;index&quot;:null}"><path d="M392.80128,20.07717c2.87998,16.94391 -37.978,39.06371 -91.25885,49.40593c-53.28086,10.34222 -98.8082,4.9905 -101.68818,-11.9534c-2.87998,-16.94391 37.97799,-39.06369 91.25885,-49.40591c53.28086,-10.34222 98.8082,-4.99052 101.68818,11.95339z" fill="#000000" stroke="none" stroke-width="NaN"/><path d="M392.09496,20.5555c2.87998,16.94391 -37.97801,39.06371 -91.25885,49.40593c-53.28086,10.34222 -98.8082,4.99051 -101.68817,-11.95339c-2.87998,-16.94391 46.13164,-0.18471 99.41253,-10.52693c53.28086,-10.34222 90.65453,-43.8695 93.53451,-26.92561z" fill="#ff0000" stroke="#000000" stroke-width="2"/><path d="M387.97031,30.47079c0.79254,4.66281 -34.12725,29.89769 -87.6417,38.86556c-18.72683,3.13822 -36.58161,4.98671 -51.40448,4.9365c-27.51882,-0.09315 -45.26335,-5.15455 -43.49958,-9.55006c1.82166,-4.53977 42.08129,8.55893 95.36214,-1.7833c53.28086,-10.34222 86.39109,-37.13153 87.18365,-32.46869z" fill="#900056" stroke="#000000" stroke-width="0"/></g><path d="M329.35943,93.90529c2.56306,15.07936 1.60707,27.89251 -2.13529,28.61893c-3.74235,0.72641 -8.8539,-10.90894 -11.41697,-25.98832c-2.56306,-15.07936 -1.60705,-27.89249 2.1353,-28.61892c3.74235,-0.72642 8.8539,10.90894 11.41697,25.98833z" data-paper-data="{&quot;index&quot;:null}" fill="#000000" stroke="none" stroke-width="0"/><path d="M355.5451,84.53949c2.5528,15.01906 1.74818,27.7523 -1.79722,28.44049c-3.5454,0.68821 -8.48895,-10.92927 -11.04176,-25.94834c-2.5528,-15.01906 -1.74818,-27.75231 1.79722,-28.44049c3.5454,-0.68821 8.48895,10.92927 11.04176,25.94835z" data-paper-data="{&quot;index&quot;:null}" fill="#000000" stroke="none" stroke-width="0"/></g><path d="M299.75644,109.8069c-0.13881,0.13943 -0.26073,0.21404 -0.26073,0.21404c-6.07173,3.62245 1.88172,7.6119 3.07478,11.63468c1.39868,4.71612 -2.44467,7.75767 -7.10498,7.24024c-2.54934,-0.28305 -3.05432,-0.81145 -5.0918,-1.96558c-5.59294,-4.24782 -8.79205,-10.31066 -8.78843,-17.31994c0.00156,-3.01809 0.55869,-6.40034 3.43352,-8.23713c1.9517,-1.24698 4.11165,-0.93375 6.28123,-0.92703c2.13076,0.00659 3.76667,0.44363 5.7506,1.17748c3.16741,1.85961 6.19007,4.36229 3.47634,7.95092z" fill="#000000" stroke="none" stroke-width="0.5"/></g></g></svg>