<svg version="1.1" xmlns="http://www.w3.org/2000/svg" xmlns:xlink="http://www.w3.org/1999/xlink" width="193.24586" height="317.87094" viewBox="0,0,193.24586,317.87094"><g transform="translate(-210.34744,-42.54357)"><g data-paper-data="{&quot;isPaintingLayer&quot;:true}" fill-rule="nonzero" stroke-linejoin="miter" stroke-miterlimit="10" stroke-dasharray="" stroke-dashoffset="0" style="mix-blend-mode: normal"><g stroke="#000000" stroke-linecap="butt"><path d="M330.93312,223.38306c22.78599,23.86845 36.46979,47.61541 30.56361,53.04031c-5.90618,5.42489 -29.1658,-9.52657 -51.95179,-33.39502c-22.78599,-23.86845 -36.46979,-47.61541 -30.56361,-53.04031c5.90618,-5.42489 29.1658,9.52657 51.95179,33.39503z" fill="#0d69be" stroke-width="2"/><path d="M372.31234,247.65283c9.78032,10.24495 9.02397,26.52726 -1.68936,36.36758c-10.71333,9.84031 -27.32673,9.51231 -37.10705,-0.73265c-9.78033,-10.24496 -9.02397,-26.52726 1.68936,-36.36758c10.71333,-9.84032 27.32673,-9.5123 37.10705,0.73265z" fill="#faddbf" stroke-width="2"/><path d="M335.33005,265.93949c9.78033,10.24496 45.70854,7.36182 34.99521,17.20214c-10.71333,9.84031 -27.32672,9.51229 -37.10705,-0.73265c-9.78033,-10.24496 -7.66849,-26.71443 2.11184,-16.46948z" fill="#ef8b89" stroke-width="0"/></g><g stroke="#000000" stroke-linecap="butt"><path d="M347.17244,354.1646l-57.93711,-74.214l23.4153,-17.5878l57.93712,74.214z" fill="#73fffc" stroke-width="2"/><path d="M346.53812,353.87763l-55.96657,-73.82959c0,0 45.54153,49.94185 52.20084,56.57306c1.47217,1.46595 3.69876,0.66852 3.69876,0.66852l22.76097,-0.8638z" fill="#59a9e6" stroke-width="0"/></g><g stroke="#000000" stroke-linecap="butt"><path d="M251.67518,327.2122l36.09093,-86.51076l27.29506,10.95602l-36.09093,86.51077z" fill="#73fffc" stroke-width="2"/><path d="M251.60773,326.53021l36.74682,-84.64799c0,0 -20.98077,63.7666 -23.4576,72.75203c-0.54755,1.9864 1.27778,3.46971 1.27778,3.46971l12.24444,18.84001z" fill="#59a9e6" stroke-width="0"/></g><g stroke="#000000" stroke-linecap="butt"><path d="M335.22917,238.06011c0,13.53894 10.04743,36.04171 4.95001,45.57193c-6.2338,11.65481 -28.61241,8.92197 -38.9397,8.92197c-13.66287,0 -32.94407,4.09049 -38.34426,-14.54872c-2.01935,-6.96997 4.35457,-31.754 4.35457,-39.94518c0,-30.09615 15.2177,-54.4939 33.98969,-54.4939c18.77199,0 33.98969,24.39775 33.98969,54.4939z" fill="#0d69be" stroke-width="2"/><path d="M283.96554,253.33903c0,13.53894 62.04198,20.15617 56.94455,29.68639c-6.2338,11.6548 -28.61241,8.92197 -38.9397,8.92197c-13.66287,0 -32.94406,4.09049 -38.34425,-14.54871c-2.01936,-6.96997 4.35457,-31.75401 4.35457,-39.94518c0,-9.27181 3.34855,-28.05151 5.51953,-29.39544c5.94391,-16.44379 10.4653,24.65953 10.4653,45.28098z" fill="#10157d" stroke-width="0"/></g><g><g><path d="M265.46744,267.27741c-12.56011,-8.19889 -15.69246,-19.18304 -8.00576,-31.74548c6.01182,-9.82523 23.70738,-13.61038 36.26751,-5.41148c12.56019,8.1989 16.28323,22.11589 8.00794,34.31324c-1.29409,1.90744 -3.06554,3.29104 -4.67142,4.56958c-8.66311,6.89707 -21.00229,5.19089 -31.59826,-1.72585z" fill="#0000c4" stroke="#000000" stroke-width="2" stroke-linecap="butt"/><path d="M280.26019,227.31652c0,0 -3.54687,4.44666 -2.87631,6.29836c6.43205,17.76204 17.51524,26.22169 21.39862,28.74527c0.8823,0.57337 1.8958,0.09921 1.8958,0.09921c0,0 -0.9798,1.83721 -2.95643,3.70009c-2.1033,1.98229 -5.29536,4.01978 -8.26396,4.7999c-3.39099,0.89109 -11.72815,0.90075 -11.72815,0.90075l-19.03677,-8.57704c0,0 -3.77683,-12.66415 -3.63091,-14.78514c0.14293,-2.07787 0.91964,-4.49641 1.63995,-7.1005c1.11842,-4.04322 3.75476,-7.66807 6.01929,-9.41357c2.89009,-2.22763 7.28986,-3.74528 11.05452,-4.35769c3.50371,-0.56997 6.48429,-0.30954 6.48429,-0.30954z" fill="#2e006f" stroke="none" stroke-width="0" stroke-linecap="butt"/><path d="M268.74928,248.46068c0,0 3.33397,-8.22328 7.7617,-10.81389c5.60502,-3.27948 18.15048,-6.49015 18.15048,-6.49015" fill="none" stroke="#000000" stroke-width="1" stroke-linecap="round"/><path d="M304.19849,257.91341c0,0 -5.12746,4.88862 -8.83528,7.02055c-3.74318,2.15234 -13.30661,3.76216 -13.30661,3.76216" fill="none" stroke="#000000" stroke-width="1" stroke-linecap="round"/><path d="M258.27529,245.25935c0,0 3.29373,-8.49123 8.21988,-11.08305c7.55903,-3.97705 18.64791,-7.3081 18.64791,-7.3081" fill="none" stroke="#000000" stroke-width="1" stroke-linecap="round"/><path d="M262.94531,230.98448c0,0 17.26469,-1.16296 28.29029,12.06925c12.07715,14.4942 2.25114,28.39864 2.25114,28.39864" fill="none" stroke="#000000" stroke-width="1" stroke-linecap="round"/><path d="M256.65826,238.00166c0,0 17.71749,1.68556 27.47229,13.34139c8.00957,9.57051 0.84982,22.04197 0.84982,22.04197" fill="none" stroke="#000000" stroke-width="1" stroke-linecap="round"/><path d="M299.95302,243.93489c-0.50502,-1.07099 -0.21367,-2.25707 0.65068,-2.64921c0.86435,-0.39221 1.21944,0.30684 1.72445,1.37784c0.50502,1.07099 0.96869,2.10832 0.10433,2.50048c-0.86435,0.39221 -1.97448,-0.15813 -2.47944,-1.22909z" fill="#8fbbbe" stroke="none" stroke-width="0" stroke-linecap="butt"/><path d="M302.07817,250.75492c-0.50073,-0.32688 -0.50146,-1.18909 -0.00161,-1.92584c0.49985,-0.73676 0.80763,-0.96987 1.30837,-0.64302c0.50073,0.32688 0.65258,1.28773 0.15271,2.02447c-0.49985,0.73676 -0.95877,0.87123 -1.45949,0.54435z" fill="#8fbbbe" stroke="none" stroke-width="0" stroke-linecap="butt"/><path d="M296.99033,237.80244c-0.69358,-0.56605 -0.94397,-1.39249 -0.55929,-1.84604c0.38462,-0.45354 0.9571,0.08229 1.65068,0.64828c0.69358,0.56605 1.24566,0.94781 0.861,1.40137c-0.38462,0.45354 -1.25881,0.36239 -1.95236,-0.20363z" fill="#8fbbbe" stroke="none" stroke-width="0" stroke-linecap="butt"/><path d="M275.77956,227.17194c0,0 9.89619,2.54749 15.99522,6.95841c3.45783,2.50078 5.6253,5.87574 7.23933,8.45252c1.4274,2.27875 2.39927,8.6569 2.62523,13.61474c0.16638,3.65018 -0.25603,6.50801 -0.25603,6.50801" fill="none" stroke="#000000" stroke-width="0.5" stroke-linecap="round"/><path d="M305.49567,243.78951c0,0 -6.19147,8.40616 -10.73969,11.27111c-3.83197,2.4138 -14.46858,4.99534 -14.46858,4.99534" fill="none" stroke="#000000" stroke-width="1" stroke-linecap="round"/><path d="M276.50806,255.6641c0,0 5.74759,-7.62281 9.26601,-10.40956c6.17768,-4.89298 16.3439,-7.09174 16.3439,-7.09174" fill="none" stroke="#000000" stroke-width="1" stroke-linecap="round"/></g><g stroke="#000000" stroke-linecap="butt"><path d="M252.2414,241.03232c20.84844,25.51561 18.37095,34.66039 12.05718,39.62399c-6.31377,4.96361 -28.3331,-11.69711 -49.18154,-37.21273c-20.84844,-25.51561 51.29126,-22.21041 57.60502,-27.17401c7.06159,-0.66681 5.4704,5.54198 -0.44049,10.62158c-7.28951,6.26433 -21.82223,11.96019 -20.04019,14.14117z" fill="#0d69be" stroke-width="2"/><path d="M277.33644,252.7862c8.94868,10.95195 6.91881,27.12909 -4.53385,36.13265c-11.45266,9.00357 -27.99121,7.42409 -36.9399,-3.52785c-8.94868,-10.95195 -6.9188,-27.1291 4.53386,-36.13266c11.45266,-9.00357 27.99121,-7.42409 36.93989,3.52786z" fill="#faddbf" stroke-width="2"/><path d="M239.03074,268.23083c8.94868,10.95195 44.99653,10.78586 33.54387,19.78942c-11.45266,9.00357 -27.99121,7.42409 -36.93989,-3.52786c-8.94868,-10.95195 -5.55266,-27.21351 3.39602,-16.26156z" fill="#ef8b89" stroke-width="0"/></g></g><g stroke="#000000" stroke-linecap="butt"><path d="M402.49782,334.7985c1.35955,11.36194 -11.95915,22.23286 -29.74814,24.28088c-17.78899,2.04802 -33.31195,-5.50239 -34.6715,-16.86433c-0.27178,-2.27127 -1.6372,-13.40129 -0.68234,-14.87245c3.82175,-5.88819 18.3097,3.08835 32.54263,1.44973c17.78899,-2.04802 31.1998,-5.35577 32.55935,6.00616z" fill="#000082" stroke-width="2"/><path d="M400.30589,332.35237c0.73538,6.14567 -12.608,11.51552 -30.397,13.56355c-17.78899,2.04802 -30.30476,0.56807 -31.04014,-5.5776c-0.147,-1.22854 -1.49333,-12.19907 -0.46472,-13.05377c4.11698,-3.42091 16.11947,3.84534 30.3524,2.20672c17.78899,-2.04802 30.81407,-3.28457 31.54946,2.8611z" fill="#2e0048" stroke-width="0"/></g><g stroke="#000000" stroke-linecap="butt"><path d="M218.00366,321.51156c3.83233,-10.80468 16.19654,-4.73046 33.11306,1.04257c13.53487,4.61897 29.65903,-1.07192 32.09217,5.48762c0.60792,1.63889 -3.17902,12.21591 -3.94511,14.37578c-3.83233,10.80468 -20.65259,14.88364 -37.56912,9.11063c-16.91652,-5.77302 -27.52335,-19.2119 -23.69102,-30.01657z" data-paper-data="{&quot;index&quot;:null}" fill="#000082" stroke-width="2"/><path d="M252.11669,323.48725c13.53487,4.61897 26.85532,0.07067 30.12067,4.28395c0.81584,1.05268 -2.91729,11.47802 -3.33166,12.6463c-2.07291,5.84425 -14.6188,4.6343 -31.53532,-1.13873c-16.91652,-5.77302 -28.76027,-13.84625 -26.68736,-19.69051c2.07291,-5.84425 14.51716,-1.87405 31.43367,3.89897z" data-paper-data="{&quot;index&quot;:null}" fill="#2e0048" stroke-width="0"/></g><g stroke-linecap="butt"><g><g stroke="#000000"><g><path d="M218.37034,120.08749c5.24878,-45.60694 47.19578,-78.40501 93.69124,-73.25654c46.49547,5.14848 79.93251,46.29387 74.68373,91.90082c-5.24878,45.60694 -47.19578,78.40501 -93.69124,73.25654c-46.49547,-5.14848 -79.93251,-46.29387 -74.68373,-91.90082z" fill="#faddbf" stroke-width="2"/><path d="M218.69719,119.26537c1.68872,-14.67339 13.20309,-39.02098 18.04422,-41.65769c0.55287,-0.30112 6.74941,-8.04816 14.97589,-13.76726c10.22494,-7.10845 22.88038,-12.42764 23.46519,-12.16836c7.63002,3.38277 -24.69105,61.28556 -26.29687,86.07195c-0.00383,0.05911 2.1696,19.68807 3.72863,20.29396c2.3353,4.93998 6.90488,19.67127 16.91656,27.82804c18.65795,15.20111 46.42533,24.56737 44.89467,24.89709c-2.4485,0.52744 -15.0199,1.0702 -21.04454,0.40309c-46.49547,-5.14848 -79.93251,-46.29387 -74.68373,-91.90082z" fill="#ef8b89" stroke-width="0"/><path d="M386.27658,138.22757c-1.30397,11.33023 -3.32242,15.07137 -3.66326,13.20576c-0.34773,-1.90327 0.91535,-9.58587 -7.34222,-15.27358c-2.00097,-1.37825 -10.84584,4.99425 -13.41847,3.49706c-1.6159,-0.94041 -7.4561,-10.8701 -9.28186,-11.73959c-1.27654,-0.60793 -13.31129,6.7957 -14.65144,6.20246c-3.34241,-1.47957 -10.63701,-12.40491 -14.29073,-13.45902c-2.012,-0.58047 -10.55346,10.52856 -12.6207,10.04907c-2.66596,-0.61836 -8.65129,-12.87096 -11.3714,-13.17216c-7.2339,-0.80102 -8.21901,6.0104 -14.09752,11.28833c-3.82,3.42973 -12.43603,-14.26083 -16.03764,-10.28156c-4.47279,4.94177 -8.88468,9.69458 -13.50273,12.73648c-3.62303,2.3865 -12.14719,-11.31189 -15.29868,-9.0768c-15.21625,10.79165 -24.39898,17.67612 -22.36055,-0.03595c4.09891,-35.61565 43.93578,-3.24266 87.86903,-19.62245c42.05247,-15.67857 84.16709,0.06631 80.06819,35.68196z" fill="#ef8b89" stroke-width="0"/></g><path d="M388.73304,130.29573c-2.63426,22.88919 5.51283,9.2135 -11.29792,-2.10021c-2.05714,-1.38447 -11.11298,4.96467 -13.75701,3.45957c-1.66075,-0.94538 -7.68256,-10.89518 -9.55842,-11.77022c-1.31157,-0.61181 -13.63717,6.75962 -15.01395,6.16232c-3.43377,-1.48969 -10.9508,-12.43965 -14.7027,-13.50464c-2.06606,-0.58646 -10.79643,10.50165 -12.91887,10.01605c-2.73715,-0.62624 -8.91484,-12.90014 -11.70659,-13.20927c-7.42445,-0.82211 -8.41479,5.98872 -14.4304,11.25147c-3.90909,3.41986 -12.80216,-14.30137 -16.48555,-10.33116c-4.57432,4.93053 -9.08674,9.6722 -13.81579,12.70182c-3.71012,2.37685 -12.49699,-11.35063 -15.72375,-9.12386c-15.57971,10.75141 -24.98068,17.61171 -22.94224,-0.10036c4.09891,-35.61565 48.72608,-74.81494 94.36305,-69.76153c45.63696,5.05341 82.08908,50.69437 77.99017,86.31003z" fill="#873412" stroke-width="2"/><path d="M388.61731,129.1351c-2.63426,22.88919 5.51283,9.2135 -11.29792,-2.10021c-2.05714,-1.38447 -11.11298,4.96467 -13.75701,3.45957c-1.66075,-0.94538 -7.68256,-10.89518 -9.55843,-11.77022c-1.31157,-0.61181 -13.63717,6.75962 -15.01395,6.16232c-3.43377,-1.48969 -10.9508,-12.43965 -14.7027,-13.50464c-2.06606,-0.58646 -10.79643,10.50165 -12.91887,10.01605c-2.73715,-0.62624 -8.91484,-12.90014 -11.70659,-13.20927c-7.42445,-0.82211 -8.41479,5.98872 -14.4304,11.25147c-3.90909,3.41986 -12.80216,-14.30137 -16.48555,-10.33116c-4.57432,4.93053 -9.08674,9.6722 -13.8158,12.70182c-3.71012,2.37685 -12.49699,-11.35063 -15.72375,-9.12386c-15.57971,10.75141 -24.98068,17.61171 -22.94224,-0.10036c4.09891,-35.61565 45.0688,-3.1172 90.0957,-19.37589c43.09929,-15.56265 86.35642,0.30874 82.25751,35.92439z" fill="#741d23" stroke-width="0"/></g><path d="M311.94061,54.36527c0.05166,0.11986 0.09002,0.25585 0.11738,0.40384c0.06454,0.26296 0.08544,0.54083 0.05559,0.82481c-0.01943,1.11953 -0.32657,2.44482 -0.33703,2.92942c-0.01373,0.63667 1.26663,-0.59744 1.8955,-0.43924c0.38522,0.09691 0.70015,0.82935 1.02319,0.60183c1.96041,-1.38072 3.87437,-3.9921 6.42946,-2.10685c0.8462,0.62436 0.45992,1.91725 0.94421,2.64678c0.04071,0.06133 2.60806,0.15395 3.14014,0.73894c0.91681,1.00797 0.06459,2.23003 0.473,3.25512c0.13068,0.32802 0.62047,-0.36785 0.96313,-0.47299c1.52501,-0.4679 4.19709,-1.51598 5.82669,-0.34671c0.85866,0.61611 0.49839,2.16718 0.95254,2.65368c0.79618,0.85288 2.07448,-1.1178 3.18138,-1.51586c1.53092,-0.55054 2.17505,0.21258 3.31214,1.21321c0.19612,0.17259 0.0064,4.07952 0.97178,5.32924c0.54264,0.70247 1.73746,-0.65523 2.63189,-0.57124c0.89242,0.0838 2.77668,-0.42057 3.18427,-0.27315c0.81757,0.29569 1.37764,1.77226 2.17364,1.42452c4.06411,-1.77543 8.78149,0.17702 6.60054,4.83176c-0.276,0.58907 1.37795,-0.41395 1.97756,-0.14123c0.23246,0.10572 1.46542,1.23013 1.70083,1.17131c1.53978,-0.38478 2.55352,-0.98039 4.13507,-0.80908c1.31345,0.14227 2.49054,1.00691 2.64051,2.38621c0.07882,0.72488 -1.22925,1.95967 -0.50657,2.12978c1.70345,0.40098 4.33068,1.40792 3.27863,3.79623c-1.14202,2.59256 -3.69679,4.66802 -6.01878,2.34686c-0.80562,-0.80532 -2.42912,0.95766 -3.42701,0.39649c-1.27838,-0.71889 -1.68548,-3.02297 -1.48245,-4.16193c0.09385,-0.52651 -1.10846,0.24643 -1.63175,0.09731c-0.70454,-0.20077 -0.9227,-1.3019 -1.64351,-1.43601c-1.61231,-0.29996 -1.71661,3.03401 -5.49039,1.83971c-1.11388,-0.35251 -2.25547,-2.40266 -2.50944,-3.51458c-0.14743,-0.64545 1.7348,-2.42335 1.58959,-2.54365c-0.3526,-0.29211 -2.25068,2.54179 -2.69037,2.63343c-1.0578,0.22044 -2.09183,-0.60647 -3.03366,-1.1277c-0.83212,-0.4605 -1.35804,1.71521 -2.31193,1.6619c-0.84271,-0.0471 -9.24026,-1.49947 -9.51704,-2.02663c-0.33745,-0.64269 -0.62239,-1.76775 -0.38606,-2.44212c0.08493,-0.24236 1.17623,-1.68727 0.99355,-1.68761c-0.64834,-0.00122 -4.54757,2.89184 -6.33824,-0.51862c-0.97375,-1.85458 1.36977,-3.40046 1.55518,-4.98315c0.1145,-0.97739 -1.28984,1.51103 -1.85592,2.32319c-0.43478,0.62381 -1.57236,1.11438 -2.34475,1.05351c-2.67052,-0.21044 -1.64809,-2.62541 -2.03673,-4.16333c-0.17936,-0.70974 -1.63459,0.40651 -2.23626,-0.0252c-1.47109,-1.05554 -1.10637,-2.16466 -1.07134,-3.67322c0.01603,-0.69074 -0.84981,2.58609 -2.50272,2.56747c-0.67034,-0.00756 -1.60635,-1.11302 -1.93445,-0.53958c-1.59737,2.79183 -1.03266,4.05084 -4.75078,3.16425c-0.35879,-0.08555 -1.0608,0.66795 -1.42609,0.40584c-4.04293,-2.90091 0.03481,-7.82541 0.60568,-11.71868c0.20138,-1.37332 -0.48137,-3.53546 0.81771,-4.08435c0.51479,-0.67036 1.36728,-1.0639 2.27905,-0.96294c0.80844,0.08952 1.48309,0.54785 1.86924,1.18459c0.06541,0.08322 0.12097,0.17408 0.16424,0.27448z" fill="#ba587e" stroke="none" stroke-width="0.5"/></g><g stroke="#000000"><path d="M311.19791,156.28883c-3.20361,27.83638 -17.9412,40.74528 -34.40517,38.92221c-16.46397,-1.82307 -28.41975,-17.68776 -25.21613,-45.52412c3.20361,-27.83638 19.14734,-48.92432 35.61131,-47.10126c16.46397,1.82307 27.21361,25.86679 24.01,53.70317z" fill="#f0f0f0" stroke-width="2"/><path d="M266.93395,132.05726c-7.44248,27.04523 27.0479,64.23757 10.58393,62.4145c-16.46397,-1.82307 -28.41975,-17.68776 -25.21613,-45.52412c3.20361,-27.83638 25.39183,-55.98979 14.6322,-16.89038z" fill="#9a99ff" stroke-width="0"/></g><path d="M306.40449,163.88526c-1.77486,15.4219 -7.87299,27.40789 -13.62055,26.77146c-5.74755,-0.63643 -8.96806,-13.65428 -7.19319,-29.07618c1.77486,-15.4219 7.87299,-27.40789 13.62055,-26.77146c5.74755,0.63643 8.96806,13.65428 7.19319,29.07618z" fill="#000000" stroke="none" stroke-width="0"/><g stroke="#000000"><path d="M309.58938,126.46285c3.28378,10.46167 5.14836,51.20496 -10.46274,49.47633c-15.6111,-1.72863 -43.05557,-46.04447 -37.46085,-54.91634c5.32329,-8.44145 9.14956,-20.12992 24.76067,-18.40129c15.6111,1.72863 20.03344,13.87119 23.16292,23.84129z" fill="#a100fe" stroke-width="2"/><path d="M308.71068,126.01587c3.13268,10.44494 5.58127,50.39452 -9.49753,48.72484c-15.0788,-1.66969 -42.23221,-45.09493 -36.79148,-53.98385c5.17677,-8.45767 6.40892,1.6593 21.48773,3.32899c15.0788,1.66969 21.81579,-8.02415 24.80128,1.93001z" fill="#99008e" stroke-width="0"/></g><g data-paper-data="{&quot;index&quot;:null}" stroke="#000000"><path d="M349.82014,111.63785c16.46397,1.82307 27.21361,25.86679 24.01,53.70317c-3.20361,27.83637 -18.4642,40.68737 -34.92817,38.8643c-16.46397,-1.82307 -27.89675,-17.62983 -24.69314,-45.46621c3.20361,-27.83638 19.14734,-48.92432 35.61131,-47.10126z" fill="#f0f0f0" stroke-width="2"/><path d="M373.29127,164.46176c-3.20361,27.83637 -18.4642,40.68737 -34.92817,38.8643c-16.46397,-1.82307 25.61141,-30.53722 24.50303,-58.52929c-1.6024,-40.46827 13.62876,-8.17138 10.42514,19.66499z" fill="#9a99ff" stroke-width="0"/></g><path d="M359.69772,144.04276c5.74755,0.63643 8.96806,13.65428 7.19319,29.07618c-1.77486,15.4219 -7.87299,27.40789 -13.62055,26.77146c-5.74755,-0.63643 -8.96806,-13.65428 -7.19319,-29.07618c1.77486,-15.4219 7.87299,-27.40789 13.62055,-26.77146z" data-paper-data="{&quot;index&quot;:null}" fill="#000000" stroke="none" stroke-width="0"/><g data-paper-data="{&quot;index&quot;:null}" stroke="#000000"><path d="M322.55569,130.01548c5.31671,-9.03485 12.38749,-19.90477 27.9986,-18.17614c15.6111,1.72863 16.68455,13.95965 19.95531,23.35272c3.43753,9.87202 -33.08894,48.09923 -48.70004,46.3706c-15.6111,-1.72863 -4.83272,-42.06687 0.74612,-51.54718z" fill="#a100fe" stroke-width="2"/><path d="M323.51386,129.7719c5.17272,-9.0508 9.53696,1.87228 24.61576,3.54197c15.0788,1.66969 18.57931,-7.92324 21.70356,1.45361c3.28354,9.85497 -33.08744,47.50114 -48.16624,45.83146c-15.0788,-1.66969 -3.58083,-41.32999 1.84691,-50.82703z" fill="#99008e" stroke-width="0"/></g><path d="M242.54757,151.00971c0.99369,0.11003 0.88151,1.08473 0.88151,1.08473l-0.03698,0.28538c-0.9089,4.32949 -1.51827,8.97533 -4.73889,12.32951c-1.90414,2.61894 -5.56591,3.81076 -6.55321,-0.35185c-1.11272,-4.69141 1.87244,-11.50423 3.62916,-15.68806c0,0 0.38085,-0.90696 1.30549,-0.5334c0.92463,0.37357 0.54379,1.28054 0.54379,1.28054c-1.59456,3.79708 -2.7628,7.50283 -3.23173,11.5774c-0.31653,2.75037 0.10048,6.12951 2.76111,2.47009c2.98244,-3.10035 3.4847,-7.47493 4.32539,-11.47988l0.0085,-0.10979c0,0 0.11218,-0.9747 1.10586,-0.86467z" fill="#000000" stroke="none" stroke-width="0.5"/></g></g></g></svg>