<svg version="1.1" xmlns="http://www.w3.org/2000/svg" xmlns:xlink="http://www.w3.org/1999/xlink" width="214.0374" height="344.60768" viewBox="0,0,214.0374,344.60768"><g transform="translate(-196.37272,-16.20819)"><g data-paper-data="{&quot;isPaintingLayer&quot;:true}" fill-rule="nonzero" stroke-linejoin="miter" stroke-miterlimit="10" stroke-dasharray="" stroke-dashoffset="0" style="mix-blend-mode: normal"><g stroke="#000000" stroke-linecap="butt"><path d="M356.3107,224.93015c25.32703,23.31121 41.1324,47.04501 35.30229,53.01093c-5.83012,5.96592 -31.08799,-8.09522 -56.41502,-31.40643c-25.32703,-23.31121 -41.1324,-47.04501 -35.30229,-53.01093c5.83012,-5.96592 31.08799,8.09522 56.41502,31.40644z" fill="#0d69be" stroke-width="2"/><path d="M401.09746,247.53647c10.871,10.00576 11.11067,26.88974 0.53531,37.71144c-10.57536,10.82169 -27.96108,11.48314 -38.83207,1.47737c-10.871,-10.00577 -11.11067,-26.88974 -0.53531,-37.71144c10.57536,-10.8217 27.96108,-11.48313 38.83207,-1.47737z" fill="#faddbf" stroke-width="2"/><path d="M363.59921,268.67522c10.871,10.00577 48.24213,4.86012 37.66677,15.68182c-10.57536,10.82169 -27.96106,11.48313 -38.83207,1.47737c-10.871,-10.00577 -9.7057,-27.16494 1.16529,-17.15918z" fill="#ef8b89" stroke-width="0"/></g><g stroke="#000000" stroke-linecap="butt"><path d="M349.00177,353.96924l-60.66476,-76.88389l24.51768,-18.22053l60.66477,76.88389z" fill="#73fffc" stroke-width="2"/><path d="M348.33759,353.67194l-58.60145,-76.48565c0,0 47.6856,51.73853 54.65843,58.6083c1.54148,1.51869 3.8729,0.69257 3.8729,0.69257l23.83255,-0.89488z" fill="#59a9e6" stroke-width="0"/></g><g stroke="#000000" stroke-linecap="butt"><path d="M249.00855,326.04721l37.79007,-89.62304l28.5801,11.35017l-37.79007,89.62305z" fill="#73fffc" stroke-width="2"/><path d="M248.93792,325.34069l38.47684,-87.69326c0,0 -21.96853,66.06064 -24.56197,75.36933c-0.57333,2.05786 1.33794,3.59454 1.33794,3.59454l12.8209,19.51779z" fill="#59a9e6" stroke-width="0"/></g><g stroke="#000000" stroke-linecap="butt"><path d="M336.49622,233.68782c0,14.02601 10.52046,37.33833 5.18305,47.21141c-6.52728,12.0741 -29.95947,9.24294 -40.77296,9.24294c-14.30611,0 -34.49506,4.23765 -40.14949,-15.07212c-2.11442,-7.22072 4.55958,-32.89637 4.55958,-41.38223c0,-31.17888 15.93414,-56.45435 35.58991,-56.45435c19.65577,0 35.58991,25.27547 35.58991,56.45435z" fill="#0d69be" stroke-width="2"/><path d="M282.81912,249.51642c0,14.02601 64.96289,20.8813 59.62547,30.75437c-6.52728,12.07409 -29.95947,9.24294 -40.77296,9.24294c-14.30611,0 -34.49505,4.23765 -40.14948,-15.07211c-2.11443,-7.22072 4.55958,-32.89638 4.55958,-41.38223c0,-9.60536 3.5062,-29.06068 5.77939,-30.45296c6.22375,-17.03536 10.958,25.54667 10.958,46.90999z" fill="#10157d" stroke-width="0"/></g><g stroke-linecap="butt"><g stroke="#000000"><g><path d="M201.77319,118.61977c-7.35049,-47.00961 25.95844,-90.90133 74.39759,-98.0349c48.43914,-7.13357 93.66559,25.19236 101.01607,72.20197c7.35049,47.00961 -25.95844,90.90133 -74.39759,98.0349c-48.43914,7.13356 -93.66558,-25.19236 -101.01607,-72.20197z" fill="#faddbf" stroke-width="2"/><path d="M201.87549,117.71101c-2.36492,-15.12469 2.5197,-42.52282 6.68266,-46.43946c0.47542,-0.44729 4.59053,-9.83414 11.32086,-17.72863c8.36533,-9.81232 19.68465,-18.47685 20.3479,-18.37199c8.65333,1.36815 -7.95573,67.83026 -2.70031,93.04958c0.01253,0.06015 7.65769,19.12177 9.40214,19.31599c3.73216,4.32474 12.44074,17.85393 24.82704,23.36853c23.08333,10.2771 53.7576,12.31065 52.3015,13.04488c-2.32924,1.1745 -14.8892,5.03875 -21.16569,5.96308c-48.43914,7.13356 -93.66558,-25.19236 -101.01607,-72.20197z" fill="#ef8b89" stroke-width="0"/><path d="M376.57299,92.4063c1.8261,11.6787 0.82358,15.95442 -0.0388,14.1782c-0.8798,-1.81207 -1.73491,-9.83106 -11.66242,-13.33916c-2.40563,-0.85008 -9.57987,7.86142 -12.59649,7.04338c-1.8948,-0.51383 -10.55545,-8.90405 -12.64275,-9.29149c-1.4594,-0.27089 -11.57265,10.31485 -13.09228,10.07546c-3.79005,-0.59705 -14.19754,-9.59901 -18.18427,-9.6882c-2.19537,-0.04911 -7.7483,13.32041 -9.9715,13.38691c-2.86709,0.08577 -12.31918,-10.58985 -15.15301,-10.17251c-7.5363,1.10986 -6.64194,8.18392 -11.12074,15.01678c-2.91043,4.44016 -16.53155,-10.98029 -19.06868,-6.04811c-3.15081,6.1252 -6.2925,12.04526 -10.11746,16.30829c-3.00081,3.34452 -15.42109,-8.10663 -17.98717,-5.03815c-12.3897,14.81548 -19.76345,24.12839 -22.61811,5.87158c-5.74018,-36.71103 43.52231,-14.85139 83.39609,-42.84384c38.16678,-26.79409 85.11742,-22.17014 90.85761,14.54089z" fill="#ef8b89" stroke-width="0"/></g><path d="M376.85531,83.8227c3.68906,23.59317 8.13091,7.76026 -12.00589,0.8839c-2.46416,-0.84147 -9.85817,7.9024 -12.94918,7.09531c-1.94152,-0.50695 -10.79138,-8.86931 -12.93087,-9.24905c-1.49589,-0.26552 -11.91215,10.36485 -13.46996,10.13108c-3.88522,-0.58303 -14.52445,-9.55087 -18.61346,-9.625c-2.2517,-0.04083 -8.00143,13.35769 -10.28213,13.43266c-2.94126,0.09668 -12.59375,-10.5494 -15.50221,-10.12108c-7.73482,1.1391 -6.84589,8.21396 -11.46753,15.06784c-3.00325,4.45382 -16.913,-10.92412 -19.53531,-5.97939c-3.25658,6.14077 -6.503,12.07626 -10.4436,16.35632c-3.09154,3.35788 -15.78552,-8.05297 -18.43,-4.97293c-12.76835,14.87124 -20.36947,24.21763 -23.22413,5.96082c-5.74018,-36.71103 28.50205,-87.7143 76.04681,-94.71616c47.54475,-7.00184 97.06731,29.02465 102.8075,65.73569z" fill="#873412" stroke-width="2"/><path d="M376.41619,82.69224c3.68906,23.59317 8.13092,7.76027 -12.00588,0.8839c-2.46416,-0.84147 -9.85818,7.9024 -12.94919,7.09531c-1.94152,-0.50695 -10.79138,-8.86931 -12.93088,-9.24905c-1.49589,-0.26552 -11.91215,10.36485 -13.46996,10.13108c-3.88522,-0.58303 -14.52445,-9.55087 -18.61347,-9.625c-2.2517,-0.04083 -8.00143,13.35769 -10.28213,13.43266c-2.94126,0.09668 -12.59374,-10.5494 -15.5022,-10.12108c-7.73482,1.1391 -6.8459,8.21396 -11.46754,15.06784c-3.00325,4.45382 -16.91299,-10.92412 -19.5353,-5.97939c-3.25658,6.14077 -6.503,12.07626 -10.44361,16.35632c-3.09154,3.35788 -15.78552,-8.05297 -18.43001,-4.97293c-12.76835,14.87124 -20.36946,24.21763 -23.22412,5.96082c-5.74018,-36.71103 44.70269,-15.02522 85.71583,-43.18546c39.25737,-26.9547 87.39827,-22.50604 93.13846,14.20499z" fill="#741d23" stroke-width="0"/></g><path d="M278.13946,28.15378c0.08549,0.10626 0.16203,0.23216 0.23076,0.37297c0.13824,0.24601 0.23648,0.51843 0.28513,0.81041c0.29106,1.12506 0.34832,2.53195 0.47224,3.01949c0.16281,0.64052 1.11485,-0.93228 1.79458,-0.94017c0.41638,-0.00484 0.93807,0.64466 1.20154,0.33172c1.59893,-1.89914 2.80934,-5.0171 5.91594,-3.80622c1.02884,0.40101 0.99711,1.79641 1.68923,2.39825c0.05819,0.05059 2.67968,-0.53503 3.37999,-0.09041c1.20671,0.76611 0.6842,2.21375 1.38163,3.1313c0.22316,0.29361 0.52526,-0.5319 0.84252,-0.72761c1.41204,-0.87097 3.82283,-2.62536 5.79498,-1.88621c1.03916,0.38947 1.10538,2.03627 1.69957,2.40295c1.0417,0.64283 1.78722,-1.66626 2.79591,-2.35689c1.39509,-0.9552 2.25813,-0.36197 3.68552,0.33859c0.24619,0.12083 1.13867,4.07925 2.46157,5.07437c0.7436,0.55936 1.57484,-1.11449 2.50249,-1.26678c0.92556,-0.15194 2.69071,-1.1543 3.14371,-1.1145c0.9087,0.0798 1.88475,1.40892 2.59306,0.85075c3.61637,-2.84977 8.92785,-2.14294 8.01458,3.08963c-0.11557,0.66219 1.27833,-0.77814 1.96027,-0.66375c0.26437,0.04435 1.82305,0.84341 2.04474,0.72236c1.45004,-0.79171 2.30971,-1.65535 3.95631,-1.90182c1.36748,-0.20469 2.79756,0.34927 3.33198,1.68943c0.28087,0.70431 -0.69899,2.28512 0.07891,2.26436c1.8336,-0.04892 4.76937,0.26427 4.36851,2.93136c-0.43513,2.89518 -2.4422,5.64633 -5.43409,3.93781c-1.03803,-0.59277 -2.19023,1.59975 -3.35492,1.30203c-1.49205,-0.3814 -2.5431,-2.57873 -2.65394,-3.77174c-0.05122,-0.55149 -1.05234,0.53938 -1.62282,0.52844c-0.76805,-0.0147 -1.29423,-1.05858 -2.06024,-1.0023c-1.71341,0.12589 -0.89358,3.48859 -5.0406,3.29088c-1.22405,-0.05836 -2.94725,-1.80762 -3.51263,-2.85283c-0.3282,-0.60673 1.08144,-2.88252 0.90124,-2.9645c-0.43757,-0.19906 -1.57017,3.13731 -1.9893,3.34514c-1.00833,0.49998 -2.2833,-0.05403 -3.38022,-0.32662c-0.96913,-0.24082 -0.89706,2.0746 -1.8763,2.27328c-0.86511,0.17552 -9.75872,0.94124 -10.18487,0.48701c-0.51956,-0.55376 -1.11988,-1.60394 -1.0681,-2.34098c0.01861,-0.26489 0.72098,-1.99862 0.53618,-1.95069c-0.65586,0.17007 -3.79534,4.0943 -6.55235,1.15573c-1.49924,-1.59797 0.4412,-3.76353 0.18942,-5.39576c-0.15549,-1.00799 -0.88476,1.85232 -1.2317,2.81433c-0.26647,0.73889 -1.28049,1.53017 -2.07833,1.67334c-2.75849,0.49502 -2.39497,-2.19092 -3.21474,-3.6267c-0.37832,-0.6626 -1.53986,0.83849 -2.26802,0.56559c-1.78033,-0.66725 -1.71938,-1.87312 -2.10263,-3.39146c-0.17549,-0.69522 -0.1415,2.81151 -1.81789,3.22957c-0.67986,0.16954 -1.93303,-0.68902 -2.10562,-0.0287c-0.84024,3.21482 0.08015,4.32508 -3.92521,4.42049c-0.38651,0.00921 -0.88717,0.94845 -1.32925,0.78275c-4.89279,-1.83381 -2.13661,-7.83735 -2.63993,-11.8828c-0.17754,-1.42701 -1.4679,-3.40952 -0.30677,-4.30182c0.33445,-0.80659 1.08715,-1.42551 2.03704,-1.56539c0.84223,-0.12403 1.65155,0.15622 2.21869,0.69116c0.08923,0.06597 0.17062,0.14217 0.24224,0.23118z" fill="#ba587e" stroke="none" stroke-width="0.5"/></g><g stroke="#000000" stroke-linecap="butt"><path d="M305.6756,130.30924c4.4864,28.69249 -6.83173,45.49951 -23.98395,48.0255c-17.15222,2.52599 -33.64333,-10.18561 -38.12974,-38.87811c-4.4864,-28.69249 5.78128,-54.00008 22.9335,-56.52606c17.15222,-2.52599 34.6938,18.68617 39.18019,47.37867z" fill="#f0f0f0" stroke-width="2"/><path d="M254.1965,117.7635c-0.01897,29.02096 45.17537,57.11416 28.02315,59.64014c-17.15222,2.52599 -33.64333,-10.18561 -38.12974,-38.8781c-4.4864,-28.69249 10.134,-62.71778 10.10659,-20.76204z" fill="#9a99ff" stroke-width="0"/></g><path d="M302.93736,139.17473c2.48555,15.8962 -0.3536,29.49748 -6.34142,30.37931c-5.98782,0.88182 -12.85686,-11.28976 -15.34241,-27.18596c-2.48555,-15.8962 0.3536,-29.49748 6.34142,-30.3793c5.98782,-0.88182 12.85686,11.28975 15.34241,27.18596z" fill="#000000" stroke="none" stroke-width="0" stroke-linecap="butt"/><g stroke="#000000" stroke-linecap="butt"><path d="M295.7716,100.89779c6.22359,9.59778 19.41637,49.86273 3.15267,52.25786c-16.2637,2.39513 -56.31111,-34.68556 -53.11668,-45.03863c3.03945,-9.85079 3.66417,-22.55423 19.92788,-24.94936c16.2637,-2.39513 24.10495,8.58332 30.03611,17.73013z" fill="#a100fe" stroke-width="2"/><path d="M294.75913,100.68281c6.06617,9.62096 19.62916,48.93763 3.92,51.25109c-15.70915,2.31346 -55.2151,-33.95321 -52.18109,-44.28265c2.88681,-9.82831 6.94039,-0.03332 22.64954,-2.34678c15.70915,-2.31346 19.83039,-13.79057 25.61152,-4.62167z" fill="#99008e" stroke-width="0"/></g><g data-paper-data="{&quot;index&quot;:null}" stroke="#000000" stroke-linecap="butt"><path d="M332.3334,75.43885c17.15222,-2.52599 34.6938,18.68617 39.18019,47.37867c4.4864,28.69249 -7.37659,45.57976 -24.52881,48.10575c-17.15222,2.52599 -33.09848,-10.26585 -37.58488,-38.95834c-4.4864,-28.69249 5.78127,-54.00008 22.93349,-56.52606z" fill="#f0f0f0" stroke-width="2"/><path d="M370.72474,122.08033c4.4864,28.69249 -7.37659,45.57975 -24.52881,48.10574c-17.15222,2.52599 17.41994,-37.31431 8.53058,-65.02336c-12.85138,-40.0591 11.51184,-11.77488 15.99823,16.91762z" fill="#9a99ff" stroke-width="0"/></g><path d="M341.93134,109.22172c6.04852,-0.29927 11.63563,12.47517 12.47917,28.5325c0.84354,16.05732 -3.37592,29.31698 -9.42444,29.61625c-6.04852,0.29926 -11.63563,-12.47517 -12.47918,-28.5325c-0.84354,-16.05733 3.37592,-29.31698 9.42445,-29.61625z" data-paper-data="{&quot;index&quot;:null}" fill="#000000" stroke="none" stroke-width="0" stroke-linecap="butt"/><g data-paper-data="{&quot;index&quot;:null}" stroke="#000000" stroke-linecap="butt"><path d="M309.86744,101.02604c2.86812,-10.44266 7.00044,-23.18444 23.26414,-25.57957c16.2637,-2.39513 20.74354,9.55657 26.6574,18.08882c6.21539,8.9673 -20.10623,56.85799 -36.36993,59.25312c-16.2637,2.39513 -16.56113,-40.80482 -13.55161,-51.76234z" fill="#a100fe" stroke-width="2"/><path d="M310.76862,100.52924c2.7181,-10.42057 10.16218,-0.64668 25.87132,-2.96014c15.70915,-2.31346 16.58607,-12.83456 22.34728,-4.27985c6.05497,8.99093 -20.27071,56.25931 -35.97985,58.57277c-15.70915,2.31346 -15.09088,-40.39843 -12.23877,-51.33277z" fill="#99008e" stroke-width="0"/></g><path d="M212.10027,333.81248c1.59119,-11.75045 15.58319,-8.13551 34.17766,-5.76396c14.87739,1.89747 30.17852,-7.19746 34.09286,-1.0443c0.97799,1.53736 -0.61592,13.04749 -0.93402,15.39643c-1.59119,11.75045 -17.9549,19.35354 -36.54937,16.98198c-18.59447,-2.37156 -32.37834,-13.8197 -30.78714,-25.57014z" data-paper-data="{&quot;index&quot;:null}" fill="#000082" stroke="#000000" stroke-width="2" stroke-linecap="butt"/><path d="M247.50517,328.78914c14.87739,1.89747 27.55104,-5.46075 31.81091,-1.85923c1.06432,0.89984 -0.50725,12.24502 -0.67929,13.51557c-0.86068,6.35582 -13.98628,7.71294 -32.58075,5.34138c-18.59447,-2.37156 -32.48542,-8.12162 -31.62474,-14.47745c0.86068,-6.35582 14.47941,-4.89182 33.07387,-2.52026z" data-paper-data="{&quot;index&quot;:null}" fill="#2e0048" stroke="#000000" stroke-width="0" stroke-linecap="butt"/><g><g><path d="M315.06562,251.80811c-12.70861,9.10663 -24.84996,8.22304 -34.7164,-3.55409c-7.71668,-9.211 -5.20399,-27.45317 7.50465,-36.55982c12.70866,-9.1067 28.00419,-7.75247 37.29429,4.45816c1.4528,1.90951 2.2096,4.09023 2.92002,6.07568c3.83222,10.71071 -2.28128,21.89752 -13.00253,29.58007z" fill="#0000c4" stroke="#000000" stroke-width="2" stroke-linecap="butt"/><path d="M280.23565,223.57304c0,0 3.19774,4.95789 5.29535,4.9707c20.12081,0.12293 32.56434,-7.48062 36.48223,-10.30026c0.89015,-0.64062 0.77576,-1.77624 0.77576,-1.77624c0,0 1.49441,1.58445 2.65906,4.13033c1.2393,2.70904 2.14565,6.47777 1.86978,9.58929c-0.31516,3.55423 -3.27914,11.52299 -3.27914,11.52299l-15.39823,15.16101c0,0 -14.05731,-0.86071 -16.13399,-1.74862c-2.03445,-0.86983 -4.18475,-2.46539 -6.54139,-4.07255c-3.65901,-2.49538 -6.35671,-6.29333 -7.30087,-9.07287c-1.20491,-3.54733 -1.15877,-8.28646 -0.43064,-12.09935c0.67766,-3.5486 2.00213,-6.30435 2.00213,-6.30435z" fill="#2e006f" stroke="none" stroke-width="0" stroke-linecap="butt"/><path d="M297.35103,242.03229c0,0 -7.06404,-6.08724 -8.08479,-11.23174c-1.29221,-6.51237 -0.03988,-19.63138 -0.03988,-19.63138" fill="none" stroke="#000000" stroke-width="1" stroke-linecap="round"/><path d="M319.48208,211.49978c0,0 3.07754,6.62397 3.89474,10.91878c0.82506,4.3358 -0.97033,14.04084 -0.97033,14.04084" fill="none" stroke="#000000" stroke-width="1" stroke-linecap="round"/><path d="M290.40221,250.90944c0,0 -7.34732,-6.14336 -8.19151,-11.76447c-1.29537,-8.62541 -0.68339,-20.39529 -0.68339,-20.39529" fill="none" stroke="#000000" stroke-width="1" stroke-linecap="round"/><path d="M277.74111,241.41015c0,0 4.99074,-16.90516 22.20366,-22.76949c18.85456,-6.42362 29.30486,7.871 29.30486,7.871" fill="none" stroke="#000000" stroke-width="1" stroke-linecap="round"/><path d="M282.54136,249.89315c0,0 8.01112,-16.33255 23.18866,-21.53904c12.46214,-4.27499 22.42525,6.96659 22.42525,6.96659" fill="none" stroke="#000000" stroke-width="1" stroke-linecap="round"/><path d="M303.93844,210.62296c-1.25502,0.10454 -2.34149,-0.59237 -2.42675,-1.55656c-0.08534,-0.96422 0.7429,-1.05677 1.99791,-1.16131c1.25502,-0.10454 2.4615,-0.18147 2.54678,0.78273c0.08534,0.96422 -0.86295,1.83062 -2.11793,1.93513z" fill="#8fbbbe" stroke="none" stroke-width="0" stroke-linecap="butt"/><path d="M311.54128,210.99934c-0.50666,0.36304 -1.37227,0.05947 -1.93341,-0.67808c-0.56115,-0.73755 -0.68533,-1.11387 -0.17869,-1.47694c0.50666,-0.36304 1.52519,-0.16904 2.08631,0.56852c0.56115,0.73755 0.53242,1.22346 0.02577,1.5865z" fill="#8fbbbe" stroke="none" stroke-width="0" stroke-linecap="butt"/><path d="M296.72698,211.28942c-0.8155,0.4629 -1.73426,0.41048 -2.05223,-0.1171c-0.31801,-0.52752 0.42396,-0.88538 1.2394,-1.34829c0.8155,-0.4629 1.39556,-0.85563 1.71357,-0.32806c0.31801,0.52752 -0.08528,1.33055 -0.90074,1.79343z" fill="#8fbbbe" stroke="none" stroke-width="0" stroke-linecap="butt"/><path d="M278.49241,227.80283c0,0 6.08651,-8.55587 12.68884,-12.82631c3.7432,-2.42112 7.90352,-3.30091 11.06536,-3.93364c2.79616,-0.55958 9.54415,0.7627 14.60061,2.29642c3.7228,1.12918 6.44036,2.54126 6.44036,2.54126" fill="none" stroke="#000000" stroke-width="0.5" stroke-linecap="round"/><path d="M305.76948,205.27619c0,0 6.22837,8.88184 7.4815,14.23826c1.0558,4.5129 -0.14711,15.58618 -0.14711,15.58618" fill="none" stroke="#000000" stroke-width="1" stroke-linecap="round"/><path d="M307.34803,237.16156c0,0 -5.60049,-8.18132 -7.14243,-12.52627c-2.70734,-7.6289 -1.28802,-18.11767 -1.28802,-18.11767" fill="none" stroke="#000000" stroke-width="1" stroke-linecap="round"/></g><g stroke="#000000" stroke-linecap="butt"><path d="M284.00766,255.18255c33.04458,-10.91434 41.33896,-5.3202 44.06862,2.46363c2.72967,7.78383 -21.84543,22.94172 -54.89002,33.85605c-33.04458,10.91434 -3.99673,-56.84184 -6.72641,-64.62566c1.84948,-6.98199 7.51331,-3.27071 10.5031,4.16915c3.6871,9.17508 4.22018,25.06975 7.04471,24.13683z" fill="#0d69be" stroke-width="2"/><path d="M304.75512,235.35454c14.18357,-4.68471 29.69554,2.96347 34.64694,17.0827c4.95141,14.11924 -2.53275,29.36285 -16.71632,34.04757c-14.18357,4.68471 -29.69554,-2.96348 -34.64694,-17.08272c-4.95141,-14.11924 2.53275,-29.36285 16.71633,-34.04756z" fill="#faddbf" stroke-width="2"/><path d="M306.59313,277.40229c14.18357,-4.68471 26.87434,-39.1836 31.82574,-25.06436c4.95141,14.11924 -2.53275,29.36285 -16.71633,34.04756c-14.18357,4.68471 -29.29299,-4.29848 -15.10941,-8.9832z" fill="#ef8b89" stroke-width="0"/></g></g><g stroke="#000000" stroke-linecap="butt"><path d="M406.93184,333.90643c1.42356,11.77069 -12.52218,23.0327 -31.14867,25.15439c-18.62649,2.1217 -34.88026,-5.70034 -36.30382,-17.47103c-0.28458,-2.35298 -1.71428,-13.88341 -0.71446,-15.4075c4.00168,-6.10002 19.17171,3.19946 34.07472,1.50188c18.62649,-2.1217 32.66867,-5.54844 34.09223,6.22223z" fill="#000082" stroke-width="2"/><path d="M404.63672,331.37231c0.77,6.36676 -13.20158,11.9298 -31.82808,14.05151c-18.62649,2.1217 -31.73149,0.58851 -32.50149,-5.77825c-0.15392,-1.27273 -1.56364,-12.63793 -0.4866,-13.52339c4.31081,-3.54398 16.87837,3.98368 31.78138,2.28611c18.62649,-2.1217 32.26478,-3.40273 33.03479,2.96403z" fill="#2e0048" stroke-width="0"/></g><path d="M233.10382,136.40775c-0.68949,6.47567 8.31775,24.99798 2.30357,24.99798c-6.01417,0 -15.28736,-5.48076 -15.28736,-11.9909c0,-6.51015 13.61203,-18.90752 12.98379,-13.00708z" fill="#000000" stroke="none" stroke-width="0" stroke-linecap="butt"/></g></g></svg>