<svg version="1.1" xmlns="http://www.w3.org/2000/svg" xmlns:xlink="http://www.w3.org/1999/xlink" width="217.38306" height="270.07943" viewBox="0,0,217.38306,270.07943"><g transform="translate(-197.29837,-60.49868)"><g data-paper-data="{&quot;isPaintingLayer&quot;:true}" fill-rule="nonzero" stroke-linecap="butt" stroke-linejoin="miter" stroke-miterlimit="10" stroke-dasharray="" stroke-dashoffset="0" style="mix-blend-mode: normal"><g data-paper-data="{&quot;index&quot;:null}" stroke="#000000"><path d="M299.3399,329.14638v-87.70306h65.19569v87.70306z" fill="#273750" stroke-width="2"/><path d="M300.17893,328.41134v-87.70306l19.63692,47.91272l45.55876,39.79034z" fill="#1f1e2e" stroke-width="0"/></g><g data-paper-data="{&quot;index&quot;:null}" stroke="#000000"><path d="M243.28011,329.57811v-87.70306h65.19569v87.70306z" fill="#273750" stroke-width="2"/><path d="M244.11918,328.84304v-87.70306l19.63692,47.91272l45.55876,39.79034z" fill="#1f1e2e" stroke-width="0"/></g><g data-paper-data="{&quot;index&quot;:null}" stroke="#000000"><path d="M309.38198,289.42864l19.66207,-43.11518l50.18126,19.02127l-19.66207,43.11518z" fill="#ffcaa0" stroke-width="2"/><g><path d="M328.80591,246.41288l27.11184,-59.45111l50.83533,19.2692l-27.11184,59.45111z" fill="#0000c0" stroke-width="2"/><path d="M329.45065,246.88083l14.20039,-31.13873c0,0 9.30768,18.69852 17.74701,21.89746c8.00174,3.03307 31.64607,-3.17495 31.64607,-3.17495l-14.20039,31.13874c0,0 -16.24588,-6.15803 -24.43381,-9.26167c-8.27551,-3.13685 -24.95927,-9.46085 -24.95927,-9.46085z" fill="#56006b" stroke-width="0"/></g><path d="M310.38272,289.23523l19.66207,-43.11518l-0.4528,34.10231l30.97199,28.03414z" fill="#ff6e5b" stroke-width="0"/></g><g data-paper-data="{&quot;index&quot;:null}" stroke="#000000"><path d="M413.68142,129.32055c0,31.28909 -12.66432,56.65392 -28.28655,56.65392c-15.62223,0 -28.28655,-25.36483 -28.28655,-56.65392c0,-31.28909 12.66432,-56.65392 28.28655,-56.65392c15.62223,0 28.28655,25.36483 28.28655,56.65392z" fill="#01930e" stroke-width="2"/><path d="M366.89117,119.55794c0,31.28909 34.55417,65.99472 18.93195,65.99472c-15.62222,0 -28.28655,-25.36483 -28.28655,-56.65392c0,-31.28909 9.3546,-40.62989 9.3546,-9.34079z" fill="#31525b" stroke-width="0"/></g><path d="M243.94212,291.76045v-110.56405h121.27311v110.56405z" data-paper-data="{&quot;index&quot;:null}" fill="#0000c0" stroke="#000000" stroke-width="2"/><g data-paper-data="{&quot;index&quot;:null}" stroke="#000000"><path d="M272.60087,291.30458v-108.50617h65.19569v108.50617z" fill="#ffffff" stroke-width="2"/><path d="M273.43994,290.39518v-108.50617l19.63692,59.27758l45.55876,49.22859z" fill="#8ebbfc" stroke-width="0"/></g><g data-paper-data="{&quot;index&quot;:null}" stroke="#000000"><path d="M224.60407,127.79593c0,-1.3373 0.94519,-26.60118 1.05406,-27.91799c2.75091,-33.27499 38.85403,-35.69024 84.08512,-35.69024c42.48749,0 79.1893,4.41291 85.58559,34.8134c0.68251,3.24384 -0.44641,25.40777 -0.44641,28.79484c0,12.10665 3.1858,38.71589 -4.67276,48.34921c-14.94461,18.31969 -49.65002,15.25902 -80.46642,15.25902c-32.58279,0 -62.96724,0.95334 -77.27957,-19.13296c-6.34218,-8.90078 -7.85961,-33.68828 -7.85961,-44.47526z" fill="#ffcaa0" stroke-width="2"/><path d="M222.65034,127.80583c0,-1.3373 0.94519,-26.60118 1.05406,-27.91799c1.56295,-18.90526 7.31415,58.83357 58.23833,80.1348c39.90767,16.69311 110.16833,-7.84637 107.00881,-3.97331c-14.94461,18.31969 -50.3456,15.36471 -81.162,15.36471c-32.58279,0 -62.96724,0.95334 -77.27957,-19.13296c-6.34218,-8.90078 -7.85961,-33.68828 -7.85961,-44.47526z" fill="#ff6e5b" stroke-width="0"/></g><g data-paper-data="{&quot;index&quot;:null}" stroke="#000000"><path d="M272.93405,127.30564c0,31.28909 -12.66432,56.65392 -28.28655,56.65392c-15.62223,0 -28.28655,-25.36483 -28.28655,-56.65392c0,-31.28909 12.66432,-56.65392 28.28655,-56.65392c15.62223,0 28.28655,25.36483 28.28655,56.65392z" fill="#01930e" stroke-width="2"/><path d="M226.14379,117.54303c0,31.28909 34.55417,65.99472 18.93195,65.99472c-15.62222,0 -28.28655,-25.36483 -28.28655,-56.65392c0,-31.28909 9.3546,-40.62989 9.3546,-9.34079z" fill="#31525b" stroke-width="0"/></g><g data-paper-data="{&quot;index&quot;:null}"><path d="M412.36226,91.56696c0,17.15855 -44.07583,31.06829 -98.44613,31.06829c-54.37029,0 -98.44611,-13.90975 -98.44611,-31.06829c0,-17.15855 44.07582,-31.06828 98.44611,-31.06828c54.37029,0 98.44613,13.90974 98.44613,31.06829z" fill="#000000" stroke="none" stroke-width="NaN"/><path d="M411.58422,91.90145c0,17.15855 -44.07583,31.06829 -98.44613,31.06829c-54.37029,0 -98.44611,-13.90975 -98.44611,-31.06829c0,-17.15855 45.60241,8.59727 99.97269,8.59727c54.37029,0 96.91954,-25.7558 96.91954,-8.59727z" fill="#ff0000" stroke="#000000" stroke-width="2"/><path d="M405.84481,100.83677c0,4.72188 -38.7328,22.81539 -93.1031,21.42362c-19.02632,-0.48704 -36.97463,-2.07249 -51.60905,-4.94232c-27.16895,-5.32785 -43.84814,-13.66622 -41.36776,-17.63961c2.5618,-4.10379 40.1331,16.3981 94.50339,16.3981c54.37029,0 91.57652,-19.96168 91.57652,-15.2398z" fill="#900056" stroke="#000000" stroke-width="0"/></g><path d="M365.20616,161.93025c0,15.27039 -3.0958,27.64949 -6.91468,27.64949c-3.81889,0 -6.91468,-12.3791 -6.91468,-27.64948c0,-15.27039 3.09581,-8.17663 6.91468,-8.17663c3.81889,0 6.91468,-7.09375 6.91468,8.17664z" data-paper-data="{&quot;index&quot;:null}" fill="#000000" stroke="none" stroke-width="0"/><path d="M384.74438,151.67923c0,15.2093 -2.93287,27.53888 -6.55075,27.53888c-3.61789,0 -6.55075,-12.32958 -6.55075,-27.53888c0,-15.2093 2.93287,-17.80246 6.55075,-17.80246c3.61789,0 6.55075,2.59315 6.55075,17.80246z" data-paper-data="{&quot;index&quot;:null}" fill="#000000" stroke="none" stroke-width="0"/><g data-paper-data="{&quot;index&quot;:null}" stroke="#000000"><path d="M237.90467,311.50477l-16.47533,-44.21129l51.45702,-15.9384l16.47533,44.21129z" fill="#ffcaa0" stroke-width="2"/><g><path d="M221.32254,267.51154l-22.71768,-60.96253l52.12771,-16.14613l22.71768,60.96253z" fill="#0000c0" stroke-width="2"/><path d="M222.14567,267.47461l-11.89884,-31.93037c0,0 20.53549,8.43362 29.18937,5.75316c8.20517,-2.54149 21.45944,-21.44121 21.45944,-21.44121l11.89885,31.93038c0,0 -16.6589,5.15996 -25.05499,7.76058c-8.48589,2.62844 -25.5938,7.92748 -25.5938,7.92748z" fill="#56006b" stroke-width="0"/></g><path d="M238.51588,310.75694l-16.47533,-44.21129l24.36762,25.87653l43.56474,2.39637z" fill="#ff6e5b" stroke-width="0"/></g><path d="M335.63329,174.08164c0,5.82539 -2.39068,10.54779 -5.33974,10.54779c-2.94906,0 -5.33974,-4.7224 -5.33974,-10.54779c0,-5.82539 2.39068,-10.54779 5.33974,-10.54779c2.94906,0 5.33974,4.7224 5.33974,10.54779z" fill="#000000" stroke="none" stroke-width="0"/></g></g></svg>