<svg version="1.1" xmlns="http://www.w3.org/2000/svg" xmlns:xlink="http://www.w3.org/1999/xlink" width="275.24753" height="299.55195" viewBox="0,0,275.24753,299.55195"><defs><radialGradient cx="257.37555" cy="276.38524" r="15.79693" gradientUnits="userSpaceOnUse" id="color-1"><stop offset="0" stop-color="#1e202b"/><stop offset="1" stop-color="#1e202b" stop-opacity="0"/></radialGradient></defs><g transform="translate(-102.37623,-30.22402)"><g data-paper-data="{&quot;isPaintingLayer&quot;:true}" fill-rule="nonzero" stroke-linecap="butt" stroke-linejoin="miter" stroke-miterlimit="10" stroke-dasharray="" stroke-dashoffset="0" style="mix-blend-mode: normal"><path d="M102.37624,329.77598v-299.55195h275.24753v299.55195z" fill="none" stroke="none" stroke-width="0"/><g><path d="M182.00137,296.6621c5.44564,-4.35835 11.33164,-9.06727 12.15497,-10.43285c0.73872,-1.22525 1.47531,-2.62751 2.4283,-4.17776c3.355,-5.45757 7.93669,-12.74915 11.8783,-20.60768c0.89383,-1.78207 1.51379,-3.71251 2.35489,-5.52908c0.62456,-1.34889 0.94583,-2.21759 1.48785,-3.57918c0.38922,-0.97772 0.37726,-1.34056 0.73548,-2.3148c0.30739,-0.836 1.24387,-2.77661 1.53502,-3.60432c1.24086,-3.52758 2.36205,-6.95577 3.59967,-10.07962c3.70484,-9.35131 5.48565,-17.06845 5.48565,-17.06845l28.06219,-4.88091c0,0 -3.50137,15.19187 -9.00244,28.91577c-1.33849,3.33922 -3.81522,7.36572 -5.63578,10.29988c-0.91367,1.47256 -1.71069,2.76352 -2.42452,3.82714c-0.42799,0.63771 -0.93518,1.08859 -1.1147,1.74167c-0.75498,2.74654 -0.24909,6.2646 -0.385,10.43583c-0.23177,7.11286 -0.70504,14.87299 -0.70504,14.87299c0,0 -6.94261,8.90487 -7.07073,8.90453c-0.55402,-0.00151 -2.01042,-5.96713 -2.52088,-8.13279c-0.1132,-0.48028 -0.39736,-0.63262 -0.74428,-0.37976c-0.9468,0.69006 -2.85782,2.21285 -3.94449,3.97392c-0.77743,1.25992 -1.84904,4.74705 -2.51458,5.04003c-0.73032,0.32151 -1.62106,1.14578 -2.41207,1.48534c-3.14212,1.34882 -6.70283,2.60165 -10.41172,3.88897c-4.91938,1.70748 -10.09945,3.38221 -14.90921,4.50834c-7.55185,1.76815 -14.73809,1.54215 -15.82559,1.57586c-1.08112,0.03351 -0.85303,-0.0974 -0.23786,-0.58773c0,0 5.83945,-4.65619 10.13659,-8.09534z" fill="#1b1f25" stroke="#000000" stroke-width="1.5"/><path d="M250.23327,214.34649l25.67753,-3.5684c0,0 -0.5994,4.28698 -2.53319,10.73855c-1.70488,5.68785 -4.64609,13.00333 -6.31327,21.3215c-0.81336,4.05819 1.12729,8.64631 0.21771,12.88755c-0.64742,3.01884 -1.59306,3.24894 -2.88971,6.41893c-0.67717,1.65552 -1.17004,3.82926 -1.8864,6.05719c-0.98777,3.07206 -2.17018,6.24715 -2.76558,8.30866c-0.93135,3.22468 -0.30651,5.96838 -0.34942,8.53163c-0.09855,5.88522 13.13853,15.38951 15.07049,17.08149c0.19199,0.16813 0.39436,0.27038 0.28212,0.27456c-1.64228,0.06096 -5.74787,0.09319 -8.30191,-0.23289c-4.56937,-0.58339 -8.65528,-1.53404 -12.28167,-2.30677c-4.9856,-1.06237 -9.10272,-2.00752 -12.4137,-3.18997c-3.96627,-1.41648 -6.77573,-2.94809 -8.53554,-3.7018c-0.32054,-0.13728 0.06911,-5.73096 0.14629,-7.3056c0.07812,-1.59363 -0.90085,-1.18032 -0.90085,-1.18032c0,0 -0.43767,-5.4395 0.54959,-9.33447c0.6921,-2.73049 1.93065,-8.27663 4.20456,-14.85934c1.079,-3.12357 2.85127,-6.62115 4.14852,-10.02143c1.26908,-3.32646 2.32021,-6.55375 3.24471,-9.78517c4.09653,-14.31869 5.6297,-26.1339 5.6297,-26.1339z" fill="#1b1f25" stroke="#000000" stroke-width="1.5"/><path d="M242.10056,242.27807c0,0 -4.60426,0.90117 -4.69916,-0.30467c-0.31395,-3.98937 2.48484,-27.83238 2.48484,-27.83238h20.43983c0,0 -11.2096,26.91505 -13.07201,30.45351c-0.43733,0.83092 -2.42821,-1.00394 -2.42821,-1.00394c0,0 1.99413,-7.71104 1.19232,-7.71104c-1.05922,0 -1.76227,1.72437 -2.39861,3.06314c-0.75684,1.5923 -1.51901,3.33538 -1.51901,3.33538z" fill="#1b1f25" stroke="none" stroke-width="0"/><path d="M228.15876,283.9922c0.01573,-2.0295 1.67791,-9.84466 1.67791,-9.84466c0,0 0.79336,-11.28024 1.33268,-11.65736c0.33068,-0.23122 1.23283,2.47027 1.41798,4.76477c0.155,1.92076 0.05499,5.4269 -0.01577,5.66299c-0.02699,0.09004 -0.31079,1.78855 -0.27167,2.78224c0.02511,0.63794 0.33351,0.74428 0.4324,0.74428c0.43831,0 1.56736,-3.41441 2.43865,-6.50389c0.51691,-1.83287 1.08344,-3.76401 1.12533,-4.21935c0.1196,-1.29992 0.524,8.26227 0.524,8.26227l-0.76649,10.66419c0,0 -7.90527,0.66821 -7.89502,-0.65546z" fill="#1b1f25" stroke="none" stroke-width="0"/><path d="M241.57862,276.38524c0,-8.40338 7.07253,-15.21568 15.79693,-15.21568c2.33622,0 4.55291,-0.8207 6.54814,0.056c0.10923,0.048 -0.18032,0.86976 -0.57408,2.01675c-0.27269,0.7943 -0.55104,1.74456 -0.96411,2.70182c-0.49531,1.14779 -0.84736,2.88309 -1.45581,4.48565c-0.30471,0.80258 -0.71188,2.19295 -1.01975,3.42118c-0.05014,0.20003 -0.13882,0.50349 -0.24043,0.83199c-0.19632,0.63468 -0.38095,1.36279 -0.48903,1.61889c-1.49707,3.54786 0.22785,8.58906 -0.80052,9.70369c-0.11313,0.12262 0.54739,2.5381 1.37105,3.59182c0.60066,0.76843 2.04,1.98432 1.96549,1.99925c-1.04386,0.20916 -3.23265,0.00429 -4.34094,0.00429c-8.7244,0 -15.79693,-6.81229 -15.79693,-15.21568z" fill="url(#color-1)" stroke="none" stroke-width="0"/><path d="M263.56233,293.42511c0,0 -1.54748,-1.22802 -2.78411,-2.63401c-0.80151,-0.91128 -1.35708,-1.89588 -1.8495,-2.75423c-0.14197,-0.24747 -0.93745,0.02629 -1.02742,-0.36367c-0.26175,-1.13453 -0.17972,-2.94064 0.04466,-4.83909c0.23258,-1.96801 0.5713,-4.03523 0.84086,-5.55637c0.24446,-1.37949 0.68755,-2.80208 0.68755,-2.80208l3.32148,-6.23446c0,0 -1.46603,8.2878 -1.66279,9.42656c-0.13149,0.76097 -0.18143,1.83097 -0.36058,2.71808c-0.22158,1.0972 -0.55059,2.04501 -0.40058,3.33616c0.22435,1.93114 1.81182,3.68708 2.23715,4.62005c0.9008,1.97586 1.71979,3.68851 1.71979,3.68851z" fill="#000000" stroke="none" stroke-width="0"/><path d="M216.70894,293.94078c0,0 -6.58298,2.44742 -6.88079,2.34765c-0.12867,-0.04311 1.19396,-1.06337 2.53753,-1.78581c1.32199,-0.71083 2.66427,-1.12435 2.66427,-1.12435c0,0 0.71224,-2.31229 1.97225,-4.28114c0.31612,-0.49397 0.52992,-1.09808 0.93539,-1.48473c0.92019,-0.87747 2.67163,-3.01876 4.57962,-4.13586c0.66069,-0.38681 0.99344,0.68151 1.42939,2.37274c0.70097,2.71923 1.42494,6.68524 1.42494,6.68524c0,0 -0.3058,1.39495 -1.20298,-0.32898c-1.11074,-2.13431 -1.18146,-6.21015 -2.14283,-6.21015c-0.90952,0 -1.79219,1.8779 -2.85805,3.7912c-1.19825,2.15093 -2.45875,4.15421 -2.45875,4.15421z" fill="#000000" stroke="none" stroke-width="0"/><path d="M225.0917,293.09701c0,0 -0.82646,-1.61455 -0.65511,-2.13449c0.08412,-0.25526 1.07359,0.71389 1.22499,0.39723c0.61347,-1.28314 1.73551,-3.00728 2.9496,-4.72136c1.28097,-1.8085 3.24493,-3.44925 4.14341,-4.06219c0.44053,-0.30053 0.99442,-0.28604 1.16967,0.00334c0.44503,0.73485 0.23252,2.25823 0.05682,3.9136c-0.21064,1.98448 -0.51314,4.08835 -0.74083,5.32104c-0.11449,0.6198 -0.2646,1.07191 -0.2646,1.07191c0,0 -0.65151,0.24759 -0.71879,-1.06219c-0.01627,-0.31673 -0.08721,-0.67368 -0.07632,-1.04501c0.04788,-1.63181 0.33959,-3.54085 -0.07514,-3.52974c-0.97997,0.02621 -3.39091,3.53439 -5.14169,5.40341c-0.84485,0.90191 -1.87198,0.44447 -1.87198,0.44447z" fill="#000000" stroke="none" stroke-width="0"/><path d="M232.98498,292.22543c0.12224,-0.43719 0.32373,-1.22474 0.43121,-1.74233c0.1779,-0.85677 0.95307,-5.63835 0.95307,-5.63835l1.74535,2.90842l8.76656,8.93618c0,0 -8.93856,-2.96853 -9.44086,-3.16072c-0.74787,-0.28614 -1.74247,-0.6667 -2.06055,-0.7884c-0.19667,-0.07525 -0.45577,-0.29667 -0.39478,-0.51482z" fill="#1b1f25" stroke="none" stroke-width="0"/><path d="M194.03292,286.65343c-0.65285,-0.10116 0.05713,-2.20915 1.1187,-3.97229c0.72328,-1.20128 2.2292,-2.94367 2.85069,-2.85418c0.34854,0.05019 0.39726,0.73767 0.29778,1.51809c-0.10087,0.79133 -0.35276,1.63167 -0.96504,2.52769c-0.68335,1.00002 -1.47753,1.95625 -2.21392,2.4408c-0.46381,0.30519 -1.07285,0.34228 -1.08821,0.3399z" fill="#000000" stroke="none" stroke-width="0"/><path d="M219.82565,281.37432c0,0 -0.40033,-0.99839 -1.40035,-2.34698c-0.45528,-0.61397 -1.0034,-1.3474 -1.52732,-1.96023c-0.69199,-0.80941 -1.34176,-1.46479 -1.6797,-1.91341c-0.17897,-0.23758 -0.19902,-0.46479 -0.18158,-0.49567c0.22344,-0.39604 3.07525,-1.37084 4.70451,-2.14157c0.61656,-0.29167 1.12539,-0.48925 1.15204,-0.70995c0.03608,-0.29875 -2.42464,-5.13747 -3.34965,-6.88334c-0.23193,-0.43775 -0.04265,-0.32375 0.26747,-0.44685c1.28025,-0.50823 4.82356,-1.94778 7.49672,-3.3468c1.61211,-0.84371 2.96784,-1.6148 3.20472,-2.26888c0.02036,-0.05621 -0.68979,-0.588 -1.50213,-1.1319c-0.78124,-0.52306 -1.8185,-1.24058 -2.73414,-1.9581c-0.83607,-0.65519 -1.47905,-1.38611 -2.07557,-1.89327c-0.60144,-0.51135 -1.19526,-0.62195 -1.10269,-0.83644c0.27598,-0.63952 2.131,-1.57628 3.70364,-2.26399c0.5929,-0.25927 2.25209,-1.0314 2.27903,-1.26136c0.01896,-0.16186 -0.70865,-0.57197 -1.70593,-1.16779c-0.28198,-0.16847 -0.65786,-0.28212 -0.95605,-0.4944c-2.18558,-1.55589 -4.80139,-3.85493 -4.66411,-4.52848c0.15967,-0.78338 0.66837,-1.53579 1.17758,-2.28169c0.75029,-1.09905 1.59376,-2.18397 2.07564,-3.33303c1.93331,-4.61003 3.07859,-8.82535 3.07859,-8.82535c0,0 0.6989,7.69603 1.44148,8.42531c0.66745,0.6555 1.71425,-0.26449 2.79089,-0.37453c1.27619,-0.13044 2.59431,-0.07596 3.3723,-0.15364c0.40219,-0.04016 0.66001,-0.17114 0.69307,-0.26435c0.2728,-0.76904 0.19088,-1.08253 -0.03223,-1.75717c-0.26822,-0.81107 -0.7405,-1.67352 -1.04579,-2.1894c-0.17174,-0.29021 -0.31423,-0.38702 0.07027,-0.51384c0.75901,-0.25034 2.42509,-0.7309 4.21884,-1.37503c1.66266,-0.59706 3.55904,-1.44044 5.60131,-2.23067c1.97467,-0.76406 4.09086,-1.47351 5.96983,-2.14594c2.26379,-0.81015 4.29737,-1.21198 5.71334,-1.70739c0.6155,-0.21534 1.11429,-0.57122 1.46456,-0.78105c0.33887,-0.203 -2.1534,-2.33131 -3.18259,-3.1898c-0.26322,-0.21956 -0.71072,-0.49903 -0.39056,-0.61095c1.13489,-0.39673 4.35567,-1.27895 5.90319,-1.79228c1.50531,-0.49933 4.40161,-1.45376 5.64669,-1.85223c0.40096,-0.12831 0.32941,0.02158 0.04566,0.27982c-0.65602,0.59707 -1.97173,1.75838 -3.49055,2.90133c-1.61861,1.21805 -3.81898,2.48288 -3.8288,2.66172c-0.02486,0.45225 6.64477,0.01886 6.64324,0.65791c-0.00001,0.00482 -0.53218,0.67744 -1.91215,1.37613c-1.18454,0.59975 -2.81826,1.19404 -4.65549,2.00158c-2.50847,1.10258 -5.39632,2.47182 -8.0383,3.59058c-6.24802,2.64573 -11.60404,4.12849 -11.61802,4.46821c-0.01811,0.43989 2.39176,2.3328 2.50536,2.94186c0.05177,0.27761 -1.33782,0.70331 -2.51006,1.32104c-3.34283,1.76153 -9.4036,4.54447 -10.14426,5.70388c-0.1186,0.18566 1.39777,0.42701 3.29801,0.7752c3.0889,0.566 7.19206,1.28998 6.9355,1.58972c-0.10534,0.12309 -2.73155,0.9409 -5.57378,2.04596c-1.88152,0.73153 -3.89025,1.48186 -5.48378,2.16269c-1.72113,0.73536 -2.95784,1.37703 -3.02671,1.47153c-0.1022,0.14025 1.90686,1.25314 4.04833,2.63506c2.64043,1.70389 5.52306,3.73799 5.39048,3.91268c-0.31245,0.41169 -2.47736,1.82628 -4.93739,3.22359c-3.46322,1.96712 -7.51133,4.04867 -7.79927,4.54619c-0.20003,0.34561 6.11345,6.90706 5.89555,6.87804c-0.39531,-0.05265 -1.75531,0.71927 -3.1412,1.23092c-1.12471,0.41522 -2.2128,0.52978 -3.24501,0.92577c-1.09095,0.41852 -1.94384,0.72852 -2.16474,0.72327c-0.17157,-0.00409 0.53719,1.26206 0.99738,2.02649c0.9313,1.54699 1.31466,2.95135 1.31466,2.95135z" fill="#2b263c" stroke="none" stroke-width="0"/><path d="M245.07422,286.38249c0.32541,-0.29744 0.67655,-0.74024 1.1784,-1.13106c1.44563,-1.12581 3.4667,-2.47071 4.75532,-3.45555c0.77942,-0.59567 1.39826,-1.10765 1.44466,-1.22281c0.20672,-0.51307 0.04139,-1.61442 -0.23747,-2.10131c-0.29263,-0.51094 -0.81439,-1.2746 -1.53041,-2.0209c-0.60003,-0.6254 -1.35987,-1.21604 -2.00925,-1.85353c-1.00366,-0.98527 -1.93122,-1.90155 -2.36528,-2.49098c-0.20191,-0.27418 -0.29996,-0.62628 -0.25323,-0.72639c0.01958,-0.04194 0.20411,-0.32386 0.64526,-0.5282c0.34643,-0.16046 0.95983,-0.20048 1.49402,-0.42859c0.68438,-0.29225 1.4968,-0.64467 2.37047,-1.06914c0.8666,-0.42103 1.79344,-0.95549 2.71539,-1.43045c1.22128,-0.62917 2.43394,-1.2868 3.48648,-1.92292c1.68835,-1.02038 3.02979,-2.17347 3.23057,-2.76627c0.40245,-1.18822 0.73632,-2.35488 0.97415,-3.48407c0.09557,-0.4538 -0.13666,-1.80747 -0.06931,-2.24227c0.01589,-0.10259 -4.25989,0.01198 -4.24476,-0.07453c0.11859,-0.67783 3.0499,-2.08792 3.13165,-2.71091c0.03029,-0.23084 -0.34572,-0.27013 -0.73057,-0.3773c-0.66493,-0.18515 -1.51232,-0.42257 -1.46054,-1.1176c0.04825,-0.6477 1.52092,-0.43589 1.6121,-0.81496c0.0264,-0.10974 -1.32653,-1.64453 -3.15911,-3.24023c-1.45509,-1.26699 -3.29975,-2.51641 -4.3758,-3.51988c-0.77005,-0.71811 -1.26727,-1.43709 -1.24008,-1.49347c0.02701,-0.05602 0.57067,-0.38059 1.41459,-1.09924c0.54119,-0.46085 1.83479,-0.42003 2.56588,-1.04082c1.5189,-1.28975 3.2127,-2.92827 4.66391,-4.3922c0.79354,-0.8005 1.67179,-1.47307 2.25201,-2.08359c0.4597,-0.48371 0.6738,-0.95666 0.9228,-1.22485c0.22519,-0.24254 0.27463,-0.47094 0.518,-0.26587c0.55797,0.47012 1.78929,1.5316 2.29579,1.92911c0.19061,0.1496 1.03654,0.5224 1.23111,0.64481c0.30924,0.19455 -0.20993,0.23294 -0.46229,0.46255c-0.40816,0.37138 -1.10273,1.00432 -1.94249,1.77338c-0.43585,0.39916 -0.91079,0.98642 -1.4051,1.44139c-1.31829,1.21335 -2.77425,2.23105 -3.99336,3.35143c-0.31856,0.29277 -0.72436,0.47271 -1.03378,0.70923c-0.46985,0.35913 -0.82014,0.74984 -1.11579,1.08348c-0.47236,0.53307 -0.82908,0.6758 -0.81747,0.73265c0.0438,0.2146 0.51206,0.75073 0.87946,0.87638c1.19628,0.4091 3.8237,0.55584 6.03079,1.15786c1.48807,0.40589 2.84278,1.38661 3.31785,2.17514c0.04876,0.08094 -0.34512,0.21531 -0.93597,0.59251c-0.97337,0.62141 -2.40268,1.62731 -3.34655,2.2819c-0.5466,0.37909 -0.98266,0.59002 -0.93757,0.67076c0.14429,0.25838 0.68512,0.21586 0.83598,0.47783c0.21826,0.37905 -0.97286,0.7621 -0.74422,1.14801c0.05196,0.0877 1.03038,0.58906 2.1007,0.95054c1.33568,0.45111 2.8145,0.69306 2.8145,0.69306c0,0 -0.0065,1.16624 -1.21735,3.17446c-0.57632,0.95584 -1.06064,2.16099 -2.62723,3.41272c-0.59999,0.47941 -1.38432,0.91221 -2.16102,1.43421c-1.94819,1.30931 -4.26444,2.77905 -6.55816,4.01051c-1.36811,0.73452 -2.85538,1.33547 -3.8804,1.90184c-0.83552,0.46166 -1.33755,0.92574 -1.4336,1.21239c-0.16841,0.50256 1.45656,1.53776 3.55596,2.54173c1.6881,0.80729 3.71073,1.56761 5.1432,2.21801c1.22275,0.55518 2.2831,0.66424 2.23001,0.99602c-0.06273,0.39197 -3.60561,1.15661 -3.34756,1.87044c0.04486,0.12413 0.3438,0.18438 0.6304,0.32816c0.71606,0.35922 1.84599,0.76724 1.68806,1.16145c-0.05952,0.14855 -0.52632,0.32169 -1.10772,0.74304c-0.8591,0.62261 -2.3318,1.44465 -3.55621,2.29429c-1.08579,0.75345 -1.92599,1.54478 -2.72018,1.99714c-0.30752,0.17516 -0.84827,0.20567 -1.148,0.39561c-0.22081,0.13993 0.16179,0.44791 0.57836,0.87459c0.80382,0.82335 2.56484,2.11241 4.61411,3.49386c0.75005,0.50563 1.53874,0.79648 2.33322,1.30856c0.58384,0.37631 1.17082,0.97658 1.74793,1.33924c1.91667,1.20442 3.7244,2.29343 4.94638,3.00096c0.94017,0.54435 1.99368,0.79836 1.99368,0.79836c0,0 -2.05493,-0.17528 -5.01917,-1.10726c-1.20043,-0.37742 -2.61572,-0.81564 -4.00208,-1.51477c-3.15456,-1.62811 -6.41831,-3.81978 -8.72811,-5.51194c-1.27531,-0.93428 -2.1812,-1.79202 -2.69594,-2.24281c-0.18628,-0.16313 -0.64695,-0.30901 -0.48861,-0.55145c0.06902,-0.10567 0.63773,-0.29104 0.75861,-0.40152z" fill="#2b263c" stroke="none" stroke-width="0"/></g><g><path d="M271.91717,176.1242c0,0 5.34237,-14.81296 5.34237,-19.86695c0,-3.25107 -0.83475,-8.18051 -0.83475,-8.18051l3.33898,0.50085c0,0 4.45118,1.54111 12.24945,14.4852c2.20677,3.66294 4.77937,12.39362 4.77937,12.39362z" fill="#2b263c" stroke="#000000" stroke-width="2"/><path d="M278.98288,174.80114c0,0 -5.03128,3.87487 -5.18922,2.10999c-0.27873,-3.11476 4.29113,-12.9943 4.67899,-15.5704c0.29283,-1.94491 -1.47848,-7.48052 -0.45715,-9.42421c0.68977,-1.3127 4.33777,0.49923 4.33777,0.49923c0,0 3.10773,2.87157 4.37983,4.4637c1.13928,1.4259 3.3214,4.22241 3.3214,4.22241c0,0 -4.60942,3.53054 -4.74035,5.05603c-0.04559,0.53121 4.00573,2.53599 3.95665,3.08456c-0.15295,1.7095 -0.2345,3.40932 -0.68284,3.79713c-0.7101,0.61423 -2.96456,0.48628 -2.96456,0.48628z" fill="#1b1f25" stroke="none" stroke-width="0"/></g><g><g><path d="M227.46982,150.30093c0,0 0.93473,-2.71971 0.98861,-10.04637c0.02365,-3.21546 -0.30267,-7.83812 -0.24133,-11.59849c0.04449,-2.7269 1.10879,-7.94737 1.27755,-10.72109c0.22781,-3.74443 4.50573,-8.01955 4.50573,-8.01955c0,0 22.78407,2.40717 28.66893,7.14095c2.50425,2.01442 4.67657,19.87168 4.67657,19.87168c0,0 6.49948,9.75902 9.09918,13.84341c3.32814,5.22888 3.70216,16.52647 3.70216,16.52647c0,0 0.60537,8.82404 -1.14053,19.76494c-1.11719,7.00097 -1.48916,20.16247 -1.99868,20.74074c-3.46385,3.93115 -9.33125,2.80745 -14.26175,3.50324c-10.36637,1.46292 -20.62948,0.8617 -24.04969,1.25128c-4.11999,0.46929 -11.22673,-62.25722 -11.22673,-62.25722z" fill="#ffc6ef" stroke="#000000" stroke-width="2"/><path d="M231.85961,150.86238c0,0 -2.55551,-9.87258 -2.68629,-18.71346c-0.06243,-4.22091 1.24637,-10.90904 1.23589,-14.31977c-0.00552,-1.79813 3.04996,-5.72764 3.04996,-5.72764l25.63512,14.74948c0,0 3.5461,9.13217 -0.09471,12.79642c-1.89492,1.90712 -10.89093,0.03962 -16.6556,-0.99704c-2.86524,-0.51526 -3.4322,-0.85624 -3.4322,-0.85624c0,0 0.88692,2.46134 1.81891,4.38854c0.93035,1.92383 1.90516,4.31234 2.59083,5.68492c1.20195,2.40615 3.38183,6.5241 3.38183,6.5241c0,0 6.33276,14.1431 5.81326,13.96439c-1.98707,-0.68354 -20.65701,-17.49373 -20.65701,-17.49373z" fill="#d396fc" stroke="none" stroke-width="0"/><path d="M279.81019,161.6546c0,0 -3.52698,-9.04723 -3.55912,-9.09049c-3.63675,-4.89421 -14.74973,-19.48568 -14.74973,-19.48568c0,0 9.21148,3.25932 13.36943,5.64687c1.51763,0.87145 3.49938,2.44615 5.40576,3.46071c1.7748,0.94453 3.4708,1.81659 5.01778,2.74547c0.67688,0.40643 1.31037,0.89451 1.87959,1.25822c1.03673,0.66245 1.8602,1.50384 2.34406,1.85898c0.56385,0.41384 0.86871,0.96518 0.82517,1.00811c-0.70497,0.69521 -2.02299,2.32477 -2.80518,3.31968c-1.63684,2.08198 -7.72775,9.27811 -7.72775,9.27811z" fill="#2b263c" stroke="#000000" stroke-width="2"/><path d="M262.9549,139.96839l-2.66995,-2.03683c0,0 3.73831,0.54342 3.95,0.85495c0.39484,0.58106 0.78431,1.92829 1.42881,2.86593c0.57306,0.83371 1.11956,1.62126 1.41673,2.02987c0.40987,0.56357 1.06998,1.20256 1.06998,1.20256c0,0 -0.34719,-0.05724 -0.75268,-0.35621c-0.91036,-0.6712 -2.40612,-1.99329 -2.9958,-2.59414c-0.57577,-0.58668 -1.44708,-1.96615 -1.44708,-1.96615z" fill="#000000" stroke="none" stroke-width="0"/><path d="M258.38973,168.15421c0,0 -1.10083,-1.70653 0.32314,-3.42581c0.32741,-0.39532 1.26076,-1.44052 1.49854,-1.78506c0.2172,-0.3147 -0.09822,-0.05976 -0.42607,-0.39216c-0.23613,-0.23943 -0.91366,-0.68749 -1.15563,-0.84394c-0.48761,-0.31528 -2.02439,-0.99776 -2.6825,-1.29734c-0.35048,-0.15954 -0.19508,0.1065 -0.01216,-0.09429c0.31919,-0.35036 1.66888,-1.89253 2.3118,-2.59823c0.30681,-0.33678 0.77305,-0.62612 0.37818,-0.99991c-0.29829,-0.28238 -1.18221,-0.83198 -1.59298,-1.201c-1.13196,-1.01694 -2.20353,-1.99917 -2.80442,-2.72388c-0.42737,-0.51543 -1.34195,-1.51549 -1.5379,-2.06627c-0.17518,-0.49239 -0.45935,-0.76052 0.04859,-0.77614c0.95227,-0.02931 3.42166,-0.12275 5.10291,-0.4179c2.13766,-0.37528 4.21305,-0.97215 5.76196,-1.54033c2.72039,-0.99792 7.49147,-4.19514 9.03749,-5.2551c0.3173,-0.21755 0.53924,-0.20489 0.41112,0.40397c-0.06635,0.31524 -2.80763,5.6839 -3.18443,6.71039c-0.17427,0.47476 -0.53872,1.70315 -0.60039,2.15108c-0.04964,0.36046 0.08263,0.2165 0.41419,0.09567c1.27805,-0.46577 2.51261,-1.8029 6.31994,-1.99706c1.29499,-0.08364 2.4009,-0.04512 3.0825,-0.00041c0.46105,0.03024 0.56763,0.20551 0.31648,0.4505c-0.69207,0.67505 -2.40793,2.34988 -3.22699,3.85921c-1.68752,3.85908 -5.86237,18.16888 -5.86237,18.16888z" fill="#696f96" stroke="#000000" stroke-width="1.5"/><path d="M257.58151,167.26921l3.43302,-4.30559c0,0 -0.81171,-0.89152 -1.41814,-1.30717c-0.77634,-0.53211 -2.85735,-1.62332 -2.85735,-1.62332l2.95379,-3.08846c0,0 -2.50128,-2.13863 -3.58533,-3.28215c-0.9486,-1.00064 -2.66803,-2.8144 -2.66803,-2.8144c0,0 3.30904,-0.31288 4.93711,-0.65003c1.53149,-0.31715 4.55926,-1.31657 4.55926,-1.31657c0,0 -1.34762,1.31515 -2.10201,1.85962c-0.72806,0.52547 -2.55017,1.35227 -2.55017,1.35227c0,0 1.58324,1.36997 2.55738,1.84988c0.49108,0.24193 1.4916,0.50855 2.29471,0.74658c1.32045,0.39135 2.45139,0.90209 2.45139,0.90209c0,0 -1.43458,1.04194 -2.15861,1.66104c-0.80937,0.69207 -2.87426,2.6902 -2.87426,2.6902c0,0 2.66291,-0.98888 3.60919,-1.13432c0.90596,-0.13923 2.45788,-0.21214 2.45788,-0.21214c0,0 -2.47544,4.00876 -0.83925,6.94892c1.15476,2.07505 3.21527,5.95177 3.21527,5.95177z" fill="#4a5c6f" stroke="none" stroke-width="0"/></g><path d="M235.48889,214.03495l18.92821,-22.20558l23.10651,-8.53638c0,0 0.83787,15.95347 0.66611,20.35565c-0.07446,1.90867 -1.67808,5.58179 -1.67808,5.58179z" fill="#d396fc" stroke="none" stroke-width="0"/><path d="M253.14686,210.57701c0,0 3.75441,-3.59085 5.33171,-5.17455c0.97508,-0.97904 2.88083,-3.07685 3.60665,-3.85088c0.21082,-0.22483 0.08234,0.10365 -0.01504,0.39025c-0.20335,0.59853 -0.51917,1.59191 -0.53043,2.01886c-0.00549,0.20812 -0.0725,1.10154 -0.04165,1.34303c0.00932,0.07307 0.49071,0.11691 0.9663,0.03777c0.55063,-0.09162 1.21001,-0.63851 1.48985,-0.71356c0.55567,-0.14906 -2.03879,0.52253 -1.84706,0.45339c0.62674,-0.22599 1.64536,-0.62001 2.58898,-0.84796c0.34641,-0.08368 0.76217,-0.06763 1.03142,-0.12296c0.93781,-0.1927 3.20188,-0.50157 4.15402,-0.56003c0.37926,-0.02329 0.01844,0.22984 -0.21073,0.51498c-0.30368,0.37785 -0.75414,0.9479 -1.20713,1.55609c-0.76765,1.03066 -1.99558,4.59041 -2.41249,4.76243c-2.53868,1.04747 -12.90438,0.19316 -12.90438,0.19316z" fill="#4a5c6f" stroke="#000000" stroke-width="1"/><path d="M232.75816,218.97974l6.52071,-8.84969c0,0 3.13963,-0.46139 5.97275,-0.77849c1.60028,-0.17912 4.84298,-0.41002 8.17945,-0.8588c2.75578,-0.37068 5.45878,-0.94679 8.38511,-1.26289c0.83896,-0.09062 1.66767,-0.26552 2.47796,-0.3459c3.44831,-0.34211 6.56291,-0.50225 8.71328,-0.66033c1.86757,-0.13728 3.00787,-0.20556 3.00787,-0.20556l-1.10209,6.8831c0,0 -2.80311,0.59788 -6.78868,1.12661c-2.82178,0.37434 -6.37371,0.58026 -9.33402,1.10772c-3.51972,0.62715 -4.50663,1.46511 -7.83542,2.03553c-0.66816,0.1145 -0.95229,0.58297 -1.58201,0.68934c-0.30779,0.052 -0.97776,-0.25467 -1.27454,-0.20497c-2.19932,0.36831 -4.07971,0.67066 -5.39688,0.86058c-3.43287,0.495 -9.94348,0.46375 -9.94348,0.46375z" fill="#000000" stroke="none" stroke-width="0"/><g><path d="M274.29961,219.94629c0,0 0.38126,-2.72866 0.64809,-4.34314c0.3739,-2.26237 0.92349,-5.09746 1.18546,-7.71996c0.30035,-3.00669 0.21006,-5.73391 -0.00322,-6.99829c-0.12709,-0.75345 -0.1848,-1.71699 -0.41714,-2.75288c-0.41625,-1.85594 -1.11395,-3.94416 -1.7912,-5.47262c-1.98019,-4.46895 -4.54697,-7.25148 -4.54697,-7.25148c0,0 7.27471,-2.78681 11.25799,1.3537c0.65047,0.67615 1.45724,6.55851 1.33443,7.7383c-0.19266,1.85085 -0.49755,3.62319 -0.71904,5.02445c-0.64477,4.0791 -3.14938,11.69733 -4.99322,16.38851c-0.91663,2.33213 -1.95517,4.03341 -1.95517,4.03341z" fill="#2b263c" stroke="#000000" stroke-width="1.5"/><path d="M276.82524,200.64903c0,0 -0.74143,-5.13469 -1.93628,-7.5414c-0.59745,-1.20342 -1.61691,-3.53649 -2.68056,-5.24845c-0.54877,-0.88325 -1.36187,-1.71421 -1.8823,-2.45023c-1.29433,-1.83055 -2.08799,-3.07386 -2.08799,-3.07386l11.49161,-0.49164c0,0 0.98655,6.16522 1.45838,9.90231c0.18779,1.4874 0.06149,2.59016 0.04749,2.76646c-0.16574,2.08706 -0.49562,4.41607 -0.49562,4.41607c0,0 -1.32914,0.57013 -1.94492,0.8912c-0.55693,0.2904 -1.96981,0.82957 -1.96981,0.82957z" fill="#1b1f25" stroke="none" stroke-width="0"/></g><g><path d="M216.68562,237.13696c-0.01331,-0.45485 0.39407,-1.31908 0.66979,-2.48364c0.37279,-1.57459 0.71402,-3.69825 1.41203,-6.10144c1.22471,-4.21664 2.77022,-9.29387 4.00566,-13.77572c0.52894,-1.91887 0.69226,-4.95025 0.77545,-6.66103c0.19654,-4.04126 0.12246,-8.45356 0.12246,-8.45356l33.46457,-7.74348c0,0 -1.77554,2.09714 -4.4083,5.47606c-0.34874,0.44758 -3.3434,3.93934 -3.90734,4.37987c-0.37185,0.29047 1.6693,-2.48249 1.4044,-2.15886c-0.36459,0.44541 2.06202,-1.76055 1.91221,-1.25549c-0.11546,0.38928 -2.78673,3.48675 -3.10738,3.86335c-1.19711,1.40592 -2.6257,3.27076 -3.98422,4.822c-2.26482,2.58612 -4.68585,5.32553 -7.03619,8.05592c-2.0236,2.35082 -4.17641,4.69496 -6.13165,6.92885c-1.85995,2.125 -3.51324,4.36717 -5.29026,6.17372c-1.88817,1.91955 -3.88345,3.37897 -5.27105,4.79659c-0.46339,0.47342 -1.90716,1.20919 -2.72339,2.03046c-1.25779,1.26556 -1.89337,2.56516 -1.90679,2.10639z" fill="#2b263c" stroke="#000000" stroke-width="1.5"/><path d="M217.85695,235.31032v-1.72078c0,0 0.42357,-0.24582 0.75769,-0.24582c0.43747,0 1.64166,0.24582 1.64166,0.24582v1.22912z" fill="#000000" stroke="none" stroke-width="0"/><path d="M223.54474,214.41105c0,0 0.51323,-4.65052 0.82721,-7.04444c0.16157,-1.23193 -0.06573,-3.13777 -0.09515,-5.00625c-0.04616,-2.9318 0.02562,-5.77161 0.02562,-5.77161l31.44407,-3.56445c0,0 -1.52586,1.51319 -3.54139,3.69495c-0.27698,0.29981 -0.48652,1.1438 -0.97328,1.50728c-0.65679,0.49043 -1.61104,0.87824 -1.96337,1.30756c-0.38619,0.47059 -0.48855,1.8864 -0.79349,2.25803c-2.66292,3.24529 -8.00851,9.42323 -8.00851,9.42323c0,0 -0.97079,0.95168 -2.69061,2.09178c-0.73221,0.4854 -1.55442,0.7814 -2.41053,1.33972c-0.87188,0.56863 -1.77895,1.4002 -2.66192,1.96087c-2.76012,1.75265 -5.28484,3.2604 -5.76425,3.23478c-0.49962,-0.0267 -3.39442,-5.43143 -3.39442,-5.43143z" fill="#1b1f25" stroke="none" stroke-width="0"/></g><path d="M257.6216,198.23161c0,0 4.3665,-2.07184 5.99728,-2.91039c1.24126,-0.63826 3.44771,-1.52195 3.44771,-1.52195c0,0 1.24783,0.76225 1.885,0.81618c0.65537,0.05546 1.82553,0.00462 1.82553,0.00462c0,0 0.08851,1.28892 -0.2188,3.08357c-0.23564,1.37614 -1.29914,3.8112 -1.29914,3.8112z" fill="#ffc6ef" stroke="none" stroke-width="0"/><path d="M250.57531,215.22533c-0.16359,-0.26964 0.1334,-0.48241 0.18965,-1.02718c0.03732,-0.36139 0.18567,-0.7772 0.24406,-1.18619c0.09858,-0.6904 0.11071,-1.3614 0.13692,-1.71846c0.03223,-0.43914 0.00473,-1.1302 0.43532,-1.19193c0.44758,-0.06417 1.11471,-0.30866 2.49836,-0.49789c1.33836,-0.18305 2.94449,-0.10357 4.41628,-0.26668c0.99975,-0.11079 1.9375,-0.43642 2.68725,-0.56908c1.02519,-0.18139 1.69887,-0.1575 1.69887,-0.1575c0,0 -0.56592,1.10889 -0.73758,1.76432c-0.21603,0.8249 -0.45636,2.7946 -0.45636,2.7946c0,0 -1.20916,0.26827 -2.5278,0.64508c-0.98853,0.28246 -1.99835,0.66509 -2.82724,0.82643c-0.77499,0.15085 -1.99086,0.1389 -3.08951,0.26631c-0.35171,0.04079 -0.78325,0.03123 -1.09263,0.10599c-0.3209,0.07754 -0.51733,0.23902 -0.75254,0.25644c-0.39419,0.0292 -0.65945,0.22539 -0.82304,-0.04425z" fill="#fead41" stroke="none" stroke-width="0"/></g><text transform="translate(229.06744,108.26785) scale(0.07561,0.07561)" font-size="40" xml:space="preserve" fill="#000000" fill-rule="nonzero" stroke="none" stroke-width="1" stroke-linecap="butt" stroke-linejoin="miter" stroke-miterlimit="10" stroke-dasharray="" stroke-dashoffset="0" font-family="Sans Serif" font-weight="normal" text-anchor="start" style="mix-blend-mode: normal"><tspan x="0" dy="0">sus</tspan></text><g><path d="M227.84604,207.51795c-0.57231,-0.57563 -1.22092,-1.24927 -2.0788,-2.18181c-3.65625,-3.9744 -9.50844,-10.82589 -13.19502,-15.9895c-3.23595,-4.53246 -7.85314,-12.63373 -11.96627,-19.39602c-2.0617,-3.38958 -4.58773,-6.17331 -5.95012,-8.26985c-0.53631,-0.82533 -0.91957,-1.6395 -1.17888,-2.12975c-0.30538,-0.57737 -0.61893,-0.84063 -0.14403,-1.42824c0.44197,-0.54684 1.79819,-1.84054 2.60629,-2.69853c2.52581,-2.68173 6.73572,-6.59255 11.97833,-10.03905c3.98351,-2.61875 8.65102,-5.08771 12.2522,-6.73773c3.42195,-1.56789 5.88097,-2.38299 5.88097,-2.38299c0,0 12.38909,11.93961 15.22889,19.72535c3.8941,10.67623 5.98808,38.44406 5.98808,38.44406c0,0 -5.86675,6.34763 -8.9403,8.49299c-1.22929,0.85805 -2.6673,2.22902 -4.29262,3.23297c-1.23614,0.76356 -2.69981,1.19743 -3.56751,1.71637c-0.85477,0.5112 -1.82423,0.441 -2.51128,-0.25002z" fill="#2b263c" stroke="#000000" stroke-width="2"/><path d="M230.13092,203.71445c-0.26183,-0.54229 2.3691,-1.202 3.16021,-1.71871c1.00035,-0.65337 2.2544,-1.68401 3.03458,-2.35067c0.57329,-0.48988 1.1434,-1.44913 1.84257,-2.17228c0.97075,-1.00402 1.87901,-2.24924 1.87901,-2.24924l3.05374,1.18866c0,0 -2.38321,2.09989 -3.88259,2.95217c-0.90047,0.51185 -2.48253,1.29606 -3.90872,1.94784c-0.65469,0.29919 -1.26824,0.56069 -1.79416,0.84c-0.96833,0.51429 -2.9247,2.5148 -3.38462,1.56224z" fill="#2b263c" stroke="#000000" stroke-width="1.5"/><path d="M228.24837,207.23543c-2.1988,-2.5118 -8.83431,-10.12996 -12.21925,-14.9041c-1.85958,-2.62277 -4.34941,-5.98677 -7.12646,-10.20191c-2.58128,-3.918 -5.17053,-8.17683 -7.54199,-11.91457c-3.70105,-5.83335 -6.66655,-10.39533 -6.66655,-10.39533c0,0 1.13179,-1.03533 2.75578,-2.15247c1.94118,-1.33535 4.52502,-2.84727 5.8938,-3.66129c1.78761,-1.06311 5.01217,-2.31098 5.01217,-2.31098c0,0 7.67194,10.76735 12.42763,17.41292c2.17952,3.04565 5.47409,7.64514 9.00433,12.57229c2.59476,3.62151 5.77809,6.29084 8.64859,8.18551c1.06918,0.70572 2.63578,1.34984 2.63578,1.34984l-1.49469,3.49431c0,0 -1.12454,1.79286 -1.93942,2.74301c-0.99316,1.15801 -2.5378,2.7692 -3.845,3.74098c-0.30828,0.22919 -0.61971,0.45946 -0.91699,0.67997c-0.61202,0.45395 -1.02512,0.35365 -1.36646,0.62999c-0.25094,0.20316 -0.32557,0.71906 -0.28881,0.73733c0.17346,0.08612 -0.21029,0.32382 0.87529,-0.08698c1.44382,-0.54638 3.60595,-1.39895 5.63323,-2.50913c1.98593,-1.08754 3.83371,-2.49323 5.45555,-3.59c0.4215,-0.28503 1.12134,-0.88554 1.12134,-0.88554c0,0 -5.27877,-1.73212 -5.0634,-2.00512c0.26153,-0.33152 -0.80845,-3.26977 1.0726,-3.27884c0.63372,-0.00305 5.88878,2.87815 5.88878,2.87815l1.11618,0.21186c0,0 -2.03955,3.09185 -4.17277,4.98357c-3.83126,3.3975 -10.89832,7.10916 -13.45496,8.40151c-0.60261,0.30462 -0.95548,0.43346 -1.44427,-0.12489z" fill="#1b1f25" stroke="none" stroke-width="0"/></g><path d="M237.96223,194.31494l-2.73346,-15.40587l27.30361,-5.39215l20.38037,10.40658c0,0 -8.34614,4.13829 -11.80146,5.65891c-2.35874,1.03803 -4.89476,1.99967 -7.57004,2.95915c-3.3137,1.18844 -6.59822,2.69432 -8.50897,3.24545c-2.82385,0.8145 -7.33696,2.28941 -10.40963,1.86911c-7.17209,-0.98105 -6.66041,-3.34117 -6.66041,-3.34117z" fill="#1b1f25" stroke="#000000" stroke-width="1.5"/><g><path d="M219.16892,155.36287c0,0 -0.09187,-2.32656 0.2887,-3.95729c0.76312,-3.26996 3.85048,-13.60546 3.85048,-13.60546l2.89065,-2.06829c0,0 13.32271,21.86809 13.88716,26.89907c0.51359,4.57776 -10.63858,2.05579 -10.63858,2.05579l1.66796,-5.884c0,0 -2.41569,-1.59279 -4.74254,-2.11264c-2.90557,-0.64916 -7.20383,-1.3272 -7.20383,-1.3272z" fill="#1b1f25" stroke="none" stroke-width="0"/><path d="M236.15645,154.75328c-1.08798,-0.15905 -3.49313,-0.49015 -5.5266,-0.93431c-2.82318,-0.61665 -5.66682,-1.37142 -6.41831,-1.54009c-0.36686,-0.08234 -0.35471,-0.62283 -0.29686,-1.47359c0.02324,-0.34173 0.05682,-0.74407 0.10529,-1.20052c0.15385,-1.4488 0.5061,-3.48501 0.79166,-5.5081c0.38231,-2.70865 0.62694,-5.7004 1.08019,-7.82487c0.22998,-1.078 0.22361,-1.85599 0.41098,-2.42545c0.18206,-0.55334 1.43709,0.05577 1.55899,0.13591c2.17842,1.43233 6.8241,5.32676 12.86306,13.58701c3.63683,4.97454 10.0192,15.49374 10.0192,15.49374c0,0 0.06655,7.88849 -0.689,8.98585c-1.7872,2.59573 -13.42456,-2.56732 -16.46335,-4.0468c-0.47789,-0.23267 -0.33666,-0.76119 -0.20145,-1.24528c0.0699,-0.25027 0.15465,-0.55368 0.25088,-0.89825c0.07896,-0.28272 1.50584,-1.01 1.59843,-1.34157c0.12238,-0.43821 -1.44305,1.0335 -1.30435,0.53678c0.88174,-3.15778 2.36514,-8.71997 2.63948,-9.70971c0.1327,-0.4787 0.06963,-0.51942 -0.41824,-0.59075z" fill="#2b263c" stroke="#000000" stroke-width="2"/><path d="M234.4613,166.58583c0.07414,-0.24747 0.9509,-1.30268 1.04793,-1.64242c0.11886,-0.4162 -0.29886,-1.12017 -0.15372,-1.63057c0.25482,-0.89606 0.30531,-0.91628 0.60346,-1.89551c0.90094,-2.95898 1.69061,-6.52095 1.51286,-7.08701c-0.12747,-0.40588 -12.92592,-2.46627 -12.89778,-2.84368c0.22154,-2.9719 1.06366,-7.76687 1.59222,-11.31031c0.46829,-3.13919 0.64857,-5.6648 0.64857,-5.6648l1.43018,0.90106c0,0 0.6582,11.26209 0.81067,13.05483c0.03832,0.45054 0.07606,0.95204 0.45541,1.0778c1.14876,0.3808 8.15582,2.53704 10.71989,3.3884c0.69715,0.23147 0.50711,0.52465 0.38928,0.97634c-0.60535,2.32053 -2.45765,9.49578 -2.39283,10.1645c0.08961,0.9245 11.40593,2.73415 11.40593,2.73415c0,0 0.71795,4.86982 -0.65084,5.21268c-0.42196,0.1057 -3.05204,-0.18532 -5.68533,-0.99463c-3.52345,-1.08286 -7.32019,-2.83789 -8.40733,-3.35892c-0.44304,-0.21234 -0.60825,-0.48222 -0.42859,-1.08195z" fill="#1b1f25" stroke="none" stroke-width="0"/><path d="M228.34349,165.29256c-0.20149,-0.23367 0.78501,-1.84587 0.92572,-2.11021c0.5426,-1.01928 1.57595,-3.43922 2.3064,-4.78245c0.34866,-0.64114 0.70428,-0.95948 0.76235,-0.90818c0.36855,0.32554 -1.9414,6.24408 -1.87189,6.51786c0.04072,0.16036 0.82968,0.13056 1.65225,0.15855c0.92611,0.03152 1.89528,0.10989 1.89528,0.10989l-0.73472,2.16005c0,0 -4.71878,-0.89432 -4.9354,-1.14552z" fill="#000000" stroke="none" stroke-width="0"/></g><g><path d="M265.24404,173.26489c0,0 1.47344,-4.09785 2.22769,-6.06726c0.51551,-1.34605 1.30383,-2.93541 1.76288,-4.11929c0.20495,-0.52855 0.3211,-1.15328 0.41328,-1.39037c0.14107,-0.36282 -0.5815,-1.21556 0.06585,-2.2522c0.15736,-0.25199 0.75997,-0.94067 1.67457,-1.67718c1.20961,-0.97407 2.52036,-2.09434 3.02871,-2.17994c1.12576,-0.18956 2.63128,-0.20648 3.71004,0.15774c0.8012,0.27051 1.36699,1.08619 1.36699,1.08619c0,0 2.04651,-0.26481 2.72569,-0.24666c0.09542,0.00255 1.56579,-0.25401 2.40807,1.99739c0.18783,0.50206 1.02302,1.38943 1.98285,2.11745c1.08312,0.82154 2.22701,1.57228 2.4594,2.29986c0.09582,0.3 0.34557,0.63416 0.30202,1.11562c-0.08911,0.98494 -0.91715,2.18821 -0.91715,2.18821c0,0 0.62421,0.15804 0.82272,0.58568c0.10104,0.21766 0.11451,0.50515 0.15724,0.8772c0.04708,0.40989 0.22909,2.58435 -0.68493,2.78119c-1.02283,0.22027 -5.38358,-0.15179 -5.68125,0.07455c-0.15656,0.11904 -1.74108,3.74892 -2.50691,4.60032c-2.02503,2.25131 -3.94275,3.1765 -3.94275,3.1765z" fill="#d396fc" stroke="#000000" stroke-width="1.5"/><path d="M288.27288,166.76966c0,0 -0.73314,0.60807 -1.54118,1.14979c-0.51875,0.34777 -1.02315,0.71341 -1.53359,0.72392c-1.11264,0.02291 -2.27232,-1.7044 -2.99055,-1.70459c-0.98703,-0.00026 -2.01681,1.49356 -2.85002,1.38625c-0.90767,-0.11691 -1.60665,-1.97634 -1.89623,-2.21306c-0.12791,-0.10457 1.46547,-1.7915 3.44078,-2.1c1.97937,-0.30913 4.64834,0.68322 4.50064,0.55446c-0.91247,-0.79544 -2.00154,-2.5012 -3.20605,-3.0455c-0.64704,-0.29239 -1.62104,0.36836 -2.67038,0.70409c-0.56787,0.18169 -1.22154,0.13689 -1.5159,-0.00492c-0.19016,-0.09161 -0.40161,-0.62473 -0.66333,-1.012c-0.18511,-0.27391 -0.43382,-0.43642 -0.54808,-0.48798c-0.89636,-0.40446 -1.57502,0.16963 -1.67341,0.12383c-1.90344,-0.88593 -3.69885,-2.0743 -3.69885,-2.0743c0,0 2.67514,-2.55689 3.10183,-2.63772c0.32694,-0.06193 1.6594,-0.28199 2.56061,0.09393c0.7804,0.32552 1.14122,1.25188 1.41824,1.23878c0.59684,-0.02822 0.91213,0.07394 1.54392,0.00548c0.20931,-0.02268 0.69389,-0.05431 1.17554,-0.10629c0.50649,-0.05466 1.0179,-0.12368 1.5435,0.1124c0.32858,0.14759 0.47767,0.58454 0.74565,0.91284c0.3031,0.37132 0.63841,0.72352 0.83862,1.07972c0.19575,0.34827 1.4779,1.46824 1.69946,1.80511c0.17396,0.2645 0.41147,0.32134 0.67201,0.5074c0.7095,0.50669 1.58974,0.98457 1.82227,1.71538c0.21729,0.6829 -0.11828,1.36189 -0.21024,1.97507c-0.10569,0.70478 -0.06527,1.29791 -0.06527,1.29791z" fill="#ffc6ef" stroke="none" stroke-width="0"/><path d="M271.81135,163.30811c-0.16701,-0.12412 -0.03628,-0.40055 -0.00113,-0.85806c0.02292,-0.29826 0.10329,-0.41001 0.26002,-0.76215c0.18991,-0.42668 0.54019,-0.95546 0.85316,-1.4315c0.24586,-0.37396 0.36231,-0.91671 0.63577,-1.32005c0.34496,-0.50879 0.43105,-1.65893 0.86756,-2.01286c0.60012,-0.48658 1.09749,-0.19849 1.835,-0.30676c0.36999,-0.05432 1.05588,-0.32703 1.42501,-0.35936c0.41199,-0.03609 -0.36363,-1.19718 -0.03102,-1.18855c0.21518,0.00558 0.89791,0.02578 1.5942,0.23778c0.70076,0.21336 1.41525,0.61901 1.68066,0.77622c0.57125,0.33837 -0.65769,0.3022 -0.65769,0.3022c0,0 -0.10194,0.78258 -0.30072,1.19435c-0.12772,0.26456 -0.23774,0.57488 -0.23774,0.57488c0,0 0.27916,0.09623 1.38833,-0.04844c0.30277,-0.03949 0.69273,0.04845 0.99907,-0.01505c0.52436,-0.10869 0.95218,-0.36419 1.35224,-0.31435c1.33747,0.16663 1.09712,1.379 0.91555,1.58502c-0.0929,0.10541 -2.99728,0.5771 -4.32052,0.66421c-1.91563,0.1261 -2.45625,-0.13235 -2.56884,0.04959c-0.16286,0.26318 -0.392,0.48556 -0.55017,0.8023c-0.2958,0.59238 -0.61239,1.24574 -1.0582,1.83782c-0.58026,0.77064 -1.23506,1.39426 -1.67425,2.09667c-0.69917,1.11818 -0.48294,2.23063 -0.63987,2.21156c-0.0544,-0.00661 -0.45184,-0.38765 -0.58688,-1.01209c-0.06245,-0.28876 -0.12926,-0.69004 0.02849,-1.02182c0.3995,-0.84022 0.93977,-1.94461 1.49505,-3.02331c0.62344,-1.21111 1.26581,-2.38983 1.74914,-3.12591c0.38941,-0.59305 0.9274,-0.58402 0.8579,-0.5871c-0.41082,-0.01818 -0.83994,-0.01173 -1.22338,0.04464c-0.304,0.04469 -0.56567,0.12529 -0.74655,0.25662c-0.08648,0.06278 -0.34348,0.32115 -0.57961,0.78803c-0.4559,0.90143 -1.04377,2.37035 -1.647,3.23873c-0.57024,0.8209 -0.9787,0.82699 -1.11359,0.72674z" fill="#000000" stroke="none" stroke-width="0"/><path d="M275.13392,170.24645c0.02055,-0.22764 0.13898,-0.44709 0.22044,-0.80111c0.05271,-0.22909 0.12213,-0.55924 0.21341,-0.83362c0.11818,-0.35522 0.18503,-0.8228 0.35963,-1.24238c0.24804,-0.59608 0.13834,-1.95044 0.63395,-2.46434c0.71664,-0.7431 3.23757,-1.67901 4.17306,-1.82763c0.3631,-0.05768 0.75566,0.06734 1.15384,0.06706c0.72546,-0.00053 1.46957,-0.06019 2.08814,0.12661c0.70047,0.21153 1.22842,0.59697 1.76678,0.91996c0.53586,0.32149 1.08273,0.5804 1.51547,0.84923c0.72716,0.45174 1.245,0.65252 1.245,0.65252c0,0 1.00486,1.18533 1.30446,2.48009c0.17831,0.77057 0.09402,1.41642 0.10762,1.51617c0.00822,0.06029 0.0878,1.47833 -0.66611,1.71392c-0.46449,0.14515 -4.48829,0.37204 -6.21661,0.02787c-0.82457,-0.1642 -0.11661,-0.93369 -0.13974,-1.01495c-0.06658,-0.23398 3.46598,-0.08519 5.33899,-0.4152c0.88133,-0.15528 0.91608,-0.71603 0.91541,-0.92263c-0.00288,-0.89462 -0.41325,-1.69296 -0.41325,-1.69296c0,0 -1.61205,-0.49137 -3.05462,-1.19585c-1.10363,-0.53896 -2.05568,-1.26266 -2.75618,-1.51693c-0.27853,-0.1011 -0.45254,-0.06323 -0.67925,-0.00877c-0.13374,0.03213 -0.52372,-0.06292 -0.82126,0.01554c-0.66089,0.17427 -1.5217,0.93315 -2.31727,1.24627c-0.57063,0.22458 -0.99122,0.1496 -1.26099,0.35082c-0.10066,0.07507 -0.30428,1.4468 -0.9613,2.52051c-0.44987,0.73518 -1.01265,1.34579 -1.40751,1.68473c-0.21471,0.18431 -0.37253,0.10192 -0.34213,-0.23494z" fill="#000000" stroke="none" stroke-width="0"/></g><g><path d="M261.4842,182.27978l-2.87899,-16.08796c0,0 1.85394,-0.20322 3.85599,0.51191c2.43805,0.87086 5.27155,2.70949 8.48,4.03917c0.92029,0.3814 1.89873,0.7976 2.75389,1.20688c1.83895,0.88015 3.46116,1.81532 4.59601,2.28029c0.53581,0.21953 1.648,0.60166 1.93661,0.60675c1.00585,0.01772 2.40139,-0.41186 5.22594,-0.91391c0.70857,-0.12594 5.10388,3.40479 5.86798,3.13971c0.85174,-0.29548 3.63862,-4.68474 4.0111,-5.02911c1.96723,-1.81886 -0.91534,-4.12452 -0.34519,-3.93012c3.44309,1.17401 8.83144,3.4135 11.61519,4.93315c2.49203,1.3604 3.39595,2.08151 2.69626,3.79326c-1.05573,2.5828 -2.06209,3.98735 -2.8205,5.01948c-2.12834,2.89645 -5.5361,6.33016 -8.3151,9.06496c-1.01182,0.99574 -2.39841,2.46989 -3.57706,3.69659c-0.60365,0.62827 -1.06319,1.28643 -1.57579,1.58543c-1.04092,0.6072 -1.20235,0.24426 -2.15548,-0.05085c-1.4817,-0.45876 -3.38965,-1.96638 -5.30835,-2.76764c-5.85262,-2.44409 -12.92683,-5.5957 -17.92797,-7.9343c-3.55258,-1.66124 -6.13455,-3.16369 -6.13455,-3.16369z" fill="#2b263c" stroke="#000000" stroke-width="2"/><path d="M279.63048,180.31359l-2.00382,-4.30846c0,0 6.0423,-1.77271 8.91116,-2.61719c0.61561,-0.18121 1.30249,0.85248 2.98758,0.10234c1.71161,-0.76195 2.16534,-3.96455 2.16534,-3.96455c0,0 0.40042,-2.18589 1.35965,-2.37587c0.27221,-0.05392 2.00297,1.72988 2.26872,1.8742c2.0975,1.13921 4.88535,1.97889 4.88535,1.97889l0.1677,9.89814z" fill="#2b263c" stroke="none" stroke-width="0"/><path d="M262.31789,181.93945l-1.77398,-7.66869c0,0 4.59646,1.49686 6.93608,2.61943c2.33616,1.12091 5.26946,2.57267 8.16264,3.91259c2.63133,1.21865 5.22806,2.2455 6.84164,3.0078c3.56937,1.68625 8.9259,4.3989 8.9259,4.3989c0,0 2.73809,-2.1209 5.47653,-4.09299c1.29993,-0.93614 2.57258,-1.8677 3.49914,-2.57939c1.37207,-1.05387 3.19217,-2.54036 4.79571,-3.88307c0.0677,-0.05668 0.65419,-0.07553 1.30599,-0.50146c0.84259,-0.55059 1.7872,-1.52989 1.7872,-1.52989c0,0 1.38026,0.01607 -0.931,3.42156c-1.1434,1.68472 -3.30469,4.57907 -5.76657,7.27023c-2.16443,2.36601 -4.58794,4.51744 -6.38715,6.3455c-1.90738,1.93797 -3.24291,3.1335 -3.24291,3.1335c0,0 -0.74615,-0.59642 -1.61815,-0.99757c-1.60456,-0.73816 -7.27888,-3.38576 -13.0716,-6.06693c-1.08734,-0.50327 -2.30733,-0.88633 -3.37688,-1.37956c-1.2743,-0.58767 -2.38894,-1.2808 -3.5567,-1.81562c-1.50606,-0.68975 -2.88677,-1.31811 -4.04727,-1.84006c-2.17665,-0.97895 -3.95864,-1.75433 -3.95864,-1.75433z" fill="#1b1f25" stroke="none" stroke-width="0"/><path d="M248.95749,176.14063l-5.71097,-4.85596c0,0 -1.061,-4.52013 -1.2859,-5.16321c-0.07557,-0.21609 -0.70898,-2.8666 -0.36924,-3.28518c0.57695,-0.71084 2.15787,-1.54888 4.86202,-1.57484c5.66208,-0.05434 9.73297,1.46309 9.73297,1.46309c0,0 2.91826,2.92131 4.83225,6.43974c0.35703,0.65633 0.93523,1.52085 1.23552,2.31714c0.11931,0.3164 0.14031,0.68529 0.20937,0.93079c0.29997,1.06626 0.64594,2.38246 0.76687,3.72534c0.32058,3.55957 -0.0132,7.33282 -0.0132,7.33282z" fill="#afcad3" stroke="#000000" stroke-width="1.5"/><path d="M248.3571,164.73439c0,0 0.93941,-2.68379 2.50511,-3.02397c0.98246,-0.21347 2.9671,-0.35746 4.82917,0.94047c1.36181,0.94921 2.36634,2.29097 3.47819,4.04584c0.63774,1.00656 1.48379,2.56446 0.94381,3.96444c-0.48751,1.26392 -1.89843,2.1683 -2.84233,1.69754c-0.86333,-0.43059 -2.71111,-2.04874 -3.89796,-3.09713c-0.5498,-0.48567 -0.76932,-2.28089 -1.31801,-2.76315c-0.70894,-0.6231 -1.36231,-1.02646 -1.91626,-1.28745c-1.07965,-0.50866 -1.7817,-0.47658 -1.7817,-0.47658z" fill="#afcad3" stroke="#000000" stroke-width="2"/><path d="M249.27981,164.76053c0,0 0.79647,-1.52289 1.68786,-2.05875c0.4158,-0.24996 1.53441,-0.31252 1.53441,-0.31252l6.47335,5.10841c0,0 2.15472,2.10521 0.07631,3.71824c-1.43519,1.11383 -2.69622,-0.72819 -3.34454,-1.26006c-1.78956,-1.46813 -4.07638,-4.10701 -4.71487,-4.60086c-0.47873,-0.37029 -1.71251,-0.59446 -1.71251,-0.59446z" fill="#afcad3" stroke="none" stroke-width="0"/><path d="M259.20849,168.86553c-0.47139,0.46163 -1.01401,0.46916 -1.53973,0.36674c-0.82834,-0.16136 -1.72229,-0.82686 -3.04969,-2.18235c-1.08297,-1.10586 -2.21264,-1.994 -2.68845,-2.82458c-0.22551,-0.39368 -0.59174,-1.25459 0.07176,-1.89292c0.47862,-0.46048 1.70804,-0.22016 2.25881,-0.01064c1.22423,0.46571 2.71326,1.38466 3.62363,2.3143c1.54317,1.5758 2.02334,2.3668 1.82284,3.16688c-0.08143,0.32492 -0.14851,0.71919 -0.49918,1.06258z" fill="#ffffff" stroke="#000000" stroke-width="1"/></g><g><g><path d="M235.61209,181.14583c1.4149,6.22941 -3.07155,13.37929 -9.67797,14.87981c-1.8337,0.41649 -3.73197,0.68038 -5.25757,0.25003c-2.1211,-0.59835 -3.96721,-2.04327 -5.32828,-3.98644c-0.65477,-0.9348 -1.15868,-2.04622 -1.59999,-3.11819c-0.35867,-0.87121 -0.51694,-1.8167 -0.73042,-2.75661c-1.4149,-6.22941 1.22765,-13.37069 7.8341,-14.8712c2.01221,-0.45703 3.89235,-0.88963 5.76297,-0.28675c2.04541,0.65919 4.05346,2.44193 5.5711,3.96989c1.6513,1.66253 2.91337,3.66209 3.42609,5.91947z" fill="#000000" stroke="#000000" stroke-width="1.5"/><path d="M234.52188,179.95779c1.0316,4.54191 -2.19373,6.822 -8.02821,8.1472c-5.83448,1.32519 -11.69961,0.15275 -12.73122,-4.38918c-0.51957,-2.28749 0.15933,-4.80467 1.62182,-6.96269c1.44134,-2.12682 3.6413,-3.90632 6.53728,-4.56409c5.83448,-1.32519 11.56873,3.22685 12.60034,7.76877z" fill="#485e84" stroke="none" stroke-width="0"/><path d="M228.17501,188.13329c0.98677,4.34445 0.11358,5.85356 -3.63844,6.70577c-0.51062,0.11598 -1.44467,0.33351 -2.56344,-0.0527c-1.14391,-0.39491 -2.4774,-1.17188 -3.65873,-1.97608c-1.09435,-0.74501 -1.98638,-1.51998 -2.59673,-2.24459c-0.67814,-0.80511 -0.98238,-1.44422 -1.21528,-2.05828c-0.18776,-0.49505 -0.42319,-0.95244 -0.51324,-1.5259c-0.26287,-1.6744 -0.26947,-3.58948 -0.26947,-3.58948c0,0 1.97264,0.25451 3.57564,-0.16448c0.93161,-0.2435 2.28459,-1.48253 2.28459,-1.48253c0,0 7.60834,2.04384 8.59509,6.38829z" fill="#343545" stroke="none" stroke-width="0"/><path d="M220.71268,174.24107c-0.72994,0.1658 -1.18076,0.17698 -1.51689,0.02888c-0.24255,-0.10687 -0.45654,-0.2896 -0.52492,-0.59058c-0.16311,-0.71809 2.7948,-1.38425 2.87479,-1.39745c0.33958,-0.05601 0.72299,1.1269 0.35239,1.50595c-0.23903,0.24448 -0.83697,0.37409 -1.1854,0.45323z" fill="#8fbbbe" stroke="none" stroke-width="0"/><path d="M217.85479,175.33341c0.06369,0.12591 -0.0251,0.26144 -0.10415,0.44733c-0.08596,0.20215 -0.17498,0.45465 -0.42315,0.5802c-0.47638,0.24098 -0.77069,0.17792 -0.90364,-0.08493c-0.13296,-0.26283 0.04137,-0.50601 0.51776,-0.747c0.47638,-0.24098 0.78023,-0.45843 0.91319,-0.19559z" fill="#8fbbbe" stroke="none" stroke-width="0"/><path d="M219.47837,193.832l-2.93142,-2.2641c0,0 -0.78898,-1.47949 -1.19419,-3.68378c-0.03795,-0.20643 -1.19835,-1.21221 -1.59238,-2.01095c-0.47006,-0.95288 -0.18439,-1.721 -0.20653,-1.99696c-0.01888,-0.23553 1.57589,2.08846 1.56938,1.84322c-0.02941,-1.1074 0.0777,-2.30708 0.41497,-3.53884c0.11478,-0.4192 0.23481,-0.89324 0.37522,-1.38554c0.05231,-0.18343 -0.81635,-0.96216 -1.20226,-1.61311c-0.36344,-0.61302 -0.24607,-1.09984 -0.18368,-1.27515c0.0379,-0.1065 0.6328,0.56232 1.16514,0.97011c0.37605,0.28806 0.73993,0.36814 0.77044,0.29453c0.19891,-0.47997 0.4333,-0.93921 0.71748,-1.34303c0.37625,-0.53464 0.69468,-0.64294 1.09129,-1.08739c0.15369,-0.1722 0.3435,-0.51306 0.4972,-0.7c0.0485,-0.05898 -0.39623,-0.42757 -0.75512,-0.87931c-0.48739,-0.6135 -0.8106,-1.45499 -0.74265,-1.53294c0.06134,-0.07038 0.60901,0.41632 1.14619,0.83986c0.5474,0.43159 1.08452,0.80026 1.15079,0.73638c0.11781,-0.11357 0.23934,-0.21852 0.36586,-0.31062c1.19893,-0.87281 2.58167,-1.4633 3.37096,-1.58002c0.24262,-0.03589 0.48147,-0.06774 0.71548,-0.09576c0.37064,-0.04439 -1.76205,-0.85027 -1.96294,-1.45311c-0.14832,-0.44507 1.59887,-0.7376 1.83157,-0.7476c0.11059,-0.00475 1.04672,1.01395 1.72409,1.61877c0.325,0.29018 0.63188,0.41931 0.6813,0.41841c0.68602,-0.01246 1.26765,0.08681 1.65768,0.14776c1.36216,0.21287 3.58795,2.14125 3.58795,2.14125c0,0 -1.17713,-0.75347 -2.92384,-1.21225c-0.5595,-0.14695 -1.27813,-0.30303 -1.96333,-0.33505c-0.19883,-0.0093 0.4547,0.99943 0.44655,1.39915c-0.00701,0.3436 -0.25998,0.28377 -0.43177,0.30383c-0.22508,0.02628 -1.56533,-1.59316 -1.81343,-1.55757c-0.54185,0.07771 -1.10064,0.20249 -1.66851,0.38359c-0.4317,0.1377 -1.45151,0.64369 -2.34671,1.28909c-0.16098,0.11608 -0.32121,0.23265 -0.47772,0.34696c-0.05747,0.04199 0.30883,0.27695 0.4176,0.65387c0.11522,0.39926 -0.02643,0.94152 -0.08445,0.98404c-0.14282,0.10466 -0.44559,-0.36346 -0.75928,-0.64416c-0.26001,-0.23266 -0.53941,-0.28802 -0.634,-0.22007c-0.22505,0.16166 -0.56544,0.25254 -0.69099,0.33005c-0.26592,0.16419 -0.27485,0.84356 -0.49892,1.05489c-0.3878,0.36577 -0.63198,0.86979 -0.88465,1.47814c-0.0339,0.08162 0.42763,0.55248 0.89877,0.83821c0.60616,0.36761 1.25934,0.56572 1.222,0.67903c-0.06153,0.18674 -0.78869,0.40798 -1.46125,0.35634c-0.58914,-0.04524 -1.13491,-0.36835 -1.1745,-0.19123c-0.50113,2.24217 -0.50038,4.81656 -0.39904,5.66459c0.00359,0.03004 0.30389,0.36129 0.55589,0.45176c0.52184,0.18733 1.2737,0.20629 1.81891,0.43706c0.64223,0.27184 0.55272,0.39699 0.70281,0.75591c0.0611,0.14615 -2.36885,0.27822 -2.30079,0.43301c0.07318,0.1664 -0.05888,0.38417 0.02109,0.55604c0.09776,0.21008 0.19136,0.88288 0.38412,1.29263c0.36865,0.7837 1.10686,1.38248 1.30355,1.77578c0.01244,0.02489 0.99553,0.19339 1.86283,0.21968c0.72655,0.02203 1.3624,-0.09731 1.36932,-0.0836c0.0307,0.06067 -0.44213,0.73954 -0.96745,0.82133c-0.66968,0.10428 -1.58464,0.2269 -1.58464,0.2269z" fill="#000000" stroke="none" stroke-width="0"/><path d="M238.71599,183.07289c1.07647,4.73939 -2.18399,9.52019 -7.28242,10.6782c-2.02336,0.45958 -3.99209,1.34219 -5.77288,0.88836c-2.7064,-0.68972 -5.12213,-3.40642 -5.77139,-6.26494c-0.34272,-1.50894 -0.07392,-3.51217 0.15145,-5.4291c0.17147,-1.45848 0.15243,-2.89677 0.708,-3.88505c0.38878,-0.6916 1.05991,-1.25207 1.67572,-1.75557c0.98031,-0.80151 2.29904,-1.30846 3.67489,-1.62095c1.7214,-0.39098 3.58117,-0.28091 5.35064,0.30498c3.47131,1.1494 6.553,3.94485 7.26602,7.08408z" fill="#000000" stroke="#000000" stroke-width="2"/><path d="M235.15969,183.36789c0.91744,4.03925 -2.04988,8.15662 -6.62771,9.19638c-2.58991,0.58825 -3.29667,1.60029 -5.04734,0.42445c-1.96826,-1.32198 -2.91738,-4.94045 -3.31578,-6.69451c-0.91744,-4.03925 2.2687,-9.30015 6.84652,-10.33992c4.57783,-1.03976 7.22688,3.37433 8.14431,7.41358z" fill="#485e84" stroke="none" stroke-width="0"/><path d="M224.7366,179.61668c0,0 -1.7246,-0.11674 -2.31706,-0.48c-0.50569,-0.31006 1.85048,-1.87515 1.85048,-1.87515l2.11851,1.50139z" fill="#8fbbbe" stroke="none" stroke-width="0"/><path d="M236.70968,182.36636c0.75026,3.30323 -2.13429,6.77432 -6.44283,7.75293c-4.30855,0.97861 -6.96759,-0.27627 -7.71784,-3.57947c-0.52068,-2.2924 0.36501,-5.17762 2.3471,-7.08661c0.87398,-0.84174 1.89687,-1.53418 3.21532,-1.83364c4.30855,-0.97861 7.84801,1.44358 8.59827,4.7468z" fill="#485e84" stroke="#000000" stroke-width="2"/></g><g><path d="M229.04847,197.09577c0,0 -1.3163,0.18251 -2.42585,-0.12968c-1.84453,-0.519 -2.30741,-2.25298 -2.30908,-4.22964c-0.00054,-0.64177 1.16728,-1.10264 1.13462,-1.73854c-0.0983,-1.91513 -2.1642,-2.75071 -1.42213,-4.72616c0.18791,-0.50021 0.65598,-0.66528 0.97292,-1.09922c0.57251,-0.78386 1.7012,-1.2945 2.47871,-1.9809c1.05819,-0.93415 1.73428,-2.29515 2.56415,-3.38336c1.41887,-1.86057 2.49703,-3.85072 3.48484,-5.57877c1.75843,-3.07613 2.94227,-5.50336 3.19812,-6.18439c0.14555,-0.38748 0.91214,-0.83675 1.43349,-0.98784c1.5106,-0.4378 4.54251,-1.43202 5.42121,-1.6867c0.46245,-0.13404 1.28205,0.02555 1.75983,0.39062c0.48874,0.37343 1.25526,0.78985 2.0176,1.48443c0.61827,0.56329 1.33689,1.09623 1.93869,1.78962c1.21884,1.40433 2.21829,3.05444 2.75304,4.06027c0.88538,1.66535 1.96749,4.73824 0.03934,7.16611c-1.27849,1.60983 -2.73188,2.55642 -3.27129,4.65043c-0.71937,2.79256 1.20567,7.30595 1.20567,7.30595c0,0 0.95245,1.53844 0.47093,3.49184c-0.12875,0.52225 -0.23652,1.15192 -0.63994,1.69687c-0.48249,0.65173 -1.81478,2.43865 -2.77869,2.9566c-0.6676,0.35874 -1.36163,-0.1275 -1.82946,-0.06423c-1.01051,0.13667 -1.42324,0.32109 -2.13131,0.46887c-0.69758,0.14557 -0.98393,-0.12236 -1.33888,-0.44667c-0.56795,-0.5189 -0.97351,-1.25893 -0.97351,-1.25893c0,0 -0.45018,0.57282 -1.00935,1.01699c-0.33525,0.26629 -0.8024,0.46359 -0.97601,0.52705c-0.4552,0.16637 -0.99384,0.13806 -1.43548,0.06808c-1.69751,-0.26894 -3.06052,-1.84532 -3.06052,-1.84532c0,0 -0.9218,0.44399 -1.7941,0.63673c-0.49463,0.10929 -1.00674,-0.00922 -1.24283,0.03008c-1.43887,0.23961 -2.23469,-2.40021 -2.23469,-2.40021z" fill="#ffc6ef" stroke="#000000" stroke-width="1.5"/><path d="M224.44521,193.08234c0,0 3.50668,-1.11115 4.15552,-2.58356c0.10615,-0.24085 0.3318,0.81298 1.22238,0.63012c1.93361,-0.397 3.37315,-1.1957 3.37216,-1.22994c-0.0094,-0.32761 -1.43566,-1.69351 -1.57009,-1.99152c-0.14198,-0.31473 -2.67421,0.33445 -2.833,0.05298c-0.21315,-0.37784 -0.44136,-0.71871 -0.68452,-1.00382c-0.69321,-0.81272 -1.99483,0.44837 -2.82736,0.7606c-0.5013,0.18799 -0.77029,-0.46154 -0.80962,-0.72208c-0.09496,-0.62919 4.63888,-4.67998 4.63888,-4.67998c0,0 0.79924,0.55988 1.67888,0.2885c0.40972,-0.12641 0.98014,-0.5229 1.43494,-1.03442c0.3984,-0.44808 0.6681,-1.00958 0.91239,-1.39822c0.22713,-0.36136 0.44311,-0.56647 0.44311,-0.56647c0,0 -0.61569,1.50077 -0.93204,2.41629c-0.39737,1.15004 -1.26503,3.94227 -1.26503,3.94227l0.14231,1.18687c0,0 1.98858,-0.13365 2.53268,-0.52522c0.29408,-0.21164 0.94899,-0.83625 1.4911,-1.48395c0.29712,-0.35499 0.70018,-0.36151 1.0145,-0.77083c0.50121,-0.65269 0.8954,-1.42074 1.29147,-2.06184c0.65475,-1.0598 1.17639,-1.85974 1.17639,-1.85974c0,0 -0.13432,0.65452 -0.30457,1.24471c-0.2904,1.00679 -1.55096,3.35055 -1.55096,3.35055c0,0 0.49911,2.87316 1.09094,3.07647c0.34619,0.11895 0.75165,0.07638 1.11313,0.04219c0.51332,-0.04856 1.06884,-0.11105 1.59966,-0.41788c0.39472,-0.22817 0.95016,-0.59708 1.1833,-1.05654c0.54656,-1.07713 0.36232,-2.58076 1.24518,-3.78713c0.64917,-0.88704 1.33126,-1.47669 2.10772,-1.90484c1.28969,-0.71114 2.69947,-1.06514 3.6203,-2.24581c1.28823,-1.6517 1.83362,-5.84351 1.83362,-5.84351c0,0 0.34405,0.41391 0.80688,1.45804c0.28557,0.64427 0.7643,1.77803 0.58158,3.32041c-0.04391,0.37055 -0.18242,0.89846 -0.4781,1.42322c-0.23757,0.42168 -0.60488,0.82351 -0.89199,1.27488c-0.27019,0.42476 -0.89988,0.80591 -0.95783,1.19907c-0.32933,2.23432 -0.13092,7.52167 -0.52231,9.44411c-0.067,0.32908 0.48751,3.10565 0.51441,3.87226c0.02222,0.63365 -0.36542,1.00101 -0.55617,1.53647c-0.54928,1.54181 -1.83533,2.57838 -2.71614,3.20958c-0.63449,0.45468 -0.71082,-0.1725 -1.24955,-0.12437c-1.02035,0.09115 -2.18643,0.32744 -2.62821,0.57374c-0.44688,0.24916 -0.81186,-0.59614 -1.22897,-1.07187c-0.25146,-0.28679 -0.57398,-0.47713 -0.85138,-0.3432c-0.77695,0.37512 -1.43781,0.96612 -2.22274,1.2712c-0.72019,0.27991 -1.64147,-0.17429 -2.11505,-0.44396c-0.89622,-0.51033 -1.40817,-1.41526 -1.92357,-1.23566c-1.09084,0.38008 -2.05504,1.02827 -3.00699,1.27263c-0.75658,0.19421 -1.93879,-2.66977 -2.56069,-2.52841c-1.07798,0.24503 -2.36089,-0.03491 -2.86844,0.02405c-1.07935,0.12539 -1.64808,-3.95639 -1.64808,-3.95639z" fill="#d396fc" stroke="none" stroke-width="0"/><path d="M232.72293,180.45305c-0.09015,-0.06633 -0.20199,-0.24787 -0.15572,-0.41734c0.0443,-0.16225 0.24018,-0.30927 0.44584,-0.51802c0.44511,-0.4518 1.37029,-0.91933 2.09832,-1.70426c0.17172,-0.18512 0.36118,-0.71984 0.61832,-1.1775c0.23188,-0.41269 0.46867,-0.73856 0.60049,-0.86848c0.53696,-0.52932 1.00498,-0.76881 1.00498,-0.76881c0,0 -0.19595,0.45482 -0.72408,1.28901c-0.19565,0.30904 -0.50594,0.63726 -0.75442,1.02896c-0.20876,0.32911 -0.33167,0.67387 -0.53216,1.00316c-0.10882,0.17872 -0.28634,0.36328 -0.40792,0.51447c-0.44255,0.55036 -0.86421,0.83619 -1.24468,1.17846c-0.42656,0.38373 -0.71317,0.61383 -0.94896,0.44033z" fill="#000000" stroke="none" stroke-width="0"/><path d="M238.20619,181.23169c-0.1886,-0.12929 0.06001,-0.82495 0.59754,-1.6685c0.36209,-0.56825 1.04367,-1.1407 1.50147,-1.79158c0.6728,-0.95657 0.94288,-1.75845 1.52702,-2.54449c0.36146,-0.48641 0.74908,-1.00382 1.0665,-1.33969c0.33344,-0.35282 0.58789,-0.51205 0.58789,-0.51205c0,0 -0.49483,0.85298 -1.09988,1.98654c-0.72894,1.36564 -1.64721,3.14517 -2.43967,4.41883c-0.32829,0.52761 -0.54814,1.01357 -0.78931,1.28868c-0.21418,0.24433 -0.88259,0.20955 -0.95154,0.16228z" fill="#000000" stroke="none" stroke-width="0"/><path d="M226.19529,192.67913c-0.17125,0.19751 -0.6061,0.37417 -0.84403,0.66247c-0.26299,0.31865 -0.24986,0.46185 -0.23073,0.7153c0.03202,0.42429 0.55529,1.09709 0.7329,1.20438c0.9414,0.5687 2.5853,1.3985 2.62767,1.45668c0.40149,0.55121 0.90684,1.00299 0.90684,1.00299c0,0 -2.03152,0.55418 -2.81655,0.34536c-0.72699,-0.19338 -2.07491,-1.57349 -2.3541,-2.1139c-0.201,-0.3891 0.61023,0.07984 0.45141,-0.24761c-0.74184,-1.52939 -1.13225,-3.21313 -1.1793,-3.34819c-0.04501,-0.12915 -0.54321,-0.68071 -0.88941,-1.38505c-0.46305,-0.94204 -0.80801,-2.12245 -0.91023,-2.59562c-0.11419,-0.52858 -0.24529,-1.16992 -0.27233,-1.80492c-0.05034,-1.18172 0.09949,-2.30509 0.2609,-2.38265c0.13962,-0.06708 0.78318,0.49663 1.14088,0.93431c0.17543,0.21466 1.61527,-1.61193 3.09288,-2.80109c1.41784,-1.14106 3.95744,-2.30349 4.11613,-2.06869c0.26951,0.39875 -4.33819,3.80679 -5.82949,5.55389c-0.72665,0.85128 0.04631,1.57834 0.04631,1.57834c0,0 0.87491,-0.05052 1.23717,-0.32334c0.5143,-0.38728 0.7305,-1.08887 1.4153,-1.66001c0.28251,-0.2356 0.59499,-0.38225 0.88,-0.56145c0.26224,-0.16485 0.49698,-0.37586 0.71353,-0.49012c0.37795,-0.1994 0.70568,-0.38184 0.77485,-0.31915c0.15473,0.14027 0.1415,0.7206 -0.21111,1.36971c-0.14394,0.26496 -0.31029,0.48704 -0.58577,0.66355c-0.33832,0.21676 -0.72092,0.44056 -1.01291,0.85248c-0.14053,0.19826 -0.51226,0.59062 -0.65242,0.79559c-0.38317,0.56039 -0.60041,1.0533 -0.79783,1.51129c-0.01568,0.03636 -0.13703,0.43485 -0.04766,0.85042c0.13124,0.61021 0.49143,1.3085 0.45741,1.3716c-0.33476,0.62091 0.18479,0.76618 -0.22033,1.2334z" fill="#000000" stroke="none" stroke-width="0"/><path d="M233.46594,198.48519c0,0 -0.56915,-0.94541 -1.30412,-1.82003c-0.68577,-0.81605 -2.48605,-2.18582 -3.66441,-3.48442c-0.86823,-0.95681 -1.32748,-1.94784 -1.32748,-1.94784c0,0 -0.49755,-1.00687 -0.17428,-1.55399c0.16677,-0.28225 0.2262,-0.58726 0.45613,-0.84988c0.90447,-1.03309 2.2863,-1.90905 3.26944,-3.08269c0.14743,-0.17601 0.2753,-1.16811 0.66647,-1.77597c0.40327,-0.62664 1.06855,-0.86663 1.11702,-0.85401c0.052,0.01355 -0.05071,0.7002 -0.27183,1.47167c-0.07187,0.25075 -0.21902,0.90229 -0.37453,1.45199c-0.06828,0.24137 0.13203,1.08207 0.0212,1.23759c-0.15695,0.22021 -0.2755,0.68479 -0.69959,1.0379c-0.60608,0.50465 -1.58672,0.93877 -2.07015,1.44521c-0.33008,0.34578 -0.4904,0.87308 -0.48161,0.97757c0.01216,0.14451 0.13791,0.54129 0.24714,0.6763c0.47281,0.58445 1.79298,1.05664 2.88769,2.06532c1.48261,1.3661 2.1286,2.30736 2.60812,3.20436c0.12364,0.2313 0.20057,0.60418 0.29938,0.81554c0.28682,0.61354 0.54768,1.47612 0.54768,1.47612c0,0 -1.33715,0.90505 -2.86236,1.24286c-0.72771,0.16118 -1.88058,0.13722 -2.22333,-0.01442c-0.92369,-0.40866 -1.55648,-1.9138 -1.71023,-2.83788c-0.07032,-0.42274 -0.18294,-0.63742 0.07521,-0.72304c0.05992,-0.01988 -0.7629,-1.45302 -1.66483,-2.51063c-0.829,-0.97209 -1.74362,-1.56964 -1.68925,-1.71597c0.02329,-0.06268 -0.41025,-2.46048 0.26027,-2.63797c0.48127,-0.12739 2.01256,1.84042 2.45178,2.21234c0.52378,0.44352 1.2996,2.78785 1.40844,3.19687c0.17072,0.64162 0.6794,1.51616 0.83616,1.73882c0.51442,0.7306 1.13664,1.51109 1.60682,1.76721c0.41483,0.22596 0.79228,0.06854 1.1101,-0.02635c0.37018,-0.11052 0.64896,-0.18257 0.64896,-0.18257z" fill="#000000" stroke="none" stroke-width="0"/><path d="M236.41028,189.47596c0,0 0.38008,0.00803 1.01013,0.11832c0.37131,0.06499 0.93173,0.11851 1.36195,0.21836c0.69535,0.16136 1.28889,0.49454 1.76567,0.6978c0.51254,0.21849 0.88465,0.30941 0.93864,0.54712c0.04653,0.20489 -0.57655,0.72997 -1.74836,1.05013c-0.58617,0.16016 -2.2724,0.49078 -3.38974,0.70424c-0.60957,0.11645 -1.46347,-0.11821 -1.46347,-0.11821c0,0 -0.48076,-0.10876 -0.34,-0.56027c0.21175,-0.67918 1.86516,-2.65748 1.86516,-2.65748z" fill="#ffc6ef" stroke="none" stroke-width="0"/><path d="M238.32945,200.9355c0,0 0.85096,-0.53707 1.2532,-1.22085c0.19647,-0.33398 0.33539,-0.7142 0.12015,-1.06221c-0.40759,-0.659 -1.06368,-1.69594 -1.76587,-2.21034c-0.63884,-0.468 -1.04918,-0.48158 -1.73313,-0.89182c-0.81386,-0.48815 -1.59261,-0.9563 -2.17674,-1.45416c-0.75095,-0.64004 -0.94619,-1.54308 -0.8517,-2.22589c0.10995,-0.79459 1.15156,-1.28193 1.66504,-2.25738c0.41096,-0.78072 0.87191,-1.63108 1.16589,-2.40894c0.37995,-1.00528 0.56816,-1.90927 0.9177,-2.59163c0.04331,-0.08455 0.82901,-1.35681 1.11382,-0.90641c0.01384,0.02188 -0.7235,1.15642 -0.70364,2.07096c0.01296,0.59691 0.05598,1.16082 0.13584,1.76788c0.06312,0.47965 0.1183,0.9249 -0.05988,1.56201c-0.30443,1.08858 -2.34157,3.08636 -2.21308,3.43865c0.3276,0.89824 3.06376,1.18261 3.71844,1.96975c0.63757,0.7666 1.18765,1.51667 1.65953,2.21124c0.61059,0.89873 0.89526,1.74886 1.26427,2.37727c0.50991,0.86836 1.02903,1.34791 1.02903,1.34791c0,0 -1.33375,-0.45706 -2.01505,-0.3844c-0.80945,0.08632 -2.52382,0.86838 -2.52382,0.86838z" fill="#000000" stroke="none" stroke-width="0"/><path d="M244.90806,194.3823c-0.15135,-0.1196 -0.01919,-0.63351 0.16618,-1.59645c0.06756,-0.35086 0.28567,-0.91253 0.29625,-1.32213c0.01139,-0.44089 0.17542,-0.85801 0.03273,-1.3622c-0.15168,-0.53592 -0.80543,-1.10825 -0.78325,-1.34021c0.026,-0.27202 0.57783,-0.49013 0.78917,-0.71111c0.26483,-0.27691 0.77351,-0.99897 0.77351,-0.99897c0,0 1.19524,-3.14791 3.24674,-5.39228c0.94779,-1.03689 2.76126,-1.79883 3.49928,-2.11565c0.13115,-0.05631 0.94023,3.96222 0.94823,4.01212c0.06293,0.39276 -7.41923,5.43641 -7.27619,5.77479c0.24896,0.58893 0.8277,0.61509 0.88469,0.91052c0.07636,0.39585 -0.53205,0.80571 -0.53205,0.80571c0,0 -0.28572,0.93007 -0.83239,1.87716c-0.4171,0.72261 -1.10959,1.54032 -1.21287,1.45869z" fill="#000000" stroke="none" stroke-width="0"/><path d="M246.34898,188.84763c0.12968,-1.50076 0.68918,-2.67072 0.9255,-3.46822c0.32968,-1.11263 1.86516,-2.37973 2.59941,-2.93495c0.239,-0.18072 0.56927,-0.28197 0.88144,-0.22625c0.39373,0.07028 1.00386,0.22272 1.74989,0.55285c1.57861,0.69854 3.72912,2.14956 4.73946,2.66934c0.97241,0.50024 2.23907,1.37991 2.84284,1.81152c0.21809,0.15591 0.32647,0.47605 0.28365,0.8191c-0.10105,0.80948 -0.31125,2.28914 -0.58307,3.09404c-0.1955,0.57893 -0.77035,1.53257 -1.14236,2.11966c-0.1948,0.30741 -0.54645,0.5619 -0.92288,0.62435c-1.4312,0.23747 -5.23245,0.69022 -8.73646,-0.43779c-0.82356,-0.26512 -0.62782,-1.39586 -1.02872,-2.17173c-0.55264,-1.06955 -1.66139,-1.84219 -1.60872,-2.4519z" fill="#485e84" stroke="#000000" stroke-width="2"/><path d="M260.46153,188.76008c-0.33708,0.83566 -1.00209,2.48404 -1.41684,3.51066c-0.17873,0.4424 -0.50993,0.99909 -0.93379,1.09535c-0.80189,0.18214 -1.56652,0.51844 -2.21827,0.28861c-0.19581,-0.06905 -0.0996,-0.00081 -0.22374,-0.20036c-0.3969,-0.63803 -0.60235,-2.18332 -0.44607,-3.02143c0.4007,-2.14875 0.74183,-2.93726 2.55501,-3.3491c1.19372,-0.27112 2.07011,0.31506 2.52959,0.74721c0.23844,0.22427 0.28354,0.60813 0.15409,0.92902z" fill="#343545" stroke="#000000" stroke-width="1"/></g></g><g><g><path d="M249.31227,140.19215c-0.36465,-0.0586 -2.33446,-1.91258 -3.54599,-2.66774c-0.90925,-0.56672 -1.69257,-2.20696 -3.03841,-3.12104c-0.90654,-0.6157 -1.09982,1.00867 -2.19128,0.25c-2.85143,-1.98198 -4.43082,-3.16282 -6.55668,-5.20659c-0.34423,-0.33093 -0.47946,-1.14376 -0.84802,-1.50916c-0.29029,-0.28779 -1.00581,-0.41385 -1.31788,-0.72808c-0.25598,-0.25776 -1.10151,-1.04121 -1.08929,-1.78416c0.01068,-0.64938 0.24106,-1.55643 0.30907,-2.6023c0.05707,-0.87761 -0.03437,-1.85962 -0.13262,-2.80437c-0.27071,-2.60351 -0.59317,-5.28661 -0.87871,-6.66304c-0.11605,-0.55942 -0.31706,-0.92069 -0.36431,-0.94551c-1.72937,-0.9083 -4.97795,2.13837 -6.27286,0.89812c-4.3991,-4.2134 -5.34613,-15.15745 -4.68083,-17.1913c0.52902,-1.61719 3.3915,1.19698 5.90359,1.81448c1.0115,0.39237 1.75474,0.2342 1.75474,0.2342c0,0 13.24048,-10.15172 21.608,-11.50853c8.69554,-1.41001 29.61902,3.20192 29.61902,3.20192c0,0 -0.56234,1.97848 -1.14476,3.85364c-0.25786,0.83018 -0.57012,1.63029 -0.73591,2.24961c-0.08048,0.30063 -0.45363,0.49502 -0.44208,0.69321c0.01122,0.19255 0.47247,0.46501 0.65906,0.70218c0.26813,0.34083 0.64477,0.74014 0.92134,1.23378c0.46201,0.82464 0.87113,1.76486 0.85268,1.91735c-0.25049,2.0697 -2.98747,5.4811 -3.16395,7.29463c-0.20133,2.06898 0.95008,1.07548 0.65386,2.77855c-1.31511,7.56109 -5.88382,20.03468 -5.86696,20.97106c-0.03704,1.10179 0.58466,2.70748 1.06175,4.67302c0.41432,1.70699 0.73264,3.50114 0.88385,4.52409c0.07765,0.5253 -0.36272,1.13789 -0.61205,1.24919c-0.28598,0.12764 -0.67846,0.25151 -1.30555,0.34257c-1.21884,0.17704 -2.19805,-0.40129 -3.50774,-0.4279c-2.75151,-0.05593 -5.82298,-0.04636 -8.85934,-0.46183c-3.45905,-0.47329 -6.41772,-1.05661 -7.61396,-1.24882z" fill="#ffc6ef" stroke="#000000" stroke-width="2"/><path d="M235.59453,107.07773l-1.11279,-18.09049l41.2207,3.3884l-1.31663,3.81553c0,0 -2.0864,1.35895 -3.3498,2.16859c-0.93184,0.59719 -1.2423,1.01103 -1.99591,1.51591c-0.25826,0.17301 -0.71075,0.24733 -1.06513,0.49187c-1.55236,1.07119 -2.30528,2.21109 -3.33456,2.40079c-0.45099,0.08311 2.75278,-4.78815 2.33215,-4.73974c-0.52366,0.06027 -0.94335,0.19221 -1.37713,0.16914c-2.5273,-0.13441 -7.19481,-1.78351 -10.14559,-2.67019c-1.65613,-0.49765 -2.69677,-0.48687 -2.69677,-0.48687c0,0 1.4236,3.10265 2.67016,5.35888c0.61105,1.10596 1.23418,2.08952 1.52017,2.24726c0.95397,0.52615 2.70513,0.40036 4.60139,1.13952c0.98217,0.38283 1.96262,1.81192 5.2504,1.28885c0.75149,-0.11955 1.4473,-0.29529 2.2071,-0.58955c1.26443,-0.48968 2.67536,-1.23257 3.6729,-1.68012c1.83836,-0.8248 2.97732,-1.03494 2.97732,-1.03494c0,0 -1.43061,2.27606 -1.54015,5.0275c-0.04473,1.12332 0.11212,2.16209 0.10026,3.15807c-0.00627,0.52471 -0.13635,1.08948 -0.20008,1.5356c-0.51879,3.63225 -3.46222,12.19478 -3.46222,12.19478c0,0 -1.50521,0.60039 -2.54074,1.33121c-1.47354,1.03998 -5.54893,4.29782 -5.54893,4.29782c0,0 0.66521,-3.02694 2.03356,-5.22079c1.16479,-1.86751 3.0125,-2.84257 3.53052,-3.93487c0.08406,-0.17722 0.72991,-0.77624 0.72991,-0.77624c0,0 -0.71226,-0.48964 -0.65931,-0.80734c0.19573,-1.17475 0.5422,-2.28509 0.5422,-2.28509l-3.08438,-8.94066l-4.08215,0.96194c0,0 -0.2151,4.12869 -0.20614,5.88425c0.01167,2.28786 0.76089,4.24322 0.76089,4.24322c0,0 -5.04574,-1.52197 -8.14462,-4.10761c-3.56857,-2.97751 -5.39687,-6.92111 -7.24067,-7.36617c-3.90022,-0.94146 -6.71938,-1.03981 -8.54829,-0.75251c-1.64714,0.25876 -2.49762,0.86406 -2.49762,0.86406z" fill="#d396fc" stroke="none" stroke-width="0"/><path d="M230.87448,126.39578l0.58388,-3.00258l2.54066,0.49405l-0.58388,3.00258z" fill="#000000" stroke="none" stroke-width="0"/><path d="M219.90055,102.08946c0,0 0.58155,-1.11917 1.53882,-1.09655c0.15534,0.00368 0.45076,0.07261 0.72462,0.26758c1.62841,1.15934 5.03738,5.21036 5.03738,5.21036c0,0 -0.23947,-1.99922 -0.27119,-2.94051c-0.02997,-0.88908 0.08581,-2.55954 0.08581,-2.55954l8.97681,13.89586l-0.61595,3.47575c0,0 0.40343,1.20259 1.55778,1.88439c0.67126,0.39646 3.89729,-3.93332 4.36336,-3.38067c0.34236,0.40598 0.72295,2.61602 0.70864,3.52366c-0.02151,1.36427 -2.14493,4.17791 -2.14493,4.17791l-0.94706,5.61104c0,0 0.45926,0.21714 0.90879,0.5208c0.66494,0.44918 2.49257,2.14357 4.7838,3.70697c1.59809,1.09046 3.32799,2.39679 4.87275,3.3662c0.51283,0.32182 1.68546,0.51315 2.14201,0.78352c1.62658,0.96328 3.02697,1.61092 3.02697,1.61092c0,0 -2.01924,-0.23543 -4.19455,-0.73471c-0.59526,-0.13663 -1.21176,-0.24392 -1.78793,-0.44266c-0.9285,-0.32027 -5.06301,-2.16436 -5.06301,-2.16436c0,0 -1.60851,0.59752 -2.52113,0.00458c-0.02756,-0.01792 -2.53549,-1.83003 -3.4029,-2.72322c-0.11653,-0.11999 -0.5283,-1.16778 -1.34684,-2.39232c-0.33218,-0.49695 -0.59554,-1.06782 -1.0077,-1.53443c-0.5748,-0.65075 -1.30867,-1.18663 -1.76765,-1.81506c-0.72547,-0.99332 -1.267,-2.31081 -1.27934,-2.33167c-0.46561,-0.78622 -0.37537,-3.41471 -0.65125,-6.40678c-0.27089,-2.93802 -0.53658,-6.03103 -1.18597,-7.54575c-0.19855,-0.4631 -0.57028,-0.63122 -0.82074,-0.75833c-0.48595,-0.24664 -1.69287,-0.10842 -2.74512,0.39894c-1.23157,0.59379 -2.49076,1.23624 -2.93433,0.83231c-1.0736,-1.13787 -2.01414,-3.04761 -2.6692,-4.96163c-0.94528,-2.76203 -1.37073,-5.48262 -1.37073,-5.48262z" fill="#d396fc" stroke="none" stroke-width="0"/><path d="M226.10397,98.12313c-0.31374,-1.75437 -0.81275,-5.07363 -1.13122,-8.41132c-0.37556,-3.93618 -0.78166,-8.46644 -0.90737,-10.47276c-0.02916,-0.46549 0.41876,-1.80466 0.93047,-1.92091c1.15801,-0.26304 3.63646,-0.80739 5.51796,-1.14803c0.32897,-0.05956 0.58374,0.1348 0.84663,0.09568c0.25546,-0.03802 0.04513,-0.29359 0.30217,-0.33041c4.91117,-0.70331 10.7579,-1.28155 10.7579,-1.28155c0,0 7.87429,10.0647 6.49773,13.89474c-1.23221,3.4284 -14.41987,8.25974 -14.41987,8.25974c0,0 0.38797,3.29572 0.49265,4.98789c0.09945,1.608 0.24323,4.94937 0.24323,4.94937c0,0 -0.86457,0.93579 -0.97238,1.47147c-0.19333,0.96058 0.00798,2.10219 0.22606,2.92959c0.17563,0.66635 0.16759,0.70038 -0.18047,0.20886c-0.96665,-1.36505 -2.93329,-4.16259 -3.99866,-5.82064c-0.70148,-1.09171 -1.34948,-1.92873 -2.1765,-3.33624c-0.35573,-0.60541 -0.06675,-1.04321 -0.32326,-1.48528c-0.09822,-0.16928 -0.07808,-0.68832 -0.35229,-1.00948c-0.1873,-0.21937 -0.66833,-0.24096 -0.80153,-0.41166c-0.37166,-0.47622 -0.40798,-0.66351 -0.47934,-1.06249z" fill="#4a5c6f" stroke="#000000" stroke-width="2"/><path d="M242.76048,89.51162c-0.0241,-0.15187 -0.65928,-0.38014 -1.41638,-0.80642c-2.2456,-1.26437 -6.82924,-3.52386 -8.68308,-4.54797c-0.73627,-0.40673 -0.60236,-0.15636 -0.03006,-0.45169c1.36227,-0.70304 8.5262,-4.03107 8.5262,-4.03107c0,0 -3.66518,-3.59422 -4.44838,-6.7347c-1.689,-6.77245 0.68515,-9.35121 1.19935,-10.01042c0.20467,-0.26239 1.72513,-1.58811 3.55594,-2.52162c1.28944,-0.6575 2.7166,-1.03701 4.0971,-1.48846c2.62657,-0.85894 6.69413,-1.25677 8.1906,-1.45772c0.72633,-0.09755 -0.08116,0.24459 -0.65377,0.83099c-1.66725,1.70745 -5.23697,4.84456 -4.89334,6.1527c0.18139,0.69052 1.0425,1.80165 1.6783,2.98205c0.46507,0.86343 1.204,2.01037 2.11121,3.01213c0.65776,0.72629 1.86907,1.07429 3.38042,1.41835c6.38499,1.45352 18.66117,0.08015 22.57508,-0.89344c0.39109,-0.09728 0.94834,-4.69229 1.10299,-4.68505c0.69469,0.03259 11.02034,12.6218 4.3227,20.73185c-2.52797,3.06108 -6.64222,4.83834 -11.14881,5.59246c-8.77079,1.46769 -18.61248,-0.641 -18.61248,-0.641c0,0 -6.31627,2.05584 -11.50548,3.41461c-2.93371,0.76817 -5.50082,1.28079 -6.44872,1.51553c-0.77205,0.19118 -2.00943,0.26576 -1.57586,-0.3742c0,0 0.75884,-0.66122 1.6145,-1.3151c1.75074,-1.33788 4.59641,-3.44981 5.83389,-4.65018c0,0 1.24994,-0.90339 1.22802,-1.04161z" fill="#4a5c6f" stroke="#000000" stroke-width="2"/><path d="M252.34848,82.97267c0,0 -14.30097,-4.923 -12.16598,-15.98555c0.49869,-2.58394 0.80461,-2.91359 1.664,-3.94792c3.36732,-4.0528 10.04326,-4.77506 10.04326,-4.77506c0,0 -4.52603,4.07546 -4.7346,5.5098c-0.15558,1.0699 2.70151,6.57068 4.0714,7.45788c1.49047,0.96529 3.68526,1.40139 6.14412,1.74247c7.66091,1.06271 18.16228,-0.22127 20.17767,-0.94326c0.3019,-0.10816 1.11593,-0.49561 1.40998,-1.08224c0.55964,-1.11653 0.39098,-2.89976 0.39098,-2.89976c0,0 2.00992,2.92185 2.77578,4.37425c0.87594,1.66119 2.31114,5.54058 2.31114,5.54058c0,0 -7.42832,5.81696 -15.81166,5.15282c-3.9211,-0.31064 -7.35833,-0.93149 -9.99414,-1.85467c-2.59338,-0.90832 -4.34436,-2.29632 -5.79902,-3.29994c-2.35388,-1.62403 -3.56403,-2.71961 -3.56403,-2.71961c0,0 0.34977,1.52459 0.71304,2.45267c0.54447,1.39103 2.36806,5.2776 2.36806,5.2776z" fill="#696f96" stroke="none" stroke-width="0"/><path d="M241.21496,80.02676l0.50874,-0.90144c0,0 1.90589,0.6211 2.98549,1.518c0.7843,0.65157 1.16461,1.34172 0.88386,1.57558c-0.35508,0.29579 -1.35811,-0.42143 -2.32457,-1.02719c-0.40604,-0.25449 -0.78326,-0.69098 -1.13326,-0.88637c-0.51066,-0.28511 -0.92028,-0.27858 -0.92028,-0.27858z" fill="#000000" stroke="none" stroke-width="0"/><path d="M236.52566,79.69087l0.28632,-1.47242c0,0 1.35402,0.37532 2.42565,0.63276c0.66991,0.16092 1.24109,0.21596 1.2663,0.28891c0.23716,0.68629 -2.97484,1.15337 -2.97484,1.15337z" fill="#4a5c6f" stroke="none" stroke-width="0"/><path d="M227.36338,99.39947l-0.44615,-3.42079l7.06205,10.35662c0,0 -0.61132,0.64041 -0.7065,1.05961c-0.11564,0.50925 0.06198,1.77864 0.06198,1.77864z" fill="#4a5c6f" stroke="none" stroke-width="0"/><path d="M230.60096,106.80129l0.02975,-1.10555l1.24933,0.24294l-0.27764,1.4278z" fill="#000000" stroke="none" stroke-width="0"/><path d="M226.02904,106.1934c0,0 -0.17099,-0.41297 -0.50506,-0.88021c-0.37444,-0.52369 -1.00239,-1.14361 -1.32916,-1.59951c-0.3399,-0.47418 -0.92452,-1.22257 -1.3795,-1.87555c-0.52902,-0.75922 -0.69515,-0.98913 -0.69515,-0.98913c0,0 0.36442,0.1628 0.87745,0.57528c0.29755,0.23923 0.59856,0.55342 1.02851,0.99211c1.12939,1.15233 2.46632,2.69783 3.4145,4.04786c1.20543,1.71633 1.87363,3.00563 0.69626,3.72818c-0.6139,0.37675 -0.76659,0.15295 -1.0934,-0.10292c-0.33034,-0.25863 -0.51012,-0.67002 -0.68922,-1.17017c-0.14308,-0.39956 -0.31803,-0.86202 -0.33178,-1.30239c-0.02545,-0.81484 0.00657,-1.42358 0.00657,-1.42358z" fill="#000000" stroke="none" stroke-width="0"/><path d="M235.02967,108.13439l0.70896,-1.89961c0,0 2.77772,-0.6107 3.17735,-0.29997c0.6562,0.51021 -3.88631,2.19956 -3.88631,2.19956z" fill="#000000" stroke="none" stroke-width="0"/><path d="M230.73512,107.80868c0,0 0.4234,-0.51064 0.81585,-0.16595c0.75949,0.66707 1.81068,2.44164 2.30971,2.63015c0.67473,0.25487 1.19777,-0.83116 1.19777,-0.83116c0,0 1.93678,4.33667 1.9316,4.92781c-0.00195,0.22064 0.01513,0.54012 -0.03106,0.81792c-0.08748,0.52602 -0.31084,0.60399 -0.52015,0.82401c-0.15806,0.16613 -0.28921,0.44127 -0.45454,0.89311c-0.26291,0.71841 -0.41134,1.70162 -0.61618,2.55041c-0.21238,0.88009 -0.49614,2.00549 -0.49614,2.00549c0,0 -0.08572,-1.02722 0.04834,-1.97751c0.06936,-0.49153 0.09564,-1.05286 0.17577,-1.67738c0.15756,-1.22794 0.33658,-2.57427 0.15313,-3.23307c-0.10694,-0.38403 -0.43988,-0.65155 -0.67915,-1.062c-0.48462,-0.83134 -1.21172,-1.63205 -1.75229,-2.26858c-0.53993,-0.63579 -2.08273,-3.43322 -2.08273,-3.43322z" fill="#000000" stroke="none" stroke-width="0"/><path d="M241.31695,105.30684c0,0 0.25819,-1.7589 0.49532,-3.02335c0.05142,-0.27426 -0.64286,0.03028 -0.59627,-0.17445c0.09473,-0.4162 0.3268,-1.1808 0.6967,-1.91182c0.34456,-0.68092 0.8168,-1.33113 1.19534,-1.68508c0.57037,-0.53334 0.18927,-1.09739 0.18927,-1.09739c0,0 0.92744,-0.39335 2.24058,-0.36839c0.56766,0.01078 1.16725,0.04016 1.86178,0.3121c0.50519,0.1978 0.96586,0.5263 1.51688,0.91279c0.56077,0.39332 1.09836,1.21654 1.70032,2.0956c0.54862,0.80118 1.16309,1.64038 1.65219,2.40812c0.51309,0.80539 0.8679,1.5059 1.31581,1.77662c2.19343,1.09826 5.50935,2.01048 7.51221,2.38916c1.21625,0.22997 4.07011,-1.30277 5.30268,-1.18094c0.64802,0.06406 1.78483,1.06575 2.52573,0.85537c0.39166,-0.11121 1.28169,-0.69841 2.33807,-1.54499c0.26297,-0.21075 0.55863,-0.55267 0.8334,-0.77324c0.86286,-0.69263 1.74052,-1.32388 2.51098,-1.97864c1.15115,-0.97828 2.00975,-1.73513 2.00975,-1.73513c0,0 0.98135,-0.90443 0.87515,-0.48102c-0.33228,1.32506 -3.14354,9.52686 -3.14354,9.52686c0,0 -0.73946,1.42723 -1.83748,2.96482c-0.72851,1.02015 -1.64254,2.04788 -2.50311,2.88789c-0.73207,0.71459 -1.16845,1.58626 -1.85045,1.62604c-0.19883,0.01159 -1.70793,-0.05336 -2.09618,-0.50163c-0.64334,-0.74278 -1.32066,-1.53882 -1.66424,-2.44005c-0.69606,-1.82587 -0.73074,-4.14433 -0.79357,-5.10681c-0.02684,-0.41118 -0.18849,-0.04977 -0.31561,0.22124c-0.37764,0.80508 -1.18362,2.44961 -1.63037,2.81667c-1.40193,1.15181 -8.39658,3.56678 -9.33379,3.41774c-1.50448,-0.23925 -3.53903,-1.97584 -5.50787,-3.91217c-1.25793,-1.23716 -2.53241,-2.5266 -3.4833,-3.65452c-1.25227,-1.48548 -2.01637,-2.64144 -2.01637,-2.64144z" fill="#000000" stroke="none" stroke-width="0"/><path d="M237.00199,100.64752c-0.09172,-0.23921 1.89879,-1.74017 3.89041,-2.55615c1.8141,-0.74325 3.59274,-0.89135 3.59274,-0.89135l-1.49801,1.80984c0,0 -0.45141,-0.27953 -1.4836,0.05375c-1.73084,0.55884 -4.3846,1.88891 -4.50155,1.58392z" fill="#000000" stroke="none" stroke-width="0"/><path d="M238.01766,102.6278c0.04534,-0.23316 1.27715,-0.59153 2.47828,-0.81961c0.71936,-0.1366 1.3272,-0.41418 1.3272,-0.41418l0.18062,1.69056c0,0 0.08878,-0.25166 -0.24392,-0.24309c-0.1677,0.00431 -0.40666,-0.38217 -0.60738,-0.37474c-0.41589,0.01537 -1.1445,0.05275 -1.60686,0.09193c-0.79975,0.06777 -1.54636,0.16386 -1.52794,0.06914z" fill="#000000" stroke="none" stroke-width="0"/><path d="M237.62396,104.65239c-0.03059,-0.29316 0.26776,-0.59765 1.86082,-0.69954c1.04846,-0.06706 2.13211,0.13891 2.13211,0.13891l0.31356,1.33438c0,0 -1.39627,-0.44066 -2.69141,-0.52949c-0.85473,-0.05863 -1.59428,-0.0447 -1.61508,-0.24425z" fill="#000000" stroke="none" stroke-width="0"/><path d="M265.25217,106.20342c0,0 0.18845,-0.44784 0.19284,-0.96006c0.00144,-0.16698 -0.05087,-0.4671 -0.23343,-0.78016c-0.47465,-0.81388 -1.40724,-2.00017 -1.41724,-3.28448c-0.00345,-0.44379 0.81944,-1.06808 1.52747,-1.5986c0.45382,-0.34005 0.8896,-0.59834 0.93447,-0.88806c0.09582,-0.61885 -0.2115,-1.27539 -0.26814,-1.82687c-0.11808,-1.14979 -0.33891,-2.04933 -0.48523,-2.55507c-0.08496,-0.29366 -0.67379,-0.68493 -0.67379,-0.68493c0,0 3.94145,-0.62004 4.75266,-0.49711c0.45049,0.06828 -0.29371,1.1729 -0.29371,1.1729c0,0 -1.90803,0.24129 -2.01466,0.7556c-0.04866,0.2347 -0.02804,0.99953 0.05608,1.81343c0.0946,0.91538 0.25326,1.88966 0.17,2.18043c-0.1668,0.58256 -2.03009,1.89184 -2.08676,2.40245c-0.02688,0.24222 0.69179,1.30928 1.19944,2.19751c0.32945,0.57642 0.52754,1.10618 0.5197,1.18893c-0.05165,0.54521 -0.22273,1.36757 -0.22273,1.36757z" fill="#000000" stroke="none" stroke-width="0"/><path d="M265.85971,102.7513c0,0 -0.1785,-1.15703 0.01616,-1.63895c0.06378,-0.15788 0.61448,-0.54603 1.22125,-0.89525c0.58819,-0.33852 1.23204,-0.636 1.34983,-0.92761c0.02361,-0.05846 -0.03522,-1.67595 0.04716,-3.03481c0.07955,-1.3122 0.30078,-2.36836 0.30078,-2.36836l1.05288,-0.49657c0,0 -0.06372,0.35374 -0.0639,1.8532c-0.00008,0.73337 0.23791,1.68825 0.24744,2.61265c0.01081,1.05171 -0.09347,2.08034 -0.27526,2.54043c-0.05904,0.14938 -0.57473,0.48532 -1.22864,0.6694c-0.65334,0.18392 -1.44479,0.21599 -1.66127,0.34495c-0.15959,0.09507 -0.57471,1.74364 -0.57471,1.74364z" fill="#000000" stroke="none" stroke-width="0"/><path d="M255.66719,94.84008c0,0 0.50264,0.48584 1.4397,0.93214c1.02839,0.48978 2.57513,0.95703 4.43917,1.27783c0.79611,0.13701 1.71714,0.23035 2.62775,0.23018c1.14139,-0.0002 2.30149,-0.14052 3.57856,-0.44816c0.41521,-0.10003 0.82475,-0.15956 1.2518,-0.30399c2.24474,-0.75917 4.86746,-3.50348 4.86746,-3.50348c0,0 2.00572,-0.87752 2.33373,-0.83692c0.25544,0.03162 -0.52831,1.06048 -0.52831,1.06048c0,0 -0.56676,0.53817 -1.21502,1.21578c-0.21368,0.22336 -0.48117,0.38791 -0.71895,0.6304c-0.41719,0.42546 -0.84576,0.93834 -1.46817,1.33789c-0.47326,0.30381 -0.96915,0.31544 -1.51889,0.52649c-1.10651,0.42478 -2.23584,0.98096 -2.86659,1.03114c-1.21779,0.09688 -2.67121,0.61541 -4.45616,0.16697c-1.10034,-0.27646 -3.59875,-0.5738 -4.68821,-0.95502c-3.06921,-1.07396 -3.07788,-2.36173 -3.07788,-2.36173z" fill="#000000" stroke="none" stroke-width="0"/><path d="M259.42307,94.86912c0.02356,-0.12114 1.06603,-0.07841 2.07769,-0.03869c0.41353,0.01624 0.87339,0.09509 1.21053,0.07001c1.82201,-0.1355 3.14168,-0.3111 3.14168,-0.3111l0.16381,0.79691c0,0 -0.9935,-0.04586 -2.17145,0.0095c-1.05861,0.04975 -2.17363,0.09625 -3.05805,0.00277c-0.89788,-0.0949 -1.38491,-0.42295 -1.36422,-0.52939z" fill="#000000" stroke="none" stroke-width="0"/><path d="M239.38021,124.42727c0.11988,-0.54291 0.31294,-1.80081 0.62054,-2.78456c0.35091,-1.1223 1.13271,-3.51799 1.47341,-4.71124c0.0226,-0.07917 -0.49356,0.23919 -0.62497,0.48733c-0.26253,0.49575 -0.0849,0.59756 -0.42092,1.27577c-0.04411,0.08903 -0.72643,0.46126 -1.20413,0.86986c-0.25687,0.21971 -0.41132,0.51406 -0.47289,0.63621c-0.17381,0.34487 -0.38057,0.61279 -0.50417,0.9677c-0.5493,1.57752 -0.596,3.18222 -0.74576,3.1916c-0.04291,0.00269 -0.23421,-0.34117 -0.2408,-0.91466c-0.01602,-1.39051 0.38166,-3.80102 0.61318,-4.36733c0.15244,-0.3729 1.06377,-0.51261 1.24666,-0.86104c0.17068,-0.32514 0.74009,-0.91545 1.1934,-1.42111c0.11732,-0.13087 0.12211,-0.41442 0.26542,-0.69168c0.17202,-0.33281 0.47701,-0.66949 0.52471,-0.89533c0.15901,-0.75288 0.33343,-1.70614 0.3751,-1.71633c1.08767,-0.26546 3.59867,1.75872 5.35008,2.73966c0.38635,0.21638 0.82152,0.32415 1.0998,0.41045c0.67538,0.20947 3.80654,-0.17503 4.10147,0.01274c0.12362,0.0787 -0.38842,0.21379 -1.16126,0.38589c-0.66706,0.14854 -1.56154,0.49493 -2.33536,0.47654c-1.5781,-0.03751 -2.21486,-0.25414 -2.21486,-0.25414c0,0 0.0077,0.53223 0.27497,1.13075c0.23673,0.53016 0.7259,1.12184 0.87464,1.30181c0.79452,0.96149 1.42137,1.52671 1.49136,1.556c1.35018,0.56502 1.52763,0.10032 3.33017,0.36029c3.54992,0.51201 8.04031,1.1368 10.0535,1.29286c0.52587,0.04075 1.10747,0.02023 1.19287,-0.00792c1.31193,-0.43257 3.38229,-2.27465 4.29794,-3.47038c0.19324,-0.25234 -0.35622,-0.96772 -0.08084,-0.88863c0.26927,0.07731 1.06932,0.03132 1.47893,0.26454c0.35246,0.20067 0.53893,0.87009 0.51217,1.02985c-0.15505,0.24154 -0.26882,0.46069 -0.44466,0.55936c-0.19245,0.10797 -0.44728,0.08949 -0.61884,0.23281c-0.3023,0.2525 -0.58077,0.62771 -0.91256,0.93286c-0.67673,0.62241 -1.42939,1.2167 -1.96573,1.76129c-0.57408,0.58292 -0.90917,1.09576 -0.91769,1.11042c-0.58043,0.99957 -1.68909,3.10119 -2.13495,5.25676c-0.23832,1.15221 -0.0689,2.70169 0.03423,3.56066c0.04536,0.37773 -0.27777,0.78856 -0.60887,0.83622c-0.6194,0.08912 -1.57389,0.13289 -2.60213,0.22513c-2.22996,0.20003 -4.91558,0.46682 -6.31418,0.38925c-0.40109,-0.02225 -0.75216,-0.15558 -0.88757,-0.2251c-2.98194,-1.53048 -5.75682,-4.82669 -7.98832,-6.63915c-3.07875,-2.50061 -5.12955,-2.83319 -5.00308,-3.40596z" fill="#000000" stroke="none" stroke-width="0"/><path d="M268.04853,124.76029c-0.18574,-0.09436 -0.02348,-1.55265 0.34184,-2.5743c0.08999,-0.25168 0.25865,-0.46475 0.34815,-0.66541c0.28013,-0.62812 0.44898,-1.00554 0.44898,-1.00554c0,0 0.14985,0.17719 0.16766,0.68075c0.01023,0.28905 -0.00353,0.58525 -0.1184,1.03925c-0.08585,0.33932 -0.56432,1.6057 -0.88751,2.22601c-0.12624,0.2423 -0.28035,0.3096 -0.30073,0.29924z" fill="#000000" stroke="none" stroke-width="0"/><path d="M264.24385,112.89278l0.57889,1.05294c0,0 0.00795,1.32537 0.12146,2.16675c0.07658,0.56766 0.3604,1.73509 0.58131,2.60084c0.15484,0.60684 0.11953,1.27226 -0.24436,0.82824c-0.29641,-0.36169 -0.52311,-1.04167 -0.76155,-1.73554c-0.15149,-0.44082 -0.35279,-0.896 -0.43499,-1.2506c-0.1352,-0.58306 -0.10276,-1.63714 0.00393,-2.36518c0.08208,-0.5602 0.15533,-1.29746 0.15533,-1.29746z" fill="#000000" stroke="none" stroke-width="0"/><path d="M244.68647,126.17736c-0.16933,-1.09286 -1.57963,-10.19516 -1.57963,-10.19516c0,0 2.15685,3.65635 3.51781,4.9306c0.85385,0.79945 3.8618,1.9788 3.8618,1.9788c0,0 6.23729,0.58828 7.46003,0.70361c0.39861,0.0376 0.61285,0.25673 0.37327,0.56098c-0.28481,0.36172 -0.65379,0.89629 -0.90455,1.50349c-0.2139,0.51796 -0.56127,2.41037 -0.56127,2.41037c0,0 -2.98777,-0.63436 -5.14211,-0.69549c-1.25307,-0.03554 -2.2111,0.37817 -2.26871,0.53588c-0.05041,0.13803 1.89008,0.30834 3.95229,0.64941c2.39683,0.39641 4.97064,0.95892 4.97064,0.95892c0,0 -0.87926,3.94655 -1.07958,3.90292c-0.25341,-0.05519 -1.21323,0.07833 -2.29471,0.0241c-1.24481,-0.06241 -2.65858,-0.3337 -3.47008,-0.76834c-0.70934,-0.37992 -2.28621,-2.33333 -3.9065,-3.87281c-0.90261,-0.85759 -2.01778,-1.74878 -2.56379,-2.14857c-0.28224,-0.20663 -0.33247,-0.26935 -0.36492,-0.47875z" fill="#ffffff" stroke="none" stroke-width="0"/><path d="M245.79861,124.27264c-0.16743,-0.91994 -0.5429,-2.75666 -1.1303,-4.41096c-0.26534,-0.74725 -0.38754,-1.40147 -0.67629,-2.01587c-0.58639,-1.24773 -1.03931,-2.17176 -0.99238,-2.64221c0.03378,-0.33865 0.57711,-0.63094 0.81745,-0.23307c0.60927,1.00861 1.6179,3.00431 2.48868,4.34738c0.31603,0.48744 0.5995,0.89865 0.80246,1.17021c0.51845,0.69365 1.3026,1.5967 1.3026,1.5967c0,0 -0.92364,0.66977 -1.352,1.20328c-0.26338,0.328 -0.81154,0.98236 -1.06614,1.33921c-0.14279,0.20012 -0.12645,0.01693 -0.19408,-0.35464z" fill="#f44254" stroke="#000000" stroke-width="1"/><path d="M248.2304,122.38192c0.16608,0.02937 0.38285,-0.23866 0.77769,-0.17558c1.01734,0.16251 2.55661,0.70527 2.55661,0.70527c0,0 -0.96815,1.30525 -1.35012,1.81872c-0.06923,0.09304 -0.51367,0.98853 -0.81849,0.90988c-0.27481,-0.0709 -0.46354,-1.18137 -0.49765,-1.25608c-0.14266,-0.31255 -0.90355,-2.04389 -0.66804,-2.00221z" fill="#f44254" stroke="#000000" stroke-width="0.5"/><path d="M251.06918,122.97677c-0.35615,0.43802 -0.8661,1.07037 -1.10174,1.38713c-0.13162,0.17694 -0.28385,0.41917 -0.39991,0.61136c-0.1077,0.17837 -0.26759,0.16809 -0.36919,-0.02112c-0.08318,-0.15494 -0.17859,-0.33916 -0.25052,-0.49674c-0.14284,-0.31294 -0.42598,-0.96412 -0.67277,-1.53548c-0.06637,-0.15367 -0.13011,-0.30159 -0.18777,-0.43559c-0.08168,-0.1898 3.08681,0.36142 2.98189,0.49045z" fill="#f44254" stroke="#000000" stroke-width="0.5"/><path d="M267.64649,133.90587c-0.05581,0.287 -0.32079,0.47695 -0.59186,0.42424c-0.27107,-0.05271 -0.44556,-0.32811 -0.38975,-0.61513c0.05581,-0.287 0.32079,-0.47694 0.59186,-0.42423c0.27107,0.05271 0.44556,0.32811 0.38975,0.61512z" fill="#000000" stroke="none" stroke-width="0"/><path d="M268.99538,135.90603c-0.0434,0.22322 -0.31126,0.35896 -0.59828,0.30314c-0.28701,-0.05581 -0.48449,-0.28202 -0.44108,-0.50526c0.0434,-0.22322 0.31125,-0.35896 0.59828,-0.30314c0.28701,0.05581 0.48449,0.28202 0.44108,0.50526z" fill="#000000" stroke="none" stroke-width="0"/><path d="M269.31454,139.50367c-0.06202,0.3189 -0.38373,0.52465 -0.71858,0.45953c-0.33484,-0.06511 -0.55602,-0.37641 -0.49401,-0.69532c0.06202,-0.3189 0.38372,-0.52464 0.71857,-0.45952c0.33484,0.06511 0.55602,0.37641 0.49401,0.69531z" fill="#000000" stroke="none" stroke-width="0"/><path d="M268.00011,138.55891c-0.04651,0.23917 -0.31688,0.38782 -0.60389,0.33201c-0.28701,-0.05581 -0.48197,-0.29495 -0.43547,-0.53412c0.04651,-0.23917 0.31688,-0.38782 0.60389,-0.33201c0.28701,0.05581 0.48197,0.29494 0.43547,0.53412z" fill="#000000" stroke="none" stroke-width="0"/><path d="M267.51977,136.09847c-0.03722,0.19135 -0.24832,0.31127 -0.47158,0.26785c-0.22322,-0.0434 -0.37404,-0.23371 -0.33683,-0.42506c0.03722,-0.19135 0.24832,-0.31126 0.47157,-0.26784c0.22322,0.0434 0.37404,0.23371 0.33683,0.42505z" fill="#000000" stroke="none" stroke-width="0"/><path d="M265.69527,136.85231c-0.05271,0.27107 -0.34104,0.44306 -0.644,0.38413c-0.30296,-0.0589 -0.50583,-0.32641 -0.45312,-0.59748c0.05271,-0.27107 0.34104,-0.44306 0.644,-0.38413c0.30296,0.0589 0.50583,0.32641 0.45312,0.59748z" fill="#000000" stroke="none" stroke-width="0"/><path d="M265.90534,139.46996c-0.04651,0.23917 -0.30395,0.39032 -0.57501,0.33761c-0.27107,-0.05271 -0.4531,-0.28932 -0.4066,-0.5285c0.04651,-0.23917 0.30396,-0.39033 0.57501,-0.33762c0.27107,0.05271 0.4531,0.28932 0.4066,0.52851z" fill="#000000" stroke="none" stroke-width="0"/><path d="M262.49217,137.60772c-0.04651,0.23917 -0.30395,0.39032 -0.57501,0.33761c-0.27107,-0.05271 -0.4531,-0.28932 -0.4066,-0.5285c0.04651,-0.23917 0.30396,-0.39033 0.57501,-0.33762c0.27107,0.05271 0.4531,0.28933 0.4066,0.52851z" fill="#000000" stroke="none" stroke-width="0"/><path d="M263.91967,139.20367c-0.04651,0.23917 -0.30396,0.39033 -0.57501,0.33762c-0.27107,-0.05271 -0.4531,-0.28932 -0.4066,-0.52851c0.04651,-0.23917 0.30396,-0.39033 0.57501,-0.33762c0.27107,0.05271 0.4531,0.28932 0.4066,0.52851z" fill="#000000" stroke="none" stroke-width="0"/><path d="M260.88418,140.02166c-0.04961,0.25513 -0.32249,0.4167 -0.60951,0.36088c-0.28701,-0.05581 -0.47947,-0.30787 -0.42984,-0.56299c0.04961,-0.25513 0.3225,-0.4167 0.60951,-0.36088c0.28701,0.05581 0.47947,0.30787 0.42984,0.56299z" fill="#000000" stroke="none" stroke-width="0"/><path d="M258.7734,137.93328c-0.04961,0.25513 -0.30957,0.4192 -0.58064,0.3665c-0.27107,-0.05271 -0.45059,-0.30225 -0.40099,-0.55737c0.04961,-0.25513 0.30957,-0.4192 0.58064,-0.3665c0.27107,0.05271 0.45059,0.30225 0.40099,0.55737z" fill="#000000" stroke="none" stroke-width="0"/><path d="M257.69551,140.24056c-0.27107,-0.05271 -0.45813,-0.26348 -0.41782,-0.47077c0.04031,-0.20728 0.29273,-0.33259 0.56379,-0.27988c0.27107,0.05271 0.45814,0.26347 0.41782,0.47076c-0.04031,0.20728 -0.29273,0.3326 -0.56379,0.27989z" fill="#000000" stroke="none" stroke-width="0"/><path d="M255.04501,138.61654c-0.0589,0.30296 -0.3781,0.49576 -0.71295,0.43066c-0.33484,-0.06511 -0.55854,-0.36348 -0.49962,-0.66644c0.0589,-0.30296 0.37811,-0.49577 0.71296,-0.43066c0.33484,0.06511 0.55853,0.36349 0.49961,0.66645z" fill="#000000" stroke="none" stroke-width="0"/><path d="M250.31342,136.13835c-0.0589,0.30296 -0.35225,0.50078 -0.65521,0.44189c-0.30296,-0.0589 -0.50078,-0.35225 -0.44189,-0.65521c0.0589,-0.30296 0.35225,-0.50078 0.65521,-0.44189c0.30296,0.0589 0.50078,0.35225 0.44189,0.65521z" fill="#000000" stroke="none" stroke-width="0"/><path d="M249.54108,138.41519c-0.23919,-0.0465 -0.40793,-0.21348 -0.37693,-0.37292c0.03101,-0.15945 0.25003,-0.251 0.48922,-0.2045c0.23917,0.04651 0.40792,0.21348 0.37692,0.37292c-0.031,0.15944 -0.25002,0.25101 -0.48921,0.20451z" fill="#000000" stroke="none" stroke-width="0"/><path d="M248.29324,136.97401c-0.04961,0.25513 -0.30957,0.41919 -0.58062,0.36649c-0.27107,-0.05271 -0.45059,-0.30225 -0.40099,-0.55736c0.04961,-0.25513 0.30957,-0.4192 0.58064,-0.3665c0.27107,0.05271 0.45059,0.30225 0.40099,0.55737z" fill="#000000" stroke="none" stroke-width="0"/><path d="M248.8049,135.57539c-0.04961,0.25513 -0.30957,0.4192 -0.58064,0.3665c-0.27107,-0.05271 -0.45059,-0.30225 -0.40099,-0.55737c0.04961,-0.25513 0.30957,-0.41919 0.58062,-0.36649c0.27107,0.05271 0.45059,0.30225 0.40099,0.55736z" fill="#000000" stroke="none" stroke-width="0"/><path d="M246.36851,135.16153c-0.06202,0.3189 -0.37079,0.52714 -0.6897,0.46513c-0.3189,-0.06202 -0.52714,-0.37079 -0.46513,-0.6897c0.06202,-0.3189 0.37079,-0.52714 0.6897,-0.46513c0.3189,0.06202 0.52714,0.37079 0.46513,0.6897z" fill="#000000" stroke="none" stroke-width="0"/><path d="M244.27216,133.61531c-0.04961,0.25513 -0.32249,0.4167 -0.60951,0.36088c-0.287,-0.05581 -0.47948,-0.30787 -0.42985,-0.563c0.04961,-0.25513 0.32249,-0.41669 0.60951,-0.36087c0.287,0.05581 0.47947,0.30787 0.42985,0.56298z" fill="#000000" stroke="none" stroke-width="0"/><path d="M267.75322,141.25367c-0.0623,0.32036 -0.35252,0.53343 -0.64823,0.47593c-0.2957,-0.05751 -0.48493,-0.36382 -0.42264,-0.68416c0.0623,-0.32036 0.35252,-0.53343 0.64823,-0.47593c0.2957,0.05751 0.48493,0.36382 0.42264,0.68416z" fill="#000000" stroke="none" stroke-width="0"/><path d="M247.2326,109.61867c0,0 2.09516,-0.3336 2.89073,-0.35556c0.74696,-0.02062 2.12037,0.20775 2.12037,0.20775c0,0 0.31557,-0.73602 0.68422,-1.6397c0.32739,-0.80254 0.73381,-1.45225 0.96109,-2.12119c0.36139,-1.06373 0.75568,-3.51164 1.17369,-4.93262c0.32355,-1.09989 0.79634,-1.70597 0.79634,-1.70597c0,0 -0.49913,1.11749 -0.76206,2.53831c-0.29072,1.57086 -0.56544,3.64469 -0.66315,4.58875c-0.10006,0.96687 0.11128,2.85243 0.11128,2.85243l5.47329,1.01663c0,0 -0.8788,0.46753 -2.24471,0.48699c-1.47947,0.02108 -3.46817,-0.39123 -3.83607,0.01998c-0.10205,0.11405 -0.27871,0.16725 -0.48786,0.90169c-0.73026,2.56431 -1.88426,8.24625 -1.88426,8.24625c0,0 0.65732,-4.65666 0.90054,-7.16497c0.05173,-0.53354 -0.01703,-0.90125 -0.00139,-1.18279c0.03924,-0.70596 -0.16313,-1.20244 -0.16313,-1.20244c0,0 -0.81487,-0.32057 -1.29965,-0.39814c-0.82229,-0.13159 -3.76924,-0.15538 -3.76924,-0.15538z" fill="#ff0000" stroke="none" stroke-width="0"/><path d="M261.2658,110.61925c0,0 1.52153,-0.08231 3.08262,-0.38771c0.62192,-0.12167 1.24946,-0.23178 1.84254,-0.41794c0.82121,-0.25776 1.52966,-0.09011 1.90102,-0.54332c0.28298,-0.34534 0.66892,-1.74029 1.02168,-3.18541c0.73601,-3.01526 1.44517,-7.04918 1.44517,-7.04918c0,0 0.05355,0.48901 -0.04061,1.33176c-0.21479,1.92205 -1.02356,4.95037 -1.16177,6.24859c-0.11631,1.09254 0.13973,3.01811 0.13973,3.01811c0,0 0.30024,0.20256 0.92998,0.12021c1.0947,-0.14316 2.86021,-0.53596 3.52763,-0.40409c2.4615,0.48635 3.37684,0.96315 3.37684,0.96315c0,0 -1.24456,-0.34612 -2.72397,-0.35035c-0.93386,-0.00268 -2.01497,0.19804 -2.97444,0.43501c-0.17167,0.04241 -0.3625,-0.0865 -0.52565,-0.03863c-0.25369,0.07446 -0.47264,0.32935 -0.69696,0.41499c-0.51662,0.19726 -0.94116,0.42089 -1.20846,0.65561c-0.05628,0.04941 -0.24425,0.19652 -0.39002,0.60594c-0.43899,1.23291 -1.13336,3.89852 -1.81112,5.85359c-0.5389,1.55451 -1.13137,2.64618 -1.13137,2.64618c0,0 0.87354,-4.04177 1.18209,-6.61031c0.13419,-1.11695 0.47459,-2.09264 0.27532,-2.4756c-0.09996,-0.19211 -0.96304,-0.42455 -2.25167,-0.57895c-1.64643,-0.19729 -3.80863,-0.2516 -3.80863,-0.2516z" fill="#ff0000" stroke="none" stroke-width="0"/><path d="M254.41509,109.8757c-0.09957,0.512 -0.59533,0.84636 -1.10735,0.74681c-0.512,-0.09957 -0.84636,-0.59533 -0.74681,-1.10735c0.09957,-0.512 0.59533,-0.84636 1.10735,-0.74681c0.512,0.09957 0.84636,0.59533 0.74681,1.10735z" fill="#ff0000" stroke="none" stroke-width="0"/><path d="M269.44534,110.87415c-0.08786,0.45177 -0.51309,0.74916 -0.94981,0.66424c-0.43672,-0.08493 -0.71954,-0.52001 -0.63168,-0.97178c0.08786,-0.45177 0.51309,-0.74916 0.94981,-0.66424c0.43672,0.08493 0.71954,0.52001 0.63168,0.97178z" fill="#ff0000" stroke="none" stroke-width="0"/></g><path d="M253.19399,92.85494l0.42426,-1.90059l1.38691,0.30959l-0.42426,1.90059z" fill="#000000" stroke="none" stroke-width="0"/></g></g></g></svg>