<svg version="1.1" xmlns="http://www.w3.org/2000/svg" xmlns:xlink="http://www.w3.org/1999/xlink" width="183.48285" height="333.89068" viewBox="0,0,183.48285,333.89068"><g transform="translate(-198.4373,-27.09669)"><g data-paper-data="{&quot;isPaintingLayer&quot;:true}" fill-rule="nonzero" stroke-linejoin="miter" stroke-miterlimit="10" stroke-dasharray="" stroke-dashoffset="0" style="mix-blend-mode: normal"><g stroke="#000000" stroke-linecap="butt"><path d="M346.52233,220.12934c14.33641,30.09629 20.03656,57.315 12.73163,60.79473c-7.30493,3.47971 -24.84871,-18.0973 -39.18512,-48.19357c-14.33641,-30.09629 -20.03656,-57.315 -12.73163,-60.79473c7.30493,-3.47971 24.84871,18.0973 39.18511,48.19358z" fill="#0d69be" stroke-width="2"/><path d="M378.45285,256.25242c6.15354,12.91809 0.40031,28.50707 -12.85024,34.81901c-13.25053,6.31191 -28.98067,0.95657 -35.13421,-11.96153c-6.15354,-12.91809 -0.40031,-28.50707 12.85024,-34.81901c13.25054,-6.31192 28.98067,-0.95655 35.13421,11.96153z" fill="#faddbf" stroke-width="2"/><path d="M337.55912,262.80599c6.15354,12.91809 41.28196,21.0095 28.03143,27.32142c-13.25053,6.31191 -28.98065,0.95656 -35.13421,-11.96153c-6.15354,-12.91809 0.94923,-28.27796 7.10278,-15.35987z" fill="#ef8b89" stroke-width="0"/></g><g stroke="#000000" stroke-linecap="butt"><path d="M307.76518,340.83532v-95.29492h29.49199v95.29492z" fill="#73fffc" stroke-width="2"/><path d="M307.43943,340.21738l1.32626,-93.78573c0,0 5.20288,68.11227 6.3799,77.52842c0.2602,2.08162 2.52228,2.78987 2.52228,2.78987l18.60659,13.13896z" fill="#59a9e6" stroke-width="0"/></g><g stroke="#000000" stroke-linecap="butt"><path d="M268.4238,338.4128v-95.29492h29.49199v95.29492z" fill="#73fffc" stroke-width="2"/><path d="M268.09805,337.79486l1.32626,-93.78573c0,0 5.20288,68.11227 6.3799,77.52842c0.2602,2.08162 2.52228,2.78987 2.52228,2.78987l18.60659,13.13896z" fill="#59a9e6" stroke-width="0"/></g><g stroke="#000000" stroke-linecap="butt"><path d="M338.87476,233.51539c-0.58925,13.79012 8.46968,37.13931 2.96214,46.62872c-6.73534,11.60491 -28.97463,7.86604 -39.29251,7.42518c-13.65042,-0.58327 -33.09205,2.75999 -37.67612,-16.45554c-1.71416,-7.1855 5.73258,-32.15723 6.08908,-40.50038c1.30983,-30.65452 17.57548,-54.85527 36.33036,-54.0539c18.75487,0.80137 32.89689,26.30142 31.58704,56.95594z" fill="#0d69be" stroke-width="2"/><path d="M286.9929,246.88937c-0.58925,13.79012 61.10819,23.1787 55.60065,32.6681c-6.73535,11.6049 -28.97463,7.86604 -39.29251,7.42518c-13.65042,-0.58327 -33.09204,2.75999 -37.67611,-16.45553c-1.71417,-7.1855 5.73259,-32.15724 6.08908,-40.50038c0.40353,-9.44382 4.56634,-28.42898 6.79384,-29.70518c6.65415,-16.49512 9.38254,25.5638 8.48506,46.56782z" fill="#10157d" stroke-width="0"/></g><g stroke-linecap="butt"><g stroke="#000000"><g><path d="M202.18497,116.15091c-0.33779,-46.78957 37.31882,-84.99385 84.10839,-85.33164c46.78957,-0.33779 84.99384,37.31882 85.33163,84.10839c0.33779,46.78957 -37.31882,84.99385 -84.10839,85.33164c-46.78957,0.33779 -84.99384,-37.31882 -85.33163,-84.10839z" fill="#faddbf" stroke-width="2"/><path d="M202.40946,115.27975c-0.10868,-15.05389 8.36098,-41.0726 12.84671,-44.31924c0.51227,-0.37078 5.72194,-8.95184 13.19377,-15.72248c9.28698,-8.41545 21.20475,-15.30989 21.81693,-15.11724c7.98707,2.51341 -17.05788,64.97975 -15.63643,90.26009c0.00338,0.06029 4.54957,19.66925 6.17118,20.09646c2.91965,4.72152 9.24896,19.08711 20.18152,26.14849c20.37413,13.15973 49.08266,19.32629 47.60307,19.84272c-2.36683,0.82609 -14.78233,2.87583 -20.84508,2.9196c-46.78957,0.33779 -84.99385,-37.31882 -85.33164,-84.10839z" fill="#ef8b89" stroke-width="0"/><path d="M371.09826,114.47325c0.08392,11.62404 -1.46493,15.65169 -2.03032,13.80401c-0.57682,-1.88498 -0.25752,-9.81201 -9.1481,-14.58359c-2.15436,-1.15626 -10.16066,6.34957 -12.89706,5.14115c-1.71877,-0.75902 -8.72539,-10.11281 -10.64389,-10.77501c-1.34139,-0.463 -12.38931,8.46722 -13.79206,8.0267c-3.49854,-1.09871 -12.07031,-11.28671 -15.82617,-11.91763c-2.06823,-0.34744 -9.197,11.91648 -11.30781,11.67786c-2.72215,-0.30772 -10.15549,-11.99543 -12.89281,-11.97567c-7.27966,0.05256 -7.42897,7.06461 -12.62329,13.10848c-3.3754,3.92747 -14.08227,-12.95056 -17.17397,-8.49291c-3.83955,5.53586 -7.64162,10.87317 -11.85657,14.50332c-3.30677,2.84799 -13.43672,-10.00014 -16.29373,-7.36166c-13.79446,12.73926 -22.07391,20.80362 -22.2051,2.63226c-0.26379,-36.5392 43.22722,-8.52577 84.85351,-30.34858c39.84427,-20.88857 83.57359,-9.97789 83.83738,26.5613z" fill="#ef8b89" stroke-width="0"/></g><path d="M372.5721,106.1515c0.16953,23.48273 6.59444,8.66793 -11.47271,-0.77746c-2.21089,-1.15584 -10.42949,6.35151 -13.23776,5.14361c-1.7639,-0.7587 -8.95327,-10.11117 -10.92219,-10.77301c-1.37663,-0.46274 -12.71724,8.46961 -14.15686,8.02934c-3.59047,-1.09804 -12.38607,-11.28443 -16.24075,-11.91463c-2.12265,-0.34703 -9.44152,11.91824 -11.60786,11.68002c-2.79378,-0.30721 -10.4207,-11.9935 -13.23011,-11.97323c-7.47141,0.05394 -7.62599,7.06603 -12.95828,13.1109c-3.46505,3.92811 -14.45073,-12.9479 -17.62473,-8.48967c-3.94173,5.53658 -7.84497,10.87463 -12.1716,14.50559c-3.3944,2.84862 -13.78871,-9.99758 -16.72148,-7.35857c-14.16023,12.7419 -22.65929,20.80784 -22.79048,2.63648c-0.26379,-36.5392 39.275,-81.54262 85.20064,-81.87418c45.92562,-0.33156 87.67041,41.5156 87.9342,78.0548z" fill="#873412" stroke-width="2"/><path d="M372.31598,104.99053c0.16953,23.48273 6.59444,8.66793 -11.47271,-0.77746c-2.21089,-1.15584 -10.42949,6.35151 -13.23776,5.14361c-1.7639,-0.7587 -8.95327,-10.11117 -10.9222,-10.77301c-1.37663,-0.46274 -12.71724,8.46961 -14.15686,8.02934c-3.59047,-1.09804 -12.38607,-11.28442 -16.24074,-11.91462c-2.12265,-0.34703 -9.44152,11.91823 -11.60786,11.68001c-2.79378,-0.30721 -10.4207,-11.9935 -13.23011,-11.97322c-7.47141,0.05394 -7.62599,7.06602 -12.95828,13.11089c-3.46505,3.92811 -14.45073,-12.9479 -17.62473,-8.48967c-3.94173,5.53658 -7.84498,10.87463 -12.17162,14.50559c-3.3944,2.84862 -13.78871,-9.99758 -16.72148,-7.35857c-14.16023,12.7419 -22.65929,20.80784 -22.79048,2.63648c-0.26379,-36.5392 44.36741,-8.53401 87.09426,-30.36477c40.89773,-20.89617 85.77676,-9.9938 86.04056,26.5454z" fill="#741d23" stroke-width="0"/></g><path d="M287.08996,38.4599c0.06586,0.11517 0.1205,0.24824 0.16568,0.39475c0.09606,0.25846 0.15064,0.53722 0.15556,0.82823c0.11693,1.13551 -0.02678,2.51361 0.02181,3.00537c0.06384,0.64608 1.18489,-0.75589 1.82851,-0.67081c0.39426,0.05211 0.79606,0.75591 1.0891,0.48705c1.77841,-1.63153 3.36096,-4.50317 6.12717,-2.89988c0.91612,0.53098 0.68991,1.88574 1.25951,2.56638c0.04788,0.05722 2.60816,-0.15544 3.20761,0.37318c1.03291,0.91084 0.33546,2.24951 0.86566,3.23837c0.16965,0.31643 0.57128,-0.44638 0.8987,-0.5937c1.45718,-0.6556 3.98265,-2.03538 5.74286,-1.04633c0.9275,0.52115 0.75851,2.13413 1.2686,2.57236c0.89425,0.76825 1.92365,-1.379 2.97421,-1.91403c1.45299,-0.73997 2.18538,-0.04441 3.43608,0.83271c0.21572,0.1513 0.50272,4.12851 1.61325,5.27825c0.62422,0.64627 1.64532,-0.87058 2.54357,-0.89231c0.89624,-0.02167 2.70566,-0.75707 3.12828,-0.65651c0.8477,0.20172 1.58341,1.62946 2.33143,1.18247c3.81904,-2.28212 8.74027,-0.86886 7.14125,4.10293c-0.20237,0.62919 1.31774,-0.58345 1.94625,-0.37896c0.24365,0.07926 1.60463,1.07024 1.8312,0.9826c1.48196,-0.57324 2.41599,-1.2971 4.00707,-1.31246c1.32138,-0.01274 2.59525,0.72196 2.91196,2.10018c0.16646,0.72432 -0.98203,2.13028 -0.24381,2.21621c1.74008,0.20258 4.47103,0.90825 3.71709,3.45124c-0.81842,2.76047 -3.1024,5.16615 -5.6902,3.09379c-0.89785,-0.71901 -2.29525,1.25923 -3.35428,0.81032c-1.35671,-0.57508 -2.04125,-2.85868 -1.97826,-4.03576c0.02912,-0.54413 -1.07055,0.38173 -1.60824,0.29324c-0.72393,-0.11914 -1.0745,-1.20766 -1.80649,-1.25738c-1.63729,-0.1112 -1.33518,3.27588 -5.22731,2.5174c-1.14881,-0.22387 -2.53168,-2.16277 -2.91913,-3.25795c-0.22491,-0.63573 1.42754,-2.65995 1.26874,-2.76438c-0.38562,-0.25359 -1.92532,2.84141 -2.35073,2.98663c-1.02341,0.34937 -2.15066,-0.36421 -3.14919,-0.7794c-0.88219,-0.36681 -1.13964,1.8982 -2.0932,1.9581c-0.84242,0.0529 -9.35666,-0.41497 -9.6956,-0.91552c-0.41324,-0.61025 -0.83302,-1.71503 -0.68045,-2.42583c0.05484,-0.25544 0.96254,-1.84822 0.78112,-1.82676c-0.64385,0.07614 -4.16322,3.46984 -6.35605,0.23151c-1.19244,-1.76098 0.94625,-3.60541 0.93776,-5.22953c-0.00524,-1.00298 -1.09678,1.68339 -1.55998,2.57301c-0.35577,0.68331 -1.42553,1.31563 -2.19981,1.34619c-2.67703,0.1057 -1.95574,-2.46074 -2.52872,-3.97104c-0.26441,-0.69698 -1.57343,0.60653 -2.22335,0.24138c-1.58901,-0.89284 -1.36184,-2.05902 -1.51062,-3.59015c-0.06812,-0.70109 -0.52907,2.71905 -2.17244,2.89747c-0.66646,0.07235 -1.7303,-0.93489 -1.98628,-0.31529c-1.24626,3.01652 -0.5324,4.22349 -4.33182,3.76983c-0.36664,-0.04378 -0.97195,0.80268 -1.36652,0.58099c-4.367,-2.45378 -0.91757,-7.925 -0.82449,-11.93388c0.03285,-1.4141 -0.9081,-3.52112 0.31492,-4.23175c0.42956,-0.73997 1.22806,-1.24007 2.1456,-1.24668c0.81355,-0.00587 1.53913,0.37752 2.00001,0.97595c0.07506,0.07643 0.14129,0.16176 0.19645,0.25823z" fill="#ba587e" stroke="none" stroke-width="0.5"/></g><g stroke="#000000" stroke-linecap="butt"><path d="M309.65829,146.75918c0.20617,28.5582 -12.85544,43.38341 -29.42355,43.50303c-16.56812,0.11961 -30.36872,-14.51168 -30.57489,-43.06987c-0.20617,-28.5582 13.05781,-51.80615 29.62591,-51.92577c16.56812,-0.11961 30.16635,22.93441 30.37252,51.49261z" fill="#f0f0f0" stroke-width="2"/><path d="M262.7624,127.51486c-4.09865,28.26329 34.67044,61.79292 18.10234,61.91253c-16.56812,0.11961 -30.36872,-14.51168 -30.57489,-43.06987c-0.20617,-28.5582 18.39798,-59.70303 12.47255,-18.84266z" fill="#9a99ff" stroke-width="0"/></g><path d="M309.30825,152.54119c0.11422,15.8218 -4.48196,28.68176 -10.26588,28.7235c-5.78392,0.04176 -10.5653,-12.7505 -10.67951,-28.5723c-0.11422,-15.8218 4.48196,-28.68175 10.26588,-28.7235c5.78392,-0.04176 10.56529,12.75049 10.6795,28.57229z" fill="#000000" stroke="none" stroke-width="0" stroke-linecap="butt"/><g stroke="#000000" stroke-linecap="butt"><path d="M304.43229,116.76146c4.5332,10.19735 -9.79565,14.19271 -25.50549,14.30612c-15.70985,0.11342 -27.21275,-4.4452 -22.73747,-14.09297c4.25816,-9.17972 6.63494,-21.46738 22.34479,-21.58079c15.70985,-0.11342 21.57799,11.64944 25.89817,21.36764z" fill="#a100fe" stroke-width="2"/><path d="M303.50548,116.41391c4.38113,10.19846 -9.45816,14.19027 -24.63234,14.29981c-15.17418,0.10954 -26.28601,-4.45189 -21.96569,-14.09855c4.11072,-9.17864 6.565,0.91466 21.73918,0.80511c15.17418,-0.10954 20.68356,-10.72564 24.85884,-1.00639z" fill="#99008e" stroke-width="0"/></g><g data-paper-data="{&quot;index&quot;:null}" stroke="#000000" stroke-linecap="butt"><path d="M343.78481,93.05177c16.56812,-0.11961 30.16635,22.93441 30.37252,51.49261c0.20617,28.55819 -13.38175,43.38721 -29.94986,43.50682c-16.56812,0.11961 -29.8424,-14.51548 -30.04857,-43.07366c-0.20617,-28.5582 13.05781,-51.80615 29.62591,-51.92576z" fill="#f0f0f0" stroke-width="2"/><path d="M373.51535,143.71872c0.20617,28.55819 -13.38174,43.38722 -29.94985,43.50682c-16.56812,0.11961 21.71286,-33.96626 17.20656,-62.16744c-6.51477,-40.77056 12.53712,-9.89758 12.74329,18.66061z" fill="#9a99ff" stroke-width="0"/></g><path d="M360.87528,125.56666c5.78392,-0.04176 10.56529,12.75049 10.6795,28.57229c0.11422,15.8218 -4.48196,28.68176 -10.26588,28.7235c-5.78392,0.04176 -10.5653,-12.7505 -10.67951,-28.5723c-0.11422,-15.8218 4.48196,-28.68175 10.26588,-28.7235z" data-paper-data="{&quot;index&quot;:null}" fill="#000000" stroke="none" stroke-width="0" stroke-linecap="butt"/><g data-paper-data="{&quot;index&quot;:null}" stroke="#000000" stroke-linecap="butt"><path d="M318.95126,114.90744c4.17943,-9.77958 9.87712,-21.62591 25.58696,-21.73933c15.70985,-0.11342 18.26378,12.13865 22.65404,21.25592c4.6141,9.58216 -6.82178,14.30638 -22.53162,14.41979c-15.70985,0.11342 -30.09489,-3.67464 -25.7094,-13.93639z" fill="#a100fe" stroke-width="2"/><path d="M319.87295,114.54654c4.03453,-9.77852 9.69659,0.75692 24.87078,0.64737c15.17418,-0.10954 17.48249,-10.23723 21.7253,-1.11889c4.45914,9.58327 -6.58566,14.30468 -21.75985,14.41422c-15.17418,0.10954 -29.06967,-3.68205 -24.83624,-13.94268z" fill="#99008e" stroke-width="0"/></g><path d="M371.63632,338.87c0,11.6628 -14.51982,21.11737 -32.43092,21.11737c-17.9111,0 -32.43092,-9.45457 -32.43092,-21.11737c0,-2.33142 -0.03339,-13.76009 1.08979,-15.13837c4.49546,-5.51647 17.81784,5.26144 32.14847,5.26144c17.9111,0 31.62358,-1.78588 31.62358,9.87692z" fill="#000082" stroke="#000000" stroke-width="2" stroke-linecap="butt"/><path d="M369.75004,336.1377c0,6.30841 -13.89058,10.1901 -31.80169,10.1901c-17.9111,0 -30.16566,-2.95748 -30.16566,-9.26589c0,-1.26107 -0.03338,-12.52602 1.0898,-13.27153c4.49546,-2.98386 15.55258,5.7726 29.88321,5.7726c17.9111,0 30.99434,0.26631 30.99434,6.57472z" fill="#2e0048" stroke="#000000" stroke-width="0" stroke-linecap="butt"/><path d="M328.64938,338.22519c0,11.6628 -14.51982,21.11737 -32.43092,21.11737c-17.9111,0 -32.43092,-9.45457 -32.43092,-21.11737c0,-2.33142 -0.03339,-13.76009 1.08979,-15.13837c4.49546,-5.51647 17.81784,5.26144 32.14847,5.26144c17.9111,0 31.62358,-1.78588 31.62358,9.87692z" fill="#000082" stroke="#000000" stroke-width="2" stroke-linecap="butt"/><path d="M326.7631,335.49289c0,6.30841 -13.89058,10.1901 -31.80169,10.1901c-17.9111,0 -30.16566,-2.95748 -30.16566,-9.26589c0,-1.26107 -0.03338,-12.52602 1.0898,-13.27153c4.49546,-2.98386 15.55258,5.7726 29.88321,5.7726c17.9111,0 30.99434,0.26631 30.99434,6.57472z" fill="#2e0048" stroke="#000000" stroke-width="0" stroke-linecap="butt"/><g><g><path d="M305.80758,250.73435c-14.79301,2.96467 -24.92381,-2.74297 -28.53845,-17.23587c-2.82705,-11.33503 6.96335,-26.57222 21.75638,-29.53689c14.7931,-2.96473 27.45508,4.44054 30.39027,19.08615c0.45901,2.29029 0.20289,4.5402 -0.01183,6.59733c-1.15845,11.09723 -11.11666,18.58821 -23.59635,21.08928z" fill="#485e84" stroke="#000000" stroke-width="2" stroke-linecap="butt"/><path d="M287.47706,211.45947c0,0 0.6951,5.71383 2.50376,6.57529c17.34902,8.26349 31.28515,6.53079 35.85073,5.60594c1.03729,-0.21011 1.4126,-1.26842 1.4126,-1.26842c0,0 0.63074,2.01748 0.57483,4.75809c-0.05949,2.91623 -0.84941,6.64181 -2.38726,9.30266c-1.7567,3.03943 -7.64749,8.93919 -7.64749,8.93919l-19.64713,7.26972c0,0 -11.79727,-6.4637 -13.2224,-8.09648c-1.39616,-1.59956 -2.58946,-3.89277 -3.95636,-6.27991c-2.12228,-3.70642 -2.86932,-8.18399 -2.52516,-11.04343c0.43927,-3.64928 2.45811,-7.85359 4.67996,-10.95614c2.06783,-2.8875 4.36396,-4.80639 4.36396,-4.80639z" fill="#343545" stroke="none" stroke-width="0" stroke-linecap="butt"/><path d="M294.57024,234.84438c0,0 -3.56706,-8.28699 -2.3016,-13.28487c1.6019,-6.32679 8.16307,-17.50954 8.16307,-17.50954" fill="none" stroke="#000000" stroke-width="1" stroke-linecap="round"/><path d="M326.45861,216.60573c0,0 -0.10455,7.14975 -1.19125,11.30798c-1.09701,4.19795 -6.70221,12.11845 -6.70221,12.11845" fill="none" stroke="#000000" stroke-width="1" stroke-linecap="round"/><path d="M284.85407,239.93871c0,0 -3.78861,-8.45179 -2.17143,-13.80283c2.48152,-8.21099 7.92554,-18.45102 7.92554,-18.45102" fill="none" stroke="#000000" stroke-width="1" stroke-linecap="round"/><path d="M277.8715,226.34307c0,0 11.3751,-13.04156 28.70953,-11.29166c18.98764,1.91678 22.05592,18.88959 22.05592,18.88959" fill="none" stroke="#000000" stroke-width="1" stroke-linecap="round"/><path d="M278.48043,235.8475c0,0 13.74801,-11.30728 29.04754,-9.79603c12.56232,1.24088 16.48416,15.29571 16.48416,15.29571" fill="none" stroke="#000000" stroke-width="1" stroke-linecap="round"/><path d="M313.38271,209.52534c-1.12898,-0.41544 -1.77755,-1.47675 -1.44866,-2.37047c0.32883,-0.89379 1.08375,-0.64062 2.21271,-0.22519c1.12898,0.41544 2.20447,0.83582 1.8756,1.72956c-0.32883,0.89379 -1.5107,1.28154 -2.63963,0.86608z" fill="#8fbbbe" stroke="none" stroke-width="0" stroke-linecap="butt"/><path d="M319.8004,212.94177c-0.58976,0.11818 -1.21157,-0.50311 -1.38886,-1.38775c-0.1773,-0.88464 -0.12755,-1.27029 0.4622,-1.38851c0.58976,-0.11818 1.38955,0.46743 1.5668,1.35208c0.1773,0.88464 -0.05045,1.30599 -0.64019,1.42415z" fill="#8fbbbe" stroke="none" stroke-width="0" stroke-linecap="butt"/><path d="M306.86796,207.19675c-0.89852,0.08202 -1.67117,-0.33705 -1.72587,-0.93602c-0.05472,-0.59894 0.73635,-0.61714 1.63484,-0.69918c0.89852,-0.08202 1.56417,-0.1969 1.61887,0.40208c0.05472,0.59894 -0.62936,1.15108 -1.52784,1.2331z" fill="#8fbbbe" stroke="none" stroke-width="0" stroke-linecap="butt"/><path d="M284.20328,214.52217c0,0 8.83628,-5.15751 16.32917,-6.28726c4.24809,-0.6405 8.2133,0.26149 11.21183,0.97902c2.65176,0.63451 7.93524,4.54741 11.66759,7.96322c2.74793,2.51487 4.50841,4.87445 4.50841,4.87445" fill="none" stroke="#000000" stroke-width="0.5" stroke-linecap="round"/><path d="M317.19885,205.50289c0,0 1.67743,10.43859 0.52444,15.71947c-0.97142,4.44927 -6.63559,13.82909 -6.63559,13.82909" fill="none" stroke="#000000" stroke-width="1" stroke-linecap="round"/><path d="M305.24946,234.55539c0,0 -1.42697,-9.5599 -0.9461,-14.05653c0.84433,-7.8952 6.4516,-16.66648 6.4516,-16.66648" fill="none" stroke="#000000" stroke-width="1" stroke-linecap="round"/></g><g stroke="#000000" stroke-linecap="butt"><path d="M277.53976,241.15505c33.1343,3.66564 37.97126,12.01184 37.08154,20.05415c-0.88972,8.04232 -28.47165,11.59031 -61.60596,7.92465c-33.1343,-3.66565 20.2793,-52.27098 21.16902,-60.31328c4.51491,-5.47208 7.86322,0.13028 7.34209,7.97147c-0.64267,9.67004 -6.81887,24.04967 -3.98669,24.36299z" fill="#0d69be" stroke-width="2"/><path d="M303.76172,231.89439c14.22207,1.57338 24.44305,14.67485 22.82918,29.26293c-1.61387,14.5881 -14.45146,25.1386 -28.67354,23.56521c-14.22207,-1.57338 -24.44305,-14.67486 -22.82917,-29.26293c1.61387,-14.5881 14.45145,-25.1386 28.67354,-23.5652z" fill="#faddbf" stroke-width="2"/><path d="M287.79316,270.10765c14.22207,1.57338 39.60279,-24.02534 37.98892,-9.43725c-1.61387,14.5881 -14.45146,25.1386 -28.67354,23.5652c-14.22207,-1.57338 -23.53748,-15.70133 -9.31539,-14.12795z" fill="#ef8b89" stroke-width="0"/></g></g><path d="M233.37583,153.02297l0.05031,-0.24147c0.10044,-0.26003 0.20089,-0.52004 0.30133,-0.78007c1.27296,-1.75246 4.66962,-1.77848 5.47917,0.70051c0.5097,1.5608 0.06423,3.7032 -0.66792,5.13479c-0.4696,0.91823 -1.32079,1.60117 -1.20723,2.7347c0.16777,1.6747 2.29266,2.48434 2.18469,4.36605c-0.03084,0.53743 -0.37329,1.00984 -0.55994,1.51475c-5.47187,0.809 -8.75969,-4.57827 -7.60731,-9.60082c0.32074,-1.39792 1.16831,-2.67953 2.0269,-3.82843z" fill="#000000" stroke="none" stroke-width="0.5" stroke-linecap="butt"/></g></g></svg>