<svg version="1.1" xmlns="http://www.w3.org/2000/svg" xmlns:xlink="http://www.w3.org/1999/xlink" width="194.28736" height="307.31139" viewBox="0,0,194.28736,307.31139"><g transform="translate(-223.24122,-53.67602)"><g data-paper-data="{&quot;isPaintingLayer&quot;:true}" fill-rule="nonzero" stroke-linejoin="miter" stroke-miterlimit="10" stroke-dasharray="" stroke-dashoffset="0" style="mix-blend-mode: normal"><g stroke="#000000" stroke-linecap="butt"><path d="M292.92828,247.84021c-23.86518,23.27599 -47.79156,37.44917 -53.44108,31.65666c-5.64953,-5.79253 9.11721,-29.35723 32.98237,-52.63323c23.86518,-23.27599 47.79156,-37.44917 53.44108,-31.65666c5.64953,5.79253 -9.11721,29.35723 -32.98238,52.63323z" fill="#0d69be" stroke-width="2"/><path d="M269.03208,289.71392c-10.24353,9.99065 -26.85501,9.57193 -37.10279,-0.93522c-10.24776,-10.50715 -10.25121,-27.12391 -0.00765,-37.11457c10.24355,-9.99065 26.85501,-9.57193 37.10279,0.93522c10.24776,10.50716 10.25118,27.12393 0.00765,37.11457z" fill="#faddbf" stroke-width="2"/><path d="M249.64114,253.11829c-10.24355,9.99065 -6.57439,45.85169 -16.82215,35.34452c-10.24776,-10.50715 -10.2512,-27.12391 -0.00765,-37.11457c10.24355,-9.99065 27.07334,-8.22061 16.8298,1.77004z" fill="#ef8b89" stroke-width="0"/></g><g stroke="#000000" stroke-linecap="butt"><path d="M307.76518,340.83537v-95.29492h29.49199v95.29492z" fill="#73fffc" stroke-width="2"/><path d="M307.43943,340.21743l1.32626,-93.78573c0,0 5.20288,68.11227 6.3799,77.52842c0.2602,2.08162 2.52228,2.78987 2.52228,2.78987l18.60659,13.13896z" fill="#59a9e6" stroke-width="0"/></g><g stroke="#000000" stroke-linecap="butt"><path d="M268.4238,338.41283v-95.29492h29.49199v95.29492z" fill="#73fffc" stroke-width="2"/><path d="M268.09805,337.79491l1.32626,-93.78573c0,0 5.20288,68.11227 6.3799,77.52842c0.2602,2.08162 2.52228,2.78987 2.52228,2.78987l18.60659,13.13896z" fill="#59a9e6" stroke-width="0"/></g><g stroke="#000000" stroke-linecap="butt"><path d="M335.22917,235.69588c0,13.80271 10.04743,36.74388 4.95001,46.45977c-6.2338,11.88187 -28.61241,9.09579 -38.9397,9.09579c-13.66287,0 -32.94407,4.17018 -38.34426,-14.83216c-2.01935,-7.10576 4.35457,-32.37264 4.35457,-40.7234c0,-30.68249 15.2177,-55.55556 33.98969,-55.55556c18.77199,0 33.98969,24.87307 33.98969,55.55556z" fill="#0d69be" stroke-width="2"/><path d="M283.96554,251.27245c0,13.80271 62.04198,20.54886 56.94455,30.26474c-6.2338,11.88186 -28.61241,9.09579 -38.9397,9.09579c-13.66287,0 -32.94406,4.17018 -38.34425,-14.83215c-2.01936,-7.10576 4.35457,-32.37265 4.35457,-40.7234c0,-9.45244 3.34855,-28.59801 5.51953,-29.96813c5.94391,-16.76415 10.4653,25.13995 10.4653,46.16315z" fill="#10157d" stroke-width="0"/></g><g stroke-linecap="butt"><g stroke="#000000"><g><path d="M250.77914,111.10427c16.95559,-43.61062 66.05421,-65.21878 109.66482,-48.26319c43.61062,16.95559 65.21878,66.05421 48.26319,109.66482c-16.95559,43.61062 -66.05421,65.21878 -109.66482,48.26319c-43.61062,-16.95559 -65.21878,-66.05421 -48.26319,-109.66482z" fill="#faddbf" stroke-width="2"/><path d="M251.30931,110.37748c5.45522,-14.0311 22.93011,-35.08667 28.29741,-36.44845c0.61296,-0.15552 8.62197,-6.20787 18.06521,-9.74269c11.73731,-4.39355 25.35829,-6.40247 25.85614,-5.99748c6.49546,5.2839 -39.83683,54.09591 -47.84644,78.11593c-0.01911,0.05728 -3.03137,19.95968 -1.68194,20.95524c0.97085,5.46576 1.55108,21.15312 9.10546,31.75104c14.07848,19.75046 38.48399,36.07763 36.91825,36.01149c-2.50462,-0.10581 -14.80005,-2.78323 -20.45089,-4.98025c-43.61062,-16.95559 -65.21878,-66.05421 -48.26319,-109.66482z" fill="#ef8b89" stroke-width="0"/><path d="M408.38533,171.88916c-4.21232,10.83428 -7.13836,14.0059 -6.98188,12.07999c0.15963,-1.96479 3.38217,-9.21428 -3.11954,-16.93036c-1.57549,-1.86976 -11.78682,2.15106 -13.884,0.01798c-1.31727,-1.33982 -4.37679,-12.61923 -5.91543,-13.94278c-1.07579,-0.9254 -14.63971,3.29663 -15.78083,2.36946c-2.846,-2.31241 -7.05226,-14.94482 -10.31008,-16.91743c-1.79398,-1.08626 -12.94589,7.68058 -14.81958,6.67974c-2.41636,-1.29071 -5.01106,-14.89676 -7.5624,-15.88871c-6.78507,-2.638 -9.51191,3.82385 -16.57022,7.52382c-4.58666,2.40433 -8.30807,-17.23379 -12.82675,-14.232c-5.61167,3.72785 -11.11525,7.28501 -16.37243,9.10316c-4.12445,1.42642 -8.79705,-14.2534 -12.42618,-12.85572c-17.52242,6.74841 -28.19376,11.18751 -21.60883,-5.74926c13.24107,-34.05667 43.32189,8.0309 90.06369,3.11273c44.74078,-4.70762 81.35553,21.57272 68.11446,55.62939z" fill="#ef8b89" stroke-width="0"/></g><path d="M412.82657,164.69896c-8.50966,21.88728 2.9296,10.48986 -10.37571,-4.95702c-1.62818,-1.89025 -12.03739,2.05364 -14.20154,-0.10547c-1.35933,-1.35617 -4.5892,-12.70182 -6.17482,-14.04363c-1.10864,-0.93817 -14.94537,3.17779 -16.12084,2.23726c-2.93169,-2.34573 -7.34658,-15.05925 -10.69649,-17.06767c-1.84469,-1.10598 -13.17378,7.59198 -15.09926,6.571c-2.48314,-1.31667 -5.25825,-14.99287 -7.87679,-16.01094c-6.9638,-2.70749 -9.69554,3.75245 -16.88244,7.40243c-4.67022,2.37184 -8.65149,-17.36731 -13.24687,-14.39534c-5.70691,3.69083 -11.30478,7.21132 -16.66607,8.989c-4.20614,1.39466 -9.12514,-14.38096 -12.82487,-13.01073c-17.86333,6.61586 -28.73936,10.97538 -22.15443,-5.96139c13.24107,-34.05667 66.59846,-61.28924 109.40384,-44.64672c42.80538,16.64252 66.15738,70.94257 52.91631,104.99924z" fill="#873412" stroke-width="2"/><path d="M413.01704,163.52543c-8.50966,21.88728 2.9296,10.48986 -10.37571,-4.95702c-1.62818,-1.89025 -12.03739,2.05364 -14.20154,-0.10547c-1.35933,-1.35617 -4.5892,-12.70182 -6.17483,-14.04363c-1.10864,-0.93817 -14.94537,3.17779 -16.12084,2.23726c-2.93169,-2.34573 -7.34658,-15.05925 -10.69649,-17.06767c-1.84469,-1.10598 -13.17378,7.59198 -15.09926,6.571c-2.48314,-1.31667 -5.25825,-14.99287 -7.87679,-16.01094c-6.9638,-2.70749 -9.69554,3.75245 -16.88244,7.40243c-4.67022,2.37184 -8.65149,-17.36731 -13.24687,-14.39534c-5.70691,3.69083 -11.30478,7.21132 -16.66608,8.98899c-4.20614,1.39466 -9.12514,-14.38096 -12.82487,-13.01073c-17.86333,6.61586 -28.73936,10.97538 -22.15443,-5.96139c13.24107,-34.05667 44.38461,8.44408 92.1522,3.92474c45.72265,-4.32587 83.40901,22.37111 70.16795,56.42778z" fill="#741d23" stroke-width="0"/></g><path d="M358.36424,70.23626c0.01872,0.13134 0.02038,0.27518 0.00828,0.42803c-0.00611,0.27567 -0.05829,0.55489 -0.16112,0.82717c-0.31044,1.09849 -0.95263,2.32625 -1.08898,2.80122c-0.17913,0.62402 1.38022,-0.26519 1.94699,0.05143c0.34718,0.19395 0.46086,0.99635 0.83244,0.85465c2.25502,-0.85994 4.78573,-2.94473 6.76486,-0.43366c0.65545,0.83162 -0.05481,2.00723 0.22335,2.85004c0.02339,0.07085 2.48137,0.81818 2.84339,1.53073c0.62379,1.22777 -0.5185,2.2145 -0.3907,3.32923c0.04089,0.3567 0.6957,-0.20401 1.05437,-0.22008c1.59628,-0.07149 4.45268,-0.42171 5.72356,1.14718c0.66965,0.82668 -0.08272,2.26341 0.2296,2.85896c0.54756,1.04408 2.2968,-0.57165 3.47066,-0.68114c1.62352,-0.15144 2.04746,0.76532 2.88613,2.04214c0.14465,0.22022 -1.05657,4.02256 -0.4488,5.50101c0.34163,0.83104 1.85047,-0.20184 2.69333,0.10949c0.84096,0.31064 2.79406,0.295 3.14971,0.54445c0.7134,0.50036 0.87021,2.09884 1.73037,1.95949c4.3917,-0.71142 8.44384,2.41843 5.12268,6.449c-0.4203,0.51009 1.44004,-0.05589 1.9487,0.36613c0.1972,0.1636 1.09631,1.58693 1.33923,1.5891c1.5889,0.01421 2.72415,-0.3138 4.20856,0.25918c1.23278,0.47586 2.14554,1.62886 1.93121,3.02666c-0.11264,0.73461 -1.69895,1.61741 -1.04458,1.96974c1.54244,0.83051 3.82013,2.49432 2.18083,4.5795c-1.77949,2.2635 -4.79013,3.65632 -6.43034,0.77516c-0.56908,-0.99962 -2.59795,0.32318 -3.41653,-0.48492c-1.04866,-1.03523 -0.84201,-3.41024 -0.34901,-4.48096c0.2279,-0.49497 -1.13586,-0.04035 -1.60292,-0.32105c-0.62884,-0.37792 -0.55291,-1.51898 -1.21485,-1.83535c-1.48064,-0.70765 -2.45001,2.55178 -5.78738,0.41031c-0.98506,-0.63208 -1.55467,-2.94449 -1.51054,-4.10534c0.02561,-0.67385 2.30851,-1.94525 2.19946,-2.10092c-0.2648,-0.37802 -2.83812,1.93016 -3.28709,1.90812c-1.0801,-0.05303 -1.86439,-1.13229 -2.63917,-1.8867c-0.68453,-0.66652 -1.75979,1.34355 -2.66812,1.04726c-0.80247,-0.26176 -8.54286,-3.83911 -8.67312,-4.42942c-0.15882,-0.71969 -0.14121,-1.9014 0.26295,-2.5057c0.14525,-0.21718 1.57673,-1.36247 1.4002,-1.40949c-0.6265,-0.16688 -5.14994,1.68826 -5.99271,-2.13079c-0.45829,-2.07677 2.21015,-3.00159 2.80171,-4.51417c0.36532,-0.9341 -1.64066,1.15973 -2.39952,1.81557c-0.58286,0.50375 -1.81046,0.69659 -2.54136,0.43922c-2.52704,-0.88982 -0.90943,-3.00884 -0.88453,-4.62398c0.01149,-0.74538 -1.68622,-0.01702 -2.15545,-0.59628c-1.14727,-1.41629 -0.50572,-2.41628 -0.07886,-3.89422c0.19545,-0.67672 -1.4953,2.33179 -3.08849,1.89106c-0.64611,-0.17874 -1.26307,-1.50751 -1.72966,-1.02614c-2.27164,2.34355 -2.05366,3.72878 -5.41738,1.90483c-0.32459,-0.176 -1.19959,0.38729 -1.48447,0.0356c-3.15299,-3.89234 2.07225,-7.70411 3.63841,-11.39558c0.55245,-1.30214 0.45563,-3.60768 1.85458,-3.81673c0.67234,-0.52918 1.59904,-0.69924 2.45424,-0.36674c0.75828,0.29481 1.29113,0.91895 1.49858,1.64522c0.04155,0.09874 0.0716,0.20249 0.08728,0.31251z" fill="#ba587e" stroke="none" stroke-width="0.5"/></g><g stroke="#000000" stroke-linecap="butt"><path d="M346.7462,182.93143c-10.34891,26.61791 -27.96012,35.57547 -43.40257,29.57152c-15.44245,-6.00395 -22.86839,-24.69584 -12.51948,-51.31374c10.34891,-26.61791 31.25694,-43.32882 46.69939,-37.32487c15.44245,6.00395 19.57158,32.44918 9.22267,59.06709z" fill="#f0f0f0" stroke-width="2"/><path d="M310.26433,147.73709c-14.24095,24.75496 9.41539,70.22646 -6.02705,64.22251c-15.44245,-6.00395 -22.86839,-24.69584 -12.51948,-51.31374c10.34891,-26.61791 39.13474,-48.69713 18.54654,-12.90877z" fill="#9a99ff" stroke-width="0"/></g><path d="M340.13297,189.19387c-5.7335,14.74684 -14.75164,25.0024 -20.14259,22.90643c-5.39094,-2.09597 -5.11325,-15.74977 0.62025,-30.49662c5.7335,-14.74684 14.75164,-25.0024 20.14259,-22.90643c5.39094,2.09597 5.11325,15.74977 -0.62025,30.49662z" fill="#000000" stroke="none" stroke-width="0" stroke-linecap="butt"/><g stroke="#000000" stroke-linecap="butt"><path d="M352.96103,153.12288c0.44939,11.15051 -3.21786,34.01925 -17.86036,28.32632c-14.6425,-5.69293 -34.77522,-38.61938 -27.05503,-45.93419c7.34564,-6.95992 14.08985,-17.50277 28.73235,-11.80983c14.6425,5.69293 15.75476,18.79112 16.18303,29.4177z" fill="#a100fe" stroke-width="2"/><path d="M352.22794,152.45779c0.30766,11.09541 -2.95251,33.61308 -17.09574,28.11426c-14.14323,-5.49882 -33.86223,-37.75508 -26.28648,-45.12605c7.20821,-7.01336 5.76388,3.27315 19.90711,8.77197c14.14323,5.49882 23.18189,-2.33426 23.4751,8.23981z" fill="#99008e" stroke-width="0"/></g><g data-paper-data="{&quot;index&quot;:null}" stroke="#000000" stroke-linecap="butt"><path d="M397.29486,145.9902c15.44245,6.00395 19.57158,32.44918 9.22267,59.06709c-10.34891,26.6179 -28.45067,35.38474 -43.89312,29.3808c-15.44245,-6.00395 -22.37785,-24.50511 -12.02893,-51.12301c10.34891,-26.61791 31.25694,-43.32882 46.69939,-37.32487z" fill="#f0f0f0" stroke-width="2"/><path d="M406.2256,204.05297c-10.34891,26.6179 -28.45067,35.38474 -43.89312,29.3808c-15.44245,-6.00395 32.71638,-23.55405 38.93701,-51.42728c8.99319,-40.29644 15.30502,-4.57143 4.95611,22.04648z" fill="#9a99ff" stroke-width="0"/></g><path d="M398.4027,180.45369c5.39094,2.09597 5.11325,15.74977 -0.62025,30.49662c-5.7335,14.74684 -14.75164,25.0024 -20.14259,22.90643c-5.39094,-2.09597 -5.11325,-15.74977 0.62025,-30.49662c5.7335,-14.74684 14.75164,-25.0024 20.14259,-22.90643z" data-paper-data="{&quot;index&quot;:null}" fill="#000000" stroke="none" stroke-width="0" stroke-linecap="butt"/><g data-paper-data="{&quot;index&quot;:null}" stroke="#000000" stroke-linecap="butt"><path d="M366.14801,157.13692c7.49387,-7.54649 17.16163,-16.45346 31.80413,-10.76053c14.6425,5.69293 12.494,18.02256 13.20919,28.1165c0.75165,10.60862 -35.14283,21.4973 -49.78533,15.80437c-14.6425,-5.69293 -3.09134,-25.24178 4.772,-33.16034z" fill="#a100fe" stroke-width="2"/><path d="M367.13782,157.1417c7.35881,-7.599 8.73259,4.28239 22.87582,9.7812c14.14323,5.49882 20.02658,-3.06182 20.60433,6.97868c0.60721,10.55246 -34.66473,20.91918 -48.80795,15.42036c-14.14323,-5.49882 -2.39383,-24.20658 5.32779,-32.18024z" fill="#99008e" stroke-width="0"/></g><path d="M371.63632,338.87005c0,11.6628 -14.51982,21.11737 -32.43092,21.11737c-17.9111,0 -32.43092,-9.45457 -32.43092,-21.11737c0,-2.33142 -0.03339,-13.76009 1.08979,-15.13837c4.49546,-5.51647 17.81784,5.26144 32.14847,5.26144c17.9111,0 31.62358,-1.78588 31.62358,9.87692z" fill="#000082" stroke="#000000" stroke-width="2" stroke-linecap="butt"/><path d="M369.75004,336.13775c0,6.30841 -13.89058,10.1901 -31.80169,10.1901c-17.9111,0 -30.16566,-2.95748 -30.16566,-9.26589c0,-1.26107 -0.03338,-12.52602 1.0898,-13.27153c4.49546,-2.98386 15.55258,5.7726 29.88321,5.7726c17.9111,0 30.99434,0.26631 30.99434,6.57472z" fill="#2e0048" stroke="#000000" stroke-width="0" stroke-linecap="butt"/><path d="M328.64938,338.22524c0,11.6628 -14.51982,21.11737 -32.43092,21.11737c-17.9111,0 -32.43092,-9.45457 -32.43092,-21.11737c0,-2.33142 -0.03339,-13.76009 1.08979,-15.13837c4.49546,-5.51647 17.81784,5.26144 32.14847,5.26144c17.9111,0 31.62358,-1.78588 31.62358,9.87692z" fill="#000082" stroke="#000000" stroke-width="2" stroke-linecap="butt"/><path d="M326.7631,335.49289c0,6.30841 -13.89058,10.1901 -31.80169,10.1901c-17.9111,0 -30.16566,-2.95748 -30.16566,-9.26589c0,-1.26107 -0.03338,-12.52602 1.0898,-13.27153c4.49546,-2.98386 15.55258,5.7726 29.88321,5.7726c17.9111,0 30.99434,0.26631 30.99434,6.57472z" fill="#2e0048" stroke="#000000" stroke-width="0" stroke-linecap="butt"/><g><g><path d="M322.86534,201.22065c-0.33011,15.08356 -8.10819,23.72715 -23.04045,24.09679c-11.67868,0.28911 -24.41628,-12.58635 -24.08616,-27.66994c0.33008,-15.08363 10.31656,-25.82768 25.24982,-25.50089c2.33527,0.05108 4.47533,0.79133 6.43621,1.44915c10.57812,3.54879 15.7191,14.90008 15.44061,27.62487z" fill="#485e84" stroke="#000000" stroke-width="2" stroke-linecap="butt"/><path d="M280.53988,210.5523c0,0 5.728,0.56672 6.96288,-1.01076c11.84543,-15.13141 13.19119,-29.11022 13.28346,-33.7676c0.02098,-1.05817 -0.93012,-1.65504 -0.93012,-1.65504c0,0 2.10645,-0.17594 4.76901,0.47583c2.83319,0.69353 6.29711,2.27631 8.5589,4.35703c2.5836,2.3768 7.0579,9.41163 7.0579,9.41163l2.81373,20.75913c0,0 -8.87913,10.10526 -10.78321,11.14034c-1.86537,1.01406 -4.36349,1.67897 -6.99112,2.49285c-4.07982,1.26361 -8.61256,1.01698 -11.3283,0.05799c-3.46586,-1.22393 -7.12922,-4.1104 -9.67305,-6.95494c-2.36751,-2.64737 -3.73995,-5.30647 -3.73995,-5.30647z" fill="#343545" stroke="none" stroke-width="0" stroke-linecap="butt"/><path d="M304.90849,208.72535c0,0 -8.86514,1.67552 -13.46714,-0.64861c-5.82569,-2.94207 -15.30995,-11.78238 -15.30995,-11.78238" fill="none" stroke="#000000" stroke-width="1" stroke-linecap="round"/><path d="M294.05693,173.62891c0,0 6.95517,1.66004 10.77666,3.62674c3.858,1.98542 10.36676,9.18188 10.36676,9.18188" fill="none" stroke="#000000" stroke-width="1" stroke-linecap="round"/><path d="M307.76317,219.31814c0,0 -9.07426,1.85586 -13.94432,-0.8885c-7.47292,-4.21114 -16.28058,-11.75575 -16.28058,-11.75575" fill="none" stroke="#000000" stroke-width="1" stroke-linecap="round"/><path d="M292.97268,223.1703c0,0 -10.24942,-13.94364 -4.76423,-30.48016c6.00832,-18.11367 23.24186,-17.40969 23.24186,-17.40969" fill="none" stroke="#000000" stroke-width="1" stroke-linecap="round"/><path d="M302.38138,224.64709c0,0 -8.03972,-15.8816 -3.23088,-30.48415c3.94853,-11.99003 18.52018,-12.75494 18.52018,-12.75494" fill="none" stroke="#000000" stroke-width="1" stroke-linecap="round"/><path d="M284.2973,184.84773c-0.65146,1.01135 -1.8286,1.41305 -2.6292,0.89732c-0.80064,-0.5157 -0.38906,-1.19729 0.26241,-2.20862c0.65146,-1.01135 1.29611,-1.96937 2.09672,-1.45363c0.80064,0.5157 0.92154,1.75364 0.27006,2.76494z" fill="#8fbbbe" stroke="none" stroke-width="0" stroke-linecap="butt"/><path d="M289.03013,179.32871c-0.01318,0.60133 -0.75504,1.07283 -1.65705,1.05311c-0.90203,-0.01974 -1.26757,-0.15232 -1.25443,-0.75365c0.01318,-0.60133 0.75902,-1.25429 1.66101,-1.23454c0.90203,0.01974 1.26361,0.33382 1.25043,0.93516z" fill="#8fbbbe" stroke="none" stroke-width="0" stroke-linecap="butt"/><path d="M280.60507,190.69848c-0.11575,0.8948 -0.69309,1.55756 -1.28961,1.48043c-0.59648,-0.0771 -0.44185,-0.85313 -0.32613,-1.74791c0.11575,-0.8948 0.14867,-1.56949 0.74519,-1.49235c0.59648,0.0771 0.98628,0.86507 0.87054,1.75983z" fill="#8fbbbe" stroke="none" stroke-width="0" stroke-linecap="butt"/><path d="M282.81557,214.4148c0,0 -3.10807,-9.74779 -2.5779,-17.30683c0.30059,-4.28557 2.04496,-7.95893 3.39866,-10.72907c1.19711,-2.44977 6.16729,-6.75362 10.31432,-9.65196c3.05323,-2.13389 5.73974,-3.33788 5.73974,-3.33788" fill="none" stroke="#000000" stroke-width="0.5" stroke-linecap="round"/><path d="M281.2031,180.24674c0,0 10.55328,0.63755 15.45601,2.91361c4.13067,1.9176 12.05081,9.48965 12.05081,9.48965" fill="none" stroke="#000000" stroke-width="1" stroke-linecap="round"/><path d="M306.95355,198.23979c0,0 -9.64115,-0.69052 -13.92491,-2.13968c-7.52147,-2.54447 -14.86009,-9.92835 -14.86009,-9.92835" fill="none" stroke="#000000" stroke-width="1" stroke-linecap="round"/></g><g stroke="#000000" stroke-linecap="butt"><path d="M307.35641,226.72174c10.79783,-31.53927 19.99748,-34.44126 27.65265,-31.82043c7.65517,2.62083 5.10753,30.31308 -5.69031,61.85236c-10.79784,31.53927 -46.59579,-31.18232 -54.25095,-33.80316c-4.35676,-5.59884 1.84062,-7.64586 9.37983,-5.42858c9.29761,2.73443 21.98584,11.89568 22.90879,9.19982z" fill="#0d69be" stroke-width="2"/><path d="M304.03231,199.11192c4.63472,-13.53746 19.64857,-20.65786 33.53442,-15.90388c13.88585,4.75398 21.38539,19.58212 16.75068,33.11957c-4.63472,13.53746 -19.64858,20.65786 -33.53442,15.90387c-13.88585,-4.75398 -21.38536,-19.58211 -16.75064,-33.11958z" fill="#faddbf" stroke-width="2"/><path d="M337.84756,223.02378c4.63472,-13.53746 -14.81816,-43.88644 -0.9323,-39.13248c13.88585,4.75398 21.38537,19.58212 16.75064,33.11958c-4.63472,13.53746 -20.45307,19.55037 -15.81836,6.01291z" fill="#ef8b89" stroke-width="0"/></g></g><path d="M276.68545,170.19703c0.11364,-0.23392 0.58893,-1.04041 1.59055,-0.65099c1.16504,0.45296 0.71208,1.61801 0.71208,1.61801l-0.18157,0.36402c-1.38437,1.95506 -2.97281,3.73538 -4.42255,5.63811c-1.43285,1.3881 -3.10025,3.25418 -5.07763,3.84769c-4.00422,1.20183 -7.37711,-3.10376 -7.55328,-6.71355c-0.22547,-4.61989 2.36816,-9.63599 5.09039,-13.25599c0,0 0.75559,-0.99577 1.75138,-0.24018c0.99577,0.75559 0.24018,1.75138 0.24018,1.75138c-1.94241,2.5325 -4.2983,6.58823 -4.58946,9.84096c-0.18893,2.11056 0.56482,6.14897 3.41179,6.40667c1.79577,0.16254 3.73055,-2.21479 4.85732,-3.29697c1.35855,-1.79836 2.85974,-3.47274 4.17081,-5.30913z" fill="#000000" stroke="none" stroke-width="0.5" stroke-linecap="butt"/></g></g></svg>