<svg version="1.1" xmlns="http://www.w3.org/2000/svg" xmlns:xlink="http://www.w3.org/1999/xlink" width="178.51919" height="322.13931" viewBox="0,0,178.51919,322.13931"><g transform="translate(-220.38721,-38.84806)"><g data-paper-data="{&quot;isPaintingLayer&quot;:true}" fill-rule="nonzero" stroke-linejoin="miter" stroke-miterlimit="10" stroke-dasharray="" stroke-dashoffset="0" style="mix-blend-mode: normal"><g stroke="#000000" stroke-linecap="butt"><path d="M307.76518,340.83532v-95.29492h29.49199v95.29492z" fill="#73fffc" stroke-width="2"/><path d="M307.43943,340.21738l1.32626,-93.78573c0,0 5.20288,68.11227 6.3799,77.52842c0.2602,2.08162 2.52228,2.78987 2.52228,2.78987l18.60659,13.13896z" fill="#59a9e6" stroke-width="0"/></g><g stroke="#000000" stroke-linecap="butt"><path d="M268.4238,338.4128v-95.29492h29.49199v95.29492z" fill="#73fffc" stroke-width="2"/><path d="M268.09805,337.79486l1.32626,-93.78573c0,0 5.20288,68.11227 6.3799,77.52842c0.2602,2.08162 2.52228,2.78987 2.52228,2.78987l18.60659,13.13896z" fill="#59a9e6" stroke-width="0"/></g><path d="M371.63632,338.87c0,11.6628 -14.51982,21.11737 -32.43092,21.11737c-17.9111,0 -32.43092,-9.45457 -32.43092,-21.11737c0,-2.33142 -0.03339,-13.76009 1.08979,-15.13837c4.49546,-5.51647 17.81784,5.26144 32.14847,5.26144c17.9111,0 31.62358,-1.78588 31.62358,9.87692z" fill="#000082" stroke="#000000" stroke-width="2" stroke-linecap="butt"/><path d="M369.75004,336.1377c0,6.30841 -13.89058,10.1901 -31.80169,10.1901c-17.9111,0 -30.16566,-2.95748 -30.16566,-9.26589c0,-1.26107 -0.03338,-12.52602 1.0898,-13.27153c4.49546,-2.98386 15.55258,5.7726 29.88321,5.7726c17.9111,0 30.99434,0.26631 30.99434,6.57472z" fill="#2e0048" stroke="#000000" stroke-width="0" stroke-linecap="butt"/><path d="M328.64938,338.22519c0,11.6628 -14.51982,21.11737 -32.43092,21.11737c-17.9111,0 -32.43092,-9.45457 -32.43092,-21.11737c0,-2.33142 -0.03339,-13.76009 1.08979,-15.13837c4.49546,-5.51647 17.81784,5.26144 32.14847,5.26144c17.9111,0 31.62358,-1.78588 31.62358,9.87692z" fill="#000082" stroke="#000000" stroke-width="2" stroke-linecap="butt"/><path d="M326.7631,335.49289c0,6.30841 -13.89058,10.1901 -31.80169,10.1901c-17.9111,0 -30.16566,-2.95748 -30.16566,-9.26589c0,-1.26107 -0.03338,-12.52602 1.0898,-13.27153c4.49546,-2.98386 15.55258,5.7726 29.88321,5.7726c17.9111,0 30.99434,0.26631 30.99434,6.57472z" fill="#2e0048" stroke="#000000" stroke-width="0" stroke-linecap="butt"/><g stroke="#000000" stroke-linecap="butt"><path d="M340.79371,225.57162c-0.10508,33.33628 -6.74958,60.34002 -14.84091,60.31452c-8.09134,-0.0255 -14.56548,-27.07059 -14.4604,-60.40687c0.10508,-33.33628 6.74958,-60.34002 14.84091,-60.31452c8.09134,0.0255 14.56548,27.07059 14.4604,60.40688z" fill="#0d69be" stroke-width="2"/><path d="M353.93978,271.95712c-0.0451,14.30877 -11.97974,25.87083 -26.65676,25.82457c-14.67702,-0.04627 -26.53854,-11.68331 -26.49343,-25.9921c0.04511,-14.30878 11.97974,-25.87083 26.65676,-25.82457c14.67702,0.04626 26.53853,11.68332 26.49343,25.9921z" fill="#faddbf" stroke-width="2"/><path d="M314.23934,260.16208c-0.04511,14.30878 28.11846,36.80966 13.44144,36.76341c-14.67702,-0.04627 -26.53853,-11.68332 -26.49343,-25.9921c0.04511,-14.30878 13.09709,-25.08009 13.05198,-10.77131z" fill="#ef8b89" stroke-width="0"/></g><g stroke="#000000" stroke-linecap="butt"><path d="M335.22917,235.69584c0,13.80271 10.04743,36.74388 4.95001,46.45977c-6.2338,11.88187 -28.61241,9.09579 -38.9397,9.09579c-13.66287,0 -32.94407,4.17018 -38.34426,-14.83216c-2.01935,-7.10576 4.35457,-32.37264 4.35457,-40.7234c0,-30.68249 15.2177,-55.55556 33.98969,-55.55556c18.77199,0 33.98969,24.87307 33.98969,55.55556z" fill="#0d69be" stroke-width="2"/><path d="M283.96554,251.27246c0,13.80271 62.04198,20.54886 56.94455,30.26474c-6.2338,11.88186 -28.61241,9.09579 -38.9397,9.09579c-13.66287,0 -32.94406,4.17018 -38.34425,-14.83215c-2.01936,-7.10576 4.35457,-32.37265 4.35457,-40.7234c0,-9.45244 3.34855,-28.59801 5.51953,-29.96813c5.94391,-16.76415 10.4653,25.13995 10.4653,46.16315z" fill="#10157d" stroke-width="0"/></g><g stroke-linecap="butt"><g><g stroke="#000000"><g><path d="M223.61526,116.17724c6.18791,-46.37982 48.80248,-78.9618 95.1823,-72.77389c46.37982,6.18791 78.9618,48.80248 72.77389,95.1823c-6.18791,46.37982 -48.80248,78.9618 -95.1823,72.77389c-46.37982,-6.18791 -78.9618,-48.80248 -72.77389,-95.1823z" fill="#faddbf" stroke-width="2"/><path d="M223.95899,115.34589c1.99088,-14.92206 14.00482,-39.50607 18.89932,-42.0957c0.55896,-0.29575 6.91395,-8.0668 15.25665,-13.72977c10.3694,-7.0387 23.1319,-12.20449 23.71125,-11.92839c7.55872,3.60226 -25.94943,61.96747 -28.0659,87.19912c-0.00505,0.06017 1.76327,20.11141 3.30949,20.7605c2.23298,5.08241 6.49793,20.19003 16.33941,28.70647c18.34076,15.87138 45.90937,25.97966 44.37223,26.28479c-2.45887,0.48809 -15.03889,0.78711 -21.04855,-0.0147c-46.37982,-6.18791 -78.9618,-48.80248 -72.77389,-95.1823z" fill="#ef8b89" stroke-width="0"/><path d="M391.1132,138.06225c-1.53728,11.52224 -3.63244,15.29467 -3.93476,13.3862c-0.30843,-1.94698 1.11278,-9.75212 -7.02585,-15.71643c-1.97215,-1.44527 -10.94658,4.87118 -13.48782,3.29312c-1.59619,-0.99121 -7.23048,-11.23038 -9.03795,-12.15355c-1.26374,-0.64547 -13.44866,6.6575 -14.77632,6.02573c-3.31123,-1.57567 -10.3791,-12.85909 -14.01035,-14.0074c-1.99961,-0.63235 -10.76835,10.51808 -12.82528,9.98754c-2.65267,-0.68419 -8.38418,-13.29397 -11.09753,-13.65598c-7.21591,-0.96273 -8.34124,5.96004 -14.32735,11.22082c-3.88992,3.41859 -12.1395,-14.78716 -15.82241,-10.80402c-4.57375,4.94658 -9.08272,9.70176 -13.76254,12.70891c-3.67149,2.35923 -11.91151,-11.77555 -15.10843,-9.5611c-15.43562,10.69195 -24.75839,17.52342 -22.35523,-0.4888c4.8323,-36.21921 43.99364,-2.41672 88.25559,-18.22382c42.36709,-15.13039 84.14852,1.76956 79.31622,37.98878z" fill="#ef8b89" stroke-width="0"/></g><path d="M393.73268,130.02721c-3.10558,23.27708 5.32177,9.50256 -11.25231,-2.36915c-2.02818,-1.45275 -11.21306,4.83564 -13.82552,3.24807c-1.64092,-0.99718 -7.45638,-11.26052 -9.31382,-12.19036c-1.29869,-0.65013 -13.77373,6.61413 -15.13792,5.97749c-3.40236,-1.58784 -10.69211,-12.90085 -14.4213,-14.06223c-2.05355,-0.63954 -11.01072,10.48574 -13.12271,9.94786c-2.72368,-0.69366 -8.64708,-13.32905 -11.43189,-13.70059c-7.40599,-0.9881 -8.53652,5.93399 -14.6594,11.17652c-3.97879,3.40673 -12.50472,-14.83589 -16.26919,-10.86364c-4.67503,4.93306 -9.28428,9.67487 -14.07482,12.66726c-3.75835,2.34764 -12.26043,-11.8221 -15.53244,-9.61767c-15.79817,10.64359 -25.33864,17.44601 -22.93549,-0.56621c4.8323,-36.21921 50.25846,-75.27159 95.78192,-69.19793c45.52345,6.07366 81.02721,53.3314 76.19491,89.55062z" fill="#873412" stroke-width="2"/><path d="M393.6409,128.84187c-3.10558,23.27708 5.32177,9.50256 -11.25231,-2.36915c-2.02818,-1.45275 -11.21306,4.83564 -13.82552,3.24807c-1.64092,-0.99718 -7.45638,-11.26052 -9.31383,-12.19036c-1.29869,-0.65013 -13.77373,6.61413 -15.13792,5.97749c-3.40236,-1.58784 -10.69211,-12.90085 -14.4213,-14.06223c-2.05355,-0.63954 -11.01072,10.48574 -13.12271,9.94786c-2.72368,-0.69366 -8.64708,-13.32905 -11.43189,-13.70059c-7.40599,-0.9881 -8.53652,5.93399 -14.6594,11.17652c-3.97879,3.40673 -12.50472,-14.83589 -16.26919,-10.86364c-4.67503,4.93306 -9.28428,9.67487 -14.07483,12.66725c-3.75835,2.34764 -12.26043,-11.8221 -15.53244,-9.61767c-15.79817,10.64359 -25.33864,17.44601 -22.93549,-0.56621c4.8323,-36.21921 45.12385,-2.26593 90.47672,-17.92747c43.41131,-14.99107 86.33239,2.06094 81.5001,38.28014z" fill="#741d23" stroke-width="0"/></g><path d="M318.52128,51.08044c0.04918,0.12322 0.08473,0.2626 0.10903,0.414c0.05911,0.26933 0.07427,0.55298 0.03858,0.84183c-0.04251,1.14072 -0.37691,2.48534 -0.39735,2.97907c-0.02685,0.64867 1.27868,-0.58335 1.90416,-0.40937c0.38314,0.10657 0.68291,0.85949 1.01057,0.63412c1.98848,-1.3677 3.95588,-3.9907 6.47158,-2.01745c0.83315,0.6535 0.42031,1.9635 0.88945,2.71689c0.03944,0.06333 2.60436,0.20966 3.12426,0.81667c0.89585,1.04594 0.01861,2.27432 0.4058,3.32742c0.12389,0.33698 0.62793,-0.36239 0.97268,-0.46263c1.53435,-0.44608 4.22749,-1.46032 5.83265,-0.23556c0.84578,0.64535 0.45361,2.21903 0.89764,2.72408c0.77844,0.88542 2.09709,-1.0974 3.21198,-1.48074c1.54196,-0.5302 2.17022,0.26066 3.28645,1.30357c0.19252,0.17988 -0.0777,4.15827 0.86172,5.4516c0.52805,0.72698 1.75061,-0.63272 2.64313,-0.52903c0.89051,0.10346 2.78479,-0.37253 3.18924,-0.21403c0.81131,0.31793 1.34082,1.83428 2.14383,1.49593c4.09988,-1.72747 8.77604,0.35801 6.49958,5.05836c-0.28809,0.59485 1.3862,-0.39406 1.98007,-0.10396c0.23023,0.11245 1.43976,1.28347 1.67634,1.22828c1.5474,-0.36107 2.57321,-0.94764 4.1509,-0.74106c1.31025,0.17157 2.46927,1.07667 2.59078,2.48559c0.06386,0.74045 -1.2694,1.97259 -0.55038,2.16058c1.69484,0.44316 4.30077,1.52262 3.1997,3.93569c-1.19523,2.61943 -3.79227,4.68324 -6.06593,2.27039c-0.78885,-0.83713 -2.44837,0.92699 -3.43449,0.33484c-1.2633,-0.7586 -1.62282,-3.11531 -1.39635,-4.27212c0.10469,-0.53476 -1.11331,0.22877 -1.63342,0.06619c-0.70026,-0.21889 -0.89567,-1.34564 -1.61357,-1.49691c-1.6058,-0.33834 -1.77881,3.05777 -5.5272,1.76414c-1.10638,-0.38183 -2.20547,-2.49457 -2.43647,-3.63307c-0.13409,-0.66087 1.7844,-2.43497 1.6417,-2.56053c-0.34651,-0.30487 -2.30261,2.54527 -2.74411,2.62978c-1.06212,0.2033 -2.0789,-0.66045 -3.00979,-1.21078c-0.82246,-0.48621 -1.39312,1.7208 -2.34571,1.64718c-0.84157,-0.06505 -9.20746,-1.71522 -9.47331,-2.25814c-0.32413,-0.6619 -0.58581,-1.81441 -0.33564,-2.497c0.08991,-0.24531 1.21077,-1.69601 1.02813,-1.70005c-0.64818,-0.01435 -4.60625,2.85562 -6.32626,-0.65678c-0.93533,-1.91002 1.4396,-3.43829 1.65759,-5.04775c0.13462,-0.99392 -1.32073,1.51407 -1.90343,2.33044c-0.44755,0.62704 -1.59501,1.10407 -2.36598,1.0264c-2.66563,-0.2685 -1.59363,-2.70934 -1.95049,-4.28476c-0.16468,-0.72704 -1.64263,0.38129 -2.23528,-0.07091c-1.44903,-1.10563 -1.06152,-2.22876 -0.9954,-3.76569c0.03027,-0.70373 -0.90295,2.61875 -2.55514,2.56635c-0.67005,-0.02126 -1.58307,-1.16696 -1.92293,-0.58909c-1.6546,2.81333 -1.11595,4.10803 -4.81504,3.12918c-0.35695,-0.09445 -1.07436,0.65937 -1.43417,0.38483c-3.9823,-3.03857 0.19612,-7.97553 0.84714,-11.9323c0.22964,-1.39572 -0.40838,-3.61333 0.90174,-4.14654c0.5285,-0.67287 1.38893,-1.05676 2.29843,-0.93542c0.80643,0.10759 1.47149,0.58839 1.84443,1.24521c0.06368,0.08615 0.11735,0.17988 0.15854,0.28309z" fill="#ba587e" stroke="none" stroke-width="0.5"/></g><g stroke="#000000"><path d="M333.81932,163.3353c-3.77682,28.30811 -18.77752,41.16779 -35.20054,38.97667c-16.42302,-2.19113 -28.04929,-18.60335 -24.27248,-46.91145c3.77682,-28.30811 20.15202,-49.48008 36.57504,-47.28896c16.42302,2.19113 26.67479,26.91563 22.89798,55.22374z" fill="#f0f0f0" stroke-width="2"/><path d="M290.06395,137.74164c-7.99851,27.416 25.71809,66.02261 9.29507,63.83147c-16.42302,-2.19113 -28.04929,-18.60335 -24.27248,-46.91145c3.77682,-28.30811 26.54088,-56.55546 14.97741,-16.92004z" fill="#9a99ff" stroke-width="0"/></g><path d="M315.78052,176.00921c-2.09243,15.68325 -8.4364,27.77694 -14.16967,27.01202c-5.73325,-0.76492 -8.68474,-14.0988 -6.59231,-29.78203c2.09243,-15.68325 8.4364,-27.77694 14.16967,-27.01202c5.73325,0.76492 8.68474,14.0988 6.59231,29.78203z" fill="#000000" stroke="none" stroke-width="0"/><g stroke="#000000"><path d="M332.82599,132.90196c3.06743,10.72971 -11.67844,12.68864 -27.25073,10.61101c-15.57227,-2.07762 -26.3274,-8.19522 -20.55093,-17.12496c5.49622,-8.4965 9.56268,-20.33288 25.13495,-18.25525c15.57227,2.07762 19.74338,14.54364 22.66669,24.76918z" fill="#a100fe" stroke-width="2"/><path d="M331.95669,132.42861c2.91672,10.7096 -11.34392,12.73327 -26.38522,10.72649c-15.0413,-2.00678 -25.40877,-8.07266 -19.78591,-17.02289c5.35007,-8.516 6.3734,1.82089 21.4147,3.82767c15.0413,2.00678 21.97675,-7.73766 24.75642,2.46873z" fill="#99008e" stroke-width="0"/></g><g data-paper-data="{&quot;index&quot;:null}" stroke="#000000"><path d="M374.22548,115.51099c16.42302,2.19113 26.67479,26.91563 22.89798,55.22374c-3.77682,28.3081 -19.29921,41.09819 -35.72223,38.90706c-16.42302,-2.19113 -27.5276,-18.53374 -23.75079,-46.84184c3.77682,-28.30811 20.15202,-49.48008 36.57504,-47.28896z" fill="#f0f0f0" stroke-width="2"/><path d="M396.60282,169.82764c-3.77682,28.3081 -19.29921,41.09819 -35.72223,38.90706c-16.42302,-2.19113 26.23571,-30.60788 25.70462,-59.16188c-0.7678,-41.28064 13.79442,-8.05328 10.01761,20.25483z" fill="#9a99ff" stroke-width="0"/></g><path d="M367.46575,152.44663c5.73325,0.76492 8.68474,14.0988 6.59231,29.78203c-2.09243,15.68325 -8.4364,27.77694 -14.16967,27.01202c-5.73325,-0.76492 -8.68474,-14.0988 -6.59231,-29.78203c2.09243,-15.68325 8.4364,-27.77694 14.16967,-27.01202z" data-paper-data="{&quot;index&quot;:null}" fill="#000000" stroke="none" stroke-width="0"/><g data-paper-data="{&quot;index&quot;:null}" stroke="#000000"><path d="M346.58774,133.69149c5.50188,-9.10148 12.7953,-20.03791 28.36758,-17.96029c15.57227,2.07762 16.39335,14.56608 19.46981,24.20634c3.23332,10.1318 -8.74946,13.21575 -24.32174,11.13813c-15.57227,-2.07762 -29.2888,-7.83395 -23.51566,-17.38417z" fill="#a100fe" stroke-width="2"/><path d="M347.55074,133.4626c5.35824,-9.12064 9.49641,2.10122 24.53771,4.108c15.0413,2.00678 18.73886,-7.70025 21.66915,1.9205c3.07971,10.11131 -8.51542,13.24697 -23.55672,11.24019c-15.0413,-2.00678 -28.27258,-7.69837 -22.65015,-17.2687z" fill="#99008e" stroke-width="0"/></g><path d="M256.64687,167.92898c-3.50877,5.03333 -8.38036,7.70051 -10.881,5.95729c-2.50064,-1.74321 -1.68338,-7.23669 1.82539,-12.27003c3.50877,-5.03333 8.38036,-7.70051 10.881,-5.95729c2.50064,1.74321 1.68338,7.23669 -1.82539,12.27003z" fill="#000000" stroke="none" stroke-width="0"/></g><g><g><path d="M302.563,249.66444c-14.88529,2.45991 -24.81613,-3.58894 -27.93582,-18.19636c-2.43997,-11.42461 7.86293,-26.32005 22.74823,-28.77996c14.88535,-2.45996 27.2882,5.37161 29.72365,20.10856c0.38087,2.30458 0.04838,4.54448 -0.23616,6.59311c-1.53514,11.05142 -11.74234,18.19942 -24.29987,20.27466z" fill="#485e84" stroke="#000000" stroke-width="2" stroke-linecap="butt"/><path d="M285.57865,209.78892c0,0 0.50039,5.73416 2.2787,6.65663c17.05798,8.84869 31.04498,7.59089 35.63936,6.82185c1.04384,-0.17472 1.45491,-1.21964 1.45491,-1.21964c0,0 0.56176,2.03778 0.41269,4.77489c-0.15861,2.91253 -1.07477,6.60909 -2.70222,9.2161c-1.85904,2.97793 -7.94704,8.67394 -7.94704,8.67394l-19.88298,6.5974c0,0 -11.57064,-6.86115 -12.93941,-8.54144c-1.34096,-1.64611 -2.45559,-3.97857 -3.74052,-6.41083c-1.99502,-3.77644 -2.58936,-8.27684 -2.14815,-11.12291c0.56311,-3.63223 2.72376,-7.76545 5.04982,-10.79066c2.16483,-2.81551 4.52489,-4.65521 4.52489,-4.65521z" fill="#343545" stroke="none" stroke-width="0" stroke-linecap="butt"/><path d="M291.8725,233.40152c0,0 -3.28319,-8.4035 -1.84851,-13.35545c1.81611,-6.26866 8.75377,-17.22181 8.75377,-17.22181" fill="none" stroke="#000000" stroke-width="1" stroke-linecap="round"/><path d="M324.36266,216.25782c0,0 -0.34763,7.14206 -1.5751,11.26093c-1.23913,4.1582 -7.11044,11.88353 -7.11044,11.88353" fill="none" stroke="#000000" stroke-width="1" stroke-linecap="round"/><path d="M281.98872,238.1625c0,0 -3.49901,-8.57574 -1.7008,-13.86869c2.7593,-8.12186 8.5484,-18.17083 8.5484,-18.17083" fill="none" stroke="#000000" stroke-width="1" stroke-linecap="round"/><path d="M275.47252,224.33728c0,0 11.81202,-12.64719 29.0769,-10.30885c18.91149,2.56136 21.40083,19.62869 21.40083,19.62869" fill="none" stroke="#000000" stroke-width="1" stroke-linecap="round"/><path d="M275.7579,233.85691c0,0 14.12458,-10.83322 29.36387,-8.80258c12.51285,1.66735 15.95448,15.84742 15.95448,15.84742" fill="none" stroke="#000000" stroke-width="1" stroke-linecap="round"/><path d="M311.53508,208.73685c-1.11421,-0.45359 -1.7263,-1.53634 -1.36722,-2.41837c0.35903,-0.88209 1.1049,-0.6034 2.21909,-0.14981c1.11421,0.45359 2.17477,0.9103 1.8157,1.79234c-0.35903,0.88209 -1.5534,1.22943 -2.66756,0.77582z" fill="#8fbbbe" stroke="none" stroke-width="0" stroke-linecap="butt"/><path d="M317.8329,212.36955c-0.59344,0.09805 -1.19375,-0.54403 -1.34086,-1.43417c-0.14711,-0.89016 -0.08427,-1.2739 0.50915,-1.37199c0.59344,-0.09805 1.37285,0.51443 1.51993,1.40458c0.14711,0.89016 -0.09483,1.30351 -0.68825,1.40157z" fill="#8fbbbe" stroke="none" stroke-width="0" stroke-linecap="butt"/><path d="M305.1033,206.18808c-0.90079,0.05141 -1.65874,-0.39367 -1.69304,-0.99416c-0.03433,-0.60046 0.7569,-0.59174 1.65766,-0.64318c0.90079,-0.05141 1.56995,-0.1436 1.60426,0.4569c0.03433,0.60046 -0.66814,1.12901 -1.56889,1.18043z" fill="#8fbbbe" stroke="none" stroke-width="0" stroke-linecap="butt"/><path d="M282.20261,212.73852c0,0 9.00655,-4.85404 16.53352,-5.72834c4.26741,-0.49567 8.19965,0.54064 11.17206,1.35972c2.62866,0.72432 7.77601,4.81463 11.39004,8.35538c2.66083,2.60685 4.34005,5.02495 4.34005,5.02495" fill="none" stroke="#000000" stroke-width="0.5" stroke-linecap="round"/><path d="M315.4858,204.84651c0,0 1.32149,10.4896 -0.01043,15.72822c-1.12216,4.41367 -7.10204,13.59545 -7.10204,13.59545" fill="none" stroke="#000000" stroke-width="1" stroke-linecap="round"/><path d="M302.55538,233.47585c0,0 -1.10106,-9.60291 -0.46755,-14.08057c1.11233,-7.86192 7.01462,-16.43744 7.01462,-16.43744" fill="none" stroke="#000000" stroke-width="1" stroke-linecap="round"/></g><g stroke="#000000" stroke-linecap="butt"><path d="M274.63728,239.12941c32.99048,4.79028 37.54083,13.29613 36.37813,21.30354c-1.16269,8.00741 -28.84932,10.6154 -61.8398,5.82511c-32.99048,-4.79028 22.04509,-51.55112 23.20778,-59.55852c4.69839,-5.3154 7.85424,0.39759 7.06676,8.21654c-0.97115,9.64259 -7.63276,23.80388 -4.81286,24.21335z" fill="#0d69be" stroke-width="2"/><path d="M301.15899,230.76581c14.16036,2.05611 23.92988,15.49757 21.82086,30.02234c-2.10902,14.52477 -15.29796,24.63262 -29.45832,22.57652c-14.16036,-2.05611 -23.92988,-15.49758 -21.82085,-30.02235c2.10902,-14.52477 15.29796,-24.63262 29.45832,-22.57651z" fill="#faddbf" stroke-width="2"/><path d="M283.90018,268.41393c14.16036,2.05611 40.39689,-22.66473 38.28787,-8.13996c-2.10902,14.52477 -15.29796,24.63262 -29.45832,22.57651c-14.16036,-2.05611 -22.98992,-16.49266 -8.82956,-14.43655z" fill="#ef8b89" stroke-width="0"/></g></g></g></g></svg>