<svg version="1.1" xmlns="http://www.w3.org/2000/svg" xmlns:xlink="http://www.w3.org/1999/xlink" width="180.46264" height="329.54889" viewBox="0,0,180.46264,329.54889"><g transform="translate(-190.2844,-31.43849)"><g data-paper-data="{&quot;isPaintingLayer&quot;:true}" fill-rule="nonzero" stroke-linejoin="miter" stroke-miterlimit="10" stroke-dasharray="" stroke-dashoffset="0" style="mix-blend-mode: normal"><g stroke="#000000" stroke-linecap="butt"><path d="M322.67711,239.71365c-13.75609,30.24441 -30.74603,52.00352 -37.94811,48.60031c-7.20207,-3.40321 -1.88898,-30.68 11.86711,-60.92442c13.75609,-30.24441 30.74603,-52.00352 37.94811,-48.60031c7.20207,3.40321 1.88898,30.68001 -11.86712,60.92443z" fill="#0d69be" stroke-width="2"/><path d="M315.38489,287.34966c-5.90446,12.98167 -21.2814,18.50106 -34.34537,12.32792c-13.06396,-6.17314 -18.86789,-21.70119 -12.96343,-34.68286c5.90447,-12.98167 21.28141,-18.50106 34.34537,-12.32792c13.06397,6.17314 18.86788,21.70119 12.96343,34.68285z" fill="#faddbf" stroke-width="2"/><path d="M284.83041,260.04877c-5.90447,12.98167 9.97853,45.19018 -3.08544,39.01704c-13.06396,-6.17314 -18.86788,-21.70118 -12.96343,-34.68285c5.90447,-12.98167 21.95333,-17.31587 16.04886,-4.3342z" fill="#ef8b89" stroke-width="0"/></g><g stroke="#000000" stroke-linecap="butt"><path d="M305.5626,340.83533v-95.29492h28.93432v95.29492z" fill="#73fffc" stroke-width="2"/><path d="M305.24301,340.21739l1.30118,-93.78573c0,0 5.1045,68.11227 6.25926,77.52842c0.25528,2.08162 2.47459,2.78987 2.47459,2.78987l18.25475,13.13896z" fill="#59a9e6" stroke-width="0"/></g><g stroke="#000000" stroke-linecap="butt"><path d="M266.96514,338.4128v-95.29492h28.93432v95.29492z" fill="#73fffc" stroke-width="2"/><path d="M266.64555,337.79487l1.30118,-93.78573c0,0 5.1045,68.11227 6.25926,77.52842c0.25528,2.08162 2.47459,2.78987 2.47459,2.78987l18.25475,13.13896z" fill="#59a9e6" stroke-width="0"/></g><g stroke="#000000" stroke-linecap="butt"><path d="M332.50727,235.69585c0,13.80271 9.85744,36.74388 4.85641,46.45977c-6.11592,11.88187 -28.07137,9.09579 -38.20338,9.09579c-13.40451,0 -32.32112,4.17018 -37.6192,-14.83216c-1.98117,-7.10576 4.27223,-32.37264 4.27223,-40.7234c0,-30.68249 14.92994,-55.55556 33.34697,-55.55556c18.41702,0 33.34697,24.87307 33.34697,55.55556z" fill="#0d69be" stroke-width="2"/><path d="M282.213,251.27245c0,13.80271 60.86881,20.54886 55.86777,30.26474c-6.11592,11.88186 -28.07137,9.09579 -38.20338,9.09579c-13.40451,0 -32.32111,4.17018 -37.61919,-14.83215c-1.98118,-7.10576 4.27223,-32.37265 4.27223,-40.7234c0,-9.45244 3.28523,-28.59801 5.41516,-29.96813c5.83151,-16.76415 10.26741,25.13995 10.26741,46.16315z" fill="#10157d" stroke-width="0"/></g><path d="M368.22598,338.87001c0,11.6628 -14.24526,21.11737 -31.81767,21.11737c-17.57241,0 -31.81767,-9.45457 -31.81767,-21.11737c0,-2.33142 -0.03276,-13.76009 1.06918,-15.13837c4.41045,-5.51647 17.48092,5.26144 31.54056,5.26144c17.57241,0 31.0256,-1.78588 31.0256,9.87692z" fill="#000082" stroke="#000000" stroke-width="2" stroke-linecap="butt"/><path d="M366.37537,336.13771c0,6.30841 -13.62792,10.1901 -31.20034,10.1901c-17.57241,0 -29.59525,-2.95748 -29.59525,-9.26589c0,-1.26107 -0.03275,-12.52602 1.06919,-13.27153c4.41045,-2.98386 15.25849,5.7726 29.31814,5.7726c17.57241,0 30.40826,0.26631 30.40826,6.57472z" fill="#2e0048" stroke="#000000" stroke-width="0" stroke-linecap="butt"/><path d="M326.0519,338.2252c0,11.6628 -14.24526,21.11737 -31.81767,21.11737c-17.57241,0 -31.81767,-9.45457 -31.81767,-21.11737c0,-2.33142 -0.03276,-13.76009 1.06918,-15.13837c4.41045,-5.51647 17.48092,5.26144 31.54056,5.26144c17.57241,0 31.0256,-1.78588 31.0256,9.87692z" fill="#000082" stroke="#000000" stroke-width="2" stroke-linecap="butt"/><path d="M324.20129,335.49289c0,6.30841 -13.62792,10.1901 -31.20034,10.1901c-17.57241,0 -29.59525,-2.95748 -29.59525,-9.26589c0,-1.26107 -0.03275,-12.52602 1.06919,-13.27153c4.41045,-2.98386 15.25849,5.7726 29.31814,5.7726c17.57241,0 30.40826,0.26631 30.40826,6.57472z" fill="#2e0048" stroke="#000000" stroke-width="0" stroke-linecap="butt"/><g><g><path d="M272.47753,259.39749c-13.39754,-6.41431 -18.05774,-17.02785 -12.45249,-30.82885c4.3839,-10.79391 20.9964,-17.22105 34.39395,-10.80674c13.39762,6.4143 19.06375,19.89798 12.83349,33.41768c-0.97428,2.11423 -2.48907,3.77068 -3.8587,5.29677c-7.38864,8.23249 -19.61379,8.33239 -30.91622,2.92116z" fill="#485e84" stroke="#000000" stroke-width="2" stroke-linecap="butt"/><path d="M280.93553,216.92156c0,0 -2.78562,5.00693 -1.86173,6.77513c8.86218,16.9611 20.86504,23.85621 25.00568,25.82795c0.94075,0.44798 1.85424,-0.17963 1.85424,-0.17963c0,0 -0.67967,1.99704 -2.32283,4.16705c-1.74846,2.30907 -4.54528,4.83442 -7.31076,6.05897c-3.15899,1.39875 -11.24758,2.6384 -11.24758,2.6384l-19.738,-5.84015c0,0 -5.53347,-12.21247 -5.70483,-14.37264c-0.16789,-2.11626 0.22893,-4.66952 0.54366,-7.40156c0.48868,-4.24187 2.51202,-8.28583 4.45189,-10.37994c2.47573,-2.67253 6.52115,-4.85188 10.08385,-6.02474c3.31575,-1.09158 6.2464,-1.26869 6.2464,-1.26869z" fill="#343545" stroke="none" stroke-width="0" stroke-linecap="butt"/><path d="M272.88566,239.93994c0,0 2.02179,-8.78359 5.93601,-12.04896c4.95499,-4.13365 16.65482,-9.22176 16.65482,-9.22176" fill="none" stroke="#000000" stroke-width="1" stroke-linecap="round"/><path d="M308.67878,244.24192c0,0 -4.25415,5.68574 -7.53747,8.38241c-3.31463,2.72245 -12.35704,5.75648 -12.35704,5.75648" fill="none" stroke="#000000" stroke-width="1" stroke-linecap="round"/><path d="M262.2498,238.25705c0,0 1.94321,-9.04784 6.34091,-12.38795c6.74816,-5.12528 17.01681,-10.11992 17.01681,-10.11992" fill="none" stroke="#000000" stroke-width="1" stroke-linecap="round"/><path d="M264.67513,223.17439c0,0 16.58133,-3.71954 29.23249,7.99637c13.85777,12.83329 6.37464,28.30306 6.37464,28.30306" fill="none" stroke="#000000" stroke-width="1" stroke-linecap="round"/><path d="M259.60984,231.17745c0,0 17.44099,-0.91409 28.62644,9.39979c9.18426,8.46864 4.07692,22.10017 4.07692,22.10017" fill="none" stroke="#000000" stroke-width="1" stroke-linecap="round"/><path d="M302.49665,230.77324c-0.64808,-1.00542 -0.54037,-2.24434 0.24049,-2.76726c0.78086,-0.52299 1.22856,0.12951 1.87663,1.13491c0.64808,1.00542 1.25107,1.98298 0.47019,2.50591c-0.78086,0.52299 -1.93929,0.13183 -2.5873,-0.87357z" fill="#8fbbbe" stroke="none" stroke-width="0" stroke-linecap="butt"/><path d="M305.56509,237.33657c-0.53412,-0.25573 -0.66203,-1.12501 -0.28572,-1.94164c0.37632,-0.81663 0.64058,-1.09709 1.17471,-0.84139c0.53412,0.25573 0.82324,1.20219 0.4469,2.0188c-0.37632,0.81663 -0.8018,1.01992 -1.3359,0.7642z" fill="#8fbbbe" stroke="none" stroke-width="0" stroke-linecap="butt"/><path d="M298.71692,225.02679c-0.75654,-0.46844 -1.12145,-1.26483 -0.81509,-1.7789c0.30631,-0.51406 0.94087,-0.05822 1.69739,0.41017c0.75654,0.46844 1.34859,0.77195 1.04225,1.28602c-0.30631,0.51406 -1.16802,0.55109 -1.92454,0.08268z" fill="#8fbbbe" stroke="none" stroke-width="0" stroke-linecap="butt"/><path d="M276.56639,217.43679c0,0 9.97872,1.10882 16.54778,4.65674c3.72433,2.0115 6.32551,5.09482 8.2719,7.45496c1.72131,2.08716 3.60548,8.37506 4.55626,13.34084c0.70004,3.65604 0.71182,6.59998 0.71182,6.59998" fill="none" stroke="#000000" stroke-width="0.5" stroke-linecap="round"/><path d="M307.85355,229.809c0,0 -4.7676,9.38953 -8.75827,12.9493c-3.36222,2.9992 -13.30264,7.17135 -13.30264,7.17135" fill="none" stroke="#000000" stroke-width="1" stroke-linecap="round"/><path d="M281.47732,246.05875c0,0 4.45246,-8.53418 7.4554,-11.86317c5.27259,-5.84506 14.81303,-9.56184 14.81303,-9.56184" fill="none" stroke="#000000" stroke-width="1" stroke-linecap="round"/></g><g stroke="#000000" stroke-linecap="butt"><path d="M255.77108,234.88493c23.99525,22.65254 22.94053,32.23897 17.54631,38.17531c-5.39423,5.93635 -29.21913,-7.61482 -53.21438,-30.26737c-23.99525,-22.65254 46.49367,-29.96187 51.88788,-35.89821c6.75388,-1.71409 6.12595,4.78114 1.13978,10.77501c-6.14912,7.39185 -19.41062,15.27901 -17.3596,17.21526z" fill="#0d69be" stroke-width="2"/><path d="M281.85651,243.03471c10.29938,9.72305 10.71662,26.33436 0.93193,37.1024c-9.78469,10.76805 -26.06603,11.61519 -36.36541,1.89214c-10.29937,-9.72304 -10.71661,-26.33436 -0.93192,-37.10241c9.78469,-10.76805 26.06603,-11.61518 36.3654,-1.89214z" fill="#faddbf" stroke-width="2"/><path d="M246.96517,264.25878c10.29937,9.72304 45.25413,4.23779 35.46944,15.00583c-9.78469,10.76805 -26.06603,11.61519 -36.3654,1.89214c-10.29938,-9.72305 -9.40342,-26.62102 0.89595,-16.89796z" fill="#ef8b89" stroke-width="0"/></g></g><g stroke-linecap="butt"><g data-paper-data="{&quot;index&quot;:null}"><g stroke="#000000"><g><path d="M283.97497,204.61737c-45.90601,0 -83.12018,-37.93143 -83.12018,-84.72222c0,-46.79079 37.21417,-84.72222 83.12018,-84.72222c45.90601,0 83.12018,37.93143 83.12018,84.72222c0,46.79079 -37.21417,84.72222 -83.12018,84.72222z" fill="#faddbf" stroke-width="2"/><path d="M366.86873,119.02565c0,46.79079 -37.21417,84.72222 -83.12018,84.72222c-5.94826,0 -18.1432,-1.96005 -20.47107,-2.76903c-1.45524,-0.50573 26.66602,-6.87938 46.56116,-20.18586c10.67555,-7.14014 16.78325,-21.55104 19.61419,-26.29351c1.58788,-0.43891 5.90909,-20.08018 5.91198,-20.14049c1.21548,-25.28993 -23.79768,-87.57384 -15.97964,-90.14485c0.59922,-0.19706 12.34018,6.61116 21.5109,14.95935c7.3783,6.71653 12.5501,15.25975 13.0553,15.62682c4.42378,3.21417 12.91735,29.17106 12.91735,44.22534z" fill="#ef8b89" stroke-width="0"/><path d="M201.36832,119.43696c0,-36.54015 42.82403,-47.76623 82.06181,-27.16584c40.99268,21.52174 83.46178,-6.80492 83.46178,29.73523c0,18.17183 -8.1798,10.16746 -21.8033,-2.47189c-2.82161,-2.61778 -12.66874,10.30314 -15.93306,7.47909c-4.16083,-3.59963 -7.92872,-8.90935 -11.73478,-14.41734c-3.06474,-4.4352 -13.44935,12.51967 -16.78865,8.61668c-5.13878,-6.00622 -5.33493,-13.01701 -12.47712,-13.01701c-2.68563,0 -9.89544,11.74106 -12.56386,12.06843c-2.06914,0.25385 -9.14979,-11.95827 -11.17641,-11.59592c-3.68028,0.65801 -12.01758,10.90762 -15.44209,12.03156c-1.37308,0.45065 -12.27505,-8.39959 -13.58776,-7.92692c-1.87749,0.67603 -8.68518,10.08015 -10.36604,10.85157c-2.67603,1.22814 -10.5839,-6.21968 -12.68928,-5.04791c-8.68844,4.83563 -8.31904,12.76015 -8.87159,14.64925c-0.54161,1.85172 -2.08964,-2.16465 -2.08964,-13.78899z" fill="#ef8b89" stroke-width="0"/></g><path d="M199.86344,111.12607c0,-36.54015 40.65796,-78.68758 85.71634,-78.68758c45.05839,0 84.16726,44.71682 84.16726,81.25697c0,18.17183 -8.39527,10.16746 -22.37762,-2.47189c-2.89592,-2.61778 -13.00243,10.30314 -16.35274,7.47909c-4.27042,-3.59963 -8.13757,-8.90935 -12.04387,-14.41734c-3.14547,-4.4352 -13.80361,12.51967 -17.23088,8.61668c-5.27414,-6.00622 -5.47545,-13.01701 -12.80577,-13.01701c-2.75636,0 -10.15609,11.74106 -12.8948,12.06843c-2.12365,0.25385 -9.3908,-11.95827 -11.4708,-11.59592c-3.77722,0.65801 -12.33412,10.90762 -15.84884,12.03156c-1.40924,0.45065 -12.59838,-8.39959 -13.94567,-7.92692c-1.92695,0.67603 -8.91395,10.08015 -10.63908,10.85157c-2.74652,1.22814 -10.86269,-6.21968 -13.02353,-5.04791c-17.65815,9.57557 -11.24996,24.3436 -11.24996,0.86026z" fill="#873412" stroke-width="2"/><path d="M200.10651,109.96328c0,-36.54015 43.95205,-47.76623 84.22338,-27.16584c42.07245,21.52174 85.66021,-6.80492 85.66021,29.73523c0,18.17183 -8.39527,10.16746 -22.37762,-2.47189c-2.89592,-2.61778 -13.00243,10.30314 -16.35274,7.47909c-4.27043,-3.59963 -8.13758,-8.90935 -12.04388,-14.41734c-3.14547,-4.4352 -13.80361,12.51967 -17.23088,8.61668c-5.27414,-6.00622 -5.47545,-13.01701 -12.80577,-13.01701c-2.75636,0 -10.15609,11.74106 -12.8948,12.06843c-2.12365,0.25385 -9.3908,-11.95827 -11.4708,-11.59592c-3.77722,0.65801 -12.33412,10.90762 -15.84884,12.03156c-1.40924,0.45065 -12.59838,-8.39959 -13.94567,-7.92692c-1.92696,0.67603 -8.91396,10.08015 -10.63909,10.85157c-2.74652,1.22814 -10.86269,-6.21968 -13.02353,-5.04791c-17.65815,9.57557 -11.24996,24.3436 -11.24996,0.86026z" fill="#741d23" stroke-width="0"/></g><path d="M283.24757,42.81917c0.05345,-0.09686 0.11781,-0.18267 0.19091,-0.25964c0.4479,-0.60173 1.15704,-0.99036 1.95523,-0.99036c0.90021,0 1.68714,0.49431 2.1138,1.23116c1.20489,0.70178 0.29669,2.81554 0.33893,4.22937c0.11972,4.0081 3.54258,9.45428 -0.72434,11.93952c-0.38553,0.22455 -0.98538,-0.61753 -1.34476,-0.57111c-3.72427,0.48107 -3.03247,-0.73102 -4.27651,-3.73846c-0.25553,-0.61773 -1.29208,0.39716 -1.94643,0.32962c-1.61351,-0.16655 -2.08997,-3.58326 -2.15184,-2.88171c-0.13511,1.53217 0.09602,2.69668 -1.45658,3.60097c-0.63501,0.36985 -1.92847,-0.9242 -2.18296,-0.22532c-0.55144,1.51439 0.17437,4.07556 -2.45273,3.98918c-0.75984,-0.02498 -1.81381,-0.64956 -2.16769,-1.33028c-0.46074,-0.88626 -1.55063,-3.56468 -1.54867,-2.56169c0.00318,1.62414 2.11444,3.45307 0.95704,5.22262c-2.12838,3.25409 -5.60513,-0.11412 -6.23733,-0.18561c-0.17814,-0.02015 0.72365,1.56603 0.77926,1.82108c0.15473,0.70968 -0.24929,1.81746 -0.65037,2.43068c-0.32898,0.50299 -8.67869,1.03231 -9.50553,0.98549c-0.93592,-0.053 -1.20453,-2.3161 -2.06743,-1.94293c-0.97668,0.42238 -2.07753,1.14408 -3.08404,0.80211c-0.41838,-0.14215 -1.95085,-3.22595 -2.32737,-2.96958c-0.15506,0.10558 1.48044,2.11782 1.26429,2.75515c-0.37235,1.09794 -1.71531,3.04678 -2.84078,3.27894c-3.81306,0.78656 -3.54067,-2.60261 -5.14616,-2.4796c-0.71777,0.055 -1.054,1.14602 -1.76337,1.27038c-0.52688,0.09237 -1.61229,-0.82553 -1.57987,-0.28162c0.07014,1.1766 -0.58526,3.46507 -1.9122,4.04994c-1.03581,0.45655 -2.42075,-1.51155 -3.2965,-0.78609c-2.52413,2.09098 -4.78191,-0.29815 -5.60438,-3.05264c-0.75768,-2.53749 1.91658,-3.26285 3.62227,-3.47798c0.72362,-0.09126 -0.41307,-1.48889 -0.2549,-2.21439c0.30096,-1.38047 1.54551,-2.12435 2.84195,-2.12114c1.56106,0.00387 2.48253,0.72096 3.94049,1.28349c0.2229,0.086 1.55107,-0.91478 1.78956,-0.9958c0.61516,-0.20901 2.11505,0.99263 1.91208,0.36491c-1.60396,-4.96012 3.21407,-6.40887 6.97697,-4.15438c0.73701,0.44157 1.44868,-0.99144 2.27891,-1.19928c0.41389,-0.10362 2.19427,0.6187 3.07369,0.63391c0.8814,0.01525 1.8939,1.52469 2.50173,0.87393c1.08136,-1.15773 1.33475,-5.13692 1.54532,-5.28976c1.22082,-0.88613 1.9344,-1.58696 3.36512,-0.8575c1.03446,0.52742 2.05956,2.66721 2.93145,1.89251c0.49732,-0.4419 0.32013,-2.05362 1.22636,-2.58145c1.71988,-1.00173 4.20729,0.35977 5.64153,1.00484c0.32226,0.14495 0.72168,0.90484 0.88589,0.5872c0.51317,-0.99265 -0.18055,-2.32625 0.82634,-3.24453c0.58436,-0.53293 3.09766,-0.33877 3.14423,-0.39633c0.55398,-0.68473 0.32246,-2.03782 1.21747,-2.5754c2.70247,-1.62323 4.2754,1.23692 6.03169,2.85557c0.2894,0.26672 0.67861,-0.43995 1.06503,-0.49491c0.63083,-0.08972 1.74058,1.30412 1.79863,0.6576c0.04418,-0.4921 -0.10656,-1.86913 0.00011,-3.00545c0.00277,-0.29104 0.05432,-0.57019 0.14674,-0.82934c0.04328,-0.14685 0.09593,-0.28031 0.15974,-0.39594z" fill="#ba587e" stroke="none" stroke-width="0.5"/></g><g data-paper-data="{&quot;index&quot;:null}" stroke="#000000"><path d="M283.23877,100.35439c16.25524,0 29.43272,23.15159 29.43272,51.71053c0,28.55893 -13.43566,43.28947 -29.6909,43.28947c-16.25524,0 -29.17454,-14.73053 -29.17454,-43.28947c0,-28.55894 13.17748,-51.71053 29.43272,-51.71053z" fill="#f0f0f0" stroke-width="2"/><path d="M312.04749,151.23467c0,28.55893 -13.43566,43.28947 -29.6909,43.28947c-16.25524,0 21.5423,-33.80863 17.32107,-62.0416c-6.10265,-40.81653 12.36984,-9.80681 12.36984,18.75213z" fill="#9a99ff" stroke-width="0"/></g><path d="M299.03536,132.17404c5.67469,0 10.27493,12.82644 10.27493,28.64865c0,15.82221 -4.60025,28.64865 -10.27493,28.64865c-5.67469,0 -10.27493,-12.82644 -10.27493,-28.64865c0,-15.82221 4.60025,-28.64865 10.27493,-28.64865z" data-paper-data="{&quot;index&quot;:null}" fill="#000000" stroke="none" stroke-width="0"/><g data-paper-data="{&quot;index&quot;:null}" stroke="#000000"><path d="M258.72063,122.03024c4.16956,-9.74914 9.84326,-21.55405 25.25645,-21.55405c15.41319,0 17.83199,12.27019 22.07454,21.41892c4.45887,9.61522 -25.65664,33.0083 -41.06983,33.0083c-15.41319,0 -10.63631,-22.64335 -6.26117,-32.87316z" fill="#a100fe" stroke-width="2"/><path d="M259.62743,121.676c4.02739,-9.74914 9.50763,0.8269 24.39527,0.8269c14.88764,0 17.22397,-10.11076 21.32186,-0.96203c4.30683,9.61522 -25.19211,32.53358 -40.07975,32.53358c-14.88764,0 -9.86334,-22.16863 -5.63739,-32.39844z" fill="#99008e" stroke-width="0"/></g><g data-paper-data="{&quot;index&quot;:null}" stroke="#000000"><path d="M250.14984,151.02762c0,28.55894 -12.9193,43.28947 -29.17454,43.28947c-16.25524,0 -29.6909,-14.73054 -29.6909,-43.28947c0,-28.55894 13.17748,-51.71053 29.43272,-51.71053c16.25524,0 29.43272,23.15159 29.43272,51.71053z" fill="#f0f0f0" stroke-width="2"/><path d="M204.27823,131.44522c-4.22123,28.23297 33.57631,62.0416 17.32107,62.0416c-16.25524,0 -29.6909,-14.73054 -29.6909,-43.28947c0,-28.55894 18.47249,-59.56866 12.36984,-18.75213z" fill="#9a99ff" stroke-width="0"/></g><path d="M243.97148,160.47222c0,15.82221 -4.60025,28.64865 -10.27493,28.64865c-5.67469,0 -10.27493,-12.82644 -10.27493,-28.64865c0,-15.82221 4.60025,-28.64865 10.27493,-28.64865c5.67469,0 10.27493,12.82644 10.27493,28.64865z" data-paper-data="{&quot;index&quot;:null}" fill="#000000" stroke="none" stroke-width="0"/><g data-paper-data="{&quot;index&quot;:null}" stroke="#000000"><path d="M245.23526,120.99292c4.37513,10.22981 7.98766,32.6358 -7.42553,32.6358c-15.41319,0 -44.36434,-23.15572 -39.90547,-32.77094c4.24255,-9.14873 6.66135,-21.41892 22.07454,-21.41892c15.41319,0 21.0869,11.80491 25.25645,21.55405z" fill="#a100fe" stroke-width="2"/><path d="M244.32847,120.63868c4.22595,10.22981 8.31877,31.92372 -6.56887,31.92372c-14.88764,0 -43.4551,-22.44364 -39.14827,-32.05886c4.09789,-9.14873 6.43422,0.96203 21.32186,0.96203c14.88764,0 20.36788,-10.57604 24.39527,-0.8269z" fill="#99008e" stroke-width="0"/></g><path d="M328.20306,163.64001c-0.34699,-0.28363 -0.45522,-0.72485 -0.45522,-0.72485l-0.12879,-0.54147c-0.47328,-2.89442 -0.66508,-5.63328 -0.44314,-8.56671c0.68603,-3.89132 5.89443,-7.85127 9.14391,-3.84469c1.25462,1.54694 1.63141,4.13187 1.79941,6.05138c0.56058,6.40492 0.00079,13.73597 -3.46938,19.25698c-2.14786,3.28342 -4.48799,3.4762 -8.10704,3.45878c-2.90911,-0.014 -5.62066,-1.13766 -5.01654,-4.69061c0.35178,-2.06889 1.63927,-4.59256 3.23957,-5.94145c0.88552,-0.7464 2.11136,-1.03551 2.9199,-1.86773c0.52414,-0.53949 0.55544,-1.63471 0.51729,-2.58962z" fill="#000000" stroke="none" stroke-width="0.5"/></g></g></g></svg>