<svg version="1.1" xmlns="http://www.w3.org/2000/svg" xmlns:xlink="http://www.w3.org/1999/xlink" width="224.02517" height="348.69859" viewBox="0,0,224.02517,348.69859"><g transform="translate(-191.38496,-12.11728)"><g data-paper-data="{&quot;isPaintingLayer&quot;:true}" fill-rule="nonzero" stroke-linejoin="miter" stroke-miterlimit="10" stroke-dasharray="" stroke-dashoffset="0" style="mix-blend-mode: normal"><g stroke="#000000" stroke-linecap="butt"><path d="M358.80952,223.31955c26.52003,23.58956 43.06989,47.60675 36.96516,53.64391c-6.10474,6.03716 -32.55235,-8.19188 -59.07238,-31.78144c-26.52003,-23.58956 -43.06989,-47.60675 -36.96516,-53.64391c6.10474,-6.03716 32.55235,8.19188 59.07238,31.78145z" fill="#0d69be" stroke-width="2"/><path d="M405.70591,246.1958c11.38307,10.12523 11.63402,27.21082 0.56053,38.16173c-11.0735,10.95091 -29.27815,11.62025 -40.66121,1.49501c-11.38307,-10.12524 -11.63402,-27.21082 -0.56053,-38.16173c11.0735,-10.95092 29.27815,-11.62024 40.66121,-1.49501z" fill="#faddbf" stroke-width="2"/><path d="M366.44135,267.58696c11.38307,10.12524 50.51452,4.91815 39.44102,15.86907c-11.0735,10.95091 -29.27813,11.62024 -40.66121,1.49501c-11.38307,-10.12524 -10.16288,-27.4893 1.22018,-17.36407z" fill="#ef8b89" stroke-width="0"/></g><g stroke="#000000" stroke-linecap="butt"><path d="M351.15631,353.89943l-63.5223,-77.80192l25.67256,-18.43809l63.52231,77.80192z" fill="#73fffc" stroke-width="2"/><path d="M350.46085,353.59858l-61.3618,-77.39893c0,0 49.93177,52.35631 57.23305,59.30811c1.61409,1.53682 4.05533,0.70084 4.05533,0.70084l24.95515,-0.90557z" fill="#59a9e6" stroke-width="0"/></g><g stroke="#000000" stroke-linecap="butt"><path d="M246.45304,325.644l39.57012,-90.69318l29.92633,11.4857l-39.57012,90.69319z" fill="#73fffc" stroke-width="2"/><path d="M246.37908,324.92904l40.28924,-88.74036c0,0 -23.00333,66.84944 -25.71893,76.26928c-0.60034,2.08243 1.40096,3.63746 1.40096,3.63746l13.42481,19.75084z" fill="#59a9e6" stroke-width="0"/></g><g stroke="#000000" stroke-linecap="butt"><path d="M338.0617,232.18179c0,14.19349 11.01601,37.78417 5.42719,47.77514c-6.83474,12.21827 -31.37067,9.35331 -42.69352,9.35331c-14.97998,0 -36.11991,4.28825 -42.04068,-15.25209c-2.21402,-7.30694 4.77435,-33.28917 4.77435,-41.87635c0,-31.55117 16.6847,-57.12844 37.26633,-57.12844c20.58163,0 37.26633,25.57727 37.26633,57.12844z" fill="#0d69be" stroke-width="2"/><path d="M281.85621,248.19939c0,14.19349 68.02289,21.13063 62.43405,31.12159c-6.83474,12.21826 -31.37067,9.35331 -42.69352,9.35331c-14.97998,0 -36.1199,4.28825 -42.04067,-15.25208c-2.21403,-7.30694 4.77435,-33.28918 4.77435,-41.87635c0,-9.72005 3.67136,-29.40768 6.05162,-30.81658c6.51691,-17.23877 11.47416,25.85171 11.47416,47.47012z" fill="#10157d" stroke-width="0"/></g><g stroke-linecap="butt"><g stroke="#000000"><g><path d="M196.99271,115.73977c-7.69673,-47.57093 27.18118,-91.98674 77.902,-99.20549c50.72081,-7.21875 98.07759,25.49317 105.77431,73.0641c7.69673,47.57093 -27.18118,91.98674 -77.902,99.20549c-50.72081,7.21874 -98.07758,-25.49317 -105.77431,-73.0641z" fill="#faddbf" stroke-width="2"/><path d="M197.09983,114.82016c-2.47632,-15.30529 2.63839,-43.03056 6.99744,-46.99397c0.49781,-0.45263 4.80676,-9.95156 11.85412,-17.94032c8.75937,-9.92948 20.61187,-18.69747 21.30636,-18.59136c9.06093,1.38449 -8.33047,68.64019 -2.8275,94.16064c0.01312,0.06087 8.0184,19.35009 9.84502,19.54663c3.90796,4.37638 13.02675,18.06711 25.99649,23.64756c24.17064,10.39981 56.28979,12.45765 54.7651,13.20064c-2.43896,1.18852 -15.59054,5.09892 -22.16267,6.03428c-50.72081,7.21874 -98.07758,-25.49317 -105.77431,-73.0641z" fill="#ef8b89" stroke-width="0"/><path d="M380.02624,89.2133c1.91212,11.81815 0.86237,16.14492 -0.04063,14.34749c-0.92124,-1.83371 -1.81663,-9.94845 -12.21176,-13.49844c-2.51894,-0.86023 -10.03112,7.95529 -13.18983,7.12748c-1.98405,-0.51997 -11.05265,-9.01037 -13.23827,-9.40244c-1.52814,-0.27412 -12.11777,10.43801 -13.70898,10.19577c-3.96858,-0.60418 -14.8663,-9.71363 -19.04082,-9.80388c-2.29878,-0.0497 -8.11327,13.47946 -10.4412,13.54676c-3.00214,0.08679 -12.89946,-10.7163 -15.86677,-10.29397c-7.89129,1.12311 -6.9548,8.28164 -11.64457,15.19609c-3.04752,4.49318 -17.31025,-11.1114 -19.96689,-6.12033c-3.29923,6.19834 -6.5889,12.18909 -10.59403,16.50302c-3.14216,3.38446 -16.14748,-8.20343 -18.83443,-5.09831c-12.9733,14.99238 -20.69438,24.4165 -23.68351,5.94169c-6.01056,-37.14938 45.57237,-15.02872 87.32436,-43.35542c39.96458,-27.11402 89.12677,-22.43486 95.13735,14.71452z" fill="#ef8b89" stroke-width="0"/></g><path d="M380.32186,80.52721c3.86283,23.87488 8.51391,7.85292 -12.57141,0.89445c-2.58023,-0.85152 -10.32253,7.99676 -13.55914,7.18003c-2.03297,-0.513 -11.29969,-8.97521 -13.53996,-9.35949c-1.56635,-0.26869 -12.47326,10.48861 -14.10445,10.25205c-4.06823,-0.58999 -15.20861,-9.66491 -19.49022,-9.73993c-2.35776,-0.04132 -8.37833,13.51719 -10.76646,13.59305c-3.0798,0.09783 -13.18696,-10.67537 -16.23242,-10.24193c-8.09916,1.1527 -7.16836,8.31204 -12.00769,15.24776c-3.14471,4.507 -17.70967,-11.05456 -20.4555,-6.05079c-3.40998,6.21409 -6.80932,12.22046 -10.93553,16.55162c-3.23716,3.39797 -16.52908,-8.14913 -19.29812,-5.03231c-13.36979,15.04881 -21.32895,24.5068 -24.31807,6.032c-6.01056,-37.14938 29.8446,-88.76165 79.6289,-95.84712c49.78429,-7.08545 101.63955,29.37122 107.65012,66.52061z" fill="#873412" stroke-width="2"/><path d="M379.86206,79.38325c3.86283,23.87488 8.51392,7.85293 -12.5714,0.89445c-2.58023,-0.85152 -10.32254,7.99676 -13.55915,7.18003c-2.03297,-0.513 -11.29969,-8.97521 -13.53997,-9.35949c-1.56635,-0.26869 -12.47326,10.48861 -14.10445,10.25205c-4.06823,-0.58999 -15.20861,-9.66491 -19.49023,-9.73993c-2.35776,-0.04132 -8.37833,13.51719 -10.76646,13.59305c-3.0798,0.09783 -13.18695,-10.67537 -16.23241,-10.24193c-8.09916,1.1527 -7.16837,8.31204 -12.0077,15.24776c-3.14471,4.507 -17.70966,-11.05456 -20.45549,-6.05079c-3.40998,6.21409 -6.80932,12.22046 -10.93554,16.55162c-3.23716,3.39797 -16.52908,-8.14913 -19.29813,-5.03231c-13.36979,15.04881 -21.32894,24.5068 -24.31806,6.032c-6.01056,-37.14938 46.80836,-15.20463 89.75337,-43.70112c41.10654,-27.27655 91.51506,-22.77477 97.52563,14.3746z" fill="#741d23" stroke-width="0"/></g><path d="M276.95612,24.19357c0.08952,0.10753 0.16966,0.23493 0.24163,0.37742c0.14475,0.24895 0.24762,0.52462 0.29856,0.82009c0.30477,1.13849 0.36473,2.56218 0.49448,3.05554c0.17048,0.64817 1.16736,-0.94341 1.87911,-0.9514c0.43599,-0.0049 0.98226,0.65236 1.25814,0.33568c1.67425,-1.92182 2.94167,-5.07701 6.1946,-3.85167c1.0773,0.4058 1.04408,1.81786 1.7688,2.42689c0.06093,0.05119 2.8059,-0.54142 3.5392,-0.09149c1.26355,0.77526 0.71643,2.24018 1.44671,3.16869c0.23367,0.29712 0.55,-0.53825 0.88221,-0.7363c1.47855,-0.88137 4.0029,-2.65671 6.06795,-1.90873c1.08811,0.39412 1.15745,2.06058 1.77963,2.43164c1.09077,0.65051 1.8714,-1.68616 2.92761,-2.38503c1.4608,-0.96661 2.3645,-0.36629 3.85912,0.34263c0.25779,0.12227 1.19231,4.12796 2.57752,5.13496c0.77863,0.56604 1.64902,-1.1278 2.62037,-1.28191c0.96916,-0.15375 2.81745,-1.16808 3.29179,-1.12781c0.9515,0.08075 1.97353,1.42574 2.7152,0.86091c3.78671,-2.8838 9.34839,-2.16853 8.3921,3.12652c-0.12101,0.6701 1.33854,-0.78743 2.05261,-0.67168c0.27682,0.04488 1.90892,0.85348 2.14105,0.73099c1.51834,-0.80116 2.41851,-1.67512 4.14267,-1.92453c1.43189,-0.20713 2.92934,0.35344 3.48893,1.7096c0.2941,0.71272 -0.73192,2.31241 0.08263,2.2914c1.91997,-0.0495 4.99403,0.26743 4.57428,2.96636c-0.45563,2.92975 -2.55724,5.71375 -5.69006,3.98483c-1.08693,-0.59985 -2.2934,1.61885 -3.51295,1.31758c-1.56233,-0.38595 -2.66289,-2.60952 -2.77895,-3.81678c-0.05363,-0.55808 -1.10191,0.54582 -1.69926,0.53475c-0.80423,-0.01488 -1.35519,-1.07122 -2.15729,-1.01427c-1.79412,0.12739 -0.93567,3.53025 -5.27803,3.33017c-1.28171,-0.05906 -3.08608,-1.8292 -3.67809,-2.88689c-0.34366,-0.61397 1.13238,-2.91694 0.94369,-2.9999c-0.45818,-0.20144 -1.64413,3.17477 -2.083,3.38508c-1.05583,0.50595 -2.39085,-0.05468 -3.53944,-0.33052c-1.01478,-0.2437 -0.93931,2.09937 -1.96468,2.30042c-0.90586,0.17762 -10.21839,0.95248 -10.66462,0.49283c-0.54403,-0.56037 -1.17263,-1.62309 -1.11841,-2.36893c0.01949,-0.26805 0.75494,-2.02248 0.56144,-1.97398c-0.68675,0.1721 -3.97411,4.14319 -6.86099,1.16953c-1.56986,-1.61705 0.46198,-3.80847 0.19834,-5.46019c-0.16281,-1.02003 -0.92644,1.87444 -1.28972,2.84793c-0.27902,0.74771 -1.34081,1.54844 -2.17623,1.69332c-2.88843,0.50093 -2.50778,-2.21708 -3.36617,-3.67c-0.39614,-0.67051 -1.61239,0.8485 -2.37485,0.57234c-1.86419,-0.67522 -1.80037,-1.89549 -2.20167,-3.43196c-0.18376,-0.70352 -0.14817,2.84508 -1.90352,3.26813c-0.71188,0.17156 -2.02408,-0.69725 -2.2048,-0.02904c-0.87982,3.25321 0.08393,4.37672 -4.1101,4.47327c-0.40472,0.00932 -0.92896,0.95977 -1.39186,0.7921c-5.12326,-1.85571 -2.23725,-7.93093 -2.76428,-12.02469c-0.1859,-1.44405 -1.53704,-3.45023 -0.32122,-4.35319c0.3502,-0.81622 1.13836,-1.44253 2.13299,-1.58408c0.8819,-0.12551 1.72934,0.15809 2.3232,0.69941c0.09343,0.06676 0.17866,0.14387 0.25365,0.23394z" fill="#ba587e" stroke="none" stroke-width="0.5"/></g><g stroke="#000000" stroke-linecap="butt"><path d="M305.78932,127.56882c4.69773,29.03509 -7.15353,46.0428 -25.11368,48.59895c-17.96015,2.55615 -35.22806,-10.30723 -39.92579,-39.34233c-4.69773,-29.03509 6.0536,-54.64487 24.01375,-57.20101c17.96015,-2.55615 36.32801,18.90929 41.02572,47.9444z" fill="#f0f0f0" stroke-width="2"/><path d="M251.88536,114.87328c-0.01986,29.36748 47.3033,57.79613 29.34315,60.35227c-17.96015,2.55615 -35.22806,-10.30723 -39.92579,-39.34232c-4.69773,-29.03509 10.61135,-63.46666 10.58265,-21.00995z" fill="#9a99ff" stroke-width="0"/></g><path d="M302.9221,136.54017c2.60263,16.08601 -0.37026,29.84969 -6.64012,30.74205c-6.26987,0.89235 -13.46247,-11.42457 -16.0651,-27.51057c-2.60263,-16.08601 0.37026,-29.84969 6.64012,-30.74204c6.26987,-0.89235 13.46247,11.42456 16.0651,27.51057z" fill="#000000" stroke="none" stroke-width="0" stroke-linecap="butt"/><g stroke="#000000" stroke-linecap="butt"><path d="M295.4188,97.80618c6.51674,9.71238 20.33095,50.45812 3.30117,52.88185c-17.02978,2.42373 -58.96358,-35.09972 -55.61868,-45.57641c3.18262,-9.96841 3.83677,-22.82354 20.86656,-25.24727c17.02978,-2.42373 25.24038,8.68581 31.45092,17.94184z" fill="#a100fe" stroke-width="2"/><path d="M294.35864,97.58863c6.35191,9.73584 20.55377,49.52197 4.10465,51.86305c-16.44911,2.34108 -57.81594,-34.35863 -54.63902,-44.81141c3.02279,-9.94566 7.26731,-0.03372 23.71642,-2.3748c16.44911,-2.34108 20.76448,-13.95524 26.81792,-4.67686z" fill="#99008e" stroke-width="0"/></g><g data-paper-data="{&quot;index&quot;:null}" stroke="#000000" stroke-linecap="butt"><path d="M333.7028,72.04325c17.96015,-2.55615 36.32801,18.90929 41.02572,47.9444c4.69773,29.03509 -7.72406,46.12401 -25.68421,48.68016c-17.96015,2.55615 -34.65754,-10.38843 -39.35527,-39.42352c-4.69773,-29.03509 6.05359,-54.64487 24.01374,-57.20101z" fill="#f0f0f0" stroke-width="2"/><path d="M373.90252,119.24165c4.69773,29.03509 -7.72406,46.124 -25.68421,48.68015c-17.96015,2.55615 18.24048,-37.75986 8.9324,-65.79977c-13.45673,-40.53743 12.05409,-11.91548 16.75181,17.11962z" fill="#9a99ff" stroke-width="0"/></g><path d="M343.75284,106.2295c6.33343,-0.30284 12.18371,12.62413 13.06699,28.87319c0.88327,16.24905 -3.53494,29.66704 -9.86837,29.96988c-6.33343,0.30283 -12.18371,-12.62413 -13.067,-28.87319c-0.88327,-16.24906 3.53494,-29.66704 9.86838,-29.96988z" data-paper-data="{&quot;index&quot;:null}" fill="#000000" stroke="none" stroke-width="0" stroke-linecap="butt"/><g data-paper-data="{&quot;index&quot;:null}" stroke="#000000" stroke-linecap="butt"><path d="M310.17861,97.93596c3.00322,-10.56735 7.33019,-23.46127 24.35997,-25.885c17.02978,-2.42373 21.72064,9.67068 27.91306,18.30481c6.50816,9.07437 -21.05331,57.5369 -38.08309,59.96063c-17.02978,2.42373 -17.34122,-41.29205 -14.18994,-52.38041z" fill="#a100fe" stroke-width="2"/><path d="M311.12224,97.43323c2.84613,-10.545 10.64086,-0.6544 27.08996,-2.99549c16.44911,-2.34108 17.36734,-12.98781 23.39992,-4.33095c6.34018,9.09829 -21.22554,56.93107 -37.67464,59.27216c-16.44911,2.34108 -15.80172,-40.88081 -12.81526,-51.94571z" fill="#99008e" stroke-width="0"/></g><path d="M207.80624,333.50199c1.66614,-11.89076 16.31722,-8.23265 35.78756,-5.83278c15.57817,1.92013 31.60004,-7.2834 35.69876,-1.05677c1.02406,1.55572 -0.64493,13.20328 -0.97802,15.58027c-1.66614,11.89076 -18.80064,19.58463 -38.27098,17.18475c-19.47034,-2.39988 -33.90348,-13.98471 -32.23733,-25.87546z" data-paper-data="{&quot;index&quot;:null}" fill="#000082" stroke="#000000" stroke-width="2" stroke-linecap="butt"/><path d="M244.87884,328.41867c15.57817,1.92013 28.8488,-5.52595 33.30932,-1.88143c1.11445,0.91058 -0.53114,12.39123 -0.71129,13.67695c-0.90122,6.43171 -14.64509,7.80504 -34.11543,5.40516c-19.47034,-2.39988 -34.01561,-8.2186 -33.11438,-14.65032c0.90122,-6.43171 15.16144,-4.95023 34.63177,-2.55035z" data-paper-data="{&quot;index&quot;:null}" fill="#2e0048" stroke="#000000" stroke-width="0" stroke-linecap="butt"/><g><g><path d="M315.62164,250.51845c-13.30723,9.21537 -26.02049,8.32123 -36.35167,-3.59653c-8.08016,-9.32098 -5.44912,-27.78097 7.85815,-36.99636c13.30729,-9.21544 29.32329,-7.84504 39.05099,4.51139c1.52123,1.93231 2.31368,4.13907 3.05756,6.14823c4.01273,10.8386 -2.38874,22.15899 -13.615,29.93327z" fill="#0000c4" stroke="#000000" stroke-width="2" stroke-linecap="butt"/><path d="M279.15105,221.94624c0,0 3.34837,5.01709 5.54478,5.03005c21.06858,0.1244 34.09824,-7.56994 38.20068,-10.42325c0.93208,-0.64827 0.8123,-1.79745 0.8123,-1.79745c0,0 1.5648,1.60337 2.78431,4.17965c1.29768,2.74139 2.24672,6.55512 1.95785,9.70379c-0.33001,3.59667 -3.4336,11.66058 -3.4336,11.66058l-16.12354,15.34204c0,0 -14.71946,-0.87099 -16.89396,-1.7695c-2.13028,-0.88022 -4.38187,-2.49483 -6.84951,-4.12118c-3.83136,-2.52518 -6.65613,-6.36848 -7.64477,-9.1812c-1.26167,-3.58969 -1.21335,-8.3854 -0.45092,-12.24382c0.70958,-3.59097 2.09644,-6.37963 2.09644,-6.37963z" fill="#2e006f" stroke="none" stroke-width="0" stroke-linecap="butt"/><path d="M297.07263,240.6259c0,0 -7.39678,-6.15992 -8.46561,-11.36585c-1.35308,-6.59013 -0.04176,-19.86579 -0.04176,-19.86579" fill="none" stroke="#000000" stroke-width="1" stroke-linecap="round"/><path d="M320.24613,209.72882c0,0 3.2225,6.70306 4.0782,11.04916c0.86392,4.38757 -1.01604,14.20849 -1.01604,14.20849" fill="none" stroke="#000000" stroke-width="1" stroke-linecap="round"/><path d="M289.79649,249.60905c0,0 -7.69341,-6.21671 -8.57736,-11.90494c-1.35639,-8.7284 -0.71558,-20.63882 -0.71558,-20.63882" fill="none" stroke="#000000" stroke-width="1" stroke-linecap="round"/><path d="M276.53901,239.99633c0,0 5.22582,-17.10702 23.24954,-23.04137c19.74268,-6.50032 30.68523,7.96498 30.68523,7.96498" fill="none" stroke="#000000" stroke-width="1" stroke-linecap="round"/><path d="M281.56537,248.58062c0,0 8.38847,-16.52757 24.28093,-21.79623c13.04915,-4.32604 23.48156,7.04977 23.48156,7.04977" fill="none" stroke="#000000" stroke-width="1" stroke-linecap="round"/><path d="M303.97033,208.84153c-1.31414,0.10579 -2.45178,-0.59944 -2.54106,-1.57515c-0.08936,-0.97573 0.77789,-1.06939 2.09202,-1.17518c1.31414,-0.10579 2.57745,-0.18364 2.66674,0.79208c0.08936,0.97573 -0.9036,1.85248 -2.21769,1.95824z" fill="#8fbbbe" stroke="none" stroke-width="0" stroke-linecap="butt"/><path d="M311.93129,209.2224c-0.53053,0.36737 -1.43691,0.06018 -2.02448,-0.68618c-0.58758,-0.74636 -0.71761,-1.12717 -0.18711,-1.49458c0.53053,-0.36737 1.59703,-0.17106 2.18458,0.57531c0.58758,0.74636 0.5575,1.23807 0.02698,1.60544z" fill="#8fbbbe" stroke="none" stroke-width="0" stroke-linecap="butt"/><path d="M296.41918,209.51594c-0.85391,0.46843 -1.81595,0.41538 -2.1489,-0.1185c-0.33299,-0.53382 0.44393,-0.89595 1.29778,-1.36439c0.85391,-0.46843 1.4613,-0.86585 1.79429,-0.33198c0.33299,0.53382 -0.0893,1.34644 -0.94317,1.81484z" fill="#8fbbbe" stroke="none" stroke-width="0" stroke-linecap="butt"/><path d="M277.3257,226.22653c0,0 6.37321,-8.65803 13.28653,-12.97946c3.91952,-2.45003 8.27581,-3.34032 11.58658,-3.98061c2.92787,-0.56626 9.99372,0.77181 15.28835,2.32384c3.89816,1.14266 6.74373,2.5716 6.74373,2.5716" fill="none" stroke="#000000" stroke-width="0.5" stroke-linecap="round"/><path d="M305.88762,203.43091c0,0 6.52175,8.98789 7.83391,14.40827c1.10553,4.56679 -0.15404,15.77229 -0.15404,15.77229" fill="none" stroke="#000000" stroke-width="1" stroke-linecap="round"/><path d="M307.54052,235.69701c0,0 -5.86429,-8.27901 -7.47887,-12.67584c-2.83487,-7.71999 -1.34869,-18.334 -1.34869,-18.334" fill="none" stroke="#000000" stroke-width="1" stroke-linecap="round"/></g><g stroke="#000000" stroke-linecap="butt"><path d="M283.10074,253.93318c34.6011,-11.04466 43.28618,-5.38373 46.14442,2.49305c2.85825,7.87677 -22.87443,23.21566 -57.47555,34.26031c-34.6011,11.04466 -4.18499,-57.52056 -7.04325,-65.39732c1.9366,-7.06536 7.86722,-3.30976 10.99784,4.21893c3.86078,9.28464 4.41897,25.3691 7.37654,24.42504z" fill="#0d69be" stroke-width="2"/><path d="M304.82548,233.86841c14.85167,-4.74065 31.09431,2.99886 36.27894,17.28668c5.18464,14.28783 -2.65205,29.71346 -17.50372,34.45412c-14.85167,4.74065 -31.09431,-2.99887 -36.27894,-17.2867c-5.18464,-14.28783 2.65205,-29.71346 17.50373,-34.45411z" fill="#faddbf" stroke-width="2"/><path d="M306.75007,276.41823c14.85167,-4.74065 28.14022,-39.65147 33.32485,-25.36364c5.18464,14.28783 -2.65205,29.71346 -17.50373,34.45411c-14.85167,4.74065 -30.6728,-4.34981 -15.82112,-9.09046z" fill="#ef8b89" stroke-width="0"/></g></g><g stroke="#000000" stroke-linecap="butt"><path d="M411.81511,333.59706c1.49062,11.91124 -13.11202,23.30772 -32.61589,25.45475c-19.50387,2.14703 -36.52325,-5.7684 -38.01387,-17.67964c-0.29798,-2.38108 -1.79503,-14.04918 -0.74811,-15.59147c4.19017,-6.17286 20.07477,3.23766 35.67977,1.51981c19.50387,-2.14703 34.20749,-5.61469 35.6981,6.29653z" fill="#000082" stroke-width="2"/><path d="M409.41188,331.03268c0.80627,6.44278 -13.82342,12.07225 -33.3273,14.21929c-19.50387,2.14703 -33.22616,0.59554 -34.03243,-5.84725c-0.16117,-1.28793 -1.63729,-12.78883 -0.50952,-13.68487c4.51387,-3.5863 17.6734,4.03125 33.2784,2.31341c19.50387,-2.14703 33.78457,-3.44336 34.59085,2.99942z" fill="#2e0048" stroke-width="0"/></g><path d="M229.79913,133.74015c-0.72197,6.55299 8.70955,25.29647 2.41208,25.29647c-6.29746,0 -16.00745,-5.5462 -16.00745,-12.13408c0,-6.58788 14.25321,-19.13329 13.59538,-13.16239z" fill="#000000" stroke="none" stroke-width="0" stroke-linecap="butt"/></g></g></svg>