<svg version="1.1" xmlns="http://www.w3.org/2000/svg" xmlns:xlink="http://www.w3.org/1999/xlink" width="194.86837" height="305.0987" viewBox="0,0,194.86837,305.0987"><g transform="translate(-208.72493,-55.31581)"><g data-paper-data="{&quot;isPaintingLayer&quot;:true}" fill-rule="nonzero" stroke-linejoin="miter" stroke-miterlimit="10" stroke-dasharray="" stroke-dashoffset="0" style="mix-blend-mode: normal"><g stroke="#000000" stroke-linecap="butt"><path d="M334.13873,222.73393c27.04481,18.55404 45.14216,38.75235 40.42155,45.11419c-4.72062,6.36182 -30.47161,-3.52192 -57.51642,-22.07596c-27.04481,-18.55404 -45.14216,-38.75235 -40.42155,-45.11419c4.72062,-6.36182 30.47161,3.52192 57.51642,22.07597z" fill="#0d69be" stroke-width="2"/><path d="M379.49091,238.07653c11.60832,7.96387 14.07719,23.77474 5.51437,35.31457c-8.56281,11.53983 -24.91476,14.43874 -36.52307,6.47486c-11.60833,-7.96388 -14.07719,-23.77474 -5.51437,-35.31457c8.56281,-11.53984 24.91476,-14.43873 36.52307,-6.47486z" fill="#faddbf" stroke-width="2"/><path d="M346.84017,262.82491c11.60833,7.96388 46.26278,-1.76149 37.69997,9.77835c-8.56281,11.53983 -24.91475,14.43872 -36.52307,6.47486c-11.60833,-7.96388 -12.78522,-24.21707 -1.17689,-16.2532z" fill="#ef8b89" stroke-width="0"/></g><g stroke="#000000" stroke-linecap="butt"><path d="M347.17244,354.26266l-57.93711,-72.82778l23.4153,-17.25928l57.93712,72.82778z" fill="#73fffc" stroke-width="2"/><path d="M346.53812,353.98105l-55.96657,-72.45055c0,0 45.54153,49.009 52.20084,55.51635c1.47217,1.43857 3.69876,0.65603 3.69876,0.65603l22.76097,-0.84767z" fill="#59a9e6" stroke-width="0"/></g><g stroke="#000000" stroke-linecap="butt"><path d="M251.67518,327.8137l36.09093,-84.89486l27.29506,10.75138l-36.09093,84.89487z" fill="#73fffc" stroke-width="2"/><path d="M251.60773,327.14445l36.74682,-83.06688c0,0 -20.98077,62.57553 -23.4576,71.39312c-0.54755,1.9493 1.27778,3.4049 1.27778,3.4049l12.24444,18.4881z" fill="#59a9e6" stroke-width="0"/></g><g stroke="#000000" stroke-linecap="butt"><path d="M335.22917,240.32685c0,13.28605 10.04743,35.3685 4.95001,44.72071c-6.2338,11.43711 -28.61241,8.75532 -38.9397,8.75532c-13.66287,0 -32.94407,4.01409 -38.34426,-14.27697c-2.01935,-6.83978 4.35457,-31.16088 4.35457,-39.19906c0,-29.534 15.2177,-53.47603 33.98969,-53.47603c18.77199,0 33.98969,23.94203 33.98969,53.47603z" fill="#0d69be" stroke-width="2"/><path d="M283.96554,255.32038c0,13.28605 62.04198,19.77968 56.94455,29.13189c-6.2338,11.4371 -28.61241,8.75532 -38.9397,8.75532c-13.66287,0 -32.94406,4.01409 -38.34425,-14.27696c-2.01936,-6.83978 4.35457,-31.16089 4.35457,-39.19906c0,-9.09863 3.34855,-27.52755 5.51953,-28.84637c5.94391,-16.13664 10.4653,24.19892 10.4653,44.43519z" fill="#10157d" stroke-width="0"/></g><g><g><path d="M252.52546,265.50672c-9.63888,-11.27751 -9.44745,-22.48464 1.55527,-32.09159c8.60532,-7.51372 26.63764,-6.02683 36.27654,5.2507c9.63896,11.27755 9.16132,25.40706 -2.29865,34.50348c-1.79212,1.42251 -3.88895,2.21712 -5.79685,2.96023c-10.29233,4.00868 -21.60474,-1.10887 -29.7363,-10.62281z" fill="#0000c4" stroke="#000000" stroke-width="2" stroke-linecap="butt"/><path d="M278.2824,232.19555c0,0 -4.68505,3.16518 -4.58095,5.09507c0.99842,18.51201 9.14829,29.61363 12.13178,33.08976c0.67784,0.78979 1.78535,0.63327 1.78535,0.63327c0,0 -1.47097,1.4461 -3.9033,2.63233c-2.5882,1.26226 -6.2343,2.26619 -9.30153,2.15303c-3.50364,-0.12929 -11.48453,-2.49542 -11.48453,-2.49542l-15.72682,-13.47778c0,0 0.06244,-12.96835 0.81784,-14.91851c0.74001,-1.91051 2.18541,-3.96039 3.63071,-6.20056c2.24406,-3.47819 5.81921,-6.13104 8.49296,-7.12502c3.41233,-1.26851 8.06321,-1.4402 11.84352,-0.94276c3.51828,0.46295 6.29488,1.55666 6.29488,1.55666z" fill="#2e006f" stroke="none" stroke-width="0" stroke-linecap="butt"/><path d="M261.12876,248.77172c0,0 5.57773,-6.7723 10.56686,-7.9436c6.3157,-1.48279 19.25295,-0.92366 19.25295,-0.92366" fill="none" stroke="#000000" stroke-width="1" stroke-linecap="round"/><path d="M292.30692,267.74762c0,0 -6.32587,3.12991 -10.49293,4.07557c-4.20682,0.95476 -13.82572,-0.25809 -13.82572,-0.25809" fill="none" stroke="#000000" stroke-width="1" stroke-linecap="round"/><path d="M252.03527,242.78152c0,0 5.61701,-7.03539 11.08345,-8.06582c8.38807,-1.58115 19.96642,-1.55005 19.96642,-1.55005" fill="none" stroke="#000000" stroke-width="1" stroke-linecap="round"/><path d="M260.64839,230.70707c0,0 16.85874,3.82652 23.56795,19.39343c7.34909,17.05158 -6.0904,27.30926 -6.0904,27.30926" fill="none" stroke="#000000" stroke-width="1" stroke-linecap="round"/><path d="M252.59491,235.50546c0,0 16.46507,6.63044 22.41586,20.355c4.88613,11.26912 -5.58592,20.94077 -5.58592,20.94077" fill="none" stroke="#000000" stroke-width="1" stroke-linecap="round"/><path d="M292.30249,253.41149c-0.17234,-1.1496 0.4508,-2.18039 1.39176,-2.30239c0.94099,-0.12206 1.07784,0.63555 1.25017,1.78515c0.17234,1.1496 0.31489,2.2558 -0.62609,2.37781c-0.94099,0.12206 -1.84353,-0.71101 -2.01583,-1.86057z" fill="#8fbbbe" stroke="none" stroke-width="0" stroke-linecap="butt"/><path d="M292.35614,260.42133c-0.38427,-0.44961 -0.13465,-1.25949 0.55756,-1.80893c0.69222,-0.54945 1.05442,-0.68067 1.4387,-0.23108c0.38427,0.44961 0.25062,1.39516 -0.4416,1.9446c-0.69222,0.54945 -1.17041,0.54499 -1.55466,0.09537z" fill="#8fbbbe" stroke="none" stroke-width="0" stroke-linecap="butt"/><path d="M291.24775,246.80873c-0.49937,-0.72915 -0.49905,-1.57656 0.00073,-1.89287c0.49972,-0.31632 0.89199,0.34995 1.39138,1.07904c0.49937,0.72915 0.91685,1.24492 0.41708,1.56126c-0.49972,0.31632 -1.3098,-0.01832 -1.80916,-0.74743z" fill="#8fbbbe" stroke="none" stroke-width="0" stroke-linecap="butt"/><path d="M274.03672,230.78327c0,0 8.73039,5.2116 13.28618,11.09128c2.58289,3.33349 3.6772,7.12026 4.47363,9.99983c0.70436,2.54653 -0.2173,8.81285 -1.44042,13.53292c-0.90049,3.47512 -2.13438,6.03845 -2.13438,6.03845" fill="none" stroke="#000000" stroke-width="0.5" stroke-linecap="round"/><path d="M297.64863,254.85404c0,0 -8.36525,6.12995 -13.54933,7.52454c-4.3677,1.17499 -15.29566,0.5689 -15.29566,0.5689" fill="none" stroke="#000000" stroke-width="1" stroke-linecap="round"/><path d="M266.4621,257.74657c0,0 7.71307,-5.5208 11.88899,-7.13533c7.33212,-2.8348 17.69883,-2.00327 17.69883,-2.00327" fill="none" stroke="#000000" stroke-width="1" stroke-linecap="round"/></g><g stroke="#000000" stroke-linecap="butt"><path d="M247.48843,237.09309c12.54292,29.90018 7.51725,37.78183 0.0344,40.64418c-7.48286,2.86236 -23.71695,-19.05616 -36.25987,-48.95637c-12.54292,-29.90018 55.53023,-6.24429 63.01307,-9.10663c6.95104,1.38563 3.62587,6.76272 -3.50514,9.84878c-8.79419,3.80583 -24.3546,5.01428 -23.28249,7.57004z" fill="#0d69be" stroke-width="2"/><path d="M268.09031,255.28005c5.38374,12.83393 -1.25519,27.44687 -14.82848,32.63894c-13.57329,5.19207 -28.94098,-1.00287 -34.32473,-13.83679c-5.38374,-12.83393 1.25521,-27.44688 14.82849,-32.63894c13.57329,-5.19207 28.94098,1.00287 34.32472,13.8368z" fill="#faddbf" stroke-width="2"/><path d="M226.95058,258.87039c5.38374,12.83393 39.92725,22.94776 26.35397,28.13982c-13.57329,5.19207 -28.94098,-1.00287 -34.32472,-13.8368c-5.38374,-12.83393 2.58701,-27.13694 7.97075,-14.30302z" fill="#ef8b89" stroke-width="0"/></g></g><g stroke="#000000" stroke-linecap="butt"><path d="M402.49782,335.2583c1.35955,11.14971 -11.95915,21.81758 -29.74814,23.82735c-17.78899,2.00977 -33.31195,-5.39961 -34.6715,-16.54933c-0.27178,-2.22885 -1.6372,-13.15097 -0.68234,-14.59465c3.82175,-5.77821 18.3097,3.03066 32.54263,1.42265c17.78899,-2.00977 31.1998,-5.25573 32.55935,5.89397z" fill="#000082" stroke-width="2"/><path d="M400.30589,332.85786c0.73538,6.03088 -12.608,11.30043 -30.397,13.3102c-17.78899,2.00977 -30.30476,0.55746 -31.04014,-5.47342c-0.147,-1.20559 -1.49333,-11.97121 -0.46472,-12.80994c4.11698,-3.35701 16.11947,3.77351 30.3524,2.1655c17.78899,-2.00977 30.81407,-3.22322 31.54946,2.80766z" fill="#2e0048" stroke-width="0"/></g><g stroke="#000000" stroke-linecap="butt"><path d="M219.78665,308.66218c6.289,-9.40617 16.85662,-0.73409 31.91781,8.71197c12.05043,7.55775 29.06486,5.89127 29.87034,12.7112c0.20125,1.70395 -5.98958,10.90369 -7.24677,12.784c-6.289,9.40617 -23.59674,9.37385 -38.65795,-0.0722c-15.06119,-9.44605 -22.17246,-24.72879 -15.88346,-34.13496z" data-paper-data="{&quot;index&quot;:null}" fill="#000082" stroke-width="2"/><path d="M252.45418,318.49671c12.05043,7.55775 26.07,6.32693 28.24116,11.1043c0.54246,1.19361 -5.56008,10.26131 -6.24008,11.27838c-3.40172,5.0878 -15.30119,1.01017 -30.36238,-8.43589c-15.06119,-9.44605 -24.64844,-19.90236 -21.24671,-24.99016c3.40172,-5.0878 14.54684,1.59732 29.60802,11.04336z" data-paper-data="{&quot;index&quot;:null}" fill="#2e0048" stroke-width="0"/></g><g stroke-linecap="butt"><g><g stroke="#000000"><g><path d="M229.88901,121.69241c10.57702,-43.83849 56.09079,-70.95849 101.65786,-60.57423c45.56708,10.38427 73.93212,54.34049 63.3551,98.17899c-10.57702,43.83849 -56.09079,70.95849 -101.65786,60.57423c-45.56708,-10.38427 -73.93212,-54.34049 -63.3551,-98.17899z" fill="#faddbf" stroke-width="2"/><path d="M230.3103,120.92897c3.403,-14.10441 17.70141,-36.50223 22.81908,-38.51291c0.58445,-0.22963 7.64925,-7.0639 16.49134,-11.68763c10.99011,-5.74697 24.18338,-9.46973 24.73363,-9.14956c7.17914,4.17728 -31.72856,56.8732 -36.23882,80.84238c-0.01076,0.05716 -0.16134,19.43664 1.3156,20.20705c1.73801,5.08362 4.54304,19.96687 13.52575,29.07137c16.74034,16.96733 43.21321,29.30006 41.65439,29.44469c-2.49354,0.23137 -15.04151,-0.69085 -20.94586,-2.03639c-45.56708,-10.38427 -73.93212,-54.34049 -63.3551,-98.17899z" fill="#ef8b89" stroke-width="0"/><path d="M394.4958,158.75172c-2.62768,10.89089 -5.07218,14.30367 -5.1912,12.44628c-0.12144,-1.89489 2.03657,-9.23585 -5.49464,-15.73176c-1.82496,-1.57409 -11.35801,3.61499 -13.73667,1.85901c-1.49406,-1.10297 -6.1257,-11.45368 -7.83651,-12.51175c-1.19617,-0.73979 -14.01825,5.08593 -15.27931,4.35311c-3.14517,-1.82767 -9.10399,-13.31654 -12.60836,-14.76553c-1.92975,-0.79792 -11.71865,9.04197 -13.71514,8.33608c-2.57472,-0.91033 -7.07724,-13.54149 -9.74303,-14.149c-7.08946,-1.61562 -8.86895,4.90845 -15.32748,9.37328c-4.19691,2.90136 -10.67222,-15.33281 -14.7169,-11.87072c-5.02303,4.2995 -9.96336,8.42189 -14.90716,10.85317c-3.8786,1.90745 -10.73226,-12.4257 -14.12478,-10.61137c-16.38002,8.76013 -26.30881,14.40912 -22.20109,-2.61614c8.25987,-34.23462 44.01219,1.91156 89.56717,-8.9794c43.60477,-10.42473 83.57497,9.78014 75.31512,44.01476z" fill="#ef8b89" stroke-width="0"/></g><path d="M397.86822,151.30562c-5.30839,22.00164 4.39079,9.61499 -10.97244,-3.35081c-1.88001,-1.58664 -11.61982,3.55533 -14.06845,1.78339c-1.53802,-1.11299 -6.34764,-11.50426 -8.10755,-12.57352c-1.2305,-0.74761 -14.33762,5.01315 -15.63458,4.27215c-3.2347,-1.84808 -9.41152,-13.38662 -13.0121,-14.85754c-1.98273,-0.81 -11.95677,8.98771 -14.00736,8.26949c-2.64448,-0.92623 -7.33553,-13.60035 -10.07153,-14.22386c-7.2762,-1.65817 -9.06082,4.86473 -15.65371,9.29893c-4.28422,2.88145 -11.03103,-15.41458 -15.15586,-11.97076c-5.12253,4.27682 -10.16138,8.37675 -15.21397,10.78326c-3.96395,1.88799 -11.07507,-12.50383 -14.54136,-10.70629c-16.73622,8.67895 -26.87889,14.27921 -22.77116,-2.74605c8.25987,-34.23462 57.18817,-67.2833 101.91389,-57.09076c44.72571,10.19252 75.55609,58.87776 67.29622,93.11238z" fill="#873412" stroke-width="2"/><path d="M397.88982,150.16122c-5.30839,22.00164 4.39079,9.61499 -10.97244,-3.35081c-1.88001,-1.58664 -11.61982,3.55533 -14.06845,1.78339c-1.53802,-1.11299 -6.34764,-11.50426 -8.10756,-12.57352c-1.2305,-0.74761 -14.33762,5.01315 -15.63458,4.27215c-3.2347,-1.84808 -9.41152,-13.38662 -13.0121,-14.85754c-1.98273,-0.81 -11.95677,8.98771 -14.00736,8.26949c-2.64448,-0.92623 -7.33553,-13.60035 -10.07153,-14.22386c-7.2762,-1.65817 -9.06082,4.86473 -15.65371,9.29893c-4.28422,2.88145 -11.03103,-15.41458 -15.15586,-11.97076c-5.12253,4.27682 -10.16138,8.37675 -15.21398,10.78326c-3.96395,1.88799 -11.07507,-12.50383 -14.54136,-10.70629c-16.73622,8.67895 -26.87889,14.27921 -22.77116,-2.74605c8.25987,-34.23462 45.12259,2.16461 91.74938,-8.48211c44.63069,-10.19093 85.72059,10.26911 77.46072,44.50373z" fill="#741d23" stroke-width="0"/></g><path d="M330.54049,68.44648c0.0372,0.12276 0.0593,0.25972 0.06906,0.40709c0.03316,0.26371 0.02123,0.53691 -0.04182,0.8102c-0.15098,1.08875 -0.61188,2.3448 -0.67927,2.81584c-0.08853,0.61885 1.32811,-0.436 1.93401,-0.20925c0.37115,0.13891 0.59773,0.88903 0.94529,0.7046c2.10921,-1.11923 4.31706,-3.44311 6.63265,-1.31099c0.76688,0.70612 0.2312,1.92147 0.62632,2.6883c0.03321,0.06446 2.57185,0.45107 3.03142,1.08257c0.79188,1.08811 -0.19817,2.18064 0.08682,3.22674c0.09119,0.33474 0.65943,-0.28685 1.01208,-0.34975c1.56946,-0.27994 4.34627,-0.99286 5.82702,0.33471c0.78023,0.69953 0.24001,2.16947 0.63378,2.69598c0.69033,0.92304 2.19156,-0.84984 3.3376,-1.10999c1.58505,-0.35979 2.13494,0.45823 3.14644,1.56461c0.17446,0.19083 -0.47351,3.97627 0.33816,5.30556c0.45624,0.7472 1.80247,-0.43797 2.68081,-0.25288c0.87637,0.18467 2.80687,-0.08933 3.19429,0.10138c0.77711,0.38253 1.15961,1.88611 1.99099,1.63911c4.24474,-1.26105 8.6997,1.18616 5.98636,5.4705c-0.34338,0.5422 1.41708,-0.24434 1.98044,0.09064c0.21841,0.12986 1.31055,1.36793 1.55124,1.33778c1.57435,-0.19724 2.65111,-0.66065 4.20153,-0.31114c1.2876,0.29026 2.35481,1.26873 2.34149,2.63018c-0.00699,0.7155 -1.45123,1.76782 -0.75358,2.01702c1.64446,0.58739 4.135,1.87193 2.80932,4.07792c-1.43905,2.39465 -4.22022,4.12231 -6.25305,1.59228c-0.7053,-0.87778 -2.5249,0.65285 -3.44986,-0.0092c-1.18494,-0.84813 -1.31819,-3.14046 -0.9826,-4.22695c0.15513,-0.50226 -1.12975,0.11219 -1.63187,-0.09353c-0.67603,-0.27698 -0.76315,-1.37522 -1.46318,-1.58911c-1.56583,-0.47842 -2.06158,2.75851 -5.66868,1.15905c-1.06468,-0.4721 -1.95719,-2.60177 -2.0786,-3.71465c-0.07048,-0.64601 2.00781,-2.16132 1.87776,-2.29532c-0.31579,-0.32537 -2.53404,2.2172 -2.98146,2.25574c-1.07639,0.09272 -2.00597,-0.83247 -2.87995,-1.44914c-0.77218,-0.54481 -1.55037,1.51473 -2.49137,1.35266c-0.83132,-0.14317 -8.99973,-2.52786 -9.21258,-3.07354c-0.25951,-0.66526 -0.41013,-1.79453 -0.09612,-2.42443c0.11285,-0.22638 1.36654,-1.50849 1.18516,-1.5299c-0.6437,-0.07602 -4.85616,2.29319 -6.23323,-1.23703c-0.74884,-1.91971 1.76025,-3.15566 2.13054,-4.6766c0.22867,-0.93926 -1.45863,1.32363 -2.11631,2.04974c-0.50514,0.55772 -1.69253,0.90447 -2.45239,0.756c-2.62723,-0.51334 -1.32783,-2.74873 -1.53286,-4.2923c-0.09463,-0.71235 -1.67106,0.20746 -2.21777,-0.28269c-1.33672,-1.19844 -0.84406,-2.23719 -0.63183,-3.70325c0.09717,-0.67128 -1.14811,2.42207 -2.78735,2.21313c-0.6648,-0.08475 -1.46428,-1.27008 -1.85755,-0.74912c-1.91468,2.53627 -1.50199,3.82838 -5.09,2.5352c-0.34624,-0.12478 -1.13201,0.52847 -1.46393,0.23088c-3.67363,-3.29364 0.95506,-7.62191 1.97993,-11.35004c0.36152,-1.31507 -0.06216,-3.5009 1.29247,-3.88585c0.59007,-0.59385 1.48293,-0.87895 2.3765,-0.67532c0.7923,0.18055 1.40835,0.70508 1.71692,1.37016c0.05517,0.08865 0.09965,0.18361 0.13081,0.28644z" fill="#ba587e" stroke="none" stroke-width="0.5"/></g><g stroke="#000000"><path d="M317.81384,167.68614c-6.45572,26.75699 -22.60945,37.63566 -38.74468,33.9586c-16.13523,-3.67706 -26.14187,-20.51741 -19.68614,-47.27438c6.45572,-26.75699 24.76931,-45.46697 40.90453,-41.78992c16.13523,3.67706 23.98201,28.34872 17.52629,55.10571z" fill="#f0f0f0" stroke-width="2"/><path d="M276.70749,138.96282c-10.5721,25.49672 19.30396,65.72224 3.16873,62.04519c-16.13523,-3.67706 -26.14187,-20.51741 -19.68614,-47.27438c6.45572,-26.75699 31.80155,-51.63153 16.51741,-14.77081z" fill="#9a99ff" stroke-width="0"/></g><path d="M312.16014,174.53562c-3.57659,14.8239 -11.04228,25.80044 -16.67508,24.51678c-5.63279,-1.28366 -7.29967,-14.34141 -3.72307,-29.16531c3.57659,-14.8239 11.04228,-25.80044 16.67508,-24.51678c5.63279,1.28366 7.29967,14.34141 3.72307,29.16531z" fill="#000000" stroke="none" stroke-width="0"/><g stroke="#000000"><path d="M319.72486,138.43479c2.03039,10.57404 -0.91054,50.49396 -16.20993,47.00738c-15.29939,-3.48658 -37.34052,-49.8407 -30.74106,-57.84061c6.27929,-7.6118 11.45389,-18.56063 26.75329,-15.07406c15.29939,3.48658 18.26271,15.83008 20.1977,25.90727z" fill="#a100fe" stroke-width="2"/><path d="M318.90484,137.89778c1.88231,10.54029 -0.38531,49.75415 -15.16302,46.38647c-14.77771,-3.36769 -36.63457,-48.82033 -30.18602,-56.85462c6.13569,-7.64451 6.16925,2.35679 20.94697,5.72449c14.77771,3.36769 22.60821,-5.30138 24.40208,4.74366z" fill="#99008e" stroke-width="0"/></g><g data-paper-data="{&quot;index&quot;:null}" stroke="#000000"><path d="M361.42016,128.63159c16.13523,3.67706 23.98201,28.34872 17.52629,55.10571c-6.45572,26.75699 -23.12201,37.51885 -39.25724,33.84179c-16.13523,-3.67706 -25.62931,-20.40058 -19.17359,-47.15758c6.45572,-26.75699 24.76931,-45.46697 40.90453,-41.78992z" fill="#f0f0f0" stroke-width="2"/><path d="M378.51475,182.81825c-6.45572,26.75699 -23.12201,37.51885 -39.25724,33.84179c-16.13523,-3.67706 29.02565,-26.80243 31.21763,-54.20889c3.16895,-39.62165 14.49533,-6.38989 8.0396,20.36709z" fill="#9a99ff" stroke-width="0"/></g><path d="M367.41743,161.35064c5.63279,1.28366 7.29967,14.34141 3.72307,29.16531c-3.57659,14.8239 -11.04228,25.80044 -16.67508,24.51678c-5.63279,-1.28366 -7.29967,-14.34141 -3.72307,-29.16531c3.57659,-14.8239 11.04228,-25.80044 16.67508,-24.51678z" data-paper-data="{&quot;index&quot;:null}" fill="#000000" stroke="none" stroke-width="0"/><g data-paper-data="{&quot;index&quot;:null}" stroke="#000000"><path d="M332.18326,143.39358c6.34256,-8.19082 14.64286,-17.96746 29.94226,-14.48089c15.29939,3.48658 14.92667,15.52972 17.06983,25.0609c2.25243,10.01717 -38.51706,43.05362 -53.81645,39.56704c-15.29939,-3.48658 0.14909,-41.55238 6.80436,-50.14705z" fill="#a100fe" stroke-width="2"/><path d="M333.16343,143.26681c6.20144,-8.22299 9.25052,2.92542 24.02823,6.29311c14.77771,3.36769 19.38232,-5.57663 21.3819,3.92183c2.10152,9.98278 -38.44522,42.47095 -53.22294,39.10326c-14.77771,-3.36769 1.30561,-40.68977 7.81279,-49.31819z" fill="#99008e" stroke-width="0"/></g><path d="M250.26106,154.6172c0.97385,0.22193 0.7478,1.15883 0.7478,1.15883l-0.07029,0.27384c-1.41186,4.11421 -2.56348,8.57128 -6.15629,11.4682c-2.19898,2.33238 -5.97552,3.07113 -6.46633,-1.09933c-0.55315,-4.70026 3.21267,-10.99483 5.44933,-14.86924c0,0 0.48489,-0.83987 1.35917,-0.3691c0.87427,0.47078 0.38939,1.31067 0.38939,1.31067c-2.03013,3.51622 -3.62617,6.99266 -4.57113,10.90923c-0.63785,2.64372 -0.62122,5.98486 2.45139,2.72585c3.32642,-2.67705 4.33977,-6.88214 5.64572,-10.68795l0.02136,-0.10601c0,0 0.22605,-0.93691 1.19989,-0.71498z" fill="#000000" stroke="none" stroke-width="0.5"/></g></g></g></svg>