<svg version="1.1" xmlns="http://www.w3.org/2000/svg" xmlns:xlink="http://www.w3.org/1999/xlink" width="233.55893" height="353.6986" viewBox="0,0,233.55893,353.6986"><g transform="translate(-186.39666,-7.11727)"><g data-paper-data="{&quot;isPaintingLayer&quot;:true}" fill-rule="nonzero" stroke-linejoin="miter" stroke-miterlimit="10" stroke-dasharray="" stroke-dashoffset="0" style="mix-blend-mode: normal"><g stroke="#000000" stroke-linecap="butt"><path d="M360.96749,221.35103c27.6588,23.92976 44.91931,48.29332 38.55245,54.41755c-6.36688,6.12423 -33.95015,-8.31002 -61.60895,-32.23978c-27.6588,-23.92976 -44.91931,-48.29332 -38.55245,-54.41755c6.36688,-6.12423 33.95015,8.31002 61.60895,32.23979z" fill="#0d69be" stroke-width="2"/><path d="M409.87761,244.5572c11.87186,10.27125 12.13359,27.60325 0.5846,38.71209c-11.549,11.10884 -30.53536,11.78783 -42.4072,1.51657c-11.87186,-10.27126 -12.13359,-27.60325 -0.5846,-38.71209c11.549,-11.10885 30.53536,-11.78782 42.4072,-1.51657z" fill="#faddbf" stroke-width="2"/><path d="M368.92703,266.25686c11.87186,10.27126 52.68362,4.98908 41.13462,16.09793c-11.549,11.10884 -30.53533,11.78782 -42.4072,1.51657c-11.87186,-10.27126 -10.59927,-27.88574 1.27257,-17.61449z" fill="#ef8b89" stroke-width="0"/></g><g stroke="#000000" stroke-linecap="butt"><path d="M352.98565,353.8141l-66.24995,-78.92396l26.77494,-18.704l66.24996,78.92396z" fill="#73fffc" stroke-width="2"/><path d="M352.26032,353.50892l-63.99668,-78.51516c0,0 52.07584,53.11138 59.69064,60.16344c1.6834,1.55898 4.22947,0.71095 4.22947,0.71095l26.02673,-0.91863z" fill="#59a9e6" stroke-width="0"/></g><g stroke="#000000" stroke-linecap="butt"><path d="M243.78641,325.15118l41.26926,-92.00113l31.21137,11.65134l-41.26926,92.00114z" fill="#73fffc" stroke-width="2"/><path d="M243.70928,324.42591l42.01926,-90.02015c0,0 -23.99109,67.81353 -26.8233,77.36922c-0.62612,2.11246 1.46112,3.68992 1.46112,3.68992l14.00127,20.03568z" fill="#59a9e6" stroke-width="0"/></g><g stroke="#000000" stroke-linecap="butt"><path d="M339.32875,230.34108c0,14.39818 11.48904,38.32908 5.66023,48.46414c-7.12822,12.39448 -32.71773,9.4882 -44.52678,9.4882c-15.62322,0 -37.6709,4.35009 -43.84591,-15.47205c-2.30909,-7.41232 4.97936,-33.76926 4.97936,-42.48028c0,-32.00619 17.40114,-57.95233 38.86655,-57.95233c21.46541,0 38.86655,25.94614 38.86655,57.95233z" fill="#0d69be" stroke-width="2"/><path d="M280.7098,246.58969c0,14.39818 70.9438,21.43537 65.11497,31.57042c-7.12822,12.39447 -32.71773,9.4882 -44.52678,9.4882c-15.62322,0 -37.67089,4.35009 -43.8459,-15.47204c-2.3091,-7.41232 4.97936,-33.76927 4.97936,-42.48028c0,-9.86023 3.82901,-29.83179 6.31148,-31.26101c6.79675,-17.48738 11.96686,26.22454 11.96686,48.15472z" fill="#10157d" stroke-width="0"/></g><g stroke-linecap="butt"><g stroke="#000000"><g><path d="M192.20225,112.21977c-8.02723,-48.25699 28.34834,-93.31335 81.24712,-100.63621c52.89876,-7.32286 102.28905,25.86083 110.31626,74.11781c8.02723,48.25699 -28.34834,93.31335 -81.24712,100.63621c-52.89876,7.32285 -102.28904,-25.86083 -110.31626,-74.11781z" fill="#faddbf" stroke-width="2"/><path d="M192.31397,111.28689c-2.58265,-15.52602 2.75168,-43.65114 7.29791,-47.67171c0.51919,-0.45916 5.01316,-10.09508 12.36314,-18.19905c9.1355,-10.07268 21.49694,-18.96712 22.22126,-18.85948c9.45001,1.40446 -8.68818,69.6301 -2.94891,95.5186c0.01368,0.06175 8.36271,19.62915 10.26777,19.82853c4.07577,4.4395 13.58612,18.32767 27.11278,23.9886c25.20853,10.54979 58.70688,12.63731 57.11672,13.39102c-2.54369,1.20566 -16.26,5.17246 -23.11434,6.1213c-52.89876,7.32285 -102.28904,-25.86083 -110.31626,-74.11781z" fill="#ef8b89" stroke-width="0"/><path d="M383.09525,85.31074c1.99423,11.98859 0.8994,16.37776 -0.04237,14.55441c-0.9608,-1.86016 -1.89464,-10.09192 -12.73613,-13.69311c-2.6271,-0.87264 -10.46186,8.07002 -13.7562,7.23027c-2.06925,-0.52747 -11.52725,-9.14032 -13.80672,-9.53804c-1.59376,-0.27807 -12.63811,10.58854 -14.29764,10.34281c-4.13899,-0.61289 -15.50466,-9.85372 -19.85843,-9.94527c-2.39749,-0.05042 -8.46165,13.67386 -10.88955,13.74213c-3.13105,0.08804 -13.45336,-10.87085 -16.54809,-10.44243c-8.23014,1.13931 -7.25344,8.40108 -12.14459,15.41524c-3.17838,4.55798 -18.05355,-11.27165 -20.82427,-6.2086c-3.4409,6.28773 -6.87183,12.36488 -11.04894,16.74102c-3.27708,3.43327 -16.84085,-8.32174 -19.64318,-5.17184c-13.53037,15.2086 -21.583,24.76863 -24.70048,6.02738c-6.26865,-37.68514 47.52925,-15.24546 91.07407,-43.98068c41.68066,-27.50505 92.95388,-22.75841 99.22255,14.92673z" fill="#ef8b89" stroke-width="0"/></g><path d="M383.40357,76.49938c4.0287,24.2192 8.8795,7.96617 -13.11123,0.90735c-2.69103,-0.8638 -10.76578,8.11209 -14.14137,7.28358c-2.12027,-0.5204 -11.7849,-9.10465 -14.12137,-9.49447c-1.63361,-0.27256 -13.00886,10.63987 -14.7101,10.3999c-4.24292,-0.5985 -15.86167,-9.80429 -20.32713,-9.8804c-2.459,-0.04192 -8.7381,13.71213 -11.22877,13.78909c-3.21205,0.09924 -13.75321,-10.82933 -16.92944,-10.38964c-8.44694,1.16932 -7.47617,8.43191 -12.5233,15.46766c-3.27974,4.572 -18.47012,-11.21399 -21.33386,-6.13805c-3.5564,6.30371 -7.10171,12.3967 -11.4051,16.79032c-3.37616,3.44697 -17.23884,-8.26665 -20.12678,-5.10488c-13.94389,15.26584 -22.24482,24.86023 -25.36229,6.11899c-6.26865,-37.68514 31.12613,-90.04175 83.04817,-97.2294c51.92203,-7.18763 106.00396,29.7948 112.27262,67.47995z" fill="#873412" stroke-width="2"/><path d="M382.92402,75.33892c4.0287,24.2192 8.87951,7.96618 -13.11122,0.90735c-2.69103,-0.8638 -10.76579,8.11209 -14.14138,7.28358c-2.12027,-0.5204 -11.7849,-9.10465 -14.12138,-9.49447c-1.63361,-0.27256 -13.00886,10.63987 -14.7101,10.3999c-4.24292,-0.5985 -15.86167,-9.80429 -20.32714,-9.8804c-2.459,-0.04192 -8.7381,13.71213 -11.22877,13.78909c-3.21205,0.09924 -13.7532,-10.82933 -16.92943,-10.38964c-8.44694,1.16932 -7.47618,8.43191 -12.52331,15.46766c-3.27974,4.572 -18.47011,-11.21399 -21.33385,-6.13805c-3.5564,6.30371 -7.10171,12.3967 -11.40511,16.79032c-3.37616,3.44697 -17.23884,-8.26665 -20.12679,-5.10488c-13.94389,15.26584 -22.24481,24.86023 -25.36228,6.11899c-6.26865,-37.68514 48.81831,-15.42391 93.60738,-44.33137c42.87166,-27.66993 95.44472,-23.10322 101.71339,14.58191z" fill="#741d23" stroke-width="0"/></g><path d="M275.5993,19.35331c0.09336,0.10908 0.17695,0.23832 0.25201,0.38286c0.15097,0.25254 0.25825,0.53219 0.31138,0.83192c0.31786,1.15491 0.38039,2.59913 0.51571,3.09961c0.1778,0.65752 1.21749,-0.95702 1.9598,-0.96512c0.45471,-0.00497 1.02444,0.66177 1.31216,0.34052c1.74614,-1.94954 3.06799,-5.15023 6.4606,-3.90722c1.12356,0.41165 1.08891,1.84408 1.84475,2.46189c0.06355,0.05193 2.92639,-0.54923 3.69117,-0.09281c1.31781,0.78644 0.74719,2.27249 1.50883,3.21439c0.2437,0.3014 0.57362,-0.54601 0.92009,-0.74692c1.54204,-0.89408 4.17478,-2.69502 6.32851,-1.93626c1.13483,0.3998 1.20715,2.0903 1.85605,2.46671c1.13761,0.65989 1.95176,-1.71048 3.05332,-2.41943c1.52353,-0.98055 2.46603,-0.37157 4.02483,0.34757c0.26886,0.12403 1.24351,4.18749 2.6882,5.20902c0.81206,0.5742 1.71983,-1.14406 2.73289,-1.3004c1.01078,-0.15597 2.93843,-1.18493 3.43314,-1.14407c0.99236,0.08191 2.05827,1.4463 2.83179,0.87333c3.94931,-2.92539 9.74981,-2.1998 8.75246,3.17161c-0.12621,0.67976 1.39602,-0.79879 2.14075,-0.68137c0.28871,0.04553 1.99089,0.86579 2.23299,0.74153c1.58354,-0.81271 2.52236,-1.69928 4.32056,-1.95229c1.49338,-0.21012 3.05513,0.35854 3.63874,1.73426c0.30673,0.723 -0.76335,2.34576 0.08618,2.32445c2.00241,-0.05021 5.20847,0.27129 4.7707,3.00914c-0.47519,2.972 -2.66705,5.79615 -5.93439,4.0423c-1.1336,-0.6085 -2.39188,1.6422 -3.6638,1.33658c-1.62942,-0.39152 -2.77723,-2.64715 -2.89828,-3.87182c-0.05593,-0.56613 -1.14923,0.55369 -1.77223,0.54246c-0.83876,-0.01509 -1.41338,-1.08667 -2.24992,-1.0289c-1.87116,0.12923 -0.97585,3.58116 -5.50467,3.3782c-1.33675,-0.05991 -3.2186,-1.85558 -3.83603,-2.92852c-0.35842,-0.62282 1.181,-2.95901 0.98421,-3.04316c-0.47785,-0.20435 -1.71473,3.22056 -2.17244,3.4339c-1.10117,0.51325 -2.49351,-0.05547 -3.69142,-0.33529c-1.05835,-0.24721 -0.97964,2.12965 -2.04904,2.3336c-0.94476,0.18018 -10.65717,0.96622 -11.12256,0.49994c-0.56739,-0.56845 -1.22298,-1.6465 -1.16643,-2.40309c0.02033,-0.27192 0.78736,-2.05165 0.58555,-2.00245c-0.71624,0.17458 -4.14476,4.20294 -7.1556,1.1864c-1.63727,-1.64037 0.48182,-3.86339 0.20686,-5.53894c-0.1698,-1.03474 -0.96622,1.90147 -1.3451,2.889c-0.291,0.75849 -1.39838,1.57077 -2.26968,1.71774c-3.01246,0.50815 -2.61546,-2.24905 -3.51071,-3.72293c-0.41315,-0.68018 -1.68163,0.86074 -2.47683,0.58059c-1.94424,-0.68496 -1.87768,-1.92283 -2.29621,-3.48145c-0.19165,-0.71367 -0.15453,2.88611 -1.98526,3.31526c-0.74245,0.17403 -2.11099,-0.70731 -2.29947,-0.02946c-0.9176,3.30013 0.08753,4.43984 -4.28659,4.53778c-0.4221,0.00945 -0.96885,0.97361 -1.45163,0.80352c-5.34325,-1.88247 -2.33332,-8.04531 -2.88298,-12.19811c-0.19388,-1.46488 -1.60304,-3.49999 -0.33501,-4.41597c0.36524,-0.82799 1.18724,-1.46333 2.22458,-1.60693c0.91977,-0.12732 1.8036,0.16037 2.42296,0.7095c0.09744,0.06772 0.18633,0.14594 0.26454,0.23731z" fill="#ba587e" stroke="none" stroke-width="0.5"/></g><g stroke="#000000" stroke-linecap="butt"><path d="M305.6706,124.21941c4.89945,29.45383 -7.4607,46.70682 -26.19206,49.29983c-18.73136,2.59301 -36.74075,-10.45588 -41.64021,-39.90972c-4.89945,-29.45383 6.31354,-55.43294 25.0449,-58.02595c18.73136,-2.59301 37.88794,19.182 42.78737,48.63584z" fill="#f0f0f0" stroke-width="2"/><path d="M249.452,111.34078c-0.02071,29.79101 49.33451,58.62965 30.60315,61.22266c-18.73136,2.59301 -36.74075,-10.45588 -41.64021,-39.90971c-4.89945,-29.45383 11.067,-64.38196 11.03707,-21.31295z" fill="#9a99ff" stroke-width="0"/></g><path d="M302.68026,133.32014c2.71439,16.318 -0.38616,30.28017 -6.92525,31.1854c-6.5391,0.90522 -14.04055,-11.58933 -16.75494,-27.90732c-2.71439,-16.318 0.38616,-30.28017 6.92525,-31.18539c6.5391,-0.90522 14.04055,11.58932 16.75494,27.90732z" fill="#000000" stroke="none" stroke-width="0" stroke-linecap="butt"/><g stroke="#000000" stroke-linecap="butt"><path d="M294.85477,94.02754c6.79657,9.85245 21.20396,51.18581 3.44292,53.6445c-17.76104,2.45868 -61.49548,-35.60592 -58.00695,-46.2337c3.31928,-10.11217 4.00152,-23.1527 21.76257,-25.61138c17.76104,-2.45868 26.3242,8.81107 32.80142,18.20059z" fill="#a100fe" stroke-width="2"/><path d="M293.74908,93.80685c6.62466,9.87625 21.43635,50.23616 4.2809,52.61101c-17.15544,2.37484 -60.29856,-34.85414 -56.98522,-45.45767c3.15259,-10.08909 7.57937,-0.03421 24.7348,-2.40905c17.15544,-2.37484 21.65611,-14.1565 27.96948,-4.74431z" fill="#99008e" stroke-width="0"/></g><g data-paper-data="{&quot;index&quot;:null}" stroke="#000000" stroke-linecap="butt"><path d="M334.78268,67.89307c18.73136,-2.59301 37.88794,19.182 42.78737,48.63584c4.89945,29.45383 -8.05573,46.7892 -26.78709,49.38221c-18.73136,2.59301 -36.14574,-10.53825 -41.04519,-39.99208c-4.89945,-29.45383 6.31353,-55.43294 25.04489,-58.02595z" fill="#f0f0f0" stroke-width="2"/><path d="M376.70858,115.77215c4.89945,29.45383 -8.05573,46.78919 -26.78709,49.3822c-18.73136,2.59301 19.02373,-38.30442 9.31596,-66.74872c-14.03456,-41.12205 12.57169,-12.08732 17.47113,17.36651z" fill="#9a99ff" stroke-width="0"/></g><path d="M345.26427,102.57234c6.60539,-0.30721 12.70688,12.80619 13.62809,29.28959c0.9212,16.48339 -3.68673,30.09489 -10.29212,30.4021c-6.60539,0.3072 -12.70688,-12.80619 -13.6281,-29.28959c-0.9212,-16.4834 3.68673,-30.09489 10.29213,-30.4021z" data-paper-data="{&quot;index&quot;:null}" fill="#000000" stroke="none" stroke-width="0" stroke-linecap="butt"/><g data-paper-data="{&quot;index&quot;:null}" stroke="#000000" stroke-linecap="butt"><path d="M310.24836,94.15919c3.13218,-10.71975 7.64495,-23.79962 25.40599,-26.25831c17.76104,-2.45868 22.65333,9.81015 29.11165,18.5688c6.78762,9.20524 -21.95734,58.36668 -39.71838,60.82537c-17.76104,2.45868 -18.08585,-41.88755 -14.79926,-53.13583z" fill="#a100fe" stroke-width="2"/><path d="M311.23251,93.64921c2.96834,-10.69708 11.09778,-0.66384 28.2532,-3.03869c17.15544,-2.37484 18.11309,-13.17512 24.40471,-4.39341c6.61243,9.2295 -22.13697,57.75212 -39.29239,60.12697c-17.15544,2.37484 -16.48025,-41.47038 -13.36555,-52.69486z" fill="#99008e" stroke-width="0"/></g><path d="M203.48012,333.1225c1.73768,-12.06225 17.01788,-8.35138 37.32428,-5.9169c16.2471,1.94782 32.95695,-7.38844 37.23167,-1.07201c1.06803,1.57816 -0.67262,13.39369 -1.02002,15.80496c-1.73768,12.06225 -19.60794,19.86707 -39.91434,17.43258c-20.3064,-2.43449 -35.3593,-14.18639 -33.6216,-26.24863z" data-paper-data="{&quot;index&quot;:null}" fill="#000082" stroke="#000000" stroke-width="2" stroke-linecap="butt"/><path d="M242.14462,327.96587c16.2471,1.94782 30.08757,-5.60564 34.73962,-1.90856c1.1623,0.92371 -0.55395,12.56993 -0.74183,13.8742c-0.93992,6.52447 -15.27395,7.9176 -35.58035,5.48311c-20.3064,-2.43449 -35.47624,-8.33713 -34.53631,-14.8616c0.93992,-6.52447 15.81247,-5.02162 36.11886,-2.58713z" data-paper-data="{&quot;index&quot;:null}" fill="#2e0048" stroke="#000000" stroke-width="0" stroke-linecap="butt"/><g><g><path d="M315.92512,248.94219c-13.87864,9.34827 -27.13781,8.44124 -37.91261,-3.6484c-8.42712,-9.4554 -5.68311,-28.18162 8.19558,-37.52991c13.87871,-9.34834 30.58243,-7.95818 40.72784,4.57645c1.58655,1.96018 2.41303,4.19876 3.18885,6.2369c4.18504,10.99491 -2.49131,22.47856 -14.19963,30.36496z" fill="#0000c4" stroke="#000000" stroke-width="2" stroke-linecap="butt"/><path d="M277.88848,219.95792c0,0 3.49215,5.08945 5.78287,5.10259c21.97327,0.12619 35.56242,-7.67911 39.84102,-10.57357c0.9721,-0.65762 0.84718,-1.82337 0.84718,-1.82337c0,0 1.63199,1.62649 2.90387,4.23993c1.3534,2.78093 2.34319,6.64966 2.04192,9.84374c-0.34418,3.64854 -3.58104,11.82875 -3.58104,11.82875l-16.81589,15.5633c0,0 -15.35151,-0.88355 -17.61939,-1.79502c-2.22175,-0.89291 -4.57003,-2.53081 -7.14363,-4.18061c-3.99588,-2.5616 -6.94194,-6.46032 -7.97304,-9.31361c-1.31585,-3.64146 -1.26545,-8.50633 -0.47028,-12.4204c0.74005,-3.64276 2.18646,-6.47164 2.18646,-6.47164z" fill="#2e006f" stroke="none" stroke-width="0" stroke-linecap="butt"/><path d="M296.57961,238.90697c0,0 -7.7144,-6.24876 -8.82912,-11.52977c-1.41118,-6.68517 -0.04355,-20.15229 -0.04355,-20.15229" fill="none" stroke="#000000" stroke-width="1" stroke-linecap="round"/><path d="M320.74818,207.5643c0,0 3.36087,6.79973 4.25332,11.20851c0.90102,4.45085 -1.05967,14.4134 -1.05967,14.4134" fill="none" stroke="#000000" stroke-width="1" stroke-linecap="round"/><path d="M288.99103,248.01967c0,0 -8.02377,-6.30637 -8.94567,-12.07663c-1.41463,-8.85428 -0.74631,-20.93647 -0.74631,-20.93647" fill="none" stroke="#000000" stroke-width="1" stroke-linecap="round"/><path d="M275.16428,238.26832c0,0 5.45022,-17.35373 24.24788,-23.37367c20.59043,-6.59407 32.00286,8.07985 32.00286,8.07985" fill="none" stroke="#000000" stroke-width="1" stroke-linecap="round"/><path d="M280.40647,246.97641c0,0 8.74867,-16.76593 25.32355,-22.11057c13.60948,-4.38843 24.48986,7.15144 24.48986,7.15144" fill="none" stroke="#000000" stroke-width="1" stroke-linecap="round"/><path d="M303.7735,206.66422c-1.37057,0.10732 -2.55706,-0.60808 -2.65017,-1.59787c-0.0932,-0.9898 0.81129,-1.08481 2.18185,-1.19213c1.37057,-0.10732 2.68813,-0.18629 2.78125,0.8035c0.0932,0.9898 -0.9424,1.8792 -2.31292,1.98648z" fill="#8fbbbe" stroke="none" stroke-width="0" stroke-linecap="butt"/><path d="M312.0763,207.05058c-0.55331,0.37267 -1.49861,0.06105 -2.11141,-0.69608c-0.61281,-0.75712 -0.74842,-1.14343 -0.19514,-1.51613c0.55331,-0.37267 1.66561,-0.17353 2.27839,0.58361c0.61281,0.75712 0.58144,1.25593 0.02814,1.62859z" fill="#8fbbbe" stroke="none" stroke-width="0" stroke-linecap="butt"/><path d="M295.8981,207.34835c-0.89058,0.47519 -1.89393,0.42137 -2.24117,-0.12021c-0.34729,-0.54152 0.46299,-0.90887 1.35351,-1.38407c0.89058,-0.47519 1.52405,-0.87834 1.87134,-0.33677c0.34729,0.54152 -0.09313,1.36586 -0.98367,1.84101z" fill="#8fbbbe" stroke="none" stroke-width="0" stroke-linecap="butt"/><path d="M275.98475,224.29994c0,0 6.64688,-8.78289 13.85705,-13.16665c4.08782,-2.48536 8.63117,-3.38849 12.08411,-4.03802c3.05359,-0.57443 10.42285,0.78294 15.94483,2.35735c4.06555,1.15914 7.03331,2.60869 7.03331,2.60869" fill="none" stroke="#000000" stroke-width="0.5" stroke-linecap="round"/><path d="M305.77312,201.17557c0,0 6.80179,9.11751 8.1703,14.61606c1.153,4.63265 -0.16065,15.99975 -0.16065,15.99975" fill="none" stroke="#000000" stroke-width="1" stroke-linecap="round"/><path d="M307.49699,233.907c0,0 -6.1161,-8.39841 -7.80001,-12.85865c-2.9566,-7.83133 -1.4066,-18.59841 -1.4066,-18.59841" fill="none" stroke="#000000" stroke-width="1" stroke-linecap="round"/></g><g stroke="#000000" stroke-linecap="butt"><path d="M282.00777,252.40617c36.08687,-11.20394 45.14489,-5.46137 48.12586,2.529c2.98098,7.99037 -23.85666,23.55047 -59.94355,34.7544c-36.08687,11.20394 -4.36469,-58.35011 -7.34569,-66.34046c2.01976,-7.16725 8.20504,-3.35749 11.47009,4.27977c4.02656,9.41854 4.60872,25.73497 7.69329,24.77729z" fill="#0d69be" stroke-width="2"/><path d="M304.66537,232.05203c15.4894,-4.80902 32.4295,3.04211 37.83676,17.53598c5.40727,14.49389 -2.76593,30.14198 -18.25533,34.95101c-15.4894,4.80902 -32.4295,-3.04212 -37.83676,-17.536c-5.40727,-14.49389 2.76593,-30.14198 18.25534,-34.951z" fill="#faddbf" stroke-width="2"/><path d="M306.6726,275.21549c15.4894,-4.80902 29.34856,-40.22331 34.75582,-25.72943c5.40727,14.49389 -2.76593,30.14198 -18.25534,34.951c-15.4894,4.80902 -31.98989,-4.41254 -16.50048,-9.22156z" fill="#ef8b89" stroke-width="0"/></g></g><g stroke="#000000" stroke-linecap="butt"><path d="M416.24914,333.21894c1.55463,12.08302 -13.67505,23.64386 -34.01642,25.82185c-20.34137,2.17799 -38.09156,-5.85159 -39.64619,-17.93461c-0.31078,-2.41542 -1.87211,-14.25179 -0.78023,-15.81633c4.3701,-6.26188 20.93678,3.28435 37.21186,1.54173c20.34137,-2.17799 35.67636,-5.69566 37.23098,6.38734z" fill="#000082" stroke-width="2"/><path d="M413.74271,330.61758c0.84089,6.5357 -14.417,12.24635 -34.75838,14.42436c-20.34137,2.17799 -34.65289,0.60413 -35.49378,-5.93158c-0.16809,-1.3065 -1.7076,-12.97327 -0.5314,-13.88223c4.7077,-3.63802 18.4323,4.08939 34.70738,2.34677c20.34137,-2.17799 35.23528,-3.49302 36.07618,3.04268z" fill="#2e0048" stroke-width="0"/></g><path d="M226.41738,130.47974c-0.75297,6.6475 9.08354,25.66129 2.51565,25.66129c-6.56787,0 -16.69481,-5.62619 -16.69481,-12.30907c0,-6.68289 14.86524,-19.40923 14.17917,-13.35221z" fill="#000000" stroke="none" stroke-width="0" stroke-linecap="butt"/></g></g></svg>