<svg version="1.1" xmlns="http://www.w3.org/2000/svg" xmlns:xlink="http://www.w3.org/1999/xlink" width="275.24753" height="299.55195" viewBox="0,0,275.24753,299.55195"><defs><radialGradient cx="253.48456" cy="276.15962" r="15.45526" gradientUnits="userSpaceOnUse" id="color-1"><stop offset="0" stop-color="#1e202b"/><stop offset="1" stop-color="#1e202b" stop-opacity="0"/></radialGradient></defs><g transform="translate(-102.37625,-30.22404)"><g data-paper-data="{&quot;isPaintingLayer&quot;:true}" fill-rule="nonzero" stroke-linejoin="miter" stroke-miterlimit="10" stroke-dasharray="" stroke-dashoffset="0" style="mix-blend-mode: normal"><path d="M102.37625,329.77599v-299.55195h275.24753v299.55195z" fill="none" stroke="none" stroke-width="0" stroke-linecap="butt"/><g stroke-linecap="butt"><g><path d="M221.14377,160.55914c0,0 -2.7588,-17.89984 -2.27434,-26.70309c0.53084,-9.64578 5.69891,-29.69151 5.69891,-29.69151l29.11177,6.77823l1.65009,48.57362z" fill="#d396fc" stroke="#000000" stroke-width="2"/><path d="M231.48084,180.44526c0,0 5.83037,-10.19305 5.57169,-17.04709c-0.29874,-7.91547 -7.23602,-27.12201 -7.23602,-27.12201c0,0 3.59371,2.86272 7.60294,3.73541c4.19815,0.91383 17.01998,1.03035 17.01998,1.03035c0,0 11.5027,2.9828 12.0569,4.34188c2.04212,5.00796 3.35035,33.44193 3.35035,33.44193z" fill="#ffc6ef" stroke="none" stroke-width="0"/></g><g><path d="M246.28182,175.97025c0,0 2.14668,-3.74938 2.00362,-4.40373c-0.02785,-0.12737 -1.01113,-0.65063 -2.11221,-0.68139c-1.45595,-0.04066 -3.13363,0.40593 -3.23604,0.0847c-0.28607,-0.89736 3.99162,-5.54701 3.94028,-5.93043c-0.10038,-0.74964 -4.12748,-2.95344 -4.33643,-3.71997c-0.1586,-0.58179 3.65282,-2.31627 3.52416,-2.86462c-0.21828,-0.93034 -2.17898,-2.39402 -2.87176,-3.11713c-0.37631,-0.39279 -2.79602,-3.50768 -2.19478,-4.01046c0.22432,-0.18759 1.08883,0.07163 1.95653,0.09573c1.57325,0.0437 3.64299,-0.01923 5.37026,-0.19835c6.34529,-0.65803 13.86156,-1.54857 13.86156,-1.54857l0.83929,19.8823z" fill="#4a5c6f" stroke="#000000" stroke-width="1.5"/><path d="M254.27804,161.77593c0.16365,-0.47019 -6.68383,0.55712 -6.45056,0.09413c0.65859,-1.3071 5.11875,-4.20377 5.11852,-4.7038c-0.00037,-0.81428 -6.95021,-2.89587 -6.91284,-3.35749c0.0258,-0.31871 1.94248,-1.7312 1.94248,-1.7312l13.43738,-1.7683c0,0 13.42357,12.65361 13.62676,15.84527c0.19232,3.02112 -12.43843,2.82122 -12.43843,2.82122c0,0 -3.2808,1.31828 -5.23959,1.31029c-2.26017,-0.00922 -4.5257,-1.0114 -6.21868,-1.30327c-0.5553,-0.09573 -1.07317,0.08005 -1.31809,-0.08897c-0.73264,-0.50562 4.00368,-5.82667 4.45306,-7.11789z" fill="#696f96" stroke="none" stroke-width="0"/></g></g><path d="M256.60231,155.41307c-0.42572,-0.17892 4.75,-5.25 4.75,-5.25l4.375,-0.375l3.25,13.625c0,0 -6.71436,-0.74031 -7.50049,-1.24925c-0.22516,-0.14577 1.71398,-1.81365 2.79107,-2.97176c0.47025,-0.50563 0.77618,-0.14025 0.66594,-0.21398c-0.8324,-0.55671 -2.32122,-1.41015 -2.88595,-1.87371c-0.84627,-0.69466 -1.62778,-2.14088 -2.76172,-2.58992c-1.05874,-0.41926 -1.76136,1.28631 -2.68385,0.89861z" fill="#1b1f25" stroke="#000000" stroke-width="1.5" stroke-linecap="butt"/><g stroke-linecap="butt"><path d="M240.41451,215.28906l23.4131,-6.85988c0,0 0.08844,5.05507 -1.15982,11.62714c-1.10049,5.79408 -3.49505,12.56387 -4.29967,20.96273c-0.39255,4.09755 2.70003,9.47158 2.23178,13.75933c-0.33329,3.05195 -0.73183,3.36561 -1.6827,6.62613c-0.49659,1.7028 -0.76258,3.9028 -1.24094,6.17673c-0.65961,3.1355 -1.49868,6.39075 -1.87561,8.48872c-0.58961,3.28173 0.28942,5.94582 0.50015,8.49137c0.48381,5.84456 15.02983,15.78632 17.07862,17.28939c0.2036,0.14936 0.41082,0.80388 0.30189,0.81816c-1.59388,0.20893 -6.3046,-0.67364 -8.82483,-0.76606c-4.50889,-0.16535 -8.58297,-1.73859 -12.19188,-2.17695c-4.96156,-0.60267 -9.06552,-1.16763 -12.40752,-2.04078c-4.00344,-1.04596 -6.89126,-2.88209 -8.6799,-3.47034c-0.32579,-0.10715 -0.4973,-5.11752 -0.57725,-6.68587c-0.0809,-1.58728 -0.99388,-1.08893 -0.99388,-1.08893c0,0 -0.96229,-5.35412 -0.38425,-9.30554c0.40522,-2.77007 1.06539,-8.38148 2.63206,-15.11433c0.74341,-3.19481 2.12534,-6.82318 3.0541,-10.3121c0.90859,-3.41318 1.61463,-6.70833 2.1969,-9.99612c2.58008,-14.56848 2.90962,-26.4228 2.90962,-26.4228z" fill="#1b1f25" stroke="#000000" stroke-width="1.5"/><path d="M238.09541,277.58782c-0.82791,-8.33261 5.39088,-15.72697 13.89006,-16.51575c2.27591,-0.21122 4.35452,-1.22542 6.38462,-0.53649c0.11114,0.03772 -0.08997,0.87874 -0.36057,2.05167c-0.18739,0.81227 -0.36494,1.77969 -0.67304,2.76623c-0.36944,1.18291 -0.54144,2.93542 -0.97629,4.5795c-0.21778,0.82337 -0.47746,2.23884 -0.65637,3.48456c-0.02914,0.20288 -0.08563,0.5118 -0.15225,0.84672c-0.12872,0.64709 -0.23685,1.38576 -0.3169,1.64947c-1.10889,3.65333 1.06817,8.49613 0.17616,9.69435c-0.09813,0.13181 0.78332,2.46724 1.68952,3.43761c0.66087,0.70765 2.18283,1.78317 2.11172,1.80471c-0.99631,0.30178 -3.14878,0.29652 -4.22845,0.39672c-8.49918,0.78878 -16.06029,-5.32671 -16.8882,-13.65932z" fill="url(#color-1)" stroke="none" stroke-width="0"/><path d="M261.19041,292.49666c0,0 -1.62852,-1.07777 -2.97174,-2.36012c-0.8706,-0.83114 -1.50883,-1.75722 -2.0731,-2.56382c-0.16268,-0.23256 -0.91066,0.11083 -1.03672,-0.26772c-0.36677,-1.10131 -0.4648,-2.89962 -0.43326,-4.80237c0.03269,-1.97246 0.159,-4.0529 0.27174,-5.5856c0.10224,-1.38997 0.39373,-2.84064 0.39373,-2.84064l2.6215,-6.48225c0,0 -0.61165,8.35055 -0.69115,9.4975c-0.05312,0.76645 0.00364,1.83195 -0.08348,2.72779c-0.10776,1.10799 -0.3349,2.07757 -0.06156,3.34428c0.40881,1.89459 2.1283,3.49222 2.63457,4.37888c1.07221,1.87778 2.03879,3.50196 2.03879,3.50196z" fill="#000000" stroke="none" stroke-width="0"/><path d="M242.23572,287.18486c0.28771,-0.32436 0.58615,-0.79517 1.03654,-1.22807c1.29739,-1.24703 3.1338,-2.76333 4.29212,-3.85638c0.70061,-0.66112 1.25303,-1.22474 1.28689,-1.34312c0.15083,-0.52744 -0.11873,-1.60457 -0.43836,-2.06214c-0.33542,-0.48018 -0.91895,-1.19024 -1.69001,-1.86551c-0.64616,-0.56588 -1.44457,-1.08285 -2.13999,-1.65626c-1.07482,-0.88623 -2.0687,-1.71093 -2.54964,-2.25615c-0.22371,-0.25362 -0.35391,-0.59388 -0.31826,-0.69738c0.01494,-0.04336 0.16694,-0.33959 0.57656,-0.58209c0.32167,-0.19043 0.9153,-0.28557 1.41323,-0.56006c0.63793,-0.35167 1.39464,-0.77457 2.20394,-1.27445c0.80275,-0.49584 1.65301,-1.10959 2.50436,-1.66391c1.12777,-0.73429 2.24433,-1.49602 3.20703,-2.22194c1.54424,-1.16443 2.73745,-2.42909 2.87464,-3.03506c0.275,-1.2146 0.48531,-2.40162 0.60575,-3.5428c0.0484,-0.45862 -0.31121,-1.77989 -0.28843,-2.21712c0.00537,-0.10317 -4.14874,0.39702 -4.14252,0.30987c0.04875,-0.68284 2.76547,-2.34608 2.78373,-2.97122c0.00677,-0.23163 -0.36341,-0.23659 -0.74888,-0.30807c-0.666,-0.12348 -1.51491,-0.28228 -1.53295,-0.97614c-0.01681,-0.6466 1.43871,-0.56972 1.49019,-0.95385c0.0149,-0.1112 -1.4543,-1.51074 -3.39679,-2.92732c-1.54235,-1.12477 -3.46248,-2.19688 -4.60962,-3.09462c-0.82092,-0.64244 -1.37614,-1.31041 -1.35521,-1.36878c0.02079,-0.05799 0.51844,-0.42898 1.26977,-1.21788c0.48182,-0.5059 1.74604,-0.58238 2.3971,-1.26404c1.35262,-1.41622 2.84127,-3.19408 4.11078,-4.77687c0.69419,-0.86551 1.4835,-1.61181 1.98859,-2.26965c0.40018,-0.5212 0.56215,-1.00952 0.7783,-1.29797c0.19548,-0.26086 0.22114,-0.4918 0.47844,-0.31047c0.58988,0.41572 1.894,1.35693 2.42658,1.7053c0.20043,0.1311 1.06124,0.42429 1.26286,0.52808c0.32043,0.16496 -0.18157,0.24995 -0.40479,0.50045c-0.36104,0.40515 -0.97531,1.09556 -1.71763,1.93407c-0.38527,0.4352 -0.79009,1.06046 -1.22681,1.55629c-1.16471,1.32231 -2.48283,2.46309 -3.56008,3.68425c-0.2815,0.3191 -0.6591,0.53422 -0.93722,0.79672c-0.42234,0.39859 -0.72509,0.81767 -0.98024,1.17524c-0.40765,0.57128 -0.7411,0.74507 -0.72419,0.80039c0.06381,0.20883 0.5728,0.69811 0.94309,0.78949c1.2057,0.2975 3.77975,0.20546 5.98918,0.60286c1.48964,0.26794 2.906,1.11791 3.4465,1.85685c0.05547,0.07585 -0.315,0.2447 -0.85343,0.67214c-0.88702,0.70418 -2.18033,1.83083 -3.03534,2.56524c-0.49514,0.42531 -0.89917,0.6739 -0.84728,0.74988c0.16603,0.24316 0.6887,0.1521 0.86147,0.39823c0.24998,0.35612 -0.87267,0.84364 -0.61191,1.20563c0.05926,0.08226 1.06182,0.49094 2.14012,0.75261c1.34564,0.32655 2.81012,0.43276 2.81012,0.43276c0,0 0.10857,1.15701 -0.87317,3.25779c-0.46727,0.9999 -0.82036,2.23869 -2.22318,3.62151c-0.53727,0.52961 -1.25871,1.02969 -1.96393,1.61751c-1.7689,1.47442 -3.88056,3.1412 -5.99374,4.56966c-1.26043,0.85203 -2.65009,1.58238 -3.59285,2.23666c-0.76847,0.53331 -1.21182,1.03887 -1.27715,1.33179c-0.11454,0.51355 1.57046,1.39312 3.71458,2.19882c1.72405,0.64786 3.76938,1.21891 5.22895,1.73433c1.24588,0.43996 2.2896,0.45223 2.27057,0.78602c-0.02249,0.39434 -3.39858,1.47285 -3.07687,2.15735c0.05594,0.11903 0.35309,0.15174 0.64646,0.2684c0.73296,0.29146 1.87392,0.59388 1.7589,0.99905c-0.04335,0.15268 -0.48104,0.36656 -1.00591,0.83694c-0.77559,0.69504 -2.12927,1.6433 -3.23837,2.59649c-0.98353,0.84527 -1.72407,1.7059 -2.45319,2.22626c-0.28233,0.20149 -0.80611,0.28063 -1.07939,0.49607c-0.20132,0.15872 0.20174,0.42951 0.64959,0.81493c0.86419,0.74374 2.70675,1.86273 4.83922,3.04727c0.7805,0.43356 1.57748,0.65065 2.4019,1.08659c0.60584,0.32036 1.23681,0.8625 1.83475,1.16993c1.98585,1.02099 3.85421,1.93739 5.11435,2.52848c0.96953,0.45476 2.02087,0.61138 2.02087,0.61138c0,0 -2.01915,0.01198 -4.99869,-0.64415c-1.20663,-0.26571 -2.62855,-0.57228 -4.048,-1.14019c-3.23353,-1.32919 -6.62895,-3.20733 -9.04584,-4.6764c-1.33444,-0.81111 -2.30144,-1.57972 -2.84731,-1.98018c-0.19754,-0.14492 -0.66069,-0.24792 -0.53032,-0.50263c0.05682,-0.11102 0.59259,-0.34625 0.69946,-0.46673z" fill="#2b263c" stroke="none" stroke-width="0"/><path d="M195.83449,285.93727c2.54121,-5.77969 6.03117,-13.51298 8.84111,-21.73387c0.63721,-1.86425 0.99489,-3.84394 1.57755,-5.73629c0.43266,-1.40515 0.634,-2.30085 0.98631,-3.70914c0.25298,-1.01126 0.19754,-1.36869 0.42134,-2.37297c0.19205,-0.86178 0.85073,-2.88766 1.02829,-3.73939c0.75672,-3.62993 1.41123,-7.14792 2.21385,-10.37824c2.40268,-9.67004 3.16648,-17.50453 3.16648,-17.50453l26.20352,-8.02887c0,0 -1.49951,15.4224 -5.08665,29.62134c-0.87281,3.4548 -2.74908,7.71914 -4.13136,10.8284c-0.69371,1.56044 -1.29808,2.92798 -1.85061,4.06123c-0.33128,0.67945 -0.76086,1.1832 -0.85301,1.84949c-0.38756,2.80213 0.5225,6.22332 0.89899,10.36365c0.64199,7.06017 1.13195,14.78796 1.13195,14.78796c0,0 -5.54853,9.59804 -5.67092,9.61232c-0.52921,0.06173 -2.64395,-5.67132 -3.39422,-7.75463c-0.16639,-0.46202 -0.45621,-0.58023 -0.75679,-0.2906c-0.82032,0.79043 -2.46029,2.51435 -3.28418,4.37982c-0.58943,1.33461 -0.90373,4.19094 -1.50368,4.55661c-0.65835,0.40127 -2.26599,1.60373 -2.9801,2.02978c-2.83663,1.69237 -6.94175,2.90901 -10.32704,4.60524c-4.49016,2.24985 -26.14658,5.36632 -27.18091,5.52375c-1.02827,0.15651 4.2838,-4.1105 7.96961,-8.00175c0,0 11.85862,-11.32757 12.58046,-12.96933z" fill="#1b1f25" stroke="#000000" stroke-width="1.5"/><path d="M234.15173,243.65022c0,0 -4.34824,1.21609 -4.53013,0.02478c-0.60176,-3.94133 0.28596,-27.82297 0.28596,-27.82297l19.60472,-1.42431c0,0 -8.72337,27.51962 -10.24304,31.16465c-0.35685,0.85594 -1.70466,-0.52815 -1.70466,-0.52815c0,0 0.63158,-8.09941 -0.13748,-8.04354c-1.01595,0.07381 -1.56033,1.83586 -2.06978,3.21019c-0.60593,1.6346 -1.20561,3.41935 -1.20561,3.41935z" fill="#1b1f25" stroke="none" stroke-width="0"/><path d="M216.49374,295.3978c0,0 -5.98889,3.1714 -6.28537,3.10672c-0.12809,-0.02794 1.01102,-1.18779 2.20628,-2.0555c1.17607,-0.85377 2.40758,-1.41587 2.40758,-1.41587c0,0 0.39946,-2.36783 1.36364,-4.45856c0.2419,-0.52454 0.37272,-1.14634 0.71297,-1.57495c0.77217,-0.97272 2.18468,-3.29004 3.871,-4.61244c0.58393,-0.4579 1.03133,0.56056 1.65288,2.18322c0.99938,2.60899 2.17204,6.44825 2.17204,6.44825c0,0 -0.12269,1.41433 -1.18862,-0.18805c-1.31967,-1.98381 -1.88189,-6.00624 -2.79988,-5.89653c-0.86848,0.10379 -0.62625,2.06152 -1.4118,4.07516c-0.88312,2.26374 -2.70074,4.38857 -2.70074,4.38857z" fill="#000000" stroke="none" stroke-width="0"/><path d="M216.94459,279.86552c0,0 -0.50345,-0.85345 -1.62202,-1.95875c-0.50925,-0.50321 -1.12166,-1.10388 -1.69631,-1.59897c-0.75901,-0.6539 -1.459,-1.1741 -1.83615,-1.54125c-0.19973,-0.19443 -0.24644,-0.396 -0.23354,-0.42548c0.16529,-0.37808 2.77011,-1.54675 4.2323,-2.40607c0.55333,-0.3252 1.01523,-0.55491 1.01389,-0.75548c-0.00181,-0.2715 -2.93878,-4.35391 -4.03395,-5.82305c-0.2746,-0.36836 -0.08002,-0.28576 0.20117,-0.42818c1.16079,-0.58794 4.36949,-2.24468 6.75223,-3.7751c1.43696,-0.92295 2.63793,-1.7543 2.78473,-2.36505c0.01262,-0.05248 -0.73003,-0.45568 -1.57173,-0.85915c-0.80947,-0.38802 -1.88702,-0.92384 -2.84842,-1.47225c-0.87787,-0.50077 -1.58055,-1.08938 -2.21171,-1.48225c-0.63637,-0.39611 -1.21681,-0.43382 -1.15445,-0.63565c0.18591,-0.60174 1.84353,-1.63322 3.26174,-2.41227c0.53468,-0.2937 2.02529,-1.15737 2.0231,-1.36627c-0.00154,-0.14704 -0.74609,-0.43936 -1.77069,-0.87024c-0.2897,-0.12183 -0.66241,-0.18482 -0.97292,-0.34424c-2.2758,-1.16848 -5.05261,-2.95854 -5.00328,-3.57645c0.05739,-0.71866 0.45181,-1.44565 0.84751,-2.16686c0.58305,-1.06267 1.25677,-2.12232 1.57744,-3.20205c1.28654,-4.33191 1.86852,-8.22853 1.86852,-8.22853c0,0 1.60145,6.82562 2.39903,7.40246c0.71689,0.51849 1.60479,-0.41437 2.61949,-0.62435c1.20277,-0.24891 2.46803,-0.33641 3.20148,-0.48651c0.37916,-0.0776 0.60946,-0.22165 0.62972,-0.30862c0.16715,-0.7175 0.05088,-0.99001 -0.24405,-1.57161c-0.35456,-0.69921 -0.91021,-1.42337 -1.26434,-1.85418c-0.19922,-0.24235 -0.34703,-0.31438 0.00474,-0.46782c0.69438,-0.30288 2.22695,-0.90593 3.86158,-1.66879c1.51517,-0.70711 3.22361,-1.65917 5.07782,-2.57868c1.79283,-0.88906 3.72743,-1.74381 5.44,-2.54086c2.06331,-0.96028 3.95636,-1.53076 5.24831,-2.12125c0.56158,-0.25667 0.99468,-0.62723 1.30368,-0.85153c0.29894,-0.217 -2.33919,-1.86682 -3.42614,-2.52982c-0.27798,-0.16956 -0.73922,-0.37377 -0.44708,-0.5072c1.03553,-0.47297 4.0039,-1.59683 5.41929,-2.21698c1.37678,-0.60324 4.02654,-1.75826 5.16708,-2.24418c0.36729,-0.15648 0.31716,-0.01473 0.07756,0.24608c-0.55396,0.603 -1.66934,1.77996 -2.9809,2.96147c-1.39773,1.25914 -3.3453,2.62039 -3.33297,2.7817c0.03116,0.40792 6.34722,-0.67036 6.42333,-0.09743c0.00058,0.00432 -0.42595,0.66222 -1.65885,1.43119c-1.0583,0.66007 -2.54616,1.3617 -4.20248,2.27552c-2.26145,1.24769 -4.85282,2.77362 -7.2398,4.04962c-5.64497,3.01758 -10.57934,4.90054 -10.55146,5.20648c0.0361,0.39615 2.56698,1.8435 2.74937,2.37764c0.08313,0.24346 -1.19209,0.76875 -2.23646,1.44365c-2.97819,1.9246 -8.42771,5.0458 -8.99423,6.16158c-0.09072,0.17867 1.38653,0.23815 3.24329,0.3537c3.01821,0.18782 7.0241,0.41233 6.81549,0.70752c-0.08565,0.12122 -2.49409,1.12584 -5.07395,2.41028c-1.70783,0.85027 -3.53485,1.73055 -4.97383,2.50559c-1.55421,0.83711 -2.65725,1.54015 -2.71154,1.63198c-0.08057,0.13627 1.97292,0.92596 4.18548,1.94307c2.7281,1.25409 5.72753,2.77909 5.62213,2.94938c-0.24839,0.40131 -2.14391,1.89312 -4.32334,3.39996c-3.0682,2.12132 -6.681,4.4057 -6.89556,4.8814c-0.14905,0.33046 6.67592,5.55844 6.46433,5.55497c-0.38386,-0.0063 -1.58881,0.82623 -2.85006,1.42816c-1.02356,0.48849 -2.04865,0.70371 -2.98622,1.16539c-0.99092,0.48795 -1.76771,0.85402 -1.97928,0.87216c-0.16433,0.01408 0.66613,1.07562 1.19834,1.71317c1.07704,1.29024 1.61355,2.5093 1.61355,2.5093z" fill="#2b263c" stroke="none" stroke-width="0"/><path d="M225.92301,284.81229c-0.13785,-2.01728 0.86749,-9.89701 0.86749,-9.89701c0,0 -0.0891,-11.26154 0.39977,-11.67376c0.29974,-0.25275 0.96861,2.36816 1.31911,4.6347c0.29342,1.89736 0.6617,5.38747 0.61162,5.62694c-0.0191,0.09133 0.03668,1.79848 0.14909,2.78292c0.07216,0.63201 0.37598,0.71615 0.47082,0.70926c0.4204,-0.03054 1.24602,-3.50124 1.8489,-6.63116c0.35766,-1.85687 0.75552,-3.81482 0.76139,-4.27009c0.01675,-1.29973 1.12522,8.17156 1.12522,8.17156l0.06844,10.64765c0,0 -7.53193,1.21469 -7.62184,-0.10101z" fill="#1b1f25" stroke="none" stroke-width="0"/><path d="M223.66738,294.32107c0,0 -0.91436,-1.54637 -0.7892,-2.07484c0.06145,-0.25945 1.08352,0.63439 1.20487,0.30926c0.49171,-1.31747 1.43799,-3.10849 2.4733,-4.89593c1.09235,-1.88589 2.85243,-3.65274 3.66801,-4.32427c0.39988,-0.32926 0.93223,-0.35346 1.12213,-0.07819c0.48223,0.69902 0.39319,2.22722 0.34941,3.88397c-0.05249,1.98615 -0.18409,4.09728 -0.30959,5.33776c-0.0631,0.62371 -0.17301,1.08332 -0.17301,1.08332c0,0 -0.60623,0.29137 -0.76946,-1.00514c-0.03947,-0.31352 -0.13442,-0.66319 -0.15195,-1.03283c-0.07704,-1.62444 0.05889,-3.54129 -0.33807,-3.50136c-0.93796,0.09433 -2.98602,3.7475 -4.52443,5.72625c-0.74237,0.95487 -1.762,0.572 -1.762,0.572z" fill="#000000" stroke="none" stroke-width="0"/><path d="M193.78484,289.5126c-0.6338,-0.055 -0.11168,-2.19864 0.77365,-4.02418c0.6032,-1.2438 1.9163,-3.0797 2.51914,-3.0341c0.33808,0.02558 0.43662,0.70515 0.40001,1.48738c-0.03712,0.79317 -0.21539,1.64555 -0.73513,2.57835c-0.58007,1.04108 -1.26975,2.04638 -1.93953,2.57906c-0.42186,0.33551 -1.00322,0.4148 -1.01814,0.4135z" fill="#000000" stroke="none" stroke-width="0"/></g><path d="M231.28424,294.07159c0.07601,-0.44456 0.19472,-1.2437 0.24842,-1.76664c0.0889,-0.86564 0.37297,-5.67703 0.37297,-5.67703l1.98683,2.72613l9.42066,8.06833c0,0 -9.00027,-2.13538 -9.50854,-2.28054c-0.75676,-0.21612 -1.76317,-0.50354 -2.08503,-0.59546c-0.19901,-0.05683 -0.47324,-0.25297 -0.43531,-0.4748z" fill="#1b1f25" stroke="none" stroke-width="0" stroke-linecap="butt"/><g stroke-linecap="butt"><g><path d="M224.57486,214.85912l16.84386,-22.55249l21.48696,-9.43709c0,0 1.5891,15.50288 1.64547,19.80025c0.02444,1.86323 -1.31334,5.51969 -1.31334,5.51969z" fill="#d396fc" stroke="none" stroke-width="0"/><path d="M241.14785,210.63408c0,0 3.3815,-3.68057 4.79839,-5.30003c0.87592,-1.00115 2.57868,-3.13743 3.22843,-3.92676c0.18872,-0.22927 0.08324,0.09699 0.00517,0.38095c-0.16302,0.59301 -0.41305,1.57617 -0.40246,1.99268c0.00516,0.20304 -0.01389,1.07675 0.02739,1.31053c0.01248,0.07074 0.47117,0.09011 0.91823,-0.01004c0.51761,-0.11596 1.11567,-0.68075 1.3773,-0.76744c0.51952,-0.17216 -1.90738,0.60793 -1.729,0.53128c0.58309,-0.25057 1.52944,-0.68384 2.41292,-0.95167c0.32433,-0.09832 0.7194,-0.10284 0.97198,-0.1698c0.87973,-0.23321 3.01139,-0.64389 3.9114,-0.74701c0.35849,-0.04108 0.02893,0.22304 -0.17419,0.51195c-0.26917,0.38285 -0.66795,0.9601 -1.06723,1.57462c-0.67664,1.04139 -1.66381,4.56918 -2.0506,4.75699c-2.35529,1.14361 -12.22772,0.81375 -12.22772,0.81375z" fill="#4a5c6f" stroke="#000000" stroke-width="1"/><path d="M222.23152,219.80923l5.7429,-8.93836c0,0 2.95437,-0.60172 5.62524,-1.04802c1.50864,-0.25209 4.57222,-0.63425 7.71387,-1.23323c2.59486,-0.49473 5.12946,-1.18707 7.88877,-1.6369c0.79108,-0.12896 1.56824,-0.33954 2.33265,-0.45714c3.25302,-0.50047 6.19865,-0.80748 8.22999,-1.06573c1.7642,-0.22428 2.84215,-0.34608 2.84215,-0.34608l-0.70232,6.75963c0,0 -2.62844,0.7184 -6.38166,1.42674c-2.65728,0.50151 -6.01534,0.87431 -8.79636,1.53173c-3.30655,0.78165 -4.20071,1.64591 -7.32902,2.36304c-0.62792,0.14394 -0.87403,0.61416 -1.4659,0.74832c-0.28929,0.06558 -0.93989,-0.20072 -1.21886,-0.13792c-2.06729,0.46546 -3.83542,0.85119 -5.07505,1.10008c-3.23077,0.64869 -9.4064,0.93385 -9.4064,0.93385z" fill="#000000" stroke="none" stroke-width="0"/><path d="M244.77645,198.38903c0,0 4.03761,-2.23026 5.54233,-3.12632c1.14531,-0.68203 3.19369,-1.64997 3.19369,-1.64997c0,0 1.22129,0.68218 1.82822,0.70384c0.62426,0.02227 1.73139,-0.08399 1.73139,-0.08399c0,0 0.14813,1.2515 -0.05392,3.01493c-0.15492,1.3522 -1.04218,3.77623 -1.04218,3.77623z" fill="#ffc6ef" stroke="none" stroke-width="0"/><path d="M238.9407,215.28761c-0.16856,-0.25478 0.10247,-0.47648 0.12868,-1.00998c0.01739,-0.35391 0.13736,-0.76623 0.17236,-1.16754c0.0591,-0.67744 0.03719,-1.33178 0.04426,-1.68094c0.00869,-0.42942 -0.0518,-1.10139 0.35345,-1.18241c0.42125,-0.08422 1.04172,-0.35476 2.34442,-0.60621c1.26006,-0.24322 2.78713,-0.24364 4.17472,-0.47391c0.94255,-0.1564 1.81561,-0.51912 2.52,-0.68471c0.96317,-0.22642 1.60321,-0.23581 1.60321,-0.23581c0,0 -0.48144,1.10782 -0.61159,1.75474c-0.16378,0.81417 -0.29359,2.74491 -0.29359,2.74491c0,0 -1.1333,0.31999 -2.36501,0.75103c-0.92336,0.32312 -1.86193,0.74486 -2.63994,0.94225c-0.72742,0.18455 -1.88103,0.23184 -2.91655,0.40923c-0.3315,0.05679 -0.74121,0.0684 -1.03088,0.15623c-0.30045,0.09111 -0.47868,0.25796 -0.70086,0.28633c-0.37236,0.04755 -0.61414,0.25157 -0.7827,-0.00321z" fill="#fead41" stroke="none" stroke-width="0"/></g><g><path d="M262.16934,214.49849c0.2419,-2.22236 0.05045,-5.01123 0.16827,-7.57904c0.13508,-2.94398 -0.08637,-5.59674 -0.35159,-6.81829c-0.15804,-0.72793 -0.26076,-1.66391 -0.53268,-2.66192c-0.48717,-1.78807 -1.2528,-3.7888 -1.97117,-5.24515c-2.1004,-4.25811 -4.67308,-6.84471 -4.67308,-6.84471c0,0 6.75988,-3.06784 10.74347,0.77318c0.65052,0.62724 1.70855,6.31933 1.65085,7.47475c-0.09052,1.81262 -0.29138,3.5542 -0.43164,4.93019c-0.40828,4.00553 -1.54688,11.69225 -3.06177,16.35227c-0.7531,2.31663 -1.51037,4.45311 -1.51037,4.45311c0,0 -0.20291,-3.24846 -0.03028,-4.83439z" fill="#2b263c" stroke="#000000" stroke-width="1.5"/><path d="M262.63363,199.83765c0,0 -0.95883,-4.9668 -2.21178,-7.25373c-0.6265,-1.14353 -1.70946,-3.36723 -2.80339,-4.98364c-0.56439,-0.83395 -1.37685,-1.60414 -1.90703,-2.29602c-1.3186,-1.72076 -2.13315,-2.89365 -2.13315,-2.89365l10.87311,-1.03607c0,0 1.24261,5.95896 1.87616,9.57714c0.25217,1.44007 0.18731,2.52061 0.18282,2.69307c-0.05323,2.04146 -0.25006,4.32661 -0.25006,4.32661c0,0 -1.23204,0.61991 -1.8,0.96258c-0.51368,0.30993 -1.82667,0.90374 -1.82667,0.90374z" fill="#1b1f25" stroke="none" stroke-width="0"/></g><g><path d="M209.60648,236.33172c0.2751,-1.5522 0.77864,-4.78069 1.32088,-7.15595c0.9514,-4.16765 1.16415,-8.33218 2.11253,-12.75874c0.40604,-1.89521 0.40993,-4.85659 0.40362,-6.52744c-0.01489,-3.94693 -0.30489,-8.24226 -0.30489,-8.24226l31.34909,-9.16668c0,0 -1.57932,2.12932 -3.9077,5.54903c-0.30842,0.45298 -2.97438,4.00018 -3.48723,4.45673c-0.33816,0.30103 1.45937,-2.49961 1.22429,-2.17146c-0.32356,0.45164 1.86774,-1.81526 1.75083,-1.31592c-0.09011,0.38487 -2.46902,3.53223 -2.75435,3.91469c-1.06522,1.42782 -2.32708,3.31399 -3.53812,4.89122c-2.01895,2.62944 -4.1784,5.41582 -6.27126,8.18998c-1.80191,2.3885 -3.7267,4.77676 -5.46961,7.04802c-1.65797,2.16056 -2.39985,4.28239 -3.99504,6.12866c-1.69497,1.96175 -5.6509,5.77084 -6.38403,6.61056c-0.01597,0.01829 -0.82739,-0.16435 -1.11781,0.31051c-0.47155,0.77103 -0.50459,2.3404 -0.49881,2.3477c0.06342,0.0801 2.56927,-3.3986 2.38378,-2.91684c-0.04377,0.11367 -2.30443,4.55133 -2.32761,4.26047c0,0 -0.69201,-2.30429 -0.48854,-3.45229z" fill="#2b263c" stroke="#000000" stroke-width="1.5"/><path d="M213.75345,216.02388c0,0 0.25509,-4.55589 0.43362,-6.9035c0.09186,-1.2081 -0.2186,-3.05395 -0.33956,-4.87299c-0.18979,-2.85422 -0.26315,-5.62453 -0.26315,-5.62453l29.64116,-4.99711c0,0 -1.37162,1.54828 -3.17431,3.77166c-0.24773,0.30554 -0.40441,1.13799 -0.84791,1.51573c-0.59842,0.50967 -1.48402,0.93377 -1.79675,1.36913c-0.34279,0.47721 -0.36935,1.86161 -0.64002,2.23847c-2.36364,3.29098 -7.12522,9.56928 -7.12522,9.56928c0,0 -0.8732,0.97428 -2.44734,2.16844c-0.67019,0.50842 -1.43516,0.83667 -2.2192,1.42215c-0.7985,0.59627 -1.61726,1.45045 -2.42666,2.03952c-2.53015,1.84141 -4.84929,3.4328 -5.30519,3.43107c-0.47512,-0.00179 -3.48946,-5.12731 -3.48946,-5.12731z" fill="#1b1f25" stroke="none" stroke-width="0"/></g></g><g stroke-linecap="butt"><path d="M182.92672,148.05208c0,-0.95154 11.70976,-6.85184 16.04952,-8.90556c3.09055,-1.46256 8.15165,-3.76747 12.45702,-5.40804c3.73879,-1.42467 6.90767,-2.09898 7.72123,-2.09898c8.816,0 11.20859,23.6181 11.20859,23.6181l9.37695,31.95942c0,0 -7.23103,4.7203 -16.34949,8.15321c-3.898,1.46751 -12.52711,9.43126 -14.53335,8.19351c-2.03835,-1.25755 -6.91953,-8.12074 -10.24228,-14.71875c-2.85644,-5.67204 -5.62246,-13.04175 -7.62135,-19.65549c-1.05593,-3.49377 -1.46489,-6.63229 -2.50507,-9.51317c-1.29054,-3.57428 -2.39208,-4.49904 -3.50961,-6.44927c-0.97099,-1.69451 -2.05215,-4.60463 -2.05215,-5.17498z" fill="#1b1f25" stroke="#000000" stroke-width="1.5"/><path d="M208.74651,172.27065c0,0 -1.54852,-2.21575 -2.16422,-5.12726c-0.61667,-2.91614 -1.05635,-6.69008 -1.86183,-10.23383c-0.97498,-4.28948 -2.39283,-8.2417 -4.10595,-9.92718c-3.39008,-3.3354 -16.68703,0.86956 -16.68703,0.86956c0,0 15.49981,-8.40518 22.20322,-11.24124c4.76362,-2.01538 14.62501,-4.57088 14.62501,-4.57088l11.20859,45.63498c0,0 -8.29154,-4.22217 -14.60649,-5.62549c-4.00345,-0.88965 -8.61131,0.22135 -8.61131,0.22135z" fill="#2b263c" stroke="none" stroke-width="0"/></g><g stroke-linecap="butt"><path d="M221.73264,184.96693c0,0 -0.04771,0.67166 1.55991,-6.2995c0.23961,-1.03906 0.24663,-3.90313 -1.08087,-6.53951c-0.93241,-1.85175 -2.57437,-3.58382 -3.27213,-4.77791c-0.12326,-0.21094 -4.65469,-3.17041 -4.7099,-3.34546c-0.04961,-0.15731 3.46312,2.56011 4.59842,3.13075c0.27178,0.13661 -0.19816,-0.84818 -0.18912,-0.87607c0.66386,-2.04846 3.0893,-6.44944 4.67037,-9.39004c0.71287,-1.32586 1.41224,-2.19549 1.42585,-2.69608c0.03261,-1.19818 -11.22812,-6.67901 -11.15165,-7.60713c0.56075,-6.80505 5.04011,-16.19661 5.76734,-16.39904c0.77702,-0.21629 7.54102,8.05385 10.49594,13.58113c2.61204,4.88595 4.93264,10.76709 7.13457,18.28807c2.62416,8.96319 3.4085,19.13079 3.4085,19.13079z" fill="#2b263c" stroke="#000000" stroke-width="1.5"/><path d="M222.71661,176.88983c0.14592,-0.46838 -0.5621,-5.08898 -2.76028,-8.18713c-0.51217,-0.72186 -1.96967,-1.60741 -2.56621,-2.18721c-2.18285,-2.1216 -3.80614,-2.71229 -3.71418,-3.01085c1.2315,-3.99814 3.23962,-10.93844 3.23962,-10.93844l-9.19616,-4.35105l8.25729,-15.24823l2.58026,-0.4l-1.27183,11.33209l12.67682,8.71235l-7.66085,13.82591c0,0 2.20946,2.93299 3.48277,6.06005c0.98789,2.42614 1.53055,5.20588 1.62547,7.15035c0.13435,2.75229 -1.1218,7.32155 -1.1218,7.32155c0,0 -5.6791,-3.31205 -3.57089,-10.0794z" fill="#1b1f25" stroke="none" stroke-width="0"/><path d="M221.73264,184.96693c0,0 -0.04771,0.67166 1.55991,-6.29949c0.23961,-1.03905 0.24663,-3.90313 -1.08086,-6.53952c-0.9341,-1.85511 -2.58031,-3.59008 -3.2759,-4.78438c-0.05526,-0.09489 -4.49064,-2.97502 -4.6365,-3.26449c-0.09908,-0.19664 2.76501,-3.95539 4.28281,-6.19464c0.47081,-0.6946 1.12872,-2.0938 1.1235,-2.10695c-0.01128,-0.02839 -0.34686,1.0496 -1.11182,2.14309c-1.63774,2.34112 -4.40658,5.80757 -4.28622,6.05639c0.37841,0.7823 3.36687,2.51691 4.17188,2.98986c0.49096,0.28844 0.15636,-0.69782 0.15953,-0.70757c0.66386,-2.04846 3.0893,-6.44944 4.67037,-9.39004c0.71287,-1.32586 1.41223,-2.19549 1.42585,-2.69607c0.01861,-0.68381 -3.5243,-3.11551 -6.65568,-4.94675c-2.35548,-1.37749 -4.5288,-2.26194 -4.49596,-2.66038c0.56075,-6.80505 5.04011,-16.19662 5.76734,-16.39904c0.77702,-0.21629 7.54102,8.05385 10.49594,13.58113c2.61204,4.88594 4.93264,10.76709 7.13457,18.28807c2.62416,8.96319 3.40851,19.1308 3.40851,19.1308z" fill="none" stroke="#000000" stroke-width="1.5"/></g><path d="M254.55606,189.60442l-2.83333,-14.33333l25.33333,-0.66667l13.83333,10.33334c0,0 -0.68482,1.39647 -2.47577,3.76641c-1.85568,2.45559 -4.86208,5.93176 -7.37548,8.54971c-2.61748,2.72635 -6.44113,5.24302 -6.9145,5.03216c-6.5669,-2.92525 -19.56759,-12.68162 -19.56759,-12.68162z" fill="#1b1f25" stroke="#000000" stroke-width="1.5" stroke-linecap="butt"/><g stroke-linecap="butt"><path d="M259.23571,189.31765l-10.9762,-11.01422c0,0 5.71545,-6.7754 7.88067,-10.72676c0.30791,-0.56191 -0.52931,-2.66694 0.21331,-3.89263c0.1727,-0.28503 0.43482,-0.48942 0.74278,-0.64156c0.90013,-0.44469 2.19174,-0.44298 2.78543,-0.70417c0.38928,-0.17125 0.93693,-0.88319 1.38903,-1.01261c0.62491,-0.17888 0.63177,1.15686 1.28354,0.98622c0.45093,-0.11805 2.5919,-0.17967 3.05688,-0.31066c4.5966,-1.29478 7.78329,-3.48907 7.78329,-3.48907l-3.01543,24.72777c0,0 -4.58373,3.08166 -6.58237,4.17174c-1.64756,0.89859 -4.56094,1.90592 -4.56094,1.90592z" fill="#d396fc" stroke="#000000" stroke-width="1.5"/><path d="M260.30136,164.96187c0,0 -0.4033,0.05298 -0.79304,-0.1567c-0.49298,-0.26522 -1.92183,-1.23641 -1.92183,-1.23641c0,0 0.80156,-0.02077 1.62388,-0.29164c0.61505,-0.20259 1.06893,-0.6644 1.43418,-0.80941c0.67904,-0.26958 0.98555,-0.14287 0.98555,-0.14287c0,0 -0.17169,0.30227 0.22083,0.67563c0.12218,0.11622 2.4016,-0.27634 2.62436,-0.07506c1.74247,1.57443 0.514,5.3234 0.514,5.3234c0,0 -0.86476,-0.22003 -1.51458,-0.57331c-0.45865,-0.24936 -0.71332,-0.68229 -0.90643,-0.63699c-0.44684,0.10482 0.07601,-0.51496 -0.30597,-0.92695c-0.57184,-0.61679 -1.96095,-1.14969 -1.96095,-1.14969z" fill="#ffc6ef" stroke="none" stroke-width="0"/><path d="M257.27189,169.33841c0,0 -0.2326,-0.69581 -0.30034,-1.19531c-0.03579,-0.2639 0.17573,-0.67502 0.60293,-1.17538c0.6093,-0.71363 1.66837,-1.4663 2.36139,-2.30816c0.99266,-1.20585 1.45392,-2.59894 1.45392,-2.59894l1.36753,0.80322c0,0 -0.61685,0.72809 -1.10844,1.30831c-0.30357,0.35831 -0.40103,1.09466 -0.99788,1.79913c-0.59111,0.69769 -1.52417,0.88827 -2.15889,1.5003c-0.78671,0.7586 -1.22023,1.86684 -1.22023,1.86684z" fill="#000000" stroke="none" stroke-width="0"/><path d="M259.63336,173.06093c0,0 -0.63865,-0.18149 -1.02668,-0.86231c-0.3001,-0.52653 -0.45571,-1.40887 -0.0161,-2.37802c0.17937,-0.39544 0.57133,-0.97645 1.07116,-1.63955c0.24961,-0.33114 0.97299,-0.50982 1.26336,-0.86902c0.82059,-1.01509 1.22263,-2.08997 1.86334,-2.97646c0.69665,-0.9639 1.59768,-1.69773 1.59768,-1.69773l4.46649,-0.56648c0,0 -3.48425,3.20001 -5.03313,4.95772c-0.22703,0.25764 -2.06005,1.28108 -2.32465,1.60619c-0.83093,1.021 -1.70221,1.85181 -2.05323,2.68031c-0.34552,0.81552 0.19176,1.74535 0.19176,1.74535z" fill="#000000" stroke="none" stroke-width="0"/><path d="M263.42915,172.98845c0,0 -2.02099,1.47988 -1.86119,0.653c0.18854,-0.97556 2.54776,-5.52514 2.54776,-5.52514l4.53543,-2.86895z" fill="#000000" stroke="none" stroke-width="0"/></g><g><g stroke-linecap="butt"><path d="M261.06068,180.45447c0.29428,-4.73193 2.49707,-7.10939 2.63783,-10.00226c0.28843,-5.92794 0.30819,-14.76512 0.30819,-14.76512l20.01699,-0.84208c0,0 0.56276,1.67352 0.96215,4.89955c0.35489,2.86662 0.52223,7.21966 0.93922,8.7596c0.26939,0.9948 2.72359,1.92875 2.97321,2.92108c0.23878,0.9492 -1.72564,1.23502 -1.46615,2.16715c1.42759,5.12816 4.9685,10.50899 4.7767,11.11552c-0.28219,0.89244 -1.12299,1.68565 -1.99482,2.7007c-2.93465,3.41671 -8.22038,7.55356 -11.9227,9.63567c-1.51023,0.84932 -2.91224,1.28192 -3.51836,1.42394c-4.0154,0.94087 -11.97906,-11.77825 -13.42405,-16.48899c-0.1407,-0.45868 -0.30195,-1.30388 -0.28821,-1.52477z" fill="#1b1f25" stroke="#000000" stroke-width="1.5"/><path d="M280.01487,185.54051c0,0 0.64212,-2.70642 0.52487,-4.34795c-0.22445,-3.14269 -1.77389,-13.13947 -1.77389,-13.13947c0,0 2.17828,-3.01211 3.05205,-4.61302c0.84664,-1.55118 2.33025,-4.88863 2.33025,-4.88863c0,0 0.8307,8.71394 0.70292,9.5239c-0.16044,1.01698 3.17245,2.48882 3.10454,3.64755c-0.03307,0.56413 -1.49187,0.62656 -1.46467,1.22733c0.05647,1.24748 0.90853,2.41837 1.66814,4.11746c1.43651,3.21319 3.17719,7.03256 3.04175,7.81723c-0.03857,0.22341 -1.06018,1.70466 -2.52548,3.13458c-1.99931,1.95104 -4.60134,3.95976 -4.60134,3.95976c0,0 1.7214,-4.76459 2.10336,-6.1036c0.19648,-0.68879 0.35742,-1.43511 0.35742,-1.43511z" fill="#2b263c" stroke="none" stroke-width="0"/><path d="M290.21007,184.60441c0,0 -0.983,-1.75732 -2.30978,-4.05921c-0.18353,-0.31841 -0.60903,-0.82983 -1.02177,-1.08327c-0.68552,-0.42093 -1.40727,-0.51443 -1.45179,-0.65316c-0.43493,-1.35528 -0.72292,-4.63823 -0.82543,-6.81832c-0.13999,-2.97684 -0.72687,-15.3659 -0.72687,-15.3659c0,0 1.74807,6.25744 1.96171,6.47658c0.3497,0.35871 0.62617,5.85434 0.62617,5.85434c0,0 0.17436,1.73659 0.38159,3.49829c0.00909,0.0772 0.39533,-0.44837 0.88259,-1.05278c0.28318,-0.35125 -2.3837,-1.05791 -1.63579,-1.62163c0.55006,-0.41459 2.96604,1.05573 2.96972,1.08698c0.04377,0.37208 -1.99806,3.19055 -1.96514,3.47045c0.16416,1.39563 0.25052,3.68039 0.25052,3.68039c0,0 1.30658,1.09891 1.52087,1.61447c0.46228,1.11222 1.34341,4.97276 1.34341,4.97276z" fill="#000000" stroke="none" stroke-width="0"/></g><path d="M264.61701,160.07787c0,0 3.26577,1.34858 3.71573,1.93699c0.34667,0.45334 -1.24411,1.29514 -1.24411,1.29514" fill="none" stroke="#000000" stroke-width="1.5" stroke-linecap="round"/><path d="M287.36857,153.69759c0.06782,1.6094 -1.29371,2.97377 -3.04105,3.04741c-1.74735,0.07364 -3.21883,-1.17135 -3.28666,-2.78074c-0.06782,-1.6094 1.2937,-2.97377 3.04104,-3.04741c1.74735,-0.07364 3.21884,1.17135 3.28667,2.78074z" fill="#afcad3" stroke="#000000" stroke-width="1.5" stroke-linecap="butt"/><path d="M283.90135,150.59082c0.20541,4.87418 -4.9216,8.21451 -11.81904,8.50519c-1.89592,0.0799 -3.66853,-0.15707 -5.24664,-0.64398c-1.24396,-0.38381 -3.28542,-3.46985 -4.79577,-4.10861c-1.24268,-0.52554 -2.25808,-2.1248 -2.3259,-3.73417c-0.20541,-4.87418 4.42906,-8.02695 11.3265,-8.31762c6.89744,-0.29068 12.65543,3.42499 12.86085,8.29919z" fill="#afcad3" stroke="#000000" stroke-width="1.5" stroke-linecap="butt"/><path d="M281.37899,150.11327c0.11433,2.71299 -3.1106,5.05212 -7.20307,5.22459c-4.09248,0.17247 -8.16183,-1.69244 -8.27616,-4.40544c-0.11433,-2.71299 3.76965,-5.24672 7.86213,-5.41918c4.09248,-0.17247 7.50278,1.88704 7.61711,4.60002z" fill="#565b84" stroke="#000000" stroke-width="1.5" stroke-linecap="butt"/></g><g stroke-linecap="butt"><text transform="translate(227.08135,108.47373) rotate(2.54941) scale(0.07561,0.07561)" font-size="40" xml:space="preserve" fill="#000000" fill-rule="nonzero" stroke="none" stroke-width="1" stroke-linecap="butt" stroke-linejoin="miter" stroke-miterlimit="10" stroke-dasharray="" stroke-dashoffset="0" font-family="Sans Serif" font-weight="normal" text-anchor="start" style="mix-blend-mode: normal"><tspan x="0" dy="0">sus</tspan></text><path d="M226.71065,130.76837c-0.69538,-0.35148 -4.44113,-0.56466 -7.10495,-1.42054c-1.08273,-0.34787 -1.69643,-0.74767 -2.38149,-1.25461c-0.38384,-0.28404 -1.14953,-0.47067 -1.56191,-0.78576c-0.3248,-0.24817 -1.05058,-0.28141 -1.4004,-0.55302c-0.28693,-0.22279 -2.33317,-1.31598 -2.41636,-2.05436c-0.0727,-0.64538 -0.72459,-10.26216 -1.13752,-11.45526c-0.18685,-0.53992 -0.43254,-0.87241 -0.48259,-0.89096c-1.83159,-0.67895 -6.08064,3.69711 -7.52395,2.63322c-4.90324,-3.61429 -4.93182,-15.74489 -4.53289,-17.84727c0.3172,-1.6717 2.62067,1.21262 5.19119,1.50278c1.05347,0.25938 1.77028,0.00718 1.77028,0.00718c0,0 11.82886,-11.76629 19.95321,-14.18524c8.44282,-2.51379 29.78505,-0.62396 29.78505,-0.62396c0,0 -0.30391,2.03428 -0.64096,3.96866c-0.14922,0.8564 0.35072,3.74773 0.5662,3.959c0.19115,0.18744 1.04179,0.20546 2.18755,0.97726c0.71012,0.47836 1.41477,1.32795 1.52937,1.63822c0.1337,0.36195 1.03833,1.82803 0.80419,2.79048c-0.22372,0.91966 -1.70304,1.46233 -2.16448,1.55625c-0.95902,0.1952 -1.69586,3.53214 -1.67369,4.23327c0.06573,2.07771 0.10326,2.27759 0.02796,4.00459c-0.33434,7.66732 -3.62304,18.35577 -3.4862,19.28225c0.1046,1.09745 0.92714,2.61011 1.65241,4.49821c0.43449,1.13112 3.93753,4.25842 2.71484,5.61775c-0.54981,0.61126 -5.81878,0.19833 -6.22273,0.24226c-2.73595,0.29749 -5.99721,-0.05941 -9.06178,-0.08195c-3.49118,-0.02567 -7.73231,-0.65487 -8.94333,-0.69204c0,0 -2.05745,-1.53975 -3.86386,-2.78808c-0.91171,-0.63004 -1.09615,-2.03218 -1.58317,-2.27835z" fill="#ffc6ef" stroke="#000000" stroke-width="2"/><path d="M227.46164,117.06947c0,0 -3.03516,-2.36829 -3.92853,-3.28082c-0.65091,-0.66487 -0.93849,-1.69059 -0.93849,-1.69059c0,0 3.61732,1.23223 6.88864,0.6074c1.08425,-0.2071 2.67187,-0.96661 4.4083,-1.71085c0.55812,-0.23921 1.0603,-0.55483 1.65911,-0.74828c4.28656,-1.38488 9.00224,-2.34236 9.00224,-2.34236c0,0 -0.048,0.82615 0.07904,1.65805c0.1022,0.66919 0.37772,1.31532 0.42506,1.74199c0.08929,0.80478 0.26139,1.88925 0.26139,1.88925c0,0 -1.44619,-0.51445 -3.18061,-1.00891c-2.615,-0.74551 -5.9865,-1.55629 -6.85026,-1.3707c-0.63149,0.1357 -1.80854,1.79216 -2.52479,2.25175c-0.63394,0.40678 -1.23022,0.92098 -1.86918,1.33933c-0.72143,0.47236 -1.47542,0.84642 -1.98949,1.25387c-1.02534,0.81268 -1.44243,1.41089 -1.44243,1.41089z" fill="#d396fc" stroke="none" stroke-width="0"/><path d="M215.5725,104.94529c0,0 -2.02653,-4.60992 -2.04385,-7.35485c-0.02264,-3.58961 1.91963,-12.33682 1.91963,-12.33682l37.88656,1.52006c0,0 -0.25047,1.26444 -0.13256,2.02148c0.11174,0.71743 0.88425,3.04115 0.88425,3.04115c0,0 -1.79443,2.49978 -1.67592,3.24876c0.10793,0.68216 5.38746,-0.15102 5.38746,-0.15102c0,0 0.62522,1.12091 0.51998,2.04363c-0.03741,0.32797 -2.96406,1.42295 -3.04305,1.98379c-0.16601,1.17857 -0.34376,5.04143 -0.80619,9.12215c-0.26796,2.36462 -0.79493,4.7397 -1.0462,6.87084c-0.39191,3.32411 -0.76763,5.82263 -0.76763,5.82263c0,0 -8.01765,2.19574 -10.71482,0.1175c-0.57392,-0.44222 1.64205,-3.32365 4.28558,-4.90136c1.14059,-0.68073 2.35999,-0.56677 3.33844,-0.78344c1.04566,-0.23156 1.81299,-0.76976 1.81299,-0.76976c0,0 0.37588,-3.57125 0.16487,-3.67486c-0.46227,-0.22702 -2.56777,1.44757 -3.2802,1.16221c-0.93749,-0.37549 -3.20069,-6.55366 -4.40822,-7.05702c-7.32482,-3.05332 -17.44357,-2.19527 -20.41648,-2.32764c-3.85847,-0.1718 -7.86465,2.40255 -7.86465,2.40255z" fill="#d396fc" stroke="none" stroke-width="0"/><path d="M230.23498,92.25161c0,0 1.40336,0.08143 2.90017,0.45788c1.67682,0.4217 3.53743,1.15279 4.99554,1.34525c2.94972,0.38934 9.27048,0.46269 9.27048,0.46269l0.59898,5.28187c0,0 -3.55199,0.08985 -6.99239,-0.23156c-2.1879,-0.2044 -4.32625,-0.6743 -5.49144,-1.11993c-5.40643,-2.06771 -5.28137,-6.19619 -5.28137,-6.19619z" fill="#ffc6ef" stroke="none" stroke-width="0"/><path d="M249.28058,97.2704l-0.07013,-2.17194c0,0 1.10145,-0.75827 2.17623,-1.45105c0.78067,-0.5032 1.54552,-0.93254 1.87248,-1.20263c0.35265,-0.29131 0.70431,-1.05524 0.70431,-1.05524c0,0 0.2699,0.96643 0.67669,1.46501c0.4774,0.58512 1.16917,-0.14702 2.34807,1.12053c1.25788,1.35247 0.81189,1.17216 0.81189,1.17216c0,0 -3.00494,1.80993 -4.14957,2.2033c-0.7613,0.26164 -1.8686,0.58934 -2.72537,0.51396c-0.96881,-0.08524 -1.64459,-0.59412 -1.64459,-0.59412z" fill="#ffc6ef" stroke="none" stroke-width="0"/><path d="M199.22459,103.37011c0,0 0.43319,-1.18451 1.38543,-1.28489c0.15453,-0.01628 0.45635,0.01418 0.75297,0.17242c1.76367,0.94087 5.66413,4.52114 5.66413,4.52114c0,0 -0.49394,-1.95198 -0.64615,-2.88143c-0.14376,-0.87788 -0.24322,-2.54941 -0.24322,-2.54941l10.68516,12.62956c0,0 -0.77483,1.20475 -0.95028,1.9289c-0.15125,0.62425 -0.04062,2.16096 -0.04062,2.16096c0,0 1.38026,0.57708 2.61253,1.10516c0.34962,0.14983 -0.40978,-1.35607 -0.01684,-2.21239c0.41242,-0.89876 1.97517,-1.14827 2.24817,-0.89822c0.3916,0.3587 1.22582,7.02034 1.22582,7.02034c0,0 -0.08829,2.25191 1.8411,4.0092c0.95531,0.87009 6.50062,3.90661 8.15697,4.66985c0.54987,0.25338 6.35459,3.50436 6.35459,3.50436l-5.92274,-0.44643c0,0 -2.08654,-0.87957 -3.85546,-1.56373c-0.52964,-0.20485 -1.62739,-1.04437 -2.03555,-1.18533c-0.30215,-0.10434 -1.79468,0.69864 -1.79468,0.69864c0,0 -1.06356,1.82017 -2.04469,1.34919c-0.01367,-0.00656 -0.866,-0.61685 -1.497,-1.64252c-0.29951,-0.48685 -0.80575,-0.64696 -1.23147,-1.14966c-0.31618,-0.37337 -0.47071,-0.96091 -0.8114,-1.47636c-0.32917,-0.49803 -0.84873,-0.92951 -0.92237,-0.99391c-0.65353,-0.57164 -1.45007,-1.00896 -1.98587,-1.57333c-0.8469,-0.89205 -2.92103,-2.31523 -2.93595,-2.33433c-0.56261,-0.72 -0.42454,-3.57142 -1.08196,-6.50337c-0.64553,-2.879 -0.34012,-5.11865 -1.17846,-6.53754c-0.25631,-0.43381 -0.64654,-0.55286 -0.91124,-0.64678c-0.51357,-0.18227 -1.69279,0.10963 -2.67128,0.74779c-1.14522,0.74687 -3.7186,2.23362 -4.21032,1.88994c-0.55607,-0.45505 -2.18162,-2.74638 -2.96666,-5.0551c-0.92417,-2.71788 -0.97263,-5.47274 -0.97263,-5.47274z" fill="#d396fc" stroke="none" stroke-width="0"/><path d="M204.86796,98.64079c-0.53619,-1.69963 -1.45687,-4.92745 -2.20085,-8.19673c-0.87738,-3.85548 -1.86125,-8.29622 -2.24328,-10.26985c-0.08863,-0.45791 0.1838,-1.84348 0.67638,-2.0244c1.1147,-0.40941 3.50285,-1.26719 5.32511,-1.84637c0.31861,-0.10127 0.59621,0.05881 0.8519,-0.01371c0.24847,-0.07048 0.00711,-0.29696 0.25729,-0.36644c4.78038,-1.32749 10.50463,-2.65095 10.50463,-2.65095c0,0 9.1003,8.97146 8.22641,12.94644c-0.78225,3.55814 -12.58121,9.52461 -12.58121,9.52461c0,0 0.14753,3.73534 0.46841,5.40011c0.3049,1.58195 0.8761,4.87729 0.8761,4.87729c0,0 -0.73738,1.03897 -0.7756,1.58405c-0.06852,0.97745 0.27758,2.0838 0.59999,2.87638c0.25966,0.63831 0.25604,0.6731 -0.15219,0.23029c-1.13376,-1.22978 -3.44301,-3.75192 -4.71227,-5.25961c-0.83572,-0.99272 -1.58574,-1.7397 -2.58649,-3.02948c-0.43045,-0.55478 -0.20003,-1.02603 -0.51113,-1.43154c-0.11912,-0.15528 -0.16572,-0.67262 -0.47888,-0.95596c-0.21389,-0.19353 -0.69372,-0.15324 -0.8477,-0.30543c-0.42968,-0.42461 -0.48972,-0.60569 -0.61167,-0.99222z" fill="#4a5c6f" stroke="#000000" stroke-width="2"/><path d="M220.2822,87.9638c-0.04338,-0.14753 -0.70261,-0.29243 -1.50813,-0.61807c-2.38923,-0.96586 -7.22486,-2.61873 -9.19474,-3.39657c-0.78235,-0.30893 -0.61743,-0.07779 -0.08775,-0.44411c1.26082,-0.87198 7.93867,-5.09147 7.93867,-5.09147c0,0 -4.09594,-3.09438 -5.27553,-6.10844c-2.5438,-6.49983 -0.52005,-9.36185 -0.09467,-10.08158c0.16932,-0.28647 1.50716,-1.79628 3.2031,-2.95694c1.19445,-0.81747 2.56113,-1.37692 3.87232,-2.00172c2.49469,-1.18877 6.47761,-2.10507 7.93594,-2.49633c0.70782,-0.18991 -0.04912,0.25299 -0.54176,0.90799c-1.43445,1.90722 -4.57228,5.47631 -4.06367,6.72958c0.26847,0.66154 1.26499,1.65304 2.04696,2.74212c0.57199,0.79664 1.45193,1.83933 2.48016,2.71642c0.74549,0.63591 1.99144,0.82566 3.53443,0.97301c6.51869,0.62246 18.51728,-2.3143 22.27397,-3.78191c0.37537,-0.14664 0.3386,-4.77518 0.49289,-4.78782c0.69313,-0.05681 12.54837,11.10388 6.9464,20.00607c-2.11442,3.36007 -5.80124,6.02177 -10.17386,7.34776c-8.51007,2.58065 -18.70641,1.38048 -18.70641,1.38048c0,0 -6.00037,2.84909 -10.97241,4.86229c-2.81094,1.13815 -5.29108,1.97583 -6.20103,2.33023c-0.74114,0.28864 -1.95874,0.52133 -1.61084,-0.16896c0,0 0.66775,-0.75309 1.43246,-1.51134c1.56466,-1.55141 4.1159,-4.01093 5.18919,-5.36012c0,0 1.12374,-1.05627 1.08426,-1.19053z" fill="#4a5c6f" stroke="#000000" stroke-width="2"/><path d="M228.95221,80.24896c0,0 -14.81433,-3.04785 -14.11603,-14.29288c0.16311,-2.62655 0.42422,-2.99273 1.14383,-4.12876c2.81962,-4.45127 9.34776,-6.02392 9.34776,-6.02392c0,0 -3.96585,4.62237 -3.9887,6.07162c-0.01705,1.08102 3.52207,6.16986 4.99443,6.874c1.60198,0.76613 3.83457,0.91707 6.31687,0.93993c7.73394,0.07121 17.98384,-2.54924 19.88998,-3.52378c0.28553,-0.14599 1.04313,-0.63466 1.2595,-1.25418c0.41179,-1.17909 0.01577,-2.92595 0.01577,-2.92595c0,0 2.36812,2.63988 3.31396,3.98205c1.0818,1.5351 3.00279,5.19833 3.00279,5.19833c0,0 -6.62076,6.72178 -15.02005,7.13851c-3.92855,0.19492 -7.41703,0.0201 -10.14948,-0.55735c-2.68847,-0.56814 -4.60304,-1.72007 -6.17441,-2.52881c-2.54276,-1.30866 -3.88344,-2.23997 -3.88344,-2.23997c0,0 0.54244,1.46713 1.02175,2.34094c0.71841,1.30969 3.02549,4.93023 3.02549,4.93023z" fill="#696f96" stroke="none" stroke-width="0"/><path d="M217.53279,78.75552l0.3889,-0.95925c0,0 1.96983,0.3715 3.15554,1.12249c0.86138,0.54558 1.32709,1.18124 1.07867,1.44918c-0.31421,0.33889 -1.40094,-0.24374 -2.43713,-0.72051c-0.43533,-0.2003 -0.86542,-0.58479 -1.23759,-0.73368c-0.54301,-0.21724 -0.94841,-0.15823 -0.94841,-0.15823z" fill="#000000" stroke="none" stroke-width="0"/><path d="M212.83913,79.02395l0.09508,-1.49698c0,0 1.39098,0.19853 2.48678,0.31637c0.68501,0.07366 1.25854,0.05498 1.2929,0.12409c0.32324,0.65019 -2.80233,1.52544 -2.80233,1.52544z" fill="#4a5c6f" stroke="none" stroke-width="0"/><path d="M206.28067,99.74504l-0.88128,-3.33529l8.33223,9.36515c0,0 -0.52413,0.71354 -0.56475,1.14149c-0.04936,0.51988 0.28963,1.75599 0.28963,1.75599z" fill="#4a5c6f" stroke="none" stroke-width="0"/><path d="M210.441,106.6704l-0.11231,-1.10023l1.27018,0.08067l-0.09219,1.45162z" fill="#000000" stroke="none" stroke-width="0"/><path d="M204.59122,106.34863c0,0 -0.22256,-0.38762 -0.6138,-0.80814c-0.43852,-0.47132 -1.14081,-1.00559 -1.52335,-1.4158c-0.39792,-0.42667 -1.07372,-1.09388 -1.60869,-1.68309c-0.62203,-0.68509 -0.81629,-0.89179 -0.81629,-0.89179c0,0 0.3823,0.1147 0.94399,0.45797c0.32579,0.19909 0.66461,0.47207 1.14728,0.85199c1.26788,0.99793 2.79201,2.35917 3.90553,3.57641c1.41564,1.54752 3.2038,3.65907 2.12884,4.52668c-0.5605,0.45239 -1.70073,-0.66859 -2.05766,-0.88042c-0.36078,-0.21412 -0.59185,-0.59905 -0.83364,-1.07208c-0.19315,-0.37791 -0.42598,-0.8141 -0.4961,-1.24906c-0.12977,-0.80484 -0.1761,-1.41265 -0.1761,-1.41265z" fill="#000000" stroke="none" stroke-width="0"/><path d="M215.00414,107.42439l0.45944,-1.97485c0,0 2.67643,-0.96196 3.11261,-0.70507c0.71623,0.42182 -3.57205,2.67991 -3.57205,2.67991z" fill="#000000" stroke="none" stroke-width="0"/><path d="M210.34532,107.26092c0,0 0.3544,-0.56074 0.78784,-0.26922c0.83879,0.56413 2.10892,2.18919 2.62801,2.31214c0.70184,0.16621 1.08125,-0.97793 1.08125,-0.97793c0,0 1.93216,4.02814 2.00283,4.61506c0.02637,0.21906 0.0843,0.53373 0.07412,0.81513c-0.01928,0.53288 -0.2308,0.63888 -0.41015,0.88392c-0.13544,0.18504 -0.2302,0.47473 -0.33622,0.94404c-0.16858,0.7462 -0.18966,1.74033 -0.28393,2.60838c-0.09774,0.90006 -0.23478,2.05257 -0.23478,2.05257c0,0 -0.21678,-1.00775 -0.20571,-1.96738c0.00572,-0.49637 -0.0402,-1.05642 -0.04085,-1.68607c-0.00125,-1.23799 0.00358,-2.59617 -0.26286,-3.22599c-0.15532,-0.36714 -0.51982,-0.58974 -0.80978,-0.96611c-0.58726,-0.76232 -0.86614,-1.43887 -1.4839,-2.00081c-0.61702,-0.56128 -2.50592,-3.13768 -2.50592,-3.13768z" fill="#000000" stroke="none" stroke-width="0"/><path d="M231.0584,89.94112l0.17695,-1.93932l1.41517,0.12913l-0.17695,1.93932z" fill="#000000" stroke="none" stroke-width="0"/><path d="M226.4804,129.95615c-0.01228,0.27587 -0.24588,0.48955 -0.52175,0.47726c-0.27587,-0.01228 -0.48955,-0.24588 -0.47726,-0.52175c0.01228,-0.27587 0.24588,-0.48955 0.52175,-0.47726c0.27587,0.01228 0.48955,0.24588 0.47726,0.52175z" fill="#000000" stroke="none" stroke-width="0"/><path d="M229.29973,131.27035c-0.01382,0.31035 -0.38843,0.54576 -0.83672,0.5258c-0.44829,-0.01996 -0.80049,-0.28773 -0.78668,-0.59808c0.01382,-0.31035 0.38843,-0.54576 0.83672,-0.5258c0.44829,0.01996 0.80049,0.28773 0.78668,0.59808z" fill="#000000" stroke="none" stroke-width="0"/><path d="M231.92491,131.32468c-0.01228,0.27587 -0.24588,0.48955 -0.52175,0.47726c-0.27587,-0.01228 -0.48955,-0.24588 -0.47726,-0.52175c0.01228,-0.27587 0.24588,-0.48955 0.52175,-0.47726c0.27587,0.01228 0.48955,0.24588 0.47726,0.52175z" fill="#000000" stroke="none" stroke-width="0"/><path d="M221.92627,102.68097c0,0 0.05436,-1.75801 0.11729,-2.63639c0.06301,-0.87967 0.2669,-2.78045 0.2669,-2.78045c0,0 1.98707,-1.04556 3.63874,-1.17548c0.6419,-0.0505 2.08375,0.31286 3.22849,1.18961c2.50853,1.92127 5.60599,5.38182 9.41626,5.21488c3.24658,-0.14224 7.22351,-0.80881 10.76009,-1.8656c4.88753,-1.46047 8.92251,-3.40652 8.92251,-3.40652c0,0 -1.25484,2.11243 -1.667,3.60384c-0.43853,1.58685 -0.88995,5.64873 -0.88995,5.64873c0,0 -1.92815,0.26668 -3.5128,0.33618c-1.258,0.05517 -4.54491,0.19544 -7.66969,0.31461c-0.30403,0.01159 -0.92476,0.03515 -0.92476,0.03515c0,0 0.30697,-1.10482 -0.09567,-1.09012c-0.05215,0.0019 -0.34304,0.10973 -0.52189,0.38139c-0.19785,0.30053 -0.2891,0.76822 -0.44075,0.77971c-2.10613,0.15951 -13.06036,0.1446 -14.84141,-0.36265c-0.41131,-0.11714 -0.43214,-0.53059 -0.90604,-0.80857c-0.8563,-0.50229 -1.85975,-0.66624 -2.71672,-1.27215c-1.2185,-0.86151 -2.16359,-2.10615 -2.16359,-2.10615z" fill="#000000" stroke="none" stroke-width="0"/><path d="M233.78694,131.65783c-0.01228,0.27587 -0.24588,0.48955 -0.52175,0.47726c-0.27587,-0.01228 -0.48955,-0.24588 -0.47726,-0.52175c0.01228,-0.27587 0.24588,-0.48955 0.52175,-0.47726c0.27587,0.01228 0.48955,0.24588 0.47726,0.52175z" fill="#000000" stroke="none" stroke-width="0"/><path d="M230.9924,132.59696c-0.00461,0.10346 -0.12016,0.18234 -0.25809,0.17619c-0.13793,-0.00614 -0.24602,-0.09498 -0.24141,-0.19843c0.00461,-0.10346 0.12016,-0.18234 0.25809,-0.17619c0.13793,0.00614 0.24602,0.09498 0.24141,0.19843z" fill="#000000" stroke="none" stroke-width="0"/><path d="M233.33169,133.45186c-0.00768,0.17242 -0.20959,0.30348 -0.45097,0.29273c-0.24138,-0.01075 -0.43084,-0.15923 -0.42317,-0.33165c0.00768,-0.17242 0.20959,-0.30348 0.45097,-0.29273c0.24138,0.01075 0.43084,0.15923 0.42317,0.33165z" fill="#000000" stroke="none" stroke-width="0"/><path d="M219.44677,121.66743c0,0 -0.77946,-0.7528 -1.21617,-1.83187c-0.35734,-0.88297 -0.38322,-2.04602 -0.41812,-2.67821c-0.03639,-0.65902 1.21806,-2.14487 2.12118,-3.50135c0.83291,-1.25103 1.30594,-2.36482 1.58877,-3.24087c0.04192,-0.12984 0.39378,-0.33643 0.98432,-0.42332c0.89511,-0.13169 1.49001,0.81003 2.70332,1.40583c0.76839,0.37732 1.64126,0.68981 2.99649,0.68509c0.66033,-0.0023 1.73233,0.13234 2.70749,-0.07905c1.63312,-0.354 3.15082,-1.12957 3.15082,-1.12957c0,0 -1.63254,2.19108 -6.36038,2.49536c-0.53027,0.03413 -2.38813,-0.4235 -3.51912,-0.67923c-0.18993,-0.04294 -0.46049,-0.30715 -0.59969,-0.33542c-0.25763,-0.05232 -0.3106,0.15304 -0.2995,0.18304c0.36384,0.98236 6.34022,3.61486 7.17521,3.52651c3.00078,-0.31751 6.7683,-0.78738 10.34492,-0.89827c3.71018,-0.11504 7.2163,0.12581 9.52467,-0.39797c0.12995,-0.02949 0.2791,-0.70395 0.62627,-1.37305c0.35169,-0.67779 0.90134,-1.35032 1.01988,-1.37785c0.19373,-0.045 0.31419,-0.19841 0.46052,-0.23272c0.39273,-0.09208 0.65835,-0.03017 0.65835,-0.03017c0,0 -0.78579,0.71052 -0.87737,1.55812c-0.04004,0.3706 -0.20237,1.25557 -0.25707,1.99383c-0.01327,0.17905 -3.02654,0.56606 -5.05131,1.37382c-2.30369,0.91905 -1.7489,2.47775 -1.75886,2.62692c-0.0067,0.10044 4.43755,0.91249 4.79836,1.35982c0.51804,0.64227 -4.61802,1.35228 -4.61802,1.35228c0,0 -4.30729,1.36072 -7.90936,2.22355c-1.53539,0.36778 -2.78279,0.73413 -3.77496,0.72064c-0.18432,-0.0025 -0.95948,-0.44898 -1.93497,-0.90259c-1.63789,-0.76163 -3.83247,-1.72512 -4.68418,-1.96827c-2.85355,-0.81464 -4.75587,-0.03394 -6.67565,-1.05833c-0.15333,-0.08182 -0.81203,-0.99433 -1.07059,-1.93909c-0.29935,-1.09385 -0.19837,-2.23696 -0.33128,-2.28083c-0.79371,-0.26204 0.49601,4.85319 0.49601,4.85319z" fill="#000000" stroke="none" stroke-width="0"/><path d="M223.57371,117.50072c0,0 -0.16172,-0.76803 -0.35655,-1.21708c-0.33287,-0.76723 -1.45226,-3.12151 -1.45226,-3.12151c0,0 1.29499,0.90635 1.91399,1.52665c0.84355,0.84532 2.68555,3.08251 2.68555,3.08251c0,0 -0.74861,0.08708 -1.16739,0.02326c-0.49604,-0.07559 -1.62334,-0.29382 -1.62334,-0.29382z" fill="#ffffff" stroke="none" stroke-width="0"/><path d="M226.78687,118.31368c0,0 0.7512,-1.79144 1.09547,-1.77611c0.51641,0.02299 1.47464,1.81355 1.47464,1.81355z" fill="#ffffff" stroke="none" stroke-width="0"/><path d="M231.64994,118.38775c0,0 0.36985,-0.82164 1.52579,-1.12245c0.89195,-0.23212 2.94824,-0.49749 4.73026,-0.77398c1.66569,-0.25844 3.09219,-0.53631 3.09219,-0.53631l-0.08554,1.92117c0,0 -3.09983,0.58896 -4.57792,0.66064c-1.55336,0.07533 -4.68477,-0.14907 -4.68477,-0.14907z" fill="#ffffff" stroke="none" stroke-width="0"/><path d="M229.82587,121.30951c0,0 6.67963,-0.66267 9.45318,-0.87422c2.18292,-0.16651 5.84463,-0.29263 5.84463,-0.29263c0,0 -0.01442,0.45686 -1.28563,0.91185c-2.60728,0.93316 -7.80181,2.22551 -10.09141,2.12357c-1.97725,-0.08804 -3.92077,-1.86856 -3.92077,-1.86856z" fill="#ffffff" stroke="none" stroke-width="0"/><path d="M226.55937,116.85212l-1.32507,-1.36799c0,0 0.8812,0.39594 1.25449,0.58216c0.27216,0.13577 0.77932,0.43239 0.77932,0.43239z" fill="#f44254" stroke="none" stroke-width="0"/><path d="M229.61269,117.45005l2.07486,0.09238c0,0 -0.76584,0.96689 -1.04349,0.95453c-0.32852,-0.01463 -1.03137,-1.04691 -1.03137,-1.04691z" fill="#f44254" stroke="none" stroke-width="0"/><path d="M216.53976,100.01016c0,0 0.236,-0.39434 0.6632,-0.7742c0.41997,-0.37344 1.02699,-0.73037 1.51257,-0.97311c1.14085,-0.57032 4.2594,-1.46963 4.2594,-1.46963l1.27809,0.1999l-1.25756,0.945c0,0 -0.86803,0.18219 -1.48543,0.38034c-1.16408,0.37363 -4.97028,1.69169 -4.97028,1.69169z" fill="#000000" stroke="none" stroke-width="0"/><path d="M217.70519,101.13453c0,0 0.93265,-0.38057 1.647,-0.69885c0.39644,-0.17664 1.12162,-0.39162 1.76446,-0.83873c0.91662,-0.63751 1.72973,-1.52248 1.72973,-1.52248l-0.69478,2.75754c0,0 -2.11971,0.35765 -2.93689,0.41324c-0.58866,0.04005 -1.50954,-0.11073 -1.50954,-0.11073z" fill="#000000" stroke="none" stroke-width="0"/><path d="M217.17537,103.39892c0,0 1.64406,-1.17991 2.65362,-1.48874c0.74539,-0.22802 2.85537,-0.19645 2.85537,-0.19645l-0.11902,1.06719c0,0 -1.37772,0.00461 -2.15316,0.09353c-0.97508,0.1118 -3.23681,0.52447 -3.23681,0.52447z" fill="#000000" stroke="none" stroke-width="0"/><path d="M235.07931,110.77404c0,0 0.94323,-0.6167 2.48508,-1.19941c0.91655,-0.34638 4.80778,-1.35347 5.1982,-1.5955c0.57161,-0.35438 1.14019,-2.67517 1.14019,-2.67517c0,0 0.65252,0.04382 1.87502,0.70514c0.75586,0.4089 2.0646,1.46627 2.56582,1.65683c0.42665,0.16221 1.35478,0.12791 2.0247,0.18872c0.44754,0.04063 0.77631,0.20273 0.77631,0.20273c0,0 -0.92354,0.52537 -2.05724,0.74703c-0.89985,0.17594 -2.01796,-0.28801 -2.2239,0.08705c-0.10447,0.19023 1.72618,3.55663 1.72618,3.55663c0,0 -0.36862,0.04845 -0.84826,-0.51223c-0.60415,-0.70622 -1.39565,-2.12771 -1.97403,-3.01106c-0.37992,-0.58025 -0.68294,-1.98086 -0.72835,-1.98648c-0.26556,-0.0329 -0.32641,1.27168 -0.67663,1.42633c-1.97622,0.87268 -4.77871,1.4012 -6.78824,1.8109c-1.45325,0.29629 -2.49482,0.5985 -2.49482,0.5985z" fill="#000000" stroke="none" stroke-width="0"/><path d="M244.98295,101.92009c0,0 2.25994,-1.59332 1.80487,-2.27444c-0.16264,-0.24344 -0.67684,-0.59911 -1.31361,-0.87622c-0.68008,-0.29596 -1.90834,-0.58693 -2.56057,-1.11021c-0.09188,-0.07371 -0.70378,-0.4125 -0.59892,-0.6383c0.05602,-0.12064 0.51008,-0.39387 0.6515,-0.46675c0.31797,-0.16389 0.98197,-0.10292 1.45022,-0.292c1.29027,-0.521 2.79961,-1.07636 2.59127,-1.32829c-0.06854,-0.08288 -2.31887,0.02917 -4.85602,-0.03793c-0.68146,-0.01802 -1.37726,-0.19168 -2.06338,-0.2428c-0.44011,-0.03279 -0.87997,0.06884 -1.29719,0.01754c-2.73571,-0.33637 -4.43575,-1.47144 -4.52427,-1.56641c-0.04833,-0.05186 -0.64545,-0.53601 -0.09164,-0.5257c1.26536,0.02356 1.8584,0.97813 4.43722,1.23719c0.46781,0.047 0.98321,-0.05834 1.51099,-0.02973c0.79464,0.04307 1.62541,0.20898 2.42828,0.21515c1.40195,0.01077 2.69942,-0.03037 3.48381,-0.10814c0.49996,-0.04957 0.79715,-0.24156 0.77258,-0.27663c-0.17335,-0.2475 -0.00513,-0.83852 -0.23598,-1.08991c-0.11128,-0.12118 -1.40229,0.25947 -2.81521,0.30004c-1.77618,0.051 -3.75424,-0.22837 -3.92769,-0.37944c-0.12426,-0.10822 -0.31805,-0.22011 -0.43867,-0.32913c-0.13935,-0.12594 -0.65519,0.23129 -0.78944,0.10469c-0.09445,-0.08906 -0.01959,-0.36906 0.59237,-0.61973c0.2871,-0.11761 1.10448,0.48884 1.49465,0.35301c0.47445,-0.16518 3.53601,0.25006 4.0591,0.03654c0.764,-0.31188 1.52858,-0.5714 1.83667,-0.98293c0.14578,-0.19471 0.24906,-1.73395 0.24906,-1.73395l0.71773,-0.31418c0,0 -0.26337,1.48975 0.12423,1.36135c0.07339,-0.02431 0.32872,-0.415 0.4897,-0.85068c0.14513,-0.39279 0.20079,-0.83611 0.20079,-0.83611l2.32142,-1.01689c0,0 -0.43731,1.36369 -0.52382,1.75379c-0.10037,0.45257 -0.53293,1.31424 -0.53293,1.31424c0,0 0.02433,0.53665 0.03319,1.36269c0.0133,1.24082 0.00437,2.84918 -0.18716,4.55786c-0.08027,0.71604 -1.59629,0.85904 -1.74972,1.52845c-0.05697,0.24859 0.65841,0.65961 0.9404,1.02816c0.28264,0.36941 0.13185,0.69626 0.05201,0.85079c-0.42785,0.82807 -0.93699,1.67218 -0.93699,1.67218z" fill="#000000" stroke="none" stroke-width="0"/><path d="M249.28425,92.03019c0,0 0.30242,-0.03981 0.493,-0.44798c0.34481,-0.73847 1.26115,-3.62087 1.26115,-3.62087l2.11195,-0.42596c0,0 -1.40619,2.69018 -2.01347,3.69652c-0.45394,0.75223 -1.7102,2.41663 -1.7102,2.41663z" fill="#000000" stroke="none" stroke-width="0"/><path d="M242.88151,104.90828c0,0 1.49841,-0.27681 3.00742,-0.77993c0.60118,-0.20044 1.20939,-0.39014 1.77371,-0.65086c0.78135,-0.36097 1.50545,-0.28558 1.81562,-0.78269c0.23634,-0.37879 0.44016,-1.81171 0.60463,-3.29015c0.34315,-3.08476 0.52899,-7.17633 0.52899,-7.17633c0,0 0.11585,0.47811 0.13056,1.32597c0.03354,1.93373 -0.38008,5.04077 -0.35062,6.34601c0.0248,1.09843 0.52574,2.97526 0.52574,2.97526c0,0 0.32375,0.16237 0.93771,-0.00008c1.06729,-0.28241 2.76782,-0.89842 3.44665,-0.85325c2.50355,0.16658 3.47249,0.52203 3.47249,0.52203c0,0 -1.27868,-0.18361 -2.74641,0.00196c-0.92649,0.11714 -1.97292,0.45487 -2.89407,0.81296c-0.16481,0.06407 -0.3706,-0.03928 -0.52627,0.02912c-0.24205,0.10639 -0.42649,0.38725 -0.63796,0.50096c-0.48705,0.26189 -0.8794,0.53814 -1.11438,0.80521c-0.04947,0.05623 -0.21703,0.22623 -0.30907,0.65096c-0.27722,1.27905 -0.62392,4.01169 -1.04528,6.03756c-0.33503,1.61079 -0.78257,2.76945 -0.78257,2.76945c0,0 0.34785,-4.12044 0.32438,-6.70734c-0.0102,-1.12493 0.20223,-2.13622 -0.04451,-2.49046c-0.12378,-0.17771 -1.00955,-0.2975 -2.30734,-0.28533c-1.65814,0.01554 -3.80945,0.23903 -3.80945,0.23903z" fill="#ff0000" stroke="none" stroke-width="0"/><path d="M228.98398,105.96726c0,0 2.03507,-0.5996 2.82124,-0.72343c0.73815,-0.11627 2.1295,-0.06596 2.1295,-0.06596c0,0 0.21855,-0.77042 0.46823,-1.71392c0.22173,-0.8379 0.54147,-1.53438 0.68105,-2.22695c0.22195,-1.1013 0.29897,-3.57957 0.53125,-5.04243c0.17979,-1.13231 0.57092,-1.79402 0.57092,-1.79402c0,0 -0.35165,1.17229 -0.43016,2.61509c-0.08681,1.59517 -0.09325,3.6871 -0.06904,4.63591c0.02479,0.97172 0.47626,2.8146 0.47626,2.8146l5.55847,0.30613c0,0 -0.81156,0.5764 -2.16369,0.77091c-1.46454,0.21068 -3.48969,0.05689 -3.80181,0.5119c-0.08658,0.1262 -0.25495,0.20162 -0.36816,0.95682c-0.39529,2.63681 -0.81089,8.41982 -0.81089,8.41982c0,0 0.05456,-4.70251 -0.026,-7.22129c-0.01714,-0.53577 -0.1325,-0.89162 -0.15309,-1.17283c-0.05165,-0.70516 -0.31603,-1.17158 -0.31603,-1.17158c0,0 -0.84926,-0.2134 -1.33998,-0.22814c-0.83237,-0.02502 -3.75803,0.3294 -3.75803,0.3294z" fill="#ff0000" stroke="none" stroke-width="0"/><path d="M247.57452,96.61195l0.10823,-2.43075l0.80636,-0.31739l-0.15914,2.25183z" fill="#d396fc" stroke="none" stroke-width="0"/><path d="M247.77208,93.13601c0,0 -0.13869,-0.43437 -0.11929,-0.65434c0.02022,-0.2293 0.06194,-0.70249 0.06194,-0.70249c0,0 0.31394,-0.06888 0.4594,-0.14239c0.17149,-0.08667 0.50439,-0.34464 0.50439,-0.34464l-0.13464,1.70158z" fill="#d396fc" stroke="none" stroke-width="0"/><path d="M247.48373,90.35574l0.05495,-1.23408l0.71826,-0.26243l-0.04448,0.99902z" fill="#d396fc" stroke="none" stroke-width="0"/><path d="M246.57277,97.20435c-0.00415,0.09331 -0.18402,0.16108 -0.40173,0.15139c-0.21772,-0.00969 -0.39085,-0.09319 -0.3867,-0.1865c0.00415,-0.09331 0.18402,-0.16109 0.40174,-0.1514c0.21772,0.00969 0.39084,0.0932 0.38669,0.1865z" fill="#d396fc" stroke="none" stroke-width="0"/><path d="M237.5874,133.2025c-0.01228,0.27587 -0.20861,0.49121 -0.4385,0.48097c-0.22989,-0.01024 -0.4063,-0.24217 -0.39402,-0.51804c0.01228,-0.27587 0.20861,-0.49121 0.4385,-0.48097c0.22989,0.01024 0.4063,0.24217 0.39402,0.51804z" fill="#000000" stroke="none" stroke-width="0"/></g><g><g><path d="M263.11825,134.9909c0.19287,7.55379 -3.49315,12.06257 -10.95463,12.60192c-5.83572,0.42183 -12.51364,-5.7171 -12.70651,-13.27089c-0.19288,-7.5538 4.54809,-13.16585 12.02661,-13.3568c1.1695,-0.02987 2.25768,0.28965 3.25427,0.57221c5.37621,1.5243 8.21756,7.08104 8.38027,13.45357z" fill="#485e84" stroke="#000000" stroke-width="2" stroke-linecap="butt"/><path d="M242.16534,140.66394c0,0 2.87903,0.14754 3.45937,-0.67092c5.56683,-7.85104 5.90828,-14.87626 5.84389,-17.20843c-0.01462,-0.52987 -0.5046,-0.80589 -0.5046,-0.80589c0,0 1.04963,-0.13803 2.39713,0.12485c1.43384,0.27971 3.20432,0.9893 4.38522,1.97656c1.34891,1.12773 3.75428,4.54089 3.75428,4.54089l1.90037,10.3185c0,0 -4.20216,5.26618 -5.13015,5.82921c-0.90911,0.55158 -2.1431,0.94351 -3.43834,1.41304c-2.01104,0.72901 -4.28452,0.71321 -5.6659,0.2979c-1.76294,-0.53002 -3.66414,-1.88712 -5.00427,-3.24979c-1.24725,-1.26821 -1.99697,-2.56592 -1.99697,-2.56592z" fill="#343545" stroke="none" stroke-width="0" stroke-linecap="butt"/><path d="M254.31301,139.17156c0,0 -4.39525,1.04864 -6.75269,-0.00482c-2.98428,-1.33358 -7.93885,-5.53106 -7.93885,-5.53106" fill="none" stroke="#000000" stroke-width="1" stroke-linecap="round"/><path d="M248.05119,121.87122c0,0 3.51889,0.6654 5.4774,1.55857c1.97719,0.90169 5.40418,4.34742 5.40418,4.34742" fill="none" stroke="#000000" stroke-width="1" stroke-linecap="round"/><path d="M255.99258,144.40313c0,0 -4.4956,1.14381 -6.99711,-0.11353c-3.83849,-1.92935 -8.4238,-5.49468 -8.4238,-5.49468" fill="none" stroke="#000000" stroke-width="1" stroke-linecap="round"/><path d="M248.68468,146.68131c0,0 -5.4585,-6.73238 -3.10691,-15.13539c2.57586,-9.20446 11.21409,-9.26132 11.21409,-9.26132" fill="none" stroke="#000000" stroke-width="1" stroke-linecap="round"/><path d="M253.4267,147.19681c0,0 -4.39905,-7.75436 -2.3399,-15.17381c1.69074,-6.09205 8.96246,-6.82059 8.96246,-6.82059" fill="none" stroke="#000000" stroke-width="1" stroke-linecap="round"/><path d="M243.43497,127.71538c-0.3019,0.5214 -0.88127,0.75031 -1.29403,0.5113c-0.41278,-0.239 -0.22304,-0.58974 0.07885,-1.11114c0.3019,-0.5214 0.60166,-1.01599 1.01443,-0.77699c0.41278,0.239 0.50265,0.85543 0.20075,1.37682z" fill="#8fbbbe" stroke="none" stroke-width="0" stroke-linecap="butt"/><path d="M245.6717,124.84202c0.00769,0.30115 -0.35227,0.55462 -0.80399,0.56616c-0.45173,0.01154 -0.63776,-0.04613 -0.64545,-0.34727c-0.00769,-0.30115 0.34994,-0.64551 0.80167,-0.65704c0.45173,-0.01154 0.64007,0.13701 0.64776,0.43816z" fill="#8fbbbe" stroke="none" stroke-width="0" stroke-linecap="butt"/><path d="M241.7267,130.73002c-0.03666,0.45039 -0.30977,0.79567 -0.61002,0.77123c-0.30025,-0.02443 -0.2413,-0.41632 -0.20465,-0.86669c0.03666,-0.45039 0.03712,-0.78872 0.33738,-0.76426c0.30025,0.02443 0.51395,0.40936 0.47729,0.85973z" fill="#8fbbbe" stroke="none" stroke-width="0" stroke-linecap="butt"/><path d="M243.39552,142.54225c0,0 -1.78626,-4.80281 -1.70044,-8.59701c0.04866,-2.15111 0.83413,-4.03021 1.44559,-5.44816c0.54075,-1.25397 2.92505,-3.52505 4.93092,-5.07345c1.47681,-1.14001 2.79224,-1.80611 2.79224,-1.80611" fill="none" stroke="#000000" stroke-width="0.5" stroke-linecap="round"/><path d="M241.77781,125.48706c0,0 5.29469,0.06846 7.80142,1.09073c2.11198,0.86129 6.25398,4.4614 6.25398,4.4614" fill="none" stroke="#000000" stroke-width="1" stroke-linecap="round"/><path d="M255.08724,133.87734c0,0 -4.83962,-0.11661 -7.01708,-0.73992c-3.82321,-1.09442 -7.66981,-4.6142 -7.66981,-4.6142" fill="none" stroke="#000000" stroke-width="1" stroke-linecap="round"/></g><g stroke-linecap="butt"><path d="M256.19478,150.17573c0.3516,-1.78568 0.60039,-3.21866 0.62229,-3.35284c0.04587,-0.28108 -0.97755,-3.04455 -1.75245,-6.07093c-0.84403,-3.29634 -1.29932,-6.73746 -1.2486,-7.04547c0.23796,-1.44495 2.31098,-3.13835 3.76881,-4.62469c2.17826,-2.22088 4.31022,-4.58496 5.11036,-4.60539c1.01862,-0.02601 2.12284,2.11348 3.43462,2.62143c1.0752,0.41633 4.77296,0.18384 5.95199,0.82544c0.86298,0.46961 1.4406,1.43263 2.27394,2.00185c0.86674,0.592 2.54488,0.06051 3.36872,0.71752c0.84997,0.67785 1.65782,1.5487 2.40997,2.3015c0.98479,0.98562 4.28606,1.08778 5.07789,2.09015c2.77354,3.51096 1.87113,7.7123 1.49891,8.44587c-2.09283,4.1246 -4.97087,7.28014 -6.41282,8.96773c-1.00696,1.17848 -3.04045,1.82006 -4.71275,1.20017c-1.38717,-0.51422 -2.24527,-1.74234 -3.36686,-2.22128c-1.09371,-0.46704 -2.22642,0.28502 -2.22642,0.28502c0,0 1.75181,1.97779 1.67857,4.09849c-0.06396,1.85233 -1.2173,3.90759 -3.21486,3.44723c-1.85009,-0.42638 -3.96492,-4.1323 -5.53007,-4.55376c-1.97413,-0.5316 -4.58709,0.77738 -5.77395,0.1638c-1.40094,-0.72426 -1.08752,-4.03031 -0.95728,-4.69178z" fill="#d396fc" stroke="#000000" stroke-width="1.5"/><path d="M256.47056,141.75371c0,0 -2.24374,-7.17747 -1.79333,-8.36138c0.49544,-1.30228 3.30211,-3.72654 4.78339,-5.09281c0.55078,-0.50802 0.91696,-0.92296 0.91696,-0.92296c0,0 0.85878,0.82318 1.49071,1.92792c0.60514,1.05791 0.98756,2.3895 0.8592,2.81895c-0.25909,0.86683 -2.89712,1.59594 -4.0162,3.24809c-0.27791,0.4103 0.349,4.94028 0.08758,5.36027c-0.6158,0.98927 -1.28718,1.06246 -1.77827,1.08335c-0.43641,0.01857 -0.55003,-0.06143 -0.55003,-0.06143z" fill="#ffc6ef" stroke="none" stroke-width="0"/><path d="M266.28515,145.04969c0,0 2.01221,-7.05354 2.27121,-9.20877c0.14301,-1.19004 -0.67368,-3.01781 -0.67368,-3.01781c0,0 2.95179,-1.38768 3.40011,0.29205c0.38068,1.42631 0.63254,7.83683 -0.85978,10.67946c-1.05173,2.00338 -4.13784,1.25508 -4.13784,1.25508z" fill="#ffc6ef" stroke="none" stroke-width="0"/><path d="M271.99625,147.90484c0,0 2.13938,-6.78002 2.40505,-9.19205c0.21629,-1.96371 -0.92857,-4.21363 -0.92857,-4.21363c0,0 2.54218,-0.53287 3.6312,0.36883c0.80376,0.6655 1.72597,1.95709 1.80208,3.39612c0.06594,1.24687 -0.71482,2.31435 -1.09555,3.68901c-0.60324,2.1781 -1.13304,4.5108 -1.96472,5.63031c-0.45092,0.60698 -3.84948,0.32142 -3.84948,0.32142z" fill="#ffc6ef" stroke="none" stroke-width="0"/><path d="M260.43404,143.83504c0,0 2.56209,-8.35921 3.00548,-10.93244c0.23683,-1.37442 -0.55021,-3.3167 -0.55021,-3.3167c0,0 3.88602,0.95118 4.00335,1.55623c0.17859,0.92095 0.27651,2.42406 0.1985,4.08294c-0.18331,3.89799 -0.92709,8.64553 -0.92709,8.64553c0,0 -3.40316,0.39137 -4.34949,0.3855c-0.96339,-0.00598 -1.38056,-0.42107 -1.38056,-0.42107z" fill="#ffc6ef" stroke="none" stroke-width="0"/><path d="M257.09657,148.10797c0,0 -2.81314,-12.65525 -2.8182,-13.57172c-0.0018,-0.32338 0.74184,2.70401 1.54917,5.28592c0.52767,1.68753 1.24137,3.28488 1.24137,3.28488c0,0 0.4301,2.48229 1.10322,3.10047c0.21968,0.20174 0.45325,0.1143 0.69253,-0.23147c0.52315,-0.75601 1.01514,-4.28494 1.48924,-6.76861c0.1715,-0.89847 0.42117,-1.60269 0.56035,-1.88404c0.17578,-0.3553 -0.88432,0.13012 -0.88432,0.13012c0,0 0.5983,-2.07623 1.04978,-2.85042c0.32523,-0.55769 1.27435,-0.91138 1.55175,-1.36491c0.33263,-0.54383 -0.0808,-2.25688 0.05008,-3.2747c0.08087,-0.62892 0.53241,-0.70225 0.65396,-0.56775c0.16059,0.17771 1.16411,2.36392 0.94441,3.4863c-0.68635,3.50625 -3.27787,9.43369 -3.42346,12.5028c-0.08515,1.79489 1.50886,3.43964 1.78643,3.5492c0.7182,0.2835 1.71215,0.35303 2.39551,0.10492c0.04972,-0.01804 -0.81153,-1.20483 -0.61022,-2.50951c0.19969,-1.29417 0.41031,-3.10586 1.04379,-5.00408c0.71559,-2.14428 1.87041,-4.3964 2.28323,-6.0898c0.07722,-0.31675 -0.19604,-2.95283 -0.14692,-2.9559c0.26984,-0.01683 2.11254,2.88351 1.64653,3.99613c-0.4299,1.0264 -0.74711,2.65514 -1.27929,4.33745c-0.53738,1.69872 -1.00043,3.50776 -1.3576,4.75446c-0.29195,1.01901 -0.10884,2.12739 -0.10156,2.14096c0.28719,0.53594 0.82704,1.09832 1.36966,1.72848c0.46942,0.54516 0.93742,1.005 1.2362,1.17095c0.81319,0.45168 1.64703,-0.16028 1.64703,-0.16028c0,0 -0.80051,-1.06119 -0.63092,-2.26054c0.13412,-0.94857 0.93239,-3.1463 1.77681,-5.44382c0.16937,-0.46082 0.37158,-1.01365 0.58368,-1.47257c0.53239,-1.15189 1.11475,-2.19377 1.30578,-3.24134c0.21066,-1.15512 -0.51282,-2.51116 -0.74244,-3.36956c-0.13625,-0.50932 -0.16771,-0.8417 -0.16771,-0.8417c0,0 1.04094,0.82567 1.58459,1.94878c0.48242,0.99661 0.74979,2.24225 0.71798,3.03363c-0.09563,2.37896 -2.84448,6.80567 -2.62195,9.92197c0.09637,1.34949 2.82497,4.62883 2.82497,4.62883c0,0 -3.87386,-1.96886 -4.4718,-1.66119c-0.51002,0.26243 0.61159,5.40639 0.61159,5.40639c0,0 -0.90421,-1.53407 -1.59631,-2.80544c-0.46873,-0.86105 -0.74178,-1.6041 -0.94884,-1.65884c-0.46433,-0.12278 -0.96437,-0.27926 -1.18398,-0.42978c-0.5634,-0.38613 -1.43023,-1.66039 -1.43023,-1.66039c0,0 -1.41977,0.18782 -2.77774,0.10023c-0.9452,-0.06096 -1.86288,-0.34906 -2.241,-0.53437c-0.99359,-0.48695 -1.36506,-2.08186 -1.36506,-2.08186c0,0 -0.96826,0.11819 -1.45239,0.13182c-0.48256,0.01358 -1.44768,-0.05018 -1.44768,-0.05018z" fill="#000000" stroke="none" stroke-width="0"/><path d="M260.72945,126.91288c0,0 1.36535,-1.76271 1.95526,-1.77777c0.55963,-0.01429 2.51871,2.48198 2.51871,2.48198c0,0 -1.89015,-0.04928 -2.65043,-0.20319c-0.69675,-0.14105 -1.82354,-0.50102 -1.82354,-0.50102z" fill="#ffc6ef" stroke="none" stroke-width="0"/><path d="M265.29898,127.79654c0,0 3.35526,0.43523 4.53321,0.55619c0.75301,0.07734 2.12653,0.27408 2.12653,0.27408c0,0 -1.9625,1.11936 -2.8932,1.51948c-0.65838,0.28305 -2.9124,-0.01222 -3.77301,-0.54606c-0.75023,-0.46536 0.00647,-1.80371 0.00647,-1.80371z" fill="#ffc6ef" stroke="none" stroke-width="0"/><path d="M272.79943,133.06134c-0.00847,-0.33166 0.1897,-1.00998 0.29612,-1.4924c0.09691,-0.43934 0.26811,-1.34111 0.26811,-1.34111c0,0 0.35398,0.46962 0.83044,0.53474c0.72451,0.09902 2.92116,0.36979 2.92116,0.36979c0,0 0.26971,1.37123 -0.9019,1.90211c-0.96601,0.43771 -3.40781,0.26573 -3.41391,0.02688z" fill="#ffc6ef" stroke="none" stroke-width="0"/><path d="M278.61672,135.55866c0.03193,-0.64639 0.45807,-2.47569 0.45807,-2.47569c0,0 0.48984,0.5643 1.14253,0.80189c0.56723,0.20648 1.19581,0.44252 1.56401,0.60355c0.58603,0.25628 1.7976,0.48021 1.7976,0.48021c0,0 -1.71756,1.32573 -2.98256,1.44579c-1.07441,0.10197 -1.99219,-0.60176 -1.97965,-0.85574z" fill="#ffc6ef" stroke="none" stroke-width="0"/></g><g stroke="#000000" stroke-width="1.5" stroke-linecap="butt"><path d="M279.46169,144.01361c0.40921,-1.76804 2.23685,-2.4298 2.37999,-3.10632c0.15199,-0.71836 0.37006,-1.60581 0.4831,-1.63253c0.10746,-0.02542 -0.16861,1.55027 0.40297,1.53568c0.56279,-0.01437 2.19871,0.37909 3.69459,1.11584c2.5237,1.24295 5.95914,3.00272 5.95914,3.00272c0,0 -0.50132,1.23929 -0.90822,3.6989c-0.25678,1.55209 -2.35028,4.02315 -2.35028,4.02315c0,0 -7.79522,-1.02607 -8.87151,-1.86148c-1.62226,-1.25919 -1.05822,-5.61617 -0.78978,-6.77595z" fill="#485e84"/><path d="M289.65263,152.18154c-0.08538,0.28714 -0.39152,0.38534 -0.68733,0.07844c-0.72233,-0.74937 -1.85093,-2.34024 -1.06276,-4.41378c0.57183,-1.50437 1.9438,-2.19178 2.88478,-2.49496c0.55673,-0.17938 0.88754,0.02823 0.76553,0.43867c0,0 -1.65731,5.57454 -1.90022,6.39162z" fill="#343545"/></g></g><g stroke-linecap="butt"><path d="M211.19373,205.63835c-1.59754,-0.24025 -5.81867,-5.66866 -6.28465,-7.97052c-0.6138,-3.03209 2.83124,-8.13795 2.83124,-8.13795c0,0 1.70706,-4.31926 4.16988,-7.63587c1.78824,-2.40817 4.20725,-4.00252 5.53376,-4.41403c0.70083,-0.21741 2.41013,0.38135 4.44009,0.71641c3.3008,0.54482 7.46758,0.75846 9.76515,0.46702c3.27674,-0.41565 6.30863,-1.06827 9.23903,-2.18274c2.20342,-0.83798 4.80533,-2.05027 7.00407,-2.51681c0.25224,-0.05352 8.31099,0.32034 9.93404,9.13301c0.43823,2.37947 -0.06345,5.94676 -2.3494,7.98421c-1.63924,1.46103 -4.32639,3.24457 -7.82299,4.3514c-5.29619,1.67646 -11.53778,2.30547 -15.39389,2.72445c-2.23258,0.24257 -3.65729,0.58075 -3.65729,0.58075c0,0 -1.64577,1.25661 -3.13557,2.08631c-1.83858,1.02394 -4.16423,2.06788 -4.32255,2.13265c-4.78993,1.95952 -8.00802,2.9739 -9.95093,2.68171z" fill="#1b1f25" stroke="#000000" stroke-width="1.5"/><path d="M208.42477,189.37352c0,0 2.63585,-9.25453 9.06663,-11.40411c0.78911,-0.26377 13.09806,1.74829 14.19375,1.4909c1.84834,-0.43418 6.90434,-0.96873 11.32706,-2.95729c1.64448,-0.7394 4.2285,-2.15811 4.97124,-1.98193c2.46459,0.58461 5.85043,1.64006 7.58206,4.35538c1.17058,1.83553 1.66935,4.00326 1.6678,5.76592c-0.00235,2.63673 -0.9395,4.54918 -0.9395,4.54918c0,0 -0.65558,-4.86452 -1.02344,-6.64653c-0.24845,-1.20354 -0.9697,-3.00884 -0.9697,-3.00884c0,0 -19.29417,6.94168 -27.66862,8.74098c-0.12624,0.02712 -6.89196,-4.25399 -10.26764,-4.02683c-3.7011,0.24906 -7.93961,5.12314 -7.93961,5.12314z" fill="#2b263c" stroke="none" stroke-width="0"/><path d="M210.28288,204.17843c0,0 -5.03716,-6.36847 -6.02487,-7.79026c-0.36638,-0.5274 -0.63396,-1.15672 -0.63396,-1.15672l2.4855,-6.94513c0,0 1.49011,-3.97417 2.34854,-2.86944c0.11286,0.14525 -0.67881,1.69392 -0.83807,2.40901c-0.08087,0.36314 -0.29076,0.88131 -0.29141,1.37498c-0.0011,0.81269 0.24981,1.57345 0.24981,1.57345c0,0 0.91086,-1.71969 0.99201,-1.51813c1.2145,3.01621 3.33607,14.47279 3.33607,14.47279z" fill="#1b1f25" stroke="none" stroke-width="0"/><path d="M207.01736,187.40551c0,0 -0.46926,-4.24813 2.68004,-7.80549c1.09677,-1.23888 3.16178,-2.47717 4.89239,-3.28325c1.58949,-0.74035 2.89767,-1.10047 2.89767,-1.10047c0,0 -4.78935,3.06328 -6.84178,5.96591c-1.42604,2.01677 -2.33911,6.16446 -2.33911,6.16446z" fill="#000000" stroke="none" stroke-width="0"/></g></g></g></svg>