<svg version="1.1" xmlns="http://www.w3.org/2000/svg" xmlns:xlink="http://www.w3.org/1999/xlink" width="180.17237" height="321.92141" viewBox="0,0,180.17237,321.92141"><g transform="translate(-217.97944,-39.06598)"><g data-paper-data="{&quot;isPaintingLayer&quot;:true}" fill-rule="nonzero" stroke-linejoin="miter" stroke-miterlimit="10" stroke-dasharray="" stroke-dashoffset="0" style="mix-blend-mode: normal"><g stroke="#000000" stroke-linecap="butt"><path d="M334.26321,231.96637c-14.1234,30.19682 -31.51427,51.89725 -38.8436,48.46925c-7.32934,-3.42801 -1.82164,-30.68635 12.30175,-60.88317c14.1234,-30.19682 31.51427,-51.89725 38.8436,-48.46925c7.32934,3.42801 1.82164,30.68635 -12.30176,60.88317z" fill="#0d69be" stroke-width="2"/><path d="M326.66941,279.57696c-6.06212,12.96125 -21.75401,18.42761 -35.04882,12.20949c-13.2948,-6.21812 -19.15807,-21.76608 -13.09594,-34.72733c6.06213,-12.96124 21.75401,-18.42761 35.04882,-12.20949c13.29481,6.21813 19.15806,21.76609 13.09594,34.72733z" fill="#faddbf" stroke-width="2"/><path d="M295.61853,252.17093c-6.06213,12.96124 10.018,45.22432 -3.27681,39.00619c-13.2948,-6.21812 -19.15806,-21.76608 -13.09594,-34.72733c6.06213,-12.96124 22.43486,-17.2401 16.37274,-4.27886z" fill="#ef8b89" stroke-width="0"/></g><g stroke="#000000" stroke-linecap="butt"><path d="M307.76518,340.83535v-95.29492h29.49199v95.29492z" fill="#73fffc" stroke-width="2"/><path d="M307.43943,340.21741l1.32626,-93.78573c0,0 5.20288,68.11227 6.3799,77.52842c0.2602,2.08162 2.52228,2.78987 2.52228,2.78987l18.60659,13.13896z" fill="#59a9e6" stroke-width="0"/></g><g stroke="#000000" stroke-linecap="butt"><path d="M268.4238,338.41281v-95.29492h29.49199v95.29492z" fill="#73fffc" stroke-width="2"/><path d="M268.09805,337.79489l1.32626,-93.78573c0,0 5.20288,68.11227 6.3799,77.52842c0.2602,2.08162 2.52228,2.78987 2.52228,2.78987l18.60659,13.13896z" fill="#59a9e6" stroke-width="0"/></g><g stroke="#000000" stroke-linecap="butt"><path d="M335.22917,235.69587c0,13.80271 10.04743,36.74388 4.95001,46.45977c-6.2338,11.88187 -28.61241,9.09579 -38.9397,9.09579c-13.66287,0 -32.94407,4.17018 -38.34426,-14.83216c-2.01935,-7.10576 4.35457,-32.37264 4.35457,-40.7234c0,-30.68249 15.2177,-55.55556 33.98969,-55.55556c18.77199,0 33.98969,24.87307 33.98969,55.55556z" fill="#0d69be" stroke-width="2"/><path d="M283.96554,251.27245c0,13.80271 62.04198,20.54886 56.94455,30.26474c-6.2338,11.88186 -28.61241,9.09579 -38.9397,9.09579c-13.66287,0 -32.94406,4.17018 -38.34425,-14.83215c-2.01936,-7.10576 4.35457,-32.37265 4.35457,-40.7234c0,-9.45244 3.34855,-28.59801 5.51953,-29.96813c5.94391,-16.76415 10.4653,25.13995 10.4653,46.16315z" fill="#10157d" stroke-width="0"/></g><g stroke-linecap="butt"><g stroke="#000000"><g><path d="M221.28847,119.61199c4.41435,-46.58209 45.75514,-80.76581 92.33723,-76.35146c46.58209,4.41435 80.76581,45.75514 76.35146,92.33723c-4.41435,46.58209 -45.75514,80.76581 -92.33723,76.35146c-46.58209,-4.41435 -80.76581,-45.75514 -76.35146,-92.33723z" fill="#faddbf" stroke-width="2"/><path d="M221.60024,118.76813c1.42025,-14.98714 12.48775,-40.01151 17.27991,-42.78595c0.54727,-0.31685 6.60123,-8.32464 14.72185,-14.30172c10.09338,-7.42909 22.64955,-13.07793 23.23901,-12.82413c7.69062,3.31133 -23.56693,62.91216 -24.71945,88.20618c-0.00275,0.06032 2.5291,20.02952 4.09895,20.61916c2.42521,4.99354 7.26331,19.92749 17.42247,28.06235c18.93279,15.16026 46.8669,24.20964 45.34252,24.57318c-2.43847,0.58152 -14.99792,1.36016 -21.03379,0.78817c-46.58209,-4.41435 -80.76581,-45.75514 -76.35146,-92.33723z" fill="#ef8b89" stroke-width="0"/><path d="M389.49928,135.09222c-1.09667,11.57249 -3.04641,15.42209 -3.4213,13.52655c-0.38247,-1.93381 0.73999,-9.78746 -7.6202,-15.43701c-2.02584,-1.369 -10.75282,5.28518 -13.35239,3.80519c-1.63283,-0.92961 -7.65358,-10.94642 -9.49494,-11.79997c-1.28745,-0.59679 -13.18494,7.16563 -14.53572,6.58496c-3.36892,-1.44823 -10.86203,-12.45385 -14.53443,-13.46282c-2.02228,-0.55561 -10.35933,10.92116 -12.435,10.46947c-2.67683,-0.58251 -8.88515,-12.9645 -11.61033,-13.22275c-7.24738,-0.6868 -8.10783,6.27386 -13.88893,11.75914c-3.7567,3.56447 -12.69469,-14.31337 -16.22299,-10.19265c-4.38174,5.11743 -8.70606,10.04115 -13.26777,13.22461c-3.57883,2.49755 -12.35199,-11.31264 -15.46212,-8.97786c-15.01656,11.27293 -24.07198,18.45503 -22.35761,0.36425c3.44728,-36.37717 43.86945,-4.093 87.49626,-21.57687c41.75915,-16.73538 84.15478,-1.44139 80.7075,34.93579z" fill="#ef8b89" stroke-width="0"/></g><path d="M391.81038,126.96311c-2.21547,23.3786 5.68035,9.29265 -11.33449,-1.93823c-2.08212,-1.37433 -11.02046,5.25981 -13.69156,3.77305c-1.67776,-0.93387 -7.88046,-10.96792 -9.77201,-11.82623c-1.32254,-0.60012 -13.51143,7.13469 -14.8989,6.55054c-3.46045,-1.4569 -11.1764,-12.48364 -14.94717,-13.50193c-2.07645,-0.56075 -10.60275,10.89809 -12.73373,10.44116c-2.74815,-0.58927 -9.14919,-12.98952 -11.94615,-13.25457c-7.43829,-0.70489 -8.30397,6.25527 -14.22243,11.72754c-3.84596,3.55601 -13.0615,-14.34813 -16.67173,-10.23518c-4.48347,5.10779 -8.9085,10.02196 -13.58141,13.19489c-3.66608,2.48929 -12.70244,-11.34585 -15.88798,-9.01822c-15.3807,11.23843 -24.65476,18.3998 -22.94039,0.30902c3.44728,-36.37717 47.35081,-77.13382 93.07281,-72.80097c45.72199,4.33284 83.00246,50.20198 79.55518,86.57915z" fill="#873412" stroke-width="2"/><path d="M391.67345,125.78213c-2.21547,23.3786 5.68035,9.29265 -11.33449,-1.93823c-2.08212,-1.37433 -11.02046,5.25981 -13.69156,3.77305c-1.67776,-0.93387 -7.88046,-10.96792 -9.77202,-11.82623c-1.32254,-0.60012 -13.51143,7.13469 -14.8989,6.55054c-3.46045,-1.4569 -11.1764,-12.48364 -14.94717,-13.50193c-2.07645,-0.56075 -10.60275,10.89809 -12.73373,10.44116c-2.74815,-0.58927 -9.14919,-12.98952 -11.94615,-13.25457c-7.43829,-0.70489 -8.30397,6.25527 -14.22243,11.72754c-3.84596,3.55601 -13.0615,-14.34813 -16.67173,-10.23518c-4.48347,5.10779 -8.9085,10.02196 -13.58142,13.19489c-3.66608,2.48929 -12.70244,-11.34585 -15.88798,-9.01822c-15.3807,11.23843 -24.65476,18.3998 -22.94039,0.30902c3.44728,-36.37717 45.00458,-3.98543 89.72708,-21.36547c42.80792,-16.63599 86.34818,-1.23353 82.9009,35.14365z" fill="#741d23" stroke-width="0"/></g><path d="M313.64245,50.94257c0.05384,0.12125 0.09468,0.25918 0.12474,0.40953c0.06933,0.26688 0.09531,0.54974 0.07066,0.83975c0.00103,1.14151 -0.28183,2.4979 -0.28343,2.99206c-0.00209,0.64922 1.2555,-0.63169 1.88716,-0.48171c0.38693,0.09187 0.7152,0.83282 1.03403,0.59512c1.93486,-1.44254 3.80079,-4.13868 6.38992,-2.26282c0.85747,0.62125 0.49489,1.94604 0.99244,2.68099c0.04183,0.06178 2.61046,0.11017 3.15315,0.69691c0.93509,1.01101 0.10534,2.27195 0.53242,3.30952c0.13666,0.33201 0.61365,-0.38608 0.95433,-0.49939c1.51622,-0.50428 4.16871,-1.62051 5.81941,-0.45787c0.86978,0.61262 0.53793,2.20011 1.00088,2.68786c0.81164,0.85509 2.05371,-1.17659 3.15317,-1.60218c1.52061,-0.58863 2.17858,0.17769 3.33378,1.17727c0.19924,0.17241 0.08097,4.15821 1.06903,5.41477c0.55539,0.70631 1.7252,-0.69904 2.62103,-0.62946c0.89381,0.06942 2.76855,-0.47847 3.17876,-0.33551c0.82285,0.28675 1.40981,1.7818 2.19933,1.41307c4.03101,-1.88259 8.78332,0.023 6.68779,4.80676c-0.26519,0.6054 1.37016,-0.44665 1.97466,-0.17942c0.23435,0.10359 1.48767,1.22763 1.72197,1.16344c1.5325,-0.41982 2.5352,-1.04511 4.11961,-0.89885c1.31584,0.12147 2.50854,0.98171 2.6837,2.38496c0.09206,0.73747 -1.19323,2.01957 -0.46756,2.18c1.71051,0.37819 4.35572,1.35747 3.34749,3.81079c-1.09445,2.66312 -3.61088,4.82448 -5.97491,2.5001c-0.82021,-0.80644 -2.41123,1.01971 -3.41922,0.46559c-1.29131,-0.70986 -1.74046,-3.05115 -1.55829,-4.21576c0.08422,-0.53837 -1.10378,0.27107 -1.62971,0.12844c-0.70809,-0.19202 -0.94634,-1.31051 -1.66949,-1.43428c-1.61754,-0.27685 -1.66088,3.1234 -5.45589,1.97368c-1.12014,-0.33935 -2.29902,-2.40864 -2.57327,-3.53749c-0.1592,-0.65527 1.69022,-2.50127 1.54284,-2.62129c-0.35788,-0.29143 -2.20386,2.63125 -2.64181,2.73253c-1.0536,0.24366 -2.10258,-0.58068 -3.05379,-1.0951c-0.8404,-0.45448 -1.32648,1.77269 -2.28118,1.73546c-0.84344,-0.0329 -9.26618,-1.36277 -9.55255,-1.89515c-0.34914,-0.64905 -0.6546,-1.79074 -0.43064,-2.48238c0.08049,-0.24857 1.1452,-1.74095 0.96254,-1.73802c-0.64826,0.01038 -4.49398,3.02924 -6.34671,-0.415c-1.00749,-1.87295 1.3074,-3.49071 1.46385,-5.1073c0.09662,-0.99833 -1.26202,1.56334 -1.81316,2.40134c-0.42331,0.64365 -1.55173,1.1641 -2.32512,1.1159c-2.67394,-0.16663 -1.69581,-2.64658 -2.1125,-4.20724c-0.1923,-0.72023 -1.62689,0.44366 -2.23636,0.0144c-1.49015,-1.04956 -1.14576,-2.18665 -1.1383,-3.72497c0.00341,-0.70437 -0.80241,2.65128 -2.45539,2.66194c-0.67037,0.00432 -1.62644,-1.10572 -1.944,-0.51532c-1.54608,2.8744 -0.95845,4.14761 -4.69218,3.31055c-0.3603,-0.08077 -1.04842,0.69987 -1.41845,0.43925c-4.0953,-2.88447 -0.10822,-7.97721 0.39139,-11.95592c0.17624,-1.40346 -0.54591,-3.59513 0.74293,-4.17791c0.50246,-0.69254 1.34761,-1.10897 2.26108,-1.0224c0.80994,0.07675 1.49286,0.53184 1.89059,1.17396c0.06692,0.08366 0.12413,0.17527 0.16923,0.27684z" fill="#ba587e" stroke="none" stroke-width="0.5"/></g><g stroke="#000000" stroke-linecap="butt"><path d="M333.21108,162.53221c-2.69432,28.43156 -17.19359,41.85406 -33.68824,40.29095c-16.49464,-1.56311 -28.73847,-17.51993 -26.04415,-45.95149c2.69432,-28.43156 18.25004,-50.21274 34.74468,-48.64962c16.49464,1.56311 27.68202,25.8786 24.98771,54.31016z" fill="#f0f0f0" stroke-width="2"/><path d="M288.51134,138.62613c-6.94696,27.70113 28.21766,64.9936 11.72302,63.43049c-16.49464,-1.56311 -28.73847,-17.51993 -26.04415,-45.95149c2.69432,-28.43156 24.36438,-57.52665 14.32113,-17.479z" fill="#9a99ff" stroke-width="0"/></g><path d="M328.55728,170.36133c-1.4927,15.75164 -7.37078,28.07851 -13.12904,27.53283c-5.75826,-0.54568 -9.21618,-13.75728 -7.72348,-29.50892c1.4927,-15.75164 7.37078,-28.07851 13.12904,-27.53283c5.75826,0.54568 9.21618,13.75728 7.72348,29.50892z" fill="#000000" stroke="none" stroke-width="0" stroke-linecap="butt"/><g stroke="#000000" stroke-linecap="butt"><path d="M331.05766,132.15893c3.47447,10.6049 6.18548,33.6066 -9.45471,32.12446c-15.64019,-1.48214 -43.99227,-27.66681 -38.56061,-36.81038c5.16814,-8.69996 8.78017,-20.68283 24.42036,-19.20069c15.64019,1.48214 20.28375,13.77999 23.59496,23.88659z" fill="#a100fe" stroke-width="2"/><path d="M330.17094,131.71908c3.32308,10.59055 6.32994,33.14345 -8.77695,31.71184c-15.1069,-1.4316 -42.87812,-27.08438 -37.60074,-36.24257c5.02135,-8.71387 6.43822,1.57646 21.54512,3.00806c15.1069,1.4316 21.66562,-8.57028 24.83257,1.52265z" fill="#99008e" stroke-width="0"/></g><g data-paper-data="{&quot;index&quot;:null}" stroke="#000000" stroke-linecap="butt"><path d="M371.76369,113.20151c16.49464,1.56311 27.68202,25.8786 24.98771,54.31016c-2.69431,28.43155 -17.71757,41.80441 -34.21221,40.2413c-16.49464,-1.56311 -28.2145,-17.47027 -25.52018,-45.90183c2.69432,-28.43156 18.25004,-50.21274 34.74468,-48.64962z" fill="#f0f0f0" stroke-width="2"/><path d="M396.19654,166.62509c-2.69431,28.43155 -17.71757,41.80441 -34.21221,40.2413c-16.49464,-1.56311 25.04915,-31.58632 23.42931,-60.09928c-2.3418,-41.22132 13.47721,-8.57358 10.7829,19.85798z" fill="#9a99ff" stroke-width="0"/></g><path d="M382.23196,146.05535c5.75826,0.54568 9.21618,13.75728 7.72348,29.50892c-1.4927,15.75164 -7.37078,28.07851 -13.12904,27.53283c-5.75826,-0.54568 -9.21618,-13.75728 -7.72348,-29.50892c1.4927,-15.75164 7.37078,-28.07851 13.12904,-27.53283z" data-paper-data="{&quot;index&quot;:null}" fill="#000000" stroke="none" stroke-width="0" stroke-linecap="butt"/><g data-paper-data="{&quot;index&quot;:null}" stroke="#000000" stroke-linecap="butt"><path d="M344.83951,132.42297c5.15072,-9.30471 12.02169,-20.51138 27.66188,-19.02924c15.64019,1.48214 16.93702,13.9302 20.37894,23.44609c3.61742,10.0011 -27.94468,30.26958 -43.58487,28.78744c-15.64019,-1.48214 -9.86063,-23.44081 -4.45596,-33.20428z" fill="#a100fe" stroke-width="2"/><path d="M345.79308,132.15752c5.00646,-9.31838 9.56965,1.73747 24.67654,3.16908c15.1069,1.4316 18.43151,-8.4094 21.72664,1.09258c3.46314,9.98648 -27.64243,29.58296 -42.74933,28.15135c-15.1069,-1.4316 -8.90715,-22.63519 -3.65386,-32.413z" fill="#99008e" stroke-width="0"/></g><path d="M371.63632,338.87003c0,11.6628 -14.51982,21.11737 -32.43092,21.11737c-17.9111,0 -32.43092,-9.45457 -32.43092,-21.11737c0,-2.33142 -0.03339,-13.76009 1.08979,-15.13837c4.49546,-5.51647 17.81784,5.26144 32.14847,5.26144c17.9111,0 31.62358,-1.78588 31.62358,9.87692z" fill="#000082" stroke="#000000" stroke-width="2" stroke-linecap="butt"/><path d="M369.75004,336.13773c0,6.30841 -13.89058,10.1901 -31.80169,10.1901c-17.9111,0 -30.16566,-2.95748 -30.16566,-9.26589c0,-1.26107 -0.03338,-12.52602 1.0898,-13.27153c4.49546,-2.98386 15.55258,5.7726 29.88321,5.7726c17.9111,0 30.99434,0.26631 30.99434,6.57472z" fill="#2e0048" stroke="#000000" stroke-width="0" stroke-linecap="butt"/><path d="M328.64938,338.22522c0,11.6628 -14.51982,21.11737 -32.43092,21.11737c-17.9111,0 -32.43092,-9.45457 -32.43092,-21.11737c0,-2.33142 -0.03339,-13.76009 1.08979,-15.13837c4.49546,-5.51647 17.81784,5.26144 32.14847,5.26144c17.9111,0 31.62358,-1.78588 31.62358,9.87692z" fill="#000082" stroke="#000000" stroke-width="2" stroke-linecap="butt"/><path d="M326.7631,335.49289c0,6.30841 -13.89058,10.1901 -31.80169,10.1901c-17.9111,0 -30.16566,-2.95748 -30.16566,-9.26589c0,-1.26107 -0.03338,-12.52602 1.0898,-13.27153c4.49546,-2.98386 15.55258,5.7726 29.88321,5.7726c17.9111,0 30.99434,0.26631 30.99434,6.57472z" fill="#2e0048" stroke="#000000" stroke-width="0" stroke-linecap="butt"/><g><g><path d="M324.92927,227.02643c-7.72121,12.9617 -18.74902,16.64916 -31.92395,9.61138c-10.30426,-5.5043 -15.04171,-22.98517 -7.32049,-35.94689c7.72121,-12.96178 21.7058,-17.38846 34.53837,-9.74423c2.00677,1.19539 3.50403,2.89423 4.88601,4.43303c7.45513,8.3013 6.33385,20.71194 -0.1799,31.6467z" fill="#485e84" stroke="#000000" stroke-width="2" stroke-linecap="butt"/><path d="M283.50221,214.28582c0,0 4.7047,3.31616 6.55665,2.5522c17.76441,-7.32798 25.82486,-18.82788 28.20056,-22.83485c0.53977,-0.91038 0.00638,-1.89848 0.00638,-1.89848c0,0 1.91956,0.88508 3.91506,2.76444c2.12339,1.99979 4.35731,5.08419 5.29983,8.00938c1.0766,3.34142 1.50263,11.66769 1.50263,11.66769l-7.78292,19.44954c0,0 -12.70624,4.41663 -14.87315,4.37883c-2.12286,-0.037 -4.62421,-0.68966 -7.31168,-1.27654c-4.17267,-0.91126 -7.99514,-3.35983 -9.88548,-5.53271c-2.41247,-2.77311 -4.1774,-7.09017 -4.98889,-10.81897c-0.75525,-3.47034 -0.63887,-6.46046 -0.63887,-6.46046z" fill="#343545" stroke="none" stroke-width="0" stroke-linecap="butt"/><path d="M305.60608,224.70631c0,0 -8.53947,-2.91132 -11.39828,-7.20168c-3.619,-5.43114 -7.5144,-17.79755 -7.5144,-17.79755" fill="none" stroke="#000000" stroke-width="1" stroke-linecap="round"/><path d="M313.46135,188.82022c0,0 5.23362,4.87229 7.58947,8.46697c2.37839,3.62897 4.49494,13.09855 4.49494,13.09855" fill="none" stroke="#000000" stroke-width="1" stroke-linecap="round"/><path d="M302.86928,235.33016c0,0 -8.81029,-2.85747 -11.69522,-7.64559c-4.42681,-7.34722 -8.37209,-18.25275 -8.37209,-18.25275" fill="none" stroke="#000000" stroke-width="1" stroke-linecap="round"/><path d="M288.10134,231.39243c0,0 -2.046,-17.18399 10.8768,-28.86924c14.15528,-12.79973 28.80344,-3.6936 28.80344,-3.6936" fill="none" stroke="#000000" stroke-width="1" stroke-linecap="round"/><path d="M295.56013,237.31451c0,0 0.83182,-17.78119 12.21296,-28.11701c9.34497,-8.48665 22.40096,-1.97052 22.40096,-1.97052" fill="none" stroke="#000000" stroke-width="1" stroke-linecap="round"/><path d="M299.44015,193.77179c-1.06529,0.5589 -2.2875,0.32828 -2.72994,-0.51504c-0.4425,-0.84331 0.25155,-1.23353 1.31684,-1.79242c1.06529,-0.5589 2.09837,-1.07477 2.54081,-0.23145c0.4425,0.84331 -0.06244,1.98005 -1.12772,2.5389z" fill="#8fbbbe" stroke="none" stroke-width="0" stroke-linecap="butt"/><path d="M306.2783,191.30221c-0.30784,0.51674 -1.18571,0.56135 -1.96084,0.09963c-0.77513,-0.46174 -1.02785,-0.75726 -0.72005,-1.27401c0.30784,-0.51674 1.27861,-0.7173 2.05371,-0.25555c0.77513,0.46174 0.93496,0.91323 0.62712,1.42996z" fill="#8fbbbe" stroke="none" stroke-width="0" stroke-linecap="butt"/><path d="M293.34393,197.04289c-0.54172,0.72153 -1.37072,1.01366 -1.85174,0.65255c-0.481,-0.36106 0.03601,-0.96009 0.57769,-1.68161c0.54172,-0.72153 0.90289,-1.29236 1.38391,-0.93125c0.481,0.36106 0.43182,1.2388 -0.10987,1.9603z" fill="#8fbbbe" stroke="none" stroke-width="0" stroke-linecap="butt"/><path d="M283.57869,218.76821c0,0 2.09986,-10.0135 6.28664,-16.32941c2.37371,-3.58079 5.70193,-5.91731 8.24507,-7.66047c2.24899,-1.54158 8.69478,-2.83685 13.73162,-3.31484c3.70835,-0.35193 6.63931,-0.0755 6.63931,-0.0755" fill="none" stroke="#000000" stroke-width="0.5" stroke-linecap="round"/><path d="M299.01545,188.24343c0,0 8.86833,5.75595 12.0125,10.1527c2.64906,3.70434 5.80857,14.19633 5.80857,14.19633" fill="none" stroke="#000000" stroke-width="1" stroke-linecap="round"/><path d="M312.55334,216.59059c0,0 -8.04856,-5.35248 -11.06169,-8.72469c-5.29048,-5.92096 -8.03675,-15.96261 -8.03675,-15.96261" fill="none" stroke="#000000" stroke-width="1" stroke-linecap="round"/></g><g stroke="#000000" stroke-linecap="butt"><path d="M298.86648,241.57164c24.93953,-22.12099 34.37453,-20.11199 39.7437,-14.0587c5.36918,6.05329 -10.49574,28.89306 -35.43529,51.01405c-24.93955,22.12099 -25.17532,-50.09698 -30.54449,-56.15027c-1.03147,-7.01886 5.36983,-5.74561 10.837,-0.10061c6.7423,6.96161 13.26735,21.18635 15.39908,19.29553z" fill="#0d69be" stroke-width="2"/><path d="M309.5817,215.9097c10.70469,-9.49489 27.27775,-8.29083 37.017,2.68934c9.73925,10.98017 8.95661,27.57849 -1.74807,37.07338c-10.70469,9.49489 -27.27776,8.29083 -37.017,-2.68934c-9.73925,-10.98016 -8.95659,-27.57848 1.7481,-37.07338z" fill="#faddbf" stroke-width="2"/><path d="M327.21977,253.38165c10.70469,-9.49489 8.73606,-45.48934 18.47532,-34.50917c9.73925,10.98017 8.9566,27.57849 -1.7481,37.07338c-10.70469,9.49489 -27.43192,6.93069 -16.72723,-2.5642z" fill="#ef8b89" stroke-width="0"/></g></g><path d="M262.33391,169.39515c0.04551,-0.25605 0.28274,-1.16162 1.35261,-1.06023c1.24442,0.11793 1.1265,1.36235 1.1265,1.36235l-0.07537,0.39975c-0.79846,2.25859 -1.84093,4.40473 -2.71657,6.6308c-0.99979,1.72636 -2.09482,3.97656 -3.83527,5.08702c-3.52443,2.24869 -7.94403,-0.97337 -9.09836,-4.39815c-1.47734,-4.38311 -0.35061,-9.91653 1.28073,-14.14189c0,0 0.45526,-1.16414 1.61941,-0.70888c1.16414,0.45526 0.70888,1.61941 0.70888,1.61941c-1.1778,2.96636 -2.33781,7.51098 -1.7305,10.71974c0.39405,2.08204 2.22098,5.76161 5.03025,5.2328c1.77199,-0.33355 2.98478,-3.14855 3.77356,-4.49709c0.81637,-2.10078 1.80381,-4.12121 2.56413,-6.24562z" fill="#000000" stroke="none" stroke-width="0.5" stroke-linecap="butt"/></g></g></svg>