<svg version="1.1" xmlns="http://www.w3.org/2000/svg" xmlns:xlink="http://www.w3.org/1999/xlink" width="324.66811" height="250.62857" viewBox="0,0,324.66811,250.62857"><g transform="translate(-174.73912,-79.94956)"><g data-paper-data="{&quot;isPaintingLayer&quot;:true}" fill-rule="nonzero" stroke-linejoin="miter" stroke-miterlimit="10" stroke-dasharray="" stroke-dashoffset="0" style="mix-blend-mode: normal"><g data-paper-data="{&quot;index&quot;:null}" stroke="#000000" stroke-linecap="butt"><path d="M295.71864,329.18544v-79.77126h69.35288v79.77126z" fill="#273750" stroke-width="2"/><path d="M296.61117,328.51687v-79.77126l20.88906,43.57953l48.4638,36.19174z" fill="#1f1e2e" stroke-width="0"/></g><g data-paper-data="{&quot;index&quot;:null}" stroke="#000000" stroke-linecap="butt"><path d="M236.08421,329.57812v-79.77126h69.35288v79.77126z" fill="#273750" stroke-width="2"/><path d="M236.97679,328.90952v-79.77126l20.88906,43.57953l48.4638,36.19174z" fill="#1f1e2e" stroke-width="0"/></g><g data-paper-data="{&quot;index&quot;:null}" stroke="#000000" stroke-linecap="butt"><path d="M486.47851,274.20758l-53.35814,-8.58019l11.67944,-44.13643l53.35814,8.58019z" fill="#ffcaa0" stroke-width="2"/><g><path d="M433.28226,265.80418l-73.57502,-11.83115l11.83167,-44.71169l73.57502,11.83115z" fill="#ff0008" stroke-width="2"/><path d="M433.68846,265.19857l-38.53642,-6.1968c0,0 19.54663,-10.8005 21.51084,-18.22321c1.86237,-7.03785 -10.01484,-25.21997 -10.01484,-25.21997l38.53643,6.1968c0,0 -3.78116,14.2889 -5.68684,21.49051c-1.92609,7.27863 -5.80916,21.95268 -5.80916,21.95268z" fill="#8d005e" stroke-width="0"/></g><path d="M486.05527,273.4261l-53.35814,-8.58019l39.16125,-5.50748l25.87633,-30.04874z" fill="#ff6e5b" stroke-width="0"/></g><g data-paper-data="{&quot;index&quot;:null}" stroke="#000000" stroke-linecap="butt"><path d="M454.3068,165.5686c-8.35564,27.70393 -28.2435,47.75885 -44.42077,44.79392c-16.17727,-2.96494 -22.51794,-27.82697 -14.16231,-55.5309c8.35564,-27.70393 28.2435,-47.75885 44.42077,-44.79392c16.17727,2.96494 22.51794,27.82697 14.16231,55.5309z" fill="#01930e" stroke-width="2"/><path d="M408.4612,148.0443c-8.35564,27.70393 18.15818,64.99093 1.98092,62.026c-16.17725,-2.96494 -22.51794,-27.82697 -14.16231,-55.5309c8.35564,-27.70393 20.53704,-34.19903 12.18139,-6.4951z" fill="#31525b" stroke-width="0"/></g><path d="M235.15784,277.18109l29.52574,-97.89542l125.5818,23.01636l-29.52574,97.89542z" data-paper-data="{&quot;index&quot;:null}" fill="#ff0008" stroke="#000000" stroke-width="2" stroke-linecap="butt"/><g data-paper-data="{&quot;index&quot;:null}" stroke="#000000" stroke-linecap="butt"><path d="M176.01947,284.86683l12.46926,-41.34299l56.2765,10.31423l-12.46926,41.34299z" fill="#ffcaa0" stroke-width="2"/><g><path d="M188.25758,243.64514l17.19373,-57.00746l57.01,10.44866l-17.19373,57.00746z" fill="#ff0008" stroke-width="2"/><path d="M189.02299,243.9783l9.00558,-29.85882c0,0 13.31256,15.52839 22.77694,17.263c8.97366,1.64468 32.61563,-7.11079 32.61563,-7.11079l-9.00558,29.85883c0,0 -18.21918,-3.33917 -27.40166,-5.02212c-9.28069,-1.70094 -27.99092,-5.13011 -27.99092,-5.13011z" fill="#8d005e" stroke-width="0"/></g><path d="M177.03323,284.5585l12.46926,-41.34299l5.98603,30.66742l37.82121,20.98981z" fill="#ff6e5b" stroke-width="0"/></g><g data-paper-data="{&quot;index&quot;:null}" fill="#000000" stroke="#000000" stroke-linecap="butt"><path d="M264.95654,282.21658l28.9762,-96.07332l67.51203,12.37346l-28.9762,96.07332z" stroke-width="2"/><path d="M266.06827,281.57062l28.9762,-96.07332l4.50473,56.21232l34.03109,52.23445z" stroke-width="0"/></g><g data-paper-data="{&quot;index&quot;:null}" stroke="#000000" stroke-linecap="butt"><path d="M258.91888,128.33379c0.35713,-1.18407 8.08253,-23.37377 8.54692,-24.51905c11.73462,-28.94019 49.76542,-24.2267 96.60353,-15.64233c43.99702,8.06367 80.82435,18.93656 79.32955,47.06765c-0.15949,3.00169 -7.24733,22.41178 -8.15182,25.41076c-3.23303,10.71943 -7.03997,34.88439 -17.75026,41.92243c-20.36779,13.38424 -55.4889,4.08756 -87.40017,-1.76106c-33.74042,-6.18388 -65.45897,-11.10641 -74.91584,-31.60753c-4.1906,-9.0846 0.85749,-31.31989 3.73811,-40.87087z" fill="#ffcaa0" stroke-width="2"/><path d="M256.89309,127.97175c0.35713,-1.18407 8.08253,-23.37377 8.54692,-24.51905c6.66705,-16.44243 -8.13729,53.48045 38.90774,82.00582c36.8677,22.35443 116.17784,13.96146 111.87178,16.79111c-20.36779,13.38424 -56.23741,4.04913 -88.14869,-1.79949c-33.74042,-6.18388 -65.45897,-11.10641 -74.91584,-31.60753c-4.1906,-9.0846 0.85749,-31.31989 3.73811,-40.87087z" fill="#ff6e5b" stroke-width="0"/></g><g data-paper-data="{&quot;index&quot;:null}" stroke="#000000" stroke-linecap="butt"><path d="M309.0969,137.07218c-8.35564,27.70393 -28.2435,47.75885 -44.42077,44.79392c-16.17727,-2.96494 -22.51794,-27.82697 -14.16231,-55.5309c8.35564,-27.70393 28.2435,-47.75885 44.42077,-44.79392c16.17727,2.96494 22.51794,27.82697 14.16231,55.5309z" fill="#01930e" stroke-width="2"/><path d="M263.25131,119.5479c-8.35564,27.70393 18.15818,64.99093 1.98092,62.026c-16.17725,-2.96494 -22.51794,-27.82697 -14.16231,-55.5309c8.35564,-27.70393 20.53704,-34.19903 12.18139,-6.4951z" fill="#31525b" stroke-width="0"/></g><g data-paper-data="{&quot;index&quot;:null}" stroke-linecap="butt"><path d="M463.02274,131.89052c-4.58212,15.19249 -53.93847,19.14329 -110.24049,8.82438c-56.30201,-10.31891 -98.22925,-30.99998 -93.6471,-46.19244c4.58212,-15.19249 53.93846,-19.14328 110.24048,-8.82438c56.30201,10.31891 98.22926,30.99998 93.64712,46.19245z" fill="#000000" stroke="none" stroke-width="NaN"/><path d="M462.12772,132.03903c-4.58212,15.19249 -53.93847,19.14329 -110.24049,8.82438c-56.30201,-10.31891 -98.22925,-30.99998 -93.6471,-46.19244c4.58212,-15.19249 44.92673,16.26703 101.22875,26.58594c56.30201,10.31891 107.24098,-4.41034 102.65885,10.78213z" fill="#ff0000" stroke="#000000" stroke-width="2"/><path d="M453.79825,138.86123c-1.26096,4.18085 -46.20171,12.85009 -102.13205,1.29887c-19.57224,-4.04222 -37.73485,-8.85243 -52.12284,-14.17087c-26.71144,-9.87374 -41.7565,-20.42224 -38.1269,-23.4696c3.74872,-3.14737 37.17992,22.13601 93.48194,32.45493c56.30201,10.31891 100.16082,-0.29418 98.89986,3.88667z" fill="#900056" stroke="#000000" stroke-width="0"/></g><path d="M374.41635,172.39651c-4.07791,13.52069 -10.58949,23.89382 -14.54405,23.16902c-3.95456,-0.72479 -3.85456,-12.27302 0.22334,-25.79368c4.07791,-13.52069 10.58951,-23.8938 14.54405,-23.16901c3.95456,0.72479 3.85456,12.27302 -0.22334,25.79369z" data-paper-data="{&quot;index&quot;:null}" fill="#000000" stroke="none" stroke-width="0" stroke-linecap="butt"/><path d="M408.31274,173.54691c-4.0616,13.46659 -10.39125,23.8268 -14.13766,23.14017c-3.74643,-0.68663 -3.49092,-12.16009 0.57068,-25.62669c4.0616,-13.46659 10.39125,-23.8268 14.13766,-23.14017c3.74643,0.68663 3.49092,12.16009 -0.57068,25.62669z" data-paper-data="{&quot;index&quot;:null}" fill="#000000" stroke="none" stroke-width="0" stroke-linecap="butt"/><path d="M346.48085,142.60036l33.10549,6.0675" fill="none" stroke="#000000" stroke-width="5" stroke-linecap="round"/><path d="M419.78847,150.43191l-26.92241,-0.82764" fill="none" stroke="#000000" stroke-width="5" stroke-linecap="round"/><path d="M343.28482,184.31275c0,6.28828 -4.00169,11.38595 -8.93805,11.38595c-4.93635,0 -8.93805,-5.09766 -8.93805,-11.38595c0,-6.28828 4.00169,-11.38595 8.93805,-11.38595c4.93635,0 8.93805,5.09766 8.93805,11.38595z" fill="#000000" stroke="none" stroke-width="0" stroke-linecap="butt"/></g></g></svg>