<svg version="1.1" xmlns="http://www.w3.org/2000/svg" xmlns:xlink="http://www.w3.org/1999/xlink" width="238.2012" height="327.4534" viewBox="0,0,238.2012,327.4534"><g transform="translate(-215.4264,-33.36247)"><g data-paper-data="{&quot;isPaintingLayer&quot;:true}" fill-rule="nonzero" stroke-linejoin="miter" stroke-miterlimit="10" stroke-dasharray="" stroke-dashoffset="0" style="mix-blend-mode: normal"><g stroke="#000000" stroke-linecap="butt"><path d="M363.04877,204.02311c30.79062,12.77718 53.2373,29.19357 50.13604,36.66703c-3.10126,7.47346 -30.57607,3.17393 -61.36669,-9.60326c-30.79062,-12.77718 -53.2373,-29.19357 -50.13604,-36.66703c3.10126,-7.47346 30.57607,-3.17393 61.3667,9.60327z" fill="#0d69be" stroke-width="2"/><path d="M410.94809,209.50866c13.21611,5.48429 19.36958,20.91969 13.74415,34.47593c-5.62543,13.55623 -20.89952,20.09985 -34.11564,14.61556c-13.21612,-5.4843 -19.36958,-20.91969 -13.74415,-34.47593c5.62543,-13.55624 20.89953,-20.09984 34.11564,-14.61555z" fill="#faddbf" stroke-width="2"/><path d="M384.93889,241.7386c13.21612,5.4843 44.73822,-12.00379 39.11279,1.55245c-5.62543,13.55623 -20.89952,20.09983 -34.11564,14.61555c-13.21612,-5.4843 -18.21327,-21.65228 -4.99715,-16.16798z" fill="#ef8b89" stroke-width="0"/></g><g stroke="#000000" stroke-linecap="butt"><path d="M347.17244,354.06232l-57.93711,-75.65985l23.4153,-17.93045l57.93712,75.65985z" fill="#73fffc" stroke-width="2"/><path d="M346.53812,353.76975l-55.96657,-75.26795c0,0 45.54153,50.91482 52.20084,57.67522c1.47217,1.49451 3.69876,0.68154 3.69876,0.68154l22.76097,-0.88063z" fill="#59a9e6" stroke-width="0"/></g><g stroke="#000000" stroke-linecap="butt"><path d="M251.67518,326.58483l36.09093,-88.19618l27.29506,11.16947l-36.09093,88.19619z" fill="#73fffc" stroke-width="2"/><path d="M251.60773,325.88955l36.74682,-86.29712c0,0 -20.98077,65.00891 -23.4576,74.1694c-0.54755,2.0251 1.27778,3.53731 1.27778,3.53731l12.24444,19.20705z" fill="#59a9e6" stroke-width="0"/></g><g stroke="#000000" stroke-linecap="butt"><path d="M343.6353,228.37785c-3.43036,13.36964 0.60029,38.0881 -6.75187,46.23229c-8.99119,9.9598 -29.97525,1.69941 -39.97851,-0.86721c-13.23419,-3.39561 -32.94685,-4.1482 -33.45498,-23.89643c-0.19001,-7.38468 12.26346,-30.2747 14.33886,-38.36345c7.62547,-29.71982 28.54737,-50.03045 46.73038,-45.36508c18.18301,4.66537 26.74159,32.54007 19.11612,62.25989z" fill="#0d69be" stroke-width="2"/><path d="M290.10886,230.72527c-3.43036,13.36964 54.98841,35.32332 47.63625,43.46751c-8.99119,9.95979 -29.97525,1.69941 -39.97851,-0.86721c-13.23419,-3.39561 -32.94684,-4.14819 -33.45497,-23.89642c-0.19002,-7.38468 12.26347,-30.27471 14.33886,-38.36345c2.3492,-9.15587 10.3509,-26.86853 12.79428,-27.65611c9.92378,-14.76094 3.88896,26.9521 -1.3359,47.31569z" fill="#10157d" stroke-width="0"/></g><g stroke-linecap="butt"><g stroke="#000000"><g><path d="M283.72947,100.60042c11.68454,-45.30838 57.88643,-72.5659 103.19481,-60.88136c45.30838,11.68454 72.5659,57.88643 60.88136,103.19481c-11.68454,45.30838 -57.88643,72.5659 -103.19481,60.88136c-45.30838,-11.68454 -72.5659,-57.88643 -60.88136,-103.19481z" fill="#faddbf" stroke-width="2"/><path d="M284.17006,99.81608c3.75934,-14.57734 18.62426,-37.54999 23.79309,-39.53633c0.59029,-0.22685 7.82816,-7.18302 16.78766,-11.80875c11.13603,-5.74946 24.42428,-9.35355 24.9665,-9.01021c7.07423,4.4795 -33.16676,58.42351 -38.28247,83.2216c-0.01221,0.05914 -0.65204,20.17802 0.80556,21.0072c1.6098,5.31279 4.03932,20.82172 12.79286,30.45292c16.31326,17.94886 42.4768,31.27833 40.91422,31.39764c-2.49958,0.19084 -15.02522,-1.01521 -20.89604,-2.52924c-45.30838,-11.68454 -72.5659,-57.88643 -60.88136,-103.19481z" fill="#ef8b89" stroke-width="0"/><path d="M447.41321,142.33947c-2.90282,11.25606 -5.43366,14.75116 -5.50581,12.82025c-0.07361,-1.96989 2.26988,-9.54933 -5.09791,-16.44324c-1.78536,-1.67053 -11.45013,3.52853 -13.78464,1.65816c-1.46633,-1.17481 -5.83702,-12.01376 -7.52125,-13.14626c-1.17758,-0.79182 -14.1477,5.00313 -15.39037,4.21727c-3.09927,-1.95998 -8.76851,-14.00697 -12.23656,-15.58089c-1.90975,-0.86671 -11.94782,9.15626 -13.92663,8.38379c-2.55193,-0.9962 -6.73592,-14.2004 -9.38658,-14.88398c-7.04921,-1.81792 -8.99354,4.92083 -15.56528,9.42878c-4.27048,2.92938 -10.28595,-16.13154 -14.41834,-12.61693c-5.13195,4.36473 -10.17673,8.54718 -15.18229,10.9737c-3.92705,1.9037 -10.41938,-13.11427 -13.85797,-11.29761c-16.60242,8.7713 -26.67458,14.44006 -22.13673,-3.15605c9.12476,-35.3825 43.96728,2.85646 89.80068,-7.5495c43.87127,-9.96047 83.33443,11.81002 74.20967,47.19252z" fill="#ef8b89" stroke-width="0"/></g><path d="M450.97387,134.67492c-5.86423,22.73935 4.14839,10.07028 -10.88868,-3.69648c-1.8401,-1.68465 -11.71046,3.46139 -14.11454,1.57308c-1.51003,-1.18608 -6.05769,-12.07068 -7.79074,-13.21576c-1.21172,-0.80062 -14.46527,4.92124 -15.74362,4.12617c-3.18829,-1.98294 -9.07428,-14.08583 -12.63801,-15.68441c-1.96244,-0.8803 -12.18458,9.0952 -14.21719,8.30885c-2.6213,-1.01408 -6.99274,-14.26663 -9.71322,-14.96821c-7.2349,-1.8658 -9.18431,4.87163 -15.88965,9.34513c-4.3573,2.90699 -10.64273,-16.22356 -14.85481,-12.72949c-5.2309,4.33921 -10.37364,8.4964 -15.48736,10.89503c-4.01191,1.88182 -10.76026,-13.20217 -14.27219,-11.40443c-16.9566,8.67996 -27.24142,14.29388 -22.70357,-3.30223c9.12476,-35.3825 58.89111,-68.72817 103.36292,-57.25938c44.4718,11.46879 74.07544,62.62966 64.95069,98.01217z" fill="#873412" stroke-width="2"/><path d="M451.02436,133.48711c-5.86423,22.73935 4.14839,10.07028 -10.88868,-3.69648c-1.8401,-1.68465 -11.71046,3.46139 -14.11454,1.57308c-1.51003,-1.18608 -6.05769,-12.07067 -7.79075,-13.21576c-1.21172,-0.80062 -14.46526,4.92124 -15.74362,4.12617c-3.18829,-1.98294 -9.07428,-14.08583 -12.63801,-15.68441c-1.96244,-0.8803 -12.18458,9.0952 -14.21719,8.30885c-2.6213,-1.01408 -6.99273,-14.26663 -9.71321,-14.96821c-7.2349,-1.8658 -9.18431,4.87163 -15.88965,9.34513c-4.3573,2.90699 -10.64273,-16.22356 -14.85481,-12.72949c-5.2309,4.33921 -10.37364,8.4964 -15.48737,10.89503c-4.01191,1.88182 -10.76025,-13.20217 -14.27218,-11.40443c-16.9566,8.67996 -27.24142,14.29388 -22.70358,-3.30224c9.12476,-35.3825 45.07138,3.14119 91.9705,-6.98992c44.89136,-9.6974 85.46786,12.36021 76.3431,47.74271z" fill="#741d23" stroke-width="0"/></g><path d="M385.73282,47.30815c0.0341,0.12821 0.05275,0.27084 0.05879,0.42405c0.0265,0.27447 0.00768,0.55789 -0.06227,0.84042c-0.17848,1.12747 -0.67113,2.42251 -0.75041,2.91026c-0.10415,0.64081 1.33922,-0.4264 1.93943,-0.17896c0.36767,0.15157 0.57534,0.93492 0.92758,0.75031c2.13763,-1.12034 4.40432,-3.48951 6.66625,-1.22984c0.74911,0.74836 0.18272,1.99965 0.5585,2.8037c0.03159,0.06759 2.56066,0.5193 3.00432,1.18408c0.76447,1.14548 -0.25324,2.26025 0.00537,3.35207c0.08275,0.34937 0.66673,-0.28478 1.02099,-0.34311c1.57665,-0.25958 4.37167,-0.94481 5.81901,0.46294c0.76263,0.74177 0.18526,2.25733 0.56576,2.81181c0.66708,0.97208 2.21318,-0.839 3.36588,-1.08641c1.59426,-0.34219 2.12354,0.51807 3.10718,1.68686c0.16965,0.20159 -0.57393,4.11922 0.20424,5.51551c0.43742,0.78485 1.81366,-0.41905 2.6874,-0.20947c0.87177,0.20911 2.80935,-0.03716 3.19198,0.16852c0.76752,0.41257 1.11208,1.98133 1.94975,1.74134c4.2769,-1.22529 8.67042,1.40391 5.84871,5.79862c-0.35709,0.55617 1.42335,-0.22563 1.97831,0.13333c0.21515,0.13915 1.27612,1.44629 1.51759,1.41975c1.57945,-0.17361 2.668,-0.63344 4.20971,-0.23984c1.28037,0.32688 2.32296,1.36397 2.27527,2.7773c-0.02506,0.74278 -1.49597,1.8068 -0.80455,2.07936c1.62976,0.64246 4.08806,2.02552 2.70659,4.28977c-1.49961,2.45788 -4.32461,4.19664 -6.29373,1.52944c-0.68319,-0.92538 -2.54158,0.62785 -3.44989,-0.07788c-1.16362,-0.90409 -1.23901,-3.28688 -0.87597,-4.40835c0.16783,-0.51843 -1.13267,0.09412 -1.62963,-0.12943c-0.66909,-0.30098 -0.72849,-1.44302 -1.42318,-1.67897c-1.55388,-0.52776 -2.13138,2.82336 -5.69837,1.09118c-1.05284,-0.51127 -1.89165,-2.74019 -1.98498,-3.89812c-0.05418,-0.67216 2.06253,-2.20436 1.93585,-2.34606c-0.3076,-0.34408 -2.59021,2.25195 -3.03863,2.28311c-1.07881,0.07495 -1.9851,-0.90409 -2.84359,-1.56168c-0.75848,-0.58098 -1.58873,1.54205 -2.5257,1.35515c-0.82777,-0.16512 -8.9366,-2.80294 -9.13569,-3.37373c-0.24274,-0.69588 -0.36485,-1.8714 -0.03492,-2.51921c0.11858,-0.23282 1.40472,-1.53921 1.22387,-1.56504c-0.64183,-0.09169 -4.91442,2.28487 -6.20248,-1.40787c-0.70044,-2.00808 1.84006,-3.24168 2.24877,-4.81356c0.2524,-0.97071 -1.49215,1.34544 -2.16821,2.08634c-0.51926,0.56908 -1.71548,0.9056 -2.47167,0.73639c-2.61447,-0.58504 -1.25853,-2.88032 -1.42462,-4.48709c-0.07665,-0.74151 -1.67642,0.18231 -2.21081,-0.33745c-1.30656,-1.27083 -0.78765,-2.33961 -0.53838,-3.85763c0.11413,-0.69507 -1.20934,2.49212 -2.84344,2.2427c-0.6627,-0.10116 -1.43233,-1.34773 -1.83878,-0.81461c-1.97885,2.59551 -1.59874,3.94529 -5.15439,2.53151c-0.34311,-0.13642 -1.14543,0.5263 -1.46987,0.21073c-3.59076,-3.49257 1.14755,-7.89498 2.26661,-11.74562c0.39475,-1.35829 0.02622,-3.63625 1.39067,-4.00911c0.60511,-0.60491 1.50524,-0.88325 2.39373,-0.65412c0.78779,0.20316 1.39066,0.75998 1.68246,1.45665c0.05293,0.09314 0.09502,0.19261 0.12358,0.30001z" fill="#ba587e" stroke="none" stroke-width="0.5"/></g><g stroke="#000000" stroke-linecap="butt"><path d="M370.49986,150.09744c-7.1317,27.65415 -23.5613,38.62962 -39.60492,34.49215c-16.04362,-4.13748 -25.62588,-21.82113 -18.49418,-49.47527c7.1317,-27.65415 25.91901,-46.71817 41.96264,-42.5807c16.04362,4.13748 23.26816,29.90967 16.13646,57.56382z" fill="#f0f0f0" stroke-width="2"/><path d="M330.11551,119.45967c-11.21658,26.26407 17.64625,68.62226 1.60263,64.48479c-16.04362,-4.13748 -25.62588,-21.82113 -18.49418,-49.47527c7.1317,-27.65415 33.10742,-52.9796 16.89156,-15.00952z" fill="#9a99ff" stroke-width="0"/></g><path d="M365.05743,158.6358c-3.9511,15.32094 -11.69447,26.5701 -17.29528,25.12572c-5.60081,-1.44439 -6.93816,-15.03538 -2.98706,-30.35631c3.9511,-15.32094 11.69446,-26.5701 17.29527,-25.12572c5.60081,1.44439 6.93817,15.03538 2.98707,30.35631z" fill="#000000" stroke="none" stroke-width="0" stroke-linecap="butt"/><g stroke="#000000" stroke-linecap="butt"><path d="M373.03598,120.20353c1.7636,11.01932 -2.18535,52.41026 -17.39788,48.48711c-15.21253,-3.92315 -36.08512,-52.48954 -29.2832,-60.66521c6.47193,-7.77902 11.92334,-19.04481 27.13587,-15.12167c15.21253,3.92315 17.86448,16.7982 19.54521,27.29975z" fill="#a100fe" stroke-width="2"/><path d="M372.22945,119.6297c1.61636,10.98135 -1.6414,51.65252 -16.33522,47.86314c-14.69382,-3.78938 -35.40487,-51.41609 -28.75301,-59.63046c6.32915,-7.81584 6.11022,2.56926 20.80405,6.35864c14.69382,3.78938 22.74376,-5.0567 24.28417,5.40867z" fill="#99008e" stroke-width="0"/></g><g data-paper-data="{&quot;index&quot;:null}" stroke="#000000" stroke-linecap="butt"><path d="M415.09545,110.41042c16.04362,4.13748 23.26816,29.90967 16.13646,57.56382c-7.1317,27.65414 -24.07094,38.49819 -40.11457,34.36072c-16.04362,-4.13748 -25.11624,-21.68969 -17.98454,-49.34384c7.1317,-27.65415 25.91901,-46.71817 41.96264,-42.5807z" fill="#f0f0f0" stroke-width="2"/><path d="M430.82338,167.01145c-7.1317,27.65414 -24.07094,38.49819 -40.11457,34.36072c-16.04362,-4.13748 29.7045,-27.25432 32.58852,-55.66726c4.16945,-41.07672 14.65774,-6.3476 7.52604,21.30655z" fill="#9a99ff" stroke-width="0"/></g><path d="M415.8999,143.9555c5.73554,0.74758 8.72733,14.07246 6.68235,29.76196c-2.04498,15.6895 -8.35235,27.80233 -14.08789,27.05475c-5.73554,-0.74758 -8.72734,-14.07246 -6.68236,-29.76196c2.04498,-15.6895 8.35236,-27.80232 14.0879,-27.05475z" data-paper-data="{&quot;index&quot;:null}" fill="#000000" stroke="none" stroke-width="0" stroke-linecap="butt"/><g data-paper-data="{&quot;index&quot;:null}" stroke="#000000" stroke-linecap="butt"><path d="M385.48365,125.15887c6.54982,-8.37899 15.09757,-18.36576 30.3101,-14.44261c15.21253,3.92315 14.53575,16.42026 16.43846,26.35901c1.99972,10.44552 -39.60689,43.94009 -54.81943,40.01694c-15.21253,-3.92315 1.19811,-43.14122 8.07085,-51.93333z" fill="#a100fe" stroke-width="2"/><path d="M386.4671,125.04666c6.4095,-8.41517 9.17737,3.2207 23.87119,7.01007c14.69382,3.78938 19.52459,-5.40639 21.28452,4.49554c1.84966,10.40682 -39.52034,43.33652 -54.21417,39.54714c-14.69382,-3.78938 2.33294,-42.22268 9.05845,-51.05275z" fill="#99008e" stroke-width="0"/></g><path d="M216.4264,334.22647c1.51965,-11.56337 14.88253,-8.00599 32.64094,-5.67219c14.20846,1.86726 28.82161,-7.08287 32.55995,-1.02767c0.93402,1.51288 -0.58823,12.83977 -0.89202,15.15131c-1.51965,11.56337 -17.1476,19.04542 -34.90601,16.71162c-17.75841,-2.3338 -30.92252,-13.59968 -29.40287,-25.16305z" data-paper-data="{&quot;index&quot;:null}" fill="#000082" stroke="#000000" stroke-width="2" stroke-linecap="butt"/><path d="M250.2394,329.2831c14.20846,1.86726 26.31227,-5.37381 30.38061,-1.82963c1.01647,0.88551 -0.48444,12.05007 -0.64875,13.30039c-0.82198,6.25463 -13.35742,7.59014 -31.11583,5.25634c-17.75841,-2.3338 -31.02479,-7.99232 -30.20281,-14.24696c0.82198,-6.25463 13.82838,-4.81394 31.58678,-2.48014z" data-paper-data="{&quot;index&quot;:null}" fill="#2e0048" stroke="#000000" stroke-width="0" stroke-linecap="butt"/><g><g><path d="M325.37673,232.96975c-13.72356,6.26793 -24.89087,3.02738 -31.72293,-10.25539c-5.34345,-10.38859 0.7044,-27.46041 14.42797,-33.72836c13.72361,-6.26799 27.74319,-1.95343 33.94871,11.63335c0.97044,2.12471 1.23542,4.3736 1.49667,6.42533c1.40913,11.0682 -6.57293,20.6373 -18.15039,25.92507z" fill="#0000c4" stroke="#000000" stroke-width="2" stroke-linecap="butt"/><path d="M298.55316,198.92535c0,0 1.9829,5.40362 3.9406,5.8288c18.77869,4.0786 31.94968,-0.7941 36.18292,-2.73816c0.9618,-0.44168 1.08521,-1.55775 1.08521,-1.55775c0,0 1.07524,1.81988 1.64733,4.50068c0.60876,2.85261 0.69144,6.66011 -0.19741,9.60206c-1.01536,3.36053 -5.40143,10.45071 -5.40143,10.45071l-17.46497,11.56865c0,0 -12.9625,-3.59562 -14.72315,-4.85937c-1.72486,-1.23802 -3.4108,-3.19771 -5.28722,-5.20917c-2.91339,-3.1231 -4.66424,-7.31134 -4.98287,-10.17373c-0.4066,-3.65306 0.59764,-8.20755 2.05139,-11.73587c1.35298,-3.28376 3.14964,-5.67674 3.14964,-5.67674z" fill="#2e006f" stroke="none" stroke-width="0" stroke-linecap="butt"/><path d="M310.80442,220.06946c0,0 -5.36706,-7.2521 -5.27765,-12.40691c0.11313,-6.52545 3.94413,-18.91198 3.94413,-18.91198" fill="none" stroke="#000000" stroke-width="1" stroke-linecap="round"/><path d="M337.6789,195.02394c0,0 1.53269,6.98431 1.42536,11.28086c-0.10829,4.33756 -3.7544,13.32971 -3.7544,13.32971" fill="none" stroke="#000000" stroke-width="1" stroke-linecap="round"/><path d="M302.51014,227.25008c0,0 -5.6204,-7.36189 -5.26934,-12.94092c0.53873,-8.56084 3.49767,-19.77424 3.49767,-19.77424" fill="none" stroke="#000000" stroke-width="1" stroke-linecap="round"/><path d="M292.60442,215.6107c0,0 8.09251,-15.29661 25.36793,-17.5558c18.92302,-2.47466 25.79014,13.34727 25.79014,13.34727" fill="none" stroke="#000000" stroke-width="1" stroke-linecap="round"/><path d="M295.37001,224.72424c0,0 10.79904,-14.15072 26.03892,-16.17706c12.51332,-1.66379 19.54432,11.1223 19.54432,11.1223" fill="none" stroke="#000000" stroke-width="1" stroke-linecap="round"/><path d="M323.33064,191.12026c-1.19406,-0.14634 -2.06807,-1.03128 -1.95221,-1.97653c0.1158,-0.94529 0.9086,-0.8714 2.10265,-0.72506c1.19406,0.14634 2.33716,0.30973 2.22132,1.255c-0.1158,0.94529 -1.17773,1.59296 -2.37174,1.44658z" fill="#8fbbbe" stroke="none" stroke-width="0" stroke-linecap="butt"/><path d="M330.35942,192.97911c-0.54713,0.24987 -1.2945,-0.21283 -1.66933,-1.0335c-0.37483,-0.82068 -0.41456,-1.2075 0.13254,-1.4574c0.54713,-0.24987 1.45962,0.1374 1.83442,0.95809c0.37483,0.82068 0.24944,1.28293 -0.29767,1.5328z" fill="#8fbbbe" stroke="none" stroke-width="0" stroke-linecap="butt"/><path d="M316.4561,190.34265c-0.85599,0.28524 -1.70397,0.05393 -1.89414,-0.51669c-0.1902,-0.57057 0.57577,-0.76913 1.43171,-1.0544c0.85599,-0.28524 1.47773,-0.54926 1.66792,0.02136c0.1902,0.57057 -0.34955,1.26448 -1.2055,1.54971z" fill="#8fbbbe" stroke="none" stroke-width="0" stroke-linecap="butt"/><path d="M296.0662,202.65534c0,0 7.42325,-7.04095 14.45946,-9.85371c3.98918,-1.59467 8.05558,-1.62303 11.13875,-1.60999c2.72661,0.01149 8.76467,2.61295 13.17906,5.08507c3.25008,1.82007 5.50336,3.71473 5.50336,3.71473" fill="none" stroke="#000000" stroke-width="0.5" stroke-linecap="round"/><path d="M326.12618,186.33195c0,0 4.01933,9.7787 4.1041,15.18333c0.07144,4.55352 -3.29848,14.97983 -3.29848,14.97983" fill="none" stroke="#000000" stroke-width="1" stroke-linecap="round"/><path d="M321.13479,217.34681c0,0 -3.57463,-8.98055 -4.13444,-13.46801c-0.98291,-7.87915 2.4707,-17.7 2.4707,-17.7" fill="none" stroke="#000000" stroke-width="1" stroke-linecap="round"/></g><g stroke="#000000" stroke-linecap="butt"><path d="M295.66758,230.10629c33.09486,-4.00611 39.71171,3.01333 40.68406,11.04606c0.97236,8.03274 -25.06809,17.79215 -58.16296,21.79825c-33.09486,4.00611 7.79286,-55.52275 6.8205,-63.55548c3.14441,-6.35932 7.68478,-1.67076 8.96999,6.08194c1.58496,9.56089 -1.14042,24.97165 1.6884,24.62923z" fill="#0d69be" stroke-width="2"/><path d="M319.07811,215.09638c14.20515,-1.71952 27.15053,8.69843 28.9143,23.26915c1.76378,14.57073 -8.32196,27.77658 -22.52711,29.49612c-14.20515,1.71952 -27.15053,-8.69844 -28.9143,-23.26917c-1.76378,-14.57073 8.32196,-27.77658 22.52711,-29.4961z" fill="#faddbf" stroke-width="2"/><path d="M312.26818,255.94822c14.20515,-1.71952 33.06176,-32.44255 34.82553,-17.87182c1.76378,14.57073 -8.32196,27.77658 -22.52711,29.49611c-14.20515,1.71952 -26.50358,-9.90477 -12.29842,-11.62428z" fill="#ef8b89" stroke-width="0"/></g></g><g stroke="#000000" stroke-linecap="butt"><path d="M402.49782,334.31892c1.35955,11.58329 -11.95915,22.666 -29.74814,24.75392c-17.78899,2.08792 -33.31195,-5.60959 -34.6715,-17.19288c-0.27178,-2.31552 -1.6372,-13.66238 -0.68234,-15.1622c3.82175,-6.0029 18.3097,3.14852 32.54263,1.47797c17.78899,-2.08792 31.1998,-5.46011 32.55935,6.12317z" fill="#000082" stroke-width="2"/><path d="M400.30589,331.82515c0.73538,6.2654 -12.608,11.73987 -30.397,13.8278c-17.78899,2.08792 -30.30476,0.57914 -31.04014,-5.68626c-0.147,-1.25247 -1.49333,-12.43673 -0.46472,-13.30809c4.11698,-3.48756 16.11947,3.92026 30.3524,2.24971c17.78899,-2.08792 30.81407,-3.34856 31.54946,2.91684z" fill="#2e0048" stroke-width="0"/></g><path d="M297.68996,140.44399c-1.11083,1.09393 0.87405,2.51194 2.18106,3.76194c2.61363,2.49964 5.79847,5.55528 4.24663,9.61869c-2.64476,6.92514 -10.24543,-0.34985 -12.29703,-3.36589c-3.30781,-5.76009 -5.23014,-17.34955 3.60414,-19.2824c0.5392,-0.11797 3.39696,-0.31168 3.89584,-0.18723c4.72009,1.17744 3.61532,7.17801 0.18766,8.90279l-0.8373,0.44358c0,0 -0.48418,0.25595 -0.98098,0.10852z" fill="#000000" stroke="none" stroke-width="0.5" stroke-linecap="butt"/></g></g></svg>