<svg version="1.1" xmlns="http://www.w3.org/2000/svg" xmlns:xlink="http://www.w3.org/1999/xlink" width="193.96639" height="349.02293" viewBox="0,0,193.96639,349.02293"><g transform="translate(-209.62237,-11.96446)"><g data-paper-data="{&quot;isPaintingLayer&quot;:true}" fill-rule="nonzero" stroke-linejoin="miter" stroke-miterlimit="10" stroke-dasharray="" stroke-dashoffset="0" style="mix-blend-mode: normal"><g stroke="#000000" stroke-linecap="butt"><path d="M340.64831,212.08685c29.99303,14.5512 51.44405,32.24878 47.91221,39.52864c-3.53184,7.27987 -30.70913,1.38528 -60.70216,-13.16592c-29.99303,-14.5512 -51.44405,-32.24878 -47.91221,-39.52864c3.53184,-7.27987 30.70913,-1.38528 60.70216,13.16593z" fill="#0d69be" stroke-width="2"/><path d="M388.14616,220.35663c12.87376,6.24574 18.11653,22.01375 11.71006,35.21883c-6.40648,13.20507 -22.0362,18.84674 -34.90997,12.60099c-12.87377,-6.24575 -18.11653,-22.01375 -11.71006,-35.21883c6.40647,-13.20508 22.03622,-18.84673 34.90997,-12.60099z" fill="#faddbf" stroke-width="2"/><path d="M360.30153,251.01482c12.87377,6.24575 45.36214,-9.37415 38.95567,3.83093c-6.40648,13.20507 -22.03621,18.84673 -34.90997,12.60099c-12.87377,-6.24575 -16.91947,-22.67766 -4.0457,-16.43191z" fill="#ef8b89" stroke-width="0"/></g><g stroke="#000000" stroke-linecap="butt"><path d="M307.76518,340.83534v-95.29492h29.49199v95.29492z" fill="#73fffc" stroke-width="2"/><path d="M307.43943,340.2174l1.32626,-93.78573c0,0 5.20288,68.11227 6.3799,77.52842c0.2602,2.08162 2.52228,2.78987 2.52228,2.78987l18.60659,13.13896z" fill="#59a9e6" stroke-width="0"/></g><g stroke="#000000" stroke-linecap="butt"><path d="M268.4238,338.4128v-95.29492h29.49199v95.29492z" fill="#73fffc" stroke-width="2"/><path d="M268.09805,337.79488l1.32626,-93.78573c0,0 5.20288,68.11227 6.3799,77.52842c0.2602,2.08162 2.52228,2.78987 2.52228,2.78987l18.60659,13.13896z" fill="#59a9e6" stroke-width="0"/></g><g stroke="#000000" stroke-linecap="butt"><path d="M335.22917,235.69586c0,13.80271 10.04743,36.74388 4.95001,46.45977c-6.2338,11.88187 -28.61241,9.09579 -38.9397,9.09579c-13.66287,0 -32.94407,4.17018 -38.34426,-14.83216c-2.01935,-7.10576 4.35457,-32.37264 4.35457,-40.7234c0,-30.68249 15.2177,-55.55556 33.98969,-55.55556c18.77199,0 33.98969,24.87307 33.98969,55.55556z" fill="#0d69be" stroke-width="2"/><path d="M283.96554,251.27246c0,13.80271 62.04198,20.54886 56.94455,30.26474c-6.2338,11.88186 -28.61241,9.09579 -38.9397,9.09579c-13.66287,0 -32.94406,4.17018 -38.34425,-14.83215c-2.01936,-7.10576 4.35457,-32.37265 4.35457,-40.7234c0,-9.45244 3.34855,-28.59801 5.51953,-29.96813c5.94391,-16.76415 10.4653,25.13995 10.4653,46.16315z" fill="#10157d" stroke-width="0"/></g><path d="M371.63632,338.87002c0,11.6628 -14.51982,21.11737 -32.43092,21.11737c-17.9111,0 -32.43092,-9.45457 -32.43092,-21.11737c0,-2.33142 -0.03339,-13.76009 1.08979,-15.13837c4.49546,-5.51647 17.81784,5.26144 32.14847,5.26144c17.9111,0 31.62358,-1.78588 31.62358,9.87692z" fill="#000082" stroke="#000000" stroke-width="2" stroke-linecap="butt"/><path d="M369.75004,336.13772c0,6.30841 -13.89058,10.1901 -31.80169,10.1901c-17.9111,0 -30.16566,-2.95748 -30.16566,-9.26589c0,-1.26107 -0.03338,-12.52602 1.0898,-13.27153c4.49546,-2.98386 15.55258,5.7726 29.88321,5.7726c17.9111,0 30.99434,0.26631 30.99434,6.57472z" fill="#2e0048" stroke="#000000" stroke-width="0" stroke-linecap="butt"/><path d="M328.64938,338.22521c0,11.6628 -14.51982,21.11737 -32.43092,21.11737c-17.9111,0 -32.43092,-9.45457 -32.43092,-21.11737c0,-2.33142 -0.03339,-13.76009 1.08979,-15.13837c4.49546,-5.51647 17.81784,5.26144 32.14847,5.26144c17.9111,0 31.62358,-1.78588 31.62358,9.87692z" fill="#000082" stroke="#000000" stroke-width="2" stroke-linecap="butt"/><path d="M326.7631,335.49289c0,6.30841 -13.89058,10.1901 -31.80169,10.1901c-17.9111,0 -30.16566,-2.95748 -30.16566,-9.26589c0,-1.26107 -0.03338,-12.52602 1.0898,-13.27153c4.49546,-2.98386 15.55258,5.7726 29.88321,5.7726c17.9111,0 30.99434,0.26631 30.99434,6.57472z" fill="#2e0048" stroke="#000000" stroke-width="0" stroke-linecap="butt"/><g><g><path d="M268.26707,263.0772c-13.06769,-7.54045 -16.90794,-18.51599 -10.0538,-31.7874c5.36066,-10.37972 22.77405,-15.35948 35.84175,-7.81902c13.06777,7.54046 17.68822,21.46221 10.22296,34.39971c-1.16742,2.02318 -2.84528,3.54387 -4.36475,4.9471c-8.19697,7.5697 -20.62196,6.62088 -31.64614,0.25961z" fill="#485e84" stroke="#000000" stroke-width="2" stroke-linecap="butt"/><path d="M280.43111,221.4772c0,0 -3.25049,4.75029 -2.46089,6.59146c7.57398,17.66093 19.18471,25.56088 23.2243,27.8807c0.91778,0.52708 1.89838,-0.01998 1.89838,-0.01998c0,0 -0.85834,1.93168 -2.70979,3.95308c-1.97011,2.15096 -5.02317,4.4275 -7.935,5.41057c-3.32614,1.1229 -11.64569,1.66452 -11.64569,1.66452l-19.55575,-7.51207c0,0 -4.59267,-12.64367 -4.58497,-14.81089c0.00752,-2.12315 0.62538,-4.63334 1.17489,-7.32871c0.85321,-4.18492 3.24847,-8.04103 5.39489,-9.96137c2.73935,-2.45076 7.03148,-4.27546 10.74864,-5.13865c3.45951,-0.80337 6.45096,-0.72853 6.45096,-0.72853z" fill="#343545" stroke="none" stroke-width="0" stroke-linecap="butt"/><path d="M270.3186,243.72365c0,0 2.79244,-8.57907 7.04269,-11.4972c5.38035,-3.69408 17.69148,-7.76084 17.69148,-7.76084" fill="none" stroke="#000000" stroke-width="1" stroke-linecap="round"/><path d="M306.31032,251.07978c0,0 -4.79913,5.30077 -8.36075,7.70632c-3.5956,2.42856 -13.03487,4.67642 -13.03487,4.67642" fill="none" stroke="#000000" stroke-width="1" stroke-linecap="round"/><path d="M259.65777,241.13466c0,0 2.73485,-8.84912 7.48243,-11.80027c7.28503,-4.52843 18.1347,-8.62477 18.1347,-8.62477" fill="none" stroke="#000000" stroke-width="1" stroke-linecap="round"/><path d="M263.39002,226.31344c0,0 17.15391,-2.28444 29.01752,10.47482c12.99509,13.97614 4.09326,28.74936 4.09326,28.74936" fill="none" stroke="#000000" stroke-width="1" stroke-linecap="round"/><path d="M257.57209,233.85377c0,0 17.79102,0.58479 28.28391,11.82128c8.61561,9.2262 2.28143,22.37143 2.28143,22.37143" fill="none" stroke="#000000" stroke-width="1" stroke-linecap="round"/><path d="M301.16452,237.1287c-0.57364,-1.05742 -0.36001,-2.28272 0.47708,-2.73683c0.83709,-0.45416 1.23691,0.2344 1.81053,1.29182c0.57364,1.05742 1.10382,2.08323 0.26672,2.53735c-0.83709,0.45416 -1.98073,-0.03494 -2.55431,-1.09234z" fill="#8fbbbe" stroke="none" stroke-width="0" stroke-linecap="butt"/><path d="M303.72882,243.93189c-0.52097,-0.30063 -0.57776,-1.1778 -0.12685,-1.95926c0.45092,-0.78147 0.74291,-1.03826 1.26389,-0.73767c0.52097,0.30063 0.73499,1.26853 0.28405,2.04997c-0.45092,0.78147 -0.90016,0.94754 -1.42111,0.64692z" fill="#8fbbbe" stroke="none" stroke-width="0" stroke-linecap="butt"/><path d="M297.80906,231.0785c-0.72898,-0.53166 -1.03259,-1.35653 -0.6782,-1.8425c0.35435,-0.48597 0.9605,0.02267 1.68947,0.55428c0.72898,0.53166 1.30476,0.88485 0.95038,1.37083c-0.35435,0.48597 -1.23267,0.44899 -1.96163,-0.08263z" fill="#8fbbbe" stroke="none" stroke-width="0" stroke-linecap="butt"/><path d="M275.95022,221.61591c0,0 10.0417,1.9606 16.41513,6.05926c3.61341,2.32375 5.99593,5.61919 7.77424,8.13788c1.57268,2.22737 2.95733,8.65455 3.50522,13.68426c0.4034,3.70311 0.16769,6.63763 0.16769,6.63763" fill="none" stroke="#000000" stroke-width="0.5" stroke-linecap="round"/><path d="M306.68644,236.62725c0,0 -5.63222,8.9474 -9.98488,12.15233c-3.6672,2.70024 -14.11429,6.00517 -14.11429,6.00517" fill="none" stroke="#000000" stroke-width="1" stroke-linecap="round"/><path d="M278.53002,250.55752c0,0 5.24019,-8.12211 8.57022,-11.18178c5.84692,-5.3722 15.84946,-8.25768 15.84946,-8.25768" fill="none" stroke="#000000" stroke-width="1" stroke-linecap="round"/></g><g stroke="#000000" stroke-linecap="butt"><path d="M253.36129,237.21893c22.46522,24.62991 20.58745,34.0919 14.6093,39.54462c-5.97814,5.45272 -29.03604,-10.09347 -51.50126,-34.7234c-22.46521,-24.62992 49.7425,-25.86863 55.72064,-31.32136c7.00385,-1.12885 5.81964,5.28951 0.25111,10.83455c-6.86731,6.83834 -21.00005,13.56031 -19.07981,15.66558z" fill="#0d69be" stroke-width="2"/><path d="M279.16956,247.57673c9.64265,10.57178 8.66887,27.15998 -2.17498,37.05078c-10.84386,9.8908 -27.45144,9.33875 -37.09409,-1.23303c-9.64264,-10.57178 -8.66885,-27.15999 2.17499,-37.05079c10.84385,-9.89079 27.45143,-9.33874 37.09408,1.23304z" fill="#faddbf" stroke-width="2"/><path d="M241.9462,265.7335c9.64264,10.57178 45.60628,8.10347 34.76242,17.99426c-10.84386,9.8908 -27.45144,9.33876 -37.09408,-1.23304c-9.64264,-10.57178 -7.31099,-27.33303 2.33166,-16.76123z" fill="#ef8b89" stroke-width="0"/></g></g><g stroke-linecap="butt"><g><g stroke="#000000"><g><path d="M213.32537,100.42112c0,-46.79079 37.93143,-84.72222 84.72222,-84.72222c46.79079,0 84.72222,37.93143 84.72222,84.72222c0,46.79079 -37.93143,84.72222 -84.72222,84.72222c-46.79079,0 -84.72222,-37.93143 -84.72222,-84.72222z" fill="#faddbf" stroke-width="2"/><path d="M213.55614,99.55161c0,-15.05428 8.65728,-41.01117 13.16632,-44.22534c0.51494,-0.36707 5.78642,-8.91029 13.30693,-15.62682c9.34748,-8.34819 21.31473,-15.15641 21.9255,-14.95935c7.96872,2.57101 -17.52654,64.85492 -16.28763,90.14485c0.00295,0.06031 4.40745,19.70158 6.02593,20.14049c2.8855,4.74247 9.11092,19.15337 19.99223,26.29351c20.2786,13.30648 48.94186,19.68013 47.45857,20.18586c-2.37273,0.80898 -14.80271,2.76903 -20.86562,2.76903c-46.79079,0 -84.72222,-37.93143 -84.72222,-84.72222z" fill="#ef8b89" stroke-width="0"/><path d="M382.24637,99.96292c0,11.62434 -1.57787,15.64071 -2.12992,13.78899c-0.5632,-1.8891 -0.18668,-9.81362 -9.04258,-14.64925c-2.14596,-1.17177 -10.20624,6.27605 -12.93385,5.04791c-1.71325,-0.77142 -8.65215,-10.17554 -10.56583,-10.85157c-1.33801,-0.47267 -12.45011,8.37757 -13.84965,7.92692c-3.49052,-1.12394 -11.98851,-11.37355 -15.73972,-12.03156c-2.06568,-0.36235 -9.2828,11.84977 -11.39182,11.59592c-2.71985,-0.32737 -10.06862,-12.06843 -12.80601,-12.06843c-7.27985,0 -7.47978,7.01079 -12.7176,13.01701c-3.40366,3.90299 -13.98842,-13.05188 -17.11223,-8.61668c-3.87941,5.50799 -7.71992,10.81771 -11.96095,14.41734c-3.32724,2.82405 -13.36416,-10.09687 -16.24015,-7.47909c-13.88607,12.63935 -22.22353,20.64372 -22.22353,2.47189c0,-36.54015 43.28764,-8.21349 85.0704,-29.73523c39.99404,-20.60039 83.64345,-9.37431 83.64345,27.16584z" fill="#ef8b89" stroke-width="0"/></g><path d="M383.78024,91.65203c0,23.48334 6.5317,8.71531 -11.46679,-0.86026c-2.20249,-1.17177 -10.47508,6.27605 -13.27454,5.04791c-1.75838,-0.77142 -8.88005,-10.17554 -10.84414,-10.85157c-1.37326,-0.47267 -12.77806,8.37757 -14.21446,7.92692c-3.58246,-1.12394 -12.30429,-11.37355 -16.15431,-12.03156c-2.12009,-0.36235 -9.52731,11.84977 -11.69189,11.59592c-2.79149,-0.32737 -10.33384,-12.06843 -13.14333,-12.06843c-7.47161,0 -7.6768,7.01079 -13.05259,13.01701c-3.49332,3.90299 -14.35688,-13.05188 -17.56298,-8.61668c-3.98159,5.50799 -7.92327,10.81771 -12.276,14.41734c-3.41488,2.82405 -13.71618,-10.09687 -16.66792,-7.47909c-14.25184,12.63935 -22.80892,20.64372 -22.80892,2.47189c0,-36.54015 39.86264,-81.25697 85.78948,-81.25697c45.92683,0 87.36842,42.14743 87.36842,78.68758z" fill="#873412" stroke-width="2"/><path d="M383.53251,90.48924c0,23.48334 6.5317,8.71531 -11.46679,-0.86026c-2.20249,-1.17177 -10.47508,6.27605 -13.27454,5.04791c-1.75838,-0.77142 -8.88005,-10.17554 -10.84415,-10.85157c-1.37326,-0.47267 -12.77806,8.37757 -14.21446,7.92692c-3.58246,-1.12394 -12.30429,-11.37355 -16.15431,-12.03156c-2.12009,-0.36235 -9.52731,11.84977 -11.69189,11.59592c-2.79149,-0.32737 -10.33384,-12.06843 -13.14333,-12.06843c-7.47161,0 -7.6768,7.01079 -13.05259,13.01701c-3.49332,3.90299 -14.35688,-13.05188 -17.56298,-8.61668c-3.98159,5.50799 -7.92327,10.81771 -12.27601,14.41734c-3.41488,2.82405 -13.71618,-10.09687 -16.66792,-7.47909c-14.25184,12.63935 -22.80892,20.64372 -22.80892,2.47189c0,-36.54015 44.42786,-8.21349 87.31121,-29.73523c41.04751,-20.60039 85.84668,-9.37431 85.84668,27.16584z" fill="#741d23" stroke-width="0"/></g><path d="M298.78901,23.34509c0.06504,0.11563 0.11871,0.24909 0.16282,0.39594c0.0942,0.25915 0.14675,0.5383 0.14957,0.82934c0.10872,1.13632 -0.04492,2.51335 0.00011,3.00545c0.05917,0.64652 1.19031,-0.74732 1.8333,-0.6576c0.39387,0.05496 0.79058,0.76163 1.08556,0.49491c1.79014,-1.61865 3.39338,-4.4788 6.14794,-2.85557c0.91226,0.53758 0.67628,1.89067 1.24094,2.5754c0.04747,0.05756 2.60921,-0.1366 3.20483,0.39633c1.0263,0.91828 0.31921,2.25188 0.84227,3.24453c0.16737,0.31764 0.57449,-0.44225 0.90296,-0.5872c1.46188,-0.64507 3.99723,-2.00657 5.75026,-1.00484c0.9237,0.52783 0.74309,2.13955 1.25,2.58145c0.88869,0.7747 1.93355,-1.36509 2.98795,-1.89251c1.4583,-0.72946 2.18563,-0.02863 3.42998,0.8575c0.21462,0.15284 0.4729,4.13203 1.5751,5.28976c0.61955,0.65076 1.65156,-0.85868 2.54995,-0.87393c0.89637,-0.01521 2.71106,-0.73753 3.13293,-0.63391c0.84623,0.20784 1.57162,1.64085 2.32283,1.19928c3.83542,-2.25449 8.74631,-0.80574 7.11144,4.15438c-0.20689,0.62772 1.32191,-0.57392 1.94893,-0.36491c0.24308,0.08102 1.59685,1.0818 1.82405,0.9958c1.48606,-0.56253 2.42529,-1.27962 4.01644,-1.28349c1.32143,-0.00321 2.58997,0.74067 2.89673,2.12114c0.16122,0.7255 -0.99738,2.12313 -0.25981,2.21439c1.73856,0.21513 4.46436,0.94049 3.69208,3.47798c-0.83832,2.75449 -3.13962,5.14362 -5.7124,3.05264c-0.89263,-0.72546 -2.30427,1.24264 -3.36004,0.78609c-1.35252,-0.58487 -2.02055,-2.87334 -1.94906,-4.04994c0.03305,-0.54391 -1.07328,0.37399 -1.61032,0.28162c-0.72305,-0.12436 -1.06576,-1.21538 -1.79736,-1.27038c-1.63644,-0.12301 -1.3588,3.26616 -5.24535,2.4796c-1.14716,-0.23216 -2.516,-2.181 -2.89553,-3.27894c-0.22031,-0.63733 1.44671,-2.64957 1.28866,-2.75515c-0.38378,-0.25637 -1.94579,2.82743 -2.37223,2.96958c-1.02591,0.34197 -2.14798,-0.37973 -3.14348,-0.80211c-0.87953,-0.37317 -1.15332,1.88993 -2.10728,1.94293c-0.84278,0.04682 -9.35342,-0.4825 -9.68874,-0.98549c-0.40882,-0.61322 -0.82062,-1.721 -0.66291,-2.43068c0.05668,-0.25505 0.97585,-1.84123 0.79428,-1.82108c-0.64439,0.07149 -4.18815,3.4397 -6.35755,0.18561c-1.1797,-1.76955 0.97225,-3.59848 0.97549,-5.22262c0.002,-1.00299 -1.1089,1.67543 -1.57852,2.56169c-0.3607,0.68072 -1.43499,1.3053 -2.20947,1.33028c-2.67773,0.08638 -1.93793,-2.47479 -2.5,-3.98918c-0.25939,-0.69888 -1.57778,0.59517 -2.22503,0.22532c-1.58252,-0.90429 -1.34694,-2.0688 -1.48465,-3.60097c-0.06306,-0.70155 -0.5487,2.71516 -2.19331,2.88171c-0.66697,0.06754 -1.7235,-0.94735 -1.98395,-0.32962c-1.26801,3.00744 -0.56288,4.21953 -4.35893,3.73846c-0.36631,-0.04642 -0.97772,0.79566 -1.37068,0.57111c-4.34916,-2.48524 -0.86033,-7.93142 -0.7383,-11.93952c0.04305,-1.41383 -0.88265,-3.52759 0.34546,-4.22937c0.43488,-0.73685 1.23698,-1.23116 2.15454,-1.23116c0.81357,0 1.53638,0.38863 1.99291,0.99036c0.07451,0.07697 0.14011,0.16278 0.19459,0.25964z" fill="#ba587e" stroke="none" stroke-width="0.5"/></g><g stroke="#000000"><path d="M328.79798,132.59089c0,28.55894 -13.1683,43.28947 -29.73684,43.28947c-16.56854,0 -30.26316,-14.73054 -30.26316,-43.28947c0,-28.55894 13.43146,-51.71053 30,-51.71053c16.56854,0 30,23.15159 30,51.71053z" fill="#f0f0f0" stroke-width="2"/><path d="M282.04225,113.00851c-4.30259,28.23297 34.22345,62.0416 17.65491,62.0416c-16.56854,0 -30.26316,-14.73054 -30.26316,-43.28947c0,-28.55894 18.82852,-59.56866 12.60825,-18.75213z" fill="#9a99ff" stroke-width="0"/></g><path d="M324.90355,140.82414c0,15.82221 -4.68891,28.64865 -10.47297,28.64865c-5.78406,0 -10.47297,-12.82644 -10.47297,-28.64865c0,-15.82221 4.68891,-28.64865 10.47297,-28.64865c5.78406,0 10.47297,12.82644 10.47297,28.64865z" fill="#000000" stroke="none" stroke-width="0"/><g stroke="#000000"><path d="M323.78868,102.55622c4.45946,10.22981 9.32841,32.87316 -6.38185,32.87316c-15.71026,0 -46.40621,-23.39308 -41.8614,-33.0083c4.32432,-9.14873 6.78974,-21.41892 22.5,-21.41892c15.71026,0 21.49332,11.80491 25.74324,21.55405z" fill="#a100fe" stroke-width="2"/><path d="M322.86441,102.20198c4.3074,10.22981 9.42854,32.39844 -5.74604,32.39844c-15.17458,0 -45.24208,-22.91836 -40.85224,-32.53358c4.17687,-9.14873 6.55823,0.96203 21.73281,0.96203c15.17458,0 20.76045,-10.57604 24.86546,-0.8269z" fill="#99008e" stroke-width="0"/></g><g data-paper-data="{&quot;index&quot;:null}" stroke="#000000"><path d="M362.52466,79.84306c16.56854,0 30,23.15159 30,51.71053c0,28.55893 -13.69462,43.28947 -30.26316,43.28947c-16.56854,0 -29.73684,-14.73053 -29.73684,-43.28947c0,-28.55894 13.43146,-51.71053 30,-51.71053z" fill="#f0f0f0" stroke-width="2"/><path d="M391.88864,130.72332c0,28.55893 -13.69462,43.28947 -30.26316,43.28947c-16.56854,0 21.9575,-33.80863 17.65491,-62.0416c-6.22027,-40.81653 12.60825,-9.80681 12.60825,18.75213z" fill="#9a99ff" stroke-width="0"/></g><path d="M376.04575,111.56276c5.78406,0 10.47297,12.82644 10.47297,28.64865c0,15.82221 -4.68891,28.64865 -10.47297,28.64865c-5.78406,0 -10.47297,-12.82644 -10.47297,-28.64865c0,-15.82221 4.68891,-28.64865 10.47297,-28.64865z" data-paper-data="{&quot;index&quot;:null}" fill="#000000" stroke="none" stroke-width="0"/><g data-paper-data="{&quot;index&quot;:null}" stroke="#000000"><path d="M337.53397,101.51888c4.24992,-9.74914 10.03298,-21.55405 25.74324,-21.55405c15.71026,0 18.17568,12.27019 22.5,21.41892c4.54481,9.61522 -24.96434,32.77094 -40.6746,32.77094c-15.71026,0 -12.02811,-22.40599 -7.56865,-32.6358z" fill="#a100fe" stroke-width="2"/><path d="M338.45824,101.16464c4.10501,-9.74914 9.69088,0.8269 24.86546,0.8269c15.17458,0 17.55594,-10.11076 21.73281,-0.96203c4.38984,9.61522 -24.72822,32.05886 -39.9028,32.05886c-15.17458,0 -11.00288,-21.69391 -6.69548,-31.92372z" fill="#99008e" stroke-width="0"/></g><path d="M256.1387,141.66268c-0.4224,0.687 -0.81222,1.49136 -0.57053,2.06053c0.4491,1.05759 1.73744,1.50598 2.56054,2.30765c2.60484,2.53699 4.78544,6.23113 3.46354,9.97593c-2.06607,5.85296 -9.18103,5.15273 -12.9613,1.7933c-4.58025,-4.99245 -7.33281,-13.53337 -4.66429,-20.20074c2.34079,-5.84853 9.66433,-8.11824 13.47809,-2.46551c0.87825,2.20023 1.25553,3.12968 0.0502,5.22736l-0.54694,0.76879c0,0 -0.31034,0.43448 -0.80932,0.53269z" fill="#000000" stroke="none" stroke-width="0.5"/></g></g></g></svg>