<svg version="1.1" xmlns="http://www.w3.org/2000/svg" xmlns:xlink="http://www.w3.org/1999/xlink" width="278.82332" height="310.8061" viewBox="0,0,278.82332,310.8061"><g transform="translate(-124.76999,-50.00978)"><g data-paper-data="{&quot;isPaintingLayer&quot;:true}" fill-rule="nonzero" stroke-linejoin="miter" stroke-miterlimit="10" stroke-dasharray="" stroke-dashoffset="0" style="mix-blend-mode: normal"><g stroke="#000000" stroke-linecap="butt"><path d="M347.17246,354.06232l-57.93711,-75.65985l23.4153,-17.93045l57.93712,75.65985z" fill="#73fffc" stroke-width="2"/><path d="M346.53814,353.76975l-55.96657,-75.26795c0,0 45.54153,50.91482 52.20084,57.67522c1.47217,1.49451 3.69876,0.68154 3.69876,0.68154l22.76097,-0.88063z" fill="#59a9e6" stroke-width="0"/></g><g stroke="#000000" stroke-linecap="butt"><path d="M251.6752,326.58483l36.09093,-88.19618l27.29506,11.16947l-36.09093,88.19619z" fill="#73fffc" stroke-width="2"/><path d="M251.60775,325.88955l36.74682,-86.29712c0,0 -20.98077,65.00891 -23.4576,74.1694c-0.54755,2.0251 1.27778,3.53731 1.27778,3.53731l12.24444,19.20705z" fill="#59a9e6" stroke-width="0"/></g><path d="M216.42642,334.22647c1.51965,-11.56337 14.88253,-8.00599 32.64094,-5.67219c14.20846,1.86726 28.82161,-7.08287 32.55995,-1.02767c0.93402,1.51288 -0.58823,12.83977 -0.89202,15.15131c-1.51965,11.56337 -17.1476,19.04542 -34.90601,16.71162c-17.75841,-2.3338 -30.92252,-13.59968 -29.40287,-25.16305z" data-paper-data="{&quot;index&quot;:null}" fill="#000082" stroke="#000000" stroke-width="2" stroke-linecap="butt"/><path d="M250.23942,329.2831c14.20846,1.86726 26.31227,-5.37381 30.38061,-1.82963c1.01647,0.88551 -0.48444,12.05007 -0.64875,13.30039c-0.82198,6.25463 -13.35742,7.59014 -31.11583,5.25634c-17.75841,-2.3338 -31.02479,-7.99232 -30.20281,-14.24696c0.82198,-6.25463 13.82838,-4.81394 31.58678,-2.48014z" data-paper-data="{&quot;index&quot;:null}" fill="#2e0048" stroke="#000000" stroke-width="0" stroke-linecap="butt"/><g stroke="#000000" stroke-linecap="butt"><path d="M402.49784,334.31892c1.35955,11.58329 -11.95915,22.666 -29.74814,24.75392c-17.78899,2.08792 -33.31195,-5.60959 -34.6715,-17.19288c-0.27178,-2.31552 -1.6372,-13.66238 -0.68234,-15.1622c3.82175,-6.0029 18.3097,3.14852 32.54263,1.47797c17.78899,-2.08792 31.1998,-5.46011 32.55935,6.12317z" fill="#000082" stroke-width="2"/><path d="M400.30591,331.82515c0.73538,6.2654 -12.608,11.73987 -30.397,13.8278c-17.78899,2.08792 -30.30476,0.57914 -31.04014,-5.68626c-0.147,-1.25247 -1.49333,-12.43673 -0.46472,-13.30809c4.11698,-3.48756 16.11947,3.92026 30.3524,2.24971c17.78899,-2.08792 30.81407,-3.34856 31.54946,2.91684z" fill="#2e0048" stroke-width="0"/></g><g><g stroke="#000000" stroke-linecap="butt"><path d="M311.66991,222.28771c26.29502,23.98885 42.24967,47.99041 35.6357,53.60899c-6.61398,5.61858 -33.292,-9.27348 -59.58702,-33.26233c-26.29502,-23.98885 -42.24967,-47.99041 -35.6357,-53.60899c6.61398,-5.61858 33.292,9.27348 59.58702,33.26234z" fill="#0d69be" stroke-width="2"/><path d="M359.09005,246.40668c11.28649,10.29662 10.71034,26.90563 -1.28688,37.09727c-11.99721,10.19163 -30.87239,10.10654 -42.15887,-0.19009c-11.28649,-10.29663 -10.71034,-26.90563 1.28688,-37.09727c11.99721,-10.19164 30.87239,-10.10653 42.15887,0.19009z" fill="#faddbf" stroke-width="2"/><path d="M317.40335,265.60237c11.28649,10.29663 52.04361,6.81859 40.04641,17.01023c-11.99721,10.19163 -30.87237,10.10653 -42.15887,-0.19009c-11.28649,-10.29663 -9.17403,-27.11676 2.11246,-16.82013z" fill="#ef8b89" stroke-width="0"/></g><g stroke="#000000" stroke-linecap="butt"><path d="M316.74604,236.22594c3.19292,13.51347 19.67377,33.9278 16.25233,44.47816c-4.18418,12.90236 -29.71643,14.73195 -41.20165,16.83505c-15.19478,2.78237 -35.6732,10.79168 -46.07458,-6.71275c-3.88951,-6.54563 -2.64579,-32.58105 -4.57752,-40.75682c-7.09764,-30.03953 4.07254,-57.49039 24.94931,-61.3132c20.87676,-3.82281 43.55448,17.43003 50.65214,47.46957z" fill="#0d69be" stroke-width="2"/><path d="M263.33783,261.9157c3.19292,13.51347 73.7518,7.48374 70.33035,18.03409c-4.18418,12.90235 -29.71643,14.73195 -41.20165,16.83505c-15.19478,2.78237 -35.67319,10.79167 -46.07457,-6.71274c-3.88952,-6.54563 -2.6458,-32.58106 -4.57752,-40.75682c-2.18659,-9.25436 -2.89143,-28.68065 -0.79399,-30.46417c2.73239,-17.6233 17.4542,22.48194 22.31742,43.06459z" fill="#10157d" stroke-width="0"/></g><g><g><path d="M255.68538,277.84415c-16.73738,-3.24276 -24.66051,-12.54647 -21.79006,-27.26801c2.24497,-11.51387 19.39405,-21.51911 36.13147,-18.27634c16.73746,3.24274 26.51601,15.11957 22.86924,29.70732c-0.57028,2.28125 -1.86569,4.23758 -3.02983,6.03411c-6.28023,9.69143 -20.06079,12.53858 -34.1808,9.80293z" fill="#0000c4" stroke="#000000" stroke-width="2" stroke-linecap="butt"/><path d="M254.58959,234.51294c0,0 -1.89068,5.51005 -0.40411,7.02686c14.25943,14.54967 29.54236,18.57508 34.71253,19.56688c1.17466,0.22534 2.04892,-0.59226 2.04892,-0.59226c0,0 -0.26695,2.10069 -1.57859,4.58678c-1.39569,2.64543 -3.92106,5.73758 -6.73712,7.55397c-3.21676,2.0748 -12.0403,5.1032 -12.0403,5.1032l-23.75362,-1.25665c0,0 -9.31007,-10.66679 -10.04507,-12.73519c-0.72007,-2.02633 -0.91196,-4.60591 -1.24137,-7.34138c-0.51143,-4.24722 0.75981,-8.64659 2.42552,-11.12539c2.12587,-3.1635 6.148,-6.19903 9.87726,-8.14433c3.47079,-1.81046 6.73592,-2.64237 6.73592,-2.64237z" fill="#2e006f" stroke="none" stroke-width="0" stroke-linecap="butt"/><path d="M251.26894,258.77446c0,0 0.08143,-9.02181 3.68317,-13.08709c4.55939,-5.14623 16.49634,-12.74049 16.49634,-12.74049" fill="none" stroke="#000000" stroke-width="1" stroke-linecap="round"/><path d="M292.76768,254.91967c0,0 -3.37891,6.50244 -6.41074,9.87112c-3.06073,3.40088 -12.51159,8.39397 -12.51159,8.39397" fill="none" stroke="#000000" stroke-width="1" stroke-linecap="round"/><path d="M238.83626,259.52533c0,0 -0.07356,-9.26187 4.05542,-13.50879c6.33581,-6.51675 16.67999,-13.69792 16.67999,-13.69792" fill="none" stroke="#000000" stroke-width="1" stroke-linecap="round"/><path d="M237.79442,244.26894c0,0 17.79255,-7.35738 35.01603,1.22417c18.86612,9.39999 14.29333,26.17154 14.29333,26.17154" fill="none" stroke="#000000" stroke-width="1" stroke-linecap="round"/><path d="M234.08039,253.21405c0,0 19.4666,-4.81445 34.68342,2.7293c12.49439,6.19411 10.14373,20.63838 10.14373,20.63838" fill="none" stroke="#000000" stroke-width="1" stroke-linecap="round"/><path d="M282.4102,243.17355c-0.98388,-0.83486 -1.17281,-2.06748 -0.42206,-2.75314c0.75072,-0.68573 1.41985,-0.15002 2.40372,0.68484c0.98388,0.83486 1.90985,1.6527 1.15911,2.33838c-0.75072,0.68573 -2.15694,0.56477 -3.14075,-0.27009z" fill="#8fbbbe" stroke="none" stroke-width="0" stroke-linecap="butt"/><path d="M287.52054,248.88491c-0.66727,-0.12929 -1.02963,-0.94837 -0.80935,-1.82951c0.22027,-0.88114 0.4484,-1.21413 1.11566,-1.08487c0.66727,0.12929 1.23103,0.98739 1.01071,1.86852c-0.22027,0.88114 -0.64979,1.17512 -1.31705,1.04583z" fill="#8fbbbe" stroke="none" stroke-width="0" stroke-linecap="butt"/><path d="M276.70141,238.4189c-0.97178,-0.28673 -1.58348,-0.98141 -1.36638,-1.55172c0.21703,-0.57028 1.0479,-0.26841 2.01966,0.01828c0.97178,0.28673 1.71644,0.44959 1.49934,1.01989c-0.21703,0.57028 -1.18088,0.80023 -2.1526,0.51352z" fill="#8fbbbe" stroke="none" stroke-width="0" stroke-linecap="butt"/><path d="M249.78474,235.99817c0,0 11.54669,-1.16297 19.85433,0.81995c4.71001,1.12424 8.42035,3.54648 11.20998,5.41064c2.46702,1.64855 6.17092,7.35764 8.48939,11.98716c1.70697,3.40846 2.45823,6.27718 2.45823,6.27718" fill="none" stroke="#000000" stroke-width="0.5" stroke-linecap="round"/><path d="M288.21792,241.02819c0,0 -3.03032,10.23041 -6.64458,14.60002c-3.04509,3.68151 -13.22475,9.98663 -13.22475,9.98663" fill="none" stroke="#000000" stroke-width="1" stroke-linecap="round"/><path d="M262.50509,262.80998c0,0 2.88884,-9.32526 5.44553,-13.24762c4.48906,-6.88691 14.3312,-12.65793 14.3312,-12.65793" fill="none" stroke="#000000" stroke-width="1" stroke-linecap="round"/></g><g stroke="#000000" stroke-linecap="butt"><path d="M230.67471,257.69356c32.77552,16.69703 33.98742,26.28435 29.38388,33.28765c-4.60354,7.0033 -34.90529,-0.85503 -67.68081,-17.55207c-32.77552,-16.69703 44.99387,-39.68079 49.5974,-46.68408c7.19734,-3.19094 8.11638,3.2854 3.98806,10.25303c-5.09119,8.59271 -18.09006,19.26827 -15.28855,20.69547z" fill="#0d69be" stroke-width="2"/><path d="M262.17526,259.77517c14.06809,7.16679 18.70315,23.27475 10.3527,35.97815c-8.35044,12.70341 -26.52427,17.19172 -40.59237,10.02494c-14.06809,-7.16679 -18.70314,-23.27477 -10.35269,-35.97817c8.35044,-12.70341 26.52427,-17.19172 40.59235,-10.02493z" fill="#faddbf" stroke-width="2"/><path d="M228.09341,288.32395c14.06809,7.16679 52.16677,-6.0454 43.81631,6.658c-8.35044,12.70341 -26.52427,17.19172 -40.59235,10.02493c-14.06809,-7.16679 -17.29205,-23.84972 -3.22395,-16.68292z" fill="#ef8b89" stroke-width="0"/></g></g><g stroke-linecap="butt"><g data-paper-data="{&quot;index&quot;:null}"><g stroke="#000000"><g><path d="M218.60997,222.90375c-53.04968,-2.8864 -93.397,-43.08549 -90.11825,-89.78716c3.27873,-46.70168 48.94195,-82.22098 101.99162,-79.33456c53.04968,2.8864 93.39699,43.08549 90.11824,89.78716c-3.27873,46.70168 -48.94195,82.22098 -101.99162,79.33457z" fill="#faddbf" stroke-width="2"/><path d="M320.40087,142.6871c-3.27873,46.70168 -48.94195,82.22097 -101.99162,79.33456c-6.8739,-0.374 -20.82921,-3.0971 -23.46264,-4.0509c-1.64627,-0.59627 31.29771,-5.18961 55.22127,-17.21982c12.83716,-6.45531 20.90512,-20.45473 24.5089,-25.01016c1.86573,-0.33823 8.2357,-19.6704 8.24326,-19.73041c3.17675,-25.16534 -21.36445,-88.90336 -12.14964,-90.97791c0.70627,-0.15901 13.79724,7.37447 23.81009,16.28338c8.05583,7.16766 13.4338,16.01979 13.99191,16.41793c4.88696,3.4862 12.88339,29.9277 11.82851,44.95332z" fill="#ef8b89" stroke-width="0"/><path d="M129.11729,132.69155c2.56046,-36.47056 52.8352,-44.98264 96.73544,-21.95435c45.86368,24.05823 96.92653,-1.54418 94.36607,34.92638c-1.27333,18.13722 -10.16517,9.63379 -25.023,-3.83809c-3.07726,-2.79021 -15.36214,9.48695 -18.93656,6.46303c-4.55608,-3.85439 -8.53825,-9.39091 -12.55063,-15.12772c-3.23088,-4.61946 -16.41955,11.65018 -20.00501,7.54466c-5.51758,-6.3179 -5.25298,-13.32766 -13.50661,-13.77674c-3.10355,-0.16886 -12.25805,11.09652 -15.36465,11.25548c-2.40893,0.12327 -9.73569,-12.5108 -12.10307,-12.27657c-4.2991,0.42536 -14.65201,10.13122 -18.68819,11.0377c-1.61833,0.36346 -13.59666,-9.1554 -15.14677,-8.76618c-2.21702,0.55669 -10.74307,9.51486 -12.73953,10.17912c-3.17852,1.05754 -11.79508,-6.87331 -14.31019,-5.83615c-10.37933,4.28012 -10.50774,12.21277 -11.27865,14.06353c-0.75565,1.81414 -2.26313,-2.29191 -1.44859,-13.89411z" fill="#ef8b89" stroke-width="0"/></g><path d="M127.96057,124.30187c2.56046,-36.47056 52.49878,-75.9813 104.56892,-73.14818c52.07016,2.83311 94.13153,49.9238 91.57108,86.39436c-1.27333,18.13722 -10.41416,9.62024 -25.68672,-3.87421c-3.16314,-2.79489 -15.74777,9.46597 -19.42155,6.43665c-4.68273,-3.86129 -8.7796,-9.40405 -12.90784,-15.14716c-3.32416,-4.62453 -16.82895,11.6279 -20.51606,7.51685c-5.674,-6.3264 -5.41537,-13.3365 -13.88641,-13.79741c-3.1853,-0.17331 -12.55926,11.08012 -15.74709,11.23467c-2.47191,0.11984 -10.01421,-12.52595 -12.44328,-12.29507c-4.41112,0.41926 -15.01782,10.11132 -19.15823,11.01213c-1.6601,0.36118 -13.97029,-9.17574 -15.56036,-8.78868c-2.27419,0.55358 -11.00744,9.50047 -13.05509,10.16196c-3.25999,1.05311 -12.11726,-6.89084 -14.69646,-5.85717c-21.077,8.44705 -14.70645,23.58988 -13.06091,0.15126z" fill="#873412" stroke-width="2"/><path d="M128.32296,123.15658c2.56046,-36.47056 54.13876,-44.91172 99.2334,-21.81843c47.11148,24.12612 99.46708,-1.40595 96.90663,35.06461c-1.27333,18.13722 -10.41416,9.62023 -25.68672,-3.87421c-3.16314,-2.79489 -15.74777,9.46597 -19.42155,6.43665c-4.68274,-3.86129 -8.77961,-9.40405 -12.90785,-15.14716c-3.32416,-4.62453 -16.82895,11.6279 -20.51606,7.51686c-5.674,-6.3264 -5.41537,-13.3365 -13.88641,-13.79741c-3.1853,-0.17331 -12.55926,11.08012 -15.74709,11.23467c-2.47191,0.11984 -10.01421,-12.52595 -12.44328,-12.29508c-4.41112,0.41926 -15.01782,10.11133 -19.15823,11.01213c-1.6601,0.36118 -13.97029,-9.17574 -15.56036,-8.78868c-2.2742,0.55357 -11.00745,9.50048 -13.0551,10.16196c-3.25999,1.05311 -12.11726,-6.89084 -14.69646,-5.85717c-21.077,8.44705 -14.70645,23.58989 -13.06091,0.15127z" fill="#741d23" stroke-width="0"/></g><path d="M229.10698,61.36796c0.06856,-0.09332 0.14895,-0.17491 0.23881,-0.24714c0.55977,-0.57242 1.40648,-0.91573 2.32889,-0.86554c1.04032,0.0566 1.91506,0.59945 2.35648,1.36172c1.34321,0.7762 0.14556,2.82883 0.0953,4.24263c-0.1425,4.008 3.43138,9.65901 -1.67368,11.87123c-0.46126,0.19988 -1.09545,-0.67831 -1.51402,-0.65458c-4.33752,0.24599 -3.45316,-0.9203 -4.68003,-4.00023c-0.25201,-0.63262 -1.52097,0.31516 -2.27242,0.20661c-1.85295,-0.26769 -2.16412,-3.70784 -2.28477,-3.01152c-0.2635,1.52075 -0.07799,2.69758 -1.93557,3.50253c-0.75976,0.32922 -2.16381,-1.0437 -2.50688,-0.36214c-0.74338,1.47684 -0.08408,4.07875 -3.11394,3.82736c-0.87633,-0.07271 -2.05055,-0.76237 -2.4118,-1.46405c-0.47034,-0.91354 -1.54216,-3.65539 -1.61016,-2.65418c-0.11013,1.62125 2.20151,3.57944 0.74003,5.27285c-2.68761,3.11407 -6.46937,-0.46633 -7.19496,-0.57744c-0.20445,-0.03131 0.72654,1.60855 0.77292,1.86662c0.12907,0.71806 -0.41542,1.79832 -0.9219,2.38515c-0.4154,0.48135 -10.10155,0.48466 -11.05377,0.38594c-1.07783,-0.11175 -1.22969,-2.38743 -2.253,-2.06923c-1.15825,0.36017 -2.481,1.01128 -3.62017,0.60667c-0.47353,-0.16819 -2.02838,-3.34247 -2.48145,-3.11026c-0.18658,0.09562 1.56241,2.20688 1.26797,2.8294c-0.50724,1.07244 -2.19573,2.93313 -3.51261,3.09407c-4.46155,0.54532 -3.90926,-2.82029 -5.77323,-2.79845c-0.83332,0.00976 -1.29832,1.07757 -2.1268,1.15709c-0.61534,0.05907 -1.80535,-0.92534 -1.80598,-0.38042c-0.0014,1.17878 -0.91915,3.42167 -2.49356,3.92199c-1.22898,0.39056 -2.69152,-1.66089 -3.75439,-0.99187c-3.06344,1.92829 -5.50516,-0.59825 -6.2626,-3.39921c-0.69778,-2.5803 2.44346,-3.13613 4.42965,-3.2436c0.84262,-0.04559 -0.37302,-1.51203 -0.13939,-2.22621c0.44453,-1.35892 1.93488,-2.02313 3.43283,-1.93841c1.80371,0.10201 2.81834,0.87568 4.46376,1.52882c0.25157,0.09985 1.85655,-0.81552 2.13782,-0.88138c0.72552,-0.16993 2.37464,1.12372 2.18404,0.48444c-1.50599,-5.05152 4.16333,-6.19458 8.35379,-3.70778c0.82075,0.48707 1.74358,-0.89846 2.71756,-1.0537c0.48558,-0.0774 2.49239,0.7555 3.50759,0.82597c1.01749,0.07064 2.08179,1.64087 2.8298,1.02956c1.33076,-1.08753 1.90242,-5.04321 2.15646,-5.18252c1.47288,-0.80769 2.34662,-1.46231 3.94886,-0.64429c1.15847,0.59146 2.19316,2.79164 3.25502,2.07323c0.60568,-0.40979 0.51385,-2.02958 1.59809,-2.49943c2.05771,-0.89168 4.83679,0.62362 6.44903,1.35764c0.36224,0.16494 0.77059,0.9485 0.9826,0.64178c0.66259,-0.95849 -0.04565,-2.33317 1.18229,-3.18639c0.71264,-0.49518 3.60345,-0.14335 3.66129,-0.19787c0.68816,-0.6486 0.51544,-2.01367 1.58739,-2.49395c3.23677,-1.45022 4.85403,1.50339 6.77021,3.22938c0.31574,0.28441 0.81506,-0.39645 1.26545,-0.427c0.73528,-0.04988 1.92006,1.41108 2.03245,0.76944c0.08554,-0.48839 0.00783,-1.87227 0.21072,-2.99972c0.02359,-0.29031 0.10274,-0.56569 0.22771,-0.81854c0.06029,-0.14385 0.13048,-0.27374 0.21234,-0.38514z" fill="#ba587e" stroke="none" stroke-width="0.5"/></g><g data-paper-data="{&quot;index&quot;:null}" stroke="#000000"><path d="M247.1238,114.07289c18.78479,1.02207 32.3906,24.95812 30.38942,53.46267c-2.0012,28.50455 -18.55986,42.36224 -37.34466,41.34017c-18.78479,-1.02208 -32.68234,-16.53687 -30.68113,-45.04142c2.0012,-28.50455 18.85159,-50.78349 37.63637,-49.76142z" fill="#f0f0f0" stroke-width="2"/><path d="M276.8503,166.66765c-2.0012,28.50455 -18.55986,42.36224 -37.34466,41.34017c-18.78479,-1.02208 27.26366,-32.38974 24.3639,-60.83436c-4.1922,-41.12251 14.98196,-9.01035 12.98077,19.49419z" fill="#9a99ff" stroke-width="0"/></g><path d="M264.83216,145.28721c6.55777,0.3568 10.97509,13.44806 9.86638,29.24014c-1.1087,15.79208 -7.32359,28.30484 -13.88135,27.94804c-6.55777,-0.3568 -10.97509,-13.44807 -9.86638,-29.24014c1.1087,-15.79208 7.32359,-28.30484 13.88135,-27.94804z" data-paper-data="{&quot;index&quot;:null}" fill="#000000" stroke="none" stroke-width="0"/><g data-paper-data="{&quot;index&quot;:null}" stroke="#000000"><path d="M217.27141,134.16583c5.50155,-9.46841 12.88537,-20.89409 30.69708,-19.92497c17.81172,0.96913 19.74712,13.36804 24.0088,22.7661c4.47897,9.87727 -35.11618,49.61816 -52.92789,48.64904c-17.81172,-0.96913 -7.55079,-41.55492 -1.77798,-51.49016z" fill="#a100fe" stroke-width="2"/><path d="M218.34411,133.86928c5.33725,-9.47734 10.92922,1.42312 28.13361,2.35921c17.20438,0.93608 20.61276,-9.00853 24.70727,0.38045c4.30328,9.86771 -34.78755,48.76481 -51.99195,47.82874c-17.20438,-0.93609 -6.44934,-40.62376 -0.84894,-50.56838z" fill="#99008e" stroke-width="0"/></g><g data-paper-data="{&quot;index&quot;:null}" stroke="#000000"><path d="M205.62732,165.77289c-2.0012,28.50456 -17.96314,42.39471 -36.74793,41.37264c-18.78481,-1.02208 -33.27906,-16.56934 -31.27784,-45.07389c2.0012,-28.50455 18.85157,-50.78349 37.63637,-49.76142c18.78481,1.02207 32.39061,24.95812 30.38942,53.46267z" fill="#f0f0f0" stroke-width="2"/><path d="M153.98958,143.34354c-6.85648,27.91378 34.4539,64.03461 15.66909,63.01253c-18.78481,-1.02208 -33.27906,-16.56935 -31.27784,-45.07389c2.0012,-28.50455 25.5212,-58.29372 15.60877,-17.93864z" fill="#9a99ff" stroke-width="0"/></g><path d="M197.94722,175.49245c-1.1087,15.79208 -7.32359,28.30484 -13.88134,27.94804c-6.55777,-0.3568 -10.97509,-13.44806 -9.86639,-29.24014c1.1087,-15.79208 7.32359,-28.30484 13.88135,-27.94804c6.55777,0.3568 10.97509,13.44806 9.86638,29.24014z" data-paper-data="{&quot;index&quot;:null}" fill="#000000" stroke="none" stroke-width="0"/><g data-paper-data="{&quot;index&quot;:null}" stroke="#000000"><path d="M202.05256,135.48637c4.33914,10.48542 8.30376,52.85505 -9.50795,51.88592c-17.81172,-0.96913 -51.00549,-45.68025 -45.179,-54.99681c5.54384,-8.86455 9.19882,-20.95928 27.01055,-19.99015c17.81172,0.96913 23.54114,13.10829 27.6764,23.10104z" fill="#a100fe" stroke-width="2"/><path d="M201.02949,135.07579c4.16674,10.47604 9.07242,52.28966 -8.13196,51.35357c-17.20438,-0.93609 -50.3408,-45.03688 -44.69,-54.36298c5.37666,-8.87365 7.36807,1.36476 24.57246,2.30084c17.20438,0.93608 24.27852,-9.27523 28.24948,0.70856z" fill="#99008e" stroke-width="0"/></g><path d="M303.40549,178.02435c-0.07936,5.61764 -8.17485,12.32524 -14.17753,12.25952c-6.00268,-0.06572 -0.77551,-7.49445 -0.69614,-13.11209c0.07936,-5.61764 -1.85411,-9.50379 4.14856,-9.43807c6.00268,0.06572 10.80447,4.67299 10.7251,10.29062z" fill="#000000" stroke="none" stroke-width="0"/></g></g></g></g></svg>