<svg version="1.1" xmlns="http://www.w3.org/2000/svg" xmlns:xlink="http://www.w3.org/1999/xlink" width="248.28806" height="330.16004" viewBox="0,0,248.28806,330.16004"><g transform="translate(-138.11779,-0.41806)"><g data-paper-data="{&quot;isPaintingLayer&quot;:true}" fill-rule="nonzero" stroke-linejoin="miter" stroke-miterlimit="10" stroke-dasharray="" stroke-dashoffset="0" style="mix-blend-mode: normal"><g data-paper-data="{&quot;index&quot;:null}" stroke="#000000" stroke-linecap="butt"><path d="M298.86371,329.13374v-90.27109h61.17899v90.27109z" fill="#273750" stroke-width="2"/><path d="M299.65105,328.37717v-90.27109l18.42709,49.31565l42.75189,40.95544z" fill="#1f1e2e" stroke-width="0"/></g><g data-paper-data="{&quot;index&quot;:null}" stroke="#000000" stroke-linecap="butt"><path d="M246.25776,329.57809v-90.27109h61.17899v90.27109z" fill="#273750" stroke-width="2"/><path d="M247.04514,328.82151v-90.27109l18.42709,49.31565l42.75189,40.95544z" fill="#1f1e2e" stroke-width="0"/></g><g data-paper-data="{&quot;index&quot;:null}" stroke="#000000" stroke-linecap="butt"><path d="M139.18328,128.74561l51.24735,-3.02283l3.42705,50.89645l-51.24735,3.02283z" fill="#ffcaa0" stroke-width="2"/><g><path d="M190.20496,125.23748l70.6645,-4.16815l3.4717,51.55983l-70.6645,4.16815z" fill="#ff0008" stroke-width="2"/><path d="M193.40012,176.06857c0,0 -1.1394,-16.92154 -1.70454,-25.31499c-0.55918,-8.30462 -1.66866,-24.78205 -1.66866,-24.78205l37.01199,-2.18315c0,0 -14.1623,18.90548 -13.61583,27.02126c0.57636,8.5596 16.98905,23.07577 16.98905,23.07577l-37.01198,2.18315z" fill="#8d005e" stroke-width="0"/></g><path d="M139.71057,127.92225l19.06089,36.86523l35.61351,11.00839l-51.24735,3.02283z" fill="#ff6e5b" stroke-width="0"/></g><g data-paper-data="{&quot;index&quot;:null}" stroke="#000000" stroke-linecap="butt"><path d="M214.25893,12.94228c15.66287,0 28.36014,26.10753 28.36014,58.3128c0,32.20527 -12.69726,58.3128 -28.36014,58.3128c-15.66287,0 -28.36014,-26.10753 -28.36014,-58.3128c0,-32.20527 12.69726,-58.3128 28.36014,-58.3128z" fill="#01930e" stroke-width="2"/><path d="M242.1897,70.82092c0,32.20527 -12.69727,58.3128 -28.36014,58.3128c-15.66286,0 18.9812,-35.72183 18.9812,-67.9271c0,-32.20527 9.37894,-22.59097 9.37894,9.6143z" fill="#31525b" stroke-width="0"/></g><path d="M234.49106,238.45138v-113.80147h121.58856v113.80147z" data-paper-data="{&quot;index&quot;:null}" fill="#ff0008" stroke="#000000" stroke-width="2" stroke-linecap="butt"/><g data-paper-data="{&quot;index&quot;:null}" fill="#000000" stroke="#000000" stroke-linecap="butt"><path d="M261.98104,237.98216v-111.68333h65.36529v111.68333z" stroke-width="2"/><path d="M261.1398,237.04613l45.67728,-50.67005l19.688,-61.01328v111.68333z" stroke-width="0"/></g><g data-paper-data="{&quot;index&quot;:null}" stroke="#000000" stroke-linecap="butt"><path d="M375.46799,69.68581c0,11.10283 -1.52138,36.61614 -7.88005,45.77754c-14.34957,20.67445 -44.81306,19.6932 -77.48059,19.6932c-30.89657,0 -65.69226,3.15028 -80.67573,-15.70582c-7.879,-9.91539 -4.68491,-37.30378 -4.68491,-49.76492c0,-3.48625 -1.13185,-26.29915 -0.44756,-29.63798c6.41293,-31.29064 43.2102,-35.83276 85.80822,-35.83276c45.34875,0 81.54577,2.48597 84.30385,36.73529c0.10915,1.35538 1.05681,27.359 1.05681,28.73546z" fill="#ffcaa0" stroke-width="2"/><path d="M377.42678,69.69599c0,11.10283 -1.52138,36.61614 -7.88005,45.77754c-14.34957,20.67445 -44.81306,19.6932 -77.48059,19.6932c-30.89656,0 -66.38964,3.04149 -81.37312,-15.81461c-3.16773,-3.98647 67.27569,21.27155 107.28717,4.08965c51.05664,-21.92495 56.82281,-101.94005 58.38981,-82.48122c0.10915,1.35538 1.05681,27.359 1.05681,28.73546z" fill="#ff6e5b" stroke-width="0"/></g><g data-paper-data="{&quot;index&quot;:null}" stroke="#000000" stroke-linecap="butt"><path d="M355.37242,10.86837c15.66287,0 28.36014,26.10753 28.36014,58.3128c0,32.20527 -12.69726,58.3128 -28.36014,58.3128c-15.66287,0 -28.36014,-26.10753 -28.36014,-58.3128c0,-32.20527 12.69726,-58.3128 28.36014,-58.3128z" fill="#01930e" stroke-width="2"/><path d="M383.3032,68.747c0,32.20527 -12.69727,58.3128 -28.36014,58.3128c-15.66286,0 18.9812,-35.72183 18.9812,-67.9271c0,-32.20527 9.37894,-22.59097 9.37894,9.6143z" fill="#31525b" stroke-width="0"/></g><g data-paper-data="{&quot;index&quot;:null}" stroke-linecap="butt"><path d="M187.22138,32.39605c0,-17.66096 44.19049,-31.97799 98.7022,-31.97799c54.51173,0 98.70219,14.31702 98.70219,31.97798c0,17.66095 -44.19048,31.97799 -98.70219,31.97799c-54.51173,0 -98.7022,-14.31703 -98.7022,-31.97799z" fill="#000000" stroke="none" stroke-width="NaN"/><path d="M285.1731,41.58933c54.51173,0 100.23275,-26.50996 100.23275,-8.849c0,17.66095 -44.19048,31.97799 -98.70219,31.97799c-54.51173,0 -98.7022,-14.31703 -98.7022,-31.97799c0,-17.66096 42.65993,8.849 97.17165,8.849z" fill="#ff0000" stroke="#000000" stroke-width="2"/><path d="M285.57053,57.6233c54.51173,0 92.18075,-21.10222 94.74922,-16.87826c2.48684,4.08974 -14.23574,12.67227 -41.47536,18.15612c-14.6725,2.95385 -32.66748,4.58573 -51.7433,5.08703c-54.51173,1.43253 -93.34529,-17.19078 -93.34529,-22.05092c0,-4.86014 37.303,15.68603 91.81473,15.68603z" fill="#900056" stroke="#000000" stroke-width="0"/></g><path d="M289.19492,92.15725c0,-15.71752 3.10386,-28.45909 6.93267,-28.45909c3.82881,0 6.93267,12.74156 6.93267,28.45908c0,15.71751 -3.10386,28.45908 -6.93267,28.45908c-3.82882,0 -6.93267,-12.74157 -6.93267,-28.45909z" data-paper-data="{&quot;index&quot;:null}" fill="#000000" stroke="none" stroke-width="0" stroke-linecap="butt"/><path d="M262.08712,66.02882c3.62729,0 6.5678,12.6906 6.5678,28.34525c0,15.65465 -2.94049,28.34525 -6.5678,28.34525c-3.62729,0 -6.5678,-12.6906 -6.5678,-28.34525c0,-15.65465 2.94049,-28.34525 6.5678,-28.34525z" data-paper-data="{&quot;index&quot;:null}" fill="#000000" stroke="none" stroke-width="0" stroke-linecap="butt"/><path d="M308.03158,65.41555h-32.05281" data-paper-data="{&quot;index&quot;:null}" fill="none" stroke="#000000" stroke-width="5" stroke-linecap="round"/><path d="M267.13391,68.95035l-24.92996,-4.52381" data-paper-data="{&quot;index&quot;:null}" fill="none" stroke="#000000" stroke-width="5" stroke-linecap="round"/><path d="M325.82683,114.41365c3.41822,5.29115 3.78658,10.9402 0.82276,12.6175c-2.96381,1.6773 -8.13749,-1.2523 -11.5557,-6.54345c-3.41822,-5.29115 -3.78658,-10.9402 -0.82276,-12.6175c2.96381,-1.6773 8.13749,1.2523 11.5557,6.54345z" fill="#000000" stroke="none" stroke-width="0" stroke-linecap="butt"/><g data-paper-data="{&quot;index&quot;:null}" stroke="#000000" stroke-linecap="butt"><path d="M247.07936,136.61561l50.99622,-5.62423l6.3763,50.64702l-50.99622,5.62423z" fill="#ffcaa0" stroke-width="2"/><g><path d="M297.82207,130.51827l70.31819,-7.7552l6.45941,51.30715l-70.31819,7.7552z" fill="#ff0008" stroke-width="2"/><path d="M303.96303,181.11182c0,0 -2.11993,-16.83861 -3.17146,-25.19093c-1.0404,-8.26393 -3.10468,-24.6606 -3.10468,-24.6606l36.83061,-4.06195c0,0 -13.044,19.5977 -12.02725,27.6737c1.07235,8.51765 18.3034,22.17782 18.3034,22.17782l-36.83059,4.06195z" fill="#8d005e" stroke-width="0"/></g><path d="M247.55807,135.76666l21.17261,35.84156l36.1999,9.18123l-50.99622,5.62423z" fill="#ff6e5b" stroke-width="0"/></g></g></g></svg>