<svg version="1.1" xmlns="http://www.w3.org/2000/svg" xmlns:xlink="http://www.w3.org/1999/xlink" width="287.46753" height="287.46753" viewBox="0,0,287.46753,287.46753"><defs><radialGradient cx="228.1894" cy="142.45455" r="86.5" gradientUnits="userSpaceOnUse" id="color-1"><stop offset="0" stop-color="#f36dc4"/><stop offset="1" stop-color="#f36dc4" stop-opacity="0"/></radialGradient><radialGradient cx="199.1894" cy="177.95455" r="86.5" gradientUnits="userSpaceOnUse" id="color-2"><stop offset="0" stop-color="#f36dc4"/><stop offset="1" stop-color="#f36dc4" stop-opacity="0"/></radialGradient><radialGradient cx="233.6894" cy="218.45455" r="86.5" gradientUnits="userSpaceOnUse" id="color-3"><stop offset="0" stop-color="#f36dc4"/><stop offset="1" stop-color="#f36dc4" stop-opacity="0"/></radialGradient><radialGradient cx="264.6894" cy="176.95455" r="86.5" gradientUnits="userSpaceOnUse" id="color-4"><stop offset="0" stop-color="#f36dc4"/><stop offset="1" stop-color="#f36dc4" stop-opacity="0"/></radialGradient></defs><g transform="translate(-96.26623,-36.26623)"><g data-paper-data="{&quot;isPaintingLayer&quot;:true}" fill-rule="nonzero" stroke="none" stroke-width="0" stroke-linecap="butt" stroke-linejoin="miter" stroke-miterlimit="10" stroke-dasharray="" stroke-dashoffset="0" style="mix-blend-mode: normal"><path d="M96.26623,323.73376v-287.46753h287.46753v287.46753z" fill="none"/><g><path d="M168.06708,177.8968c0,-17.11667 14.57621,-30.6012 30.54439,-42.48814c21.82277,-16.24518 46.89609,-27.98804 46.89609,-27.98804l25.78618,28.43768l-24.9271,17.94286l59.97425,4.45279l1.62225,41.07798l-60.20153,1.88894l27.31984,27.08135l-31.57389,25.03507c0,0 -39.21036,-26.58426 -60.8706,-49.90104c-9.62186,-10.35772 -14.56987,-18.51799 -14.56987,-25.53944zM243.09088,246.44839c1.01606,0 24.8223,-21.23571 24.8223,-21.23571c0,0 -26.65563,-21.09084 -26.65563,-25.59762c0,-0.15838 -2.07744,-2.79562 2.07195,-3.75479c3.57743,-0.82696 20.41387,0.5056 27.62706,0.64011c17.91049,0.33399 30.72657,1.02956 30.63356,-0.38746c-0.01192,-0.18164 0.84579,-2.58705 1.18409,-6.41559c0.59356,-6.71733 0.09454,-16.51788 -0.99999,-19.45166c-0.64321,-1.72406 -1.18277,-7.14274 -1.94475,-8.25098c-0.78111,-1.13604 -7.26015,-1.04707 -17.03426,-1.28628c-11.97337,-0.29304 -29.91129,-0.36393 -38.126,-1.48443c-2.82633,-0.38551 -3.32617,-1.18915 -3.63587,-1.76889c-1.18552,-2.2192 7.98816,-6.3543 14.64834,-11.21679c5.49512,-4.01189 9.93289,-8.21635 9.93289,-8.21635c0,0 -19.28597,-24.51388 -20.52368,-24.40689c-2.78344,0.24061 -45.22972,25.324 -64.64296,45.04728c-1.13285,1.15094 -5.86357,8.69003 -5.19428,20.03425c0.58883,9.9804 6.45979,18.64006 8.72147,20.80022c16.57318,15.82925 57.55903,46.95157 59.11576,46.95157z" fill="#ffffff"/><path d="M164.21589,171.17062c0.11879,-3.50269 6.3911,-17.50525 19.3766,-29.1746c3.4126,-3.06671 6.74579,-6.76012 10.58814,-9.75609c20.88639,-16.28558 46.73678,-29.43071 49.61859,-29.52765c0.80346,-0.02702 5.63673,-1.06656 9.19834,2.94728c8.04846,9.0704 20.32255,28.71026 21.48138,32.01282c0.12941,0.36882 -1.2098,3.21113 -4.35821,6.25754c-3.79282,3.66995 -9.78436,7.38611 -9.82519,7.68098c-0.24805,1.79131 44.6061,-1.54591 45.08702,1.05971c0.04867,0.26366 4.83071,2.22155 6.91492,7.30509c0.97512,2.3784 2.65114,5.16051 3.25615,8.84993c1.28801,7.85444 0.49938,23.91176 -0.88707,30.56181c-0.57478,2.7569 -6.62797,5.13763 -8.98571,6.28583c-2.67066,1.30059 -44.43363,-0.35778 -48.85244,0.71922c-0.69246,0.16878 13.6461,9.17272 18.92683,15.63785c1.46687,1.79587 2.37664,5.12082 2.20052,6.03463c-1.60233,8.31399 -31.85841,30.05203 -36.03154,29.68896c-4.9068,-0.4269 -34.91268,-23.96654 -55.87248,-42.88382c-5.26279,-4.74993 -10.8419,-11.52279 -14.6827,-17.50833c-3.30035,-5.14329 -5.63362,-9.49429 -6.24004,-10.9074c-2.51917,-5.8703 -0.98032,-13.30187 -0.91311,-15.28377zM242.88851,249.84919c1.5175,0 25.59008,-20.05496 25.85725,-21.46663c0.2944,-1.55551 -12.96156,-8.82326 -23.06136,-20.1071c-1.38337,-1.54555 -6.33297,-7.08463 -4.29469,-9.62736c2.29317,-2.86071 12.25906,-1.29452 15.14459,-1.62431c2.56694,-0.29338 27.03114,2.15003 40.15401,1.76901c4.05084,-0.11762 7.92571,-0.89209 8.58813,-1.60466c0.79066,-0.85051 2.277,-13.60549 1.3812,-23.46332c-1.09589,-12.0598 -6.25482,-12.16436 -6.63147,-14.27691c-0.22297,-1.2506 -57.07175,-0.97686 -58.12777,-1.55465c-1.52532,-0.83457 -0.63352,-4.28237 0.30583,-5.18134c2.36037,-2.2589 9.64462,-7.27706 15.18097,-10.57137c5.5643,-3.31094 9.37483,-4.89492 9.36044,-5.91041c-0.06375,-4.50011 -19.28472,-26.09524 -20.85714,-26.09524c-1.17809,0 -20.9721,11.11169 -40.28562,25.01682c-10.41386,7.49765 -21.36077,15.04662 -27.8023,23.41314c-4.61828,5.99841 -6.45005,14.6162 -6.34065,18.42719c0.07301,2.54344 1.1603,9.69291 4.3101,15.058c6.34676,10.81045 63.42744,57.79915 67.11847,57.79915z" fill="#3c1f56"/><g><path d="M141.6894,142.45455c0,-47.77263 38.72737,-86.5 86.5,-86.5c47.77263,0 86.5,38.72737 86.5,86.5c0,47.77263 -38.72737,86.5 -86.5,86.5c-47.77263,0 -86.5,-38.72737 -86.5,-86.5z" fill="url(#color-1)"/><path d="M112.6894,177.95455c0,-47.77263 38.72737,-86.5 86.5,-86.5c47.77263,0 86.5,38.72737 86.5,86.5c0,47.77263 -38.72737,86.5 -86.5,86.5c-47.77263,0 -86.5,-38.72737 -86.5,-86.5z" fill="url(#color-2)"/><path d="M147.1894,218.45455c0,-47.77263 38.72737,-86.5 86.5,-86.5c47.77263,0 86.5,38.72737 86.5,86.5c0,47.77263 -38.72737,86.5 -86.5,86.5c-47.77263,0 -86.5,-38.72737 -86.5,-86.5z" fill="url(#color-3)"/><path d="M178.1894,176.95455c0,-47.77263 38.72737,-86.5 86.5,-86.5c47.77263,0 86.5,38.72737 86.5,86.5c0,47.77263 -38.72737,86.5 -86.5,86.5c-47.77263,0 -86.5,-38.72737 -86.5,-86.5z" fill="url(#color-4)"/></g><path d="M242.89114,249.89915c-3.69103,0 -60.82347,-47.0293 -67.17023,-57.83975c-3.1498,-5.36509 -4.23792,-12.52611 -4.31094,-15.06955c-0.1094,-3.81099 1.72512,-12.44304 6.3434,-18.44146c6.44153,-8.36652 17.40567,-15.93903 27.81953,-23.43668c19.31352,-13.90513 39.14228,-25.02658 40.32037,-25.02658c1.57242,0 20.8154,21.93601 20.87915,26.43612c0.0287,2.02587 -24.32641,14.46567 -24.74014,16.74039c-0.23266,1.27921 -2.15906,4.79703 0.457,5.16552c1.19199,0.1679 57.36129,-0.24585 57.58426,1.00475c0.37665,2.11255 5.538,2.22848 6.63389,14.28828c0.8958,9.85783 -0.59194,22.63003 -1.3826,23.48054c-0.66242,0.71257 -4.53816,1.48999 -8.589,1.60761c-13.12287,0.38102 -37.59892,-2.0429 -40.16586,-1.74952c-2.88553,0.32979 -12.88125,-1.22178 -15.17442,1.63893c-2.03828,2.54273 3.39341,7.81696 4.77678,9.36251c10.0998,11.28384 22.89388,18.80946 22.59948,20.36496c-0.26717,1.41167 -24.36317,21.47389 -25.88067,21.47389z" data-paper-data="{&quot;noHover&quot;:false,&quot;origItem&quot;:[&quot;Path&quot;,{&quot;applyMatrix&quot;:true,&quot;segments&quot;:[[[468.26192,506.02382],[0,0],[3.035,0]],[[519.97642,463.09056],[-0.53434,2.82334],[0.5888,-3.11102]],[[474.8537,422.54302],[20.1996,22.56768],[-2.76674,-3.0911]],[[465.26432,403.62164],[-4.07656,5.08546],[4.58634,-5.72142]],[[495.5535,400.37302],[-5.77106,0.65958],[5.13388,-0.58676]],[[575.86152,403.91104],[-26.24574,0.76204],[8.10168,-0.23524]],[[593.03778,400.70172],[-1.32484,1.42514],[1.58132,-1.70102]],[[595.80018,353.77508],[1.7916,19.71566],[-2.19178,-24.1196]],[[582.53724,325.22126],[0.7533,4.2251],[-0.44594,-2.5012]],[[467.44836,323.27862],[2.38398,0.3358],[-5.23212,-0.73698]],[[466.56002,312.74928],[-0.46532,2.55842],[0.82746,-4.54944]],[[515.97618,279.4524],[0.0574,4.05174],[-0.1275,-9.00022]],[[474.2619,226.59526],[3.14484,0],[-2.35618,0]],[[393.69066,276.6289],[38.62704,-27.81026],[-20.82772,14.9953]],[[338.08606,323.45518],[12.88306,-16.73304],[-9.23656,11.99682]],[[325.40476,360.30956],[-0.2188,-7.62198],[0.14602,5.08688]],[[334.02496,390.42556],[-6.2996,-10.73018],[12.69352,21.6209]],[[468.2619,506.02386],[-7.38206,0],[0,0]]],&quot;closed&quot;:true,&quot;fillColor&quot;:[0,0,0],&quot;strokeWidth&quot;:0}]}" fill="#ffffff"/></g></g></g></svg>