<svg version="1.1" xmlns="http://www.w3.org/2000/svg" xmlns:xlink="http://www.w3.org/1999/xlink" width="217.83415" height="310.6146" viewBox="0,0,217.83415,310.6146"><g transform="translate(-189.32651,-19.96351)"><g data-paper-data="{&quot;isPaintingLayer&quot;:true}" fill-rule="nonzero" stroke-linecap="butt" stroke-linejoin="miter" stroke-miterlimit="10" stroke-dasharray="" stroke-dashoffset="0" style="mix-blend-mode: normal"><g data-paper-data="{&quot;index&quot;:null}" stroke="#000000"><path d="M273.3389,227.84367l25.14994,-40.30825l52.55903,21.71727l-25.14994,40.30825z" fill="#ffcaa0" stroke-width="2"/><g><path d="M298.22231,187.61546l34.67901,-55.58068l53.24408,22.00034l-34.67901,55.58068z" fill="#0000c0" stroke-width="2"/><path d="M298.87747,188.11033l18.16384,-29.11152c0,0 8.38186,18.67341 17.22105,22.32575c8.38088,3.46297 34.51245,-0.94958 34.51245,-0.94958l-18.16384,29.11153c0,0 -17.01567,-7.03084 -25.59157,-10.57438c-8.66763,-3.58144 -26.14193,-10.80178 -26.14193,-10.80178z" fill="#56006b" stroke-width="0"/></g><path d="M274.43866,227.72385l25.14994,-40.30825l-3.56235,32.89148l30.97144,29.13404z" fill="#ff6e5b" stroke-width="0"/></g><g data-paper-data="{&quot;index&quot;:null}" stroke="#000000"><path d="M406.16065,86.59424c0,30.29292 -13.73637,54.8502 -30.68105,54.8502c-16.94468,0 -30.68105,-24.55727 -30.68105,-54.8502c0,-30.29292 13.73637,-54.8502 30.68105,-54.8502c16.94468,0 30.68105,24.55727 30.68105,54.8502z" fill="#01930e" stroke-width="2"/><path d="M355.40955,77.14245c0,30.29292 37.47923,63.8936 20.53456,63.8936c-16.94467,0 -30.68105,-24.55727 -30.68105,-54.8502c0,-30.29292 10.14649,-39.33632 10.14649,-9.0434z" fill="#31525b" stroke-width="0"/></g><g data-paper-data="{&quot;index&quot;:null}" stroke="#000000"><path d="M282.13998,329.16013v-84.91082h70.71459v84.91082z" fill="#273750" stroke-width="2"/><path d="M283.05004,328.44848v-84.91082l21.29921,46.3873l49.41536,38.52351z" fill="#1f1e2e" stroke-width="0"/></g><path d="M222.05272,243.86245v-107.04396h131.53903v107.04396z" data-paper-data="{&quot;index&quot;:null}" fill="#0000c0" stroke="#000000" stroke-width="2"/><g data-paper-data="{&quot;index&quot;:null}" stroke="#000000"><path d="M221.33466,329.57811v-84.91082h70.71459v84.91082z" fill="#273750" stroke-width="2"/><path d="M222.24476,328.86643v-84.91082l21.29921,46.3873l49.41536,38.52351z" fill="#1f1e2e" stroke-width="0"/></g><g data-paper-data="{&quot;index&quot;:null}" stroke="#000000"><path d="M253.13747,243.42109v-105.05159h70.71459v105.05159z" fill="#ffffff" stroke-width="2"/><path d="M254.04757,242.54064v-105.05159l21.29921,57.39032l49.41536,47.66128z" fill="#8ebbfc" stroke-width="0"/></g><g data-paper-data="{&quot;index&quot;:null}" stroke="#000000"><path d="M201.07767,85.11817c0,-1.29473 1.0252,-25.75425 1.14329,-27.02916c2.98379,-32.2156 42.14306,-34.55396 91.20304,-34.55396c46.08411,0 85.89277,4.27241 92.83052,33.70501c0.74029,3.14057 -0.48419,24.59885 -0.48419,27.87808c0,11.7212 3.45548,37.48327 -5.06832,46.80989c-16.2097,17.73643 -53.85295,14.77321 -87.27801,14.77321c-35.34096,0 -68.29748,0.92298 -83.82139,-18.52382c-6.87906,-8.6174 -8.52493,-32.61573 -8.52493,-43.05928z" fill="#ffcaa0" stroke-width="2"/><path d="M198.95855,85.12775c0,-1.29473 1.0252,-25.75425 1.14329,-27.02916c1.69525,-18.30337 7.93329,56.96045 63.16827,77.5835c43.28591,16.16165 119.49422,-7.59656 116.06724,-3.84681c-16.2097,17.73643 -54.60741,14.87554 -88.03247,14.87554c-35.34096,0 -68.29748,0.92298 -83.82139,-18.52382c-6.87906,-8.6174 -8.52493,-32.61573 -8.52493,-43.05928z" fill="#ff6e5b" stroke-width="0"/></g><g data-paper-data="{&quot;index&quot;:null}" stroke="#000000"><path d="M253.49884,84.64349c0,30.29292 -13.73637,54.8502 -30.68105,54.8502c-16.94468,0 -30.68105,-24.55727 -30.68105,-54.8502c0,-30.29292 13.73637,-54.8502 30.68105,-54.8502c16.94468,0 30.68105,24.55727 30.68105,54.8502z" fill="#01930e" stroke-width="2"/><path d="M202.74773,75.19169c0,30.29292 37.47923,63.8936 20.53456,63.8936c-16.94467,0 -30.68105,-24.55727 -30.68105,-54.8502c0,-30.29292 10.14649,-39.33632 10.14649,-9.0434z" fill="#31525b" stroke-width="0"/></g><g data-paper-data="{&quot;index&quot;:null}"><path d="M404.72983,50.04264c0,16.61225 -47.80691,30.07914 -106.77971,30.07914c-58.97282,0 -106.7797,-13.4669 -106.7797,-30.07914c0,-16.61225 47.8069,-30.07913 106.7797,-30.07913c58.97282,0 106.77971,13.46689 106.77971,30.07914z" fill="#000000" stroke="none" stroke-width="NaN"/><path d="M403.88592,50.36648c0,16.61225 -47.80691,30.07914 -106.77971,30.07914c-58.97282,0 -106.7797,-13.4669 -106.7797,-30.07914c0,-16.61225 49.46271,8.32354 108.4355,8.32354c58.97282,0 105.12391,-24.93581 105.12391,-8.32354z" fill="#ff0000" stroke="#000000" stroke-width="2"/><path d="M397.66067,59.01732c0,4.57155 -42.01158,22.08901 -100.9844,20.74154c-20.63692,-0.47153 -40.10457,-2.00651 -55.97782,-4.78496c-29.46883,-5.15823 -47.55994,-13.23112 -44.86959,-17.07801c2.77865,-3.97314 43.53043,15.87604 102.50322,15.87604c58.97282,0 99.3286,-19.32615 99.3286,-14.7546z" fill="#900056" stroke="#000000" stroke-width="0"/></g><path d="M323.30767,108.42589c0,14.78421 -3.35786,26.76919 -7.50002,26.76919c-4.14216,0 -7.50002,-11.98498 -7.50002,-26.76918c0,-14.78421 3.35787,-26.76918 7.50002,-26.76918c4.14216,0 7.50002,11.98498 7.50002,26.76919z" data-paper-data="{&quot;index&quot;:null}" fill="#000000" stroke="none" stroke-width="0"/><path d="M353.07073,104.36088c0,14.72508 -3.18115,26.66212 -7.10528,26.66212c-3.92415,0 -7.10528,-11.93703 -7.10528,-26.66212c0,-14.72508 3.18115,-26.66212 7.10528,-26.66212c3.92415,0 7.10528,11.93703 7.10528,26.66212z" data-paper-data="{&quot;index&quot;:null}" fill="#000000" stroke="none" stroke-width="0"/><g data-paper-data="{&quot;index&quot;:null}" stroke="#000000"><path d="M308.04834,230.79636l-49.26437,-20.89006l27.23911,-42.54038l49.26437,20.89006z" fill="#ffcaa0" stroke-width="2"/><g><path d="M258.87954,210.12404l-67.93017,-28.8051l27.59415,-43.09485l67.93017,28.8051z" fill="#0000c0" stroke-width="2"/><path d="M259.49451,209.59613l-35.57982,-15.08726c0,0 23.03351,-6.62389 27.6145,-13.77819c4.34346,-6.78335 -0.80323,-28.09402 -0.80323,-28.09402l35.57983,15.08727c0,0 -8.8185,13.7722 -13.26302,20.71338c-4.49206,7.01543 -13.54825,21.15883 -13.54825,21.15883z" fill="#56006b" stroke-width="0"/></g><path d="M307.91271,229.9002l-49.26437,-20.89006l40.37833,3.24533l36.12515,-24.89564z" fill="#ff6e5b" stroke-width="0"/></g><path d="M280.26268,118.86874c-0.47638,0.69876 -0.68941,1.51829 -0.14426,2.31738c0.39456,0.57832 2.24246,1.69727 2.67656,2.04567c1.76645,1.4177 4.82678,3.85752 5.49628,5.92646c0.84327,2.60587 -1.5286,5.23023 -4.49349,5.72655c-0.62129,0.10401 -3.99064,-0.07314 -4.25405,-0.11812c-2.38817,-0.40775 -4.95916,-1.39082 -7.19792,-2.17499c-5.84654,-4.30006 -6.75691,-15.43678 0.73401,-19.06115c4.40091,-2.12931 9.2979,-0.43319 7.95577,4.13909l-0.31983,0.68772c0,0 -0.13909,0.29009 -0.45311,0.51137z" fill="#000000" stroke="none" stroke-width="0.5"/></g></g></svg>