<svg version="1.1" xmlns="http://www.w3.org/2000/svg" xmlns:xlink="http://www.w3.org/1999/xlink" width="219.38116" height="307.65528" viewBox="0,0,219.38116,307.65528"><g transform="translate(-244.17927,-22.92283)"><g data-paper-data="{&quot;isPaintingLayer&quot;:true}" fill-rule="nonzero" stroke-linejoin="miter" stroke-miterlimit="10" stroke-dasharray="" stroke-dashoffset="0" style="mix-blend-mode: normal"><g data-paper-data="{&quot;index&quot;:null}" stroke="#000000" stroke-linecap="butt"><path d="M298.86371,329.13374v-90.27109h61.17899v90.27109z" fill="#273750" stroke-width="2"/><path d="M299.65105,328.37717v-90.27109l18.42709,49.31565l42.75189,40.95544z" fill="#1f1e2e" stroke-width="0"/></g><g data-paper-data="{&quot;index&quot;:null}" stroke="#000000" stroke-linecap="butt"><path d="M246.25776,329.57811v-90.27109h61.17899v90.27109z" fill="#273750" stroke-width="2"/><path d="M247.04514,328.82151v-90.27109l18.42709,49.31565l42.75189,40.95544z" fill="#1f1e2e" stroke-width="0"/></g><g data-paper-data="{&quot;index&quot;:null}" stroke="#000000" stroke-linecap="butt"><path d="M429.77063,265.45726l-39.8038,-29.22842l32.35821,-40.48248l39.8038,29.22842z" fill="#ffcaa0" stroke-width="2"/><g><path d="M390.01013,236.4711l-54.88509,-40.3028l32.77997,-41.01013l54.88509,40.3028z" fill="#ff0008" stroke-width="2"/><path d="M390.65792,236.01006l-28.74719,-21.10941c0,0 21.74657,-3.49878 27.18846,-10.30699c5.15974,-6.4552 4.6615,-29.53965 4.6615,-29.53965l28.74719,21.10942c0,0 -10.47577,13.10596 -15.75557,19.71137c-5.33627,6.67606 -16.0944,20.13527 -16.0944,20.13527z" fill="#8d005e" stroke-width="0"/></g><path d="M429.82151,264.49856l-39.8038,-29.22842l35.27944,9.42482l36.88256,-20.67888z" fill="#ff6e5b" stroke-width="0"/></g><g data-paper-data="{&quot;index&quot;:null}" stroke="#000000" stroke-linecap="butt"><path d="M456.58107,108.47609c-4.63574,31.89729 -20.67409,56.11554 -35.82266,54.09299c-15.14857,-2.02256 -23.67089,-29.52002 -19.03515,-61.41731c4.63574,-31.89729 20.67409,-56.11554 35.82266,-54.09299c15.14857,2.02256 23.67089,29.52002 19.03515,61.41731z" fill="#01930e" stroke-width="2"/><path d="M412.65591,92.46594c-4.63574,31.89729 23.72882,71.75111 8.58026,69.72856c-15.14856,-2.02256 -23.67089,-29.52002 -19.03515,-61.41731c4.63574,-31.89729 15.09064,-40.20854 10.4549,-8.31125z" fill="#31525b" stroke-width="0"/></g><path d="M245.43177,237.43365l32.93124,-109.33663l114.07328,31.56384l-32.93124,109.33663z" data-paper-data="{&quot;index&quot;:null}" fill="#ff0008" stroke="#000000" stroke-width="2" stroke-linecap="butt"/><g data-paper-data="{&quot;index&quot;:null}" fill="#000000" stroke="#000000" stroke-linecap="butt"><path d="M272.52486,244.44187l32.31831,-107.30159l61.32512,16.96853l-32.31831,107.30159z" stroke-width="2"/><path d="M273.58498,243.76095l32.31831,-107.30159l0.81542,63.73043l28.19138,60.5397z" stroke-width="0"/></g><g data-paper-data="{&quot;index&quot;:null}" stroke="#000000" stroke-linecap="butt"><path d="M273.46242,82.44265c0.19814,-1.3633 4.85773,-26.99587 5.15839,-28.32419c7.59748,-33.56564 42.96378,-31.35369 86.82347,-25.49778c41.19927,5.50071 76.13447,14.75105 77.83273,46.57056c0.18121,3.39526 -4.19724,25.84384 -4.69907,29.29675c-1.7937,12.34197 -2.64689,39.8809 -11.69443,48.68405c-17.2057,16.74095 -50.40538,9.12761 -80.28744,5.13792c-31.59487,-4.21838 -61.19931,-7.18028 -72.10174,-29.50999c-4.83116,-9.89489 -2.6301,-35.36067 -1.03192,-46.35732z" fill="#ffcaa0" stroke-width="2"/><path d="M271.56647,82.1998c0.19814,-1.3633 4.85773,-26.99587 5.15839,-28.32419c4.31652,-19.07039 -1.62431,60.9241 44.5999,89.23235c36.22444,22.18429 107.99053,6.26422 104.35298,9.80352c-17.2057,16.74095 -51.09553,9.1453 -80.97758,5.15561c-31.59487,-4.21838 -61.19931,-7.18028 -72.10174,-29.50999c-4.83116,-9.89489 -2.6301,-35.36067 -1.03192,-46.35732z" fill="#ff6e5b" stroke-width="0"/></g><g data-paper-data="{&quot;index&quot;:null}" stroke="#000000" stroke-linecap="butt"><path d="M320.39968,88.19993c-4.63574,31.89729 -20.67409,56.11554 -35.82266,54.09299c-15.14857,-2.02256 -23.67089,-29.52002 -19.03515,-61.41731c4.63574,-31.89729 20.67409,-56.11554 35.82266,-54.09299c15.14857,2.02256 23.67089,29.52002 19.03515,61.41731z" fill="#01930e" stroke-width="2"/><path d="M276.47451,72.18979c-4.63574,31.89729 23.72882,71.75111 8.58026,69.72856c-15.14856,-2.02256 -23.67089,-29.52002 -19.03515,-61.41731c4.63574,-31.89729 15.09064,-40.20854 10.4549,-8.31125z" fill="#31525b" stroke-width="0"/></g><g data-paper-data="{&quot;index&quot;:null}" stroke-linecap="butt"><path d="M460.89542,69.81787c-2.54218,17.49207 -47.34248,25.96584 -100.06427,18.9267c-52.72178,-7.03913 -93.40038,-26.9256 -90.85819,-44.41766c2.54218,-17.49207 47.34247,-25.96583 100.06426,-18.92669c52.72178,7.03913 93.40039,26.92559 90.8582,44.41766z" fill="#000000" stroke="none" stroke-width="NaN"/><path d="M460.09141,70.05813c-2.54218,17.49207 -47.34248,25.96584 -100.06427,18.9267c-52.72178,-7.03913 -93.40038,-26.9256 -90.85819,-44.41766c2.54218,-17.49207 42.94598,14.66836 95.66776,21.70749c52.72178,7.03913 97.79688,-13.70861 95.2547,3.78346z" fill="#ff0000" stroke="#000000" stroke-width="2"/><path d="M453.20218,78.42406c-0.69959,4.81366 -40.93872,18.24427 -93.4543,9.78631c-18.37729,-2.95978 -35.54649,-6.89976 -49.31202,-11.72003c-25.55582,-8.94888 -40.4939,-19.60873 -37.50003,-23.33823c3.09214,-3.8519 36.48674,21.91274 89.20854,28.95188c52.72178,7.03913 91.7574,-8.49359 91.05782,-3.67993z" fill="#900056" stroke="#000000" stroke-width="0"/></g><path d="M379.16947,121.57444c-2.26243,15.56721 -7.09844,27.78613 -10.80153,27.29171c-3.70309,-0.49442 -4.87097,-13.51494 -2.60852,-29.08214c2.26243,-15.56721 7.09845,-27.78612 10.80153,-27.2917c3.70309,0.49442 4.87097,13.51494 2.60852,29.08215z" data-paper-data="{&quot;index&quot;:null}" fill="#000000" stroke="none" stroke-width="0" stroke-linecap="butt"/><path d="M406.39976,120.84674c-2.25339,15.50494 -6.92407,27.69447 -10.43225,27.22608c-3.50819,-0.4684 -4.5254,-13.41734 -2.27201,-28.92228c2.25339,-15.50494 6.92407,-27.69447 10.43225,-27.22608c3.50819,0.4684 4.5254,13.41734 2.27201,28.92228z" data-paper-data="{&quot;index&quot;:null}" fill="#000000" stroke="none" stroke-width="0" stroke-linecap="butt"/><path d="M386.26238,95.52157l-31.00033,-4.139" fill="none" stroke="#000000" stroke-width="5" stroke-linecap="round"/><path d="M395.98868,94.17583l24.76254,-1.26133" fill="none" stroke="#000000" stroke-width="5" stroke-linecap="round"/><g data-paper-data="{&quot;index&quot;:null}" stroke="#000000" stroke-linecap="butt"><path d="M357.20433,239.67553l-43.2531,-24.31276l26.91618,-43.99059l43.2531,24.31276z" fill="#ffcaa0" stroke-width="2"/><g><path d="M314.02529,215.5981l-59.64129,-33.52463l27.26699,-44.56397l59.64129,33.52463z" fill="#ff0008" stroke-width="2"/><path d="M314.60898,215.06417l-31.23835,-17.55921c0,0 21.13227,-6.03653 25.65894,-13.43473c4.29196,-7.01459 0.83446,-29.86492 0.83446,-29.86492l31.23836,17.55921c0,0 -8.71395,14.24169 -13.10578,21.41951c-4.4388,7.25459 -13.38762,21.88014 -13.38762,21.88014z" fill="#8d005e" stroke-width="0"/></g><path d="M357.13178,238.71813l-43.2531,-24.31276l36.22118,5.19311l33.94809,-24.87094z" fill="#ff6e5b" stroke-width="0"/></g><path d="M347.04787,136.83333c0,5.98308 -2.95837,10.83333 -6.6077,10.83333c-3.64933,0 -6.6077,-4.85025 -6.6077,-10.83333c0,-5.98308 2.95837,-10.83333 6.6077,-10.83333c3.64933,0 6.6077,4.85025 6.6077,10.83333z" fill="#000000" stroke="none" stroke-width="0" stroke-linecap="butt"/></g></g></svg>