<svg version="1.1" xmlns="http://www.w3.org/2000/svg" xmlns:xlink="http://www.w3.org/1999/xlink" width="204.50365" height="339.15315" viewBox="0,0,204.50365,339.15315"><g transform="translate(-201.36103,-21.66272)"><g data-paper-data="{&quot;isPaintingLayer&quot;:true}" fill-rule="nonzero" stroke-linejoin="miter" stroke-miterlimit="10" stroke-dasharray="" stroke-dashoffset="0" style="mix-blend-mode: normal"><g stroke="#000000" stroke-linecap="butt"><path d="M354.15274,227.07762c24.18826,22.94008 39.28298,46.29602 33.715,52.16696c-5.56798,5.87094 -29.69019,-7.96634 -53.87845,-30.90642c-24.18826,-22.94008 -39.28298,-46.29602 -33.715,-52.16696c5.56798,-5.87094 29.69019,7.96634 53.87845,30.90643z" fill="#0d69be" stroke-width="2"/><path d="M396.92577,249.32403c10.38221,9.84646 10.6111,26.46164 0.51124,37.11105c-10.09986,10.6494 -26.70387,11.30032 -37.08608,1.45385c-10.38221,-9.84647 -10.6111,-26.46164 -0.51124,-37.11105c10.09986,-10.64941 26.70387,-11.30031 37.08608,-1.45385z" fill="#faddbf" stroke-width="2"/><path d="M361.11354,270.12624c10.38221,9.84647 46.07303,4.78274 35.97317,15.43215c-10.09986,10.6494 -26.70386,11.30031 -37.08608,1.45385c-10.38221,-9.84647 -9.26931,-26.73246 1.1129,-16.88599z" fill="#ef8b89" stroke-width="0"/></g><g stroke="#000000" stroke-linecap="butt"><path d="M347.17244,354.06232l-57.93711,-75.65985l23.4153,-17.93045l57.93712,75.65985z" fill="#73fffc" stroke-width="2"/><path d="M346.53812,353.76975l-55.96657,-75.26795c0,0 45.54153,50.91482 52.20084,57.67522c1.47217,1.49451 3.69876,0.68154 3.69876,0.68154l22.76097,-0.88063z" fill="#59a9e6" stroke-width="0"/></g><g stroke="#000000" stroke-linecap="butt"><path d="M251.67518,326.58483l36.09093,-88.19618l27.29506,11.16947l-36.09093,88.19619z" fill="#73fffc" stroke-width="2"/><path d="M251.60773,325.88955l36.74682,-86.29712c0,0 -20.98077,65.00891 -23.4576,74.1694c-0.54755,2.0251 1.27778,3.53731 1.27778,3.53731l12.24444,19.20705z" fill="#59a9e6" stroke-width="0"/></g><g stroke="#000000" stroke-linecap="butt"><path d="M335.22917,235.69586c0,13.80271 10.04743,36.74388 4.95001,46.45977c-6.2338,11.88187 -28.61241,9.09579 -38.9397,9.09579c-13.66287,0 -32.94407,4.17018 -38.34426,-14.83216c-2.01935,-7.10576 4.35457,-32.37264 4.35457,-40.7234c0,-30.68249 15.2177,-55.55556 33.98969,-55.55556c18.77199,0 33.98969,24.87307 33.98969,55.55556z" fill="#0d69be" stroke-width="2"/><path d="M283.96554,251.27246c0,13.80271 62.04198,20.54886 56.94455,30.26474c-6.2338,11.88186 -28.61241,9.09579 -38.9397,9.09579c-13.66287,0 -32.94406,4.17018 -38.34425,-14.83215c-2.01936,-7.10576 4.35457,-32.37265 4.35457,-40.7234c0,-9.45244 3.34855,-28.59801 5.51953,-29.96813c5.94391,-16.76415 10.4653,25.13995 10.4653,46.16315z" fill="#10157d" stroke-width="0"/></g><g stroke-linecap="butt"><g stroke="#000000"><g><path d="M206.56365,122.45977c-7.01999,-46.26119 24.79128,-89.45412 71.05247,-96.47412c46.26119,-7.02 89.45413,24.79128 96.47412,71.05247c7.01999,46.26119 -24.79128,89.45412 -71.05247,96.47412c-46.26119,7.01999 -89.45412,-24.79128 -96.47412,-71.05247z" fill="#faddbf" stroke-width="2"/><path d="M206.66135,121.56548c-2.25859,-14.88389 2.40641,-41.84583 6.38219,-45.70011c0.45404,-0.44017 4.38413,-9.67757 10.81184,-17.44638c7.9892,-9.6561 18.79958,-18.18269 19.433,-18.0795c8.26425,1.34637 -7.59802,66.75036 -2.5789,91.56817c0.01197,0.05919 7.31338,18.81734 8.97939,19.00847c3.56435,4.25589 11.88137,17.56968 23.71075,22.99649c22.04544,10.11348 51.34051,12.11466 49.94988,12.8372c-2.22451,1.1558 -14.21974,4.95853 -20.21402,5.86814c-46.26119,7.01999 -89.45412,-24.79128 -96.47412,-71.05247z" fill="#ef8b89" stroke-width="0"/><path d="M373.50398,96.66364c1.74399,11.49277 0.78655,15.70041 -0.03706,13.95247c-0.84024,-1.78322 -1.6569,-9.67454 -11.13805,-13.12679c-2.29747,-0.83655 -9.14913,7.73626 -12.03012,6.93124c-1.8096,-0.50565 -10.08085,-8.76229 -12.0743,-9.14356c-1.39378,-0.26658 -11.05231,10.15063 -12.50362,9.91505c-3.61964,-0.58754 -13.55918,-9.44619 -17.36666,-9.53396c-2.09666,-0.04833 -7.39992,13.10834 -9.52315,13.17378c-2.73818,0.0844 -11.76528,-10.42125 -14.47169,-10.01056c-7.19745,1.09219 -6.3433,8.05363 -10.62072,14.7777c-2.77957,4.36947 -15.78825,-10.80548 -18.2113,-5.95182c-3.00914,6.02768 -6.00957,11.85349 -9.66255,16.04865c-2.86589,3.29127 -14.72772,-7.97757 -17.17842,-4.95794c-11.83263,14.57961 -18.87483,23.74425 -21.60114,5.7781c-5.48209,-36.12657 41.56543,-14.61495 79.64638,-42.16174c36.4507,-26.36751 81.29031,-21.81718 86.77241,14.30939z" fill="#ef8b89" stroke-width="0"/></g><path d="M373.77361,88.21669c3.52319,23.21755 7.76532,7.63671 -11.46607,0.86983c-2.35336,-0.82807 -9.41492,7.77659 -12.36695,6.98235c-1.85422,-0.49888 -10.30617,-8.7281 -12.34946,-9.1018c-1.42863,-0.26129 -11.37655,10.19983 -12.86431,9.96979c-3.71053,-0.57375 -13.87139,-9.39881 -17.77655,-9.47176c-2.15046,-0.04018 -7.64166,13.14503 -9.81982,13.2188c-2.80901,0.09514 -12.0275,-10.38145 -14.80519,-9.95995c-7.38704,1.12096 -6.53808,8.08319 -10.95192,14.82795c-2.86822,4.38291 -16.15255,-10.7502 -18.65695,-5.88419c-3.11016,6.043 -6.21061,11.884 -9.97403,16.09592c-2.95254,3.30442 -15.07576,-7.92476 -17.60134,-4.89376c-12.19425,14.63448 -19.4536,23.83207 -22.17991,5.86592c-5.48209,-36.12657 27.22052,-86.31783 72.62754,-93.20821c45.40701,-6.89037 92.7029,28.56256 98.185,64.68913z" fill="#873412" stroke-width="2"/><path d="M373.35423,87.10423c3.52319,23.21755 7.76533,7.63672 -11.46606,0.86983c-2.35336,-0.82807 -9.41493,7.77659 -12.36696,6.98235c-1.85422,-0.49888 -10.30617,-8.7281 -12.34947,-9.1018c-1.42863,-0.26129 -11.37655,10.19983 -12.86431,9.96979c-3.71053,-0.57375 -13.87139,-9.39881 -17.77656,-9.47176c-2.15046,-0.04018 -7.64166,13.14503 -9.81982,13.2188c-2.80901,0.09514 -12.02749,-10.38145 -14.80518,-9.95995c-7.38704,1.12096 -6.53809,8.08319 -10.95193,14.82795c-2.86822,4.38291 -16.15254,-10.7502 -18.65694,-5.88419c-3.11016,6.043 -6.21061,11.884 -9.97404,16.09592c-2.95254,3.30442 -15.07576,-7.92476 -17.60135,-4.89376c-12.19425,14.63448 -19.45359,23.83207 -22.1799,5.86592c-5.48209,-36.12657 42.69274,-14.78601 81.86182,-42.49792c37.49225,-26.52556 83.46861,-22.14773 88.9507,13.97884z" fill="#741d23" stroke-width="0"/></g><path d="M279.49629,33.43406c0.08165,0.10457 0.15474,0.22846 0.22038,0.36703c0.13202,0.24209 0.22585,0.51018 0.27231,0.79751c0.27797,1.10715 0.33266,2.49164 0.45101,2.97142c0.15549,0.63032 1.06472,-0.91744 1.71389,-0.9252c0.39766,-0.00476 0.89589,0.6344 1.14752,0.32644c1.52704,-1.8689 2.68302,-4.93722 5.64994,-3.74562c0.98258,0.39463 0.95228,1.76781 1.61328,2.36007c0.05557,0.04978 2.55919,-0.52651 3.22802,-0.08897c1.15245,0.75391 0.65344,2.17851 1.31951,3.08145c0.21313,0.28894 0.50164,-0.52343 0.80464,-0.71603c1.34855,-0.8571 3.65095,-2.58356 5.53442,-1.85618c0.99244,0.38327 1.05568,2.00385 1.62315,2.36469c0.99486,0.6326 1.70686,-1.63973 2.6702,-2.31937c1.33236,-0.93999 2.1566,-0.35621 3.51981,0.3332c0.23512,0.11891 1.08747,4.01431 2.35089,4.99358c0.71017,0.55045 1.50403,-1.09675 2.38997,-1.24661c0.88394,-0.14952 2.56973,-1.13592 3.00236,-1.09676c0.86784,0.07853 1.80001,1.38649 2.47647,0.83721c3.45377,-2.8044 8.52643,-2.10882 7.65422,3.04044c-0.11037,0.65165 1.22085,-0.76575 1.87213,-0.65318c0.25248,0.04364 1.74108,0.82998 1.9528,0.71086c1.38484,-0.77911 2.20586,-1.629 3.77842,-1.87154c1.30599,-0.20143 2.67177,0.34371 3.18217,1.66253c0.26824,0.6931 -0.66756,2.24874 0.07536,2.22831c1.75116,-0.04814 4.55493,0.26006 4.17209,2.88469c-0.41557,2.84909 -2.33239,5.55644 -5.18976,3.87512c-0.99136,-0.58333 -2.09175,1.57428 -3.20407,1.2813c-1.42496,-0.37533 -2.42876,-2.53767 -2.53461,-3.71169c-0.04892,-0.54271 -1.00502,0.53079 -1.54985,0.52003c-0.73352,-0.01447 -1.23604,-1.04173 -1.96761,-0.98634c-1.63637,0.12389 -0.8534,3.43305 -4.81396,3.23849c-1.16901,-0.05743 -2.81473,-1.77884 -3.35469,-2.80741c-0.31344,-0.59707 1.03282,-2.83663 0.86072,-2.9173c-0.4179,-0.19589 -1.49957,3.08736 -1.89986,3.29188c-0.96299,0.49202 -2.18064,-0.05317 -3.22824,-0.32142c-0.92556,-0.23699 -0.85673,2.04157 -1.79194,2.23709c-0.82621,0.17273 -9.31994,0.92625 -9.72693,0.47926c-0.4962,-0.54494 -1.06953,-1.5784 -1.02008,-2.30371c0.01777,-0.26067 0.68856,-1.9668 0.51207,-1.91963c-0.62637,0.16736 -3.62469,4.02912 -6.25774,1.13733c-1.43183,-1.57253 0.42136,-3.70361 0.1809,-5.30986c-0.1485,-0.99194 -0.84498,1.82283 -1.17632,2.76952c-0.25449,0.72713 -1.22292,1.50581 -1.98488,1.6467c-2.63446,0.48714 -2.28729,-2.15604 -3.0702,-3.56896c-0.36131,-0.65205 -1.47062,0.82514 -2.16604,0.55659c-1.70028,-0.65663 -1.64207,-1.8433 -2.00809,-3.33747c-0.1676,-0.68415 -0.13514,2.76675 -1.73615,3.17815c-0.64929,0.16684 -1.84612,-0.67805 -2.01095,-0.02824c-0.80246,3.16364 0.07655,4.25622 -3.74872,4.35011c-0.36913,0.00906 -0.84728,0.93335 -1.26948,0.77029c-4.6728,-1.80461 -2.04054,-7.71257 -2.52123,-11.69362c-0.16956,-1.40429 -1.4019,-3.35524 -0.29298,-4.23333c0.31941,-0.79375 1.03827,-1.40281 1.94545,-1.54047c0.80436,-0.12206 1.57729,0.15373 2.11893,0.68016c0.08522,0.06492 0.16295,0.13991 0.23135,0.2275z" fill="#ba587e" stroke="none" stroke-width="0.5"/></g><g stroke="#000000" stroke-linecap="butt"><path d="M305.79433,133.96314c4.28468,28.23569 -6.52456,44.77513 -22.90557,47.2609c-16.38101,2.48577 -32.13064,-10.02345 -36.41532,-38.25914c-4.28468,-28.23569 5.52134,-53.14036 21.90235,-55.62613c16.38101,-2.48577 33.13387,18.38867 37.41854,46.62437z" fill="#f0f0f0" stroke-width="2"/><path d="M256.62987,121.61713c-0.01812,28.55893 43.14416,56.20486 26.76315,58.69063c-16.38101,2.48577 -32.13064,-10.02345 -36.41532,-38.25913c-4.28468,-28.23569 9.67835,-61.71927 9.65217,-20.43149z" fill="#9a99ff" stroke-width="0"/></g><path d="M303.17921,142.68748c2.37379,15.64312 -0.3377,29.02786 -6.05629,29.89565c-5.71859,0.86778 -12.27878,-11.11002 -14.65257,-26.75314c-2.37379,-15.64312 0.3377,-29.02786 6.05629,-29.89564c5.71859,-0.86778 12.27878,11.11001 14.65257,26.75314z" fill="#000000" stroke="none" stroke-width="0" stroke-linecap="butt"/><g stroke="#000000" stroke-linecap="butt"><path d="M296.33564,105.01994c5.94376,9.44498 18.54336,49.06888 3.01092,51.42588c-15.53244,2.357 -53.77921,-34.13334 -50.72841,-44.32158c2.90279,-9.69396 3.49942,-22.19515 19.03187,-24.55215c15.53244,-2.357 23.02113,8.44667 28.68561,17.44785z" fill="#a100fe" stroke-width="2"/><path d="M295.36869,104.80838c5.79342,9.46779 18.74658,48.15851 3.74375,50.43514c-15.00282,2.27663 -52.73248,-33.41265 -49.83489,-43.57764c2.75701,-9.67184 6.62833,-0.03279 21.63116,-2.30942c15.00282,-2.27663 18.93876,-13.57101 24.45996,-4.54809z" fill="#99008e" stroke-width="0"/></g><g data-paper-data="{&quot;index&quot;:null}" stroke="#000000" stroke-linecap="butt"><path d="M331.25352,79.96632c16.38101,-2.48577 33.13387,18.38867 37.41854,46.62437c4.28468,28.23569 -7.04492,44.8541 -23.42593,47.33987c-16.38101,2.48577 -31.61028,-10.10241 -35.89496,-38.3381c-4.28468,-28.23569 5.52133,-53.14036 21.90234,-55.62613z" fill="#f0f0f0" stroke-width="2"/><path d="M367.91868,125.86524c4.28468,28.23569 -7.04492,44.85409 -23.42593,47.33986c-16.38101,2.48577 16.63669,-36.72024 8.14702,-63.98814c-12.27355,-39.42133 10.99424,-11.58742 15.27891,16.64828z" fill="#9a99ff" stroke-width="0"/></g><path d="M340.41991,113.21134c5.77656,-0.29451 11.11246,12.27656 11.91807,28.07824c0.80561,15.80168 -3.22413,28.85023 -9.00069,29.14474c-5.77656,0.2945 -11.11246,-12.27656 -11.91808,-28.07824c-0.80561,-15.80169 3.22413,-28.85023 9.0007,-29.14474z" data-paper-data="{&quot;index&quot;:null}" fill="#000000" stroke="none" stroke-width="0" stroke-linecap="butt"/><g data-paper-data="{&quot;index&quot;:null}" stroke="#000000" stroke-linecap="butt"><path d="M309.79769,105.14614c2.73916,-10.27641 6.68568,-22.81533 22.21812,-25.17233c15.53244,-2.357 19.81085,9.40442 25.45881,17.80083c5.93593,8.82453 -19.2022,55.95277 -34.73464,58.30977c-15.53244,2.357 -15.8165,-40.15518 -12.94229,-50.93825z" fill="#a100fe" stroke-width="2"/><path d="M310.65835,104.65725c2.59589,-10.25467 9.70526,-0.63638 24.70808,-2.91301c15.00282,-2.27663 15.84032,-12.63023 21.34249,-4.21171c5.78272,8.84779 -19.35928,55.36362 -34.3621,57.64025c-15.00282,2.27663 -14.41235,-39.75526 -11.68848,-50.51552z" fill="#99008e" stroke-width="0"/></g><path d="M216.4264,334.22647c1.51965,-11.56337 14.88253,-8.00599 32.64094,-5.67219c14.20846,1.86726 28.82161,-7.08287 32.55995,-1.02767c0.93402,1.51288 -0.58823,12.83977 -0.89202,15.15131c-1.51965,11.56337 -17.1476,19.04542 -34.90601,16.71162c-17.75841,-2.3338 -30.92252,-13.59968 -29.40287,-25.16305z" data-paper-data="{&quot;index&quot;:null}" fill="#000082" stroke="#000000" stroke-width="2" stroke-linecap="butt"/><path d="M250.2394,329.2831c14.20846,1.86726 26.31227,-5.37381 30.38061,-1.82963c1.01647,0.88551 -0.48444,12.05007 -0.64875,13.30039c-0.82198,6.25463 -13.35742,7.59014 -31.11583,5.25634c-17.75841,-2.3338 -31.02479,-7.99232 -30.20281,-14.24696c0.82198,-6.25463 13.82838,-4.81394 31.58678,-2.48014z" data-paper-data="{&quot;index&quot;:null}" fill="#2e0048" stroke="#000000" stroke-width="0" stroke-linecap="butt"/><g><g><path d="M314.76215,253.52766c-12.1372,8.96165 -23.73264,8.09212 -33.15546,-3.49751c-7.36972,-9.06435 -4.97,-27.0161 7.16722,-35.97776c12.13724,-8.96172 26.74505,-7.62905 35.61744,4.38718c1.38748,1.87911 2.11025,4.02511 2.78873,5.97895c3.65991,10.54019 -2.17871,21.5489 -12.4179,29.10914z" fill="#0000c4" stroke="#000000" stroke-width="2" stroke-linecap="butt"/><path d="M281.49823,225.74211c0,0 3.05396,4.87896 5.05726,4.89156c19.21612,0.12097 31.10016,-7.36152 34.84189,-10.13627c0.85013,-0.63042 0.74088,-1.74796 0.74088,-1.74796c0,0 1.42722,1.55922 2.5395,4.06457c1.18358,2.66591 2.04918,6.37464 1.78571,9.43662c-0.30099,3.49764 -3.1317,11.33954 -3.1317,11.33954l-14.70588,14.91964c0,0 -13.42526,-0.84701 -15.40856,-1.72078c-1.94298,-0.85598 -3.99659,-2.42614 -6.24727,-4.00771c-3.49449,-2.45565 -6.0709,-6.19314 -6.9726,-8.92842c-1.15073,-3.49085 -1.10667,-8.15453 -0.41128,-11.90672c0.64719,-3.4921 1.91211,-6.20398 1.91211,-6.20398z" fill="#2e006f" stroke="none" stroke-width="0" stroke-linecap="butt"/><path d="M297.84405,243.90748c0,0 -6.74642,-5.99033 -7.72128,-11.05292c-1.23411,-6.40869 -0.03809,-19.31884 -0.03809,-19.31884" fill="none" stroke="#000000" stroke-width="1" stroke-linecap="round"/><path d="M318.98003,213.86107c0,0 2.93917,6.51851 3.71962,10.74495c0.78796,4.26677 -0.9267,13.8173 -0.9267,13.8173" fill="none" stroke="#000000" stroke-width="1" stroke-linecap="round"/><path d="M291.20767,252.6433c0,0 -7.01696,-6.04555 -7.8232,-11.57717c-1.23713,-8.48809 -0.65266,-20.07058 -0.65266,-20.07058" fill="none" stroke="#000000" stroke-width="1" stroke-linecap="round"/><path d="M279.11585,243.29524c0,0 4.76634,-16.63602 21.20532,-22.40698c18.00681,-6.32135 27.98723,7.74569 27.98723,7.74569" fill="none" stroke="#000000" stroke-width="1" stroke-linecap="round"/><path d="M283.70027,251.64319c0,0 7.65092,-16.07252 22.14604,-21.19612c11.90181,-4.20693 21.41695,6.85568 21.41695,6.85568" fill="none" stroke="#000000" stroke-width="1" stroke-linecap="round"/><path d="M304.13528,212.99821c-1.19859,0.10288 -2.23621,-0.58294 -2.31764,-1.53178c-0.0815,-0.94887 0.7095,-1.03995 1.90808,-1.14282c1.19859,-0.10288 2.35082,-0.17858 2.43227,0.77027c0.0815,0.94887 -0.82415,1.80148 -2.0227,1.90432z" fill="#8fbbbe" stroke="none" stroke-width="0" stroke-linecap="butt"/><path d="M311.39627,213.3686c-0.48388,0.35726 -1.31057,0.05852 -1.84648,-0.66728c-0.53592,-0.72581 -0.65452,-1.09614 -0.17066,-1.45343c0.48388,-0.35726 1.45661,-0.16635 1.9925,0.55947c0.53592,0.72581 0.50848,1.20398 0.02461,1.56124z" fill="#8fbbbe" stroke="none" stroke-width="0" stroke-linecap="butt"/><path d="M297.24806,213.65406c-0.77883,0.45553 -1.65628,0.40394 -1.95996,-0.11524c-0.30371,-0.51912 0.4049,-0.87128 1.18367,-1.32682c0.77883,-0.45553 1.33281,-0.84201 1.63652,-0.32284c0.30371,0.51912 -0.08145,1.30937 -0.86024,1.76488z" fill="#8fbbbe" stroke="none" stroke-width="0" stroke-linecap="butt"/><path d="M279.83337,229.90456c0,0 5.81284,-8.41965 12.11832,-12.62211c3.5749,-2.38257 7.54816,-3.24836 10.56783,-3.87101c2.67044,-0.55067 9.11502,0.75056 13.94413,2.25986c3.55541,1.1112 6.15078,2.5008 6.15078,2.5008" fill="none" stroke="#000000" stroke-width="0.5" stroke-linecap="round"/><path d="M305.88399,207.73656c0,0 5.94833,8.74044 7.14511,14.01158c1.00833,4.44105 -0.1405,15.33804 -0.1405,15.33804" fill="none" stroke="#000000" stroke-width="1" stroke-linecap="round"/><path d="M307.39156,239.1143c0,0 -5.34868,-8.05107 -6.82129,-12.32684c-2.58561,-7.50744 -1.23011,-17.82922 -1.23011,-17.82922" fill="none" stroke="#000000" stroke-width="1" stroke-linecap="round"/></g><g stroke="#000000" stroke-linecap="butt"><path d="M285.10064,256.84838c31.55881,-10.74058 39.48025,-5.2355 42.08718,2.42441c2.60694,7.65991 -20.8632,22.57647 -52.42202,33.31704c-31.55881,10.74058 -3.81703,-55.93688 -6.42397,-63.59678c1.76632,-6.87083 7.17549,-3.21864 10.03085,4.10277c3.52132,9.02901 4.03043,24.67062 6.72796,23.75256z" fill="#0d69be" stroke-width="2"/><path d="M304.91524,237.33604c13.54584,-4.61013 28.36035,2.91629 33.08912,16.81073c4.72878,13.89445 -2.41887,28.89537 -15.96471,33.50551c-13.54584,4.61013 -28.36035,-2.9163 -33.08912,-16.81075c-4.72878,-13.89445 2.41887,-28.89537 15.96472,-33.5055z" fill="#faddbf" stroke-width="2"/><path d="M306.6706,278.71437c13.54584,-4.61013 25.666,-38.55977 30.39477,-24.66532c4.72878,13.89445 -2.41887,28.89537 -15.96472,33.5055c-13.54584,4.61013 -27.9759,-4.23005 -14.43005,-8.84018z" fill="#ef8b89" stroke-width="0"/></g></g><g stroke="#000000" stroke-linecap="butt"><path d="M402.49782,334.31892c1.35955,11.58329 -11.95915,22.666 -29.74814,24.75392c-17.78899,2.08792 -33.31195,-5.60959 -34.6715,-17.19288c-0.27178,-2.31552 -1.6372,-13.66238 -0.68234,-15.1622c3.82175,-6.0029 18.3097,3.14852 32.54263,1.47797c17.78899,-2.08792 31.1998,-5.46011 32.55935,6.12317z" fill="#000082" stroke-width="2"/><path d="M400.30589,331.82515c0.73538,6.2654 -12.608,11.73987 -30.397,13.8278c-17.78899,2.08792 -30.30476,0.57914 -31.04014,-5.68626c-0.147,-1.25247 -1.49333,-12.43673 -0.46472,-13.30809c4.11698,-3.48756 16.11947,3.92026 30.3524,2.24971c17.78899,-2.08792 30.81407,-3.34856 31.54946,2.91684z" fill="#2e0048" stroke-width="0"/></g><path d="M236.48557,139.96455c-0.65849,6.37257 7.94376,24.6 2.2,24.6c-5.74376,0 -14.6,-5.3935 -14.6,-11.8c0,-6.4065 13,-18.6065 12.4,-12.8z" fill="#000000" stroke="none" stroke-width="0" stroke-linecap="butt"/></g></g></svg>