<svg version="1.1" xmlns="http://www.w3.org/2000/svg" xmlns:xlink="http://www.w3.org/1999/xlink" width="203.47755" height="320.86634" viewBox="0,0,203.47755,320.86634"><g transform="translate(-228.64892,-40.12105)"><g data-paper-data="{&quot;isPaintingLayer&quot;:true}" fill-rule="nonzero" stroke-linejoin="miter" stroke-miterlimit="10" stroke-dasharray="" stroke-dashoffset="0" style="mix-blend-mode: normal"><g stroke="#000000" stroke-linecap="butt"><path d="M339.4155,223.97861c4.1334,33.07921 0.97544,60.70851 -7.0535,61.71176c-8.02894,1.00325 -17.88846,-24.99946 -22.02185,-58.07867c-4.1334,-33.07921 -0.97544,-60.70851 7.0535,-61.71176c8.02894,-1.00325 17.88846,24.99946 22.02185,58.07868z" fill="#0d69be" stroke-width="2"/><path d="M358.35132,268.31675c1.77416,14.19843 -8.59392,27.18379 -23.15776,29.00361c-14.56383,1.81981 -27.8084,-8.21503 -29.58256,-22.41347c-1.77415,-14.19844 8.59392,-27.18379 23.15776,-29.00361c14.56384,-1.81982 27.8084,8.21504 29.58256,22.41347z" fill="#faddbf" stroke-width="2"/><path d="M317.47359,261.664c1.77415,14.19844 32.5695,32.93671 18.00566,34.75653c-14.56383,1.81981 -27.80839,-8.21503 -29.58256,-22.41347c-1.77415,-14.19844 9.80273,-26.5415 11.57688,-12.34306z" fill="#ef8b89" stroke-width="0"/></g><g stroke="#000000" stroke-linecap="butt"><path d="M307.76518,340.83533v-95.29492h29.49199v95.29492z" fill="#73fffc" stroke-width="2"/><path d="M307.43943,340.21739l1.32626,-93.78573c0,0 5.20288,68.11227 6.3799,77.52842c0.2602,2.08162 2.52228,2.78987 2.52228,2.78987l18.60659,13.13896z" fill="#59a9e6" stroke-width="0"/></g><g stroke="#000000" stroke-linecap="butt"><path d="M268.4238,338.41279v-95.29492h29.49199v95.29492z" fill="#73fffc" stroke-width="2"/><path d="M268.09805,337.79487l1.32626,-93.78573c0,0 5.20288,68.11227 6.3799,77.52842c0.2602,2.08162 2.52228,2.78987 2.52228,2.78987l18.60659,13.13896z" fill="#59a9e6" stroke-width="0"/></g><g stroke="#000000" stroke-linecap="butt"><path d="M335.22917,235.69585c0,13.80271 10.04743,36.74388 4.95001,46.45977c-6.2338,11.88187 -28.61241,9.09579 -38.9397,9.09579c-13.66287,0 -32.94407,4.17018 -38.34426,-14.83216c-2.01935,-7.10576 4.35457,-32.37264 4.35457,-40.7234c0,-30.68249 15.2177,-55.55556 33.98969,-55.55556c18.77199,0 33.98969,24.87307 33.98969,55.55556z" fill="#0d69be" stroke-width="2"/><path d="M283.96554,251.27245c0,13.80271 62.04198,20.54886 56.94455,30.26474c-6.2338,11.88186 -28.61241,9.09579 -38.9397,9.09579c-13.66287,0 -32.94406,4.17018 -38.34425,-14.83215c-2.01936,-7.10576 4.35457,-32.37265 4.35457,-40.7234c0,-9.45244 3.34855,-28.59801 5.51953,-29.96813c5.94391,-16.76415 10.4653,25.13995 10.4653,46.16315z" fill="#10157d" stroke-width="0"/></g><g stroke-linecap="butt"><g stroke="#000000"><g><path d="M265.39565,97.50262c16.98057,-43.6009 66.09154,-65.18094 109.69244,-48.20038c43.6009,16.98057 65.18094,66.09154 48.20038,109.69244c-16.98057,43.6009 -66.09154,65.18094 -109.69244,48.20038c-43.6009,-16.98057 -65.18094,-66.09154 -48.20038,-109.69244z" fill="#faddbf" stroke-width="2"/><path d="M265.92624,96.77613c5.46326,-14.02798 22.9502,-35.07354 28.31827,-36.43224c0.61304,-0.15517 8.62552,-6.20294 18.07078,-9.73235c11.73982,-4.38682 25.36196,-6.38794 25.85957,-5.98267c6.49243,5.28761 -39.8678,54.07309 -47.89117,78.08851c-0.01914,0.05727 -3.04281,19.95794 -1.69395,20.95427c0.96772,5.46631 1.53896,21.15402 9.08728,31.75625c14.06716,19.75851 38.46333,36.09966 36.89763,36.03263c-2.50455,-0.10724 -14.79846,-2.79171 -20.44803,-4.99196c-43.6009,-16.98057 -65.18094,-66.09154 -48.20038,-109.69244z" fill="#ef8b89" stroke-width="0"/><path d="M422.967,158.37776c-4.21852,10.83187 -7.14638,14.00182 -6.9888,12.07599c0.16076,-1.9647 3.38745,-9.21235 -3.10984,-16.93215c-1.57442,-1.87066 -11.78805,2.14431 -13.88401,0.01003c-1.3165,-1.34058 -4.36956,-12.62173 -5.90745,-13.94617c-1.07526,-0.92601 -14.64159,3.28824 -15.78218,2.36042c-2.84467,-2.31405 -7.04371,-14.94885 -10.30039,-16.92333c-1.79335,-1.0873 -12.95029,7.67316 -14.8234,6.67126c-2.41563,-1.29209 -5.00253,-14.89962 -7.5533,-15.89304c-6.78356,-2.64189 -9.5141,3.81839 -16.57452,7.51432c-4.58802,2.40171 -8.2982,-17.23854 -12.81859,-14.23935c-5.61381,3.72463 -11.11942,7.27864 -16.37764,9.09379c-4.12526,1.42405 -8.78888,-14.25844 -12.41882,-12.86284c-17.52628,6.73836 -28.20016,11.17136 -21.60553,-5.76163c13.26056,-34.04908 43.31728,8.0557 90.06189,3.16432c44.74348,-4.682 81.34317,21.61931 68.08259,55.66839z" fill="#ef8b89" stroke-width="0"/></g><path d="M427.41236,151.19009c-8.52219,21.8824 2.92359,10.49153 -10.37287,-4.96296c-1.6271,-1.89117 -12.03856,2.04674 -14.20147,-0.11361c-1.35856,-1.35695 -4.58192,-12.70444 -6.16679,-14.04717c-1.10811,-0.9388 -14.94719,3.16923 -16.12212,2.22803c-2.93035,-2.34741 -7.33796,-15.06346 -10.68671,-17.07379c-1.84405,-1.10703 -13.17813,7.58444 -15.10302,6.56236c-2.48238,-1.31809 -5.24966,-14.99587 -7.86762,-16.01545c-6.96224,-2.71148 -9.69769,3.7469 -16.88667,7.39275c-4.67158,2.36916 -8.64154,-17.37226 -13.23863,-14.40293c-5.70902,3.68755 -11.3089,7.20484 -16.67121,8.97945c-4.20694,1.39226 -9.11691,-14.38619 -12.81742,-13.01807c-17.86712,6.60563 -28.74565,10.95892 -22.15102,-5.97407c13.26056,-34.04908 66.63355,-61.25109 109.42939,-44.58406c42.79584,16.66702 66.11675,70.98044 52.85618,105.02952z" fill="#873412" stroke-width="2"/><path d="M427.6035,150.01668c-8.52219,21.8824 2.92359,10.49153 -10.37287,-4.96296c-1.6271,-1.89117 -12.03856,2.04674 -14.20147,-0.11361c-1.35856,-1.35695 -4.58192,-12.70444 -6.16679,-14.04717c-1.10811,-0.9388 -14.94719,3.16923 -16.12212,2.22803c-2.93035,-2.34741 -7.33796,-15.06346 -10.68671,-17.07379c-1.84405,-1.10703 -13.17813,7.58444 -15.10302,6.56236c-2.48238,-1.31809 -5.24966,-14.99587 -7.86762,-16.01545c-6.96224,-2.71148 -9.69769,3.7469 -16.88667,7.39275c-4.67158,2.36916 -8.64154,-17.37226 -13.23863,-14.40293c-5.70902,3.68755 -11.3089,7.20484 -16.67122,8.97944c-4.20694,1.39226 -9.11691,-14.38619 -12.81742,-13.01807c-17.86712,6.60563 -28.74565,10.95892 -22.15102,-5.97407c13.26056,-34.04908 44.37976,8.4695 92.14994,3.97751c45.72513,-4.29969 83.39619,22.41887 70.13562,56.46795z" fill="#741d23" stroke-width="0"/></g><path d="M373.00414,56.69622c0.01864,0.13136 0.02022,0.27519 0.00803,0.42804c-0.00627,0.27567 -0.05861,0.55485 -0.1616,0.82708c-0.31107,1.09831 -0.95396,2.3257 -1.09058,2.80059c-0.17948,0.62392 1.38037,-0.2644 1.94696,0.05254c0.34707,0.19415 0.46028,0.99661 0.83195,0.85512c2.25552,-0.85865 4.78742,-2.942 6.76511,-0.42979c0.65498,0.832 -0.05596,2.0072 0.22172,2.85016c0.02335,0.07086 2.48091,0.8196 2.84252,1.53235c0.62309,1.22813 -0.51977,2.2142 -0.3926,3.329c0.04069,0.35673 0.69582,-0.20361 1.0545,-0.21948c1.59631,-0.07057 4.45292,-0.41916 5.72291,1.15045c0.66918,0.82706 -0.08402,2.26336 0.22797,2.8591c0.54697,1.0444 2.29713,-0.57033 3.47105,-0.67916c1.62361,-0.15051 2.04702,0.76649 2.88495,2.04379c0.14452,0.22031 -1.05887,4.02195 -0.45196,5.50075c0.34115,0.83123 1.85059,-0.20079 2.69327,0.11104c0.84078,0.31112 2.79389,0.2966 3.1494,0.54627c0.71311,0.50077 0.86901,2.09933 1.72925,1.96048c4.39211,-0.70891 8.44245,2.42326 5.119,6.45193c-0.42059,0.50985 1.44007,-0.05506 1.94849,0.36724c0.19711,0.16371 1.0954,1.58755 1.33831,1.58987c1.58889,0.01512 2.72432,-0.31223 4.20841,0.26159c1.23251,0.47656 2.14461,1.63008 1.92948,3.02777c-0.11306,0.73455 -1.69987,1.61644 -1.04571,1.96914c1.54197,0.83139 3.8187,2.4965 2.17821,4.58074c-1.78078,2.26248 -4.79222,3.65358 -6.43078,0.77148c-0.5685,-0.99994 -2.59814,0.3217 -3.41624,-0.48688c-1.04806,-1.03584 -0.84006,-3.41072 -0.34645,-4.48116c0.22818,-0.49483 -1.13583,-0.041 -1.60273,-0.32198c-0.62862,-0.37827 -0.55203,-1.51929 -1.21381,-1.83604c-1.48024,-0.7085 -2.45147,2.55037 -5.78762,0.40699c-0.9847,-0.63264 -1.55298,-2.94538 -1.50819,-4.1062c0.02599,-0.67383 2.30962,-1.94391 2.20066,-2.09966c-0.26458,-0.37817 -2.83923,1.92855 -3.28818,1.90625c-1.08007,-0.05365 -1.86373,-1.13335 -2.6381,-1.8882c-0.68414,-0.66692 -1.76056,1.34254 -2.66871,1.04574c-0.80232,-0.26221 -8.54066,-3.844 -8.67058,-4.43438c-0.15841,-0.71978 -0.14012,-1.90148 0.26439,-2.50555c0.14537,-0.21709 1.57752,-1.36157 1.401,-1.40869c-0.62641,-0.16723 -5.15091,1.68531 -5.99149,-2.13422c-0.4571,-2.07704 2.21188,-3.00032 2.8043,-4.51257c0.36585,-0.93389 -1.64133,1.15879 -2.40056,1.8142c-0.58315,0.50341 -1.81086,0.69555 -2.54161,0.43776c-2.52653,-0.89127 -0.9077,-3.00935 -0.88188,-4.62449c0.01192,-0.74537 -1.68621,-0.01799 -2.15511,-0.59751c-1.14647,-1.41695 -0.50434,-2.41657 -0.07662,-3.89427c0.19584,-0.67661 -1.49664,2.33094 -3.08957,1.88929c-0.64601,-0.17911 -1.26221,-1.50823 -1.72908,-1.02713c-2.27298,2.34225 -2.05579,3.7276 -5.41847,1.90172c-0.32448,-0.17619 -1.19981,0.3866 -1.48449,0.03476c-3.15076,-3.89414 2.07666,-7.70293 3.64493,-11.3935c0.5532,-1.30182 0.4577,-3.60743 1.85677,-3.81567c0.67263,-0.5288 1.59945,-0.69832 2.45445,-0.36534c0.7581,0.29525 1.2906,0.9197 1.49765,1.64607c0.0415,0.09877 0.07148,0.20253 0.0871,0.31256z" fill="#ba587e" stroke="none" stroke-width="0.5"/></g><g stroke="#000000" stroke-linecap="butt"><path d="M361.32156,169.38473c-10.36415,26.61198 -27.98049,35.55945 -43.4195,29.54666c-15.43901,-6.01279 -22.85425,-24.70893 -12.4901,-51.32089c10.36415,-26.61198 31.28175,-43.31091 46.72076,-37.29812c15.43901,6.01279 19.55299,32.46039 9.18884,59.07237z" fill="#f0f0f0" stroke-width="2"/><path d="M324.85985,134.16951c-14.25512,24.7468 9.37517,70.23184 -6.06383,64.21905c-15.43901,-6.01279 -22.85425,-24.70893 -12.4901,-51.32089c10.36415,-26.61198 39.16261,-48.67471 18.55392,-12.89815z" fill="#9a99ff" stroke-width="0"/></g><path d="M354.70475,175.64338c-5.74194,14.74356 -14.76596,24.99395 -20.15571,22.89489c-5.38974,-2.09906 -5.10423,-15.75271 0.63771,-30.49625c5.74194,-14.74356 14.76596,-24.99395 20.15571,-22.89489c5.38974,2.09906 5.10423,15.75271 -0.63771,30.49625z" fill="#000000" stroke="none" stroke-width="0" stroke-linecap="butt"/><g stroke="#000000" stroke-linecap="butt"><path d="M367.55346,139.57973c0.443,11.15077 -3.23735,34.0174 -17.87657,28.31608c-14.63924,-5.70132 -34.7531,-38.63929 -27.02873,-45.94967c7.34963,-6.95573 14.09987,-17.4947 28.73911,-11.79338c14.63924,5.70132 15.74399,18.80015 16.16619,29.42696z" fill="#a100fe" stroke-width="2"/><path d="M366.82076,138.91422c0.30131,11.09558 -2.97176,33.61138 -17.11184,28.10447c-14.14007,-5.50691 -33.84062,-37.77447 -26.26063,-45.1411c7.21223,-7.00922 5.76201,3.27645 19.90208,8.78337c14.14007,5.50691 23.18323,-2.32098 23.47037,8.25325z" fill="#99008e" stroke-width="0"/></g><g data-paper-data="{&quot;index&quot;:null}" stroke="#000000" stroke-linecap="butt"><path d="M411.89137,132.47245c15.43901,6.01279 19.55299,32.46039 9.18884,59.07237c-10.36415,26.61197 -28.47094,35.36844 -43.90994,29.35565c-15.43901,-6.01279 -22.36382,-24.51792 -11.99966,-51.1299c10.36415,-26.61198 31.28175,-43.31091 46.72076,-37.29812z" fill="#f0f0f0" stroke-width="2"/><path d="M420.78886,190.54034c-10.36415,26.61197 -28.47094,35.36844 -43.90994,29.35565c-15.43901,-6.01279 32.72987,-23.53531 38.96646,-51.40498c9.01627,-40.29129 15.30763,-4.56266 4.94348,22.04931z" fill="#9a99ff" stroke-width="0"/></g><path d="M412.97948,166.93657c5.38974,2.09906 5.10423,15.75271 -0.63771,30.49625c-5.74194,14.74356 -14.76596,24.99395 -20.15571,22.89489c-5.38974,-2.09906 -5.10423,-15.75271 0.63771,-30.49625c5.74194,-14.74356 14.76596,-24.99395 20.15571,-22.89489z" data-paper-data="{&quot;index&quot;:null}" fill="#000000" stroke="none" stroke-width="0" stroke-linecap="butt"/><g data-paper-data="{&quot;index&quot;:null}" stroke="#000000" stroke-linecap="butt"><path d="M380.73814,143.60134c7.49819,-7.54219 17.17104,-16.44363 31.81029,-10.74231c14.63924,5.70132 12.48369,18.02972 13.19308,28.12406c0.74557,10.60905 -35.15514,21.47717 -49.79437,15.77586c-14.63924,-5.70132 -3.07689,-25.24355 4.79099,-33.15761z" fill="#a100fe" stroke-width="2"/><path d="M381.72796,143.60667c7.36316,-7.59478 8.73013,4.28739 22.87021,9.7943c14.14007,5.50691 20.02833,-3.05035 20.60033,6.99048c0.60117,10.55281 -34.6767,20.89933 -48.81677,15.39241c-14.14007,-5.50691 -2.37997,-24.20795 5.34621,-32.17719z" fill="#99008e" stroke-width="0"/></g><path d="M371.63632,338.87001c0,11.6628 -14.51982,21.11737 -32.43092,21.11737c-17.9111,0 -32.43092,-9.45457 -32.43092,-21.11737c0,-2.33142 -0.03339,-13.76009 1.08979,-15.13837c4.49546,-5.51647 17.81784,5.26144 32.14847,5.26144c17.9111,0 31.62358,-1.78588 31.62358,9.87692z" fill="#000082" stroke="#000000" stroke-width="2" stroke-linecap="butt"/><path d="M369.75004,336.13771c0,6.30841 -13.89058,10.1901 -31.80169,10.1901c-17.9111,0 -30.16566,-2.95748 -30.16566,-9.26589c0,-1.26107 -0.03338,-12.52602 1.0898,-13.27153c4.49546,-2.98386 15.55258,5.7726 29.88321,5.7726c17.9111,0 30.99434,0.26631 30.99434,6.57472z" fill="#2e0048" stroke="#000000" stroke-width="0" stroke-linecap="butt"/><path d="M328.64938,338.2252c0,11.6628 -14.51982,21.11737 -32.43092,21.11737c-17.9111,0 -32.43092,-9.45457 -32.43092,-21.11737c0,-2.33142 -0.03339,-13.76009 1.08979,-15.13837c4.49546,-5.51647 17.81784,5.26144 32.14847,5.26144c17.9111,0 31.62358,-1.78588 31.62358,9.87692z" fill="#000082" stroke="#000000" stroke-width="2" stroke-linecap="butt"/><path d="M326.7631,335.49289c0,6.30841 -13.89058,10.1901 -31.80169,10.1901c-17.9111,0 -30.16566,-2.95748 -30.16566,-9.26589c0,-1.26107 -0.03338,-12.52602 1.0898,-13.27153c4.49546,-2.98386 15.55258,5.7726 29.88321,5.7726c17.9111,0 30.99434,0.26631 30.99434,6.57472z" fill="#2e0048" stroke="#000000" stroke-width="0" stroke-linecap="butt"/><g><g><path d="M294.07711,253.40685c-15.08709,0.05248 -23.92513,-7.50391 -24.67328,-22.42201c-0.58517,-11.6676 11.96316,-24.72759 27.05026,-24.78007c15.08716,-0.05251 26.08097,9.65831 26.13298,24.59505c0.00814,2.33582 -0.67761,4.49394 -1.28549,6.47089c-3.27942,10.66471 -14.49667,16.09187 -27.22444,16.13615z" fill="#485e84" stroke="#000000" stroke-width="2" stroke-linecap="butt"/><path d="M283.67517,211.33163c0,0 -0.42127,5.74051 1.187,6.93501c15.42692,11.45793 29.43535,12.44877 34.09359,12.42291c1.05835,-0.00586 1.63092,-0.97179 1.63092,-0.97179c0,0 0.2293,2.10132 -0.35474,4.77954c-0.62146,2.84987 -2.11589,6.35281 -4.13859,8.66663c-2.31053,2.64302 -9.22963,7.29429 -9.22963,7.29429l-20.68111,3.33923c0,0 -10.32717,-8.62002 -11.4102,-10.49724c-1.06103,-1.83904 -1.78907,-4.31951 -2.66931,-6.92568c-1.36667,-4.04646 -1.23506,-8.58402 -0.34524,-11.32319c1.13565,-3.49578 3.92831,-7.23115 6.70742,-9.8463c2.58647,-2.43388 5.20991,-3.8733 5.20991,-3.8733z" fill="#343545" stroke="none" stroke-width="0" stroke-linecap="butt"/><path d="M286.11945,235.64609c0,0 -1.89978,-8.81981 0.3069,-13.47927c2.7934,-5.89842 11.39038,-15.6038 11.39038,-15.6038" fill="none" stroke="#000000" stroke-width="1" stroke-linecap="round"/><path d="M320.92943,223.90805c0,0 -1.48314,6.99501 -3.3523,10.86515c-1.88695,3.90712 -8.91605,10.59625 -8.91605,10.59625" fill="none" stroke="#000000" stroke-width="1" stroke-linecap="round"/><path d="M275.60245,238.76845c0,0 -2.08535,-9.02428 0.53463,-13.96236c4.02029,-7.5773 11.33912,-16.57343 11.33912,-16.57343" fill="none" stroke="#000000" stroke-width="1" stroke-linecap="round"/><path d="M271.37649,224.08038c0,0 13.67925,-10.59969 30.34955,-5.53561c18.26021,5.54705 17.99346,22.7929 17.99346,22.7929" fill="none" stroke="#000000" stroke-width="1" stroke-linecap="round"/><path d="M270.13875,233.52352c0,0 15.67262,-8.43987 30.39242,-4.00286c12.0863,3.6432 13.22047,18.1908 13.22047,18.1908" fill="none" stroke="#000000" stroke-width="1" stroke-linecap="round"/><path d="M309.46676,214.43603c-1.02752,-0.62562 -1.45895,-1.79218 -0.96369,-2.60559c0.49523,-0.81347 1.18704,-0.4193 2.21456,0.20631c1.02752,0.62562 2.00159,1.24575 1.50634,2.05918c-0.49523,0.81347 -1.72972,0.96572 -2.75719,0.34009z" fill="#8fbbbe" stroke="none" stroke-width="0" stroke-linecap="butt"/><path d="M315.104,219.02738c-0.60148,0.00208 -1.09162,-0.72759 -1.09476,-1.62981c-0.00314,-0.90223 0.12014,-1.27102 0.72161,-1.27313c0.60148,-0.00208 1.27315,0.72696 1.27625,1.62917c0.00314,0.90223 -0.30167,1.27166 -0.90314,1.27374z" fill="#8fbbbe" stroke="none" stroke-width="0" stroke-linecap="butt"/><path d="M303.52425,210.89335c-0.89745,-0.09303 -1.57464,-0.65339 -1.51264,-1.25165c0.06195,-0.59824 0.84165,-0.46334 1.73907,-0.37035c0.89745,0.09303 1.57274,0.10883 1.51077,0.7071c-0.06195,0.59824 -0.83978,1.00789 -1.73719,0.91488z" fill="#8fbbbe" stroke="none" stroke-width="0" stroke-linecap="butt"/><path d="M279.87162,213.70454c0,0 9.66585,-3.35424 17.23588,-3.01593c4.29182,0.19182 8.00824,1.84248 10.81181,3.1255c2.47935,1.1346 6.90784,5.99406 9.91039,10.06627c2.21063,2.99814 3.48236,5.65325 3.48236,5.65325" fill="none" stroke="#000000" stroke-width="0.5" stroke-linecap="round"/><path d="M313.98778,211.22615c0,0 -0.36974,10.56605 -2.52073,15.52491c-1.81225,4.17797 -9.18101,12.28757 -9.18101,12.28757" fill="none" stroke="#000000" stroke-width="1" stroke-linecap="round"/><path d="M296.6535,237.42459c0,0 0.44582,-9.65554 1.7859,-13.97468c2.35294,-7.58358 9.54833,-15.10708 9.54833,-15.10708" fill="none" stroke="#000000" stroke-width="1" stroke-linecap="round"/></g><g stroke="#000000" stroke-linecap="butt"><path d="M268.19093,238.54957c31.80294,9.99459 34.93729,19.1177 32.51141,26.83686c-2.42588,7.71917 -30.17382,5.87456 -61.97676,-4.12004c-31.80293,-9.9946 29.99072,-47.37152 32.41659,-55.09068c5.48656,-4.49732 7.69009,1.64614 5.66469,9.23915c-2.49779,9.36396 -11.33433,22.28041 -8.61594,23.13472z" fill="#0d69be" stroke-width="2"/><path d="M295.70757,234.52642c13.65063,4.28993 21.14947,19.11841 16.74913,33.12034c-4.40034,14.00193 -19.03353,21.87506 -32.68416,17.58513c-13.65063,-4.28993 -21.14947,-19.11842 -16.74913,-33.12035c4.40034,-14.00193 19.03353,-21.87505 32.68416,-17.58512z" fill="#faddbf" stroke-width="2"/><path d="M272.66088,268.93714c13.65063,4.28993 43.49659,-15.92626 39.09625,-1.92433c-4.40034,14.00193 -19.03353,21.87506 -32.68416,17.58512c-13.65063,-4.28993 -20.06273,-19.95073 -6.41209,-15.66079z" fill="#ef8b89" stroke-width="0"/></g></g><path d="M285.15836,142.51207c-0.08619,0.05939 -0.31283,0.19902 -0.59928,0.24694c-0.56502,0.67233 -0.99678,1.42753 -0.92273,2.17997c0.20097,2.04199 4.68131,4.5689 5.82689,6.16803c2.74042,3.82542 1.81798,11.95805 -3.46268,13.25094c-1.01738,0.2491 -3.14777,-0.09521 -4.23309,-0.23113c-3.49212,-1.65147 -8.21464,-6.01402 -9.24979,-9.90466c-0.96891,-3.64171 0.40295,-8.98848 1.35968,-12.60737c1.16445,-4.40458 2.76122,-8.83697 7.32974,-10.31943c2.98545,-0.3036 6.06176,-0.05275 8.35859,2.20094c2.52617,2.47873 1.61894,7.06684 -1.55251,8.50941c-0.14888,0.06772 -2.05401,0.37722 -2.85482,0.50634z" fill="#000000" stroke="none" stroke-width="0.5" stroke-linecap="butt"/></g></g></svg>