<svg version="1.1" xmlns="http://www.w3.org/2000/svg" xmlns:xlink="http://www.w3.org/1999/xlink" width="34.94859" height="30.67636" viewBox="0,0,34.94859,30.67636"><g transform="translate(-282.33199,-164.76584)"><g data-paper-data="{&quot;isPaintingLayer&quot;:true}" fill-rule="nonzero" stroke-linejoin="miter" stroke-miterlimit="10" stroke-dasharray="" stroke-dashoffset="0" style="mix-blend-mode: normal"><path d="M283.08199,178.73195c0.65886,-8.02056 8.67101,-13.90822 17.89564,-13.15045c9.22462,0.75777 16.16855,7.87402 15.50969,15.89458c-0.65886,8.02056 -8.67101,13.90822 -17.89564,13.15045c-9.22462,-0.75777 -16.16855,-7.87402 -15.50969,-15.89458z" fill="#2740ff" stroke="#000000" stroke-width="1.5" stroke-linecap="butt"/><path d="M316.4306,181.31927c0.11875,0.48569 -0.36693,0.60443 -0.36693,0.60443l-0.29774,0.06605c-0.98705,0.41816 -2.84787,2.46084 -3.77686,2.17958c-1.65745,-0.50182 -1.52991,-4.05346 -3.18193,-4.58887c-1.76484,0.31473 -3.08961,1.32254 -4.40113,2.48557c-0.51564,0.45726 -1.29224,1.33588 -2.14212,1.11622c-1.54807,-0.40012 -1.67221,-4.7067 -2.88912,-5.66908c-0.81185,-0.64204 -3.87554,0.58288 -4.75871,0.82829c-0.76543,0.21185 -2.17987,0.69537 -2.95756,0.26238c-1.09356,-0.60885 -0.77683,-2.85493 -1.74311,-3.61186c-0.63314,-0.49598 -2.86325,1.6422 -3.69547,1.29503c-0.69038,-0.288 -1.08496,-3.34496 -1.2119,-3.90944c0,0 -0.10957,-0.48785 0.37828,-0.5974c0.48785,-0.10957 0.59742,0.37827 0.59742,0.37827c0.14529,0.64782 0.33567,1.28471 0.50123,1.92764c0.10798,0.41933 -0.28429,1.30091 0.14858,1.29049c0.95272,-0.02294 2.49131,-1.98195 3.73509,-1.27598c2.53828,1.44072 0.2844,4.30854 3.9797,3.27739c1.31086,-0.36423 4.3131,-1.57524 5.59654,-0.68637c1.02207,0.70785 1.66115,3.19473 2.17484,4.26076c0.20082,0.41676 0.04448,1.20957 0.49916,1.29501c0.36261,0.06813 1.63871,-1.39059 1.86673,-1.59332c1.26223,-1.12222 2.75324,-1.81202 4.41202,-2.06948c2.17917,0.81273 1.8123,3.37857 3.4128,4.63783c0.25675,0.20201 0.39873,-0.52171 0.63877,-0.7433c0.68069,-0.62836 1.58344,-1.05052 2.42546,-1.40962l0.45147,-0.11714c0,0 0.48569,-0.11876 0.60443,0.36695z" fill="#000000" stroke="none" stroke-width="0.5" stroke-linecap="butt"/><path d="M296.85544,190.1672l3.10616,-7.65379" fill="none" stroke="#000000" stroke-width="1.5" stroke-linecap="round"/><path d="M302.42741,184.05276l-1.8766,7.39498" fill="none" stroke="#000000" stroke-width="1.5" stroke-linecap="round"/><path d="M293.95462,186.19977c-0.86489,1.49987 -2.41253,2.22761 -3.45674,1.62547c-1.04421,-0.60214 -1.18958,-2.30615 -0.32468,-3.80602c0.86489,-1.49987 2.41253,-2.22761 3.45674,-1.62547c1.04421,0.60214 1.18958,2.30615 0.32468,3.80602z" fill="#ffffff" stroke="#000000" stroke-width="0.5" stroke-linecap="butt"/><path d="M297.49197,178.58065l3.56817,4.67119" fill="none" stroke="#000000" stroke-width="1" stroke-linecap="round"/><path d="M302.24038,183.70734l4.7368,2.07805" fill="none" stroke="#000000" stroke-width="1" stroke-linecap="round"/></g></g></svg>