<svg version="1.1" xmlns="http://www.w3.org/2000/svg" xmlns:xlink="http://www.w3.org/1999/xlink" width="40.13459" height="35.72833" viewBox="0,0,40.13459,35.72833"><g transform="translate(-280.89007,-160.86107)"><g data-paper-data="{&quot;isPaintingLayer&quot;:true}" fill-rule="nonzero" stroke-linejoin="miter" stroke-miterlimit="10" stroke-dasharray="" stroke-dashoffset="0" style="mix-blend-mode: normal"><path d="M317.44128,182.58588c-1.01909,7.72743 -4.42256,13.65185 -7.60183,13.23257c-3.17928,-0.41929 -4.93048,-7.0235 -3.91138,-14.75093c1.01909,-7.72744 4.42255,-13.65186 7.60184,-13.23257c3.17928,0.41929 4.93047,7.0235 3.91138,14.75092z" fill="#ff0000" stroke="#000000" stroke-width="1.5" stroke-linecap="butt"/><path d="M285.12244,177.76312c1.0522,-7.9785 8.37303,-13.59336 16.35153,-12.54116c7.9785,1.0522 13.59335,8.37303 12.54116,16.35152c-1.0522,7.9785 -8.37302,13.59337 -16.35152,12.54116c-7.9785,-1.0522 -13.59336,-8.37302 -12.54116,-16.35152z" fill="#ff0000" stroke="#000000" stroke-width="1.5" stroke-linecap="butt"/><path d="M299.23223,179.41171c-0.92884,7.043 -5.58358,12.23792 -10.39666,11.60317c-4.81309,-0.63476 -7.9619,-6.8588 -7.03307,-13.9018c0.92884,-7.043 5.58357,-12.23791 10.39666,-11.60315c4.81309,0.63476 7.9619,6.85879 7.03307,13.90178z" fill="#ff0000" stroke="#000000" stroke-width="1.5" stroke-linecap="butt"/><path d="M320.23273,170.67116c-0.48334,3.66501 -7.9986,5.69665 -16.7858,4.5378c-8.78719,-1.15885 -15.5188,-5.06937 -15.03546,-8.73439c0.48334,-3.66501 7.9986,-5.69665 16.78579,-4.5378c8.78719,1.15885 15.5188,5.06937 15.03546,8.73438z" fill="#ff0000" stroke="#000000" stroke-width="1.5" stroke-linecap="butt"/><path d="M301.5621,177.99708l4.29246,5.99056" fill="none" stroke="#000000" stroke-width="1" stroke-linecap="round"/><path d="M307.83569,184.55369l5.23585,-1.22642" fill="none" stroke="#000000" stroke-width="1" stroke-linecap="round"/><path d="M308.49606,184.8367l-0.99057,4.57547" fill="none" stroke="#000000" stroke-width="1.5" stroke-linecap="round"/><path d="M305.38285,184.08199l-0.70755,4.57547" fill="none" stroke="#000000" stroke-width="1.5" stroke-linecap="round"/><path d="M300.80738,190.99708c-0.5,0 -0.5,-0.5 -0.5,-0.5l0.00205,-0.33209c-0.13491,-1.49551 -0.56049,-1.35952 -0.95525,0.09209c0,0 -0.13736,0.48076 -0.61812,0.3434c-0.48076,-0.13736 -0.3434,-0.61812 -0.3434,-0.61812c0.69083,-2.33038 2.67211,-2.53534 2.91267,0.09209l0.00205,0.42263c0,0 0,0.5 -0.5,0.5z" fill="#000000" stroke="none" stroke-width="0.5" stroke-linecap="butt"/></g></g></svg>