<svg version="1.1" xmlns="http://www.w3.org/2000/svg" xmlns:xlink="http://www.w3.org/1999/xlink" width="281.10195" height="320.19393" viewBox="0,0,281.10195,320.19393"><g transform="translate(-157.29118,-10.38418)"><g data-paper-data="{&quot;isPaintingLayer&quot;:true}" fill-rule="nonzero" stroke-linecap="butt" stroke-linejoin="miter" stroke-miterlimit="10" stroke-dasharray="" stroke-dashoffset="0" style="mix-blend-mode: normal"><g data-paper-data="{&quot;index&quot;:null}" stroke="#000000"><path d="M437.02832,83.16514l-26.19333,40.0547l-40.8399,-28.86483l26.19333,-40.05469z" fill="#ffcaa0" stroke-width="2"/><g><path d="M411.06702,123.16417l-36.11778,55.23104l-41.37221,-29.24106l36.11778,-55.23104z" fill="#0000c0" stroke-width="2"/><path d="M410.58734,122.56622l-18.91742,28.92839c0,0 -4.51763,-20.76324 -11.38594,-25.61767c-6.51219,-4.6027 -28.81252,-2.79381 -28.81252,-2.79381l18.91742,-28.9284c0,0 13.22168,9.34481 19.88541,14.05462c6.735,4.76017 20.31306,14.35686 20.31306,14.35686z" fill="#56006b" stroke-width="0"/></g><path d="M436.09845,83.17127l-26.19333,40.0547l7.27602,-34.55327l-21.92259,-34.36622z" fill="#ff6e5b" stroke-width="0"/></g><g data-paper-data="{&quot;index&quot;:null}" stroke="#000000"><path d="M299.08495,329.15753v-85.43638h63.08341v85.43638z" fill="#273750" stroke-width="2"/><path d="M299.8968,328.44149v-85.43638l19.0007,46.67442l44.0827,38.76196z" fill="#1f1e2e" stroke-width="0"/></g><path d="M245.48201,243.33192v-107.70654h117.34396v107.70654z" data-paper-data="{&quot;index&quot;:null}" fill="#0000c0" stroke="#000000" stroke-width="2"/><g data-paper-data="{&quot;index&quot;:null}" stroke="#000000"><path d="M244.84144,329.57811v-85.43638h63.08341v85.43638z" fill="#273750" stroke-width="2"/><path d="M245.65333,328.86202v-85.43638l19.0007,46.67442l44.0827,38.76196z" fill="#1f1e2e" stroke-width="0"/></g><g data-paper-data="{&quot;index&quot;:null}" stroke="#000000"><path d="M158.74368,202.48623l33.98414,-31.50932l37.06728,36.01483l-33.98414,31.50932z" fill="#ffcaa0" stroke-width="2"/><g><path d="M192.47891,170.97711l46.86039,-43.4479l37.5504,36.48426l-46.86039,43.4479z" fill="#0000c0" stroke-width="2"/><path d="M192.86912,171.64154l24.5441,-22.75672c0,0 1.03715,20.36628 7.271,26.42314c5.91062,5.74281 29.21405,9.02601 29.21405,9.02601l-24.5441,22.75673c0,0 -12.00031,-11.65958 -18.04847,-17.53602c-6.11283,-5.93927 -18.4366,-17.91314 -18.4366,-17.91314z" fill="#56006b" stroke-width="0"/></g><path d="M159.70327,202.68774l33.98414,-31.50932l-13.5243,30.59569l16.60742,36.92844z" fill="#ff6e5b" stroke-width="0"/></g><g data-paper-data="{&quot;index&quot;:null}" stroke="#000000"><path d="M273.21224,242.88781v-105.70181h63.08341v105.70181z" fill="#ffffff" stroke-width="2"/><path d="M274.02413,242.00192v-105.70181l19.0007,57.74554l44.0827,47.95627z" fill="#8ebbfc" stroke-width="0"/></g><g><g data-paper-data="{&quot;index&quot;:null}" stroke="#000000"><path d="M397.34484,63.38649c5.06888,30.18569 -2.80043,57.00953 -17.57662,59.91267c-14.77619,2.90315 -30.86375,-19.21372 -35.93264,-49.39941c-5.06888,-30.18569 2.80043,-57.00953 17.57662,-59.91267c14.77619,-2.90315 30.86375,19.21372 35.93263,49.39941z" fill="#01930e" stroke-width="2"/><path d="M351.50706,62.66344c5.06888,30.18569 43.37405,57.24606 28.59787,60.14922c-14.77617,2.90315 -30.86375,-19.21372 -35.93263,-49.39941c-5.06888,-30.18569 2.26588,-40.93551 7.33477,-10.7498z" fill="#31525b" stroke-width="0"/></g><g data-paper-data="{&quot;index&quot;:null}" stroke="#000000"><path d="M218.26046,97.05282c-0.21664,-1.29015 -3.41542,-25.83875 -3.52577,-27.12936c-2.78866,-32.61278 30.96793,-41.65206 73.74942,-50.05759c40.18647,-7.89566 75.61551,-10.45885 86.5903,17.68091c1.17104,3.00261 3.69388,24.59474 4.24258,27.86236c1.96129,11.67971 9.28528,36.75856 3.41293,47.51256c-11.16744,20.45089 -44.4891,23.94764 -73.63659,29.6744c-30.81818,6.05502 -59.40264,12.62124 -76.19387,-4.09702c-7.44062,-7.40828 -12.89151,-31.03969 -14.63902,-41.44628z" fill="#ffcaa0" stroke-width="2"/><path d="M216.41417,97.42546c-0.21664,-1.29015 -3.41542,-25.83875 -3.52577,-27.12936c-1.58438,-18.52903 16.44915,55.39962 68.06624,66.48616c40.45067,8.68818 102.93076,-28.04281 100.56978,-23.71918c-11.16744,20.45089 -45.1299,24.17887 -74.27734,29.90564c-30.81818,6.05502 -59.40263,12.62124 -76.19386,-4.09702c-7.44062,-7.40828 -12.89151,-31.03969 -14.63902,-41.44628z" fill="#ff6e5b" stroke-width="0"/></g><g data-paper-data="{&quot;index&quot;:null}" stroke="#000000"><path d="M263.8936,87.59842c5.06888,30.18569 -2.80043,57.00953 -17.57662,59.91267c-14.77619,2.90315 -30.86376,-19.21372 -35.93264,-49.39941c-5.06887,-30.18569 2.80044,-57.00953 17.57663,-59.91267c14.77619,-2.90315 30.86375,19.21372 35.93264,49.39941z" fill="#01930e" stroke-width="2"/><path d="M218.05581,86.87535c5.06887,30.1857 43.37405,57.24606 28.59787,60.14922c-14.77617,2.90316 -30.86375,-19.21372 -35.93264,-49.39941c-5.06887,-30.18569 2.26588,-40.93551 7.33477,-10.7498z" fill="#31525b" stroke-width="0"/></g><g data-paper-data="{&quot;index&quot;:null}"><path d="M389.981,27.2094c2.77971,16.55345 -36.65569,38.16351 -88.08141,48.26741c-51.42574,10.10389 -95.36791,4.8755 -98.14762,-11.67794c-2.77971,-16.55345 36.65568,-38.1635 88.08141,-48.26739c51.42574,-10.10389 95.36791,-4.87552 98.14762,11.67793z" fill="#000000" stroke="none" stroke-width="NaN"/><path d="M389.29927,27.67671c2.77971,16.55345 -36.6557,38.16351 -88.08141,48.26741c-51.42574,10.10389 -95.36791,4.87551 -98.14761,-11.67793c-2.77971,-16.55345 44.52544,-0.18045 95.9512,-10.28434c51.42574,-10.10389 87.49814,-42.85856 90.27784,-26.30513z" fill="#ff0000" stroke="#000000" stroke-width="2"/><path d="M385.31823,37.3635c0.76495,4.55536 -32.93901,29.20872 -84.59021,37.96993c-18.0748,3.0659 -35.30792,4.87179 -49.61469,4.82274c-26.56067,-0.091 -43.68738,-5.03577 -41.98502,-9.32999c1.75823,-4.43515 40.61611,8.3617 92.04184,-1.74221c51.42574,-10.10389 83.38314,-36.27586 84.1481,-31.72047z" fill="#900056" stroke="#000000" stroke-width="0"/></g><path d="M328.74806,99.3362c2.47382,14.73187 1.55112,27.24975 -2.06094,27.95943c-3.61205,0.70967 -8.54563,-10.65755 -11.01946,-25.38944c-2.47382,-14.73187 -1.5511,-27.24973 2.06095,-27.95942c3.61205,-0.70968 8.54563,10.65755 11.01946,25.38945z" data-paper-data="{&quot;index&quot;:null}" fill="#000000" stroke="none" stroke-width="0"/><path d="M354.022,90.18623c2.46392,14.67296 1.68731,27.11277 -1.73464,27.7851c-3.42196,0.67235 -8.19338,-10.67741 -10.65731,-25.35038c-2.46392,-14.67296 -1.68731,-27.11278 1.73464,-27.7851c3.42196,-0.67235 8.19338,10.67741 10.65731,25.35039z" data-paper-data="{&quot;index&quot;:null}" fill="#000000" stroke="none" stroke-width="0"/></g><path d="M300.17578,114.87137c-0.13398,0.13622 -0.25165,0.20911 -0.25165,0.20911c-5.86033,3.53897 1.8162,7.43649 2.96772,11.36657c1.34998,4.60744 -2.35955,7.5789 -6.8576,7.07339c-2.46058,-0.27653 -2.94798,-0.79275 -4.91451,-1.92028c-5.39821,-4.14993 -8.48593,-10.07306 -8.48244,-16.92081c0.00151,-2.94854 0.53924,-6.25285 3.31397,-8.04731c1.88375,-1.21824 3.96849,-0.91223 6.06253,-0.90567c2.05657,0.00644 3.63552,0.43341 5.55038,1.15035c3.05713,1.81676 5.97455,4.26176 3.3553,7.7677z" fill="#000000" stroke="none" stroke-width="0.5"/></g></g></svg>