<svg version="1.1" xmlns="http://www.w3.org/2000/svg" xmlns:xlink="http://www.w3.org/1999/xlink" width="241.73073" height="358.69858" viewBox="0,0,241.73073,358.69858"><g transform="translate(-181.86123,-2.11727)"><g data-paper-data="{&quot;isPaintingLayer&quot;:true}" fill-rule="nonzero" stroke-linejoin="miter" stroke-miterlimit="10" stroke-dasharray="" stroke-dashoffset="0" style="mix-blend-mode: normal"><g stroke="#000000" stroke-linecap="butt"><path d="M362.55743,219.38251c28.63489,24.26996 46.50453,48.97989 39.91298,55.19119c-6.59157,6.2113 -35.14826,-8.42816 -63.78315,-32.69812c-28.63489,-24.26996 -46.50453,-48.97989 -39.91298,-55.19119c6.59157,-6.2113 35.14826,8.42816 63.78315,32.69813z" fill="#0d69be" stroke-width="2"/><path d="M413.19361,242.9186c12.29082,10.41727 12.56179,27.99568 0.60523,39.26245c-11.95657,11.26677 -31.61296,11.95541 -43.90377,1.53813c-12.29082,-10.41728 -12.56179,-27.99568 -0.60523,-39.26245c11.95657,-11.26678 31.61296,-11.9554 43.90377,-1.53813z" fill="#faddbf" stroke-width="2"/><path d="M370.79787,264.92676c12.29082,10.41728 54.54285,5.06001 42.58628,16.32679c-11.95657,11.26677 -31.61293,11.9554 -43.90377,1.53813c-12.29082,-10.41728 -10.97332,-28.28218 1.31748,-17.86491z" fill="#ef8b89" stroke-width="0"/></g><g stroke="#000000" stroke-linecap="butt"><path d="M354.29391,353.72877l-68.58794,-80.046l27.71984,-18.96991l68.58795,80.046z" fill="#73fffc" stroke-width="2"/><path d="M353.54298,353.41926l-66.25515,-79.63139c0,0 53.91362,53.86645 61.79715,61.01877c1.74281,1.58114 4.37873,0.72106 4.37873,0.72106l26.94522,-0.93169z" fill="#59a9e6" stroke-width="0"/></g><g stroke="#000000" stroke-linecap="butt"><path d="M241.24099,324.65836l42.72567,-93.30908l32.31283,11.81698l-42.72567,93.30909z" fill="#73fffc" stroke-width="2"/><path d="M241.16114,323.92278l43.50214,-91.29994c0,0 -24.83774,68.77762 -27.7699,78.46916c-0.64822,2.14249 1.51268,3.74238 1.51268,3.74238l14.49538,20.32052z" fill="#59a9e6" stroke-width="0"/></g><g stroke="#000000" stroke-linecap="butt"><path d="M340.15505,228.50037c0,14.60287 11.89449,38.87399 5.85998,49.15314c-7.37978,12.57069 -33.87235,9.62309 -46.09815,9.62309c-16.17457,0 -39.00032,4.41193 -45.39325,-15.69201c-2.39058,-7.5177 5.15508,-34.24935 5.15508,-43.08421c0,-32.46121 18.01523,-58.77622 40.23817,-58.77622c22.22293,0 40.23817,26.31501 40.23817,58.77622z" fill="#0d69be" stroke-width="2"/><path d="M279.46742,244.97999c0,14.60287 73.44743,21.74011 67.4129,32.01925c-7.37978,12.57068 -33.87235,9.62309 -46.09815,9.62309c-16.17457,0 -39.00031,4.41193 -45.39324,-15.692c-2.39059,-7.5177 5.15508,-34.24936 5.15508,-43.08421c0,-10.00041 3.96414,-30.2559 6.53421,-31.70544c7.03661,-17.73599 12.38918,26.59737 12.38918,48.83932z" fill="#10157d" stroke-width="0"/></g><g stroke-linecap="butt"><g stroke="#000000"><g><path d="M187.8364,108.69977c-8.31051,-48.94305 29.34876,-94.63996 84.11436,-102.06693c54.76558,-7.42697 105.89887,26.22849 114.20936,75.17152c8.31051,48.94305 -29.34876,94.63996 -84.11436,102.06693c-54.76558,7.42696 -105.89886,-26.22849 -114.20936,-75.17152z" fill="#faddbf" stroke-width="2"/><path d="M187.95207,107.75362c-2.67379,-15.74675 2.84879,-44.27172 7.55546,-48.34945c0.53751,-0.46569 5.19008,-10.2386 12.79944,-18.45778c9.4579,-10.21588 22.25558,-19.23677 23.00546,-19.1276c9.7835,1.42443 -8.99479,70.62001 -3.05298,96.87656c0.01416,0.06263 8.65783,19.90821 10.63012,20.11043c4.21961,4.50262 14.06558,18.58823 28.0696,24.32964c26.09815,10.69977 60.77867,12.81697 59.13239,13.5814c-2.63346,1.2228 -16.83382,5.246 -23.93005,6.20832c-54.76558,7.42696 -105.89886,-26.22849 -114.20936,-75.17152z" fill="#ef8b89" stroke-width="0"/><path d="M385.46609,81.40818c2.06461,12.15903 0.93114,16.6106 -0.04387,14.76133c-0.99471,-1.88661 -1.9615,-10.23539 -13.18559,-13.88778c-2.71981,-0.88505 -10.83106,8.18475 -14.24166,7.33306c-2.14227,-0.53497 -11.93405,-9.27027 -14.29396,-9.67364c-1.65,-0.28202 -13.08411,10.73907 -14.80221,10.48985c-4.28506,-0.6216 -16.05183,-9.99381 -20.55924,-10.08666c-2.4821,-0.05114 -8.76026,13.86826 -11.27385,13.9375c-3.24155,0.08929 -13.92813,-11.0254 -17.13208,-10.59089c-8.52058,1.15551 -7.50942,8.52052 -12.57318,15.63439c-3.29055,4.62278 -18.69067,-11.4319 -21.55917,-6.29687c-3.56233,6.37712 -7.11434,12.54067 -11.43886,16.97902c-3.39273,3.48208 -17.43517,-8.44005 -20.3364,-5.24537c-14.00786,15.42482 -22.34467,25.12076 -25.57217,6.11307c-6.48987,-38.2209 49.20658,-15.4622 94.28811,-44.60594c43.15159,-27.89608 96.23426,-23.08196 102.72415,15.13894z" fill="#ef8b89" stroke-width="0"/></g><path d="M385.78529,72.47155c4.17087,24.56352 9.19286,8.07942 -13.57393,0.92025c-2.786,-0.87608 -11.14571,8.22742 -14.64042,7.38713c-2.1951,-0.5278 -12.20079,-9.23409 -14.61972,-9.62945c-1.69126,-0.27643 -13.46795,10.79113 -15.22923,10.54775c-4.39265,-0.60701 -16.42143,-9.94367 -21.04448,-10.02087c-2.54578,-0.04252 -9.04647,13.90707 -11.62504,13.98513c-3.3254,0.10065 -14.23857,-10.98329 -17.52689,-10.53735c-8.74504,1.18594 -7.74001,8.55178 -12.96525,15.68756c-3.39548,4.637 -19.12194,-11.37342 -22.08674,-6.22531c-3.68191,6.39333 -7.35233,12.57294 -11.80759,17.02902c-3.49531,3.49597 -17.84721,-8.38417 -20.83706,-5.17745c-14.43598,15.48287 -23.02985,25.21366 -26.25734,6.20598c-6.48987,-38.2209 32.22458,-91.32185 85.97897,-98.61168c53.75438,-7.28981 109.74488,30.21838 116.23476,68.43929z" fill="#873412" stroke-width="2"/><path d="M385.28882,71.29459c4.17087,24.56352 9.19287,8.07943 -13.57392,0.92025c-2.786,-0.87608 -11.14572,8.22742 -14.64043,7.38713c-2.1951,-0.5278 -12.20079,-9.23409 -14.61973,-9.62945c-1.69126,-0.27643 -13.46795,10.79113 -15.22923,10.54775c-4.39265,-0.60701 -16.42143,-9.94367 -21.04449,-10.02087c-2.54578,-0.04252 -9.04647,13.90707 -11.62504,13.98513c-3.3254,0.10065 -14.23856,-10.98329 -17.52688,-10.53735c-8.74504,1.18594 -7.74002,8.55178 -12.96526,15.68756c-3.39548,4.637 -19.12193,-11.37342 -22.08673,-6.22531c-3.68191,6.39333 -7.35233,12.57294 -11.8076,17.02902c-3.49531,3.49597 -17.84721,-8.38417 -20.83707,-5.17745c-14.43598,15.48287 -23.02984,25.21366 -26.25732,6.20598c-6.48987,-38.2209 50.54113,-15.64319 96.91082,-44.96162c44.38462,-28.06331 98.813,-23.43167 105.30289,14.78922z" fill="#741d23" stroke-width="0"/></g><path d="M274.17657,14.51305c0.09665,0.11063 0.18319,0.24171 0.2609,0.3883c0.1563,0.25613 0.26736,0.53976 0.32237,0.84375c0.32908,1.17133 0.39381,2.63608 0.53391,3.14368c0.18407,0.66687 1.26046,-0.97063 2.02896,-0.97884c0.47076,-0.00504 1.06059,0.67118 1.35847,0.34536c1.80776,-1.97726 3.17626,-5.22345 6.6886,-3.96277c1.16321,0.4175 1.12734,1.8703 1.90985,2.49689c0.06579,0.05267 3.02966,-0.55704 3.82143,-0.09413c1.36432,0.79762 0.77356,2.3048 1.56208,3.26009c0.2523,0.30568 0.59386,-0.55377 0.95256,-0.75754c1.59646,-0.90679 4.32211,-2.73333 6.55185,-1.96379c1.17488,0.40548 1.24975,2.12002 1.92155,2.50178c1.17776,0.66927 2.02064,-1.7348 3.16107,-2.45383c1.5773,-0.99449 2.55306,-0.37685 4.16687,0.35251c0.27835,0.12579 1.28739,4.24702 2.78307,5.28308c0.84072,0.58236 1.78052,-1.16032 2.82933,-1.31889c1.04645,-0.15819 3.04213,-1.20178 3.5543,-1.16033c1.02738,0.08307 2.13091,1.46686 2.93172,0.88575c4.08868,-2.96698 10.09388,-2.23107 9.06134,3.2167c-0.13066,0.68942 1.44529,-0.81015 2.2163,-0.69106c0.2989,0.04618 2.06115,0.8781 2.31179,0.75207c1.63942,-0.82426 2.61138,-1.72344 4.47303,-1.98005c1.54608,-0.21311 3.16295,0.36364 3.76715,1.75892c0.31755,0.73328 -0.79029,2.37911 0.08922,2.3575c2.07308,-0.05092 5.39228,0.27515 4.93906,3.05192c-0.49196,3.01425 -2.76117,5.87855 -6.14382,4.09977c-1.17361,-0.61715 -2.47629,1.66555 -3.7931,1.35558c-1.68692,-0.39709 -2.87524,-2.68478 -3.00056,-3.92686c-0.0579,-0.57418 -1.18979,0.56156 -1.83477,0.55017c-0.86836,-0.0153 -1.46326,-1.10212 -2.32932,-1.04353c-1.93719,0.13107 -1.01029,3.63207 -5.69893,3.42623c-1.38392,-0.06076 -3.33219,-1.88196 -3.9714,-2.97015c-0.37107,-0.63167 1.22268,-3.00108 1.01894,-3.08642c-0.49471,-0.20726 -1.77524,3.26635 -2.24911,3.48272c-1.14003,0.52055 -2.58151,-0.05626 -3.82169,-0.34006c-1.0957,-0.25072 -1.01421,2.15993 -2.12135,2.36678c-0.9781,0.18274 -11.03327,0.97996 -11.51508,0.50705c-0.58741,-0.57653 -1.26614,-1.66991 -1.20759,-2.43725c0.02105,-0.27579 0.81515,-2.08082 0.60621,-2.03092c-0.74152,0.17706 -4.29103,4.26269 -7.40812,1.20327c-1.69505,-1.66369 0.49882,-3.91831 0.21416,-5.61769c-0.17579,-1.04945 -1.00032,1.9285 -1.39257,2.93007c-0.30127,0.76927 -1.44773,1.5931 -2.34978,1.74216c-3.11877,0.51537 -2.70776,-2.28102 -3.6346,-3.77586c-0.42773,-0.68985 -1.74098,0.87298 -2.56424,0.58884c-2.01285,-0.6947 -1.94394,-1.95017 -2.37724,-3.53094c-0.19841,-0.72382 -0.15998,2.92714 -2.05532,3.36239c-0.76865,0.1765 -2.18549,-0.71737 -2.38062,-0.02988c-0.94998,3.34705 0.09062,4.50296 -4.43787,4.60229c-0.437,0.00958 -1.00304,0.98745 -1.50286,0.81494c-5.53182,-1.90923 -2.41566,-8.15969 -2.98472,-12.37153c-0.20072,-1.48571 -1.65961,-3.54975 -0.34683,-4.47875c0.37813,-0.83976 1.22914,-1.48413 2.30309,-1.62978c0.95223,-0.12913 1.86725,0.16265 2.50847,0.71959c0.10088,0.06868 0.19291,0.14801 0.27388,0.24068z" fill="#ba587e" stroke="none" stroke-width="0.5"/></g><g stroke="#000000" stroke-linecap="butt"><path d="M305.3091,120.87c5.07235,29.87257 -7.72399,47.37084 -27.11639,50.00071c-19.3924,2.62987 -38.03735,-10.60453 -43.10971,-40.47711c-5.07235,-29.87257 6.53635,-56.22101 25.92874,-58.85089c19.3924,-2.62987 39.22502,19.45471 44.29735,49.32728z" fill="#f0f0f0" stroke-width="2"/><path d="M247.10652,107.80828c-0.02144,30.21454 51.07554,59.46317 31.68315,62.09305c-19.3924,2.62987 -38.03735,-10.60453 -43.10971,-40.4771c-5.07235,-29.87257 11.45756,-65.29726 11.42657,-21.61595z" fill="#9a99ff" stroke-width="0"/></g><path d="M302.21322,130.10011c2.81018,16.54999 -0.39979,30.71065 -7.16964,31.62875c-6.76987,0.91809 -14.53605,-11.75409 -17.34623,-28.30407c-2.81018,-16.54999 0.39979,-30.71065 7.16964,-31.62874c6.76987,-0.91809 14.53605,11.75408 17.34623,28.30407z" fill="#000000" stroke="none" stroke-width="0" stroke-linecap="butt"/><g stroke="#000000" stroke-linecap="butt"><path d="M294.11157,90.2489c7.03642,9.99252 21.95226,51.9135 3.56442,54.40715c-18.38783,2.49363 -63.66568,-36.11212 -60.05404,-46.89099c3.43642,-10.25593 4.14274,-23.48186 22.53058,-25.97549c18.38783,-2.49363 27.25319,8.93633 33.95899,18.45934z" fill="#a100fe" stroke-width="2"/><path d="M292.96686,90.02507c6.85845,10.01666 22.19285,50.95035 4.43197,53.35897c-17.76086,2.4086 -62.42652,-35.34965 -58.99625,-46.10393c3.26385,-10.23252 7.84685,-0.0347 25.6077,-2.4433c17.76086,-2.4086 22.42036,-14.35776 28.95653,-4.81176z" fill="#99008e" stroke-width="0"/></g><g data-paper-data="{&quot;index&quot;:null}" stroke="#000000" stroke-linecap="butt"><path d="M335.44855,63.74289c19.3924,-2.62987 39.22502,19.45471 44.29735,49.32728c5.07235,29.87257 -8.34002,47.45439 -27.73242,50.08426c-19.3924,2.62987 -37.42134,-10.68807 -42.49369,-40.56064c-5.07235,-29.87257 6.53634,-56.22101 25.92873,-58.85089z" fill="#f0f0f0" stroke-width="2"/><path d="M378.85403,112.30265c5.07235,29.87257 -8.34002,47.45438 -27.73242,50.08425c-19.3924,2.62987 19.69508,-38.84898 9.64472,-67.69767c-14.52985,-41.70667 13.01535,-12.25916 18.08769,17.6134z" fill="#9a99ff" stroke-width="0"/></g><path d="M346.30004,98.91518c6.8385,-0.31158 13.15531,12.98825 14.10903,29.70599c0.95371,16.71773 -3.81684,30.52274 -10.65533,30.83432c-6.8385,0.31157 -13.15531,-12.98825 -14.10904,-29.70599c-0.95371,-16.71774 3.81684,-30.52274 10.65534,-30.83432z" data-paper-data="{&quot;index&quot;:null}" fill="#000000" stroke="none" stroke-width="0" stroke-linecap="butt"/><g data-paper-data="{&quot;index&quot;:null}" stroke="#000000" stroke-linecap="butt"><path d="M310.04841,90.38242c3.24272,-10.87215 7.91474,-24.13797 26.30258,-26.63162c18.38783,-2.49363 23.45277,9.94962 30.13901,18.83279c7.02716,9.33611 -22.73222,59.19646 -41.12006,61.69011c-18.38783,2.49363 -18.72411,-42.48305 -15.32153,-53.89125z" fill="#a100fe" stroke-width="2"/><path d="M311.06729,89.86519c3.07309,-10.84916 11.48942,-0.67328 29.25027,-3.08189c17.76086,-2.4086 18.75231,-13.36243 25.26596,-4.45587c6.84579,9.36071 -22.91819,58.57317 -40.67903,60.98178c-17.76086,2.4086 -17.06184,-42.05995 -13.83723,-53.44401z" fill="#99008e" stroke-width="0"/></g><path d="M199.51227,332.74301c1.799,-12.23374 17.61845,-8.47011 38.64147,-6.00102c16.82047,1.97551 34.12001,-7.49348 38.54559,-1.08725c1.10572,1.6006 -0.69636,13.5841 -1.05602,16.02965c-1.799,12.23374 -20.29991,20.14951 -41.32293,17.68041c-21.02302,-2.4691 -36.60714,-14.38807 -34.80812,-26.6218z" data-paper-data="{&quot;index&quot;:null}" fill="#000082" stroke="#000000" stroke-width="2" stroke-linecap="butt"/><path d="M239.54126,327.51307c16.82047,1.97551 31.14937,-5.68533 35.96559,-1.93569c1.20332,0.93684 -0.5735,12.74863 -0.76801,14.07145c-0.97309,6.61723 -15.81297,8.03016 -36.83599,5.56106c-21.02302,-2.4691 -36.72821,-8.45566 -35.75511,-15.07288c0.97309,-6.61723 16.3705,-5.09301 37.39351,-2.62391z" data-paper-data="{&quot;index&quot;:null}" fill="#2e0048" stroke="#000000" stroke-width="0" stroke-linecap="butt"/><g><g><path d="M315.9255,247.36593c-14.36842,9.48117 -28.09551,8.56125 -39.25056,-3.70027c-8.72452,-9.58982 -5.88367,-28.58227 8.48481,-38.06346c14.3685,-9.48124 31.6617,-8.07132 42.16514,4.64151c1.64254,1.98805 2.49819,4.25845 3.30139,6.32557c4.33273,11.15122 -2.57923,22.79813 -14.70074,30.79665z" fill="#0000c4" stroke="#000000" stroke-width="2" stroke-linecap="butt"/><path d="M276.54653,217.9696c0,0 3.61539,5.16181 5.98695,5.17513c22.74872,0.12798 36.81743,-7.78828 41.24703,-10.72389c1.00641,-0.66697 0.87708,-1.84929 0.87708,-1.84929c0,0 1.68958,1.64961 3.00635,4.30021c1.40116,2.82047 2.42588,6.7442 2.11398,9.98369c-0.35633,3.70041 -3.70742,11.99692 -3.70742,11.99692l-17.40933,15.78456c0,0 -15.89327,-0.89611 -18.24119,-1.82054c-2.30016,-0.9056 -4.73131,-2.56679 -7.39573,-4.24004c-4.1369,-2.59802 -7.18692,-6.55216 -8.25441,-9.44602c-1.36229,-3.69323 -1.31011,-8.62726 -0.48688,-12.59698c0.76617,-3.69455 2.26362,-6.56365 2.26362,-6.56365z" fill="#2e006f" stroke="none" stroke-width="0" stroke-linecap="butt"/><path d="M295.89728,237.18804c0,0 -7.98664,-6.3376 -9.1407,-11.69369c-1.46098,-6.78021 -0.04509,-20.43879 -0.04509,-20.43879" fill="none" stroke="#000000" stroke-width="1" stroke-linecap="round"/><path d="M320.91877,205.39978c0,0 3.47948,6.8964 4.40342,11.36786c0.93282,4.51413 -1.09707,14.61831 -1.09707,14.61831" fill="none" stroke="#000000" stroke-width="1" stroke-linecap="round"/><path d="M288.0409,246.43029c0,0 -8.30693,-6.39603 -9.26137,-12.24832c-1.46455,-8.98016 -0.77265,-21.23412 -0.77265,-21.23412" fill="none" stroke="#000000" stroke-width="1" stroke-linecap="round"/><path d="M273.7262,236.54031c0,0 5.64256,-17.60044 25.1036,-23.70597c21.31707,-6.68782 33.13225,8.19472 33.13225,8.19472" fill="none" stroke="#000000" stroke-width="1" stroke-linecap="round"/><path d="M279.15338,245.3722c0,0 9.05741,-17.00429 26.21723,-22.42491c14.08976,-4.45082 25.35412,7.25311 25.35412,7.25311" fill="none" stroke="#000000" stroke-width="1" stroke-linecap="round"/><path d="M303.34505,204.48691c-1.41894,0.10885 -2.6473,-0.61672 -2.7437,-1.62059c-0.09649,-1.00387 0.83992,-1.10023 2.25885,-1.20908c1.41894,-0.10885 2.783,-0.18894 2.8794,0.81492c0.09649,1.00387 -0.97566,1.90592 -2.39454,2.01472z" fill="#8fbbbe" stroke="none" stroke-width="0" stroke-linecap="butt"/><path d="M311.94085,204.87876c-0.57284,0.37797 -1.5515,0.06192 -2.18592,-0.70598c-0.63444,-0.76788 -0.77483,-1.15969 -0.20203,-1.53768c0.57284,-0.37797 1.72439,-0.176 2.3588,0.59191c0.63444,0.76788 0.60196,1.27379 0.02913,1.65174z" fill="#8fbbbe" stroke="none" stroke-width="0" stroke-linecap="butt"/><path d="M295.19172,205.18076c-0.92201,0.48195 -1.96077,0.42736 -2.32026,-0.12192c-0.35955,-0.54922 0.47933,-0.92179 1.40128,-1.40375c0.92201,-0.48195 1.57783,-0.89083 1.93738,-0.34156c0.35955,0.54922 -0.09642,1.38528 -1.01838,1.86718z" fill="#8fbbbe" stroke="none" stroke-width="0" stroke-linecap="butt"/><path d="M274.57562,222.37335c0,0 6.88145,-8.90775 14.34607,-13.35384c4.23208,-2.52069 8.93577,-3.43666 12.51056,-4.09543c3.16135,-0.5826 10.79068,0.79407 16.50753,2.39086c4.20902,1.17562 7.28152,2.64578 7.28152,2.64578" fill="none" stroke="#000000" stroke-width="0.5" stroke-linecap="round"/><path d="M305.41523,198.92023c0,0 7.04183,9.24713 8.45863,14.82385c1.19369,4.69851 -0.16632,16.22721 -0.16632,16.22721" fill="none" stroke="#000000" stroke-width="1" stroke-linecap="round"/><path d="M307.19994,232.11699c0,0 -6.33194,-8.51781 -8.07528,-13.04146c-3.06094,-7.94267 -1.45624,-18.86282 -1.45624,-18.86282" fill="none" stroke="#000000" stroke-width="1" stroke-linecap="round"/></g><g stroke="#000000" stroke-linecap="butt"><path d="M280.81119,250.87916c37.36039,-11.36322 46.73807,-5.53901 49.82424,2.56495c3.08618,8.10397 -24.69857,23.88528 -62.05898,35.24849c-37.36039,11.36322 -4.51872,-59.17966 -7.60492,-67.2836c2.09104,-7.26914 8.4946,-3.40522 11.87487,4.34061c4.16866,9.55244 4.77136,26.10084 7.96479,25.12954z" fill="#0d69be" stroke-width="2"/><path d="M304.26839,230.23565c16.03603,-4.87739 33.57395,3.08536 39.17203,17.78528c5.59809,14.69995 -2.86354,30.5705 -18.89957,35.4479c-16.03603,4.87739 -33.57395,-3.08537 -39.17203,-17.7853c-5.59809,-14.69995 2.86354,-30.5705 18.89958,-35.44789z" fill="#faddbf" stroke-width="2"/><path d="M306.34646,274.01275c16.03603,-4.87739 30.38428,-40.79515 35.98237,-26.09522c5.59809,14.69995 -2.86354,30.5705 -18.89958,35.44789c-16.03603,4.87739 -33.11883,-4.47527 -17.08279,-9.35266z" fill="#ef8b89" stroke-width="0"/></g></g><g stroke="#000000" stroke-linecap="butt"><path d="M419.78999,332.84082c1.60949,12.2548 -14.15765,23.98 -35.21687,26.18895c-21.05922,2.20895 -39.43583,-5.93478 -41.04532,-18.18958c-0.32175,-2.44976 -1.93818,-14.4544 -0.80776,-16.04119c4.52432,-6.3509 21.67565,3.33104 38.52508,1.56365c21.05922,-2.20895 36.93539,-5.77663 38.54488,6.47815z" fill="#000082" stroke-width="2"/><path d="M417.19511,330.20248c0.87057,6.62862 -14.92578,12.42045 -35.98502,14.62943c-21.05922,2.20895 -35.8758,0.61272 -36.74637,-6.01591c-0.17402,-1.32507 -1.76786,-13.15771 -0.55015,-14.07959c4.87384,-3.68974 19.08278,4.14753 35.93222,2.38013c21.05922,-2.20895 36.47875,-3.54268 37.34932,3.08594z" fill="#2e0048" stroke-width="0"/></g><path d="M223.259,127.21933c-0.77954,6.74201 9.4041,26.02611 2.60443,26.02611c-6.79965,0 -17.28398,-5.70618 -17.28398,-12.48406c0,-6.7779 15.38984,-19.68517 14.67956,-13.54203z" fill="#000000" stroke="none" stroke-width="0" stroke-linecap="butt"/></g></g></svg>