<svg version="1.1" xmlns="http://www.w3.org/2000/svg" xmlns:xlink="http://www.w3.org/1999/xlink" width="35.0616" height="30.64286" viewBox="0,0,35.0616,30.64286"><g transform="translate(-282.30357,-164.67857)"><g data-paper-data="{&quot;isPaintingLayer&quot;:true}" fill-rule="nonzero" stroke-linecap="butt" stroke-linejoin="miter" stroke-miterlimit="10" stroke-dasharray="" stroke-dashoffset="0" style="mix-blend-mode: normal"><path d="M283.05357,180c0,-8.04758 7.50323,-14.57143 16.75893,-14.57143c9.2557,0 16.75893,6.52385 16.75893,14.57143c0,8.04758 -7.50323,14.57143 -16.75893,14.57143c-9.2557,0 -16.75893,-6.52385 -16.75893,-14.57143z" fill="#2740ff" stroke="#000000" stroke-width="1.5"/><path d="M284.91821,175.83525c0.0585,0.42728 0.65118,-0.81165 1.07315,-0.72265c0.85647,0.18065 1.09976,0.86766 1.53088,1.58092c0.05707,0.09441 0.05047,0.29298 0.16073,0.28931c1.19097,-0.03959 2.235,-2.33648 3.80121,-1.94492c0.8768,0.2192 1.52366,1.67972 1.96757,2.37115c0.15508,0.24155 0.27802,0.9047 0.4883,0.70931c0.60556,-0.56267 1.45287,-1.49719 2.39811,-2.18483c-0.22083,-0.36632 -0.41228,-0.74323 -0.56745,-1.13114c-0.03859,-0.09037 -0.05996,-0.18985 -0.05996,-0.29433c0,-0.41422 0.33578,-0.75 0.75,-0.75c0.07195,0 0.14154,0.01013 0.20741,0.02904c0.09206,0.02141 0.18131,0.06333 0.26263,0.12905c0.03156,0.0255 0.49844,0.49448 1.1779,1.18086c0.28216,-0.0477 0.56525,-0.04733 0.84614,0.01456c1.02876,0.22668 1.21527,2.60263 2.21083,2.25827c1.24059,-0.42911 1.85548,-1.90313 3.51842,-1.9748c1.4646,-0.06313 2.19792,1.32748 3.10611,2.23749c0.09445,0.09464 0.20586,0.35766 0.30167,0.26439c0.69028,-0.67195 1.331,-1.25112 2.24916,-1.60791c0.39029,-0.15166 0.72669,-0.17164 1.0245,-0.09961c0.58709,-0.44363 1.10089,-0.81962 1.55471,-1.38274c0.60074,-0.74542 1.602,-0.272 1.34164,0.67082c-0.17762,0.6432 -0.7697,1.26929 -1.50852,1.85082c0.40124,0.54148 0.76695,1.14499 1.20964,1.51912c0.24074,0.20346 4.20737,-2.99815 3.25474,-0.14026c-1.10195,3.30586 -4.62893,0.79845 -5.6622,-0.51031c-0.00425,-0.00539 -0.00845,-0.01091 -0.01259,-0.01657c-0.92202,0.5955 -1.85686,1.11675 -2.42238,1.52456c-0.38401,0.27691 -0.79669,0.80362 -1.20911,1.1327c0.03369,0.08696 0.06671,0.17902 0.09897,0.27562c0.76925,2.30283 1.11228,7.188 -0.05572,7.188c-1.18905,0 -1.24271,-6.50489 -1.33403,-7.23958c-0.00446,-0.03592 -0.00928,-0.08618 -0.01256,-0.14365c-0.21474,-0.13193 -0.35796,-0.369 -0.35796,-0.63951c0,-0.28437 0.15825,-0.53176 0.3915,-0.65893c0.16235,-0.18381 0.35948,-0.35865 0.57319,-0.52396c-0.85922,-0.65286 -1.30521,-2.00416 -2.33501,-2.20051c-1.39486,-0.26595 -2.05353,1.35976 -2.94018,2.08699c1.13242,1.15194 2.00903,2.0475 2.01363,2.0613c0.11199,0.33597 0.12661,0.58013 0.07413,0.75133c0.00729,0.01424 0.01456,0.0286 0.02182,0.04308c0.92356,1.84198 1.64785,5.66033 1.52515,6.94652c-0.02352,0.24654 -0.38693,0.81214 -0.75,0.79197c-1.34228,-0.07457 -2.17822,-6.72859 -2.24921,-7.69367c-0.12201,-0.0637 -0.23383,-0.13482 -0.32657,-0.20781c-1.60822,-1.26593 -3.57085,-2.73466 -4.99516,-4.46102c-1.1381,0.90193 -1.92407,2.52962 -3.1751,2.52962c-1.53826,0 -2.20279,-2.14669 -2.97947,-3.15763c-0.34194,-0.44508 -2.58337,1.83903 -3.1321,2.06753c-1.22205,0.5089 -1.60888,-1.79661 -2.0775,-1.67473c-0.48106,0.12511 -0.65914,1.71277 -1.18724,1.74211c-1.32268,0.07348 -2.09194,-3.44997 -1.21987,-3.9483c0.13046,-0.22106 0.37109,-0.36935 0.64636,-0.36935c0.41421,0 0.75,0.33579 0.75,0.75c0,0.09399 -0.01729,0.18394 -0.04886,0.26685c0.04079,0.13904 0.06998,0.27979 0.08854,0.41541z" fill="#000000" stroke="none" stroke-width="0.5"/><path d="M301.75108,187.93917c0,1.99894 -1.75411,3.61941 -3.91791,3.61941c-2.1638,0 -3.58209,-3.52345 -3.58209,-5.52239c0,-1.99894 1.4556,1.26866 3.6194,1.26866c2.1638,0 3.8806,-1.36462 3.8806,0.63432z" fill="#ffffff" stroke="#000000" stroke-width="0.5"/></g></g></svg>