<svg version="1.1" xmlns="http://www.w3.org/2000/svg" xmlns:xlink="http://www.w3.org/1999/xlink" width="204.72686" height="320.05578" viewBox="0,0,204.72686,320.05578"><g transform="translate(-209.05513,-40.93159)"><g data-paper-data="{&quot;isPaintingLayer&quot;:true}" fill-rule="nonzero" stroke-linejoin="miter" stroke-miterlimit="10" stroke-dasharray="" stroke-dashoffset="0" style="mix-blend-mode: normal"><g stroke="#000000" stroke-linecap="butt"><path d="M352.11456,211.26519c29.39746,15.71967 50.13579,34.2473 46.32032,41.38261c-3.81545,7.13531 -30.73985,0.17632 -60.13731,-15.54337c-29.39746,-15.71967 -50.13579,-34.2473 -46.32033,-41.38261c3.81545,-7.13531 30.73986,-0.17632 60.13733,15.54338z" fill="#0d69be" stroke-width="2"/><path d="M399.25037,221.39682c12.61813,6.74729 17.23663,22.7093 10.31571,35.65216c-6.92093,12.94285 -22.76047,17.9654 -35.3786,11.2181c-12.61813,-6.7473 -17.23663,-22.70929 -10.31571,-35.65216c6.92093,-12.94287 22.76047,-17.96539 35.3786,-11.21811z" fill="#faddbf" stroke-width="2"/><path d="M370.22139,250.93605c12.61813,6.74729 45.69577,-7.58263 38.77484,5.36023c-6.92093,12.94285 -22.76047,17.96537 -35.3786,11.2181c-12.61813,-6.7473 -16.01437,-23.32562 -3.39623,-16.57832z" fill="#ef8b89" stroke-width="0"/></g><g stroke="#000000" stroke-linecap="butt"><path d="M307.76518,340.83532v-95.29492h29.49199v95.29492z" fill="#73fffc" stroke-width="2"/><path d="M307.43943,340.21738l1.32626,-93.78573c0,0 5.20288,68.11227 6.3799,77.52842c0.2602,2.08162 2.52228,2.78987 2.52228,2.78987l18.60659,13.13896z" fill="#59a9e6" stroke-width="0"/></g><g stroke="#000000" stroke-linecap="butt"><path d="M268.4238,338.41279v-95.29492h29.49199v95.29492z" fill="#73fffc" stroke-width="2"/><path d="M268.09805,337.79486l1.32626,-93.78573c0,0 5.20288,68.11227 6.3799,77.52842c0.2602,2.08162 2.52228,2.78987 2.52228,2.78987l18.60659,13.13896z" fill="#59a9e6" stroke-width="0"/></g><g stroke="#000000" stroke-linecap="butt"><path d="M335.22917,235.69584c0,13.80271 10.04743,36.74388 4.95001,46.45977c-6.2338,11.88187 -28.61241,9.09579 -38.9397,9.09579c-13.66287,0 -32.94407,4.17018 -38.34426,-14.83216c-2.01935,-7.10576 4.35457,-32.37264 4.35457,-40.7234c0,-30.68249 15.2177,-55.55556 33.98969,-55.55556c18.77199,0 33.98969,24.87307 33.98969,55.55556z" fill="#0d69be" stroke-width="2"/><path d="M283.96554,251.27246c0,13.80271 62.04198,20.54886 56.94455,30.26474c-6.2338,11.88186 -28.61241,9.09579 -38.9397,9.09579c-13.66287,0 -32.94406,4.17018 -38.34425,-14.83215c-2.01936,-7.10576 4.35457,-32.37265 4.35457,-40.7234c0,-9.45244 3.34855,-28.59801 5.51953,-29.96813c5.94391,-16.76415 10.4653,25.13995 10.4653,46.16315z" fill="#10157d" stroke-width="0"/></g><g stroke-linecap="butt"><g stroke="#000000"><g><path d="M212.75813,129.38825c0,-46.79079 37.93143,-84.72222 84.72222,-84.72222c46.79079,0 84.72222,37.93143 84.72222,84.72222c0,46.79079 -37.93143,84.72222 -84.72222,84.72222c-46.79079,0 -84.72222,-37.93143 -84.72222,-84.72222z" fill="#faddbf" stroke-width="2"/><path d="M212.9889,128.51874c0,-15.05428 8.65728,-41.01117 13.16632,-44.22534c0.51494,-0.36707 5.78642,-8.91029 13.30693,-15.62682c9.34748,-8.34819 21.31473,-15.15641 21.9255,-14.95935c7.96872,2.57101 -17.52654,64.85492 -16.28763,90.14485c0.00295,0.06031 4.40745,19.70158 6.02593,20.14049c2.8855,4.74247 9.11092,19.15337 19.99223,26.29351c20.2786,13.30648 48.94186,19.68013 47.45857,20.18586c-2.37273,0.80898 -14.80271,2.76903 -20.86562,2.76903c-46.79079,0 -84.72222,-37.93143 -84.72222,-84.72222z" fill="#ef8b89" stroke-width="0"/><path d="M381.67913,128.93005c0,11.62434 -1.57787,15.64071 -2.12992,13.78899c-0.5632,-1.8891 -0.18668,-9.81362 -9.04258,-14.64925c-2.14596,-1.17177 -10.20624,6.27605 -12.93385,5.04791c-1.71325,-0.77142 -8.65215,-10.17554 -10.56583,-10.85157c-1.33801,-0.47267 -12.45011,8.37757 -13.84965,7.92692c-3.49052,-1.12394 -11.98851,-11.37355 -15.73972,-12.03156c-2.06568,-0.36235 -9.2828,11.84977 -11.39182,11.59592c-2.71985,-0.32737 -10.06862,-12.06843 -12.80601,-12.06843c-7.27985,0 -7.47978,7.01079 -12.7176,13.01701c-3.40366,3.90299 -13.98842,-13.05188 -17.11223,-8.61668c-3.87941,5.50799 -7.71992,10.81771 -11.96095,14.41734c-3.32724,2.82405 -13.36416,-10.09687 -16.24015,-7.47909c-13.88607,12.63935 -22.22353,20.64372 -22.22353,2.47189c0,-36.54015 43.28764,-8.21349 85.0704,-29.73523c39.99404,-20.60039 83.64345,-9.37431 83.64345,27.16584z" fill="#ef8b89" stroke-width="0"/></g><path d="M383.213,120.61916c0,23.48334 6.5317,8.71531 -11.46679,-0.86026c-2.20249,-1.17177 -10.47508,6.27605 -13.27454,5.04791c-1.75838,-0.77142 -8.88005,-10.17554 -10.84414,-10.85157c-1.37326,-0.47267 -12.77806,8.37757 -14.21446,7.92692c-3.58246,-1.12394 -12.30429,-11.37355 -16.15431,-12.03156c-2.12009,-0.36235 -9.52731,11.84977 -11.69189,11.59592c-2.79149,-0.32737 -10.33384,-12.06843 -13.14333,-12.06843c-7.47161,0 -7.6768,7.01079 -13.05259,13.01701c-3.49332,3.90299 -14.35688,-13.05188 -17.56298,-8.61668c-3.98159,5.50799 -7.92327,10.81771 -12.276,14.41734c-3.41488,2.82405 -13.71618,-10.09687 -16.66792,-7.47909c-14.25184,12.63935 -22.80892,20.64372 -22.80892,2.47189c0,-36.54015 39.86264,-81.25697 85.78948,-81.25697c45.92683,0 87.36842,42.14743 87.36842,78.68758z" fill="#873412" stroke-width="2"/><path d="M382.96527,119.45637c0,23.48334 6.5317,8.71531 -11.46679,-0.86026c-2.20249,-1.17177 -10.47508,6.27605 -13.27454,5.04791c-1.75838,-0.77142 -8.88005,-10.17554 -10.84415,-10.85157c-1.37326,-0.47267 -12.77806,8.37757 -14.21446,7.92692c-3.58246,-1.12394 -12.30429,-11.37355 -16.15431,-12.03156c-2.12009,-0.36235 -9.52731,11.84977 -11.69189,11.59592c-2.79149,-0.32737 -10.33384,-12.06843 -13.14333,-12.06843c-7.47161,0 -7.6768,7.01079 -13.05259,13.01701c-3.49332,3.90299 -14.35688,-13.05188 -17.56298,-8.61668c-3.98159,5.50799 -7.92327,10.81771 -12.27601,14.41734c-3.41488,2.82405 -13.71618,-10.09687 -16.66792,-7.47909c-14.25184,12.63935 -22.80892,20.64372 -22.80892,2.47189c0,-36.54015 44.42786,-8.21349 87.31121,-29.73523c41.04751,-20.60039 85.84668,-9.37431 85.84668,27.16584z" fill="#741d23" stroke-width="0"/></g><path d="M298.22177,52.31222c0.06504,0.11563 0.11871,0.24909 0.16282,0.39594c0.0942,0.25915 0.14675,0.5383 0.14957,0.82934c0.10872,1.13632 -0.04492,2.51335 0.00011,3.00545c0.05917,0.64652 1.19031,-0.74732 1.8333,-0.6576c0.39387,0.05496 0.79058,0.76163 1.08556,0.49491c1.79014,-1.61865 3.39338,-4.4788 6.14794,-2.85557c0.91226,0.53758 0.67628,1.89067 1.24094,2.5754c0.04747,0.05756 2.60921,-0.1366 3.20483,0.39633c1.0263,0.91828 0.31921,2.25188 0.84227,3.24453c0.16737,0.31764 0.57449,-0.44225 0.90296,-0.5872c1.46188,-0.64507 3.99723,-2.00657 5.75026,-1.00484c0.9237,0.52783 0.74309,2.13955 1.25,2.58145c0.88869,0.7747 1.93355,-1.36509 2.98795,-1.89251c1.4583,-0.72946 2.18563,-0.02863 3.42998,0.8575c0.21462,0.15284 0.4729,4.13203 1.5751,5.28976c0.61955,0.65076 1.65156,-0.85868 2.54995,-0.87393c0.89637,-0.01521 2.71106,-0.73753 3.13293,-0.63391c0.84623,0.20784 1.57162,1.64085 2.32283,1.19928c3.83542,-2.25449 8.74631,-0.80574 7.11144,4.15438c-0.20689,0.62772 1.32191,-0.57392 1.94893,-0.36491c0.24308,0.08102 1.59685,1.0818 1.82405,0.9958c1.48606,-0.56253 2.42529,-1.27962 4.01644,-1.28349c1.32143,-0.00321 2.58997,0.74067 2.89673,2.12114c0.16122,0.7255 -0.99738,2.12313 -0.25981,2.21439c1.73856,0.21513 4.46436,0.94049 3.69208,3.47798c-0.83832,2.75449 -3.13962,5.14362 -5.7124,3.05264c-0.89263,-0.72546 -2.30427,1.24264 -3.36004,0.78609c-1.35252,-0.58487 -2.02055,-2.87334 -1.94906,-4.04994c0.03305,-0.54391 -1.07328,0.37399 -1.61032,0.28162c-0.72305,-0.12436 -1.06576,-1.21538 -1.79736,-1.27038c-1.63644,-0.12301 -1.3588,3.26616 -5.24535,2.4796c-1.14716,-0.23216 -2.516,-2.181 -2.89553,-3.27894c-0.22031,-0.63733 1.44671,-2.64957 1.28866,-2.75515c-0.38378,-0.25637 -1.94579,2.82743 -2.37223,2.96958c-1.02591,0.34197 -2.14798,-0.37973 -3.14348,-0.80211c-0.87953,-0.37317 -1.15332,1.88993 -2.10728,1.94293c-0.84278,0.04682 -9.35342,-0.4825 -9.68874,-0.98549c-0.40882,-0.61322 -0.82062,-1.721 -0.66291,-2.43068c0.05668,-0.25505 0.97585,-1.84123 0.79428,-1.82108c-0.64439,0.07149 -4.18815,3.4397 -6.35755,0.18561c-1.1797,-1.76955 0.97225,-3.59848 0.97549,-5.22262c0.002,-1.00299 -1.1089,1.67543 -1.57852,2.56169c-0.3607,0.68072 -1.43499,1.3053 -2.20947,1.33028c-2.67773,0.08638 -1.93793,-2.47479 -2.5,-3.98918c-0.25939,-0.69888 -1.57778,0.59517 -2.22503,0.22532c-1.58252,-0.90429 -1.34694,-2.0688 -1.48465,-3.60097c-0.06306,-0.70155 -0.5487,2.71516 -2.19331,2.88171c-0.66697,0.06754 -1.7235,-0.94735 -1.98395,-0.32962c-1.26801,3.00744 -0.56288,4.21953 -4.35893,3.73846c-0.36631,-0.04642 -0.97772,0.79566 -1.37068,0.57111c-4.34916,-2.48524 -0.86033,-7.93142 -0.7383,-11.93952c0.04305,-1.41383 -0.88265,-3.52759 0.34546,-4.22937c0.43488,-0.73685 1.23698,-1.23116 2.15454,-1.23116c0.81357,0 1.53638,0.38863 1.99291,0.99036c0.07451,0.07697 0.14011,0.16278 0.19459,0.25964z" fill="#ba587e" stroke="none" stroke-width="0.5"/></g><g stroke="#000000" stroke-linecap="butt"><path d="M328.23074,161.55802c0,28.55894 -13.1683,43.28947 -29.73684,43.28947c-16.56854,0 -30.26316,-14.73054 -30.26316,-43.28947c0,-28.55894 13.43146,-51.71053 30,-51.71053c16.56854,0 30,23.15159 30,51.71053z" fill="#f0f0f0" stroke-width="2"/><path d="M281.47501,141.97564c-4.30259,28.23297 34.22345,62.0416 17.65491,62.0416c-16.56854,0 -30.26316,-14.73054 -30.26316,-43.28947c0,-28.55894 18.82852,-59.56866 12.60825,-18.75213z" fill="#9a99ff" stroke-width="0"/></g><path d="M324.33631,169.79127c0,15.82221 -4.68891,28.64865 -10.47297,28.64865c-5.78406,0 -10.47297,-12.82644 -10.47297,-28.64865c0,-15.82221 4.68891,-28.64865 10.47297,-28.64865c5.78406,0 10.47297,12.82644 10.47297,28.64865z" fill="#000000" stroke="none" stroke-width="0" stroke-linecap="butt"/><g stroke="#000000" stroke-linecap="butt"><path d="M323.22144,131.52335c4.45946,10.22981 -9.89785,14.12162 -25.60811,14.12162c-15.71026,0 -27.17995,-4.64154 -22.63514,-14.25676c4.32432,-9.14873 6.78974,-21.41892 22.5,-21.41892c15.71026,0 21.49332,11.80491 25.74324,21.55405z" fill="#a100fe" stroke-width="2"/><path d="M322.29717,131.16911c4.3074,10.22981 -9.56036,14.12162 -24.73494,14.12162c-15.17458,0 -26.25318,-4.64154 -21.86334,-14.25676c4.17687,-9.14873 6.55823,0.96203 21.73281,0.96203c15.17458,0 20.76045,-10.57604 24.86546,-0.8269z" fill="#99008e" stroke-width="0"/></g><g data-paper-data="{&quot;index&quot;:null}" stroke="#000000" stroke-linecap="butt"><path d="M361.95742,108.81019c16.56854,0 30,23.15159 30,51.71053c0,28.55893 -13.69462,43.28947 -30.26316,43.28947c-13.95828,0 -25.50331,-10.45476 -28.79453,-30.82488c-0.61548,-3.80929 -0.9423,-7.96533 -0.9423,-12.46459c0,-28.55894 13.43146,-51.71053 30,-51.71053z" fill="#f0f0f0" stroke-width="2"/><path d="M391.3214,159.69045c0,28.55893 -13.69462,43.28947 -30.26316,43.28947c-16.56854,0 21.9575,-33.80863 17.65491,-62.0416c-6.22027,-40.81653 12.60825,-9.80681 12.60825,18.75213z" fill="#9a99ff" stroke-width="0"/></g><path d="M375.47851,140.52989c5.78406,0 10.47297,12.82644 10.47297,28.64865c0,15.82221 -4.68891,28.64865 -10.47297,28.64865c-5.78406,0 -10.47297,-12.82644 -10.47297,-28.64865c0,-15.82221 4.68891,-28.64865 10.47297,-28.64865z" data-paper-data="{&quot;index&quot;:null}" fill="#000000" stroke="none" stroke-width="0" stroke-linecap="butt"/><g data-paper-data="{&quot;index&quot;:null}" stroke="#000000" stroke-linecap="butt"><path d="M336.96673,130.48601c4.24992,-9.74914 10.03298,-21.55405 25.74324,-21.55405c15.71026,0 18.17568,12.27019 22.5,21.41892c4.54481,9.61522 -6.92488,14.25676 -22.63514,14.25676c-15.71026,0 -30.06757,-3.89181 -25.60811,-14.12162z" fill="#a100fe" stroke-width="2"/><path d="M337.891,130.13177c4.10501,-9.74914 9.69088,0.8269 24.86546,0.8269c15.17458,0 17.55594,-10.11076 21.73281,-0.96203c4.38984,9.61522 -6.68876,14.25676 -21.86334,14.25676c-15.17458,0 -29.04234,-3.89181 -24.73494,-14.12162z" fill="#99008e" stroke-width="0"/></g><path d="M371.63632,338.87c0,11.6628 -14.51982,21.11737 -32.43092,21.11737c-17.9111,0 -32.43092,-9.45457 -32.43092,-21.11737c0,-2.33142 -0.03339,-13.76009 1.08979,-15.13837c4.49546,-5.51647 17.81784,5.26144 32.14847,5.26144c17.9111,0 31.62358,-1.78588 31.62358,9.87692z" fill="#000082" stroke="#000000" stroke-width="2" stroke-linecap="butt"/><path d="M369.75004,336.1377c0,6.30841 -13.89058,10.1901 -31.80169,10.1901c-17.9111,0 -30.16566,-2.95748 -30.16566,-9.26589c0,-1.26107 -0.03338,-12.52602 1.0898,-13.27153c4.49546,-2.98386 15.55258,5.7726 29.88321,5.7726c17.9111,0 30.99434,0.26631 30.99434,6.57472z" fill="#2e0048" stroke="#000000" stroke-width="0" stroke-linecap="butt"/><path d="M328.64938,338.22519c0,11.6628 -14.51982,21.11737 -32.43092,21.11737c-17.9111,0 -32.43092,-9.45457 -32.43092,-21.11737c0,-2.33142 -0.03339,-13.76009 1.08979,-15.13837c4.49546,-5.51647 17.81784,5.26144 32.14847,5.26144c17.9111,0 31.62358,-1.78588 31.62358,9.87692z" fill="#000082" stroke="#000000" stroke-width="2" stroke-linecap="butt"/><path d="M326.7631,335.49289c0,6.30841 -13.89058,10.1901 -31.80169,10.1901c-17.9111,0 -30.16566,-2.95748 -30.16566,-9.26589c0,-1.26107 -0.03338,-12.52602 1.0898,-13.27153c4.49546,-2.98386 15.55258,5.7726 29.88321,5.7726c17.9111,0 30.99434,0.26631 30.99434,6.57472z" fill="#2e0048" stroke="#000000" stroke-width="0" stroke-linecap="butt"/><g><g><path d="M316.26105,250.12305c-12.5004,8.44768 -24.04946,7.09534 -32.98075,-4.87718c-6.98528,-9.36381 -3.83898,-27.19987 8.66141,-35.64756c12.50043,-8.44774 27.03995,-6.50703 35.40348,5.86877c1.3079,1.93535 1.94056,4.1096 2.53695,6.09005c3.21715,10.68365 -3.07549,21.43929 -13.62106,28.56592z" fill="#485e84" stroke="#000000" stroke-width="2" stroke-linecap="butt"/><path d="M284.18486,220.97444c0,0 2.84782,5.00209 4.84885,5.09823c19.19436,0.92226 31.38011,-6.05811 35.23431,-8.6744c0.87568,-0.59442 0.81313,-1.71554 0.81313,-1.71554c0,0 1.36095,1.61738 2.36779,4.16695c1.07137,2.71295 1.78154,6.45453 1.3906,9.50287c-0.4466,3.48203 -3.60189,11.19907 -3.60189,11.19907l-15.3153,14.29336c0,0 -13.37825,-1.40617 -15.32338,-2.36189c-1.9056,-0.93627 -3.89194,-2.59071 -6.0747,-4.26477c-3.38905,-2.59923 -5.80734,-6.44093 -6.59418,-9.21143c-1.00414,-3.5358 -0.76562,-8.19359 0.08565,-11.91351c0.79226,-3.46207 2.16919,-6.11884 2.16919,-6.11884z" fill="#343545" stroke="none" stroke-width="0" stroke-linecap="butt"/><path d="M299.75889,239.8057c0,0 -6.49072,-6.26647 -7.2536,-11.3653c-0.96576,-6.45459 0.76763,-19.30363 0.76763,-19.30363" fill="none" stroke="#000000" stroke-width="1" stroke-linecap="round"/><path d="M322.12957,210.66691c0,0 2.66477,6.63542 3.26827,10.89072c0.60933,4.29592 -1.50213,13.76664 -1.50213,13.76664" fill="none" stroke="#000000" stroke-width="1" stroke-linecap="round"/><path d="M292.76394,248.25715c0,0 -6.75872,-6.33293 -7.33356,-11.89337c-0.88207,-8.5323 0.18494,-20.08033 0.18494,-20.08033" fill="none" stroke="#000000" stroke-width="1" stroke-linecap="round"/><path d="M281.07253,238.41295c0,0 5.45598,-16.42278 22.12135,-21.50314c18.25477,-5.5649 27.63986,8.90615 27.63986,8.90615" fill="none" stroke="#000000" stroke-width="1" stroke-linecap="round"/><path d="M285.30479,246.94482c0,0 8.31457,-15.73946 23.01075,-20.25409c12.06691,-3.70691 21.1124,7.7429 21.1124,7.7429" fill="none" stroke="#000000" stroke-width="1" stroke-linecap="round"/><path d="M307.33369,209.18569c-1.20183,0.0528 -2.20995,-0.67569 -2.25174,-1.62709c-0.04185,-0.95143 0.75226,-1.00944 1.95409,-1.06225c1.20183,-0.0528 2.35622,-0.08039 2.39803,0.87104c0.04185,0.95143 -0.89858,1.76556 -2.10036,1.81831z" fill="#8fbbbe" stroke="none" stroke-width="0" stroke-linecap="butt"/><path d="M314.57291,209.85858c-0.49836,0.33677 -1.31186,0.00382 -1.81705,-0.74371c-0.50518,-0.74752 -0.60824,-1.12249 -0.10989,-1.45929c0.49836,-0.33677 1.46227,-0.10546 1.96742,0.64209c0.50518,0.74752 0.45783,1.22413 -0.04052,1.5609z" fill="#8fbbbe" stroke="none" stroke-width="0" stroke-linecap="butt"/><path d="M300.42509,209.55373c-0.79714,0.42264 -1.67168,0.3345 -1.95346,-0.19689c-0.28179,-0.53134 0.44089,-0.85364 1.23798,-1.27631c0.79714,-0.42264 1.36676,-0.7857 1.64855,-0.25431c0.28179,0.53134 -0.13599,1.30482 -0.93309,1.72748z" fill="#8fbbbe" stroke="none" stroke-width="0" stroke-linecap="butt"/><path d="M282.34787,225.06384c0,0 6.15891,-8.1699 12.63416,-12.10574c3.67115,-2.23141 7.67706,-2.93075 10.72008,-3.42691c2.69108,-0.43884 9.0758,1.13005 13.83775,2.83942c3.50597,1.25851 6.04114,2.75514 6.04114,2.75514" fill="none" stroke="#000000" stroke-width="0.5" stroke-linecap="round"/><path d="M309.30032,204.00154c0,0 5.57864,8.98091 6.55455,14.29736c0.82225,4.47923 -0.78006,15.31884 -0.78006,15.31884" fill="none" stroke="#000000" stroke-width="1" stroke-linecap="round"/><path d="M309.49799,235.41485c0,0 -5.00827,-8.26712 -6.30128,-12.60059c-2.27027,-7.60874 -0.48546,-17.86502 -0.48546,-17.86502" fill="none" stroke="#000000" stroke-width="1" stroke-linecap="round"/></g><g stroke="#000000" stroke-linecap="butt"><path d="M286.48686,252.20388c31.97929,-9.4151 39.66425,-3.58444 41.94947,4.17753c2.28523,7.76197 -21.78658,21.68673 -53.76589,31.10182c-31.97928,9.41509 -1.48089,-56.0474 -3.7661,-63.80936c2.05133,-6.79119 7.30348,-2.91658 9.85101,4.51754c3.14171,9.16801 2.99805,24.81724 5.73152,24.01249z" fill="#0d69be" stroke-width="2"/><path d="M307.09801,233.53487c13.72633,-4.0412 28.21405,4.0965 32.35924,18.17607c4.1452,14.07957 -3.62182,28.76936 -17.34815,32.81056c-13.72633,4.0412 -28.21405,-4.09652 -32.35925,-18.17608c-4.1452,-14.07957 3.62184,-28.76935 17.34814,-32.81055z" fill="#faddbf" stroke-width="2"/><path d="M307.12615,274.95041c13.72633,-4.0412 27.25179,-37.45584 31.39699,-23.37626c4.1452,14.07957 -3.62183,28.76936 -17.34815,32.81055c-13.72633,4.0412 -27.77515,-5.39308 -14.04881,-9.43428z" fill="#ef8b89" stroke-width="0"/></g></g><path d="M258.97536,177.54247c0,5.02398 -4.00129,9.09671 -8.93712,9.09671c-4.93584,0 -10.21385,-12.69067 -10.21385,-17.71465c0,-5.02398 4.48006,4.94733 9.4159,4.94733c4.93584,0 9.73508,-1.35337 9.73508,3.6706z" fill="#000000" stroke="none" stroke-width="0" stroke-linecap="butt"/></g></g></svg>