<svg version="1.1" xmlns="http://www.w3.org/2000/svg" xmlns:xlink="http://www.w3.org/1999/xlink" width="183.90229" height="329.16624" viewBox="0,0,183.90229,329.16624"><g transform="translate(-208.51922,-31.82119)"><g data-paper-data="{&quot;isPaintingLayer&quot;:true}" fill-rule="nonzero" stroke-linejoin="miter" stroke-miterlimit="10" stroke-dasharray="" stroke-dashoffset="0" style="mix-blend-mode: normal"><g stroke="#000000" stroke-linecap="butt"><path d="M314.39225,236.18126c0.89302,33.32448 -4.94001,60.51504 -13.02847,60.73181c-8.08848,0.21676 -15.36942,-26.62238 -16.26247,-59.94686c-0.89302,-33.32448 4.94001,-60.51504 13.02847,-60.73181c8.08848,-0.21676 15.36942,26.62238 16.26246,59.94686z" fill="#0d69be" stroke-width="2"/><path d="M328.92119,282.1524c0.38331,14.30371 -11.1998,26.21789 -25.87164,26.61109c-14.67182,0.39319 -26.87644,-10.88352 -27.25975,-25.18725c-0.38331,-14.30372 11.1998,-26.21789 25.87164,-26.61109c14.67182,-0.39318 26.87644,10.88355 27.25975,25.18725z" fill="#faddbf" stroke-width="2"/><path d="M288.8854,271.55124c0.38331,14.30372 29.20792,35.95132 14.5361,36.34449c-14.67182,0.39319 -26.87643,-10.88352 -27.25975,-25.18725c-0.38331,-14.30372 12.34032,-25.46095 12.72365,-11.15725z" fill="#ef8b89" stroke-width="0"/></g><g stroke="#000000" stroke-linecap="butt"><path d="M307.76518,340.83539v-95.29492h29.49199v95.29492z" fill="#73fffc" stroke-width="2"/><path d="M307.43943,340.21745l1.32626,-93.78573c0,0 5.20288,68.11227 6.3799,77.52842c0.2602,2.08162 2.52228,2.78987 2.52228,2.78987l18.60659,13.13896z" fill="#59a9e6" stroke-width="0"/></g><g stroke="#000000" stroke-linecap="butt"><path d="M268.4238,338.41285v-95.29492h29.49199v95.29492z" fill="#73fffc" stroke-width="2"/><path d="M268.09805,337.79493l1.32626,-93.78573c0,0 5.20288,68.11227 6.3799,77.52842c0.2602,2.08162 2.52228,2.78987 2.52228,2.78987l18.60659,13.13896z" fill="#59a9e6" stroke-width="0"/></g><g stroke="#000000" stroke-linecap="butt"><path d="M335.22917,235.69588c0,13.80271 10.04743,36.74388 4.95001,46.45977c-6.2338,11.88187 -28.61241,9.09579 -38.9397,9.09579c-13.66287,0 -32.94407,4.17018 -38.34426,-14.83216c-2.01935,-7.10576 4.35457,-32.37264 4.35457,-40.7234c0,-30.68249 15.2177,-55.55556 33.98969,-55.55556c18.77199,0 33.98969,24.87307 33.98969,55.55556z" fill="#0d69be" stroke-width="2"/><path d="M283.96554,251.27245c0,13.80271 62.04198,20.54886 56.94455,30.26474c-6.2338,11.88186 -28.61241,9.09579 -38.9397,9.09579c-13.66287,0 -32.94406,4.17018 -38.34425,-14.83215c-2.01936,-7.10576 4.35457,-32.37265 4.35457,-40.7234c0,-9.45244 3.34855,-28.59801 5.51953,-29.96813c5.94391,-16.76415 10.4653,25.13995 10.4653,46.16315z" fill="#10157d" stroke-width="0"/></g><g stroke-linecap="butt"><g stroke="#000000"><g><path d="M212.22222,120.27785c0,-46.79079 37.93143,-84.72222 84.72222,-84.72222c46.79079,0 84.72222,37.93143 84.72222,84.72222c0,46.79079 -37.93143,84.72222 -84.72222,84.72222c-46.79079,0 -84.72222,-37.93143 -84.72222,-84.72222z" fill="#faddbf" stroke-width="2"/><path d="M212.45299,119.40834c0,-15.05428 8.65728,-41.01117 13.16632,-44.22534c0.51494,-0.36707 5.78642,-8.91029 13.30693,-15.62682c9.34748,-8.34819 21.31473,-15.15641 21.9255,-14.95935c7.96872,2.57101 -17.52654,64.85492 -16.28763,90.14485c0.00295,0.06031 4.40745,19.70158 6.02593,20.14049c2.8855,4.74247 9.11092,19.15337 19.99223,26.29351c20.2786,13.30648 48.94186,19.68013 47.45857,20.18586c-2.37273,0.80898 -14.80271,2.76903 -20.86562,2.76903c-46.79079,0 -84.72222,-37.93143 -84.72222,-84.72222z" fill="#ef8b89" stroke-width="0"/><path d="M381.14322,119.81965c0,11.62434 -1.57787,15.64071 -2.12992,13.78899c-0.5632,-1.8891 -0.18668,-9.81362 -9.04258,-14.64925c-2.14596,-1.17177 -10.20624,6.27605 -12.93385,5.04791c-1.71325,-0.77142 -8.65215,-10.17554 -10.56583,-10.85157c-1.33801,-0.47267 -12.45011,8.37757 -13.84965,7.92692c-3.49052,-1.12394 -11.98851,-11.37355 -15.73972,-12.03156c-2.06568,-0.36235 -9.2828,11.84977 -11.39182,11.59592c-2.71985,-0.32737 -10.06862,-12.06843 -12.80601,-12.06843c-7.27985,0 -7.47978,7.01079 -12.7176,13.01701c-3.40366,3.90299 -13.98842,-13.05188 -17.11223,-8.61668c-3.87941,5.50799 -7.71992,10.81771 -11.96095,14.41734c-3.32724,2.82405 -13.36416,-10.09687 -16.24015,-7.47909c-13.88607,12.63935 -22.22353,20.64372 -22.22353,2.47189c0,-36.54015 43.28764,-8.21349 85.0704,-29.73523c39.99404,-20.60039 83.64345,-9.37431 83.64345,27.16584z" fill="#ef8b89" stroke-width="0"/></g><path d="M382.67709,111.50876c0,23.48334 6.5317,8.71531 -11.46679,-0.86026c-2.20249,-1.17177 -10.47508,6.27605 -13.27454,5.04791c-1.75838,-0.77142 -8.88005,-10.17554 -10.84414,-10.85157c-1.37326,-0.47267 -12.77806,8.37757 -14.21446,7.92692c-3.58246,-1.12394 -12.30429,-11.37355 -16.15431,-12.03156c-2.12009,-0.36235 -9.52731,11.84977 -11.69189,11.59592c-2.79149,-0.32737 -10.33384,-12.06843 -13.14333,-12.06843c-7.47161,0 -7.6768,7.01079 -13.05259,13.01701c-3.49332,3.90299 -14.35688,-13.05188 -17.56298,-8.61668c-3.98159,5.50799 -7.92327,10.81771 -12.276,14.41734c-3.41488,2.82405 -13.71618,-10.09687 -16.66792,-7.47909c-14.25184,12.63935 -22.80892,20.64372 -22.80892,2.47189c0,-36.54015 39.86264,-81.25697 85.78948,-81.25697c45.92683,0 87.36842,42.14743 87.36842,78.68758z" fill="#873412" stroke-width="2"/><path d="M382.42936,110.34597c0,23.48334 6.5317,8.71531 -11.46679,-0.86026c-2.20249,-1.17177 -10.47508,6.27605 -13.27454,5.04791c-1.75838,-0.77142 -8.88005,-10.17554 -10.84415,-10.85157c-1.37326,-0.47267 -12.77806,8.37757 -14.21446,7.92692c-3.58246,-1.12394 -12.30429,-11.37355 -16.15431,-12.03156c-2.12009,-0.36235 -9.52731,11.84977 -11.69189,11.59592c-2.79149,-0.32737 -10.33384,-12.06843 -13.14333,-12.06843c-7.47161,0 -7.6768,7.01079 -13.05259,13.01701c-3.49332,3.90299 -14.35688,-13.05188 -17.56298,-8.61668c-3.98159,5.50799 -7.92327,10.81771 -12.27601,14.41734c-3.41488,2.82405 -13.71618,-10.09687 -16.66792,-7.47909c-14.25184,12.63935 -22.80892,20.64372 -22.80892,2.47189c0,-36.54015 44.42786,-8.21349 87.31121,-29.73523c41.04751,-20.60039 85.84668,-9.37431 85.84668,27.16584z" fill="#741d23" stroke-width="0"/></g><path d="M297.68586,43.20182c0.06504,0.11563 0.11871,0.24909 0.16282,0.39594c0.0942,0.25915 0.14675,0.5383 0.14957,0.82934c0.10872,1.13632 -0.04492,2.51335 0.00011,3.00545c0.05917,0.64652 1.19031,-0.74732 1.8333,-0.6576c0.39387,0.05496 0.79058,0.76163 1.08556,0.49491c1.79014,-1.61865 3.39338,-4.4788 6.14794,-2.85557c0.91226,0.53758 0.67628,1.89067 1.24094,2.5754c0.04747,0.05756 2.60921,-0.1366 3.20483,0.39633c1.0263,0.91828 0.31921,2.25188 0.84227,3.24453c0.16737,0.31764 0.57449,-0.44225 0.90296,-0.5872c1.46188,-0.64507 3.99723,-2.00657 5.75026,-1.00484c0.9237,0.52783 0.74309,2.13955 1.25,2.58145c0.88869,0.7747 1.93355,-1.36509 2.98795,-1.89251c1.4583,-0.72946 2.18563,-0.02863 3.42998,0.8575c0.21462,0.15284 0.4729,4.13203 1.5751,5.28976c0.61955,0.65076 1.65156,-0.85868 2.54995,-0.87393c0.89637,-0.01521 2.71106,-0.73753 3.13293,-0.63391c0.84623,0.20784 1.57162,1.64085 2.32283,1.19928c3.83542,-2.25449 8.74631,-0.80574 7.11144,4.15438c-0.20689,0.62772 1.32191,-0.57392 1.94893,-0.36491c0.24308,0.08102 1.59685,1.0818 1.82405,0.9958c1.48606,-0.56253 2.42529,-1.27962 4.01644,-1.28349c1.32143,-0.00321 2.58997,0.74067 2.89673,2.12114c0.16122,0.7255 -0.99738,2.12313 -0.25981,2.21439c1.73856,0.21513 4.46436,0.94049 3.69208,3.47798c-0.83832,2.75449 -3.13962,5.14362 -5.7124,3.05264c-0.89263,-0.72546 -2.30427,1.24264 -3.36004,0.78609c-1.35252,-0.58487 -2.02055,-2.87334 -1.94906,-4.04994c0.03305,-0.54391 -1.07328,0.37399 -1.61032,0.28162c-0.72305,-0.12436 -1.06576,-1.21538 -1.79736,-1.27038c-1.63644,-0.12301 -1.3588,3.26616 -5.24535,2.4796c-1.14716,-0.23216 -2.516,-2.181 -2.89553,-3.27894c-0.22031,-0.63733 1.44671,-2.64957 1.28866,-2.75515c-0.38378,-0.25637 -1.94579,2.82743 -2.37223,2.96958c-1.02591,0.34197 -2.14798,-0.37973 -3.14348,-0.80211c-0.87953,-0.37317 -1.15332,1.88993 -2.10728,1.94293c-0.84278,0.04682 -9.35342,-0.4825 -9.68874,-0.98549c-0.40882,-0.61322 -0.82062,-1.721 -0.66291,-2.43068c0.05668,-0.25505 0.97585,-1.84123 0.79428,-1.82108c-0.64439,0.07149 -4.18815,3.4397 -6.35755,0.18561c-1.1797,-1.76955 0.97225,-3.59848 0.97549,-5.22262c0.002,-1.00299 -1.1089,1.67543 -1.57852,2.56169c-0.3607,0.68072 -1.43499,1.3053 -2.20947,1.33028c-2.67773,0.08638 -1.93793,-2.47479 -2.5,-3.98918c-0.25939,-0.69888 -1.57778,0.59517 -2.22503,0.22532c-1.58252,-0.90429 -1.34694,-2.0688 -1.48465,-3.60097c-0.06306,-0.70155 -0.5487,2.71516 -2.19331,2.88171c-0.66697,0.06754 -1.7235,-0.94735 -1.98395,-0.32962c-1.26801,3.00744 -0.56288,4.21953 -4.35893,3.73846c-0.36631,-0.04642 -0.97772,0.79566 -1.37068,0.57111c-4.34916,-2.48524 -0.86033,-7.93142 -0.7383,-11.93952c0.04305,-1.41383 -0.88265,-3.52759 0.34546,-4.22937c0.43488,-0.73685 1.23698,-1.23116 2.15454,-1.23116c0.81357,0 1.53638,0.38863 1.99291,0.99036c0.07451,0.07697 0.14011,0.16278 0.19459,0.25964z" fill="#ba587e" stroke="none" stroke-width="0.5"/></g><g stroke="#000000" stroke-linecap="butt"><path d="M327.69483,152.44761c0,28.55894 -13.1683,43.28947 -29.73684,43.28947c-16.56854,0 -30.26316,-14.73054 -30.26316,-43.28947c0,-28.55894 13.43146,-51.71053 30,-51.71053c16.56854,0 30,23.15159 30,51.71053z" fill="#f0f0f0" stroke-width="2"/><path d="M280.9391,132.86523c-4.30259,28.23297 34.22345,62.0416 17.65491,62.0416c-16.56854,0 -30.26316,-14.73054 -30.26316,-43.28947c0,-28.55894 18.82852,-59.56866 12.60825,-18.75213z" fill="#9a99ff" stroke-width="0"/></g><path d="M323.8004,160.68086c0,15.82221 -4.68891,28.64865 -10.47297,28.64865c-5.78406,0 -10.47297,-12.82644 -10.47297,-28.64865c0,-15.82221 4.68891,-28.64865 10.47297,-28.64865c5.78406,0 10.47297,12.82644 10.47297,28.64865z" fill="#000000" stroke="none" stroke-width="0" stroke-linecap="butt"/><g stroke="#000000" stroke-linecap="butt"><path d="M322.68553,122.41295c4.45946,10.22981 9.32841,32.87316 -6.38185,32.87316c-15.71026,0 -46.40621,-23.39308 -41.8614,-33.0083c4.32432,-9.14873 6.78974,-21.41892 22.5,-21.41892c15.71026,0 21.49332,11.80491 25.74324,21.55405z" fill="#a100fe" stroke-width="2"/><path d="M321.76126,122.05872c4.3074,10.22981 9.42854,32.39844 -5.74604,32.39844c-15.17458,0 -45.24208,-22.91836 -40.85224,-32.53358c4.17687,-9.14873 6.55823,0.96203 21.73281,0.96203c15.17458,0 20.76045,-10.57604 24.86546,-0.8269z" fill="#99008e" stroke-width="0"/></g><g data-paper-data="{&quot;index&quot;:null}" stroke="#000000" stroke-linecap="butt"><path d="M361.42151,99.69979c16.56854,0 30,23.15159 30,51.71053c0,28.55893 -13.69462,43.28947 -30.26316,43.28947c-16.56854,0 -29.73684,-14.73053 -29.73684,-43.28947c0,-28.55894 13.43146,-51.71053 30,-51.71053z" fill="#f0f0f0" stroke-width="2"/><path d="M390.78549,150.58004c0,28.55893 -13.69462,43.28947 -30.26316,43.28947c-16.56854,0 21.9575,-33.80863 17.65491,-62.0416c-6.22027,-40.81653 12.60825,-9.80681 12.60825,18.75213z" fill="#9a99ff" stroke-width="0"/></g><path d="M374.9426,131.41949c5.78406,0 10.47297,12.82644 10.47297,28.64865c0,15.82221 -4.68891,28.64865 -10.47297,28.64865c-5.78406,0 -10.47297,-12.82644 -10.47297,-28.64865c0,-15.82221 4.68891,-28.64865 10.47297,-28.64865z" data-paper-data="{&quot;index&quot;:null}" fill="#000000" stroke="none" stroke-width="0" stroke-linecap="butt"/><g data-paper-data="{&quot;index&quot;:null}" stroke="#000000" stroke-linecap="butt"><path d="M336.43082,121.37561c4.24992,-9.74914 10.03298,-21.55405 25.74324,-21.55405c15.71026,0 18.17568,12.27019 22.5,21.41892c4.54481,9.61522 -24.96434,32.77094 -40.6746,32.77094c-15.71026,0 -12.02811,-22.40599 -7.56865,-32.6358z" fill="#a100fe" stroke-width="2"/><path d="M337.35509,121.02138c4.10501,-9.74914 9.69088,0.8269 24.86546,0.8269c15.17458,0 17.55594,-10.11076 21.73281,-0.96203c4.38984,9.61522 -24.72822,32.05886 -39.9028,32.05886c-15.17458,0 -11.00288,-21.69391 -6.69548,-31.92372z" fill="#99008e" stroke-width="0"/></g><path d="M371.63632,338.87007c0,11.6628 -14.51982,21.11737 -32.43092,21.11737c-17.9111,0 -32.43092,-9.45457 -32.43092,-21.11737c0,-2.33142 -0.03339,-13.76009 1.08979,-15.13837c4.49546,-5.51647 17.81784,5.26144 32.14847,5.26144c17.9111,0 31.62358,-1.78588 31.62358,9.87692z" fill="#000082" stroke="#000000" stroke-width="2" stroke-linecap="butt"/><path d="M369.75004,336.13777c0,6.30841 -13.89058,10.1901 -31.80169,10.1901c-17.9111,0 -30.16566,-2.95748 -30.16566,-9.26589c0,-1.26107 -0.03338,-12.52602 1.0898,-13.27153c4.49546,-2.98386 15.55258,5.7726 29.88321,5.7726c17.9111,0 30.99434,0.26631 30.99434,6.57472z" fill="#2e0048" stroke="#000000" stroke-width="0" stroke-linecap="butt"/><path d="M328.64938,338.22526c0,11.6628 -14.51982,21.11737 -32.43092,21.11737c-17.9111,0 -32.43092,-9.45457 -32.43092,-21.11737c0,-2.33142 -0.03339,-13.76009 1.08979,-15.13837c4.49546,-5.51647 17.81784,5.26144 32.14847,5.26144c17.9111,0 31.62358,-1.78588 31.62358,9.87692z" fill="#000082" stroke="#000000" stroke-width="2" stroke-linecap="butt"/><path d="M326.7631,335.49289c0,6.30841 -13.89058,10.1901 -31.80169,10.1901c-17.9111,0 -30.16566,-2.95748 -30.16566,-9.26589c0,-1.26107 -0.03338,-12.52602 1.0898,-13.27153c4.49546,-2.98386 15.55258,5.7726 29.88321,5.7726c17.9111,0 30.99434,0.26631 30.99434,6.57472z" fill="#2e0048" stroke="#000000" stroke-width="0" stroke-linecap="butt"/><g><g><path d="M319.77779,238.48661c-11.45499,9.81865 -23.08295,9.79273 -33.32184,-1.08266c-8.00795,-8.50575 -6.91707,-26.5843 4.53795,-36.40296c11.45503,-9.81872 26.12104,-9.54945 35.84187,1.79138c1.52016,1.77347 2.39677,3.86138 3.21519,5.76084c4.41502,10.24687 -0.60947,21.6502 -10.27313,29.93341z" fill="#485e84" stroke="#000000" stroke-width="2" stroke-linecap="butt"/><path d="M284.58556,213.18778c0,0 3.3999,4.64455 5.39885,4.51175c19.17425,-1.27359 30.48408,-9.59861 34.01461,-12.63753c0.80216,-0.69043 0.6121,-1.79711 0.6121,-1.79711c0,0 1.53657,1.45156 2.82771,3.86961c1.37388,2.573 2.50628,6.20917 2.46568,9.28219c-0.04641,3.51027 -2.3007,11.53688 -2.3007,11.53688l-13.58462,15.94732c0,0 -13.45134,0.12928 -15.4928,-0.59829c-1.99997,-0.71276 -4.1621,-2.12978 -6.52158,-3.54385c-3.66345,-2.19563 -6.50423,-5.73633 -7.60202,-8.39899c-1.40098,-3.39815 -1.69543,-8.05275 -1.27409,-11.8455c0.39211,-3.52986 1.45694,-6.32638 1.45694,-6.32638z" fill="#343545" stroke="none" stroke-width="0" stroke-linecap="butt"/><path d="M302.20631,230.11928c0,0 -7.16326,-5.48505 -8.50286,-10.46356c-1.69585,-6.30227 -1.43969,-19.26516 -1.43969,-19.26516" fill="none" stroke="#000000" stroke-width="1" stroke-linecap="round"/><path d="M321.10655,198.61855c0,0 3.4044,6.2881 4.48943,10.44675c1.09545,4.19834 0.07826,13.84813 0.07826,13.84813" fill="none" stroke="#000000" stroke-width="1" stroke-linecap="round"/><path d="M296.22124,239.31359c0,0 -7.43712,-5.52049 -8.64258,-10.97904c-1.84972,-8.37596 -2.10717,-19.97035 -2.10717,-19.97035" fill="none" stroke="#000000" stroke-width="1" stroke-linecap="round"/><path d="M283.48305,230.86751c0,0 3.54674,-16.93802 19.52368,-23.88648c17.50071,-7.61117 28.47546,5.69465 28.47546,5.69465" fill="none" stroke="#000000" stroke-width="1" stroke-linecap="round"/><path d="M288.66105,238.86082c0,0 6.46461,-16.58526 20.54978,-22.74705c11.56523,-5.05937 21.85792,5.28368 21.85792,5.28368" fill="none" stroke="#000000" stroke-width="1" stroke-linecap="round"/><path d="M306.23829,198.83502c-1.18798,0.1896 -2.27262,-0.41914 -2.42269,-1.35958c-0.15012,-0.94044 0.63219,-1.08867 1.82015,-1.27825c1.18798,-0.1896 2.33169,-0.34868 2.48175,0.59177c0.15012,0.94044 -0.69127,1.85651 -1.87921,2.04607z" fill="#8fbbbe" stroke="none" stroke-width="0" stroke-linecap="butt"/><path d="M313.50703,198.67761c-0.45669,0.39142 -1.30288,0.15347 -1.89006,-0.53154c-0.58717,-0.68503 -0.73234,-1.04576 -0.27567,-1.43722c0.45669,-0.39142 1.4407,-0.27158 2.02783,0.41343c0.58717,0.68503 0.59451,1.16392 0.13781,1.55535z" fill="#8fbbbe" stroke="none" stroke-width="0" stroke-linecap="butt"/><path d="M299.41681,199.98885c-0.7437,0.51085 -1.62258,0.52305 -1.96317,0.02727c-0.34058,-0.49573 0.34062,-0.89836 1.08429,-1.4092c0.7437,-0.51085 1.26821,-0.93651 1.60878,-0.44073c0.34058,0.49573 0.01377,1.31184 -0.72991,1.82265z" fill="#8fbbbe" stroke="none" stroke-width="0" stroke-linecap="butt"/><path d="M283.22709,217.46004c0,0 5.18661,-8.81923 11.17059,-13.46811c3.3926,-2.63566 7.29257,-3.78745 10.25913,-4.62756c2.62344,-0.74296 9.14545,0.08724 14.07134,1.24216c3.62667,0.8503 6.31601,2.04794 6.31601,2.04794" fill="none" stroke="#000000" stroke-width="0.5" stroke-linecap="round"/><path d="M307.60065,193.46034c0,0 6.56682,8.28584 8.14289,13.45625c1.32791,4.35617 0.97272,15.30781 0.97272,15.30781" fill="none" stroke="#000000" stroke-width="1" stroke-linecap="round"/><path d="M311.38086,224.646c0,0 -5.91875,-7.64179 -7.69771,-11.79942c-3.12351,-7.30003 -2.52046,-17.69299 -2.52046,-17.69299" fill="none" stroke="#000000" stroke-width="1" stroke-linecap="round"/></g><g stroke="#000000" stroke-linecap="butt"><path d="M290.43539,243.95069c30.69634,-13.00205 38.99633,-8.0862 42.15216,-0.63563c3.15584,7.45057 -19.17017,24.03069 -49.86652,37.03274c-30.69635,13.00203 -7.8655,-55.51251 -11.02133,-62.96308c1.26315,-6.98089 6.92304,-3.73076 10.30209,3.36418c4.16715,8.74971 5.80979,24.31318 8.4336,23.20181z" fill="#0d69be" stroke-width="2"/><path d="M308.78207,223.0521c13.17567,-5.5808 28.49718,0.8509 34.22161,14.36564c5.72443,13.51474 -0.31598,28.99473 -13.49162,34.57554c-13.17567,5.5808 -28.49719,-0.85092 -34.22161,-14.36565c-5.72443,-13.51474 0.31598,-28.9947 13.49166,-34.57551z" fill="#faddbf" stroke-width="2"/><path d="M313.535,264.19402c13.17567,-5.5808 22.80061,-40.32034 28.52507,-26.80561c5.72443,13.51474 -0.31599,28.99471 -13.49166,34.57551c-13.17567,5.5808 -28.20909,-2.1891 -15.03343,-7.7699z" fill="#ef8b89" stroke-width="0"/></g></g><path d="M257.78125,165.96665c0.02115,-0.2592 0.17189,-1.18311 1.24655,-1.18311c1.25,0 1.25,1.25 1.25,1.25l-0.03732,0.40508c-0.58182,2.32384 -1.41717,4.55876 -2.07889,6.85751c-0.83246,1.81298 -1.71032,4.15645 -3.33824,5.42616c-3.29656,2.57116 -8.00043,-0.21957 -9.47271,-3.52017c-1.88426,-4.22419 -1.28459,-9.83922 -0.05916,-14.19964c0,0 0.3434,-1.2019 1.54531,-0.8585c1.2019,0.3434 0.8585,1.54531 0.8585,1.54531c-0.89269,3.06425 -1.61878,7.69803 -0.71146,10.83519c0.58872,2.03558 2.75464,5.52638 5.50149,4.7349c1.73262,-0.49924 2.67443,-3.4161 3.33246,-4.83304c0.61454,-2.16843 1.40696,-4.273 1.96347,-6.45967z" fill="#000000" stroke="none" stroke-width="0.5" stroke-linecap="butt"/></g></g></svg>