<svg version="1.1" xmlns="http://www.w3.org/2000/svg" xmlns:xlink="http://www.w3.org/1999/xlink" width="198.90488" height="329.16617" viewBox="0,0,198.90488,329.16617"><g transform="translate(-217.1743,-31.82119)"><g data-paper-data="{&quot;isPaintingLayer&quot;:true}" fill-rule="nonzero" stroke-linejoin="miter" stroke-miterlimit="10" stroke-dasharray="" stroke-dashoffset="0" style="mix-blend-mode: normal"><g stroke="#000000" stroke-linecap="butt"><path d="M311.0884,227.98302c22.58277,-24.52218 45.71477,-39.95791 51.66676,-34.47665c5.95199,5.48126 -7.52993,29.80386 -30.1127,54.32604c-22.58277,24.52218 -45.71476,39.95791 -51.66675,34.47666c-5.95199,-5.48125 7.52993,-29.80386 30.11271,-54.32604z" fill="#0d69be" stroke-width="2"/><path d="M332.70492,184.88823c9.6931,-10.52554 26.30313,-10.99815 37.09956,-1.0556c10.79642,9.94255 11.69086,26.53522 1.99775,37.06076c-9.69311,10.52554 -26.30313,10.99814 -37.09956,1.05559c-10.79642,-9.94255 -11.69085,-26.53522 -1.99775,-37.06076z" fill="#faddbf" stroke-width="2"/><path d="M354.03026,220.39144c9.69311,-10.52554 4.10634,-46.13824 14.90276,-36.19568c10.79642,9.94255 11.69083,26.53521 1.99775,37.06076c-9.69311,10.52554 -26.5936,9.66048 -16.9005,-0.86506z" fill="#ef8b89" stroke-width="0"/></g><g stroke="#000000" stroke-linecap="butt"><path d="M307.76518,340.83532v-95.29492h29.49199v95.29492z" fill="#73fffc" stroke-width="2"/><path d="M307.43943,340.21738l1.32626,-93.78573c0,0 5.20288,68.11227 6.3799,77.52842c0.2602,2.08162 2.52228,2.78987 2.52228,2.78987l18.60659,13.13896z" fill="#59a9e6" stroke-width="0"/></g><g stroke="#000000" stroke-linecap="butt"><path d="M268.4238,338.4128v-95.29492h29.49199v95.29492z" fill="#73fffc" stroke-width="2"/><path d="M268.09805,337.79486l1.32626,-93.78573c0,0 5.20288,68.11227 6.3799,77.52842c0.2602,2.08162 2.52228,2.78987 2.52228,2.78987l18.60659,13.13896z" fill="#59a9e6" stroke-width="0"/></g><g stroke="#000000" stroke-linecap="butt"><path d="M335.22917,235.69584c0,13.80271 10.04743,36.74388 4.95001,46.45977c-6.2338,11.88187 -28.61241,9.09579 -38.9397,9.09579c-13.66287,0 -32.94407,4.17018 -38.34426,-14.83216c-2.01935,-7.10576 4.35457,-32.37264 4.35457,-40.7234c0,-30.68249 15.2177,-55.55556 33.98969,-55.55556c18.77199,0 33.98969,24.87307 33.98969,55.55556z" fill="#0d69be" stroke-width="2"/><path d="M283.96554,251.27245c0,13.80271 62.04198,20.54886 56.94455,30.26474c-6.2338,11.88186 -28.61241,9.09579 -38.9397,9.09579c-13.66287,0 -32.94406,4.17018 -38.34425,-14.83215c-2.01936,-7.10576 4.35457,-32.37265 4.35457,-40.7234c0,-9.45244 3.34855,-28.59801 5.51953,-29.96813c5.94391,-16.76415 10.4653,25.13995 10.4653,46.16315z" fill="#10157d" stroke-width="0"/></g><g stroke-linecap="butt"><g stroke="#000000"><g><path d="M220.8773,120.27785c0,-46.79079 37.93143,-84.72222 84.72222,-84.72222c46.79079,0 84.72222,37.93143 84.72222,84.72222c0,46.79079 -37.93143,84.72222 -84.72222,84.72222c-46.79079,0 -84.72222,-37.93143 -84.72222,-84.72222z" fill="#faddbf" stroke-width="2"/><path d="M221.10807,119.40834c0,-15.05428 8.65728,-41.01117 13.16632,-44.22534c0.51494,-0.36707 5.78642,-8.91029 13.30693,-15.62682c9.34748,-8.34819 21.31473,-15.15641 21.9255,-14.95935c7.96872,2.57101 -17.52654,64.85492 -16.28763,90.14485c0.00295,0.06031 4.40745,19.70158 6.02593,20.14049c2.8855,4.74247 9.11092,19.15337 19.99223,26.29351c20.2786,13.30648 48.94186,19.68013 47.45857,20.18586c-2.37273,0.80898 -14.80271,2.76903 -20.86562,2.76903c-46.79079,0 -84.72222,-37.93143 -84.72222,-84.72222z" fill="#ef8b89" stroke-width="0"/><path d="M389.7983,119.81965c0,11.62434 -1.57787,15.64071 -2.12992,13.78899c-0.5632,-1.8891 -0.18668,-9.81362 -9.04258,-14.64925c-2.14596,-1.17177 -10.20624,6.27605 -12.93385,5.04791c-1.71325,-0.77142 -8.65215,-10.17554 -10.56583,-10.85157c-1.33801,-0.47267 -12.45011,8.37757 -13.84965,7.92692c-3.49052,-1.12394 -11.98851,-11.37355 -15.73972,-12.03156c-2.06568,-0.36235 -9.2828,11.84977 -11.39182,11.59592c-2.71985,-0.32737 -10.06862,-12.06843 -12.80601,-12.06843c-7.27985,0 -7.47978,7.01079 -12.7176,13.01701c-3.40366,3.90299 -13.98842,-13.05188 -17.11223,-8.61668c-3.87941,5.50799 -7.71992,10.81771 -11.96095,14.41734c-3.32724,2.82405 -13.36416,-10.09687 -16.24015,-7.47909c-13.88607,12.63935 -22.22353,20.64372 -22.22353,2.47189c0,-36.54015 43.28764,-8.21349 85.0704,-29.73523c39.99404,-20.60039 83.64345,-9.37431 83.64345,27.16584z" fill="#ef8b89" stroke-width="0"/></g><path d="M391.33217,111.50876c0,23.48334 6.5317,8.71531 -11.46679,-0.86026c-2.20249,-1.17177 -10.47508,6.27605 -13.27454,5.04791c-1.75838,-0.77142 -8.88005,-10.17554 -10.84414,-10.85157c-1.37326,-0.47267 -12.77806,8.37757 -14.21446,7.92692c-3.58246,-1.12394 -12.30429,-11.37355 -16.15431,-12.03156c-2.12009,-0.36235 -9.52731,11.84977 -11.69189,11.59592c-2.79149,-0.32737 -10.33384,-12.06843 -13.14333,-12.06843c-7.47161,0 -7.6768,7.01079 -13.05259,13.01701c-3.49332,3.90299 -14.35688,-13.05188 -17.56298,-8.61668c-3.98159,5.50799 -7.92327,10.81771 -12.276,14.41734c-3.41488,2.82405 -13.71618,-10.09687 -16.66792,-7.47909c-14.25184,12.63935 -22.80892,20.64372 -22.80892,2.47189c0,-36.54015 39.86264,-81.25697 85.78948,-81.25697c45.92683,0 87.36842,42.14743 87.36842,78.68758z" fill="#873412" stroke-width="2"/><path d="M391.08444,110.34597c0,23.48334 6.5317,8.71531 -11.46679,-0.86026c-2.20249,-1.17177 -10.47508,6.27605 -13.27454,5.04791c-1.75838,-0.77142 -8.88005,-10.17554 -10.84415,-10.85157c-1.37326,-0.47267 -12.77806,8.37757 -14.21446,7.92692c-3.58246,-1.12394 -12.30429,-11.37355 -16.15431,-12.03156c-2.12009,-0.36235 -9.52731,11.84977 -11.69189,11.59592c-2.79149,-0.32737 -10.33384,-12.06843 -13.14333,-12.06843c-7.47161,0 -7.6768,7.01079 -13.05259,13.01701c-3.49332,3.90299 -14.35688,-13.05188 -17.56298,-8.61668c-3.98159,5.50799 -7.92327,10.81771 -12.27601,14.41734c-3.41488,2.82405 -13.71618,-10.09687 -16.66792,-7.47909c-14.25184,12.63935 -22.80892,20.64372 -22.80892,2.47189c0,-36.54015 44.42786,-8.21349 87.31121,-29.73523c41.04751,-20.60039 85.84668,-9.37431 85.84668,27.16584z" fill="#741d23" stroke-width="0"/></g><path d="M306.34094,43.20182c0.06504,0.11563 0.11871,0.24909 0.16282,0.39594c0.0942,0.25915 0.14675,0.5383 0.14957,0.82934c0.10872,1.13632 -0.04492,2.51335 0.00011,3.00545c0.05917,0.64652 1.19031,-0.74732 1.8333,-0.6576c0.39387,0.05496 0.79058,0.76163 1.08556,0.49491c1.79014,-1.61865 3.39338,-4.4788 6.14794,-2.85557c0.91226,0.53758 0.67628,1.89067 1.24094,2.5754c0.04747,0.05756 2.60921,-0.1366 3.20483,0.39633c1.0263,0.91828 0.31921,2.25188 0.84227,3.24453c0.16737,0.31764 0.57449,-0.44225 0.90296,-0.5872c1.46188,-0.64507 3.99723,-2.00657 5.75026,-1.00484c0.9237,0.52783 0.74309,2.13955 1.25,2.58145c0.88869,0.7747 1.93355,-1.36509 2.98795,-1.89251c1.4583,-0.72946 2.18563,-0.02863 3.42998,0.8575c0.21462,0.15284 0.4729,4.13203 1.5751,5.28976c0.61955,0.65076 1.65156,-0.85868 2.54995,-0.87393c0.89637,-0.01521 2.71106,-0.73753 3.13293,-0.63391c0.84623,0.20784 1.57162,1.64085 2.32283,1.19928c3.83542,-2.25449 8.74631,-0.80574 7.11144,4.15438c-0.20689,0.62772 1.32191,-0.57392 1.94893,-0.36491c0.24308,0.08102 1.59685,1.0818 1.82405,0.9958c1.48606,-0.56253 2.42529,-1.27962 4.01644,-1.28349c1.32143,-0.00321 2.58997,0.74067 2.89673,2.12114c0.16122,0.7255 -0.99738,2.12313 -0.25981,2.21439c1.73856,0.21513 4.46436,0.94049 3.69208,3.47798c-0.83832,2.75449 -3.13962,5.14362 -5.7124,3.05264c-0.89263,-0.72546 -2.30427,1.24264 -3.36004,0.78609c-1.35252,-0.58487 -2.02055,-2.87334 -1.94906,-4.04994c0.03305,-0.54391 -1.07328,0.37399 -1.61032,0.28162c-0.72305,-0.12436 -1.06576,-1.21538 -1.79736,-1.27038c-1.63644,-0.12301 -1.3588,3.26616 -5.24535,2.4796c-1.14716,-0.23216 -2.516,-2.181 -2.89553,-3.27894c-0.22031,-0.63733 1.44671,-2.64957 1.28866,-2.75515c-0.38378,-0.25637 -1.94579,2.82743 -2.37223,2.96958c-1.02591,0.34197 -2.14798,-0.37973 -3.14348,-0.80211c-0.87953,-0.37317 -1.15332,1.88993 -2.10728,1.94293c-0.84278,0.04682 -9.35342,-0.4825 -9.68874,-0.98549c-0.40882,-0.61322 -0.82062,-1.721 -0.66291,-2.43068c0.05668,-0.25505 0.97585,-1.84123 0.79428,-1.82108c-0.64439,0.07149 -4.18815,3.4397 -6.35755,0.18561c-1.1797,-1.76955 0.97225,-3.59848 0.97549,-5.22262c0.002,-1.00299 -1.1089,1.67543 -1.57852,2.56169c-0.3607,0.68072 -1.43499,1.3053 -2.20947,1.33028c-2.67773,0.08638 -1.93793,-2.47479 -2.5,-3.98918c-0.25939,-0.69888 -1.57778,0.59517 -2.22503,0.22532c-1.58252,-0.90429 -1.34694,-2.0688 -1.48465,-3.60097c-0.06306,-0.70155 -0.5487,2.71516 -2.19331,2.88171c-0.66697,0.06754 -1.7235,-0.94735 -1.98395,-0.32962c-1.26801,3.00744 -0.56288,4.21953 -4.35893,3.73846c-0.36631,-0.04642 -0.97772,0.79566 -1.37068,0.57111c-4.34916,-2.48524 -0.86033,-7.93142 -0.7383,-11.93952c0.04305,-1.41383 -0.88265,-3.52759 0.34546,-4.22937c0.43488,-0.73685 1.23698,-1.23116 2.15454,-1.23116c0.81357,0 1.53638,0.38863 1.99291,0.99036c0.07451,0.07697 0.14011,0.16278 0.19459,0.25964z" fill="#ba587e" stroke="none" stroke-width="0.5"/></g><g stroke="#000000" stroke-linecap="butt"><path d="M352.38716,154.51695c0,28.55894 -13.1683,43.28947 -29.73684,43.28947c-16.56854,0 -30.26316,-14.73054 -30.26316,-43.28947c0,-28.55894 13.43146,-51.71053 30,-51.71053c16.56854,0 30,23.15159 30,51.71053z" fill="#f0f0f0" stroke-width="2"/><path d="M305.63143,134.93457c-4.30259,28.23297 34.22345,62.0416 17.65491,62.0416c-16.56854,0 -30.26316,-14.73054 -30.26316,-43.28947c0,-28.55894 18.82852,-59.56866 12.60825,-18.75213z" fill="#9a99ff" stroke-width="0"/></g><path d="M348.49273,162.7502c0,15.82221 -4.68891,28.64865 -10.47297,28.64865c-5.78406,0 -10.47297,-12.82644 -10.47297,-28.64865c0,-15.82221 4.68891,-28.64865 10.47297,-28.64865c5.78406,0 10.47297,12.82644 10.47297,28.64865z" fill="#000000" stroke="none" stroke-width="0" stroke-linecap="butt"/><g stroke="#000000" stroke-linecap="butt"><path d="M347.37786,124.48227c4.45946,10.22981 -9.89785,14.12162 -25.60811,14.12162c-15.71026,0 -27.17995,-4.64154 -22.63514,-14.25676c4.32432,-9.14873 6.78974,-21.41892 22.5,-21.41892c15.71026,0 21.49332,11.80491 25.74324,21.55405z" fill="#a100fe" stroke-width="2"/><path d="M346.45359,124.12803c4.3074,10.22981 -9.56036,14.12162 -24.73494,14.12162c-15.17458,0 -26.25318,-4.64154 -21.86334,-14.25676c4.17687,-9.14873 6.55823,0.96203 21.73281,0.96203c15.17458,0 20.76045,-10.57604 24.86546,-0.8269z" fill="#99008e" stroke-width="0"/></g><g data-paper-data="{&quot;index&quot;:null}" stroke="#000000" stroke-linecap="butt"><path d="M385.07918,99.18245c16.56854,0 30,23.15159 30,51.71053c0,28.55893 -13.69462,43.28947 -30.26316,43.28947c-16.56854,0 -29.73684,-14.73053 -29.73684,-43.28947c0,-28.55894 13.43146,-51.71053 30,-51.71053z" fill="#f0f0f0" stroke-width="2"/><path d="M414.44316,150.06272c0,28.55893 -13.69462,43.28947 -30.26316,43.28947c-16.56854,0 21.9575,-33.80863 17.65491,-62.0416c-6.22027,-40.81653 12.60825,-9.80681 12.60825,18.75213z" fill="#9a99ff" stroke-width="0"/></g><path d="M398.60027,130.90216c5.78406,0 10.47297,12.82644 10.47297,28.64865c0,15.82221 -4.68891,28.64865 -10.47297,28.64865c-5.78406,0 -10.47297,-12.82644 -10.47297,-28.64865c0,-15.82221 4.68891,-28.64865 10.47297,-28.64865z" data-paper-data="{&quot;index&quot;:null}" fill="#000000" stroke="none" stroke-width="0" stroke-linecap="butt"/><g data-paper-data="{&quot;index&quot;:null}" stroke="#000000" stroke-linecap="butt"><path d="M360.08849,120.85827c4.24992,-9.74914 10.03298,-21.55405 25.74324,-21.55405c15.71026,0 18.17568,12.27019 22.5,21.41892c4.54481,9.61522 -6.92488,14.25676 -22.63514,14.25676c-15.71026,0 -30.06757,-3.89181 -25.60811,-14.12162z" fill="#a100fe" stroke-width="2"/><path d="M361.01276,120.50403c4.10501,-9.74914 9.69088,0.8269 24.86546,0.8269c15.17458,0 17.55594,-10.11076 21.73281,-0.96203c4.38984,9.61522 -6.68876,14.25676 -21.86334,14.25676c-15.17458,0 -29.04234,-3.89181 -24.73494,-14.12162z" fill="#99008e" stroke-width="0"/></g><path d="M371.63632,338.87c0,11.6628 -14.51982,21.11737 -32.43092,21.11737c-17.9111,0 -32.43092,-9.45457 -32.43092,-21.11737c0,-2.33142 -0.03339,-13.76009 1.08979,-15.13837c4.49546,-5.51647 17.81784,5.26144 32.14847,5.26144c17.9111,0 31.62358,-1.78588 31.62358,9.87692z" fill="#000082" stroke="#000000" stroke-width="2" stroke-linecap="butt"/><path d="M369.75004,336.1377c0,6.30841 -13.89058,10.1901 -31.80169,10.1901c-17.9111,0 -30.16566,-2.95748 -30.16566,-9.26589c0,-1.26107 -0.03338,-12.52602 1.0898,-13.27153c4.49546,-2.98386 15.55258,5.7726 29.88321,5.7726c17.9111,0 30.99434,0.26631 30.99434,6.57472z" fill="#2e0048" stroke="#000000" stroke-width="0" stroke-linecap="butt"/><path d="M328.64938,338.22519c0,11.6628 -14.51982,21.11737 -32.43092,21.11737c-17.9111,0 -32.43092,-9.45457 -32.43092,-21.11737c0,-2.33142 -0.03339,-13.76009 1.08979,-15.13837c4.49546,-5.51647 17.81784,5.26144 32.14847,5.26144c17.9111,0 31.62358,-1.78588 31.62358,9.87692z" fill="#000082" stroke="#000000" stroke-width="2" stroke-linecap="butt"/><path d="M326.7631,335.49289c0,6.30841 -13.89058,10.1901 -31.80169,10.1901c-17.9111,0 -30.16566,-2.95748 -30.16566,-9.26589c0,-1.26107 -0.03338,-12.52602 1.0898,-13.27153c4.49546,-2.98386 15.55258,5.7726 29.88321,5.7726c17.9111,0 30.99434,0.26631 30.99434,6.57472z" fill="#2e0048" stroke="#000000" stroke-width="0" stroke-linecap="butt"/><g><g><path d="M318.15826,240.06695c-12.25292,8.80277 -23.83604,7.78225 -33.10709,-3.92916c-7.251,-9.15959 -4.61762,-27.07856 7.63532,-35.88134c12.25297,-8.80283 26.84217,-7.27998 35.55726,4.85083c1.36288,1.89702 2.05764,4.05225 2.7106,6.01477c3.52228,10.58698 -2.45925,21.51868 -12.79607,28.94488z" fill="#485e84" stroke="#000000" stroke-width="2" stroke-linecap="butt"/><path d="M285.25915,211.85039c0,0 2.99014,4.91833 4.99311,4.95704c19.21292,0.3713 31.19343,-6.95573 34.97099,-9.6815c0.85827,-0.61929 0.7636,-1.73817 0.7636,-1.73817c0,0 1.40678,1.57768 2.48634,4.09731c1.14875,2.6811 1.96595,6.40079 1.66262,9.45907c-0.34653,3.49342 -3.27916,11.29779 -3.27916,11.29779l-14.899,14.72679c0,0 -13.41309,-1.02185 -15.38483,-1.92138c-1.93167,-0.88122 -3.96464,-2.478 -6.19453,-4.08877c-3.4622,-2.50095 -5.9897,-6.27171 -6.85568,-9.0185c-1.10515,-3.50554 -1.00034,-8.16826 -0.25612,-11.91106c0.69263,-3.48337 1.99278,-6.17855 1.99278,-6.17855z" fill="#343545" stroke="none" stroke-width="0" stroke-linecap="butt"/><path d="M301.36695,230.22719c0,0 -6.6678,-6.07771 -7.57663,-11.15256c-1.15052,-6.42423 0.21361,-19.3177 0.21361,-19.3177" fill="none" stroke="#000000" stroke-width="1" stroke-linecap="round"/><path d="M322.89258,200.45868c0,0 2.854,6.55626 3.57933,10.79249c0.7323,4.27666 -1.10663,13.80405 -1.10663,13.80405" fill="none" stroke="#000000" stroke-width="1" stroke-linecap="round"/><path d="M294.61731,238.8758c0,0 -6.93761,-6.13645 -7.67171,-11.67811c-1.12645,-8.50349 -0.39114,-20.07738 -0.39114,-20.07738" fill="none" stroke="#000000" stroke-width="1" stroke-linecap="round"/><path d="M282.64831,229.37102c0,0 4.98267,-16.57252 21.49543,-22.12882c18.08764,-6.08623 27.88395,8.10964 27.88395,8.10964" fill="none" stroke="#000000" stroke-width="1" stroke-linecap="round"/><path d="M287.12357,237.77798c0,0 7.85967,-15.97148 22.4203,-20.9058c11.95562,-4.05151 21.32582,7.1341 21.32582,7.1341" fill="none" stroke="#000000" stroke-width="1" stroke-linecap="round"/><path d="M308.06031,199.40249c-1.19983,0.08726 -2.22843,-0.61202 -2.29749,-1.56183c-0.06913,-0.94985 0.72299,-1.03061 1.92281,-1.11787c1.19983,-0.08726 2.35295,-0.14794 2.42204,0.80189c0.06913,0.94985 -0.84755,1.79059 -2.04735,1.87781z" fill="#8fbbbe" stroke="none" stroke-width="0" stroke-linecap="butt"/><path d="M315.31585,199.86745c-0.4885,0.35093 -1.31122,0.04144 -1.83763,-0.69128c-0.52642,-0.73274 -0.64018,-1.10458 -0.15171,-1.45553c0.4885,-0.35093 1.45865,-0.14737 1.98503,0.58538c0.52642,0.73274 0.49275,1.21051 0.00427,1.56143z" fill="#8fbbbe" stroke="none" stroke-width="0" stroke-linecap="butt"/><path d="M301.16512,199.96856c-0.78469,0.44534 -1.6614,0.38232 -1.9583,-0.14076c-0.29691,-0.52303 0.41621,-0.86593 1.20086,-1.31128c0.78469,-0.44534 1.34367,-0.82458 1.64058,-0.3015c0.29691,0.52303 -0.09851,1.30819 -0.88315,1.75354z" fill="#8fbbbe" stroke="none" stroke-width="0" stroke-linecap="butt"/><path d="M283.54021,215.99081c0,0 5.92203,-8.34321 12.28173,-12.46316c3.60564,-2.33579 7.58984,-3.14975 10.61737,-3.733c2.67739,-0.51583 9.10447,0.86925 13.91349,2.44133c3.54063,1.15742 6.11768,2.58072 6.11768,2.58072" fill="none" stroke="#000000" stroke-width="0.5" stroke-linecap="round"/><path d="M309.87742,194.16407c0,0 5.83396,8.8172 6.96196,14.10348c0.95039,4.45381 -0.34031,15.33491 -0.34031,15.33491" fill="none" stroke="#000000" stroke-width="1" stroke-linecap="round"/><path d="M310.97607,225.55878c0,0 -5.24334,-8.12006 -6.66012,-12.41466c-2.48758,-7.54048 -0.99772,-17.84375 -0.99772,-17.84375" fill="none" stroke="#000000" stroke-width="1" stroke-linecap="round"/></g><g stroke="#000000" stroke-linecap="butt"><path d="M288.456,243.00097c31.69606,-10.32853 39.5451,-4.72071 42.05202,2.97251c2.50693,7.69323 -21.15555,22.30274 -52.85161,32.63127c-31.69606,10.32853 -3.08798,-55.98186 -5.5949,-63.67508c1.85569,-6.84724 7.21682,-3.12488 9.97654,4.2331c3.4034,9.07412 3.70869,24.72103 6.41794,23.83819z" fill="#0d69be" stroke-width="2"/><path d="M308.52315,223.74842c13.60475,-4.43328 28.31994,3.28552 32.8673,17.24039c4.54736,13.95487 -2.79511,28.86141 -16.39986,33.29469c-13.60475,4.43328 -28.31995,-3.28552 -32.86731,-17.24041c-4.54736,-13.95487 2.79512,-28.8614 16.39987,-33.29467z" fill="#faddbf" stroke-width="2"/><path d="M309.73927,265.14611c13.60475,-4.43328 26.16616,-38.22213 30.71352,-24.26725c4.54736,13.95487 -2.79511,28.86141 -16.39987,33.29467c-13.60475,4.43328 -27.91842,-4.59416 -14.31366,-9.02742z" fill="#ef8b89" stroke-width="0"/></g></g><path d="M281.35168,169.2698c-0.77428,0.80742 0.3692,1.97747 1.5825,3.53849c1.89478,2.43782 3.75811,6.02686 0.55995,8.32378c-0.77408,0.55594 -2.68894,0.7172 -3.42426,0.78429c-0.85273,0.07781 -3.26176,0.12413 -4.11971,0.09309c-1.43791,-0.05202 -2.86844,-0.40952 -4.22251,-0.89613c-6.53093,-3.05626 -8.7927,-14.316 -4.17788,-19.90031c3.00549,-3.63689 8.72846,-4.62173 13.0248,-3.52046c3.39134,2.38274 9.53507,11.50381 1.38836,11.57725z" fill="#000000" stroke="none" stroke-width="0.5" stroke-linecap="butt"/></g></g></svg>