<svg version="1.1" xmlns="http://www.w3.org/2000/svg" xmlns:xlink="http://www.w3.org/1999/xlink" width="36.18309" height="42.41203" viewBox="0,0,36.18309,42.41203"><defs><radialGradient cx="244.73298" cy="180.40997" r="2.04545" gradientUnits="userSpaceOnUse" id="color-1"><stop offset="0" stop-color="#fbff4e"/><stop offset="1" stop-color="#fbff4e" stop-opacity="0"/></radialGradient><radialGradient cx="251.78953" cy="180.85341" r="2.04545" gradientUnits="userSpaceOnUse" id="color-2"><stop offset="0" stop-color="#fbff4e"/><stop offset="1" stop-color="#fbff4e" stop-opacity="0"/></radialGradient></defs><g transform="translate(-223.58855,-157.16671)"><g data-paper-data="{&quot;isPaintingLayer&quot;:true}" fill-rule="nonzero" stroke="none" stroke-linecap="butt" stroke-linejoin="miter" stroke-miterlimit="10" stroke-dasharray="" stroke-dashoffset="0" style="mix-blend-mode: normal"><path d="M235.44311,197.3788c-1.29047,-0.54297 -2.84508,-0.87856 -2.84508,-0.87856c0,0 -0.31733,-0.92021 -0.52975,-2.08634c-0.34721,-1.90606 -0.64038,-4.47526 -0.39168,-4.73356c0.11326,-0.11765 -0.22952,-0.24709 -1.39582,0.13297c-0.6265,0.20416 -2.18645,0.82645 -2.75029,0.97851c-0.44411,0.11977 -1.54112,-2.44409 -2.15797,-6.22203c-0.02423,-0.14836 -1.05241,-5.86792 -0.81298,-6.0438c0.42616,-0.31304 3.24786,4.55358 4.38571,4.47334c0.09923,-0.007 0.7432,-0.01546 0.15925,-3.36934c-0.7113,-4.08528 -2.76714,-11.67775 -2.63728,-11.68859c1.17281,-0.09789 6.2161,-2.62079 7.41732,-2.48065c0.1655,0.01931 -0.38957,-1.66631 -0.99968,-3.08776c-0.45302,-1.05545 -1.01961,-1.96357 -0.8981,-1.93229c1.14742,0.29531 1.68639,0.97601 2.69533,1.73213c0.50824,0.38089 1.26408,0.66679 2.0224,1.16366c1.13441,0.74329 7.73881,1.36818 11.06273,1.01171c6.15507,-0.6601 10.03946,-3.076 10.03946,-3.076c0,0 -1.32417,3.0695 -3.65115,8.29527c-0.13289,0.29842 -3.15267,0.3219 -4.69378,0.54487c-0.90041,0.13027 -0.67546,0.42563 -0.72686,0.61485c-0.09511,0.35008 1.33418,1.43453 2.55023,2.52469c1.0797,0.96792 2.04589,2.1609 1.97065,2.46718c-0.28084,1.14327 0.31965,1.13272 -0.55744,1.75794c-0.74887,0.53384 -2.92893,1.79465 -3.74686,1.88574c-1.02563,0.11422 -1.46746,1.0161 -1.73237,0.78994c-2.27521,-1.94242 -5.7319,-7.73124 -7.3624,-9.90925c-0.99878,-1.33417 -1.5046,-1.0897 -1.5046,-1.0897c0,0 -0.56633,7.61386 0.30795,10.43824c1.33828,4.32341 4.26238,4.42347 3.98664,4.46506c-0.41076,0.06195 2.02189,-0.51261 3.54543,-1.12307c1.22676,-0.49155 1.54334,-1.01021 1.54334,-1.01021c0,0 0.43876,0.10249 0.7387,0.38009c0.23454,0.21706 0.40264,0.62567 0.60076,0.84378c0.59567,0.65575 1.27442,1.38428 1.58397,1.53568c0.0773,0.0378 0.80169,-0.18081 1.39772,-0.55049c0.85441,-0.52993 1.74558,-1.22782 1.77074,-1.08467c0.11078,0.6303 -0.41001,1.55452 -0.42552,2.10325c-0.01395,0.49382 -1.31719,2.54913 -1.30094,2.57321c0.33789,0.50033 0.17003,0.98781 0.29306,1.91754c0.08327,0.62923 0.50699,1.76459 0.50113,2.09635c-0.00619,0.34992 -14.43189,6.9914 -14.5976,6.99568c-0.35503,0.00917 -1.48702,-0.78007 -2.85432,-1.35536z" data-paper-data="{&quot;noHover&quot;:false,&quot;origItem&quot;:[&quot;Path&quot;,{&quot;applyMatrix&quot;:true,&quot;segments&quot;:[[[237.77734,198.58463],[-0.35515,0],[0.16576,0]],[[252.50831,191.97987],[-0.01522,0.34964],[0.01443,-0.3315]],[[252.05892,189.87372],[0.06699,0.63117],[-0.09899,-0.9326]],[[251.81249,187.95257],[0.32486,0.50888],[-0.01563,-0.02448]],[[253.17357,185.42278],[-0.02669,0.4933],[0.02966,-0.54814]],[[253.65018,183.33868],[0.09447,0.63295],[-0.02146,-0.14376]],[[251.94483,184.41394],[0.8678,-0.5077],[-0.60537,0.35417]],[[250.53097,184.93258],[0.0763,0.03979],[-0.30553,-0.15934]],[[248.9,183.30766],[0.57854,0.67091],[-0.19242,-0.22314]],[[248.31982,182.45159],[0.22886,0.22305],[-0.29267,-0.28525]],[247.68298,182.09223],[[246.10757,183.07331],[1.23904,-0.45971],[-1.5388,0.57093]],[[242.5064,184.12247],[-0.41222,0.05132],[0.27672,-0.03445]],[[238.57481,179.5091],[1.22621,4.35652],[-0.80105,-2.846]],[238.57339,169.01636],[[240.05532,170.14331],[-0.964,-1.35951],[1.57371,2.21938]],[[246.47595,178.81904],[-2.2243,-2.00051],[0.25898,0.23292]],[[248.86871,179.543],[-1.02824,0.0877],[0.82001,-0.06994]],[[252.66353,177.76273],[-0.76241,0.51432],[0.89293,-0.60236]],[[253.26756,176.02624],[-0.31027,1.13564],[0.08312,-0.30423]],[[251.36629,173.52071],[1.05435,0.99547],[-1.1875,-1.12119]],[[248.89198,170.94303],[-0.10412,0.34751],[0.05627,-0.18783]],[[249.70131,170.27277],[-0.90347,0.10698],[1.54635,-0.18311]],[[254.33361,169.91581],[-0.14055,0.29489],[2.46113,-5.16395]],[258.20358,161.72424],[[248.10192,164.54934],[6.17006,-0.50097],[-3.33202,0.27053]],[[237.10241,163.25511],[1.11484,0.77233],[-0.74525,-0.51629]],[[235.11488,162.03832],[0.49823,0.39388],[-0.98908,-0.78191]],[[232.46927,160.23549],[1.13942,0.32483],[-0.12067,-0.0344]],[[233.31731,162.19026],[-0.42562,-1.0668],[0.57322,1.43673]],[[234.23833,165.30213],[0.16495,0.02357],[-1.1972,-0.17111]],[[226.7757,167.57732],[1.17494,-0.06758],[-0.1301,0.00748]],[[229.12146,179.29908],[-0.60558,-4.10229],[0.49716,3.36784]],[[228.77687,182.67528],[0.09938,-0.00444],[-1.13953,0.05083]],[[224.60637,178.0816],[0.4341,-0.30194],[-0.2439,0.16964]],[[225.26118,184.12638],[-0.02039,-0.14893],[0.51911,3.79261]],[[227.24929,190.38544],[-0.44705,0.10826],[0.56758,-0.13745]],[[230.02186,189.47577],[-0.63156,0.18792],[1.17571,-0.34982]],[[231.41857,189.37667],[0.11626,-0.11468],[-0.25529,0.2518]],[[231.68009,194.1124],[-0.29788,-1.91439],[0.18224,1.17122]],[232.15234,196.20963],[[234.96671,197.15815],[-1.27602,-0.5761],[1.35199,0.6104]]],&quot;closed&quot;:true,&quot;fillColor&quot;:[1,1,1]}]}" fill="#a75bc8" stroke-width="0.5"/><path d="M242.27822,196.8356l-15.47887,-29.25799l6.63336,-2.28469l13.71706,29.23305z" fill="#bc6dde" stroke-width="0"/><path d="M227.06481,190.6775c-1.28368,-2.4264 -2.79393,-7.59712 -2.79393,-7.59712c0,0 -0.37895,-4.04886 0.09257,-5.07879c0.24771,-0.54109 3.00943,3.82597 3.60864,3.40796c0.95492,-0.66613 -0.19798,-5.98127 -0.19798,-5.98127l10.4587,23.7645l-6.15908,-2.66626l-1.31766,-6.35299c0,0 -3.37521,1.10136 -3.69127,0.50395z" fill="#bc6dde" stroke-width="0"/><path d="M253.34267,191.7758l-13.56108,-28.71985c0,0 2.11926,0.4705 3.54144,0.56668c1.60207,0.10835 5.59573,0.0513 5.59573,0.0513l3.3161,6.9431c0,0 -2.6069,-0.5871 -2.56634,0.31025c0.0513,1.13468 3.6801,4.53209 3.6801,4.53209c0,0 -0.89237,3.39515 -0.73476,5.39019c0.11593,1.46752 1.32752,1.32329 1.19376,2.8629c-0.10393,1.19626 -1.37686,2.94061 -1.44402,3.51048c-0.20457,1.73575 0.97907,4.55286 0.97907,4.55286z" fill="#bc6dde" stroke-width="0"/><path d="M223.59011,176.67952c0,0 0.83064,-0.49845 1.50115,0.07741c0.76621,0.65805 2.85043,3.77228 2.85043,3.77228c0,0 -3.01657,-12.45025 -2.35528,-13.43336c1.0118,-0.95878 6.68436,-2.08607 6.68436,-2.08607c0,0 -0.82694,-1.93154 -1.15968,-3.23573c-0.45111,-1.76818 -0.65908,-4.45741 -0.53301,-4.47699c0.08648,-0.01343 0.69349,-0.4204 1.30023,0.27589c0.99889,1.14633 1.83096,3.65646 3.46056,4.19072c5.64114,1.84941 14.73717,1.70661 16.69509,1.40051c0.44179,-0.06907 5.30323,-2.834 7.13414,-3.4097c0.38457,-0.12092 0.54403,0.57151 0.60238,0.60896c0.05725,0.03674 -2.01563,4.21383 -3.56476,7.2138c-0.67431,1.30585 -1.1393,2.5478 -2.46401,3.16648c-1.02101,0.47684 -3.09338,0.43402 -2.82349,0.6885c0.65312,0.6158 1.88867,2.10963 2.8435,3.74484c0.80668,1.38148 -0.3986,2.65593 -0.12928,2.98636c0.04305,0.05282 -0.46281,1.24454 -0.58527,2.13174c-0.13936,1.0096 0.10178,1.72959 0.15171,1.78961c0.21965,0.26395 0.72205,0.17601 0.95127,0.4398c0.25684,0.29558 -0.0905,2.98015 0.08191,3.3128c0.07629,0.14718 -0.83679,0.30311 -1.13942,0.65783c-0.53675,0.62914 -0.64205,1.552 -0.52038,1.79516c1.02558,2.04968 1.49374,3.43101 1.13433,3.97829c-0.14857,0.22623 -3.39244,1.98051 -7.2903,3.81331c-3.21441,1.51144 -7.1111,3.1376 -8.00337,3.46727c-0.85191,0.31477 -5.47074,-1.97911 -6.53239,-2.61528c-0.16883,-0.38174 -0.58187,-0.91154 -0.78881,-2.44418c-0.22932,-1.69839 -0.28773,-3.55405 -0.45085,-3.54115c-0.75266,0.05952 -2.26139,0.82228 -2.81123,0.7414c-2.18085,-0.32081 -3.3529,-5.6866 -3.9324,-9.83788c-0.3493,-2.50231 -0.30714,-5.17261 -0.30714,-5.17261zM238.30541,198.6848c0.16571,-0.00428 14.54934,-6.63298 14.55554,-6.9829c0.00587,-0.33176 -0.42035,-1.46462 -0.50362,-2.09385c-0.12303,-0.92973 0.04194,-1.41382 -0.29595,-1.91415c-0.01626,-0.02407 1.28135,-2.07026 1.29531,-2.56409c0.0155,-0.54872 0.53342,-1.46542 0.42264,-2.09571c-0.02516,-0.14316 -0.82261,0.58899 -1.67702,1.11892c-0.59602,0.36968 -1.3227,0.59279 -1.4,0.55497c-0.30954,-0.1514 -1.07671,-0.92653 -1.67239,-1.58227c-0.19812,-0.2181 -0.36755,-0.62374 -0.60208,-0.8408c-0.29994,-0.2776 -0.6459,-0.34279 -0.6459,-0.34279c0,0 -0.32279,0.52989 -1.54954,1.02143c-1.52355,0.61047 -3.98364,1.20373 -3.57289,1.14179c0.27574,-0.04158 -2.7111,-0.18693 -4.04938,-4.51032c-0.87427,-2.82437 -1.60566,-11.82254 -1.60566,-11.82254c0,0 2.73398,0.6986 3.73276,2.03277c1.63048,2.17801 3.47839,6.95354 5.75359,8.89595c0.13802,0.11783 0.40263,0.65537 0.76951,1.12712c0.33728,0.43368 0.53877,0.36731 1.03003,0.3126c0.81793,-0.09109 3.60983,-2.1216 4.3587,-2.65543c0.87708,-0.62521 0.27814,-0.60823 0.55898,-1.7515c0.07524,-0.30627 -0.88561,-1.48768 -1.96531,-2.45561c-1.21605,-1.09016 -2.63515,-2.16287 -2.54004,-2.51295c0.0514,-0.18922 -0.10865,-0.56067 0.79175,-0.69093c1.5411,-0.22297 4.48866,-0.17802 4.62154,-0.47644c2.32698,-5.22577 3.65718,-8.28876 3.65718,-8.28876c0,0 -3.87028,2.42487 -10.02535,3.08497c-3.32393,0.35647 -9.89485,-0.26652 -11.02926,-1.00981c-0.75833,-0.49687 -1.51004,-0.78418 -2.01828,-1.16506c-1.00894,-0.75611 -1.54385,-1.43863 -2.69128,-1.73394c-0.12152,-0.03127 0.4452,0.87677 0.89822,1.93222c0.61013,1.42145 1.16656,3.10637 1.00106,3.08705c-1.20122,-0.14014 -6.22859,2.36921 -7.4014,2.46711c-0.12986,0.01083 1.93632,7.572 2.64761,11.65729c0.58394,3.35388 -0.15808,3.37697 -0.25731,3.38396c-1.13784,0.08023 -3.86154,-4.79751 -4.28771,-4.48447c-0.23944,0.17588 0.78643,5.8775 0.81066,6.02587c0.61685,3.77794 1.70494,6.32539 2.14905,6.20563c0.56384,-0.15206 2.12166,-0.77679 2.74816,-0.98095c1.16628,-0.38006 1.50696,-0.25276 1.3937,-0.13513c-0.24871,0.25831 0.0365,2.82134 0.3837,4.7274c0.21242,1.16612 0.52624,2.08434 0.52624,2.08434c0,0 1.54746,0.33256 2.83793,0.87553c1.3673,0.57529 2.49149,1.36262 2.84652,1.35345z" fill="#000000" stroke-width="0"/><path d="M249.40791,178.42009c0,0 -0.19464,-1.26662 -0.39183,-2.09969c-0.25687,0.19956 -0.82313,0.48337 -0.82312,0.48377c0.00214,0.08284 -0.11976,0.15774 -0.15316,0.24689c-0.03334,0.08901 0.02187,0.19231 -0.03888,0.23935c0.05987,0.36168 0.02041,0.75253 0.28733,0.92676c0.39224,0.25603 1.11965,0.20293 1.11965,0.20293zM249.14093,179.44137c-0.61168,0.0158 -1.56182,0.28036 -1.82767,-0.64986c-0.04057,-0.14194 -0.00201,-0.78435 -0.12309,-1.14991c-0.04903,-0.14802 -0.56711,-0.30804 -0.54239,-0.36511c-0.16979,-0.0876 -0.27473,-0.27271 -0.28285,-0.58684c-0.01349,-0.52221 2.20149,-0.6787 2.58481,-1.47031c0.72313,-1.49336 -1.02504,-1.63259 -0.83355,-2.41362c-0.01137,-0.03977 -0.01795,-0.08161 -0.01907,-0.12489c-0.00713,-0.27605 0.21087,-0.50562 0.48692,-0.51274c0.16709,-0.00431 0.31714,0.07385 0.41115,0.19745c0.84322,0.26436 1.45492,1.96656 1.07218,2.85728c-0.0361,0.08402 -0.2403,0.40536 -0.35327,0.53211c0.30139,0.33146 0.6106,0.75929 0.73995,1.44467c0.111,0.58815 0.18388,1.26953 -0.03425,1.69915c-0.20467,0.40313 -0.68278,0.52721 -1.27885,0.54261z" fill="#000000" stroke-width="0.5"/><path d="M253.40501,185.88414c-0.0983,1.38156 -1.97778,3.18102 -4.50512,5.05083c-2.26977,1.67925 -5.15588,3.51486 -6.16499,3.47941c-0.55853,-0.01963 -3.11587,-0.61508 -4.84168,-1.52663c-2.02406,-1.06908 -3.2092,-2.5027 -3.23271,-2.90383c-0.05106,-0.87134 -0.68596,-1.62007 -0.93671,-4.11662c-0.25664,-2.55522 -0.86281,-6.90134 -0.86281,-6.90134c0,0 1.76476,0.62599 2.40338,1.04072c0.5089,0.3305 0.56574,0.44781 1.12707,0.90676c1.20481,0.98505 2.34739,1.62067 4.37982,2.59101c2.26945,1.08349 5.19414,2.16083 7.44674,2.27119c2.68382,0.13148 5.22048,-0.36198 5.187,0.10852zM241.27963,191.49537c0.68642,-0.13476 4.07098,-4.96683 3.6363,-5.47584c-0.28334,-0.33179 -1.56696,-0.09131 -2.71171,-0.49794c-1.63372,-0.58032 -3.21972,-1.76605 -3.21875,-1.73128c0.01027,0.36724 0.4407,2.87108 1.02689,4.9134c0.44844,1.56234 1.04661,2.83499 1.26728,2.79167zM237.31552,183.20193c-0.05693,-0.52098 -3.17648,-2.99108 -3.29656,-2.73989c0,0 1.01835,8.93161 1.59772,8.91556c0.46161,-0.01279 1.69884,-6.17567 1.69884,-6.17567zM243.07735,193.41055c0,0 3.57659,-2.01673 3.55847,-2.66489c-0.01812,-0.64818 -0.23375,-3.75805 -0.93526,-3.74131c-0.08991,0.00215 -0.75211,1.17705 -1.51317,2.35246c0,0 -2.31851,3.23664 -2.49296,3.87374c-0.06356,0.23211 1.38292,0.18 1.38292,0.18zM247.78816,190.12695c0.54147,-0.01292 2.76442,-2.61756 2.5418,-3.23246c-0.07829,-0.21625 -3.23171,-0.56687 -3.24677,-0.50509c-0.12696,0.52087 0.28351,3.74761 0.70497,3.73755zM240.01619,192.27623c0.17757,-0.17455 -0.33716,-0.9911 -0.67074,-2.25866c-0.53446,-2.03091 -1.01464,-4.67769 -1.2843,-4.6671c-0.47446,0.01863 -1.4697,4.40933 -1.69105,5.02462c-0.07429,0.20651 3.48488,2.05961 3.64608,1.90114z" fill="#000000" stroke-width="0"/><path d="M247.05063,186.35334c0.01505,-0.06178 3.23871,0.29339 3.317,0.50963c0.22261,0.61489 -2.05933,3.29368 -2.6008,3.30661c-0.42146,0.01006 -0.84316,-3.29536 -0.7162,-3.81624z" data-paper-data="{&quot;noHover&quot;:false,&quot;origItem&quot;:[&quot;Path&quot;,{&quot;applyMatrix&quot;:true,&quot;segments&quot;:[[[247.3454,190.32684],[-0.41476,0],[0.53287,0]],[[249.93398,186.95086],[0.20203,0.66013],[-0.07105,-0.23216]],[[246.75485,186.33078],[0.0165,-0.06537],[-0.13917,0.55118]]],&quot;closed&quot;:true,&quot;fillColor&quot;:[1,1,1]}]}" fill="#ffffff" stroke-width="0.5"/><path d="M241.66416,193.26828c0.17446,-0.6371 2.52722,-3.95829 2.52722,-3.95829c0.76108,-1.17541 1.44038,-2.34621 1.53029,-2.34835c0.70151,-0.01674 0.94558,3.1463 0.9637,3.79446c0.01812,0.64818 -3.62262,2.69944 -3.62262,2.69944c0,0 -1.46215,0.04486 -1.3986,-0.18725z" data-paper-data="{&quot;noHover&quot;:false,&quot;origItem&quot;:[&quot;Path&quot;,{&quot;applyMatrix&quot;:true,&quot;segments&quot;:[[242.6223,193.70217],[[246.19514,190.95611],[0,0.69036],[0,-0.69036]],[[245.37821,186.9502],[0.69036,0],[-0.08848,0]],[[243.82541,189.41566],[0.78079,-1.23174],[0,0]],[[241.26722,193.47546],[0.18909,-0.67369],[-0.06889,0.24544]]],&quot;closed&quot;:true,&quot;fillColor&quot;:[1,1,1]}]}" fill="#ffffff" stroke-width="0.5"/><path d="M239.96856,188.72756c-0.5862,-2.04231 -1.00314,-4.60772 -1.01341,-4.97496c-0.00097,-0.03477 1.61894,1.14183 3.25267,1.72216c1.14475,0.40663 2.46844,0.18899 2.75178,0.52078c0.43469,0.50901 -3.00262,5.41128 -3.68904,5.54604c-0.22067,0.04332 -0.85357,-1.25168 -1.30201,-2.81402z" data-paper-data="{&quot;noHover&quot;:false,&quot;origItem&quot;:[&quot;Path&quot;,{&quot;applyMatrix&quot;:true,&quot;segments&quot;:[[[240.90699,191.61804],[-0.21821,0.0405],[0.67876,-0.126]],[[244.63362,185.88206],[0.4135,0.55282],[-0.26953,-0.36035]],[[241.98048,185.28319],[1.11462,0.46188],[-1.59073,-0.65918]],[[238.8626,183.3587],[0,-0.03703],[0,0.39114]],[[239.73743,188.61448],[-0.52035,-2.18867],[0.39807,1.67431]]],&quot;closed&quot;:true,&quot;fillColor&quot;:[1,1,1]}]}" fill="#ffffff" stroke-width="0.5"/><path d="M236.33304,190.4072c0.22135,-0.61529 1.25256,-5.08506 1.72701,-5.10369c0.26966,-0.01059 0.7858,2.71731 1.32026,4.74823c0.33357,1.26755 0.8363,2.09187 0.65873,2.26642c-0.16119,0.15847 -3.78031,-1.70446 -3.70601,-1.91096z" data-paper-data="{&quot;noHover&quot;:false,&quot;origItem&quot;:[&quot;Path&quot;,{&quot;applyMatrix&quot;:true,&quot;segments&quot;:[[[239.643,192.41708],[-0.16288,0.16457],[0.17943,-0.18128]],[[239.04545,189.99599],[0.29321,1.35763],[-0.46978,-2.17523]],[[237.91071,184.99582],[0.26549,-0.00442],[-0.46711,0.00778]],[[236.10953,190.30094],[0.2346,-0.64927],[-0.07874,0.21792]]],&quot;closed&quot;:true,&quot;fillColor&quot;:[1,1,1]}]}" fill="#ffffff" stroke-width="0.5"/><path d="M235.61526,189.42455c-0.57938,0.01606 -1.6136,-9.00666 -1.6136,-9.00666c0.12008,-0.25119 3.28997,2.22738 3.34691,2.74837c0,0 -1.27169,6.2455 -1.73331,6.25829z" data-paper-data="{&quot;noHover&quot;:false,&quot;origItem&quot;:[&quot;Path&quot;,{&quot;applyMatrix&quot;:true,&quot;segments&quot;:[[[237.23648,182.69003],[0,0],[-0.04166,-0.55597]],[[234.06981,179.69003],[0.125,-0.26431],[0,0]],[[235.396,189.22011],[-0.57023,0.00238],[0.45432,-0.00189]]],&quot;closed&quot;:true,&quot;fillColor&quot;:[1,1,1]}]}" fill="#ffffff" stroke-width="0.5"/><g stroke-width="0"><path d="M242.68821,180.46278c-0.02917,-1.1293 0.86266,-2.06841 1.99195,-2.09758c1.1293,-0.02917 2.06841,0.86266 2.09758,1.99196c0.02917,1.1293 -0.86266,2.06841 -1.99196,2.09758c-1.1293,0.02917 -2.06841,-0.86266 -2.09757,-1.99196z" fill="url(#color-1)"/><path d="M245.2086,180.37544c0.00776,0.30049 -0.21188,0.54991 -0.49059,0.55711c-0.27871,0.0072 -0.51093,-0.23056 -0.51869,-0.53105c-0.00776,-0.30049 0.21188,-0.54991 0.49059,-0.55711c0.27871,-0.0072 0.51093,0.23056 0.51869,0.53105z" fill="#ffffff"/></g><g stroke-width="0"><path d="M249.74475,180.90622c-0.02917,-1.1293 0.86266,-2.06841 1.99196,-2.09758c1.1293,-0.02917 2.06841,0.86266 2.09758,1.99196c0.02917,1.1293 -0.86266,2.06841 -1.99196,2.09758c-1.1293,0.02917 -2.06841,-0.86266 -2.09758,-1.99196z" fill="url(#color-2)"/><path d="M252.26514,180.81888c0.00776,0.30049 -0.21188,0.54991 -0.49059,0.55711c-0.27871,0.0072 -0.51093,-0.23056 -0.51869,-0.53105c-0.00776,-0.30049 0.21188,-0.54991 0.49059,-0.55711c0.27871,-0.0072 0.51093,0.23056 0.51869,0.53105z" fill="#ffffff"/></g></g></g></svg>