<svg version="1.1" xmlns="http://www.w3.org/2000/svg" xmlns:xlink="http://www.w3.org/1999/xlink" width="227.49631" height="307.65528" viewBox="0,0,227.49631,307.65528"><g transform="translate(-244.16623,-22.92283)"><g data-paper-data="{&quot;isPaintingLayer&quot;:true}" fill-rule="nonzero" stroke-linejoin="miter" stroke-miterlimit="10" stroke-dasharray="" stroke-dashoffset="0" style="mix-blend-mode: normal"><g data-paper-data="{&quot;index&quot;:null}" stroke="#000000" stroke-linecap="butt"><path d="M298.86371,329.13374v-90.27109h61.17899v90.27109z" fill="#273750" stroke-width="2"/><path d="M299.65105,328.37717v-90.27109l18.42709,49.31565l42.75189,40.95544z" fill="#1f1e2e" stroke-width="0"/></g><g data-paper-data="{&quot;index&quot;:null}" stroke="#000000" stroke-linecap="butt"><path d="M246.25776,329.57811v-90.27109h61.17899v90.27109z" fill="#273750" stroke-width="2"/><path d="M247.04514,328.82151v-90.27109l18.42709,49.31565l42.75189,40.95544z" fill="#1f1e2e" stroke-width="0"/></g><g data-paper-data="{&quot;index&quot;:null}" stroke="#000000" stroke-linecap="butt"><path d="M436.63986,265.45726l-41.28705,-29.22842l33.56401,-40.48248l41.28705,29.22842z" fill="#ffcaa0" stroke-width="2"/><g><path d="M395.39772,236.4711l-56.93034,-40.3028l34.00149,-41.01013l56.93034,40.3028z" fill="#ff0008" stroke-width="2"/><path d="M396.06965,236.01006l-29.81843,-21.10941c0,0 22.55694,-3.49878 28.20161,-10.30699c5.35201,-6.4552 4.83521,-29.53965 4.83521,-29.53965l29.81843,21.10942c0,0 -10.86614,13.10596 -16.34269,19.71137c-5.53512,6.67606 -16.69414,20.13527 -16.69414,20.13527z" fill="#8d005e" stroke-width="0"/></g><path d="M436.69263,264.49856l-41.28705,-29.22842l36.5941,9.42482l38.25696,-20.67888z" fill="#ff6e5b" stroke-width="0"/></g><g data-paper-data="{&quot;index&quot;:null}" stroke="#000000" stroke-linecap="butt"><path d="M464.44937,108.47609c-4.80849,31.89729 -21.44449,56.11554 -37.15756,54.09299c-15.71307,-2.02256 -24.55297,-29.52002 -19.74448,-61.41731c4.80849,-31.89729 21.44449,-56.11554 37.15756,-54.09299c15.71307,2.02256 24.55297,29.52002 19.74448,61.41731z" fill="#01930e" stroke-width="2"/><path d="M418.88737,92.46594c-4.80849,31.89729 24.61305,71.75111 8.9,69.72856c-15.71306,-2.02256 -24.55297,-29.52002 -19.74448,-61.41731c4.80849,-31.89729 15.65298,-40.20854 10.84449,-8.31125z" fill="#31525b" stroke-width="0"/></g><path d="M245.43177,237.43365l34.15839,-109.33663l118.32412,31.56384l-34.15839,109.33663z" data-paper-data="{&quot;index&quot;:null}" fill="#ff0008" stroke="#000000" stroke-width="2" stroke-linecap="butt"/><g data-paper-data="{&quot;index&quot;:null}" fill="#000000" stroke="#000000" stroke-linecap="butt"><path d="M273.53446,244.44187l33.52262,-107.30159l63.61035,16.96853l-33.52262,107.30159z" stroke-width="2"/><path d="M274.63409,243.76095l33.52262,-107.30159l0.84581,63.73043l29.24191,60.5397z" stroke-width="0"/></g><g data-paper-data="{&quot;index&quot;:null}" stroke="#000000" stroke-linecap="butt"><path d="M274.50696,82.44265c0.20552,-1.3633 5.03875,-26.99587 5.35061,-28.32419c7.88059,-33.56564 44.56479,-31.35369 90.05887,-25.49778c42.73452,5.50071 78.97155,14.75105 80.7331,46.57056c0.18796,3.39526 -4.35365,25.84384 -4.87418,29.29675c-1.86054,12.34197 -2.74552,39.8809 -12.13021,48.68405c-17.84686,16.74095 -52.28369,9.12761 -83.27928,5.13792c-32.77223,-4.21838 -63.47985,-7.18028 -74.78855,-29.50999c-5.01119,-9.89489 -2.72811,-35.36067 -1.07037,-46.35732z" fill="#ffcaa0" stroke-width="2"/><path d="M272.54036,82.1998c0.20552,-1.3633 5.03875,-26.99587 5.35061,-28.32419c4.47737,-19.07039 -1.68484,60.9241 46.26188,89.23235c37.57431,22.18429 112.0147,6.26422 108.2416,9.80352c-17.84686,16.74095 -52.99956,9.1453 -83.99514,5.15561c-32.77223,-4.21838 -63.47985,-7.18028 -74.78855,-29.50999c-5.01119,-9.89489 -2.72811,-35.36067 -1.07037,-46.35732z" fill="#ff6e5b" stroke-width="0"/></g><g data-paper-data="{&quot;index&quot;:null}" stroke="#000000" stroke-linecap="butt"><path d="M323.19329,88.19993c-4.80849,31.89729 -21.44449,56.11554 -37.15756,54.09299c-15.71307,-2.02256 -24.55297,-29.52002 -19.74448,-61.41731c4.80849,-31.89729 21.44449,-56.11554 37.15756,-54.09299c15.71307,2.02256 24.55297,29.52002 19.74448,61.41731z" fill="#01930e" stroke-width="2"/><path d="M277.63129,72.18979c-4.80849,31.89729 24.61305,71.75111 8.9,69.72856c-15.71306,-2.02256 -24.55297,-29.52002 -19.74448,-61.41731c4.80849,-31.89729 15.65298,-40.20854 10.84449,-8.31125z" fill="#31525b" stroke-width="0"/></g><g data-paper-data="{&quot;index&quot;:null}" stroke-linecap="butt"><path d="M468.92449,69.81787c-2.63691,17.49207 -49.10666,25.96584 -103.79308,18.9267c-54.68641,-7.03913 -96.88086,-26.9256 -94.24394,-44.41766c2.63691,-17.49207 49.10665,-25.96583 103.79307,-18.92669c54.68641,7.03913 96.88087,26.92559 94.24395,44.41766z" fill="#000000" stroke="none" stroke-width="NaN"/><path d="M468.09051,70.05813c-2.63691,17.49207 -49.10666,25.96584 -103.79308,18.9267c-54.68641,-7.03913 -96.88086,-26.9256 -94.24394,-44.41766c2.63691,-17.49207 44.54632,14.66836 99.23274,21.70749c54.68641,7.03913 101.4412,-13.70861 98.80428,3.78346z" fill="#ff0000" stroke="#000000" stroke-width="2"/><path d="M460.94456,78.42406c-0.72566,4.81366 -42.46427,18.24427 -96.93679,9.78631c-19.0621,-2.95978 -36.8711,-6.89976 -51.14959,-11.72003c-26.50814,-8.94888 -42.00287,-19.60873 -38.89744,-23.33823c3.20737,-3.8519 37.84639,21.91274 92.53282,28.95188c54.68641,7.03913 95.17666,-8.49359 94.45101,-3.67993z" fill="#900056" stroke="#000000" stroke-width="0"/></g><path d="M384.15309,121.57444c-2.34674,15.56721 -7.36296,27.78613 -11.20404,27.29171c-3.84108,-0.49442 -5.05248,-13.51494 -2.70572,-29.08214c2.34674,-15.56721 7.36297,-27.78612 11.20404,-27.2917c3.84108,0.49442 5.05248,13.51494 2.70572,29.08215z" data-paper-data="{&quot;index&quot;:null}" fill="#000000" stroke="none" stroke-width="0" stroke-linecap="butt"/><path d="M412.39809,120.84674c-2.33736,15.50494 -7.18209,27.69447 -10.821,27.22608c-3.63892,-0.4684 -4.69404,-13.41734 -2.35667,-28.92228c2.33736,-15.50494 7.18209,-27.69447 10.821,-27.22608c3.63892,0.4684 4.69404,13.41734 2.35667,28.92228z" data-paper-data="{&quot;index&quot;:null}" fill="#000000" stroke="none" stroke-width="0" stroke-linecap="butt"/><path d="M391.51031,95.52157l-32.15553,-4.139" fill="none" stroke="#000000" stroke-width="5" stroke-linecap="round"/><path d="M401.59905,94.17583l25.68529,-1.26133" fill="none" stroke="#000000" stroke-width="5" stroke-linecap="round"/><g data-paper-data="{&quot;index&quot;:null}" stroke="#000000" stroke-linecap="butt"><path d="M361.36944,239.67553l-44.86489,-24.31276l27.91919,-43.99059l44.86489,24.31276z" fill="#ffcaa0" stroke-width="2"/><g><path d="M316.58137,215.5981l-61.86377,-33.52463l28.28307,-44.56397l61.86377,33.52463z" fill="#ff0008" stroke-width="2"/><path d="M317.18681,215.06417l-32.40242,-17.55921c0,0 21.91975,-6.03653 26.6151,-13.43473c4.4519,-7.01459 0.86556,-29.86492 0.86556,-29.86492l32.40243,17.55921c0,0 -9.03867,14.24169 -13.59416,21.41951c-4.60421,7.25459 -13.8865,21.88014 -13.8865,21.88014z" fill="#8d005e" stroke-width="0"/></g><path d="M361.29418,238.71813l-44.86489,-24.31276l37.57093,5.19311l35.21314,-24.87094z" fill="#ff6e5b" stroke-width="0"/></g><path d="M350.83451,136.83333c0,5.98308 -3.06861,10.83333 -6.85393,10.83333c-3.78532,0 -6.85393,-4.85025 -6.85393,-10.83333c0,-5.98308 3.06861,-10.83333 6.85393,-10.83333c3.78532,0 6.85393,4.85025 6.85393,10.83333z" fill="#000000" stroke="none" stroke-width="0" stroke-linecap="butt"/></g></g></svg>