<svg version="1.1" xmlns="http://www.w3.org/2000/svg" xmlns:xlink="http://www.w3.org/1999/xlink" width="200.89774" height="304.93422" viewBox="0,0,200.89774,304.93422"><g transform="translate(-214.55041,-56.05323)"><g data-paper-data="{&quot;isPaintingLayer&quot;:true}" fill-rule="nonzero" stroke-linejoin="miter" stroke-miterlimit="10" stroke-dasharray="" stroke-dashoffset="0" style="mix-blend-mode: normal"><g stroke="#000000" stroke-linecap="butt"><path d="M334.99201,223.07519c30.43636,13.59954 52.43404,30.61283 49.1332,38.0003c-3.30085,7.38748 -30.6503,2.3516 -61.08664,-11.24791c-30.43636,-13.59954 -52.43404,-30.61283 -49.1332,-38.0003c3.30085,-7.38748 30.6503,-2.3516 61.08665,11.24792z" fill="#0d69be" stroke-width="2"/><path d="M382.72672,229.84519c13.06404,5.83726 18.80076,21.43233 12.81329,34.83263c-5.98747,13.40026 -21.43179,19.53131 -34.49587,13.69405c-13.06406,-5.83726 -18.80076,-21.43233 -12.81329,-34.83263c5.98749,-13.40026 21.43182,-19.53129 34.49587,-13.69405z" fill="#faddbf" stroke-width="2"/><path d="M355.8613,261.36499c13.06406,5.83726 45.04447,-10.79794 39.05699,2.60232c-5.98747,13.40026 -21.43179,19.5313 -34.49587,13.69405c-13.06406,-5.83726 -17.62518,-22.13361 -4.56113,-16.29637z" fill="#ef8b89" stroke-width="0"/></g><g stroke="#000000" stroke-linecap="butt"><path d="M307.76518,341.21813v-95.29492h29.49199v95.29492z" fill="#73fffc" stroke-width="2"/><path d="M307.43943,340.6002l1.32626,-93.78573c0,0 5.20288,68.11227 6.3799,77.52842c0.2602,2.08162 2.52228,2.78987 2.52228,2.78987l18.60659,13.13896z" fill="#59a9e6" stroke-width="0"/></g><g stroke="#000000" stroke-linecap="butt"><path d="M268.4238,338.41288v-95.29492h29.49199v95.29492z" fill="#73fffc" stroke-width="2"/><path d="M268.09805,337.79495l1.32626,-93.78573c0,0 5.20288,68.11227 6.3799,77.52842c0.2602,2.08162 2.52228,2.78987 2.52228,2.78987l18.60659,13.13896z" fill="#59a9e6" stroke-width="0"/></g><g stroke="#000000" stroke-linecap="butt"><path d="M335.22917,235.69588c0,13.80271 10.04743,36.74388 4.95001,46.45977c-6.2338,11.88187 -28.61241,9.09579 -38.9397,9.09579c-13.66287,0 -32.94407,4.17018 -38.34426,-14.83216c-2.01935,-7.10576 4.35457,-32.37264 4.35457,-40.7234c0,-30.68249 15.2177,-55.55556 33.98969,-55.55556c18.77199,0 33.98969,24.87307 33.98969,55.55556z" fill="#0d69be" stroke-width="2"/><path d="M283.96554,251.27245c0,13.80271 62.04198,20.54886 56.94455,30.26474c-6.2338,11.88186 -28.61241,9.09579 -38.9397,9.09579c-13.66287,0 -32.94406,4.17018 -38.34425,-14.83215c-2.01936,-7.10576 4.35457,-32.37265 4.35457,-40.7234c0,-9.45244 3.34855,-28.59801 5.51953,-29.96813c5.94391,-16.76415 10.4653,25.13995 10.4653,46.16315z" fill="#10157d" stroke-width="0"/></g><g stroke-linecap="butt"><g stroke="#000000"><g><path d="M248.39759,114.24929c16.54473,-43.76814 65.43797,-65.83707 109.20611,-49.29235c43.76814,16.54473 65.83707,65.43797 49.29235,109.20611c-16.54473,43.76814 -65.43797,65.83707 -109.20611,49.29235c-43.76814,-16.54473 -65.83707,-65.43797 -49.29235,-109.20611z" fill="#faddbf" stroke-width="2"/><path d="M248.9209,113.51755c5.32303,-14.08178 22.59914,-35.30076 27.9534,-36.71294c0.61147,-0.16128 8.56321,-6.28867 17.97279,-9.91215c11.69547,-4.50373 25.29696,-6.64065 25.7986,-6.24036c6.54486,5.22258 -39.32635,54.46814 -47.10973,78.56243c-0.01857,0.05746 -2.84354,19.9873 -1.4848,20.97013c1.02221,5.45639 1.74993,21.1376 9.40364,31.66401c14.26359,19.61719 38.82157,35.71413 37.25527,35.66272c-2.5055,-0.08225 -14.82557,-2.64393 -20.49682,-4.78771c-43.76814,-16.54473 -65.83707,-65.43797 -49.29235,-109.20611z" fill="#ef8b89" stroke-width="0"/><path d="M406.56843,173.54937c-4.11024,10.87342 -7.00633,14.07241 -6.86797,12.14511c0.14115,-1.96621 3.29537,-9.24568 -3.27862,-16.90028c-1.59301,-1.85486 -11.76607,2.2618 -13.88322,0.14855c-1.32981,-1.32737 -4.49526,-12.57752 -6.04628,-13.88653c-1.08444,-0.91524 -14.60806,3.43416 -15.75785,2.51776c-2.86762,-2.28555 -7.19249,-14.87784 -10.46871,-16.81973c-1.80412,-1.06935 -12.87309,7.80198 -14.75611,6.81881c-2.4284,-1.26793 -5.15093,-14.84898 -7.71148,-15.81689c-6.80958,-2.57408 -9.47553,3.91313 -16.49873,7.67931c-4.56384,2.44736 -8.46977,-17.1549 -12.96003,-14.11075c-5.57637,3.78046 -11.04625,7.38921 -16.2861,9.25673c-4.11086,1.46514 -8.9307,-14.17005 -12.54652,-12.73829c-17.45818,6.91289 -28.08731,11.45215 -21.66194,-5.5458c12.92021,-34.17968 43.39549,7.62315 90.08898,2.26564c44.69453,-5.12815 81.5548,20.8067 68.63459,54.98638z" fill="#ef8b89" stroke-width="0"/></g><path d="M410.94186,166.31772c-8.30346,21.96633 3.02812,10.46185 -10.42186,-4.85922c-1.64589,-1.87485 -12.01754,2.16674 -14.2019,0.02808c-1.37202,-1.34333 -4.70844,-12.6581 -6.30662,-13.98494c-1.11742,-0.92771 -14.91483,3.3182 -16.09909,2.38876c-2.95362,-2.31805 -7.48787,-14.98949 -10.85652,-16.96632c-1.85501,-1.08858 -13.10181,7.71553 -15.0368,6.7127c-2.49541,-1.29326 -5.39901,-14.94275 -8.02701,-15.93616c-6.98895,-2.64188 -9.65983,3.84346 -16.81208,7.56086c-4.64771,2.41566 -8.81443,-17.28518 -13.38166,-14.27013c-5.67195,3.74433 -11.23646,7.31731 -16.5808,9.14533c-4.19284,1.43415 -9.25998,-14.29452 -12.94666,-12.88955c-17.80032,6.78356 -28.63488,11.24516 -22.20951,-5.75278c12.92021,-34.17968 66.01915,-61.91282 108.97915,-45.67358c42.95999,16.23924 66.8216,70.31729 53.90139,104.49697z" fill="#873412" stroke-width="2"/><path d="M411.12128,165.14245c-8.30346,21.96633 3.02812,10.46185 -10.42186,-4.85922c-1.64589,-1.87485 -12.01754,2.16674 -14.2019,0.02808c-1.37202,-1.34333 -4.70844,-12.6581 -6.30663,-13.98494c-1.11742,-0.92771 -14.91483,3.3182 -16.09909,2.38876c-2.95362,-2.31805 -7.48787,-14.98949 -10.85652,-16.96632c-1.85501,-1.08858 -13.10181,7.71553 -15.0368,6.7127c-2.49541,-1.29326 -5.39901,-14.94275 -8.02701,-15.93616c-6.98895,-2.64188 -9.65983,3.84346 -16.81208,7.56086c-4.64771,2.41566 -8.81443,-17.28518 -13.38166,-14.27013c-5.67195,3.74433 -11.23646,7.31731 -16.58081,9.14532c-4.19284,1.43415 -9.25998,-14.29452 -12.94666,-12.88955c-17.80032,6.78356 -28.63488,11.24516 -22.20951,-5.75278c12.92021,-34.17968 44.46206,8.02632 92.18503,3.05796c45.67995,-4.75565 83.6157,21.58574 70.69549,55.76542z" fill="#741d23" stroke-width="0"/></g><path d="M355.59361,72.37135c0.01995,0.13116 0.02297,0.27497 0.0123,0.42793c-0.00352,0.27572 -0.05307,0.55542 -0.15334,0.82865c-0.30009,1.10136 -0.93071,2.33511 -1.06259,2.81134c-0.17325,0.62568 1.37766,-0.27816 1.94739,0.03312c0.34899,0.19068 0.4702,0.99197 0.84044,0.84678c2.24684,-0.88111 4.75783,-2.98961 6.76049,-0.49726c0.66325,0.82542 -0.03593,2.00766 0.25014,2.84781c0.02405,0.07063 2.48896,0.79481 2.85766,1.50392c0.63531,1.22185 -0.49765,2.21928 -0.35937,3.33275c0.04424,0.3563 0.69375,-0.21055 1.05226,-0.22999c1.59553,-0.08649 4.44851,-0.46357 5.7341,1.0933c0.67739,0.82034 -0.06144,2.26409 0.25648,2.85668c0.55736,1.03889 2.29133,-0.59322 3.4641,-0.71375c1.62202,-0.1667 2.05456,0.74604 2.9052,2.01491c0.14671,0.21885 -1.01869,4.03232 -0.39705,5.50498c0.34943,0.82779 1.84849,-0.21924 2.69424,0.08416c0.84384,0.30272 2.79671,0.26872 3.15469,0.51481c0.71807,0.49363 0.88991,2.09056 1.74872,1.94314c4.38482,-0.75269 8.46621,2.33891 5.1831,6.40054c-0.41548,0.51402 1.43945,-0.06943 1.95206,0.34778c0.19873,0.16174 1.11118,1.57655 1.35411,1.57644c1.58897,-0.00074 2.72108,-0.3394 4.21081,0.21959c1.2372,0.46424 2.16077,1.60861 1.95959,3.00837c-0.10572,0.73564 -1.68367,1.63331 -1.02601,1.97948c1.55018,0.81597 3.84342,2.45829 2.2238,4.55879c-1.75812,2.28013 -4.75553,3.70121 -6.42276,0.8356c-0.57845,-0.99422 -2.5948,0.3476 -3.42094,-0.45277c-1.05834,-1.02532 -0.87404,-3.40217 -0.39114,-4.47748c0.22324,-0.49709 -1.13619,-0.02967 -1.60587,-0.30596c-0.63237,-0.37199 -0.56717,-1.51371 -1.23206,-1.82384c-1.48723,-0.69369 -2.4259,2.57471 -5.78326,0.46472c-0.99096,-0.62279 -1.58229,-2.92974 -1.54908,-4.09095c0.01928,-0.67406 2.29011,-1.96687 2.17961,-2.12151c-0.26834,-0.37551 -2.81984,1.95677 -3.269,1.93895c-1.08055,-0.04287 -1.87495,-1.1147 -2.6568,-1.8618c-0.69076,-0.66006 -1.74708,1.36004 -2.65815,1.07231c-0.80489,-0.2542 -8.57859,-3.7586 -8.7144,-4.34766c-0.16558,-0.71816 -0.15908,-1.89999 0.23938,-2.50806c0.1432,-0.21853 1.56385,-1.37724 1.38688,-1.42259c-0.62804,-0.16098 -5.13384,1.73661 -6.01249,-2.07434c-0.4778,-2.07237 2.18183,-3.02224 2.75914,-4.54032c0.35652,-0.93749 -1.62968,1.1751 -2.38234,1.83806c-0.57809,0.50921 -1.80383,0.71358 -2.53711,0.4631c-2.53529,-0.86602 -0.93768,-3.00015 -0.92797,-4.61546c0.00448,-0.74545 -1.6863,-0.00116 -2.16097,-0.57598c-1.16054,-1.40544 -0.52842,-2.41142 -0.11548,-3.89331c0.18907,-0.67853 -1.47331,2.34575 -3.07057,1.92002c-0.64777,-0.17266 -1.27719,-1.49556 -1.73924,-1.00983c-2.2495,2.36481 -2.0185,3.74792 -5.39923,1.95569c-0.32623,-0.17294 -1.1959,0.39855 -1.48407,0.04956c-3.18945,-3.86251 1.99971,-7.72326 3.53108,-11.42929c0.54018,-1.30728 0.42169,-3.61181 1.8186,-3.834c0.66733,-0.53548 1.5924,-0.71424 2.45068,-0.38981c0.76101,0.28767 1.29972,0.90677 1.51399,1.63106c0.04248,0.09834 0.0735,0.20181 0.09021,0.31167z" fill="#ba587e" stroke="none" stroke-width="0.5"/></g><g stroke="#000000" stroke-linecap="butt"><path d="M345.03587,185.1708c-10.09814,26.71405 -27.62434,35.83683 -43.12256,29.97837c-15.49822,-5.85846 -23.09962,-24.47969 -13.00148,-51.19373c10.09814,-26.71405 30.84809,-43.62085 46.34632,-37.76239c15.49822,5.85846 19.87586,32.2637 9.77773,58.97775z" fill="#f0f0f0" stroke-width="2"/><path d="M308.22465,150.3211c-14.00753,24.88779 10.07539,70.13481 -5.42284,64.27635c-15.49822,-5.85846 -23.09962,-24.47969 -13.00148,-51.19373c10.09814,-26.71405 38.67506,-49.063 18.42432,-13.08261z" fill="#9a99ff" stroke-width="0"/></g><path d="M338.48183,191.49516c-5.59457,14.80011 -14.51587,25.14002 -19.92628,23.09484c-5.41041,-2.04518 -5.26113,-15.70099 0.33344,-30.5011c5.59457,-14.80011 14.51587,-25.14002 19.92628,-23.09484c5.41041,2.04518 5.26113,15.70099 -0.33344,30.5011z" fill="#000000" stroke="none" stroke-width="0" stroke-linecap="butt"/><g stroke="#000000" stroke-linecap="butt"><path d="M350.9701,155.30512c0.55423,11.14579 -2.8978,34.048 -17.59319,28.49302c-14.69539,-5.55498 -35.13686,-38.29065 -27.4858,-45.67774c7.27987,-7.02869 13.92463,-17.63449 28.62002,-12.07951c14.69539,5.55498 15.93078,18.64213 16.45896,29.26421z" fill="#a100fe" stroke-width="2"/><path d="M350.23079,154.64696c0.41199,11.09202 -2.63628,33.63936 -16.8306,28.27379c-14.19431,-5.36557 -34.21579,-37.43497 -26.70969,-44.87685c7.14194,-7.08083 5.79441,3.2188 19.98872,8.58438c14.19431,5.36557 23.15892,-2.55216 23.55155,8.01868z" fill="#99008e" stroke-width="0"/></g><g data-paper-data="{&quot;index&quot;:null}" stroke="#000000" stroke-linecap="butt"><path d="M395.2349,147.75585c15.49822,5.85846 19.87586,32.2637 9.77773,58.97775c-10.09814,26.71404 -28.11666,35.65073 -43.61488,29.79227c-15.49822,-5.85846 -22.6073,-24.29358 -12.50916,-51.00763c10.09814,-26.71405 30.84809,-43.62085 46.34632,-37.76239z" fill="#f0f0f0" stroke-width="2"/><path d="M404.71127,205.73206c-10.09814,26.71404 -28.11666,35.65073 -43.61488,29.79227c-15.49822,-5.85846 32.49344,-23.86068 38.45167,-51.79117c8.61385,-40.37923 15.26135,-4.71515 5.16321,21.9989z" fill="#9a99ff" stroke-width="0"/></g><path d="M397.04949,181.82469c5.41041,2.04518 5.26113,15.70099 -0.33344,30.5011c-5.59457,14.80011 -14.51587,25.14002 -19.92628,23.09484c-5.41041,-2.04518 -5.26113,-15.70099 0.33344,-30.5011c5.59457,-14.80011 14.51587,-25.14002 19.92628,-23.09484z" data-paper-data="{&quot;index&quot;:null}" fill="#000000" stroke="none" stroke-width="0" stroke-linecap="butt"/><g data-paper-data="{&quot;index&quot;:null}" stroke="#000000" stroke-linecap="butt"><path d="M364.19425,159.19498c7.42257,-7.61663 17.00614,-16.61412 31.70153,-11.05914c14.69539,5.55498 12.66294,17.90427 13.47301,27.99104c0.85138,10.60108 -34.93912,21.82683 -49.63451,16.27185c-14.69539,-5.55498 -3.32858,-25.21159 4.45995,-33.20375z" fill="#a100fe" stroke-width="2"/><path d="M365.18407,159.19045c7.28702,-7.66786 8.77247,4.20008 22.96679,9.56565c14.19431,5.36557 19.9969,-3.25002 20.66905,6.78461c0.70642,10.54628 -34.46647,21.24424 -48.66078,15.87867c-14.19431,-5.36557 -2.62137,-24.183 5.02493,-32.22892z" fill="#99008e" stroke-width="0"/></g><path d="M371.63632,338.87008c0,11.6628 -14.51982,21.11737 -32.43092,21.11737c-17.9111,0 -32.43092,-9.45457 -32.43092,-21.11737c0,-2.33142 -0.03339,-13.76009 1.08979,-15.13837c4.49546,-5.51647 17.81784,5.26144 32.14847,5.26144c17.9111,0 31.62358,-1.78588 31.62358,9.87692z" fill="#000082" stroke="#000000" stroke-width="2" stroke-linecap="butt"/><path d="M369.75004,336.13783c0,6.30841 -13.89058,10.1901 -31.80169,10.1901c-17.9111,0 -30.16566,-2.95748 -30.16566,-9.26589c0,-1.26107 -0.03338,-12.52602 1.0898,-13.27153c4.49546,-2.98386 15.55258,5.7726 29.88321,5.7726c17.9111,0 30.99434,0.26631 30.99434,6.57472z" fill="#2e0048" stroke="#000000" stroke-width="0" stroke-linecap="butt"/><path d="M328.64938,338.22529c0,11.6628 -14.51982,21.11737 -32.43092,21.11737c-17.9111,0 -32.43092,-9.45457 -32.43092,-21.11737c0,-2.33142 -0.03339,-13.76009 1.08979,-15.13837c4.49546,-5.51647 17.81784,5.26144 32.14847,5.26144c17.9111,0 31.62358,-1.78588 31.62358,9.87692z" fill="#000082" stroke="#000000" stroke-width="2" stroke-linecap="butt"/><path d="M326.7631,335.49289c0,6.30841 -13.89058,10.1901 -31.80169,10.1901c-17.9111,0 -30.16566,-2.95748 -30.16566,-9.26589c0,-1.26107 -0.03338,-12.52602 1.0898,-13.27153c4.49546,-2.98386 15.55258,5.7726 29.88321,5.7726c17.9111,0 30.99434,0.26631 30.99434,6.57472z" fill="#2e0048" stroke="#000000" stroke-width="0" stroke-linecap="butt"/><g><g><path d="M274.46045,264.22585c-13.77265,-6.15927 -18.71922,-16.68267 -13.26355,-30.58751c4.26693,-10.87513 21.07718,-17.616 34.84986,-11.45669c13.77274,6.15928 19.79781,19.53325 13.69992,33.16867c-0.95357,2.13232 -2.46649,3.81723 -3.83389,5.36899c-7.37667,8.37111 -19.83347,8.70267 -31.45235,3.50659z" fill="#485e84" stroke="#000000" stroke-width="2" stroke-linecap="butt"/><path d="M282.29021,221.59702c0,0 -2.74574,5.05886 -1.77131,6.80926c9.3468,16.79021 21.70708,23.45666 25.96344,25.34957c0.96704,0.43009 1.88631,-0.21474 1.88631,-0.21474c0,0 -0.65554,2.00957 -2.28973,4.21034c-1.73891,2.34181 -4.5422,4.91972 -7.33773,6.19647c-3.19331,1.45839 -11.41334,2.85111 -11.41334,2.85111l-20.22354,-5.46507c0,0 -5.86621,-12.10549 -6.08101,-14.26205c-0.21045,-2.11273 0.14648,-4.67307 0.41639,-7.41056c0.41914,-4.25041 2.40593,-8.33198 4.34391,-10.46251c2.47331,-2.71899 6.55547,-4.97465 10.16441,-6.21482c3.35878,-1.15425 6.34211,-1.38685 6.34211,-1.38685z" fill="#343545" stroke="none" stroke-width="0" stroke-linecap="butt"/><path d="M274.51461,244.76394c0,0 1.89708,-8.82038 5.82536,-12.15936c4.97276,-4.22684 16.8014,-9.53582 16.8014,-9.53582" fill="none" stroke="#000000" stroke-width="1" stroke-linecap="round"/><path d="M311.07129,248.38686c0,0 -4.22968,5.76541 -7.52558,8.52381c-3.32732,2.78479 -12.48601,5.98968 -12.48601,5.98968" fill="none" stroke="#000000" stroke-width="1" stroke-linecap="round"/><path d="M263.64436,243.28292c0,0 1.81208,-9.08312 6.23166,-12.50599c6.78172,-5.25228 17.15364,-10.44067 17.15364,-10.44067" fill="none" stroke="#000000" stroke-width="1" stroke-linecap="round"/><path d="M265.83553,228.15691c0,0 16.82883,-4.03315 29.93943,7.44098c14.36101,12.56844 7.02264,28.17736 7.02264,28.17736" fill="none" stroke="#000000" stroke-width="1" stroke-linecap="round"/><path d="M260.82231,236.25459c0,0 17.75707,-1.24446 29.3479,8.85565c9.51712,8.29314 4.56572,22.01908 4.56572,22.01908" fill="none" stroke="#000000" stroke-width="1" stroke-linecap="round"/><path d="M304.52064,235.03765c-0.67918,-0.99296 -0.59243,-2.23372 0.19364,-2.77135c0.78604,-0.53767 1.25442,0.10622 1.93356,1.09917c0.67918,0.99296 1.31183,1.95894 0.52576,2.49657c-0.78604,0.53767 -1.97385,0.16856 -2.65297,-0.82438z" fill="#8fbbbe" stroke="none" stroke-width="0" stroke-linecap="butt"/><path d="M307.76972,241.5417c-0.54906,-0.24557 -0.69561,-1.11229 -0.3273,-1.9359c0.36834,-0.82363 0.63241,-1.10905 1.1815,-0.86351c0.54906,0.24557 0.86131,1.1864 0.49296,2.00998c-0.36834,0.82363 -0.79814,1.03495 -1.34721,0.78938z" fill="#8fbbbe" stroke="none" stroke-width="0" stroke-linecap="butt"/><path d="M300.56189,229.36383c-0.77971,-0.454 -1.16638,-1.24334 -0.86375,-1.76316c0.3026,-0.51979 0.95775,-0.07604 1.73744,0.37794c0.77971,0.454 1.38871,0.74626 1.08607,1.26605c-0.3026,0.51979 -1.18009,0.57315 -1.95975,0.11915z" fill="#8fbbbe" stroke="none" stroke-width="0" stroke-linecap="butt"/><path d="M277.84723,222.19491c0,0 10.18991,0.91949 16.95041,4.34231c3.83283,1.94057 6.54103,4.97405 8.5685,7.29691c1.79298,2.05418 3.83005,8.30527 4.89136,13.25218c0.78138,3.64214 0.84812,6.58535 0.84812,6.58535" fill="none" stroke="#000000" stroke-width="0.5" stroke-linecap="round"/><path d="M309.96194,233.97207c0,0 -4.68408,9.47827 -8.68476,13.11306c-3.37065,3.06241 -13.42334,7.42221 -13.42334,7.42221" fill="none" stroke="#000000" stroke-width="1" stroke-linecap="round"/><path d="M283.38413,250.71887c0,0 4.37882,-8.61711 7.37718,-12.00242c5.26459,-5.94399 14.91814,-9.84092 14.91814,-9.84092" fill="none" stroke="#000000" stroke-width="1" stroke-linecap="round"/></g><g stroke="#000000" stroke-linecap="butt"><path d="M256.97919,240.03417c24.8747,22.19386 23.97807,31.79863 18.59121,37.83617c-5.38686,6.03755 -29.91871,-7.05976 -54.79343,-29.25361c-24.8747,-22.19389 46.82448,-30.83785 52.21135,-36.87538c6.85099,-1.84179 6.33183,4.66421 1.36189,10.75156c-6.12911,7.5071 -19.49725,15.64424 -17.37103,17.54128z" fill="#0d69be" stroke-width="2"/><path d="M283.71433,247.68817c10.67685,9.52619 11.41093,26.12669 1.63957,37.07833c-9.77135,10.95163 -26.34787,12.10719 -37.02472,2.58102c-10.67685,-9.52619 -11.4109,-26.12671 -1.63957,-37.07833c9.77135,-10.95163 26.34784,-12.10717 37.02471,-2.58097z" fill="#faddbf" stroke-width="2"/><path d="M248.55128,269.56982c10.67685,9.52619 46.19716,3.37938 36.42584,14.33104c-9.77135,10.95163 -26.34786,12.10717 -37.02471,2.58097c-10.67685,-9.52619 -10.07799,-26.43822 0.59887,-16.91203z" fill="#ef8b89" stroke-width="0"/></g></g><path d="M274.85847,173.09582c0.11143,-0.23498 0.57912,-1.0459 1.58436,-0.66592c1.16925,0.44199 0.72726,1.61124 0.72726,1.61124l-0.17814,0.36572c-1.36592,1.968 -2.93755,3.76317 -4.36934,5.67945c-1.41973,1.40151 -3.06951,3.2832 -5.04122,3.89527c-3.99274,1.23944 -7.40597,-3.03425 -7.61609,-6.64222c-0.26891,-4.61756 2.27744,-9.65783 4.9655,-13.30327c0,0 0.7462,-1.00284 1.74904,-0.25664c1.00284,0.7462 0.25664,1.74904 0.25664,1.74904c-1.91851,2.55066 -4.23615,6.62836 -4.49671,9.88368c-0.16907,2.11225 0.62262,6.14339 3.47189,6.3743c1.79722,0.14565 3.70956,-2.24977 4.8261,-3.34251c1.34158,-1.81106 2.82696,-3.49948 4.1207,-5.34812z" fill="#000000" stroke="none" stroke-width="0.5" stroke-linecap="butt"/></g></g></svg>