<svg version="1.1" xmlns="http://www.w3.org/2000/svg" xmlns:xlink="http://www.w3.org/1999/xlink" width="174.48521" height="319.97407" viewBox="0,0,174.48521,319.97407"><g transform="translate(-226.08534,-41.01331)"><g data-paper-data="{&quot;isPaintingLayer&quot;:true}" fill-rule="nonzero" stroke-linejoin="miter" stroke-miterlimit="10" stroke-dasharray="" stroke-dashoffset="0" style="mix-blend-mode: normal"><g stroke="#000000" stroke-linecap="butt"><path d="M336.70343,222.24109c11.24013,31.38436 14.17681,59.03806 6.55924,61.76625c-7.61757,2.72819 -22.90476,-20.50224 -34.14489,-51.88661c-11.24013,-31.38436 -14.17681,-59.03806 -6.55924,-61.76625c7.61757,-2.72819 22.90476,20.50224 34.14489,51.88662z" fill="#0d69be" stroke-width="2"/><path d="M364.84315,261.38942c4.82455,13.47096 -2.46579,28.40306 -16.28344,33.35177c-13.81764,4.94871 -28.93013,-1.95993 -33.75468,-15.4309c-4.82455,-13.47097 2.46579,-28.40306 16.28344,-33.35177c13.81764,-4.94872 28.93013,1.95994 33.75468,15.4309z" fill="#faddbf" stroke-width="2"/><path d="M323.49789,263.80128c4.82455,13.47097 38.96228,25.05074 25.14464,29.99946c-13.81764,4.94871 -28.93012,-1.95994 -33.75468,-15.4309c-4.82455,-13.47097 3.78548,-28.03952 8.61003,-14.56855z" fill="#ef8b89" stroke-width="0"/></g><g stroke="#000000" stroke-linecap="butt"><path d="M307.76518,340.83533v-95.29492h29.49199v95.29492z" fill="#73fffc" stroke-width="2"/><path d="M307.43943,340.21739l1.32626,-93.78573c0,0 5.20288,68.11227 6.3799,77.52842c0.2602,2.08162 2.52228,2.78987 2.52228,2.78987l18.60659,13.13896z" fill="#59a9e6" stroke-width="0"/></g><g stroke="#000000" stroke-linecap="butt"><path d="M268.4238,338.41279v-95.29492h29.49199v95.29492z" fill="#73fffc" stroke-width="2"/><path d="M268.09805,337.79487l1.32626,-93.78573c0,0 5.20288,68.11227 6.3799,77.52842c0.2602,2.08162 2.52228,2.78987 2.52228,2.78987l18.60659,13.13896z" fill="#59a9e6" stroke-width="0"/></g><g stroke="#000000" stroke-linecap="butt"><path d="M335.22917,235.69585c0,13.80271 10.04743,36.74388 4.95001,46.45977c-6.2338,11.88187 -28.61241,9.09579 -38.9397,9.09579c-13.66287,0 -32.94407,4.17018 -38.34426,-14.83216c-2.01935,-7.10576 4.35457,-32.37264 4.35457,-40.7234c0,-30.68249 15.2177,-55.55556 33.98969,-55.55556c18.77199,0 33.98969,24.87307 33.98969,55.55556z" fill="#0d69be" stroke-width="2"/><path d="M283.96554,251.27245c0,13.80271 62.04198,20.54886 56.94455,30.26474c-6.2338,11.88186 -28.61241,9.09579 -38.9397,9.09579c-13.66287,0 -32.94406,4.17018 -38.34425,-14.83215c-2.01936,-7.10576 4.35457,-32.37265 4.35457,-40.7234c0,-9.45244 3.34855,-28.59801 5.51953,-29.96813c5.94391,-16.76415 10.4653,25.13995 10.4653,46.16315z" fill="#10157d" stroke-width="0"/></g><path d="M371.63632,338.87001c0,11.6628 -14.51982,21.11737 -32.43092,21.11737c-17.9111,0 -32.43092,-9.45457 -32.43092,-21.11737c0,-2.33142 -0.03339,-13.76009 1.08979,-15.13837c4.49546,-5.51647 17.81784,5.26144 32.14847,5.26144c17.9111,0 31.62358,-1.78588 31.62358,9.87692z" fill="#000082" stroke="#000000" stroke-width="2" stroke-linecap="butt"/><path d="M369.75004,336.13771c0,6.30841 -13.89058,10.1901 -31.80169,10.1901c-17.9111,0 -30.16566,-2.95748 -30.16566,-9.26589c0,-1.26107 -0.03338,-12.52602 1.0898,-13.27153c4.49546,-2.98386 15.55258,5.7726 29.88321,5.7726c17.9111,0 30.99434,0.26631 30.99434,6.57472z" fill="#2e0048" stroke="#000000" stroke-width="0" stroke-linecap="butt"/><path d="M328.64938,338.2252c0,11.6628 -14.51982,21.11737 -32.43092,21.11737c-17.9111,0 -32.43092,-9.45457 -32.43092,-21.11737c0,-2.33142 -0.03339,-13.76009 1.08979,-15.13837c4.49546,-5.51647 17.81784,5.26144 32.14847,5.26144c17.9111,0 31.62358,-1.78588 31.62358,9.87692z" fill="#000082" stroke="#000000" stroke-width="2" stroke-linecap="butt"/><path d="M326.7631,335.49289c0,6.30841 -13.89058,10.1901 -31.80169,10.1901c-17.9111,0 -30.16566,-2.95748 -30.16566,-9.26589c0,-1.26107 -0.03338,-12.52602 1.0898,-13.27153c4.49546,-2.98386 15.55258,5.7726 29.88321,5.7726c17.9111,0 30.99434,0.26631 30.99434,6.57472z" fill="#2e0048" stroke="#000000" stroke-width="0" stroke-linecap="butt"/><g stroke-linecap="butt"><g><g stroke="#000000"><g><path d="M229.23212,111.21188c10.08132,-45.69185 55.2944,-74.55989 100.98625,-64.47856c45.69185,10.08132 74.55989,55.2944 64.47856,100.98625c-10.08132,45.69185 -55.2944,74.55989 -100.98625,64.47856c-45.69185,-10.08132 -74.55989,-55.2944 -64.47856,-100.98625z" fill="#faddbf" stroke-width="2"/><path d="M229.64482,110.41252c3.24352,-14.70071 17.29003,-38.18272 22.38567,-40.3499c0.58193,-0.2475 7.57028,-7.4543 16.36128,-12.39275c10.92661,-6.13816 24.07965,-10.20807 24.63363,-9.88405c7.22763,4.22753 -31.08824,59.55553 -35.32727,84.51843c-0.01011,0.05952 0.05913,20.18847 1.54503,20.96578c1.79594,5.25278 4.77024,20.66652 13.85761,29.9834c16.93538,17.36309 43.55221,29.7627 41.9948,29.93697c-2.49131,0.27876 -15.05165,-0.48533 -20.97217,-1.79161c-45.69185,-10.08132 -74.55989,-55.2944 -64.47856,-100.98625z" fill="#ef8b89" stroke-width="0"/><path d="M394.28453,147.15935c-2.50452,11.35133 -4.91068,14.93341 -5.0508,13.00624c-0.14295,-1.96608 1.9321,-9.62336 -5.67395,-16.25346c-1.8431,-1.6066 -11.31874,3.92966 -13.71768,2.14269c-1.50681,-1.12243 -6.25657,-11.8007 -7.97965,-12.87317c-1.20475,-0.74985 -13.96269,5.49837 -15.23227,4.75677c-3.16638,-1.8496 -9.25646,-13.68942 -12.77779,-15.14019c-1.9391,-0.7989 -11.61787,9.57144 -13.62267,8.86914c-2.58544,-0.90569 -7.23194,-13.95432 -9.90504,-14.54411c-7.10887,-1.56848 -8.81462,5.23457 -15.22349,9.97122c-4.16464,3.07799 -10.84779,-15.75922 -14.85382,-12.10123c-4.97503,4.54279 -9.86934,8.90034 -14.78633,11.50168c-3.85755,2.04085 -10.87486,-12.73911 -14.24732,-10.80246c-16.28315,9.35068 -26.14938,15.3707 -22.23417,-2.37434c7.87277,-35.68196 44.04062,1.30596 89.47903,-10.708c43.49319,-11.49964 83.69872,8.86727 75.82596,44.54923z" fill="#ef8b89" stroke-width="0"/></g><path d="M397.57299,139.37413c-5.05961,22.93181 4.50054,9.9179 -11.01213,-3.31063c-1.8983,-1.61878 -11.58126,3.87173 -14.05037,2.06929c-1.55088,-1.13216 -6.47912,-11.8498 -8.25143,-12.93313c-1.23917,-0.75744 -14.28294,5.42771 -15.58851,4.67817c-3.25617,-1.8694 -9.56482,-13.75745 -13.18265,-15.22951c-1.99222,-0.81063 -11.85664,9.51875 -13.91569,8.8045c-2.65539,-0.92113 -7.49093,-14.01147 -10.23444,-14.61679c-7.29613,-1.6098 -9.00701,5.19213 -15.55061,9.89904c-4.25219,3.05867 -11.20759,-15.83861 -15.29398,-12.19834c-5.0748,4.52077 -10.06791,8.85654 -15.09397,11.4338c-3.94314,2.02197 -11.21861,-12.81495 -14.66505,-10.89463c-16.64033,9.27187 -26.72102,15.24458 -22.80581,-2.50047c7.87277,-35.68196 56.43366,-70.75993 101.28184,-60.86476c44.84818,9.89517 76.23557,59.98152 68.36282,95.66348z" fill="#873412" stroke-width="2"/><path d="M397.58161,138.18528c-5.05961,22.93181 4.50054,9.9179 -11.01213,-3.31063c-1.8983,-1.61878 -11.58126,3.87173 -14.05037,2.06929c-1.55088,-1.13216 -6.47912,-11.8498 -8.25143,-12.93313c-1.23917,-0.75744 -14.28294,5.42771 -15.58851,4.67817c-3.25617,-1.8694 -9.56482,-13.75745 -13.18265,-15.22951c-1.99222,-0.81063 -11.85664,9.51875 -13.91569,8.8045c-2.65539,-0.92113 -7.49093,-14.01147 -10.23444,-14.61679c-7.29613,-1.6098 -9.00701,5.19213 -15.55061,9.89904c-4.25219,3.05867 -11.20759,-15.83861 -15.29398,-12.19834c-5.0748,4.52077 -10.06791,8.85654 -15.09398,11.4338c-3.94314,2.02197 -11.21861,-12.81495 -14.66505,-10.89463c-16.64033,9.27187 -26.72102,15.24458 -22.80581,-2.50047c7.87277,-35.68196 45.15406,1.55163 91.6672,-10.2252c44.52192,-11.27266 85.8502,9.34197 77.97744,45.02393z" fill="#741d23" stroke-width="0"/></g><path d="M329.29497,54.35967c0.0386,0.12693 0.06225,0.26881 0.07369,0.42172c0.03615,0.27336 0.02733,0.55727 -0.03263,0.84209c-0.13866,1.13306 -0.58538,2.44464 -0.64744,2.93488c-0.08152,0.64409 1.32337,-0.47331 1.93192,-0.24716c0.37278,0.13853 0.60791,0.91408 0.95343,0.71717c2.09685,-1.19493 4.27866,-3.64249 6.6188,-1.4639c0.77501,0.7215 0.25304,1.99197 0.65691,2.78228c0.03395,0.06643 2.57736,0.42878 3.04417,1.07752c0.80435,1.11784 -0.17347,2.26777 0.12343,3.3498c0.095,0.34624 0.65629,-0.30809 1.00826,-0.37886c1.56653,-0.31495 4.33568,-1.09822 5.83171,0.25768c0.78829,0.71445 0.26466,2.2494 0.66446,2.79014c0.70091,0.94798 2.18225,-0.91644 3.32552,-1.20429c1.58122,-0.39813 2.14046,0.44295 3.16467,1.57637c0.17664,0.19549 -0.42848,4.13687 0.3984,5.50488c0.46479,0.76896 1.79778,-0.48268 2.67836,-0.304c0.87859,0.17827 2.80629,-0.1361 3.19593,0.05599c0.78158,0.38528 1.18118,1.94093 2.00988,1.67158c4.23108,-1.37518 8.71449,1.09762 6.04934,5.589c-0.33728,0.5684 1.41452,-0.27563 1.98178,0.06356c0.21992,0.13149 1.32626,1.40044 1.56666,1.36542c1.57236,-0.22914 2.64403,-0.72702 4.19865,-0.38798c1.29109,0.28157 2.36956,1.2813 2.37168,2.69544c0.00112,0.7432 -1.4314,1.85837 -0.73081,2.1064c1.65137,0.58466 4.15688,1.88027 2.85601,4.19177c-1.4121,2.50918 -4.1741,4.34637 -6.23594,1.75018c-0.71536,-0.90074 -2.51788,0.71699 -3.45049,0.04369c-1.19474,-0.86254 -1.35402,-3.24119 -1.0307,-4.37475c0.14946,-0.52402 -1.12865,0.13396 -1.63317,-0.07195c-0.67928,-0.27722 -0.77887,-1.41646 -1.48143,-1.62779c-1.5715,-0.4727 -2.0306,2.89669 -5.6564,1.29123c-1.0702,-0.47386 -1.987,-2.67186 -2.12106,-3.82579c-0.07782,-0.66982 1.9836,-2.27564 1.852,-2.4128c-0.31953,-0.33303 -2.50928,2.34179 -2.95632,2.38873c-1.07549,0.1129 -2.01571,-0.83361 -2.89684,-1.46055c-0.77847,-0.5539 -1.53343,1.59705 -2.4764,1.44327c-0.83307,-0.13586 -9.02978,-2.48641 -9.24886,-3.04984c-0.26709,-0.6869 -0.43055,-1.85739 -0.12363,-2.51642c0.1103,-0.23684 1.34963,-1.58774 1.16799,-1.60717c-0.64466,-0.06903 -4.83089,2.45655 -6.24823,-1.18851c-0.77073,-1.98216 1.72473,-3.30449 2.07782,-4.88979c0.21805,-0.979 -1.44384,1.39716 -2.09337,2.16142c-0.49889,0.58701 -1.68252,0.96547 -2.44419,0.82299c-2.63345,-0.49258 -1.35921,-2.8342 -1.5818,-4.43413c-0.10272,-0.73835 -1.66896,0.24125 -2.22132,-0.25937c-1.35052,-1.22401 -0.86957,-2.31041 -0.67393,-3.83628c0.08957,-0.69866 -1.1208,2.53317 -2.76268,2.34147c-0.66586,-0.07774 -1.47891,-1.29644 -1.86633,-0.74934c-1.8862,2.6636 -1.45878,3.99915 -5.06203,2.71151c-0.34771,-0.12425 -1.12619,0.56632 -1.46154,0.26237c-3.71155,-3.36392 0.86874,-7.9305 1.85147,-11.81818c0.34665,-1.37135 -0.10188,-3.63491 1.24858,-4.0556c0.58343,-0.62585 1.47318,-0.93573 2.3692,-0.73804c0.79446,0.17528 1.41656,0.71052 1.73273,1.39649c0.05618,0.09122 0.10175,0.18915 0.13408,0.29546z" fill="#ba587e" stroke="none" stroke-width="0.5"/></g><g stroke="#000000"><path d="M335.06157,167.50528c-6.15318,27.8882 -22.18597,39.43558 -38.36538,35.86581c-16.1794,-3.56978 -26.37862,-20.90493 -20.22545,-48.79312c6.15318,-27.8882 24.25731,-47.60217 40.43671,-44.03238c16.1794,3.56978 24.30728,29.0715 18.15411,56.9597z" fill="#f0f0f0" stroke-width="2"/><path d="M293.62309,138.30906c-10.28447,26.64287 20.05249,67.9581 3.87307,64.38831c-16.1794,-3.56978 -26.37862,-20.90493 -20.22545,-48.79312c6.15318,-27.8882 31.22068,-54.11291 16.35237,-15.5952z" fill="#9a99ff" stroke-width="0"/></g><path d="M313.26968,178.3413c-3.40898,15.45061 -10.75129,26.96555 -16.3995,25.71934c-5.64821,-1.2462 -7.46347,-14.78165 -4.05449,-30.23226c3.40898,-15.45061 10.75129,-26.96555 16.3995,-25.71934c5.64821,1.2462 7.46347,14.78165 4.05449,30.23226z" fill="#000000" stroke="none" stroke-width="0"/><g stroke="#000000"><path d="M336.64105,137.09674c2.15065,10.95036 2.02663,34.11095 -13.31465,30.72609c-15.34128,-3.38486 -40.27614,-32.84213 -33.76642,-41.25231c6.1939,-8.00216 11.24509,-19.45298 26.58637,-16.06812c15.34128,3.38486 18.44509,16.1585 20.49469,26.59434z" fill="#a100fe" stroke-width="2"/><path d="M335.81481,136.55168c2.00217,10.9176 2.22669,33.66895 -12.5915,30.3995c-14.81819,-3.26944 -39.24163,-32.12773 -32.88324,-40.57131c6.04991,-8.03393 6.19693,2.35244 21.01512,5.62188c14.81819,3.26944 22.55153,-5.8547 24.45963,4.54991z" fill="#99008e" stroke-width="0"/></g><g data-paper-data="{&quot;index&quot;:null}" stroke="#000000"><path d="M379.36093,123.26289c16.1794,3.56978 24.30728,29.0715 18.15411,56.9597c-6.15317,27.88819 -22.69992,39.32218 -38.87933,35.75241c-16.1794,-3.56978 -25.86467,-20.79152 -19.71149,-48.67971c6.15318,-27.8882 24.25731,-47.60217 40.43671,-44.03238z" fill="#f0f0f0" stroke-width="2"/><path d="M397.07285,179.27479c-6.15317,27.88819 -22.69992,39.32218 -38.87933,35.75241c-16.1794,-3.56978 28.72605,-28.28373 30.60744,-56.78063c2.71995,-41.1981 14.42506,-6.85997 8.27188,21.02822z" fill="#9a99ff" stroke-width="0"/></g><path d="M365.28854,157.25892c5.64821,1.2462 7.46347,14.78165 4.05449,30.23226c-3.40898,15.45061 -10.75129,26.96555 -16.3995,25.71934c-5.64821,-1.2462 -7.46347,-14.78165 -4.05449,-30.23226c3.40898,-15.45061 10.75129,-26.96555 16.3995,-25.71934z" data-paper-data="{&quot;index&quot;:null}" fill="#000000" stroke="none" stroke-width="0"/><g data-paper-data="{&quot;index&quot;:null}" stroke="#000000"><path d="M350.28701,139.04525c6.25061,-8.6045 14.44128,-18.88616 29.78256,-15.50131c15.34128,3.38486 15.10512,15.89805 17.35674,25.76361c2.36642,10.36859 -31.43869,26.62257 -46.77997,23.23772c-15.34128,-3.38486 -6.91813,-24.47128 -0.35934,-33.50001z" fill="#a100fe" stroke-width="2"/><path d="M351.2659,138.89847c6.1091,-8.63572 9.28512,2.89543 24.1033,6.16487c14.81819,3.26944 19.32203,-6.09078 21.42966,3.74301c2.21509,10.33521 -31.0547,25.9781 -45.87288,22.70865c-14.81819,-3.26944 -6.0704,-23.55503 0.3399,-32.61652z" fill="#99008e" stroke-width="0"/></g><path d="M269.07102,182.31347c-2.75403,4.76753 -7.01107,7.46294 -9.50834,6.02035c-2.49728,-1.44259 -2.28914,-6.47689 0.46489,-11.24442c2.75403,-4.76753 7.01107,-7.46294 9.50834,-6.02035c2.49728,1.44259 2.28914,6.47689 -0.46489,11.24442z" fill="#000000" stroke="none" stroke-width="0"/></g><g><g><path d="M321.00453,234.26848c-10.65219,10.68427 -22.24657,11.56764 -33.30448,1.52612c-8.64852,-7.85356 -8.97457,-25.96205 1.67764,-36.64633c10.65222,-10.68434 25.29437,-11.56266 35.87221,-1.01664c1.65418,1.64919 2.69133,3.66216 3.65579,5.49182c5.20271,9.87028 1.08525,21.63155 -7.90114,30.64503z" fill="#485e84" stroke="#000000" stroke-width="2" stroke-linecap="butt"/><path d="M283.94188,211.79886c0,0 3.75266,4.36446 5.73509,4.07579c19.01596,-2.76895 29.64021,-11.95282 32.92233,-15.25849c0.74571,-0.75104 0.46971,-1.83947 0.46971,-1.83947c0,0 1.64538,1.32696 3.12164,3.63666c1.57087,2.45771 2.98412,5.99418 3.18392,9.06096c0.22819,3.50314 -1.39157,11.68145 -1.39157,11.68145l-12.29608,16.96069c0,0 -13.40004,1.18068 -15.49214,0.61497c-2.04956,-0.55419 -4.31588,-1.79782 -6.77873,-3.02309c-3.8239,-1.90245 -6.93287,-5.2102 -8.23548,-7.77885c-1.6624,-3.27821 -2.31988,-7.89553 -2.1964,-11.7096c0.11491,-3.54971 0.95782,-6.42092 0.95782,-6.42092z" fill="#343545" stroke="none" stroke-width="0" stroke-linecap="butt"/><path d="M302.83259,227.30075c0,0 -7.57022,-4.90816 -9.29501,-9.76667c-2.18344,-6.15037 -2.94163,-19.09361 -2.94163,-19.09361" fill="none" stroke="#000000" stroke-width="1" stroke-linecap="round"/><path d="M319.21187,194.4186c0,0 3.88563,6.00264 5.29253,10.06373c1.42038,4.09984 1.16083,13.7996 1.16083,13.7996" fill="none" stroke="#000000" stroke-width="1" stroke-linecap="round"/><path d="M297.58476,236.93487c0,0 -7.84599,-4.92208 -9.47457,-10.26965c-2.49899,-8.20568 -3.66224,-19.74442 -3.66224,-19.74442" fill="none" stroke="#000000" stroke-width="1" stroke-linecap="round"/><path d="M284.22516,229.51066c0,0 2.21147,-17.16348 17.59618,-25.33995c16.852,-8.95629 28.83355,3.45067 28.83355,3.45067" fill="none" stroke="#000000" stroke-width="1" stroke-linecap="round"/><path d="M290.01232,237.07463c0,0 5.14799,-17.03997 18.70823,-24.28424c11.1342,-5.94819 22.20414,3.5584 22.20414,3.5584" fill="none" stroke="#000000" stroke-width="1" stroke-linecap="round"/><path d="M304.40608,195.79698c-1.1695,0.28188 -2.29843,-0.24018 -2.52156,-1.16598c-0.2232,-0.92583 0.54512,-1.13478 1.71461,-1.41666c1.1695,-0.28188 2.29727,-0.52993 2.52042,0.3959c0.2232,0.92583 -0.54399,1.9049 -1.71347,2.18673z" fill="#8fbbbe" stroke="none" stroke-width="0" stroke-linecap="butt"/><path d="M311.64022,195.0717c-0.42469,0.42594 -1.28688,0.25486 -1.92581,-0.38214c-0.63894,-0.63701 -0.81185,-0.9853 -0.3872,-1.41126c0.42469,-0.42594 1.41505,-0.38342 2.05395,0.25361c0.63894,0.63701 0.68369,1.11387 0.25902,1.5398z" fill="#8fbbbe" stroke="none" stroke-width="0" stroke-linecap="butt"/><path d="M297.69569,197.48066c-0.7015,0.56742 -1.57673,0.64832 -1.95501,0.18069c-0.37829,-0.46757 0.26932,-0.92224 0.97078,-1.48967c0.7015,-0.56742 1.1911,-1.03279 1.56939,-0.56518c0.37829,0.46757 0.1163,1.30674 -0.58516,1.87415z" fill="#8fbbbe" stroke="none" stroke-width="0" stroke-linecap="butt"/><path d="M282.92164,216.16427c0,0 4.48116,-9.19777 10.08329,-14.3003c3.17614,-2.89287 6.97411,-4.34608 9.86587,-5.41557c2.55733,-0.94583 9.12428,-0.62813 14.12538,0.13812c3.68205,0.56413 6.45681,1.54781 6.45681,1.54781" fill="none" stroke="#000000" stroke-width="0.5" stroke-linecap="round"/><path d="M305.34398,190.33224c0,0 7.19459,7.74699 9.17012,12.77833c1.66445,4.23902 2.16669,15.18488 2.16669,15.18488" fill="none" stroke="#000000" stroke-width="1" stroke-linecap="round"/><path d="M311.55109,221.12684c0,0 -6.49814,-7.15559 -8.59675,-11.16141c-3.68474,-7.03347 -3.8962,-17.44173 -3.8962,-17.44173" fill="none" stroke="#000000" stroke-width="1" stroke-linecap="round"/></g><g stroke="#000000" stroke-linecap="butt"><path d="M292.17921,242.01017c29.58571,-15.36244 38.24467,-11.11064 41.97341,-3.92964c3.72875,7.18101 -17.23248,25.45607 -46.8182,40.8185c-29.58572,15.36242 -12.18203,-54.72753 -15.91077,-61.90853c0.71344,-7.05827 6.61013,-4.26067 10.5336,2.54833c4.83855,8.3971 7.69309,23.78445 10.22197,22.47134z" fill="#0d69be" stroke-width="2"/><path d="M308.83563,219.74103c12.69894,-6.59395 28.47648,-1.37994 35.24011,11.64581c6.76365,13.02575 1.95213,28.93065 -10.7468,35.52461c-12.69894,6.59395 -28.47647,1.37993 -35.24012,-11.64581c-6.76365,-13.02575 -1.95213,-28.93065 10.74681,-35.5246z" fill="#faddbf" stroke-width="2"/><path d="M316.79096,260.38535c12.69894,-6.59395 19.5781,-41.97972 26.34175,-28.95397c6.76365,13.02575 1.95213,28.93065 -10.74681,35.5246c-12.69894,6.59395 -28.29389,0.02332 -15.59493,-6.57063z" fill="#ef8b89" stroke-width="0"/></g></g></g></g></svg>