<svg version="1.1" xmlns="http://www.w3.org/2000/svg" xmlns:xlink="http://www.w3.org/1999/xlink" width="275.24753" height="299.55195" viewBox="0,0,275.24753,299.55195"><defs><radialGradient cx="253.48453" cy="276.15961" r="15.45526" gradientUnits="userSpaceOnUse" id="color-1"><stop offset="0" stop-color="#1e202b"/><stop offset="1" stop-color="#1e202b" stop-opacity="0"/></radialGradient></defs><g transform="translate(-102.37623,-30.22402)"><g data-paper-data="{&quot;isPaintingLayer&quot;:true}" fill-rule="nonzero" stroke-linejoin="miter" stroke-miterlimit="10" stroke-dasharray="" stroke-dashoffset="0" style="mix-blend-mode: normal"><path d="M102.37624,329.77598v-299.55195h275.24753v299.55195z" fill="none" stroke="none" stroke-width="0" stroke-linecap="butt"/><g stroke-linecap="butt"><g><path d="M221.14376,160.55913c0,0 -2.7588,-17.89984 -2.27434,-26.70309c0.53084,-9.64578 5.69891,-29.69151 5.69891,-29.69151l29.11177,6.77823l1.65009,48.57362z" fill="#d396fc" stroke="#000000" stroke-width="2"/><path d="M231.48081,180.44525c0,0 5.83037,-10.19305 5.57169,-17.04709c-0.29874,-7.91547 -7.23602,-27.12201 -7.23602,-27.12201c0,0 3.59371,2.86272 7.60294,3.73541c4.19815,0.91383 17.01998,1.03035 17.01998,1.03035c0,0 11.5027,2.9828 12.0569,4.34188c2.04212,5.00796 3.35035,33.44193 3.35035,33.44193z" fill="#ffc6ef" stroke="none" stroke-width="0"/></g><g><path d="M246.28179,175.97024c0,0 2.14668,-3.74938 2.00362,-4.40373c-0.02785,-0.12737 -1.01113,-0.65063 -2.11221,-0.68139c-1.45595,-0.04066 -3.13363,0.40593 -3.23604,0.0847c-0.28607,-0.89736 3.99162,-5.54701 3.94028,-5.93043c-0.10038,-0.74964 -4.12748,-2.95344 -4.33643,-3.71997c-0.1586,-0.58179 3.65282,-2.31627 3.52416,-2.86462c-0.21828,-0.93034 -2.17898,-2.39402 -2.87176,-3.11713c-0.37631,-0.39279 -2.79602,-3.50768 -2.19478,-4.01046c0.22432,-0.18759 1.08883,0.07163 1.95653,0.09573c1.57325,0.0437 3.64299,-0.01923 5.37026,-0.19835c6.34529,-0.65803 13.86156,-1.54857 13.86156,-1.54857l0.83929,19.8823z" fill="#4a5c6f" stroke="#000000" stroke-width="1.5"/><path d="M254.27801,161.77592c0.16365,-0.47019 -6.68383,0.55712 -6.45056,0.09413c0.65859,-1.3071 5.11875,-4.20377 5.11852,-4.7038c-0.00037,-0.81428 -6.95021,-2.89587 -6.91284,-3.35749c0.0258,-0.31871 1.94248,-1.7312 1.94248,-1.7312l13.43738,-1.7683c0,0 13.42357,12.65361 13.62676,15.84527c0.19232,3.02112 -12.43843,2.82122 -12.43843,2.82122c0,0 -3.2808,1.31828 -5.23959,1.31029c-2.26017,-0.00922 -4.5257,-1.0114 -6.21868,-1.30327c-0.5553,-0.09573 -1.07317,0.08005 -1.31809,-0.08897c-0.73264,-0.50562 4.00368,-5.82667 4.45306,-7.11789z" fill="#696f96" stroke="none" stroke-width="0"/></g></g><path d="M256.6023,155.41306c-0.42572,-0.17892 4.75,-5.25 4.75,-5.25l4.375,-0.375l3.25,13.625c0,0 -6.71436,-0.74031 -7.50049,-1.24925c-0.22516,-0.14577 1.71398,-1.81365 2.79107,-2.97176c0.47025,-0.50563 0.77618,-0.14025 0.66594,-0.21398c-0.8324,-0.55671 -2.32122,-1.41015 -2.88595,-1.87371c-0.84627,-0.69466 -1.62778,-2.14088 -2.76172,-2.58992c-1.05874,-0.41926 -1.76136,1.28631 -2.68385,0.89861z" fill="#1b1f25" stroke="#000000" stroke-width="1.5" stroke-linecap="butt"/><g stroke-linecap="butt"><path d="M240.41448,215.28905l23.4131,-6.85988c0,0 0.08844,5.05507 -1.15982,11.62714c-1.10049,5.79408 -3.49505,12.56387 -4.29967,20.96273c-0.39255,4.09755 2.70003,9.47158 2.23178,13.75933c-0.33329,3.05195 -0.73183,3.36561 -1.6827,6.62613c-0.49659,1.7028 -0.76258,3.9028 -1.24094,6.17673c-0.65961,3.1355 -1.49868,6.39075 -1.87561,8.48872c-0.58961,3.28173 0.28942,5.94582 0.50015,8.49137c0.48381,5.84456 15.02983,15.78632 17.07862,17.28939c0.2036,0.14936 0.41082,0.80388 0.30189,0.81816c-1.59388,0.20893 -6.3046,-0.67364 -8.82483,-0.76606c-4.50889,-0.16535 -8.58297,-1.73859 -12.19188,-2.17695c-4.96156,-0.60267 -9.06552,-1.16763 -12.40752,-2.04078c-4.00344,-1.04596 -6.89126,-2.88209 -8.6799,-3.47034c-0.32579,-0.10715 -0.4973,-5.11752 -0.57725,-6.68587c-0.0809,-1.58728 -0.99388,-1.08893 -0.99388,-1.08893c0,0 -0.96229,-5.35412 -0.38425,-9.30554c0.40522,-2.77007 1.06539,-8.38148 2.63206,-15.11433c0.74341,-3.19481 2.12534,-6.82318 3.0541,-10.3121c0.90859,-3.41318 1.61463,-6.70833 2.1969,-9.99612c2.58008,-14.56848 2.90962,-26.4228 2.90962,-26.4228z" fill="#1b1f25" stroke="#000000" stroke-width="1.5"/><path d="M238.0954,277.58781c-0.82791,-8.33261 5.39088,-15.72697 13.89006,-16.51575c2.27591,-0.21122 4.35452,-1.22542 6.38462,-0.53649c0.11114,0.03772 -0.08997,0.87874 -0.36057,2.05167c-0.18739,0.81227 -0.36494,1.77969 -0.67304,2.76623c-0.36944,1.18291 -0.54144,2.93542 -0.97629,4.5795c-0.21778,0.82337 -0.47746,2.23884 -0.65637,3.48456c-0.02914,0.20288 -0.08563,0.5118 -0.15225,0.84672c-0.12872,0.64709 -0.23685,1.38576 -0.3169,1.64947c-1.10889,3.65333 1.06817,8.49613 0.17616,9.69435c-0.09813,0.13181 0.78332,2.46724 1.68952,3.43761c0.66087,0.70765 2.18283,1.78317 2.11172,1.80471c-0.99631,0.30178 -3.14878,0.29652 -4.22845,0.39672c-8.49918,0.78878 -16.06029,-5.32671 -16.8882,-13.65932z" fill="url(#color-1)" stroke="none" stroke-width="0"/><path d="M261.19041,292.49665c0,0 -1.62852,-1.07777 -2.97174,-2.36012c-0.8706,-0.83114 -1.50883,-1.75722 -2.0731,-2.56382c-0.16268,-0.23256 -0.91066,0.11083 -1.03672,-0.26772c-0.36677,-1.10131 -0.4648,-2.89962 -0.43326,-4.80237c0.03269,-1.97246 0.159,-4.0529 0.27174,-5.5856c0.10224,-1.38997 0.39373,-2.84064 0.39373,-2.84064l2.6215,-6.48225c0,0 -0.61165,8.35055 -0.69115,9.4975c-0.05312,0.76645 0.00364,1.83195 -0.08348,2.72779c-0.10776,1.10799 -0.3349,2.07757 -0.06156,3.34428c0.40881,1.89459 2.1283,3.49222 2.63457,4.37888c1.07221,1.87778 2.03879,3.50196 2.03879,3.50196z" fill="#000000" stroke="none" stroke-width="0"/><path d="M242.23571,287.18485c0.28771,-0.32436 0.58615,-0.79517 1.03654,-1.22807c1.29739,-1.24703 3.1338,-2.76333 4.29212,-3.85638c0.70061,-0.66112 1.25303,-1.22474 1.28689,-1.34312c0.15083,-0.52744 -0.11873,-1.60457 -0.43836,-2.06214c-0.33542,-0.48018 -0.91895,-1.19024 -1.69001,-1.86551c-0.64616,-0.56588 -1.44457,-1.08285 -2.13999,-1.65626c-1.07482,-0.88623 -2.0687,-1.71093 -2.54964,-2.25615c-0.22371,-0.25362 -0.35391,-0.59388 -0.31826,-0.69738c0.01494,-0.04336 0.16694,-0.33959 0.57656,-0.58209c0.32167,-0.19043 0.9153,-0.28557 1.41323,-0.56006c0.63793,-0.35167 1.39464,-0.77457 2.20394,-1.27445c0.80275,-0.49584 1.65301,-1.10959 2.50436,-1.66391c1.12777,-0.73429 2.24433,-1.49602 3.20703,-2.22194c1.54424,-1.16443 2.73745,-2.42909 2.87464,-3.03506c0.275,-1.2146 0.48531,-2.40162 0.60575,-3.5428c0.0484,-0.45862 -0.31121,-1.77989 -0.28843,-2.21712c0.00537,-0.10317 -4.14874,0.39702 -4.14252,0.30987c0.04875,-0.68284 2.76547,-2.34608 2.78373,-2.97122c0.00677,-0.23163 -0.36341,-0.23659 -0.74888,-0.30807c-0.666,-0.12348 -1.51491,-0.28228 -1.53295,-0.97614c-0.01681,-0.6466 1.43871,-0.56972 1.49019,-0.95385c0.0149,-0.1112 -1.4543,-1.51074 -3.39679,-2.92732c-1.54235,-1.12477 -3.46248,-2.19688 -4.60962,-3.09462c-0.82092,-0.64244 -1.37614,-1.31041 -1.35521,-1.36878c0.02079,-0.05799 0.51844,-0.42898 1.26977,-1.21788c0.48182,-0.5059 1.74604,-0.58238 2.3971,-1.26404c1.35262,-1.41622 2.84127,-3.19408 4.11078,-4.77687c0.69419,-0.86551 1.4835,-1.61181 1.98859,-2.26965c0.40018,-0.5212 0.56215,-1.00952 0.7783,-1.29797c0.19548,-0.26086 0.22114,-0.4918 0.47844,-0.31047c0.58988,0.41572 1.894,1.35693 2.42658,1.7053c0.20043,0.1311 1.06124,0.42429 1.26286,0.52808c0.32043,0.16496 -0.18157,0.24995 -0.40479,0.50045c-0.36104,0.40515 -0.97531,1.09556 -1.71763,1.93407c-0.38527,0.4352 -0.79009,1.06046 -1.22681,1.55629c-1.16471,1.32231 -2.48283,2.46309 -3.56008,3.68425c-0.2815,0.3191 -0.6591,0.53422 -0.93722,0.79672c-0.42234,0.39859 -0.72509,0.81767 -0.98024,1.17524c-0.40765,0.57128 -0.7411,0.74507 -0.72419,0.80039c0.06381,0.20883 0.5728,0.69811 0.94309,0.78949c1.2057,0.2975 3.77975,0.20546 5.98918,0.60286c1.48964,0.26794 2.906,1.11791 3.4465,1.85685c0.05547,0.07585 -0.315,0.2447 -0.85343,0.67214c-0.88702,0.70418 -2.18033,1.83083 -3.03534,2.56524c-0.49514,0.42531 -0.89917,0.6739 -0.84728,0.74988c0.16603,0.24316 0.6887,0.1521 0.86147,0.39823c0.24998,0.35612 -0.87267,0.84364 -0.61191,1.20563c0.05926,0.08226 1.06182,0.49094 2.14012,0.75261c1.34564,0.32655 2.81012,0.43276 2.81012,0.43276c0,0 0.10857,1.15701 -0.87317,3.25779c-0.46727,0.9999 -0.82036,2.23869 -2.22318,3.62151c-0.53727,0.52961 -1.25871,1.02969 -1.96393,1.61751c-1.7689,1.47442 -3.88056,3.1412 -5.99374,4.56966c-1.26043,0.85203 -2.65009,1.58238 -3.59285,2.23666c-0.76847,0.53331 -1.21182,1.03887 -1.27715,1.33179c-0.11454,0.51355 1.57046,1.39312 3.71458,2.19882c1.72405,0.64786 3.76938,1.21891 5.22895,1.73433c1.24588,0.43996 2.2896,0.45223 2.27057,0.78602c-0.02249,0.39434 -3.39858,1.47285 -3.07687,2.15735c0.05594,0.11903 0.35309,0.15174 0.64646,0.2684c0.73296,0.29146 1.87392,0.59388 1.7589,0.99905c-0.04335,0.15268 -0.48104,0.36656 -1.00591,0.83694c-0.77559,0.69504 -2.12927,1.6433 -3.23837,2.59649c-0.98353,0.84527 -1.72407,1.7059 -2.45319,2.22626c-0.28233,0.20149 -0.80611,0.28063 -1.07939,0.49607c-0.20132,0.15872 0.20174,0.42951 0.64959,0.81493c0.86419,0.74374 2.70675,1.86273 4.83922,3.04727c0.7805,0.43356 1.57748,0.65065 2.4019,1.08659c0.60584,0.32036 1.23681,0.8625 1.83475,1.16993c1.98585,1.02099 3.85421,1.93739 5.11435,2.52848c0.96953,0.45476 2.02087,0.61138 2.02087,0.61138c0,0 -2.01915,0.01198 -4.99869,-0.64415c-1.20663,-0.26571 -2.62855,-0.57228 -4.048,-1.14019c-3.23353,-1.32919 -6.62895,-3.20733 -9.04584,-4.6764c-1.33444,-0.81111 -2.30144,-1.57972 -2.84731,-1.98018c-0.19754,-0.14492 -0.66069,-0.24792 -0.53032,-0.50263c0.05682,-0.11102 0.59259,-0.34625 0.69946,-0.46673z" fill="#2b263c" stroke="none" stroke-width="0"/><path d="M195.83446,285.93726c2.54121,-5.77969 6.03117,-13.51298 8.84111,-21.73387c0.63721,-1.86425 0.99489,-3.84394 1.57755,-5.73629c0.43266,-1.40515 0.634,-2.30085 0.98631,-3.70914c0.25298,-1.01126 0.19754,-1.36869 0.42134,-2.37297c0.19205,-0.86178 0.85073,-2.88766 1.02829,-3.73939c0.75672,-3.62993 1.41123,-7.14792 2.21385,-10.37824c2.40268,-9.67004 3.16648,-17.50453 3.16648,-17.50453l26.20352,-8.02887c0,0 -1.49951,15.4224 -5.08665,29.62134c-0.87281,3.4548 -2.74908,7.71914 -4.13136,10.8284c-0.69371,1.56044 -1.29808,2.92798 -1.85061,4.06123c-0.33128,0.67945 -0.76086,1.1832 -0.85301,1.84949c-0.38756,2.80213 0.5225,6.22332 0.89899,10.36365c0.64199,7.06017 1.13195,14.78796 1.13195,14.78796c0,0 -5.54853,9.59804 -5.67092,9.61232c-0.52921,0.06173 -2.64395,-5.67132 -3.39422,-7.75463c-0.16639,-0.46202 -0.45621,-0.58023 -0.75679,-0.2906c-0.82032,0.79043 -2.46029,2.51435 -3.28418,4.37982c-0.58943,1.33461 -0.90373,4.19094 -1.50368,4.55661c-0.65835,0.40127 -2.26599,1.60373 -2.9801,2.02978c-2.83663,1.69237 -6.94175,2.90901 -10.32704,4.60524c-4.49016,2.24985 -26.14658,5.36632 -27.18091,5.52375c-1.02827,0.15651 4.2838,-4.1105 7.96961,-8.00175c0,0 11.85862,-11.32757 12.58046,-12.96933z" fill="#1b1f25" stroke="#000000" stroke-width="1.5"/><path d="M234.15171,243.65021c0,0 -4.34824,1.21609 -4.53013,0.02478c-0.60176,-3.94133 0.28596,-27.82297 0.28596,-27.82297l19.60472,-1.42431c0,0 -8.72337,27.51962 -10.24304,31.16465c-0.35685,0.85594 -1.70466,-0.52815 -1.70466,-0.52815c0,0 0.63158,-8.09941 -0.13748,-8.04354c-1.01595,0.07381 -1.56033,1.83586 -2.06978,3.21019c-0.60593,1.6346 -1.20561,3.41935 -1.20561,3.41935z" fill="#1b1f25" stroke="none" stroke-width="0"/><path d="M216.49371,295.39779c0,0 -5.98889,3.1714 -6.28537,3.10672c-0.12809,-0.02794 1.01102,-1.18779 2.20628,-2.0555c1.17607,-0.85377 2.40758,-1.41587 2.40758,-1.41587c0,0 0.39946,-2.36783 1.36364,-4.45856c0.2419,-0.52454 0.37272,-1.14634 0.71297,-1.57495c0.77217,-0.97272 2.18468,-3.29004 3.871,-4.61244c0.58393,-0.4579 1.03133,0.56056 1.65288,2.18322c0.99938,2.60899 2.17204,6.44825 2.17204,6.44825c0,0 -0.12269,1.41433 -1.18862,-0.18805c-1.31967,-1.98381 -1.88189,-6.00624 -2.79988,-5.89653c-0.86848,0.10379 -0.62625,2.06152 -1.4118,4.07516c-0.88312,2.26374 -2.70074,4.38857 -2.70074,4.38857z" fill="#000000" stroke="none" stroke-width="0"/><path d="M216.94456,279.86551c0,0 -0.50345,-0.85345 -1.62202,-1.95875c-0.50925,-0.50321 -1.12166,-1.10388 -1.69631,-1.59897c-0.75901,-0.6539 -1.459,-1.1741 -1.83615,-1.54125c-0.19973,-0.19443 -0.24644,-0.396 -0.23354,-0.42548c0.16529,-0.37808 2.77011,-1.54675 4.2323,-2.40607c0.55333,-0.3252 1.01523,-0.55491 1.01389,-0.75548c-0.00181,-0.2715 -2.93878,-4.35391 -4.03395,-5.82305c-0.2746,-0.36836 -0.08002,-0.28576 0.20117,-0.42818c1.16079,-0.58794 4.36949,-2.24468 6.75223,-3.7751c1.43696,-0.92295 2.63793,-1.7543 2.78473,-2.36505c0.01262,-0.05248 -0.73003,-0.45568 -1.57173,-0.85915c-0.80947,-0.38802 -1.88702,-0.92384 -2.84842,-1.47225c-0.87787,-0.50077 -1.58055,-1.08938 -2.21171,-1.48225c-0.63637,-0.39611 -1.21681,-0.43382 -1.15445,-0.63565c0.18591,-0.60174 1.84353,-1.63322 3.26174,-2.41227c0.53468,-0.2937 2.02529,-1.15737 2.0231,-1.36627c-0.00154,-0.14704 -0.74609,-0.43936 -1.77069,-0.87024c-0.2897,-0.12183 -0.66241,-0.18482 -0.97292,-0.34424c-2.2758,-1.16848 -5.05261,-2.95854 -5.00328,-3.57645c0.05739,-0.71866 0.45181,-1.44565 0.84751,-2.16686c0.58305,-1.06267 1.25677,-2.12232 1.57744,-3.20205c1.28654,-4.33191 1.86852,-8.22853 1.86852,-8.22853c0,0 1.60145,6.82562 2.39903,7.40246c0.71689,0.51849 1.60479,-0.41437 2.61949,-0.62435c1.20277,-0.24891 2.46803,-0.33641 3.20148,-0.48651c0.37916,-0.0776 0.60946,-0.22165 0.62972,-0.30862c0.16715,-0.7175 0.05088,-0.99001 -0.24405,-1.57161c-0.35456,-0.69921 -0.91021,-1.42337 -1.26434,-1.85418c-0.19922,-0.24235 -0.34703,-0.31438 0.00474,-0.46782c0.69438,-0.30288 2.22695,-0.90593 3.86158,-1.66879c1.51517,-0.70711 3.22361,-1.65917 5.07782,-2.57868c1.79283,-0.88906 3.72743,-1.74381 5.44,-2.54086c2.06331,-0.96028 3.95636,-1.53076 5.24831,-2.12125c0.56158,-0.25667 0.99468,-0.62723 1.30368,-0.85153c0.29894,-0.217 -2.33919,-1.86682 -3.42614,-2.52982c-0.27798,-0.16956 -0.73922,-0.37377 -0.44708,-0.5072c1.03553,-0.47297 4.0039,-1.59683 5.41929,-2.21698c1.37678,-0.60324 4.02654,-1.75826 5.16708,-2.24418c0.36729,-0.15648 0.31716,-0.01473 0.07756,0.24608c-0.55396,0.603 -1.66934,1.77996 -2.9809,2.96147c-1.39773,1.25914 -3.3453,2.62039 -3.33297,2.7817c0.03116,0.40792 6.34722,-0.67036 6.42333,-0.09743c0.00058,0.00432 -0.42595,0.66222 -1.65885,1.43119c-1.0583,0.66007 -2.54616,1.3617 -4.20248,2.27552c-2.26145,1.24769 -4.85282,2.77362 -7.2398,4.04962c-5.64497,3.01758 -10.57934,4.90054 -10.55146,5.20648c0.0361,0.39615 2.56698,1.8435 2.74937,2.37764c0.08313,0.24346 -1.19209,0.76875 -2.23646,1.44365c-2.97819,1.9246 -8.42771,5.0458 -8.99423,6.16158c-0.09072,0.17867 1.38653,0.23815 3.24329,0.3537c3.01821,0.18782 7.0241,0.41233 6.81549,0.70752c-0.08565,0.12122 -2.49409,1.12584 -5.07395,2.41028c-1.70783,0.85027 -3.53485,1.73055 -4.97383,2.50559c-1.55421,0.83711 -2.65725,1.54015 -2.71154,1.63198c-0.08057,0.13627 1.97292,0.92596 4.18548,1.94307c2.7281,1.25409 5.72753,2.77909 5.62213,2.94938c-0.24839,0.40131 -2.14391,1.89312 -4.32334,3.39996c-3.0682,2.12132 -6.681,4.4057 -6.89556,4.8814c-0.14905,0.33046 6.67592,5.55844 6.46433,5.55497c-0.38386,-0.0063 -1.58881,0.82623 -2.85006,1.42816c-1.02356,0.48849 -2.04865,0.70371 -2.98622,1.16539c-0.99092,0.48795 -1.76771,0.85402 -1.97928,0.87216c-0.16433,0.01408 0.66613,1.07562 1.19834,1.71317c1.07704,1.29024 1.61355,2.5093 1.61355,2.5093z" fill="#2b263c" stroke="none" stroke-width="0"/><path d="M225.92298,284.81228c-0.13785,-2.01728 0.86749,-9.89701 0.86749,-9.89701c0,0 -0.0891,-11.26154 0.39977,-11.67376c0.29974,-0.25275 0.96861,2.36816 1.31911,4.6347c0.29342,1.89736 0.6617,5.38747 0.61162,5.62694c-0.0191,0.09133 0.03668,1.79848 0.14909,2.78292c0.07216,0.63201 0.37598,0.71615 0.47082,0.70926c0.4204,-0.03054 1.24602,-3.50124 1.8489,-6.63116c0.35766,-1.85687 0.75552,-3.81482 0.76139,-4.27009c0.01675,-1.29973 1.12522,8.17156 1.12522,8.17156l0.06844,10.64765c0,0 -7.53193,1.21469 -7.62184,-0.10101z" fill="#1b1f25" stroke="none" stroke-width="0"/><path d="M223.66735,294.32106c0,0 -0.91436,-1.54637 -0.7892,-2.07484c0.06145,-0.25945 1.08352,0.63439 1.20487,0.30926c0.49171,-1.31747 1.43799,-3.10849 2.4733,-4.89593c1.09235,-1.88589 2.85243,-3.65274 3.66801,-4.32427c0.39988,-0.32926 0.93223,-0.35346 1.12213,-0.07819c0.48223,0.69902 0.39319,2.22722 0.34941,3.88397c-0.05249,1.98615 -0.18409,4.09728 -0.30959,5.33776c-0.0631,0.62371 -0.17301,1.08332 -0.17301,1.08332c0,0 -0.60623,0.29137 -0.76946,-1.00514c-0.03947,-0.31352 -0.13442,-0.66319 -0.15195,-1.03283c-0.07704,-1.62444 0.05889,-3.54129 -0.33807,-3.50136c-0.93796,0.09433 -2.98602,3.7475 -4.52443,5.72625c-0.74237,0.95487 -1.762,0.572 -1.762,0.572z" fill="#000000" stroke="none" stroke-width="0"/><path d="M193.78481,289.51259c-0.6338,-0.055 -0.11168,-2.19864 0.77365,-4.02418c0.6032,-1.2438 1.9163,-3.0797 2.51914,-3.0341c0.33808,0.02558 0.43662,0.70515 0.40001,1.48738c-0.03712,0.79317 -0.21539,1.64555 -0.73513,2.57835c-0.58007,1.04108 -1.26975,2.04638 -1.93953,2.57906c-0.42186,0.33551 -1.00322,0.4148 -1.01814,0.4135z" fill="#000000" stroke="none" stroke-width="0"/></g><path d="M231.28421,294.07158c0.07601,-0.44456 0.19472,-1.2437 0.24842,-1.76664c0.0889,-0.86564 0.37297,-5.67703 0.37297,-5.67703l1.98683,2.72613l9.42066,8.06833c0,0 -9.00027,-2.13538 -9.50854,-2.28054c-0.75676,-0.21612 -1.76317,-0.50354 -2.08503,-0.59546c-0.19901,-0.05683 -0.47324,-0.25297 -0.43531,-0.4748z" fill="#1b1f25" stroke="none" stroke-width="0" stroke-linecap="butt"/><g stroke-linecap="butt"><g><path d="M224.57483,214.85911l16.84386,-22.55249l21.48696,-9.43709c0,0 1.5891,15.50288 1.64547,19.80025c0.02444,1.86323 -1.31334,5.51969 -1.31334,5.51969z" fill="#d396fc" stroke="none" stroke-width="0"/><path d="M241.14782,210.63407c0,0 3.3815,-3.68057 4.79839,-5.30003c0.87592,-1.00115 2.57868,-3.13743 3.22843,-3.92676c0.18872,-0.22927 0.08324,0.09699 0.00517,0.38095c-0.16302,0.59301 -0.41305,1.57617 -0.40246,1.99268c0.00516,0.20304 -0.01389,1.07675 0.02739,1.31053c0.01248,0.07074 0.47117,0.09011 0.91823,-0.01004c0.51761,-0.11596 1.11567,-0.68075 1.3773,-0.76744c0.51952,-0.17216 -1.90738,0.60793 -1.729,0.53128c0.58309,-0.25057 1.52944,-0.68384 2.41292,-0.95167c0.32433,-0.09832 0.7194,-0.10284 0.97198,-0.1698c0.87973,-0.23321 3.01139,-0.64389 3.9114,-0.74701c0.35849,-0.04108 0.02893,0.22304 -0.17419,0.51195c-0.26917,0.38285 -0.66795,0.9601 -1.06723,1.57462c-0.67664,1.04139 -1.66381,4.56918 -2.0506,4.75699c-2.35529,1.14361 -12.22772,0.81375 -12.22772,0.81375z" fill="#4a5c6f" stroke="#000000" stroke-width="1"/><path d="M222.23151,219.80922l5.7429,-8.93836c0,0 2.95437,-0.60172 5.62524,-1.04802c1.50864,-0.25209 4.57222,-0.63425 7.71387,-1.23323c2.59486,-0.49473 5.12946,-1.18707 7.88877,-1.6369c0.79108,-0.12896 1.56824,-0.33954 2.33265,-0.45714c3.25302,-0.50047 6.19865,-0.80748 8.22999,-1.06573c1.7642,-0.22428 2.84215,-0.34608 2.84215,-0.34608l-0.70232,6.75963c0,0 -2.62844,0.7184 -6.38166,1.42674c-2.65728,0.50151 -6.01534,0.87431 -8.79636,1.53173c-3.30655,0.78165 -4.20071,1.64591 -7.32902,2.36304c-0.62792,0.14394 -0.87403,0.61416 -1.4659,0.74832c-0.28929,0.06558 -0.93989,-0.20072 -1.21886,-0.13792c-2.06729,0.46546 -3.83542,0.85119 -5.07505,1.10008c-3.23077,0.64869 -9.4064,0.93385 -9.4064,0.93385z" fill="#000000" stroke="none" stroke-width="0"/><path d="M244.77642,198.38902c0,0 4.03761,-2.23026 5.54233,-3.12632c1.14531,-0.68203 3.19369,-1.64997 3.19369,-1.64997c0,0 1.22129,0.68218 1.82822,0.70384c0.62426,0.02227 1.73139,-0.08399 1.73139,-0.08399c0,0 0.14813,1.2515 -0.05392,3.01493c-0.15492,1.3522 -1.04218,3.77623 -1.04218,3.77623z" fill="#ffc6ef" stroke="none" stroke-width="0"/><path d="M238.94069,215.2876c-0.16856,-0.25478 0.10247,-0.47648 0.12868,-1.00998c0.01739,-0.35391 0.13736,-0.76623 0.17236,-1.16754c0.0591,-0.67744 0.03719,-1.33178 0.04426,-1.68094c0.00869,-0.42942 -0.0518,-1.10139 0.35345,-1.18241c0.42125,-0.08422 1.04172,-0.35476 2.34442,-0.60621c1.26006,-0.24322 2.78713,-0.24364 4.17472,-0.47391c0.94255,-0.1564 1.81561,-0.51912 2.52,-0.68471c0.96317,-0.22642 1.60321,-0.23581 1.60321,-0.23581c0,0 -0.48144,1.10782 -0.61159,1.75474c-0.16378,0.81417 -0.29359,2.74491 -0.29359,2.74491c0,0 -1.1333,0.31999 -2.36501,0.75103c-0.92336,0.32312 -1.86193,0.74486 -2.63994,0.94225c-0.72742,0.18455 -1.88103,0.23184 -2.91655,0.40923c-0.3315,0.05679 -0.74121,0.0684 -1.03088,0.15623c-0.30045,0.09111 -0.47868,0.25796 -0.70086,0.28633c-0.37236,0.04755 -0.61414,0.25157 -0.7827,-0.00321z" fill="#fead41" stroke="none" stroke-width="0"/></g><g><path d="M262.16933,214.49848c0.2419,-2.22236 0.05045,-5.01123 0.16827,-7.57904c0.13508,-2.94398 -0.08637,-5.59674 -0.35159,-6.81829c-0.15804,-0.72793 -0.26076,-1.66391 -0.53268,-2.66192c-0.48717,-1.78807 -1.2528,-3.7888 -1.97117,-5.24515c-2.1004,-4.25811 -4.67308,-6.84471 -4.67308,-6.84471c0,0 6.75988,-3.06784 10.74347,0.77318c0.65052,0.62724 1.70855,6.31933 1.65085,7.47475c-0.09052,1.81262 -0.29138,3.5542 -0.43164,4.93019c-0.40828,4.00553 -1.54688,11.69225 -3.06177,16.35227c-0.7531,2.31663 -1.51037,4.45311 -1.51037,4.45311c0,0 -0.20291,-3.24846 -0.03028,-4.83439z" fill="#2b263c" stroke="#000000" stroke-width="1.5"/><path d="M262.63361,199.83764c0,0 -0.95883,-4.9668 -2.21178,-7.25373c-0.6265,-1.14353 -1.70946,-3.36723 -2.80339,-4.98364c-0.56439,-0.83395 -1.37685,-1.60414 -1.90703,-2.29602c-1.3186,-1.72076 -2.13315,-2.89365 -2.13315,-2.89365l10.87311,-1.03607c0,0 1.24261,5.95896 1.87616,9.57714c0.25217,1.44007 0.18731,2.52061 0.18282,2.69307c-0.05323,2.04146 -0.25006,4.32661 -0.25006,4.32661c0,0 -1.23204,0.61991 -1.8,0.96258c-0.51368,0.30993 -1.82667,0.90374 -1.82667,0.90374z" fill="#1b1f25" stroke="none" stroke-width="0"/></g><g><path d="M209.60645,236.33171c0.2751,-1.5522 0.77864,-4.78069 1.32088,-7.15595c0.9514,-4.16765 1.16415,-8.33218 2.11253,-12.75874c0.40604,-1.89521 0.40993,-4.85659 0.40362,-6.52744c-0.01489,-3.94693 -0.30489,-8.24226 -0.30489,-8.24226l31.34909,-9.16668c0,0 -1.57932,2.12932 -3.9077,5.54903c-0.30842,0.45298 -2.97438,4.00018 -3.48723,4.45673c-0.33816,0.30103 1.45937,-2.49961 1.22429,-2.17146c-0.32356,0.45164 1.86774,-1.81526 1.75083,-1.31592c-0.09011,0.38487 -2.46902,3.53223 -2.75435,3.91469c-1.06522,1.42782 -2.32708,3.31399 -3.53812,4.89122c-2.01895,2.62944 -4.1784,5.41582 -6.27126,8.18998c-1.80191,2.3885 -3.7267,4.77676 -5.46961,7.04802c-1.65797,2.16056 -2.39985,4.28239 -3.99504,6.12866c-1.69497,1.96175 -5.6509,5.77084 -6.38403,6.61056c-0.01597,0.01829 -0.82739,-0.16435 -1.11781,0.31051c-0.47155,0.77103 -0.50459,2.3404 -0.49881,2.3477c0.06342,0.0801 2.56927,-3.3986 2.38378,-2.91684c-0.04377,0.11367 -2.30443,4.55133 -2.32761,4.26047c0,0 -0.69201,-2.30429 -0.48854,-3.45229z" fill="#2b263c" stroke="#000000" stroke-width="1.5"/><path d="M213.75342,216.02387c0,0 0.25509,-4.55589 0.43362,-6.9035c0.09186,-1.2081 -0.2186,-3.05395 -0.33956,-4.87299c-0.18979,-2.85422 -0.26315,-5.62453 -0.26315,-5.62453l29.64116,-4.99711c0,0 -1.37162,1.54828 -3.17431,3.77166c-0.24773,0.30554 -0.40441,1.13799 -0.84791,1.51573c-0.59842,0.50967 -1.48402,0.93377 -1.79675,1.36913c-0.34279,0.47721 -0.36935,1.86161 -0.64002,2.23847c-2.36364,3.29098 -7.12522,9.56928 -7.12522,9.56928c0,0 -0.8732,0.97428 -2.44734,2.16844c-0.67019,0.50842 -1.43516,0.83667 -2.2192,1.42215c-0.7985,0.59627 -1.61726,1.45045 -2.42666,2.03952c-2.53015,1.84141 -4.84929,3.4328 -5.30519,3.43107c-0.47512,-0.00179 -3.48946,-5.12731 -3.48946,-5.12731z" fill="#1b1f25" stroke="none" stroke-width="0"/></g></g><g stroke-linecap="butt"><path d="M182.92669,148.05207c0,-0.95154 11.70976,-6.85184 16.04952,-8.90556c3.09055,-1.46256 8.15165,-3.76747 12.45702,-5.40804c3.73879,-1.42467 6.90767,-2.09898 7.72123,-2.09898c8.816,0 11.20859,23.6181 11.20859,23.6181l9.37695,31.95942c0,0 -7.23103,4.7203 -16.34949,8.15321c-3.898,1.46751 -12.52711,9.43126 -14.53335,8.19351c-2.03835,-1.25755 -6.91953,-8.12074 -10.24228,-14.71875c-2.85644,-5.67204 -5.62246,-13.04175 -7.62135,-19.65549c-1.05593,-3.49377 -1.46489,-6.63229 -2.50507,-9.51317c-1.29054,-3.57428 -2.39208,-4.49904 -3.50961,-6.44927c-0.97099,-1.69451 -2.05215,-4.60463 -2.05215,-5.17498z" fill="#1b1f25" stroke="#000000" stroke-width="1.5"/><path d="M208.74648,172.27064c0,0 -1.54852,-2.21575 -2.16422,-5.12726c-0.61667,-2.91614 -1.05635,-6.69008 -1.86183,-10.23383c-0.97498,-4.28948 -2.39283,-8.2417 -4.10595,-9.92718c-3.39008,-3.3354 -16.68703,0.86956 -16.68703,0.86956c0,0 15.49981,-8.40518 22.20322,-11.24124c4.76362,-2.01538 14.62501,-4.57088 14.62501,-4.57088l11.20859,45.63498c0,0 -8.29154,-4.22217 -14.60649,-5.62549c-4.00345,-0.88965 -8.61131,0.22135 -8.61131,0.22135z" fill="#2b263c" stroke="none" stroke-width="0"/></g><g stroke-linecap="butt"><path d="M221.73261,184.96692c0,0 -0.04771,0.67166 1.55991,-6.2995c0.23961,-1.03906 0.24663,-3.90313 -1.08087,-6.53951c-0.93241,-1.85175 -2.57437,-3.58382 -3.27213,-4.77791c-0.12326,-0.21094 -4.65469,-3.17041 -4.7099,-3.34546c-0.04961,-0.15731 3.46312,2.56011 4.59842,3.13075c0.27178,0.13661 -0.19816,-0.84818 -0.18912,-0.87607c0.66386,-2.04846 3.0893,-6.44944 4.67037,-9.39004c0.71287,-1.32586 1.41224,-2.19549 1.42585,-2.69608c0.03261,-1.19818 -11.22812,-6.67901 -11.15165,-7.60713c0.56075,-6.80505 5.04011,-16.19661 5.76734,-16.39904c0.77702,-0.21629 7.54102,8.05385 10.49594,13.58113c2.61204,4.88595 4.93264,10.76709 7.13457,18.28807c2.62416,8.96319 3.4085,19.13079 3.4085,19.13079z" fill="#2b263c" stroke="#000000" stroke-width="1.5"/><path d="M222.71658,176.88982c0.14592,-0.46838 -0.5621,-5.08898 -2.76028,-8.18713c-0.51217,-0.72186 -1.96967,-1.60741 -2.56621,-2.18721c-2.18285,-2.1216 -3.80614,-2.71229 -3.71418,-3.01085c1.2315,-3.99814 3.23962,-10.93844 3.23962,-10.93844l-9.19616,-4.35105l8.25729,-15.24823l2.58026,-0.4l-1.27183,11.33209l12.67682,8.71235l-7.66085,13.82591c0,0 2.20946,2.93299 3.48277,6.06005c0.98789,2.42614 1.53055,5.20588 1.62547,7.15035c0.13435,2.75229 -1.1218,7.32155 -1.1218,7.32155c0,0 -5.6791,-3.31205 -3.57089,-10.0794z" fill="#1b1f25" stroke="none" stroke-width="0"/><path d="M221.73261,184.96692c0,0 -0.04771,0.67166 1.55991,-6.29949c0.23961,-1.03905 0.24663,-3.90313 -1.08086,-6.53952c-0.9341,-1.85511 -2.58031,-3.59008 -3.2759,-4.78438c-0.05526,-0.09489 -4.49064,-2.97502 -4.6365,-3.26449c-0.09908,-0.19664 2.76501,-3.95539 4.28281,-6.19464c0.47081,-0.6946 1.12872,-2.0938 1.1235,-2.10695c-0.01128,-0.02839 -0.34686,1.0496 -1.11182,2.14309c-1.63774,2.34112 -4.40658,5.80757 -4.28622,6.05639c0.37841,0.7823 3.36687,2.51691 4.17188,2.98986c0.49096,0.28844 0.15636,-0.69782 0.15953,-0.70757c0.66386,-2.04846 3.0893,-6.44944 4.67037,-9.39004c0.71287,-1.32586 1.41223,-2.19549 1.42585,-2.69607c0.01861,-0.68381 -3.5243,-3.11551 -6.65568,-4.94675c-2.35548,-1.37749 -4.5288,-2.26194 -4.49596,-2.66038c0.56075,-6.80505 5.04011,-16.19662 5.76734,-16.39904c0.77702,-0.21629 7.54102,8.05385 10.49594,13.58113c2.61204,4.88594 4.93264,10.76709 7.13457,18.28807c2.62416,8.96319 3.40851,19.1308 3.40851,19.1308z" fill="none" stroke="#000000" stroke-width="1.5"/></g><path d="M254.55603,189.60441l-2.83333,-14.33333l25.33333,-0.66667l13.83333,10.33334c0,0 -0.68482,1.39647 -2.47577,3.76641c-1.85568,2.45559 -4.86208,5.93176 -7.37548,8.54971c-2.61748,2.72635 -6.44113,5.24302 -6.9145,5.03216c-6.5669,-2.92525 -19.56759,-12.68162 -19.56759,-12.68162z" fill="#1b1f25" stroke="#000000" stroke-width="1.5" stroke-linecap="butt"/><g stroke-linecap="butt"><path d="M256.64538,188.45189l-9.88889,-12c0,0 6.32878,-6.20637 8.85689,-9.93599c0.35952,-0.53038 -0.27551,-2.70496 0.57936,-3.85518c0.1988,-0.26748 0.47903,-0.44624 0.79996,-0.56867c0.93805,-0.35784 2.22374,-0.23437 2.83941,-0.43842c0.40369,-0.13379 1.01602,-0.79092 1.47831,-0.87714c0.63899,-0.11917 0.51989,1.21127 1.18484,1.10284c0.46005,-0.07501 2.59729,0.06549 3.07255,-0.02107c4.6982,-0.85565 8.07757,-2.73972 8.07757,-2.73972l-5.33333,24.33333c0,0 -4.85385,2.63578 -6.94636,3.53257c-1.72494,0.73926 -4.72031,1.46743 -4.72031,1.46743z" fill="#d396fc" stroke="#000000" stroke-width="1.5"/><path d="M260.00252,164.30507c0,0 -0.4065,0.01472 -0.77473,-0.23077c-0.46578,-0.31052 -1.7967,-1.41209 -1.7967,-1.41209c0,0 0.79995,0.05489 1.64414,-0.13724c0.63141,-0.1437 1.12681,-0.56066 1.5041,-0.67059c0.70143,-0.20436 0.99463,-0.04932 0.99463,-0.04932c0,0 -0.19942,0.28474 0.15615,0.69344c0.11068,0.12722 2.41696,-0.04869 2.61975,0.1727c1.58627,1.7317 0.00982,5.34815 0.00982,5.34815c0,0 -0.84016,-0.30058 -1.45378,-0.71355c-0.4331,-0.29149 -0.64582,-0.7465 -0.84234,-0.71961c-0.45473,0.06223 0.12422,-0.5055 -0.21721,-0.95167c-0.51114,-0.66796 -1.84382,-1.32945 -1.84382,-1.32945z" fill="#ffc6ef" stroke="none" stroke-width="0"/><path d="M256.57394,168.3765c0,0 -0.16596,-0.71464 -0.18631,-1.2183c-0.01075,-0.2661 0.23859,-0.65545 0.71106,-1.1133c0.67387,-0.65301 1.79918,-1.30248 2.56849,-2.07525c1.10193,-1.10689 1.69247,-2.45029 1.69247,-2.45029l1.28571,0.92857c0,0 -0.68275,0.66669 -1.22685,1.19798c-0.336,0.32809 -0.50245,1.05197 -1.16306,1.69704c-0.65425,0.63885 -1.60113,0.74061 -2.29072,1.29008c-0.85473,0.68105 -1.3908,1.74348 -1.3908,1.74348z" fill="#000000" stroke="none" stroke-width="0"/><path d="M258.57394,172.30508c0,0 -0.61869,-0.24089 -0.94081,-0.95526c-0.24912,-0.55248 -0.32085,-1.44556 0.20817,-2.36895c0.21585,-0.37677 0.66085,-0.91824 1.22097,-1.53126c0.27972,-0.30613 1.01672,-0.41582 1.33966,-0.74604c0.91264,-0.9332 1.41423,-1.96539 2.13566,-2.78753c0.78442,-0.89393 1.75063,-1.53954 1.75063,-1.53954l4.5,-0.14286c0,0 -3.77043,2.85726 -5.47812,4.46111c-0.25031,0.23509 -2.17165,1.08115 -2.46573,1.37987c-0.92349,0.93811 -1.86922,1.68308 -2.29678,2.47479c-0.42087,0.77931 0.02635,1.75565 0.02635,1.75565z" fill="#000000" stroke="none" stroke-width="0"/><path d="M262.35965,172.59079c0,0 -2.15151,1.28275 -1.91446,0.47462c0.27968,-0.95344 3.05732,-5.26033 3.05732,-5.26033l4.78571,-2.42857z" fill="#000000" stroke="none" stroke-width="0"/></g><g stroke-linecap="butt"><path d="M210.51496,204.7626c-1.58545,-0.31016 -5.56418,-5.91866 -5.92865,-8.23876c-0.48009,-3.05611 3.1858,-8.0058 3.1858,-8.0058c0,0 1.89505,-4.24015 4.5011,-7.44543c1.89224,-2.32734 4.37892,-3.81395 5.72222,-4.16682c0.7097,-0.18643 2.39106,0.4868 4.40436,0.91066c3.2737,0.68921 7.42708,1.08559 9.73523,0.8953c3.29183,-0.27139 6.34945,-0.79027 9.32595,-1.775c2.23809,-0.74043 4.89071,-1.83732 7.10781,-2.20688c0.25435,-0.04239 8.28891,0.68492 9.52348,9.56035c0.33334,2.39642 -0.32448,5.93824 -2.69767,7.87336c-1.7018,1.38765 -4.46467,3.0515 -8.00649,4.00374c-5.36469,1.44232 -11.62787,1.79669 -15.49866,2.04597c-2.24108,0.14432 -3.67926,0.41962 -3.67926,0.41962c0,0 -1.69935,1.18314 -3.22414,1.94663c-1.88176,0.94223 -4.251,1.88306 -4.41201,1.94082c-4.87134,1.74733 -8.13086,2.61945 -10.05907,2.24224z" fill="#1b1f25" stroke="#000000" stroke-width="1.5"/><path d="M208.46276,188.39189c0,0 3.03962,-9.12988 9.55857,-10.99505c0.79993,-0.22887 13.00867,2.32166 14.11461,2.11263c1.86562,-0.35261 6.94021,-0.66467 11.44597,-2.45713c1.67536,-0.66649 4.31917,-1.97038 5.05346,-1.76176c2.43655,0.69225 5.77278,1.89534 7.38353,4.68406c1.08886,1.88515 1.49198,4.07269 1.41304,5.83358c-0.11811,2.63408 -1.13832,4.50355 -1.13832,4.50355c0,0 -0.44138,-4.88861 -0.73064,-6.68505c-0.19537,-1.21329 -0.83666,-3.04851 -0.83666,-3.04851c0,0 -19.58033,6.08789 -28.02571,7.51779c-0.12731,0.02155 -6.69855,-4.55247 -10.08095,-4.47374c-3.70847,0.08633 -8.15688,4.76962 -8.15688,4.76962z" fill="#2b263c" stroke="none" stroke-width="0"/><path d="M209.66909,203.2641c0,0 -4.7527,-6.58348 -5.67704,-8.04726c-0.34287,-0.54298 -0.58256,-1.18344 -0.58256,-1.18344l2.78802,-6.82931c0,0 1.66316,-3.90492 2.47226,-2.76356c0.10637,0.15006 -0.75253,1.66248 -0.94303,2.36989c-0.09674,0.35924 -0.32917,0.86769 -0.3515,1.36086c-0.03678,0.81186 0.18049,1.5829 0.18049,1.5829c0,0 0.98548,-1.67804 1.05771,-1.47311c1.08091,3.06662 2.69744,14.6053 2.69744,14.6053z" fill="#1b1f25" stroke="none" stroke-width="0"/><path d="M207.14311,186.36398c0,0 -0.2823,-4.26464 3.02015,-7.6803c1.1501,-1.18953 3.26749,-2.33597 5.03182,-3.06529c1.62046,-0.66985 2.94319,-0.97219 2.94319,-0.97219c0,0 -4.91922,2.85005 -7.09711,5.65978c-1.51321,1.95222 -2.6075,6.05582 -2.6075,6.05582z" fill="#000000" stroke="none" stroke-width="0"/></g><g><g stroke-linecap="butt"><path d="M260.64487,179.81318c0.49326,-4.71534 2.7942,-6.99794 3.05664,-9.88232c0.53777,-5.91054 0.92961,-14.73905 0.92961,-14.73905l20.03469,0.00149c0,0 0.4918,1.69573 0.755,4.93572c0.23387,2.87902 0.21778,7.23525 0.56956,8.79138c0.22726,1.00526 2.63996,2.04172 2.84758,3.04368c0.1986,0.95841 -1.77611,1.16127 -1.5561,2.1035c1.2104,5.18372 4.52161,10.70887 4.30444,11.30679c-0.31952,0.87977 -1.19297,1.63687 -2.10677,2.61431c-3.07591,3.29012 -8.53114,7.20074 -12.31784,9.12511c-1.54465,0.78498 -2.96363,1.15816 -3.5752,1.27453c-4.05146,0.77097 -11.47251,-12.27219 -12.71787,-17.03959c-0.12126,-0.4642 -0.24678,-1.31544 -0.22375,-1.53555z" fill="#1b1f25" stroke="#000000" stroke-width="1.5"/><path d="M279.36809,185.69279c0,0 0.75551,-2.67698 0.70748,-4.32199c-0.09193,-3.14935 -1.21907,-13.20251 -1.21907,-13.20251c0,0 2.30317,-2.91772 3.24358,-4.48042c0.9112,-1.51416 2.53402,-4.78618 2.53402,-4.78618c0,0 0.46306,8.74119 0.30129,9.54505c-0.20312,1.00932 3.06484,2.62019 2.94821,3.77503c-0.05679,0.56224 -1.51693,0.56319 -1.51505,1.16457c0.00389,1.24875 0.8059,2.45448 1.49329,4.18405c1.29994,3.27083 2.87826,7.1601 2.7099,7.93837c-0.04794,0.22159 -1.13102,1.65851 -2.65522,3.02546c-2.07969,1.86513 -4.76399,3.76251 -4.76399,3.76251c0,0 1.92049,-4.68788 2.35849,-6.00962c0.22531,-0.67991 0.41753,-1.41879 0.41753,-1.41879z" fill="#2b263c" stroke="none" stroke-width="0"/><path d="M289.59367,185.18679c0,0 -0.90814,-1.79715 -2.13682,-4.15286c-0.16996,-0.32586 -0.57355,-0.85474 -0.97525,-1.12533c-0.66719,-0.44942 -1.38436,-0.57323 -1.423,-0.71371c-0.37748,-1.37239 -0.52698,-4.66456 -0.53761,-6.84703c-0.01452,-2.98009 -0.07924,-15.38288 -0.07924,-15.38288c0,0 1.48305,6.32549 1.68727,6.55344c0.33429,0.37312 0.37912,5.87551 0.37912,5.87551c0,0 0.10109,1.74239 0.23395,3.51125c0.00583,0.07751 0.41386,-0.43133 0.92613,-1.01468c0.29772,-0.33902 -2.33704,-1.15734 -1.56606,-1.68907c0.56703,-0.39106 2.91896,1.17968 2.92132,1.21106c0.02806,0.37359 -2.13063,3.10359 -2.10952,3.38463c0.10525,1.4013 0.09533,3.68767 0.09533,3.68767c0,0 1.25915,1.15295 1.45154,1.67708c0.41504,1.1307 1.13284,5.02492 1.13284,5.02492z" fill="#000000" stroke="none" stroke-width="0"/></g><path d="M265.05602,159.6044c0,0 3.20609,1.48489 3.63088,2.09172c0.32727,0.46753 -1.29754,1.24161 -1.29754,1.24161" fill="none" stroke="#000000" stroke-width="1.5" stroke-linecap="round"/><path d="M288.05602,154.18774c0,1.61083 -1.41777,2.91666 -3.16667,2.91666c-1.7489,0 -3.16666,-1.30584 -3.16666,-2.91666c0,-1.61083 1.41776,-2.91666 3.16666,-2.91666c1.7489,0 3.16667,1.30584 3.16667,2.91666z" fill="#afcad3" stroke="#000000" stroke-width="1.5" stroke-linecap="butt"/><path d="M284.7227,150.93774c0,4.87851 -5.26311,8 -12.16667,8c-1.8976,0 -3.65866,-0.3114 -5.21487,-0.86432c-1.2267,-0.43585 -3.13641,-3.60511 -4.61852,-4.30689c-1.21945,-0.5774 -2.16661,-2.21799 -2.16661,-3.82879c0,-4.87851 4.76311,-7.83334 11.66667,-7.83334c6.90356,0 12.5,3.95482 12.5,8.83334z" fill="#afcad3" stroke="#000000" stroke-width="1.5" stroke-linecap="butt"/><path d="M282.2227,150.3544c0,2.7154 -3.32056,4.91667 -7.41667,4.91667c-4.09611,0 -8.08333,-2.0346 -8.08333,-4.75c0,-2.7154 3.98722,-5.08334 8.08333,-5.08334c4.09611,0 7.41667,2.20127 7.41667,4.91666z" fill="#565b84" stroke="#000000" stroke-width="1.5" stroke-linecap="butt"/></g><g stroke-linecap="butt"><text transform="translate(229.06745,108.51784) scale(0.07561,0.07561)" font-size="40" xml:space="preserve" fill="#000000" fill-rule="nonzero" stroke="none" stroke-width="1" stroke-linecap="butt" stroke-linejoin="miter" stroke-miterlimit="10" stroke-dasharray="" stroke-dashoffset="0" font-family="Sans Serif" font-weight="normal" text-anchor="start" style="mix-blend-mode: normal"><tspan x="0" dy="0">sus</tspan></text><path d="M229.6888,130.80691c-0.71033,-0.3202 -4.46185,-0.36656 -7.1611,-1.1031c-1.09713,-0.29937 -1.72801,-0.67147 -2.43494,-1.14744c-0.39609,-0.26669 -1.16933,-0.41907 -1.59532,-0.71551c-0.33552,-0.23348 -1.06206,-0.2344 -1.42361,-0.49018c-0.29656,-0.20981 -2.3894,-1.2109 -2.50535,-1.94484c-0.10134,-0.64151 -1.18034,-10.21977 -1.64593,-11.39332c-0.21068,-0.53107 -0.47092,-0.85231 -0.52174,-0.86861c-1.85998,-0.59681 -5.91017,3.96392 -7.39938,2.96529c-5.05915,-3.39261 -5.62728,-15.50993 -5.32227,-17.62798c0.24253,-1.68415 2.67201,1.09485 5.2529,1.27038c1.06396,0.21226 1.76885,-0.07157 1.76885,-0.07157c0,0 11.29378,-12.2808 19.30249,-15.05874c8.32265,-2.88685 29.72782,-1.94821 29.72782,-1.94821c0,0 -0.21312,2.04578 -0.4638,3.99324c-0.11098,0.86219 0.51708,3.72842 0.74174,3.9299c0.1993,0.17875 1.0499,0.15892 2.22885,0.87899c0.7307,0.4463 1.47244,1.26371 1.60073,1.56857c0.14967,0.35564 1.11861,1.78004 0.92752,2.75195c-0.18259,0.9287 -1.63631,1.53664 -2.09311,1.65099c-0.94939,0.23766 -1.53707,3.60408 -1.48373,4.30353c0.15808,2.07273 0.20447,2.27074 0.20606,3.99938c0.00704,7.6746 -2.80297,18.49876 -2.62506,19.41823c0.15331,1.09171 1.04232,2.56629 1.85086,4.42026c0.48437,1.11067 4.12305,4.07906 2.96204,5.49143c-0.52208,0.63511 -5.8042,0.45696 -6.2058,0.51881c-2.72001,0.41889 -5.99392,0.20741 -9.05646,0.32121c-3.48887,0.12965 -7.75379,-0.31028 -8.96526,-0.29355c0,0 -2.1239,-1.44671 -3.98405,-2.61345c-0.93883,-0.58886 -1.18546,-1.98141 -1.68295,-2.20567z" fill="#ffc6ef" stroke="#000000" stroke-width="2"/><path d="M229.82972,117.08816c0,0 -3.1375,-2.23094 -4.07058,-3.10283c-0.67984,-0.63526 -1.01276,-1.64717 -1.01276,-1.64717c0,0 3.66855,1.07011 6.90884,0.30039c1.07397,-0.25512 2.62623,-1.0845 4.32784,-1.90524c0.54693,-0.2638 1.03457,-0.60144 1.62418,-0.82134c4.22072,-1.57418 8.88914,-2.74047 8.88914,-2.74047c0,0 -0.0112,0.82747 0.15271,1.65289c0.13186,0.66398 0.43585,1.29722 0.50212,1.72136c0.125,0.80001 0.34517,1.87575 0.34517,1.87575c0,0 -1.46764,-0.44961 -3.22234,-0.86644c-2.64557,-0.62845 -6.0498,-1.28847 -6.90445,-1.06464c-0.62483,0.16365 -1.72703,1.87083 -2.42213,2.36183c-0.61522,0.43458 -1.18804,0.97479 -1.80776,1.42115c-0.69971,0.50398 -1.43631,0.91121 -1.93175,1.34112c-0.98818,0.85748 -1.37824,1.47365 -1.37824,1.47365z" fill="#d396fc" stroke="none" stroke-width="0"/><path d="M217.41305,105.50482c0,0 -2.22958,-4.51522 -2.36898,-7.25666c-0.18229,-3.58505 1.36898,-12.41 1.36898,-12.41l37.91667,-0.16667c0,0 -0.19398,1.27433 -0.04251,2.02538c0.14354,0.71175 1.01865,2.99881 1.01865,2.99881c0,0 -1.68146,2.57712 -1.52975,3.32009c0.13817,0.67668 5.37541,-0.39051 5.37541,-0.39051c0,0 0.67446,1.09199 0.61037,2.01848c-0.02278,0.32931 -2.89783,1.55339 -2.9518,2.11718c-0.11342,1.18479 -0.11917,5.05173 -0.39963,9.14898c-0.16251,2.3742 -0.58332,4.77037 -0.73954,6.91058c-0.24366,3.33825 -0.50787,5.85101 -0.50787,5.85101c0,0 -7.91205,2.5502 -10.69899,0.59399c-0.59302,-0.41625 1.49259,-3.3934 4.06332,-5.08713c1.10918,-0.73079 2.33244,-0.67118 3.30029,-0.93116c1.03433,-0.27784 1.77696,-0.84964 1.77696,-0.84964c0,0 0.21666,-3.58443 0.00125,-3.67856c-0.47191,-0.20623 -2.50084,1.56035 -3.22526,1.30697c-0.95326,-0.33342 -3.48903,-6.4048 -4.71776,-6.85395c-7.45338,-2.72448 -17.52395,-1.41719 -20.49981,-1.41719c-3.86229,0 -7.75,2.75 -7.75,2.75z" fill="#d396fc" stroke="none" stroke-width="0"/><path d="M231.49638,92.1715c0,0 1.40559,0.01893 2.91767,0.32842c1.69392,0.3467 3.58521,0.9943 5.05043,1.12171c2.96412,0.25775 9.28189,0.04987 9.28189,0.04987l0.83333,5.25c0,0 -3.54448,0.24776 -6.99577,0.0797c-2.19483,-0.10688 -4.35196,-0.4812 -5.53582,-0.87456c-5.49305,-1.82518 -5.55175,-5.95514 -5.55175,-5.95514z" fill="#ffc6ef" stroke="none" stroke-width="0"/><path d="M250.74638,96.33816l-0.16667,-2.16667c0,0 1.06663,-0.80651 2.10953,-1.54641c0.75751,-0.53743 1.50251,-1.00036 1.81713,-1.28473c0.33934,-0.30671 0.65668,-1.08552 0.65668,-1.08552c0,0 0.31262,0.95347 0.74119,1.43346c0.50295,0.56331 1.16147,-0.19888 2.39559,1.01498c1.31679,1.29518 0.86323,1.13489 0.86323,1.13489c0,0 -2.92146,1.9418 -4.04746,2.3857c-0.74891,0.29524 -1.84054,0.67187 -2.69981,0.63468c-0.97164,-0.04206 -1.66939,-0.52038 -1.66939,-0.52038z" fill="#ffc6ef" stroke="none" stroke-width="0"/><path d="M201.01124,104.65837c0,0 0.38007,-1.20261 1.32691,-1.34524c0.15365,-0.02314 0.45653,-0.00613 0.75989,0.13876c1.80378,0.86149 5.85963,4.26472 5.85963,4.26472c0,0 -0.58028,-1.92808 -0.77368,-2.84984c-0.18267,-0.87062 -0.35638,-2.53607 -0.35638,-2.53607l11.23636,12.14177c0,0 -0.72047,1.23802 -0.86354,1.96926c-0.12333,0.63036 0.05554,2.16063 0.05554,2.16063c0,0 1.40456,0.51511 2.6591,0.98786c0.35594,0.13413 -0.46969,-1.3365 -0.11523,-2.20945c0.37203,-0.91622 1.92214,-1.23499 2.20599,-0.99733c0.40717,0.34093 1.53688,6.95887 1.53688,6.95887c0,0 0.01196,2.25361 2.01761,3.92334c0.99307,0.82674 6.66796,3.61359 8.35662,4.3024c0.5606,0.22867 6.50418,3.21823 6.50418,3.21823l-5.93674,-0.18254c0,0 -2.1236,-0.78589 -3.9212,-1.39069c-0.53823,-0.18109 -1.67223,-0.97095 -2.08626,-1.09361c-0.30649,-0.0908 -1.76183,0.77778 -1.76183,0.77778c0,0 -0.98154,1.86568 -1.98265,1.4388c-0.01395,-0.00595 -0.89258,-0.57772 -1.56858,-1.57431c-0.32087,-0.47305 -0.83373,-0.61048 -1.28139,-1.09375c-0.33248,-0.35894 -0.51299,-0.93902 -0.87627,-1.43881c-0.351,-0.4829 -0.88924,-0.89084 -0.96567,-0.9519c-0.67831,-0.542 -1.49351,-0.94346 -2.05389,-1.48344c-0.88574,-0.8535 -3.02112,-2.18301 -3.03688,-2.20143c-0.59408,-0.69426 -0.58298,-3.549 -1.37016,-6.44881c-0.77295,-2.84744 -0.56747,-5.09845 -1.46809,-6.47865c-0.27535,-0.42198 -0.67049,-0.52355 -0.93911,-0.60561c-0.52117,-0.15925 -1.68624,0.18482 -2.63537,0.86587c-1.11087,0.79707 -3.61557,2.39682 -4.12209,2.07535c-0.57576,-0.42987 -2.30162,-2.64662 -3.18858,-4.91814c-1.04415,-2.67408 -1.2151,-5.42406 -1.2151,-5.42406z" fill="#d396fc" stroke="none" stroke-width="0"/><path d="M206.43866,99.68271c-0.61126,-1.6741 -1.67461,-4.85777 -2.56327,-8.09072c-1.04801,-3.81264 -2.22843,-8.20522 -2.69787,-10.1599c-0.10891,-0.45351 0.10162,-1.84983 0.58566,-2.05248c1.09539,-0.45859 3.44302,-1.42175 5.23771,-2.08141c0.31379,-0.11534 0.59824,0.03223 0.85045,-0.05159c0.24509,-0.08146 -0.00611,-0.29698 0.24074,-0.37752c4.7166,-1.53881 10.37632,-3.11558 10.37632,-3.11558c0,0 9.49035,8.55779 8.79414,12.56771c-0.62321,3.58941 -12.14509,10.07481 -12.14509,10.07481c0,0 0.31354,3.72508 0.70815,5.37393c0.37496,1.56682 1.09218,4.83349 1.09218,4.83349c0,0 -0.69044,1.07074 -0.70437,1.61698c-0.02497,0.97953 0.36999,2.06939 0.72734,2.84685c0.2878,0.62613 0.28573,0.66104 -0.1418,0.23683c-1.18734,-1.17813 -3.60649,-3.59506 -4.94156,-5.0448c-0.87905,-0.95456 -1.66155,-1.66744 -2.71868,-2.91143c-0.4547,-0.53508 -0.24547,-1.01612 -0.5743,-1.40739c-0.12591,-0.14983 -0.19547,-0.66458 -0.52093,-0.93371c-0.22229,-0.18382 -0.69985,-0.12223 -0.86045,-0.26742c-0.44814,-0.40508 -0.51618,-0.58331 -0.6552,-0.96403z" fill="#4a5c6f" stroke="#000000" stroke-width="2"/><path d="M221.36274,88.33064c-0.0499,-0.14545 -0.71492,-0.26089 -1.53413,-0.55038c-2.42983,-0.85863 -7.33419,-2.29477 -9.33672,-2.98422c-0.79532,-0.27382 -0.62028,-0.05025 -0.10742,-0.43977c1.22079,-0.9272 7.70434,-5.43955 7.70434,-5.43955c0,0 -4.22953,-2.90913 -5.54202,-5.86773c-2.8304,-6.38025 -0.93596,-9.32945 -0.54301,-10.06739c0.15641,-0.29372 1.42577,-1.86154 3.0684,-3.09649c1.15691,-0.86979 2.49735,-1.48948 3.77945,-2.17198c2.43934,-1.29856 6.37756,-2.39112 7.81705,-2.84686c0.69867,-0.22121 -0.03782,0.25492 -0.50084,0.93119c-1.3482,1.96914 -4.32416,5.67427 -3.76031,6.90367c0.29763,0.64894 1.33727,1.59514 2.16691,2.64836c0.60686,0.77041 1.53231,1.77293 2.59853,2.60341c0.77304,0.60212 2.02619,0.73626 3.57421,0.81483c6.53993,0.33189 18.39601,-3.13567 22.0837,-4.76893c0.36848,-0.16319 0.12586,-4.78551 0.27944,-4.80501c0.68992,-0.08758 13.02986,10.53473 7.82941,19.67729c-1.96287,3.4508 -5.52764,6.27385 -9.83696,7.79303c-8.38686,2.95663 -18.62649,2.21119 -18.62649,2.21119c0,0 -5.8677,3.11317 -10.74527,5.34554c-2.75753,1.26206 -5.19796,2.20923 -6.09124,2.60375c-0.72757,0.32132 -1.93361,0.60794 -1.61676,-0.09714c0,0 0.63359,-0.78205 1.36382,-1.57356c1.4941,-1.61947 3.93342,-4.19004 4.94563,-5.58563c0,0 1.07564,-1.10521 1.03023,-1.23758z" fill="#4a5c6f" stroke="#000000" stroke-width="2"/><path d="M229.68099,80.23779c0,0 -14.93524,-2.38588 -14.73782,-13.65084c0.04612,-2.63121 0.29068,-3.00864 0.95905,-4.17555c2.61883,-4.57228 9.07056,-6.43375 9.07056,-6.43375c0,0 -3.75632,4.7942 -3.71468,6.24303c0.03105,1.08071 3.79302,6.00709 5.29525,6.64504c1.63447,0.69411 3.87157,0.7456 6.35243,0.65802c7.72945,-0.27287 17.85265,-3.34665 19.71355,-4.40502c0.27875,-0.15855 1.01387,-0.68043 1.20247,-1.30896c0.35894,-1.19624 -0.11439,-2.92376 -0.11439,-2.92376c0,0 2.4832,2.53193 3.4878,3.8307c1.14901,1.48546 3.23104,5.05962 3.23104,5.05962c0,0 -6.31522,7.00962 -14.68766,7.79955c-3.91599,0.36947 -7.40879,0.35 -10.16423,-0.10534c-2.71108,-0.44799 -4.67499,-1.51362 -6.28078,-2.25166c-2.59845,-1.19426 -3.97923,-2.06501 -3.97923,-2.06501c0,0 0.60716,1.44155 1.12487,2.29317c0.77596,1.27644 3.2418,4.79077 3.2418,4.79077z" fill="#696f96" stroke="none" stroke-width="0"/><path d="M218.20644,79.25378l0.34585,-0.9756c0,0 1.9844,0.28351 3.20235,0.98102c0.8848,0.50672 1.37832,1.12104 1.14206,1.39977c-0.29882,0.35253 -1.4104,-0.18118 -2.46677,-0.61139c-0.44381,-0.18074 -0.89058,-0.54572 -1.269,-0.6779c-0.55214,-0.19287 -0.95451,-0.11589 -0.95451,-0.11589z" fill="#000000" stroke="none" stroke-width="0"/><path d="M213.52937,79.73072l0.0284,-1.49973c0,0 1.39843,0.13646 2.49839,0.20544c0.68761,0.04312 1.25974,-0.00106 1.29714,0.06646c0.35184,0.63517 -2.7317,1.64858 -2.7317,1.64858z" fill="#4a5c6f" stroke="none" stroke-width="0"/><path d="M207.89911,100.72302l-1.02876,-3.29279l8.74055,8.98526c0,0 -0.49187,0.73615 -0.51342,1.16548c-0.02619,0.52156 0.36745,1.74137 0.36745,1.74137z" fill="#4a5c6f" stroke="none" stroke-width="0"/><path d="M212.36335,107.45648l-0.16114,-1.09415l1.27251,0.02409l-0.02753,1.45428z" fill="#000000" stroke="none" stroke-width="0"/><path d="M206.50506,107.39523c0,0 -0.23958,-0.37734 -0.64914,-0.78004c-0.45905,-0.45135 -1.18441,-0.95385 -1.58482,-1.34664c-0.4165,-0.40855 -1.12131,-1.04504 -1.68196,-1.60987c-0.65189,-0.65674 -0.85515,-0.8546 -0.85515,-0.8546c0,0 0.38702,0.09758 0.96343,0.41553c0.33432,0.1844 0.68495,0.44204 1.18404,0.80011c1.31101,0.94055 2.89418,2.23264 4.06075,3.39915c1.48307,1.48302 3.36339,3.51294 2.32808,4.42751c-0.53982,0.47687 -1.72879,-0.59228 -2.09479,-0.78802c-0.36995,-0.19786 -0.61791,-0.57213 -0.8805,-1.03394c-0.20977,-0.36894 -0.46177,-0.79435 -0.55117,-1.22576c-0.16544,-0.79827 -0.23876,-1.40342 -0.23876,-1.40342z" fill="#000000" stroke="none" stroke-width="0"/><path d="M216.95551,108.00675l0.37114,-1.99333c0,0 2.63099,-1.08006 3.07817,-0.84282c0.73428,0.38954 -3.44931,2.83615 -3.44931,2.83615z" fill="#000000" stroke="none" stroke-width="0"/><path d="M212.29403,108.05067c0,0 0.32911,-0.57595 0.77508,-0.304c0.86305,0.52626 2.20421,2.09322 2.72826,2.19296c0.70854,0.13483 1.03668,-1.02506 1.03668,-1.02506c0,0 2.10942,3.93821 2.20613,4.5214c0.03609,0.21767 0.10796,0.52945 0.1103,0.81103c0.00444,0.53321 -0.20215,0.64851 -0.37043,0.90129c-0.12708,0.19088 -0.20886,0.4845 -0.2939,0.95806c-0.13522,0.75296 -0.11206,1.74704 -0.16763,2.61843c-0.05761,0.90352 -0.14325,2.06098 -0.14325,2.06098c0,0 -0.26139,-0.99711 -0.29302,-1.95628c-0.01636,-0.49613 -0.08715,-1.05359 -0.11581,-1.68258c-0.05632,-1.23671 -0.1119,-2.59376 -0.40609,-3.21111c-0.1715,-0.35987 -0.54554,-0.56603 -0.85195,-0.92913c-0.62059,-0.73544 -0.92928,-1.39892 -1.57143,-1.93282c-0.64138,-0.53328 -2.64301,-3.02311 -2.64301,-3.02311z" fill="#000000" stroke="none" stroke-width="0"/><path d="M232.21621,89.82667l0.09051,-1.94527l1.41951,0.06605l-0.09051,1.94527z" fill="#000000" stroke="none" stroke-width="0"/><path d="M229.42264,130.00573c0,0.27614 -0.22386,0.5 -0.5,0.5c-0.27614,0 -0.5,-0.22386 -0.5,-0.5c0,-0.27614 0.22386,-0.5 0.5,-0.5c0.27614,0 0.5,0.22386 0.5,0.5z" fill="#000000" stroke="none" stroke-width="0"/><path d="M232.29764,131.19323c0,0.31066 -0.36377,0.5625 -0.8125,0.5625c-0.44873,0 -0.8125,-0.25184 -0.8125,-0.5625c0,-0.31066 0.36377,-0.5625 0.8125,-0.5625c0.44873,0 0.8125,0.25184 0.8125,0.5625z" fill="#000000" stroke="none" stroke-width="0"/><path d="M234.92264,131.13073c0,0.27614 -0.22386,0.5 -0.5,0.5c-0.27614,0 -0.5,-0.22386 -0.5,-0.5c0,-0.27614 0.22386,-0.5 0.5,-0.5c0.27614,0 0.5,0.22386 0.5,0.5z" fill="#000000" stroke="none" stroke-width="0"/><path d="M223.65982,102.96012c0,0 -0.02389,-1.75869 -0.0001,-2.639c0.02382,-0.8816 0.14296,-2.78957 0.14296,-2.78957c0,0 1.9386,-1.13291 3.58285,-1.33617c0.63902,-0.079 2.0956,0.21986 3.27821,1.04483c2.59151,1.80779 5.83983,5.12713 9.6389,4.79088c3.23704,-0.28651 7.18038,-1.12932 10.66646,-2.34237c4.81773,-1.67643 8.76215,-3.80003 8.76215,-3.80003c0,0 -1.15964,2.16616 -1.50505,3.67442c-0.36751,1.60479 -0.63781,5.68272 -0.63781,5.68272c0,0 -1.91438,0.35218 -3.49437,0.4921c-1.2543,0.11107 -4.53172,0.39741 -7.6481,0.65545c-0.30321,0.0251 -0.92228,0.07625 -0.92228,0.07625c0,0 0.25752,-1.11738 -0.14406,-1.08479c-0.05201,0.00422 -0.33782,0.12488 -0.50441,0.40423c-0.18429,0.30903 -0.25464,0.78032 -0.40563,0.79854c-2.09695,0.25303 -13.041,0.72539 -14.84285,0.29787c-0.41611,-0.09873 -0.45531,-0.51084 -0.94111,-0.76747c-0.87779,-0.4637 -1.88754,-0.58286 -2.77062,-1.15005c-1.25561,-0.80646 -2.25513,-2.00783 -2.25513,-2.00783z" fill="#000000" stroke="none" stroke-width="0"/><path d="M236.79764,131.38073c0,0.27614 -0.22386,0.5 -0.5,0.5c-0.27614,0 -0.5,-0.22386 -0.5,-0.5c0,-0.27614 0.22386,-0.5 0.5,-0.5c0.27614,0 0.5,0.22386 0.5,0.5z" fill="#000000" stroke="none" stroke-width="0"/><path d="M234.04764,132.44323c0,0.10356 -0.11193,0.1875 -0.25,0.1875c-0.13807,0 -0.25,-0.08394 -0.25,-0.1875c0,-0.10356 0.11193,-0.1875 0.25,-0.1875c0.13807,0 0.25,0.08394 0.25,0.1875z" fill="#000000" stroke="none" stroke-width="0"/><path d="M236.42264,133.19323c0,0.17259 -0.19588,0.3125 -0.4375,0.3125c-0.24162,0 -0.4375,-0.13991 -0.4375,-0.3125c0,-0.17259 0.19588,-0.3125 0.4375,-0.3125c0.24162,0 0.4375,0.13991 0.4375,0.3125z" fill="#000000" stroke="none" stroke-width="0"/><path d="M222.0273,122.03808c0,0 -0.81217,-0.71738 -1.29645,-1.77596c-0.39626,-0.8662 -0.47385,-2.02695 -0.53684,-2.65696c-0.06567,-0.65675 1.12145,-2.19693 1.96334,-3.59224c0.77644,-1.28684 1.19946,-2.42057 1.44304,-3.30833c0.0361,-0.13158 0.37843,-0.35361 0.96452,-0.46668c0.88837,-0.17138 1.52457,0.74295 2.76318,1.28419c0.78441,0.34277 1.67032,0.61612 3.024,0.55113c0.65957,-0.03167 1.7365,0.05515 2.70129,-0.1994c1.61576,-0.42629 3.09746,-1.2686 3.09746,-1.2686c0,0 -1.53346,2.26153 -6.24309,2.77581c-0.52823,0.05768 -2.4046,-0.31685 -3.54585,-0.52202c-0.19165,-0.03445 -0.4737,-0.28636 -0.61402,-0.30841c-0.2597,-0.04081 -0.30349,0.1667 -0.29106,0.19618c0.40718,0.9652 6.49474,3.32926 7.32497,3.20386c2.98369,-0.45067 6.72658,-1.08766 10.29473,-1.35753c3.70139,-0.27996 7.21475,-0.1953 9.49754,-0.82124c0.12851,-0.03524 0.24751,-0.71567 0.56458,-1.39955c0.32119,-0.69276 0.84038,-1.38908 0.95758,-1.42185c0.19154,-0.05357 0.30505,-0.21219 0.44971,-0.25297c0.38825,-0.10946 0.65636,-0.05942 0.65636,-0.05942c0,0 -0.75341,0.74477 -0.8072,1.5956c-0.02352,0.37201 -0.14632,1.26333 -0.16813,2.00329c-0.00529,0.17946 -2.99837,0.70012 -4.9852,1.59715c-2.26053,1.02061 -1.63696,2.55309 -1.64027,2.70256c-0.00223,0.10064 4.47375,0.7142 4.8541,1.14504c0.5461,0.61859 -4.5533,1.55636 -4.5533,1.55636c0,0 -4.2425,1.55097 -7.80263,2.57316c-1.51751,0.43571 -2.74738,0.85718 -3.73917,0.88784c-0.18425,0.0057 -0.9785,-0.40586 -1.9732,-0.81563c-1.67015,-0.68802 -3.90541,-1.55294 -4.76709,-1.75797c-2.88696,-0.68691 -4.75267,0.17764 -6.71612,-0.76034c-0.15682,-0.07492 -0.85546,-0.95723 -1.15578,-1.88955c-0.34771,-1.07945 -0.29768,-2.22592 -0.43241,-2.26384c-0.80458,-0.22648 0.71139,4.82632 0.71139,4.82632z" fill="#000000" stroke="none" stroke-width="0"/><path d="M225.9648,117.69192c0,0 -0.19572,-0.76008 -0.41033,-1.20002c-0.36667,-0.75166 -1.58967,-3.05382 -1.58967,-3.05382c0,0 1.33402,0.84785 1.98,1.44c0.88032,0.80696 2.82,2.96 2.82,2.96c0,0 -0.744,0.12029 -1.1652,0.07516c-0.49891,-0.05345 -1.6348,-0.22132 -1.6348,-0.22132z" fill="#ffffff" stroke="none" stroke-width="0"/><path d="M229.21096,118.36115c0,0 0.67077,-1.82308 1.01538,-1.82308c0.51692,0 1.55385,1.74616 1.55385,1.74616z" fill="#ffffff" stroke="none" stroke-width="0"/><path d="M234.07249,118.21884c0,0 0.33294,-0.83728 1.47435,-1.18921c0.88074,-0.27156 2.92319,-0.62814 4.69115,-0.98362c1.65255,-0.33228 3.06527,-0.67332 3.06527,-0.67332v1.92307c0,0 -3.07056,0.72626 -4.544,0.86362c-1.54847,0.14435 -4.68676,0.05946 -4.68676,0.05946z" fill="#ffffff" stroke="none" stroke-width="0"/><path d="M232.38019,121.21884c0,0 6.64354,-0.95913 9.40494,-1.29384c2.17335,-0.26344 5.82583,-0.55231 5.82583,-0.55231c0,0 0.00592,0.45705 -1.2438,0.96813c-2.56319,1.04821 -7.6951,2.57034 -9.98696,2.57034c-1.97921,0 -4,-1.69231 -4,-1.69231z" fill="#ffffff" stroke="none" stroke-width="0"/><path d="M228.91865,116.91116l-1.38461,-1.3077c0,0 0.89794,0.35635 1.27914,0.52578c0.27793,0.12353 0.79778,0.3973 0.79778,0.3973z" fill="#f44254" stroke="none" stroke-width="0"/><path d="M231.99557,117.37268h2.07692c0,0 -0.72207,1 -1,1c-0.32885,0 -1.07692,-1 -1.07692,-1z" fill="#f44254" stroke="none" stroke-width="0"/><path d="M218.15982,100.53155c0,0 0.21823,-0.40445 0.62811,-0.80293c0.40294,-0.39175 0.99349,-0.77533 1.46779,-1.03943c1.11435,-0.6205 4.18981,-1.65764 4.18981,-1.65764l1.28572,0.14285l-1.21428,1c0,0 -0.85907,0.22062 -1.46704,0.44604c-1.14631,0.42504 -4.89011,1.9111 -4.89011,1.9111z" fill="#000000" stroke="none" stroke-width="0"/><path d="M219.37411,101.60297c0,0 0.9148,-0.42168 1.61428,-0.77142c0.38819,-0.1941 1.10309,-0.44112 1.72541,-0.91638c0.88736,-0.67765 1.6603,-1.59791 1.6603,-1.59791l-0.57143,2.78571c0,0 -2.1017,0.45158 -2.9156,0.54347c-0.5863,0.06619 -1.51297,-0.04347 -1.51297,-0.04347z" fill="#000000" stroke="none" stroke-width="0"/><path d="M218.94553,103.88868c0,0 1.58995,-1.25187 2.58477,-1.6053c0.73451,-0.26095 2.84381,-0.32327 2.84381,-0.32327l-0.07143,1.07143c0,0 -1.37615,0.06589 -2.14687,0.18921c-0.96914,0.15506 -3.21028,0.66793 -3.21028,0.66793z" fill="#000000" stroke="none" stroke-width="0"/><path d="M237.15982,110.46012c0,0 0.91486,-0.65805 2.42927,-1.30876c0.90024,-0.38681 4.74282,-1.56598 5.12209,-1.82514c0.55528,-0.37945 1.02007,-2.72324 1.02007,-2.72324c0,0 0.65382,0.01475 1.90453,0.62104c0.7733,0.37487 2.12778,1.37298 2.63698,1.54106c0.43344,0.14307 1.35913,0.06752 2.03109,0.09847c0.4489,0.02068 0.78456,0.168 0.78456,0.168c0,0 -0.89926,0.56593 -2.02198,0.8378c-0.89113,0.21579 -2.02877,-0.19796 -2.21783,0.18588c-0.0959,0.19469 1.88267,3.47633 1.88267,3.47633c0,0 -0.3661,0.0648 -0.8702,-0.47399c-0.63497,-0.67865 -1.48891,-2.06352 -2.10601,-2.92027c-0.40535,-0.56278 -0.77037,-1.94852 -0.81599,-1.95212c-0.26676,-0.02106 -0.26952,1.28494 -0.61252,1.45502c-1.93545,0.95972 -4.71165,1.61237 -6.70097,2.11105c-1.43863,0.36064 -2.46573,0.70888 -2.46573,0.70888z" fill="#000000" stroke="none" stroke-width="0"/><path d="M246.65982,101.17441c0,0 2.18683,-1.69227 1.70191,-2.35247c-0.17331,-0.23596 -0.70282,-0.56841 -1.35128,-0.81692c-0.69257,-0.26542 -1.93256,-0.50146 -2.60742,-0.99521c-0.09507,-0.06955 -0.72143,-0.38079 -0.62672,-0.61103c0.0506,-0.12301 0.49206,-0.41617 0.63009,-0.49527c0.31037,-0.17787 0.97642,-0.1465 1.4358,-0.35622c1.26582,-0.57788 2.74896,-1.19982 2.52962,-1.44224c-0.07216,-0.07975 -2.31528,0.13229 -4.8529,0.17811c-0.68159,0.01231 -1.38442,-0.13023 -2.07214,-0.15078c-0.44113,-0.01318 -0.87604,0.10791 -1.29513,0.07522c-2.74796,-0.21435 -4.49681,-1.27268 -4.58947,-1.36362c-0.05059,-0.04966 -0.66865,-0.50677 -0.11493,-0.5211c1.26516,-0.03275 1.90007,0.8945 4.48786,1.03859c0.46944,0.02614 0.97964,-0.10202 1.50817,-0.09691c0.79577,0.00768 1.6331,0.13647 2.43545,0.10692c1.40104,-0.0516 2.6954,-0.15041 3.47555,-0.263c0.49726,-0.07176 0.78562,-0.27678 0.75951,-0.31072c-0.18419,-0.23954 -0.04242,-0.83746 -0.28423,-1.07833c-0.11656,-0.11611 -1.38936,0.32159 -2.79908,0.42497c-1.77215,0.12996 -3.76068,-0.06115 -3.94068,-0.20436c-0.12895,-0.10259 -0.32753,-0.20574 -0.45288,-0.30929c-0.14481,-0.11962 -0.64425,0.2602 -0.784,0.1397c-0.09832,-0.08477 -0.03599,-0.36782 0.56422,-0.64547c0.28158,-0.13026 1.12513,0.43923 1.50887,0.28618c0.46663,-0.18612 3.54363,0.09253 4.05671,-0.14405c0.74937,-0.34555 1.50165,-0.63883 1.79113,-1.06365c0.13697,-0.201 0.17169,-1.74331 0.17169,-1.74331l0.70304,-0.34579c0,0 -0.19684,1.49999 0.18466,1.35448c0.07224,-0.02755 0.30994,-0.42921 0.45138,-0.87162c0.12751,-0.39886 0.1634,-0.84421 0.1634,-0.84421l2.27389,-1.11914c0,0 -0.37622,1.38179 -0.44529,1.77535c-0.08014,0.45659 -0.47394,1.33664 -0.47394,1.33664c0,0 0.04818,0.53504 0.09377,1.35986c0.06848,1.239 0.1311,2.84617 0.01576,4.56167c-0.04834,0.7189 -1.5565,0.92919 -1.68,1.60477c-0.04586,0.25088 0.6871,0.62967 0.9852,0.98531c0.29879,0.35647 0.16269,0.68971 0.0898,0.84763c-0.39059,0.84628 -0.86168,1.7122 -0.86168,1.7122z" fill="#000000" stroke="none" stroke-width="0"/><path d="M250.51696,91.10297c0,0 0.30035,-0.05322 0.47259,-0.46947c0.31162,-0.75308 1.09884,-3.67338 1.09884,-3.67338l2.09091,-0.51948c0,0 -1.28514,2.75007 -1.84705,3.78242c-0.42003,0.77168 -1.60101,2.49031 -1.60101,2.49031z" fill="#000000" stroke="none" stroke-width="0"/><path d="M244.69339,104.25312c0,0 1.48461,-0.34319 2.96975,-0.91293c0.59167,-0.22698 1.19084,-0.44355 1.743,-0.72911c0.76452,-0.39537 1.49126,-0.35226 1.77901,-0.86268c0.21926,-0.38893 0.35914,-1.8295 0.45768,-3.31379c0.2056,-3.09697 0.20926,-7.19276 0.20926,-7.19276c0,0 0.137,0.47248 0.18941,1.31885c0.11952,1.93032 -0.15549,5.05269 -0.068,6.35532c0.07363,1.09624 0.65756,2.94893 0.65756,2.94893c0,0 0.33065,0.14781 0.93678,-0.04179c1.05367,-0.3296 2.72512,-1.02065 3.40529,-1.00572c2.50848,0.05506 3.49227,0.36705 3.49227,0.36705c0,0 -1.28558,-0.12655 -2.7436,0.12412c-0.92036,0.15823 -1.95073,0.54218 -2.85504,0.94089c-0.1618,0.07134 -0.37198,-0.02276 -0.52445,0.0525c-0.23708,0.11705 -0.40884,0.40584 -0.61505,0.52884c-0.47492,0.2833 -0.85459,0.57672 -1.07746,0.85398c-0.04692,0.05837 -0.20675,0.23566 -0.27981,0.66406c-0.22005,1.29011 -0.44486,4.03547 -0.77569,6.07808c-0.26305,1.6241 -0.65861,2.80152 -0.65861,2.80152c0,0 0.16423,-4.13183 0.02571,-6.71513c-0.06023,-1.12336 0.10701,-2.1431 -0.15524,-2.48602c-0.13156,-0.17203 -1.02178,-0.2523 -2.31775,-0.18242c-1.65581,0.08928 -3.79505,0.40824 -3.79505,0.40824z" fill="#ff0000" stroke="none" stroke-width="0"/><path d="M230.8567,105.92922c0,0 2.00638,-0.68953 2.78627,-0.84821c0.73225,-0.14899 2.12446,-0.16062 2.12446,-0.16062c0,0 0.18406,-0.77938 0.39153,-1.73305c0.18424,-0.84693 0.47268,-1.55695 0.58132,-2.25504c0.17274,-1.11008 0.13945,-3.58933 0.30643,-5.06107c0.12925,-1.13919 0.49056,-1.81764 0.49056,-1.81764c0,0 -0.29916,1.18677 -0.31341,2.63164c-0.01577,1.59745 0.07085,3.6876 0.13724,4.63439c0.06799,0.96966 0.60098,2.79063 0.60098,2.79063l5.56659,0.05858c0,0 -0.78512,0.61193 -2.12726,0.86639c-1.45372,0.27562 -3.48371,0.21206 -3.77528,0.6805c-0.08088,0.12993 -0.24573,0.21276 -0.32524,0.97225c-0.27761,2.65178 -0.43557,8.44756 -0.43557,8.44756c0,0 -0.15467,-4.70028 -0.34718,-7.21299c-0.04095,-0.53448 -0.17203,-0.88484 -0.20511,-1.16486c-0.08296,-0.70216 -0.36783,-1.15636 -0.36783,-1.15636c0,0 -0.85791,-0.17541 -1.3488,-0.16831c-0.83266,0.01203 -3.73966,0.49623 -3.73966,0.49623z" fill="#ff0000" stroke="none" stroke-width="0"/><path d="M249.0127,95.75625v-2.43316l0.79144,-0.35294l-0.05882,2.25668z" fill="#d396fc" stroke="none" stroke-width="0"/><path d="M249.05548,92.27496c0,0 -0.15787,-0.42777 -0.14828,-0.64839c0.01,-0.22997 0.03063,-0.70455 0.03063,-0.70455c0,0 0.31057,-0.08278 0.45261,-0.16268c0.16747,-0.09421 0.48856,-0.36673 0.48856,-0.36673l-0.05882,1.70588z" fill="#d396fc" stroke="none" stroke-width="0"/><path d="M248.64372,89.51027v-1.2353l0.70588,-0.29412v1.00001z" fill="#d396fc" stroke="none" stroke-width="0"/><path d="M248.03832,96.39262c0,0.0934 -0.17667,0.16911 -0.3946,0.16911c-0.21794,0 -0.39461,-0.07571 -0.39461,-0.16911c0,-0.0934 0.17667,-0.16912 0.39461,-0.16912c0.21794,0 0.3946,0.07572 0.3946,0.16912z" fill="#d396fc" stroke="none" stroke-width="0"/><path d="M240.66305,132.75482c0,0.27614 -0.18655,0.5 -0.41667,0.5c-0.23012,0 -0.41667,-0.22386 -0.41667,-0.5c0,-0.27614 0.18655,-0.5 0.41667,-0.5c0.23012,0 0.41667,0.22386 0.41667,0.5z" fill="#000000" stroke="none" stroke-width="0"/></g><g><g><path d="M264.73555,134.72626c-0.59744,7.5326 -4.73438,11.63157 -12.21138,11.38835c-5.84785,-0.19022 -11.8478,-6.99329 -11.25036,-14.52589c0.59743,-7.53261 5.89883,-12.61858 13.35636,-12.0271c1.16622,0.09249 2.21506,0.52396 3.17667,0.9091c5.18752,2.07769 7.43272,7.90089 6.92871,14.25554z" fill="#485e84" stroke="#000000" stroke-width="2" stroke-linecap="butt"/><path d="M243.30456,138.17899c0,0 2.84786,0.44755 3.51054,-0.3058c6.35667,-7.22642 7.43028,-14.17751 7.60992,-16.50364c0.04082,-0.5285 -0.41764,-0.8542 -0.41764,-0.8542c0,0 1.05831,-0.0276 2.37096,0.37463c1.39677,0.42799 3.08341,1.31869 4.1547,2.42393c1.2237,1.2625 3.25928,4.9083 3.25928,4.9083l0.81184,10.46058c0,0 -4.72939,4.79829 -5.71113,5.26128c-0.96177,0.45357 -2.22995,0.71442 -3.56716,1.04605c-2.0762,0.5149 -4.33559,0.26164 -5.66601,-0.29573c-1.69791,-0.71132 -3.44691,-2.25964 -4.63733,-3.75487c-1.10791,-1.39159 -1.71794,-2.76053 -1.71794,-2.76053z" fill="#343545" stroke="none" stroke-width="0" stroke-linecap="butt"/><path d="M255.54168,137.96403c0,0 -4.48076,0.58366 -6.71523,-0.71035c-2.82861,-1.63809 -7.31749,-6.33027 -7.31749,-6.33027" fill="none" stroke="#000000" stroke-width="1" stroke-linecap="round"/><path d="M251.12175,120.10412c0,0 3.43011,1.02943 5.28457,2.12234c1.87216,1.10334 4.92036,4.88828 4.92036,4.88828" fill="none" stroke="#000000" stroke-width="1" stroke-linecap="round"/><path d="M256.66542,143.34245c0,0 -4.5905,0.66783 -6.94695,-0.844c-3.61589,-2.31985 -7.80358,-6.34476 -7.80358,-6.34476" fill="none" stroke="#000000" stroke-width="1" stroke-linecap="round"/><path d="M249.1595,144.8446c0,0 -4.72519,-7.26586 -1.50849,-15.37717c3.52349,-8.88494 12.12038,-8.03893 12.12038,-8.03893" fill="none" stroke="#000000" stroke-width="1" stroke-linecap="round"/><path d="M253.82168,145.85274c0,0 -3.56476,-8.17155 -0.74166,-15.33524c2.31801,-5.88205 9.62605,-5.84682 9.62605,-5.84682" fill="none" stroke="#000000" stroke-width="1" stroke-linecap="round"/><path d="M245.92017,125.43396c-0.35473,0.487 -0.95484,0.65412 -1.34037,0.3733c-0.38555,-0.28082 -0.1602,-0.60982 0.19452,-1.09682c0.35473,-0.487 0.70452,-0.94756 1.09006,-0.66674c0.38555,0.28082 0.41052,0.90327 0.05579,1.39026z" fill="#8fbbbe" stroke="none" stroke-width="0" stroke-linecap="butt"/><path d="M248.44488,122.81003c-0.02382,0.3003 -0.40829,0.51478 -0.85874,0.47906c-0.45046,-0.03572 -0.62945,-0.11251 -0.60563,-0.41281c0.02382,-0.3003 0.41547,-0.60541 0.86593,-0.56968c0.45046,0.03572 0.62225,0.20314 0.59843,0.50344z" fill="#8fbbbe" stroke="none" stroke-width="0" stroke-linecap="butt"/><path d="M243.90627,128.25361c-0.08352,0.44409 -0.39121,0.75895 -0.68726,0.70327c-0.29605,-0.05567 -0.19648,-0.43925 -0.11297,-0.88333c0.08352,-0.44409 0.11933,-0.78052 0.41539,-0.72483c0.29605,0.05567 0.46836,0.46082 0.38485,0.90489z" fill="#8fbbbe" stroke="none" stroke-width="0" stroke-linecap="butt"/><path d="M244.33174,140.17555c0,0 -1.27466,-4.96316 -0.79288,-8.72762c0.27315,-2.13425 1.25066,-3.921 2.00693,-5.2673c0.66881,-1.19061 3.27735,-3.20013 5.43403,-4.53047c1.58784,-0.97947 2.96567,-1.50448 2.96567,-1.50448" fill="none" stroke="#000000" stroke-width="0.5" stroke-linecap="round"/><path d="M244.50491,123.04469c0,0 5.25856,0.6213 7.64475,1.89989c2.01043,1.07725 5.7536,5.09043 5.7536,5.09043" fill="none" stroke="#000000" stroke-width="1" stroke-linecap="round"/><path d="M256.86481,132.77968c0,0 -4.80095,-0.62164 -6.90136,-1.46905c-3.68793,-1.4879 -7.14572,-5.39032 -7.14572,-5.39032" fill="none" stroke="#000000" stroke-width="1" stroke-linecap="round"/></g><g stroke-linecap="butt"><path d="M256.26338,149.10458c0.53625,-1.73917 0.9334,-3.13831 0.9692,-3.26947c0.07499,-0.27475 -0.65409,-3.13002 -1.10854,-6.22081c-0.49499,-3.36649 -0.58825,-6.83634 -0.50562,-7.13737c0.38763,-1.41218 2.62624,-2.87971 4.23139,-4.20559c2.39839,-1.98113 4.76569,-4.10951 5.56358,-4.04623c1.01576,0.08056 1.89039,2.32372 3.14192,2.96595c1.02582,0.52639 4.72763,0.68154 5.83317,1.44281c0.80919,0.55721 1.28303,1.57531 2.05233,2.22848c0.80014,0.67932 2.52463,0.32608 3.27531,1.06557c0.77449,0.76295 1.48693,1.71344 2.15631,2.54071c0.87642,1.08312 4.14894,1.52965 4.83171,2.60927c2.39152,3.78154 1.05507,7.86559 0.60824,8.55625c-2.51233,3.88336 -5.70432,6.72091 -7.31471,8.2486c-1.12458,1.06682 -3.21398,1.49242 -4.81235,0.70119c-1.32585,-0.65634 -2.05093,-1.9674 -3.11634,-2.56091c-1.03893,-0.57876 -2.24401,0.05083 -2.24401,0.05083c0,0 1.53557,2.15 1.24115,4.25144c-0.25715,1.83551 -1.61892,3.75901 -3.55745,3.09246c-1.79541,-0.61735 -3.51146,-4.52396 -5.024,-5.10664c-1.90778,-0.73496 -4.64321,0.29384 -5.75946,-0.44039c-1.3176,-0.86667 -0.66046,-4.12188 -0.46182,-4.76612z" fill="#d396fc" stroke="#000000" stroke-width="1.5"/><path d="M257.4176,140.75747c0,0 -1.48152,-7.37262 -0.90988,-8.50299c0.6288,-1.24339 3.6734,-3.36112 5.28933,-4.56514c0.60085,-0.44769 1.00838,-0.8221 1.00838,-0.8221c0,0 0.76807,0.9084 1.28111,2.07312c0.49129,1.11535 0.73249,2.47961 0.55996,2.89329c-0.34824,0.83501 -3.04801,1.2845 -4.33359,2.81068c-0.31926,0.37902 -0.16909,4.9497 -0.47297,5.34008c-0.71579,0.91951 -1.39114,0.92215 -1.88173,0.89162c-0.43596,-0.02713 -0.5406,-0.11856 -0.5406,-0.11856z" fill="#ffc6ef" stroke="none" stroke-width="0"/><path d="M266.8341,145.06089c0,0 2.73818,-6.80469 3.22095,-8.92106c0.26657,-1.16858 -0.35468,-3.07168 -0.35468,-3.07168c0,0 3.08062,-1.07167 3.35098,0.64571c0.22957,1.45828 -0.18975,7.86003 -1.97091,10.53117c-1.2553,1.88252 -4.24633,0.81587 -4.24633,0.81587z" fill="#ffc6ef" stroke="none" stroke-width="0"/><path d="M272.21563,148.49713c0,0 2.83608,-6.51938 3.35231,-8.89045c0.42028,-1.93036 -0.48323,-4.28759 -0.48323,-4.28759c0,0 2.58394,-0.26433 3.57279,0.74622c0.72983,0.74584 1.51204,2.12672 1.43737,3.56582c-0.0647,1.24693 -0.95272,2.22699 -1.475,3.55435c-0.82752,2.10315 -1.59815,4.36772 -2.54225,5.39421c-0.51187,0.55654 -3.86199,-0.08255 -3.86199,-0.08255z" fill="#ffc6ef" stroke="none" stroke-width="0"/><path d="M261.14194,143.24153c0,0 3.42148,-8.04576 4.1313,-10.55857c0.37914,-1.34215 -0.20065,-3.35603 -0.20065,-3.35603c0,0 3.76537,1.352 3.81884,1.966c0.08139,0.93457 0.02172,2.43968 -0.22919,4.08133c-0.58959,3.8575 -1.82534,8.50134 -1.82534,8.50134c0,0 -3.42543,0.03365 -4.36596,-0.07106c-0.95749,-0.10661 -1.32901,-0.56301 -1.32901,-0.56301z" fill="#ffc6ef" stroke="none" stroke-width="0"/><path d="M257.37629,147.14236c0,0 -1.47546,-12.87991 -1.38474,-13.79189c0.032,-0.3218 0.45525,2.76672 0.98839,5.41885c0.34846,1.73343 0.89136,3.3966 0.89136,3.3966c0,0 0.16838,2.51364 0.77323,3.19877c0.1974,0.22359 0.43883,0.16103 0.71292,-0.15784c0.59928,-0.69721 1.45729,-4.15542 2.1883,-6.57596c0.26444,-0.87563 0.58632,-1.54991 0.75414,-1.81518c0.21194,-0.33499 -0.89308,0.03701 -0.89308,0.03701c0,0 0.81196,-2.00235 1.34186,-2.72513c0.38172,-0.52066 1.3626,-0.77324 1.68587,-1.1953c0.38763,-0.5061 0.15545,-2.25297 0.39196,-3.25154c0.14614,-0.61703 0.60287,-0.64278 0.7097,-0.49631c0.14114,0.19352 0.91075,2.47261 0.57498,3.56589c-1.04894,3.41535 -4.2456,9.03957 -4.71107,12.07667c-0.27222,1.77617 1.14121,3.57847 1.40581,3.71643c0.68465,0.35699 1.66589,0.52999 2.37144,0.35464c0.05133,-0.01275 -0.6812,-1.28303 -0.34467,-2.55953c0.33382,-1.26622 0.73258,-3.04599 1.56093,-4.86763c0.93572,-2.05777 2.31953,-4.17691 2.90702,-5.81791c0.10989,-0.30695 0.11356,-2.95715 0.16273,-2.95507c0.27012,0.01146 1.79969,3.08845 1.21998,4.14629c-0.53479,0.97586 -1.02044,2.56255 -1.72548,4.18004c-0.71193,1.63327 -1.36146,3.38403 -1.84694,4.58659c-0.39682,0.98293 -0.33052,2.10437 -0.3247,2.11863c0.22962,0.56301 0.70776,1.17872 1.18156,1.86213c0.40989,0.59122 0.82728,1.09744 1.10709,1.29371c0.76155,0.53417 1.65476,0.01269 1.65476,0.01269c0,0 -0.68525,-1.13902 -0.39127,-2.31409c0.2325,-0.92936 1.25603,-3.03166 2.33588,-5.22837c0.21659,-0.4406 0.47546,-0.96928 0.73435,-1.40352c0.64983,-1.08996 1.33786,-2.06529 1.6373,-3.08716c0.3302,-1.12679 -0.24764,-2.551 -0.38631,-3.42869c-0.08229,-0.52077 -0.07885,-0.85462 -0.07885,-0.85462c0,0 0.94897,0.92991 1.3723,2.10368c0.37565,1.04156 0.51141,2.30832 0.39708,3.09204c-0.34367,2.35595 -3.54,6.47121 -3.64429,9.59371c-0.04516,1.35217 2.32587,4.89866 2.32587,4.89866c0,0 -3.64694,-2.36284 -4.27375,-2.11933c-0.53465,0.2077 0.04336,5.4407 0.04336,5.4407c0,0 -0.73897,-1.62015 -1.29445,-2.95687c-0.3762,-0.90531 -0.57012,-1.67282 -0.77032,-1.7489c-0.44896,-0.17062 -0.92991,-0.37849 -1.13259,-0.55113c-0.51997,-0.44288 -1.24892,-1.80074 -1.24892,-1.80074c0,0 -1.43162,0.03845 -2.77301,-0.19055c-0.93366,-0.15939 -1.81621,-0.54179 -2.1729,-0.7656c-0.93727,-0.5881 -1.14007,-2.21309 -1.14007,-2.21309c0,0 -0.97531,0.01637 -1.45821,-0.02065c-0.48134,-0.03691 -1.43451,-0.20117 -1.43451,-0.20117z" fill="#000000" stroke="none" stroke-width="0"/><path d="M263.20385,126.44286c0,0 1.54205,-1.6104 2.13031,-1.56374c0.55806,0.04426 2.2456,2.73156 2.2456,2.73156c0,0 -1.87466,-0.2465 -2.61469,-0.47901c-0.6782,-0.21308 -1.76121,-0.68881 -1.76121,-0.68881z" fill="#ffc6ef" stroke="none" stroke-width="0"/><path d="M267.65602,127.79913c0,0 3.29142,0.78342 4.45028,1.0268c0.74081,0.15559 2.08625,0.49477 2.08625,0.49477c0,0 -2.06871,0.90818 -3.03613,1.20887c-0.68435,0.21271 -2.89518,-0.31645 -3.6953,-0.93729c-0.6975,-0.5412 0.19489,-1.79316 0.19489,-1.79316z" fill="#ffc6ef" stroke="none" stroke-width="0"/><path d="M274.56533,133.8188c0.02623,-0.33073 0.29419,-0.98463 0.45043,-1.45329c0.14228,-0.42681 0.40677,-1.30576 0.40677,-1.30576c0,0 0.30297,0.50403 0.77002,0.61858c0.7102,0.17418 2.86653,0.67298 2.86653,0.67298c0,0 0.12496,1.39191 -1.0957,1.79746c-1.00646,0.33438 -3.41692,-0.09179 -3.39803,-0.32997z" fill="#ffc6ef" stroke="none" stroke-width="0"/><path d="M280.08984,136.91027c0.09929,-0.63952 0.71423,-2.41428 0.71423,-2.41428c0,0 0.4282,0.61239 1.05249,0.91688c0.54255,0.26462 1.14303,0.56504 1.49239,0.76366c0.55604,0.31611 1.73759,0.6654 1.73759,0.6654c0,0 -1.84668,1.13901 -3.1173,1.12624c-1.07918,-0.01085 -1.91841,-0.80662 -1.8794,-1.0579z" fill="#ffc6ef" stroke="none" stroke-width="0"/></g><g stroke="#000000" stroke-width="1.5" stroke-linecap="butt"><path d="M280.04677,145.40722c0.5917,-1.71561 2.47848,-2.18278 2.69153,-2.84064c0.22622,-0.69855 0.53582,-1.55835 0.65103,-1.57312c0.10953,-0.01405 -0.32967,1.52417 0.24031,1.56938c0.56121,0.04451 2.14707,0.60675 3.55778,1.49576c2.38002,1.49983 5.61278,3.60892 5.61278,3.60892c0,0 -0.62806,1.18013 -1.28973,3.58376c-0.41754,1.51677 -2.75777,3.75556 -2.75777,3.75556c0,0 -7.64534,-1.83493 -8.62846,-2.77823c-1.48181,-1.4218 -0.46562,-5.696 -0.07747,-6.82138z" fill="#485e84"/><path d="M289.32853,154.59525c-0.11491,0.27665 -0.42964,0.34232 -0.69176,0.0062c-0.64008,-0.82074 -1.59628,-2.52082 -0.59577,-4.50066c0.72588,-1.43639 2.16217,-1.97669 3.12968,-2.17989c0.57243,-0.12023 0.87973,0.12081 0.71551,0.51626c0,0 -2.23069,5.37086 -2.55765,6.15809z" fill="#343545"/></g></g></g></g></svg>