<svg version="1.1" xmlns="http://www.w3.org/2000/svg" xmlns:xlink="http://www.w3.org/1999/xlink" width="275.82077" height="309.58" viewBox="0,0,275.82077,309.58"><g transform="translate(-168.42457,-20.99811)"><g data-paper-data="{&quot;isPaintingLayer&quot;:true}" fill-rule="nonzero" stroke-linecap="butt" stroke-linejoin="miter" stroke-miterlimit="10" stroke-dasharray="" stroke-dashoffset="0" style="mix-blend-mode: normal"><g data-paper-data="{&quot;index&quot;:null}" stroke="#000000"><path d="M433.68844,217.4135l-46.19311,-6.88834l9.37795,-48.76314l46.19311,6.88834z" fill="#ffcaa0" stroke-width="2"/><g><path d="M387.63787,210.71074l-63.69525,-9.4983l9.50018,-49.39871l63.69525,9.4983z" fill="#0000c0" stroke-width="2"/><path d="M387.97883,210.03019l-33.36169,-4.97492c0,0 16.69971,-12.71007 18.27688,-20.91089c1.49538,-7.7756 -9.04622,-27.08634 -9.04622,-27.08634l33.3617,4.97492c0,0 -3.03605,15.78678 -4.56623,23.74332c-1.54654,8.04164 -4.66442,24.25393 -4.66442,24.25393z" fill="#56006b" stroke-width="0"/></g><path d="M433.31065,216.57944l-46.19311,-6.88834l33.71451,-7.84113l21.85652,-34.03365z" fill="#ff6e5b" stroke-width="0"/></g><g data-paper-data="{&quot;index&quot;:null}" stroke="#000000"><path d="M298.86371,329.15801v-85.34177h61.17899v85.34177z" fill="#273750" stroke-width="2"/><path d="M299.65105,328.44275v-85.34177l18.42709,46.62273l42.75189,38.71904z" fill="#1f1e2e" stroke-width="0"/></g><path d="M246.87899,243.42742v-107.58727h113.80147v107.58727z" data-paper-data="{&quot;index&quot;:null}" fill="#0000c0" stroke="#000000" stroke-width="2"/><g data-paper-data="{&quot;index&quot;:null}" stroke="#000000"><path d="M246.25776,329.57811v-85.34177h61.17899v85.34177z" fill="#273750" stroke-width="2"/><path d="M247.04514,328.86283v-85.34177l18.42709,46.62273l42.75189,38.71904z" fill="#1f1e2e" stroke-width="0"/></g><g data-paper-data="{&quot;index&quot;:null}" stroke="#000000"><path d="M169.81986,221.90711l24.75995,-38.26l43.3115,26.65687l-24.75995,38.26z" fill="#ffcaa0" stroke-width="2"/><g><path d="M194.34504,183.7033l34.14125,-52.75634l43.876,27.00433l-34.14125,52.75634z" fill="#0000c0" stroke-width="2"/><path d="M194.86708,184.26113l17.88219,-27.63221c0,0 5.69658,19.55577 12.98056,24.03883c6.9063,4.25062 29.65063,2.19934 29.65063,2.19934l-17.88219,27.63222c0,0 -14.02183,-8.63 -21.08885,-12.97952c-7.14258,-4.39604 -21.54236,-13.25866 -21.54236,-13.25866z" fill="#56006b" stroke-width="0"/></g><path d="M170.7718,221.88708l24.75995,-38.26l-5.67044,32.77043l24.22196,32.14643z" fill="#ff6e5b" stroke-width="0"/></g><g data-paper-data="{&quot;index&quot;:null}" stroke="#000000"><path d="M273.77207,242.98381v-105.58477h61.17899v105.58477z" fill="#ffffff" stroke-width="2"/><path d="M274.55945,242.0989v-105.58477l18.42709,57.6816l42.75189,47.90317z" fill="#8ebbfc" stroke-width="0"/></g><g><g data-paper-data="{&quot;index&quot;:null}" stroke="#000000"><path d="M403.87803,114.34146c-7.58351,29.55154 -25.27536,50.78064 -39.51587,47.41649c-14.2405,-3.36414 -19.63705,-30.04756 -12.05354,-59.5991c7.58351,-29.55154 25.27536,-50.78064 39.51587,-47.41649c14.2405,3.36414 19.63705,30.04756 12.05354,59.5991z" fill="#01930e" stroke-width="2"/><path d="M363.59236,95.04506c-7.58351,29.55154 15.5029,69.77086 1.2624,66.40672c-14.24049,-3.36413 -19.63705,-30.04756 -12.05354,-59.5991c7.58351,-29.55154 18.37465,-36.35917 10.79114,-6.80762z" fill="#31525b" stroke-width="0"/></g><g data-paper-data="{&quot;index&quot;:null}" stroke="#000000"><path d="M231.89345,72.18509c0.32412,-1.26305 7.3089,-24.92041 7.72729,-26.14065c10.57244,-30.83477 44.06773,-25.34134 85.29829,-15.60117c38.72962,9.14937 71.11573,21.22068 69.57814,51.31035c-0.16407,3.21067 -6.56497,23.90069 -7.3859,27.09967c-2.93428,11.43433 -6.47951,37.25195 -15.97783,44.65802c-18.06294,14.08414 -48.95695,3.7199 -77.04777,-2.91619c-29.70095,-7.01646 -57.62905,-12.65912 -65.80721,-34.71206c-3.62396,-9.77223 1.00054,-33.51001 3.61497,-43.69796z" fill="#ffcaa0" stroke-width="2"/><path d="M230.11013,71.77374c0.32412,-1.26305 7.3089,-24.92041 7.72729,-26.14065c6.00676,-17.51884 -7.59221,57.14146 33.66515,88.22592c32.33208,24.35992 102.32603,16.31329 98.50725,19.29088c-18.06294,14.08414 -49.61664,3.66993 -77.70742,-2.96615c-29.70095,-7.01646 -57.62905,-12.65912 -65.80721,-34.71206c-3.62396,-9.77223 1.00054,-33.51001 3.61497,-43.69796z" fill="#ff6e5b" stroke-width="0"/></g><g data-paper-data="{&quot;index&quot;:null}" stroke="#000000"><path d="M276.06765,82.12954c-7.58351,29.55154 -25.27536,50.78064 -39.51587,47.41649c-14.2405,-3.36414 -19.63705,-30.04756 -12.05354,-59.5991c7.58351,-29.55154 25.27536,-50.78064 39.51587,-47.41649c14.2405,3.36414 19.63705,30.04756 12.05354,59.5991z" fill="#01930e" stroke-width="2"/><path d="M235.78198,62.83313c-7.58351,29.55154 15.5029,69.77086 1.2624,66.40672c-14.24049,-3.36413 -19.63705,-30.04756 -12.05354,-59.5991c7.58351,-29.55154 18.37465,-36.35917 10.79114,-6.80762z" fill="#31525b" stroke-width="0"/></g><g data-paper-data="{&quot;index&quot;:null}"><path d="M411.82586,78.40033c-4.1587,16.20568 -47.70747,19.85159 -97.26888,8.14335c-49.56142,-11.70825 -86.3676,-34.33695 -82.2089,-50.54262c4.1587,-16.20568 47.70745,-19.85159 97.26887,-8.14334c49.56142,11.70825 86.36761,34.33694 82.20891,50.54262z" fill="#000000" stroke="none" stroke-width="NaN"/><path d="M411.03555,78.54872c-4.1587,16.20568 -47.70747,19.85159 -97.26888,8.14335c-49.56142,-11.70825 -86.3676,-34.33695 -82.2089,-50.54262c4.1587,-16.20568 39.48531,17.93997 89.04674,29.64822c49.56142,11.70825 94.58975,-3.45461 90.43105,12.75106z" fill="#ff0000" stroke="#000000" stroke-width="2"/><path d="M403.63813,85.75188c-1.14444,4.45966 -40.83677,13.20757 -90.06087,0.18485c-17.22546,-4.55716 -33.20204,-9.91961 -45.84654,-15.78149c-23.47465,-10.8826 -36.65766,-22.34968 -33.43363,-25.56829c3.32985,-3.32424 32.60907,24.12985 82.17049,35.83808c49.56142,11.70825 88.31498,0.86716 87.17054,5.32684z" fill="#900056" stroke="#000000" stroke-width="0"/></g><path d="M328.78211,119.18947c-3.70107,14.42238 -9.52337,25.44739 -13.00448,24.62502c-3.48111,-0.82237 -3.3028,-13.18068 0.39828,-27.60307c3.70107,-14.42238 9.52338,-25.44737 13.00448,-24.62501c3.48111,0.82237 3.3028,13.18068 -0.39828,27.60308z" data-paper-data="{&quot;index&quot;:null}" fill="#000000" stroke="none" stroke-width="0"/><path d="M354.81296,121.133c-3.68627,14.3647 -9.34804,25.37802 -12.64593,24.59893c-3.2979,-0.77908 -2.98305,-13.05554 0.70322,-27.42025c3.68627,-14.3647 9.34804,-25.37802 12.64593,-24.59893c3.2979,0.77908 2.98305,13.05554 -0.70322,27.42025z" data-paper-data="{&quot;index&quot;:null}" fill="#000000" stroke="none" stroke-width="0"/><path d="M293.75863,125.11972c0.08371,-0.23702 0.44908,-1.04198 1.48839,-0.79646c1.21425,0.28686 0.91992,1.43384 0.91992,1.43384l-0.16526,0.4323c-0.96026,1.54686 -1.88168,3.11216 -2.89147,4.63009c-0.97549,1.25357 -1.81216,2.75551 -2.8642,3.93681c-2.72309,3.05762 -7.54575,1.90675 -8.12692,-2.14195c-0.59747,-4.1623 2.37801,-9.68632 4.87218,-12.90237c0,0 0.73873,-0.94843 1.74637,-0.2425c1.00764,0.70595 0.26891,1.65439 0.26891,1.65439c-2.18699,2.79438 -3.98578,6.63209 -4.44608,10.1321c-0.51025,3.87968 2.93931,3.08463 4.52028,0.81851c0.69391,-0.99463 1.22289,-1.64914 1.96158,-2.59665c0.94904,-1.42803 1.8154,-2.90199 2.7163,-4.35812z" data-paper-data="{&quot;index&quot;:null}" fill="#000000" stroke="none" stroke-width="0.5"/></g></g></g></svg>