<svg version="1.1" xmlns="http://www.w3.org/2000/svg" xmlns:xlink="http://www.w3.org/1999/xlink" width="210.33929" height="307.65528" viewBox="0,0,210.33929,307.65528"><g transform="translate(-244.19364,-22.92283)"><g data-paper-data="{&quot;isPaintingLayer&quot;:true}" fill-rule="nonzero" stroke-linejoin="miter" stroke-miterlimit="10" stroke-dasharray="" stroke-dashoffset="0" style="mix-blend-mode: normal"><g data-paper-data="{&quot;index&quot;:null}" stroke="#000000" stroke-linecap="butt"><path d="M422.11635,265.45726l-38.15103,-29.22842l31.0146,-40.48248l38.15103,29.22842z" fill="#ffcaa0" stroke-width="2"/><g><path d="M384.00682,236.4711l-52.6061,-40.3028l31.41885,-41.01013l52.6061,40.3028z" fill="#ff0008" stroke-width="2"/><path d="M384.62771,236.01006l-27.55352,-21.10941c0,0 20.84359,-3.49878 26.05952,-10.30699c4.94549,-6.4552 4.46794,-29.53965 4.46794,-29.53965l27.55352,21.10942c0,0 -10.04079,13.10596 -15.10135,19.71137c-5.11469,6.67606 -15.42611,20.13527 -15.42611,20.13527z" fill="#8d005e" stroke-width="0"/></g><path d="M422.16512,264.49856l-38.15103,-29.22842l33.81454,9.42482l35.35109,-20.67888z" fill="#ff6e5b" stroke-width="0"/></g><g data-paper-data="{&quot;index&quot;:null}" stroke="#000000" stroke-linecap="butt"><path d="M447.81354,108.47609c-4.44325,31.89729 -19.81564,56.11554 -34.3352,54.09299c-14.51956,-2.02256 -22.68801,-29.52002 -18.24476,-61.41731c4.44325,-31.89729 19.81564,-56.11554 34.3352,-54.09299c14.51956,2.02256 22.68801,29.52002 18.24476,61.41731z" fill="#01930e" stroke-width="2"/><path d="M405.71228,92.46594c-4.44325,31.89729 22.74353,71.75111 8.22398,69.72856c-14.51955,-2.02256 -22.68801,-29.52002 -18.24476,-61.41731c4.44325,-31.89729 14.46403,-40.20854 10.02078,-8.31125z" fill="#31525b" stroke-width="0"/></g><g data-paper-data="{&quot;index&quot;:null}" stroke="#000000" stroke-linecap="butt"><path d="M298.86371,329.13374v-90.27109h61.17899v90.27109z" fill="#273750" stroke-width="2"/><path d="M299.65105,328.37717v-90.27109l18.42709,49.31565l42.75189,40.95544z" fill="#1f1e2e" stroke-width="0"/></g><path d="M245.43177,237.43365l31.56384,-109.33663l109.33663,31.56384l-31.56384,109.33663z" data-paper-data="{&quot;index&quot;:null}" fill="#ff0008" stroke="#000000" stroke-width="2" stroke-linecap="butt"/><g data-paper-data="{&quot;index&quot;:null}" stroke="#000000" stroke-linecap="butt"><path d="M246.25776,329.57811v-90.27109h61.17899v90.27109z" fill="#273750" stroke-width="2"/><path d="M247.04514,328.82151v-90.27109l18.42709,49.31565l42.75189,40.95544z" fill="#1f1e2e" stroke-width="0"/></g><g data-paper-data="{&quot;index&quot;:null}" fill="#000000" stroke="#000000" stroke-linecap="butt"><path d="M271.39988,244.44187l30.97636,-107.30159l58.77872,16.96853l-30.97636,107.30159z" stroke-width="2"/><path d="M272.41598,243.76095l30.97636,-107.30159l0.78156,63.73043l27.02079,60.5397z" stroke-width="0"/></g><g data-paper-data="{&quot;index&quot;:null}" stroke="#000000" stroke-linecap="butt"><path d="M272.29851,82.44265c0.18991,-1.3633 4.65602,-26.99587 4.9442,-28.32419c7.28201,-33.56564 41.1798,-31.35369 83.21831,-25.49778c39.48856,5.50071 72.97315,14.75105 74.60089,46.57056c0.17369,3.39526 -4.02296,25.84384 -4.50395,29.29675c-1.71922,12.34197 -2.53698,39.8809 -11.20884,48.68405c-16.49127,16.74095 -48.3124,9.12761 -76.95367,5.13792c-30.28296,-4.21838 -58.65814,-7.18028 -69.10787,-29.50999c-4.63056,-9.89489 -2.52089,-35.36067 -0.98907,-46.35732z" fill="#ffcaa0" stroke-width="2"/><path d="M270.48128,82.1998c0.18991,-1.3633 4.65602,-26.99587 4.9442,-28.32419c4.13729,-19.07039 -1.55686,60.9241 42.74798,89.23235c34.7203,22.18429 103.50645,6.26422 100.01994,9.80352c-16.49127,16.74095 -48.9739,9.1453 -77.61516,5.15561c-30.28296,-4.21838 -58.65814,-7.18028 -69.10787,-29.50999c-4.63056,-9.89489 -2.52089,-35.36067 -0.98907,-46.35732z" fill="#ff6e5b" stroke-width="0"/></g><g data-paper-data="{&quot;index&quot;:null}" stroke="#000000" stroke-linecap="butt"><path d="M317.2868,88.19993c-4.44325,31.89729 -19.81564,56.11554 -34.3352,54.09299c-14.51956,-2.02256 -22.68801,-29.52002 -18.24476,-61.41731c4.44325,-31.89729 19.81564,-56.11554 34.3352,-54.09299c14.51956,2.02256 22.68801,29.52002 18.24476,61.41731z" fill="#01930e" stroke-width="2"/><path d="M275.18553,72.18979c-4.44325,31.89729 22.74353,71.75111 8.22398,69.72856c-14.51955,-2.02256 -22.68801,-29.52002 -18.24476,-61.41731c4.44325,-31.89729 14.46403,-40.20854 10.02078,-8.31125z" fill="#31525b" stroke-width="0"/></g><g data-paper-data="{&quot;index&quot;:null}" stroke-linecap="butt"><path d="M451.94875,69.81787c-2.43662,17.49207 -45.37668,25.96584 -95.90931,18.9267c-50.53262,-7.03913 -89.52213,-26.9256 -87.0855,-44.41766c2.43662,-17.49207 45.37667,-25.96583 95.9093,-18.92669c50.53262,7.03913 89.52214,26.92559 87.08551,44.41766z" fill="#000000" stroke="none" stroke-width="NaN"/><path d="M451.17812,70.05813c-2.43662,17.49207 -45.37668,25.96584 -95.90931,18.9267c-50.53262,-7.03913 -89.52213,-26.9256 -87.0855,-44.41766c2.43662,-17.49207 41.16274,14.66836 91.69536,21.70749c50.53262,7.03913 93.73607,-13.70861 91.29945,3.78346z" fill="#ff0000" stroke="#000000" stroke-width="2"/><path d="M444.57495,78.42406c-0.67054,4.81366 -39.23883,18.24427 -89.57381,9.78631c-17.61421,-2.95978 -34.0705,-6.89976 -47.26444,-11.72003c-24.49467,-8.94888 -38.81248,-19.60873 -35.94292,-23.33823c2.96375,-3.8519 34.97171,21.91274 85.50434,28.95188c50.53262,7.03913 87.94737,-8.49359 87.27684,-3.67993z" fill="#900056" stroke="#000000" stroke-width="0"/></g><path d="M373.61629,121.57444c-2.16849,15.56721 -6.80369,27.78613 -10.35302,27.29171c-3.54933,-0.49442 -4.66871,-13.51494 -2.50021,-29.08214c2.16849,-15.56721 6.8037,-27.78612 10.35302,-27.2917c3.54933,0.49442 4.66871,13.51494 2.50021,29.08215z" data-paper-data="{&quot;index&quot;:null}" fill="#000000" stroke="none" stroke-width="0" stroke-linecap="butt"/><path d="M399.7159,120.84674c-2.15982,15.50494 -6.63656,27.69447 -9.99907,27.22608c-3.36252,-0.4684 -4.33749,-13.41734 -2.17767,-28.92228c2.15982,-15.50494 6.63656,-27.69447 9.99907,-27.22608c3.36252,0.4684 4.33749,13.41734 2.17767,28.92228z" data-paper-data="{&quot;index&quot;:null}" fill="#000000" stroke="none" stroke-width="0" stroke-linecap="butt"/><path d="M380.41469,95.52157l-29.71311,-4.139" fill="none" stroke="#000000" stroke-width="5" stroke-linecap="round"/><path d="M389.73712,94.17583l23.73433,-1.26133" fill="none" stroke="#000000" stroke-width="5" stroke-linecap="round"/><g data-paper-data="{&quot;index&quot;:null}" stroke="#000000" stroke-linecap="butt"><path d="M352.56321,239.67553l-41.45711,-24.31276l25.79854,-43.99059l41.45711,24.31276z" fill="#ffcaa0" stroke-width="2"/><g><path d="M311.17709,215.5981l-57.16481,-33.52463l26.13479,-44.56397l57.16481,33.52463z" fill="#ff0008" stroke-width="2"/><path d="M311.73654,215.06417l-29.94124,-17.55921c0,0 20.2548,-6.03653 24.59351,-13.43473c4.11375,-7.01459 0.79981,-29.86492 0.79981,-29.86492l29.94125,17.55921c0,0 -8.35212,14.24169 -12.56159,21.41951c-4.25449,7.25459 -12.83173,21.88014 -12.83173,21.88014z" fill="#8d005e" stroke-width="0"/></g><path d="M352.49367,238.71813l-41.45711,-24.31276l34.71717,5.19311l32.53847,-24.87094z" fill="#ff6e5b" stroke-width="0"/></g><path d="M342.82848,136.83333c0,5.98308 -2.83553,10.83333 -6.33333,10.83333c-3.4978,0 -6.33333,-4.85025 -6.33333,-10.83333c0,-5.98308 2.83553,-10.83333 6.33333,-10.83333c3.4978,0 6.33333,4.85025 6.33333,10.83333z" fill="#000000" stroke="none" stroke-width="0" stroke-linecap="butt"/></g></g></svg>