<svg version="1.1" xmlns="http://www.w3.org/2000/svg" xmlns:xlink="http://www.w3.org/1999/xlink" width="222.37959" height="306.52369" viewBox="0,0,222.37959,306.52369"><g transform="translate(-184.78105,-24.05442)"><g data-paper-data="{&quot;isPaintingLayer&quot;:true}" fill-rule="nonzero" stroke-linecap="butt" stroke-linejoin="miter" stroke-miterlimit="10" stroke-dasharray="" stroke-dashoffset="0" style="mix-blend-mode: normal"><g data-paper-data="{&quot;index&quot;:null}" stroke="#000000"><path d="M270.54168,229.18788l25.6796,-39.77566l53.66592,21.43032l-25.6796,39.77566z" fill="#ffcaa0" stroke-width="2"/><g><path d="M295.94913,189.4912l35.40935,-54.8463l54.3654,21.70965l-35.40935,54.8463z" fill="#0000c0" stroke-width="2"/><path d="M296.61809,189.97953l18.54637,-28.72687c0,0 8.55838,18.42668 17.58372,22.03076c8.55738,3.41721 35.23928,-0.93703 35.23928,-0.93703l-18.54637,28.72688c0,0 -17.37402,-6.93794 -26.13053,-10.43466c-8.85017,-3.53412 -26.69248,-10.65906 -26.69248,-10.65906z" fill="#56006b" stroke-width="0"/></g><path d="M271.6646,229.06964l25.6796,-39.77566l-3.63737,32.45689l31.6237,28.74909z" fill="#ff6e5b" stroke-width="0"/></g><g data-paper-data="{&quot;index&quot;:null}" stroke="#000000"><path d="M406.16065,89.80476c0,29.89266 -14.02566,54.12547 -31.32719,54.12547c-17.30153,0 -31.32719,-24.2328 -31.32719,-54.12547c0,-29.89266 14.02566,-54.12547 31.32719,-54.12547c17.30153,0 31.32719,24.2328 31.32719,54.12547z" fill="#01930e" stroke-width="2"/><path d="M354.34073,80.47786c0,29.89266 38.26854,63.04938 20.96702,63.04938c-17.30152,0 -31.32719,-24.2328 -31.32719,-54.12547c0,-29.89266 10.36017,-38.81657 10.36017,-8.92391z" fill="#31525b" stroke-width="0"/></g><g data-paper-data="{&quot;index&quot;:null}" stroke="#000000"><path d="M279.52811,329.16565v-83.7889h72.20384v83.7889z" fill="#273750" stroke-width="2"/><path d="M280.45733,328.46341v-83.7889l21.74777,45.77439l50.45604,38.0145z" fill="#1f1e2e" stroke-width="0"/></g><path d="M218.17541,244.995v-105.6296h134.30923v105.6296z" data-paper-data="{&quot;index&quot;:null}" fill="#0000c0" stroke="#000000" stroke-width="2"/><g data-paper-data="{&quot;index&quot;:null}" stroke="#000000"><path d="M217.44223,329.57811v-83.7889h72.20384v83.7889z" fill="#273750" stroke-width="2"/><path d="M218.3715,328.87583v-83.7889l21.74777,45.77439l50.45604,38.0145z" fill="#1f1e2e" stroke-width="0"/></g><g data-paper-data="{&quot;index&quot;:null}" stroke="#000000"><path d="M249.91481,244.55947v-103.66355h72.20384v103.66355z" fill="#ffffff" stroke-width="2"/><path d="M250.84407,243.69066v-103.66355l21.74777,56.63203l50.45604,47.03154z" fill="#8ebbfc" stroke-width="0"/></g><g data-paper-data="{&quot;index&quot;:null}" stroke="#000000"><path d="M196.75863,88.3482c0,-1.27762 1.04679,-25.41396 1.16737,-26.67203c3.04663,-31.78994 43.03059,-34.0974 93.12377,-34.0974c47.05464,0 87.70167,4.21596 94.78553,33.25967c0.75588,3.09907 -0.49439,24.27383 -0.49439,27.50973c0,11.56633 3.52825,36.98801 -5.17506,46.1914c-16.55108,17.50208 -54.98709,14.57801 -89.11608,14.57801c-36.08524,0 -69.73582,0.91078 -85.58666,-18.27907c-7.02393,-8.50354 -8.70446,-32.18478 -8.70446,-42.49034z" fill="#ffcaa0" stroke-width="2"/><path d="M194.59488,88.35765c0,-1.27762 1.04679,-25.41396 1.16737,-26.67203c1.73095,-18.06153 8.10036,56.20784 64.49859,76.5584c44.19751,15.94811 122.01076,-7.49619 118.51161,-3.79598c-16.55108,17.50208 -55.75744,14.67899 -89.88643,14.67899c-36.08524,0 -69.73582,0.91078 -85.58666,-18.27907c-7.02393,-8.50354 -8.70446,-32.18478 -8.70446,-42.49034z" fill="#ff6e5b" stroke-width="0"/></g><g data-paper-data="{&quot;index&quot;:null}" stroke="#000000"><path d="M250.28379,87.87979c0,29.89266 -14.02566,54.12547 -31.32719,54.12547c-17.30153,0 -31.32719,-24.2328 -31.32719,-54.12547c0,-29.89266 14.02566,-54.12547 31.32719,-54.12547c17.30153,0 31.32719,24.2328 31.32719,54.12547z" fill="#01930e" stroke-width="2"/><path d="M198.46386,78.55287c0,29.89266 38.26854,63.04938 20.96702,63.04938c-17.30152,0 -31.32719,-24.2328 -31.32719,-54.12547c0,-29.89266 10.36017,-38.81657 10.36017,-8.92391z" fill="#31525b" stroke-width="0"/></g><g data-paper-data="{&quot;index&quot;:null}"><path d="M404.69969,53.73612c0,16.39275 -48.81372,29.68171 -109.02848,29.68171c-60.21478,0 -109.02847,-13.28896 -109.02847,-29.68171c0,-16.39275 48.81371,-29.6817 109.02847,-29.6817c60.21478,0 109.02848,13.28895 109.02848,29.68171z" fill="#000000" stroke="none" stroke-width="NaN"/><path d="M403.83801,54.05568c0,16.39275 -48.81372,29.68171 -109.02848,29.68171c-60.21478,0 -109.02847,-13.28896 -109.02847,-29.68171c0,-16.39275 50.50439,8.21356 110.71915,8.21356c60.21478,0 107.33781,-24.60634 107.33781,-8.21356z" fill="#ff0000" stroke="#000000" stroke-width="2"/><path d="M397.48166,62.59221c0,4.51115 -42.89634,21.79715 -103.11113,20.46748c-21.07153,-0.4653 -40.94917,-1.98 -57.15671,-4.72174c-30.08944,-5.09007 -48.56155,-13.0563 -45.81454,-16.85236c2.83717,-3.92064 44.44718,15.66627 104.66193,15.66627c60.21478,0 101.42045,-19.0708 101.42045,-14.55965z" fill="#900056" stroke="#000000" stroke-width="0"/></g><path d="M321.56279,111.34795c0,14.58887 -3.42858,26.41549 -7.65797,26.41549c-4.22939,0 -7.65797,-11.82662 -7.65797,-26.41548c0,-14.58887 3.42859,-26.41548 7.65797,-26.41548c4.22939,0 7.65797,11.82662 7.65797,26.41549z" data-paper-data="{&quot;index&quot;:null}" fill="#000000" stroke="none" stroke-width="0"/><path d="M351.95266,107.33665c0,14.53052 -3.24814,26.30984 -7.25492,26.30984c-4.00679,0 -7.25492,-11.77931 -7.25492,-26.30984c0,-14.53052 3.24814,-26.30984 7.25492,-26.30984c4.00679,0 7.25492,11.77931 7.25492,26.30984z" data-paper-data="{&quot;index&quot;:null}" fill="#000000" stroke="none" stroke-width="0"/><g data-paper-data="{&quot;index&quot;:null}" stroke="#000000"><path d="M305.9821,232.10155l-50.30187,-20.61404l27.81276,-41.9783l50.30187,20.61404z" fill="#ffcaa0" stroke-width="2"/><g><path d="M255.7778,211.70238l-69.36078,-28.4245l28.17528,-42.52544l69.36078,28.4245z" fill="#0000c0" stroke-width="2"/><path d="M256.40573,211.18144l-36.32913,-14.88791c0,0 23.51859,-6.53637 28.19606,-13.59614c4.43493,-6.69372 -0.82015,-27.72282 -0.82015,-27.72282l36.32914,14.88792c0,0 -9.00422,13.59023 -13.54234,20.4397c-4.58666,6.92274 -13.83358,20.87926 -13.83358,20.87926z" fill="#56006b" stroke-width="0"/></g><path d="M305.84361,231.21723l-50.30187,-20.61404l41.2287,3.20245l36.88594,-24.5667z" fill="#ff6e5b" stroke-width="0"/></g><path d="M277.61127,121.65282c-0.48641,0.68953 -0.70393,1.49823 -0.1473,2.28676c0.40287,0.57068 2.28969,1.67484 2.73293,2.01864c1.80365,1.39897 4.92843,3.80655 5.61203,5.84815c0.86103,2.57144 -1.56079,5.16112 -4.58812,5.65089c-0.63437,0.10264 -4.07468,-0.07217 -4.34364,-0.11656c-2.43846,-0.40236 -5.0636,-1.37244 -7.34951,-2.14625c-5.96967,-4.24324 -6.89921,-15.23282 0.74947,-18.8093c4.49359,-2.10118 9.49371,-0.42747 8.12332,4.0844l-0.32657,0.67863c0,0 -0.14202,0.28626 -0.46265,0.50461z" fill="#000000" stroke="none" stroke-width="0.5"/></g></g></svg>