<svg version="1.1" xmlns="http://www.w3.org/2000/svg" xmlns:xlink="http://www.w3.org/1999/xlink" width="275.24753" height="299.55195" viewBox="0,0,275.24753,299.55195"><defs><radialGradient cx="261.52599" cy="276.20133" r="16.46418" gradientUnits="userSpaceOnUse" id="color-1"><stop offset="0" stop-color="#1e202b"/><stop offset="1" stop-color="#1e202b" stop-opacity="0"/></radialGradient></defs><g transform="translate(-102.37623,-30.22402)"><g data-paper-data="{&quot;isPaintingLayer&quot;:true}" fill-rule="nonzero" stroke-linejoin="miter" stroke-miterlimit="10" stroke-dasharray="" stroke-dashoffset="0" style="mix-blend-mode: normal"><path d="M102.37624,329.77598v-299.55195h275.24753v299.55195z" fill="none" stroke="none" stroke-width="0" stroke-linecap="butt"/><g stroke-linecap="butt"><g><path d="M245.78986,163.38357c0,0 -2.50142,-18.00027 -1.6461,-26.77525c0.93718,-9.61481 7.19609,-30.17474 7.19609,-30.17474l29.05,8.75l-0.4,48.6z" fill="#d396fc" stroke="#000000" stroke-width="2"/><path d="M253.38986,183.98357c0,0 6.25508,-9.93809 6.2857,-16.79694c0.03536,-7.92102 -6.0857,-27.40306 -6.0857,-27.40306c0,0 3.46978,3.01174 7.43863,4.05275c4.15587,1.09007 16.96138,1.74725 16.96138,1.74725l13.8,38.4z" fill="#ffc6ef" stroke="none" stroke-width="0"/></g><g><path d="M270.25554,179.84119c0,0 2.3029,-3.65551 2.18757,-4.31531c-0.02245,-0.12843 -0.98279,-0.6927 -2.08159,-0.76986c-1.45294,-0.10203 -3.14796,0.27341 -3.23673,-0.05186c-0.24797,-0.90862 4.22202,-5.37373 4.18689,-5.75897c-0.06868,-0.7532 -3.99924,-3.12489 -4.17568,-3.89955c-0.13392,-0.58796 3.74726,-2.16015 3.64184,-2.71344c-0.17885,-0.93872 -2.07607,-2.48379 -2.73774,-3.23547c-0.35941,-0.40831 -2.6456,-3.62248 -2.02369,-4.09946c0.23203,-0.17796 1.08484,0.11749 1.95075,0.17817c1.57,0.11002 3.64056,0.13443 5.37385,0.02832c6.3674,-0.38983 13.91454,-0.96258 13.91454,-0.96258v19.9z" fill="#4a5c6f" stroke="#000000" stroke-width="1.5"/><path d="M278.8433,165.99673c0.18333,-0.46287 -6.70138,0.27473 -6.44879,-0.17801c0.71313,-1.27816 5.29149,-3.98414 5.31235,-4.48374c0.03397,-0.81357 -6.82189,-3.18642 -6.76508,-3.64606c0.03922,-0.31734 2.01377,-1.64774 2.01377,-1.64774l13.5,-1.2l0.4,18.7c0,0 -3.33348,1.17874 -5.29019,1.08815c-2.25777,-0.10453 -4.47902,-1.20137 -6.15818,-1.56438c-0.55077,-0.11907 -1.07559,0.03472 -1.31316,-0.14448c-0.71067,-0.53607 4.24585,-5.65263 4.74929,-6.92374z" fill="#696f96" stroke="none" stroke-width="0"/></g></g><g stroke-linecap="butt"><path d="M183.7014,296.78198c5.67566,-4.42364 11.81029,-9.20309 12.66839,-10.58912c0.76993,-1.2436 1.53762,-2.66686 2.53087,-4.24033c3.4967,-5.53932 8.27194,-12.94012 12.38003,-20.91638c0.93159,-1.80877 1.57773,-3.76813 2.45436,-5.61191c0.65094,-1.36909 0.98578,-2.25081 1.5507,-3.63279c0.40565,-0.99237 0.3932,-1.36063 0.76655,-2.34947c0.32037,-0.84852 1.2964,-2.8182 1.59985,-3.65831c1.29327,-3.58043 2.46182,-7.05998 3.75172,-10.23061c3.86133,-9.49139 5.71737,-17.32413 5.71737,-17.32413l29.2475,-4.95403c0,0 -3.64927,15.41945 -9.3827,29.34893c-1.39503,3.38924 -3.97637,7.47606 -5.87383,10.45418c-0.95227,1.49462 -1.78296,2.80491 -2.52694,3.88447c-0.44607,0.64726 -0.97468,1.1049 -1.16178,1.76776c-0.78687,2.78767 -0.25961,6.35843 -0.40126,10.59215c-0.24157,7.21941 -0.73481,15.09579 -0.73481,15.09579c0,0 -7.23586,9.03827 -7.3694,9.03792c-0.57743,-0.00153 -2.09534,-6.05651 -2.62736,-8.25462c-0.11799,-0.48748 -0.41414,-0.64209 -0.77572,-0.38544c-0.98678,0.70041 -2.97853,2.246 -4.1111,4.03344c-0.81026,1.27879 -1.92713,4.81816 -2.62079,5.11553c-0.76118,0.32633 -1.68954,1.16294 -2.51396,1.50759c-3.27484,1.36902 -6.98595,2.64062 -10.85151,3.94722c-5.12716,1.73305 -10.52603,3.43287 -15.53896,4.57588c-7.87083,1.79464 -15.36061,1.56525 -16.49404,1.59946c-1.12679,0.03401 -0.88907,-0.09886 -0.24791,-0.59653c0,0 6.08611,-4.72594 10.56475,-8.21661z" fill="#1b1f25" stroke="#000000" stroke-width="1.5"/><path d="M254.48205,213.23327l26.76213,-3.62186c0,0 -0.62472,4.3512 -2.64019,10.8994c-1.77689,5.77304 -4.84234,13.19812 -6.57994,21.64089c-0.84772,4.11899 0.9749,8.77583 0.0269,13.0806c-0.67477,3.06406 -2.127,3.29761 -3.47842,6.51509c-0.70578,1.68033 -1.21947,3.88662 -1.96608,6.14792c-1.0295,3.11808 -2.26184,6.34074 -2.88239,8.43312c-0.97069,3.27299 -0.31946,6.05778 -0.36418,8.65943c-0.10271,5.97337 13.69349,15.62004 15.70706,17.33736c0.2001,0.17065 0.67769,0.27444 0.5607,0.27867c-1.71164,0.06188 -5.59066,0.09459 -8.25258,-0.23638c-4.76238,-0.59212 -9.02087,-1.55702 -12.80044,-2.34133c-5.19619,-1.07829 -9.48721,-2.03759 -12.93804,-3.23775c-4.13381,-1.4377 -7.06193,-2.99225 -8.89607,-3.75725c-0.33408,-0.13935 0.07202,-5.81681 0.15247,-7.41503c0.08142,-1.6175 -0.9389,-1.198 -0.9389,-1.198c0,0 -0.45616,-5.52098 0.5728,-9.47429c0.72134,-2.77139 2.0122,-8.40061 4.38216,-15.08192c1.12457,-3.17036 2.97171,-6.72034 4.32375,-10.17155c1.32269,-3.37629 2.41822,-6.65192 3.38177,-9.93175c4.26957,-14.53318 5.86749,-26.52538 5.86749,-26.52538z" fill="#1b1f25" stroke="#000000" stroke-width="1.5"/><path d="M246.00582,241.58325c0,0 -4.79875,0.91467 -4.89766,-0.30924c-0.32721,-4.04913 2.58981,-28.24931 2.58981,-28.24931h21.30319c0,0 -11.68309,27.31824 -13.62416,30.9097c-0.4558,0.84337 -2.53077,-1.01898 -2.53077,-1.01898c0,0 2.07836,-7.82655 1.24268,-7.82655c-1.10396,0 -1.83671,1.75021 -2.49992,3.10903c-0.78881,1.61615 -1.58317,3.38534 -1.58317,3.38534z" fill="#1b1f25" stroke="none" stroke-width="0"/><path d="M231.80845,283.92231c0.01639,-2.0599 1.74878,-9.99214 1.74878,-9.99214c0,0 0.82688,-11.44922 1.38898,-11.83198c0.34465,-0.23468 1.2849,2.50727 1.47788,4.83614c0.16155,1.94954 0.05731,5.50819 -0.01644,5.74782c-0.02813,0.09139 -0.32393,1.81534 -0.28315,2.82391c0.02617,0.6475 0.3476,0.75542 0.45067,0.75542c0.45683,0 1.63357,-3.46555 2.54165,-6.60132c0.53874,-1.86033 1.1292,-3.82039 1.17285,-4.28255c0.12464,-1.3194 0.54614,8.38604 0.54614,8.38604l-0.79887,10.82394c0,0 -8.23918,0.67823 -8.22849,-0.66527z" fill="#1b1f25" stroke="none" stroke-width="0"/><path d="M245.06183,276.20133c0,-8.52927 7.37127,-15.4436 16.46418,-15.4436c2.4349,0 4.74522,-0.833 6.82473,0.05684c0.11385,0.04871 -0.18794,0.88279 -0.59834,2.04696c-0.2842,0.80621 -0.57432,1.7707 -1.00484,2.74229c-0.51623,1.16499 -0.88315,2.92628 -1.51729,4.55285c-0.31759,0.8146 -0.74196,2.2258 -1.06283,3.47242c-0.05226,0.20302 -0.14468,0.51104 -0.25058,0.84445c-0.20461,0.64419 -0.39704,1.38321 -0.50968,1.64315c-1.56031,3.601 0.23746,8.71772 -0.83434,9.84904c-0.11791,0.12445 0.57051,2.57613 1.42896,3.64562c0.62604,0.77994 2.12616,2.01405 2.04851,2.02919c-1.08796,0.2123 -3.3692,0.00436 -4.5243,0.00436c-9.09292,0 -16.46418,-6.91434 -16.46418,-15.44361z" fill="url(#color-1)" stroke="none" stroke-width="0"/><path d="M267.97411,293.49651c0,0 -1.61285,-1.24643 -2.90171,-2.67348c-0.83536,-0.92493 -1.4144,-1.92428 -1.92762,-2.79548c-0.14796,-0.25118 -0.97705,0.02669 -1.07081,-0.36912c-0.27281,-1.15152 -0.18732,-2.98469 0.04654,-4.91158c0.24241,-1.99749 0.59544,-4.09567 0.87638,-5.6396c0.25479,-1.40016 0.71659,-2.84405 0.71659,-2.84405l3.46177,-6.32785c0,0 -1.52795,8.41195 -1.73302,9.56777c-0.13705,0.77236 -0.1891,1.85839 -0.37581,2.75879c-0.23093,1.11363 -0.57385,2.07564 -0.4175,3.38613c0.23383,1.96007 1.88835,3.74231 2.33165,4.68926c0.93885,2.00546 1.79243,3.74375 1.79243,3.74375z" fill="#000000" stroke="none" stroke-width="0"/><path d="M219.875,294.01988c0,0 -6.86105,2.48409 -7.17143,2.38282c-0.13411,-0.04376 1.24439,-1.0793 2.64471,-1.81256c1.37784,-0.72147 2.77681,-1.14119 2.77681,-1.14119c0,0 0.74233,-2.34692 2.05555,-4.34527c0.32948,-0.50137 0.5523,-1.11452 0.9749,-1.50696c0.95906,-0.89062 2.78448,-3.06398 4.77307,-4.19782c0.68859,-0.3926 1.0354,0.69171 1.48978,2.40828c0.73058,2.75996 1.48512,6.78538 1.48512,6.78538c0,0 -0.31872,1.41585 -1.25379,-0.33392c-1.15766,-2.16628 -1.23137,-6.30318 -2.23334,-6.30318c-0.94794,0 -1.86789,1.90604 -2.97877,3.84799c-1.24886,2.18315 -2.5626,4.21643 -2.5626,4.21643z" fill="#000000" stroke="none" stroke-width="0"/><path d="M228.27852,293.16346c0,0 -0.86137,-1.63873 -0.68279,-2.16646c0.08767,-0.25908 1.11894,0.72458 1.27673,0.40318c0.63939,-1.30236 1.80882,-3.05234 3.07419,-4.7921c1.33507,-1.83559 3.382,-3.50092 4.31843,-4.12303c0.45914,-0.30504 1.03642,-0.29033 1.21908,0.00339c0.46383,0.74586 0.24233,2.29206 0.05921,3.97222c-0.21954,2.01421 -0.53482,4.14959 -0.77212,5.40076c-0.11932,0.62909 -0.27577,1.08797 -0.27577,1.08797c0,0 -0.67903,0.2513 -0.74915,-1.07811c-0.01695,-0.32148 -0.0909,-0.68378 -0.07954,-1.06066c0.0499,-1.65625 0.35393,-3.59389 -0.07832,-3.58263c-1.02137,0.0266 -3.53413,3.58734 -5.35887,5.48435c-0.88054,0.91542 -1.95105,0.45113 -1.95105,0.45113z" fill="#000000" stroke="none" stroke-width="0"/><path d="M236.83853,292.27887c0.12741,-0.44373 0.33742,-1.24309 0.44943,-1.76842c0.18541,-0.8696 0.99332,-5.7228 0.99332,-5.7228l1.81907,2.95199c0,0 2.20909,2.19293 3.51853,3.49279c0.44735,0.44408 1.06347,1.0557 1.7244,1.71179c1.78375,1.77071 3.89392,3.86546 3.89392,3.86546c0,0 -9.31612,-3.013 -9.83963,-3.20807c-0.77946,-0.29043 -1.81607,-0.67668 -2.14759,-0.80021c-0.20498,-0.07638 -0.47503,-0.30112 -0.41146,-0.52254z" fill="#1b1f25" stroke="none" stroke-width="0"/><path d="M196.24115,286.62338c-0.68043,-0.10267 0.05955,-2.24224 1.16595,-4.03179c0.75383,-1.21927 2.32336,-2.98776 2.9711,-2.89693c0.36326,0.05094 0.41404,0.74872 0.31036,1.54083c-0.10513,0.80319 -0.36766,1.65611 -1.0058,2.56556c-0.71221,1.01499 -1.53994,1.98555 -2.30743,2.47736c-0.4834,0.30976 -1.11816,0.34741 -1.13418,0.345z" fill="#000000" stroke="none" stroke-width="0"/><path d="M223.12336,281.26516c0,0 -0.41724,-1.01335 -1.4595,-2.38214c-0.4745,-0.62317 -1.04578,-1.36759 -1.59182,-1.9896c-0.72122,-0.82154 -1.39844,-1.48674 -1.75066,-1.94207c-0.18653,-0.24114 -0.20741,-0.47175 -0.18924,-0.50309c0.23288,-0.40197 3.20515,-1.39137 4.90323,-2.17365c0.6426,-0.29605 1.17293,-0.49658 1.2007,-0.72058c0.0376,-0.30323 -2.52706,-5.21444 -3.49113,-6.98645c-0.24173,-0.4443 -0.04445,-0.32859 0.27877,-0.45354c1.33433,-0.51584 5.02729,-1.97695 7.81337,-3.39692c1.68021,-0.85635 3.0932,-1.63899 3.34009,-2.30287c0.02122,-0.05706 -0.71893,-0.59682 -1.56558,-1.14886c-0.81424,-0.5309 -1.89532,-1.25917 -2.84963,-1.98744c-0.87139,-0.66501 -1.54153,-1.40687 -2.16324,-1.92163c-0.62685,-0.51901 -1.24574,-0.63127 -1.14926,-0.84898c0.28763,-0.64909 2.22102,-1.59989 3.86008,-2.2979c0.61794,-0.26315 2.34722,-1.04686 2.37529,-1.28026c0.01976,-0.16429 -0.73858,-0.58053 -1.77799,-1.18527c-0.29389,-0.171 -0.68564,-0.28635 -0.99643,-0.50181c-2.2779,-1.5792 -5.0042,-3.91267 -4.86112,-4.59632c0.16642,-0.79512 0.69661,-1.5588 1.22732,-2.31587c0.78198,-1.11551 1.66108,-2.21669 2.16331,-3.38295c2.01497,-4.67909 3.20862,-8.95755 3.20862,-8.95755c0,0 0.72842,7.81132 1.50236,8.55151c0.69565,0.66532 1.78665,-0.26846 2.90877,-0.38014c1.3301,-0.13239 2.7039,-0.07709 3.51474,-0.15595c0.41917,-0.04077 0.68788,-0.17369 0.72234,-0.2683c0.28432,-0.78057 0.19894,-1.09874 -0.03359,-1.7835c-0.27955,-0.82322 -0.77178,-1.69859 -1.08997,-2.2222c-0.179,-0.29455 -0.32751,-0.39282 0.07324,-0.52153c0.79108,-0.25409 2.52752,-0.74185 4.39704,-1.39563c1.73289,-0.606 3.70937,-1.46202 5.83791,-2.26409c2.05808,-0.77551 4.26366,-1.49558 6.222,-2.17808c2.35942,-0.82228 4.47889,-1.23013 5.95467,-1.73297c0.64149,-0.21857 1.16135,-0.57977 1.52642,-0.79275c0.35318,-0.20604 -2.24435,-2.36624 -3.31703,-3.23758c-0.27433,-0.22284 -0.74074,-0.50651 -0.40705,-0.62011c1.18283,-0.40267 4.53966,-1.29812 6.15254,-1.81913c1.56889,-0.50681 4.58752,-1.47554 5.8852,-1.87998c0.41789,-0.13023 0.34332,0.0219 0.04759,0.28402c-0.68374,0.60602 -2.05501,1.78472 -3.63799,2.9448c-1.68698,1.2363 -3.98029,2.52007 -3.99052,2.70159c-0.02591,0.45902 6.92543,0.01915 6.92384,0.66776c-0.00001,0.00489 -0.55466,0.68758 -1.99292,1.39674c-1.23458,0.60874 -2.9373,1.21193 -4.85213,2.03157c-2.61442,1.11909 -5.62426,2.50886 -8.37784,3.64436c-6.51192,2.68536 -12.09419,4.19033 -12.10876,4.53513c-0.01888,0.44648 2.4928,2.36775 2.61119,2.98593c0.05396,0.28176 -1.39433,0.71384 -2.61608,1.34082c-3.48403,1.78792 -9.80081,4.61255 -10.57275,5.78932c-0.12361,0.18844 1.45682,0.4334 3.43732,0.78681c3.21937,0.57448 7.49585,1.3093 7.22844,1.61352c-0.10979,0.12494 -2.84692,0.955 -5.8092,2.07661c-1.96099,0.74248 -4.05457,1.50406 -5.71541,2.19508c-1.79382,0.74636 -3.08279,1.39766 -3.15456,1.49358c-0.10652,0.14235 1.98741,1.27191 4.21934,2.67452c2.75197,1.72942 5.75634,3.79398 5.61816,3.97129c-0.32565,0.41786 -2.582,1.85364 -5.14593,3.27188c-3.60951,1.99659 -7.8286,4.10932 -8.12871,4.61429c-0.20847,0.35078 6.37168,7.01053 6.14458,6.98107c-0.412,-0.05343 -1.82945,0.73005 -3.27389,1.24936c-1.17222,0.42144 -2.30626,0.53771 -3.38207,0.93964c-1.13702,0.42479 -2.02595,0.73943 -2.25618,0.73411c-0.17882,-0.00415 0.55988,1.28097 1.03951,2.05684c0.97063,1.57017 1.37019,2.99556 1.37019,2.99556z" fill="#2b263c" stroke="none" stroke-width="0"/><path d="M248.50507,286.34838c0.33916,-0.3019 0.70513,-0.75133 1.22817,-1.148c1.50669,-1.14268 3.61314,-2.50772 4.95619,-3.50731c0.81234,-0.60459 1.45732,-1.12424 1.50568,-1.24112c0.21545,-0.52076 0.04314,-1.63862 -0.2475,-2.13279c-0.305,-0.5186 -0.84879,-1.29369 -1.59506,-2.05116c-0.62537,-0.63477 -1.41732,-1.23426 -2.09411,-1.8813c-1.04605,-1.00003 -2.01279,-1.93003 -2.46519,-2.52829c-0.21043,-0.27829 -0.31262,-0.63566 -0.26393,-0.73727c0.02041,-0.04258 0.21273,-0.32872 0.67251,-0.53612c0.36105,-0.16287 1.00038,-0.20349 1.55714,-0.43502c0.71329,-0.29663 1.56001,-0.65433 2.47059,-1.08516c0.9032,-0.42734 1.8692,-0.9698 2.83009,-1.45187c1.27287,-0.6386 2.53675,-1.30607 3.63374,-1.95173c1.75966,-1.03567 3.15778,-2.20603 3.36704,-2.80771c0.41945,-1.20602 0.76742,-2.39015 1.0153,-3.53625c0.09961,-0.46061 -0.14243,-1.83454 -0.07224,-2.27586c0.01657,-0.10413 -4.43983,0.01215 -4.42406,-0.07564c0.1236,-0.68798 3.17874,-2.11919 3.26394,-2.75153c0.03157,-0.23429 -0.36033,-0.27418 -0.76143,-0.38295c-0.69302,-0.18793 -0.9762,-0.4289 -0.92224,-1.13435c0.05028,-0.6574 1.58516,-0.44241 1.68019,-0.82717c0.02751,-0.11138 -1.38255,-1.66917 -3.29254,-3.28877c-1.51655,-1.28597 -3.43913,-2.55411 -4.56063,-3.57261c-0.80257,-0.72886 -1.3208,-1.45861 -1.29246,-1.51584c0.02815,-0.05686 0.59477,-0.38628 1.47434,-1.1157c0.56405,-0.46775 1.91229,-0.42632 2.67426,-1.05642c1.58306,-1.30908 3.3484,-2.97214 4.86091,-4.45799c0.82707,-0.8125 1.7424,-1.49514 2.34713,-2.11481c0.47912,-0.49095 0.70226,-0.97099 0.96178,-1.2432c0.23469,-0.24618 0.28623,-0.47799 0.53988,-0.26986c0.58153,0.47716 1.86487,1.55454 2.39276,1.95802c0.19867,0.15184 1.08032,0.53023 1.28311,0.65447c0.3223,0.19747 -0.21881,0.23643 -0.48183,0.46948c-0.42541,0.37695 -1.14931,1.01936 -2.02454,1.79995c-0.45426,0.40514 -0.94926,1.0012 -1.46445,1.46298c-1.37397,1.23152 -2.89144,2.26448 -4.16203,3.40164c-0.33202,0.29716 -0.75497,0.4798 -1.07746,0.71985c-0.48969,0.36451 -0.85478,0.76107 -1.16292,1.09972c-0.49232,0.54105 -0.8641,0.68593 -0.852,0.74362c0.04566,0.21781 0.53369,0.76198 0.91661,0.88951c1.24681,0.41523 3.9852,0.56417 6.28552,1.1752c1.55093,0.41197 2.96286,1.40738 3.458,2.20772c0.05082,0.08216 -0.35971,0.21853 -0.9755,0.60139c-1.01449,0.63072 -2.50417,1.65169 -3.48791,2.31608c-0.56969,0.38476 -1.62417,0.59886 -1.57716,0.68081c0.15039,0.26225 0.71406,0.2191 0.87129,0.48499c0.22749,0.38473 -1.01396,0.77352 -0.77566,1.16521c0.05415,0.08902 1.07391,0.59788 2.18944,0.96477c1.3921,0.45786 2.93338,0.70344 2.93338,0.70344c0,0 -0.00678,1.18372 -1.26877,3.22201c-0.60066,0.97015 -1.10544,2.19336 -2.7382,3.46384c-0.62534,0.48659 -1.44279,0.92587 -2.2523,1.45569c-2.03048,1.32893 -4.44457,2.82069 -6.83517,4.07059c-1.42589,0.74553 -2.97598,1.35547 -4.04431,1.93034c-0.87081,0.46857 -1.39405,0.9396 -1.49416,1.23055c-0.17551,0.51009 1.51809,1.56079 3.70617,2.57979c1.7594,0.81938 3.86747,1.59109 5.36044,2.25124c1.2744,0.5635 2.37954,0.67419 2.3242,1.01095c-0.06538,0.39785 -3.7579,1.17393 -3.48896,1.89846c0.04676,0.12599 0.35832,0.18714 0.65703,0.33308c0.74631,0.36461 1.92396,0.77873 1.75936,1.17884c-0.06203,0.15077 -0.54855,0.3265 -1.15451,0.75418c-0.8954,0.63194 -2.43029,1.46629 -3.70642,2.32865c-1.13165,0.76474 -2.00734,1.56791 -2.83507,2.02705c-0.32052,0.17779 -0.88411,0.20875 -1.19649,0.40153c-0.23014,0.14203 0.16863,0.45461 0.60279,0.88769c0.83778,0.83569 2.67318,2.14406 4.80901,3.5462c0.78173,0.5132 1.60372,0.80841 2.43177,1.32816c0.6085,0.38195 1.22028,0.9912 1.82177,1.35929c1.99763,1.22245 3.88172,2.32779 5.15532,3.04592c0.97989,0.5525 2.07789,0.81031 2.07789,0.81031c0,0 -2.14173,-0.17791 -5.23118,-1.12384c-1.25113,-0.38308 -2.7262,-0.82786 -4.17112,-1.53746c-3.2878,-1.65249 -6.68942,-3.87701 -9.09678,-5.59451c-1.32918,-0.94828 -2.27333,-1.81885 -2.80982,-2.2764c-0.19414,-0.16558 -0.67428,-0.31363 -0.50924,-0.55971c0.07193,-0.10725 0.66466,-0.2954 0.79065,-0.40754z" fill="#2b263c" stroke="none" stroke-width="0"/></g><g stroke-linecap="butt"><g fill="none" stroke="none" stroke-width="1" font-family="sans-serif" font-weight="normal" font-size="12" text-anchor="start"/><path d="M239.4568,213.72272l19.7223,-22.18561c0,0 2.31435,-4.41603 6.55541,-5.9184c3.71411,-1.31569 17.52046,-2.6103 17.52046,-2.6103c0,0 0.87301,15.93911 0.69406,20.33733c-0.07759,1.90696 -1.74848,5.57676 -1.74848,5.57676z" fill="#d396fc" stroke="none" stroke-width="0"/><path d="M257.85555,210.26789c0,0 3.91192,-3.58762 5.55538,-5.16989c1.01599,-0.97816 3.00169,-3.07408 3.75795,-3.84742c0.21967,-0.22463 0.0858,0.10356 -0.01567,0.3899c-0.21188,0.59799 -0.54094,1.59048 -0.55267,2.01703c-0.00572,0.20794 -0.07555,1.10055 -0.04341,1.34182c0.00972,0.073 0.5113,0.1168 1.00683,0.03773c0.57374,-0.09154 1.26078,-0.63793 1.55235,-0.71292c0.57898,-0.14892 -2.12432,0.52205 -1.92455,0.45299c0.65303,-0.22579 1.71439,-0.61945 2.6976,-0.84719c0.36094,-0.08361 0.79413,-0.06757 1.07468,-0.12285c0.97715,-0.19253 3.3362,-0.50112 4.3283,-0.55954c0.39517,-0.02328 0.01921,0.22963 -0.21957,0.51451c-0.31642,0.3775 -0.78578,0.94705 -1.25777,1.55469c-0.79985,1.02973 -2.07929,4.58629 -2.5137,4.75815c-2.64519,1.04653 -13.44574,0.19299 -13.44574,0.19299z" fill="#4a5c6f" stroke="#000000" stroke-width="1"/><path d="M236.6115,218.66308l6.79427,-8.84173c0,0 3.27136,-0.46096 6.22332,-0.77779c1.66742,-0.17896 5.04616,-0.40965 8.5226,-0.85803c2.87138,-0.37034 5.68779,-0.94594 8.73688,-1.26175c0.87416,-0.09054 1.73763,-0.26529 2.58191,-0.3456c3.59298,-0.3418 6.83823,-0.50179 9.07881,-0.65973c1.94592,-0.13716 3.13406,-0.20537 3.13406,-0.20537l-1.14832,6.8769c0,0 -2.92071,0.59735 -7.07349,1.1256c-2.94016,0.37401 -6.64109,0.57973 -9.72559,1.10673c-3.66739,0.62659 -4.69569,1.46379 -8.16413,2.0337c-0.69619,0.11439 -0.99224,0.58245 -1.64838,0.68872c-0.3207,0.05195 -1.01877,-0.25444 -1.32801,-0.20479c-2.29158,0.36799 -4.25086,0.67006 -5.6233,0.85981c-3.57689,0.49455 -10.36064,0.46334 -10.36064,0.46334z" fill="#000000" stroke="none" stroke-width="0"/><g><path d="M280.04999,215.28948c0.38959,-2.26034 0.96224,-5.09287 1.2352,-7.71301c0.31295,-3.00397 0.21887,-5.72876 -0.00335,-6.99199c-0.13242,-0.75278 -0.19255,-1.71544 -0.43464,-2.75041c-0.43372,-1.85427 -1.16067,-3.94061 -1.86635,-5.46769c-2.06327,-4.46492 -49.58404,1.79326 -49.58404,1.79326c0,0 51.82018,-16.34162 55.97057,-12.20484c0.67775,0.67553 2.1244,11.07171 1.99645,12.25044c-0.20074,1.84918 -0.51842,3.61993 -0.74921,5.01993c-0.67181,4.07542 -3.28151,11.6868 -5.20271,16.37377c-0.95508,2.33003 -2.03719,4.02979 -2.03719,4.02979c0,0 0.39727,-2.72622 0.67528,-4.33925z" fill="#2b263c" stroke="#000000" stroke-width="1.5"/><path d="M282.00631,200.34885c0,0 -0.77254,-5.13007 -2.01751,-7.5346c-0.62252,-1.20234 -1.68474,-3.53332 -2.79302,-5.24374c-0.57179,-0.88245 -1.41901,-1.71266 -1.96127,-2.44803c-1.34863,-1.8289 -2.17558,-3.0711 -2.17558,-3.0711l11.9737,-0.4912c0,0 1.02794,6.15966 1.51957,9.89339c0.19567,1.48606 0.06407,2.58783 0.04948,2.76398c-0.1727,2.08518 -0.51641,4.41209 -0.51641,4.41209c0,0 -1.3849,0.56961 -2.02651,0.8904c-0.58029,0.29013 -2.05244,0.82882 -2.05244,0.82882z" fill="#1b1f25" stroke="none" stroke-width="0"/></g><g><path d="M220.38566,237.05371c-0.01387,-0.45443 0.41061,-1.31789 0.6979,-2.4814c0.38843,-1.57318 0.74398,-3.69493 1.47126,-6.09595c1.27609,-4.21285 2.88644,-9.2855 4.17371,-13.76332c0.55113,-1.91715 0.7213,-4.94579 0.80799,-6.65503c0.20478,-4.03762 -0.47844,-22.00326 -0.47844,-22.00326l35.47452,5.8208c0,0 -1.85004,2.09526 -4.59325,5.47114c-0.36336,0.44717 -3.48366,3.9358 -4.07126,4.37594c-0.38745,0.2902 1.73933,-2.48025 1.46332,-2.15692c-0.37988,0.44502 2.14853,-1.75896 1.99243,-1.25436c-0.1203,0.38893 -2.90364,3.48361 -3.23775,3.85987c-1.24734,1.40465 -2.73586,3.26781 -4.15136,4.81766c-2.35984,2.58379 -4.88243,5.32074 -7.33137,8.04868c-2.10849,2.3487 -4.35162,4.69073 -6.38888,6.92261c-1.93796,2.1231 -3.66064,4.36325 -5.5122,6.16817c-1.96738,1.91782 -4.04636,3.37593 -5.49218,4.79227c-0.48283,0.47299 -1.98716,1.20811 -2.83764,2.02863c-1.31056,1.26442 -1.9728,2.56285 -1.98678,2.1045z" fill="#2b263c" stroke="#000000" stroke-width="1.5"/><path d="M221.08515,234.97896v-1.71922c0,0 0.44134,-0.2456 0.78948,-0.2456c0.45583,0 1.71053,0.2456 1.71053,0.2456v1.22802z" fill="#000000" stroke="none" stroke-width="0"/><path d="M227.53255,214.34826c0,0 0.53476,-4.64634 0.86192,-7.03809c0.16834,-1.23082 -0.06848,-3.13494 -0.09914,-5.00174c-0.0481,-2.92917 -1.18536,-16.3765 -1.18536,-16.3765l33.97528,7.04882c0,0 -1.58986,1.51184 -3.68996,3.69162c-0.2886,0.29955 -0.50693,1.14278 -1.01411,1.50592c-0.68435,0.48999 -1.67863,0.87745 -2.04573,1.30639c-0.4024,0.47017 -0.50906,1.8847 -0.82678,2.256c-2.77463,3.24237 -8.34448,9.41475 -8.34448,9.41475c0,0 -1.01151,0.95082 -2.80348,2.08989c-0.76292,0.48496 -1.61963,0.78069 -2.51165,1.33852c-0.90846,0.56811 -1.85358,1.39894 -2.77359,1.95911c-2.87591,1.75107 -5.50655,3.25747 -6.00607,3.23187c-0.52058,-0.02668 -3.53682,-5.42654 -3.53682,-5.42654z" fill="#1b1f25" stroke="none" stroke-width="0"/></g><path d="M262.51806,197.93362c0,0 4.54969,-2.06997 6.24888,-2.90778c1.29333,-0.63769 3.59234,-1.52058 3.59234,-1.52058c0,0 1.30018,0.76157 1.96409,0.81545c0.68286,0.05542 1.90211,0.00462 1.90211,0.00462c0,0 0.09222,1.28776 -0.22798,3.08079c-0.24552,1.3749 -1.35364,3.80777 -1.35364,3.80777z" fill="#ffc6ef" stroke="none" stroke-width="0"/><path d="M255.17613,214.91204c-0.17046,-0.2694 0.13899,-0.48198 0.1976,-1.02626c0.03888,-0.36106 0.19346,-0.7765 0.25429,-1.18512c0.10271,-0.68978 0.11536,-1.36017 0.14266,-1.71692c0.03358,-0.43875 0.00493,-1.12919 0.45358,-1.19086c0.46636,-0.06411 1.16148,-0.30838 2.60318,-0.49744c1.39451,-0.18288 3.06802,-0.10348 4.60156,-0.26644c1.04168,-0.11069 2.01878,-0.43602 2.79998,-0.56856c1.0682,-0.18123 1.77014,-0.15736 1.77014,-0.15736c0,0 -0.58967,1.10788 -0.76853,1.76273c-0.22509,0.82415 -0.4755,2.79209 -0.4755,2.79209c0,0 -1.25988,0.26803 -2.63384,0.6445c-1.03,0.28221 -2.08218,0.66448 -2.94585,0.82569c-0.8075,0.15072 -2.07438,0.13878 -3.21911,0.26607c-0.36647,0.04075 -0.81612,0.0312 -1.13848,0.10589c-0.33436,0.07747 -0.53904,0.2388 -0.78411,0.25621c-0.41073,0.02917 -0.68712,0.22519 -0.85757,-0.04421z" fill="#fead41" stroke="none" stroke-width="0"/></g><g stroke-linecap="butt"><path d="M205.55558,153.46521c0,-0.95154 11.70976,-6.85184 16.04952,-8.90556c3.09055,-1.46256 8.15165,-3.76747 12.45702,-5.40804c3.73879,-1.42467 6.90767,-2.09898 7.72123,-2.09898c8.816,0 11.20859,23.6181 11.20859,23.6181l9.37695,31.95942c0,0 -7.23103,4.7203 -16.34949,8.15321c-3.898,1.46751 -12.52711,9.43126 -14.53335,8.19351c-2.03835,-1.25755 -6.91953,-8.12074 -10.24228,-14.71875c-2.85644,-5.67204 -5.62246,-13.04175 -7.62135,-19.65549c-1.05593,-3.49377 -1.46489,-6.63229 -2.50507,-9.51317c-1.29054,-3.57428 -2.39208,-4.49904 -3.50961,-6.44927c-0.97099,-1.69451 -2.05215,-4.60463 -2.05215,-5.17498z" fill="#1b1f25" stroke="#000000" stroke-width="1.5"/><path d="M231.37538,177.68378c0,0 -1.54852,-2.21575 -2.16422,-5.12726c-0.61667,-2.91614 -1.05635,-6.69008 -1.86183,-10.23383c-0.97498,-4.28948 -2.39283,-8.2417 -4.10595,-9.92718c-3.39008,-3.3354 -16.68703,0.86956 -16.68703,0.86956c0,0 15.49981,-8.40518 22.20322,-11.24124c4.76362,-2.01538 14.62501,-4.57088 14.62501,-4.57088l11.20859,45.63498c0,0 -8.29154,-4.22217 -14.60649,-5.62549c-4.00345,-0.88965 -8.61131,0.22135 -8.61131,0.22135z" fill="#2b263c" stroke="none" stroke-width="0"/></g><g stroke-linecap="butt"><path d="M245.83986,189.63357c0,0 -0.04808,0.67166 1.57184,-6.2995c0.24145,-1.03906 0.24852,-3.90313 -1.08914,-6.53951c-0.93955,-1.85175 -2.59407,-3.58382 -3.29717,-4.77791c-0.1242,-0.21094 -4.6903,-3.17041 -4.74594,-3.34546c-0.04999,-0.15731 3.48962,2.56011 4.63361,3.13075c0.27386,0.13661 -0.19968,-0.84818 -0.19057,-0.87607c0.66894,-2.04846 3.11294,-6.44944 4.70611,-9.39004c0.71833,-1.32586 1.42304,-2.19549 1.43676,-2.69608c0.03286,-1.19818 -11.31404,-6.67901 -11.23698,-7.60713c0.56504,-6.80505 5.07868,-16.19661 5.81148,-16.39904c0.78296,-0.21629 7.59873,8.05385 10.57625,13.58113c2.63203,4.88595 4.97038,10.76709 7.18916,18.28807c2.64424,8.96319 3.43459,19.13079 3.43459,19.13079z" fill="#2b263c" stroke="#000000" stroke-width="1.5"/><path d="M246.83135,181.55647c0.14703,-0.46838 -0.56641,-5.08898 -2.78141,-8.18713c-0.51609,-0.72186 -1.98474,-1.60741 -2.58585,-2.18721c-2.19956,-2.1216 -3.83527,-2.71229 -3.7426,-3.01085c1.24093,-3.99814 3.26441,-10.93844 3.26441,-10.93844l-9.26653,-4.35105l8.32048,-15.24823l2.6,-0.4l-1.28156,11.33209l12.77382,8.71235l-7.71947,13.82591c0,0 2.22637,2.93299 3.50942,6.06005c0.99545,2.42614 1.54226,5.20588 1.63791,7.15035c0.13538,2.75229 -1.13039,7.32155 -1.13039,7.32155c0,0 -5.72256,-3.31205 -3.59821,-10.0794z" fill="#1b1f25" stroke="none" stroke-width="0"/><path d="M245.83986,189.63357c0,0 -0.04808,0.67166 1.57184,-6.29949c0.24145,-1.03905 0.24852,-3.90313 -1.08913,-6.53952c-0.94125,-1.85511 -2.60005,-3.59008 -3.30097,-4.78438c-0.05569,-0.09489 -4.525,-2.97502 -4.67198,-3.26449c-0.09984,-0.19664 2.78616,-3.95539 4.31558,-6.19464c0.47442,-0.6946 1.13736,-2.0938 1.1321,-2.10695c-0.01136,-0.02839 -0.34951,1.0496 -1.12033,2.14309c-1.65027,2.34112 -4.4403,5.80757 -4.31902,6.05639c0.38131,0.7823 3.39264,2.51691 4.2038,2.98986c0.49471,0.28844 0.15756,-0.69782 0.16075,-0.70757c0.66894,-2.04846 3.11294,-6.44944 4.70611,-9.39004c0.71833,-1.32586 1.42303,-2.19549 1.43676,-2.69607c0.01875,-0.68381 -3.55127,-3.11551 -6.70661,-4.94675c-2.3735,-1.37749 -4.56346,-2.26194 -4.53037,-2.66038c0.56504,-6.80505 5.07868,-16.19662 5.81148,-16.39904c0.78296,-0.21629 7.59873,8.05385 10.57625,13.58113c2.63203,4.88594 4.97038,10.76709 7.18916,18.28807c2.64424,8.96319 3.4346,19.1308 3.4346,19.1308z" fill="none" stroke="#000000" stroke-width="1.5"/></g><path d="M278.25554,192.44119l1.8,-14.5l26.3,-7.7l-10.8,32.1z" fill="#1b1f25" stroke="#000000" stroke-width="1.5" stroke-linecap="butt"/><g stroke-linecap="butt"><path d="M299.60555,176.09119c0,1.43607 -0.90039,3.408 -2.55417,4.05736c-1.50298,0.59014 -3.73265,-0.13837 -4.47791,0.97109c-1.38968,2.06881 -1.09229,3.89534 -2.20052,5.85958c-1.42855,2.53198 -4.33259,4.96197 -7.1674,4.96197c-7.51107,0 -10,-5.23811 -10,-13.55c0,-1.18306 3.50715,-1.98083 7.5126,-7.46516c4.27191,-5.84917 -1.25459,-9.68484 5.1874,-9.68484c7.51107,0 13.7,6.53811 13.7,14.85z" fill="#d396fc" stroke="#000000" stroke-width="1.5"/><path d="M282.00554,172.64119c0,0 -0.08881,-1.47274 0.18238,-2.09486c0.12854,-0.29488 0.96512,-0.94558 1.52796,-1.58417c0.30287,-0.34363 0.28153,-1.63027 0.30299,-3.01116c0.00836,-0.53805 -1.20582,-1.15126 -1.23208,-1.61997c-0.08189,-1.46119 1.31876,-3.08984 1.31876,-3.08984l7.3,0.9c0,0 7.83647,5.17653 6.21918,6.91781c-0.6869,0.73956 -11.52114,-1.27155 -11.64916,-1.09473c-0.76186,1.05238 -1.9293,2.61852 -2.5432,3.20881c-0.61888,0.59508 -1.42683,1.4681 -1.42683,1.4681z" fill="#000000" stroke="none" stroke-width="0"/><path d="M288.60555,178.14119l-0.2,-4.2c0,0 1.11026,-1.40169 2.09536,-2.84014c0.11846,-0.17297 -2.66784,-0.15532 -2.55885,-0.33808c0.41115,-0.68948 0.25521,-2.28507 0.53428,-2.50698c1.53124,-1.21761 8.2292,-0.91479 8.2292,-0.91479l-3.4,8.2z" fill="#ffc6ef" stroke="none" stroke-width="0"/><path d="M283.60303,174.04705c-0.03199,-0.55976 0.06194,-1.28498 0.87311,-2.04449c0.48727,-0.45624 1.44814,-0.98217 1.8539,-1.63311c0.93369,-1.4979 1.07552,-3.22826 1.07552,-3.22826l7.3,-1.5l-2.1,2.2c0,0 -1.92395,1.60598 -3.77462,2.96161c-1.69382,1.24073 -3.2938,2.20682 -3.97538,2.88839c-0.46403,0.46403 -0.15262,1.57341 -0.30716,2.13425c-0.09884,0.35871 -0.89836,-0.95575 -0.94537,-1.77839z" fill="#000000" stroke="none" stroke-width="0"/><path d="M286.30557,177.04119c0,0 2.03826,-3.30955 2.89454,-4.76217c0.99071,-1.68068 2.70546,-4.73783 2.70546,-4.73783c0,0 2.03146,-5.35346 2.10628,-4.81476c0.08928,0.64281 -1.60628,8.41476 -1.60628,8.41476c0,0 -2.84711,3.78327 -3.84582,4.74924c-1.03343,0.99955 -2.25418,1.15076 -2.25418,1.15076z" fill="#000000" stroke="none" stroke-width="0"/></g><g stroke-linecap="butt"><path d="M232.25959,208.9828c-1.72574,-0.26669 -6.15609,-5.76542 -6.59916,-8.07521c-0.58362,-3.04253 3.28984,-8.09193 3.28984,-8.09193c0,0 1.96772,-4.29146 4.7278,-7.56767c2.00408,-2.37883 4.67013,-3.93336 6.1196,-4.32297c0.76579,-0.20584 2.60303,0.42124 4.7951,0.7899c3.56438,0.59945 8.07671,0.88201 10.57586,0.62852c3.56425,-0.36151 6.86941,-0.96407 10.077,-2.03019c2.41185,-0.80163 5.26589,-1.97102 7.66262,-2.40126c0.27496,-0.04935 9.00307,0.4578 10.52483,9.29816c0.41089,2.38696 -0.2295,5.94629 -2.76323,7.94614c-1.81692,1.43407 -4.77883,3.17337 -8.60015,4.22248c-5.78804,1.58905 -12.57287,2.11492 -16.76543,2.47019c-2.42738,0.20568 -3.98135,0.52034 -3.98135,0.52034c0,0 -1.81848,1.22952 -3.45632,2.03467c-2.02127,0.99364 -4.5712,1.99923 -4.74462,2.06139c-5.24673,1.88051 -8.76356,2.84178 -10.86239,2.51744z" fill="#1b1f25" stroke="#000000" stroke-width="1.5"/><path d="M229.69665,192.67061c0,0 3.10817,-9.21186 10.13922,-11.25532c0.86277,-0.25074 14.15516,1.96503 15.35019,1.72574c2.01592,-0.40365 7.51265,-0.85466 12.36199,-2.77029c1.80311,-0.71228 4.64334,-2.08841 5.44393,-1.89993c2.6566,0.62542 6.29939,1.73696 8.10365,4.48117c1.21967,1.85506 1.70193,4.03125 1.65261,5.79406c-0.07379,2.63694 -1.14164,4.53409 -1.14164,4.53409c0,0 -0.57941,-4.87583 -0.93013,-6.66409c-0.23687,-1.20777 -0.97014,-3.02517 -0.97014,-3.02517c0,0 -21.10851,6.62334 -30.23768,8.28436c-0.13762,0.02504 -7.3581,-4.36836 -11.02455,-4.19699c-4.01989,0.18789 -8.74746,4.99237 -8.74746,4.99237z" fill="#2b263c" stroke="none" stroke-width="0"/><path d="M231.31139,207.50767c0,0 -5.28977,-6.45238 -6.32235,-7.89063c-0.38302,-0.53351 -0.65615,-1.16732 -0.65615,-1.16732l2.88272,-6.90471c0,0 1.72314,-3.94992 2.62409,-2.83089c0.11844,0.14712 -0.78182,1.68286 -0.97383,2.39539c-0.09751,0.36184 -0.33908,0.87658 -0.35314,1.37029c-0.02315,0.81275 0.22835,1.57773 0.22835,1.57773c0,0 1.03412,-1.7048 1.11668,-1.50187c1.23541,3.03658 3.22628,14.52936 3.22628,14.52936z" fill="#1b1f25" stroke="none" stroke-width="0"/><path d="M228.22376,190.67912c0,0 -0.39404,-4.25631 3.11692,-7.76194c1.22272,-1.22087 3.49529,-2.42513 5.3936,-3.20268c1.74351,-0.71414 3.17172,-1.05267 3.17172,-1.05267c0,0 -5.27593,2.98439 -7.57985,5.85338c-1.60077,1.99339 -2.7029,6.12639 -2.7029,6.12639z" fill="#000000" stroke="none" stroke-width="0"/></g><g stroke-linecap="butt"><path d="M289.51806,192.53818c1.04293,-4.62493 3.59573,-6.6219 4.19467,-9.45558c1.22732,-5.80666 2.65199,-14.52827 2.65199,-14.52827l19.89622,2.35141c0,0 0.28951,1.74171 0.17086,4.99021c-0.10543,2.88658 -0.63238,7.21085 -0.46554,8.7975c0.10777,1.02498 2.38225,2.33728 2.47092,3.35667c0.08481,0.97509 -1.90006,0.94493 -1.79208,1.90646c0.59403,5.28991 3.23432,11.1653 2.94852,11.73363c-0.42051,0.83623 -1.37673,1.48564 -2.39887,2.34915c-3.44059,2.90663 -9.31685,6.15039 -13.30313,7.61732c-1.62606,0.59838 -3.07902,0.80255 -3.70002,0.84639c-4.11393,0.29044 -9.95387,-13.53313 -10.63145,-18.4137c-0.06598,-0.47522 -0.09079,-1.3353 -0.0421,-1.5512z" fill="#1b1f25" stroke="#000000" stroke-width="1.5"/><path d="M307.42242,200.57331c0,0 1.06429,-2.56988 1.20954,-4.20917c0.2781,-3.13839 0.33791,-13.25437 0.33791,-13.25437c0,0 2.6295,-2.62744 3.74672,-4.06905c1.08251,-1.39683 3.07791,-4.45592 3.07791,-4.45592c0,0 -0.56541,8.73516 -0.82035,9.51451c-0.3201,0.97853 2.73635,2.96159 2.48507,4.09478c-0.12234,0.5517 -1.57251,0.38138 -1.64119,0.97883c-0.1426,1.24058 0.51245,2.53207 0.99223,4.33033c0.90733,3.40072 2.01856,7.44827 1.76007,8.20142c-0.0736,0.21444 -1.31774,1.5144 -2.99176,2.69314c-2.2841,1.60832 -5.17242,3.17775 -5.17242,3.17775c0,0 2.45709,-4.43026 3.0471,-5.69151c0.3035,-0.64879 0.58106,-1.36002 0.58106,-1.36002z" fill="#2b263c" stroke="none" stroke-width="0"/><path d="M317.63676,201.2702c0,0 -0.69108,-1.89126 -1.63497,-4.37483c-0.13056,-0.34354 -0.46934,-0.91612 -0.83653,-1.23195c-0.60986,-0.52458 -1.30756,-0.73165 -1.32946,-0.87569c-0.2139,-1.40719 0.02377,-4.69417 0.26921,-6.86282c0.33513,-2.96122 1.72562,-15.28598 1.72562,-15.28598c0,0 0.73087,6.45578 0.90694,6.7061c0.28822,0.40975 -0.31266,5.87941 -0.31266,5.87941c0,0 -0.10397,1.74221 -0.17951,3.51445c-0.00331,0.07765 0.4616,-0.37981 1.03876,-0.89904c0.33543,-0.30177 -2.18517,-1.42347 -1.35713,-1.8611c0.60899,-0.32186 2.76044,1.51392 2.75911,1.54536c-0.01596,0.37431 -2.47995,2.83226 -2.49195,3.11383c-0.05983,1.40397 -0.33787,3.6734 -0.33787,3.6734c0,0 1.11522,1.29269 1.2448,1.83576c0.27955,1.17157 0.53563,5.12311 0.53563,5.12311z" fill="#000000" stroke="none" stroke-width="0"/></g><g stroke-linecap="butt"><g><path d="M265.74911,145.52885c-0.18896,-0.06597 -1.08958,-0.96689 -1.80701,-2.01179c-3.445,-5.01751 -1.32814,-3.83403 -1.8172,-4.27508c-0.79944,-0.72097 -1.72108,-0.14228 -2.66738,-1.0854c-2.47221,-2.46383 -3.82738,-3.91084 -5.57403,-6.30876c-0.28282,-0.38829 -0.27757,-1.21752 -0.5785,-1.6442c-0.23702,-0.33607 -0.77798,-0.59327 -1.03197,-0.95937c-0.20833,-0.30031 -0.33732,-1.25244 -0.19866,-1.98658c0.1212,-0.64168 -0.06789,-1.47267 0.17738,-2.49724c0.20581,-0.85974 0.56842,-1.86274 0.63262,-2.81624c0.17693,-2.6276 0.45915,-5.35001 0.41233,-6.76413c-0.00978,-0.29574 -0.61186,-1.47466 -0.89519,-2.03034c-0.26729,-0.52421 -0.78711,-0.40685 -0.80767,-0.42281c-0.36035,-0.27983 0.36059,0.69761 -0.15731,1.04083c-0.31935,0.21163 -0.96181,0.16127 -1.3203,0.22944c-1.55988,0.29662 -3.25849,0.90909 -3.92289,0.00051c-3.61708,-4.94642 -2.70644,-16.37311 -1.70417,-18.27215c0.79695,-1.50999 3.15954,2.19538 5.52987,3.24751c0.92992,0.56609 1.68932,0.53957 1.68932,0.53957c0,0 14.77825,-7.7406 23.25542,-7.61905c8.80947,0.1263 28.64288,8.36315 28.64288,8.36315c0,0 -1.24489,0.54981 -2.13843,2.3061c-0.39559,0.77756 -1.3433,2.2282 -1.3657,2.42663c-0.02176,0.19279 0.6846,7.73121 0.64898,7.82144c-0.78601,1.99072 -2.75035,3.00446 -3.2124,4.6942c-0.27225,0.99561 -2.13159,6.01157 -4.67523,11.11927c-2.60474,5.23039 -5.72871,10.95655 -5.80104,11.42754c-0.22428,1.08542 -1.31222,10.34331 -2.59833,10.08744c-2.70199,-0.53756 -7.00037,-0.72769 -9.92179,-1.67147c-3.32811,-1.07515 -7.15024,-2.26173 -8.29635,-2.66183z" fill="#ffc6ef" stroke="#000000" stroke-width="2"/><path d="M258.16067,109.67051l-0.93165,-15.34333l44.57589,5.88824l-2.69073,4.77836c0,0 0.37108,1.09243 0.60009,2.5276c0.34628,2.17 0.41427,5.23095 -0.06708,5.45731c-0.18928,0.08902 -0.44071,0.55567 -0.92486,1.10266c-0.57587,0.65062 -1.2762,1.46252 -1.86968,2.65421c-1.32722,2.66501 -2.45108,6.22209 -2.45108,6.22209c0,0 -3.67568,-0.50669 -5.50591,1.91015c-0.85567,1.12991 -1.38621,2.09271 -1.53015,2.85636c-0.02998,0.15906 1.08017,0.57327 1.21691,0.90653c0.20806,0.50704 -0.37191,0.93824 -0.37191,0.93824c0,0 -3.17368,3.72675 -4.36997,3.59712c-1.57903,-0.1711 -12.71025,-2.40049 -12.71025,-2.40049l-0.61152,-0.15709c0,0 -1.53413,-1.15126 -1.21204,-0.075c0.31826,1.06345 0.66372,3.18511 0.66372,3.18511c0,0 -1.93493,0.47066 -2.08077,1.45665c-0.29761,2.01207 0.3974,9.92411 0.3974,9.92411c0,0 -7.66466,-7.91611 -9.69591,-8.80382c-2.44372,-1.06797 -4.32527,-10.06263 -4.32527,-10.06263z" fill="#d396fc" stroke="none" stroke-width="0"/><path d="M257.36555,120.18742c0.11271,-1.00321 0.95422,-2.1565 0.74955,-3.5975c-0.29101,-2.0489 -1.66214,-4.44614 -1.366,-5.81784c0.34666,-1.60571 3.40196,-1.33632 3.40196,-1.33632c0,0 3.76678,-0.5576 7.767,1.48131c2.7158,1.38423 1.40319,4.19857 6.50776,5.97604c2.67351,0.93095 6.65448,1.79099 6.65448,1.79099c0,0 -0.01985,1.95809 -1.61081,1.92782c-0.6904,-0.01314 -5.21203,-1.15611 -5.28716,-1.05223c-0.42546,0.58823 2.52665,2.40382 3.02046,3.69326c0.59849,1.56276 -1.25999,2.62196 -2.2798,3.24955c-0.95857,0.58989 -5.26694,0.19951 -6.2158,0.68927c-1.25785,0.64925 -1.58175,2.72139 -2.7984,2.86475c-1.14412,0.13482 -2.15517,-0.22892 -3.02202,-0.46385c-1.35354,-0.36683 -2.37598,-0.81737 -3.16168,-1.62235c-2.46591,-2.52647 -2.49743,-6.55568 -2.35955,-7.7829z" fill="#ffc6ef" stroke="none" stroke-width="0"/><path d="M251.58135,125.58633l3.2685,0.75517l-2.1717,4.03478z" fill="#000000" stroke="none" stroke-width="0"/><path d="M244.61446,101.16256c0,0 0.79938,-0.31576 1.73888,-0.12562c0.15246,0.03085 0.43894,0.28923 0.67561,0.53044c1.40716,1.43427 4.09037,6.32287 4.09037,6.32287c0,0 0.10475,-2.02324 0.23392,-2.96165c0.122,-0.88635 -0.25606,-6.50442 -0.25606,-6.50442l7.2549,19.32702l-1.19938,3.33663l1.47247,12.33023c0,0 0.41558,0.29567 0.80682,0.67538c0.57872,0.56166 2.09101,2.5611 4.08248,4.51195c1.38902,1.36069 2.87113,2.95844 4.22823,4.18982c0.45052,0.4088 1.57352,0.80389 1.97735,1.15183c1.43877,1.23966 -0.37714,1.85265 -0.37714,1.85265c0,0 -0.71398,0.08554 -2.75114,-0.83768c-1.7321,-0.78497 -5.19923,-4.23915 -5.19923,-4.23915c0,0 -3.28488,-0.16707 -4.08318,-0.91461c-0.02411,-0.02258 0.13167,-1.67666 -0.5709,-2.71383c-0.09438,-0.13933 -0.3216,-1.24987 -0.91954,-2.60686c-0.24266,-0.55069 -0.4049,-1.16258 -0.73155,-1.69723c-0.45554,-0.74563 -1.0874,-1.40529 -1.43261,-2.10851c-0.54564,-1.11153 -0.85474,-2.5121 -0.86336,-2.53492c-0.32485,-0.86075 0.64011,-3.47051 0.87818,-6.48408c0.23379,-2.95914 0.64178,-6.07784 0.25998,-7.69276c-0.11673,-0.49374 -1.17829,-1.98974 -1.65034,-2.01507c-0.26431,-0.01418 -0.91025,0.13338 -1.27073,0.42212c-0.33602,0.26915 -0.38566,0.6773 -0.6673,0.75713c-1.31488,0.37267 -3.10041,0.67108 -3.4687,0.19306c-0.86407,-1.31578 -1.46545,-3.3732 -1.78479,-5.38482c-0.46081,-2.90288 -0.47327,-6.77993 -0.47327,-6.77993z" fill="#d396fc" stroke="none" stroke-width="0"/><path d="M251.46056,99.42512c-0.01018,-1.79361 -0.60208,-5.13838 -0.34706,-8.50194c0.30075,-3.96667 -0.0311,-9.23285 0.18696,-11.2432c0.0506,-0.46643 0.07099,-1.36027 0.59508,-1.38581c1.18601,-0.05777 5.71876,-0.2594 7.63096,-0.26729c0.33434,-0.00138 0.55228,0.23588 0.81801,0.24317c0.25822,0.00709 0.09452,-0.28305 0.3541,-0.2745c4.95967,0.16355 10.81998,0.61499 10.81998,0.61499c0,0 6.06584,11.76904 4.05651,15.32352c-1.79862,3.18173 -15.61804,5.65893 -15.61804,5.65893c0,0 -0.17936,3.33414 -0.36461,5.02947c-0.17605,1.61099 -0.60385,4.94759 -0.60385,4.94759c0,0 -1.01149,0.77591 -1.20903,1.28789c-0.35424,0.91808 -0.35042,2.08473 -0.27653,2.94292c0.05951,0.69114 0.04579,0.72346 -0.21345,0.17536c-0.71995,-1.52218 -2.18121,-4.63922 -2.94853,-6.46908c-0.50522,-1.20484 -1.00115,-2.1479 -1.57628,-3.68768c-0.24738,-0.66231 0.11201,-1.04555 -0.06543,-1.5286c-0.06794,-0.18497 0.04037,-0.69583 -0.17512,-1.06217c-0.14719,-0.25021 -0.61754,-0.3559 -0.71971,-0.5484c-0.28509,-0.53707 -0.28896,-0.72904 -0.29128,-1.13695z" fill="#4a5c6f" stroke="#000000" stroke-width="2"/><path d="M268.07012,92.48553c-1.99748,-1.6465 -7.28508,-4.91037 -8.93742,-6.25012c-0.65624,-0.5321 -0.71674,-0.3919 -0.10242,-0.58431c1.46229,-0.45804 10.39477,-2.14804 10.39477,-2.14804c0,0 -2.99933,-4.20421 -3.23593,-7.45374c-0.51022,-7.00765 2.26894,-9.14726 2.88802,-9.71047c0.24641,-0.22416 1.97074,-1.27158 3.93403,-1.87592c1.38276,-0.42566 2.85386,-0.55169 4.29123,-0.7572c2.7348,-0.391 6.81103,-0.07251 8.32001,-0.00945c0.7324,0.03061 -0.12167,0.22817 -0.78589,0.70898c-1.93404,1.39999 -5.98655,3.88344 -5.87086,5.24008c0.06107,0.7161 0.7203,1.96816 1.14568,3.24937c0.31116,0.93718 0.84386,2.20332 1.56718,3.35504c0.52442,0.83503 1.65881,1.39216 3.08956,1.99795c6.04448,2.55928 18.37632,3.34932 22.39928,3.07027c0.40199,-0.02787 1.73428,-4.48403 1.88545,-4.44975c0.67905,0.15401 8.70902,14.4396 0.7265,21.3033c-3.01294,2.59066 -7.3703,3.63106 -11.93993,3.58876c-8.89348,-0.08233 -18.23276,-3.8966 -18.23276,-3.8966c0,0 -6.57486,0.93065 -11.92024,1.36795c-3.022,0.24722 -5.63918,0.30542 -6.6133,0.37196c-0.79341,0.05419 -2.02551,-0.08873 -1.48919,-0.64697c0,0 0.8605,-0.52231 1.81518,-1.02041c1.9533,-1.01911 5.11757,-2.61347 6.54166,-3.58623c0,0 1.38575,-0.67626 1.38769,-0.81708c0,0 -0.58487,-0.49225 -1.25831,-1.04737z" fill="#4a5c6f" stroke="#000000" stroke-width="2"/><path d="M270.6269,70.75874c0.93183,-2.47337 1.28949,-2.74647 2.31268,-3.62093c4.0091,-3.42641 10.71113,-2.97239 10.71113,-2.97239c0,0 -5.15485,3.24583 -5.60485,4.63077c-0.33567,1.03305 1.5424,6.9851 2.74117,8.10437c1.30429,1.21779 3.39285,2.03455 5.75785,2.80343c7.36846,2.39554 17.93606,2.96317 20.04521,2.60082c0.31593,-0.05429 1.18418,-0.29562 1.57393,-0.82548c0.7418,-1.00844 0.87951,-2.80523 0.87951,-2.80523c0,0 1.48274,3.24783 1.98993,4.8214c0.5801,1.79978 1.33327,5.89583 1.33327,5.89583c0,0 -8.31176,4.46315 -16.46009,2.33602c-3.81117,-0.99492 -7.09264,-2.2125 -9.53281,-3.58925c-2.40088,-1.35459 -3.88987,-3.03696 -5.15232,-4.28647c-2.04288,-2.02191 -4.08302,-3.96295 -4.08302,-3.96295c0,0 0.09905,1.84879 0.29887,2.83218c0.29949,1.47394 0.4928,4.02704 0.4928,4.02704c0,0 -11.29266,-5.39995 -7.30326,-15.98915z" fill="#696f96" stroke="none" stroke-width="0"/><path d="M269.43616,84.1389l0.65498,-0.80422c0,0 1.77235,0.9495 2.68339,2.02752c0.66184,0.78314 0.919,1.53375 0.60248,1.71632c-0.40033,0.23091 -1.26655,-0.65562 -2.11573,-1.42529c-0.35676,-0.32336 -0.65411,-0.82203 -0.96572,-1.07699c-0.45465,-0.37202 -0.85942,-0.43734 -0.85942,-0.43734z" fill="#000000" stroke="none" stroke-width="0"/><path d="M264.85805,82.70773l0.53311,-1.40904c0,0 1.27038,0.60921 2.28257,1.05211c0.63275,0.27686 1.18624,0.43149 1.19866,0.50821c0.11675,0.72168 -3.1424,0.34517 -3.1424,0.34517z" fill="#4a5c6f" stroke="none" stroke-width="0"/><path d="M252.48413,100.91069l0.14335,-3.46828l5.19433,11.50114c0,0 -0.71159,0.52755 -0.87683,0.92631c-0.20075,0.48442 -0.24206,1.77354 -0.24206,1.77354z" fill="#4a5c6f" stroke="none" stroke-width="0"/><path d="M254.41316,108.81342l0.21774,-1.09042l1.18977,0.45967l-0.51695,1.36633z" fill="#000000" stroke="none" stroke-width="0"/><path d="M249.85438,107.14017c0,0 -0.09813,-0.43923 -0.34771,-0.96081c-0.27974,-0.5846 -0.79291,-1.309 -1.03722,-1.81806c-0.25414,-0.52949 -0.70273,-1.37361 -1.0398,-2.10043c-0.39193,-0.8451 -0.51647,-1.10207 -0.51647,-1.10207c0,0 0.33138,0.22519 0.76665,0.72386c0.25246,0.28923 0.49555,0.65335 0.84448,1.16344c0.91659,1.33989 1.97067,3.10578 2.67499,4.60984c0.8954,1.91216 1.33414,3.30698 0.05074,3.81674c-0.66918,0.2658 -0.78152,0.01725 -1.05997,-0.29359c-0.28146,-0.31419 -0.38851,-0.75339 -0.47977,-1.28043c-0.0729,-0.42105 -0.16649,-0.91002 -0.10499,-1.34884c0.1138,-0.81198 0.2491,-1.40965 0.2491,-1.40965z" fill="#000000" stroke="none" stroke-width="0"/><path d="M258.5503,110.91058l1.02241,-1.75833c0,0 2.84144,-0.11849 3.18229,0.25947c0.5597,0.62061 -4.20471,1.49886 -4.20471,1.49886z" fill="#000000" stroke="none" stroke-width="0"/><path d="M254.3737,109.83526c0,0 0.50427,-0.43187 0.83229,-0.0215c0.63476,0.79416 1.36824,2.73701 1.82788,3.01127c0.62148,0.37081 1.32202,-0.61383 1.32202,-0.61383c0,0 1.16953,4.63714 1.06367,5.22206c-0.03952,0.21832 -0.07713,0.53794 -0.17,0.80513c-0.17586,0.50596 -0.40927,0.5441 -0.65303,0.72546c-0.18408,0.13695 -0.36021,0.38664 -0.60016,0.80545c-0.38153,0.6659 -0.69537,1.61428 -1.0419,2.41955c-0.3593,0.83498 -0.83072,1.90057 -0.83072,1.90057c0,0 0.0906,-1.03304 0.38469,-1.9513c0.15212,-0.47497 0.2737,-1.02665 0.4591,-1.63153c0.36455,-1.1893 0.77043,-2.49219 0.70193,-3.17724c-0.03994,-0.39933 -0.32244,-0.72278 -0.48829,-1.17147c-0.33589,-0.90881 -0.91596,-1.82973 -1.34018,-2.55528c-0.42372,-0.72469 -1.46732,-3.76735 -1.46732,-3.76735z" fill="#000000" stroke="none" stroke-width="0"/><path d="M279.0548,98.95102l0.74202,-1.80921l1.314,0.54984l-0.76334,1.39433z" fill="#000000" stroke="none" stroke-width="0"/><path d="M271.57552,131.3428c0,0 -0.19219,-0.51209 0.4358,-1.06343c1.72993,-1.51882 5.75088,-4.27519 7.07491,-4.63262c0.37514,-0.10127 2.48223,3.62113 2.48223,3.62113c0,0 1.58648,-5.72239 2.30234,-7.6423c0.51437,-1.37951 2.09672,-5.25692 2.09672,-5.25692c0,0 -8.65788,-4.44961 -9.68359,-6.55866c-1.46732,-3.01709 1.46301,-9.24919 1.46301,-9.24919c0,0 4.64167,4.41239 6.84964,5.84575c1.68065,1.09103 5.2533,2.01117 5.2533,2.01117c0,0 -1.92156,1.48362 -2.18125,2.52207c-0.22151,0.88577 1.12586,2.60249 1.10269,4.20251c-0.02445,1.68821 -0.93474,1.41337 -0.93474,1.41337c0,0 -2.51472,6.73241 -2.8758,9.21872c-0.29422,2.02599 0.27847,6.54793 0.27847,6.54793c0,0 -1.46724,0.94771 -2.41744,0.8884c-2.29536,-0.14327 -11.24628,-1.86793 -11.24628,-1.86793z" fill="#ffc6ef" stroke="none" stroke-width="0"/><path d="M291.04713,115.01432c-0.8537,-0.06317 0.90545,-0.79075 0.60088,-1.68521c-0.14266,-0.41897 -1.25062,-1.68485 -1.0194,-2.21641c0.57541,-1.32282 8.48178,-6.19204 8.48178,-6.19204c0,0 0.40782,1.60734 0.56521,2.62047c0.19196,1.23572 0.3609,4.26649 0.3609,4.26649c0,0 -1.55835,0.52934 -3.3228,1.25211c-2.1162,0.86686 -5.2454,1.98577 -5.66658,1.95461z" fill="#ffc6ef" stroke="none" stroke-width="0"/><path d="M261.20525,103.04472c0,0 0.3234,-0.09841 1.02349,-0.27671c0.88801,-0.22616 2.31505,-0.30369 3.57049,-0.34087c0.41729,-0.01236 0.89133,-0.09708 1.42766,-0.02112c0.5519,0.07816 1.15692,0.07664 1.82156,0.25902c0.95869,0.26305 2.02302,0.55013 3.20043,1.41628c0.51473,0.37865 0.68153,7.29915 1.03083,7.49407c0.57586,0.32135 1.462,0.91363 2.53826,1.48786c1.49834,0.79943 3.38413,1.60346 4.74836,2.43139c0.51401,0.31194 2.05657,1.26331 3.75892,1.15279c0.55381,-0.03595 1.13433,-0.74271 1.62944,-0.82305c0.93021,-0.15093 1.67691,-0.38006 1.93976,-0.68685c0.37834,-0.44155 -1.59839,-3.77991 -1.29626,-4.29258c0.4282,-0.72657 2.36332,-1.52822 2.73386,-2.23895c0.09997,-0.19175 -2.74826,-0.43668 -4.32264,-1.39949c-2.25572,-1.37949 -3.51891,-3.5705 -3.51891,-3.5705c0,0 2.06815,2.08431 4.52866,3.22118c1.45968,0.67444 4.032,0.56947 4.64186,0.44794c0.44605,-0.08889 0.22877,-1.19636 0.40343,-1.8499c0.01931,-0.07228 -0.41372,0.04321 -1.02764,0.01132c-0.84043,-0.04365 -2.01403,-0.25069 -2.77704,-0.56044c-1.54494,-0.62719 -1.99667,-2.13627 -1.99667,-2.13627c0,0 1.41088,1.23493 2.87969,1.64448c1.04671,0.29186 2.53222,0.08091 2.96176,0.00356c0.4222,-0.07602 0.31603,-2.73041 0.31603,-2.73041l1.38395,0.21044c0,0 -0.28453,0.67188 -0.0227,1.45584c0.16019,0.47965 1.32605,-1.37827 1.32605,-1.37827l2.14577,0.03678c0,0 -3.42896,2.42561 -3.8082,2.98912c-0.47624,0.70765 -0.15789,1.36854 -0.20263,1.52014c-0.02019,0.06844 0.42846,-0.14814 0.97335,-0.66566c1.36605,-1.29741 3.72397,-3.82101 3.65671,-3.60357c-0.07142,0.23088 1.80629,-0.25349 1.70588,0.02782c-0.3069,0.8597 -2.74491,3.12963 -5.468,5.15461c-1.79058,1.33153 -3.94438,2.31167 -4.8507,3.58065c-0.4237,0.59324 0.4742,1.518 0.68022,1.98992c0.1218,0.27899 0.9049,1.21353 0.60793,2.5413c-0.08808,0.39382 -0.74558,0.80722 -1.12838,1.24848c-0.0313,0.03607 0.81791,0.14618 2.04986,-0.27682c3.38397,-1.16192 9.78611,-3.81187 9.75573,-3.70879c-0.03986,0.13521 -1.1548,2.28107 -2.16929,2.7907c-0.26971,0.13549 -6.35616,1.96675 -8.98353,2.66567c-0.71998,0.19153 -1.18753,0.25311 -1.20733,0.26638c-0.24084,0.16151 -0.23897,0.38923 -0.35409,0.78765c-0.01654,0.05724 0.66832,0.0067 1.69132,0.00659c1.42805,-0.00017 3.50874,-0.02455 5.20459,-0.60318c1.31212,-0.44769 2.60759,-2.41173 3.17469,-3.00918c0.2773,-0.29214 0.21565,0.48885 0.21565,0.48885l-1.40853,2.77654c0,0 -2.05002,0.81583 -3.32281,1.04473c-0.66923,0.12035 -1.73383,0.24813 -2.80008,0.36057c-0.12601,0.01329 0.54898,0.13803 1.26958,0.20084c0.8135,0.0709 1.68605,0.0806 1.547,0.09437c-0.5841,0.0579 -1.70529,0.333 -2.855,0.33255c-0.73685,-0.00029 -1.48572,-0.11973 -2.09705,-0.18237c-0.8144,-0.08344 -1.38727,-0.11605 -1.38727,-0.11605c0,0 -0.63449,2.22483 -0.87147,3.30223c-0.10597,0.48174 -0.39109,1.25937 -0.53345,2.00142c-0.20464,1.06663 -0.2563,2.06661 -0.2563,2.06661c0,0 -0.25114,-0.70761 -0.29056,-1.8091c-0.02692,-0.75201 0.11594,-1.69104 0.22475,-2.70031c0.17162,-1.59181 1.06162,-3.59897 1.322,-4.57145c0.11348,-0.42383 -0.27809,-0.54 -0.3029,-0.56686c-0.07159,-0.07748 -1.47741,-0.01318 -1.95966,0.35633c-0.43186,0.33091 -1.54625,1.67185 -2.0504,2.18988c-0.20153,0.20708 -0.54158,0.15628 -0.72676,0.34875c-0.64818,0.67371 -1.22331,1.34302 -1.71473,1.76368c-0.48153,0.4122 -0.88546,0.58324 -0.93044,0.52135c-0.11411,-0.157 0.30274,-0.51517 0.70776,-0.97285c0.54394,-0.61467 1.12271,-1.35954 0.89985,-1.5686c-0.09868,-0.09258 -1.2365,0.25618 -1.83181,0.09919c-0.79838,-0.21054 -2.2537,-0.841 -3.11263,-1.15299c-1.18242,-0.42949 -1.66665,-0.52415 -1.66665,-0.52415c0,0 1.0601,-0.08827 2.3378,0.0769c1.99136,0.25741 4.49234,0.7615 4.18643,0.33495c-0.07129,-0.09941 -0.03633,-0.22746 -0.15906,-0.36926c-0.4017,-0.46407 -2.46399,-1.09087 -4.58538,-1.62843c-1.81209,-0.45918 -3.66371,-0.78347 -4.59978,-1.65389c-1.08883,-1.01247 -2.30862,-4.79032 -2.99145,-5.00389c-0.15304,-0.04787 -0.06464,0.86508 0.21458,1.73809c0.26369,0.82442 0.71917,1.6122 0.58791,1.55608c-0.69612,-0.29761 -1.15835,-0.86998 -1.60959,-1.47993c-0.63309,-0.85575 -1.1833,-1.85106 -1.79022,-2.84058c-0.07771,-0.12669 -0.93138,-0.07129 -1.48842,-0.26833c-0.38301,-0.13549 -0.52413,-0.46697 -0.57555,-0.5551c-0.14394,-0.24674 1.34135,-0.11974 2.32882,-0.27435c0.41081,-0.06432 0.73819,-0.12402 0.82189,-0.36464c0.09891,-0.28433 -0.65558,-0.97592 -1.4211,-1.33814c-0.76472,-0.36184 -1.47325,-0.25828 -1.54707,-0.52352c-0.06361,-0.22857 0.61072,-0.19927 1.75768,-0.19091c0.6884,0.00503 2.23255,0.51337 2.10913,0.21637c-0.07599,-0.18287 -0.69384,-1.16099 -1.31644,-1.65234c-0.19675,-0.15528 1.57742,-0.09181 2.35715,0.89575c0.15038,0.19047 0.39199,0.40912 0.4353,0.67398c0.36878,2.25532 -1.24239,2.59928 -0.86593,2.72984c1.64706,0.57121 2.43983,4.09217 4.26071,5.74134c0.56485,0.51158 1.65243,0.56843 2.57141,0.88561c2.03323,0.70178 4.21398,1.37103 4.96431,1.81332c0.6011,0.35433 1.33101,0.14893 1.47833,-0.02121c0.06699,-0.07737 -1.46186,-1.11638 -3.46127,-2.06365c-1.78436,-0.84537 -3.96452,-1.49814 -5.38717,-3.21887c-0.49979,-0.60451 -0.466,-2.18326 -0.60211,-2.9545c-0.16936,-0.95964 -0.44289,-1.13782 -0.47962,-2.1065c-0.03914,-1.03211 -0.24028,-2.28089 -0.51481,-2.50508c-0.38252,-0.31235 -1.97644,-1.11662 -3.71659,-1.57882c-2.5508,-0.6775 -5.74454,-0.52283 -5.74454,-0.52283z" fill="#000000" stroke="none" stroke-width="0"/><path d="M270.18285,146.02837c0,0 -0.64708,-0.09319 -1.43152,-0.30747c-1.0776,-0.29437 -2.41209,-0.77207 -2.6633,-1.13941c-0.55942,-0.81803 1.02579,-2.89958 1.02579,-2.89958c0,0 4.22865,3.83142 5.82676,3.68147c0.48913,-0.04589 2.50228,0.51317 0.34891,0.61714c-2.78253,0.13435 -3.10665,0.04785 -3.10665,0.04785z" fill="#d396fc" stroke="none" stroke-width="0"/><path d="M278.25487,143.13592c0,0 0.11721,1.13032 -0.24192,0.86396c-1.85057,-1.37257 -3.86234,-6.897 -3.86234,-6.897c0,0 8.24743,-3.45968 10.72777,-4.66741c1.38335,-0.67358 2.89594,-1.96622 2.89594,-1.96622c0,0 0.7525,0.33366 0.49408,1.15121c-0.42541,1.34583 -2.80572,6.16205 -2.80572,6.16205c0,0 -0.06923,-1.0407 -0.04587,-1.9232c0.01819,-0.68743 0.15458,-1.28186 0.02115,-1.19422c-0.25023,0.16436 -0.86768,0.57147 -1.5841,1.26446c-0.1434,0.13871 -0.23778,0.33533 -0.39226,0.49264c-2.49645,2.54204 -5.20674,6.71374 -5.20674,6.71374z" fill="#d396fc" stroke="none" stroke-width="0"/><path d="M266.21873,137.73332c-0.15308,-0.81987 -0.09461,-1.85904 -0.45787,-3.49958c-0.14072,-0.63549 -0.63191,-2.07816 -0.78934,-2.69635c-0.31043,-1.21904 2.54183,-1.30399 2.42516,-5.42476c-0.00916,-0.32326 0.45959,-0.76521 0.76549,-0.67759c0.62294,0.17843 1.61654,1.24364 3.84823,0.81097c0.69073,-0.13392 1.77325,-0.21562 2.80235,-0.53656c1.00619,-0.31379 1.96437,-0.7967 2.49312,-1.04568c0.26418,-0.12439 0.42336,-0.14762 0.42336,-0.14762c0,0 -0.2333,0.48921 -0.74781,0.97898c-0.80183,0.76326 -2.25306,1.68955 -3.79858,1.98754c-1.25096,0.2412 -2.73424,0.05771 -2.93956,0.34735c-0.11026,0.15554 0.06284,0.07376 0.24411,0.38879c0.59301,1.0306 2.29054,2.70093 2.57102,2.64082c0.38907,-0.08338 2.16425,-0.50759 4.28766,-0.49828c0.92654,0.00407 1.92886,0.27526 2.89535,0.38403c0.89553,0.10078 2.48026,2.01077 3.35044,1.94693c0.63302,-0.04644 1.22196,-0.77731 1.78969,-1.19016c0.85395,-0.62098 1.63033,-1.09814 2.20053,-2.03586c0.10153,-0.16697 0.05491,-0.53802 -0.06726,-0.80271c-0.14799,-0.32064 -0.3821,-0.53983 -0.27912,-0.75492c0.19478,-0.40684 0.91895,0.35094 1.49328,0.7309c0.29956,0.19819 0.57339,0.09089 0.86602,0.36347c0.24538,0.22856 0.21415,0.48016 0.32233,0.91742c0.07997,0.32326 -1.0426,1.47815 -1.91135,2.6091c-0.35089,0.45678 -0.58534,0.97547 -0.79746,1.33298c-0.22562,0.38025 -0.41785,0.58526 -0.41785,0.58526c0,0 0.02218,-0.26723 0.13179,-0.65044c0.28815,-1.00737 0.83292,-2.79941 0.56536,-2.51989c-0.33556,0.35057 -1.52533,1.19139 -2.60119,2.51493c-0.03838,0.04722 -0.27344,0.26253 -0.45643,0.29906c-0.44768,0.08937 -0.79006,0.04658 -1.46256,0.20664c-0.33761,0.08035 -0.69465,0.73598 -0.9628,0.84022c-0.50934,0.198 -1.15244,0.63338 -1.24979,0.75593c-0.30203,0.38017 -1.3033,-0.08171 -1.58056,0.3245c-0.33616,0.49248 -0.60038,1.10043 -0.73644,1.75514c-0.34805,1.67477 -6.51286,3.57869 -6.65693,2.58477c-0.09195,-0.63435 -0.07892,-1.20468 -0.01253,-1.79734c0.05818,-0.51934 0.17099,-1.05648 0.10694,-1.66001c-0.03765,-0.35481 -0.1663,-0.66997 -0.2614,-1.05272c-0.28162,-1.13344 -0.70325,-2.39456 -1.04497,-3.33997c-0.36263,-1.00329 -1.05841,-1.89639 -1.36741,-2.63505c-0.36755,-0.8786 -0.30347,-1.75235 -0.59046,-1.98957c-0.22358,-0.18481 -0.34677,0.09328 -0.5152,0.32457c-0.16303,0.22386 -0.42493,0.855 -0.70482,1.37186c-0.41242,0.76161 -0.91193,1.48798 -1.01778,2.53384c-0.07137,0.70512 0.28357,1.76276 0.30044,2.47354c0.01049,0.44187 0.10666,0.82441 0.15977,1.24666c0.12566,0.99895 0.21419,2.06194 0.25819,2.56217c0.03869,0.43982 -0.76219,-0.26903 -0.87315,-0.86331z" fill="#000000" stroke="none" stroke-width="0"/><path d="M274.85537,132.27835l5.11965,-0.19005c0,0 -0.37453,0.85855 -0.89278,1.72975c-0.2834,0.47641 -0.70462,0.94408 -1.14774,1.24225c-0.32119,0.21613 -1.93986,0.35101 -2.0923,0.35837c-0.20825,0.01006 -1.09897,-0.15771 -1.82884,-0.33205c-0.5095,-0.1217 -0.94903,-0.41026 -1.02358,-0.64876c-0.05632,-0.18016 -0.00635,-0.26746 0.09954,-0.47378c0.41304,-0.80472 1.76604,-1.68574 1.76604,-1.68574z" fill="#ffffff" stroke="none" stroke-width="0"/><path d="M272.23245,131.71925l0.02841,1.70265c0,0 -1.17279,-1.02553 -1.51924,-2.03068c-0.23804,-0.69061 -0.37097,-2.11698 -0.37097,-2.11698c0,0 0.72767,1.14405 1.06962,1.57351c0.23923,0.30046 0.7922,0.87149 0.7922,0.87149z" fill="#ffffff" stroke="none" stroke-width="0"/><path d="M272.73204,133.40948l-0.0586,-1.14007l1.07622,0.29091z" fill="#f44254" stroke="none" stroke-width="0"/><path d="M275.84722,145.60014c0.04044,0.7868 -0.09864,1.14949 -1.46738,1.1375c-0.09697,-0.00085 -0.36568,-0.08587 -0.62047,-0.27513c-0.27349,-0.20315 -0.54444,-0.51904 -0.97931,-0.75603c-0.60318,-0.32872 -1.54933,-0.5892 -1.69044,-0.58239c-0.83421,0.04028 -1.97065,0.12181 -2.65144,0.0365c-0.3791,-0.0475 -0.58715,-0.17861 -0.59446,-0.32089c-0.00711,-0.13826 0.35431,-0.15635 0.8786,-0.17168c0.92716,-0.02711 2.04617,-0.02469 2.89398,0.07775c0.31212,0.03771 0.52598,0.11494 0.81583,0.13876c0.88005,0.07233 1.50836,0.03222 2.12921,0.08718c0.71254,0.06308 1.26389,0.20057 1.28588,0.62843z" fill="#000000" stroke="none" stroke-width="0"/><path d="M277.93886,143.12206c0.08435,-0.29097 0.40899,-0.60159 0.60365,-0.88629c0.13941,-0.20389 0.23658,-0.39566 0.34636,-0.56779c0.27684,-0.43406 0.50311,-0.6928 0.61155,-0.69803c0.05423,-0.00262 -0.15483,0.5544 -0.25393,1.0518c-0.08218,0.41251 -0.20844,0.55827 -0.13213,0.98948c0.07621,0.43063 -0.03345,0.81692 -0.31083,0.9964c-0.22605,0.14627 -0.59398,0.15668 -0.8141,-0.07023c-0.14102,-0.14537 -0.09605,-0.65846 -0.05058,-0.81532z" fill="#000000" stroke="none" stroke-width="0"/><path d="M262.41538,138.39699c0.00999,0.19441 -0.12418,0.35888 -0.29969,0.36736c-0.1755,0.00847 -0.32589,-0.14226 -0.33588,-0.33667c-0.00999,-0.19441 0.12419,-0.35889 0.29969,-0.36736c0.1755,-0.00847 0.32589,0.14226 0.33588,0.33667z" fill="#000000" stroke="none" stroke-width="0"/><path d="M264.33986,140.42139c0.01249,0.24301 -0.18064,0.44982 -0.43137,0.46193c-0.25073,0.01211 -0.4641,-0.17508 -0.47659,-0.41809c-0.01249,-0.24301 0.18064,-0.44982 0.43136,-0.46193c0.25073,-0.01211 0.46411,0.17508 0.4766,0.41809z" fill="#000000" stroke="none" stroke-width="0"/><path d="M266.29634,141.29736c0.00999,0.19441 -0.12419,0.35889 -0.29969,0.36736c-0.1755,0.00847 -0.32589,-0.14226 -0.33588,-0.33667c-0.00999,-0.19441 0.12419,-0.35888 0.29969,-0.36735c0.1755,-0.00847 0.32589,0.14225 0.33588,0.33666z" fill="#000000" stroke="none" stroke-width="0"/><path d="M267.79433,142.10722c0.00999,0.19441 -0.16483,0.36085 -0.39049,0.37174c-0.22565,0.0109 -0.41668,-0.13788 -0.42668,-0.33229c-0.00999,-0.19441 0.16484,-0.36084 0.39049,-0.37173c0.22565,-0.0109 0.41668,0.13787 0.42668,0.33228z" fill="#000000" stroke="none" stroke-width="0"/><path d="M265.81489,142.5557c0.00999,0.19441 -0.14451,0.35987 -0.34509,0.36955c-0.20058,0.00968 -0.37129,-0.14007 -0.38128,-0.33448c-0.00999,-0.19441 0.14452,-0.35987 0.3451,-0.36955c0.20058,-0.00968 0.37128,0.14007 0.38127,0.33448z" fill="#000000" stroke="none" stroke-width="0"/><path d="M267.06307,143.81875c0.00749,0.14581 -0.08805,0.26891 -0.21342,0.27496c-0.12536,0.00605 -0.23306,-0.10724 -0.24056,-0.25304c-0.00749,-0.14581 0.08805,-0.26892 0.21342,-0.27497c0.12536,-0.00605 0.23306,0.10725 0.24056,0.25305z" fill="#000000" stroke="none" stroke-width="0"/></g><path d="M268.73335,128.62286l1.55999,2.43555c0,0 1.90737,4.6118 2.63447,4.86608c1.83262,0.6409 9.01083,-1.72671 9.01083,-1.72671c0,0 -3.34682,3.28004 -4.03149,5.63322c-0.46897,1.61181 0.16468,3.00023 -0.56458,3.73408c-0.3236,0.32564 -1.90873,0.39811 -3.21023,-0.30215c-1.00353,-0.53994 -1.79339,-1.80962 -1.98535,-2.10265c-0.54594,-0.83342 -1.35471,-1.62098 -1.64386,-1.97533c-0.90938,-1.11443 -0.79593,-3.7252 -1.01087,-6.20788c-0.20186,-2.33159 -0.75891,-4.35421 -0.75891,-4.35421z" fill="#000000" stroke="none" stroke-width="0"/></g><g><g><path d="M298.45354,156.39393c-0.38023,7.54669 -4.3974,11.7631 -11.8783,11.73534c-5.8509,-0.02172 -12.0443,-6.64914 -11.66407,-14.19583c0.38023,-7.54669 5.53294,-12.78324 13.00442,-12.40679c1.1684,0.05887 2.22923,0.45994 3.20153,0.81723c5.24521,1.92741 7.65719,7.68353 7.33642,14.05006z" fill="#485e84" stroke="#000000" stroke-width="2" stroke-linecap="butt"/><path d="M277.13086,160.46249c0,0 2.85957,0.36534 3.50027,-0.40678c6.1459,-7.4065 7.01885,-14.38564 7.13141,-16.71597c0.02557,-0.52945 -0.44207,-0.84181 -0.44207,-0.84181c0,0 1.05707,-0.05806 2.38076,0.30619c1.40851,0.38759 3.12011,1.22933 4.22279,2.30326c1.25956,1.22673 3.3993,4.81239 3.3993,4.81239l1.11279,10.43285c0,0 -4.58923,4.93252 -5.55723,5.42359c-0.94831,0.48108 -2.20844,0.77835 -3.53555,1.14836c-2.06051,0.57449 -4.32625,0.3864 -5.67217,-0.13241c-1.7177,-0.66212 -3.51057,-2.15942 -4.74355,-3.61975c-1.14753,-1.35911 -1.79673,-2.7099 -1.79673,-2.7099z" fill="#343545" stroke="none" stroke-width="0" stroke-linecap="butt"/><path d="M289.35675,159.89516c0,0 -4.46208,0.71247 -6.7329,-0.51664c-2.87462,-1.55594 -7.49677,-6.11689 -7.49677,-6.11689" fill="none" stroke="#000000" stroke-width="1" stroke-linecap="round"/><path d="M284.42422,142.16996c0,0 3.45834,0.93021 5.34351,1.96925c1.90317,1.04896 5.05911,4.74454 5.05911,4.74454" fill="none" stroke="#000000" stroke-width="1" stroke-linecap="round"/><path d="M290.63491,165.23898c0,0 -4.56935,0.79977 -6.96837,-0.64355c-3.68121,-2.21474 -7.98309,-6.11737 -7.98309,-6.11737" fill="none" stroke="#000000" stroke-width="1" stroke-linecap="round"/><path d="M283.17539,166.9567c0,0 -4.9325,-7.12675 -1.95076,-15.32734c3.26613,-8.98274 11.88381,-8.38469 11.88381,-8.38469" fill="none" stroke="#000000" stroke-width="1" stroke-linecap="round"/><path d="M287.86465,167.83014c0,0 -3.79864,-8.06549 -1.18304,-15.30751c2.14763,-5.94637 9.45365,-6.12165 9.45365,-6.12165" fill="none" stroke="#000000" stroke-width="1" stroke-linecap="round"/><path d="M279.37834,147.64741c-0.34055,0.49701 -0.9356,0.68135 -1.32906,0.41175c-0.39347,-0.2696 -0.1777,-0.60496 0.16285,-1.10197c0.34055,-0.49701 0.67694,-0.96746 1.0704,-0.69785c0.39347,0.2696 0.43636,0.89107 0.09581,1.38808z" fill="#8fbbbe" stroke="none" stroke-width="0" stroke-linecap="butt"/><path d="M281.82642,144.95185c-0.01516,0.30086 -0.39329,0.52633 -0.84459,0.50359c-0.4513,-0.02274 -0.63242,-0.09433 -0.61727,-0.3952c0.01516,-0.30086 0.39787,-0.61712 0.84917,-0.59438c0.4513,0.02274 0.62784,0.18513 0.61268,0.486z" fill="#8fbbbe" stroke="none" stroke-width="0" stroke-linecap="butt"/><path d="M277.44647,150.52389c-0.07069,0.44631 -0.36919,0.76991 -0.66672,0.72278c-0.29754,-0.04712 -0.20906,-0.43341 -0.13837,-0.87971c0.07069,-0.44631 0.09681,-0.78363 0.39435,-0.7365c0.29754,0.04712 0.48144,0.44713 0.41075,0.89343z" fill="#8fbbbe" stroke="none" stroke-width="0" stroke-linecap="butt"/><path d="M278.21515,162.42863c0,0 -1.41708,-4.92439 -1.04392,-8.70116c0.21157,-2.14124 1.13721,-3.95539 1.85439,-5.32291c0.63424,-1.20938 3.18383,-3.29319 5.30129,-4.6851c1.55897,-1.02479 2.9211,-1.58927 2.9211,-1.58927" fill="none" stroke="#000000" stroke-width="0.5" stroke-linecap="round"/><path d="M277.89482,145.2999c0,0 5.27427,0.46958 7.6963,1.67892c2.04062,1.01891 5.89783,4.92261 5.89783,4.92261" fill="none" stroke="#000000" stroke-width="1" stroke-linecap="round"/><path d="M290.53,154.67485c0,0 -4.81686,-0.48311 -6.94081,-1.26967c-3.72925,-1.38106 -7.29801,-5.18227 -7.29801,-5.18227" fill="none" stroke="#000000" stroke-width="1" stroke-linecap="round"/></g><g stroke-linecap="butt"><path d="M290.39901,171.01032c0.48594,-1.75389 0.84262,-3.16389 0.87463,-3.29603c0.06704,-0.2768 -0.74397,-3.10989 -1.28726,-6.1863c-0.59174,-3.35084 -0.7849,-6.81656 -0.71098,-7.11985c0.34679,-1.42276 2.54221,-2.95416 4.10851,-4.32572c2.34034,-2.04938 4.64536,-4.24506 5.44473,-4.20479c1.01766,0.05127 1.95653,2.26832 3.22604,2.87423c1.04056,0.49663 4.7453,0.54509 5.87231,1.2742c0.8249,0.53367 1.32786,1.53771 2.11566,2.16844c0.81937,0.65599 2.53297,0.25323 3.30464,0.9708c0.79614,0.74032 1.53567,1.6699 2.22859,2.47754c0.90725,1.05743 4.19127,1.40952 4.90486,2.46903c2.49944,3.71109 1.28118,7.83194 0.85442,8.53519c-2.39944,3.95411 -5.50837,6.88241 -7.07409,8.45585c-1.09339,1.09877 -3.16966,1.58438 -4.79016,0.8395c-1.34421,-0.61788 -2.10674,-1.90751 -3.1888,-2.47009c-1.05516,-0.54859 -2.24161,0.11544 -2.24161,0.11544c0,0 1.59686,2.10488 1.36309,4.21393c-0.20418,1.84215 -1.50998,3.80408 -3.46691,3.19364c-1.81245,-0.56538 -3.64031,-4.42094 -5.169,-4.95982c-1.92816,-0.67971 -4.63283,0.42745 -5.76976,-0.27432c-1.34202,-0.82836 -0.7789,-4.10115 -0.5989,-4.75085z" fill="#d396fc" stroke="#000000" stroke-width="1.5"/><path d="M291.31233,162.6334c0,0 -1.69326,-7.32689 -1.15441,-8.47325c0.59273,-1.26099 3.57506,-3.46552 5.15565,-4.71559c0.5877,-0.46482 0.98428,-0.8508 0.98428,-0.8508c0,0 0.79392,0.8859 1.34029,2.03536c0.52321,1.10074 0.80361,2.45748 0.64307,2.87596c-0.32405,0.84469 -3.00975,1.37177 -4.25084,2.93433c-0.30822,0.38805 -0.02645,4.95251 -0.31897,5.35148c-0.68901,0.93975 -1.36401,0.96183 -1.85528,0.94545c-0.43656,-0.01456 -0.54379,-0.10294 -0.54379,-0.10294z" fill="#ffc6ef" stroke="none" stroke-width="0"/><path d="M300.84889,166.66384c0,0 2.54105,-6.88073 2.96266,-9.01013c0.2328,-1.17578 -0.443,-3.06019 -0.443,-3.06019c0,0 3.04848,-1.15996 3.36819,0.54892c0.27148,1.45107 0.03672,7.86223 -1.66678,10.58357c-1.20056,1.9179 -4.22107,0.93783 -4.22107,0.93783z" fill="#ffc6ef" stroke="none" stroke-width="0"/><path d="M306.32714,169.94366c0,0 2.64713,-6.59837 3.09485,-8.98332c0.36451,-1.94167 -0.60652,-4.27189 -0.60652,-4.27189c0,0 2.57525,-0.33864 3.59281,0.64301c0.751,0.72451 1.57266,2.08228 1.53948,3.52294c-0.02876,1.24827 -0.88818,2.2535 -1.37201,3.59536c-0.7666,2.12611 -1.47169,4.41193 -2.38583,5.46519c-0.49562,0.57105 -3.86277,0.02872 -3.86277,0.02872z" fill="#ffc6ef" stroke="none" stroke-width="0"/><path d="M295.10668,165.00916c0,0 3.18832,-8.14097 3.82548,-10.67318c0.34032,-1.35252 -0.29723,-3.34886 -0.29723,-3.34886c0,0 3.80275,1.24299 3.87388,1.85519c0.10828,0.93184 0.09198,2.43805 -0.11154,4.08624c-0.47824,3.87288 -1.57973,8.55039 -1.57973,8.55039c0,0 -3.42304,0.13229 -4.36619,0.05471c-0.96016,-0.07899 -1.34467,-0.5245 -1.34467,-0.5245z" fill="#ffc6ef" stroke="none" stroke-width="0"/><path d="M291.45493,169.01685c0,0 -1.84581,-12.83207 -1.78139,-13.74628c0.02272,-0.32259 0.53475,2.75247 1.14405,5.38813c0.39824,1.72267 0.98882,3.36952 0.98882,3.36952c0,0 0.2407,2.50775 0.86504,3.17517c0.20376,0.21782 0.44329,0.14833 0.70808,-0.17831c0.57895,-0.71418 1.337,-4.19567 1.99799,-6.63626c0.23911,-0.88288 0.54143,-1.56615 0.70155,-1.83614c0.2022,-0.34096 -0.89165,0.06272 -0.89165,0.06272c0,0 0.75395,-2.02491 1.26282,-2.76265c0.36657,-0.53144 1.33977,-0.81216 1.65075,-1.24336c0.37289,-0.51706 0.09049,-2.25652 0.29815,-3.26148c0.12831,-0.62098 0.5841,-0.65987 0.6951,-0.51655c0.14666,0.18938 0.98159,2.44535 0.67745,3.54784c-0.95013,3.44414 -3.98348,9.1581 -4.36129,12.20735c-0.22094,1.78327 1.24381,3.54412 1.51227,3.6744c0.69465,0.33712 1.68047,0.48179 2.38067,0.28619c0.05094,-0.01422 -0.71787,-1.26288 -0.41825,-2.54854c0.29721,-1.27531 0.64455,-3.06582 1.42009,-4.91056c0.87607,-2.08387 2.19827,-4.24199 2.73825,-5.89922c0.10101,-0.30999 0.02833,-2.95919 0.07754,-2.95854c0.27034,0.00367 1.8879,3.03533 1.3389,4.10944c-0.50646,0.99086 -0.94621,2.59087 -1.60438,4.22799c-0.66459,1.6531 -1.26343,3.42184 -1.71407,4.63788c-0.36834,0.99395 -0.26977,2.11301 -0.26354,2.1271c0.24575,0.55616 0.74142,1.15784 1.2347,1.82733c0.42675,0.57917 0.85855,1.07316 1.14389,1.26129c0.77662,0.51201 1.65445,-0.03497 1.65445,-0.03497c0,0 -0.71777,-1.11881 -0.45776,-2.30186c0.20563,-0.93568 1.1682,-3.06657 2.18433,-5.29348c0.2038,-0.44665 0.44734,-0.98257 0.69362,-1.42409c0.61817,-1.10822 1.27782,-2.10296 1.54771,-3.13304c0.2976,-1.13583 -0.32101,-2.5428 -0.4849,-3.41614c-0.09725,-0.51819 -0.10344,-0.85199 -0.10344,-0.85199c0,0 0.97536,0.90219 1.43232,2.06328c0.40549,1.03031 0.57769,2.29263 0.48597,3.07933c-0.27567,2.36487 -3.35214,6.57048 -3.36646,9.69469c-0.0062,1.35291 2.466,4.82964 2.466,4.82964c0,0 -3.71348,-2.25681 -4.33301,-1.99536c-0.52844,0.22301 0.20004,5.43719 0.20004,5.43719c0,0 -0.78532,-1.5982 -1.37907,-2.91836c-0.40212,-0.8941 -0.61807,-1.65571 -0.82038,-1.72599c-0.45369,-0.15762 -0.94042,-0.35155 -1.14799,-0.51827c-0.53251,-0.42772 -1.30026,-1.76402 -1.30026,-1.76402c0,0 -1.42992,0.07967 -2.77735,-0.1106c-0.93786,-0.13243 -1.83106,-0.48925 -2.19405,-0.7027c-0.95383,-0.56086 -1.20334,-2.17934 -1.20334,-2.17934c0,0 -0.97443,0.04446 -1.45819,0.02136c-0.4822,-0.02303 -1.43971,-0.15978 -1.43971,-0.15978z" fill="#000000" stroke="none" stroke-width="0"/><path d="M296.6839,148.15809c0,0 1.49503,-1.65415 2.08438,-1.62445c0.55911,0.02817 2.32334,2.66575 2.32334,2.66575c0,0 -1.88099,-0.19241 -2.6274,-0.4035c-0.68406,-0.19346 -1.78032,-0.63779 -1.78032,-0.63779z" fill="#ffc6ef" stroke="none" stroke-width="0"/><path d="M301.17328,149.38555c0,0 3.31262,0.68829 4.47801,0.8982c0.74498,0.13419 2.09964,0.43447 2.09964,0.43447c0,0 -2.0417,0.96739 -3.00005,1.29582c-0.67794,0.23233 -2.9031,-0.23294 -3.72076,-0.83047c-0.7128,-0.52089 0.14317,-1.79802 0.14317,-1.79802z" fill="#ffc6ef" stroke="none" stroke-width="0"/><path d="M308.25311,155.20372c0.01669,-0.33135 0.26571,-0.9927 0.40838,-1.46566c0.12993,-0.43073 0.369,-1.31693 0.369,-1.31693c0,0 0.31736,0.49509 0.78751,0.59614c0.71492,0.15366 2.88473,0.59015 2.88473,0.59015c0,0 0.165,1.38773 -1.04347,1.82827c-0.99641,0.36323 -3.41815,0.00667 -3.40612,-0.23196z" fill="#ffc6ef" stroke="none" stroke-width="0"/><path d="M313.86436,158.1348c0.08082,-0.64212 0.6444,-2.43385 0.6444,-2.43385c0,0 0.44566,0.59981 1.07846,0.88618c0.54994,0.24889 1.15882,0.53189 1.51376,0.72036c0.56492,0.29997 1.75603,0.61508 1.75603,0.61508c0,0 -1.81311,1.19173 -3.08356,1.21556c-1.07905,0.02024 -1.94085,-0.75104 -1.90909,-1.00334z" fill="#ffc6ef" stroke="none" stroke-width="0"/></g><g stroke="#000000" stroke-width="1.5" stroke-linecap="butt"><path d="M314.06606,166.62948c0.54205,-1.73194 2.41458,-2.25326 2.6086,-2.91699c0.20601,-0.70478 0.49071,-1.57313 0.60545,-1.59121c0.10907,-0.01719 -0.28563,1.53303 0.28541,1.5618c0.56226,0.02833 2.16365,0.54467 3.59938,1.39267c2.42223,1.43066 5.7144,3.44576 5.7144,3.44576c0,0 -0.5938,1.19773 -1.18597,3.61943c-0.37368,1.52817 -2.64846,3.83344 -2.64846,3.83344c0,0 -7.69501,-1.61397 -8.7049,-2.52857c-1.52214,-1.37853 -0.62948,-5.68022 -0.27391,-6.81632z" fill="#485e84"/><path d="M323.60859,175.54635c-0.10689,0.27985 -0.4196,0.35455 -0.6913,0.02613c-0.66346,-0.80197 -1.66822,-2.4738 -0.72515,-4.48164c0.68421,-1.4567 2.10435,-2.03814 3.0656,-2.26912c0.56873,-0.13666 0.88285,0.09543 0.73007,0.49544c0,0 -2.07507,5.43286 -2.37922,6.22919z" fill="#343545"/></g></g></g></g></svg>