<svg version="1.1" xmlns="http://www.w3.org/2000/svg" xmlns:xlink="http://www.w3.org/1999/xlink" width="275.24753" height="299.55195" viewBox="0,0,275.24753,299.55195"><defs><radialGradient cx="256.62456" cy="275.38178" r="14.95343" gradientUnits="userSpaceOnUse" id="color-1"><stop offset="0" stop-color="#1e202b"/><stop offset="1" stop-color="#1e202b" stop-opacity="0"/></radialGradient></defs><g transform="translate(-102.37623,-30.22402)"><g data-paper-data="{&quot;isPaintingLayer&quot;:true}" fill-rule="nonzero" stroke-linejoin="miter" stroke-miterlimit="10" stroke-dasharray="" stroke-dashoffset="0" style="mix-blend-mode: normal"><path d="M102.37624,329.77598v-299.55195h275.24753v299.55195z" fill="none" stroke="none" stroke-width="0" stroke-linecap="butt"/><g stroke-linecap="butt"><g><path d="M226.19272,162.46275c0,0 -1.85708,-22.03581 -2.49622,-30.66722c-0.48476,-6.54647 -0.73496,-15.50104 -0.7985,-18.43511c-0.06462,-2.98409 0.9024,-10.78488 0.9024,-10.78488l33.54208,-1.71388c0,0 -2.50524,16.86583 -1.06104,23.83602c1.00637,4.85706 21.77815,22.55048 21.77815,22.55048z" fill="#d396fc" stroke="#000000" stroke-width="1.5"/><path d="M255.03805,177.2118c0,0 -6.2664,-17.08523 -10.07166,-24.53279c-3.54944,-6.94688 -12.04593,-18.75512 -12.04593,-18.75512c0,0 9.38743,3.04184 17.21176,1.11973c3.45241,-0.84812 8.10855,-5.21712 8.10855,-5.21712c0,0 13.56751,10.73502 16.09459,14.70265c2.63961,4.1443 -0.5798,9.65621 -0.5798,9.65621z" fill="#ffc6ef" stroke="none" stroke-width="0"/><path d="M264.94413,157.24347c-0.76046,-1.59667 5.31288,-12.11327 4.14975,-13.73083c-5.09185,-7.08122 -12.85513,-13.69161 -12.89704,-13.95586c-0.31065,-1.9588 -1.85317,-13.7062 -1.85317,-13.7062l3.321,1.9181c0,0 2.97578,9.05029 4.36781,10.48433c1.33421,1.37447 9.8197,3.85556 13.37338,7.20874c7.24978,6.84076 12.67612,18.26268 12.67612,18.26268c0,0 -22.55284,4.7473 -23.13786,3.51903z" fill="#2b263c" stroke="#000000" stroke-width="1.5"/><path d="M258.96164,168.43862c0,0 1.89878,-3.66465 1.26226,-5.11767c-0.25295,-0.57743 -2.67613,-0.0089 -3.08049,0.06343c-0.9314,0.1666 -1.72214,0.49983 -1.95617,0.33621c-0.5178,-0.36201 0.22001,-1.74867 0.50864,-2.91474c0.25663,-1.0368 1.61691,-2.36708 1.55364,-3.43514c-0.04421,-0.74627 -4.79981,-2.03274 -4.84461,-2.72798c-0.03607,-0.55981 2.50925,-3.2741 2.41515,-3.72828c-0.05164,-0.24919 -1.47949,-0.91358 -2.83832,-1.9242c-1.69697,-1.26211 -3.39486,-2.89885 -3.42278,-3.03362c-0.09867,-0.47622 0.25369,-0.44819 0.79645,-0.59195c1.90231,-0.50387 6.42098,-1.77883 8.52732,-3.04012c2.4719,-1.48019 6.7452,-5.91711 8.12761,-7.40397c0.35429,-0.38106 -0.04089,-0.29058 0.19474,0.23787c0.05512,0.12362 -0.25683,1.64416 -0.61418,2.94044c-0.63321,2.29699 -1.30165,5.72619 -0.79512,6.55908c0.10026,0.16487 1.82244,-0.80689 3.76853,-1.47797c2.3419,-0.80756 4.97397,-1.34423 5.04272,-1.11942c0.10861,0.35514 -2.7379,8.04769 -2.68341,10.42886c0.01983,0.86654 -1.18634,14.35479 -1.18634,14.35479z" fill="#4a5c6f" stroke="#000000" stroke-width="1.5"/><path d="M271.72772,160.43202c0,0 -4.45838,-0.41196 -7.56298,-0.6278c-1.61332,-0.11216 -3.00272,0.04434 -2.91,-0.11911c1.28962,-2.27338 2.04836,-5.29178 2.0023,-7.50167c-0.00683,-0.32756 -6.12275,1.88672 -6.12504,1.55878c-0.00354,-0.50742 3.99605,-5.50634 3.91548,-5.90476c-0.09142,-0.45208 -7.4649,-0.96864 -7.50139,-1.23676c-0.06253,-0.45962 1.54642,-2.38074 1.54642,-2.38074c0,0 4.86156,-2.48218 6.69329,-3.87473c1.23985,-0.94258 3.32925,-3.81873 3.32925,-3.81873c0,0 -1.79302,8.57717 -1.06725,8.96321c0.31498,0.16754 1.99915,-1.24564 4.10219,-2.1267c2.32788,-0.97526 5.08525,-1.42495 5.232,-1.12859c0.15138,0.3057 -2.8964,6.71426 -2.8964,6.71426l6.50975,11.03021z" fill="#696f96" stroke="none" stroke-width="0"/><path d="M262.50397,139.05322c0,0 -0.88912,-0.90778 -2.05939,-2.07648c-0.82669,-0.82557 -1.73918,-1.79264 -2.81744,-2.61218c-3.44718,-2.62006 -7.48263,-4.81438 -7.66193,-6.13214c-0.01528,-0.11226 0.03802,-6.03355 0.76347,-5.91247c0.37338,0.06231 0.50978,5.62375 1.04806,5.87059c0.65248,0.29922 1.96349,0.95714 2.6932,1.49766c0.98681,0.73097 1.58719,1.98157 2.51909,2.98663c1.05055,1.13301 2.18909,2.28023 3.06899,3.30369c1.49307,1.73668 2.44597,3.0747 2.44597,3.0747z" fill="#000000" stroke="none" stroke-width="0"/></g><path d="M256.80215,128.33371l-1.60918,-11.14934l1.954,0.91953l2.1839,7.12638z" fill="#1b1f25" stroke="none" stroke-width="0"/></g><g stroke-linecap="butt"><path d="M185.27507,296.53612c5.15487,-4.54696 10.72658,-9.45965 11.50594,-10.88432c0.69928,-1.27827 1.39652,-2.74121 2.29864,-4.35854c3.17585,-5.69374 7.5129,-13.30086 11.24405,-21.49946c0.8461,-1.85919 1.43296,-3.87316 2.22915,-5.76835c0.59121,-1.40725 0.89533,-2.31355 1.40841,-3.73407c0.36843,-1.02004 0.35712,-1.39857 0.6962,-2.41496c0.29097,-0.87217 1.17745,-2.89677 1.45306,-3.7603c1.17461,-3.68023 2.23593,-7.25678 3.40746,-10.5158c3.50702,-9.75598 5.19273,-17.80707 5.19273,-17.80707l26.56378,-5.09213c0,0 -3.31441,15.84929 -8.52175,30.16707c-1.26702,3.48372 -3.6115,7.68446 -5.33485,10.7456c-0.86488,1.53629 -1.61935,2.88311 -2.29506,3.99276c-0.40514,0.6653 -0.88525,1.1357 -1.05518,1.81703c-0.71466,2.86539 -0.23579,6.53569 -0.36445,10.88743c-0.2194,7.42066 -0.66738,15.51661 -0.66738,15.51661c0,0 -6.5719,9.29022 -6.69319,9.28986c-0.52444,-0.00157 -1.90306,-6.22535 -2.38627,-8.48473c-0.10716,-0.50106 -0.37615,-0.65999 -0.70454,-0.39619c-0.89623,0.71992 -2.70523,2.30861 -3.73387,4.14588c-0.73592,1.31444 -1.7503,4.95248 -2.38031,5.25814c-0.69133,0.33542 -1.5345,1.19536 -2.28328,1.54962c-2.97435,1.40719 -6.34492,2.71422 -9.85577,4.05725c-4.6567,1.78137 -9.56017,3.52857 -14.11312,4.70344c-7.14861,1.84466 -13.95113,1.60888 -14.98056,1.64405c-1.0234,0.03496 -0.80749,-0.10161 -0.22516,-0.61316c0,0 5.52765,-4.85768 9.59534,-8.44566z" fill="#1b1f25" stroke="#000000" stroke-width="1.5"/><path d="M249.86366,210.65833l24.30646,-3.72282c0,0 -0.56739,4.4725 -2.39792,11.20325c-1.61384,5.93398 -4.39801,13.56603 -5.97617,22.24417c-0.76993,4.23381 1.06709,9.02047 0.20608,13.44525c-0.61285,3.14947 -1.50799,3.38954 -2.73541,6.69671c-0.64101,1.72717 -1.10757,3.99498 -1.78567,6.31931c-0.93503,3.20501 -2.0543,6.51749 -2.61791,8.66821c-0.88162,3.36423 -0.29014,6.22665 -0.33076,8.90083c-0.09329,6.1399 12.43698,16.05548 14.26578,17.82068c0.18174,0.17541 0.3733,0.28208 0.26705,0.28643c-1.55458,0.0636 -5.44095,0.09723 -7.85862,-0.24296c-4.32538,-0.60863 -8.19313,-1.60042 -11.62588,-2.40659c-4.71939,-1.10834 -8.61667,-2.09439 -11.75086,-3.32802c-3.75449,-1.47778 -6.41393,-3.07567 -8.07977,-3.86199c-0.30343,-0.14322 0.06542,-5.97897 0.13847,-7.62174c0.07395,-1.6626 -0.85274,-1.2314 -0.85274,-1.2314c0,0 -0.41431,-5.67489 0.52024,-9.73841c0.65515,-2.84865 1.82756,-8.6348 3.98005,-15.50236c1.02139,-3.25874 2.69903,-6.90767 3.92701,-10.4551c1.20131,-3.47041 2.19633,-6.83736 3.07145,-10.20861c3.87779,-14.93832 5.3291,-27.26482 5.3291,-27.26482z" fill="#1b1f25" stroke="#000000" stroke-width="1.5"/><path d="M242.1652,239.79863c0,0 -4.35842,0.94016 -4.44825,-0.31785c-0.29719,-4.16201 2.35217,-29.03681 2.35217,-29.03681h19.34842c0,0 -10.61105,28.07978 -12.37401,31.77136c-0.41398,0.86688 -2.29856,-1.04738 -2.29856,-1.04738c0,0 1.88765,-8.04472 1.12865,-8.04472c-1.00267,0 -1.66817,1.79899 -2.27052,3.19569c-0.71643,1.66121 -1.43791,3.47971 -1.43791,3.47971z" fill="#1b1f25" stroke="none" stroke-width="0"/><path d="M228.96784,283.31795c0.01488,-2.11732 1.58831,-10.27069 1.58831,-10.27069c0,0 0.75099,-11.76839 1.26152,-12.16183c0.31302,-0.24123 1.167,2.57717 1.34227,4.97096c0.14673,2.00389 0.05205,5.66175 -0.01493,5.90805c-0.02555,0.09394 -0.2942,1.86595 -0.25717,2.90264c0.02377,0.66555 0.31571,0.77648 0.40932,0.77648c0.41491,0 1.48367,-3.56216 2.30843,-6.78534c0.4893,-1.91219 1.02558,-3.9269 1.06524,-4.40194c0.1132,-1.35618 0.49602,8.61982 0.49602,8.61982l-0.72556,11.12567c0,0 -7.48316,0.69712 -7.47346,-0.68383z" fill="#1b1f25" stroke="none" stroke-width="0"/><path d="M241.67113,275.38178c0,-8.76704 6.69489,-15.87412 14.95344,-15.87412c2.21148,0 4.3098,-0.85622 6.19849,0.05843c0.10339,0.05007 -0.17069,0.9074 -0.54343,2.10403c-0.25813,0.82867 -0.52161,1.82006 -0.91264,2.81874c-0.46886,1.19747 -0.80211,3.00785 -1.37807,4.67976c-0.28845,0.83731 -0.67388,2.28785 -0.96531,3.56923c-0.04746,0.20869 -0.1314,0.52528 -0.22758,0.868c-0.18583,0.66215 -0.36061,1.42177 -0.46292,1.68895c-1.41713,3.70139 0.21568,8.96074 -0.75778,10.1236c-0.10709,0.12792 0.51816,2.64794 1.29784,3.74726c0.56859,0.80169 1.93106,2.07018 1.86054,2.08576c-0.98813,0.21821 -3.06004,0.00448 -4.10915,0.00448c-8.25856,0 -14.95344,-7.10708 -14.95344,-15.87412z" fill="url(#color-1)" stroke="none" stroke-width="0"/><path d="M262.481,293.15907c0,0 -1.46485,-1.28116 -2.63545,-2.748c-0.75871,-0.95071 -1.28461,-1.97792 -1.75074,-2.87341c-0.13439,-0.25819 -0.8874,0.02743 -0.97256,-0.37941c-0.24777,-1.18362 -0.17012,-3.06789 0.04227,-5.0485c0.22017,-2.05317 0.5408,-4.20985 0.79596,-5.79682c0.2314,-1.43919 0.65084,-2.92334 0.65084,-2.92334l3.14411,-6.50424c0,0 -1.38774,8.64644 -1.574,9.83448c-0.12446,0.7939 -0.17175,1.91021 -0.34133,2.83571c-0.20974,1.14468 -0.52119,2.13351 -0.37919,3.48053c0.21236,2.01471 1.71508,3.84663 2.1177,4.81998c0.85271,2.06137 1.62795,3.84812 1.62795,3.84812z" fill="#000000" stroke="none" stroke-width="0"/><path d="M218.12939,293.69702c0,0 -6.23148,2.55333 -6.51338,2.44925c-0.12179,-0.04497 1.13021,-1.10939 2.40204,-1.86309c1.25141,-0.74158 2.52201,-1.173 2.52201,-1.173c0,0 0.67421,-2.41235 1.86693,-4.4664c0.29924,-0.51534 0.50162,-1.1456 0.88545,-1.54899c0.87106,-0.91544 2.52897,-3.14939 4.33509,-4.31483c0.62541,-0.40355 0.94039,0.71101 1.35307,2.47541c0.66354,2.83691 1.34885,6.97454 1.34885,6.97454c0,0 -0.28947,1.45532 -1.13874,-0.34322c-1.05143,-2.22667 -1.11838,-6.47889 -2.02841,-6.47889c-0.86095,0 -1.69649,1.95917 -2.70544,3.95526c-1.13428,2.24401 -2.32746,4.33398 -2.32746,4.33398z" fill="#000000" stroke="none" stroke-width="0"/><path d="M226.06455,292.81673c0,0 -0.78233,-1.68442 -0.62014,-2.22686c0.07963,-0.26631 1.01627,0.74478 1.15958,0.41442c0.58071,-1.33866 1.64284,-3.13742 2.7921,-4.92568c1.21257,-1.88675 3.07167,-3.59852 3.92217,-4.23798c0.41701,-0.31354 0.94133,-0.29842 1.10721,0.00349c0.42128,0.76666 0.2201,2.35596 0.05378,4.08296c-0.1994,2.07036 -0.48574,4.26526 -0.70128,5.5513c-0.10837,0.64662 -0.25046,1.11829 -0.25046,1.11829c0,0 -0.61672,0.25831 -0.68041,-1.10816c-0.0154,-0.33044 -0.08256,-0.70283 -0.07225,-1.09022c0.04532,-1.70243 0.32146,-3.69407 -0.07113,-3.68249c-0.92765,0.02735 -3.20985,3.68734 -4.86715,5.63723c-0.79974,0.94094 -1.77202,0.4637 -1.77202,0.4637z" fill="#000000" stroke="none" stroke-width="0"/><path d="M233.53636,291.90746c0.11571,-0.4561 0.30645,-1.27775 0.40818,-1.81773c0.1684,-0.89384 0.90217,-5.88234 0.90217,-5.88234l1.65215,3.03428l8.29846,9.32289c0,0 -8.46127,-3.09698 -8.93676,-3.29749c-0.70794,-0.29852 -1.64943,-0.69555 -1.95052,-0.82251c-0.18617,-0.07851 -0.43144,-0.30951 -0.3737,-0.5371z" fill="#1b1f25" stroke="none" stroke-width="0"/><path d="M196.66418,286.09433c-0.61799,-0.10553 0.05408,-2.30475 1.05896,-4.14418c0.68465,-1.25326 2.11017,-3.07106 2.69848,-2.97769c0.32993,0.05237 0.37604,0.76959 0.28187,1.58378c-0.09548,0.82558 -0.33392,1.70227 -0.9135,2.63707c-0.64686,1.0433 -1.39864,2.04091 -2.09571,2.54642c-0.43904,0.3184 -1.01556,0.35709 -1.03011,0.35461z" fill="#000000" stroke="none" stroke-width="0"/><path d="M221.07968,280.58677c0,0 -0.37896,-1.0416 -1.32558,-2.44855c-0.43096,-0.64054 -0.94983,-1.40571 -1.44577,-2.04505c-0.65504,-0.84444 -1.27012,-1.52817 -1.59001,-1.99621c-0.16941,-0.24786 -0.18838,-0.4849 -0.17188,-0.51712c0.21151,-0.41318 2.91105,-1.43016 4.45331,-2.23424c0.58363,-0.3043 1.06531,-0.51042 1.09053,-0.74068c0.03415,-0.31168 -2.29518,-5.3598 -3.17079,-7.18122c-0.21955,-0.45669 -0.04038,-0.33775 0.25319,-0.46619c1.21188,-0.53022 4.566,-2.03206 7.09643,-3.49162c1.52603,-0.88022 2.80937,-1.68468 3.0336,-2.36707c0.01927,-0.05864 -0.65296,-0.61345 -1.42193,-1.18088c-0.73952,-0.5457 -1.7214,-1.29427 -2.58813,-2.04284c-0.79143,-0.68354 -1.40009,-1.44609 -1.96475,-1.9752c-0.56933,-0.53348 -1.13144,-0.64886 -1.04381,-0.87264c0.26124,-0.66719 2.01722,-1.6445 3.50589,-2.36197c0.56124,-0.27049 2.13183,-1.07603 2.15734,-1.31594c0.01794,-0.16887 -0.67081,-0.59672 -1.61484,-1.21832c-0.26692,-0.17576 -0.62273,-0.29432 -0.90501,-0.51579c-2.06888,-1.62322 -4.54501,-4.02175 -4.41506,-4.72446c0.15115,-0.81728 0.63269,-1.60225 1.1147,-2.38043c0.71023,-1.14661 1.50866,-2.27848 1.96481,-3.47726c1.83008,-4.80953 2.9142,-9.20726 2.9142,-9.20726c0,0 0.66158,8.02907 1.36451,8.7899c0.63181,0.68387 1.62271,-0.27595 2.64186,-0.39074c1.20805,-0.13609 2.45579,-0.07924 3.19223,-0.16029c0.38071,-0.0419 0.62477,-0.17855 0.65607,-0.27579c0.25824,-0.80232 0.18068,-1.12937 -0.03052,-1.8332c-0.2539,-0.84617 -0.70096,-1.74594 -0.98995,-2.28415c-0.16258,-0.30276 -0.29745,-0.40377 0.06652,-0.53607c0.71848,-0.26118 2.2956,-0.76253 3.99357,-1.43454c1.57388,-0.62289 3.369,-1.50278 5.30222,-2.3272c1.86924,-0.79712 3.87242,-1.53727 5.65107,-2.23881c2.14291,-0.84521 4.06791,-1.26442 5.40828,-1.78127c0.58263,-0.22466 1.05479,-0.59594 1.38636,-0.81485c0.32078,-0.21178 -2.03841,-2.43219 -3.01265,-3.32783c-0.24916,-0.22906 -0.67278,-0.52063 -0.3697,-0.63739c1.07429,-0.41389 4.1231,-1.33431 5.58799,-1.86984c1.42494,-0.52094 4.16658,-1.51667 5.34518,-1.93239c0.37955,-0.13387 0.31182,0.02251 0.04323,0.29193c-0.62099,0.62291 -1.86644,1.83447 -3.30417,3.02688c-1.53219,1.27076 -3.61507,2.59033 -3.62436,2.77691c-0.02353,0.47182 6.28996,0.01968 6.28852,0.68637c-0.00001,0.00503 -0.50376,0.70675 -1.81005,1.43569c-1.12129,0.6257 -2.66777,1.24571 -4.4069,2.0882c-2.37453,1.15029 -5.10819,2.57879 -7.6091,3.74596c-5.9144,2.76022 -10.98443,4.30714 -10.99766,4.66156c-0.01714,0.45893 2.26405,2.43375 2.37158,3.06916c0.04901,0.28962 -1.26638,0.73375 -2.37603,1.37821c-3.16434,1.83776 -8.9015,4.74113 -9.60261,5.95072c-0.11227,0.19369 1.32314,0.44548 3.12192,0.80875c2.92396,0.5905 6.80803,1.34581 6.56517,1.65851c-0.09972,0.12841 -2.58569,0.98161 -5.27615,2.1345c-1.78106,0.76318 -3.68253,1.54598 -5.19096,2.25627c-1.62922,0.76718 -2.79991,1.43662 -2.8651,1.53521c-0.09674,0.14631 1.80504,1.30737 3.83217,2.74909c2.49945,1.77763 5.22814,3.89975 5.10264,4.082c-0.29577,0.42951 -2.34508,1.90531 -4.67374,3.36309c-3.2783,2.05225 -7.11025,4.22388 -7.38282,4.74293c-0.18935,0.36057 5.78701,7.20596 5.58075,7.17568c-0.3742,-0.05493 -1.66158,0.7504 -2.97347,1.28419c-1.06465,0.4332 -2.09465,0.5527 -3.07174,0.96582c-1.03269,0.43664 -1.84005,0.76004 -2.04915,0.75457c-0.16241,-0.00426 0.5085,1.31667 0.94412,2.11418c0.88157,1.61394 1.24447,3.07907 1.24447,3.07907z" fill="#2b263c" stroke="none" stroke-width="0"/><path d="M244.98008,285.81165c0.30803,-0.31032 0.64042,-0.77227 1.11548,-1.18c1.36844,-1.17453 3.28159,-2.57763 4.50141,-3.60509c0.7378,-0.62145 1.32359,-1.15558 1.36751,-1.27572c0.19568,-0.53528 0.03918,-1.68429 -0.22479,-2.19225c-0.27701,-0.53305 -0.77091,-1.32976 -1.44869,-2.10835c-0.56799,-0.65247 -1.28726,-1.26866 -1.90196,-1.93374c-0.95006,-1.02791 -1.82809,-1.98383 -2.23899,-2.59877c-0.19112,-0.28605 -0.28393,-0.65338 -0.2397,-0.75782c0.01854,-0.04376 0.19321,-0.33788 0.6108,-0.55106c0.32792,-0.16741 0.90858,-0.20916 1.41425,-0.44714c0.64784,-0.3049 1.41688,-0.67257 2.24389,-1.11541c0.82032,-0.43925 1.69769,-0.99684 2.5704,-1.49235c1.15607,-0.6564 2.30398,-1.34248 3.30032,-2.00613c1.5982,-1.06453 2.86802,-2.26752 3.05808,-2.88599c0.38097,-1.23964 0.697,-2.45679 0.92213,-3.63484c0.09047,-0.47344 -0.12936,-1.88569 -0.06561,-2.3393c0.01504,-0.10703 -4.03243,0.0125 -4.01811,-0.07775c0.11226,-0.70716 2.88706,-2.17828 2.96444,-2.82823c0.02868,-0.24083 -0.32726,-0.28182 -0.69156,-0.39363c-0.62943,-0.19316 -1.43158,-0.44085 -1.38256,-1.16596c0.04567,-0.67572 1.4397,-0.45475 1.52602,-0.85023c0.02499,-0.11449 -1.25569,-1.71569 -2.99042,-3.38045c-1.3774,-1.32182 -3.12355,-2.6253 -4.14215,-3.6722c-0.72893,-0.74919 -1.1996,-1.49928 -1.17387,-1.5581c0.02557,-0.05845 0.5402,-0.39706 1.33906,-1.14681c0.51229,-0.4808 1.73682,-0.4382 2.42887,-1.08586c1.4378,-1.34556 3.04116,-3.055 4.41488,-4.58227c0.75117,-0.83515 1.58251,-1.53681 2.13175,-2.17375c0.43516,-0.50464 0.63783,-0.99806 0.87353,-1.27786c0.21316,-0.25304 0.25997,-0.49132 0.49035,-0.27738c0.52817,0.49047 1.69375,1.59788 2.1732,2.01259c0.18043,0.15607 0.98119,0.54501 1.16538,0.67271c0.29273,0.20298 -0.19873,0.24302 -0.43761,0.48257c-0.38637,0.38745 -1.04384,1.04779 -1.83876,1.85012c-0.41258,0.41643 -0.86217,1.02912 -1.33008,1.50377c-1.2479,1.26585 -2.62611,2.3276 -3.78012,3.49647c-0.30156,0.30543 -0.6857,0.49316 -0.97859,0.73992c-0.44477,0.37467 -0.77634,0.78229 -1.05621,1.13037c-0.44715,0.55614 -0.78481,0.70504 -0.77382,0.76435c0.04146,0.22388 0.48471,0.78322 0.83249,0.91431c1.1324,0.42681 3.61953,0.57989 5.70878,1.20796c1.40861,0.42345 2.69098,1.44662 3.14069,2.26927c0.04615,0.08444 -0.3267,0.22463 -0.88599,0.61815c-0.9214,0.6483 -2.27438,1.69773 -3.16785,2.38064c-0.51742,0.39549 -0.93019,0.61556 -0.8875,0.69979c0.13659,0.26957 0.64854,0.2252 0.79134,0.49851c0.20661,0.39545 -0.92092,0.79508 -0.70449,1.19769c0.04919,0.0915 0.97536,0.61454 1.98853,0.99167c1.26436,0.47063 2.66421,0.72305 2.66421,0.72305c0,0 -0.00615,1.21672 -1.15234,3.31184c-0.54555,0.99721 -1.00401,2.2545 -2.48695,3.5604c-0.56795,0.50015 -1.31041,0.95169 -2.04564,1.49628c-1.84417,1.36597 -4.03673,2.89931 -6.20798,4.18406c-1.29505,0.7663 -2.70291,1.39326 -3.6732,1.98415c-0.79091,0.48163 -1.26613,0.9658 -1.35706,1.26486c-0.15941,0.52431 1.37879,1.6043 3.3661,2.65171c1.59796,0.84222 3.51259,1.63545 4.86857,2.314c1.15746,0.57921 2.16119,0.69299 2.11093,1.03913c-0.05938,0.40893 -3.41308,1.20665 -3.16882,1.95138c0.04247,0.1295 0.32544,0.19236 0.59674,0.34235c0.67783,0.37477 1.74741,0.80045 1.59792,1.21171c-0.05634,0.15498 -0.49821,0.33561 -1.04857,0.7752c-0.81323,0.64956 -2.20728,1.50716 -3.36632,2.39357c-1.02782,0.78605 -1.82315,1.61163 -2.57493,2.08357c-0.29111,0.18274 -0.80297,0.21457 -1.0867,0.41272c-0.20902,0.14598 0.15314,0.46729 0.54747,0.91244c0.76091,0.85898 2.42789,2.20382 4.36774,3.64506c0.71,0.52751 1.45657,0.83094 2.20863,1.36518c0.55266,0.39259 1.10831,1.01884 1.6546,1.3972c1.81433,1.25653 3.52553,2.39268 4.68227,3.13082c0.88997,0.5679 1.88723,0.83291 1.88723,0.83291c0,0 -1.9452,-0.18287 -4.75117,-1.15518c-1.13633,-0.39375 -2.47604,-0.85094 -3.78838,-1.58032c-2.98612,-1.69856 -6.0756,-3.98509 -8.26207,-5.75046c-1.20721,-0.97471 -2.06473,-1.86956 -2.55199,-2.33986c-0.17633,-0.17019 -0.6124,-0.32238 -0.46251,-0.57532c0.06533,-0.11025 0.60368,-0.30364 0.7181,-0.4189z" fill="#2b263c" stroke="none" stroke-width="0"/></g><g stroke-linecap="butt"><path d="M233.88332,210.39575l18.40903,-22.58274l22.47273,-8.68136c0,0 0.81489,16.22443 0.64785,20.70138c-0.07243,1.94109 -1.63205,5.67659 -1.63205,5.67659z" fill="#d396fc" stroke="none" stroke-width="0"/><path d="M251.05695,206.87909c0,0 3.65144,-3.65184 5.18547,-5.26244c0.94834,-0.99567 2.80182,-3.12911 3.50772,-3.91629c0.20504,-0.22865 0.08007,0.10541 -0.01463,0.39688c-0.19777,0.6087 -0.50493,1.61895 -0.51587,2.05314c-0.00534,0.21166 -0.0705,1.12025 -0.04051,1.36584c0.00907,0.07431 0.47725,0.11889 0.93979,0.03841c0.53553,-0.09318 1.17683,-0.64935 1.44898,-0.72568c0.54043,-0.15159 -1.98287,0.5314 -1.7964,0.4611c0.60955,-0.22983 1.60024,-0.63054 2.51797,-0.86236c0.33691,-0.0851 0.74126,-0.06878 1.00312,-0.12505c0.91208,-0.19598 3.11406,-0.51009 4.04009,-0.56955c0.36885,-0.02369 0.01793,0.23374 -0.20495,0.52372c-0.29535,0.38426 -0.73345,0.964 -1.17401,1.58252c-0.7466,1.04817 -1.94084,4.66838 -2.34632,4.84332c-2.46905,1.06526 -12.55044,0.19645 -12.55044,0.19645z" fill="#4a5c6f" stroke="#000000" stroke-width="1"/><path d="M231.22748,215.42455l6.34186,-9c0,0 3.05352,-0.46922 5.80892,-0.79172c1.55639,-0.18216 4.71015,-0.41699 7.9551,-0.87339c2.68018,-0.37697 5.30905,-0.96287 8.15511,-1.28434c0.81595,-0.09216 1.62194,-0.27003 2.41,-0.35178c3.35373,-0.34792 6.3829,-0.51078 8.47429,-0.67154c1.81635,-0.13961 2.92537,-0.20905 2.92537,-0.20905l-1.07187,7c0,0 -2.72623,0.60804 -6.60249,1.14575c-2.74439,0.3807 -6.19888,0.59011 -9.07799,1.12654c-3.42318,0.6378 -4.38302,1.48999 -7.62051,2.0701c-0.64983,0.11644 -0.92617,0.59288 -1.53862,0.70105c-0.29935,0.05288 -0.95094,-0.25899 -1.23958,-0.20845c-2.13899,0.37457 -3.9678,0.68205 -5.24885,0.8752c-3.33872,0.50341 -9.67075,0.47163 -9.67075,0.47163z" fill="#000000" stroke="none" stroke-width="0"/><g><path d="M271.1432,216.40749c0,0 0.37081,-2.77501 0.63031,-4.41691c0.36365,-2.3008 0.89815,-5.18404 1.15294,-7.85108c0.29211,-3.05775 0.2043,-5.8313 -0.00313,-7.11715c-0.1236,-0.76625 -0.17973,-1.74615 -0.4057,-2.79964c-0.40483,-1.88746 -1.08339,-4.01115 -1.74207,-5.56557c-1.92588,-4.54485 -4.42226,-7.37464 -4.42226,-7.37464c0,0 7.07518,-2.83415 10.9492,1.37669c0.63263,0.68763 1.41727,6.6699 1.29783,7.86973c-0.18737,1.88228 -0.4839,3.68473 -0.69932,5.10979c-0.62708,4.14838 -3.063,11.896 -4.85627,16.66687c-0.89149,2.37174 -1.90154,4.10192 -1.90154,4.10192z" fill="#2b263c" stroke="#000000" stroke-width="1.5"/><path d="M273.59958,196.78249c0,0 -0.72109,-5.2219 -1.88317,-7.66948c-0.58107,-1.22386 -1.57256,-3.59656 -2.60704,-5.3376c-0.53371,-0.89825 -1.32452,-1.74332 -1.83067,-2.49185c-1.25883,-1.86164 -2.03072,-3.12607 -2.03072,-3.12607l11.17642,-0.5c0,0 0.95949,6.26993 1.41837,10.07049c0.18264,1.51266 0.05981,2.63415 0.04619,2.81345c-0.1612,2.12251 -0.48203,4.49107 -0.48203,4.49107c0,0 -1.29268,0.57981 -1.89157,0.90634c-0.54165,0.29533 -1.91578,0.84366 -1.91578,0.84366z" fill="#1b1f25" stroke="none" stroke-width="0"/></g><g><path d="M216.08207,234.88511c-0.01294,-0.46257 0.38327,-1.34148 0.65143,-2.52582c0.36257,-1.60134 0.69444,-3.76107 1.3733,-6.20507c1.19111,-4.28826 2.69423,-9.45172 3.89579,-14.00969c0.51444,-1.95147 0.67327,-5.03432 0.75418,-6.77416c0.19115,-4.1099 0.11911,-8.59714 0.11911,-8.59714l32.54669,-7.875c0,0 -1.72684,2.13276 -4.28739,5.56907c-0.33918,0.45518 -3.25169,4.00625 -3.80017,4.45427c-0.36165,0.2954 1.62351,-2.52465 1.36588,-2.19553c-0.35459,0.45298 2.00546,-1.79045 1.85976,-1.27681c-0.11229,0.39589 -2.71029,3.54597 -3.02215,3.92896c-1.16428,1.4298 -2.55368,3.32631 -3.87494,4.9039c-2.2027,2.63004 -4.55732,5.41598 -6.8432,8.19275c-1.96809,2.39075 -4.06185,4.7747 -5.96346,7.04653c-1.80893,2.1611 -3.41688,4.44135 -5.14516,6.27858c-1.83638,1.95215 -3.77693,3.43636 -5.12647,4.87806c-0.45068,0.48146 -1.85484,1.22973 -2.64869,2.06494c-1.2233,1.28705 -1.84144,2.60873 -1.85449,2.14217z" fill="#2b263c" stroke="#000000" stroke-width="1.5"/><path d="M216.73499,232.77321v-1.75c0,0 0.41195,-0.25 0.7369,-0.25c0.42547,0 1.59663,0.25 1.59663,0.25v1.25z" fill="#000000" stroke="none" stroke-width="0"/><path d="M222.75306,211.77321c0,0 0.49914,-4.72951 0.80452,-7.16408c0.15714,-1.25285 -0.06393,-3.19106 -0.09253,-5.09128c-0.04489,-2.9816 0.02492,-5.86964 0.02492,-5.86964l30.58161,-3.625c0,0 -1.484,1.5389 -3.44426,3.7577c-0.26938,0.30491 -0.47318,1.16323 -0.94659,1.53288c-0.63878,0.49876 -1.56685,0.89316 -1.90951,1.32977c-0.3756,0.47858 -0.47516,1.91844 -0.77173,2.29638c-2.58988,3.30041 -7.78885,9.58328 -7.78885,9.58328c0,0 -0.94415,0.96784 -2.6168,2.1273c-0.71212,0.49364 -1.51178,0.79467 -2.34441,1.36248c-0.84797,0.57828 -1.73016,1.42398 -2.58891,1.99418c-2.68441,1.78242 -5.13989,3.31578 -5.60614,3.28972c-0.48592,-0.02715 -3.30131,-5.52368 -3.30131,-5.52368z" fill="#1b1f25" stroke="none" stroke-width="0"/></g><path d="M255.40897,194.32402c0,0 4.24674,-2.10703 5.83279,-2.95983c1.20721,-0.6491 3.35314,-1.5478 3.35314,-1.5478c0,0 1.2136,0.7752 1.8333,0.83005c0.6374,0.05641 1.77546,0.0047 1.77546,0.0047c0,0 0.08608,1.31081 -0.2128,3.13594c-0.22918,1.39951 -1.26351,3.87593 -1.26351,3.87593z" fill="#ffc6ef" stroke="none" stroke-width="0"/><path d="M248.55592,211.60636c-0.15911,-0.27422 0.12973,-0.4906 0.18444,-1.04463c0.03629,-0.36753 0.18057,-0.7904 0.23736,-1.20634c0.09588,-0.70213 0.10768,-1.38452 0.13316,-1.74765c0.03134,-0.4466 0.0046,-1.1494 0.42338,-1.21218c0.4353,-0.06526 1.08414,-0.3139 2.42983,-0.50635c1.30165,-0.18616 2.86373,-0.10533 4.29515,-0.27121c0.97233,-0.11267 1.88436,-0.44383 2.61354,-0.57874c0.99707,-0.18447 1.65227,-0.16018 1.65227,-0.16018c0,0 -0.5504,1.12772 -0.71735,1.79429c-0.2101,0.83891 -0.44385,2.84207 -0.44385,2.84207c0,0 -1.176,0.27283 -2.45846,0.65603c-0.96141,0.28726 -1.94354,0.67638 -2.7497,0.84047c-0.75374,0.15342 -1.93625,0.14126 -3.00477,0.27083c-0.34206,0.04148 -0.76177,0.03176 -1.06267,0.10779c-0.31209,0.07886 -0.50314,0.24308 -0.7319,0.2608c-0.38338,0.02969 -0.64136,0.22922 -0.80047,-0.045z" fill="#fead41" stroke="none" stroke-width="0"/></g><path d="M272.8334,179.48741l-5.93216,-13.35221l24.55903,-6.25109c0,0 15.41647,8.53255 14.1938,11.2398c-1.26686,2.80509 -3.43031,6.85992 -5.30272,9.96877c-1.94994,3.23758 -5.12256,6.53734 -5.63084,6.43635c-7.05113,-1.40099 -21.88713,-8.04162 -21.88713,-8.04162z" fill="#1b1f25" stroke="#000000" stroke-width="1.5" stroke-linecap="butt"/><g stroke-linecap="butt"><path d="M260.69944,167.26708c0,0 1.64323,-2.07265 2.99421,-4.74478c1.03841,-2.05388 1.65319,-4.49757 2.74896,-6.40873c0.25374,-0.44253 -0.62553,-2.03344 -0.87977,-2.92889c-0.0771,-0.27157 0.25829,-0.83298 0.45331,-0.99643c0.61997,-0.5196 1.66119,-0.65183 2.81578,-1.39147c0.17118,-0.10966 0.32991,-0.83686 0.53227,-0.97544c0.31986,-0.21902 0.66041,-0.43701 0.96404,-0.53645c0.86059,-0.28187 1.04693,-0.07632 1.94298,-0.21418c2.0809,-0.32014 4.24375,-0.66823 5.54038,-0.82859c0.61887,-0.07653 1.28049,0.35667 1.381,0.94868c0.10779,0.63492 0.56018,1.17953 1.16494,1.93282c1.04762,1.30494 2.89356,2.55312 3.61473,2.14065c1.13927,-0.65162 1.35762,7.95483 1.35762,7.95483c0,0 -5.57247,0.86384 -5.83259,1.65605c-0.702,2.13802 -0.24878,4.64113 -0.41828,6.40335c-0.17282,1.79694 -1.46813,3.49565 -1.79301,4.2816c-0.64087,1.55033 -3.57894,2.39993 -3.57894,2.39993z" fill="#d396fc" stroke="#000000" stroke-width="1.5"/><path d="M269.54697,153.30771l-1.96513,-0.87364c0,0 1.64061,-1.8741 2.10264,-2.15447c0.27691,-0.16803 0.53145,-0.4763 0.8268,-0.57175c0.28622,-0.0925 0.49737,0.06288 0.70484,0.07103c0.33657,0.01324 0.75144,0.06877 1.83481,-0.12589c0.81247,-0.14598 4.59701,-1.05735 4.84458,-0.98295c0.53649,0.16125 0.9478,1.1461 1.28048,1.6978c0.54282,0.90019 0.58071,1.5561 1.16827,1.78862c0.81455,0.32234 1.80163,0.78376 1.80163,0.78376c0,0 0.1706,-0.80466 0.56437,1.33123c0.3761,2.04008 0.62797,5.73998 0.62797,5.73998c0,0 -4.24218,-1.77478 -4.93134,-1.64578c-0.91938,0.17209 -3.08315,2.46347 -3.08315,2.46347c0,0 -1.0122,-0.19793 -1.22481,-0.97749c-0.32949,-1.20822 0.07292,-3.21243 -0.05666,-3.39122c-0.74841,-1.0326 6.36998,-1.36338 5.02778,-2.47037c-0.4717,-0.38905 -0.74069,-1.21653 -1.29289,-1.50839c-0.16354,-0.08644 -0.86205,0.77433 -1.75577,1.46554c-0.63875,0.49402 -1.54514,0.89422 -1.65791,0.83323c-0.38177,-0.20645 -0.80314,-1.07359 -1.15395,-1.25797c-0.62132,-0.32655 -0.94388,-0.24708 -1.42963,-0.49327c-0.57175,-0.28977 -1.0276,-0.51146 -1.31579,-0.63585c-0.69844,-0.30146 -0.91714,0.91437 -0.91714,0.91437z" fill="#ffc6ef" stroke="none" stroke-width="0"/><path d="M267.67175,157.85959c0,0 -0.68581,-1.78061 -0.3899,-2.57731c0.21608,-0.58179 0.92429,-0.49588 1.5263,-1.46639c0.8727,-1.40691 1.60478,-4.17297 1.60478,-4.17297l1.8128,-0.28603c0,0 -0.36527,0.91887 -0.78821,2.04461c-0.25274,0.67273 -0.46285,1.46109 -0.80334,2.05553c-0.65685,1.14673 -1.44743,1.32721 -1.81329,1.98059c-0.54536,0.97397 -1.14916,2.42198 -1.14916,2.42198z" fill="#000000" stroke="none" stroke-width="0"/><path d="M269.50055,159.94761c-0.09588,-0.29928 -0.30408,-1.02391 -0.10858,-1.926c0.26488,-1.2222 1.55876,-2.8151 2.32727,-4.34454c0.52504,-1.04489 0.51882,-2.00729 1.3351,-2.84868c0.78362,-0.80773 1.80025,-0.8537 2.96349,-1.18379c1.47391,-0.41825 3.03609,-1.00501 3.03609,-1.00501l0.84271,2.03908c0,0 -4.88196,0.97325 -5.58307,1.7546c-0.48633,0.54199 -0.79807,1.42723 -1.31376,2.57924c-0.22199,0.4959 -2.3382,2.17409 -2.55817,2.70052c-0.08565,0.20498 -0.18409,1.05005 -0.05321,1.71706c0.10448,0.53249 0.43184,0.8741 0.46702,1.25254c0.01488,0.16004 -0.26854,0.26886 -0.60195,0.1021c-0.30987,-0.15499 -0.66748,-0.57023 -0.75297,-0.83713z" fill="#000000" stroke="none" stroke-width="0"/><path d="M272.57264,161.02436c0,0 0.52818,-0.91224 0.79016,-2.02087c0.07205,-0.30492 0.06212,-0.60561 0.12785,-0.91927c0.17488,-0.83463 0.29169,-1.63963 0.39655,-2.14088c0.0559,-0.26721 0.66293,-0.73674 1.20689,-0.88359c1.81178,-0.48911 5.32014,-1.12039 5.69661,-1.1682c0.58333,-0.07407 1.78972,1.17132 1.78972,1.17132l-0.22244,1.40652c0,0 -1.00522,-1.41795 -1.49228,-1.15697c-0.40236,0.21561 -5.41822,1.03052 -5.89684,1.40007c-0.23996,0.18529 -0.13874,3.10983 -0.81233,3.60698c-0.89058,0.65731 -1.58386,0.70488 -1.58386,0.70488z" fill="#000000" stroke="none" stroke-width="0"/></g><g stroke-linecap="butt"><path d="M193.18771,162.17436c-0.28882,-0.92473 8.77611,-10.38452 12.17604,-13.76118c2.42125,-2.40469 6.41366,-6.25496 9.90711,-9.21918c3.03372,-2.57412 5.76684,-4.23769 6.52107,-4.49654c8.1731,-2.80504 17.55998,19.38618 17.55998,19.38618l18.39373,28.07522c0,0 -5.27096,6.88802 -12.68248,13.12547c-3.16831,2.66641 -8.75094,13.15131 -10.98656,12.58678c-2.2714,-0.57355 -8.8798,-5.69025 -13.96292,-11.0451c-4.36977,-4.60334 -9.17099,-10.88527 -13.03157,-16.67662c-2.03939,-3.05934 -3.37116,-5.97929 -5.20991,-8.44802c-2.28133,-3.06293 -3.58322,-3.61115 -5.21121,-5.15085c-1.41451,-1.33781 -3.30014,-3.82192 -3.47325,-4.37619z" fill="#1b1f25" stroke="#000000" stroke-width="1.5"/><path d="M224.47564,177.49515c0,0 -2.10814,-1.6606 -3.56267,-4.29416c-1.45683,-2.63775 -3.00995,-6.16543 -4.83232,-9.35303c-2.20586,-3.85838 -4.71992,-7.2481 -6.8197,-8.341c-4.15525,-2.16275 -15.20621,6.15449 -15.20621,6.15449c0,0 11.81829,-13.1 17.17203,-17.98899c3.80452,-3.47425 12.17111,-9.09541 12.17111,-9.09541l24.24273,40.78258c0,0 -8.96844,-1.465 -15.24883,-0.8195c-3.98154,0.40923 -7.91615,2.95503 -7.91615,2.95503z" fill="#2b263c" stroke="none" stroke-width="0"/></g><g stroke-linecap="butt"><path d="M239.05015,184.37254c0,0 0.13582,0.66901 -0.24169,-6.58349c-0.05627,-1.081 -0.81773,-3.87917 -2.75646,-6.08441c-1.36172,-1.54893 -3.34976,-2.78396 -4.3174,-3.75598c-0.17093,-0.17171 -5.16926,-1.80259 -5.26743,-1.95815c-0.08821,-0.1398 3.89995,1.53768 5.10641,1.77949c0.28881,0.05789 -0.4113,-0.77306 -0.4104,-0.8028c0.06673,-2.18431 1.13726,-7.15463 1.81587,-10.46466c0.30597,-1.49244 0.72174,-2.5357 0.60014,-3.02821c-0.29102,-1.17884 -12.20964,-3.40247 -12.38755,-4.32984c-1.30436,-6.79958 0.33385,-17.21269 0.95438,-17.61229c0.66301,-0.42696 9.15698,5.76873 13.38096,10.34443c3.73387,4.04478 7.46415,9.14211 11.52402,15.8734c4.83838,8.02206 8.2925,17.73097 8.2925,17.73097z" fill="#2b263c" stroke="#000000" stroke-width="1.5"/><path d="M237.7974,176.2135c0.00982,-0.49781 -1.88613,-4.81231 -4.7566,-7.22658c-0.66881,-0.56252 -2.2587,-1.02231 -2.9677,-1.42269c-2.59438,-1.46511 -4.25904,-1.59098 -4.25376,-1.90801c0.07066,-4.24544 0.07306,-11.57904 0.07306,-11.57904l-9.69994,-1.69398l3.57342,-17.18027l2.287,-1.10712l1.85843,11.41687l14.09912,4.9853l-3.40135,15.62599c0,0 2.83663,2.24989 4.85664,4.94925c1.56722,2.09431 2.81612,4.65749 3.42558,6.52953c0.86266,2.64979 0.92225,7.45966 0.92225,7.45966c0,0 -6.1578,-1.65636 -6.01615,-8.8489z" fill="#1b1f25" stroke="none" stroke-width="0"/><path d="M239.05015,184.37254c0,0 0.13581,0.66901 -0.24169,-6.58348c-0.05627,-1.08098 -0.81773,-3.87917 -2.75645,-6.08443c-1.36419,-1.55175 -3.35694,-2.78841 -4.32263,-3.76123c-0.07672,-0.0773 -4.96465,-1.65738 -5.17762,-1.89949c-0.14467,-0.16447 1.50511,-4.6296 2.31306,-7.23733c0.25062,-0.8089 0.48592,-2.35767 0.47754,-2.36907c-0.01808,-0.02459 -0.04041,1.12106 -0.45702,2.40109c-0.89193,2.7405 -2.53171,6.89382 -2.3533,7.10331c0.56089,0.65867 3.79906,1.52223 4.67285,1.7604c0.53291,0.14526 -0.04202,-0.72472 -0.04171,-0.73511c0.06673,-2.18431 1.13727,-7.15463 1.81587,-10.46467c0.30597,-1.49244 0.72173,-2.53569 0.60014,-3.0282c-0.16609,-0.67278 -4.10564,-2.06292 -7.50231,-2.98112c-2.55505,-0.69069 -4.80885,-0.95059 -4.88522,-1.34871c-1.30436,-6.79958 0.33385,-17.2127 0.95438,-17.61229c0.66301,-0.42696 9.15697,5.76873 13.38096,10.34443c3.73387,4.04477 7.46414,9.14211 11.524,15.8734c4.83838,8.02206 8.29253,17.73099 8.29253,17.73099z" fill="none" stroke="#000000" stroke-width="1.5"/></g><g stroke-linecap="butt"><path d="M233.43019,207.43043c-1.64815,0.22001 -7.37421,-3.79958 -8.49335,-5.8775c-1.47418,-2.73709 0.47126,-8.6095 0.47126,-8.6095c0,0 0.45218,-4.6272 1.93834,-8.50519c1.07909,-2.8158 3.01461,-5.0284 4.20837,-5.79754c0.63069,-0.40635 2.49188,-0.31379 4.59467,-0.5648c3.41922,-0.40814 7.59985,-1.3784 9.788,-2.3062c3.12068,-1.32322 5.93151,-2.80482 8.50988,-4.70106c1.93873,-1.42582 4.16435,-3.32332 6.2047,-4.3913c0.23407,-0.12251 8.30837,-2.03681 12.43389,5.96388c1.11391,2.16024 1.63834,5.72567 -0.03886,8.32602c-1.20271,1.86469 -3.34921,4.33453 -6.48955,6.38315c-4.75658,3.10298 -10.74745,5.46727 -14.43999,6.9571c-2.13787,0.86257 -3.44969,1.58902 -3.44969,1.58902c0,0 -1.26765,1.67033 -2.50322,2.88691c-1.52483,1.5014 -3.52547,3.15938 -3.66348,3.2662c-4.17508,3.23186 -7.06651,5.1132 -9.07097,5.38079z" fill="#1b1f25" stroke="#000000" stroke-width="1.5"/><path d="M226.04005,192.60031c0,0 -0.0413,-9.62609 5.70165,-13.50321c0.70471,-0.47575 13.44962,-2.01654 14.45927,-2.57264c1.70318,-0.93809 6.54894,-2.8773 10.35267,-6.03346c1.41433,-1.17354 3.56322,-3.2641 4.34793,-3.30451c2.60388,-0.13407 6.25322,-0.07608 8.74194,2.04166c1.68236,1.43158 2.79555,3.3715 3.29823,5.06376c0.75191,2.53142 0.37246,4.63136 0.37246,4.63136c0,0 -2.03965,-4.4841 -2.91308,-6.09073c-0.58991,-1.08509 -1.81938,-2.6144 -1.81938,-2.6144c0,0 -17.0897,12.10499 -24.85448,16.19416c-0.11705,0.06163 -8.03067,-2.13902 -11.30309,-0.96881c-3.58789,1.28303 -6.38409,7.15677 -6.38409,7.15677z" fill="#2b263c" stroke="none" stroke-width="0"/><path d="M232.11206,206.2861c0,0 -6.80174,-4.6917 -8.18497,-5.77775c-0.51308,-0.40286 -3.94007,-4.61558 -3.94007,-4.61558l3.45306,-3.68294c0,0 0.33641,-4.23477 1.50111,-3.41657c0.15312,0.10757 -0.18657,1.81731 -0.13947,2.54859c0.02392,0.37136 -0.03537,0.9279 0.1052,1.40192c0.23138,0.78035 0.69706,1.43974 0.69706,1.43974c0,0 0.40861,-1.90749 0.5465,-1.73692c2.06352,2.55242 7.43819,12.95014 7.43819,12.95014z" fill="#1b1f25" stroke="none" stroke-width="0"/><path d="M224.08565,191.10837c0,0 -1.67912,-3.94504 0.41689,-8.24776c0.72995,-1.49845 2.41732,-3.26947 3.89773,-4.53131c1.35969,-1.15894 2.55003,-1.87358 2.55003,-1.87358c0,0 -3.85879,4.29109 -5.05764,7.65601c-0.83297,2.33797 -0.54924,6.57652 -0.54924,6.57652z" fill="#000000" stroke="none" stroke-width="0"/></g><g stroke-linecap="butt"><path d="M248.98615,123.28925c-0.91396,-0.13887 -1.83567,-0.43792 -2.16954,-0.50669c-1.29,-0.26573 -0.90356,-0.64947 -1.81476,-0.76962c-1.84521,-0.24328 -3.42371,-0.02058 -5.00621,-0.28073c-1.37013,-0.22524 -2.67887,-0.49769 -3.99039,-0.88819c-0.45765,-0.13626 -3.26087,-1.58411 -3.6823,-1.72028c-0.34568,-0.11169 -1.23043,-0.02902 -1.56023,-0.69487c-0.28826,-0.582 -1.57477,-3.89836 -1.99387,-4.859c-0.35168,-0.80608 -0.8832,-1.63686 -1.4037,-2.4314c-1.43434,-2.18958 -2.95113,-4.42617 -3.83603,-5.51845c-0.35964,-0.44393 -0.39861,-1.31857 -0.45198,-1.31896c-1.95334,-0.01425 -3.06118,5.07065 -4.78062,4.5622c-2.83192,-0.83742 -5.67854,-3.76671 -8.01835,-6.78782c-0.87682,-1.13214 -1.57717,-2.29872 -2.26923,-3.35446c-0.61453,-0.93747 -1.24843,-1.78224 -1.60305,-2.51781c-0.37851,-0.78512 -0.51604,-1.55208 -0.57482,-1.91584c-0.13247,-0.81996 0.86862,-0.9698 2.14671,-0.70213c1.34017,0.28067 2.99208,0.99352 4.27969,0.68485c1.07881,-0.11509 1.05448,-0.47114 1.05448,-0.47114c0,0 7.11191,-15.09266 13.92588,-20.13509c7.08109,-5.2401 27.79014,-10.7353 27.79014,-10.7353c0,0 -0.15241,2.13065 0.1898,4.06413c0.1515,0.856 0.32354,1.40167 0.46018,2.02806c0.06633,0.30406 0.02688,1.26989 0.30145,1.39509c0.39455,0.17995 3.38774,1.75706 3.44125,1.90103c0.72638,1.95417 0.44672,6.26618 1.12141,7.95875c0.76973,1.93099 0.7587,2.68001 1.27635,4.32933c0.6238,1.98757 1.13913,4.52671 1.5678,7.18803c0.57789,3.58769 0.95399,10.03121 1.27034,13.01104c0.31351,2.95317 0.56915,2.45745 0.73028,2.75641c0.14239,0.30032 1.60546,1.76539 1.82457,2.08858c0.26469,0.39044 1.22258,1.37634 1.80227,2.46847c0.63683,1.19979 1.49223,2.68129 1.21356,3.19875c-0.07128,0.13239 -1.70135,0.99665 -3.47872,2.12773c-1.97588,1.25741 -4.18442,2.81116 -5.70525,3.34971c-2.93277,1.03856 -10.36807,2.57687 -10.52297,2.56429c0,0 -0.87225,0.03189 -1.53414,-0.06867z" fill="#ffc6ef" stroke="#000000" stroke-width="2"/><path d="M223.0152,97.5604l-5.22255,-13.05128c0,0 27.63055,-16.14615 36.25601,-18.59404c0.29377,-0.08337 0.31739,2.78861 0.56582,2.73114c0.75436,-0.17451 -3.90677,6.05942 -3.52272,6.01922c0.60025,-0.06283 0.4527,1.8758 0.62027,3.67386c0.11629,1.24776 0.63061,2.55382 0.63061,2.55382c0,0 1.56079,-1.82823 2.42737,-3.01192c1.11259,-1.51973 3.56662,-5.15622 3.56662,-5.15622c0,0 0.46924,0.21387 0.55891,0.6512c0.24306,1.18547 1.10791,6.6484 1.10791,6.6484c0,0 2.23338,9.782 2.51303,12.50199c0.44407,4.31929 0.76022,10.2309 0.76022,10.2309c0,0 -1.38732,-0.03457 -1.89981,0.96499c-0.41944,0.81807 -1.43183,2.73108 -1.96277,4.47624c-0.49288,1.62003 -0.52111,3.10876 -0.52111,3.10876c0,0 -2.3116,0.625 -2.78738,-1.46772c-0.60036,-2.64065 0.63452,-8.27768 0.98309,-10.10297c0.2137,-1.11902 0.97895,-1.57386 1.66469,-2.53743c0.79633,-1.11893 1.50939,-2.662 1.50371,-2.60941c-0.05737,0.53097 -0.89613,-0.2917 -1.54669,-0.1209c-1.17919,0.30958 -2.46119,1.30912 -2.46119,1.30912c0,0 -1.16674,-0.83138 -1.62685,-1.81896c-0.95174,-2.04279 -3.77755,-9.78094 -3.77755,-9.78094l-1.94878,5.6691c0,0 1.24641,2.31708 1.92521,3.46556c0.71111,1.20315 2.24901,3.597 2.24901,3.597c0,0 -8.0173,4.98635 -11.43222,6.49159c-3.0286,1.33495 -2.13127,-2.01185 -4.38432,-1.51492c-0.43209,0.0953 4.40616,-1.35365 6.50809,-2.95058c1.49474,-1.13562 0.50599,-2.58353 0.20424,-2.53532c-6.00503,0.95942 -10.72422,-2.37903 -13.56064,-1.7986c-3.49046,0.71426 -7.39028,2.95833 -7.39028,2.95833z" fill="#d396fc" stroke="none" stroke-width="0"/><path d="M240.24235,85.26991c-0.89825,-1.16345 -4.43309,-6.65917 -4.43309,-6.65917c0,0 5.6957,-0.02382 8.06504,-0.49335c1.9245,-0.38138 5.09595,-2.11477 5.09595,-2.11477c0,0 0.56625,0.44639 0.34048,1.48735c-0.23029,1.06181 -1.25033,2.72492 -1.00594,3.37925c0.51726,1.38495 3.6758,3.19351 3.6758,3.19351c0,0 -2.80738,0.78115 -5.43353,1.05808c-1.50159,0.15834 -2.67045,-0.19038 -3.91243,-0.07946c-1.26907,0.11334 -2.30219,0.34524 -2.39228,0.22856z" fill="#ffc6ef" stroke="none" stroke-width="0"/><path d="M209.83017,99.38886c0,0 -0.45829,-0.40117 0.40277,-0.81999c0.13973,-0.06797 0.43388,-0.14216 0.76666,-0.09446c1.97872,0.28364 6.86569,2.32065 6.86569,2.32065c0,0 -1.12948,-1.66688 -1.58928,-2.48885c-0.43428,-0.77636 -1.09733,-2.31397 -1.09733,-2.31397l14.34904,8.23305l1.61585,5.44199c0,0 2.39065,-0.29723 2.94074,-1.28615c1.04048,-1.87048 0.62895,-5.0107 1.06564,-4.82922c0.4904,0.20382 5.91557,13.4249 5.91557,13.4249c0,0 3.27825,2.29079 5.16025,2.52241c1.9202,0.23632 8.84525,1.86168 8.84525,1.86168c0,0 -1.835,0.81709 -2.75816,1.06379c-0.85378,0.22816 -2.47764,0.59752 -2.47764,0.59752c0,0 -2.11847,-0.07766 -3.61818,0.06526c-0.57289,0.0546 -1.5682,-0.02993 -2.26654,0.0483c-1.11152,0.12453 -4.21625,-0.00283 -4.94119,-0.24606c-0.07167,-0.02405 -7.34294,-4.78047 -7.35379,-4.78727c-0.77427,-0.48521 -2.21756,-5.13046 -3.83464,-7.66295c-1.58786,-2.48678 -2.79366,-5.05963 -4.06529,-6.10798c-0.38879,-0.32053 -0.93942,-0.99925 -1.22029,-0.99737c-0.54495,0.00362 -1.5509,1.40828 -2.25339,2.34164c-0.82221,1.09238 -1.39019,2.42516 -1.96959,2.26958c-1.47583,-0.51894 -3.23745,-2.02977 -4.69719,-3.43038c-2.10648,-2.02115 -3.78498,-5.1261 -3.78498,-5.1261z" fill="#d396fc" stroke="none" stroke-width="0"/><path d="M213.06247,93.87974c-1.08321,-1.41523 -3.04863,-4.1362 -4.86204,-6.95636c-2.13855,-3.32582 -4.57665,-7.1656 -5.60829,-8.89095c-0.23935,-0.40031 -0.45532,-1.79579 -0.05387,-2.13372c0.9085,-0.76473 2.86149,-2.3849 4.37735,-3.5503c0.26504,-0.20377 0.58057,-0.14786 0.79624,-0.30316c0.20959,-0.15092 -0.0945,-0.2816 0.11704,-0.43218c4.042,-2.87687 8.97279,-6.07156 8.97279,-6.07156c0,0 11.61259,5.33386 12.1454,9.36875c0.47692,3.61176 -9.0275,13.95205 -9.0275,13.95205c0,0 1.85592,2.75097 2.72483,4.20679c0.82566,1.38339 2.48552,4.28692 2.48552,4.28692c0,0 -0.33926,1.22805 -0.18945,1.75353c0.26862,0.94231 0.97097,1.86454 1.54415,2.49983c0.46161,0.51165 0.47007,0.54556 -0.06462,0.26836c-1.48494,-0.76988 -4.51539,-2.35427 -6.22242,-3.33926c-1.12396,-0.64856 -2.08362,-1.09529 -3.46394,-1.96691c-0.59373,-0.37491 -0.53767,-0.89648 -0.96832,-1.17173c-0.16491,-0.10541 -0.38498,-0.57591 -0.77594,-0.73558c-0.26703,-0.10907 -0.70442,0.0923 -0.90105,0.00168c-0.54864,-0.2528 -0.6668,-0.40259 -0.91315,-0.72444z" fill="#4a5c6f" stroke="#000000" stroke-width="2"/><path d="M223.91638,78.58953c-0.09105,-0.12391 -0.7602,-0.03554 -1.62848,-0.06723c-2.57536,-0.09398 -7.68481,-0.00029 -9.80185,-0.06039c-0.8408,-0.02387 -0.607,0.13724 -0.23382,-0.38764c0.88827,-1.2494 5.72881,-7.49174 5.72881,-7.49174c0,0 -4.90519,-1.51361 -7.04119,-3.94537c-4.60628,-5.24415 -3.67881,-8.62444 -3.5241,-9.44606c0.06158,-0.32702 0.80493,-2.20233 2.00391,-3.87139c0.84445,-1.17554 1.93871,-2.16718 2.95856,-3.20135c1.94036,-1.96765 5.37273,-4.18623 6.61048,-5.05097c0.60075,-0.41972 0.04002,0.25458 -0.19997,1.03825c-0.69877,2.28186 -2.43273,6.70653 -1.52754,7.7115c0.47781,0.53048 1.75254,1.12311 2.85879,1.88057c0.8092,0.55407 1.99177,1.23454 3.25732,1.7088c0.91755,0.34385 2.15359,0.09772 3.65446,-0.28951c6.34071,-1.63591 16.62067,-8.48521 19.65251,-11.14502c0.30295,-0.26576 -1.30871,-4.60481 -1.16795,-4.66927c0.63229,-0.28957 15.58091,6.16383 13.34741,16.44208c-0.84301,3.87946 -3.35176,7.72383 -7.01093,10.46035c-7.12152,5.32587 -17.1672,7.58598 -17.1672,7.58598c0,0 -4.67053,4.72311 -8.6591,8.30997c-2.25493,2.02782 -4.30124,3.66044 -5.03598,4.30367c-0.59845,0.5239 -1.66389,1.15752 -1.57202,0.39001c0,0 0.3712,-0.93555 0.83179,-1.90898c0.94242,-1.99169 2.50296,-5.17333 3.05231,-6.80748c0,0 0.69659,-1.37595 0.61373,-1.48873z" fill="#4a5c6f" stroke="#000000" stroke-width="2"/><path d="M229.43889,68.38221c0,0 -9.02523,1.64841 -14.57428,-2.27152c-1.86362,-1.31649 -2.76885,-3.63857 -3.56708,-6.35633c-0.7416,-2.52495 -0.62088,-2.9582 -0.3314,-4.27143c1.13421,-5.14563 6.73587,-8.84851 6.73587,-8.84851c0,0 -2.15356,5.69706 -1.68124,7.06738c0.35231,1.02214 5.41356,4.60058 7.03775,4.76091c1.76717,0.17443 3.91759,-0.44436 6.25914,-1.26866c7.2954,-2.56823 16.0391,-8.52434 17.49911,-10.09004c0.2187,-0.23454 0.76447,-0.95211 0.7568,-1.60827c-0.0146,-1.24885 -0.98213,-2.75624 -0.98213,-2.75624c0,0 3.1259,1.67503 4.47246,2.61459c1.54012,1.07464 4.59433,3.86413 4.59433,3.86413c0,0 -2.87046,9.21374 -10.62515,12.46743c-3.62706,1.52183 -6.54082,4.03545 -9.30653,4.42359c-2.72117,0.3819 -7.25407,-1.96362 -9.00697,-2.18854c-2.8365,-0.36396 -5.69086,-2.27207 -5.69086,-2.27207c0,0 1.64816,2.89661 2.39653,3.55481c1.12168,0.98654 6.01368,3.1788 6.01368,3.1788z" fill="#696f96" stroke="none" stroke-width="0"/><path d="M218.19393,70.8691l0.03879,-1.03437c0,0 1.97853,-0.32191 3.34919,-0.01986c0.99573,0.21943 1.65017,0.65838 1.50791,0.99493c-0.17994,0.42567 -1.40016,0.24819 -2.53679,0.15301c-0.47753,-0.03999 -1.0129,-0.25493 -1.41353,-0.26809c-0.58454,-0.01922 -0.94556,0.17439 -0.94556,0.17439z" fill="#000000" stroke="none" stroke-width="0"/><path d="M213.87259,72.72073l-0.42068,-1.43981c0,0 1.37539,-0.28729 2.44577,-0.54988c0.66912,-0.16415 1.20197,-0.37714 1.25782,-0.32386c0.52543,0.50114 -2.11487,2.38899 -2.11487,2.38899z" fill="#4a5c6f" stroke="none" stroke-width="0"/><path d="M214.76691,94.43654l-1.96497,-2.83544l11.02463,5.96572c0,0 -0.24964,0.84943 -0.14202,1.2656c0.13073,0.50558 0.87062,1.55223 0.87062,1.55223z" fill="#4a5c6f" stroke="none" stroke-width="0"/><path d="M221.03797,99.52997l-0.48048,-0.99613l1.22165,-0.35694l0.40794,1.39616z" fill="#000000" stroke="none" stroke-width="0"/><path d="M216.79363,100.93851c0,0 -0.34132,-0.2886 -0.85243,-0.55065c-0.57287,-0.29371 -1.41518,-0.55671 -1.9146,-0.81203c-0.51949,-0.26556 -1.38218,-0.66258 -2.0859,-1.03425c-0.81824,-0.43215 -1.0713,-0.56029 -1.0713,-0.56029c0,0 0.39851,-0.02242 1.04355,0.10892c0.37412,0.07617 0.78569,0.21737 1.36892,0.41008c1.53204,0.50621 3.42877,1.26668 4.89042,2.03167c1.85822,0.97257 3.04321,1.81197 2.32819,2.99394c-0.37282,0.61629 -0.61113,0.48743 -1.01888,0.40989c-0.41215,-0.07837 -0.76054,-0.36154 -1.14904,-0.72389c-0.31035,-0.28947 -0.67788,-0.62024 -0.89201,-1.00529c-0.39623,-0.71247 -0.6469,-1.26812 -0.6469,-1.26812z" fill="#000000" stroke="none" stroke-width="0"/><path d="M225.58495,98.68403l-0.24095,-2.01323c0,0 2.1885,-1.81634 2.68612,-1.72344c0.81709,0.15254 -2.44517,3.73665 -2.44517,3.73665z" fill="#000000" stroke="none" stroke-width="0"/><path d="M221.61908,100.36368c0,0 0.14212,-0.64794 0.64896,-0.52155c0.98082,0.24457 2.72865,1.33962 3.25858,1.27833c0.71647,-0.08287 0.68334,-1.28783 0.68334,-1.28783c0,0 3.70963,2.9659 3.97606,3.49361c0.09943,0.19697 0.26111,0.47307 0.34743,0.74111c0.16344,0.50756 0.0007,0.67928 -0.08443,0.97077c-0.06429,0.22012 -0.05468,0.52476 0.00555,1.0021c0.09575,0.75899 0.41467,1.70081 0.62181,2.54904c0.21479,0.8795 0.47864,2.00974 0.47864,2.00974c0,0 -0.54718,-0.87358 -0.86375,-1.77956c-0.16374,-0.46861 -0.39776,-0.97951 -0.61291,-1.57126c-0.423,-1.16349 -0.88122,-2.44204 -1.34632,-2.9434c-0.27113,-0.29225 -0.68966,-0.37732 -1.0905,-0.63238c-0.81186,-0.5166 -1.82515,-0.89479 -2.59741,-1.21261c-0.77134,-0.31745 -3.42507,-2.09609 -3.42507,-2.09609z" fill="#000000" stroke="none" stroke-width="0"/><path d="M242.01913,97.80828c-0.71893,-0.06451 -1.76127,-0.21701 -2.70782,-0.57748c-1.03331,-0.39352 -2.38258,-0.53144 -3.80945,-0.71023c-1.29686,-0.1625 -2.66629,-0.34594 -3.75879,-1.03118c-1.46032,-0.91594 -2.74389,-2.28836 -3.53706,-3.77316c-0.86784,-1.62458 -1.17006,-3.37928 -0.99868,-4.71043c0.25521,-1.9822 2.18187,-3.51515 2.92586,-3.66739c1.83574,-0.37565 4.89321,1.29336 8.0097,3.07565c1.33709,0.76466 2.29064,1.74008 3.89803,2.08933c0.69194,0.15035 5.0798,-1.13871 5.68378,-1.07713c0.36637,0.03735 2.69945,-3.27089 3.00385,-3.23967c1.0917,0.11195 1.85836,0.09798 1.85836,0.09798c0,0 2.21116,-2.67438 3.76384,-5.38514c0.65632,-1.14584 0.97089,-2.88108 1.31387,-3.47987c0.59735,-1.0429 1.35969,-2.37385 1.35969,-2.37385c0,0 1.54138,2.94295 1.34556,6.26416c-0.02486,0.42175 -0.70484,0.85239 -0.76928,1.28098c-0.62568,4.16142 -0.40076,9.35623 -1.08653,11.08742c-0.75889,1.91572 -4.0582,0.34073 -4.0582,0.34073c0,0 0.28008,0.66966 0.53308,1.18331c0.42236,0.85747 1.76491,3.48204 1.76491,3.48204c0,0 -1.22685,-0.97212 -2.22819,-2.30893c-0.83252,-1.11143 -1.5248,-2.60592 -1.60602,-2.66466c-0.59,-0.42678 -1.3909,-4.22598 -1.94852,-5.5584c-0.13544,-0.32363 -0.92742,0.52753 -0.92742,0.52753c0,0 0.50518,3.72112 -0.88778,5.87068c-0.32037,0.49438 -1.07814,1.18842 -1.93841,1.90113c-0.04579,0.03794 -0.77618,0.47024 -0.82178,0.5062c-1.15838,0.91361 -1.86912,1.83364 -2.6989,2.38562c-0.47695,0.31727 -1.13958,0.51301 -1.67767,0.46474z" fill="#000000" stroke="none" stroke-width="0"/><path d="M234.72146,76.77676l-0.49443,-1.88356l1.37449,-0.36079l0.49442,1.88356z" fill="#000000" stroke="none" stroke-width="0"/><path d="M244.21294,120.36795c0.04026,0.19675 -0.08659,0.3889 -0.28334,0.42916c-0.19675,0.04026 -0.3889,-0.0866 -0.42916,-0.28336c-0.04026,-0.19675 0.0866,-0.38889 0.28336,-0.42915c0.19675,-0.04026 0.38889,0.08659 0.42915,0.28335z" fill="#000000" stroke="none" stroke-width="0"/><path d="M246.80902,120.81103c0.05536,0.27053 -0.17889,0.54697 -0.52321,0.61743c-0.34431,0.07046 -0.66832,-0.09174 -0.72368,-0.36227c-0.05536,-0.27053 0.17888,-0.54697 0.5232,-0.61743c0.34431,-0.07046 0.66833,0.09174 0.72369,0.36227z" fill="#000000" stroke="none" stroke-width="0"/><path d="M248.87364,120.01738c0.03523,0.17216 -0.15553,0.3566 -0.42606,0.41196c-0.27053,0.05536 -0.51841,-0.03932 -0.55364,-0.21148c-0.03523,-0.17216 0.15553,-0.3566 0.42606,-0.41196c0.27053,-0.05536 0.51841,0.03932 0.55364,0.21148z" fill="#000000" stroke="none" stroke-width="0"/><path d="M250.46766,119.64478c0.02013,0.09837 -0.10311,0.20669 -0.27527,0.24192c-0.17216,0.03523 -0.32804,-0.01597 -0.34817,-0.11434c-0.02013,-0.09837 0.10311,-0.20669 0.27527,-0.24192c0.17216,-0.03523 0.32804,0.01596 0.34817,0.11434z" fill="#000000" stroke="none" stroke-width="0"/><path d="M249.37983,121.58406c0.03523,0.17216 -0.23527,0.37292 -0.60418,0.44841c-0.36891,0.0755 -0.69653,-0.00287 -0.73176,-0.17503c-0.03523,-0.17216 0.23528,-0.37291 0.60419,-0.44841c0.36891,-0.0755 0.69652,0.00287 0.73175,0.17503z" fill="#000000" stroke="none" stroke-width="0"/><path d="M251.1905,121.81669c0.02013,0.09837 -0.08318,0.20261 -0.23074,0.2328c-0.14756,0.0302 -0.2835,-0.02507 -0.30363,-0.12345c-0.02013,-0.09837 0.08317,-0.20261 0.23073,-0.2328c0.14756,-0.0302 0.28351,0.02507 0.30364,0.12345z" fill="#000000" stroke="none" stroke-width="0"/><path d="M255.47964,120.10384c0.05033,0.24595 -0.16806,0.49835 -0.48779,0.56378c-0.31973,0.06543 -0.61972,-0.08091 -0.67004,-0.32685c-0.05033,-0.24595 0.16806,-0.49835 0.48779,-0.56378c0.31973,-0.06543 0.61972,0.08091 0.67004,0.32685z" fill="#000000" stroke="none" stroke-width="0"/><path d="M258.79319,119.51858c0.03019,0.14756 -0.08488,0.29575 -0.25705,0.33098c-0.17215,0.03523 -0.33621,-0.05585 -0.3664,-0.20341c-0.03019,-0.14756 0.08489,-0.29575 0.25705,-0.33098c0.17215,-0.03523 0.3362,0.05583 0.3664,0.2034z" fill="#000000" stroke="none" stroke-width="0"/><path d="M258.33754,117.29199c0.02013,0.09837 -0.08317,0.2026 -0.23073,0.2328c-0.14756,0.0302 -0.28351,-0.02507 -0.30364,-0.12345c-0.02013,-0.09837 0.08318,-0.20261 0.23074,-0.2328c0.14756,-0.0302 0.2835,0.02507 0.30363,0.12345z" fill="#000000" stroke="none" stroke-width="0"/><path d="M261.07737,117.98403c0.0453,0.22134 -0.15724,0.44974 -0.45237,0.51014c-0.29512,0.06039 -0.5711,-0.07008 -0.6164,-0.29143c-0.0453,-0.22134 0.15724,-0.44974 0.45237,-0.51014c0.29512,-0.06039 0.5711,0.07008 0.6164,0.29143z" fill="#000000" stroke="none" stroke-width="0"/><path d="M263.19048,116.06694c0.0453,0.22134 -0.1373,0.44567 -0.40783,0.50102c-0.27053,0.05536 -0.52657,-0.07919 -0.57186,-0.30054c-0.0453,-0.22134 0.1373,-0.44567 0.40783,-0.50102c0.27053,-0.05536 0.52657,0.07919 0.57186,0.30054z" fill="#000000" stroke="none" stroke-width="0"/><path d="M265.38063,115.43318c0.0453,0.22134 -0.09742,0.43751 -0.31878,0.4828c-0.22134,0.04529 -0.4375,-0.09743 -0.4828,-0.31877c-0.0453,-0.22134 0.09741,-0.43751 0.31877,-0.4828c0.22134,-0.04529 0.43752,0.09743 0.48281,0.31877z" fill="#000000" stroke="none" stroke-width="0"/><path d="M266.77006,113.1538c0.06039,0.29512 -0.18971,0.59558 -0.55863,0.67108c-0.36892,0.0755 -0.71693,-0.10256 -0.77732,-0.39769c-0.06039,-0.29512 0.1897,-0.59558 0.55862,-0.67108c0.36892,-0.0755 0.71693,0.10256 0.77733,0.39769z" fill="#000000" stroke="none" stroke-width="0"/><path d="M267.58984,113.07884c0.14756,-0.0302 0.31207,0.16464 0.36743,0.43517c0.05536,0.27053 -0.01939,0.51433 -0.16695,0.54453c-0.14756,0.0302 -0.31207,-0.16464 -0.36743,-0.43518c-0.05536,-0.27053 0.01938,-0.51432 0.16694,-0.54452z" fill="#000000" stroke="none" stroke-width="0"/><path d="M264.0961,113.23702c0.04026,0.19675 -0.16634,0.40521 -0.46148,0.46561c-0.29512,0.06039 -0.56703,-0.05015 -0.60729,-0.2469c-0.04026,-0.19675 0.16635,-0.40521 0.46149,-0.46561c0.29512,-0.06039 0.56703,0.05015 0.60728,0.2469z" fill="#000000" stroke="none" stroke-width="0"/><path d="M265.14954,111.58316c0.03523,0.17216 -0.11564,0.34844 -0.337,0.39373c-0.22134,0.04529 -0.42935,-0.05755 -0.46458,-0.22971c-0.03523,-0.17216 0.11564,-0.34844 0.337,-0.39374c0.22134,-0.04529 0.42935,0.05755 0.46458,0.22971z" fill="#000000" stroke="none" stroke-width="0"/><path d="M265.63424,110.32405c0.0302,0.14757 -0.06494,0.29167 -0.2125,0.32187c-0.14756,0.0302 -0.29167,-0.06495 -0.32187,-0.21252c-0.0302,-0.14757 0.06496,-0.29166 0.21252,-0.32186c0.14756,-0.0302 0.29166,0.06494 0.32186,0.2125z" fill="#000000" stroke="none" stroke-width="0"/><path d="M264.20304,109.22504c0.04026,0.19675 -0.08659,0.38889 -0.28334,0.42915c-0.19675,0.04026 -0.38889,-0.0866 -0.42915,-0.28336c-0.04026,-0.19675 0.08659,-0.3889 0.28334,-0.42916c0.19675,-0.04026 0.38889,0.08661 0.42915,0.28336z" fill="#000000" stroke="none" stroke-width="0"/><path d="M236.02184,106.6405c0,0 -1.37026,1.61601 -1.06382,4.01309c0.19605,1.53363 2.10194,3.83525 2.14246,4.77087c0.02373,0.54779 -0.2858,0.77046 -0.33605,0.79418c-0.09318,0.04398 -0.47196,-0.2347 -0.80173,-1.08492c-0.26975,-0.69547 -0.57974,-1.65469 -1.05128,-2.6651c-0.37482,-0.80318 -0.83503,-1.6153 -1.14663,-2.60898c-0.10588,-0.33764 1.12978,-4.20315 1.02611,-4.55024c-0.08199,-0.27447 -0.10064,-0.85628 -0.2055,-1.44019c-0.09051,-0.50397 -0.26329,-0.98216 -0.38175,-1.59085c-0.19767,-1.01568 -0.60666,-2.1742 -0.04901,-2.63682c0.78266,-0.64928 1.09756,0.2044 2.7392,0.611c0.4712,0.1167 1.62378,0.07951 2.22382,0.10349c0.33191,0.01327 2.81587,-0.80043 4.28548,-1.44056c0.6428,-0.27999 1.24368,-0.69024 1.26349,-0.67315c0.93943,0.81043 -5.13564,3.78387 -5.13564,3.78387c0,0 1.44542,0.90886 2.49797,0.9466c1.22857,0.04406 4.53742,-0.92785 7.80737,-2.13784c3.46962,-1.28386 6.90001,-2.81336 7.91966,-2.87738c0.29524,-0.01853 0.4525,-0.52204 0.70118,-1.06164c0.42321,-0.9183 0.90778,-2.07547 1.31221,-2.09933c0.38049,-0.02244 -1.58947,-2.34225 -1.25693,-2.34413c1.60724,-0.0091 2.95301,1.44704 2.94551,1.73599c-0.02837,1.09309 -0.41098,2.34831 -0.47937,2.72079c-0.0849,0.4624 -0.65178,-0.68354 -0.65178,-0.68354c0,0 -0.83958,1.94779 -0.96513,2.34543c-0.30782,0.97492 -1.11706,0.40883 -1.33798,1.59517c-0.05662,0.30403 0.23857,0.93167 0.20341,1.2739c-0.25147,2.4476 -0.34469,5.42121 -0.31859,7.38573c0.02765,2.08028 1.57551,3.43916 2.62937,4.45392c0.52332,0.5039 0.9782,0.8421 0.95899,1.30168c-0.02506,0.59931 -0.41265,1.01741 -0.45153,1.02941c-0.61755,0.19056 -0.99586,0.14873 -1.78337,0.37699c-1.53927,0.44616 -5.92013,3.16231 -7.54969,3.1788c-0.53298,0.0054 -2.05435,-0.67284 -3.72629,-1.40105c-0.61818,-0.26924 -1.16977,-0.63179 -1.8014,-0.90129c-0.59089,-0.25212 -1.26067,-0.40941 -1.87173,-0.70959c-2.32092,-1.14013 -4.36429,-2.29917 -5.00484,-2.45446c-0.61499,-0.1491 -0.50448,-1.73744 -0.92107,-2.44827c-1.20514,-2.05639 -2.36513,-4.61158 -2.36513,-4.61158z" fill="#000000" stroke="none" stroke-width="0"/><path d="M239.39362,106.62723c-0.71163,-0.96734 -2.15757,-3.57574 -2.15757,-3.57574c0,0 3.32644,2.05416 5.18346,1.70526c1.87465,-0.35222 5.73184,-1.71201 8.44944,-3.0018c1.71615,-0.81449 2.54432,-1.27153 2.54432,-1.27153c0,0 -0.0626,1.81728 -0.00503,2.70459c0.05729,0.88317 0.3496,2.60689 0.3496,2.60689c0,0 -5.03051,2.02552 -6.93442,2.40117c-1.4994,0.29584 -4.66475,0.32412 -5.67401,0.21429c-0.37861,-0.0412 -1.60389,-1.57665 -1.75579,-1.78313z" fill="#ffffff" stroke="none" stroke-width="0"/><path d="M236.89752,103.95589l-1.1017,-2.88975c0,0 2.2194,1.12943 3.34083,1.67565c1.09122,0.53151 3.28525,1.48877 3.28525,1.48877c0,0 0.14861,-0.7194 -0.47569,0.76235c-0.43192,1.02514 -0.24205,2.49972 -0.24205,2.49972c0,0 -2.12702,-2.92397 -2.91578,-3.50652c-0.75584,-0.55823 -1.89085,-0.03024 -1.89085,-0.03024z" fill="#f44254" stroke="#000000" stroke-width="0.5"/><path d="M244.75016,106.87926l-2.2666,-2.52543l3.07905,-0.63008c0,0 -0.44224,1.11409 -0.5879,1.6985c-0.14792,0.59347 -0.22455,1.45701 -0.22455,1.45701z" fill="#f44254" stroke="#000000" stroke-width="0.5"/><path d="M246.0757,115.13834c0,0 2.51779,-0.0874 3.67676,-0.42616c0.6217,-0.18172 1.45119,-0.10126 2.31925,-0.4937c1.48822,-0.6728 2.8737,-1.69718 2.8737,-1.69718c0,0 0.48137,1.21863 0.66018,1.90356c0.15508,0.594 0.46298,1.80367 0.46298,1.80367c0,0 -0.9366,0.31234 -1.86145,0.80075c-0.74795,0.39499 -1.42989,0.94365 -2.05972,1.2335c-0.50978,0.23461 -1.77698,-1.15151 -2.65082,-1.58797c-0.94909,-0.47406 -1.59923,-0.26758 -2.29137,-0.61181c-0.68051,-0.33844 -1.1295,-0.92466 -1.1295,-0.92466z" fill="#ffffff" stroke="none" stroke-width="0"/><path d="M250.45434,84.60261c0,0 0.2152,-0.39212 0.11038,-0.77175c-0.0441,-0.15974 -3.84125,-2.71146 -3.93658,-3.03434c-0.09307,-0.31525 2.39019,-3.16899 2.34382,-3.54928c-0.05518,-0.45261 -0.37222,-1.09292 -0.47377,-1.50191c-0.5727,-2.30624 -1.49479,-3.64213 -1.49479,-3.64213l0.48782,-0.1078c0,0 2.58388,4.27263 2.94157,5.07859c0.27083,0.61025 -0.28533,1.68056 -0.28533,1.68056c0,0 1.18198,-0.69233 0.99298,-1.75449c-0.23942,-1.3455 -2.38667,-5.40139 -2.38667,-5.40139l0.53883,-0.1553c0,0 1.12355,0.83582 2.21882,3.22482c0.23085,0.50353 1.12754,1.94826 1.12473,3.0843c-0.00118,0.47745 -0.58403,1.14447 -0.76154,1.27133c-0.44964,0.32134 -0.9712,0.55333 -1.31464,0.91803c-0.31971,0.33949 -0.38152,1.03778 -0.34096,1.19146c0.26048,0.98691 2.15557,1.92482 2.24863,2.29078c0.1138,0.44755 -0.02882,0.90005 -0.02882,0.90005z" fill="#000000" stroke="none" stroke-width="0"/><path d="M241.57913,76.14776c-0.04144,-0.20248 1.24547,-0.50435 2.89172,-1.08541c0.59682,-0.21066 2.34327,-1.70328 2.58066,-1.8503c0.37425,-0.23176 0.67838,-0.77767 1.02738,-1.02421c0.29547,-0.20872 0.50387,-0.78543 0.76946,-0.9937c1.38494,-1.08601 1.8398,-2.90715 1.8398,-2.90715l2.27808,-0.40238c0,0 -0.57115,0.64768 -1.14502,1.41202c-0.80175,1.06785 -1.72538,2.38724 -2.13362,2.69685c-0.49535,0.37568 -0.92447,0.7904 -1.51915,1.15811c-1.19377,0.73817 -2.2125,2.00963 -3.35633,2.55224c-1.58773,0.75319 -3.2039,0.586 -3.23297,0.44392z" fill="#000000" stroke="none" stroke-width="0"/><path d="M237.63268,78.99678c0,0 0.19611,-0.34144 1.3507,-0.62154c2.52537,-0.61267 7.20737,-0.55747 10.39492,-3.67973c2.28009,-2.23338 5.32746,-7.03926 5.32746,-7.03926l0.16857,2.07075c0,0 -5.17368,6.41105 -7.15976,7.47885c-3.17903,1.70917 -10.08188,1.79094 -10.08188,1.79094z" fill="#000000" stroke="none" stroke-width="0"/><g fill="#ff0000" stroke="none" stroke-width="0"><path d="M237.81436,95.66722c0,0 1.70898,-1.25713 2.40592,-1.64144c0.65436,-0.36082 1.9796,-0.7876 1.9796,-0.7876c0,0 -0.05703,-0.79878 -0.14377,-1.77091c-0.07703,-0.86331 -0.01376,-1.62707 -0.11849,-2.32574c-0.16658,-1.11102 -0.9386,-3.46725 -1.21864,-4.92171c-0.21678,-1.12582 -0.07452,-1.8812 -0.07452,-1.8812c0,0 0.06883,1.22196 0.48663,2.60518c0.46191,1.5293 1.16864,3.49824 1.51469,4.38202c0.35441,0.90512 1.40678,2.48389 1.40678,2.48389l5.33017,-1.60612c0,0 -0.5666,0.81844 -1.77154,1.46202c-1.30513,0.6971 -3.26149,1.24254 -3.39989,1.77667c-0.0384,0.14816 -0.17101,0.27642 -0.02012,1.02501c0.5268,2.61371 2.10652,8.1923 2.10652,8.1923c0,0 -1.551,-4.43971 -2.48495,-6.78033c-0.19867,-0.49787 -0.42838,-0.79312 -0.54356,-1.05048c-0.28883,-0.64537 -0.69631,-0.99379 -0.69631,-0.99379c0,0 -0.87116,0.08875 -1.33753,0.24209c-0.79109,0.2601 -3.42092,1.59015 -3.42092,1.59015z"/><path d="M250.74425,90.12199c0,0 1.31441,-0.7708 2.56171,-1.75797c0.49692,-0.39328 1.00409,-0.77887 1.44581,-1.21626c0.6116,-0.60561 1.31807,-0.78144 1.44029,-1.35449c0.09314,-0.43666 -0.20349,-1.85328 -0.55261,-3.29928c-0.72845,-3.01709 -1.94786,-6.92715 -1.94786,-6.92715c0,0 0.27182,0.41002 0.57454,1.20214c0.69041,1.80658 1.36021,4.86865 1.83263,6.08573c0.39757,1.02425 1.50804,2.61809 1.50804,2.61809c0,0 0.3597,0.04235 0.88157,-0.31959c0.9072,-0.62917 2.29607,-1.78775 2.94967,-1.97657c2.4105,-0.69642 3.44258,-0.6924 3.44258,-0.6924c0,0 -1.26472,0.26306 -2.58141,0.93764c-0.83114,0.42581 -1.69986,1.09989 -2.44388,1.75042c-0.13312,0.11639 -0.36182,0.08934 -0.48485,0.20669c-0.19132,0.18249 -0.26903,0.50939 -0.4291,0.68836c-0.36867,0.41218 -0.64341,0.80558 -0.77332,1.13674c-0.02736,0.06972 -0.12695,0.28663 -0.06877,0.71732c0.17518,1.29696 0.78033,3.98422 1.07445,6.03243c0.23386,1.62856 0.20789,2.87038 0.20789,2.87038c0,0 -1.07692,-3.99241 -1.98042,-6.41651c-0.39289,-1.05414 -0.53774,-2.0773 -0.89042,-2.32628c-0.17692,-0.1249 -1.0505,0.06428 -2.26649,0.51792c-1.55363,0.57958 -3.50006,1.52273 -3.50006,1.52273z"/><path d="M244.3152,92.60236c0.14629,0.50067 -0.141,1.02512 -0.64166,1.17141c-0.50067,0.14629 -1.02512,-0.141 -1.17141,-0.64167c-0.14629,-0.50067 0.141,-1.02512 0.64166,-1.17141c0.50067,-0.14629 1.02512,0.141 1.17141,0.64167z"/><path d="M258.13014,86.59807c0.12908,0.44177 -0.11249,0.90103 -0.53952,1.02579c-0.42705,0.12477 -0.87787,-0.13221 -1.00694,-0.57396c-0.12908,-0.44177 0.11249,-0.90103 0.53952,-1.0258c0.42705,-0.12477 0.87787,0.13222 1.00694,0.57397z"/></g><path d="M223.72843,91.34682c0,0 0.08384,-0.49628 0.32426,-1.09041c0.15659,-0.38695 0.41091,-0.82182 0.64416,-1.16609c0.27435,-0.40494 0.98881,-0.66641 1.48893,-1.30443c0.66459,-0.84786 1.24456,-1.90326 1.24456,-1.90326l0.76452,0.41063c0,0 1.52476,5.38466 1.66974,6.709c0.00934,0.08535 -1.44665,0.41566 -2.44815,0.82259c-1.31901,0.53594 -2.27399,1.16667 -2.27399,1.16667c0,0 0.13659,-0.37411 0.43051,-0.73418c0.21247,-0.26029 0.53845,-0.49258 0.80512,-0.66951c0.64678,-0.42916 2.6342,-1.0404 2.6342,-1.0404c0,0 -0.24341,-1.61115 -0.24567,-1.60562c-0.00619,0.01523 -0.31284,-0.16118 -0.65791,-0.06118c-0.28047,0.08127 -0.31022,0.3089 -0.60748,0.48522c-0.49474,0.29345 -2.12643,0.88954 -2.12643,0.88954c0,0 0.18508,-0.41158 0.67394,-0.7856c0.5112,-0.39111 1.32703,-0.74612 1.32111,-0.77934c-0.08798,-0.49299 -0.45365,-2.23704 -0.34808,-2.93153c0.08835,-0.58119 0.645,-0.16675 0.645,-0.16675c0,0 -1.06925,0.46689 -1.69272,1.06128c-0.34785,0.33163 -0.85741,1.06621 -1.33853,1.6654c-0.46458,0.57859 -0.90708,1.02799 -0.90708,1.02799z" fill="#000000" stroke="none" stroke-width="0"/></g><g><g><g><g stroke-linecap="butt"><path d="M277.40675,171.85192c-0.63691,-4.69809 1.05834,-7.46048 0.63058,-10.325c-0.37423,-2.50601 -1.11608,-6.57956 -1.84341,-10.42545c-0.15866,-0.8389 -5.73261,-3.20357 -5.88591,-4.00217c-0.26191,-1.3643 2.12613,-3.97088 2.70682,-4.84455c1.17115,-1.76205 1.25251,-1.06789 1.25251,-1.06789l20.65008,1.05896c0,0 0.87921,1.53113 1.90186,4.61674c0.9087,2.74185 1.92422,6.97809 2.63434,8.40673c0.45875,0.9229 2.03635,3.83182 2.47314,4.6952c2.40301,4.7499 6.92795,9.33425 6.85848,9.96658c-0.10219,0.9304 -0.77161,1.87273 -1.42809,3.03871c-2.2097,3.9247 -6.58424,9.01547 -9.80782,11.78148c-1.31494,1.1283 -2.60527,1.82675 -3.17192,2.08457c-3.75383,1.70806 -14.05137,-9.20783 -16.3898,-13.54496c-0.22769,-0.4223 -0.55115,-1.21965 -0.58087,-1.43894z" fill="#1b1f25" stroke="#000000" stroke-width="1.5"/><path d="M296.98965,173.13254c0,0 0.10039,-2.77973 -0.33565,-4.36662c-0.83479,-3.03809 -4.30954,-12.53875 -4.30954,-12.53875c0,0 1.54708,-3.37998 2.09087,-5.12086c0.5269,-1.68681 1.32908,-5.24998 1.32908,-5.24998c0,0 2.51898,8.38316 2.55209,9.20248c0.04156,1.02872 1.43302,2.02644 1.59306,3.17607c0.0779,0.55971 0.82443,0.70007 0.96859,1.28391c0.29937,1.21235 1.36398,2.19397 2.44124,3.71168c2.03722,2.87017 4.4913,6.27533 4.51194,7.07133c0.00587,0.22664 -0.70629,1.8791 -1.86362,3.56798c-1.5791,2.3044 -3.738,4.78325 -3.738,4.78325c0,0 0.75626,-5.00925 0.86895,-6.3971c0.05797,-0.71391 0.06982,-1.4773 0.06982,-1.4773z" fill="#2b263c" stroke="none" stroke-width="0"/><path d="M306.80485,170.22048c0,0 -1.30773,-1.53112 -3.0591,-3.52905c-0.24226,-0.27636 -0.75957,-0.69468 -1.21391,-0.8625c-0.75462,-0.27872 -1.48071,-0.22925 -1.55149,-0.35659c-0.6916,-1.24403 -1.61613,-4.40726 -2.14306,-6.5252c-0.71952,-2.89196 -3.7182,-14.92695 -3.7182,-14.92695c0,0 2.93818,5.79468 3.19056,5.96782c0.41311,0.28339 1.75911,5.6188 1.75911,5.6188c0,0 0.51064,1.66895 1.05843,3.35609c0.02402,0.07393 -1.8248,-1.84379 -1.26173,-2.47543c0.45835,-0.51417 1.78952,4.00487 1.87655,4.27293c0.43397,1.33656 0.96551,3.56031 0.96551,3.56031c0,0 1.49627,0.82212 1.80727,1.28582c0.67088,1.00033 2.29006,4.61398 2.29006,4.61398z" fill="#000000" stroke="none" stroke-width="0"/></g><path d="M276.90905,151.1733c0,0 3.46646,0.68379 4.02281,1.17282c0.42864,0.37678 -0.96677,1.51346 -0.96677,1.51346" fill="none" stroke="#000000" stroke-width="1.5" stroke-linecap="round"/><path d="M291.39838,138.12274c0.64276,2.63823 -2.0624,5.56295 -6.04211,6.53251c-3.97971,0.96956 -8.33521,-0.0634 -8.97796,-2.70165c-0.64276,-2.63823 2.67065,-5.88268 6.65036,-6.85225c3.97971,-0.96956 7.72695,0.38315 8.36971,3.02138z" fill="#565b84" stroke="#000000" stroke-width="1.5" stroke-linecap="butt"/></g><path d="M296.92021,142.897c-0.72087,0.26048 -4.07743,1.25273 -4.65289,0.9866c-1.13042,-0.52278 -11.56421,-9.0449 -9.22685,-9.88951c1.50628,-0.5443 7.83699,-2.13119 12.4295,-1.76223c0.86203,0.06924 1.00365,-0.31488 1.59157,1.34725c0.51867,1.46631 1.16415,3.83899 1.25518,5.57621c0.1091,2.08202 -0.45272,3.4379 -1.29343,3.74168z" fill="#afcad3" stroke="#000000" stroke-width="1.5" stroke-linecap="butt"/><path d="M294.16279,136.92302c1.48979,4.12285 -2.08199,8.95615 -7.9254,11.06766c-5.84341,2.11152 -11.76542,-0.19175 -13.25522,-4.3146c-1.48979,-4.12285 -1.02694,-8.46746 4.81648,-10.57898c4.71461,-1.70362 11.50419,-4.53556 14.73388,-2.00331c0.77327,0.60629 1.34247,4.92971 1.63026,5.72613z" fill="#afcad3" stroke="#000000" stroke-width="1.5" stroke-linecap="butt"/></g><path d="M291.82795,139.31108c0,3.46642 -3.14349,6.2765 -7.02118,6.2765c-3.87769,0 -7.02117,-2.81008 -7.02117,-6.2765c0,-3.46642 3.14348,-6.27651 7.02117,-6.27651c3.87769,0 7.02118,2.81009 7.02118,6.27651z" fill="#5c628d" stroke="#000000" stroke-width="1" stroke-linecap="butt"/></g><g><g><path d="M283.54819,118.95734c-6.88752,3.10787 -12.47309,1.45941 -15.8645,-5.20864c-2.65247,-5.21515 0.41545,-13.7515 7.30298,-16.85937c6.88754,-3.1079 13.89918,-0.91503 16.9761,5.90385c0.48118,1.06634 0.60877,2.19326 0.73492,3.22143c0.68048,5.54654 -3.33904,10.32086 -9.14948,12.94273z" fill="#485e84" stroke="#000000" stroke-width="2" stroke-linecap="butt"/><path d="M270.19173,101.84555c0,0 0.98077,2.71084 1.96028,2.92826c9.39569,2.08555 16.00329,-0.3248 18.12788,-1.28879c0.48271,-0.21901 0.54706,-0.7777 0.54706,-0.7777c0,0 0.53437,0.91391 0.81477,2.25786c0.29838,1.43007 0.3311,3.33718 -0.12078,4.80858c-0.51619,1.68075 -2.72906,5.22174 -2.72906,5.22174l-8.77344,5.75411c0,0 -6.48385,-1.83039 -7.36276,-2.46733c-0.86104,-0.62398 -1.70094,-1.60931 -2.63613,-2.621c-1.452,-1.5708 -2.31932,-3.67241 -2.47237,-5.10671c-0.19531,-1.8305 0.31805,-4.10925 1.05419,-5.87304c0.68511,-1.64153 1.5904,-2.83592 1.5904,-2.83592z" fill="#343545" stroke="none" stroke-width="0" stroke-linecap="butt"/><path d="M276.27932,112.4632c0,0 -2.67145,-3.64434 -2.61491,-6.22584c0.07156,-3.26791 2.01851,-9.46276 2.01851,-9.46276" fill="none" stroke="#000000" stroke-width="1" stroke-linecap="round"/><path d="M289.79612,99.98089c0,0 0.75168,3.50148 0.68813,5.65309c-0.06414,2.17215 -1.91075,6.6674 -1.91075,6.6674" fill="none" stroke="#000000" stroke-width="1" stroke-linecap="round"/><path d="M272.10888,116.04056c0,0 -2.79809,-3.69991 -2.60953,-6.49328c0.28935,-4.28633 1.79688,-9.89562 1.79688,-9.89562" fill="none" stroke="#000000" stroke-width="1" stroke-linecap="round"/><path d="M267.17431,110.18857c0,0 4.08791,-7.64259 12.74517,-8.73465c9.48294,-1.19621 12.88611,6.74361 12.88611,6.74361" fill="none" stroke="#000000" stroke-width="1" stroke-linecap="round"/><path d="M268.5386,114.75924c0,0 5.44082,-7.06251 13.07808,-8.04259c6.27089,-0.80473 9.76308,5.61502 9.76308,5.61502" fill="none" stroke="#000000" stroke-width="1" stroke-linecap="round"/><path d="M282.61893,97.99305c-0.59769,-0.07602 -1.03341,-0.52122 -0.97322,-0.99437c0.06016,-0.47317 0.45705,-0.43435 1.05473,-0.35833c0.59769,0.07602 1.16982,0.16046 1.10965,0.63361c-0.06016,0.47317 -0.59348,0.79512 -1.19115,0.71909z" fill="#8fbbbe" stroke="none" stroke-width="0" stroke-linecap="butt"/><path d="M286.13495,98.94006c-0.27459,0.1239 -0.64784,-0.10954 -0.8337,-0.52142c-0.18586,-0.41188 -0.20488,-0.60571 0.06971,-0.72961c0.27459,-0.1239 0.73071,0.07215 0.91655,0.48403c0.18586,0.41188 0.122,0.6431 -0.15258,0.767z" fill="#8fbbbe" stroke="none" stroke-width="0" stroke-linecap="butt"/><path d="M279.17769,97.5879c-0.42935,0.14091 -0.85352,0.02312 -0.94747,-0.2631c-0.09395,-0.2862 0.29012,-0.38389 0.71945,-0.52481c0.42935,-0.14091 0.74135,-0.27172 0.8353,0.0145c0.09395,0.2862 -0.17795,0.63249 -0.60728,0.7734z" fill="#8fbbbe" stroke="none" stroke-width="0" stroke-linecap="butt"/><path d="M268.93764,103.70799c0,0 3.73388,-3.50941 7.26427,-4.90207c2.00156,-0.78956 4.03821,-0.79449 5.58234,-0.78092c1.36555,0.01198 4.38367,1.32865 6.58891,2.57685c1.6236,0.91897 2.74779,1.87302 2.74779,1.87302" fill="none" stroke="#000000" stroke-width="0.5" stroke-linecap="round"/><path d="M284.02995,95.60128c0,0 1.9907,4.90668 2.02082,7.61368c0.02539,2.28072 -1.68617,7.49487 -1.68617,7.49487" fill="none" stroke="#000000" stroke-width="1" stroke-linecap="round"/><path d="M281.45934,111.12317c0,0 -1.7698,-4.50592 -2.03993,-6.75467c-0.47429,-3.94838 1.27781,-8.85912 1.27781,-8.85912" fill="none" stroke="#000000" stroke-width="1" stroke-linecap="round"/></g><g stroke-linecap="butt"><path d="M266.86668,118.46615c1.78226,-0.36859 3.19953,-0.69513 3.3317,-0.727c0.27687,-0.06676 2.42698,-2.08197 4.91582,-3.97014c2.71085,-2.05659 5.70592,-3.81105 6.0095,-3.88377c1.42413,-0.34116 3.78905,0.91268 5.7245,1.67981c2.89193,1.14623 5.8979,2.19425 6.2271,2.92381c0.4191,0.92878 -1.12456,2.77645 -1.08389,4.18255c0.03334,1.15251 1.68198,4.47056 1.54798,5.80614c-0.0981,0.97757 -0.76166,1.88352 -0.96305,2.87241c-0.20945,1.02852 0.9314,2.3691 0.64539,3.38328c-0.29507,1.04636 -0.78438,2.12876 -1.18648,3.11402c-0.52645,1.29001 0.65995,4.37241 0.04322,5.49107c-2.1602,3.91828 -6.38263,4.71621 -7.20315,4.65769c-4.61347,-0.32904 -8.63832,-1.75771 -10.7531,-2.43216c-1.47681,-0.47099 -2.85694,-2.09638 -2.93426,-3.87819c-0.06412,-1.47802 0.73498,-2.74532 0.74135,-3.96488c0.00621,-1.18924 -1.12633,-1.94155 -1.12633,-1.94155c0,0 -1.14341,2.38183 -3.12647,3.13693c-1.73212,0.65956 -4.07382,0.39376 -4.42435,-1.62598c-0.32466,-1.87062 2.27078,-5.25739 2.05211,-6.86347c-0.27577,-2.02576 -2.49584,-3.92639 -2.39068,-5.25832c0.12413,-1.57219 3.2929,-2.56572 3.95309,-2.70226z" fill="#d396fc" stroke="#000000" stroke-width="1.5"/><path d="M274.73623,115.45341c0,0 5.74515,-4.85219 7.01107,-4.89629c1.39249,-0.0485 4.71564,1.59804 6.54952,2.43337c0.68189,0.3106 1.20638,0.48716 1.20638,0.48716c0,0 -0.4256,1.11084 -1.19872,2.12182c-0.74034,0.96813 -1.81933,1.83713 -2.26494,1.8854c-0.89945,0.09744 -2.59476,-2.05122 -4.55165,-2.44182c-0.48597,-0.097 -4.41809,2.23801 -4.9066,2.15995c-1.15067,-0.18385 -1.47855,-0.77426 -1.68832,-1.2188c-0.1864,-0.39503 -0.15674,-0.53078 -0.15674,-0.53078z" fill="#ffc6ef" stroke="none" stroke-width="0"/><path d="M275.5054,125.77806c0,0 7.28179,-0.8814 9.36873,-1.4787c1.15233,-0.3298 2.5202,-1.79154 2.5202,-1.79154c0,0 2.42402,2.18239 1.04972,3.24716c-1.16697,0.90414 -6.97787,3.62291 -10.17678,3.35009c-2.25449,-0.19227 -2.76188,-3.32702 -2.76188,-3.32702z" fill="#ffc6ef" stroke="none" stroke-width="0"/><path d="M275.08912,132.14951c0,0 7.07903,-0.65809 9.40526,-1.34885c1.89385,-0.56237 3.52352,-2.49032 3.52352,-2.49032c0,0 1.47725,2.13643 1.06859,3.48995c-0.30163,0.99898 -1.13436,2.34999 -2.43119,2.97833c-1.12366,0.54443 -2.41041,0.23888 -3.82513,0.42119c-2.24156,0.28887 -4.59711,0.70539 -5.95157,0.3731c-0.73436,-0.18016 -1.78947,-3.42337 -1.78947,-3.42337z" fill="#ffc6ef" stroke="none" stroke-width="0"/><path d="M274.35533,119.91392c0,0 8.69852,-0.88104 11.24226,-1.47052c1.35866,-0.31485 2.84358,-1.79367 2.84358,-1.79367c0,0 0.63068,3.95072 0.11852,4.29355c-0.77957,0.52185 -2.127,1.19515 -3.68626,1.76672c-3.6639,1.34306 -8.32822,2.49909 -8.32822,2.49909c0,0 -1.68081,-2.9849 -2.04248,-3.8594c-0.36818,-0.89028 -0.14741,-1.43581 -0.14741,-1.43581z" fill="#ffc6ef" stroke="none" stroke-width="0"/><path d="M269.12235,118.49523c0,0 10.57315,-7.50182 11.4159,-7.86199c0.29736,-0.1271 -2.20454,1.73263 -4.27112,3.47826c-1.35071,1.14095 -2.54615,2.41838 -2.54615,2.41838c0,0 -2.1211,1.3593 -2.42978,2.2195c-0.10073,0.28074 0.07046,0.46209 0.48196,0.54852c0.89974,0.18893 4.34321,-0.72647 6.81632,-1.2529c0.89466,-0.19044 1.64057,-0.23349 1.95389,-0.21434c0.39567,0.0242 -0.46296,-0.76461 -0.46296,-0.76461c0,0 2.14575,-0.25391 3.03445,-0.13808c0.6402,0.08343 1.33434,0.82104 1.85994,0.9008c0.63028,0.09562 2.04883,-0.94991 3.03772,-1.22409c0.61104,-0.16942 0.85379,0.21832 0.77696,0.38253c-0.1015,0.21694 -1.72728,1.98992 -2.84699,2.2228c-3.49795,0.72747 -9.96653,0.63811 -12.85181,1.69441c-1.68737,0.61776 -2.58505,2.72495 -2.57836,3.02327c0.01729,0.77193 0.33875,1.71503 0.83252,2.24865c0.03591,0.03883 0.79571,-1.21534 2.07631,-1.53587c1.2703,-0.31796 3.02185,-0.82657 5.01717,-0.97901c2.25396,-0.1722 4.77771,0.0186 6.49865,-0.25778c0.32191,-0.05169 2.64558,-1.32609 2.66746,-1.282c0.12018,0.24219 -1.83829,3.06565 -3.04455,3.0677c-1.1128,0.0019 -2.73705,0.34131 -4.49406,0.50337c-1.77416,0.16363 -3.62117,0.43856 -4.90881,0.59295c-1.05248,0.12618 -2.00303,0.72489 -2.01272,0.73686c-0.38257,0.47258 -0.69152,1.18834 -1.06186,1.93289c-0.32038,0.64414 -0.56268,1.25386 -0.59976,1.59362c-0.10088,0.92473 0.78661,1.4559 0.78661,1.4559c0,0 0.66757,-1.14947 1.83881,-1.45837c0.92633,-0.24432 3.26163,-0.36106 5.70681,-0.47397c0.49043,-0.02265 1.07842,-0.0507 1.58367,-0.03323c1.26821,0.04389 2.45442,0.1765 3.49406,-0.05377c1.14639,-0.25391 2.11562,-1.44674 2.81774,-1.99135c0.41659,-0.32314 0.71074,-0.48108 0.71074,-0.48108c0,0 -0.35723,1.27971 -1.18153,2.21645c-0.73145,0.83123 -1.77585,1.56086 -2.51761,1.8385c-2.22979,0.83464 -7.37617,0.01815 -10.16215,1.43207c-1.20644,0.61229 -3.1706,4.39929 -3.1706,4.39929c0,0 0.31203,-4.33427 -0.20349,-4.76604c-0.43972,-0.3683 -4.74586,2.66084 -4.74586,2.66084c0,0 1.06322,-1.42848 1.96657,-2.55955c0.61181,-0.76603 1.19076,-1.30593 1.16091,-1.51801c-0.06694,-0.4756 -0.11669,-0.99719 -0.06315,-1.25798c0.13735,-0.66906 0.97559,-1.96232 0.97559,-1.96232c0,0 -0.72384,-1.23574 -1.16986,-2.52138c-0.31045,-0.89484 -0.40088,-1.85241 -0.37675,-2.27282c0.06341,-1.10468 1.38934,-2.06573 1.38934,-2.06573c0,0 -0.48451,-0.84661 -0.68489,-1.28754c-0.1997,-0.43951 -0.5153,-1.3538 -0.5153,-1.3538z" fill="#000000" stroke="none" stroke-width="0"/><path d="M290.0671,113.62214c0,0 2.15431,0.57469 2.39701,1.11258c0.23025,0.51026 -1.31064,3.28426 -1.31064,3.28426c0,0 -0.68777,-1.76127 -0.84081,-2.52171c-0.14026,-0.69692 -0.24556,-1.87511 -0.24556,-1.87511z" fill="#ffc6ef" stroke="none" stroke-width="0"/><path d="M291.02513,118.17662c0,0 0.90035,3.26138 1.24578,4.39401c0.2208,0.72406 0.57226,2.06634 0.57226,2.06634c0,0 -1.79296,-1.37463 -2.52278,-2.07728c-0.51626,-0.49703 -1.11846,-2.68911 -0.96024,-3.68941c0.1379,-0.87201 1.66499,-0.69369 1.66499,-0.69369z" fill="#ffc6ef" stroke="none" stroke-width="0"/><path d="M289.08196,127.13201c0.30241,-0.13645 1.00448,-0.21692 1.49041,-0.30597c0.44252,-0.0811 1.3401,-0.2731 1.3401,-0.2731c0,0 -0.29554,0.50842 -0.17075,0.97284c0.18977,0.7062 0.79228,2.83588 0.79228,2.83588c0,0 -1.15926,0.78051 -2.10303,-0.09346c-0.77815,-0.72059 -1.5668,-3.03792 -1.34902,-3.13619z" fill="#ffc6ef" stroke="none" stroke-width="0"/><path d="M289.0367,133.46253c0.60817,-0.22131 2.45954,-0.53811 2.45954,-0.53811c0,0 -0.33011,0.67037 -0.29591,1.36413c0.02971,0.60291 0.05598,1.27383 0.05039,1.67567c-0.00891,0.63956 0.25468,1.84314 0.25468,1.84314c0,0 -1.88817,-1.06885 -2.48951,-2.18823c-0.51074,-0.95073 -0.21812,-2.06962 0.02083,-2.15658z" fill="#ffc6ef" stroke="none" stroke-width="0"/></g><g stroke="#000000" stroke-width="1.5" stroke-linecap="butt"><path d="M281.78427,137.521c1.78834,-0.30865 2.89446,1.1192 3.57354,0.98871c0.72107,-0.13856 1.62363,-0.28181 1.6921,-0.18799c0.06511,0.08919 -1.49429,0.44594 -1.25913,0.96711c0.23154,0.51314 0.50347,2.17361 0.40465,3.83815c-0.16668,2.80824 -0.45607,6.6573 -0.45607,6.6573c0,0 -1.33672,0.01865 -3.76159,0.59768c-1.53017,0.36539 -4.61981,-0.60568 -4.61981,-0.60568c0,0 -2.07802,-7.58289 -1.72551,-8.89897c0.53133,-1.98369 4.76597,-3.15387 5.93906,-3.35631z" fill="#485e84"/><path d="M277.99618,150.08237c-0.29778,0.03269 -0.50703,-0.21139 -0.33891,-0.60308c0.4105,-0.95646 1.43903,-2.61378 3.65594,-2.69165c1.60838,-0.0565 2.77416,0.94142 3.41861,1.69112c0.3813,0.44356 0.31826,0.829 -0.10737,0.87575c0,0 -5.78093,0.63481 -6.62826,0.72787z" fill="#343545"/></g></g></g></g></svg>