<svg version="1.1" xmlns="http://www.w3.org/2000/svg" xmlns:xlink="http://www.w3.org/1999/xlink" width="183.90229" height="329.16617" viewBox="0,0,183.90229,329.16617"><g transform="translate(-208.51922,-31.82118)"><g data-paper-data="{&quot;isPaintingLayer&quot;:true}" fill-rule="nonzero" stroke-linejoin="miter" stroke-miterlimit="10" stroke-dasharray="" stroke-dashoffset="0" style="mix-blend-mode: normal"><g stroke="#000000" stroke-linecap="butt"><path d="M333.69255,221.13966c17.77824,28.20023 26.64162,54.55913 19.7969,58.87424c-6.84472,4.31511 -26.80558,-15.04762 -44.58382,-43.24785c-17.77824,-28.20023 -26.64162,-54.55913 -19.7969,-58.87424c6.84472,-4.31511 26.80558,15.04762 44.58382,43.24786z" fill="#0d69be" stroke-width="2"/><path d="M369.65185,253.2545c7.63087,12.10425 3.75195,28.26193 -8.66381,36.08919c-12.41576,7.82725 -28.66677,4.36007 -36.29764,-7.74419c-7.63087,-12.10426 -3.75195,-28.26193 8.66381,-36.08919c12.41576,-7.82726 28.66677,-4.36006 36.29764,7.74419z" fill="#faddbf" stroke-width="2"/><path d="M329.81336,264.57452c7.63087,12.10426 43.46735,16.00589 31.05159,23.83315c-12.41576,7.82725 -28.66676,4.36006 -36.29764,-7.74419c-7.63087,-12.10426 -2.38483,-28.19321 5.24604,-16.08895z" fill="#ef8b89" stroke-width="0"/></g><g stroke="#000000" stroke-linecap="butt"><path d="M307.76518,340.83531v-95.29492h29.49199v95.29492z" fill="#73fffc" stroke-width="2"/><path d="M307.43943,340.21737l1.32626,-93.78573c0,0 5.20288,68.11227 6.3799,77.52842c0.2602,2.08162 2.52228,2.78987 2.52228,2.78987l18.60659,13.13896z" fill="#59a9e6" stroke-width="0"/></g><g stroke="#000000" stroke-linecap="butt"><path d="M268.4238,338.41279v-95.29492h29.49199v95.29492z" fill="#73fffc" stroke-width="2"/><path d="M268.09805,337.79485l1.32626,-93.78573c0,0 5.20288,68.11227 6.3799,77.52842c0.2602,2.08162 2.52228,2.78987 2.52228,2.78987l18.60659,13.13896z" fill="#59a9e6" stroke-width="0"/></g><g stroke="#000000" stroke-linecap="butt"><path d="M335.22917,235.69583c0,13.80271 10.04743,36.74388 4.95001,46.45977c-6.2338,11.88187 -28.61241,9.09579 -38.9397,9.09579c-13.66287,0 -32.94407,4.17018 -38.34426,-14.83216c-2.01935,-7.10576 4.35457,-32.37264 4.35457,-40.7234c0,-30.68249 15.2177,-55.55556 33.98969,-55.55556c18.77199,0 33.98969,24.87307 33.98969,55.55556z" fill="#0d69be" stroke-width="2"/><path d="M283.96554,251.27245c0,13.80271 62.04198,20.54886 56.94455,30.26474c-6.2338,11.88186 -28.61241,9.09579 -38.9397,9.09579c-13.66287,0 -32.94406,4.17018 -38.34425,-14.83215c-2.01936,-7.10576 4.35457,-32.37265 4.35457,-40.7234c0,-9.45244 3.34855,-28.59801 5.51953,-29.96813c5.94391,-16.76415 10.4653,25.13995 10.4653,46.16315z" fill="#10157d" stroke-width="0"/></g><g stroke-linecap="butt"><g stroke="#000000"><g><path d="M212.22222,120.27785c0,-46.79079 37.93143,-84.72222 84.72222,-84.72222c46.79079,0 84.72222,37.93143 84.72222,84.72222c0,46.79079 -37.93143,84.72222 -84.72222,84.72222c-46.79079,0 -84.72222,-37.93143 -84.72222,-84.72222z" fill="#faddbf" stroke-width="2"/><path d="M212.45299,119.40834c0,-15.05428 8.65728,-41.01117 13.16632,-44.22534c0.51494,-0.36707 5.78642,-8.91029 13.30693,-15.62682c9.34748,-8.34819 21.31473,-15.15641 21.9255,-14.95935c7.96872,2.57101 -17.52654,64.85492 -16.28763,90.14485c0.00295,0.06031 4.40745,19.70158 6.02593,20.14049c2.8855,4.74247 9.11092,19.15337 19.99223,26.29351c20.2786,13.30648 48.94186,19.68013 47.45857,20.18586c-2.37273,0.80898 -14.80271,2.76903 -20.86562,2.76903c-46.79079,0 -84.72222,-37.93143 -84.72222,-84.72222z" fill="#ef8b89" stroke-width="0"/><path d="M381.14322,119.81965c0,11.62434 -1.57787,15.64071 -2.12992,13.78899c-0.5632,-1.8891 -0.18668,-9.81362 -9.04258,-14.64925c-2.14596,-1.17177 -10.20624,6.27605 -12.93385,5.04791c-1.71325,-0.77142 -8.65215,-10.17554 -10.56583,-10.85157c-1.33801,-0.47267 -12.45011,8.37757 -13.84965,7.92692c-3.49052,-1.12394 -11.98851,-11.37355 -15.73972,-12.03156c-2.06568,-0.36235 -9.2828,11.84977 -11.39182,11.59592c-2.71985,-0.32737 -10.06862,-12.06843 -12.80601,-12.06843c-7.27985,0 -7.47978,7.01079 -12.7176,13.01701c-3.40366,3.90299 -13.98842,-13.05188 -17.11223,-8.61668c-3.87941,5.50799 -7.71992,10.81771 -11.96095,14.41734c-3.32724,2.82405 -13.36416,-10.09687 -16.24015,-7.47909c-13.88607,12.63935 -22.22353,20.64372 -22.22353,2.47189c0,-36.54015 43.28764,-8.21349 85.0704,-29.73523c39.99404,-20.60039 83.64345,-9.37431 83.64345,27.16584z" fill="#ef8b89" stroke-width="0"/></g><path d="M382.67709,111.50876c0,23.48334 6.5317,8.71531 -11.46679,-0.86026c-2.20249,-1.17177 -10.47508,6.27605 -13.27454,5.04791c-1.75838,-0.77142 -8.88005,-10.17554 -10.84414,-10.85157c-1.37326,-0.47267 -12.77806,8.37757 -14.21446,7.92692c-3.58246,-1.12394 -12.30429,-11.37355 -16.15431,-12.03156c-2.12009,-0.36235 -9.52731,11.84977 -11.69189,11.59592c-2.79149,-0.32737 -10.33384,-12.06843 -13.14333,-12.06843c-7.47161,0 -7.6768,7.01079 -13.05259,13.01701c-3.49332,3.90299 -14.35688,-13.05188 -17.56298,-8.61668c-3.98159,5.50799 -7.92327,10.81771 -12.276,14.41734c-3.41488,2.82405 -13.71618,-10.09687 -16.66792,-7.47909c-14.25184,12.63935 -22.80892,20.64372 -22.80892,2.47189c0,-36.54015 39.86264,-81.25697 85.78948,-81.25697c45.92683,0 87.36842,42.14743 87.36842,78.68758z" fill="#873412" stroke-width="2"/><path d="M382.42936,110.34597c0,23.48334 6.5317,8.71531 -11.46679,-0.86026c-2.20249,-1.17177 -10.47508,6.27605 -13.27454,5.04791c-1.75838,-0.77142 -8.88005,-10.17554 -10.84415,-10.85157c-1.37326,-0.47267 -12.77806,8.37757 -14.21446,7.92692c-3.58246,-1.12394 -12.30429,-11.37355 -16.15431,-12.03156c-2.12009,-0.36235 -9.52731,11.84977 -11.69189,11.59592c-2.79149,-0.32737 -10.33384,-12.06843 -13.14333,-12.06843c-7.47161,0 -7.6768,7.01079 -13.05259,13.01701c-3.49332,3.90299 -14.35688,-13.05188 -17.56298,-8.61668c-3.98159,5.50799 -7.92327,10.81771 -12.27601,14.41734c-3.41488,2.82405 -13.71618,-10.09687 -16.66792,-7.47909c-14.25184,12.63935 -22.80892,20.64372 -22.80892,2.47189c0,-36.54015 44.42786,-8.21349 87.31121,-29.73523c41.04751,-20.60039 85.84668,-9.37431 85.84668,27.16584z" fill="#741d23" stroke-width="0"/></g><path d="M297.68586,43.20182c0.06504,0.11563 0.11871,0.24909 0.16282,0.39594c0.0942,0.25915 0.14675,0.5383 0.14957,0.82934c0.10872,1.13632 -0.04492,2.51335 0.00011,3.00545c0.05917,0.64652 1.19031,-0.74732 1.8333,-0.6576c0.39387,0.05496 0.79058,0.76163 1.08556,0.49491c1.79014,-1.61865 3.39338,-4.4788 6.14794,-2.85557c0.91226,0.53758 0.67628,1.89067 1.24094,2.5754c0.04747,0.05756 2.60921,-0.1366 3.20483,0.39633c1.0263,0.91828 0.31921,2.25188 0.84227,3.24453c0.16737,0.31764 0.57449,-0.44225 0.90296,-0.5872c1.46188,-0.64507 3.99723,-2.00657 5.75026,-1.00484c0.9237,0.52783 0.74309,2.13955 1.25,2.58145c0.88869,0.7747 1.93355,-1.36509 2.98795,-1.89251c1.4583,-0.72946 2.18563,-0.02863 3.42998,0.8575c0.21462,0.15284 0.4729,4.13203 1.5751,5.28976c0.61955,0.65076 1.65156,-0.85868 2.54995,-0.87393c0.89637,-0.01521 2.71106,-0.73753 3.13293,-0.63391c0.84623,0.20784 1.57162,1.64085 2.32283,1.19928c3.83542,-2.25449 8.74631,-0.80574 7.11144,4.15438c-0.20689,0.62772 1.32191,-0.57392 1.94893,-0.36491c0.24308,0.08102 1.59685,1.0818 1.82405,0.9958c1.48606,-0.56253 2.42529,-1.27962 4.01644,-1.28349c1.32143,-0.00321 2.58997,0.74067 2.89673,2.12114c0.16122,0.7255 -0.99738,2.12313 -0.25981,2.21439c1.73856,0.21513 4.46436,0.94049 3.69208,3.47798c-0.83832,2.75449 -3.13962,5.14362 -5.7124,3.05264c-0.89263,-0.72546 -2.30427,1.24264 -3.36004,0.78609c-1.35252,-0.58487 -2.02055,-2.87334 -1.94906,-4.04994c0.03305,-0.54391 -1.07328,0.37399 -1.61032,0.28162c-0.72305,-0.12436 -1.06576,-1.21538 -1.79736,-1.27038c-1.63644,-0.12301 -1.3588,3.26616 -5.24535,2.4796c-1.14716,-0.23216 -2.516,-2.181 -2.89553,-3.27894c-0.22031,-0.63733 1.44671,-2.64957 1.28866,-2.75515c-0.38378,-0.25637 -1.94579,2.82743 -2.37223,2.96958c-1.02591,0.34197 -2.14798,-0.37973 -3.14348,-0.80211c-0.87953,-0.37317 -1.15332,1.88993 -2.10728,1.94293c-0.84278,0.04682 -9.35342,-0.4825 -9.68874,-0.98549c-0.40882,-0.61322 -0.82062,-1.721 -0.66291,-2.43068c0.05668,-0.25505 0.97585,-1.84123 0.79428,-1.82108c-0.64439,0.07149 -4.18815,3.4397 -6.35755,0.18561c-1.1797,-1.76955 0.97225,-3.59848 0.97549,-5.22262c0.002,-1.00299 -1.1089,1.67543 -1.57852,2.56169c-0.3607,0.68072 -1.43499,1.3053 -2.20947,1.33028c-2.67773,0.08638 -1.93793,-2.47479 -2.5,-3.98918c-0.25939,-0.69888 -1.57778,0.59517 -2.22503,0.22532c-1.58252,-0.90429 -1.34694,-2.0688 -1.48465,-3.60097c-0.06306,-0.70155 -0.5487,2.71516 -2.19331,2.88171c-0.66697,0.06754 -1.7235,-0.94735 -1.98395,-0.32962c-1.26801,3.00744 -0.56288,4.21953 -4.35893,3.73846c-0.36631,-0.04642 -0.97772,0.79566 -1.37068,0.57111c-4.34916,-2.48524 -0.86033,-7.93142 -0.7383,-11.93952c0.04305,-1.41383 -0.88265,-3.52759 0.34546,-4.22937c0.43488,-0.73685 1.23698,-1.23116 2.15454,-1.23116c0.81357,0 1.53638,0.38863 1.99291,0.99036c0.07451,0.07697 0.14011,0.16278 0.19459,0.25964z" fill="#ba587e" stroke="none" stroke-width="0.5"/></g><g stroke="#000000" stroke-linecap="butt"><path d="M327.69483,152.44762c0,28.55894 -13.1683,43.28947 -29.73684,43.28947c-16.56854,0 -30.26316,-14.73054 -30.26316,-43.28947c0,-28.55894 13.43146,-51.71053 30,-51.71053c16.56854,0 30,23.15159 30,51.71053z" fill="#f0f0f0" stroke-width="2"/><path d="M280.9391,132.86524c-4.30259,28.23297 34.22345,62.0416 17.65491,62.0416c-16.56854,0 -30.26316,-14.73054 -30.26316,-43.28947c0,-28.55894 18.82852,-59.56866 12.60825,-18.75213z" fill="#9a99ff" stroke-width="0"/></g><path d="M323.8004,160.68087c0,15.82221 -4.68891,28.64865 -10.47297,28.64865c-5.78406,0 -10.47297,-12.82644 -10.47297,-28.64865c0,-15.82221 4.68891,-28.64865 10.47297,-28.64865c5.78406,0 10.47297,12.82644 10.47297,28.64865z" fill="#000000" stroke="none" stroke-width="0" stroke-linecap="butt"/><g stroke="#000000" stroke-linecap="butt"><path d="M322.68553,122.41295c4.45946,10.22981 -9.89785,14.12162 -25.60811,14.12162c-15.71026,0 -27.17995,-4.64154 -22.63514,-14.25676c4.32432,-9.14873 6.78974,-21.41892 22.5,-21.41892c15.71026,0 21.49332,11.80491 25.74324,21.55405z" fill="#a100fe" stroke-width="2"/><path d="M321.76126,122.05871c4.3074,10.22981 -9.56036,14.12162 -24.73494,14.12162c-15.17458,0 -26.25318,-4.64154 -21.86334,-14.25676c4.17687,-9.14873 6.55823,0.96203 21.73281,0.96203c15.17458,0 20.76045,-10.57604 24.86546,-0.8269z" fill="#99008e" stroke-width="0"/></g><g data-paper-data="{&quot;index&quot;:null}" stroke="#000000" stroke-linecap="butt"><path d="M361.42151,99.69979c16.56854,0 30,23.15159 30,51.71053c0,28.55893 -13.69462,43.28947 -30.26316,43.28947c-16.56854,0 -29.73684,-14.73053 -29.73684,-43.28947c0,-28.55894 13.43146,-51.71053 30,-51.71053z" fill="#f0f0f0" stroke-width="2"/><path d="M390.78549,150.58005c0,28.55893 -13.69462,43.28947 -30.26316,43.28947c-16.56854,0 21.9575,-33.80863 17.65491,-62.0416c-6.22027,-40.81653 12.60825,-9.80681 12.60825,18.75213z" fill="#9a99ff" stroke-width="0"/></g><path d="M374.9426,131.41949c5.78406,0 10.47297,12.82644 10.47297,28.64865c0,15.82221 -4.68891,28.64865 -10.47297,28.64865c-5.78406,0 -10.47297,-12.82644 -10.47297,-28.64865c0,-15.82221 4.68891,-28.64865 10.47297,-28.64865z" data-paper-data="{&quot;index&quot;:null}" fill="#000000" stroke="none" stroke-width="0" stroke-linecap="butt"/><g data-paper-data="{&quot;index&quot;:null}" stroke="#000000" stroke-linecap="butt"><path d="M336.43082,121.37561c4.24992,-9.74914 10.03298,-21.55405 25.74324,-21.55405c15.71026,0 18.17568,12.27019 22.5,21.41892c4.54481,9.61522 -6.92488,14.25676 -22.63514,14.25676c-15.71026,0 -30.06757,-3.89181 -25.60811,-14.12162z" fill="#a100fe" stroke-width="2"/><path d="M337.35509,121.02137c4.10501,-9.74914 9.69088,0.8269 24.86546,0.8269c15.17458,0 17.55594,-10.11076 21.73281,-0.96203c4.38984,9.61522 -6.68876,14.25676 -21.86334,14.25676c-15.17458,0 -29.04234,-3.89181 -24.73494,-14.12162z" fill="#99008e" stroke-width="0"/></g><path d="M258.41951,154.34599c1,0 1,1 1,1l-0.00411,0.29325c-0.40804,4.48794 -0.48226,9.26275 -3.29897,13.02197c-1.59262,2.86671 -5.09498,4.48484 -6.55209,0.37867c-1.64221,-4.6278 0.54499,-11.86437 1.81215,-16.29985c0,0 0.27472,-0.96152 1.23625,-0.6868c0.96152,0.27472 0.6868,1.23625 0.6868,1.23625c-1.15026,4.02549 -1.88733,7.91064 -1.88733,12.09098c0,2.82176 0.80082,6.19821 3.02616,2.19259c2.60906,-3.47536 2.60787,-7.96336 2.98524,-12.11487l-0.00411,-0.11218c0,0 0,-1 1,-1z" fill="#000000" stroke="none" stroke-width="0.5" stroke-linecap="butt"/><path d="M371.63632,338.86999c0,11.6628 -14.51982,21.11737 -32.43092,21.11737c-17.9111,0 -32.43092,-9.45457 -32.43092,-21.11737c0,-2.33142 -0.03339,-13.76009 1.08979,-15.13837c4.49546,-5.51647 17.81784,5.26144 32.14847,5.26144c17.9111,0 31.62358,-1.78588 31.62358,9.87692z" fill="#000082" stroke="#000000" stroke-width="2" stroke-linecap="butt"/><path d="M369.75004,336.13769c0,6.30841 -13.89058,10.1901 -31.80169,10.1901c-17.9111,0 -30.16566,-2.95748 -30.16566,-9.26589c0,-1.26107 -0.03338,-12.52602 1.0898,-13.27153c4.49546,-2.98386 15.55258,5.7726 29.88321,5.7726c17.9111,0 30.99434,0.26631 30.99434,6.57472z" fill="#2e0048" stroke="#000000" stroke-width="0" stroke-linecap="butt"/><path d="M328.64938,338.22518c0,11.6628 -14.51982,21.11737 -32.43092,21.11737c-17.9111,0 -32.43092,-9.45457 -32.43092,-21.11737c0,-2.33142 -0.03339,-13.76009 1.08979,-15.13837c4.49546,-5.51647 17.81784,5.26144 32.14847,5.26144c17.9111,0 31.62358,-1.78588 31.62358,9.87692z" fill="#000082" stroke="#000000" stroke-width="2" stroke-linecap="butt"/><path d="M326.7631,335.49288c0,6.30841 -13.89058,10.1901 -31.80169,10.1901c-17.9111,0 -30.16566,-2.95748 -30.16566,-9.26589c0,-1.26107 -0.03338,-12.52602 1.0898,-13.27153c4.49546,-2.98386 15.55258,5.7726 29.88321,5.7726c17.9111,0 30.99434,0.26631 30.99434,6.57472z" fill="#2e0048" stroke="#000000" stroke-width="0" stroke-linecap="butt"/><g><g><path d="M307.31317,248.24441c-14.46362,4.29262 -25.06982,-0.47378 -29.98253,-14.57962c-3.84231,-11.03231 4.52747,-27.09378 18.99111,-31.3864c14.46368,-4.29267 27.74447,1.93506 31.99436,16.25454c0.66461,2.23929 0.61336,4.50316 0.58589,6.57127c-0.14835,11.15655 -9.387,19.51886 -21.5888,23.14021z" fill="#485e84" stroke="#000000" stroke-width="2" stroke-linecap="butt"/><path d="M285.50001,210.79162c0,0 1.20987,5.62736 3.08913,6.32144c18.02629,6.65783 31.74815,3.66974 36.21117,2.3351c1.014,-0.30322 1.29187,-1.39117 1.29187,-1.39117c0,0 0.81091,1.95206 1.00351,4.68645c0.20495,2.90963 -0.24421,6.69145 -1.53469,9.48067c-1.47413,3.18607 -6.80621,9.59522 -6.80621,9.59522l-18.90776,9.01971c0,0 -12.33432,-5.36839 -13.9015,-6.86534c-1.53533,-1.4665 -2.93147,-3.64217 -4.50901,-5.89568c-2.44933,-3.49891 -3.59893,-7.89041 -3.51522,-10.76926c0.10687,-3.67407 1.73653,-8.04398 3.66817,-11.33506c1.79775,-3.06296 3.9106,-5.18197 3.9106,-5.18197z" fill="#343545" stroke="none" stroke-width="0" stroke-linecap="butt"/><path d="M294.68252,233.43779c0,0 -4.30313,-7.92977 -3.49565,-13.02173c1.02215,-6.4459 6.54327,-18.17704 6.54327,-18.17704" fill="none" stroke="#000000" stroke-width="1" stroke-linecap="round"/><path d="M324.78749,212.3853c0,0 0.54359,7.12982 -0.16193,11.3694c-0.7122,4.28006 -5.57682,12.67579 -5.57682,12.67579" fill="none" stroke="#000000" stroke-width="1" stroke-linecap="round"/><path d="M285.46781,239.39139c0,0 -4.5387,-8.07382 -3.41294,-13.54936c1.72746,-8.40203 6.22143,-19.09314 6.22143,-19.09314" fill="none" stroke="#000000" stroke-width="1" stroke-linecap="round"/><path d="M277.28229,226.48422c0,0 10.14687,-14.01843 27.56853,-13.8461c19.08322,0.18876 23.6765,16.81381 23.6765,16.81381" fill="none" stroke="#000000" stroke-width="1" stroke-linecap="round"/><path d="M278.74975,235.8944c0,0 12.66713,-12.50625 28.04066,-12.38724c12.62307,0.09773 17.80205,13.73947 17.80205,13.73947" fill="none" stroke="#000000" stroke-width="1" stroke-linecap="round"/><path d="M311.12391,206.51859c-1.16198,-0.31145 -1.90402,-1.30964 -1.65746,-2.22949c0.24651,-0.9199 1.02125,-0.73616 2.18322,-0.42471c1.16198,0.31145 2.27112,0.63267 2.02457,1.55254c-0.24651,0.9199 -1.38839,1.41313 -2.55032,1.10165z" fill="#8fbbbe" stroke="none" stroke-width="0" stroke-linecap="butt"/><path d="M317.82473,209.33958c-0.57663,0.17112 -1.25216,-0.39129 -1.50887,-1.25622c-0.25671,-0.86494 -0.2421,-1.25352 0.33451,-1.42467c0.57663,-0.17112 1.42619,0.33964 1.68286,1.20458c0.25671,0.86494 0.06807,1.30518 -0.50854,1.4763z" fill="#8fbbbe" stroke="none" stroke-width="0" stroke-linecap="butt"/><path d="M304.42501,204.78977c-0.8874,0.16307 -1.69483,-0.18426 -1.80356,-0.77582c-0.10876,-0.59152 0.67741,-0.68131 1.56477,-0.84441c0.8874,-0.16307 1.53989,-0.33779 1.64864,0.25377c0.10876,0.59152 -0.52249,1.20336 -1.40985,1.36644z" fill="#8fbbbe" stroke="none" stroke-width="0" stroke-linecap="butt"/><path d="M282.51714,214.13831c0,0 8.33271,-5.9368 15.69244,-7.74071c4.1726,-1.02271 8.20321,-0.48365 11.25443,-0.04072c2.69835,0.39167 8.31457,3.80984 12.34102,6.87348c2.96447,2.25558 4.93147,4.44598 4.93147,4.44598" fill="none" stroke="#000000" stroke-width="0.5" stroke-linecap="round"/><path d="M314.55996,202.16697c0,0 2.61619,10.24371 1.94634,15.60733c-0.56435,4.51898 -5.35551,14.37337 -5.35551,14.37337" fill="none" stroke="#000000" stroke-width="1" stroke-linecap="round"/><path d="M305.29165,232.18253c0,0 -2.28716,-9.39133 -2.21562,-13.91302c0.12562,-7.93922 4.91521,-17.18241 4.91521,-17.18241" fill="none" stroke="#000000" stroke-width="1" stroke-linecap="round"/></g><g stroke="#000000" stroke-linecap="butt"><path d="M278.29377,241.26535c33.33013,0.64885 38.9033,8.52254 38.74581,16.61238c-0.15749,8.08985 -27.30458,14.12196 -60.63472,13.4731c-33.33013,-0.64886 15.46056,-53.89318 15.61805,-61.98302c4.00062,-5.85861 7.84269,-0.58261 8.03405,7.27356c0.23599,9.6885 -4.61212,24.56852 -1.76319,24.62399z" fill="#0d69be" stroke-width="2"/><path d="M303.56896,229.66726c14.30614,0.2785 25.67197,12.40015 25.3863,27.07446c-0.28567,14.67431 -12.11467,26.34442 -26.42081,26.06592c-14.30614,-0.2785 -25.67197,-12.40016 -25.3863,-27.07447c0.28567,-14.67431 12.11467,-26.34441 26.42081,-26.06591z" fill="#faddbf" stroke-width="2"/><path d="M291.12789,269.17001c14.30614,0.2785 37.26344,-27.51427 36.97777,-12.83996c-0.28567,14.67431 -12.11467,26.34442 -26.42081,26.06591c-14.30614,-0.2785 -24.86311,-13.50446 -10.55696,-13.22595z" fill="#ef8b89" stroke-width="0"/></g></g></g></g></svg>