<svg version="1.1" xmlns="http://www.w3.org/2000/svg" xmlns:xlink="http://www.w3.org/1999/xlink" width="176.83884" height="308.10128" viewBox="0,0,176.83884,308.10128"><g transform="translate(-245.25776,-22.47683)"><g data-paper-data="{&quot;isPaintingLayer&quot;:true}" fill-rule="nonzero" stroke-linecap="butt" stroke-linejoin="miter" stroke-miterlimit="10" stroke-dasharray="" stroke-dashoffset="0" style="mix-blend-mode: normal"><g data-paper-data="{&quot;index&quot;:null}" stroke="#000000"><path d="M308.90283,236.25803l16.63872,-42.37792l44.1979,17.96302l-16.63872,42.37792z" fill="#ffcaa0" stroke-width="2"/><g><path d="M325.33435,193.98024l22.94298,-58.4345l44.77398,18.19715l-22.94298,58.4345z" fill="#0000c0" stroke-width="2"/><path d="M325.90523,194.42951l12.01684,-30.60627c0,0 8.40157,18.15666 15.83462,21.17762c7.04765,2.86432 27.66908,-3.49675 27.66908,-3.49675l-12.01685,30.60628c0,0 -14.30881,-5.81542 -21.52045,-8.7464c-7.28877,-2.96232 -21.98326,-8.93448 -21.98326,-8.93448z" fill="#56006b" stroke-width="0"/></g><path d="M309.77655,236.05656l16.63872,-42.37792l0.06137,33.33112l27.49782,27.00981z" fill="#ff6e5b" stroke-width="0"/></g><g data-paper-data="{&quot;index&quot;:null}" stroke="#000000"><path d="M420.22974,96.72356c-2.1942,30.49773 -15.03429,54.39726 -28.67913,53.38106c-13.64484,-1.01619 -22.92741,-26.56327 -20.73321,-57.06102c2.1942,-30.49773 15.03429,-54.39726 28.67913,-53.38106c13.64484,1.01619 22.92741,26.56327 20.73321,57.06102z" fill="#01930e" stroke-width="2"/><path d="M380.04659,84.16426c-2.1942,30.49773 25.55247,66.57326 11.90762,65.55707c-13.64483,-1.01619 -22.92741,-26.56327 -20.73321,-57.06102c2.1942,-30.49773 11.01979,-38.99379 8.82559,-8.49605z" fill="#31525b" stroke-width="0"/></g><g data-paper-data="{&quot;index&quot;:null}" stroke="#000000"><path d="M295.35276,329.15618v-85.71361h57.09588v85.71361z" fill="#273750" stroke-width="2"/><path d="M296.08756,328.43781v-85.71361l17.19726,46.82587l39.89861,38.88774z" fill="#1f1e2e" stroke-width="0"/></g><path d="M246.83753,243.05205v-108.05603h106.20632v108.05603z" data-paper-data="{&quot;index&quot;:null}" fill="#0000c0" stroke="#000000" stroke-width="2"/><g data-paper-data="{&quot;index&quot;:null}" stroke="#000000"><path d="M246.25776,329.57811v-85.71361h57.09588v85.71361z" fill="#273750" stroke-width="2"/><path d="M246.99259,328.85971v-85.71361l17.19726,46.82587l39.89861,38.88774z" fill="#1f1e2e" stroke-width="0"/></g><g data-paper-data="{&quot;index&quot;:null}" stroke="#000000"><path d="M271.93575,242.60652v-106.04482h57.09588v106.04482z" fill="#ffffff" stroke-width="2"/><path d="M272.67059,241.71775v-106.04482l17.19726,57.93293l39.89861,48.11189z" fill="#8ebbfc" stroke-width="0"/></g><g data-paper-data="{&quot;index&quot;:null}" stroke="#000000"><path d="M255.19184,82.93845c0.09378,-1.30348 2.69101,-25.8669 2.87844,-27.14333c4.73618,-32.25448 36.4389,-32.26021 75.94485,-29.31803c37.10962,2.76371 68.85643,9.45237 72.31122,39.50004c0.36864,3.2062 -2.17167,24.73612 -2.40919,28.03753c-0.849,11.80045 0.06753,37.94392 -7.47188,46.82243c-14.33769,16.88423 -44.43561,11.64347 -71.35143,9.63894c-28.45861,-2.11944 -55.06398,-3.16665 -66.15615,-23.67592c-4.91523,-9.0882 -4.50232,-33.3475 -3.74587,-43.86165z" fill="#ffcaa0" stroke-width="2"/><path d="M253.4847,82.82102c0.09378,-1.30348 2.69101,-25.8669 2.87844,-27.14333c2.69087,-18.32545 2.26255,57.82133 45.24718,81.89632c33.6857,18.86681 96.77397,-0.48173 93.74277,3.08786c-14.33769,16.88423 -45.05057,11.70126 -71.96637,9.69672c-28.45861,-2.11944 -55.06398,-3.16665 -66.15615,-23.67592c-4.91523,-9.0882 -4.50232,-33.3475 -3.74587,-43.86165z" fill="#ff6e5b" stroke-width="0"/></g><g data-paper-data="{&quot;index&quot;:null}" stroke="#000000"><path d="M297.43881,85.60431c-2.1942,30.49773 -15.03429,54.39726 -28.67913,53.38106c-13.64484,-1.01619 -22.92741,-26.56327 -20.73321,-57.06102c2.1942,-30.49773 15.03429,-54.39726 28.67913,-53.38106c13.64484,1.01619 22.92741,26.56327 20.73321,57.06102z" fill="#01930e" stroke-width="2"/><path d="M257.25566,73.04501c-2.1942,30.49773 25.55247,66.57326 11.90762,65.55707c-13.64483,-1.01619 -22.92741,-26.56327 -20.73321,-57.06102c2.1942,-30.49773 11.01979,-38.99379 8.82559,-8.49605z" fill="#31525b" stroke-width="0"/></g><g data-paper-data="{&quot;index&quot;:null}"><path d="M421.72509,59.83903c-1.20327,16.72457 -40.67563,27.41548 -88.16399,23.87881c-47.48836,-3.53666 -85.00981,-19.96164 -83.80655,-36.6862c1.20327,-16.72457 40.67562,-27.41547 88.16398,-23.8788c47.48836,3.53666 85.00982,19.96163 83.80655,36.6862z" fill="#000000" stroke="none" stroke-width="NaN"/><path d="M421.02207,60.11445c-1.20327,16.72457 -40.67563,27.41548 -88.16399,23.87881c-47.48836,-3.53666 -85.00981,-19.96164 -83.80655,-36.6862c1.20327,-16.72457 39.22737,11.34615 86.71572,14.88282c47.48836,3.53666 86.45808,-18.80001 85.25481,-2.07543z" fill="#ff0000" stroke="#000000" stroke-width="2"/><path d="M415.38252,68.45044c-0.33113,4.60245 -35.43015,19.71887 -82.82091,14.82562c-16.5839,-1.71234 -32.14922,-4.42519 -44.73003,-8.17437c-23.35641,-6.96037 -37.33968,-16.17279 -34.8946,-19.88436c2.52532,-3.83337 33.90329,18.59395 81.39164,22.1306c47.48836,3.53666 81.38503,-13.49996 81.0539,-8.89751z" fill="#900056" stroke="#000000" stroke-width="0"/></g><path d="M374.14139,117.77292c-1.07086,14.88418 -4.64292,26.74881 -7.97843,26.5004c-3.33551,-0.24841 -5.17135,-12.5158 -4.10048,-27.39995c1.07086,-14.88418 4.64293,-26.7488 7.97843,-26.50039c3.33551,0.24841 5.17135,12.5158 4.10048,27.39996z" data-paper-data="{&quot;index&quot;:null}" fill="#000000" stroke="none" stroke-width="0"/><path d="M395.61086,111.91878c-1.06658,14.82464 -4.49286,26.6516 -7.6528,26.41627c-3.15995,-0.23533 -4.85695,-12.44386 -3.79038,-27.26849c1.06658,-14.82464 4.49286,-26.6516 7.6528,-26.41627c3.15995,0.23533 4.85695,12.44386 3.79038,27.26849z" data-paper-data="{&quot;index&quot;:null}" fill="#000000" stroke="none" stroke-width="0"/><path d="M346.26243,121.89585c0.01132,0.36475 -0.14648,0.66481 -0.14648,0.66481c-2.34987,4.21633 5.44974,8.81001 6.90261,12.35477c1.14852,2.80221 0.03477,5.00745 -2.5709,6.04321c-1.13183,0.4499 -2.41602,0.45458 -3.62789,0.36374c-1.7874,-0.13396 -3.02054,-0.93412 -4.57147,-1.79721c-5.88035,-4.12487 -6.49255,-10.48967 -6.28741,-17.22808c0.0583,-1.91501 0.18542,-3.65023 1.15566,-5.38372c1.88976,-3.37634 6.12747,-5.05605 8.69409,-1.29236c0.25586,0.3752 0.88994,2.53254 1.02907,2.98207c0.11857,1.06785 -0.07275,2.21219 -0.53751,3.17721z" fill="#000000" stroke="none" stroke-width="0.5"/><g data-paper-data="{&quot;index&quot;:null}" stroke="#000000"><path d="M405.55092,202.23064l-44.83515,-1.28127l1.33629,-48.40365l44.83515,1.28127z" fill="#ffcaa0" stroke-width="2"/><g><path d="M360.87958,201.11276l-61.82276,-1.76672l1.35371,-49.03453l61.82276,1.76672z" fill="#0000c0" stroke-width="2"/><path d="M361.09729,200.41267l-32.38094,-0.92536c0,0 13.85548,-14.28325 14.08021,-22.42362c0.21308,-7.71828 -12.76491,-25.21976 -12.76491,-25.21976l32.38095,0.92536c0,0 -0.43261,15.67039 -0.65065,23.56827c-0.22037,7.98235 -0.66465,24.07512 -0.66465,24.07512z" fill="#56006b" stroke-width="0"/></g><path d="M405.06384,201.46566l-44.83515,-1.28127l30.73108,-11.54928l15.44035,-35.57311z" fill="#ff6e5b" stroke-width="0"/></g></g></g></svg>