<svg version="1.1" xmlns="http://www.w3.org/2000/svg" xmlns:xlink="http://www.w3.org/1999/xlink" width="249.93439" height="310.80609" viewBox="0,0,249.93439,310.80609"><g transform="translate(-153.65894,-50.00978)"><g data-paper-data="{&quot;isPaintingLayer&quot;:true}" fill-rule="nonzero" stroke-linejoin="miter" stroke-miterlimit="10" stroke-dasharray="" stroke-dashoffset="0" style="mix-blend-mode: normal"><g stroke="#000000" stroke-linecap="butt"><path d="M347.17247,354.06232l-57.93711,-75.65985l23.4153,-17.93045l57.93712,75.65985z" fill="#73fffc" stroke-width="2"/><path d="M346.53815,353.76975l-55.96657,-75.26795c0,0 45.54153,50.91482 52.20084,57.67522c1.47217,1.49451 3.69876,0.68154 3.69876,0.68154l22.76097,-0.88063z" fill="#59a9e6" stroke-width="0"/></g><g stroke="#000000" stroke-linecap="butt"><path d="M251.67521,326.58483l36.09093,-88.19618l27.29506,11.16947l-36.09093,88.19619z" fill="#73fffc" stroke-width="2"/><path d="M251.60776,325.88955l36.74682,-86.29712c0,0 -20.98077,65.00891 -23.4576,74.1694c-0.54755,2.0251 1.27778,3.53731 1.27778,3.53731l12.24444,19.20705z" fill="#59a9e6" stroke-width="0"/></g><path d="M216.42643,334.22647c1.51965,-11.56337 14.88253,-8.00599 32.64094,-5.67219c14.20846,1.86726 28.82161,-7.08287 32.55995,-1.02767c0.93402,1.51288 -0.58823,12.83977 -0.89202,15.15131c-1.51965,11.56337 -17.1476,19.04542 -34.90601,16.71162c-17.75841,-2.3338 -30.92252,-13.59968 -29.40287,-25.16305z" data-paper-data="{&quot;index&quot;:null}" fill="#000082" stroke="#000000" stroke-width="2" stroke-linecap="butt"/><path d="M250.23943,329.2831c14.20846,1.86726 26.31227,-5.37381 30.38061,-1.82963c1.01647,0.88551 -0.48444,12.05007 -0.64875,13.30039c-0.82198,6.25463 -13.35742,7.59014 -31.11583,5.25634c-17.75841,-2.3338 -31.02479,-7.99232 -30.20281,-14.24696c0.82198,-6.25463 13.82838,-4.81394 31.58678,-2.48014z" data-paper-data="{&quot;index&quot;:null}" fill="#2e0048" stroke="#000000" stroke-width="0" stroke-linecap="butt"/><g stroke="#000000" stroke-linecap="butt"><path d="M402.49785,334.31892c1.35955,11.58329 -11.95915,22.666 -29.74814,24.75392c-17.78899,2.08792 -33.31195,-5.60959 -34.6715,-17.19288c-0.27178,-2.31552 -1.6372,-13.66238 -0.68234,-15.1622c3.82175,-6.0029 18.3097,3.14852 32.54263,1.47797c17.78899,-2.08792 31.1998,-5.46011 32.55935,6.12317z" fill="#000082" stroke-width="2"/><path d="M400.30592,331.82515c0.73538,6.2654 -12.608,11.73987 -30.397,13.8278c-17.78899,2.08792 -30.30476,0.57914 -31.04014,-5.68626c-0.147,-1.25247 -1.49333,-12.43673 -0.46472,-13.30809c4.11698,-3.48756 16.11947,3.92026 30.3524,2.24971c17.78899,-2.08792 30.81407,-3.34856 31.54946,2.91684z" fill="#2e0048" stroke-width="0"/></g><g stroke="#000000" stroke-linecap="butt"><path d="M318.31376,222.28771c23.14852,23.98885 37.19401,47.99041 31.37148,53.60899c-5.82254,5.61858 -29.30823,-9.27348 -52.45675,-33.26233c-23.14852,-23.98885 -37.19401,-47.99041 -31.37148,-53.60899c5.82254,-5.61858 29.30823,9.27348 52.45675,33.26234z" fill="#0d69be" stroke-width="2"/><path d="M360.05954,246.40668c9.93593,10.29662 9.42872,26.90563 -1.13289,37.09727c-10.56161,10.19163 -27.17815,10.10654 -37.11408,-0.19009c-9.93593,-10.29663 -9.42872,-26.90563 1.13289,-37.09727c10.56161,-10.19164 27.17815,-10.10653 37.11408,0.19009z" fill="#faddbf" stroke-width="2"/><path d="M323.36113,265.60237c9.93593,10.29663 45.816,6.81859 35.25439,17.01023c-10.56161,10.19163 -27.17814,10.10653 -37.11408,-0.19009c-9.93593,-10.29663 -8.07625,-27.11676 1.85968,-16.82013z" fill="#ef8b89" stroke-width="0"/></g><g stroke="#000000" stroke-linecap="butt"><path d="M322.78247,236.22594c2.81085,13.51347 17.31958,33.9278 14.30756,44.47816c-3.68349,12.90236 -26.16052,14.73195 -36.27141,16.83505c-13.37656,2.78237 -31.40449,10.79168 -40.56124,-6.71275c-3.42408,-6.54563 -2.32919,-32.58105 -4.02978,-40.75682c-6.24832,-30.03953 3.58522,-57.49039 21.96384,-61.3132c18.37862,-3.82281 38.3427,17.43003 44.59102,47.46957z" fill="#0d69be" stroke-width="2"/><path d="M275.76516,261.9157c2.81085,13.51347 64.92655,7.48374 61.91452,18.03409c-3.68349,12.90235 -26.16052,14.73195 -36.27141,16.83505c-13.37656,2.78237 -31.40448,10.79167 -40.56123,-6.71274c-3.42409,-6.54563 -2.3292,-32.58106 -4.02978,-40.75682c-1.92494,-9.25436 -2.54545,-28.68065 -0.69898,-30.46417c2.40543,-17.6233 15.36561,22.48194 19.64688,43.06459z" fill="#10157d" stroke-width="0"/></g><g><g><path d="M269.02841,277.84415c-14.73456,-3.24276 -21.7096,-12.54647 -19.18263,-27.26801c1.97634,-11.51387 17.07333,-21.51911 31.80792,-18.27634c14.73464,3.24274 23.34307,15.11957 20.13267,29.70732c-0.50204,2.28125 -1.64243,4.23758 -2.66727,6.03411c-5.52873,9.69143 -17.66029,12.53858 -30.09067,9.80293z" fill="#0000c4" stroke="#000000" stroke-width="2" stroke-linecap="butt"/><path d="M268.06374,234.51294c0,0 -1.66444,5.51005 -0.35575,7.02686c12.55313,14.54967 26.00728,18.57508 30.55877,19.56688c1.0341,0.22534 1.80375,-0.59226 1.80375,-0.59226c0,0 -0.23501,2.10069 -1.3897,4.58678c-1.22868,2.64543 -3.45186,5.73758 -5.93094,7.55397c-2.83184,2.0748 -10.59954,5.1032 -10.59954,5.1032l-20.91123,-1.25665c0,0 -8.19601,-10.66679 -8.84306,-12.73519c-0.63391,-2.02633 -0.80283,-4.60591 -1.09283,-7.34138c-0.45023,-4.24722 0.66889,-8.64659 2.13528,-11.12539c1.87149,-3.1635 5.41232,-6.19903 8.69534,-8.14433c3.05547,-1.81046 5.92988,-2.64237 5.92988,-2.64237z" fill="#2e006f" stroke="none" stroke-width="0" stroke-linecap="butt"/><path d="M265.14045,258.77446c0,0 0.07168,-9.02181 3.24243,-13.08709c4.01381,-5.14623 14.52237,-12.74049 14.52237,-12.74049" fill="none" stroke="#000000" stroke-width="1" stroke-linecap="round"/><path d="M301.67341,254.91967c0,0 -2.97458,6.50244 -5.64362,9.87112c-2.69447,3.40088 -11.01444,8.39397 -11.01444,8.39397" fill="none" stroke="#000000" stroke-width="1" stroke-linecap="round"/><path d="M254.19548,259.52533c0,0 -0.06476,-9.26187 3.57014,-13.50879c5.57765,-6.51675 14.68405,-13.69792 14.68405,-13.69792" fill="none" stroke="#000000" stroke-width="1" stroke-linecap="round"/><path d="M253.27831,244.26894c0,0 15.66347,-7.35738 30.82596,1.22417c16.60858,9.39999 12.58297,26.17154 12.58297,26.17154" fill="none" stroke="#000000" stroke-width="1" stroke-linecap="round"/><path d="M250.00871,253.21405c0,0 17.1372,-4.81445 30.53315,2.7293c10.99929,6.19411 8.92992,20.63838 8.92992,20.63838" fill="none" stroke="#000000" stroke-width="1" stroke-linecap="round"/><path d="M292.55531,243.17355c-0.86614,-0.83486 -1.03247,-2.06748 -0.37156,-2.75314c0.66088,-0.68573 1.24995,-0.15002 2.11609,0.68484c0.86614,0.83486 1.68132,1.6527 1.02041,2.33838c-0.66088,0.68573 -1.89884,0.56477 -2.76492,-0.27009z" fill="#8fbbbe" stroke="none" stroke-width="0" stroke-linecap="butt"/><path d="M297.05413,248.88491c-0.58742,-0.12929 -0.90643,-0.94837 -0.71251,-1.82951c0.19391,-0.88114 0.39474,-1.21413 0.98216,-1.08487c0.58742,0.12929 1.08372,0.98739 0.88977,1.86852c-0.19391,0.88114 -0.57204,1.17512 -1.15945,1.04583z" fill="#8fbbbe" stroke="none" stroke-width="0" stroke-linecap="butt"/><path d="M287.52964,238.4189c-0.85549,-0.28673 -1.394,-0.98141 -1.20288,-1.55172c0.19107,-0.57028 0.92251,-0.26841 1.77798,0.01828c0.85549,0.28673 1.51104,0.44959 1.31994,1.01989c-0.19107,0.57028 -1.03957,0.80023 -1.89502,0.51352z" fill="#8fbbbe" stroke="none" stroke-width="0" stroke-linecap="butt"/><path d="M263.83386,235.99817c0,0 10.165,-1.16297 17.47853,0.81995c4.1464,1.12424 7.41277,3.54648 9.86857,5.41064c2.17182,1.64855 5.4325,7.35764 7.47353,11.98716c1.50271,3.40846 2.16407,6.27718 2.16407,6.27718" fill="none" stroke="#000000" stroke-width="0.5" stroke-linecap="round"/><path d="M297.66807,241.02819c0,0 -2.6677,10.23041 -5.84948,14.60002c-2.68071,3.68151 -11.64226,9.98663 -11.64226,9.98663" fill="none" stroke="#000000" stroke-width="1" stroke-linecap="round"/><path d="M275.03207,262.80998c0,0 2.54316,-9.32526 4.79391,-13.24762c3.9519,-6.88691 12.61631,-12.65793 12.61631,-12.65793" fill="none" stroke="#000000" stroke-width="1" stroke-linecap="round"/></g><g stroke="#000000" stroke-linecap="butt"><path d="M247.01055,257.69356c28.85356,16.69703 29.92044,26.28435 25.86776,33.28765c-4.05268,7.0033 -30.72847,-0.85503 -59.58203,-17.55207c-28.85356,-16.69703 39.60984,-39.68079 43.66251,-46.68408c6.3361,-3.19094 7.14516,3.2854 3.51084,10.25303c-4.48197,8.59271 -15.92538,19.26827 -13.4591,20.69547z" fill="#0d69be" stroke-width="2"/><path d="M274.74171,259.77517c12.38468,7.16679 16.46511,23.27475 9.11388,35.97815c-7.35122,12.70341 -23.35034,17.19172 -35.73503,10.02494c-12.38468,-7.16679 -16.4651,-23.27477 -9.11387,-35.97817c7.35122,-12.70341 23.35034,-17.19172 35.73502,-10.02493z" fill="#faddbf" stroke-width="2"/><path d="M244.73813,288.32395c12.38468,7.16679 45.92442,-6.0454 38.57319,6.658c-7.35122,12.70341 -23.35034,17.19172 -35.73502,10.02493c-12.38468,-7.16679 -15.22285,-23.84972 -2.83817,-16.68292z" fill="#ef8b89" stroke-width="0"/></g></g><g stroke-linecap="butt"><g data-paper-data="{&quot;index&quot;:null}"><g stroke="#000000"><g><path d="M236.3895,222.90375c-46.70168,-2.8864 -82.22098,-43.08549 -79.33457,-89.78716c2.8864,-46.70168 43.08549,-82.22098 89.78716,-79.33456c46.70168,2.8864 82.22097,43.08549 79.33456,89.78716c-2.8864,46.70168 -43.08549,82.22098 -89.78716,79.33457z" fill="#faddbf" stroke-width="2"/><path d="M325.99996,142.6871c-2.8864,46.70168 -43.08549,82.22097 -89.78716,79.33456c-6.05136,-0.374 -18.33676,-3.0971 -20.65507,-4.0509c-1.44927,-0.59627 27.55258,-5.18961 48.61341,-17.21982c11.30104,-6.45531 18.40358,-20.45473 21.57614,-25.01016c1.64247,-0.33823 7.2502,-19.6704 7.25686,-19.73041c2.79663,-25.16534 -18.80795,-88.90336 -10.6958,-90.97791c0.62176,-0.15901 12.14624,7.37447 20.96094,16.28338c7.09186,7.16766 11.8263,16.01979 12.31762,16.41793c4.30218,3.4862 11.34175,29.9277 10.4131,44.95332z" fill="#ef8b89" stroke-width="0"/><path d="M157.60564,132.69155c2.25407,-36.47056 46.51286,-44.98264 85.15994,-21.95435c40.37556,24.05823 85.32816,-1.54418 83.07409,34.92638c-1.12097,18.13722 -8.94879,9.63379 -22.02872,-3.83809c-2.70903,-2.79021 -13.52389,9.48695 -16.67058,6.46303c-4.0109,-3.85439 -7.51655,-9.39091 -11.0488,-15.12772c-2.84427,-4.61946 -14.45477,11.65018 -17.61118,7.54466c-4.85734,-6.3179 -4.6244,-13.32766 -11.89039,-13.77674c-2.73217,-0.16886 -10.79123,11.09652 -13.52609,11.25548c-2.12067,0.12327 -8.57071,-12.5108 -10.6548,-12.27657c-3.78466,0.42536 -12.89873,10.13122 -16.45194,11.0377c-1.42467,0.36346 -11.96966,-9.1554 -13.33428,-8.76618c-1.95173,0.55669 -9.45754,9.51486 -11.21511,10.17912c-2.79818,1.05754 -10.38367,-6.87331 -12.59782,-5.83615c-9.13732,4.28012 -9.25038,12.21277 -9.92903,14.06353c-0.66523,1.81414 -1.99233,-2.29191 -1.27525,-13.89411z" fill="#ef8b89" stroke-width="0"/></g><path d="M156.58734,124.30187c2.25407,-36.47056 46.2167,-75.9813 92.05606,-73.14818c45.83937,2.83311 82.86763,49.9238 80.61356,86.39436c-1.12097,18.13722 -9.16799,9.62024 -22.613,-3.87421c-2.78463,-2.79489 -13.86337,9.46597 -17.09754,6.43665c-4.12239,-3.86129 -7.72902,-9.40405 -11.36326,-15.14716c-2.92639,-4.62453 -14.81517,11.6279 -18.06108,7.51685c-4.99504,-6.3264 -4.76736,-13.3365 -12.22474,-13.79741c-2.80414,-0.17331 -11.0564,11.08012 -13.86277,11.23467c-2.17612,0.11984 -8.8159,-12.52595 -10.9543,-12.29507c-3.88328,0.41926 -13.22077,10.11132 -16.86573,11.01213c-1.46146,0.36118 -12.29859,-9.17574 -13.69839,-8.78868c-2.00205,0.55358 -9.69028,9.50047 -11.49289,10.16196c-2.86989,1.05311 -10.66728,-6.89084 -12.93786,-5.85717c-18.5549,8.44705 -12.94665,23.58988 -11.49802,0.15126z" fill="#873412" stroke-width="2"/><path d="M156.90636,123.15658c2.25407,-36.47056 47.66044,-44.91172 87.35898,-21.81843c41.47406,24.12612 87.56471,-1.40595 85.31064,35.06461c-1.12097,18.13722 -9.16799,9.62023 -22.613,-3.87421c-2.78463,-2.79489 -13.86337,9.46597 -17.09754,6.43665c-4.1224,-3.86129 -7.72903,-9.40405 -11.36327,-15.14716c-2.92639,-4.62453 -14.81517,11.6279 -18.06108,7.51686c-4.99504,-6.3264 -4.76736,-13.3365 -12.22474,-13.79741c-2.80414,-0.17331 -11.0564,11.08012 -13.86277,11.23467c-2.17612,0.11984 -8.8159,-12.52595 -10.9543,-12.29508c-3.88328,0.41926 -13.22077,10.11133 -16.86573,11.01213c-1.46146,0.36118 -12.29859,-9.17574 -13.69839,-8.78868c-2.00206,0.55357 -9.69029,9.50048 -11.4929,10.16196c-2.86989,1.05311 -10.66728,-6.89084 -12.93786,-5.85717c-18.5549,8.44705 -12.94665,23.58989 -11.49802,0.15127z" fill="#741d23" stroke-width="0"/></g><path d="M245.63041,61.36796c0.06036,-0.09332 0.13113,-0.17491 0.21024,-0.24714c0.49279,-0.57242 1.23818,-0.91573 2.05021,-0.86554c0.91582,0.0566 1.6859,0.59945 2.0745,1.36172c1.18248,0.7762 0.12815,2.82883 0.0839,4.24263c-0.12545,4.008 3.02077,9.65901 -1.47341,11.87123c-0.40607,0.19988 -0.96437,-0.67831 -1.33284,-0.65458c-3.81849,0.24599 -3.03994,-0.9203 -4.12001,-4.00023c-0.22185,-0.63262 -1.33897,0.31516 -2.0005,0.20661c-1.63121,-0.26769 -1.90516,-3.70784 -2.01137,-3.01152c-0.23196,1.52075 -0.06866,2.69758 -1.70395,3.50253c-0.66884,0.32922 -1.90489,-1.0437 -2.2069,-0.36214c-0.65442,1.47684 -0.07402,4.07875 -2.74132,3.82736c-0.77147,-0.07271 -1.80518,-0.76237 -2.1232,-1.46405c-0.41406,-0.91354 -1.35762,-3.65539 -1.41749,-2.65418c-0.09695,1.62125 1.93808,3.57944 0.65147,5.27285c-2.366,3.11407 -5.69524,-0.46633 -6.334,-0.57744c-0.17998,-0.03131 0.6396,1.60855 0.68043,1.86662c0.11363,0.71806 -0.36572,1.79832 -0.81159,2.38515c-0.3657,0.48135 -8.89278,0.48466 -9.73107,0.38594c-0.94887,-0.11175 -1.08253,-2.38743 -1.98341,-2.06923c-1.01966,0.36017 -2.18412,1.01128 -3.18697,0.60667c-0.41686,-0.16819 -1.78566,-3.34247 -2.18453,-3.11026c-0.16426,0.09562 1.37545,2.20688 1.11625,2.8294c-0.44654,1.07244 -1.93299,2.93313 -3.09229,3.09407c-3.92767,0.54532 -3.44148,-2.82029 -5.0824,-2.79845c-0.7336,0.00976 -1.14296,1.07757 -1.8723,1.15709c-0.54172,0.05907 -1.58932,-0.92534 -1.58988,-0.38042c-0.00123,1.17878 -0.80916,3.42167 -2.19518,3.92199c-1.08192,0.39056 -2.36946,-1.66089 -3.30514,-0.99187c-2.69687,1.92829 -4.8464,-0.59825 -5.51321,-3.39921c-0.61428,-2.5803 2.15107,-3.13613 3.89959,-3.2436c0.74179,-0.04559 -0.32838,-1.51203 -0.12271,-2.22621c0.39133,-1.35892 1.70335,-2.02313 3.02206,-1.93841c1.58787,0.10201 2.48109,0.87568 3.92962,1.52882c0.22147,0.09985 1.63439,-0.81552 1.88201,-0.88138c0.63871,-0.16993 2.09049,1.12372 1.9227,0.48444c-1.32578,-5.05152 3.66513,-6.19458 7.35417,-3.70778c0.72254,0.48707 1.53494,-0.89846 2.39238,-1.0537c0.42747,-0.0774 2.19414,0.7555 3.08787,0.82597c0.89574,0.07064 1.83267,1.64087 2.49118,1.02956c1.17152,-1.08753 1.67478,-5.04321 1.89842,-5.18252c1.29664,-0.80769 2.06582,-1.46231 3.47634,-0.64429c1.01985,0.59146 1.93072,2.79164 2.86552,2.07323c0.53321,-0.40979 0.45237,-2.02958 1.40686,-2.49943c1.81148,-0.89168 4.25802,0.62362 5.67733,1.35764c0.3189,0.16494 0.67837,0.9485 0.86502,0.64178c0.5833,-0.95849 -0.04018,-2.33317 1.04081,-3.18639c0.62736,-0.49518 3.17225,-0.14335 3.22318,-0.19787c0.60582,-0.6486 0.45376,-2.01367 1.39744,-2.49395c2.84945,-1.45022 4.27319,1.50339 5.96008,3.22938c0.27796,0.28441 0.71752,-0.39645 1.11403,-0.427c0.6473,-0.04988 1.6903,1.41108 1.78925,0.76944c0.0753,-0.48839 0.00689,-1.87227 0.18551,-2.99972c0.02077,-0.29031 0.09044,-0.56569 0.20045,-0.81854c0.05308,-0.14385 0.11488,-0.27374 0.18693,-0.38514z" fill="#ba587e" stroke="none" stroke-width="0.5"/></g><g data-paper-data="{&quot;index&quot;:null}" stroke="#000000"><path d="M261.49132,114.07289c16.53698,1.02207 28.5147,24.95812 26.75298,53.46267c-1.76173,28.50455 -16.33896,42.36224 -32.87594,41.34017c-16.53698,-1.02208 -28.77152,-16.53687 -27.00978,-45.04142c1.76173,-28.50455 16.59578,-50.78349 33.13275,-49.76142z" fill="#f0f0f0" stroke-width="2"/><path d="M287.66071,166.66765c-1.76173,28.50455 -16.33896,42.36224 -32.87594,41.34017c-16.53698,-1.02208 24.00125,-32.38974 21.44848,-60.83436c-3.69056,-41.12251 13.18919,-9.01035 11.42747,19.49419z" fill="#9a99ff" stroke-width="0"/></g><path d="M277.08068,145.28721c5.77305,0.3568 9.66179,13.44806 8.68576,29.24014c-0.97603,15.79208 -6.44724,28.30484 -12.22029,27.94804c-5.77305,-0.3568 -9.66179,-13.44807 -8.68576,-29.24014c0.97603,-15.79208 6.44724,-28.30484 12.22029,-27.94804z" data-paper-data="{&quot;index&quot;:null}" fill="#000000" stroke="none" stroke-width="0"/><g data-paper-data="{&quot;index&quot;:null}" stroke="#000000"><path d="M235.2111,134.16583c4.84323,-9.46841 11.34349,-20.89409 27.02383,-19.92497c15.68034,0.96913 17.38415,13.36804 21.13587,22.7661c3.94301,9.87727 -30.91413,49.61816 -46.59447,48.64904c-15.68034,-0.96913 -6.64725,-41.55492 -1.56523,-51.49016z" fill="#a100fe" stroke-width="2"/><path d="M236.15546,133.86928c4.69859,-9.47734 9.62142,1.42312 24.7671,2.35921c15.14568,0.93608 18.14622,-9.00853 21.75077,0.38045c3.78835,9.86771 -30.62483,48.76481 -45.77052,47.82874c-15.14568,-0.93609 -5.6776,-40.62376 -0.74736,-50.56838z" fill="#99008e" stroke-width="0"/></g><g data-paper-data="{&quot;index&quot;:null}" stroke="#000000"><path d="M224.96038,165.77289c-1.76173,28.50456 -15.81364,42.39471 -32.35063,41.37264c-16.53699,-1.02208 -29.29684,-16.56934 -27.5351,-45.07389c1.76173,-28.50455 16.59577,-50.78349 33.13275,-49.76142c16.53699,1.02207 28.51471,24.95812 26.75298,53.46267z" fill="#f0f0f0" stroke-width="2"/><path d="M179.50168,143.34354c-6.03602,27.91378 30.33109,64.03461 13.7941,63.01253c-16.53699,-1.02208 -29.29684,-16.56935 -27.5351,-45.07389c1.76173,-28.50455 22.4673,-58.29372 13.741,-17.93864z" fill="#9a99ff" stroke-width="0"/></g><path d="M218.19929,175.49245c-0.97603,15.79208 -6.44724,28.30484 -12.22028,27.94804c-5.77305,-0.3568 -9.66179,-13.44806 -8.68577,-29.24014c0.97603,-15.79208 6.44724,-28.30484 12.22029,-27.94804c5.77305,0.3568 9.66179,13.44806 8.68576,29.24014z" data-paper-data="{&quot;index&quot;:null}" fill="#000000" stroke="none" stroke-width="0"/><g data-paper-data="{&quot;index&quot;:null}" stroke="#000000"><path d="M221.81337,135.48637c3.81991,10.48542 7.31012,52.85505 -8.37022,51.88592c-15.68034,-0.96913 -44.9021,-45.68025 -39.77281,-54.99681c4.88045,-8.86455 8.09808,-20.95928 23.77843,-19.99015c15.68034,0.96913 20.72418,13.10829 24.3646,23.10104z" fill="#a100fe" stroke-width="2"/><path d="M220.91272,135.07579c3.66814,10.47604 7.9868,52.28966 -7.15888,51.35357c-15.14568,-0.93609 -44.31694,-45.03688 -39.34232,-54.36298c4.73328,-8.87365 6.4864,1.36476 21.63208,2.30084c15.14568,0.93608 21.37332,-9.27523 24.86911,0.70856z" fill="#99008e" stroke-width="0"/></g><path d="M311.03826,178.02435c-0.06987,5.61764 -7.19663,12.32524 -12.48102,12.25952c-5.28438,-0.06572 -0.68271,-7.49445 -0.61284,-13.11209c0.06987,-5.61764 -1.63225,-9.50379 3.65214,-9.43807c5.28438,0.06572 9.51159,4.67299 9.44172,10.29062z" fill="#000000" stroke="none" stroke-width="0"/></g></g></g></svg>