<svg version="1.1" xmlns="http://www.w3.org/2000/svg" xmlns:xlink="http://www.w3.org/1999/xlink" width="185.04884" height="328.78348" viewBox="0,0,185.04884,328.78348"><g transform="translate(-213.62933,-32.2039)"><g data-paper-data="{&quot;isPaintingLayer&quot;:true}" fill-rule="nonzero" stroke-linejoin="miter" stroke-miterlimit="10" stroke-dasharray="" stroke-dashoffset="0" style="mix-blend-mode: normal"><g stroke="#000000" stroke-linecap="butt"><path d="M325.90655,239.71365c-14.1096,30.24441 -31.53615,52.00352 -38.92331,48.60031c-7.38715,-3.40321 -1.93753,-30.68 12.17207,-60.92442c14.1096,-30.24441 31.53615,-52.00352 38.92331,-48.60031c7.38715,3.40321 1.93753,30.68001 -12.17209,60.92443z" fill="#0d69be" stroke-width="2"/><path d="M318.42692,287.34966c-6.05619,12.98167 -21.8283,18.50106 -35.228,12.32792c-13.39968,-6.17314 -19.35276,-21.70119 -13.29656,-34.68286c6.0562,-12.98167 21.82831,-18.50106 35.228,-12.32792c13.39969,6.17314 19.35276,21.70119 13.29656,34.68285z" fill="#faddbf" stroke-width="2"/><path d="M287.08724,260.04877c-6.0562,12.98167 10.23496,45.19018 -3.16473,39.01704c-13.39968,-6.17314 -19.35276,-21.70118 -13.29656,-34.68285c6.0562,-12.98167 22.51749,-17.31587 16.46129,-4.3342z" fill="#ef8b89" stroke-width="0"/></g><g stroke="#000000" stroke-linecap="butt"><path d="M308.35221,340.83533v-95.29492h29.67788v95.29492z" fill="#73fffc" stroke-width="2"/><path d="M308.02442,340.21739l1.33461,-93.78573c0,0 5.23568,68.11227 6.42012,77.52842c0.26184,2.08162 2.53818,2.78987 2.53818,2.78987l18.72387,13.13896z" fill="#59a9e6" stroke-width="0"/></g><g stroke="#000000" stroke-linecap="butt"><path d="M268.76286,338.4128v-95.29492h29.67788v95.29492z" fill="#73fffc" stroke-width="2"/><path d="M268.43507,337.79487l1.33461,-93.78573c0,0 5.23568,68.11227 6.42012,77.52842c0.26184,2.08162 2.53818,2.78987 2.53818,2.78987l18.72387,13.13896z" fill="#59a9e6" stroke-width="0"/></g><g stroke="#000000" stroke-linecap="butt"><path d="M335.98932,235.69585c0,13.80271 10.11076,36.74388 4.98122,46.45977c-6.2731,11.88187 -28.79276,9.09579 -39.18514,9.09579c-13.74898,0 -33.15172,4.17018 -38.58595,-14.83216c-2.03208,-7.10576 4.38202,-32.37264 4.38202,-40.7234c0,-30.68249 15.31362,-55.55556 34.20393,-55.55556c18.89031,0 34.20393,24.87307 34.20393,55.55556z" fill="#0d69be" stroke-width="2"/><path d="M284.40257,251.27245c0,13.80271 62.43304,20.54886 57.30347,30.26474c-6.2731,11.88186 -28.79276,9.09579 -39.18514,9.09579c-13.74898,0 -33.15171,4.17018 -38.58594,-14.83215c-2.03209,-7.10576 4.38202,-32.37265 4.38202,-40.7234c0,-9.45244 3.36966,-28.59801 5.55432,-29.96813c5.98138,-16.76415 10.53126,25.13995 10.53126,46.16315z" fill="#10157d" stroke-width="0"/></g><path d="M372.62595,338.87001c0,11.6628 -14.61134,21.11737 -32.63533,21.11737c-18.02399,0 -32.63533,-9.45457 -32.63533,-21.11737c0,-2.33142 -0.03361,-13.76009 1.09666,-15.13837c4.5238,-5.51647 17.93015,5.26144 32.35111,5.26144c18.02399,0 31.82291,-1.78588 31.82291,9.87692z" fill="#000082" stroke="#000000" stroke-width="2" stroke-linecap="butt"/><path d="M370.72777,336.13771c0,6.30841 -13.97813,10.1901 -32.00214,10.1901c-18.02399,0 -30.3558,-2.95748 -30.3558,-9.26589c0,-1.26107 -0.03359,-12.52602 1.09667,-13.27153c4.5238,-2.98386 15.65061,5.7726 30.07157,5.7726c18.02399,0 31.1897,0.26631 31.1897,6.57472z" fill="#2e0048" stroke="#000000" stroke-width="0" stroke-linecap="butt"/><path d="M329.36805,338.2252c0,11.6628 -14.61134,21.11737 -32.63533,21.11737c-18.02399,0 -32.63533,-9.45457 -32.63533,-21.11737c0,-2.33142 -0.03361,-13.76009 1.09666,-15.13837c4.5238,-5.51647 17.93015,5.26144 32.35111,5.26144c18.02399,0 31.82291,-1.78588 31.82291,9.87692z" fill="#000082" stroke="#000000" stroke-width="2" stroke-linecap="butt"/><path d="M327.46988,335.49289c0,6.30841 -13.97813,10.1901 -32.00214,10.1901c-18.02399,0 -30.3558,-2.95748 -30.3558,-9.26589c0,-1.26107 -0.03359,-12.52602 1.09667,-13.27153c4.5238,-2.98386 15.65061,5.7726 30.07157,5.7726c18.02399,0 31.1897,0.26631 31.1897,6.57472z" fill="#2e0048" stroke="#000000" stroke-width="0" stroke-linecap="butt"/><g><g><path d="M307.08871,251.66666c-14.58388,4.194 -25.22401,-0.64453 -30.07088,-14.7835c-3.79082,-11.05822 4.7416,-27.06231 19.32548,-31.25632c14.58393,-4.19407 27.90544,2.12399 32.08388,16.47208c0.65344,2.24376 0.58634,4.50723 0.54453,6.57511c-0.22575,11.15528 -9.57972,19.45448 -21.88296,22.99262z" fill="#485e84" stroke="#000000" stroke-width="2" stroke-linecap="butt"/><path d="M285.39526,214.06616c0,0 1.17891,5.63547 3.0652,6.34233c18.09387,6.78045 31.92237,3.88589 36.42258,2.58168c1.02245,-0.29632 1.30952,-1.38233 1.30952,-1.38233c0,0 0.80263,1.95753 0.97769,4.69317c0.18629,2.91095 -0.2916,6.68963 -1.60931,9.47c-1.50523,3.17596 -6.91471,9.54864 -6.91471,9.54864l-19.08832,8.89073c0,0 -12.375,-5.45228 -13.94173,-6.95986c-1.53492,-1.47692 -2.92492,-3.66204 -4.49691,-5.92625c-2.44074,-3.51551 -3.56745,-7.91474 -3.46348,-10.79295c0.13274,-3.67325 1.80256,-8.03197 3.7689,-11.30981c1.83003,-3.05065 3.97067,-5.15522 3.97067,-5.15522z" fill="#343545" stroke="none" stroke-width="0" stroke-linecap="butt"/><path d="M294.48021,236.77436c0,0 -4.2758,-7.9589 -3.42836,-13.04523c1.07275,-6.4388 6.70895,-18.13205 6.70895,-18.13205" fill="none" stroke="#000000" stroke-width="1" stroke-linecap="round"/><path d="M324.91853,215.92741c0,0 0.49814,7.13335 -0.24087,11.36803c-0.746,4.27511 -5.69872,12.63751 -5.69872,12.63751" fill="none" stroke="#000000" stroke-width="1" stroke-linecap="round"/><path d="M285.16686,242.66506c0,0 -4.51186,-8.10455 -3.3415,-13.57229c1.79591,-8.39008 6.39136,-19.05034 6.39136,-19.05034" fill="none" stroke="#000000" stroke-width="1" stroke-linecap="round"/><path d="M277.01839,229.70244c0,0 10.30669,-13.949 27.83656,-13.658c19.20176,0.31873 23.70994,16.97468 23.70994,16.97468" fill="none" stroke="#000000" stroke-width="1" stroke-linecap="round"/><path d="M278.43057,239.12238c0,0 12.83239,-12.41968 28.30165,-12.19596c12.70166,0.18371 17.81966,13.8604 17.81966,13.8604" fill="none" stroke="#000000" stroke-width="1" stroke-linecap="round"/><path d="M311.20936,209.96775c-1.16715,-0.31935 -1.90699,-1.32257 -1.65259,-2.24072c0.25436,-0.91821 1.0327,-0.72918 2.19984,-0.40983c1.16715,0.31935 2.28105,0.64812 2.02665,1.56629c-0.25436,0.91821 -1.4068,1.40365 -2.57389,1.08426z" fill="#8fbbbe" stroke="none" stroke-width="0" stroke-linecap="butt"/><path d="M317.93294,212.83433c-0.58141,0.16719 -1.25734,-0.39982 -1.50974,-1.26647c-0.25239,-0.86666 -0.23503,-1.25514 0.34638,-1.42236c0.58141,-0.16719 1.43281,0.34935 1.68518,1.21601c0.25239,0.86666 0.05955,1.30562 -0.52186,1.47281z" fill="#8fbbbe" stroke="none" stroke-width="0" stroke-linecap="butt"/><path d="M304.48025,208.19338c-0.89408,0.15702 -1.7042,-0.1958 -1.80957,-0.78809c-0.10539,-0.59226 0.68634,-0.67668 1.58038,-0.83374c0.89408,-0.15702 1.55188,-0.32729 1.65725,0.26499c0.10539,0.59226 -0.53402,1.19976 -1.42807,1.35679z" fill="#8fbbbe" stroke="none" stroke-width="0" stroke-linecap="butt"/><path d="M282.37073,217.39246c0,0 8.42573,-5.8799 15.84405,-7.63365c4.20581,-0.99427 8.25804,-0.42777 11.32538,0.03594c2.71261,0.41004 8.34067,3.86638 12.37141,6.95738c2.96764,2.27571 4.93196,4.47946 4.93196,4.47946" fill="none" stroke="#000000" stroke-width="0.5" stroke-linecap="round"/><path d="M314.69682,205.63964c0,0 2.56241,10.26128 1.85158,15.62022c-0.59886,4.51503 -5.48765,14.33657 -5.48765,14.33657" fill="none" stroke="#000000" stroke-width="1" stroke-linecap="round"/><path d="M305.16458,235.59139c0,0 -2.23715,-9.4067 -2.13417,-13.92779c0.18082,-7.93817 5.06385,-17.14853 5.06385,-17.14853" fill="none" stroke="#000000" stroke-width="1" stroke-linecap="round"/></g><g stroke="#000000" stroke-linecap="butt"><path d="M277.9349,244.4901c33.53498,0.87585 39.0892,8.78732 38.87527,16.87589c-0.21393,8.08859 -27.57285,13.93565 -61.10783,13.05981c-33.53498,-0.87585 15.92705,-53.78664 16.14096,-61.87521c4.06589,-5.83123 7.89593,-0.52917 8.03464,7.32811c0.17107,9.68989 -4.80948,24.53654 -1.94305,24.61141z" fill="#0d69be" stroke-width="2"/><path d="M303.44833,233.06445c14.39408,0.37593 25.74821,12.57472 25.36014,27.24673c-0.38805,14.67204 -12.37131,26.2613 -26.76539,25.88536c-14.39406,-0.37593 -25.7482,-12.57472 -25.36014,-27.24675c0.38805,-14.67204 12.37131,-26.26129 26.76538,-25.88536z" fill="#faddbf" stroke-width="2"/><path d="M290.65835,272.48154c14.39406,0.37593 37.68603,-27.25982 37.29798,-12.58779c-0.38805,14.67204 -12.37131,26.2613 -26.76538,25.88536c-14.39408,-0.37593 -24.92669,-13.67349 -10.53261,-13.29754z" fill="#ef8b89" stroke-width="0"/></g></g><g stroke-linecap="butt"><g data-paper-data="{&quot;index&quot;:null}"><g stroke="#000000"><g><path d="M309.70189,205.38278c-47.08572,0 -85.25624,-37.93143 -85.25624,-84.72222c0,-46.79079 38.17051,-84.72222 85.25624,-84.72222c47.08572,0 85.25624,37.93143 85.25624,84.72222c0,46.79079 -38.17051,84.72222 -85.25624,84.72222z" fill="#faddbf" stroke-width="2"/><path d="M394.72589,119.79106c0,46.79079 -38.17051,84.72222 -85.25624,84.72222c-6.10113,0 -18.60945,-1.96005 -20.99714,-2.76903c-1.49264,-0.50573 27.35129,-6.87938 47.75771,-20.18586c10.9499,-7.14014 17.21455,-21.55104 20.11825,-26.29351c1.62869,-0.43891 6.06095,-20.08018 6.06391,-20.14049c1.24672,-25.28993 -24.40924,-87.57384 -16.39029,-90.14485c0.61462,-0.19706 12.6573,6.61116 22.0637,14.95935c7.56791,6.71653 12.87262,15.25975 13.39081,15.62682c4.53746,3.21417 13.24931,29.17106 13.24931,44.22534z" fill="#ef8b89" stroke-width="0"/><path d="M224.97239,120.20237c0,-36.54015 43.92454,-47.76623 84.17066,-27.16584c42.04612,21.52174 85.60661,-6.80492 85.60661,29.73523c0,18.17183 -8.39001,10.16746 -22.36361,-2.47189c-2.89411,-2.61778 -12.99431,10.30314 -16.34252,7.47909c-4.26776,-3.59963 -8.13248,-8.90935 -12.03634,-14.41734c-3.1435,-4.4352 -13.79497,12.51967 -17.22009,8.61668c-5.27083,-6.00622 -5.47202,-13.01701 -12.79776,-13.01701c-2.75464,0 -10.14974,11.74106 -12.88672,12.06843c-2.12232,0.25385 -9.38492,-11.95827 -11.46362,-11.59592c-3.77486,0.65801 -12.32641,10.90762 -15.83893,12.03156c-1.40837,0.45065 -12.5905,-8.39959 -13.93694,-7.92692c-1.92574,0.67603 -8.90838,10.08015 -10.63242,10.85157c-2.74481,1.22814 -10.85589,-6.21968 -13.01538,-5.04791c-8.91172,4.83563 -8.53283,12.76015 -9.09958,14.64925c-0.55553,1.85172 -2.14335,-2.16465 -2.14335,-13.78899z" fill="#ef8b89" stroke-width="0"/></g><path d="M223.42883,111.89148c0,-36.54015 41.7028,-78.68758 87.91911,-78.68758c46.21632,0 86.33022,44.71682 86.33022,81.25697c0,18.17183 -8.61102,10.16746 -22.95269,-2.47189c-2.97035,-2.61778 -13.33658,10.30314 -16.77298,7.47909c-4.38016,-3.59963 -8.34669,-8.90935 -12.35338,-14.41734c-3.22631,-4.4352 -14.15834,12.51967 -17.67369,8.61668c-5.40968,-6.00622 -5.61615,-13.01701 -13.13486,-13.01701c-2.82719,0 -10.41709,11.74106 -13.22617,12.06843c-2.17822,0.25385 -9.63213,-11.95827 -11.76559,-11.59592c-3.87429,0.65801 -12.65109,10.90762 -16.25614,12.03156c-1.44545,0.45065 -12.92214,-8.39959 -14.30406,-7.92692c-1.97647,0.67603 -9.14302,10.08015 -10.91249,10.85157c-2.81711,1.22814 -11.14184,-6.21968 -13.35821,-5.04791c-18.11194,9.57557 -11.53907,24.3436 -11.53907,0.86026z" fill="#873412" stroke-width="2"/><path d="M223.67815,110.72869c0,-36.54015 45.08154,-47.76623 86.38778,-27.16584c43.15365,21.52174 87.86154,-6.80492 87.86154,29.73523c0,18.17183 -8.61102,10.16746 -22.95269,-2.47189c-2.97035,-2.61778 -13.33658,10.30314 -16.77298,7.47909c-4.38017,-3.59963 -8.3467,-8.90935 -12.35339,-14.41734c-3.22631,-4.4352 -14.15834,12.51967 -17.67369,8.61668c-5.40968,-6.00622 -5.61615,-13.01701 -13.13486,-13.01701c-2.82719,0 -10.41709,11.74106 -13.22617,12.06843c-2.17822,0.25385 -9.63213,-11.95827 -11.76559,-11.59592c-3.87429,0.65801 -12.65109,10.90762 -16.25614,12.03156c-1.44545,0.45065 -12.92214,-8.39959 -14.30406,-7.92692c-1.97648,0.67603 -9.14303,10.08015 -10.9125,10.85157c-2.81711,1.22814 -11.14184,-6.21968 -13.35821,-5.04791c-18.11194,9.57557 -11.53907,24.3436 -11.53907,0.86026z" fill="#741d23" stroke-width="0"/></g><path d="M308.9558,43.58458c0.05483,-0.09686 0.12084,-0.18267 0.19581,-0.25964c0.4594,-0.60173 1.18677,-0.99036 2.00547,-0.99036c0.92335,0 1.7305,0.49431 2.16812,1.23116c1.23585,0.70178 0.30432,2.81554 0.34764,4.22937c0.1228,4.0081 3.63362,9.45428 -0.74295,11.93952c-0.39544,0.22455 -1.0107,-0.61753 -1.37931,-0.57111c-3.81998,0.48107 -3.11041,-0.73102 -4.3864,-3.73846c-0.26209,-0.61773 -1.32528,0.39716 -1.99646,0.32962c-1.65498,-0.16655 -2.14368,-3.58326 -2.20713,-2.88171c-0.13858,1.53217 0.09849,2.69668 -1.49401,3.60097c-0.65133,0.36985 -1.97803,-0.9242 -2.23905,-0.22532c-0.56561,1.51439 0.17885,4.07556 -2.51576,3.98918c-0.77936,-0.02498 -1.86042,-0.64956 -2.22339,-1.33028c-0.47258,-0.88626 -1.59048,-3.56468 -1.58847,-2.56169c0.00326,1.62414 2.16878,3.45307 0.98163,5.22262c-2.18307,3.25409 -5.74917,-0.11412 -6.39763,-0.18561c-0.18272,-0.02015 0.74225,1.56603 0.79929,1.82108c0.1587,0.70968 -0.25569,1.81746 -0.66709,2.43068c-0.33743,0.50299 -8.90172,1.03231 -9.74981,0.98549c-0.95997,-0.053 -1.23548,-2.3161 -2.12057,-1.94293c-1.00177,0.42238 -2.13092,1.14408 -3.16329,0.80211c-0.42913,-0.14215 -2.00099,-3.22595 -2.38719,-2.96958c-0.15905,0.10558 1.51848,2.11782 1.29678,2.75515c-0.38192,1.09794 -1.75939,3.04678 -2.91378,3.27894c-3.91105,0.78656 -3.63166,-2.60261 -5.27841,-2.4796c-0.73622,0.055 -1.08109,1.14602 -1.80869,1.27038c-0.54043,0.09237 -1.65373,-0.82553 -1.62047,-0.28162c0.07194,1.1766 -0.6003,3.46507 -1.96135,4.04994c-1.06242,0.45655 -2.48297,-1.51155 -3.38122,-0.78609c-2.58899,2.09098 -4.9048,-0.29815 -5.7484,-3.05264c-0.77715,-2.53749 1.96584,-3.26285 3.71535,-3.47798c0.74222,-0.09126 -0.42368,-1.48889 -0.26144,-2.21439c0.30869,-1.38047 1.58523,-2.12435 2.91499,-2.12114c1.60118,0.00387 2.54633,0.72096 4.04176,1.28349c0.22863,0.086 1.59094,-0.91478 1.83555,-0.9958c0.63097,-0.20901 2.16941,0.99263 1.96122,0.36491c-1.64517,-4.96012 3.29667,-6.40887 7.15627,-4.15438c0.75594,0.44157 1.48591,-0.99144 2.33747,-1.19928c0.42453,-0.10362 2.25066,0.6187 3.15268,0.63391c0.90405,0.01525 1.94256,1.52469 2.56602,0.87393c1.10915,-1.15773 1.36906,-5.13692 1.58503,-5.28976c1.2522,-0.88613 1.9841,-1.58696 3.45159,-0.8575c1.06105,0.52742 2.11249,2.66721 3.00679,1.89251c0.51011,-0.4419 0.32835,-2.05362 1.25788,-2.58145c1.76407,-1.00173 4.31541,0.35977 5.7865,1.00484c0.33054,0.14495 0.74022,0.90484 0.90866,0.5872c0.52636,-0.99265 -0.18519,-2.32625 0.84758,-3.24453c0.59938,-0.53293 3.17726,-0.33877 3.22503,-0.39633c0.56822,-0.68473 0.33075,-2.03782 1.24876,-2.5754c2.77193,-1.62323 4.38526,1.23692 6.18669,2.85557c0.29684,0.26672 0.69605,-0.43995 1.09241,-0.49491c0.64704,-0.08972 1.78531,1.30412 1.84486,0.6576c0.04531,-0.4921 -0.10929,-1.86913 0.00011,-3.00545c0.00284,-0.29104 0.05572,-0.57019 0.15051,-0.82934c0.04439,-0.14685 0.0984,-0.28031 0.16385,-0.39594z" fill="#ba587e" stroke="none" stroke-width="0.5"/></g><g data-paper-data="{&quot;index&quot;:null}" stroke="#000000"><path d="M308.94677,101.1198c16.67298,0 30.1891,23.15159 30.1891,51.71053c0,28.55893 -13.78094,43.28947 -30.45391,43.28947c-16.67298,0 -29.92427,-14.73053 -29.92427,-43.28947c0,-28.55894 13.51612,-51.71053 30.1891,-51.71053z" fill="#f0f0f0" stroke-width="2"/><path d="M338.49584,152.00008c0,28.55893 -13.78094,43.28947 -30.45391,43.28947c-16.67298,0 22.09591,-33.80863 17.76619,-62.0416c-6.25948,-40.81653 12.68772,-9.80681 12.68772,18.75213z" fill="#9a99ff" stroke-width="0"/></g><path d="M325.14931,132.93945c5.82051,0 10.53899,12.82644 10.53899,28.64865c0,15.82221 -4.71846,28.64865 -10.53899,28.64865c-5.82051,0 -10.53899,-12.82644 -10.53899,-28.64865c0,-15.82221 4.71846,-28.64865 10.53899,-28.64865z" data-paper-data="{&quot;index&quot;:null}" fill="#000000" stroke="none" stroke-width="0"/><g data-paper-data="{&quot;index&quot;:null}" stroke="#000000"><path d="M283.79856,122.79565c4.2767,-9.74914 10.09622,-21.55405 25.90551,-21.55405c15.80929,0 18.29025,12.27019 22.64182,21.41892c4.57346,9.61522 -26.31598,33.0083 -42.12526,33.0083c-15.80929,0 -10.90964,-22.64335 -6.42208,-32.87316z" fill="#a100fe" stroke-width="2"/><path d="M284.72866,122.44141c4.13089,-9.74914 9.75196,0.8269 25.02219,0.8269c15.27023,0 17.6666,-10.11076 21.8698,-0.96203c4.41751,9.61522 -25.83951,32.53358 -41.10974,32.53358c-15.27023,0 -10.11681,-22.16863 -5.78226,-32.39844z" fill="#99008e" stroke-width="0"/></g><g data-paper-data="{&quot;index&quot;:null}" stroke="#000000"><path d="M275.00751,151.79303c0,28.55894 -13.2513,43.28947 -29.92427,43.28947c-16.67298,0 -30.45391,-14.73054 -30.45391,-43.28947c0,-28.55894 13.51612,-51.71053 30.1891,-51.71053c16.67298,0 30.1891,23.15159 30.1891,51.71053z" fill="#f0f0f0" stroke-width="2"/><path d="M227.95708,132.21063c-4.32971,28.23297 34.43917,62.0416 17.76619,62.0416c-16.67298,0 -30.45391,-14.73054 -30.45391,-43.28947c0,-28.55894 18.9472,-59.56866 12.68772,-18.75213z" fill="#9a99ff" stroke-width="0"/></g><path d="M268.67038,161.23763c0,15.82221 -4.71846,28.64865 -10.53899,28.64865c-5.82051,0 -10.53899,-12.82644 -10.53899,-28.64865c0,-15.82221 4.71846,-28.64865 10.53899,-28.64865c5.82051,0 10.53899,12.82644 10.53899,28.64865z" data-paper-data="{&quot;index&quot;:null}" fill="#000000" stroke="none" stroke-width="0"/><g data-paper-data="{&quot;index&quot;:null}" stroke="#000000"><path d="M269.96663,121.75833c4.48757,10.22981 8.19293,32.6358 -7.61636,32.6358c-15.80929,0 -45.50443,-23.15572 -40.93098,-32.77094c4.35157,-9.14873 6.83254,-21.41892 22.64182,-21.41892c15.80929,0 21.62879,11.80491 25.90551,21.55405z" fill="#a100fe" stroke-width="2"/><path d="M269.03654,121.40409c4.33455,10.22981 8.53254,31.92372 -6.73769,31.92372c-15.27023,0 -44.57182,-22.44364 -40.15431,-32.05886c4.2032,-9.14873 6.59957,0.96203 21.8698,0.96203c15.27023,0 20.89131,-10.57604 25.02219,-0.8269z" fill="#99008e" stroke-width="0"/></g><path d="M355.06657,164.40542c-0.35591,-0.28363 -0.46691,-0.72485 -0.46691,-0.72485l-0.1321,-0.54147c-0.48544,-2.89442 -0.68217,-5.63328 -0.45453,-8.56671c0.70366,-3.89132 6.04591,-7.85127 9.37889,-3.84469c1.28686,1.54694 1.67333,4.13187 1.84566,6.05138c0.57499,6.40492 0.00082,13.73597 -3.55854,19.25698c-2.20306,3.28342 -4.60332,3.4762 -8.31538,3.45878c-2.98387,-0.014 -5.76511,-1.13766 -5.14546,-4.69061c0.36082,-2.06889 1.6814,-4.59256 3.32282,-5.94145c0.90828,-0.7464 2.16561,-1.03551 2.99494,-1.86773c0.53761,-0.53949 0.56971,-1.63471 0.53059,-2.58962z" fill="#000000" stroke="none" stroke-width="0.5"/></g></g></g></svg>