<svg version="1.1" xmlns="http://www.w3.org/2000/svg" xmlns:xlink="http://www.w3.org/1999/xlink" width="234.93721" height="312.08314" viewBox="0,0,234.93721,312.08314"><g transform="translate(-186.13654,-18.49497)"><g data-paper-data="{&quot;isPaintingLayer&quot;:true}" fill-rule="nonzero" stroke-linejoin="miter" stroke-miterlimit="10" stroke-dasharray="" stroke-dashoffset="0" style="mix-blend-mode: normal"><g data-paper-data="{&quot;index&quot;:null}" stroke="#000000" stroke-linecap="butt"><path d="M364.0524,244.24939v-45.421h55.47998v45.421z" fill="#ffcaa0" stroke-width="2"/><g><path d="M363.87064,198.99877v-62.63059h56.20311v62.63059z" fill="#ff0008" stroke-width="2"/><path d="M364.67958,199.19957v-32.80405c0,0 16.81196,13.6263 26.1424,13.6263c8.84665,0 28.46617,-13.6263 28.46617,-13.6263v32.80406c0,0 -17.96131,0 -27.01381,0c-9.14933,0 -27.59476,0 -27.59476,0z" fill="#8d005e" stroke-width="0"/></g><path d="M364.91259,243.73496v-45.421l14.23308,30.78535l41.2469,14.63566z" fill="#ff6e5b" stroke-width="0"/></g><g data-paper-data="{&quot;index&quot;:null}" stroke="#000000" stroke-linecap="butt"><path d="M416.62552,85.44175c0,30.43661 -12.92865,55.11036 -28.87696,55.11036c-15.94831,0 -28.87696,-24.67375 -28.87696,-55.11036c0,-30.43661 12.92865,-55.11036 28.87696,-55.11036c15.94831,0 28.87696,24.67375 28.87696,55.11036z" fill="#01930e" stroke-width="2"/><path d="M368.85864,75.94513c0,30.43661 35.2754,64.19666 19.3271,64.19666c-15.9483,0 -28.87696,-24.67375 -28.87696,-55.11036c0,-30.43661 9.54986,-39.52291 9.54986,-9.0863z" fill="#31525b" stroke-width="0"/></g><g data-paper-data="{&quot;index&quot;:null}" stroke="#000000" stroke-linecap="butt"><path d="M299.89742,329.15814v-85.31355h66.55649v85.31355z" fill="#273750" stroke-width="2"/><path d="M300.75396,328.44313v-85.31355l20.04679,46.60731l46.50968,38.70624z" fill="#1f1e2e" stroke-width="0"/></g><path d="M243.34335,243.4559v-107.55168h123.80436v107.55168z" data-paper-data="{&quot;index&quot;:null}" fill="#ff0008" stroke="#000000" stroke-width="2" stroke-linecap="butt"/><g data-paper-data="{&quot;index&quot;:null}" stroke="#000000" stroke-linecap="butt"><path d="M242.66752,329.57811v-85.31355h66.55649v85.31355z" fill="#273750" stroke-width="2"/><path d="M243.52411,328.86306v-85.31355l20.04679,46.60731l46.50968,38.70624z" fill="#1f1e2e" stroke-width="0"/></g><g data-paper-data="{&quot;index&quot;:null}" stroke="#000000" stroke-linecap="butt"><path d="M187.3183,243.92567v-45.421h55.47998v45.421z" fill="#ffcaa0" stroke-width="2"/><g><path d="M187.13654,198.67505v-62.63059h56.20311v62.63059z" fill="#ff0008" stroke-width="2"/><path d="M187.94548,198.87586v-32.80405c0,0 16.81196,13.6263 26.1424,13.6263c8.84665,0 28.46617,-13.6263 28.46617,-13.6263v32.80406c0,0 -17.96131,0 -27.01381,0c-9.14933,0 -27.59476,0 -27.59476,0z" fill="#8d005e" stroke-width="0"/></g><path d="M188.17848,243.41124v-45.421l14.23308,30.78535l41.2469,14.63566z" fill="#ff6e5b" stroke-width="0"/></g><g data-paper-data="{&quot;index&quot;:null}" fill="#000000" stroke="#000000" stroke-linecap="butt"><path d="M272.60027,243.01245v-105.54987h66.55649v105.54987z" stroke-width="2"/><path d="M273.45687,242.12782v-105.54987l20.04679,57.66253l46.50968,47.88733z" stroke-width="0"/></g><g data-paper-data="{&quot;index&quot;:null}" stroke="#000000" stroke-linecap="butt"><path d="M223.60167,83.95867c0,-1.30087 0.96492,-25.87641 1.07606,-27.15735c2.80833,-32.3684 39.665,-34.71785 85.84018,-34.71785c43.37431,0 80.84218,4.29267 87.37196,33.86489c0.69676,3.15546 -0.45572,24.71552 -0.45572,28.01032c0,11.7768 3.25229,37.66106 -4.77029,47.03192c-15.25654,17.82056 -50.68633,14.84328 -82.14596,14.84328c-33.26287,0 -64.28151,0.92737 -78.89258,-18.61168c-6.47456,-8.65827 -8.02366,-32.77044 -8.02366,-43.26351z" fill="#ffcaa0" stroke-width="2"/><path d="M221.60716,83.96831c0,-1.30087 0.96492,-25.87641 1.07606,-27.15735c1.59557,-18.39018 7.46681,57.23062 59.4539,77.95149c40.74064,16.23829 112.46781,-7.63259 109.24234,-3.86506c-15.25654,17.82056 -51.39643,14.9461 -82.85605,14.9461c-33.26287,0 -64.28151,0.92737 -78.89258,-18.61168c-6.47456,-8.65827 -8.02366,-32.77044 -8.02366,-43.26351z" fill="#ff6e5b" stroke-width="0"/></g><g data-paper-data="{&quot;index&quot;:null}" stroke="#000000" stroke-linecap="butt"><path d="M272.94041,83.48173c0,30.43661 -12.92865,55.11036 -28.87696,55.11036c-15.94831,0 -28.87696,-24.67375 -28.87696,-55.11036c0,-30.43661 12.92865,-55.11036 28.87696,-55.11036c15.94831,0 28.87696,24.67375 28.87696,55.11036z" fill="#01930e" stroke-width="2"/><path d="M225.17352,73.98511c0,30.43661 35.2754,64.19666 19.3271,64.19666c-15.9483,0 -28.87696,-24.67375 -28.87696,-55.11036c0,-30.43661 9.54986,-39.52291 9.54986,-9.0863z" fill="#31525b" stroke-width="0"/></g><g data-paper-data="{&quot;index&quot;:null}" stroke-linecap="butt"><path d="M415.27883,48.71677c0,16.69105 -44.9958,30.22182 -100.50093,30.22182c-55.50513,0 -100.50092,-13.53078 -100.50092,-30.22182c0,-16.69105 44.99579,-30.22181 100.50092,-30.22181c55.50513,0 100.50093,13.53077 100.50093,30.22182z" fill="#000000" stroke="none" stroke-width="NaN"/><path d="M414.48454,49.04216c0,16.69105 -44.9958,30.22182 -100.50093,30.22182c-55.50513,0 -100.50092,-13.53078 -100.50092,-30.22182c0,-16.69105 46.55424,8.36302 102.05937,8.36302c55.50513,0 98.94249,-25.05408 98.94249,-8.36302z" fill="#ff0000" stroke="#000000" stroke-width="2"/><path d="M408.62534,57.73402c0,4.59323 -39.54125,22.19377 -95.04639,20.83992c-19.42345,-0.47377 -37.74638,-2.01603 -52.68626,-4.80766c-27.73603,-5.18268 -44.76336,-13.29388 -42.2312,-17.15902c2.61527,-3.99198 40.97078,15.95134 96.47591,15.95134c55.50513,0 93.48794,-19.4178 93.48794,-14.82458z" fill="#900056" stroke="#000000" stroke-width="0"/></g><path d="M338.64439,107.37695c0,14.85434 -3.16042,26.89617 -7.05901,26.89617c-3.89859,0 -7.05901,-12.04182 -7.05901,-26.89616c0,-14.85434 3.16043,-26.89616 7.05901,-26.89616c3.89859,0 7.05901,12.04182 7.05901,26.89617z" data-paper-data="{&quot;index&quot;:null}" fill="#000000" stroke="none" stroke-width="0" stroke-linecap="butt"/><path d="M366.65735,103.29266c0,14.79492 -2.9941,26.78858 -6.68749,26.78858c-3.6934,0 -6.68749,-11.99366 -6.68749,-26.78858c0,-14.79492 2.9941,-26.78858 6.68749,-26.78858c3.6934,0 6.68749,11.99366 6.68749,26.78858z" data-paper-data="{&quot;index&quot;:null}" fill="#000000" stroke="none" stroke-width="0" stroke-linecap="butt"/><path d="M303.26954,129.55314c-0.5567,-1.62069 -1.07211,-3.25077 -1.68727,-4.85522c-0.52325,-1.08957 -0.90444,-1.8465 -1.36765,-2.97155c-1.05533,-2.56326 -4.48233,-4.12667 -4.99482,-0.24213c-0.46234,3.50438 0.39713,7.64375 1.94921,10.85903c0,0 0.52303,1.09048 -0.73224,1.54485c-1.25527,0.45437 -1.7783,-0.63612 -1.7783,-0.63612c-1.76218,-3.69522 -3.4072,-9.74206 -1.64847,-13.64693c1.71073,-3.79829 7.11489,-3.80954 9.16172,-0.21564c0.79077,1.38846 1.26724,3.03891 1.95759,4.48001c0.65494,1.70569 1.20373,3.4371 1.79853,5.15952l0.05735,0.45771c0,0 0,1.18135 -1.35987,1.18135c-1.16397,0 -1.33164,-0.8655 -1.3558,-1.11487z" data-paper-data="{&quot;index&quot;:null}" fill="#000000" stroke="none" stroke-width="0.5" stroke-linecap="butt"/><path d="M309.42234,82.10387h32.63693" fill="none" stroke="#000000" stroke-width="5" stroke-linecap="round"/><path d="M351.90215,79.62866l25.38428,-4.27537" fill="none" stroke="#000000" stroke-width="5" stroke-linecap="round"/></g></g></svg>