<svg version="1.1" xmlns="http://www.w3.org/2000/svg" xmlns:xlink="http://www.w3.org/1999/xlink" width="228.0236" height="319.39083" viewBox="0,0,228.0236,319.39083"><g transform="translate(-189.98269,-11.18729)"><g data-paper-data="{&quot;isPaintingLayer&quot;:true}" fill-rule="nonzero" stroke-linejoin="miter" stroke-miterlimit="10" stroke-dasharray="" stroke-dashoffset="0" style="mix-blend-mode: normal"><g data-paper-data="{&quot;index&quot;:null}" stroke="#000000" stroke-linecap="butt"><path d="M362.64766,242.24493v-46.48799h53.83333v46.48799z" fill="#ffcaa0" stroke-width="2"/><g><path d="M362.4713,195.93132v-64.10185h54.53499v64.10185z" fill="#ff0008" stroke-width="2"/><path d="M363.25623,196.13684v-33.57465c0,0 16.31298,13.9464 25.36649,13.9464c8.58408,0 27.62129,-13.9464 27.62129,-13.9464v33.57466c0,0 -17.42822,0 -26.21204,0c-8.87778,0 -26.77574,0 -26.77574,0z" fill="#8d005e" stroke-width="0"/></g><path d="M363.48232,241.71841v-46.48799l13.81064,31.50853l40.02269,14.97947z" fill="#ff6e5b" stroke-width="0"/></g><g data-paper-data="{&quot;index&quot;:null}" stroke="#000000" stroke-linecap="butt"><path d="M413.6604,79.70672c0,31.1516 -12.54493,56.40496 -28.01989,56.40496c-15.47496,0 -28.01989,-25.25336 -28.01989,-56.40496c0,-31.1516 12.54493,-56.40496 28.01989,-56.40496c15.47496,0 28.01989,25.25336 28.01989,56.40496z" fill="#01930e" stroke-width="2"/><path d="M367.31125,69.98701c0,31.1516 34.22842,65.70471 18.75347,65.70471c-15.47495,0 -28.01989,-25.25336 -28.01989,-56.40496c0,-31.1516 9.26642,-40.45135 9.26642,-9.29975z" fill="#31525b" stroke-width="0"/></g><g data-paper-data="{&quot;index&quot;:null}" stroke="#000000" stroke-linecap="butt"><path d="M300.39681,329.14828v-87.31766h64.58108v87.31766z" fill="#273750" stroke-width="2"/><path d="M301.22793,328.41647v-87.31766l19.4518,47.70217l45.12927,39.61549z" fill="#1f1e2e" stroke-width="0"/></g><path d="M245.52128,241.4328v-110.07819h120.12983v110.07819z" data-paper-data="{&quot;index&quot;:null}" fill="#ff0008" stroke="#000000" stroke-width="2" stroke-linecap="butt"/><g data-paper-data="{&quot;index&quot;:null}" stroke="#000000" stroke-linecap="butt"><path d="M244.8655,329.57811v-87.31766h64.58108v87.31766z" fill="#273750" stroke-width="2"/><path d="M245.69667,328.84627v-87.31766l19.4518,47.70217l45.12927,39.61549z" fill="#1f1e2e" stroke-width="0"/></g><g data-paper-data="{&quot;index&quot;:null}" stroke="#000000" stroke-linecap="butt"><path d="M191.15906,241.9136v-46.48799h53.83333v46.48799z" fill="#ffcaa0" stroke-width="2"/><g><path d="M190.98269,195.59999v-64.10185h54.53499v64.10185z" fill="#ff0008" stroke-width="2"/><path d="M191.76762,195.80552v-33.57465c0,0 16.31298,13.9464 25.36649,13.9464c8.58408,0 27.62129,-13.9464 27.62129,-13.9464v33.57466c0,0 -17.42822,0 -26.21204,0c-8.87778,0 -26.77574,0 -26.77574,0z" fill="#8d005e" stroke-width="0"/></g><path d="M191.99371,241.38709v-46.48799l13.81064,31.50853l40.02269,14.97947z" fill="#ff6e5b" stroke-width="0"/></g><g data-paper-data="{&quot;index&quot;:null}" fill="#000000" stroke="#000000" stroke-linecap="butt"><path d="M273.90985,240.97893v-108.02935h64.58108v108.02935z" stroke-width="2"/><path d="M274.74102,240.07352v-108.02935l19.4518,59.01709l45.12927,49.01226z" stroke-width="0"/></g><g data-paper-data="{&quot;index&quot;:null}" stroke="#000000" stroke-linecap="butt"><path d="M226.36553,78.1888c0,-1.33143 0.93628,-26.48428 1.04412,-27.79531c2.72498,-33.12877 38.48774,-35.53341 83.29243,-35.53341c42.08695,0 78.44277,4.39351 84.77875,34.66041c0.67608,3.22959 -0.44219,25.29612 -0.44219,28.66831c0,12.05345 3.15576,38.54576 -4.62871,48.13675c-14.80372,18.23918 -49.18195,15.19197 -79.70785,15.19197c-32.27562,0 -62.37362,0.94915 -76.55104,-19.04889c-6.28239,-8.86166 -7.78552,-33.54025 -7.78552,-44.27982z" fill="#ffcaa0" stroke-width="2"/><path d="M224.43022,78.19866c0,-1.33143 0.93628,-26.48428 1.04412,-27.79531c1.54821,-18.82219 7.24519,58.57503 57.6893,79.78266c39.53145,16.61975 109.12975,-7.81189 106.00001,-3.95585c-14.80372,18.23918 -49.87098,15.2972 -80.39687,15.2972c-32.27562,0 -62.37362,0.94915 -76.55104,-19.04889c-6.28239,-8.86166 -7.78552,-33.54025 -7.78552,-44.27982z" fill="#ff6e5b" stroke-width="0"/></g><g data-paper-data="{&quot;index&quot;:null}" stroke="#000000" stroke-linecap="butt"><path d="M274.23989,77.70065c0,31.1516 -12.54493,56.40496 -28.01989,56.40496c-15.47496,0 -28.01989,-25.25336 -28.01989,-56.40496c0,-31.1516 12.54493,-56.40496 28.01989,-56.40496c15.47496,0 28.01989,25.25336 28.01989,56.40496z" fill="#01930e" stroke-width="2"/><path d="M227.89073,67.98095c0,31.1516 34.22842,65.70471 18.75347,65.70471c-15.47495,0 -28.01989,-25.25336 -28.01989,-56.40496c0,-31.1516 9.26642,-40.45135 9.26642,-9.29975z" fill="#31525b" stroke-width="0"/></g><g data-paper-data="{&quot;index&quot;:null}" stroke-linecap="butt"><path d="M412.35368,42.11903c0,17.08314 -43.66032,30.93176 -97.51805,30.93176c-53.85773,0 -97.51804,-13.84863 -97.51804,-30.93176c0,-17.08314 43.66031,-30.93175 97.51804,-30.93175c53.85773,0 97.51805,13.84862 97.51805,30.93176z" fill="#000000" stroke="none" stroke-width="NaN"/><path d="M411.58297,42.45206c0,17.08314 -43.66032,30.93176 -97.51805,30.93176c-53.85773,0 -97.51804,-13.84863 -97.51804,-30.93176c0,-17.08314 45.1725,8.55948 99.03023,8.55948c53.85773,0 96.00586,-25.64263 96.00586,-8.55948z" fill="#ff0000" stroke="#000000" stroke-width="2"/><path d="M405.89767,51.3481c0,4.70113 -38.36766,22.71513 -92.2254,21.32947c-18.84696,-0.4849 -36.62606,-2.06339 -51.12252,-4.9206c-26.91282,-5.30443 -43.43478,-13.60617 -40.97777,-17.5621c2.53765,-4.08576 39.75476,16.32605 93.61249,16.32605c53.85773,0 90.7132,-19.87395 90.7132,-15.17283z" fill="#900056" stroke="#000000" stroke-width="0"/></g><path d="M337.99377,102.1572c0,15.20329 -3.06662,27.52799 -6.8495,27.52799c-3.78288,0 -6.8495,-12.3247 -6.8495,-27.52798c0,-15.20329 3.06663,-27.52798 6.8495,-27.52798c3.78288,0 6.8495,12.3247 6.8495,27.52799z" data-paper-data="{&quot;index&quot;:null}" fill="#000000" stroke="none" stroke-width="0" stroke-linecap="butt"/><path d="M365.1753,97.97697c0,15.14247 -2.90523,27.41787 -6.489,27.41787c-3.58378,0 -6.489,-12.2754 -6.489,-27.41787c0,-15.14247 2.90523,-27.41787 6.489,-27.41787c3.58378,0 6.489,12.2754 6.489,27.41787z" data-paper-data="{&quot;index&quot;:null}" fill="#000000" stroke="none" stroke-width="0" stroke-linecap="butt"/><path d="M303.66885,124.85433c-0.54018,-1.65876 -1.04029,-3.32713 -1.63719,-4.96927c-0.50772,-1.11517 -0.8776,-1.88988 -1.32706,-3.04136c-1.02401,-2.62347 -4.34929,-4.22361 -4.84657,-0.24782c-0.44862,3.5867 0.38534,7.82331 1.89136,11.11412c0,0 0.50751,1.1161 -0.71051,1.58114c-1.21801,0.46504 -1.72552,-0.65106 -1.72552,-0.65106c-1.70988,-3.78202 -3.30607,-9.97091 -1.59954,-13.96751c1.65996,-3.88752 6.90372,-3.89903 8.8898,-0.22071c0.7673,1.42108 1.22963,3.1103 1.89949,4.58525c0.6355,1.74576 1.168,3.51784 1.74515,5.28072l0.05565,0.46846c0,0 0,1.2091 -1.31951,1.2091c-1.12942,0 -1.29212,-0.88583 -1.31556,-1.14106z" data-paper-data="{&quot;index&quot;:null}" fill="#000000" stroke="none" stroke-width="0.5" stroke-linecap="butt"/><path d="M341.30729,76.29043h-31.66826" fill="none" stroke="#000000" stroke-width="5" stroke-linecap="round"/><path d="M350.85803,73.75707l24.63087,-4.3758" fill="none" stroke="#000000" stroke-width="5" stroke-linecap="round"/></g></g></svg>