<svg version="1.1" xmlns="http://www.w3.org/2000/svg" xmlns:xlink="http://www.w3.org/1999/xlink" width="35.01786" height="30.64286" viewBox="0,0,35.01786,30.64286"><g transform="translate(-282.30357,-164.67857)"><g data-paper-data="{&quot;isPaintingLayer&quot;:true}" fill-rule="nonzero" stroke-linejoin="miter" stroke-miterlimit="10" stroke-dasharray="" stroke-dashoffset="0" style="mix-blend-mode: normal"><path d="M283.05357,180c0,-8.04758 7.50323,-14.57143 16.75893,-14.57143c9.2557,0 16.75893,6.52385 16.75893,14.57143c0,8.04758 -7.50323,14.57143 -16.75893,14.57143c-9.2557,0 -16.75893,-6.52385 -16.75893,-14.57143z" fill="#2740ff" stroke="#000000" stroke-width="1.5" stroke-linecap="butt"/><path d="M316.50206,179.84836c0.15812,0.47434 -0.31622,0.63245 -0.31622,0.63245l-0.29134,0.09019c-0.9495,0.49757 -2.63683,2.68574 -3.58573,2.48148c-1.69297,-0.36444 -1.85664,-3.9146 -3.54695,-4.31296c-1.73314,0.45816 -2.97095,1.57104 -4.18285,2.83754c-0.47647,0.49794 -1.17853,1.43719 -2.04354,1.28785c-1.57563,-0.27203 -2.05194,-4.554 -3.34355,-5.41351c-0.86169,-0.57342 -3.8148,0.89822 -4.67492,1.21511c-0.74552,0.2738 -2.11562,0.8715 -2.92615,0.50364c-1.13974,-0.51727 -1.00796,-2.78174 -2.03296,-3.45703c-0.67163,-0.44248 -2.71919,1.87111 -3.57704,1.59324c-0.71164,-0.23051 -1.35517,-3.2449 -1.5279,-3.7971c0,0 -0.14914,-0.47724 0.3281,-0.62637c0.47724,-0.14914 0.62638,0.3281 0.62638,0.3281c0.19785,0.63375 0.43973,1.25291 0.65737,1.88013c0.14195,0.40908 -0.17683,1.31982 0.25374,1.27399c0.94765,-0.10087 2.32067,-2.17926 3.61808,-1.57749c2.64772,1.22807 0.63619,4.27078 4.23467,2.94056c1.27664,-0.47033 4.16966,-1.92307 5.52156,-1.14226c1.07659,0.62179 1.91713,3.048 2.51637,4.0684c0.23427,0.39892 0.14336,1.20188 0.6035,1.2498c0.36697,0.03821 1.51937,-1.52009 1.73003,-1.7408c1.16612,-1.2218 2.59564,-2.03134 4.22777,-2.42375c2.2384,0.63159 2.08283,3.21886 3.78105,4.34285c0.27242,0.18031 0.35468,-0.5526 0.57578,-0.7931c0.62696,-0.68198 1.49212,-1.17663 2.30191,-1.60347l0.44037,-0.15371c0,0 0.47434,-0.15812 0.63245,0.31623z" fill="#000000" stroke="none" stroke-width="0.5" stroke-linecap="butt"/><path d="M298.04727,190.45973l1.71053,-8.46491" fill="none" stroke="#000000" stroke-width="1.5" stroke-linecap="round"/><path d="M302.30166,191.42464l1.66667,-7.45614" fill="none" stroke="#000000" stroke-width="1.5" stroke-linecap="round"/><path d="M301.59991,183.83692l-4.25439,-4.5614" fill="none" stroke="#000000" stroke-width="1.5" stroke-linecap="round"/><path d="M303.52973,183.5299l5.26316,-0.48246" fill="none" stroke="#000000" stroke-width="1.5" stroke-linecap="round"/><path d="M296.53725,184.89938c0,2.08203 -1.75888,3.76984 -3.92857,3.76984c-2.16969,0 -3.92857,-1.68782 -3.92857,-3.76984c0,-2.08203 1.16441,-1.22226 3.05556,-0.15873c1.6935,0.95238 4.80159,-1.9233 4.80159,0.15873z" fill="#ffffff" stroke="#000000" stroke-width="0.5" stroke-linecap="butt"/></g></g></svg>