<svg version="1.1" xmlns="http://www.w3.org/2000/svg" xmlns:xlink="http://www.w3.org/1999/xlink" width="242.65465" height="307.65528" viewBox="0,0,242.65465,307.65528"><g transform="translate(-244.14156,-22.92283)"><g data-paper-data="{&quot;isPaintingLayer&quot;:true}" fill-rule="nonzero" stroke-linejoin="miter" stroke-miterlimit="10" stroke-dasharray="" stroke-dashoffset="0" style="mix-blend-mode: normal"><g data-paper-data="{&quot;index&quot;:null}" stroke="#000000" stroke-linecap="butt"><path d="M298.86371,329.13374v-90.27109h61.17899v90.27109z" fill="#273750" stroke-width="2"/><path d="M299.65105,328.37717v-90.27109l18.42709,49.31565l42.75189,40.95544z" fill="#1f1e2e" stroke-width="0"/></g><g data-paper-data="{&quot;index&quot;:null}" stroke="#000000" stroke-linecap="butt"><path d="M246.25776,329.57811v-90.27109h61.17899v90.27109z" fill="#273750" stroke-width="2"/><path d="M247.04514,328.82151v-90.27109l18.42709,49.31565l42.75189,40.95544z" fill="#1f1e2e" stroke-width="0"/></g><g data-paper-data="{&quot;index&quot;:null}" stroke="#000000" stroke-linecap="butt"><path d="M449.4697,265.45726l-44.05736,-29.22842l35.81611,-40.48248l44.05736,29.22842z" fill="#ffcaa0" stroke-width="2"/><g><path d="M405.46026,236.4711l-60.7503,-40.3028l36.28295,-41.01013l60.7503,40.3028z" fill="#ff0008" stroke-width="2"/><path d="M406.17728,236.01006l-31.81921,-21.10941c0,0 24.07048,-3.49878 30.0939,-10.30699c5.71112,-6.4552 5.15964,-29.53965 5.15964,-29.53965l31.81921,21.10942c0,0 -11.59524,13.10596 -17.43926,19.71137c-5.90652,6.67606 -17.8143,20.13527 -17.8143,20.13527z" fill="#8d005e" stroke-width="0"/></g><path d="M449.526,264.49856l-44.05736,-29.22842l39.04952,9.42482l40.82395,-20.67888z" fill="#ff6e5b" stroke-width="0"/></g><g data-paper-data="{&quot;index&quot;:null}" stroke="#000000" stroke-linecap="butt"><path d="M479.14519,108.47609c-5.13113,31.89729 -22.88339,56.11554 -39.65079,54.09299c-16.7674,-2.02256 -26.20045,-29.52002 -21.06931,-61.41731c5.13113,-31.89729 22.88339,-56.11554 39.65079,-54.09299c16.7674,2.02256 26.20045,29.52002 21.06931,61.41731z" fill="#01930e" stroke-width="2"/><path d="M430.52603,92.46594c-5.13113,31.89729 26.26455,71.75111 9.49717,69.72856c-16.76739,-2.02256 -26.20045,-29.52002 -21.06931,-61.41731c5.13113,-31.89729 16.70327,-40.20854 11.57214,-8.31125z" fill="#31525b" stroke-width="0"/></g><path d="M245.43177,237.43365l36.45037,-109.33663l126.26352,31.56384l-36.45037,109.33663z" data-paper-data="{&quot;index&quot;:null}" fill="#ff0008" stroke="#000000" stroke-width="2" stroke-linecap="butt"/><g data-paper-data="{&quot;index&quot;:null}" fill="#000000" stroke="#000000" stroke-linecap="butt"><path d="M275.42012,244.44187l35.77195,-107.30159l67.87853,16.96853l-35.77195,107.30159z" stroke-width="2"/><path d="M276.59353,243.76095l35.77195,-107.30159l0.90256,63.73043l31.20401,60.5397z" stroke-width="0"/></g><g data-paper-data="{&quot;index&quot;:null}" stroke="#000000" stroke-linecap="butt"><path d="M276.45788,82.44265c0.21931,-1.3633 5.37684,-26.99587 5.70963,-28.32419c8.40937,-33.56564 47.55503,-31.35369 96.10171,-25.49778c45.60195,5.50071 84.27045,14.75105 86.15019,46.57056c0.20057,3.39526 -4.64577,25.84384 -5.20123,29.29675c-1.98537,12.34197 -2.92974,39.8809 -12.94413,48.68405c-19.04436,16.74095 -55.79187,9.12761 -88.86721,5.13792c-34.97121,-4.21838 -67.73926,-7.18028 -79.80677,-29.50999c-5.34743,-9.89489 -2.91116,-35.36067 -1.14219,-46.35732z" fill="#ffcaa0" stroke-width="2"/><path d="M274.35932,82.1998c0.21931,-1.3633 5.37684,-26.99587 5.70963,-28.32419c4.77779,-19.07039 -1.79789,60.9241 49.36599,89.23235c40.0955,22.18429 119.53075,6.26422 115.50448,9.80352c-19.04436,16.74095 -56.55576,9.1453 -89.63111,5.15561c-34.97121,-4.21838 -67.73926,-7.18028 -79.80677,-29.50999c-5.34743,-9.89489 -2.91116,-35.36067 -1.14219,-46.35732z" fill="#ff6e5b" stroke-width="0"/></g><g data-paper-data="{&quot;index&quot;:null}" stroke="#000000" stroke-linecap="butt"><path d="M328.411,88.19993c-5.13113,31.89729 -22.88339,56.11554 -39.65079,54.09299c-16.7674,-2.02256 -26.20045,-29.52002 -21.06931,-61.41731c5.13113,-31.89729 22.88339,-56.11554 39.65079,-54.09299c16.7674,2.02256 26.20045,29.52002 21.06931,61.41731z" fill="#01930e" stroke-width="2"/><path d="M279.79184,72.18979c-5.13113,31.89729 26.26455,71.75111 9.49717,69.72856c-16.76739,-2.02256 -26.20045,-29.52002 -21.06931,-61.41731c5.13113,-31.89729 16.70327,-40.20854 11.57214,-8.31125z" fill="#31525b" stroke-width="0"/></g><g data-paper-data="{&quot;index&quot;:null}" stroke-linecap="butt"><path d="M483.92059,69.81787c-2.81384,17.49207 -52.40166,25.96584 -110.75746,18.9267c-58.3558,-7.03913 -103.38145,-26.9256 -100.56759,-44.41766c2.81384,-17.49207 52.40165,-25.96583 110.75745,-18.92669c58.3558,7.03913 103.38146,26.92559 100.5676,44.41766z" fill="#000000" stroke="none" stroke-width="NaN"/><path d="M483.03065,70.05813c-2.81384,17.49207 -52.40166,25.96584 -110.75746,18.9267c-58.3558,-7.03913 -103.38145,-26.9256 -100.56759,-44.41766c2.81384,-17.49207 47.53532,14.66836 105.89113,21.70749c58.3558,7.03913 108.24778,-13.70861 105.43393,3.78346z" fill="#ff0000" stroke="#000000" stroke-width="2"/><path d="M475.40521,78.42406c-0.77435,4.81366 -45.31357,18.24427 -103.44113,9.78631c-20.34114,-2.95978 -39.34511,-6.89976 -54.58166,-11.72003c-28.2868,-8.94888 -44.82121,-19.60873 -41.50741,-23.33823c3.42258,-3.8519 40.38584,21.91274 98.74166,28.95188c58.3558,7.03913 101.5629,-8.49359 100.78856,-3.67993z" fill="#900056" stroke="#000000" stroke-width="0"/></g><path d="M393.46113,121.57444c-2.50421,15.56721 -7.85701,27.78613 -11.95582,27.29171c-4.09881,-0.49442 -5.3915,-13.51494 -2.88727,-29.08214c2.50421,-15.56721 7.85702,-27.78612 11.95582,-27.2917c4.09881,0.49442 5.3915,13.51494 2.88727,29.08215z" data-paper-data="{&quot;index&quot;:null}" fill="#000000" stroke="none" stroke-width="0" stroke-linecap="butt"/><path d="M423.60134,120.84674c-2.49419,15.50494 -7.664,27.69447 -11.54708,27.22608c-3.88309,-0.4684 -5.009,-13.41734 -2.5148,-28.92228c2.49419,-15.50494 7.664,-27.69447 11.54708,-27.22608c3.88309,0.4684 5.009,13.41734 2.5148,28.92228z" data-paper-data="{&quot;index&quot;:null}" fill="#000000" stroke="none" stroke-width="0" stroke-linecap="butt"/><path d="M366.99888,91.38257l34.31313,4.139" fill="none" stroke="#000000" stroke-width="5" stroke-linecap="round"/><path d="M412.07768,94.17583l27.40874,-1.26133" fill="none" stroke="#000000" stroke-width="5" stroke-linecap="round"/><g data-paper-data="{&quot;index&quot;:null}" stroke="#000000" stroke-linecap="butt"><path d="M369.14872,239.67553l-47.87527,-24.31276l29.79253,-43.99059l47.87527,24.31276z" fill="#ffcaa0" stroke-width="2"/><g><path d="M321.35543,215.5981l-66.01476,-33.52463l30.18083,-44.56397l66.01476,33.52463z" fill="#ff0008" stroke-width="2"/><path d="M322.00149,215.06417l-34.57659,-17.55921c0,0 23.39054,-6.03653 28.40094,-13.43473c4.75061,-7.01459 0.92363,-29.86492 0.92363,-29.86492l34.5766,17.55921c0,0 -9.64515,14.24169 -14.50631,21.41951c-4.91314,7.25459 -14.81827,21.88014 -14.81827,21.88014z" fill="#8d005e" stroke-width="0"/></g><path d="M369.06842,238.71813l-47.87527,-24.31276l40.09189,5.19311l37.5759,-24.87094z" fill="#ff6e5b" stroke-width="0"/></g><path d="M357.90691,136.83333c0,5.98308 -3.27451,10.83333 -7.31382,10.83333c-4.03931,0 -7.31382,-4.85025 -7.31382,-10.83333c0,-5.98308 3.27451,-10.83333 7.31382,-10.83333c4.03931,0 7.31382,4.85025 7.31382,10.83333z" fill="#000000" stroke="none" stroke-width="0" stroke-linecap="butt"/></g></g></svg>