<svg version="1.1" xmlns="http://www.w3.org/2000/svg" xmlns:xlink="http://www.w3.org/1999/xlink" width="209.12241" height="274.73514" viewBox="0,0,209.12241,274.73514"><g transform="translate(-200.90329,-55.84297)"><g data-paper-data="{&quot;isPaintingLayer&quot;:true}" fill-rule="nonzero" stroke-linecap="butt" stroke-linejoin="miter" stroke-miterlimit="10" stroke-dasharray="" stroke-dashoffset="0" style="mix-blend-mode: normal"><g data-paper-data="{&quot;index&quot;:null}" stroke="#000000"><path d="M299.06325,329.13891v-89.22053h62.69882v89.22053z" fill="#273750" stroke-width="2"/><path d="M299.87015,328.39115v-89.22053l18.88486,48.74172l43.81395,40.47881z" fill="#1f1e2e" stroke-width="0"/></g><g data-paper-data="{&quot;index&quot;:null}" stroke="#000000"><path d="M245.15044,329.57811v-89.22053h62.69882v89.22053z" fill="#273750" stroke-width="2"/><path d="M245.95738,328.83032v-89.22053l18.88486,48.74172l43.81395,40.47881z" fill="#1f1e2e" stroke-width="0"/></g><g data-paper-data="{&quot;index&quot;:null}" stroke="#000000"><path d="M308.72074,288.73395l18.90905,-43.86117l48.25941,19.35038l-18.90905,43.86117z" fill="#ffcaa0" stroke-width="2"/><g><path d="M327.40077,244.97392l26.07351,-60.47975l48.88843,19.6026l-26.07351,60.47975z" fill="#0000c0" stroke-width="2"/><path d="M328.02082,245.44997l13.65654,-31.6775c0,0 8.95121,19.02205 17.06733,22.27634c7.69529,3.08555 30.43409,-3.22988 30.43409,-3.22988l-13.65654,31.67751c0,0 -15.62369,-6.26458 -23.49804,-9.42192c-7.95857,-3.19112 -24.00338,-9.62454 -24.00338,-9.62454z" fill="#56006b" stroke-width="0"/></g><path d="M309.68315,288.5372l18.90905,-43.86117l-0.43546,34.69236l29.78582,28.5192z" fill="#ff6e5b" stroke-width="0"/></g><g data-paper-data="{&quot;index&quot;:null}" stroke="#000000"><path d="M409.02571,125.85562c0,31.83047 -12.1793,57.63417 -27.20323,57.63417c-15.02393,0 -27.20323,-25.8037 -27.20323,-57.63417c0,-31.83047 12.1793,-57.63417 27.20323,-57.63417c15.02393,0 27.20323,25.8037 27.20323,57.63417z" fill="#01930e" stroke-width="2"/><path d="M364.02743,115.92409c0,31.83047 33.23081,67.13658 18.20689,67.13658c-15.02392,0 -27.20323,-25.8037 -27.20323,-57.63417c0,-31.83047 8.99634,-41.33288 8.99634,-9.50241z" fill="#31525b" stroke-width="0"/></g><path d="M245.7871,291.10611v-112.47707h116.62858v112.47707z" data-paper-data="{&quot;index&quot;:null}" fill="#0000c0" stroke="#000000" stroke-width="2"/><g data-paper-data="{&quot;index&quot;:null}" stroke="#000000"><path d="M273.34827,290.64235v-110.38358h62.69882v110.38358z" fill="#ffffff" stroke-width="2"/><path d="M274.15521,289.71722v-110.38358l18.88486,60.30322l43.81395,50.08036z" fill="#8ebbfc" stroke-width="0"/></g><g data-paper-data="{&quot;index&quot;:null}" stroke="#000000"><path d="M227.18966,124.30462c0,-1.36044 0.90899,-27.06144 1.01369,-28.40104c2.64556,-33.85073 37.36599,-36.30777 80.86482,-36.30777c40.8603,0 76.1565,4.48926 82.30782,35.41575c0.65637,3.29997 -0.42931,25.84738 -0.42931,29.29306c0,12.31612 3.06379,39.38577 -4.4938,49.18577c-14.37226,18.63666 -47.74852,15.52304 -77.38471,15.52304c-31.33493,0 -60.55571,0.96983 -74.31991,-19.46401c-6.09929,-9.05478 -7.5586,-34.27117 -7.5586,-45.24479z" fill="#ffcaa0" stroke-width="2"/><path d="M225.31075,124.31469c0,-1.36044 0.90899,-27.06144 1.01369,-28.40104c1.50309,-19.23237 7.03403,59.85153 56.00791,81.52132c38.37928,16.98194 105.94909,-7.98213 102.91058,-4.04206c-14.37226,18.63666 -48.41746,15.63056 -78.05365,15.63056c-31.33493,0 -60.55571,0.96983 -74.31991,-19.46401c-6.09929,-9.05478 -7.5586,-34.27117 -7.5586,-45.24479z" fill="#ff6e5b" stroke-width="0"/></g><g data-paper-data="{&quot;index&quot;:null}" stroke="#000000"><path d="M273.66869,123.80584c0,31.83047 -12.1793,57.63417 -27.20323,57.63417c-15.02393,0 -27.20323,-25.8037 -27.20323,-57.63417c0,-31.83047 12.1793,-57.63417 27.20323,-57.63417c15.02393,0 27.20323,25.8037 27.20323,57.63417z" fill="#01930e" stroke-width="2"/><path d="M228.67041,113.87432c0,31.83047 33.23081,67.13658 18.20689,67.13658c-15.02392,0 -27.20323,-25.8037 -27.20323,-57.63417c0,-31.83047 8.99634,-41.33288 8.99634,-9.50241z" fill="#31525b" stroke-width="0"/></g><g data-paper-data="{&quot;index&quot;:null}"><path d="M407.75707,87.4488c0,17.45543 -42.38781,31.60584 -94.67583,31.60584c-52.28801,0 -94.67581,-14.15042 -94.67581,-31.60584c0,-17.45543 42.3878,-31.60583 94.67581,-31.60583c52.28801,0 94.67583,14.15041 94.67583,31.60584z" fill="#000000" stroke="none" stroke-width="NaN"/><path d="M407.00883,87.78908c0,17.45543 -42.38781,31.60584 -94.67583,31.60584c-52.28801,0 -94.67581,-14.15042 -94.67581,-31.60584c0,-17.45543 43.85592,8.74602 96.14393,8.74602c52.28801,0 93.20771,-26.20144 93.20771,-8.74602z" fill="#ff0000" stroke="#000000" stroke-width="2"/><path d="M401.48922,96.879c0,4.80358 -37.24941,23.21015 -89.53743,21.7943c-18.29765,-0.49547 -35.55857,-2.10835 -49.63252,-5.02783c-26.12843,-5.42003 -42.16884,-13.90268 -39.78345,-17.94482c2.46369,-4.1748 38.59608,16.68183 90.88409,16.68183c52.28801,0 88.06931,-20.30706 88.06931,-15.50348z" fill="#900056" stroke="#000000" stroke-width="0"/></g><path d="M362.40696,159.02954c0,15.5346 -2.97724,28.12789 -6.64986,28.12789c-3.67263,0 -6.64986,-12.59329 -6.64986,-28.12788c0,-15.5346 2.97725,-8.31811 6.64986,-8.31811c3.67263,0 6.64986,-7.21649 6.64986,8.31812z" data-paper-data="{&quot;index&quot;:null}" fill="#000000" stroke="none" stroke-width="0"/><path d="M381.1969,148.60115c0,15.47246 -2.82055,28.01537 -6.29987,28.01537c-3.47933,0 -6.29987,-12.54291 -6.29987,-28.01537c0,-15.47246 2.82055,-18.11048 6.29987,-18.11048c3.47933,0 6.29987,2.63802 6.29987,18.11048z" data-paper-data="{&quot;index&quot;:null}" fill="#000000" stroke="none" stroke-width="0"/><g data-paper-data="{&quot;index&quot;:null}" stroke="#000000"><path d="M239.98087,311.19205l-15.84436,-44.97625l49.48631,-16.21417l15.84436,44.97625z" fill="#ffcaa0" stroke-width="2"/><g><path d="M224.03381,266.43764l-21.84764,-62.01733l50.13132,-16.4255l21.84764,62.01733z" fill="#0000c0" stroke-width="2"/><path d="M224.82541,266.40007l-11.44314,-32.48284c0,0 19.74902,8.57954 28.07147,5.8527c7.89093,-2.58546 20.63758,-21.81219 20.63758,-21.81219l11.44315,32.48285c0,0 -16.0209,5.24924 -24.09543,7.89486c-8.1609,2.67392 -24.61361,8.06464 -24.61361,8.06464z" fill="#56006b" stroke-width="0"/></g><path d="M240.56867,310.43128l-15.84436,-44.97625l23.43439,26.32425l41.89629,2.43783z" fill="#ff6e5b" stroke-width="0"/></g><path d="M333.96667,171.39118c0,5.92618 -2.29912,10.73029 -5.13524,10.73029c-2.83612,0 -5.13524,-4.80411 -5.13524,-10.73029c0,-5.92618 2.29912,-10.73029 5.13524,-10.73029c2.83612,0 5.13524,4.80411 5.13524,10.73029z" fill="#000000" stroke="none" stroke-width="0"/></g></g></svg>