<svg version="1.1" xmlns="http://www.w3.org/2000/svg" xmlns:xlink="http://www.w3.org/1999/xlink" width="166.20612" height="291.77238" viewBox="0,0,166.20612,291.77238"><g transform="translate(-245.25776,-38.80573)"><g data-paper-data="{&quot;isPaintingLayer&quot;:true}" fill-rule="nonzero" stroke-linecap="butt" stroke-linejoin="miter" stroke-miterlimit="10" stroke-dasharray="" stroke-dashoffset="0" style="mix-blend-mode: normal"><g data-paper-data="{&quot;index&quot;:null}" stroke="#000000"><path d="M305.0917,241.21996l15.62647,-40.12464l41.50904,17.0079l-15.62647,40.12464z" fill="#ffcaa0" stroke-width="2"/><g><path d="M320.52359,201.19012l21.5472,-55.32748l42.05007,17.22959l-21.5472,55.32748z" fill="#0000c0" stroke-width="2"/><path d="M321.05974,201.6155l11.28577,-28.9789c0,0 7.89045,17.19125 14.8713,20.05158c6.61889,2.71203 25.98578,-3.31083 25.98578,-3.31083l-11.28578,28.97891c0,0 -13.43831,-5.50621 -20.21121,-8.28135c-6.84534,-2.80481 -20.64587,-8.45943 -20.64587,-8.45943z" fill="#56006b" stroke-width="0"/></g><path d="M305.91228,241.0292l15.62647,-40.12464l0.05763,31.55887l25.82494,25.57367z" fill="#ff6e5b" stroke-width="0"/></g><g data-paper-data="{&quot;index&quot;:null}" stroke="#000000"><path d="M409.64585,109.10468c-2.06071,28.87613 -14.11965,51.5049 -26.93439,50.54273c-12.81473,-0.96216 -21.53258,-25.15088 -19.47186,-54.02703c2.06071,-28.87613 14.11965,-51.5049 26.93439,-50.54273c12.81473,0.96216 21.53258,25.15088 19.47186,54.02703z" fill="#01930e" stroke-width="2"/><path d="M371.90731,97.21316c-2.06071,28.87613 23.99794,63.0335 11.1832,62.07134c-12.81472,-0.96216 -21.53258,-25.15088 -19.47186,-54.02703c2.06071,-28.87613 10.34938,-36.92045 8.28867,-8.04431z" fill="#31525b" stroke-width="0"/></g><g data-paper-data="{&quot;index&quot;:null}" stroke="#000000"><path d="M292.36598,329.17861v-81.15614h53.62235v81.15614z" fill="#273750" stroke-width="2"/><path d="M293.05607,328.49844v-81.15614l16.15103,44.33609l37.47131,36.82004z" fill="#1f1e2e" stroke-width="0"/></g><path d="M246.80226,247.65273v-102.31058h99.74507v102.31058z" data-paper-data="{&quot;index&quot;:null}" fill="#0000c0" stroke="#000000" stroke-width="2"/><g data-paper-data="{&quot;index&quot;:null}" stroke="#000000"><path d="M246.25776,329.57811v-81.15614h53.62235v81.15614z" fill="#273750" stroke-width="2"/><path d="M246.94788,328.89791v-81.15614l16.15103,44.33609l37.47131,36.82004z" fill="#1f1e2e" stroke-width="0"/></g><g data-paper-data="{&quot;index&quot;:null}" stroke="#000000"><path d="M270.37359,247.23089v-100.40631h53.62235v100.40631z" fill="#ffffff" stroke-width="2"/><path d="M271.06372,246.38938v-100.40631l16.15103,54.85257l37.47131,45.55373z" fill="#8ebbfc" stroke-width="0"/></g><g data-paper-data="{&quot;index&quot;:null}" stroke="#000000"><path d="M254.64832,96.05253c0.08807,-1.23417 2.5273,-24.49153 2.70332,-25.70009c4.44805,-30.53948 34.22208,-30.5449 71.32461,-27.75916c34.85199,2.61676 64.66743,8.94977 67.91204,37.39978c0.34622,3.03573 -2.03955,23.42088 -2.26262,26.54674c-0.79735,11.173 0.06342,35.92641 -7.01732,44.33283c-13.46543,15.98648 -41.73229,11.02438 -67.01064,9.12643c-26.72728,-2.00675 -51.71406,-2.99827 -62.13142,-22.41705c-4.6162,-8.60497 -4.22841,-31.57438 -3.51798,-41.52948z" fill="#ffcaa0" stroke-width="2"/><path d="M253.04503,95.94135c0.08807,-1.23417 2.5273,-24.49153 2.70332,-25.70009c2.52716,-17.35107 2.1249,54.74691 42.49449,77.54181c31.63637,17.86364 90.88655,-0.45611 88.03976,2.92368c-13.46543,15.98648 -42.30984,11.0791 -67.58817,9.18114c-26.72728,-2.00675 -51.71406,-2.99827 -62.13142,-22.41705c-4.6162,-8.60497 -4.22841,-31.57438 -3.51798,-41.52948z" fill="#ff6e5b" stroke-width="0"/></g><g data-paper-data="{&quot;index&quot;:null}" stroke="#000000"><path d="M294.32512,98.57665c-2.06071,28.87613 -14.11965,51.5049 -26.93439,50.54273c-12.81473,-0.96216 -21.53258,-25.15088 -19.47186,-54.02703c2.06071,-28.87613 14.11965,-51.5049 26.93439,-50.54273c12.81473,0.96216 21.53258,25.15088 19.47186,54.02703z" fill="#01930e" stroke-width="2"/><path d="M256.58659,86.68513c-2.06071,28.87613 23.99794,63.0335 11.1832,62.07134c-12.81472,-0.96216 -21.53258,-25.15088 -19.47186,-54.02703c2.06071,-28.87613 10.34938,-36.92045 8.28867,-8.04431z" fill="#31525b" stroke-width="0"/></g><g data-paper-data="{&quot;index&quot;:null}"><path d="M411.05023,74.18133c-1.13007,15.8353 -38.20106,25.95777 -82.80037,22.60915c-44.59933,-3.34861 -79.83809,-18.90026 -78.70803,-34.73556c1.13007,-15.8353 38.20105,-25.95776 82.80036,-22.60914c44.59933,3.34861 79.8381,18.90025 78.70803,34.73556z" fill="#000000" stroke="none" stroke-width="NaN"/><path d="M410.38998,74.4421c-1.13007,15.8353 -38.20106,25.95777 -82.80037,22.60915c-44.59933,-3.34861 -79.83809,-18.90026 -78.70803,-34.73556c1.13007,-15.8353 36.84091,10.74286 81.44021,14.09148c44.59933,3.34861 81.19825,-17.8004 80.06818,-1.96508z" fill="#ff0000" stroke="#000000" stroke-width="2"/><path d="M405.09351,82.33486c-0.31099,4.35774 -33.27469,18.6704 -77.78235,14.03733c-15.57499,-1.62129 -30.19337,-4.18989 -42.0088,-7.73973c-21.93548,-6.59028 -35.06805,-15.31287 -32.77173,-18.82709c2.37169,-3.62955 31.84073,17.60529 76.44003,20.95389c44.59933,3.34861 76.43383,-12.78215 76.12284,-8.42442z" fill="#900056" stroke="#000000" stroke-width="0"/></g><path d="M366.36136,129.03482c-1.00571,14.09277 -4.36046,25.32654 -7.49305,25.09134c-3.13258,-0.2352 -4.85675,-11.85032 -3.85102,-25.94307c1.00571,-14.09277 4.36047,-25.32654 7.49305,-25.09134c3.13258,0.2352 4.85675,11.85032 3.85102,25.94308z" data-paper-data="{&quot;index&quot;:null}" fill="#000000" stroke="none" stroke-width="0"/><path d="M386.5247,123.49195c-1.00169,14.0364 -4.21953,25.23451 -7.18722,25.01169c-2.96771,-0.22282 -4.56147,-11.78221 -3.55979,-25.81859c1.00169,-14.0364 4.21953,-25.23451 7.18722,-25.01169c2.96771,0.22282 4.56147,11.78221 3.55979,25.81859z" data-paper-data="{&quot;index&quot;:null}" fill="#000000" stroke="none" stroke-width="0"/><path d="M340.17847,132.93852c0.01063,0.34535 -0.13757,0.62946 -0.13757,0.62946c-2.20691,3.99214 5.11819,8.34158 6.48268,11.69785c1.07865,2.65321 0.03266,4.7412 -2.4145,5.72189c-1.06298,0.42598 -2.26904,0.43041 -3.40718,0.3444c-1.67866,-0.12684 -2.83678,-0.88446 -4.29335,-1.70165c-5.5226,-3.90555 -6.09757,-9.93192 -5.90491,-16.31205c0.05475,-1.81319 0.17414,-3.45615 1.08535,-5.09746c1.77479,-3.19682 5.75469,-4.78721 8.16517,-1.22365c0.24029,0.35525 0.8358,2.39788 0.96646,2.82351c0.11136,1.01107 -0.06833,2.09457 -0.50481,3.00828z" fill="#000000" stroke="none" stroke-width="0.5"/><g data-paper-data="{&quot;index&quot;:null}" stroke="#000000"><path d="M395.86004,209.00184l-42.10752,-1.21315l1.255,-45.82998l42.10752,1.21315z" fill="#ffcaa0" stroke-width="2"/><g><path d="M353.90636,207.9434l-58.06166,-1.67278l1.27136,-46.42732l58.06166,1.67278z" fill="#0000c0" stroke-width="2"/><path d="M354.11082,207.28052l-30.41098,-0.87615c0,0 13.01255,-13.52379 13.22361,-21.23133c0.20011,-7.30789 -11.98833,-23.8788 -11.98833,-23.8788l30.41099,0.87615c0,0 -0.40629,14.83718 -0.61107,22.31512c-0.20696,7.55792 -0.62421,22.79502 -0.62421,22.79502z" fill="#56006b" stroke-width="0"/></g><path d="M395.40259,208.27753l-42.10752,-1.21315l28.8615,-10.93519l14.50101,-33.68165z" fill="#ff6e5b" stroke-width="0"/></g></g></g></svg>