<svg version="1.1" xmlns="http://www.w3.org/2000/svg" xmlns:xlink="http://www.w3.org/1999/xlink" width="224.92908" height="264.34933" viewBox="0,0,224.92908,264.34933"><g transform="translate(-194.40805,-66.22879)"><g data-paper-data="{&quot;isPaintingLayer&quot;:true}" fill-rule="nonzero" stroke-linecap="butt" stroke-linejoin="miter" stroke-miterlimit="10" stroke-dasharray="" stroke-dashoffset="0" style="mix-blend-mode: normal"><g data-paper-data="{&quot;index&quot;:null}" stroke="#000000"><path d="M299.99733,329.15558v-85.8354h67.47544v85.8354z" fill="#273750" stroke-width="2"/><path d="M300.8657,328.43619v-85.8354l20.32358,46.89241l47.15185,38.943z" fill="#1f1e2e" stroke-width="0"/></g><g data-paper-data="{&quot;index&quot;:null}" stroke="#000000"><path d="M241.97725,329.57811v-85.8354h67.47544v85.8354z" fill="#273750" stroke-width="2"/><path d="M242.84566,328.8587v-85.8354l20.32358,46.89241l47.15185,38.943z" fill="#1f1e2e" stroke-width="0"/></g><g data-paper-data="{&quot;index&quot;:null}" stroke="#000000"><path d="M310.39056,290.28364l20.34961,-42.19703l51.93599,18.61621l-20.34961,42.19703z" fill="#ffcaa0" stroke-width="2"/><g><path d="M330.4937,248.1839l28.05988,-58.18509l52.61293,18.85886l-28.05988,58.18509z" fill="#0000c0" stroke-width="2"/><path d="M331.16099,248.64189l14.69695,-30.47562c0,0 9.63315,18.30033 18.36758,21.43115c8.28154,2.96848 32.75266,-3.10734 32.75266,-3.10734l-14.69695,30.47563c0,0 -16.81396,-6.02689 -25.28821,-9.06444c-8.56489,-3.07005 -25.83204,-9.25938 -25.83204,-9.25938z" fill="#56006b" stroke-width="0"/></g><path d="M311.42629,290.09434l20.34961,-42.19703l-0.46863,33.37609l32.05501,27.43715z" fill="#ff6e5b" stroke-width="0"/></g><g data-paper-data="{&quot;index&quot;:null}" stroke="#000000"><path d="M418.33713,133.58508c0,30.62278 -13.10716,55.44746 -29.27567,55.44746c-16.16851,0 -29.27567,-24.82468 -29.27567,-55.44746c0,-30.62278 13.10716,-55.44746 29.27567,-55.44746c16.16851,0 29.27567,24.82468 29.27567,55.44746z" fill="#01930e" stroke-width="2"/><path d="M369.91072,124.03037c0,30.62278 35.76245,64.58935 19.59396,64.58935c-16.1685,0 -29.27567,-24.82468 -29.27567,-55.44746c0,-30.62278 9.68171,-39.76467 9.68171,-9.14188z" fill="#31525b" stroke-width="0"/></g><path d="M242.66241,292.56579v-108.20956h125.51377v108.20956z" data-paper-data="{&quot;index&quot;:null}" fill="#0000c0" stroke="#000000" stroke-width="2"/><g data-paper-data="{&quot;index&quot;:null}" stroke="#000000"><path d="M272.3233,292.11963v-106.19551h67.47544v106.19551z" fill="#ffffff" stroke-width="2"/><path d="M273.19171,291.22959v-106.19551l20.32358,58.01525l47.15185,48.18026z" fill="#8ebbfc" stroke-width="0"/></g><g data-paper-data="{&quot;index&quot;:null}" stroke="#000000"><path d="M222.64815,132.09293c0,-1.30882 0.97824,-26.0347 1.09092,-27.32347c2.8471,-32.56639 40.21267,-34.93021 87.02539,-34.93021c43.97319,0 81.95838,4.31894 88.57833,34.07204c0.70638,3.17476 -0.46202,24.86671 -0.46202,28.18165c0,11.84884 3.2972,37.89143 -4.83616,47.3196c-15.46719,17.92957 -51.38617,14.93408 -83.28016,14.93408c-33.72214,0 -65.16907,0.93304 -79.98187,-18.72552c-6.56395,-8.71124 -8.13444,-32.97088 -8.13444,-43.52815z" fill="#ffcaa0" stroke-width="2"/><path d="M220.6261,132.10262c0,-1.30882 0.97824,-26.0347 1.09092,-27.32347c1.6176,-18.50267 7.56991,57.5807 60.2748,78.42831c41.30315,16.33763 114.02068,-7.67928 110.75068,-3.8887c-15.46719,17.92957 -52.10608,15.03752 -84.00006,15.03752c-33.72214,0 -65.16907,0.93304 -79.98187,-18.72552c-6.56395,-8.71124 -8.13444,-32.97088 -8.13444,-43.52815z" fill="#ff6e5b" stroke-width="0"/></g><g data-paper-data="{&quot;index&quot;:null}" stroke="#000000"><path d="M272.66813,131.61308c0,30.62278 -13.10716,55.44746 -29.27567,55.44746c-16.16851,0 -29.27567,-24.82468 -29.27567,-55.44746c0,-30.62278 13.10716,-55.44746 29.27567,-55.44746c16.16851,0 29.27567,24.82468 29.27567,55.44746z" fill="#01930e" stroke-width="2"/><path d="M224.24171,122.05837c0,30.62278 35.76245,64.58935 19.59396,64.58935c-16.1685,0 -29.27567,-24.82468 -29.27567,-55.44746c0,-30.62278 9.68171,-39.76467 9.68171,-9.14188z" fill="#31525b" stroke-width="0"/></g><g data-paper-data="{&quot;index&quot;:null}"><path d="M416.97184,96.63546c0,16.79316 -45.61707,30.40668 -101.88858,30.40668c-56.2715,0 -101.88856,-13.61354 -101.88856,-30.40668c0,-16.79316 45.61706,-30.40667 101.88856,-30.40667c56.2715,0 101.88858,13.61353 101.88858,30.40668z" fill="#000000" stroke="none" stroke-width="NaN"/><path d="M416.16659,96.96283c0,16.79316 -45.61707,30.40668 -101.88858,30.40668c-56.2715,0 -101.88856,-13.61354 -101.88856,-30.40668c0,-16.79316 47.19703,8.41419 103.46852,8.41419c56.2715,0 100.30861,-25.20732 100.30861,-8.41419z" fill="#ff0000" stroke="#000000" stroke-width="2"/><path d="M410.22649,105.70787c0,4.62133 -40.0872,22.32953 -96.35871,20.9674c-19.69163,-0.47667 -38.26755,-2.02836 -53.41371,-4.83707c-28.11899,-5.21439 -45.38141,-13.37519 -42.8143,-17.26397c2.65138,-4.0164 41.53647,16.0489 97.80797,16.0489c56.2715,0 94.77875,-19.53659 94.77875,-14.91527z" fill="#900056" stroke="#000000" stroke-width="0"/></g><path d="M368.16679,165.50035c0,14.9452 -3.20405,27.06069 -7.15647,27.06069c-3.95243,0 -7.15647,-12.11548 -7.15647,-27.06068c0,-14.9452 3.20406,-8.00251 7.15647,-8.00251c3.95243,0 7.15647,-6.94269 7.15647,8.00252z" data-paper-data="{&quot;index&quot;:null}" fill="#000000" stroke="none" stroke-width="0"/><path d="M388.38822,155.46763c0,14.88541 -3.03543,26.95243 -6.77982,26.95243c-3.7444,0 -6.77982,-12.06702 -6.77982,-26.95243c0,-14.88541 3.03543,-17.42335 6.77982,-17.42335c3.7444,0 6.77982,2.53793 6.77982,17.42335z" data-paper-data="{&quot;index&quot;:null}" fill="#000000" stroke="none" stroke-width="0"/><g data-paper-data="{&quot;index&quot;:null}" stroke="#000000"><path d="M236.41384,311.88965l-17.05144,-43.2698l53.25636,-15.59899l17.05144,43.2698z" fill="#ffcaa0" stroke-width="2"/><g><path d="M219.25187,268.83326l-23.51207,-59.66432l53.9505,-15.80229l23.51207,59.66432z" fill="#0000c0" stroke-width="2"/><path d="M220.10379,268.79712l-12.31492,-31.25041c0,0 21.25357,8.25402 30.21006,5.63065c8.49209,-2.48737 22.20983,-20.98461 22.20983,-20.98461l12.31493,31.25042c0,0 -17.24143,5.05008 -25.93111,7.59532c-8.78262,2.57247 -26.48876,7.75866 -26.48876,7.75866z" fill="#56006b" stroke-width="0"/></g><path d="M237.04643,311.15774l-17.05144,-43.2698l25.2197,25.32548l45.0881,2.34534z" fill="#ff6e5b" stroke-width="0"/></g><path d="M337.55982,177.39297c0,5.70134 -2.47428,10.32317 -5.52646,10.32317c-3.05218,0 -5.52646,-4.62184 -5.52646,-10.32317c0,-5.70134 2.47428,-10.32317 5.52646,-10.32317c3.05218,0 5.52646,4.62184 5.52646,10.32317z" fill="#000000" stroke="none" stroke-width="0"/></g></g></svg>