<svg version="1.1" xmlns="http://www.w3.org/2000/svg" xmlns:xlink="http://www.w3.org/1999/xlink" width="176.37901" height="324.09618" viewBox="0,0,176.37901,324.09618"><g transform="translate(-220.16587,-36.89128)"><g data-paper-data="{&quot;isPaintingLayer&quot;:true}" fill-rule="nonzero" stroke-linejoin="miter" stroke-miterlimit="10" stroke-dasharray="" stroke-dashoffset="0" style="mix-blend-mode: normal"><g stroke="#000000" stroke-linecap="butt"><path d="M320.18234,233.06899c10.17153,31.74679 12.17065,59.48402 4.46513,61.95286c-7.70554,2.46883 -22.19778,-21.26568 -32.36933,-53.01245c-10.17153,-31.74679 -12.17065,-59.48402 -4.46513,-61.95286c7.70554,-2.46883 22.19778,21.26568 32.36932,53.01246z" fill="#0d69be" stroke-width="2"/><path d="M346.98105,273.14722c4.36588,13.62652 -3.42562,28.30333 -17.40284,32.7816c-13.9772,4.47825 -28.84723,-2.93788 -33.21312,-16.56443c-4.36588,-13.62653 3.42562,-28.30333 17.40284,-32.7816c13.9772,-4.47824 28.84724,2.93791 33.21312,16.56443z" fill="#faddbf" stroke-width="2"/><path d="M305.57783,274.15844c4.36588,13.62653 38.09218,26.355 24.11497,30.83324c-13.9772,4.47825 -28.84722,-2.93789 -33.21312,-16.56443c-4.36588,-13.62653 4.73225,-27.89533 9.09815,-14.26882z" fill="#ef8b89" stroke-width="0"/></g><g stroke="#000000" stroke-linecap="butt"><path d="M307.76518,340.83541v-95.29492h29.49199v95.29492z" fill="#73fffc" stroke-width="2"/><path d="M307.43943,340.21747l1.32626,-93.78573c0,0 5.20288,68.11227 6.3799,77.52842c0.2602,2.08162 2.52228,2.78987 2.52228,2.78987l18.60659,13.13896z" fill="#59a9e6" stroke-width="0"/></g><g stroke="#000000" stroke-linecap="butt"><path d="M268.4238,338.41287v-95.29492h29.49199v95.29492z" fill="#73fffc" stroke-width="2"/><path d="M268.09805,337.79495l1.32626,-93.78573c0,0 5.20288,68.11227 6.3799,77.52842c0.2602,2.08162 2.52228,2.78987 2.52228,2.78987l18.60659,13.13896z" fill="#59a9e6" stroke-width="0"/></g><g stroke="#000000" stroke-linecap="butt"><path d="M335.22917,235.69589c0,13.80271 10.04743,36.74388 4.95001,46.45977c-6.2338,11.88187 -28.61241,9.09579 -38.9397,9.09579c-13.66287,0 -32.94407,4.17018 -38.34426,-14.83216c-2.01935,-7.10576 4.35457,-32.37264 4.35457,-40.7234c0,-30.68249 15.2177,-55.55556 33.98969,-55.55556c18.77199,0 33.98969,24.87307 33.98969,55.55556z" fill="#0d69be" stroke-width="2"/><path d="M283.96554,251.27246c0,13.80271 62.04198,20.54886 56.94455,30.26474c-6.2338,11.88186 -28.61241,9.09579 -38.9397,9.09579c-13.66287,0 -32.94406,4.17018 -38.34425,-14.83215c-2.01936,-7.10576 4.35457,-32.37265 4.35457,-40.7234c0,-9.45244 3.34855,-28.59801 5.51953,-29.96813c5.94391,-16.76415 10.4653,25.13995 10.4653,46.16315z" fill="#10157d" stroke-width="0"/></g><g stroke-linecap="butt"><g stroke="#000000"><g><path d="M223.33536,110.3171c8.32525,-46.0442 52.40039,-76.62145 98.44459,-68.29621c46.0442,8.32525 76.62145,52.40039 68.29621,98.44459c-8.32525,46.0442 -52.40039,76.62145 -98.44459,68.29621c-46.0442,-8.32525 -76.62145,-52.40039 -68.29621,-98.44459z" fill="#faddbf" stroke-width="2"/><path d="M223.71716,109.50252c2.67853,-14.81408 15.81605,-38.81645 20.82503,-41.17707c0.57203,-0.26959 7.27945,-7.73857 15.87501,-13.00985c10.68368,-6.55184 23.67134,-11.12215 24.2373,-10.81957c7.38413,3.94782 -28.78619,60.70169 -32.06676,85.80853c-0.00783,0.05987 0.83172,20.17142 2.34629,20.89129c1.99566,5.1802 5.55769,20.46882 14.99497,29.43109c17.58748,16.70223 44.65936,28.07409 43.10976,28.30784c-2.47881,0.3739 -15.0592,0.09108 -21.02537,-0.98767c-46.0442,-8.32525 -76.62145,-52.40039 -68.29621,-98.44459z" fill="#ef8b89" stroke-width="0"/><path d="M389.64259,139.92146c-2.06826,11.43886 -4.33557,15.11041 -4.54934,13.19001c-0.2181,-1.95916 1.56239,-9.69025 -6.29183,-16.02441c-1.90323,-1.53489 -11.16006,4.35997 -13.62563,2.66611c-1.54866,-1.06394 -6.70362,-11.55261 -8.46648,-12.55835c-1.23256,-0.70319 -13.74204,6.02871 -15.03906,5.33624c-3.23485,-1.72706 -9.77358,-13.32513 -13.34786,-14.64007c-1.96825,-0.7241 -11.24305,10.00905 -13.27326,9.38401c-2.61821,-0.80608 -7.76069,-13.66732 -10.4544,-14.15437c-7.16369,-1.29527 -8.60783,5.56809 -14.83073,10.54653c-4.04379,3.23512 -11.44297,-15.33251 -15.30607,-11.52388c-4.79752,4.72986 -9.52148,9.27154 -14.33531,12.05915c-3.77662,2.18699 -11.35444,-12.31358 -14.65031,-10.24928c-15.91336,9.967 -25.54196,16.36021 -22.30874,-1.52167c6.5014,-35.95712 44.05833,-0.38049 89.00366,-14.12464c43.02122,-13.15576 83.97676,5.65752 77.47536,41.61463z" fill="#ef8b89" stroke-width="0"/></g><path d="M392.6307,132.01609c-4.17827,23.10864 4.87681,9.7384 -11.13077,-2.88676c-1.95886,-1.54495 -11.42461,4.31213 -13.96088,2.6055c-1.59307,-1.07197 -6.92788,-11.59316 -8.74035,-12.60787c-1.26725,-0.70947 -14.06475,5.97036 -15.39805,5.27133c-3.32532,-1.74342 -10.08433,-13.38131 -13.75584,-14.71384c-2.02179,-0.73379 -11.48366,9.96555 -13.56854,9.33062c-2.6887,-0.81882 -8.02168,-13.71451 -10.78634,-14.21439c-7.35239,-1.32939 -8.8017,5.53303 -15.16037,10.48693c-4.13202,3.21917 -11.80555,-15.39807 -15.74962,-11.60408c-4.89807,4.71168 -9.72159,9.23536 -14.64533,12.00309c-3.86286,2.1714 -11.70084,-12.37621 -15.07125,-10.32539c-16.27329,9.90192 -26.11801,16.25606 -22.88479,-1.62583c6.5014,-35.95712 53.68423,-72.86788 98.87827,-64.69636c45.19402,8.17153 78.4753,57.01994 71.9739,92.97706z" fill="#873412" stroke-width="2"/><path d="M392.59382,130.82777c-4.17827,23.10864 4.87681,9.7384 -11.13077,-2.88676c-1.95886,-1.54495 -11.42461,4.31213 -13.96088,2.6055c-1.59307,-1.07197 -6.92788,-11.59316 -8.74036,-12.60787c-1.26725,-0.70947 -14.06475,5.97036 -15.39805,5.27133c-3.32532,-1.74342 -10.08433,-13.38131 -13.75584,-14.71384c-2.02179,-0.73379 -11.48366,9.96555 -13.56854,9.33062c-2.6887,-0.81882 -8.02168,-13.71451 -10.78634,-14.21439c-7.35239,-1.32939 -8.8017,5.53303 -15.16037,10.48693c-4.13202,3.21917 -11.80555,-15.39807 -15.74962,-11.60408c-4.89807,4.71168 -9.72159,9.23536 -14.64534,12.00309c-3.86286,2.1714 -11.70084,-12.37621 -15.07125,-10.32539c-16.27329,9.90192 -26.11801,16.25606 -22.88479,-1.62583c6.5014,-35.95712 45.18036,-0.17761 91.20872,-13.72594c44.05788,-12.96832 86.14484,6.04953 79.64344,42.00664z" fill="#741d23" stroke-width="0"/></g><path d="M321.14909,49.67699c0.04343,0.12536 0.0725,0.26624 0.08977,0.41859c0.04659,0.27178 0.04863,0.55582 -0.00038,0.84272c-0.09519,1.13753 -0.49139,2.46525 -0.53464,2.95751c-0.05681,0.64673 1.30428,-0.52361 1.92105,-0.32092c0.37781,0.12416 0.64245,0.89014 0.98018,0.68016c2.04957,-1.27431 4.13613,-3.80357 6.55792,-1.71614c0.80206,0.69132 0.32909,1.98083 0.76291,2.7551c0.03647,0.06509 2.59188,0.32982 3.08318,0.96023c0.84654,1.08623 -0.08655,2.27274 0.25155,3.34262c0.10818,0.34235 0.64401,-0.33298 0.99303,-0.41717c1.55333,-0.37467 4.29047,-1.26335 5.8373,0.03431c0.81505,0.68376 0.35055,2.23763 0.77075,2.76267c0.73667,0.92046 2.14558,-0.99928 3.277,-1.33068c1.56482,-0.45835 2.15585,0.3607 3.22268,1.4541c0.184,0.18859 -0.26984,4.15024 0.60879,5.48561c0.49388,0.75061 1.77799,-0.55113 2.66476,-0.40629c0.88477,0.14452 2.79903,-0.2434 3.19573,-0.06637c0.79575,0.35509 1.2546,1.8943 2.07239,1.59343c4.17535,-1.5361 8.75012,0.7633 6.2588,5.3534c-0.31528,0.58089 1.40293,-0.32956 1.98276,-0.01232c0.22479,0.12298 1.37889,1.34866 1.61777,1.30445c1.56244,-0.28915 2.61427,-0.82768 4.18072,-0.54839c1.30092,0.23196 2.41686,1.18967 2.47311,2.6027c0.02956,0.74261 -1.35922,1.91179 -0.64966,2.13283c1.67254,0.52103 4.22579,1.7198 3.01435,4.0794c-1.31504,2.56138 -4.0047,4.50293 -6.16439,1.98755c-0.74931,-0.87271 -2.4886,0.81283 -3.44629,0.17571c-1.22688,-0.81618 -1.47707,-3.187 -1.19738,-4.33211c0.1293,-0.52935 -1.1227,0.17706 -1.63473,-0.00939c-0.68939,-0.25102 -0.83251,-1.38561 -1.54265,-1.5699c-1.58844,-0.41221 -1.91825,2.97228 -5.60284,1.50676c-1.08755,-0.43256 -2.0878,-2.59386 -2.26592,-3.74181c-0.1034,-0.66636 1.89505,-2.34989 1.75831,-2.4819c-0.33204,-0.32056 -2.41781,2.43611 -2.86274,2.50012c-1.07039,0.15398 -2.04614,-0.75585 -2.95061,-1.34861c-0.7991,-0.52371 -1.47118,1.65457 -2.41935,1.53699c-0.83766,-0.10388 -9.11833,-2.13901 -9.3588,-2.69363c-0.29319,-0.67617 -0.50132,-1.83955 -0.21985,-2.50984c0.10116,-0.2409 1.28788,-1.63822 1.10562,-1.6507c-0.64683,-0.0443 -4.73333,2.63964 -6.28913,-0.94852c-0.84603,-1.95121 1.597,-3.36808 1.88916,-4.96572c0.18042,-0.98663 -1.38931,1.4514 -2.00912,2.23996c-0.47606,0.60568 -1.64434,1.02915 -2.41091,0.91593c-2.65037,-0.39143 -1.46668,-2.78011 -1.75034,-4.37034c-0.1309,-0.73388 -1.6585,0.30495 -2.22962,-0.17416c-1.39637,-1.17143 -0.95736,-2.27544 -0.82026,-3.80767c0.06277,-0.70158 -1.02304,2.57421 -2.67104,2.44549c-0.66834,-0.05221 -1.52744,-1.23889 -1.89365,-0.67735c-1.78288,2.73384 -1.30466,4.05205 -4.95454,2.90325c-0.35221,-0.11085 -1.10369,0.609 -1.45042,0.31812c-3.83758,-3.21941 0.56459,-7.95794 1.39782,-11.88038c0.29392,-1.38361 -0.24092,-3.62835 1.09246,-4.10042c0.55905,-0.64772 1.4363,-0.99143 2.33922,-0.82817c0.80059,0.14475 1.44272,0.65579 1.7849,1.32915c0.05963,0.089 0.10891,0.18511 0.14529,0.29012z" fill="#ba587e" stroke="none" stroke-width="0.5"/></g><g stroke="#000000" stroke-linecap="butt"><path d="M331.2417,162.51901c-5.08135,28.10326 -20.66046,40.25578 -36.96463,37.30782c-16.30417,-2.94796 -27.15935,-19.88007 -22.07801,-47.98332c5.08135,-28.10326 22.41774,-48.49565 38.72191,-45.54769c16.30417,2.94796 25.40208,28.11993 20.32073,56.22319z" fill="#f0f0f0" stroke-width="2"/><path d="M288.71619,134.93008c-9.25729,27.01695 22.63864,67.14087 6.33447,64.19292c-16.30417,-2.94796 -27.15935,-19.88007 -22.07801,-47.98332c5.08135,-28.10326 29.12684,-55.26812 15.74354,-16.2096z" fill="#9a99ff" stroke-width="0"/></g><path d="M325.94451,169.92797c-2.81516,15.56975 -9.7114,27.35726 -15.40317,26.32813c-5.69177,-1.02913 -8.02372,-14.48518 -5.20856,-30.05494c2.81516,-15.56975 9.7114,-27.35726 15.40317,-26.32813c5.69177,1.02913 8.02372,14.48518 5.20856,30.05494z" fill="#000000" stroke="none" stroke-width="0" stroke-linecap="butt"/><g stroke="#000000" stroke-linecap="butt"><path d="M331.65624,132.0723c2.56817,10.86003 3.33061,34.00839 -12.12897,31.21315c-15.45959,-2.79525 -41.50355,-31.27664 -35.32046,-39.92981c5.88311,-8.23335 10.49236,-19.8691 25.95195,-17.07385c15.45959,2.79525 19.04999,15.44075 21.49748,25.7905z" fill="#a100fe" stroke-width="2"/><path d="M330.80974,131.55927c2.41853,10.83298 3.51361,33.55906 -11.41885,30.85913c-14.93246,-2.69994 -40.44245,-30.60237 -34.41187,-39.28311c5.73801,-8.25958 6.28242,2.11355 21.21487,4.81349c14.93246,2.69994 22.31094,-6.71349 24.61583,3.61048z" fill="#99008e" stroke-width="0"/></g><g data-paper-data="{&quot;index&quot;:null}" stroke="#000000" stroke-linecap="butt"><path d="M373.81539,116.61364c16.30417,2.94796 25.40208,28.11993 20.32073,56.22319c-5.08134,28.10325 -21.17838,40.16213 -37.48256,37.21418c-16.30417,-2.94796 -26.64143,-19.78641 -21.56009,-47.88967c5.08135,-28.10326 22.41774,-48.49565 38.72191,-45.54769z" fill="#f0f0f0" stroke-width="2"/><path d="M393.65797,171.90663c-5.08134,28.10325 -21.17838,40.16213 -37.48256,37.21418c-16.30417,-2.94796 27.62254,-29.3624 28.41195,-57.91042c1.14126,-41.27201 14.15195,-7.40701 9.0706,20.69624z" fill="#9a99ff" stroke-width="0"/></g><path d="M381.47701,150.23296c5.69177,1.02913 8.02372,14.48518 5.20856,30.05494c-2.81516,15.56975 -9.7114,27.35726 -15.40317,26.32813c-5.69177,-1.02913 -8.02372,-14.48518 -5.20856,-30.05494c2.81516,-15.56975 9.7114,-27.35726 15.40317,-26.32813z" data-paper-data="{&quot;index&quot;:null}" fill="#000000" stroke="none" stroke-width="0" stroke-linecap="butt"/><g data-paper-data="{&quot;index&quot;:null}" stroke="#000000" stroke-linecap="butt"><path d="M345.36678,133.49714c5.91672,-8.83742 13.7079,-19.42502 29.16748,-16.62977c15.45959,2.79525 15.7025,15.30831 18.33003,25.08047c2.76151,10.27044 -30.39678,27.80627 -45.85636,25.01103c-15.45959,-2.79525 -7.84961,-24.18858 -1.64116,-33.46172z" fill="#a100fe" stroke-width="2"/><path d="M346.33933,133.31301c5.77413,-8.8632 9.38913,2.53795 24.32158,5.23789c14.93246,2.69994 19.07477,-6.82579 21.55721,2.92013c2.60901,10.24286 -30.03773,27.14757 -44.97018,24.44763c-14.93246,-2.69994 -6.96743,-23.30545 -0.90862,-32.60564z" fill="#99008e" stroke-width="0"/></g><path d="M371.63632,338.87009c0,11.6628 -14.51982,21.11737 -32.43092,21.11737c-17.9111,0 -32.43092,-9.45457 -32.43092,-21.11737c0,-2.33142 -0.03339,-13.76009 1.08979,-15.13837c4.49546,-5.51647 17.81784,5.26144 32.14847,5.26144c17.9111,0 31.62358,-1.78588 31.62358,9.87692z" fill="#000082" stroke="#000000" stroke-width="2" stroke-linecap="butt"/><path d="M369.75004,336.13779c0,6.30841 -13.89058,10.1901 -31.80169,10.1901c-17.9111,0 -30.16566,-2.95748 -30.16566,-9.26589c0,-1.26107 -0.03338,-12.52602 1.0898,-13.27153c4.49546,-2.98386 15.55258,5.7726 29.88321,5.7726c17.9111,0 30.99434,0.26631 30.99434,6.57472z" fill="#2e0048" stroke="#000000" stroke-width="0" stroke-linecap="butt"/><path d="M328.64938,338.22528c0,11.6628 -14.51982,21.11737 -32.43092,21.11737c-17.9111,0 -32.43092,-9.45457 -32.43092,-21.11737c0,-2.33142 -0.03339,-13.76009 1.08979,-15.13837c4.49546,-5.51647 17.81784,5.26144 32.14847,5.26144c17.9111,0 31.62358,-1.78588 31.62358,9.87692z" fill="#000082" stroke="#000000" stroke-width="2" stroke-linecap="butt"/><path d="M326.7631,335.49289c0,6.30841 -13.89058,10.1901 -31.80169,10.1901c-17.9111,0 -30.16566,-2.95748 -30.16566,-9.26589c0,-1.26107 -0.03338,-12.52602 1.0898,-13.27153c4.49546,-2.98386 15.55258,5.7726 29.88321,5.7726c17.9111,0 30.99434,0.26631 30.99434,6.57472z" fill="#2e0048" stroke="#000000" stroke-width="0" stroke-linecap="butt"/><g><g><path d="M312.37625,247.67557c-13.90089,5.86412 -24.96872,2.29855 -31.40962,-11.17824c-5.03751,-10.54033 1.50675,-27.4281 15.40768,-33.29222c13.90095,-5.86418 27.78844,-1.14168 33.59415,12.62069c0.90792,2.15215 1.10709,4.40785 1.30823,6.46632c1.08502,11.10466 -7.17333,20.43639 -18.9004,25.38348z" fill="#485e84" stroke="#000000" stroke-width="2" stroke-linecap="butt"/><path d="M286.55925,212.86168c0,0 1.8241,5.45929 3.76855,5.94151c18.65145,4.62574 31.95924,0.14011 36.24749,-1.67939c0.97431,-0.41337 1.13028,-1.52537 1.13028,-1.52537c0,0 1.02157,1.85053 1.51506,4.54691c0.52511,2.86917 0.49647,6.67748 -0.47799,9.59219c-1.11314,3.32943 -5.70459,10.28837 -5.70459,10.28837l-17.79565,11.05322c0,0 -12.85187,-3.97299 -14.57482,-5.28766c-1.68794,-1.28793 -3.31588,-3.29605 -5.1327,-5.36146c-2.82086,-3.20693 -4.44853,-7.44453 -4.68336,-10.31503c-0.29966,-3.66338 0.83727,-8.18659 2.39355,-11.67091c1.44838,-3.24282 3.31422,-5.58226 3.31422,-5.58226z" fill="#343545" stroke="none" stroke-width="0" stroke-linecap="butt"/><path d="M298.18725,234.35485c0,0 -5.15278,-7.40587 -4.91273,-12.55587c0.30383,-6.51937 4.49521,-18.78862 4.49521,-18.78862" fill="none" stroke="#000000" stroke-width="1" stroke-linecap="round"/><path d="M325.78232,210.10557c0,0 1.3279,7.02615 1.09502,11.31771c-0.23503,4.33253 -4.14242,13.21428 -4.14242,13.21428" fill="none" stroke="#000000" stroke-width="1" stroke-linecap="round"/><path d="M289.68663,241.28995c0,0 -5.40284,-7.52302 -4.88884,-13.08941c0.78873,-8.54143 4.07417,-19.66357 4.07417,-19.66357" fill="none" stroke="#000000" stroke-width="1" stroke-linecap="round"/><path d="M280.12536,229.36603c0,0 8.53618,-15.05356 25.87024,-16.8068c18.98727,-1.92047 25.38899,14.0954 25.38899,14.0954" fill="none" stroke="#000000" stroke-width="1" stroke-linecap="round"/><path d="M282.62336,238.5565c0,0 11.20805,-13.82902 26.50064,-15.40902c12.55662,-1.2973 19.21087,11.68881 19.21087,11.68881" fill="none" stroke="#000000" stroke-width="1" stroke-linecap="round"/><path d="M311.55427,205.78415c-1.1893,-0.18116 -2.03705,-1.09128 -1.89362,-2.03276c0.14339,-0.94149 0.93368,-0.84446 2.12295,-0.66328c1.1893,0.18116 2.32713,0.37791 2.18368,1.3194c-0.14339,0.94149 -1.22377,1.55784 -2.41302,1.37665z" fill="#8fbbbe" stroke="none" stroke-width="0" stroke-linecap="butt"/><path d="M318.52573,207.84766c-0.55419,0.23376 -1.28774,-0.25057 -1.63843,-1.08185c-0.35068,-0.8313 -0.37911,-1.2191 0.17508,-1.45291c0.55419,-0.23376 1.45498,0.18003 1.80563,1.0113c0.35068,0.8313 0.21184,1.28968 -0.34236,1.52345z" fill="#8fbbbe" stroke="none" stroke-width="0" stroke-linecap="butt"/><path d="M304.7054,204.80594c-0.86394,0.26012 -1.7048,0.00411 -1.87824,-0.57184c-0.17345,-0.5759 0.59801,-0.75197 1.46192,-1.01209c0.86394,-0.26012 1.49316,-0.50584 1.66658,0.0701c0.17345,0.5759 -0.38636,1.25373 -1.25027,1.51382z" fill="#8fbbbe" stroke="none" stroke-width="0" stroke-linecap="butt"/><path d="M283.96433,216.51737c0,0 7.62587,-6.82098 14.74131,-9.42687c4.03407,-1.47739 8.09956,-1.38688 11.18106,-1.28373c2.72509,0.0912 8.68454,2.86802 13.0248,5.4681c3.1955,1.91429 5.39242,3.874 5.39242,3.874" fill="none" stroke="#000000" stroke-width="0.5" stroke-linecap="round"/><path d="M314.4886,201.07959c0,0 3.73178,9.89202 3.65854,15.29681c-0.06167,4.55365 -3.73493,14.87701 -3.73493,14.87701" fill="none" stroke="#000000" stroke-width="1" stroke-linecap="round"/><path d="M308.59278,231.93529c0,0 -3.31062,-9.08121 -3.73903,-13.5831c-0.7522,-7.90449 2.98702,-17.62022 2.98702,-17.62022" fill="none" stroke="#000000" stroke-width="1" stroke-linecap="round"/></g><g stroke="#000000" stroke-linecap="butt"><path d="M282.76349,243.94495c33.19781,-3.03706 39.60667,4.1728 40.34381,12.23052c0.73715,8.05772 -25.57744,17.05181 -58.77526,20.08887c-33.19782,3.03704 9.41244,-55.27125 8.6753,-63.32897c3.32894,-6.2647 7.73032,-1.44541 8.78838,6.34155c1.30482,9.60312 -1.86986,24.92766 0.96777,24.66806z" fill="#0d69be" stroke-width="2"/><path d="M306.60278,229.62572c14.24936,-1.30357 26.88467,9.4883 28.22179,24.10437c1.33712,14.61607 -9.1303,27.52148 -23.37964,28.82506c-14.24936,1.30357 -26.88467,-9.48833 -28.22179,-24.10438c-1.33712,-14.61607 9.13029,-27.52145 23.37967,-28.82502z" fill="#faddbf" stroke-width="2"/><path d="M298.60165,270.26105c14.24936,-1.30357 33.9959,-31.4623 35.33305,-16.84624c1.33712,14.61607 -9.1303,27.52146 -23.37967,28.82502c-14.24936,1.30357 -26.20276,-10.67522 -11.95341,-11.97879z" fill="#ef8b89" stroke-width="0"/></g></g><path d="M260.03828,163.38297c0.06693,-0.2513 0.37965,-1.13365 1.43716,-0.94244c1.23006,0.22241 1.00765,1.45246 1.00765,1.45246l-0.1088,0.39198c-0.98601,2.18324 -2.20567,4.23387 -3.26584,6.37821c-1.14175,1.63594 -2.42257,3.78582 -4.25042,4.74562c-3.70143,1.94359 -7.83371,-1.63954 -8.69524,-5.14943c-1.10261,-4.49205 0.48655,-9.91079 2.46825,-13.9836c0,0 0.55177,-1.12162 1.6734,-0.56985c1.12162,0.55177 0.56985,1.6734 0.56985,1.6734c-1.42365,2.85653 -2.96262,7.28718 -2.62796,10.53572c0.21715,2.10785 1.72741,5.92832 4.57125,5.6382c1.7938,-0.183 3.23957,-2.88575 4.13921,-4.163c0.99055,-2.02449 2.14478,-3.95449 3.08148,-6.00725z" fill="#000000" stroke="none" stroke-width="0.5" stroke-linecap="butt"/></g></g></svg>