<svg version="1.1" xmlns="http://www.w3.org/2000/svg" xmlns:xlink="http://www.w3.org/1999/xlink" width="269.06238" height="314.08872" viewBox="0,0,269.06238,314.08872"><g transform="translate(-176.51136,-16.48939)"><g data-paper-data="{&quot;isPaintingLayer&quot;:true}" fill-rule="nonzero" stroke-linecap="butt" stroke-linejoin="miter" stroke-miterlimit="10" stroke-dasharray="" stroke-dashoffset="0" style="mix-blend-mode: normal"><g data-paper-data="{&quot;index&quot;:null}" stroke="#000000"><path d="M430.30677,221.78493l-45.31794,-11.45825l14.01818,-48.333l45.31794,11.45825z" fill="#ffcaa0" stroke-width="2"/><g><path d="M385.11289,210.528l-62.48848,-15.7997l14.20089,-48.96296l62.48848,15.7997z" fill="#0000c0" stroke-width="2"/><path d="M385.51764,209.87392l-32.72962,-8.27541c0,0 17.84328,-11.20875 20.20082,-19.33723c2.2353,-7.70701 -6.40281,-28.23661 -6.40281,-28.23661l32.72963,8.27541c0,0 -4.5383,15.64752 -6.82561,23.53388c-2.31177,7.9707 -6.97239,24.03998 -6.97239,24.03998z" fill="#56006b" stroke-width="0"/></g><path d="M430.01084,220.90578l-45.31794,-11.45825l34.31176,-4.6334l25.02433,-32.24133z" fill="#ff6e5b" stroke-width="0"/></g><g data-paper-data="{&quot;index&quot;:null}" stroke="#000000"><path d="M298.86371,329.15187v-86.58871h61.17899v86.58871z" fill="#273750" stroke-width="2"/><path d="M299.65105,328.42616v-86.58871l18.42709,47.30394l42.75189,39.28477z" fill="#1f1e2e" stroke-width="0"/></g><path d="M246.87899,242.16865v-109.15924h113.80147v109.15924z" data-paper-data="{&quot;index&quot;:null}" fill="#0000c0" stroke="#000000" stroke-width="2"/><g data-paper-data="{&quot;index&quot;:null}" stroke="#000000"><path d="M246.25776,329.57811v-86.58871h61.17899v86.58871z" fill="#273750" stroke-width="2"/><path d="M247.04514,328.85237v-86.58871l18.42709,47.30394l42.75189,39.28477z" fill="#1f1e2e" stroke-width="0"/></g><g data-paper-data="{&quot;index&quot;:null}" stroke="#000000"><path d="M177.80166,230.64162l16.07211,-43.26778l47.98377,17.0995l-16.07211,43.26778z" fill="#ffcaa0" stroke-width="2"/><g><path d="M193.65628,187.48012l22.16168,-59.66152l48.60918,17.32239l-22.16168,59.66152z" fill="#0000c0" stroke-width="2"/><path d="M194.28486,187.92074l11.60764,-31.24894c0,0 9.71876,18.16196 17.78851,21.03769c7.65133,2.72663 29.44157,-4.20677 29.44157,-4.20677l-11.60764,31.24895c0,0 -15.53445,-5.53586 -23.36383,-8.32593c-7.9131,-2.81992 -23.86627,-8.505 -23.86627,-8.505z" fill="#56006b" stroke-width="0"/></g><path d="M178.72764,230.41669l16.07211,-43.26778l1.41663,33.71271l30.495,26.65457z" fill="#ff6e5b" stroke-width="0"/></g><g data-paper-data="{&quot;index&quot;:null}" stroke="#000000"><path d="M273.77207,241.71856v-107.12749h61.17899v107.12749z" fill="#ffffff" stroke-width="2"/><path d="M274.55945,240.82072v-107.12749l18.42709,58.5244l42.75189,48.60309z" fill="#8ebbfc" stroke-width="0"/></g><g><g data-paper-data="{&quot;index&quot;:null}" stroke="#000000"><path d="M403.87803,111.1966c-7.58351,29.98332 -25.27536,51.5226 -39.51587,48.1093c-14.2405,-3.41329 -19.63705,-30.48659 -12.05354,-60.46991c7.58351,-29.98332 25.27536,-51.5226 39.51587,-48.1093c14.2405,3.41329 19.63705,30.48659 12.05354,60.46991z" fill="#01930e" stroke-width="2"/><path d="M363.59236,91.61825c-7.58351,29.98332 15.5029,70.79029 1.2624,67.377c-14.24049,-3.41328 -19.63705,-30.48659 -12.05354,-60.46991c7.58351,-29.98332 18.37465,-36.89042 10.79114,-6.90709z" fill="#31525b" stroke-width="0"/></g><g data-paper-data="{&quot;index&quot;:null}" stroke="#000000"><path d="M231.89345,68.42427c0.32412,-1.2815 7.3089,-25.28453 7.72729,-26.5226c10.57244,-31.2853 44.06773,-25.71161 85.29829,-15.82912c38.72962,9.28305 71.11573,21.53074 69.57814,52.06005c-0.16407,3.25758 -6.56497,24.24991 -7.3859,27.49563c-2.93428,11.6014 -6.47951,37.79624 -15.97783,45.31053c-18.06294,14.28993 -48.95695,3.77425 -77.04777,-2.9588c-29.70095,-7.11898 -57.62905,-12.84408 -65.80721,-35.21924c-3.62396,-9.91501 1.00054,-33.99963 3.61497,-44.33644z" fill="#ffcaa0" stroke-width="2"/><path d="M230.11013,68.00691c0.32412,-1.2815 7.3089,-25.28453 7.72729,-26.5226c6.00676,-17.77481 -7.59221,57.97636 33.66515,89.515c32.33208,24.71585 102.32603,16.55165 98.50725,19.57274c-18.06294,14.28993 -49.61664,3.72355 -77.70742,-3.00949c-29.70095,-7.11898 -57.62905,-12.84408 -65.80721,-35.21924c-3.62396,-9.91501 1.00054,-33.99963 3.61497,-44.33644z" fill="#ff6e5b" stroke-width="0"/></g><g data-paper-data="{&quot;index&quot;:null}" stroke="#000000"><path d="M276.06765,78.51402c-7.58351,29.98332 -25.27536,51.5226 -39.51587,48.1093c-14.2405,-3.41329 -19.63705,-30.48659 -12.05354,-60.46991c7.58351,-29.98332 25.27536,-51.5226 39.51587,-48.1093c14.2405,3.41329 19.63705,30.48659 12.05354,60.46991z" fill="#01930e" stroke-width="2"/><path d="M235.78198,58.93567c-7.58351,29.98332 15.5029,70.79029 1.2624,67.377c-14.24049,-3.41328 -19.63705,-30.48659 -12.05354,-60.46991c7.58351,-29.98332 18.37465,-36.89042 10.79114,-6.90709z" fill="#31525b" stroke-width="0"/></g><g data-paper-data="{&quot;index&quot;:null}"><path d="M411.82586,74.73033c-4.1587,16.44246 -47.70747,20.14164 -97.26888,8.26233c-49.56142,-11.87932 -86.3676,-34.83865 -82.2089,-51.28111c4.1587,-16.44246 47.70745,-20.14164 97.26887,-8.26232c49.56142,11.87932 86.36761,34.83864 82.20891,51.28111z" fill="#000000" stroke="none" stroke-width="NaN"/><path d="M411.03555,74.88088c-4.1587,16.44246 -47.70747,20.14164 -97.26888,8.26233c-49.56142,-11.87932 -86.3676,-34.83865 -82.2089,-51.28111c4.1587,-16.44246 39.48531,18.20209 89.04674,30.08141c49.56142,11.87932 94.58975,-3.50509 90.43105,12.93737z" fill="#ff0000" stroke="#000000" stroke-width="2"/><path d="M403.63813,82.18929c-1.14444,4.52482 -40.83677,13.40055 -90.06087,0.18755c-17.22546,-4.62375 -33.20204,-10.06455 -45.84654,-16.01208c-23.47465,-11.04161 -36.65766,-22.67623 -33.43363,-25.94187c3.32985,-3.37281 32.60907,24.48242 82.17049,36.36172c49.56142,11.87932 88.31498,0.87983 87.17054,5.40467z" fill="#900056" stroke="#000000" stroke-width="0"/></g><path d="M328.78211,116.11544c-3.70107,14.63311 -9.52337,25.81921 -13.00448,24.98482c-3.48111,-0.83439 -3.3028,-13.37327 0.39828,-28.00638c3.70107,-14.63311 9.52338,-25.81919 13.00448,-24.98481c3.48111,0.83439 3.3028,13.37327 -0.39828,28.00639z" data-paper-data="{&quot;index&quot;:null}" fill="#000000" stroke="none" stroke-width="0"/><path d="M354.81296,118.08737c-3.68627,14.57459 -9.34804,25.74882 -12.64593,24.95835c-3.2979,-0.79046 -2.98305,-13.2463 0.70322,-27.82089c3.68627,-14.57459 9.34804,-25.74882 12.64593,-24.95835c3.2979,0.79046 2.98305,13.2463 -0.70322,27.82089z" data-paper-data="{&quot;index&quot;:null}" fill="#000000" stroke="none" stroke-width="0"/><path d="M293.75863,122.13234c0.08371,-0.24048 0.44908,-1.0572 1.48839,-0.8081c1.21425,0.29105 0.91992,1.45479 0.91992,1.45479l-0.16526,0.43862c-0.96026,1.56946 -1.88168,3.15763 -2.89147,4.69774c-0.97549,1.27189 -1.81216,2.79577 -2.8642,3.99433c-2.72309,3.1023 -7.54575,1.93461 -8.12692,-2.17325c-0.59747,-4.22312 2.37801,-9.82785 4.87218,-13.09089c0,0 0.73873,-0.96229 1.74637,-0.24604c1.00764,0.71626 0.26891,1.67856 0.26891,1.67856c-2.18699,2.83521 -3.98578,6.72899 -4.44608,10.28014c-0.51025,3.93637 2.93931,3.1297 4.52028,0.83047c0.69391,-1.00916 1.22289,-1.67324 1.96158,-2.63459c0.94904,-1.4489 1.8154,-2.94439 2.7163,-4.4218z" data-paper-data="{&quot;index&quot;:null}" fill="#000000" stroke="none" stroke-width="0.5"/></g></g></g></svg>