<svg version="1.1" xmlns="http://www.w3.org/2000/svg" xmlns:xlink="http://www.w3.org/1999/xlink" width="179.39565" height="324.6645" viewBox="0,0,179.39565,324.6645"><g transform="translate(-212.80556,-36.32289)"><g data-paper-data="{&quot;isPaintingLayer&quot;:true}" fill-rule="nonzero" stroke-linejoin="miter" stroke-miterlimit="10" stroke-dasharray="" stroke-dashoffset="0" style="mix-blend-mode: normal"><g stroke="#000000" stroke-linecap="butt"><path d="M334.04768,226.33886c-5.75326,32.83624 -16.87812,58.32326 -24.84809,56.92685c-7.96997,-1.39642 -9.76696,-29.1475 -4.01371,-61.98374c5.75326,-32.83624 16.87812,-58.32326 24.84809,-56.92685c7.96997,1.39642 9.76696,29.1475 4.0137,61.98374z" fill="#0d69be" stroke-width="2"/><path d="M339.14234,274.28132c-2.46944,14.09415 -16.19093,23.46631 -30.6478,20.93332c-14.45686,-2.53299 -24.1746,-16.01195 -21.70515,-30.1061c2.46945,-14.09415 16.19093,-23.46631 30.6478,-20.93332c14.45687,2.53299 24.17459,16.01196 21.70515,30.1061z" fill="#faddbf" stroke-width="2"/><path d="M302.01517,255.92861c-2.46945,14.09415 21.47335,41.04259 7.01649,38.5096c-14.45686,-2.53299 -24.17459,-16.01195 -21.70515,-30.1061c2.46945,-14.09415 17.1581,-22.49764 14.68866,-8.40349z" fill="#ef8b89" stroke-width="0"/></g><g stroke="#000000" stroke-linecap="butt"><path d="M307.76518,340.83534v-95.29492h29.49199v95.29492z" fill="#73fffc" stroke-width="2"/><path d="M307.43943,340.21741l1.32626,-93.78573c0,0 5.20288,68.11227 6.3799,77.52842c0.2602,2.08162 2.52228,2.78987 2.52228,2.78987l18.60659,13.13896z" fill="#59a9e6" stroke-width="0"/></g><g stroke="#000000" stroke-linecap="butt"><path d="M268.4238,338.41281v-95.29492h29.49199v95.29492z" fill="#73fffc" stroke-width="2"/><path d="M268.09805,337.79489l1.32626,-93.78573c0,0 5.20288,68.11227 6.3799,77.52842c0.2602,2.08162 2.52228,2.78987 2.52228,2.78987l18.60659,13.13896z" fill="#59a9e6" stroke-width="0"/></g><g stroke="#000000" stroke-linecap="butt"><path d="M335.22917,235.69587c0,13.80271 10.04743,36.74388 4.95001,46.45977c-6.2338,11.88187 -28.61241,9.09579 -38.9397,9.09579c-13.66287,0 -32.94407,4.17018 -38.34426,-14.83216c-2.01935,-7.10576 4.35457,-32.37264 4.35457,-40.7234c0,-30.68249 15.2177,-55.55556 33.98969,-55.55556c18.77199,0 33.98969,24.87307 33.98969,55.55556z" fill="#0d69be" stroke-width="2"/><path d="M283.96554,251.27245c0,13.80271 62.04198,20.54886 56.94455,30.26474c-6.2338,11.88186 -28.61241,9.09579 -38.9397,9.09579c-13.66287,0 -32.94406,4.17018 -38.34425,-14.83215c-2.01936,-7.10576 4.35457,-32.37265 4.35457,-40.7234c0,-9.45244 3.34855,-28.59801 5.51953,-29.96813c5.94391,-16.76415 10.4653,25.13995 10.4653,46.16315z" fill="#10157d" stroke-width="0"/></g><g stroke-linecap="butt"><g stroke="#000000"><g><path d="M216.07173,115.33494c5.26153,-46.49402 47.2177,-79.91957 93.71172,-74.65804c46.49402,5.26153 79.91957,47.2177 74.65804,93.71172c-5.26153,46.49402 -47.2177,79.91957 -93.71172,74.65804c-46.49402,-5.26153 -79.91957,-47.2177 -74.65804,-93.71172z" fill="#faddbf" stroke-width="2"/><path d="M216.39881,114.49689c1.69282,-14.9588 13.214,-39.77757 18.05586,-42.46432c0.55295,-0.30684 6.75166,-8.20311 14.97974,-14.03137c10.22693,-7.24414 22.88385,-12.66348 23.46859,-12.39899c7.62907,3.45077 -24.70818,62.47276 -26.32093,87.74161c-0.00385,0.06026 2.16409,20.07223 3.72295,20.69035c2.33392,5.03686 6.89938,20.0564 16.90878,28.37483c18.6537,15.50237 46.41846,25.05872 44.88771,25.39445c-2.44865,0.53704 -15.0202,1.08693 -21.04465,0.40517c-46.49402,-5.26153 -79.91957,-47.2177 -74.65804,-93.71172z" fill="#ef8b89" stroke-width="0"/><path d="M383.97289,133.87447c-1.30713,11.55061 -3.32663,15.36408 -3.66696,13.46203c-0.3472,-1.94045 0.91803,-9.77237 -7.33795,-15.57316c-2.00059,-1.40565 -10.84724,5.08857 -13.41945,3.56151c-1.61564,-0.95918 -7.45306,-11.08392 -9.27858,-11.97085c-1.27637,-0.62013 -13.31319,6.92445 -14.65318,6.31928c-3.342,-1.50931 -10.63354,-12.6495 -14.28697,-13.72515c-2.01183,-0.59233 -10.55641,10.73078 -12.62351,10.24139c-2.66579,-0.63114 -8.64769,-13.12408 -11.36772,-13.4319c-7.23368,-0.8186 -8.22069,6.12524 -14.10068,11.50438c-3.82096,3.4955 -12.43204,-14.54207 -16.03477,-10.48627c-4.47417,5.03682 -8.88739,9.88101 -13.50629,12.98091c-3.6237,2.432 -12.14403,-11.5356 -15.29614,-9.25783c-15.21927,10.99773 -24.40392,18.0138 -22.36054,-0.04278c4.10887,-36.3084 43.93668,-3.29379 87.87452,-19.98064c42.05685,-15.97249 84.16707,0.09068 80.05821,36.39908z" fill="#ef8b89" stroke-width="0"/></g><path d="M386.43158,125.78877c-2.64065,23.3344 5.51025,9.39451 -11.29733,-2.14422c-2.05676,-1.412 -11.11437,5.05834 -13.75798,3.5232c-1.66048,-0.96425 -7.67951,-11.10955 -9.55513,-12.00215c-1.3114,-0.62409 -13.63906,6.88757 -15.01567,6.27826c-3.43335,-1.51965 -10.94732,-12.68501 -14.69893,-13.77177c-2.0659,-0.59845 -10.79937,10.70329 -12.92167,10.20764c-2.73697,-0.63919 -8.91123,-13.15391 -11.7029,-13.46983c-7.42422,-0.84017 -8.41646,6.10308 -14.43354,11.46671c-3.91005,3.48542 -12.79817,-14.5835 -16.48266,-10.53695c-4.5757,5.02533 -9.08945,9.85814 -13.81934,12.94549c-3.71078,2.42214 -12.49381,-11.57519 -15.7212,-9.30593c-15.58272,10.9566 -24.9856,17.94797 -22.94222,-0.1086c4.10887,-36.3084 48.747,-76.25913 94.38255,-71.09475c45.63554,5.16438 82.0749,51.70452 77.96604,88.01292z" fill="#873412" stroke-width="2"/><path d="M386.31617,124.6055c-2.64065,23.3344 5.51025,9.39451 -11.29733,-2.14422c-2.05676,-1.412 -11.11437,5.05834 -13.75798,3.5232c-1.66048,-0.96425 -7.67951,-11.10955 -9.55514,-12.00215c-1.3114,-0.62409 -13.63906,6.88757 -15.01567,6.27826c-3.43335,-1.51965 -10.94732,-12.68501 -14.69893,-13.77177c-2.0659,-0.59845 -10.79937,10.70329 -12.92167,10.20764c-2.73697,-0.63919 -8.91123,-13.15391 -11.7029,-13.46983c-7.42422,-0.84017 -8.41646,6.10308 -14.43354,11.46671c-3.91005,3.48542 -12.79817,-14.5835 -16.48266,-10.53695c-4.5757,5.02533 -9.08945,9.85814 -13.81935,12.94549c-3.71078,2.42214 -12.49381,-11.57519 -15.7212,-9.30593c-15.58272,10.9566 -24.9856,17.94797 -22.94222,-0.1086c4.10887,-36.3084 45.06967,-3.16557 90.10112,-19.72867c43.10364,-15.85402 86.35633,0.33843 82.24746,36.64683z" fill="#741d23" stroke-width="0"/></g><path d="M309.66037,48.35797c0.05163,0.12221 0.08995,0.26086 0.11726,0.41174c0.06446,0.2681 0.08529,0.55139 0.05536,0.8409c-0.01975,1.14134 -0.32726,2.49236 -0.33785,2.9864c-0.01391,0.64907 1.2668,-0.60873 1.89562,-0.44728c0.38519,0.0989 0.69992,0.8457 1.02302,0.61384c1.9608,-1.40709 3.87549,-4.06881 6.43005,-2.14614c0.84602,0.63675 0.45939,1.95472 0.94347,2.69861c0.0407,0.06253 2.60802,0.15767 3.13994,0.75419c0.91653,1.02786 0.06397,2.27349 0.47209,3.31866c0.13059,0.33445 0.62058,-0.37484 0.96326,-0.48194c1.52515,-0.47659 4.19751,-1.54436 5.82678,-0.35186c0.85849,0.62835 0.49779,2.20954 0.95179,2.70564c0.79594,0.86972 2.07479,-1.13901 3.18181,-1.54452c1.53108,-0.56085 2.17499,0.21732 3.3118,1.23776c0.19607,0.176 0.00526,4.159 0.97029,5.43333c0.54244,0.7163 1.73764,-0.66752 2.63205,-0.58165c0.8924,0.08568 2.7768,-0.428 3.18434,-0.2776c0.81749,0.30168 1.37714,1.80717 2.17324,1.45287c4.06461,-1.80891 8.78144,0.18288 6.59918,4.9277c-0.27616,0.60047 1.37806,-0.42163 1.9776,-0.14344c0.23243,0.10784 1.46508,1.2545 1.70051,1.19459c1.53989,-0.39186 2.5538,-0.99879 4.13529,-0.82371c1.31341,0.1454 2.49026,1.02721 2.63984,2.43342c0.07862,0.73903 -1.2298,1.99751 -0.50717,2.17113c1.70334,0.40926 4.33029,1.43653 3.27757,3.87109c-1.14274,2.64275 -3.6981,4.75795 -6.01943,2.39093c-0.80539,-0.82123 -2.42939,0.97565 -3.42712,0.40327c-1.27817,-0.73325 -1.68463,-3.08232 -1.48129,-4.24342c0.094,-0.53674 -1.10853,0.25093 -1.63177,0.09876c-0.70448,-0.20488 -0.92233,-1.32751 -1.64311,-1.46443c-1.61223,-0.30624 -1.71746,3.09265 -5.49091,1.87404c-1.11378,-0.35968 -2.25479,-2.45009 -2.50846,-3.58374c-0.14725,-0.65806 1.73547,-2.47009 1.5903,-2.59277c-0.35252,-0.2979 -2.25139,2.5907 -2.69111,2.68399c-1.05786,0.22444 -2.09166,-0.61886 -3.03335,-1.1505c-0.83199,-0.4697 -1.35852,1.74825 -2.31239,1.69365c-0.8427,-0.04825 -9.23984,-1.53121 -9.51647,-2.06872c-0.33727,-0.6553 -0.62189,-1.80236 -0.38538,-2.48981c0.085,-0.24706 1.1767,-1.71982 0.99402,-1.72021c-0.64834,-0.00142 -4.54837,2.94694 -6.3381,-0.53046c-0.97324,-1.89098 1.37073,-3.46633 1.55658,-5.0798c0.11477,-0.9964 -1.29027,1.54011 -1.85657,2.36794c-0.43496,0.63584 -1.57267,1.13566 -2.34504,1.07339c-2.67046,-0.21527 -1.64735,-2.67701 -2.03557,-4.245c-0.17916,-0.72362 -1.6347,0.41398 -2.23625,-0.02631c-1.4708,-1.07651 -1.10576,-2.20714 -1.07031,-3.74508c0.01623,-0.70419 -0.85053,2.63624 -2.50344,2.6168c-0.67033,-0.00789 -1.60604,-1.13515 -1.9343,-0.55062c-1.59815,2.84578 -1.03379,4.12947 -4.75167,3.2246c-0.35877,-0.08732 -1.06099,0.68067 -1.42621,0.41336c-4.04212,-2.95853 0.037,-7.97786 0.60896,-11.94682c0.20176,-1.40002 -0.48038,-3.60447 0.81885,-4.1637c0.51498,-0.68328 1.36758,-1.08426 2.27932,-0.98108c0.80841,0.09148 1.48294,0.55893 1.86891,1.20818c0.06538,0.08486 0.12092,0.1775 0.16416,0.27987z" fill="#ba587e" stroke="none" stroke-width="0.5"/></g><g stroke="#000000" stroke-linecap="butt"><path d="M327.19454,160.28533c-3.2114,28.37781 -17.9526,41.53416 -34.41605,39.67106c-16.46346,-1.8631 -28.4148,-18.04014 -25.20341,-46.41794c3.2114,-28.37781 19.16102,-49.87222 35.62447,-48.00912c16.46346,1.8631 27.20638,26.37819 23.99498,54.756z" fill="#f0f0f0" stroke-width="2"/><path d="M282.93736,135.56956c-7.45004,27.57009 27.02994,65.49647 10.56648,63.63337c-16.46346,-1.8631 -28.4148,-18.04014 -25.20341,-46.41794c3.2114,-28.37781 25.40748,-57.07362 14.63692,-17.21542z" fill="#9a99ff" stroke-width="0"/></g><path d="M322.399,168.02844c-1.77918,15.72186 -7.88065,27.93969 -13.62803,27.28928c-5.74738,-0.65041 -8.96424,-13.92275 -7.18506,-29.64461c1.77918,-15.72186 7.88065,-27.93969 13.62803,-27.28928c5.74738,0.65041 8.96424,13.92275 7.18506,29.64461z" fill="#000000" stroke="none" stroke-width="0" stroke-linecap="butt"/><g stroke="#000000" stroke-linecap="butt"><path d="M325.59435,129.87787c3.28085,10.66639 5.57273,33.71363 -10.03789,31.94704c-15.61062,-1.76659 -43.48138,-28.463 -37.88418,-37.50618c5.32565,-8.60444 9.15519,-20.51958 24.76581,-18.75299c15.61062,1.76659 20.02956,14.14692 23.15626,24.31212z" fill="#a100fe" stroke-width="2"/><path d="M324.71578,129.42196c3.12976,10.64929 5.7256,33.25318 -9.35274,31.54683c-15.07834,-1.70635 -42.37801,-27.86038 -36.9348,-36.92099c5.17913,-8.62102 6.40846,1.69339 21.48679,3.39974c15.07834,1.70635 21.81803,-8.17449 24.80074,1.97442z" fill="#99008e" stroke-width="0"/></g><g data-paper-data="{&quot;index&quot;:null}" stroke="#000000" stroke-linecap="butt"><path d="M366.6387,111.66455c16.46346,1.8631 27.20638,26.37819 23.99498,54.756c-3.21139,28.3778 -18.47558,41.47498 -34.93903,39.61188c-16.46346,-1.8631 -27.89182,-17.98095 -24.68042,-46.35876c3.2114,-28.37781 19.16102,-49.87222 35.62447,-48.00912z" fill="#f0f0f0" stroke-width="2"/><path d="M390.09506,165.52402c-3.21139,28.3778 -18.47558,41.47498 -34.93903,39.61188c-16.46346,-1.8631 25.61995,-31.12513 24.51939,-59.66285c-1.59108,-41.25711 13.63104,-8.32684 10.41964,20.05097z" fill="#9a99ff" stroke-width="0"/></g><path d="M376.50722,144.70349c5.74738,0.65041 8.96424,13.92275 7.18506,29.64461c-1.77918,15.72186 -7.88065,27.93969 -13.62803,27.28928c-5.74738,-0.65041 -8.96424,-13.92275 -7.18506,-29.64461c1.77918,-15.72186 7.88065,-27.93969 13.62803,-27.28928z" data-paper-data="{&quot;index&quot;:null}" fill="#000000" stroke="none" stroke-width="0" stroke-linecap="butt"/><g data-paper-data="{&quot;index&quot;:null}" stroke="#000000" stroke-linecap="butt"><path d="M339.36911,130.39274c5.31924,-9.20941 12.39306,-20.28916 28.00368,-18.52257c15.61062,1.76659 16.68064,14.23619 19.94878,23.81315c3.43477,10.06529 -28.49103,29.7559 -44.10165,27.98932c-15.61062,-1.76659 -9.43231,-23.61642 -3.85082,-33.27989z" fill="#a100fe" stroke-width="2"/><path d="M340.32735,130.14469c5.17525,-9.22571 9.53643,1.91138 24.61477,3.61773c15.07834,1.70635 18.58153,-8.0725 21.70315,1.48788c3.28079,10.04787 -28.17634,29.07489 -43.25468,27.36854c-15.07834,-1.70635 -8.49366,-22.79357 -3.06326,-32.47414z" fill="#99008e" stroke-width="0"/></g><path d="M371.63632,338.87003c0,11.6628 -14.51982,21.11737 -32.43092,21.11737c-17.9111,0 -32.43092,-9.45457 -32.43092,-21.11737c0,-2.33142 -0.03339,-13.76009 1.08979,-15.13837c4.49546,-5.51647 17.81784,5.26144 32.14847,5.26144c17.9111,0 31.62358,-1.78588 31.62358,9.87692z" fill="#000082" stroke="#000000" stroke-width="2" stroke-linecap="butt"/><path d="M369.75004,336.13773c0,6.30841 -13.89058,10.1901 -31.80169,10.1901c-17.9111,0 -30.16566,-2.95748 -30.16566,-9.26589c0,-1.26107 -0.03338,-12.52602 1.0898,-13.27153c4.49546,-2.98386 15.55258,5.7726 29.88321,5.7726c17.9111,0 30.99434,0.26631 30.99434,6.57472z" fill="#2e0048" stroke="#000000" stroke-width="0" stroke-linecap="butt"/><path d="M328.64938,338.22522c0,11.6628 -14.51982,21.11737 -32.43092,21.11737c-17.9111,0 -32.43092,-9.45457 -32.43092,-21.11737c0,-2.33142 -0.03339,-13.76009 1.08979,-15.13837c4.49546,-5.51647 17.81784,5.26144 32.14847,5.26144c17.9111,0 31.62358,-1.78588 31.62358,9.87692z" fill="#000082" stroke="#000000" stroke-width="2" stroke-linecap="butt"/><path d="M326.7631,335.49289c0,6.30841 -13.89058,10.1901 -31.80169,10.1901c-17.9111,0 -30.16566,-2.95748 -30.16566,-9.26589c0,-1.26107 -0.03338,-12.52602 1.0898,-13.27153c4.49546,-2.98386 15.55258,5.7726 29.88321,5.7726c17.9111,0 30.99434,0.26631 30.99434,6.57472z" fill="#2e0048" stroke="#000000" stroke-width="0" stroke-linecap="butt"/><g><g><path d="M322.32487,233.73367c-10.15427,11.15857 -21.69635,12.56935 -33.20034,3.04216c-8.99741,-7.4513 -10.14828,-25.52613 0.006,-36.68472c10.15429,-11.15865 24.74121,-12.70326 35.78862,-2.65021c1.72761,1.57209 2.85542,3.53572 3.90225,5.31952c5.64707,9.62295 2.06983,21.55963 -6.4965,30.97324z" fill="#485e84" stroke="#000000" stroke-width="2" stroke-linecap="butt"/><path d="M284.27682,212.97625c0,0 3.94764,4.18893 5.91486,3.81022c18.87003,-3.63259 29.06476,-13.29105 32.19284,-16.74285c0.71071,-0.78424 0.3854,-1.85896 0.3854,-1.85896c0,0 1.70413,1.25061 3.2841,3.49063c1.68123,2.38357 3.25416,5.85197 3.5935,8.90647c0.38759,3.48911 -0.85782,11.73273 -0.85782,11.73273l-11.51044,17.50338c0,0 -13.33232,1.79007 -15.44803,1.32028c-2.0727,-0.46022 -4.39332,-1.59928 -6.90944,-2.71106c-3.90662,-1.72623 -7.16308,-4.88887 -8.58139,-7.3955c-1.81005,-3.19905 -2.67725,-7.78161 -2.72771,-11.59736c-0.04696,-3.55126 0.66423,-6.4579 0.66423,-6.4579z" fill="#343545" stroke="none" stroke-width="0" stroke-linecap="butt"/><path d="M303.8543,227.60123c0,0 -7.78601,-4.5581 -9.7304,-9.33298c-2.46143,-6.04448 -3.80864,-18.93973 -3.80864,-18.93973" fill="none" stroke="#000000" stroke-width="1" stroke-linecap="round"/><path d="M318.7182,194.00686c0,0 4.15513,5.81935 5.74562,9.8121c1.60573,4.03086 1.78845,13.73237 1.78845,13.73237" fill="none" stroke="#000000" stroke-width="1" stroke-linecap="round"/><path d="M299.05093,237.46449c0,0 -8.06213,-4.55943 -9.9327,-9.82724c-2.87031,-8.08329 -4.55814,-19.55704 -4.55814,-19.55704" fill="none" stroke="#000000" stroke-width="1" stroke-linecap="round"/><path d="M285.3669,230.65675c0,0 1.42707,-17.24642 16.42321,-26.11544c16.42637,-9.7149 28.96084,2.1332 28.96084,2.1332" fill="none" stroke="#000000" stroke-width="1" stroke-linecap="round"/><path d="M291.49272,237.94915c0,0 4.36617,-17.25686 17.58222,-25.11151c10.85159,-6.44938 22.34322,2.54291 22.34322,2.54291" fill="none" stroke="#000000" stroke-width="1" stroke-linecap="round"/><path d="M303.99058,196.05849c-1.15545,0.33489 -2.30698,-0.13518 -2.57208,-1.04987c-0.26516,-0.9147 0.49284,-1.15844 1.64828,-1.49332c1.15545,-0.33489 2.27074,-0.63405 2.53585,0.28064c0.26516,0.9147 -0.45662,1.9277 -1.61205,2.26254z" fill="#8fbbbe" stroke="none" stroke-width="0" stroke-linecap="butt"/><path d="M311.18417,195.00432c-0.40483,0.44485 -1.27393,0.31324 -1.94123,-0.29398c-0.6673,-0.60724 -0.85591,-0.94728 -0.45111,-1.39215c0.40483,-0.44485 1.39611,-0.4475 2.06337,0.15975c0.6673,0.60724 0.73374,1.08156 0.32891,1.5264z" fill="#8fbbbe" stroke="none" stroke-width="0" stroke-linecap="butt"/><path d="M297.36389,198.0462c-0.67491,0.5988 -1.54555,0.71949 -1.94475,0.26959c-0.3992,-0.44985 0.22702,-0.93356 0.90189,-1.53236c0.67491,-0.5988 1.1428,-1.086 1.54201,-0.6361c0.3992,0.44985 0.17572,1.30008 -0.49915,1.89886z" fill="#8fbbbe" stroke="none" stroke-width="0" stroke-linecap="butt"/><path d="M283.45657,217.38363c0,0 4.05738,-9.39241 9.42117,-14.74493c3.04102,-3.0346 6.76882,-4.65936 9.60885,-5.85951c2.51156,-1.06138 9.08617,-1.04325 14.117,-0.50569c3.70393,0.39576 6.52064,1.25197 6.52064,1.25197" fill="none" stroke="#000000" stroke-width="0.5" stroke-linecap="round"/><path d="M304.67851,190.55669c0,0 7.54014,7.4111 9.74289,12.3472c1.85589,4.15877 2.85638,15.07038 2.85638,15.07038" fill="none" stroke="#000000" stroke-width="1" stroke-linecap="round"/><path d="M312.28241,221.03646c0,0 -6.81746,-6.85204 -9.09642,-10.75808c-4.00142,-6.85826 -4.68693,-17.24608 -4.68693,-17.24608" fill="none" stroke="#000000" stroke-width="1" stroke-linecap="round"/></g><g stroke="#000000" stroke-linecap="butt"><path d="M293.88227,242.78083c28.85494,-16.69464 37.69864,-12.84183 41.75074,-5.8382c4.0521,7.00364 -16.05459,26.21488 -44.90955,42.90951c-28.85495,16.69463 -14.6632,-54.11557 -18.71529,-61.1192c0.39106,-7.08346 6.40912,-4.55745 10.63878,2.06569c5.21616,8.16789 8.76891,23.40919 11.23532,21.9822z" fill="#0d69be" stroke-width="2"/><path d="M309.50662,219.77582c12.38528,-7.16576 28.38401,-2.67612 35.73419,10.02789c7.35018,12.70401 3.26842,28.81165 -9.11685,35.97741c-12.38528,7.16576 -28.38402,2.67611 -35.73419,-10.0279c-7.35018,-12.70401 -3.26841,-28.81164 9.11687,-35.97741z" fill="#faddbf" stroke-width="2"/><path d="M319.30577,260.01541c12.38528,-7.16576 17.64483,-42.82825 24.99501,-30.12423c7.35018,12.70401 3.26842,28.81165 -9.11687,35.97741c-12.38528,7.16576 -28.26343,1.31259 -15.87815,-5.85317z" fill="#ef8b89" stroke-width="0"/></g></g><path d="M256.20419,165.85698c0.05016,-0.25518 0.30384,-1.15628 1.37168,-1.03543c1.24207,0.14056 1.10151,1.38263 1.10151,1.38263l-0.08263,0.39831c-0.83944,2.24368 -1.92081,4.37049 -2.83682,6.58025c-1.03105,1.70787 -2.16686,3.93777 -3.92723,5.01637c-3.56477,2.18416 -7.925,-1.11781 -9.01679,-4.56303c-1.39731,-4.40928 -0.17004,-9.92127 1.53794,-14.11623c0,0 0.47637,-1.15566 1.63205,-0.67929c1.15566,0.47637 0.67929,1.63205 0.67929,1.63205c-1.2316,2.94443 -2.47414,7.46718 -1.92534,10.68647c0.35609,2.08887 2.11574,5.80108 4.93417,5.3235c1.77777,-0.30124 3.0416,-3.0937 3.85479,-4.42766c0.85448,-2.08557 1.87853,-4.08769 2.67739,-6.19791z" fill="#000000" stroke="none" stroke-width="0.5" stroke-linecap="butt"/></g></g></svg>