<svg version="1.1" xmlns="http://www.w3.org/2000/svg" xmlns:xlink="http://www.w3.org/1999/xlink" width="268.65577" height="327.45339" viewBox="0,0,268.65577,327.45339"><g transform="translate(-215.4264,-33.36249)"><g data-paper-data="{&quot;isPaintingLayer&quot;:true}" fill-rule="nonzero" stroke-linejoin="miter" stroke-miterlimit="10" stroke-dasharray="" stroke-dashoffset="0" style="mix-blend-mode: normal"><g stroke="#000000" stroke-linecap="butt"><path d="M347.17244,354.06232l-57.93711,-75.65985l23.4153,-17.93045l57.93712,75.65985z" fill="#73fffc" stroke-width="2"/><path d="M346.53812,353.76975l-55.96657,-75.26795c0,0 45.54153,50.91482 52.20084,57.67522c1.47217,1.49451 3.69876,0.68154 3.69876,0.68154l22.76097,-0.88063z" fill="#59a9e6" stroke-width="0"/></g><g stroke="#000000" stroke-linecap="butt"><path d="M251.67518,326.58483l36.09093,-88.19618l27.29506,11.16947l-36.09093,88.19619z" fill="#73fffc" stroke-width="2"/><path d="M251.60773,325.88955l36.74682,-86.29712c0,0 -20.98077,65.00891 -23.4576,74.1694c-0.54755,2.0251 1.27778,3.53731 1.27778,3.53731l12.24444,19.20705z" fill="#59a9e6" stroke-width="0"/></g><path d="M216.4264,334.22647c1.51965,-11.56337 14.88253,-8.00599 32.64094,-5.67219c14.20846,1.86726 28.82161,-7.08287 32.55995,-1.02767c0.93402,1.51288 -0.58823,12.83977 -0.89202,15.15131c-1.51965,11.56337 -17.1476,19.04542 -34.90601,16.71162c-17.75841,-2.3338 -30.92252,-13.59968 -29.40287,-25.16305z" data-paper-data="{&quot;index&quot;:null}" fill="#000082" stroke="#000000" stroke-width="2" stroke-linecap="butt"/><path d="M250.2394,329.2831c14.20846,1.86726 26.31227,-5.37381 30.38061,-1.82963c1.01647,0.88551 -0.48444,12.05007 -0.64875,13.30039c-0.82198,6.25463 -13.35742,7.59014 -31.11583,5.25634c-17.75841,-2.3338 -31.02479,-7.99232 -30.20281,-14.24696c0.82198,-6.25463 13.82838,-4.81394 31.58678,-2.48014z" data-paper-data="{&quot;index&quot;:null}" fill="#2e0048" stroke="#000000" stroke-width="0" stroke-linecap="butt"/><g stroke="#000000" stroke-linecap="butt"><path d="M402.49782,334.31892c1.35955,11.58329 -11.95915,22.666 -29.74814,24.75392c-17.78899,2.08792 -33.31195,-5.60959 -34.6715,-17.19288c-0.27178,-2.31552 -1.6372,-13.66238 -0.68234,-15.1622c3.82175,-6.0029 18.3097,3.14852 32.54263,1.47797c17.78899,-2.08792 31.1998,-5.46011 32.55935,6.12317z" fill="#000082" stroke-width="2"/><path d="M400.30589,331.82515c0.73538,6.2654 -12.608,11.73987 -30.397,13.8278c-17.78899,2.08792 -30.30476,0.57914 -31.04014,-5.68626c-0.147,-1.25247 -1.49333,-12.43673 -0.46472,-13.30809c4.11698,-3.48756 16.11947,3.92026 30.3524,2.24971c17.78899,-2.08792 30.81407,-3.34856 31.54946,2.91684z" fill="#2e0048" stroke-width="0"/></g><g><g stroke="#000000" stroke-linecap="butt"><path d="M379.08273,204.02311c35.74736,12.77718 61.80754,29.19357 58.20705,36.66703c-3.6005,7.47346 -35.49827,3.17393 -71.24561,-9.60326c-35.74736,-12.77718 -61.80754,-29.19357 -58.20705,-36.66703c3.6005,-7.47346 35.49827,-3.17393 71.24564,9.60327z" fill="#0d69be" stroke-width="2"/><path d="M434.69297,209.50866c15.34367,5.48429 22.48772,20.91969 15.95672,34.47593c-6.53102,13.55623 -24.26397,20.09985 -39.60763,14.61556c-15.34368,-5.4843 -22.48772,-20.91969 -15.95672,-34.47593c6.53102,-13.55624 24.26398,-20.09984 39.60763,-14.61555z" fill="#faddbf" stroke-width="2"/><path d="M404.49678,241.7386c15.34368,5.4843 51.94028,-12.00379 45.40924,1.55245c-6.53102,13.55623 -24.26397,20.09983 -39.60763,14.61555c-15.34368,-5.4843 -21.14527,-21.65228 -5.80159,-16.16798z" fill="#ef8b89" stroke-width="0"/></g><g stroke="#000000" stroke-linecap="butt"><path d="M356.54404,228.37785c-3.98259,13.36964 0.69692,38.0881 -7.8388,46.23229c-10.43862,9.9598 -34.80072,1.69941 -46.41434,-0.86721c-15.36466,-3.39561 -38.25069,-4.1482 -38.84063,-23.89643c-0.2206,-7.38468 14.23766,-30.2747 16.64716,-38.36345c8.85303,-29.71982 33.14298,-50.03045 54.25314,-45.36508c21.11016,4.66537 31.0465,32.54007 22.19347,62.25989z" fill="#0d69be" stroke-width="2"/><path d="M294.40081,230.72527c-3.98259,13.36964 63.84056,35.32332 55.30484,43.46751c-10.43862,9.95979 -34.80072,1.69941 -46.41434,-0.86721c-15.36466,-3.39561 -38.25068,-4.14819 -38.84062,-23.89642c-0.22061,-7.38468 14.23767,-30.27471 16.64716,-38.36345c2.72739,-9.15587 12.01719,-26.86853 14.85394,-27.65611c11.52133,-14.76094 4.51501,26.9521 -1.55097,47.31569z" fill="#10157d" stroke-width="0"/></g><g stroke-linecap="butt"><g stroke="#000000"><g><path d="M286.99446,100.60042c13.56554,-45.30838 67.2051,-72.5659 119.80731,-60.88136c52.60221,11.68454 84.2477,57.88643 70.68216,103.19481c-13.56554,45.30838 -67.2051,72.5659 -119.80731,60.88136c-52.60221,-11.68454 -84.2477,-57.88643 -70.68216,-103.19481z" fill="#faddbf" stroke-width="2"/><path d="M287.50599,99.81608c4.36452,-14.57734 21.62243,-37.54999 27.62335,-39.53633c0.68531,-0.22685 9.08835,-7.18302 19.49017,-11.80875c12.92872,-5.74946 28.35615,-9.35355 28.98566,-9.01021c8.21306,4.4795 -38.50602,58.42351 -44.44525,83.2216c-0.01418,0.05914 -0.757,20.17802 0.93523,21.0072c1.86894,5.31279 4.68958,20.82172 14.85228,30.45292c18.93939,17.94886 49.31482,31.27833 47.50067,31.39764c-2.90197,0.19084 -17.444,-1.01521 -24.25992,-2.52924c-52.60221,-11.68454 -84.2477,-57.88643 -70.68216,-103.19481z" fill="#ef8b89" stroke-width="0"/><path d="M477.02832,142.33947c-3.37012,11.25606 -6.30837,14.75116 -6.39214,12.82025c-0.08546,-1.96989 2.6353,-9.54933 -5.91858,-16.44324c-2.07279,-1.67053 -13.29339,3.52853 -16.00372,1.65816c-1.70238,-1.17481 -6.77667,-12.01376 -8.73203,-13.14626c-1.36715,-0.79182 -16.42522,5.00313 -17.86795,4.21727c-3.59819,-1.95998 -10.18008,-14.00697 -14.20643,-15.58089c-2.21719,-0.86671 -13.8712,9.15626 -16.16857,8.38379c-2.96275,-0.9962 -7.82029,-14.2004 -10.89766,-14.88398c-8.184,-1.81792 -10.44133,4.92083 -18.071,9.42878c-4.95794,2.92938 -11.9418,-16.13154 -16.73943,-12.61693c-5.9581,4.36473 -11.815,8.54718 -17.62637,10.9737c-4.55922,1.9037 -12.09671,-13.11427 -16.08886,-11.29761c-19.27512,8.7713 -30.9687,14.44006 -25.70034,-3.15605c10.59368,-35.3825 51.04523,2.85646 104.25696,-7.5495c50.93374,-9.96047 96.74976,11.81002 86.15609,47.19252z" fill="#ef8b89" stroke-width="0"/></g><path d="M481.16219,134.67492c-6.80826,22.73935 4.81621,10.07028 -12.64156,-3.69648c-2.13632,-1.68465 -13.59563,3.46139 -16.38674,1.57308c-1.75312,-1.18608 -7.03286,-12.07068 -9.0449,-13.21576c-1.40678,-0.80062 -16.79392,4.92124 -18.27806,4.12617c-3.70155,-1.98294 -10.53507,-14.08583 -14.67249,-15.68441c-2.27836,-0.8803 -14.14607,9.0952 -16.50591,8.30885c-3.04328,-1.01408 -8.11845,-14.26663 -11.27688,-14.96821c-8.39959,-1.8658 -10.66281,4.87163 -18.44759,9.34513c-5.05875,2.90699 -12.35601,-16.22356 -17.24616,-12.72949c-6.07298,4.33921 -12.0436,8.4964 -17.98055,10.89503c-4.65775,1.88182 -12.49248,-13.20217 -16.56975,-11.40443c-19.6863,8.67996 -31.6268,14.29388 -26.35842,-3.30223c10.59368,-35.3825 68.37153,-68.72817 120.00249,-57.25938c51.63096,11.46879 86.00025,62.62966 75.40659,98.01217z" fill="#873412" stroke-width="2"/><path d="M481.22082,133.48711c-6.80826,22.73935 4.81621,10.07028 -12.64156,-3.69648c-2.13632,-1.68465 -13.59563,3.46139 -16.38674,1.57308c-1.75312,-1.18608 -7.03286,-12.07067 -9.04491,-13.21576c-1.40678,-0.80062 -16.79391,4.92124 -18.27806,4.12617c-3.70155,-1.98294 -10.53507,-14.08583 -14.67249,-15.68441c-2.27836,-0.8803 -14.14607,9.0952 -16.50591,8.30885c-3.04328,-1.01408 -8.11844,-14.26663 -11.27687,-14.96821c-8.39959,-1.8658 -10.66281,4.87163 -18.44759,9.34513c-5.05875,2.90699 -12.35601,-16.22356 -17.24616,-12.72949c-6.07298,4.33921 -12.0436,8.4964 -17.98056,10.89503c-4.65775,1.88182 -12.49247,-13.20217 -16.56974,-11.40443c-19.6863,8.67996 -31.6268,14.29388 -26.35843,-3.30224c10.59368,-35.3825 52.32706,3.14119 106.77608,-6.98992c52.11806,-9.6974 99.22666,12.36021 88.63295,47.74271z" fill="#741d23" stroke-width="0"/></g><path d="M405.41851,47.30815c0.03958,0.12821 0.06123,0.27084 0.06825,0.42405c0.03076,0.27447 0.00891,0.55789 -0.07228,0.84042c-0.20721,1.12747 -0.77917,2.42251 -0.87121,2.91026c-0.1209,0.64081 1.55481,-0.4264 2.25165,-0.17896c0.42686,0.15157 0.66796,0.93492 1.07691,0.75031c2.48174,-1.12034 5.11333,-3.48951 7.7394,-1.22984c0.86971,0.74836 0.21213,1.99965 0.6484,2.8037c0.03668,0.06759 2.97288,0.5193 3.48795,1.18408c0.88754,1.14548 -0.294,2.26025 0.00623,3.35207c0.09607,0.34937 0.77406,-0.28478 1.18535,-0.34311c1.83046,-0.25958 5.07544,-0.94481 6.75576,0.46294c0.8854,0.74177 0.21509,2.25733 0.65684,2.81181c0.77447,0.97208 2.56946,-0.839 3.90772,-1.08641c1.85091,-0.34219 2.46539,0.51807 3.60739,1.68686c0.19696,0.20159 -0.66631,4.11922 0.23711,5.51551c0.50785,0.78485 2.10563,-0.41905 3.12003,-0.20947c1.01211,0.20911 3.2616,-0.03716 3.70583,0.16852c0.89107,0.41257 1.2911,1.98133 2.26362,1.74134c4.96541,-1.22529 10.0662,1.40391 6.79025,5.79862c-0.41458,0.55617 1.65249,-0.22563 2.29679,0.13333c0.24978,0.13915 1.48154,1.44629 1.7619,1.41975c1.8337,-0.17361 3.09751,-0.63344 4.8874,-0.23984c1.48649,0.32688 2.69691,1.36397 2.64155,2.7773c-0.02908,0.74278 -1.73679,1.8068 -0.93407,2.07936c1.89213,0.64246 4.74616,2.02552 3.1423,4.28977c-1.74102,2.45788 -5.02078,4.19664 -7.3069,1.52944c-0.79318,-0.92538 -2.95072,0.62785 -4.00525,-0.07788c-1.35095,-0.90409 -1.43847,-3.28688 -1.01698,-4.40835c0.19486,-0.51843 -1.31502,0.09412 -1.89196,-0.12943c-0.7768,-0.30098 -0.84578,-1.44302 -1.65228,-1.67897c-1.80402,-0.52776 -2.4745,2.82336 -6.61571,1.09118c-1.22231,-0.51127 -2.19618,-2.74019 -2.30453,-3.89812c-0.06289,-0.67216 2.39457,-2.20436 2.24748,-2.34606c-0.35711,-0.34408 -3.00718,2.25195 -3.5278,2.28311c-1.25249,0.07495 -2.30465,-0.90409 -3.30136,-1.56168c-0.88058,-0.58098 -1.84448,1.54205 -2.9323,1.35515c-0.96102,-0.16512 -10.37524,-2.80294 -10.60638,-3.37373c-0.28183,-0.69588 -0.42358,-1.8714 -0.04055,-2.51921c0.13766,-0.23282 1.63086,-1.53921 1.42089,-1.56504c-0.74516,-0.09169 -5.70556,2.28487 -7.20097,-1.40787c-0.81319,-2.00808 2.13628,-3.24168 2.61078,-4.81356c0.29304,-0.97071 -1.73236,1.34544 -2.51724,2.08634c-0.60285,0.56908 -1.99164,0.9056 -2.86957,0.73639c-3.03535,-0.58504 -1.46114,-2.88032 -1.65395,-4.48709c-0.08898,-0.74151 -1.9463,0.18231 -2.5667,-0.33745c-1.5169,-1.27083 -0.91444,-2.33961 -0.62504,-3.85763c0.1325,-0.69507 -1.40403,2.49212 -3.30118,2.2427c-0.76938,-0.10116 -1.66292,-1.34773 -2.1348,-0.81461c-2.29741,2.59551 -1.8561,3.94529 -5.98416,2.53151c-0.39834,-0.13642 -1.32983,0.5263 -1.7065,0.21073c-4.16881,-3.49257 1.33228,-7.89498 2.63149,-11.74562c0.45829,-1.35829 0.03043,-3.63625 1.61453,-4.00911c0.70253,-0.60491 1.74755,-0.88325 2.77907,-0.65412c0.91461,0.20316 1.61452,0.75998 1.9533,1.45665c0.06145,0.09314 0.11031,0.19261 0.14347,0.30001z" fill="#ba587e" stroke="none" stroke-width="0.5"/></g><g stroke="#000000" stroke-linecap="butt"><path d="M387.73332,150.09744c-8.27977,27.65415 -27.35425,38.62962 -45.9806,34.49215c-18.62635,-4.13748 -29.75119,-21.82113 -21.47141,-49.47527c8.27977,-27.65415 30.0915,-46.71817 48.71786,-42.5807c18.62635,4.13748 27.01392,29.90967 18.73413,57.56382z" fill="#f0f0f0" stroke-width="2"/><path d="M340.84781,119.45967c-13.02223,26.26407 20.48697,68.62226 1.86062,64.48479c-18.62635,-4.13748 -29.75119,-21.82113 -21.47141,-49.47527c8.27977,-27.65415 38.43712,-52.9796 19.6108,-15.00952z" fill="#9a99ff" stroke-width="0"/></g><path d="M381.41477,158.6358c-4.58716,15.32094 -13.57706,26.5701 -20.07951,25.12572c-6.50244,-1.44439 -8.05509,-15.03538 -3.46793,-30.35631c4.58716,-15.32094 13.57705,-26.5701 20.0795,-25.12572c6.50244,1.44439 8.0551,15.03538 3.46794,30.35631z" fill="#000000" stroke="none" stroke-width="0" stroke-linecap="butt"/><g stroke="#000000" stroke-linecap="butt"><path d="M390.67771,120.20353c2.04751,11.01932 -2.53714,52.41026 -20.19863,48.48711c-17.66146,-3.92315 -41.89417,-52.48954 -33.99728,-60.66521c7.51378,-7.77902 13.84278,-19.04481 31.50427,-15.12167c17.66146,3.92315 20.74035,16.7982 22.69164,27.29975z" fill="#a100fe" stroke-width="2"/><path d="M389.74135,119.6297c1.87656,10.98135 -1.90563,51.65252 -18.96489,47.86314c-17.05927,-3.78938 -41.10441,-51.41609 -33.38173,-59.63046c7.34803,-7.81584 7.09386,2.56926 24.15313,6.35864c17.05927,3.78938 26.4051,-5.0567 28.19349,5.40867z" fill="#99008e" stroke-width="0"/></g><g data-paper-data="{&quot;index&quot;:null}" stroke="#000000" stroke-linecap="butt"><path d="M439.50799,110.41042c18.62635,4.13748 27.01392,29.90967 18.73413,57.56382c-8.27977,27.65414 -27.94593,38.49819 -46.5723,34.36072c-18.62635,-4.13748 -29.1595,-21.68969 -20.87973,-49.34384c8.27977,-27.65415 30.0915,-46.71817 48.71786,-42.5807z" fill="#f0f0f0" stroke-width="2"/><path d="M457.76783,167.01145c-8.27977,27.65414 -27.94593,38.49819 -46.5723,34.36072c-18.62635,-4.13748 34.4864,-27.25432 37.83469,-55.66726c4.84066,-41.07672 17.01737,-6.3476 8.73759,21.30655z" fill="#9a99ff" stroke-width="0"/></g><path d="M440.44196,143.9555c6.65885,0.74758 10.13228,14.07246 7.75809,29.76196c-2.37418,15.6895 -9.69692,27.80233 -16.3558,27.05475c-6.65885,-0.74758 -10.13229,-14.07246 -7.7581,-29.76196c2.37418,-15.6895 9.69694,-27.80232 16.35581,-27.05475z" data-paper-data="{&quot;index&quot;:null}" fill="#000000" stroke="none" stroke-width="0" stroke-linecap="butt"/><g data-paper-data="{&quot;index&quot;:null}" stroke="#000000" stroke-linecap="butt"><path d="M405.12923,125.15887c7.60423,-8.37899 17.52801,-18.36576 35.18948,-14.44261c17.66146,3.92315 16.87575,16.42026 19.08476,26.35901c2.32164,10.44552 -45.98288,43.94009 -63.64436,40.01694c-17.66146,-3.92315 1.39099,-43.14122 9.37011,-51.93333z" fill="#a100fe" stroke-width="2"/><path d="M406.271,125.04666c7.4413,-8.41517 10.65476,3.2207 27.71403,7.01007c17.05927,3.78938 22.66769,-5.40639 24.71094,4.49554c2.14742,10.40682 -45.88239,43.33652 -62.94167,39.54714c-17.05927,-3.78938 2.7085,-42.22268 10.51669,-51.05275z" fill="#99008e" stroke-width="0"/></g><g><g><path d="M335.34618,232.96975c-15.9328,6.26793 -28.89786,3.02738 -36.82975,-10.25539c-6.20365,-10.38859 0.81779,-27.46041 16.75061,-33.72836c15.93287,-6.26799 32.20933,-1.95343 39.41385,11.63335c1.12667,2.12471 1.4343,4.3736 1.7376,6.42533c1.63598,11.0682 -7.63105,20.6373 -21.07226,25.92507z" fill="#0000c4" stroke="#000000" stroke-width="2" stroke-linecap="butt"/><path d="M304.20449,198.92535c0,0 2.3021,5.40362 4.57497,5.8288c21.80173,4.0786 37.093,-0.7941 42.00771,-2.73816c1.11664,-0.44168 1.25991,-1.55775 1.25991,-1.55775c0,0 1.24833,1.81988 1.91253,4.50068c0.70677,2.85261 0.80274,6.66011 -0.22918,9.60206c-1.1788,3.36053 -6.27097,10.45071 -6.27097,10.45071l-20.27652,11.56865c0,0 -15.04923,-3.59562 -17.0933,-4.85937c-2.00252,-1.23802 -3.95988,-3.19771 -6.13837,-5.20917c-3.38239,-3.1231 -5.4151,-7.31134 -5.78502,-10.17373c-0.47205,-3.65306 0.69385,-8.20755 2.38162,-11.73587c1.57077,-3.28376 3.65668,-5.67674 3.65668,-5.67674z" fill="#2e006f" stroke="none" stroke-width="0" stroke-linecap="butt"/><path d="M318.42799,220.06946c0,0 -6.23105,-7.2521 -6.12725,-12.40691c0.13134,-6.52545 4.57906,-18.91198 4.57906,-18.91198" fill="none" stroke="#000000" stroke-width="1" stroke-linecap="round"/><path d="M349.62878,195.02394c0,0 1.77942,6.98431 1.65482,11.28086c-0.12571,4.33756 -4.35878,13.32971 -4.35878,13.32971" fill="none" stroke="#000000" stroke-width="1" stroke-linecap="round"/><path d="M308.79848,227.25008c0,0 -6.52518,-7.36189 -6.1176,-12.94092c0.62547,-8.56084 4.06074,-19.77424 4.06074,-19.77424" fill="none" stroke="#000000" stroke-width="1" stroke-linecap="round"/><path d="M297.29812,215.6107c0,0 9.39526,-15.29661 29.4517,-17.5558c21.96928,-2.47466 29.9419,13.34727 29.9419,13.34727" fill="none" stroke="#000000" stroke-width="1" stroke-linecap="round"/><path d="M300.50891,224.72424c0,0 12.5375,-14.15072 30.23071,-16.17706c14.52774,-1.66379 22.6906,11.1223 22.6906,11.1223" fill="none" stroke="#000000" stroke-width="1" stroke-linecap="round"/><path d="M332.97071,191.12026c-1.38627,-0.14634 -2.40098,-1.03128 -2.26648,-1.97653c0.13444,-0.94529 1.05487,-0.8714 2.44115,-0.72506c1.38627,0.14634 2.71339,0.30973 2.57891,1.255c-0.13444,0.94529 -1.36734,1.59296 -2.75356,1.44658z" fill="#8fbbbe" stroke="none" stroke-width="0" stroke-linecap="butt"/><path d="M341.13098,192.97911c-0.63521,0.24987 -1.50291,-0.21283 -1.93807,-1.0335c-0.43517,-0.82068 -0.48129,-1.2075 0.15387,-1.4574c0.63521,-0.24987 1.6946,0.1374 2.12973,0.95809c0.43517,0.82068 0.2896,1.28293 -0.34559,1.5328z" fill="#8fbbbe" stroke="none" stroke-width="0" stroke-linecap="butt"/><path d="M324.98949,190.34265c-0.99378,0.28524 -1.97827,0.05393 -2.19907,-0.51669c-0.22083,-0.57057 0.66846,-0.76913 1.66219,-1.0544c0.99378,-0.28524 1.71562,-0.54926 1.93643,0.02136c0.22083,0.57057 -0.40583,1.26448 -1.39957,1.54971z" fill="#8fbbbe" stroke="none" stroke-width="0" stroke-linecap="butt"/><path d="M301.31718,202.65534c0,0 8.61826,-7.04095 16.78717,-9.85371c4.63136,-1.59467 9.35238,-1.62303 12.9319,-1.60999c3.16554,0.01149 10.17561,2.61295 15.30064,5.08507c3.77328,1.82007 6.3893,3.71473 6.3893,3.71473" fill="none" stroke="#000000" stroke-width="0.5" stroke-linecap="round"/><path d="M336.21627,186.33195c0,0 4.66636,9.7787 4.7648,15.18333c0.08294,4.55352 -3.82948,14.97983 -3.82948,14.97983" fill="none" stroke="#000000" stroke-width="1" stroke-linecap="round"/><path d="M330.42135,217.34681c0,0 -4.15008,-8.98055 -4.80002,-13.46801c-1.14114,-7.87915 2.86845,-17.7 2.86845,-17.7" fill="none" stroke="#000000" stroke-width="1" stroke-linecap="round"/></g><g stroke="#000000" stroke-linecap="butt"><path d="M300.8544,230.10629c38.42254,-4.00611 46.10458,3.01333 47.23346,11.04606c1.12889,8.03274 -29.10361,17.79215 -67.52614,21.79825c-38.42254,4.00611 9.04737,-55.52275 7.91848,-63.55548c3.65061,-6.35932 8.92188,-1.67076 10.414,6.08194c1.84011,9.56089 -1.324,24.97165 1.96019,24.62923z" fill="#0d69be" stroke-width="2"/><path d="M328.0336,215.09638c16.49193,-1.71952 31.52129,8.69843 33.56898,23.26915c2.04771,14.57073 -9.66165,27.77658 -26.15357,29.49612c-16.49193,1.71952 -31.52129,-8.69844 -33.56898,-23.26917c-2.04771,-14.57073 9.66165,-27.77658 26.15357,-29.4961z" fill="#faddbf" stroke-width="2"/><path d="M320.12739,255.94822c16.49193,-1.71952 38.38411,-32.44255 40.43182,-17.87182c2.04771,14.57073 -9.66165,27.77658 -26.15357,29.49611c-16.49193,1.71952 -30.77018,-9.90477 -14.27823,-11.62428z" fill="#ef8b89" stroke-width="0"/></g></g><path d="M303.20233,140.44399c-1.28964,1.09393 1.01475,2.51194 2.53218,3.76194c3.03439,2.49964 6.73193,5.55528 4.93026,9.61869c-3.07052,6.92514 -11.89476,-0.34985 -14.27663,-3.36589c-3.84031,-5.76009 -6.0721,-17.34955 4.18436,-19.2824c0.62599,-0.11797 3.9438,-0.31168 4.523,-0.18723c5.47995,1.17744 4.19732,7.17801 0.21788,8.90279l-0.97209,0.44358c0,0 -0.56213,0.25595 -1.13891,0.10852z" fill="#000000" stroke="none" stroke-width="0.5" stroke-linecap="butt"/></g></g></g></svg>