<svg version="1.1" xmlns="http://www.w3.org/2000/svg" xmlns:xlink="http://www.w3.org/1999/xlink" width="227.83021" height="327.75161" viewBox="0,0,227.83021,327.75161"><g transform="translate(-181.95481,-33.23575)"><g data-paper-data="{&quot;isPaintingLayer&quot;:true}" fill-rule="nonzero" stroke-linejoin="miter" stroke-miterlimit="10" stroke-dasharray="" stroke-dashoffset="0" style="mix-blend-mode: normal"><g stroke="#000000" stroke-linecap="butt"><path d="M345.51656,201.61562c30.59039,13.24941 52.78182,30.00921 49.56595,37.43408c-3.21588,7.42486 -30.62129,2.70312 -61.21168,-10.54629c-30.59039,-13.24941 -52.78182,-30.00921 -49.56595,-37.43408c3.21588,-7.42486 30.62129,-2.70312 61.21168,10.5463z" fill="#0d69be" stroke-width="2"/><path d="M393.3258,207.83749c13.13017,5.68699 19.04542,21.21522 13.21208,34.68332c-5.83334,13.46807 -21.2063,19.77592 -34.33647,14.08893c-13.13017,-5.68699 -19.04542,-21.21522 -13.21208,-34.68332c5.83334,-13.46808 21.20631,-19.77591 34.33647,-14.08893z" fill="#faddbf" stroke-width="2"/><path d="M366.82381,239.66345c13.13017,5.68699 44.91762,-11.31404 39.08428,2.15404c-5.83334,13.46807 -21.20629,19.77591 -34.33647,14.08893c-13.13017,-5.68699 -17.87798,-21.92994 -4.7478,-16.24296z" fill="#ef8b89" stroke-width="0"/></g><g stroke="#000000" stroke-linecap="butt"><path d="M307.76518,340.83532v-95.29492h29.49199v95.29492z" fill="#73fffc" stroke-width="2"/><path d="M307.43943,340.21738l1.32626,-93.78573c0,0 5.20288,68.11227 6.3799,77.52842c0.2602,2.08162 2.52228,2.78987 2.52228,2.78987l18.60659,13.13896z" fill="#59a9e6" stroke-width="0"/></g><g stroke="#000000" stroke-linecap="butt"><path d="M268.4238,338.4128v-95.29492h29.49199v95.29492z" fill="#73fffc" stroke-width="2"/><path d="M268.09805,337.79486l1.32626,-93.78573c0,0 5.20288,68.11227 6.3799,77.52842c0.2602,2.08162 2.52228,2.78987 2.52228,2.78987l18.60659,13.13896z" fill="#59a9e6" stroke-width="0"/></g><g stroke="#000000" stroke-linecap="butt"><path d="M334.07988,233.79349c0.7605,13.78174 12.05669,36.13447 7.50234,46.11645c-5.56965,12.20729 -28.06779,10.65847 -38.37939,11.22749c-13.64212,0.7528 -32.66425,5.979 -39.10324,-12.69692c-2.4078,-6.98371 2.56428,-32.56339 2.10417,-40.90147c-1.69056,-30.63588 12.13356,-56.30964 30.87704,-57.34394c18.74347,-1.03431 35.30853,22.96252 36.99907,53.5984z" fill="#0d69be" stroke-width="2"/><path d="M283.75237,252.17099c0.7605,13.78174 63.07994,17.09924 58.52559,27.08122c-5.56966,12.20728 -28.06779,10.65847 -38.37939,11.22749c-13.64212,0.7528 -32.66424,5.979 -39.10323,-12.69691c-2.40781,-6.98371 2.56428,-32.5634 2.10417,-40.90147c-0.52081,-9.43808 1.76776,-28.73906 3.85996,-30.22672c5.0112,-17.06618 11.83457,24.52514 12.99291,45.5164z" fill="#10157d" stroke-width="0"/></g><g stroke-linecap="butt"><g stroke="#000000"><g><path d="M186.58032,130.34109c-4.90626,-46.53285 28.83877,-88.2325 75.37163,-93.13876c46.53285,-4.90626 88.23249,28.83877 93.13875,75.37163c4.90626,46.53285 -28.83877,88.2325 -75.37163,93.13876c-46.53285,4.90626 -88.23249,-28.83877 -93.13875,-75.37163z" fill="#faddbf" stroke-width="2"/><path d="M186.71864,129.45217c-1.57852,-14.9713 4.30932,-41.69286 8.45649,-45.3621c0.47361,-0.41904 4.82023,-9.46791 11.59502,-16.93598c8.42061,-9.2823 19.608,-17.30782 20.23607,-17.17589c8.19438,1.72127 -10.62955,66.33515 -6.74568,91.35577c0.00926,0.05967 6.44897,19.13083 8.10455,19.39761c3.36686,4.41377 11.06903,18.09247 22.63903,24.05227c21.56206,11.10681 50.73563,14.43983 49.31355,15.0983c-2.27483,1.05332 -14.43076,4.30591 -20.46025,4.94164c-46.53285,4.90626 -88.2325,-28.83877 -93.13876,-75.37163z" fill="#ef8b89" stroke-width="0"/><path d="M354.52209,112.17317c1.21888,11.56026 0.07083,15.71994 -0.67233,13.93631c-0.75818,-1.81963 -1.21466,-9.73994 -10.52878,-13.62033c-2.25699,-0.9403 -9.4919,7.31163 -12.33325,6.37626c-1.78469,-0.58752 -9.67142,-9.21222 -11.64543,-9.68387c-1.3802,-0.32977 -11.50305,9.63684 -12.94212,9.33543c-3.58913,-0.75174 -13.115,-10.0538 -16.91453,-10.31485c-2.09228,-0.14376 -7.98911,12.7578 -10.11313,12.72649c-2.73919,-0.04037 -11.27856,-10.94616 -14.00086,-10.65913c-7.23972,0.76333 -6.70343,7.75644 -11.28259,14.27876c-2.97565,4.23837 -15.27986,-11.51317 -17.92139,-6.77487c-3.28048,5.88441 -6.54307,11.56756 -10.38329,15.59204c-3.01279,3.15736 -14.34921,-8.63991 -16.93485,-5.735c-12.48422,14.0257 -19.93641,22.86018 -21.84183,4.78852c-3.83143,-36.33872 42.18779,-12.70714 81.48355,-38.49138c37.61351,-24.68041 82.19942,-18.09308 86.03084,18.24564z" fill="#ef8b89" stroke-width="0"/></g><path d="M355.17607,103.74726c2.46235,23.35389 7.40953,7.98239 -11.49379,0.34683c-2.31322,-0.93437 -9.75925,7.33982 -12.67207,6.41199c-1.82958,-0.58279 -9.89805,-9.18833 -11.9222,-9.65469c-1.41525,-0.32607 -11.82919,9.67124 -13.30492,9.37369c-3.68056,-0.7421 -13.42903,-10.02069 -17.32684,-10.27138c-2.1464,-0.13805 -8.23228,12.78344 -10.41154,12.75795c-2.81043,-0.03286 -11.54231,-10.91834 -14.33631,-10.62376c-7.43042,0.78344 -6.89937,7.7771 -11.61574,14.31389c-3.06481,4.24777 -15.64629,-11.47454 -18.36967,-6.72761c-3.38211,5.89511 -6.7453,11.58887 -10.69659,15.62507c-3.09994,3.16655 -14.69928,-8.60299 -17.36026,-5.69014c-12.84798,14.06405 -20.51858,22.92155 -22.42399,4.84989c-3.83143,-36.33872 31.12268,-84.98884 76.79635,-89.80451c45.67365,-4.81567 91.30618,32.75406 95.13761,69.09278z" fill="#873412" stroke-width="2"/><path d="M354.80778,102.61686c2.46235,23.35389 7.40953,7.98239 -11.49379,0.34683c-2.31322,-0.93437 -9.75925,7.33982 -12.67207,6.41199c-1.82958,-0.58279 -9.89805,-9.18833 -11.92221,-9.65469c-1.41525,-0.32607 -11.82919,9.67124 -13.30492,9.37369c-3.68056,-0.7421 -13.42903,-10.02068 -17.32683,-10.27137c-2.1464,-0.13805 -8.23228,12.78343 -10.41154,12.75794c-2.81043,-0.03286 -11.54231,-10.91834 -14.33631,-10.62375c-7.43042,0.78344 -6.89937,7.77709 -11.61574,14.31388c-3.06481,4.24777 -15.64629,-11.47454 -18.36967,-6.72761c-3.38211,5.89511 -6.74531,11.58887 -10.69661,15.62507c-3.09994,3.16655 -14.69928,-8.60299 -17.36026,-5.69014c-12.84798,14.06405 -20.51858,22.92155 -22.42399,4.84989c-3.83143,-36.33872 43.32173,-12.82671 83.71201,-38.72635c38.66118,-24.79087 84.3905,-18.3241 88.22193,18.01462z" fill="#741d23" stroke-width="0"/></g><path d="M263.49101,44.72863c0.0768,0.10818 0.14417,0.23528 0.20344,0.37668c0.12085,0.24784 0.20239,0.51994 0.23571,0.80908c0.22728,1.11866 0.21886,2.50421 0.31525,2.98887c0.12664,0.63675 1.10539,-0.868 1.75424,-0.8462c0.39746,0.01335 0.86608,0.67454 1.13147,0.37835c1.61055,-1.79743 2.90505,-4.80992 5.81463,-3.48448c0.9636,0.43896 0.8708,1.80934 1.50415,2.43109c0.05324,0.05227 2.5805,-0.40944 3.22872,0.0581c1.11693,0.8056 0.55357,2.20599 1.17783,3.13833c0.19975,0.29834 0.52495,-0.50005 0.83641,-0.67864c1.38618,-0.7948 3.7648,-2.41464 5.6132,-1.60225c0.97396,0.42807 0.96333,2.04984 1.51379,2.43615c0.96502,0.67724 1.77976,-1.5603 2.77304,-2.19538c1.37377,-0.87835 2.17059,-0.25765 3.50099,0.49312c0.22946,0.1295 0.90356,4.05967 2.12108,5.09544c0.68436,0.58221 1.55242,-1.02712 2.44425,-1.13649c0.88984,-0.10911 2.61878,-1.01773 3.04919,-0.95892c0.86335,0.11796 1.735,1.46701 2.43578,0.9491c3.57788,-2.64422 8.61361,-1.7184 7.50785,3.3858c-0.13994,0.64595 1.25445,-0.70936 1.89993,-0.56725c0.25023,0.05509 1.70149,0.90839 1.91841,0.79904c1.41888,-0.71525 2.27775,-1.52687 3.85972,-1.69756c1.31381,-0.14175 2.65336,0.46502 3.10317,1.80571c0.23641,0.70459 -0.76926,2.21601 -0.02618,2.22942c1.75154,0.03165 4.53836,0.4672 4.03641,3.07168c-0.54488,2.8272 -2.58297,5.44447 -5.36082,3.63478c-0.96378,-0.62787 -2.16128,1.4774 -3.2591,1.13407c-1.40639,-0.43982 -2.3107,-2.64563 -2.36298,-3.82324c-0.02416,-0.54437 -1.02815,0.48447 -1.57191,0.44892c-0.73211,-0.04786 -1.18732,-1.09693 -1.92066,-1.07492c-1.64032,0.04925 -1.00883,3.39063 -4.95643,3.01593c-1.16518,-0.11059 -2.73082,-1.90516 -3.22339,-2.95725c-0.28593,-0.61072 1.16091,-2.78666 0.99267,-2.87509c-0.40854,-0.21471 -1.63859,3.01587 -2.04778,3.20195c-0.98439,0.44766 -2.17595,-0.15241 -3.21025,-0.46808c-0.9138,-0.27889 -0.94879,2.00044 -1.89194,2.15318c-0.83323,0.13493 -9.35245,0.50091 -9.73867,0.03586c-0.47087,-0.56697 -0.99655,-1.62547 -0.91413,-2.34777c0.02963,-0.25958 0.77741,-1.9334 0.59896,-1.89432c-0.63334,0.13866 -3.8044,3.85989 -6.30304,0.85122c-1.35874,-1.63609 0.58957,-3.68059 0.42249,-5.29612c-0.10318,-0.99767 -0.92711,1.78247 -1.30121,2.71308c-0.28733,0.71479 -1.29021,1.44857 -2.0578,1.55462c-2.65391,0.36667 -2.18674,-2.25795 -2.9045,-3.70506c-0.33123,-0.66782 -1.50667,0.75732 -2.18914,0.45738c-1.66862,-0.73337 -1.55644,-1.91616 -1.85405,-3.42544c-0.13627,-0.69108 -0.26097,2.75773 -1.87905,3.09581c-0.65621,0.1371 -1.81334,-0.76141 -2.00758,-0.11978c-0.94567,3.12382 -0.11734,4.25529 -3.9429,4.17491c-0.36916,-0.00776 -0.8889,0.89378 -1.30324,0.71168c-4.58578,-2.01551 -1.68724,-7.79748 -1.98616,-11.79629c-0.10543,-1.41055 -1.24767,-3.41559 -0.09991,-4.24228c0.35523,-0.77839 1.10107,-1.35408 2.01357,-1.45029c0.80909,-0.08531 1.56865,0.22538 2.08577,0.77593c0.08217,0.06873 0.15641,0.14719 0.22074,0.23781z" fill="#ba587e" stroke="none" stroke-width="0.5"/></g><g stroke="#000000" stroke-linecap="butt"><path d="M296.52936,150.30576c2.99455,28.40151 -8.55658,44.43161 -25.03379,46.16891c-16.47721,1.7373 -31.64091,-11.47609 -34.63546,-39.87759c-2.99455,-28.40151 7.9353,-52.83384 24.41251,-54.57114c16.47721,-1.7373 32.26219,19.87831 35.25674,48.27982z" fill="#f0f0f0" stroke-width="2"/><path d="M247.97805,135.73392c-1.31849,28.52848 40.54018,58.11109 24.06297,59.84839c-16.47721,1.7373 -31.64091,-11.47609 -34.63546,-39.87759c-2.99455,-28.40151 12.47864,-61.21455 10.57249,-19.9708z" fill="#9a99ff" stroke-width="0"/></g><path d="M296.74574,156.09431c1.65904,15.73499 -1.6591,28.98239 -7.41128,29.58887c-5.75218,0.60649 -11.76016,-11.65759 -13.4192,-27.39258c-1.65904,-15.73499 1.6591,-28.98238 7.41128,-29.58887c5.75218,-0.60649 11.76015,11.65758 13.41919,27.39257z" fill="#000000" stroke="none" stroke-width="0" stroke-linecap="butt"/><g stroke="#000000" stroke-linecap="butt"><path d="M288.39838,120.96191c5.50753,9.70582 -8.36257,15.08162 -23.98622,16.72892c-15.62366,1.64731 -27.51681,-1.76599 -24.00526,-11.80475c3.34119,-9.55173 4.50643,-22.01279 20.13009,-23.66009c15.62366,-1.64731 22.61265,9.48615 27.86138,18.73592z" fill="#a100fe" stroke-width="2"/><path d="M287.44206,120.70655c5.3563,9.72177 -8.02693,15.04623 -23.11786,16.63736c-15.09093,1.59113 -26.59515,-1.86317 -23.23771,-11.88568c3.19455,-9.53626 6.62295,0.26906 21.71388,-1.32207c15.09093,-1.59113 19.53706,-12.69458 24.64168,-3.42962z" fill="#99008e" stroke-width="0"/></g><g data-paper-data="{&quot;index&quot;:null}" stroke="#000000" stroke-linecap="butt"><path d="M325.24694,93.52191c16.47721,-1.7373 32.26219,19.87831 35.25674,48.27982c2.99455,28.4015 -9.08,44.48679 -25.55721,46.22409c-16.47721,1.7373 -31.11749,-11.53127 -34.11204,-39.93277c-2.99455,-28.40151 7.9353,-52.83384 24.41251,-54.57113z" fill="#f0f0f0" stroke-width="2"/><path d="M359.78412,141.04272c2.99455,28.4015 -9.07999,44.4868 -25.5572,46.22409c-16.47721,1.7373 18.29145,-35.92462 11.0522,-63.55081c-10.46581,-39.9393 11.51045,-11.07479 14.505,17.32671z" fill="#9a99ff" stroke-width="0"/></g><path d="M345.43152,124.21205c5.75218,-0.60649 11.76015,11.65758 13.41919,27.39257c1.65904,15.73499 -1.6591,28.98239 -7.41128,29.58887c-5.75218,0.60649 -11.76016,-11.65759 -13.4192,-27.39258c-1.65904,-15.73499 1.6591,-28.98238 7.41128,-29.58887z" data-paper-data="{&quot;index&quot;:null}" fill="#000000" stroke="none" stroke-width="0" stroke-linecap="butt"/><g data-paper-data="{&quot;index&quot;:null}" stroke="#000000" stroke-linecap="butt"><path d="M302.66684,117.69865c3.20424,-10.14103 7.71762,-22.48724 23.34127,-24.13454c15.62366,-1.64731 19.36208,10.29673 24.62185,18.9416c5.52796,9.08567 -5.39181,14.90428 -21.01546,16.55158c-15.62366,1.64731 -30.3099,-0.71761 -26.94768,-11.35863z" fill="#a100fe" stroke-width="2"/><path d="M303.54887,117.24945c3.06014,-10.12583 9.72416,-0.1938 24.81509,-1.78493c15.09093,-1.59113 16.39899,-11.89585 21.51214,-3.23552c5.37385,9.10191 -5.15699,14.87952 -20.24792,16.47065c-15.09093,1.59113 -29.29031,-0.82512 -26.07931,-11.45018z" fill="#99008e" stroke-width="0"/></g><path d="M371.63632,338.87c0,11.6628 -14.51982,21.11737 -32.43092,21.11737c-17.9111,0 -32.43092,-9.45457 -32.43092,-21.11737c0,-2.33142 -0.03339,-13.76009 1.08979,-15.13837c4.49546,-5.51647 17.81784,5.26144 32.14847,5.26144c17.9111,0 31.62358,-1.78588 31.62358,9.87692z" fill="#000082" stroke="#000000" stroke-width="2" stroke-linecap="butt"/><path d="M369.75004,336.1377c0,6.30841 -13.89058,10.1901 -31.80169,10.1901c-17.9111,0 -30.16566,-2.95748 -30.16566,-9.26589c0,-1.26107 -0.03338,-12.52602 1.0898,-13.27153c4.49546,-2.98386 15.55258,5.7726 29.88321,5.7726c17.9111,0 30.99434,0.26631 30.99434,6.57472z" fill="#2e0048" stroke="#000000" stroke-width="0" stroke-linecap="butt"/><path d="M328.64938,338.22519c0,11.6628 -14.51982,21.11737 -32.43092,21.11737c-17.9111,0 -32.43092,-9.45457 -32.43092,-21.11737c0,-2.33142 -0.03339,-13.76009 1.08979,-15.13837c4.49546,-5.51647 17.81784,5.26144 32.14847,5.26144c17.9111,0 31.62358,-1.78588 31.62358,9.87692z" fill="#000082" stroke="#000000" stroke-width="2" stroke-linecap="butt"/><path d="M326.7631,335.49289c0,6.30841 -13.89058,10.1901 -31.80169,10.1901c-17.9111,0 -30.16566,-2.95748 -30.16566,-9.26589c0,-1.26107 -0.03338,-12.52602 1.0898,-13.27153c4.49546,-2.98386 15.55258,5.7726 29.88321,5.7726c17.9111,0 30.99434,0.26631 30.99434,6.57472z" fill="#2e0048" stroke="#000000" stroke-width="0" stroke-linecap="butt"/><g><g><path d="M296.26952,255.52286c-14.9676,1.89568 -24.66278,-4.52411 -27.22828,-19.23899c-2.00652,-11.50865 8.85187,-26.00414 23.81949,-27.89982c14.96768,-1.89573 27.06573,6.39891 28.94258,21.21736c0.29351,2.31732 -0.12338,4.54306 -0.48514,6.57948c-1.95165,10.98552 -12.42166,17.74272 -25.04863,19.34197z" fill="#485e84" stroke="#000000" stroke-width="2" stroke-linecap="butt"/><path d="M280.80408,215.03403c0,0 0.28336,5.74897 2.02555,6.73799c16.71143,9.48693 30.73596,8.75857 35.35613,8.16367c1.0497,-0.13515 1.49996,-1.1638 1.49996,-1.1638c0,0 0.48436,2.05754 0.23197,4.78707c-0.26856,2.90445 -1.32375,6.56375 -3.04854,9.10741c-1.97024,2.90556 -8.26914,8.36746 -8.26914,8.36746l-20.11808,5.84137c0,0 -11.30311,-7.29346 -12.60743,-9.02428c-1.2778,-1.69561 -2.30349,-4.06852 -3.4956,-6.54759c-1.85089,-3.84913 -2.27475,-8.36877 -1.72632,-11.19614c0.69996,-3.60836 3.01525,-7.65699 5.45397,-10.59213c2.26967,-2.7317 4.69756,-4.48091 4.69756,-4.48091z" fill="#343545" stroke="none" stroke-width="0" stroke-linecap="butt"/><path d="M286.20119,238.86759c0,0 -2.9633,-8.52156 -1.34252,-13.41576c2.0517,-6.19556 9.39829,-16.87874 9.39829,-16.87874" fill="none" stroke="#000000" stroke-width="1" stroke-linecap="round"/><path d="M319.31595,222.96384c0,0 -0.61726,7.12382 -1.99949,11.19337c-1.39537,4.10842 -7.5544,11.60636 -7.5544,11.60636" fill="none" stroke="#000000" stroke-width="1" stroke-linecap="round"/><path d="M276.14456,243.25169c0,0 -3.17246,-8.70183 -1.17553,-13.92305c3.06424,-8.01179 9.22892,-17.83484 9.22892,-17.83484" fill="none" stroke="#000000" stroke-width="1" stroke-linecap="round"/><path d="M270.15543,229.19011c0,0 12.28148,-12.19182 29.44568,-9.20275c18.80119,3.27414 20.64382,20.42335 20.64382,20.42335" fill="none" stroke="#000000" stroke-width="1" stroke-linecap="round"/><path d="M270.08088,238.71373c0,0 14.52384,-10.29176 29.67552,-7.68671c12.44091,2.13899 15.34426,16.43897 15.34426,16.43897" fill="none" stroke="#000000" stroke-width="1" stroke-linecap="round"/><path d="M306.78174,214.96353c-1.09626,-0.49537 -1.66702,-1.60048 -1.27486,-2.4683c0.39211,-0.86789 1.12691,-0.56121 2.22317,-0.06585c1.09626,0.49537 2.13882,0.99183 1.74667,1.85967c-0.39211,0.86789 -1.59875,1.16985 -2.69496,0.67447z" fill="#8fbbbe" stroke="none" stroke-width="0" stroke-linecap="butt"/><path d="M312.93778,218.83161c-0.59671,0.07556 -1.17235,-0.58874 -1.28571,-1.48382c-0.11337,-0.89508 -0.03608,-1.27617 0.56063,-1.35177c0.59671,-0.07556 1.35243,0.56593 1.46576,1.46101c0.11337,0.89508 -0.14402,1.299 -0.74072,1.37455z" fill="#8fbbbe" stroke="none" stroke-width="0" stroke-linecap="butt"/><path d="M300.45085,212.17354c-0.90209,0.01734 -1.64268,-0.45608 -1.65426,-1.05743c-0.01161,-0.60132 0.77873,-0.56272 1.68079,-0.58008c0.90209,-0.01734 1.57426,-0.08417 1.58585,0.51719c0.01161,0.60132 -0.71032,1.10296 -1.61237,1.1203z" fill="#8fbbbe" stroke="none" stroke-width="0" stroke-linecap="butt"/><path d="M277.319,217.85395c0,0 9.18354,-4.51024 16.73818,-5.0995c4.2831,-0.33406 8.17337,0.85009 11.1127,1.78091c2.59941,0.82313 7.58852,5.10502 11.06618,8.77981c2.56042,2.70554 4.14707,5.18535 4.14707,5.18535" fill="none" stroke="#000000" stroke-width="0.5" stroke-linecap="round"/><path d="M310.87664,211.22524c0,0 0.92417,10.53204 -0.60474,15.71659c-1.28813,4.36811 -7.61069,13.31737 -7.61069,13.31737" fill="none" stroke="#000000" stroke-width="1" stroke-linecap="round"/><path d="M296.87363,239.34554c0,0 -0.7374,-9.63765 0.06485,-14.08818c1.40861,-7.81427 7.63074,-16.16064 7.63074,-16.16064" fill="none" stroke="#000000" stroke-width="1" stroke-linecap="round"/></g><g stroke="#000000" stroke-linecap="butt"><path d="M268.76184,243.94012c32.78591,6.03347 37.01159,14.7052 35.54715,22.66295c-1.46444,7.95776 -29.22984,9.51769 -62.01576,3.4842c-32.78591,-6.03348 23.97731,-50.68129 25.44175,-58.63903c4.89588,-5.13405 7.83361,0.6941 6.75124,8.4777c-1.33481,9.59901 -8.52679,23.49846 -5.72438,24.01418z" fill="#0d69be" stroke-width="2"/><path d="M295.58064,236.58466c14.07254,2.58971 23.32718,16.39074 20.67082,30.82543c-2.65636,14.43471 -16.21783,24.03697 -30.29037,21.44725c-14.07254,-2.58971 -23.32718,-16.39075 -20.67081,-30.82544c2.65636,-14.43471 16.21782,-24.03696 30.29037,-21.44724z" fill="#faddbf" stroke-width="2"/><path d="M276.91155,273.55374c14.07254,2.58971 41.22447,-21.12205 38.56811,-6.68735c-2.65636,14.43471 -16.21783,24.03697 -30.29037,21.44724c-14.07254,-2.58971 -22.3503,-17.34961 -8.27774,-14.75989z" fill="#ef8b89" stroke-width="0"/></g></g><path d="M219.08116,164.74617l0.03429,-0.31744c0.09653,-0.34767 0.19304,-0.69535 0.28957,-1.04302c1.41832,-2.41855 5.79077,-2.88152 7.1471,0.20969c0.85395,1.94625 0.55094,4.76252 -0.21125,6.69934c-0.48887,1.24229 -1.49906,2.2297 -1.20946,3.6756c0.42788,2.13622 3.26761,2.91058 3.36643,5.34835c0.02822,0.69624 -0.35321,1.34812 -0.52983,2.02217c-6.94685,1.734 -11.8635,-4.79044 -11.01396,-11.40645c0.23645,-1.84142 1.1663,-3.59961 2.12711,-5.18824z" fill="#000000" stroke="none" stroke-width="0.5" stroke-linecap="butt"/></g></g></svg>