<svg version="1.1" xmlns="http://www.w3.org/2000/svg" xmlns:xlink="http://www.w3.org/1999/xlink" width="372.37278" height="344.86951" viewBox="0,0,372.37278,344.86951"><g transform="translate(-113.4255,-8.06524)"><g data-paper-data="{&quot;isPaintingLayer&quot;:true}" fill-rule="nonzero" stroke-linejoin="miter" stroke-miterlimit="10" stroke-dasharray="" stroke-dashoffset="0" style="mix-blend-mode: normal"><g data-paper-data="{&quot;index&quot;:null}" stroke="#000000" stroke-linecap="butt"><path d="M424.84515,250.00484l3.18721,-47.9546l50.88516,3.38198l-3.1872,47.9546z" fill="#ffcaa0" stroke-width="2"/><g><path d="M427.85369,202.21904l4.39481,-66.12414l51.54839,3.42606l-4.3948,66.12415z" fill="#ff0008" stroke-width="2"/><path d="M428.58155,202.48036l2.30187,-34.63386c0,0 14.46343,15.41121 23.02114,15.97998c8.11398,0.53928 27.06478,-12.65112 27.06478,-12.65112l-2.30187,34.63387c0,0 -16.47377,-1.09489 -24.77655,-1.64672c-8.39159,-0.55773 -25.30937,-1.68214 -25.30937,-1.68214z" fill="#8d005e" stroke-width="0"/></g><path d="M425.67019,249.51414l3.18721,-47.9546l10.89408,33.37019l36.80387,17.96639z" fill="#ff6e5b" stroke-width="0"/></g><g data-paper-data="{&quot;index&quot;:null}" stroke="#000000" stroke-linecap="butt"><path d="M484.20776,85.54364c-2.13575,32.13438 -15.72501,57.39632 -30.3525,56.42414c-14.62748,-0.97218 -24.75402,-27.81036 -22.61828,-59.94473c2.13574,-32.13437 15.72501,-57.39632 30.3525,-56.42414c14.62748,0.97218 24.75402,27.81036 22.61827,59.94473z" fill="#01930e" stroke-width="2"/><path d="M441.06329,72.60549c-2.13574,32.13438 27.84921,69.92791 13.22174,68.95572c-14.62747,-0.97218 -24.75402,-27.81036 -22.61827,-59.94473c2.13574,-32.13437 11.53228,-41.14537 9.39653,-9.01099z" fill="#31525b" stroke-width="0"/></g><g data-paper-data="{&quot;index&quot;:null}" stroke="#000000" stroke-linecap="butt"><path d="M360.04537,335.73904l5.98648,-90.07237l61.04431,4.05719l-5.98648,90.07237z" fill="#273750" stroke-width="2"/><path d="M360.88115,335.03634l5.98648,-90.07236l15.11607,50.42911l39.94175,43.70045z" fill="#1f1e2e" stroke-width="0"/></g><path d="M314.18884,241.80884l7.54693,-113.55095l113.55095,7.54693l-7.54693,113.55095z" data-paper-data="{&quot;index&quot;:null}" fill="#ff0008" stroke="#000000" stroke-width="2" stroke-linecap="butt"/><g data-paper-data="{&quot;index&quot;:null}" stroke="#000000" stroke-linecap="butt"><path d="M307.52576,332.69378l5.98647,-90.07237l61.04432,4.05719l-5.98648,90.07237z" fill="#273750" stroke-width="2"/><path d="M308.36158,331.99106l5.98648,-90.07237l15.11608,50.42911l39.94175,43.70044z" fill="#1f1e2e" stroke-width="0"/></g><g data-paper-data="{&quot;index&quot;:null}" stroke="#000000" stroke-linecap="butt"><path d="M262.77079,238.88961l3.18721,-47.9546l50.88516,3.38198l-3.18721,47.9546z" fill="#ffcaa0" stroke-width="2"/><g><path d="M265.77933,191.10381l4.39481,-66.12414l51.54839,3.42606l-4.39481,66.12415z" fill="#ff0008" stroke-width="2"/><path d="M266.50718,191.36513l2.30187,-34.63387c0,0 14.46344,15.41121 23.02114,15.97999c8.11398,0.53928 27.06478,-12.65113 27.06478,-12.65113l-2.30187,34.63388c0,0 -16.47377,-1.0949 -24.77654,-1.64673c-8.39159,-0.55773 -25.30937,-1.68213 -25.30937,-1.68213z" fill="#8d005e" stroke-width="0"/></g><path d="M263.59583,238.39892l3.1872,-47.95461l10.89408,33.37019l36.80387,17.96639z" fill="#ff6e5b" stroke-width="0"/></g><g data-paper-data="{&quot;index&quot;:null}" fill="#000000" stroke="#000000" stroke-linecap="butt"><path d="M341.05384,243.12411l7.40647,-111.43747l61.04431,4.05719l-7.40647,111.43748z" stroke-width="2"/><path d="M341.90156,242.24236l7.40646,-111.43747l14.34033,62.10099l39.29751,53.39367z" stroke-width="0"/></g><g data-paper-data="{&quot;index&quot;:null}" stroke="#000000" stroke-linecap="butt"><path d="M307.27412,72.21138c0.09128,-1.37343 2.70076,-27.26098 2.89258,-28.6066c4.84705,-34.00273 38.81613,-34.2365 81.1671,-31.42173c39.78207,2.64403 73.84565,9.46015 77.75955,41.07995c0.41763,3.37396 -2.15228,26.06638 -2.38347,29.54495c-0.82638,12.43371 0.34025,39.96006 -7.67546,49.36458c-15.24347,17.88458 -47.53008,12.58148 -76.38423,10.66375c-30.50805,-2.02766 -59.02282,-2.93941 -71.05275,-24.45902c-5.33078,-9.53591 -5.05964,-35.08749 -4.32333,-46.16588z" fill="#ffcaa0" stroke-width="2"/><path d="M305.44412,72.09996c0.09128,-1.37343 2.70076,-27.26099 2.89258,-28.6066c2.75387,-19.31873 2.83252,60.87813 49.06007,85.92387c36.22708,19.62757 103.68886,-1.20246 100.46616,2.57861c-15.24347,17.88458 -48.18858,12.64674 -77.04272,10.72901c-30.50805,-2.02766 -59.02281,-2.93941 -71.05275,-24.45902c-5.33078,-9.53591 -5.05964,-35.08749 -4.32333,-46.16588z" fill="#ff6e5b" stroke-width="0"/></g><g data-paper-data="{&quot;index&quot;:null}" stroke="#000000" stroke-linecap="butt"><path d="M352.56012,74.71545c-2.13574,32.13438 -15.72501,57.39632 -30.35249,56.42414c-14.62748,-0.97218 -24.75403,-27.81036 -22.61828,-59.94473c2.13574,-32.13437 15.72502,-57.39632 30.3525,-56.42413c14.62748,0.97218 24.75402,27.81036 22.61827,59.94473z" fill="#01930e" stroke-width="2"/><path d="M309.41565,61.77731c-2.13574,32.13438 27.84921,69.92791 13.22174,68.95572c-14.62747,-0.97218 -24.75402,-27.81036 -22.61827,-59.94473c2.13574,-32.13437 11.53228,-41.14536 9.39653,-9.01099z" fill="#31525b" stroke-width="0"/></g><g data-paper-data="{&quot;index&quot;:null}" stroke-linecap="butt"><path d="M485.54961,46.68804c-1.17121,17.62208 -43.38994,29.16471 -94.29817,25.7812c-50.90823,-3.38352 -91.22802,-20.41191 -90.05681,-38.03398c1.17122,-17.62208 43.38993,-29.16471 94.29816,-25.78119c50.90823,3.38352 91.22804,20.41191 90.05682,38.03399z" fill="#000000" stroke="none" stroke-width="NaN"/><path d="M484.79828,46.98315c-1.17121,17.62208 -43.38994,29.16472 -94.29817,25.78121c-50.90823,-3.38352 -91.22802,-20.41191 -90.05681,-38.03398c1.17122,-17.62208 42.1118,11.66739 93.02002,15.05091c50.90823,3.38352 92.50617,-20.42021 91.33496,-2.79813z" fill="#ff0000" stroke="#000000" stroke-width="2"/><path d="M478.81441,55.80268c-0.32231,4.84944 -37.82381,21.02138 -88.63704,16.20849c-17.78156,-1.68422 -34.47877,-4.42945 -47.98545,-8.28751c-25.07527,-7.16253 -40.12324,-16.76412 -37.52958,-20.69051c2.67879,-4.05524 36.45828,19.33862 87.36651,22.72213c50.90823,3.38352 87.10787,-14.80205 86.78556,-9.95261z" fill="#900056" stroke="#000000" stroke-width="0"/></g><path d="M388.63557,103.26664c-1.04233,15.68292 -4.78599,28.20378 -8.3617,27.96613c-3.57571,-0.23765 -5.62941,-13.14382 -4.58708,-28.82673c1.04233,-15.68292 4.786,-28.20377 8.3617,-27.96612c3.57571,0.23765 5.62941,13.14382 4.58707,28.82674z" data-paper-data="{&quot;index&quot;:null}" fill="#000000" stroke="none" stroke-width="0" stroke-linecap="butt"/><path d="M411.88659,103.39068c-1.03817,15.62019 -4.62589,28.10034 -8.01339,27.87519c-3.38752,-0.22514 -5.29203,-13.07032 -4.25387,-28.69051c1.03816,-15.62019 4.62589,-28.10033 8.01339,-27.87519c3.38752,0.22514 5.29203,13.07032 4.25387,28.69051z" data-paper-data="{&quot;index&quot;:null}" fill="#000000" stroke="none" stroke-width="0" stroke-linecap="butt"/><path d="M364.18413,126.56981c-0.39687,-1.74503 -0.75522,-3.49745 -1.20684,-5.22889c-0.40346,-1.18225 -0.69997,-2.00464 -1.04586,-3.22068c-0.78807,-2.77057 -3.82153,-4.63009 -4.56417,-0.56011c-0.66996,3.67167 -0.17213,8.09433 1.0258,11.58357c0,0 0.40319,1.1832 -0.78,1.58639c-1.1832,0.40319 -1.58639,-0.78 -1.58639,-0.78c-1.35694,-4.00875 -2.44141,-10.49318 -0.55433,-14.50865c1.83558,-3.90588 6.79296,-3.58832 8.41809,0.33081c0.62785,1.51412 0.94904,3.28567 1.4811,4.84923c0.481,1.84076 0.86285,3.70221 1.28754,5.55695l0.02049,0.48674c0,0 -0.0829,1.24724 -1.33015,1.16435c-1.06757,-0.07095 -1.16062,-0.99495 -1.16529,-1.2597z" data-paper-data="{&quot;index&quot;:null}" fill="#000000" stroke="none" stroke-width="0.5" stroke-linecap="butt"/><path d="M388.76614,76.79199l-29.93396,-1.9895" fill="none" stroke="#000000" stroke-width="5" stroke-linecap="round"/><path d="M403.42456,76.14297l23.58196,-2.96646" fill="none" stroke="#000000" stroke-width="5" stroke-linecap="round"/><g data-paper-data="{&quot;index&quot;:null}"><g><path d="M208.18681,257.70959c-12.71672,-0.53208 -23.71774,-6.38518 -26.58598,-17.16774c-0.53166,-1.99879 -1.1342,-4.1816 -1.03653,-6.5154c0.62446,-14.92378 11.9824,-24.20609 27.05646,-23.57536c15.07401,0.6307 27.11256,14.16204 26.08063,25.79863c-1.31938,14.87846 -10.44056,22.09056 -25.51454,21.45986z" fill="#0000c4" stroke="#000000" stroke-width="2" stroke-linecap="butt"/><path d="M220.19378,216.06406c0,0 2.56634,1.5389 5.05763,4.07013c2.67683,2.71974 5.32426,6.5594 6.32509,10.09615c0.78418,2.77125 0.74177,7.31053 -0.77898,11.30164c-0.97949,2.57051 -1.80206,5.02125 -2.9328,6.81827c-1.15418,1.83434 -11.80415,10.0522 -11.80415,10.0522l-20.53792,-4.12943c0,0 -6.73575,-4.91304 -8.94329,-7.64267c-1.93253,-2.38965 -3.2916,-5.9473 -3.80338,-8.81889c-0.48096,-2.69863 -0.17129,-4.78962 -0.17129,-4.78962c0,0 0.53513,0.98715 1.59248,1.03358c4.65381,0.20438 18.68993,-0.24882 34.54467,-11.10705c1.65287,-1.13197 1.45193,-6.88441 1.45193,-6.88441z" fill="#2e006f" stroke="none" stroke-width="0" stroke-linecap="butt"/><path d="M206.2454,210.7568c0,0 8.21867,10.02776 10.78394,16.02891c2.02648,4.74062 -0.20996,13.48114 -0.20996,13.48114" fill="none" stroke="#000000" stroke-width="1" stroke-linecap="round"/><path d="M193.92165,249.11908c0,0 -6.76756,-6.95363 -8.50338,-10.9302c-1.71946,-3.93895 -2.9334,-10.98565 -2.9334,-10.98565" fill="none" stroke="#000000" stroke-width="1" stroke-linecap="round"/><path d="M216.51431,212.82157c0,0 6.96866,9.27004 10.69556,16.99586c2.42878,5.03486 -0.00091,13.97259 -0.00091,13.97259" fill="none" stroke="#000000" stroke-width="1" stroke-linecap="round"/><path d="M183.02588,244.66644c0,0 0.39445,-17.2434 18.85384,-22.0865c16.85215,-4.42142 30.11508,6.69477 30.11508,6.69477" fill="none" stroke="#000000" stroke-width="1" stroke-linecap="round"/><path d="M188.74504,251.26429c0,0 1.69092,-14.49345 13.90798,-17.67073c14.87905,-3.86956 30.21667,5.1648 30.21667,5.1648" fill="none" stroke="#000000" stroke-width="1" stroke-linecap="round"/><path d="M194.30214,218.17753c-1.05069,0.58578 -2.27844,0.38634 -2.74212,-0.44552c-0.46371,-0.83182 0.53341,-1.41416 1.58416,-1.99993c1.05074,-0.58578 1.75715,-0.95314 2.22083,-0.12129c0.46373,0.8318 -0.0121,1.98098 -1.06284,2.56674z" fill="#8fbbbe" stroke="none" stroke-width="0" stroke-linecap="butt"/><path d="M188.49311,222.54943c-0.60094,-0.02514 -0.89138,-0.40599 -0.85366,-1.30743c0.03769,-0.90143 0.73681,-1.60419 1.33776,-1.57906c0.60095,0.02516 0.71001,0.39841 0.67228,1.29985c-0.03772,0.90143 -0.55546,1.61178 -1.15642,1.58665z" fill="#8fbbbe" stroke="none" stroke-width="0" stroke-linecap="butt"/><path d="M200.37608,214.86519c-0.90032,0.05856 -1.66188,-0.38061 -1.70085,-0.98078c-0.039,-0.60021 0.6364,-0.59011 1.53676,-0.64868c0.90033,-0.05853 1.68462,-0.16344 1.7236,0.43673c0.03902,0.60021 -0.65915,1.13419 -1.55951,1.19276z" fill="#8fbbbe" stroke="none" stroke-width="0" stroke-linecap="butt"/><path d="M181.88691,232.81003c0,0 1.37256,-2.60442 3.69648,-5.51563c3.15643,-3.95414 7.76791,-8.64029 10.28893,-9.67903c2.85068,-1.17461 6.62763,-2.68161 10.92365,-2.7088c7.57743,-0.04792 17.10762,3.67432 17.10762,3.67432" fill="none" stroke="#000000" stroke-width="0.5" stroke-linecap="round"/><path d="M200.53463,243.03729c0,0 -7.05251,-8.38607 -8.7033,-12.63043c-1.95936,-5.03767 -1.92385,-15.61012 -1.92385,-15.61012" fill="none" stroke="#000000" stroke-width="1" stroke-linecap="round"/><path d="M196.01365,212.1455c0,0 6.90174,7.79376 8.96228,15.46195c1.17355,4.36732 1.24896,14.03285 1.24896,14.03285" fill="none" stroke="#000000" stroke-width="1" stroke-linecap="round"/></g><g stroke="#000000" stroke-linecap="butt"><path d="M234.62344,243.85537c2.74913,-0.74949 -5.58585,-13.99514 -7.72291,-23.44795c-1.73288,-7.66506 0.70449,-13.71955 6.01465,-9.01524c2.12823,7.80647 62.4439,47.52434 30.28127,56.29266c-32.16264,8.76833 -59.9609,9.54805 -62.08913,1.74158c-2.12824,-7.80647 1.35348,-16.80273 33.51612,-25.57105z" fill="#0d69be" stroke-width="2"/><path d="M239.26738,257.60541c3.86044,14.16029 -4.20123,28.69047 -18.00626,32.45406c-13.80502,3.76357 -28.12572,-4.66463 -31.98615,-18.82493c-3.86044,-14.16029 4.20124,-28.69046 18.00626,-32.45405c13.80502,-3.76359 28.12571,4.66461 31.98615,18.82491z" fill="#faddbf" stroke-width="2"/><path d="M221.98446,289.4528c-13.80502,3.76358 -28.12571,-4.66461 -31.98615,-18.82491c-3.86044,-14.16029 25.18875,7.18498 38.99377,3.42139c13.80503,-3.76359 6.7974,11.63994 -7.00762,15.40352z" fill="#ef8b89" stroke-width="0"/></g></g><g data-paper-data="{&quot;index&quot;:null}" stroke="#000000" stroke-linecap="butt"><path d="M242.6177,328.48674l31.68226,-89.87412l27.81435,9.80506l-31.68225,89.87412z" fill="#73fffc" stroke-width="2"/><path d="M243.85917,327.92088l21.9164,-6.20551c0,0 2.36887,0.08409 3.30635,-1.7926c4.24061,-8.48921 31.79249,-70.99716 31.79249,-70.99716l-29.92969,88.89171z" fill="#59a9e6" stroke-width="0"/></g><g data-paper-data="{&quot;index&quot;:null}" stroke="#000000" stroke-linecap="butt"><path d="M330.24086,301.68033l-61.61022,-72.70009l22.4993,-19.06721l61.61022,72.70008z" fill="#73fffc" stroke-width="2"/><path d="M330.37868,300.32296l5.70027,-22.05321c0,0 1.26783,-2.00281 0.12052,-3.75909c-5.1898,-7.9445 -45.2566,-63.27084 -45.2566,-63.27084l61.6463,70.69128z" fill="#59a9e6" stroke-width="0"/></g><g data-paper-data="{&quot;index&quot;:null}" stroke="#000000" stroke-linecap="butt"><path d="M220.28758,177.27622c13.09556,-13.44968 41.53257,-7.00105 63.51584,14.40341c5.98312,5.82559 28.53275,18.8853 32.21513,25.28918c9.84749,17.12536 -6.59114,28.03072 -16.12252,37.81984c-7.20444,7.39925 -20.81986,25.37659 -33.68171,21.55402c-10.51722,-3.12574 -19.94481,-26.32851 -29.83412,-35.95744c-21.98327,-21.40446 -29.18817,-49.65932 -16.09262,-63.109z" fill="#0d69be" stroke-width="2"/><path d="M257.52849,174.8204c2.49616,-0.59965 18.54949,10.35738 25.32193,16.95151c5.98311,5.82558 28.53276,18.88529 32.21514,25.28918c9.84747,17.12535 -6.59114,28.0307 -16.12252,37.81982c-7.20444,7.39925 -20.81986,25.37659 -33.6817,21.55403c-10.51722,-3.12572 27.93054,-52.28351 18.04123,-61.91244c-15.06262,-14.66603 -41.93172,-47.13829 -25.77407,-39.70209z" fill="#10157d" stroke-width="0"/></g><g stroke="#000000" stroke-linecap="butt"><g><path d="M220.06002,203.91096c-45.62368,10.38545 -91.02805,-18.18079 -101.4135,-63.80447c-10.38545,-45.62368 18.18078,-91.02805 63.80447,-101.4135c45.62369,-10.38545 91.02806,18.18078 101.4135,63.80447c10.38545,45.62369 -18.18078,91.02806 -63.80447,101.41351z" fill="#faddbf" stroke-width="2"/><path d="M283.44648,101.70087c10.38545,45.62368 -18.18078,91.02806 -63.80446,101.4135c-5.91168,1.3457 -18.46666,2.19343 -20.95977,1.93127c-1.55854,-0.16389 24.9751,-12.74051 41.79445,-30.21602c9.0251,-9.37721 11.89667,-24.81042 13.65758,-30.07505c1.48069,-0.78719 1.41586,-20.91615 1.40535,-20.97561c-4.40522,-24.93411 -43.08877,-80.00566 -35.88946,-84.28124c0.5518,-0.32771 13.73167,3.6545 24.69892,9.71974c8.82369,4.87978 15.85989,12.03988 16.44346,12.2835c5.10997,2.1332 19.31258,25.52111 22.65395,40.1999z" fill="#ef8b89" stroke-width="0"/><path d="M119.0552,139.54355c-8.11027,-35.62873 31.95871,-56.26299 75.52753,-45.05332c45.51743,11.71103 81.43809,-25.51698 89.54836,10.11174c4.03333,17.71857 -5.87278,11.7644 -22.21786,2.52239c-3.38529,-1.91415 -10.30399,12.91223 -14.17505,10.89712c-4.9342,-2.56852 -9.85744,-6.89339 -14.86261,-11.40294c-4.0303,-3.63123 -10.58783,15.25008 -14.77288,12.1999c-6.44029,-4.69384 -8.1913,-11.48539 -15.28958,-9.8696c-2.66911,0.60757 -7.2286,13.68688 -9.80794,14.60976c-2.00007,0.71562 -11.74771,-9.59001 -13.68144,-8.77821c-3.51159,1.47419 -9.52267,13.35432 -12.67666,15.22496c-1.2646,0.75005 -14.06389,-5.41306 -15.26361,-4.6552c-1.7159,1.08392 -6.39443,11.7936 -7.89372,12.92604c-2.38699,1.80292 -11.89929,-3.67012 -13.73165,-2.05127c-7.56171,6.68062 -5.4357,14.32392 -5.56556,16.2909c-0.12728,1.92807 -2.55725,-1.63791 -5.13733,-12.97231z" fill="#ef8b89" stroke-width="0"/></g><path d="M115.71492,131.78042c-8.11027,-35.62873 22.94281,-85.92304 67.72408,-96.11673c44.78128,-10.19369 93.57474,24.56005 101.68501,60.18877c4.03333,17.71857 -6.08692,11.81314 -22.78864,2.65232c-3.45914,-1.89733 -10.63563,12.98772 -14.59215,10.99206c-5.04311,-2.54373 -10.065,-6.84614 -15.1698,-11.333c-4.11055,-3.61297 -10.93991,15.33022 -15.21239,12.29994c-6.57481,-4.66322 -8.33097,-11.45359 -15.61621,-9.79523c-2.73942,0.62358 -7.48764,13.74584 -10.13684,14.68463c-2.05424,0.72796 -11.98724,-9.53548 -13.97403,-8.71161c-3.60794,1.49613 -9.83727,13.42593 -13.08091,15.31699c-1.30055,0.75822 -14.38523,-5.33991 -15.61933,-4.57423c-1.76505,1.09511 -6.62179,11.84535 -8.16509,12.98781c-2.45704,1.81886 -12.17637,-3.60704 -14.06384,-1.97565c-15.4242,13.33158 -5.77759,26.28151 -10.98984,3.38392z" fill="#873412" stroke-width="2"/><path d="M115.69842,130.59164c-8.11027,-35.62873 33.07979,-56.51819 77.67581,-45.54234c46.59056,11.46675 83.62301,-26.01434 91.73328,9.61438c4.03333,17.71857 -6.08692,11.81314 -22.78864,2.65232c-3.45914,-1.89733 -10.63563,12.98772 -14.59215,10.99206c-5.04312,-2.54373 -10.065,-6.84614 -15.1698,-11.333c-4.11055,-3.61297 -10.93992,15.33023 -15.21239,12.29995c-6.57481,-4.66322 -8.33097,-11.4536 -15.61621,-9.79524c-2.73942,0.62358 -7.48764,13.74585 -10.13684,14.68464c-2.05424,0.72796 -11.98725,-9.53548 -13.97403,-8.71161c-3.60794,1.49613 -9.83727,13.42593 -13.08091,15.31699c-1.30055,0.75822 -14.38523,-5.33991 -15.61933,-4.57423c-1.76506,1.09511 -6.6218,11.84535 -8.1651,12.98781c-2.45704,1.81886 -12.17637,-3.60704 -14.06384,-1.97565c-15.4242,13.33158 -5.77759,26.28151 -10.98983,3.38392z" fill="#741d23" stroke-width="0"/></g><g data-paper-data="{&quot;index&quot;:null}" stroke="#000000" stroke-linecap="butt"><path d="M213.48984,92.41616c16.15527,-3.67747 34.39031,15.91547 40.72911,43.76206c6.3388,27.84658 -3.74472,45.24929 -19.89999,48.92676c-16.15527,3.67747 -32.26463,-7.76287 -38.60343,-35.60945c-6.3388,-27.84659 1.61903,-53.40189 17.7743,-57.07936z" fill="#f0f0f0" stroke-width="2"/><path d="M253.41451,135.50984c6.3388,27.84658 -3.74472,45.24928 -19.89999,48.92675c-16.15527,3.67747 13.90582,-37.83891 3.4441,-64.41268c-15.12455,-38.41782 10.11709,-12.36066 16.45589,15.48593z" fill="#9a99ff" stroke-width="0"/></g><path d="M236.19327,118.73376c5.63979,-1.2838 13.05863,10.18198 16.57045,25.60953c3.51182,15.42756 1.78675,28.9748 -3.85304,30.2586c-5.63979,1.2838 -13.05863,-10.18198 -16.57045,-25.60954c-3.51182,-15.42756 -1.78676,-28.97479 3.85303,-30.25859z" data-paper-data="{&quot;index&quot;:null}" fill="#000000" stroke="none" stroke-width="0" stroke-linecap="butt"/><g data-paper-data="{&quot;index&quot;:null}" stroke="#000000" stroke-linecap="butt"><path d="M193.93355,119.09814c1.98005,-10.44925 4.99869,-23.24329 20.31709,-26.73026c15.3184,-3.48697 20.44575,7.92995 26.69281,15.89068c6.56559,8.36665 -15.68586,56.31695 -31.00426,59.80392c-15.3184,3.48697 -18.08333,-37.99988 -16.00566,-48.96432z" fill="#a100fe" stroke-width="2"/><path d="M194.75614,118.54759c1.83875,-10.4171 9.63269,-1.34466 24.42877,-4.71274c14.79608,-3.36808 14.87391,-13.75519 20.9772,-5.76174c6.41449,8.40104 -15.64865,55.41666 -30.44473,58.78474c-14.79608,3.36808 -16.89065,-37.37956 -14.96125,-48.31025z" fill="#99008e" stroke-width="0"/></g><g data-paper-data="{&quot;index&quot;:null}" stroke="#000000" stroke-linecap="butt"><path d="M193.00099,152.3128c6.3388,27.84659 -3.23152,45.13247 -19.38679,48.80994c-16.15527,3.67747 -32.77782,-7.64606 -39.11662,-35.49264c-6.3388,-27.84659 1.61903,-53.40189 17.7743,-57.07936c16.15527,-3.67747 34.39031,15.91547 40.72911,43.76206z" fill="#f0f0f0" stroke-width="2"/><path d="M143.06509,143.59651c2.07118,28.48373 47.14025,52.89802 30.98498,56.57549c-16.15527,3.67747 -32.77782,-7.64605 -39.11661,-35.49263c-6.3388,-27.84659 5.13732,-62.26192 8.13164,-21.08286z" fill="#9a99ff" stroke-width="0"/></g><path d="M186.36551,167.08986c3.51182,15.42756 1.78676,28.97479 -3.85303,30.25859c-5.63979,1.2838 -13.05863,-10.18198 -16.57045,-25.60953c-3.51182,-15.42756 -1.78676,-28.97479 3.85303,-30.25859c5.63979,-1.2838 13.05863,10.18198 16.57045,25.60953z" data-paper-data="{&quot;index&quot;:null}" fill="#000000" stroke="none" stroke-width="0" stroke-linecap="butt"/><g data-paper-data="{&quot;index&quot;:null}" stroke="#000000" stroke-linecap="butt"><path d="M181.4503,124.1391c6.61878,8.98485 21.90238,48.65572 6.58398,52.14269c-15.3184,3.48697 -55.9512,-31.1825 -53.6539,-41.56663c2.18585,-9.88034 1.86634,-22.39168 17.18474,-25.87865c15.3184,-3.48697 23.57737,6.73991 29.88515,15.30259z" fill="#a100fe" stroke-width="2"/><path d="M180.47045,123.99884c6.47051,9.0186 22.39241,47.92261 7.59633,51.29069c-14.79608,3.36808 -55.2085,-30.72999 -53.0623,-41.07973c2.04208,-9.84761 6.60818,-0.5176 21.40426,-3.88568c14.79608,-3.36808 17.89521,-14.92012 24.0617,-6.32528z" fill="#99008e" stroke-width="0"/></g><path d="M259.58239,145.29664c0.95592,-0.29361 1.24953,0.66232 1.24953,0.66232l0.02901,0.10844c1.57966,3.85773 2.89624,8.14828 6.4107,10.70442c3.30334,3.17569 3.07751,-0.28707 2.24902,-2.98446c-1.22739,-3.99609 -3.07268,-7.4936 -5.35416,-11.00394c0,0 -0.54493,-0.83849 0.29355,-1.38341c0.83849,-0.54493 1.38342,0.29355 1.38342,0.29355c2.5136,3.86794 6.72913,10.14338 6.51806,15.04938c-0.18728,4.35301 -4.01037,3.83453 -6.37449,1.56177c-3.79631,-2.76653 -5.26918,-7.3091 -6.97694,-11.47943l-0.09003,-0.27912c0,0 -0.29361,-0.95592 0.66232,-1.24953z" data-paper-data="{&quot;index&quot;:null}" fill="#000000" stroke="none" stroke-width="0.5" stroke-linecap="butt"/><path d="M388.62358,278.9727c5.02312,10.52564 -4.00892,25.31198 -20.17364,33.02623c-16.16472,7.71425 -33.34085,5.43516 -38.36398,-5.09048c-1.00414,-2.10409 -5.95656,-12.40405 -5.53651,-14.1317c1.68121,-6.91478 18.34661,-2.92565 31.27997,-9.0978c16.16472,-7.71425 27.77101,-15.23192 32.79414,-4.70628z" data-paper-data="{&quot;index&quot;:null}" fill="#000082" stroke="#000000" stroke-width="2" stroke-linecap="butt"/><path d="M385.74441,277.31922c2.71702,5.69333 -8.14737,15.17915 -24.31209,22.8934c-16.16472,7.71425 -28.49819,10.32313 -31.2152,4.62981c-0.54314,-1.13812 -5.42504,-11.29031 -4.73246,-12.44689c2.772,-4.6291 16.52238,-1.48869 29.45574,-7.66084c16.16471,-7.71425 28.08699,-13.1088 30.804,-7.41548z" data-paper-data="{&quot;index&quot;:null}" fill="#2e0048" stroke="#000000" stroke-width="0" stroke-linecap="butt"/><g data-paper-data="{&quot;index&quot;:null}" stroke="#000000" stroke-linecap="butt"><path d="M211.71273,336.63669c-2.29139,-11.43549 11.50471,-12.3785 29.06671,-15.8975c14.05133,-2.81554 24.99651,-16.00083 30.48818,-11.4751c1.37209,1.13075 3.58474,12.34323 4.04279,14.62921c2.29139,11.4355 -10.0879,23.5585 -27.6499,27.0775c-17.56201,3.519 -33.65638,-2.89859 -35.94777,-14.33409z" fill="#000082" stroke-width="2"/><path d="M242.12396,321.05103c14.05133,-2.81554 23.17256,-13.57373 28.16664,-11.53125c1.24775,0.51031 3.42824,11.56226 3.67601,12.79875c1.23942,6.18545 -10.19524,11.49295 -27.75725,15.01195c-17.56203,3.519 -31.9445,2.44204 -33.18392,-3.74342c-1.2394,-6.18546 11.53652,-9.01704 29.09852,-12.53604z" fill="#2e0048" stroke-width="0"/></g><g data-paper-data="{&quot;index&quot;:null}" stroke="#000000" stroke-linecap="butt"><path d="M312.08292,179.88913c-26.8278,19.7886 -52.46969,30.55173 -57.27274,24.04012c-4.80305,-6.51161 13.05154,-27.83213 39.87933,-47.62071c26.82779,-19.78859 52.46969,-30.55171 57.27274,-24.04011c4.80305,6.51161 -13.05154,27.83212 -39.87933,47.62071z" fill="#0d69be" stroke-width="2"/><path d="M320.64364,157.06901c-8.71235,-11.81152 -6.44022,-28.27219 5.07495,-36.76596c11.51517,-8.49377 27.91282,-5.80419 36.62517,6.00733c8.71235,11.81152 6.44022,28.27221 -5.07495,36.76597c-11.51517,8.49376 -27.91282,5.80419 -36.62517,-6.00733z" fill="#faddbf" stroke-width="2"/><path d="M324.28918,138.02455c-11.51517,8.49377 -10.54129,-8.40081 0.97388,-16.89458c11.51518,-8.49375 27.91281,-5.80419 36.62517,6.00733c8.71235,11.81152 -26.08387,2.39349 -37.59904,10.88726z" fill="#ef8b89" stroke-width="0"/></g></g></g></svg>