<svg version="1.1" xmlns="http://www.w3.org/2000/svg" xmlns:xlink="http://www.w3.org/1999/xlink" width="183.90229" height="328.78348" viewBox="0,0,183.90229,328.78348"><g transform="translate(-219.36988,-32.2039)"><g data-paper-data="{&quot;isPaintingLayer&quot;:true}" fill-rule="nonzero" stroke-linejoin="miter" stroke-miterlimit="10" stroke-dasharray="" stroke-dashoffset="0" style="mix-blend-mode: normal"><g stroke="#000000" stroke-linecap="butt"><path d="M325.20956,239.71365c-14.02122,30.24441 -31.33862,52.00352 -38.67951,48.60031c-7.34088,-3.40321 -1.92539,-30.68 12.09583,-60.92442c14.02122,-30.24441 31.33862,-52.00352 38.67951,-48.60031c7.34088,3.40321 1.92539,30.68001 -12.09584,60.92443z" fill="#0d69be" stroke-width="2"/><path d="M317.77679,287.34966c-6.01826,12.98167 -21.69157,18.50106 -35.00734,12.32792c-13.31575,-6.17314 -19.23155,-21.70119 -13.21328,-34.68286c6.01827,-12.98167 21.69158,-18.50106 35.00734,-12.32792c13.31576,6.17314 19.23154,21.70119 13.21328,34.68285z" fill="#faddbf" stroke-width="2"/><path d="M286.63341,260.04877c-6.01827,12.98167 10.17085,45.19018 -3.14491,39.01704c-13.31575,-6.17314 -19.23154,-21.70118 -13.21328,-34.68285c6.01827,-12.98167 22.37645,-17.31587 16.35818,-4.3342z" fill="#ef8b89" stroke-width="0"/></g><g stroke="#000000" stroke-linecap="butt"><path d="M307.76518,340.83533v-95.29492h29.49199v95.29492z" fill="#73fffc" stroke-width="2"/><path d="M307.43944,340.21739l1.32626,-93.78573c0,0 5.20288,68.11227 6.3799,77.52842c0.2602,2.08162 2.52228,2.78987 2.52228,2.78987l18.60659,13.13896z" fill="#59a9e6" stroke-width="0"/></g><g stroke="#000000" stroke-linecap="butt"><path d="M268.42381,338.4128v-95.29492h29.49199v95.29492z" fill="#73fffc" stroke-width="2"/><path d="M268.09806,337.79487l1.32626,-93.78573c0,0 5.20288,68.11227 6.3799,77.52842c0.2602,2.08162 2.52228,2.78987 2.52228,2.78987l18.60659,13.13896z" fill="#59a9e6" stroke-width="0"/></g><g stroke="#000000" stroke-linecap="butt"><path d="M335.22918,235.69585c0,13.80271 10.04743,36.74388 4.95001,46.45977c-6.2338,11.88187 -28.61241,9.09579 -38.9397,9.09579c-13.66287,0 -32.94407,4.17018 -38.34426,-14.83216c-2.01935,-7.10576 4.35457,-32.37264 4.35457,-40.7234c0,-30.68249 15.2177,-55.55556 33.98969,-55.55556c18.77199,0 33.98969,24.87307 33.98969,55.55556z" fill="#0d69be" stroke-width="2"/><path d="M283.96555,251.27245c0,13.80271 62.04198,20.54886 56.94455,30.26474c-6.2338,11.88186 -28.61241,9.09579 -38.9397,9.09579c-13.66287,0 -32.94406,4.17018 -38.34425,-14.83215c-2.01936,-7.10576 4.35457,-32.37265 4.35457,-40.7234c0,-9.45244 3.34855,-28.59801 5.51953,-29.96813c5.94391,-16.76415 10.4653,25.13995 10.4653,46.16315z" fill="#10157d" stroke-width="0"/></g><path d="M371.63633,338.87001c0,11.6628 -14.51982,21.11737 -32.43092,21.11737c-17.9111,0 -32.43092,-9.45457 -32.43092,-21.11737c0,-2.33142 -0.03339,-13.76009 1.08979,-15.13837c4.49546,-5.51647 17.81784,5.26144 32.14847,5.26144c17.9111,0 31.62358,-1.78588 31.62358,9.87692z" fill="#000082" stroke="#000000" stroke-width="2" stroke-linecap="butt"/><path d="M369.75005,336.13771c0,6.30841 -13.89058,10.1901 -31.80169,10.1901c-17.9111,0 -30.16566,-2.95748 -30.16566,-9.26589c0,-1.26107 -0.03338,-12.52602 1.0898,-13.27153c4.49546,-2.98386 15.55258,5.7726 29.88321,5.7726c17.9111,0 30.99434,0.26631 30.99434,6.57472z" fill="#2e0048" stroke="#000000" stroke-width="0" stroke-linecap="butt"/><path d="M328.64939,338.2252c0,11.6628 -14.51982,21.11737 -32.43092,21.11737c-17.9111,0 -32.43092,-9.45457 -32.43092,-21.11737c0,-2.33142 -0.03339,-13.76009 1.08979,-15.13837c4.49546,-5.51647 17.81784,5.26144 32.14847,5.26144c17.9111,0 31.62358,-1.78588 31.62358,9.87692z" fill="#000082" stroke="#000000" stroke-width="2" stroke-linecap="butt"/><g stroke-linecap="butt"><g data-paper-data="{&quot;index&quot;:null}"><g stroke="#000000"><g><path d="M314.84695,205.38278c-46.79079,0 -84.72222,-37.93143 -84.72222,-84.72222c0,-46.79079 37.93143,-84.72222 84.72222,-84.72222c46.79079,0 84.72222,37.93143 84.72222,84.72222c0,46.79079 -37.93143,84.72222 -84.72222,84.72222z" fill="#faddbf" stroke-width="2"/><path d="M399.3384,119.79106c0,46.79079 -37.93143,84.72222 -84.72222,84.72222c-6.06291,0 -18.49289,-1.96005 -20.86562,-2.76903c-1.48329,-0.50573 27.17997,-6.87938 47.45857,-20.18586c10.88131,-7.14014 17.10673,-21.55104 19.99223,-26.29351c1.61848,-0.43891 6.02298,-20.08018 6.02593,-20.14049c1.23891,-25.28993 -24.25635,-87.57384 -16.28763,-90.14485c0.61077,-0.19706 12.57802,6.61116 21.9255,14.95935c7.52051,6.71653 12.79199,15.25975 13.30693,15.62682c4.50904,3.21417 13.16632,29.17106 13.16632,44.22534z" fill="#ef8b89" stroke-width="0"/><path d="M230.64817,120.20237c0,-36.54015 43.64941,-47.76623 83.64345,-27.16584c41.78276,21.52174 85.0704,-6.80492 85.0704,29.73523c0,18.17183 -8.33746,10.16746 -22.22353,-2.47189c-2.87599,-2.61778 -12.91291,10.30314 -16.24015,7.47909c-4.24103,-3.59963 -8.08154,-8.90935 -11.96095,-14.41734c-3.12381,-4.4352 -13.70857,12.51967 -17.11223,8.61668c-5.23782,-6.00622 -5.43775,-13.01701 -12.7176,-13.01701c-2.73739,0 -10.08616,11.74106 -12.80601,12.06843c-2.10902,0.25385 -9.32614,-11.95827 -11.39182,-11.59592c-3.75121,0.65801 -12.2492,10.90762 -15.73972,12.03156c-1.39954,0.45065 -12.51164,-8.39959 -13.84965,-7.92692c-1.91368,0.67603 -8.85258,10.08015 -10.56583,10.85157c-2.72761,1.22814 -10.78789,-6.21968 -12.93385,-5.04791c-8.8559,4.83563 -8.47938,12.76015 -9.04258,14.64925c-0.55205,1.85172 -2.12992,-2.16465 -2.12992,-13.78899z" fill="#ef8b89" stroke-width="0"/></g><path d="M229.11428,111.89148c0,-36.54015 41.44159,-78.68758 87.36842,-78.68758c45.92684,0 85.78948,44.71682 85.78948,81.25697c0,18.17183 -8.55708,10.16746 -22.80892,-2.47189c-2.95174,-2.61778 -13.25304,10.30314 -16.66792,7.47909c-4.35273,-3.59963 -8.29441,-8.90935 -12.276,-14.41734c-3.2061,-4.4352 -14.06966,12.51967 -17.56298,8.61668c-5.37579,-6.00622 -5.58098,-13.01701 -13.05259,-13.01701c-2.80949,0 -10.35184,11.74106 -13.14333,12.06843c-2.16458,0.25385 -9.5718,-11.95827 -11.69189,-11.59592c-3.85002,0.65801 -12.57185,10.90762 -16.15431,12.03156c-1.4364,0.45065 -12.8412,-8.39959 -14.21446,-7.92692c-1.96409,0.67603 -9.08576,10.08015 -10.84414,10.85157c-2.79946,1.22814 -11.07205,-6.21968 -13.27454,-5.04791c-17.99849,9.57557 -11.46679,24.3436 -11.46679,0.86026z" fill="#873412" stroke-width="2"/><path d="M229.36204,110.72869c0,-36.54015 44.79917,-47.76623 85.84668,-27.16584c42.88335,21.52174 87.31121,-6.80492 87.31121,29.73523c0,18.17183 -8.55708,10.16746 -22.80892,-2.47189c-2.95174,-2.61778 -13.25304,10.30314 -16.66792,7.47909c-4.35274,-3.59963 -8.29442,-8.90935 -12.27601,-14.41734c-3.2061,-4.4352 -14.06966,12.51967 -17.56298,8.61668c-5.37579,-6.00622 -5.58098,-13.01701 -13.05259,-13.01701c-2.80949,0 -10.35184,11.74106 -13.14333,12.06843c-2.16458,0.25385 -9.5718,-11.95827 -11.69189,-11.59592c-3.85002,0.65801 -12.57185,10.90762 -16.15431,12.03156c-1.4364,0.45065 -12.8412,-8.39959 -14.21446,-7.92692c-1.9641,0.67603 -9.08577,10.08015 -10.84415,10.85157c-2.79946,1.22814 -11.07205,-6.21968 -13.27454,-5.04791c-17.99849,9.57557 -11.46679,24.3436 -11.46679,0.86026z" fill="#741d23" stroke-width="0"/></g><path d="M314.10553,43.58458c0.05448,-0.09686 0.12008,-0.18267 0.19459,-0.25964c0.45653,-0.60173 1.17934,-0.99036 1.99291,-0.99036c0.91756,0 1.71966,0.49431 2.15454,1.23116c1.22811,0.70178 0.30241,2.81554 0.34546,4.22937c0.12203,4.0081 3.61086,9.45428 -0.7383,11.93952c-0.39296,0.22455 -1.00437,-0.61753 -1.37068,-0.57111c-3.79605,0.48107 -3.09092,-0.73102 -4.35893,-3.73846c-0.26045,-0.61773 -1.31698,0.39716 -1.98395,0.32962c-1.64461,-0.16655 -2.13025,-3.58326 -2.19331,-2.88171c-0.13771,1.53217 0.09787,2.69668 -1.48465,3.60097c-0.64725,0.36985 -1.96564,-0.9242 -2.22503,-0.22532c-0.56207,1.51439 0.17773,4.07556 -2.5,3.98918c-0.77448,-0.02498 -1.84877,-0.64956 -2.20947,-1.33028c-0.46962,-0.88626 -1.58052,-3.56468 -1.57852,-2.56169c0.00324,1.62414 2.15519,3.45307 0.97549,5.22262c-2.1694,3.25409 -5.71316,-0.11412 -6.35755,-0.18561c-0.18157,-0.02015 0.7376,1.56603 0.79428,1.82108c0.15771,0.70968 -0.25409,1.81746 -0.66291,2.43068c-0.33532,0.50299 -8.84596,1.03231 -9.68874,0.98549c-0.95396,-0.053 -1.22775,-2.3161 -2.10728,-1.94293c-0.9955,0.42238 -2.11757,1.14408 -3.14348,0.80211c-0.42644,-0.14215 -1.98845,-3.22595 -2.37223,-2.96958c-0.15805,0.10558 1.50897,2.11782 1.28866,2.75515c-0.37953,1.09794 -1.74837,3.04678 -2.89553,3.27894c-3.88655,0.78656 -3.60891,-2.60261 -5.24535,-2.4796c-0.7316,0.055 -1.07431,1.14602 -1.79736,1.27038c-0.53704,0.09237 -1.64337,-0.82553 -1.61032,-0.28162c0.07149,1.1766 -0.59654,3.46507 -1.94906,4.04994c-1.05577,0.45655 -2.46741,-1.51155 -3.36004,-0.78609c-2.57278,2.09098 -4.87408,-0.29815 -5.7124,-3.05264c-0.77228,-2.53749 1.95352,-3.26285 3.69208,-3.47798c0.73757,-0.09126 -0.42103,-1.48889 -0.25981,-2.21439c0.30676,-1.38047 1.5753,-2.12435 2.89673,-2.12114c1.59115,0.00387 2.53038,0.72096 4.01644,1.28349c0.2272,0.086 1.58097,-0.91478 1.82405,-0.9958c0.62702,-0.20901 2.15582,0.99263 1.94893,0.36491c-1.63487,-4.96012 3.27602,-6.40887 7.11144,-4.15438c0.75121,0.44157 1.4766,-0.99144 2.32283,-1.19928c0.42187,-0.10362 2.23656,0.6187 3.13293,0.63391c0.89839,0.01525 1.9304,1.52469 2.54995,0.87393c1.1022,-1.15773 1.36048,-5.13692 1.5751,-5.28976c1.24435,-0.88613 1.97168,-1.58696 3.42998,-0.8575c1.0544,0.52742 2.09926,2.66721 2.98795,1.89251c0.50691,-0.4419 0.3263,-2.05362 1.25,-2.58145c1.75303,-1.00173 4.28838,0.35977 5.75026,1.00484c0.32847,0.14495 0.73559,0.90484 0.90296,0.5872c0.52306,-0.99265 -0.18403,-2.32625 0.84227,-3.24453c0.59562,-0.53293 3.15736,-0.33877 3.20483,-0.39633c0.56466,-0.68473 0.32868,-2.03782 1.24094,-2.5754c2.75456,-1.62323 4.3578,1.23692 6.14794,2.85557c0.29498,0.26672 0.69169,-0.43995 1.08556,-0.49491c0.64299,-0.08972 1.77413,1.30412 1.8333,0.6576c0.04503,-0.4921 -0.10861,-1.86913 0.00011,-3.00545c0.00282,-0.29104 0.05537,-0.57019 0.14957,-0.82934c0.04411,-0.14685 0.09778,-0.28031 0.16282,-0.39594z" fill="#ba587e" stroke="none" stroke-width="0.5"/></g><g data-paper-data="{&quot;index&quot;:null}" stroke="#000000"><path d="M314.09657,101.1198c16.56854,0 30,23.15159 30,51.71053c0,28.55893 -13.69462,43.28947 -30.26316,43.28947c-16.56854,0 -29.73684,-14.73053 -29.73684,-43.28947c0,-28.55894 13.43146,-51.71053 30,-51.71053z" fill="#f0f0f0" stroke-width="2"/><path d="M343.46055,152.00008c0,28.55893 -13.69462,43.28947 -30.26316,43.28947c-16.56854,0 21.9575,-33.80863 17.65491,-62.0416c-6.22027,-40.81653 12.60825,-9.80681 12.60825,18.75213z" fill="#9a99ff" stroke-width="0"/></g><path d="M330.19762,132.93945c5.78406,0 10.47297,12.82644 10.47297,28.64865c0,15.82221 -4.68891,28.64865 -10.47297,28.64865c-5.78406,0 -10.47297,-12.82644 -10.47297,-28.64865c0,-15.82221 4.68891,-28.64865 10.47297,-28.64865z" data-paper-data="{&quot;index&quot;:null}" fill="#000000" stroke="none" stroke-width="0"/><g data-paper-data="{&quot;index&quot;:null}" stroke="#000000"><path d="M289.10588,122.79565c4.24992,-9.74914 10.03298,-21.55405 25.74324,-21.55405c15.71026,0 18.17568,12.27019 22.5,21.41892c4.54481,9.61522 -26.15114,33.0083 -41.8614,33.0083c-15.71026,0 -10.84131,-22.64335 -6.38185,-32.87316z" fill="#a100fe" stroke-width="2"/><path d="M290.03015,122.44141c4.10501,-9.74914 9.69088,0.8269 24.86546,0.8269c15.17458,0 17.55594,-10.11076 21.73281,-0.96203c4.38984,9.61522 -25.67766,32.53358 -40.85224,32.53358c-15.17458,0 -10.05344,-22.16863 -5.74604,-32.39844z" fill="#99008e" stroke-width="0"/></g><g data-paper-data="{&quot;index&quot;:null}" stroke="#000000"><path d="M280.36989,151.79303c0,28.55894 -13.1683,43.28947 -29.73684,43.28947c-16.56854,0 -30.26316,-14.73054 -30.26316,-43.28947c0,-28.55894 13.43146,-51.71053 30,-51.71053c16.56854,0 30,23.15159 30,51.71053z" fill="#f0f0f0" stroke-width="2"/><path d="M233.61416,132.21063c-4.30259,28.23297 34.22345,62.0416 17.65491,62.0416c-16.56854,0 -30.26316,-14.73054 -30.26316,-43.28947c0,-28.55894 18.82852,-59.56866 12.60825,-18.75213z" fill="#9a99ff" stroke-width="0"/></g><path d="M274.07245,161.23763c0,15.82221 -4.68891,28.64865 -10.47297,28.64865c-5.78406,0 -10.47297,-12.82644 -10.47297,-28.64865c0,-15.82221 4.68891,-28.64865 10.47297,-28.64865c5.78406,0 10.47297,12.82644 10.47297,28.64865z" data-paper-data="{&quot;index&quot;:null}" fill="#000000" stroke="none" stroke-width="0"/><g data-paper-data="{&quot;index&quot;:null}" stroke="#000000"><path d="M275.36059,121.75833c4.45946,10.22981 8.14161,32.6358 -7.56865,32.6358c-15.71026,0 -45.21941,-23.15572 -40.6746,-32.77094c4.32432,-9.14873 6.78974,-21.41892 22.5,-21.41892c15.71026,0 21.49332,11.80491 25.74324,21.55405z" fill="#a100fe" stroke-width="2"/><path d="M274.43631,121.40409c4.3074,10.22981 8.4791,31.92372 -6.69548,31.92372c-15.17458,0 -44.29264,-22.44364 -39.9028,-32.05886c4.17687,-9.14873 6.55823,0.96203 21.73281,0.96203c15.17458,0 20.76045,-10.57604 24.86546,-0.8269z" fill="#99008e" stroke-width="0"/></g><path d="M359.92749,164.40542c-0.35368,-0.28363 -0.46399,-0.72485 -0.46399,-0.72485l-0.13127,-0.54147c-0.4824,-2.89442 -0.6779,-5.63328 -0.45168,-8.56671c0.69925,-3.89132 6.00804,-7.85127 9.32015,-3.84469c1.2788,1.54694 1.66285,4.13187 1.83409,6.05138c0.57138,6.40492 0.00081,13.73597 -3.53625,19.25698c-2.18926,3.28342 -4.57449,3.4762 -8.26329,3.45878c-2.96518,-0.014 -5.72899,-1.13766 -5.11323,-4.69061c0.35856,-2.06889 1.67087,-4.59256 3.30201,-5.94145c0.90259,-0.7464 2.15205,-1.03551 2.97618,-1.86773c0.53424,-0.53949 0.56615,-1.63471 0.52726,-2.58962z" fill="#000000" stroke="none" stroke-width="0.5"/></g><path d="M326.76311,335.49289c0,6.30841 -13.89058,10.1901 -31.80169,10.1901c-17.9111,0 -30.16566,-2.95748 -30.16566,-9.26589c0,-1.26107 -0.03338,-12.52602 1.0898,-13.27153c4.49546,-2.98386 15.55258,5.7726 29.88321,5.7726c17.9111,0 30.99434,0.26631 30.99434,6.57472z" fill="#2e0048" stroke="#000000" stroke-width="0" stroke-linecap="butt"/><g><g><path d="M319.16592,237.51299c-11.38926,9.89483 -23.01714,9.94647 -33.32832,-0.86041c-8.06451,-8.45215 -7.09423,-26.53757 4.29503,-36.43241c11.38928,-9.89492 26.05676,-9.72345 35.85303,1.55228c1.53196,1.7633 2.42244,3.84531 3.25354,5.73928c4.48325,10.21719 -0.46504,21.65377 -10.07325,30.00124z" fill="#485e84" stroke="#000000" stroke-width="2" stroke-linecap="butt"/><path d="M283.8057,212.44944c0,0 3.43082,4.62174 5.42881,4.47563c19.16533,-1.40145 30.41937,-9.80172 33.92958,-12.86413c0.79752,-0.69578 0.6001,-1.80114 0.6001,-1.80114c0,0 1.54623,1.44127 2.85347,3.85065c1.39101,2.56379 2.54765,6.1923 2.52754,9.26553c-0.02301,3.5105 -2.22369,11.55196 -2.22369,11.55196l-13.47795,16.03758c0,0 -13.45018,0.21901 -15.49643,-0.49492c-2.00466,-0.6994 -4.1762,-2.10195 -6.54507,-3.5003c-3.67801,-2.17114 -6.54236,-5.69283 -7.65788,-8.34809c-1.4236,-3.38873 -1.74909,-8.04126 -1.35306,-11.83673c0.36856,-3.5324 1.41471,-6.33595 1.41471,-6.33595z" fill="#343545" stroke="none" stroke-width="0" stroke-linecap="butt"/><path d="M301.53899,229.26308c0,0 -7.19969,-5.43716 -8.57249,-10.4066c-1.73785,-6.29082 -1.56814,-19.25513 -1.56814,-19.25513" fill="none" stroke="#000000" stroke-width="1" stroke-linecap="round"/><path d="M320.22872,197.63697c0,0 3.44625,6.26523 4.55901,10.41657c1.12344,4.19095 0.17062,13.84729 0.17062,13.84729" fill="none" stroke="#000000" stroke-width="1" stroke-linecap="round"/><path d="M295.61539,238.49709c0,0 -7.47376,-5.47077 -8.7156,-10.92115c-1.90554,-8.36345 -2.24034,-19.95584 -2.24034,-19.95584" fill="none" stroke="#000000" stroke-width="1" stroke-linecap="round"/><path d="M282.82115,230.13615c0,0 3.4337,-16.9613 19.36393,-24.01617c17.44955,-7.72775 28.51281,5.50459 28.51281,5.50459" fill="none" stroke="#000000" stroke-width="1" stroke-linecap="round"/><path d="M288.05235,238.09474c0,0 6.35384,-16.62802 20.3976,-22.88362c11.53121,-5.1364 21.89267,5.13778 21.89267,5.13778" fill="none" stroke="#000000" stroke-width="1" stroke-linecap="round"/><path d="M305.36224,197.95259c-1.18668,0.1975 -2.27535,-0.40398 -2.43169,-1.34338c-0.15641,-0.93943 0.62491,-1.09287 1.81157,-1.29036c1.18668,-0.1975 2.3293,-0.36423 2.48564,0.57519c0.15641,0.93943 -0.67888,1.86111 -1.86552,2.05855z" fill="#8fbbbe" stroke="none" stroke-width="0" stroke-linecap="butt"/><path d="M312.62975,197.74671c-0.45406,0.39446 -1.30181,0.16213 -1.89354,-0.51893c-0.59172,-0.68108 -0.73929,-1.04086 -0.28524,-1.43535c0.45406,-0.39446 1.43885,-0.2812 2.03055,0.39989c0.59172,0.68108 0.60225,1.15993 0.14819,1.55439z" fill="#8fbbbe" stroke="none" stroke-width="0" stroke-linecap="butt"/><path d="M298.54861,199.15192c-0.74029,0.51578 -1.61907,0.53385 -1.96293,0.04036c-0.34387,-0.49345 0.33462,-0.90061 1.07485,-1.41641c0.74029,-0.51578 1.26194,-0.94493 1.6058,-0.45146c0.34387,0.49345 0.0225,1.31169 -0.71775,1.82747z" fill="#8fbbbe" stroke="none" stroke-width="0" stroke-linecap="butt"/><path d="M282.47578,216.7307c0,0 5.12769,-8.85361 11.0805,-13.54231c3.37495,-2.65824 7.26715,-3.83602 10.22802,-4.69588c2.61844,-0.76046 9.14583,0.02624 14.07931,1.1483c3.63226,0.82608 6.32953,2.00576 6.32953,2.00576" fill="none" stroke="#000000" stroke-width="0.5" stroke-linecap="round"/><path d="M306.6887,192.56896c0,0 6.62193,8.24183 8.23246,13.40162c1.35693,4.34723 1.07481,15.30099 1.07481,15.30099" fill="none" stroke="#000000" stroke-width="1" stroke-linecap="round"/><path d="M310.67685,223.72872c0,0 -5.96958,-7.60214 -7.77623,-11.74783c-3.17212,-7.27905 -2.63842,-17.67578 -2.63842,-17.67578" fill="none" stroke="#000000" stroke-width="1" stroke-linecap="round"/></g><g stroke="#000000" stroke-linecap="butt"><path d="M289.8606,243.17266c30.60893,-13.20649 38.94154,-8.34613 42.14699,-0.91678c3.20546,7.42937 -19.00947,24.15803 -49.6184,37.36453c-30.60893,13.20649 -8.23558,-55.45882 -11.44105,-62.88816c1.21655,-6.98915 6.89801,-3.77685 10.32429,3.29538c4.22542,8.72174 5.97183,24.27388 8.58817,23.14505z" fill="#0d69be" stroke-width="2"/><path d="M308.06748,222.15219c13.13814,-5.66857 28.50224,0.66081 34.31667,14.13705c5.81444,13.47626 -0.12257,28.99619 -13.26072,34.66475c-13.13812,5.66857 -28.50223,-0.66081 -34.31667,-14.13707c-5.81444,-13.47626 0.12258,-28.99618 13.26071,-34.66475z" fill="#faddbf" stroke-width="2"/><path d="M313.0947,263.26149c13.13812,-5.66857 22.53119,-40.47153 28.34563,-26.99527c5.81444,13.47626 -0.12257,28.99619 -13.26071,34.66475c-13.13814,5.66857 -28.22306,-2.00089 -15.08491,-7.66945z" fill="#ef8b89" stroke-width="0"/></g></g></g></g></svg>