<svg version="1.1" xmlns="http://www.w3.org/2000/svg" xmlns:xlink="http://www.w3.org/1999/xlink" width="227.25706" height="348.6216" viewBox="0,0,227.25706,348.6216"><g transform="translate(-190.36731,18.04348)"><g data-paper-data="{&quot;isPaintingLayer&quot;:true}" fill-rule="nonzero" stroke-linejoin="miter" stroke-miterlimit="10" stroke-dasharray="" stroke-dashoffset="0" style="mix-blend-mode: normal"><g data-paper-data="{&quot;index&quot;:null}" stroke="#000000" stroke-linecap="butt"><path d="M298.86371,329.13374v-90.27109h61.17899v90.27109z" fill="#273750" stroke-width="2"/><path d="M299.65105,328.37717v-90.27109l18.42709,49.31565l42.75189,40.95544z" fill="#1f1e2e" stroke-width="0"/></g><g data-paper-data="{&quot;index&quot;:null}" stroke="#000000" stroke-linecap="butt"><path d="M246.25776,329.57811v-90.27109h61.17899v90.27109z" fill="#273750" stroke-width="2"/><path d="M247.04514,328.82151v-90.27109l18.42709,49.31565l42.75189,40.95544z" fill="#1f1e2e" stroke-width="0"/></g><g><g data-paper-data="{&quot;index&quot;:null}" stroke="#000000" stroke-linecap="butt"><path d="M362.74047,266.98157v-50.01742h53.36319v50.01742z" fill="#ffcaa0" stroke-width="2"/><g><path d="M362.56565,217.15177v-68.96855h54.05873v68.96855z" fill="#ff0008" stroke-width="2"/><path d="M363.34372,217.3729v-36.12369c0,0 16.17051,15.00523 25.14496,15.00523c8.50912,0 27.38007,-15.00523 27.38007,-15.00523v36.1237c0,0 -17.27601,0 -25.98313,0c-8.80024,0 -26.5419,0 -26.5419,0z" fill="#8d005e" stroke-width="0"/></g><path d="M363.56784,266.41507v-50.01742l13.69002,33.9007l39.67317,16.11673z" fill="#ff6e5b" stroke-width="0"/></g><g data-paper-data="{&quot;index&quot;:null}" stroke="#000000" stroke-linecap="butt"><path d="M402.03889,55.67804c0,33.51667 -12.43537,60.6873 -27.77519,60.6873c-15.33982,0 -27.77519,-27.17063 -27.77519,-60.6873c0,-33.51667 12.43537,-60.6873 27.77519,-60.6873c15.33982,0 27.77519,27.17063 27.77519,60.6873z" fill="#01930e" stroke-width="2"/><path d="M356.09451,45.22039c0,33.51667 33.9295,70.6931 18.58969,70.6931c-15.33981,0 -27.77519,-27.17063 -27.77519,-60.6873c0,-33.51667 9.18549,-43.52247 9.18549,-10.0058z" fill="#31525b" stroke-width="0"/></g><path d="M245.02714,237.28785v-118.43548h119.08072v118.43548z" data-paper-data="{&quot;index&quot;:null}" fill="#ff0008" stroke="#000000" stroke-width="2" stroke-linecap="butt"/><g data-paper-data="{&quot;index&quot;:null}" stroke="#000000" stroke-linecap="butt"><path d="M191.54214,267.02537v-50.01742h53.36319v50.01742z" fill="#ffcaa0" stroke-width="2"/><g><path d="M191.36731,217.19557v-68.96855h54.05873v68.96855z" fill="#ff0008" stroke-width="2"/><path d="M192.14538,217.4167v-36.12369c0,0 16.17051,15.00523 25.14496,15.00523c8.50912,0 27.38007,-15.00523 27.38007,-15.00523v36.1237c0,0 -17.27601,0 -25.98313,0c-8.80024,0 -26.5419,0 -26.5419,0z" fill="#8d005e" stroke-width="0"/></g><path d="M192.3695,266.45889v-50.01742l13.69002,33.9007l39.67317,16.11673z" fill="#ff6e5b" stroke-width="0"/></g><g data-paper-data="{&quot;index&quot;:null}" fill="#000000" stroke="#000000" stroke-linecap="butt"><path d="M273.16779,236.79952v-116.23109h64.01708v116.23109z" stroke-width="2"/><path d="M273.99169,235.82538v-116.23109l19.28192,63.49775l44.73515,52.73334z" stroke-width="0"/></g><g data-paper-data="{&quot;index&quot;:null}" stroke="#000000" stroke-linecap="butt"><path d="M216.37969,54.04488c0,-1.43251 0.92811,-28.495 1.03501,-29.90557c2.70118,-35.64396 38.15162,-38.23115 82.56503,-38.23115c41.7194,0 77.75771,4.72708 84.03836,37.29187c0.67017,3.47479 -0.43833,27.21663 -0.43833,30.84484c0,12.96856 3.1282,41.47221 -4.58828,51.79135c-14.67444,19.62392 -48.75244,16.34536 -79.01175,16.34536c-31.99375,0 -61.8289,1.02121 -75.88251,-20.49511c-6.22753,-9.53445 -7.71752,-36.08667 -7.71752,-47.64161z" fill="#ffcaa0" stroke-width="2"/><path d="M214.46128,54.05548c0,-1.43251 0.92811,-28.495 1.03501,-29.90557c1.53469,-20.2512 7.18192,63.02213 57.18549,85.83986c39.18622,17.88155 108.1767,-8.40498 105.0743,-4.25618c-14.67444,19.62392 -49.43545,16.45858 -79.69475,16.45858c-31.99375,0 -61.8289,1.02121 -75.88251,-20.49511c-6.22753,-9.53445 -7.71752,-36.08667 -7.71752,-47.64161z" fill="#ff6e5b" stroke-width="0"/></g><g data-paper-data="{&quot;index&quot;:null}" stroke="#000000" stroke-linecap="butt"><path d="M263.83596,53.51967c0,33.51667 -12.43537,60.6873 -27.77519,60.6873c-15.33982,0 -27.77519,-27.17063 -27.77519,-60.6873c0,-33.51667 12.43537,-60.6873 27.77519,-60.6873c15.33982,0 27.77519,27.17063 27.77519,60.6873z" fill="#01930e" stroke-width="2"/><path d="M217.89158,43.06203c0,33.51667 33.9295,70.6931 18.58969,70.6931c-15.33981,0 -27.77519,-27.17063 -27.77519,-60.6873c0,-33.51667 9.18549,-43.52247 9.18549,-10.0058z" fill="#31525b" stroke-width="0"/></g><g data-paper-data="{&quot;index&quot;:null}" stroke-linecap="butt"><path d="M400.74358,15.23664c0,18.38012 -43.27903,33.28014 -96.66641,33.28014c-53.38738,0 -96.6664,-14.90003 -96.6664,-33.28014c0,-18.38012 43.27901,-33.28013 96.6664,-33.28013c53.38738,0 96.66641,14.90002 96.66641,33.28014z" fill="#000000" stroke="none" stroke-width="NaN"/><path d="M399.9796,15.59495c0,18.38012 -43.27903,33.28014 -96.66641,33.28014c-53.38738,0 -96.6664,-14.90003 -96.6664,-33.28014c0,-18.38012 44.778,9.20933 98.16538,9.20933c53.38738,0 95.16742,-27.58945 95.16742,-9.20933z" fill="#ff0000" stroke="#000000" stroke-width="2"/><path d="M394.34394,25.16639c0,5.05805 -38.03259,24.4397 -91.41998,22.94884c-18.68236,-0.52171 -36.3062,-2.22004 -50.67606,-5.29417c-26.67779,-5.70715 -43.05545,-14.63916 -40.61991,-18.89544c2.51549,-4.39596 39.40757,17.56554 92.79495,17.56554c53.38738,0 89.92099,-21.38281 89.92099,-16.32477z" fill="#900056" stroke="#000000" stroke-width="0"/></g><path d="M327.03307,79.83298c0,16.35754 -3.03984,29.61795 -6.78968,29.61795c-3.74984,0 -6.78968,-13.26041 -6.78968,-29.61794c0,-16.35754 3.03985,-29.61794 6.78968,-29.61794c3.74984,0 6.78968,13.26041 6.78968,29.61795z" data-paper-data="{&quot;index&quot;:null}" fill="#000000" stroke="none" stroke-width="0" stroke-linecap="butt"/><path d="M353.97721,75.33539c0,16.29211 -2.87985,29.49947 -6.43233,29.49947c-3.55248,0 -6.43233,-13.20736 -6.43233,-29.49947c0,-16.29211 2.87985,-29.49947 6.43233,-29.49947c3.55248,0 6.43233,13.20736 6.43233,29.49947z" data-paper-data="{&quot;index&quot;:null}" fill="#000000" stroke="none" stroke-width="0" stroke-linecap="butt"/><path d="M330.31764,52.00238h-31.3917" fill="none" stroke="#000000" stroke-width="5" stroke-linecap="round"/><path d="M364.20075,44.56866l-24.41576,4.70802" fill="none" stroke="#000000" stroke-width="5" stroke-linecap="round"/><path d="M293.72676,106.10492c-3.13583,6.40857 -8.50029,10.23764 -11.98185,8.55246c-3.48156,-1.68518 -3.76183,-8.24646 -0.626,-14.65502c3.13583,-6.40857 8.50029,-10.23764 11.98185,-8.55246c3.48156,1.68518 3.76183,8.24646 0.626,14.65502z" fill="#000000" stroke="none" stroke-width="0" stroke-linecap="butt"/></g></g></g></svg>