<svg version="1.1" xmlns="http://www.w3.org/2000/svg" xmlns:xlink="http://www.w3.org/1999/xlink" width="275.24753" height="299.55195" viewBox="0,0,275.24753,299.55195"><defs><radialGradient cx="260.35545" cy="276.69107" r="15.90447" gradientUnits="userSpaceOnUse" id="color-1"><stop offset="0" stop-color="#1e202b"/><stop offset="1" stop-color="#1e202b" stop-opacity="0"/></radialGradient></defs><g transform="translate(-102.37623,-30.22402)"><g data-paper-data="{&quot;isPaintingLayer&quot;:true}" fill-rule="nonzero" stroke-linejoin="miter" stroke-miterlimit="10" stroke-dasharray="" stroke-dashoffset="0" style="mix-blend-mode: normal"><path d="M102.37624,329.77598v-299.55195h275.24753v299.55195z" fill="none" stroke="none" stroke-width="0" stroke-linecap="butt"/><g stroke-linecap="butt"><path d="M237.9962,162.0328c0,0 2.41606,-23.6466 3.54142,-32.22817c0.85352,-6.50867 2.00553,-13.30183 2.5386,-16.18778c0.54216,-2.93514 2.79498,-6.20905 2.79498,-6.20905l34.125,0.625c0,0 -5.875,16.00677 -5.875,23.125c0,4.96022 16.75,26.5 16.75,26.5z" fill="#d396fc" stroke="#000000" stroke-width="1.5"/><path d="M262.7462,182.6578c0,0 -2.66969,-18.00127 -4.88479,-26.06598c-2.06619,-7.52254 -7.99021,-20.80902 -7.99021,-20.80902c0,0 8.57503,4.88317 16.62661,4.58849c3.55268,-0.13003 8.9984,-3.46349 8.9984,-3.46349c0,0 11.10733,13.26443 12.77687,17.66225c1.74388,4.59365 -2.52687,9.33775 -2.52687,9.33775z" fill="#ffc6ef" stroke="none" stroke-width="0"/><path d="M277.00059,164.78426c-0.4207,-1.71775 7.66002,-10.78342 6.84926,-12.60333c-3.54926,-7.96702 -9.80992,-16.015 -9.79734,-16.28225c0.09323,-1.98109 -0.05631,-4.86589 -0.05631,-4.86589h5c0,0 -0.03702,3.08658 1.03511,4.77322c1.0276,1.61658 8.83322,5.76766 11.63267,9.7721c5.7111,8.16938 8.70722,20.45468 8.70722,20.45468c0,0 -23.04696,0.07288 -23.37061,-1.24854z" fill="#2b263c" stroke="#000000" stroke-width="1.5"/><path d="M268.8712,174.5328c0,0 2.6028,-3.2032 2.27432,-4.75514c-0.13054,-0.61674 -2.61867,-0.55167 -3.02929,-0.56288c-0.94583,-0.02584 -1.78773,0.14004 -1.9837,-0.06766c-0.43358,-0.45953 0.57022,-1.66767 1.08943,-2.75093c0.46164,-0.96317 2.06353,-1.98979 2.21827,-3.04848c0.10812,-0.73972 -4.28757,-2.96429 -4.19037,-3.65416c0.07826,-0.55548 3.12134,-2.69691 3.12134,-3.16074c0,-0.25449 -1.26337,-1.19475 -2.38889,-2.46004c-1.40561,-1.58016 -2.73611,-3.52733 -2.73611,-3.66496c0,-0.48634 0.33935,-0.3874 0.89998,-0.41805c1.96498,-0.10744 6.64833,-0.4391 8.96677,-1.24681c2.7208,-0.94789 7.80542,-4.42553 9.46075,-5.60099c0.42424,-0.30125 0.01892,-0.29283 0.14243,0.27243c0.02889,0.13223 -0.58507,1.55785 -1.19798,2.75467c-1.08607,2.12074 -2.43635,5.34301 -2.10934,6.26135c0.06473,0.18179 1.94824,-0.42036 3.99001,-0.68264c2.45703,-0.31562 5.14325,-0.30712 5.16496,-0.07304c0.0343,0.36979 -4.31373,7.32483 -4.74349,9.66753c-0.15639,0.85254 -4.07407,13.81555 -4.07407,13.81555z" fill="#4a5c6f" stroke="#000000" stroke-width="1.5"/><path d="M282.9962,169.2828c0,0 -4.28207,-1.30794 -7.27831,-2.14918c-1.55701,-0.43715 -2.94927,-0.56579 -2.82531,-0.70704c1.72404,-1.96445 3.0794,-4.76614 3.48265,-6.93941c0.05977,-0.32214 -6.37821,0.60526 -6.31391,0.28367c0.09948,-0.49758 5.03011,-4.58107 5.03205,-4.98756c0.0022,-0.46122 -7.11312,-2.46303 -7.09445,-2.73298c0.03202,-0.46275 1.99728,-2.01748 1.99728,-2.01748c0,0 5.26405,-1.44421 7.34022,-2.43616c1.4053,-0.67142 4.03478,-3.06384 4.03478,-3.06384c0,0 -3.49594,8.03501 -2.86358,8.56027c0.27443,0.22796 2.2103,-0.81413 4.44835,-1.25018c2.47733,-0.48268 5.26859,-0.36359 5.35216,-0.04362c0.08621,0.33006 -4.1984,5.98697 -4.1984,5.98697l4.13647,12.12156z" fill="#696f96" stroke="none" stroke-width="0"/><path d="M278.30175,146.47724c0,0 -0.68645,-1.0693 -1.59527,-2.45112c-0.642,-0.97613 -1.3393,-2.10822 -2.22886,-3.12948c-2.84391,-3.26496 -6.35023,-6.23238 -6.25845,-7.55911c0.00782,-0.11302 0.34377,-0.3387 1.02957,-0.07296c0.78082,0.30256 1.98224,1.17632 3.0861,2.41242c0.81798,0.91598 1.15214,2.26238 1.86075,3.4356c0.79883,1.32259 1.68093,2.67694 2.33488,3.85764c1.10967,2.00349 1.77128,3.50701 1.77128,3.50701z" fill="#000000" stroke="none" stroke-width="0"/></g><g stroke-linecap="butt"><path d="M184.22289,296.28775c5.53624,-4.34455 11.52016,-9.03852 12.36593,-10.41064c0.75886,-1.23112 1.51776,-2.64143 2.49636,-4.19889c3.44513,-5.48292 8.14792,-12.80715 12.21332,-20.71315c0.92191,-1.79284 1.56993,-3.73921 2.43918,-5.56762c0.64546,-1.35767 0.97965,-2.23303 1.54217,-3.60458c0.40394,-0.98487 0.3964,-1.35229 0.76908,-2.33401c0.3198,-0.84243 1.2866,-2.79521 1.58996,-3.62945c1.29287,-3.55539 2.46404,-7.01165 3.74865,-10.15841c3.84552,-9.41991 5.73383,-17.20938 5.73383,-17.20938l28.31152,-4.59509c0,0 -3.71297,15.33431 -9.42093,29.1581c-1.38883,3.36352 -3.93207,7.40872 -5.8012,10.3563c-0.93805,1.4793 -1.75641,2.77621 -2.48821,3.84403c-0.43876,0.64023 -0.95495,1.09038 -1.14376,1.74921c-0.79405,2.77079 -0.3283,6.33804 -0.51676,10.55854c-0.32137,7.19688 -0.89385,15.04595 -0.89385,15.04595c0,0 -7.09956,8.92816 -7.22855,8.92624c-0.55773,-0.00834 -1.9501,-6.06475 -2.43719,-8.26314c-0.10802,-0.48754 -0.39221,-0.64523 -0.7446,-0.39356c-0.96171,0.68684 -2.90445,2.2047 -4.02023,3.9739c-0.79826,1.26573 -1.92024,4.78226 -2.59389,5.07063c-0.73922,0.31645 -1.64616,1.13982 -2.4467,1.47379c-3.17997,1.32661 -6.78016,2.55091 -10.52995,3.8083c-4.97363,1.66778 -10.20929,3.29919 -15.06538,4.37988c-7.62458,1.69678 -14.85639,1.37956 -15.95163,1.40029c-1.08882,0.02061 -0.85757,-0.10909 -0.23219,-0.59783c0,0 5.93639,-4.64117 10.30503,-8.06943z" fill="#1b1f25" stroke="#000000" stroke-width="1.5"/><path d="M253.93293,213.8067l25.89456,-3.2959c0,0 -0.65649,4.33196 -2.68315,10.83851c-1.78675,5.73632 -4.83831,13.10494 -6.61966,21.50418c-0.86906,4.09774 1.02786,8.76578 0.05967,13.04763c-0.68914,3.04774 -1.64399,3.26901 -2.9886,6.46175c-0.70222,1.6674 -1.22532,3.86163 -1.97407,6.10794c-1.03245,3.09742 -2.26211,6.29674 -2.88703,8.37609c-0.97753,3.2526 -0.38244,6.03749 -0.45736,8.63153c-0.17205,5.95588 13.03651,15.73919 14.96054,17.47562c0.1912,0.17255 0.39367,0.27854 0.28062,0.28138c-1.65409,0.04149 -5.78772,0.02358 -8.35492,-0.33792c-4.59292,-0.64676 -8.69456,-1.65932 -12.3358,-2.48613c-5.00602,-1.13672 -9.13916,-2.14409 -12.45779,-3.38174c-3.97545,-1.48261 -6.78486,-3.0675 -8.54719,-3.85207c-0.321,-0.1429 0.1405,-5.8001 0.23769,-7.39302c0.09837,-1.61213 -0.8923,-1.20582 -0.8923,-1.20582c0,0 -0.3733,-5.51132 0.66882,-9.4417c0.73056,-2.75532 2.04609,-8.35395 4.41678,-14.98906c1.12492,-3.14843 2.95242,-6.66692 4.30048,-10.09275c1.31879,-3.35146 2.41695,-6.60523 3.38766,-9.86473c4.30133,-14.44314 5.99105,-26.38377 5.99105,-26.38377z" fill="#1b1f25" stroke="#000000" stroke-width="1.5"/><path d="M245.39977,241.9793c0,0 -4.64642,0.8555 -4.72703,-0.36623c-0.26669,-4.04196 2.84605,-28.14171 2.84605,-28.14171l20.57743,0.25161c0,0 -11.61818,27.10578 -13.53692,30.66452c-0.45056,0.83569 -2.43213,-1.04609 -2.43213,-1.04609c0,0 2.10299,-7.78066 1.29578,-7.79053c-1.06635,-0.01304 -1.79548,1.72374 -2.45266,3.07102c-0.78165,1.60243 -1.57052,3.35741 -1.57052,3.35741z" fill="#1b1f25" stroke="none" stroke-width="0"/><path d="M230.84783,284.0313c0.04095,-2.05409 1.81105,-9.94424 1.81105,-9.94424c0,0 0.93831,-11.40824 1.48594,-11.78333c0.33576,-0.22998 1.21055,2.51561 1.36856,4.84041c0.13228,1.94613 -0.0118,5.49386 -0.08596,5.73196c-0.02829,0.09081 -0.33503,1.80657 -0.30794,2.81288c0.01738,0.64604 0.32655,0.75747 0.4261,0.75869c0.44126,0.0054 1.62017,-3.43682 2.53556,-6.5533c0.54307,-1.84889 1.13731,-3.79664 1.18512,-4.25703c0.13649,-1.31433 0.42527,8.36963 0.42527,8.36963l-0.90364,10.78499c0,0 -7.96676,0.57906 -7.94005,-0.76065z" fill="#1b1f25" stroke="none" stroke-width="0"/><path d="M244.45218,276.49662c0.10401,-8.50601 7.30846,-15.31444 16.0916,-15.20705c2.35195,0.02876 4.59372,-0.77468 6.59153,0.13729c0.10937,0.04993 -0.1923,0.87817 -0.60291,2.03432c-0.28435,0.80065 -0.57634,1.75908 -1.00405,2.72295c-0.51285,1.15572 -0.88875,2.90787 -1.52112,4.52252c-0.3167,0.80863 -0.74382,2.21097 -1.06896,3.45041c-0.05295,0.20185 -0.14598,0.50793 -0.25234,0.8392c-0.20549,0.64002 -0.40038,1.37475 -0.51235,1.63264c-1.55106,3.57276 0.12307,8.69676 -0.92601,9.81235c-0.11541,0.12272 0.51966,2.57584 1.33582,3.65256c0.5952,0.78521 2.02917,2.03366 1.95398,2.04786c-1.05348,0.19887 -3.25447,-0.03545 -4.37022,-0.04909c-8.78314,-0.10739 -15.81897,-7.08994 -15.71496,-15.59596z" fill="url(#color-1)" stroke="none" stroke-width="0"/><path d="M266.37301,294.01523c0,0 -1.5427,-1.26207 -2.77025,-2.70045c-0.79562,-0.93227 -1.34275,-1.93574 -1.82786,-2.81063c-0.13986,-0.25224 -0.94409,0.01507 -1.02983,-0.38076c-0.24947,-1.1516 -0.14454,-2.97876 0.10484,-4.89764c0.25851,-1.98918 0.62509,-4.07748 0.91529,-5.61388c0.26318,-1.39333 0.72685,-2.82783 0.72685,-2.82783l3.42099,-6.26971c0,0 -1.57847,8.37097 -1.79065,9.52121c-0.14179,0.76865 -0.20532,1.8511 -0.39665,2.74684c-0.23665,1.10787 -0.5796,2.06321 -0.44457,3.37197c0.20196,1.95749 1.77838,3.75441 2.19503,4.70401c0.88241,2.01108 1.68571,3.75472 1.68571,3.75472z" fill="#000000" stroke="none" stroke-width="0"/><path d="M219.1978,293.96042c0,0 -6.65759,2.39628 -6.95617,2.29163c-0.129,-0.04522 1.21516,-1.06166 2.57672,-1.77638c1.33969,-0.70323 2.69612,-1.10528 2.69612,-1.10528c0,0 0.74566,-2.33176 2.03851,-4.30914c0.32436,-0.49611 0.54707,-1.10497 0.96006,-1.49135c0.93725,-0.87686 2.72698,-3.02274 4.66164,-4.13c0.66992,-0.38341 0.99169,0.70206 1.40965,2.41931c0.67204,2.76107 1.35178,6.78442 1.35178,6.78442c0,0 -0.32512,1.40823 -1.207,-0.34781c-1.0918,-2.17405 -1.11256,-6.30054 -2.0804,-6.31237c-0.91564,-0.0112 -1.82749,1.87878 -2.92421,3.80232c-1.23294,2.16245 -2.52672,4.17468 -2.52672,4.17468z" fill="#000000" stroke="none" stroke-width="0"/><path d="M227.64744,293.20953c0,0 -0.81205,-1.64444 -0.63311,-2.16863c0.08785,-0.25734 1.07198,0.73582 1.22832,0.41716c0.63348,-1.29126 1.78442,-3.02265 3.02789,-4.74272c1.31197,-1.81481 3.30947,-3.45143 4.22158,-4.0608c0.44721,-0.29878 1.00465,-0.2773 1.1775,0.01778c0.43894,0.74931 0.20613,2.28867 0.00876,3.96209c-0.23662,2.00613 -0.5672,4.13196 -0.81168,5.37691c-0.12293,0.62596 -0.27964,1.08174 -0.27964,1.08174c0,0 -0.65896,0.2426 -0.71048,-1.08401c-0.01246,-0.32079 -0.07947,-0.68299 -0.0639,-1.05871c0.0684,-1.65115 0.3857,-3.57991 -0.03197,-3.57378c-0.9869,0.01447 -3.45748,3.53582 -5.24318,5.40611c-0.8617,0.90253 -1.89009,0.42686 -1.89009,0.42686z" fill="#000000" stroke="none" stroke-width="0"/><path d="M235.60464,292.42449c0.12847,-0.44102 0.34107,-1.23572 0.45568,-1.7583c0.1897,-0.86504 1.02927,-5.69548 1.02927,-5.69548l1.7211,2.96542l8.71498,9.15323c0,0 -8.962,-3.11481 -9.4653,-3.31553c-0.74937,-0.29884 -1.74594,-0.69629 -2.06466,-0.82339c-0.19706,-0.07859 -0.45517,-0.30591 -0.39107,-0.52597z" fill="#1b1f25" stroke="none" stroke-width="0"/><path d="M196.45931,286.30495c-0.65599,-0.11043 0.08486,-2.23543 1.17539,-4.00703c0.74301,-1.20704 2.28065,-2.95218 2.90521,-2.85395c0.35027,0.0551 0.3908,0.75157 0.28099,1.5403c-0.11134,0.79975 -0.37533,1.64726 -1.00282,2.54668c-0.70032,1.00382 -1.51169,1.96196 -2.25903,2.44335c-0.47071,0.30321 -1.0843,0.33326 -1.09975,0.33065z" fill="#000000" stroke="none" stroke-width="0"/><path d="M222.49102,281.27887c0,0 -0.39067,-1.01552 -1.38073,-2.39289c-0.45074,-0.62707 -0.99348,-1.37621 -1.51334,-2.00297c-0.68663,-0.82782 -1.33267,-1.49919 -1.66733,-1.95746c-0.17724,-0.24269 -0.1946,-0.47291 -0.17666,-0.50396c0.22984,-0.39812 3.11292,-1.34972 4.76269,-2.10982c0.62432,-0.28765 1.13903,-0.48137 1.16858,-0.70444c0.04002,-0.30196 -2.37738,-5.23006 -3.28701,-7.00864c-0.22807,-0.44595 -0.03893,-0.32822 0.27481,-0.44902c1.29516,-0.49868 4.88013,-1.91219 7.58861,-3.29539c1.6334,-0.83417 3.00781,-1.59799 3.25438,-2.25714c0.02119,-0.05664 -0.68716,-0.60368 -1.49824,-1.16421c-0.78003,-0.53907 -1.81539,-1.27812 -2.72831,-2.01567c-0.83359,-0.67348 -1.47186,-1.42124 -2.06611,-1.94194c-0.59916,-0.525 -1.19561,-0.64425 -1.09976,-0.86023c0.28575,-0.64393 2.16486,-1.5693 3.7566,-2.24605c0.6001,-0.25514 2.28002,-1.01628 2.30998,-1.24871c0.02109,-0.16361 -0.70634,-0.58768 -1.70296,-1.20305c-0.28179,-0.174 -0.65879,-0.29366 -0.95637,-0.51221c-2.18104,-1.6018 -4.786,-3.96111 -4.63946,-4.6412c0.17045,-0.79099 0.69188,-1.54632 1.21375,-2.29506c0.76895,-1.10323 1.63151,-2.19102 2.13086,-3.34818c2.00338,-4.64253 3.20854,-8.89524 3.20854,-8.89524c0,0 0.60835,7.79863 1.34691,8.54595c0.66383,0.67172 1.72906,-0.24662 2.81431,-0.34475c1.2864,-0.11632 2.61272,-0.04495 3.3969,-0.11401c0.40539,-0.0357 0.66657,-0.1651 0.70101,-0.25904c0.28415,-0.77508 0.20556,-1.0934 -0.0107,-1.77903c-0.25999,-0.82427 -0.72478,-1.70307 -1.02574,-2.22902c-0.16931,-0.29587 -0.31156,-0.39562 0.0771,-0.51925c0.76722,-0.24405 2.45047,-0.70997 4.26426,-1.33989c1.68124,-0.58389 3.60082,-1.41422 5.66663,-2.18896c1.99742,-0.74909 4.13665,-1.44115 6.03659,-2.09867c2.28906,-0.79218 4.3413,-1.17388 5.77294,-1.65791c0.6223,-0.2104 1.12886,-0.56448 1.48409,-0.77256c0.34367,-0.20131 -2.13904,-2.38629 -3.16454,-3.26793c-0.26227,-0.22548 -0.70933,-0.51388 -0.38562,-0.62322c1.14744,-0.3876 4.40083,-1.24096 5.96512,-1.74151c1.52163,-0.4869 4.44923,-1.41733 5.70763,-1.80534c0.40525,-0.12495 0.33136,0.0259 0.04251,0.2838c-0.66783,0.59629 -2.00676,1.75558 -3.54996,2.8938c-1.64458,1.213 -3.87542,2.46619 -3.88752,2.6471c-0.03062,0.45746 6.68926,0.10089 6.67982,0.74772c-0.00007,0.00488 -0.54415,0.67916 -1.94206,1.3694c-1.19994,0.59249 -2.852,1.17393 -4.7116,1.96872c-2.539,1.08517 -5.46325,2.43559 -8.13686,3.53548c-6.32282,2.60113 -11.73326,4.03607 -11.75153,4.37977c-0.02368,0.44504 2.379,2.39073 2.48582,3.00863c0.04869,0.28163 -1.35553,0.69544 -2.54331,1.30627c-3.38714,1.74189 -9.52316,4.48422 -10.28315,5.64867c-0.1217,0.18646 1.4019,0.44943 3.31063,0.82527c3.10269,0.61094 7.22451,1.39427 6.96252,1.6945c-0.10758,0.12329 -2.76158,0.91876 -5.63662,2.00234c-1.90324,0.7173 -3.93478,1.45207 -5.54746,2.1216c-1.74181,0.72315 -2.9948,1.35744 -3.06531,1.45224c-0.10462,0.1407 1.90419,1.29192 4.04297,2.71707c2.63712,1.75721 5.51397,3.85163 5.37834,4.02682c-0.31965,0.41287 -2.51664,1.81809 -5.01052,3.20218c-3.51088,1.94851 -7.61201,4.00566 -7.90805,4.50571c-0.20565,0.34737 6.06912,7.06667 5.85011,7.03461c-0.39732,-0.05815 -1.77603,0.70645 -3.17758,1.20728c-1.13742,0.40645 -2.23425,0.50901 -3.27831,0.89713c-1.10347,0.4102 -1.96595,0.71348 -2.18827,0.70545c-0.17268,-0.00625 0.52519,1.28409 0.97902,2.06351c0.91842,1.57735 1.28698,3.00358 1.28698,3.00358z" fill="#2b263c" stroke="none" stroke-width="0"/><path d="M247.84758,286.65899c0.33128,-0.29707 0.69026,-0.74095 1.20033,-1.13037c1.46929,-1.12177 3.52062,-2.45821 4.83011,-3.43922c0.79204,-0.59335 1.42138,-1.10397 1.46952,-1.21996c0.21446,-0.51679 0.06165,-1.63363 -0.21306,-2.1299c-0.28828,-0.52078 -0.8041,-1.3002 -1.5157,-2.06442c-0.59633,-0.64042 -1.35398,-1.24763 -1.99983,-1.9009c-0.99822,-1.00966 -1.92068,-1.94855 -2.35038,-2.55052c-0.19987,-0.28002 -0.29422,-0.63762 -0.24594,-0.73838c0.02023,-0.04222 0.20949,-0.32531 0.65614,-0.52671c0.35074,-0.15816 0.96878,-0.19111 1.50939,-0.41544c0.69261,-0.2874 1.51485,-0.63412 2.39966,-1.05302c0.87764,-0.41551 1.81734,-0.94509 2.75137,-1.4145c1.23729,-0.62182 2.46626,-1.27255 3.53375,-1.90349c1.71235,-1.01205 3.07709,-2.16272 3.28656,-2.76029c0.41987,-1.19778 0.77043,-2.37458 1.02383,-3.51463c0.10184,-0.45817 -0.11521,-1.83123 -0.04203,-2.2705c0.01727,-0.10365 -4.28872,-0.04031 -4.27241,-0.12769c0.12778,-0.68465 3.09628,-2.07588 3.18629,-2.70547c0.03335,-0.23329 -0.3447,-0.27768 -0.73082,-0.3909c-0.66711,-0.1956 -1.51727,-0.44634 -1.45655,-1.14923c0.05659,-0.65501 1.53655,-0.42249 1.63304,-0.80507c0.02793,-0.11075 -1.3151,-1.68094 -3.14027,-3.31869c-1.44921,-1.30038 -3.29081,-2.58776 -4.36169,-3.61673c-0.76635,-0.73636 -1.25801,-1.47024 -1.22995,-1.52698c0.02789,-0.05637 0.57922,-0.37822 1.43772,-1.09526c0.55054,-0.45982 1.85234,-0.40257 2.59604,-1.02195c1.54509,-1.28681 3.27057,-2.92449 4.74967,-4.38843c0.8088,-0.80051 1.70127,-1.47048 2.29296,-2.08132c0.46878,-0.48396 0.69018,-0.96005 0.94417,-1.22845c0.2297,-0.24273 0.28231,-0.47331 0.52478,-0.26274c0.5559,0.48273 1.78238,1.57233 2.28737,1.98093c0.19004,0.15377 1.03705,0.54154 1.23142,0.66784c0.30892,0.20074 -0.21423,0.2332 -0.47113,0.46251c-0.41551,0.37089 -1.12258,1.00301 -1.97751,1.77113c-0.44372,0.39867 -0.92913,0.98726 -1.43239,1.4417c-1.34218,1.21194 -2.82055,2.22415 -4.06172,3.34321c-0.32433,0.29242 -0.73509,0.46957 -1.04952,0.70517c-0.47746,0.35774 -0.83494,0.7489 -1.13671,1.08298c-0.48214,0.53376 -0.84303,0.67385 -0.83204,0.73153c0.04144,0.21776 0.50621,0.7662 0.87453,0.89791c1.19927,0.42882 3.84256,0.6097 6.05706,1.24623c1.49306,0.42917 2.84476,1.43854 3.31327,2.24255c0.04809,0.08252 -0.35011,0.2137 -0.9496,0.58823c-0.98762,0.61702 -2.439,1.61761 -3.39732,2.26857c-0.55497,0.37699 -0.99658,0.58513 -0.95218,0.66741c0.14207,0.26331 0.68706,0.22693 0.83569,0.49396c0.21504,0.38636 -0.98885,0.75943 -0.76344,1.15287c0.05122,0.08941 1.03003,0.60893 2.10308,0.98801c1.33909,0.47306 2.82486,0.73617 2.82486,0.73617c0,0 -0.02098,1.18041 -1.26483,3.19824c-0.59203,0.96042 -1.09453,2.17433 -2.68716,3.42206c-0.60996,0.47788 -1.40493,0.90631 -2.19332,1.42513c-1.97751,1.30132 -4.32755,2.7605 -6.65195,3.97876c-1.38641,0.72665 -2.89112,1.31663 -3.93006,1.87731c-0.84686,0.45701 -1.35801,0.92058 -1.45827,1.20955c-0.17576,0.50662 1.44734,1.57447 3.54845,2.61654c1.68947,0.83792 3.71631,1.63243 5.15038,2.30841c1.22411,0.57702 2.29025,0.70046 2.23269,1.03564c-0.068,0.39599 -3.64419,1.12635 -3.39325,1.85208c0.04363,0.1262 0.34383,0.19086 0.63059,0.33992c0.71643,0.37242 1.84891,0.79933 1.68504,1.19641c-0.06176,0.14964 -0.53384,0.31914 -1.12437,0.73848c-0.8726,0.61964 -2.36537,1.43359 -3.60855,2.27853c-1.10243,0.74929 -1.95807,1.53994 -2.7632,1.98805c-0.31177,0.17352 -0.85653,0.19774 -1.16063,0.38631c-0.22403,0.13892 0.15734,0.45537 0.57142,0.89239c0.79905,0.8433 2.55596,2.16978 4.60194,3.59333c0.74884,0.52104 1.53923,0.82515 2.33273,1.35326c0.58311,0.38809 1.16662,1.00292 1.74312,1.37711c1.91467,1.24272 3.72109,2.36729 4.94255,3.0985c0.93976,0.56257 1.99722,0.83265 1.99722,0.83265c0,0 -2.06659,-0.20272 -5.03926,-1.18256c-1.20384,-0.39681 -2.62323,-0.8578 -4.01027,-1.58254c-3.15565,-1.68682 -6.41424,-3.94544 -8.71865,-5.68669c-1.27233,-0.96139 -2.1737,-1.84075 -2.68633,-2.30338c-0.18551,-0.16742 -0.64748,-0.32075 -0.48507,-0.5642c0.07079,-0.10611 0.64562,-0.28675 0.76868,-0.39709z" fill="#2b263c" stroke="none" stroke-width="0"/></g><g stroke-linecap="butt"><path d="M240.30317,214.22002l18.73614,-22.58274l22.87204,-8.68136c0,0 0.82937,16.22443 0.65936,20.70138c-0.07371,1.94109 -1.66105,5.67659 -1.66105,5.67659z" fill="#d396fc" stroke="none" stroke-width="0"/><path d="M257.78196,210.70336c0,0 3.71631,-3.65184 5.2776,-5.26244c0.96519,-0.99567 2.8516,-3.12911 3.57005,-3.91629c0.20868,-0.22865 0.0815,0.10541 -0.01489,0.39688c-0.20128,0.6087 -0.5139,1.61895 -0.52504,2.05314c-0.00543,0.21166 -0.07176,1.12025 -0.04123,1.36584c0.00923,0.07431 0.48573,0.11889 0.95649,0.03841c0.54505,-0.09318 1.19774,-0.64935 1.47473,-0.72568c0.55003,-0.15159 -2.0181,0.5314 -1.82832,0.4611c0.62038,-0.22983 1.62867,-0.63054 2.56271,-0.86236c0.34289,-0.0851 0.75443,-0.06878 1.02095,-0.12505c0.92829,-0.19598 3.16939,-0.51009 4.11187,-0.56955c0.37541,-0.02369 0.01825,0.23374 -0.20859,0.52372c-0.3006,0.38426 -0.74649,0.964 -1.19488,1.58252c-0.75986,1.04817 -1.97533,4.66838 -2.38801,4.84332c-2.51292,1.06526 -12.77344,0.19645 -12.77344,0.19645z" fill="#4a5c6f" stroke="#000000" stroke-width="1"/><path d="M237.60014,219.24882l6.45454,-9c0,0 3.10778,-0.46922 5.91214,-0.79172c1.58404,-0.18216 4.79384,-0.41699 8.09645,-0.87339c2.72781,-0.37697 5.40339,-0.96287 8.30002,-1.28434c0.83045,-0.09216 1.65075,-0.27003 2.45282,-0.35178c3.41332,-0.34792 6.49631,-0.51078 8.62486,-0.67154c1.84862,-0.13961 2.97735,-0.20905 2.97735,-0.20905l-1.09091,7c0,0 -2.77467,0.60804 -6.7198,1.14575c-2.79315,0.3807 -6.30903,0.59011 -9.2393,1.12654c-3.48401,0.6378 -4.4609,1.48999 -7.75591,2.0701c-0.66138,0.11644 -0.94263,0.59288 -1.56596,0.70105c-0.30467,0.05288 -0.96783,-0.25899 -1.2616,-0.20845c-2.177,0.37457 -4.03831,0.68205 -5.34212,0.8752c-3.39804,0.50341 -9.84259,0.47163 -9.84259,0.47163z" fill="#000000" stroke="none" stroke-width="0"/><g><path d="M278.22514,220.23176c0,0 0.37739,-2.77501 0.64151,-4.41691c0.37011,-2.3008 0.91412,-5.18404 1.17343,-7.85108c0.2973,-3.05775 0.20793,-5.8313 -0.00318,-7.11715c-0.1258,-0.76625 -0.18293,-1.74615 -0.41291,-2.79964c-0.41203,-1.88746 -1.10264,-4.01115 -1.77303,-5.56557c-1.9601,-4.54485 -4.50083,-7.37464 -4.50083,-7.37464c0,0 7.20089,-2.83415 11.14375,1.37669c0.64387,0.68763 1.44245,6.6699 1.32089,7.86973c-0.1907,1.88228 -0.4925,3.68473 -0.71175,5.10979c-0.63822,4.14838 -3.11743,11.896 -4.94256,16.66687c-0.90733,2.37174 -1.93533,4.10192 -1.93533,4.10192z" fill="#2b263c" stroke="#000000" stroke-width="1.5"/><path d="M280.72514,200.60676c0,0 -0.73391,-5.2219 -1.91663,-7.66948c-0.59139,-1.22386 -1.6005,-3.59656 -2.65336,-5.3376c-0.5432,-0.89825 -1.34805,-1.74332 -1.8632,-2.49185c-1.2812,-1.86164 -2.0668,-3.12607 -2.0668,-3.12607l11.375,-0.5c0,0 0.97654,6.26993 1.44358,10.07049c0.18589,1.51266 0.06087,2.63415 0.04701,2.81345c-0.16406,2.12251 -0.49059,4.49107 -0.49059,4.49107c0,0 -1.31565,0.57981 -1.92518,0.90634c-0.55128,0.29533 -1.94982,0.84366 -1.94982,0.84366z" fill="#1b1f25" stroke="none" stroke-width="0"/></g><g><path d="M222.18562,237.96866c-0.01317,-0.46257 0.39008,-1.34148 0.663,-2.52582c0.36901,-1.60134 0.70678,-3.76107 1.3977,-6.20507c1.21228,-4.28826 2.74211,-9.45172 3.96502,-14.00969c0.52358,-1.95147 0.68523,-5.03432 0.76758,-6.77416c0.19454,-4.1099 0.12122,-8.59714 0.12122,-8.59714l33.125,-7.875c0,0 -1.75753,2.13276 -4.36357,5.56907c-0.3452,0.45518 -3.30947,4.00625 -3.86769,4.45427c-0.36807,0.2954 1.65236,-2.52465 1.39015,-2.19553c-0.36089,0.45298 2.04109,-1.79045 1.8928,-1.27681c-0.11429,0.39589 -2.75845,3.54597 -3.07585,3.92896c-1.18497,1.4298 -2.59906,3.32631 -3.94379,4.9039c-2.24184,2.63004 -4.6383,5.41598 -6.96479,8.19275c-2.00306,2.39075 -4.13403,4.7747 -6.06943,7.04653c-1.84107,2.1611 -3.47759,4.44135 -5.23658,6.27858c-1.86901,1.95215 -3.84404,3.43636 -5.21756,4.87806c-0.45869,0.48146 -1.8878,1.22973 -2.69575,2.06494c-1.24503,1.28705 -1.87416,2.60873 -1.88744,2.14217z" fill="#2b263c" stroke="#000000" stroke-width="1.5"/><path d="M222.85014,235.85676v-1.75c0,0 0.41927,-0.25 0.75,-0.25c0.43303,0 1.625,0.25 1.625,0.25v1.25z" fill="#000000" stroke="none" stroke-width="0"/><path d="M228.97514,214.85676c0,0 0.50802,-4.72951 0.81882,-7.16408c0.15993,-1.25285 -0.06506,-3.19106 -0.09418,-5.09128c-0.04569,-2.9816 0.02536,-5.86964 0.02536,-5.86964l31.125,-3.625c0,0 -1.51037,1.5389 -3.50546,3.7577c-0.27417,0.30491 -0.48159,1.16323 -0.96341,1.53288c-0.65013,0.49876 -1.59469,0.89316 -1.94344,1.32977c-0.38227,0.47858 -0.4836,1.91844 -0.78544,2.29638c-2.6359,3.30041 -7.92724,9.58328 -7.92724,9.58328c0,0 -0.96093,0.96784 -2.6633,2.1273c-0.72478,0.49364 -1.53865,0.79467 -2.38607,1.36248c-0.86304,0.57828 -1.7609,1.42398 -2.63491,1.99418c-2.73211,1.78242 -5.23122,3.31578 -5.70576,3.28972c-0.49455,-0.02715 -3.35997,-5.52368 -3.35997,-5.52368z" fill="#1b1f25" stroke="none" stroke-width="0"/></g><path d="M262.21128,198.14829c0,0 4.3222,-2.10703 5.93643,-2.95983c1.22866,-0.6491 3.41272,-1.5478 3.41272,-1.5478c0,0 1.23517,0.7752 1.86588,0.83005c0.64872,0.05641 1.807,0.0047 1.807,0.0047c0,0 0.08761,1.31081 -0.21658,3.13594c-0.23325,1.39951 -1.28596,3.87593 -1.28596,3.87593z" fill="#ffc6ef" stroke="none" stroke-width="0"/><path d="M255.23649,215.43063c-0.16193,-0.27422 0.13204,-0.4906 0.18772,-1.04463c0.03694,-0.36753 0.18378,-0.7904 0.24158,-1.20634c0.09758,-0.70213 0.10959,-1.38452 0.13553,-1.74765c0.0319,-0.4466 0.00468,-1.1494 0.4309,-1.21218c0.44304,-0.06526 1.1034,-0.3139 2.47301,-0.50635c1.32478,-0.18616 2.91461,-0.10533 4.37147,-0.27121c0.9896,-0.11267 1.91784,-0.44383 2.65998,-0.57874c1.01479,-0.18447 1.68163,-0.16018 1.68163,-0.16018c0,0 -0.56018,1.12772 -0.7301,1.79429c-0.21384,0.83891 -0.45173,2.84207 -0.45173,2.84207c0,0 -1.19689,0.27283 -2.50215,0.65603c-0.9785,0.28726 -1.97807,0.67638 -2.79855,0.84047c-0.76713,0.15342 -1.97066,0.14126 -3.05816,0.27083c-0.34814,0.04148 -0.77531,0.03176 -1.08155,0.10779c-0.31764,0.07886 -0.51208,0.24308 -0.7449,0.2608c-0.39019,0.02969 -0.65276,0.22922 -0.81469,-0.045z" fill="#fead41" stroke="none" stroke-width="0"/></g><g stroke-linecap="butt"><path d="M273.89174,133.61361c-0.86757,-0.31928 -1.7106,-0.79704 -2.02391,-0.93135c-1.21053,-0.51895 -0.75501,-0.81743 -1.62363,-1.11782c-1.75898,-0.60827 -3.35008,-0.70654 -4.8483,-1.27867c-1.29716,-0.49535 -2.5247,-1.02465 -3.73131,-1.67015c-0.42104,-0.22524 -2.87709,-2.20569 -3.26266,-2.42358c-0.31627,-0.17873 -1.19963,-0.27511 -1.38924,-0.99356c-0.16573,-0.62797 -0.76125,-4.13493 -0.97926,-5.16009c-0.18294,-0.86022 -0.53712,-1.78069 -0.88776,-2.66345c-0.96625,-2.43268 -2.00386,-4.92795 -2.65181,-6.17546c-0.26334,-0.50702 -0.12617,-1.37172 -0.17838,-1.38279c-1.91082,-0.40556 -4.01559,4.354 -5.59819,3.51116c-2.60654,-1.38816 -4.80811,-4.82866 -6.49474,-8.25752c-0.63205,-1.28494 -1.0843,-2.56825 -1.55066,-3.7413c-0.41411,-1.04164 -0.86578,-1.99634 -1.06574,-2.78807c-0.21343,-0.84506 -0.19441,-1.62403 -0.17906,-1.99218c0.0346,-0.82987 1.04541,-0.77597 2.24389,-0.25751c1.25669,0.54365 2.73215,1.5732 4.0555,1.52893c1.07998,0.10352 1.12753,-0.25017 1.12753,-0.25017c0,0 9.99329,-13.36046 17.67983,-16.93445c7.98786,-3.7141 29.37815,-4.946 29.37815,-4.946c0,0 -0.57647,2.05684 -0.62883,4.01967c-0.02318,0.869 0.03596,1.43808 0.04425,2.07915c0.00402,0.31119 -0.22825,1.24949 0.01564,1.4272c0.35047,0.25539 2.96671,2.40056 2.99027,2.55234c0.31986,2.06012 -0.81859,6.22852 -0.49692,8.02199c0.36698,2.0461 0.20601,2.77771 0.3825,4.49732c0.21267,2.07228 0.20849,4.66318 0.09492,7.35641c-0.1531,3.63071 -1.07643,10.01881 -1.3639,13.00156c-0.2849,2.95607 0.06493,2.52166 0.16285,2.84686c0.07929,0.32277 1.21895,2.05141 1.36881,2.41196c0.18104,0.43558 0.92183,1.5935 1.2708,2.77968c0.38337,1.3031 0.9244,2.92601 0.54764,3.3771c-0.09638,0.11541 -1.86661,0.63533 -3.83466,1.38712c-2.18785,0.83576 -4.66305,1.9152 -6.26097,2.13792c-3.08143,0.42951 -10.67419,0.44597 -10.82342,0.40259c0,0 -0.86094,-0.14362 -1.48923,-0.37484z" fill="#ffc6ef" stroke="#000000" stroke-width="2"/><path d="M253.60616,103.20047l-2.5,-13.83333c0,0 30.30656,-10.27899 39.24766,-10.94795c0.30452,-0.02278 -0.24812,2.79563 0.00679,2.78913c0.77403,-0.01974 -5.04224,5.15317 -4.65793,5.19078c0.60066,0.05879 0.06745,1.92848 -0.12885,3.72362c-0.13622,1.24574 0.10582,2.62839 0.10582,2.62839c0,0 1.89563,-1.4782 2.98192,-2.46413c1.39468,-1.26583 4.52792,-4.3365 4.52792,-4.3365c0,0 0.41684,0.3036 0.41701,0.75003c0.00046,1.21013 -0.24745,6.73554 -0.24745,6.73554c0,0 0.22695,10.03115 -0.04438,12.75198c-0.43087,4.32063 -1.3063,10.1756 -1.3063,10.1756c0,0 -1.35223,-0.31199 -2.0547,0.56453c-0.57493,0.71738 -1.95028,2.38858 -2.82031,3.99186c-0.80765,1.48833 -1.13377,2.94117 -1.13377,2.94117c0,0 -2.38996,0.14889 -2.43654,-1.99673c-0.05877,-2.7074 2.28114,-7.98242 2.98857,-9.70077c0.4337,-1.05346 1.2746,-1.34565 2.1396,-2.15218c1.00448,-0.93657 2.01243,-2.30536 1.99632,-2.25497c-0.16266,0.50869 -0.81946,-0.46543 -1.49105,-0.42852c-1.21731,0.0669 -2.67368,0.78912 -2.67368,0.78912c0,0 -0.97637,-1.04841 -1.22915,-2.10818c-0.52288,-2.19212 -1.73998,-10.33969 -1.73998,-10.33969l-3.04575,5.16332c0,0 0.75658,2.51991 1.19135,3.78117c0.45546,1.32129 1.48223,3.97486 1.48223,3.97486c0,0 -8.85419,3.27781 -12.50155,4.06787c-3.23475,0.70068 -1.68467,-2.39828 -3.9916,-2.36313c-0.44242,0.00674 4.58808,-0.44283 6.96749,-1.58594c1.69206,-0.8129 1.01367,-2.42964 0.70838,-2.4429c-6.07546,-0.26395 -10.02955,-4.48071 -12.92475,-4.48071c-3.56279,0 -7.83333,1.41667 -7.83333,1.41667z" fill="#d396fc" stroke="none" stroke-width="0"/><path d="M272.94755,94.61319c-0.64676,-1.31991 -3.00806,-7.41272 -3.00806,-7.41272c0,0 5.58484,1.11854 8.00021,1.13354c1.96188,0.01219 5.41646,-1.05021 5.41646,-1.05021c0,0 0.46526,0.55085 0.03538,1.52542c-0.43848,0.99409 -1.77123,2.41893 -1.66299,3.10897c0.2291,1.46053 2.96094,3.8656 2.96094,3.8656c0,0 -2.90699,0.20247 -5.53534,-0.05272c-1.50285,-0.14591 -2.57807,-0.72188 -3.81707,-0.86221c-1.26603,-0.14339 -2.32466,-0.12332 -2.38953,-0.25569z" fill="#ffc6ef" stroke="none" stroke-width="0"/><path d="M240.32224,102.34848c0,0 -0.36856,-0.4849 0.55899,-0.72259c0.15052,-0.03857 0.45357,-0.05229 0.77003,0.06116c1.88169,0.67457 6.26106,3.64997 6.26106,3.64997c0,0 -0.77238,-1.85948 -1.05805,-2.75694c-0.26982,-0.84767 -0.61115,-2.48699 -0.61115,-2.48699l12.40717,10.94259l0.49203,5.65545c0,0 2.4017,0.18808 3.13889,-0.67048c1.39435,-1.62391 1.62073,-4.78288 2.01217,-4.51753c0.43958,0.29799 3.10405,14.33829 3.10405,14.33829c0,0 2.75244,2.90151 4.5498,3.50573c1.83384,0.61648 8.29244,3.59717 8.29244,3.59717c0,0 -1.96156,0.43263 -2.91544,0.48924c-0.88219,0.05236 -2.54713,0.08867 -2.54713,0.08867c0,0 -2.0599,-0.50079 -3.55781,-0.66143c-0.57221,-0.06136 -1.53036,-0.34371 -2.23021,-0.40707c-1.11392,-0.10084 -4.13008,-0.84804 -4.79154,-1.23167c-0.0654,-0.03793 -6.23548,-6.15553 -6.24475,-6.16437c-0.66128,-0.63059 -1.14399,-5.47087 -2.22053,-8.27614c-1.05708,-2.75463 -1.72259,-5.51699 -2.75823,-6.79899c-0.31664,-0.39196 -0.72002,-1.1673 -0.99556,-1.22177c-0.53461,-0.1057 -1.80175,1.06877 -2.6771,1.84234c-1.02452,0.90537 -1.84816,2.09722 -2.38461,1.82864c-1.34183,-0.80428 -2.76479,-2.63761 -3.9141,-4.30243c-1.65852,-2.40242 -2.68046,-5.78084 -2.68046,-5.78084z" fill="#d396fc" stroke="none" stroke-width="0"/><path d="M244.59339,97.59922c-0.7775,-1.60366 -2.15751,-4.66341 -3.36872,-7.78986c-1.42838,-3.68704 -3.04718,-7.93765 -3.71198,-9.8348c-0.15424,-0.44017 -0.08606,-1.85061 0.37499,-2.1012c1.04337,-0.56707 3.28151,-1.76281 5.00024,-2.60066c0.30051,-0.1465 0.59843,-0.02846 0.84086,-0.13737c0.23559,-0.10584 -0.03613,-0.29483 0.20131,-0.39994c4.5367,-2.00813 10.00785,-4.14944 10.00785,-4.14944c0,0 10.3075,7.55366 10.02058,11.61345c-0.25684,3.63405 -11.64133,11.85897 -11.64133,11.85897c0,0 1.26673,3.06719 1.82614,4.66766c0.53156,1.52084 1.57562,4.69818 1.57562,4.69818c0,0 -0.57857,1.1351 -0.53715,1.67995c0.07426,0.97703 0.57746,2.02134 1.01164,2.75865c0.34967,0.5938 0.35115,0.62873 -0.11711,0.24996c-1.30045,-1.05195 -3.95173,-3.21172 -5.42663,-4.51894c-0.97112,-0.86072 -1.82174,-1.49077 -2.9993,-2.62142c-0.50651,-0.48633 -0.34702,-0.98607 -0.71375,-1.34207c-0.14043,-0.13633 -0.26171,-0.6414 -0.61272,-0.87621c-0.23974,-0.16039 -0.70862,-0.05079 -0.88309,-0.17899c-0.48682,-0.35766 -0.57255,-0.52809 -0.74938,-0.8928z" fill="#4a5c6f" stroke="#000000" stroke-width="2"/><path d="M258.29231,84.79542c-0.06436,-0.13965 -0.73764,-0.18722 -1.58194,-0.39234c-2.50423,-0.60838 -7.52873,-1.54093 -9.59074,-2.02424c-0.81895,-0.19195 -0.62219,0.01276 -0.15136,-0.42664c1.12072,-1.04596 7.11444,-6.19114 7.11444,-6.19114c0,0 -4.50216,-2.46627 -6.10727,-5.27689c-3.46142,-6.06114 -1.87509,-9.18687 -1.55881,-9.96079c0.12589,-0.30804 1.23011,-1.99625 2.73936,-3.39105c1.06297,-0.98238 2.33383,-1.73451 3.5403,-2.54323c2.29544,-1.5387 6.1029,-3.02412 7.48889,-3.62316c0.6727,-0.29076 -0.01183,0.25744 -0.40406,0.97708c-1.14205,2.09544 -3.72786,6.08266 -3.04252,7.2487c0.36176,0.6155 1.4918,1.45165 2.42374,2.41552c0.68169,0.70505 1.70383,1.60879 2.84861,2.32714c0.82999,0.52082 2.09028,0.52748 3.63831,0.44901c6.53995,-0.33151 17.98435,-4.98084 21.48787,-6.97883c0.35008,-0.19963 -0.35897,-4.77369 -0.20815,-4.80863c0.67751,-0.15693 14.02887,9.16234 9.78013,18.78415c-1.60365,3.63169 -4.83218,6.89506 -8.96568,8.84244c-8.04467,3.79002 -18.3395,3.9903 -18.3395,3.9903c0,0 -5.5226,3.69087 -10.14928,6.40529c-2.61569,1.53458 -4.94776,2.72381 -5.79654,3.20668c-0.69133,0.39329 -1.86217,0.80045 -1.61829,0.06694c0,0 0.55122,-0.84214 1.19761,-1.70347c1.32258,-1.76232 3.4893,-4.56651 4.35511,-6.05735c0,0 0.9583,-1.20837 0.89973,-1.33547z" fill="#4a5c6f" stroke="#000000" stroke-width="2"/><path d="M265.74906,75.90248c0,0 -15.09999,-0.86253 -16.04335,-12.08965c-0.22034,-2.62237 -0.01522,-3.02261 0.53166,-4.25115c2.14277,-4.81378 8.37306,-7.31847 8.37306,-7.31847c0,0 -3.25198,5.14965 -3.06397,6.58684c0.14024,1.07202 4.38133,5.59249 5.9404,6.07518c1.69632,0.52517 3.92714,0.35006 6.38641,0.01192c7.66217,-1.05351 17.42243,-5.13577 19.16669,-6.37698c0.26128,-0.18593 0.93982,-0.77952 1.06386,-1.4239c0.23606,-1.22642 -0.40962,-2.89718 -0.40962,-2.89718c0,0 2.72663,2.2677 3.85749,3.45815c1.29341,1.36158 3.72638,4.70675 3.72638,4.70675c0,0 -5.5736,7.61261 -13.82315,9.24559c-3.85852,0.76378 -7.33536,1.0978 -10.12273,0.9236c-2.74249,-0.17139 -4.80415,-1.03285 -6.47637,-1.60463c-2.70595,-0.92523 -4.16774,-1.65181 -4.16774,-1.65181c0,0 0.7499,1.37272 1.35112,2.16759c0.90113,1.19138 3.70989,4.43819 3.70989,4.43819z" fill="#696f96" stroke="none" stroke-width="0"/><path d="M254.23383,76.0845l0.24537,-1.00559c0,0 2.0029,0.08128 3.28518,0.65198c0.93153,0.4146 1.48468,0.97584 1.27783,1.27704c-0.26162,0.38096 -1.4215,-0.03755 -2.51597,-0.35867c-0.45982,-0.13491 -0.94122,-0.45282 -1.33108,-0.54603c-0.56882,-0.13602 -0.96133,-0.01872 -0.96133,-0.01872z" fill="#000000" stroke="none" stroke-width="0"/><path d="M249.62901,77.03219l-0.12349,-1.49491c0,0 1.40506,-0.00572 2.50636,-0.04839c0.68844,-0.02668 1.25317,-0.12851 1.29721,-0.06512c0.4143,0.59631 -2.55088,1.9165 -2.55088,1.9165z" fill="#4a5c6f" stroke="none" stroke-width="0"/><path d="M246.1516,98.48642l-1.35663,-3.17181l9.6048,8.05481c0,0 -0.41486,0.78214 -0.39286,1.21144c0.02671,0.52153 0.54175,1.69526 0.54175,1.69526z" fill="#4a5c6f" stroke="none" stroke-width="0"/><path d="M251.27421,104.73366l-0.27102,-1.07223l1.26841,-0.10478l0.11975,1.4496z" fill="#000000" stroke="none" stroke-width="0"/><path d="M246.83366,105.2627c0,0 -0.27653,-0.35117 -0.72473,-0.71036c-0.50236,-0.40259 -1.27484,-0.82912 -1.71294,-1.17938c-0.4557,-0.36431 -1.22129,-0.92622 -1.83621,-1.43143c-0.71499,-0.58741 -0.93723,-0.76369 -0.93723,-0.76369c0,0 0.39491,0.05793 1.00053,0.31592c0.35126,0.14963 0.72616,0.37047 1.25892,0.6762c1.39945,0.80308 3.10522,1.92836 4.38383,2.97085c1.62551,1.32536 2.61816,2.38528 1.6807,3.39991c-0.4888,0.52904 -0.69644,0.35501 -1.08037,0.1973c-0.38807,-0.15941 -0.67262,-0.50667 -0.98059,-0.93955c-0.24602,-0.34582 -0.53977,-0.74355 -0.67236,-1.16371c-0.24535,-0.77744 -0.37953,-1.37207 -0.37953,-1.37207z" fill="#000000" stroke="none" stroke-width="0"/><path d="M255.89847,104.81647l0.16755,-2.02066c0,0 2.50821,-1.34072 2.9771,-1.14994c0.76992,0.31325 -3.14465,3.17059 -3.14465,3.17059z" fill="#000000" stroke="none" stroke-width="0"/><path d="M251.67638,105.66695c0,0 0.26914,-0.60629 0.74034,-0.38086c0.91187,0.43624 2.40469,1.85946 2.93614,1.90566c0.71854,0.06245 0.92765,-1.12469 0.92765,-1.12469c0,0 3.03971,3.64939 3.19494,4.2198c0.05793,0.2129 0.16097,0.51581 0.1918,0.79571c0.05837,0.53003 -0.1355,0.66563 -0.27734,0.93414c-0.10711,0.20276 -0.15877,0.50314 -0.19546,0.98287c-0.05835,0.76278 0.06527,1.74941 0.09815,2.62195c0.0341,0.90471 0.06601,2.0649 0.06601,2.0649c0,0 -0.36093,-0.96554 -0.48945,-1.9166c-0.06647,-0.49193 -0.19331,-1.03936 -0.28546,-1.66223c-0.18116,-1.22467 -0.37375,-2.56913 -0.7289,-3.15355c-0.20703,-0.34067 -0.60001,-0.50793 -0.94158,-0.83817c-0.69181,-0.66888 -1.60871,-1.24253 -2.30158,-1.70872c-0.69204,-0.46565 -2.93531,-2.74019 -2.93531,-2.74019z" fill="#000000" stroke="none" stroke-width="0"/><path d="M272.17457,107.25322c-0.6914,-0.20733 -1.682,-0.5657 -2.53707,-1.10862c-0.93344,-0.59269 -2.22767,-0.99831 -3.58973,-1.45953c-1.23795,-0.4192 -2.5428,-0.87345 -3.47575,-1.7638c-1.24704,-1.1901 -2.22941,-2.792 -2.70881,-4.40566c-0.52453,-1.76559 -0.46883,-3.54525 -0.03406,-4.81501c0.64742,-1.89079 2.84228,-3.00636 3.60169,-3.00636c1.87378,0 4.53458,2.24809 7.23048,4.61899c1.15664,1.0172 1.89529,2.16398 3.40003,2.82839c0.64775,0.28601 5.20495,-0.09719 5.78433,0.08422c0.35144,0.11004 3.30039,-2.6633 3.59235,-2.57169c1.0471,0.32854 1.80099,0.46855 1.80099,0.46855c0,0 2.70243,-2.17679 4.76704,-4.52124c0.87271,-0.991 1.52878,-2.62794 1.98484,-3.14581c0.7943,-0.90197 1.808,-2.05307 1.808,-2.05307c0,0 0.92008,3.19222 0.0624,6.40674c-0.10891,0.4082 -0.86141,0.69378 -1.01047,1.10075c-1.44725,3.9515 -2.26835,9.08594 -3.28727,10.6445c-1.12754,1.72469 -4.04412,-0.47977 -4.04412,-0.47977c0,0 0.14014,0.71221 0.28503,1.26616c0.24188,0.92473 1.031,3.76518 1.031,3.76518c0,0 -1.00705,-1.19834 -1.72006,-2.70876c-0.5928,-1.25577 -0.97141,-2.85871 -1.0392,-2.93254c-0.49246,-0.5364 -0.51544,-4.41903 -0.79462,-5.83619c-0.06781,-0.34421 -1.01435,0.33089 -1.01435,0.33089c0,0 -0.25108,3.74685 -2.0467,5.57351c-0.41298,0.42012 -1.29451,0.94815 -2.2802,1.47393c-0.05247,0.02799 -0.8547,0.30508 -0.90658,0.33117c-1.31802,0.66283 -2.19878,1.4217 -3.12238,1.79612c-0.53087,0.21521 -1.21929,0.27413 -1.73678,0.11896z" fill="#000000" stroke="none" stroke-width="0"/><path d="M269.24145,85.18565l-0.10677,-1.94444l1.41891,-0.07791l0.10677,1.94444z" fill="#000000" stroke="none" stroke-width="0"/><path d="M269.8011,129.79469c0,0.20083 -0.1628,0.36364 -0.36363,0.36364c-0.20083,0 -0.36364,-0.16281 -0.36364,-0.36364c0,-0.20083 0.16281,-0.36363 0.36364,-0.36363c0.20083,0 0.36363,0.1628 0.36363,0.36363z" fill="#000000" stroke="none" stroke-width="0"/><path d="M272.25564,130.74924c0,0.27614 -0.28491,0.5 -0.63637,0.5c-0.35145,0 -0.63636,-0.22386 -0.63636,-0.5c0,-0.27614 0.2849,-0.5 0.63636,-0.5c0.35145,0 0.63637,0.22386 0.63637,0.5z" fill="#000000" stroke="none" stroke-width="0"/><path d="M274.43746,130.38561c0,0.17572 -0.22386,0.31818 -0.5,0.31818c-0.27614,0 -0.5,-0.14246 -0.5,-0.31818c0,-0.17572 0.22386,-0.31818 0.5,-0.31818c0.27614,0 0.5,0.14246 0.5,0.31818z" fill="#000000" stroke="none" stroke-width="0"/><path d="M276.07381,130.34015c0,0.10041 -0.14245,0.18182 -0.31818,0.18182c-0.17572,0 -0.31818,-0.08141 -0.31818,-0.18182c0,-0.10041 0.14245,-0.18182 0.31818,-0.18182c0.17572,0 0.31818,0.0814 0.31818,0.18182z" fill="#000000" stroke="none" stroke-width="0"/><path d="M274.61928,132.02197c0,0.17572 -0.30525,0.31818 -0.68181,0.31818c-0.37656,0 -0.68182,-0.14245 -0.68182,-0.31818c0,-0.17572 0.30526,-0.31818 0.68182,-0.31818c0.37656,0 0.68181,0.14246 0.68181,0.31818z" fill="#000000" stroke="none" stroke-width="0"/><path d="M276.34655,132.61288c0,0.10041 -0.12211,0.18182 -0.27273,0.18182c-0.15062,0 -0.27272,-0.0814 -0.27272,-0.18182c0,-0.10041 0.1221,-0.18182 0.27272,-0.18182c0.15062,0 0.27273,0.0814 0.27273,0.18182z" fill="#000000" stroke="none" stroke-width="0"/><path d="M280.89201,131.79469c0,0.25104 -0.26456,0.45454 -0.59091,0.45454c-0.32635,0 -0.59091,-0.20351 -0.59091,-0.45454c0,-0.25104 0.26456,-0.45454 0.59091,-0.45454c0.32635,0 0.59091,0.20351 0.59091,0.45454z" fill="#000000" stroke="none" stroke-width="0"/><path d="M284.25564,131.88561c0,0.15062 -0.14245,0.27273 -0.31818,0.27273c-0.17572,0 -0.31819,-0.12211 -0.31819,-0.27273c0,-0.15062 0.14246,-0.27273 0.31819,-0.27273c0.17572,0 0.31818,0.1221 0.31818,0.27273z" fill="#000000" stroke="none" stroke-width="0"/><path d="M284.25564,129.61288c0,0.10041 -0.1221,0.18182 -0.27272,0.18182c-0.15062,0 -0.27273,-0.0814 -0.27273,-0.18182c0,-0.10041 0.12211,-0.18182 0.27273,-0.18182c0.15062,0 0.27272,0.0814 0.27272,0.18182z" fill="#000000" stroke="none" stroke-width="0"/><path d="M286.8011,130.84015c0,0.22593 -0.24421,0.40909 -0.54546,0.40909c-0.30124,0 -0.54546,-0.18315 -0.54546,-0.40909c0,-0.22593 0.24421,-0.40909 0.54546,-0.40909c0.30124,0 0.54546,0.18315 0.54546,0.40909z" fill="#000000" stroke="none" stroke-width="0"/><path d="M289.25564,129.38561c0,0.22593 -0.22386,0.40909 -0.5,0.40909c-0.27614,0 -0.5,-0.18315 -0.5,-0.40909c0,-0.22593 0.22386,-0.40909 0.5,-0.40909c0.27614,0 0.5,0.18315 0.5,0.40909z" fill="#000000" stroke="none" stroke-width="0"/><path d="M291.52836,129.20379c0,0.22593 -0.18316,0.40909 -0.4091,0.40909c-0.22593,0 -0.40909,-0.18316 -0.40909,-0.40909c0,-0.22593 0.18315,-0.40909 0.40909,-0.40909c0.22593,0 0.4091,0.18316 0.4091,0.40909z" fill="#000000" stroke="none" stroke-width="0"/><path d="M293.34655,127.24924c0,0.30124 -0.30526,0.54546 -0.68182,0.54546c-0.37656,0 -0.68181,-0.24421 -0.68181,-0.54546c0,-0.30124 0.30525,-0.54546 0.68181,-0.54546c0.37656,0 0.68182,0.24421 0.68182,0.54546z" fill="#000000" stroke="none" stroke-width="0"/><path d="M294.16472,127.34015c0.15062,0 0.27273,0.22386 0.27273,0.5c0,0.27614 -0.12211,0.5 -0.27273,0.5c-0.15062,0 -0.27272,-0.22386 -0.27272,-0.5c0,-0.27614 0.1221,-0.5 0.27272,-0.5z" fill="#000000" stroke="none" stroke-width="0"/><path d="M290.71019,126.7947c0,0.20083 -0.24421,0.36364 -0.54546,0.36364c-0.30124,0 -0.54546,-0.16281 -0.54546,-0.36364c0,-0.20083 0.24421,-0.36364 0.54546,-0.36364c0.30124,0 0.54546,0.16281 0.54546,0.36364z" fill="#000000" stroke="none" stroke-width="0"/><path d="M292.07381,125.38561c0,0.17572 -0.18315,0.31818 -0.40909,0.31818c-0.22593,0 -0.40909,-0.14245 -0.40909,-0.31818c0,-0.17572 0.18315,-0.31818 0.40909,-0.31818c0.22593,0 0.40909,0.14245 0.40909,0.31818z" fill="#000000" stroke="none" stroke-width="0"/><path d="M292.8011,124.24924c0,0.15063 -0.1221,0.27273 -0.27272,0.27273c-0.15062,0 -0.27273,-0.1221 -0.27273,-0.27273c0,-0.15063 0.12211,-0.27272 0.27273,-0.27272c0.15062,0 0.27272,0.1221 0.27272,0.27272z" fill="#000000" stroke="none" stroke-width="0"/><path d="M291.61928,122.88561c0,0.20083 -0.1628,0.36364 -0.36363,0.36364c-0.20083,0 -0.36363,-0.16281 -0.36363,-0.36364c0,-0.20083 0.1628,-0.36364 0.36363,-0.36364c0.20083,0 0.36363,0.16281 0.36363,0.36364z" fill="#000000" stroke="none" stroke-width="0"/><path d="M264.52836,114.70379c0,0 -1.66642,1.30849 -1.84676,3.71834c-0.11539,1.5418 1.29038,4.17879 1.1425,5.10353c-0.08658,0.54143 -0.43446,0.69752 -0.48844,0.71068c-0.1001,0.0244 -0.41533,-0.32455 -0.56795,-1.22362c-0.12484,-0.73543 -0.23624,-1.73732 -0.49564,-2.82175c-0.20619,-0.86202 -0.49424,-1.74991 -0.6003,-2.78589c-0.03604,-0.35201 1.94949,-3.89132 1.9175,-4.25214c-0.0253,-0.28534 0.07307,-0.85907 0.0874,-1.45215c0.01237,-0.51189 -0.06105,-1.015 -0.05507,-1.63508c0.00997,-1.03468 -0.15846,-2.25169 0.48062,-2.59312c0.89693,-0.47919 1.0343,0.42029 2.5611,1.14775c0.43824,0.2088 1.57488,0.40343 2.15792,0.54722c0.32251,0.07954 2.91917,-0.21966 4.48728,-0.55216c0.68588,-0.14544 1.35681,-0.42689 1.37279,-0.40618c0.75788,0.98231 -5.78997,2.67746 -5.78997,2.67746c0,0 1.23387,1.18018 2.25749,1.42817c1.19479,0.28946 4.63131,0.00064 8.07745,-0.52922c3.65656,-0.56221 7.32395,-1.37293 8.33573,-1.23123c0.29296,0.04103 0.54797,-0.42072 0.89978,-0.89951c0.59872,-0.81481 1.30544,-1.85135 1.70644,-1.79364c0.37727,0.0543 -1.08762,-2.61335 -0.76146,-2.54853c1.57643,0.3133 2.60296,2.00968 2.53768,2.29126c-0.24694,1.06521 -0.87342,2.21824 -1.0151,2.56944c-0.17588,0.43599 -0.50151,-0.80033 -0.50151,-0.80033c0,0 -1.21302,1.73993 -1.41574,2.10433c-0.49703,0.89342 -1.17635,0.17659 -1.63062,1.29455c-0.11642,0.28651 0.04695,0.96058 -0.05611,1.28882c-0.73706,2.3475 -1.42453,5.24204 -1.79281,7.17192c-0.38997,2.04359 0.85404,3.68519 1.68307,4.89063c0.41168,0.59858 0.78952,1.02112 0.67856,1.46751c-0.1447,0.58212 -0.60825,0.91403 -0.64874,0.91799c-0.64321,0.06288 -1.00546,-0.05394 -1.82274,0.0118c-1.59747,0.12851 -6.43391,1.91124 -8.0337,1.60071c-0.52324,-0.10156 -1.87775,-1.07104 -3.36976,-2.11965c-0.55165,-0.38771 -1.01936,-0.85348 -1.58414,-1.24413c-0.52835,-0.36546 -1.153,-0.65384 -1.69147,-1.07043c-2.04523,-1.58228 -3.81475,-3.12745 -4.41116,-3.408c-0.57262,-0.26936 -0.14592,-1.8033 -0.41154,-2.58322c-0.76841,-2.25624 -1.39259,-4.99211 -1.39259,-4.99211z" fill="#000000" stroke="none" stroke-width="0"/><path d="M267.83435,115.36676c-0.50325,-1.09037 -1.3969,-3.9357 -1.3969,-3.9357c0,0 2.84709,2.67935 4.73635,2.70982c1.90721,0.03076 5.95869,-0.52814 8.8797,-1.24692c1.8446,-0.4539 2.74759,-0.73563 2.74759,-0.73563c0,0 -0.42566,1.76784 -0.54715,2.64867c-0.12093,0.87673 -0.18012,2.62406 -0.18012,2.62406c0,0 -5.33446,0.97588 -7.27502,0.96221c-1.52827,-0.01076 -4.63503,-0.61765 -5.60178,-0.92758c-0.36267,-0.11627 -1.25524,-1.86619 -1.36266,-2.09893z" fill="#ffffff" stroke="none" stroke-width="0"/><path d="M265.92447,112.24924l-0.5,-3.05195c0,0 1.94792,1.55145 2.93707,2.3114c0.96251,0.73949 2.92008,2.11717 2.92008,2.11717c0,0 0.28981,-0.675 -0.61887,0.65151c-0.62867,0.91774 -0.73827,2.40044 -0.73827,2.40044c0,0 -1.49764,-3.29103 -2.1536,-4.01988c-0.62858,-0.69843 -1.8464,-0.4087 -1.8464,-0.4087z" fill="#f44254" stroke="#000000" stroke-width="0.5"/><path d="M273.03161,116.68755l-1.71429,-2.92857h3.14286c0,0 -0.65662,1.00281 -0.91648,1.54615c-0.26389,0.55177 -0.51209,1.38242 -0.51209,1.38242z" fill="#f44254" stroke="#000000" stroke-width="0.5"/><path d="M272.67447,125.0447c0,0 2.48419,0.41914 3.68755,0.31961c0.64551,-0.05339 1.44203,0.19173 2.37114,-0.01871c1.59289,-0.36079 3.1556,-1.08661 3.1556,-1.08661c0,0 0.22729,1.29039 0.26516,1.99727c0.03284,0.61303 0.09198,1.85987 0.09198,1.85987c0,0 -0.9802,0.11823 -1.98419,0.41131c-0.81195,0.23702 -1.59004,0.63783 -2.2652,0.79553c-0.54647,0.12764 -1.51006,-1.48438 -2.27865,-2.08717c-0.83478,-0.65471 -1.51312,-0.58277 -2.1222,-1.05877c-0.59884,-0.468 -0.92119,-1.13233 -0.92119,-1.13233z" fill="#ffffff" stroke="none" stroke-width="0"/><path d="M283.086,96.00674c0,0 0.28944,-0.34102 0.26286,-0.73396c-0.01118,-0.16534 -3.21967,-3.4265 -3.24833,-3.76194c-0.02798,-0.32751 2.97697,-2.62547 3.00779,-3.00734c0.03668,-0.45449 -0.14555,-1.14536 -0.16305,-1.5664c-0.09872,-2.37423 -0.73427,-3.86786 -0.73427,-3.86786l0.49953,-0.00782c0,0 1.67485,4.7039 1.8637,5.56521c0.14299,0.65216 -0.61645,1.58924 -0.61645,1.58924c0,0 1.29678,-0.44131 1.32456,-1.5198c0.03519,-1.36618 -1.25535,-5.7702 -1.25535,-5.7702l0.55902,-0.04413c0,0 0.93317,1.0441 1.52726,3.60417c0.12522,0.53959 0.71406,2.13476 0.48356,3.24717c-0.09688,0.46752 -0.80162,1.00415 -1.00096,1.09285c-0.50493,0.22467 -1.06241,0.34739 -1.47199,0.63583c-0.38128,0.26851 -0.58183,0.94022 -0.5729,1.09891c0.05733,1.0191 1.72593,2.31789 1.74372,2.69508c0.02176,0.46127 -0.20868,0.876 -0.20868,0.876z" fill="#000000" stroke="none" stroke-width="0"/><path d="M276.086,85.94424c0,-0.20667 1.32129,-0.24441 3.05061,-0.48364c0.62694,-0.08673 2.63717,-1.19893 2.89921,-1.29537c0.41311,-0.15202 0.82052,-0.62588 1.21186,-0.79744c0.33131,-0.14525 0.6511,-0.66847 0.95305,-0.81926c1.57454,-0.78631 2.38527,-2.47929 2.38527,-2.47929l2.3125,0.0625c0,0 -0.6894,0.52003 -1.40485,1.1538c-0.99956,0.88543 -2.16895,1.99287 -2.63097,2.21435c-0.56061,0.26874 -1.06416,0.58901 -1.72048,0.83004c-1.31753,0.48386 -2.57047,1.52527 -3.79986,1.82755c-1.70649,0.41959 -3.25633,-0.06821 -3.25633,-0.21324z" fill="#000000" stroke="none" stroke-width="0"/><path d="M271.6485,87.94424c0,0 0.26058,-0.29519 1.44788,-0.33814c2.59693,-0.09395 7.17281,0.89878 10.92159,-1.52105c2.68154,-1.73093 6.63053,-5.82831 6.63053,-5.82831l-0.25,2.0625c0,0 -6.35393,5.24368 -8.51376,5.89163c-3.45714,1.03714 -10.23624,-0.26663 -10.23624,-0.26663z" fill="#000000" stroke="none" stroke-width="0"/><g fill="#ff0000" stroke="none" stroke-width="0"><path d="M268.48441,104.31265c0,0 1.92632,-0.88899 2.68615,-1.12577c0.71341,-0.22231 2.09731,-0.37474 2.09731,-0.37474c0,0 0.10426,-0.794 0.21418,-1.76378c0.09761,-0.86123 0.31272,-1.59679 0.35018,-2.30228c0.05954,-1.12186 -0.22443,-3.58502 -0.2072,-5.0661c0.01332,-1.14642 0.30414,-1.85795 0.30414,-1.85795c0,0 -0.17755,1.21095 -0.04554,2.64984c0.14594,1.59085 0.44359,3.66151 0.60543,4.59672c0.16575,0.9578 0.88025,2.7155 0.88025,2.7155l5.54395,-0.50493c0,0 -0.71918,0.68823 -2.02868,1.07718c-1.41838,0.42129 -3.44438,0.56345 -3.68705,1.05899c-0.06732,0.13745 -0.22295,0.23653 -0.2252,1.00017c-0.00789,2.66626 0.42136,8.44829 0.42136,8.44829c0,0 -0.62944,-4.66051 -1.07519,-7.14085c-0.09482,-0.52759 -0.26067,-0.8629 -0.32192,-1.13813c-0.15358,-0.69017 -0.48294,-1.11321 -0.48294,-1.11321c0,0 -0.87126,-0.08771 -1.35891,-0.03098c-0.82717,0.09622 -3.67026,0.87205 -3.67026,0.87205z"/><path d="M282.2635,101.47218c0,0 1.44226,-0.49164 2.86214,-1.20871c0.56567,-0.28567 1.13985,-0.56176 1.66029,-0.90172c0.7206,-0.4707 1.44797,-0.50133 1.6826,-1.03824c0.17879,-0.40912 0.17219,-1.85645 0.12005,-3.34309c-0.1088,-3.10188 -0.51956,-7.17702 -0.51956,-7.17702c0,0 0.1841,0.45619 0.32187,1.29292c0.31421,1.90832 0.35653,5.0425 0.57536,6.32958c0.18416,1.08316 0.95255,2.86727 0.95255,2.86727c0,0 0.34391,0.1136 0.92775,-0.13636c1.01491,-0.43452 2.60787,-1.29114 3.28605,-1.3451c2.50118,-0.19902 3.51149,0.01183 3.51149,0.01183c0,0 -1.29178,0.00417 -2.71697,0.40108c-0.89963,0.25054 -1.88586,0.73677 -2.74519,1.22493c-0.15375,0.08734 -0.37238,0.01499 -0.51644,0.10529c-0.22402,0.14043 -0.36569,0.44512 -0.55839,0.58836c-0.44382,0.3299 -0.79185,0.66023 -0.98552,0.95862c-0.04078,0.06282 -0.18184,0.25536 -0.21118,0.68897c-0.08839,1.30575 -0.03427,4.05978 -0.15675,6.12537c-0.09738,1.64238 -0.37178,2.85378 -0.37178,2.85378c0,0 -0.25466,-4.12725 -0.65384,-6.68327c-0.17358,-1.1115 -0.11037,-2.14293 -0.40597,-2.45756c-0.14829,-0.15784 -1.04206,-0.14763 -2.32431,0.05302c-1.63828,0.25635 -3.73427,0.79012 -3.73427,0.79012z"/><path d="M275.46771,102.6133c0.04294,0.51983 -0.34365,0.97604 -0.86348,1.01899c-0.51983,0.04294 -0.97604,-0.34365 -1.01899,-0.86348c-0.04294,-0.51983 0.34365,-0.97604 0.86348,-1.01899c0.51983,-0.04294 0.97604,0.34365 1.01899,0.86348z"/><path d="M290.20592,99.50052c0.03789,0.45868 -0.29084,0.86019 -0.73422,0.89681c-0.44339,0.03663 -0.83354,-0.30552 -0.87143,-0.76418c-0.03789,-0.45868 0.29084,-0.86019 0.73422,-0.89681c0.44339,-0.03663 0.83354,0.30552 0.87143,0.76418z"/></g><path d="M255.5506,97.25603c0,0 0.18164,-0.4694 0.53629,-1.00327c0.23098,-0.3477 0.56733,-0.72275 0.86486,-1.01328c0.34996,-0.34172 1.10233,-0.45464 1.72021,-0.97945c0.82108,-0.69741 1.60086,-1.61511 1.60086,-1.61511l0.66667,0.55556c0,0 0.41429,5.58103 0.29083,6.90754c-0.00796,0.08549 -1.50061,0.11719 -2.56336,0.31508c-1.39967,0.26063 -2.46172,0.6871 -2.46172,0.6871c0,0 0.20882,-0.33913 0.56896,-0.63297c0.26034,-0.21241 0.62627,-0.37463 0.92299,-0.49451c0.71969,-0.29078 2.7893,-0.49117 2.7893,-0.49117c0,0 0.08453,-1.62724 0.08121,-1.62227c-0.00912,0.01368 -0.27418,-0.22062 -0.63229,-0.19184c-0.29107,0.02339 -0.36585,0.24044 -0.69242,0.35358c-0.54353,0.18831 -2.26159,0.44518 -2.26159,0.44518c0,0 0.26384,-0.36612 0.81775,-0.63454c0.57923,-0.28069 1.44967,-0.46493 1.45053,-0.49867c0.01264,-0.50062 0.00405,-2.28257 0.2467,-2.94179c0.20307,-0.55168 0.66534,-0.03406 0.66534,-0.03406c0,0 -1.14115,0.24305 -1.87112,0.70038c-0.40727,0.25516 -1.05376,0.87268 -1.64523,1.36324c-0.57115,0.4737 -1.09476,0.82527 -1.09476,0.82527z" fill="#000000" stroke="none" stroke-width="0"/></g><path d="M281.88937,187.60441l-2.83333,-14.33333l25.33333,-0.66667l13.83333,10.33334c0,0 -0.68482,1.39647 -2.47577,3.76641c-1.85568,2.45559 -4.86208,5.93176 -7.37548,8.54971c-2.61748,2.72635 -6.44113,5.24302 -6.9145,5.03216c-6.5669,-2.92525 -19.56759,-12.68162 -19.56759,-12.68162z" fill="#1b1f25" stroke="#000000" stroke-width="1.5" stroke-linecap="butt"/><g stroke-linecap="butt"><path d="M271.20617,173.16666c0,0 2.02551,-1.701 3.88493,-4.0479c1.42921,-1.8039 2.52158,-4.07465 3.97837,-5.72723c0.33732,-0.38266 -0.20502,-2.11758 -0.27452,-3.04582c-0.02108,-0.2815 0.42009,-0.76426 0.64393,-0.88528c0.71158,-0.38471 1.75817,-0.30544 3.03763,-0.7985c0.18969,-0.0731 0.49103,-0.75369 0.71708,-0.84887c0.35727,-0.15044 0.73464,-0.29569 1.05204,-0.33223c0.89963,-0.10355 1.04097,0.13519 1.94645,0.17983c2.10283,0.10368 4.29153,0.19642 5.59399,0.29937c0.62164,0.04914 1.18295,0.60623 1.16269,1.20636c-0.02173,0.64364 0.31225,1.26791 0.75365,2.12718c0.76463,1.48852 2.32275,3.08155 3.11199,2.82208c1.2468,-0.40991 -0.26529,8.06548 -0.26529,8.06548c0,0 -5.6325,-0.27126 -6.04621,0.45269c-1.11652,1.9538 -1.1745,4.49695 -1.69396,6.18937c-0.52969,1.72578 -2.13935,3.1302 -2.61525,3.83503c-0.93876,1.39031 -3.98753,1.63343 -3.98753,1.63343z" fill="#d396fc" stroke="#000000" stroke-width="1.5"/><path d="M282.67345,161.26524l-1.75,-1.25c0,0 1.98314,-1.50701 2.49201,-1.68902c0.30498,-0.10909 0.61617,-0.36004 0.92466,-0.39431c0.29896,-0.03322 0.47465,0.16134 0.67627,0.21095c0.32707,0.08047 0.72238,0.21807 1.82279,0.24463c0.82524,0.01992 4.71568,-0.11395 4.94329,0.00859c0.49326,0.26555 0.69869,1.31289 0.91397,1.9201c0.35126,0.99077 0.25685,1.64096 0.78584,1.98658c0.73336,0.47916 1.60785,1.12915 1.60785,1.12915c0,0 0.32851,-0.7541 0.28593,1.41737c-0.04067,2.07406 -0.53593,5.7493 -0.53593,5.7493c0,0 -3.80007,-2.58948 -4.5011,-2.60132c-0.93521,-0.01579 -3.51455,1.7951 -3.51455,1.7951c0,0 -0.95196,-0.3969 -1.00389,-1.20326c-0.0805,-1.24975 0.71568,-3.13255 0.62459,-3.33369c-0.52612,-1.16172 6.514,-0.0582 5.42107,-1.41187c-0.3841,-0.47574 -0.48167,-1.34035 -0.96412,-1.73703c-0.14288,-0.11748 -0.99984,0.58571 -2.01402,1.08365c-0.72485,0.35589 -1.69308,0.56617 -1.79132,0.48381c-0.3326,-0.27882 -0.57152,-1.21284 -0.87823,-1.46383c-0.54321,-0.44452 -0.87515,-0.43137 -1.30166,-0.76996c-0.50202,-0.39855 -0.90415,-0.70715 -1.16154,-0.88681c-0.62379,-0.4354 -1.08188,0.71186 -1.08188,0.71186z" fill="#ffc6ef" stroke="none" stroke-width="0"/><path d="M279.92345,165.34858c0,0 -0.31477,-1.88197 0.1349,-2.60314c0.32838,-0.52664 1.00496,-0.30045 1.78937,-1.13051c1.13713,-1.20331 2.40907,-3.76635 2.40907,-3.76635l1.83333,0.08333c0,0 -0.54213,0.82696 -1.18223,1.845c-0.38252,0.60838 -0.74645,1.33858 -1.19925,1.85265c-0.87348,0.99171 -1.68419,1.00996 -2.17365,1.5767c-0.72961,0.84481 -1.61154,2.14231 -1.61154,2.14231z" fill="#000000" stroke="none" stroke-width="0"/><path d="M281.29637,167.76095c-0.03391,-0.31243 -0.09256,-1.06411 0.27988,-1.90865c0.50461,-1.14425 2.09165,-2.4453 3.15127,-3.78954c0.72393,-0.91838 0.91084,-1.86246 1.87928,-2.52305c0.92969,-0.63416 1.93489,-0.47532 3.14069,-0.56542c1.52785,-0.11416 3.17595,-0.37571 3.17595,-0.37571l0.41667,2.16667c0,0 -4.97796,-0.02559 -5.82152,0.59928c-0.58515,0.43344 -1.0681,1.23818 -1.80433,2.26337c-0.31692,0.44131 -2.7267,1.661 -3.04778,2.13262c-0.12502,0.18363 -0.39094,0.9918 -0.39648,1.67152c-0.00443,0.54263 0.24776,0.94294 0.20634,1.32075c-0.01752,0.15978 -0.31699,0.20954 -0.61018,-0.02069c-0.27249,-0.21398 -0.53955,-0.69251 -0.56979,-0.97113z" fill="#000000" stroke="none" stroke-width="0"/><path d="M284.09011,169.43191c0,0 0.70039,-0.78778 1.17938,-1.82135c0.13174,-0.28428 0.18231,-0.58084 0.3096,-0.87495c0.33871,-0.78261 0.61459,-1.54783 0.81784,-2.01786c0.10835,-0.25057 0.79721,-0.58883 1.35957,-0.6236c1.87306,-0.11582 5.43675,-0.03068 5.81516,-0.00202c0.58633,0.04442 1.51845,1.50645 1.51845,1.50645l-0.5,1.33333c0,0 -0.70042,-1.59074 -1.22993,-1.43274c-0.43743,0.13052 -5.5148,-0.07703 -6.05782,0.18903c-0.27225,0.13339 -0.7596,3.01882 -1.51921,3.37079c-1.00431,0.46536 -1.69304,0.37292 -1.69304,0.37292z" fill="#000000" stroke="none" stroke-width="0"/></g><g><g><g stroke-linecap="butt"><path d="M289.70708,180.09783c0.99762,-4.63492 3.53075,-6.65677 4.10194,-9.49618c0.49969,-2.48404 1.18637,-6.56725 1.80932,-10.43143c0.13588,-0.84289 -4.3027,-4.96109 -4.17549,-5.76427c0.21733,-1.37211 3.34907,-3.01198 4.19211,-3.63631c1.70026,-1.25916 1.54088,-0.57867 1.54088,-0.57867l19.06114,8.01373c0,0 0.30654,1.73879 0.21969,4.98829c-0.07718,2.88747 -0.56177,7.2167 -0.37942,8.80164c0.1178,1.02388 2.40502,2.31385 2.50366,3.33233c0.09436,0.97421 -1.89073,0.96347 -1.77335,1.9239c0.64577,5.28385 3.34343,11.13312 3.06321,11.70421c-0.4123,0.84029 -1.36212,1.49905 -2.37577,2.37252c-3.41197,2.94016 -9.25621,6.24128 -13.22794,7.74715c-1.62012,0.61427 -3.07101,0.83264 -3.69155,0.88255c-4.11088,0.33068 -10.08585,-13.43506 -10.81115,-18.30876c-0.07063,-0.47455 -0.10385,-1.33436 -0.05728,-1.55071z" fill="#1b1f25" stroke="#000000" stroke-width="1.5"/><path d="M307.68921,187.95735c0,0 1.03909,-2.58017 1.16829,-4.2208c0.24737,-3.14096 0.20817,-13.25704 0.20817,-13.25704c0,0 2.60367,-2.65304 3.70672,-4.10551c1.06879,-1.40736 3.03415,-4.48583 3.03415,-4.48583c0,0 -0.47991,8.74028 -0.72721,9.52208c-0.31052,0.98162 2.76521,2.93466 2.52503,4.07026c-0.11694,0.55287 -1.56871,0.39675 -1.63153,0.99484c-0.13046,1.24193 0.5372,2.52693 1.03456,4.3204c0.94056,3.39168 2.09136,7.42817 1.84026,8.18381c-0.0715,0.21515 -1.30286,1.52723 -2.96526,2.72229c-2.26825,1.6306 -5.14108,3.22822 -5.14108,3.22822c0,0 2.41361,-4.45409 2.99125,-5.72105c0.29714,-0.65173 0.56772,-1.36565 0.56772,-1.36565z" fill="#2b263c" stroke="none" stroke-width="0"/><path d="M317.90989,188.55424c0,0 -0.70955,-1.88441 -1.6777,-4.35862c-0.13392,-0.34225 -0.47828,-0.91147 -0.84854,-1.2237c-0.61498,-0.51858 -1.31467,-0.71882 -1.33797,-0.86264c-0.22767,-1.40503 -0.02216,-4.69418 0.20204,-6.86513c0.30613,-2.96436 1.57593,-15.30214 1.57593,-15.30214c0,0 0.79402,6.44832 0.97254,6.69691c0.29221,0.40691 -0.2551,5.8822 -0.2551,5.8822c0,0 -0.08693,1.74315 -0.14511,3.51604c-0.00254,0.07769 0.45785,-0.38431 1.0299,-0.90917c0.33246,-0.30503 -2.19899,-1.40202 -1.37528,-1.84772c0.6058,-0.3278 2.77513,1.48682 2.7741,1.51827c-0.01229,0.37444 -2.45211,2.85639 -2.46136,3.13807c-0.04609,1.40449 -0.3019,3.67653 -0.3019,3.67653c0,0 1.12782,1.2817 1.26272,1.82349c0.291,1.16879 0.58574,5.11762 0.58574,5.11762z" fill="#000000" stroke="none" stroke-width="0"/></g><path d="M296.26648,160.48082c0,0 3.02776,1.82115 3.38481,2.47015c0.27508,0.50002 -1.42357,1.09483 -1.42357,1.09483" fill="none" stroke="#000000" stroke-width="1.5" stroke-linecap="round"/><path d="M314.32856,153.13109c-0.29209,2.69965 -3.83018,4.53096 -7.90252,4.09034c-4.07234,-0.44062 -7.81756,-2.8923 -7.52547,-5.59195c0.29209,-2.69965 4.51089,-4.62495 8.58324,-4.18434c4.07234,0.44062 7.13685,2.9863 6.84476,5.68594z" fill="#565b84" stroke="#000000" stroke-width="1.5" stroke-linecap="butt"/></g><path d="M317.3712,152.8453c0,4.38376 -5.03679,7.8125 -11.25,7.8125c-6.21321,0 -11,-4.17874 -11,-8.5625c0,-4.38376 1.91179,-8.3125 8.125,-8.3125c6.21321,0 14.125,4.67874 14.125,9.0625z" fill="#afcad3" stroke="#000000" stroke-width="1.5" stroke-linecap="butt"/><path d="M317.9962,159.5328c-0.76648,0 -4.35743,-0.24255 -4.8082,-0.68841c-0.88547,-0.87583 -7.80208,-12.43659 -5.3168,-12.43659c1.60161,0 7.78373,-0.35831 11.97752,1.54942c0.78719,0.35808 1.362,1.06225 1.35008,2.82526c-0.01051,1.5553 -0.2098,4.00613 -0.71457,5.67089c-0.60495,1.99517 -1.59412,3.07943 -2.48803,3.07943z" fill="#afcad3" stroke="#000000" stroke-width="1.5" stroke-linecap="butt"/></g><g stroke-linecap="butt"><path d="M205.2633,155.33099c-0.10577,-0.94565 10.87552,-8.11105 14.96009,-10.63446c2.90882,-1.79704 7.68233,-4.65027 11.77865,-6.75927c3.55725,-1.83145 6.63153,-2.85384 7.44005,-2.94428c8.76136,-0.98 13.76455,22.22576 13.76455,22.22576l12.87149,30.71898c0,0 -6.6615,5.49487 -15.34183,9.92012c-3.71071,1.89173 -11.40108,10.76534 -13.53248,9.75828c-2.16551,-1.02317 -7.77936,-7.30122 -11.81496,-13.48898c-3.46925,-5.31936 -7.03736,-12.33592 -9.75905,-18.68647c-1.43776,-3.35474 -2.19307,-6.42835 -3.54704,-9.17574c-1.67987,-3.40867 -2.87738,-4.20525 -4.20477,-6.01917c-1.15333,-1.57607 -2.55129,-4.34797 -2.61469,-4.91478z" fill="#1b1f25" stroke="#000000" stroke-width="1.5"/><path d="M233.61525,176.52929c0,0 -1.78523,-2.02988 -2.72076,-4.8549c-0.93701,-2.82951 -1.79349,-6.53119 -2.98791,-9.96344c-1.44576,-4.15452 -3.29415,-7.92463 -5.18402,-9.40923c-3.73984,-2.93788 -16.48695,2.71913 -16.48695,2.71913c0,0 14.46941,-10.07607 20.81601,-13.63971c4.51006,-2.53242 14.02626,-6.16829 14.02626,-6.16829l16.21199,44.10619c0,0 -8.7095,-3.2743 -15.14131,-3.96695c-4.07754,-0.43911 -8.53333,1.17723 -8.53333,1.17723z" fill="#2b263c" stroke="none" stroke-width="0"/></g><g stroke-linecap="butt"><path d="M247.17247,187.74614c0,0 0.00906,0.67329 1.0234,-6.40856c0.15118,-1.05556 -0.08322,-3.91003 -1.62821,-6.42514c-1.08516,-1.76657 -2.86727,-3.35409 -3.66319,-4.48512c-0.1406,-0.1998 -4.90534,-2.76681 -4.97511,-2.93658c-0.06269,-0.15257 3.66658,2.25912 4.84593,2.73203c0.28232,0.11321 -0.26894,-0.82846 -0.26229,-0.85702c0.48884,-2.09713 2.53472,-6.68687 3.86231,-9.75026c0.59859,-1.38123 1.22217,-2.30671 1.19354,-2.80667c-0.0685,-1.19666 -11.75111,-5.70889 -11.75314,-6.64015c-0.0148,-6.8281 3.65705,-16.56378 4.36463,-16.82678c0.75602,-0.28101 8.19301,7.3896 11.60327,12.64816c3.01456,4.64841 5.82259,10.31303 8.65059,17.62166c3.37028,8.71012 5.0088,18.77543 5.0088,18.77543z" fill="#2b263c" stroke="#000000" stroke-width="1.5"/><path d="M247.47216,179.61484c0.10593,-0.47901 -0.98902,-5.02349 -3.44051,-7.92535c-0.57119,-0.67613 -2.09815,-1.43568 -2.74143,-1.96313c-2.3539,-1.93007 -4.0212,-2.38184 -3.95473,-2.68709c0.89013,-4.08771 2.30615,-11.17257 2.30615,-11.17257l-9.53017,-3.56047l6.94272,-15.88994l2.53736,-0.61605l-0.31218,11.39897l13.36603,7.61289l-6.46828,14.4224c0,0 2.4488,2.73633 3.98114,5.74495c1.18886,2.33425 1.96388,5.05835 2.22235,6.9879c0.36585,2.73118 -0.50072,7.39005 -0.50072,7.39005c0,0 -5.93804,-2.8216 -4.40772,-9.74256z" fill="#1b1f25" stroke="none" stroke-width="0"/><path d="M247.17247,187.74614c0,0 0.00906,0.67329 1.0234,-6.40855c0.15118,-1.05555 -0.08322,-3.91003 -1.6282,-6.42515c-1.08713,-1.76978 -2.87371,-3.35982 -3.66749,-4.49124c-0.06306,-0.0899 -4.72541,-2.58594 -4.89515,-2.86209c-0.1153,-0.18759 2.4218,-4.17436 3.74546,-6.53357c0.41059,-0.73181 0.94823,-2.18148 0.94191,-2.19415c-0.01363,-0.02734 -0.25716,1.0751 -0.92723,2.22917c-1.43459,2.47082 -3.90142,6.15831 -3.76051,6.3961c0.443,0.74762 3.56703,2.22419 4.40904,2.6276c0.51352,0.24604 0.09699,-0.70852 0.09932,-0.7185c0.48884,-2.09713 2.53472,-6.68687 3.86231,-9.75027c0.59859,-1.38123 1.22216,-2.3067 1.19354,-2.80665c-0.03909,-0.68294 -3.77435,-2.80738 -7.04893,-4.36818c-2.4632,-1.17406 -4.70333,-1.87218 -4.70419,-2.27197c-0.0148,-6.8281 3.65705,-16.56379 4.36463,-16.82678c0.75602,-0.28101 8.19301,7.3896 11.60327,12.64816c3.01456,4.6484 5.82259,10.31303 8.65058,17.62166c3.37028,8.71012 5.00882,18.77545 5.00882,18.77545z" fill="none" stroke="#000000" stroke-width="1.5"/></g><g stroke-linecap="butt"><path d="M236.73561,206.3274c-1.60808,-0.15473 -6.11265,-5.35033 -6.70072,-7.62407c-0.77461,-2.99504 2.39327,-8.27734 2.39327,-8.27734c0,0 1.47432,-4.40415 3.75678,-7.84736c1.65728,-2.5001 3.98784,-4.22117 5.29052,-4.70282c0.68824,-0.25447 2.42703,0.2523 4.47198,0.47863c3.32516,0.36803 7.4974,0.35919 9.77616,-0.05435c3.24991,-0.58979 6.24269,-1.40315 9.10949,-2.67228c2.1556,-0.95428 4.68917,-2.30359 6.85989,-2.88671c0.24903,-0.06689 8.31624,-0.12328 10.4069,8.59031c0.56449,2.35272 0.25373,5.94168 -1.92031,8.09812c-1.55899,1.54636 -4.14722,3.47066 -7.57983,4.76235c-5.19927,1.95648 -11.39843,2.91742 -15.22671,3.54142c-2.21647,0.36128 -3.62112,0.77494 -3.62112,0.77494c0,0 -1.57642,1.34257 -3.01986,2.25053c-1.78136,1.12052 -4.04803,2.28699 -4.20267,2.36011c-4.67863,2.21214 -7.83805,3.39668 -9.79378,3.20851z" fill="#1b1f25" stroke="#000000" stroke-width="1.5"/><path d="M233.1033,190.23337c0,0 2.13862,-9.38191 8.44563,-11.87134c0.77392,-0.30547 13.17265,1.04738 14.25306,0.73193c1.82256,-0.53212 6.84286,-1.33551 11.15325,-3.55707c1.60271,-0.82604 4.10741,-2.38051 4.85849,-2.24419c2.49226,0.45236 5.92955,1.32577 7.80351,3.94488c1.26679,1.7705 1.88044,3.90855 1.97288,5.66878c0.13825,2.6331 -0.69558,4.59281 -0.69558,4.59281c0,0 -0.91404,-4.82264 -1.3764,-6.5825c-0.31227,-1.18858 -1.12876,-2.95285 -1.12876,-2.95285c0,0 -18.89657,7.96061 -27.16316,10.20391c-0.12462,0.03381 -7.10899,-3.88044 -10.46776,-3.4736c-3.68256,0.44607 -7.65514,5.53921 -7.65514,5.53921z" fill="#2b263c" stroke="none" stroke-width="0"/><path d="M235.74821,204.91812c0,0 -5.36957,-6.09081 -6.4317,-7.45791c-0.39398,-0.50711 -0.69473,-1.12127 -0.69473,-1.12127l2.11163,-7.06779c0,0 1.27608,-4.04797 2.1922,-2.99058c0.12044,0.13902 -0.58752,1.7277 -0.70843,2.45027c-0.0614,0.36694 -0.24335,0.89556 -0.21768,1.38856c0.04224,0.8116 0.33336,1.55789 0.33336,1.55789c0,0 0.81786,-1.76581 0.90965,-1.56886c1.37361,2.94716 4.10305,14.27431 4.10305,14.27431z" fill="#1b1f25" stroke="none" stroke-width="0"/><path d="M231.59295,188.34319c0,0 -0.69512,-4.21707 2.26002,-7.9373c1.02914,-1.29559 3.02519,-2.64225 4.71035,-3.53946c1.54775,-0.82405 2.83487,-1.25341 2.83487,-1.25341c0,0 -4.61919,3.3143 -6.51393,6.32225c-1.31647,2.08995 -2.00708,6.28042 -2.00708,6.28042z" fill="#000000" stroke="none" stroke-width="0"/></g><g><g><path d="M311.92943,134.47591c-7.14544,2.45756 -12.5546,0.29958 -15.31478,-6.65355c-2.15877,-5.43812 1.68547,-13.65414 8.83092,-16.1117c7.14545,-2.45758 13.92424,0.37436 16.35732,7.44859c0.38049,1.10627 0.40332,2.24017 0.43383,3.27559c0.16458,5.5857 -4.27925,9.96782 -10.30728,12.04107z" fill="#485e84" stroke="#000000" stroke-width="2" stroke-linecap="butt"/><path d="M300.2128,116.20218c0,0 0.72586,2.78994 1.68106,3.09701c9.16253,2.94558 15.96474,1.15666 18.16938,0.39329c0.5009,-0.17343 0.61664,-0.72377 0.61664,-0.72377c0,0 0.44755,0.95941 0.60245,2.32354c0.16484,1.45154 0.02105,3.3535 -0.56498,4.7768c-0.66942,1.6258 -3.2003,4.94696 -3.2003,4.94696l-9.268,4.91803c0,0 -6.28678,-2.42221 -7.10302,-3.1377c-0.79964,-0.70093 -1.54481,-1.75973 -2.38243,-2.85358c-1.30051,-1.69835 -1.96974,-3.87117 -1.98947,-5.31348c-0.02519,-1.84072 0.69673,-4.06223 1.59284,-5.75037c0.83399,-1.57113 1.84586,-2.67668 1.84586,-2.67668z" fill="#343545" stroke="none" stroke-width="0" stroke-linecap="butt"/><path d="M305.29233,127.33733c0,0 -2.32295,-3.87579 -2.02791,-6.441c0.37349,-3.24729 2.88503,-9.23551 2.88503,-9.23551" fill="none" stroke="#000000" stroke-width="1" stroke-linecap="round"/><path d="M319.90563,116.15863c0,0 0.42462,3.55599 0.16236,5.6925c-0.26475,2.1569 -2.5192,6.46211 -2.5192,6.46211" fill="none" stroke="#000000" stroke-width="1" stroke-linecap="round"/><path d="M300.80891,130.51366c0,0 -2.44391,-3.94284 -1.99781,-6.7068c0.68453,-4.2412 2.70438,-9.68702 2.70438,-9.68702" fill="none" stroke="#000000" stroke-width="1" stroke-linecap="round"/><path d="M296.43674,124.23038c0,0 4.77722,-7.23176 13.49836,-7.51847c9.55293,-0.31405 12.2072,7.90648 12.2072,7.90648" fill="none" stroke="#000000" stroke-width="1" stroke-linecap="round"/><path d="M297.37247,128.90764c0,0 6.07068,-6.52905 13.76585,-6.79859c6.31844,-0.22132 9.20193,6.49389 9.20193,6.49389" fill="none" stroke="#000000" stroke-width="1" stroke-linecap="round"/><path d="M312.94306,113.51552c-0.58809,-0.13097 -0.98077,-0.61456 -0.87709,-1.08012c0.10367,-0.46558 0.49527,-0.39021 1.08335,-0.25925c0.58809,0.13097 1.14997,0.26796 1.04629,0.73352c-0.10367,0.46558 -0.66447,0.73682 -1.25255,0.60585z" fill="#8fbbbe" stroke="none" stroke-width="0" stroke-linecap="butt"/><path d="M316.35641,114.78366c-0.28487,0.09798 -0.63493,-0.16899 -0.7819,-0.59629c-0.14697,-0.42731 -0.14798,-0.62206 0.13689,-0.72004c0.28487,-0.09798 0.7209,0.13941 0.86786,0.56672c0.14697,0.42731 0.062,0.65162 -0.22287,0.7496z" fill="#8fbbbe" stroke="none" stroke-width="0" stroke-linecap="butt"/><path d="M309.55404,112.79385c-0.44054,0.1006 -0.85201,-0.05592 -0.91908,-0.3496c-0.06707,-0.29367 0.32438,-0.35542 0.7649,-0.45602c0.44054,-0.1006 0.76331,-0.20199 0.83038,0.0917c0.06707,0.29367 -0.23568,0.61333 -0.6762,0.71393z" fill="#8fbbbe" stroke="none" stroke-width="0" stroke-linecap="butt"/><path d="M298.79188,117.94065c0,0 4.04244,-3.14903 7.68651,-4.20922c2.066,-0.60107 4.09438,-0.41761 5.63063,-0.2613c1.35859,0.13823 4.242,1.72839 6.32234,3.17519c1.53166,1.06519 2.56279,2.11913 2.56279,2.11913" fill="none" stroke="#000000" stroke-width="0.5" stroke-linecap="round"/><path d="M314.56924,111.26451c0,0 1.52837,5.06976 1.30801,7.76794c-0.18566,2.27329 -2.37211,7.30681 -2.37211,7.30681" fill="none" stroke="#000000" stroke-width="1" stroke-linecap="round"/><path d="M310.57408,126.48212c0,0 -1.34548,-4.65029 -1.40648,-6.91438c-0.10708,-3.97532 2.09166,-8.70297 2.09166,-8.70297" fill="none" stroke="#000000" stroke-width="1" stroke-linecap="round"/></g><g stroke-linecap="butt"><path d="M295.36486,132.44402c1.8087,-0.20218 3.25011,-0.39624 3.38466,-0.41575c0.28186,-0.04086 2.60913,-1.8486 5.26193,-3.49849c2.88943,-1.79706 6.03393,-3.26699 6.34293,-3.31133c1.44957,-0.20799 3.6884,1.2592 5.54461,2.20204c2.77353,1.40878 5.66968,2.73031 5.93,3.48719c0.3314,0.96355 -1.37652,2.66054 -1.46607,4.06438c-0.07339,1.15066 1.2613,4.60695 1.00435,5.92442c-0.18809,0.96431 -0.93259,1.80501 -1.22458,2.77103c-0.30367,1.00473 0.70829,2.44508 0.32972,3.42847c-0.39058,1.01458 -0.9779,2.04709 -1.4694,2.99095c-0.6435,1.23579 0.25274,4.41471 -0.46481,5.47153c-2.51333,3.7017 -6.79146,4.1057 -7.60304,3.97154c-4.56326,-0.7543 -8.43873,-2.54909 -10.48207,-3.41623c-1.42692,-0.60555 -2.65081,-2.35163 -2.56301,-4.13295c0.07284,-1.47762 0.98573,-2.66558 1.10487,-3.87932c0.11618,-1.18357 -0.94193,-2.03739 -0.94193,-2.03739c0,0 -1.35879,2.26587 -3.40319,2.83434c-1.78569,0.49654 -4.09278,0.0153 -4.25502,-2.02819c-0.15026,-1.89263 2.74727,-5.02485 2.67808,-6.64426c-0.08724,-2.04259 -2.12201,-4.14039 -1.89411,-5.45689c0.269,-1.55397 3.51608,-2.25018 4.18607,-2.32507z" fill="#d396fc" stroke="#000000" stroke-width="1.5"/><path d="M303.47933,130.17201c0,0 6.16928,-4.30005 7.43386,-4.22688c1.39101,0.08049 4.54763,2.02732 6.2964,3.02867c0.65024,0.37233 1.15616,0.59664 1.15616,0.59664c0,0 -0.52651,1.06672 -1.38982,2.00186c-0.82671,0.8955 -1.98144,1.66099 -2.42961,1.66784c-0.90461,0.01384 -2.39394,-2.28241 -4.30631,-2.85231c-0.47492,-0.14153 -4.60613,1.81981 -5.08534,1.69691c-1.12874,-0.28948 -1.40061,-0.90769 -1.56836,-1.36972c-0.14907,-0.41058 -0.10697,-0.54301 -0.10697,-0.54301z" fill="#ffc6ef" stroke="none" stroke-width="0"/><path d="M303.2903,140.52355c0,0 7.3321,-0.20416 9.46534,-0.60589c1.17789,-0.22181 2.67509,-1.55078 2.67509,-1.55078c0,0 2.21179,2.39722 0.7449,3.33033c-1.24559,0.79234 -7.28303,2.96204 -10.443,2.39453c-2.22704,-0.39996 -2.44234,-3.56819 -2.44234,-3.56819z" fill="#ffc6ef" stroke="none" stroke-width="0"/><path d="M302.28656,146.82919c0,0 7.10955,-0.00056 9.48969,-0.47322c1.93775,-0.38481 3.73874,-2.15378 3.73874,-2.15378c0,0 1.27333,2.2639 0.74124,3.57383c-0.39272,0.9668 -1.34684,2.23501 -2.69622,2.74071c-1.1692,0.43818 -2.42217,0.01493 -3.84769,0.06561c-2.25867,0.08032 -4.64265,0.27721 -5.96058,-0.17893c-0.71455,-0.24731 -1.46518,-3.57421 -1.46518,-3.57421z" fill="#ffc6ef" stroke="none" stroke-width="0"/><path d="M302.68751,134.57818c0,0 8.74273,-0.07278 11.33008,-0.42447c1.38196,-0.18784 2.99728,-1.52299 2.99728,-1.52299c0,0 0.2626,3.99211 -0.27908,4.28611c-0.82449,0.44751 -2.22842,0.99331 -3.83386,1.41823c-3.7724,0.99845 -8.52365,1.71814 -8.52365,1.71814c0,0 -1.39755,-3.12755 -1.67679,-4.03176c-0.28427,-0.92051 -0.01399,-1.44328 -0.01399,-1.44328z" fill="#ffc6ef" stroke="none" stroke-width="0"/><path d="M297.60817,132.6816c0,0 11.22164,-6.49181 12.09409,-6.77249c0.30784,-0.09905 -2.35533,1.52132 -4.5745,3.06834c-1.45045,1.01113 -2.7589,2.17253 -2.7589,2.17253c0,0 -2.23772,1.1573 -2.62463,1.98528c-0.12626,0.27022 0.02742,0.46663 0.42917,0.59074c0.87842,0.27134 4.39178,-0.32167 6.90298,-0.61712c0.90843,-0.10688 1.65513,-0.08076 1.96533,-0.03271c0.39173,0.06069 -0.39026,-0.80415 -0.39026,-0.80415c0,0 2.16003,-0.05437 3.03421,0.14315c0.62973,0.14228 1.25268,0.94093 1.76867,1.06896c0.61873,0.15351 2.1279,-0.75635 3.13791,-0.9379c0.6241,-0.11218 0.82994,0.29635 0.73826,0.45274c-0.12113,0.20663 -1.90391,1.82165 -3.04037,1.94996c-3.55024,0.40084 -9.98283,-0.28639 -12.95344,0.49855c-1.73728,0.45905 -2.82599,2.47419 -2.84692,2.77186c-0.05418,0.77023 0.17869,1.73901 0.62098,2.31601c0.03217,0.04198 0.9047,-1.13654 2.20946,-1.33726c1.29426,-0.19911 3.08534,-0.54355 5.0862,-0.5108c2.26022,0.037 4.75551,0.46039 6.49464,0.34436c0.32531,-0.0217 2.75689,-1.07573 2.7746,-1.02981c0.09726,0.25226 -2.11393,2.88249 -3.31522,2.77298c-1.1082,-0.10102 -2.75689,0.08671 -4.52136,0.08558c-1.78169,-0.00116 -3.64621,0.10178 -4.94261,0.13641c-1.05963,0.0283 -2.06149,0.53654 -2.07225,0.54756c-0.42464,0.43518 -0.79845,1.11928 -1.23607,1.8264c-0.37858,0.61174 -0.67624,1.19644 -0.74457,1.53132c-0.18597,0.91144 0.64859,1.52241 0.64859,1.52241c0,0 0.77102,-1.0828 1.96581,-1.28206c0.94495,-0.1576 3.28104,-0.05786 5.72618,0.05586c0.49043,0.02281 1.07848,0.04925 1.57996,0.11338c1.25872,0.16099 2.42757,0.40275 3.48406,0.26961c1.16496,-0.14679 2.24036,-1.24488 2.98984,-1.72222c0.44469,-0.28323 0.75219,-0.41328 0.75219,-0.41328c0,0 -0.47406,1.24119 -1.38146,2.09768c-0.80519,0.76002 -1.91259,1.38993 -2.67685,1.59778c-2.29742,0.62485 -7.34623,-0.66412 -10.25104,0.48608c-1.2579,0.49809 -3.56388,4.08721 -3.56388,4.08721c0,0 0.71155,-4.28683 0.23818,-4.76443c-0.40377,-0.40739 -4.9716,2.21051 -4.9716,2.21051c0,0 1.19077,-1.32402 2.19486,-2.3667c0.68003,-0.70616 1.30644,-1.1902 1.29633,-1.40413c-0.02267,-0.47975 -0.02397,-1.0037 0.05347,-1.25843c0.19864,-0.65349 1.1529,-1.86368 1.1529,-1.86368c0,0 -0.60645,-1.29739 -0.93166,-2.61876c-0.22636,-0.91972 -0.22784,-1.88155 -0.16493,-2.29792c0.1653,-1.09408 1.57444,-1.92838 1.57444,-1.92838c0,0 -0.40414,-0.88779 -0.56287,-1.34536c-0.1582,-0.4561 -0.38788,-1.39565 -0.38788,-1.39565z" fill="#000000" stroke="none" stroke-width="0"/><path d="M318.91384,129.76647c0,0 2.09193,0.77147 2.28384,1.3295c0.18207,0.52937 -1.60877,3.14897 -1.60877,3.14897c0,0 -0.52193,-1.81733 -0.60399,-2.58867c-0.0752,-0.7069 -0.07108,-1.88978 -0.07108,-1.88978z" fill="#ffc6ef" stroke="none" stroke-width="0"/><path d="M319.44655,134.39004c0,0 0.59486,3.33067 0.83405,4.4904c0.1529,0.74137 0.3787,2.11041 0.3787,2.11041c0,0 -1.65814,-1.53457 -2.31985,-2.30169c-0.46809,-0.54265 -0.86496,-2.78102 -0.61491,-3.7624c0.21796,-0.85551 1.72201,-0.53673 1.72201,-0.53673z" fill="#ffc6ef" stroke="none" stroke-width="0"/><path d="M316.68347,143.12733c0.31373,-0.1079 1.02024,-0.12309 1.51232,-0.16681c0.44813,-0.03983 1.35962,-0.14799 1.35962,-0.14799c0,0 -0.3413,0.47891 -0.25999,0.95288c0.12365,0.72072 0.52661,2.897 0.52661,2.897c0,0 -1.22647,0.66994 -2.08537,-0.28755c-0.70817,-0.78947 -1.27913,-3.1698 -1.05319,-3.24751z" fill="#ffc6ef" stroke="none" stroke-width="0"/><path d="M316.0529,149.42653c0.62603,-0.16412 2.49876,-0.30834 2.49876,-0.30834c0,0 -0.39069,0.63697 -0.42081,1.33091c-0.02618,0.60307 -0.06207,1.27355 -0.1048,1.67315c-0.06801,0.63599 0.08312,1.85879 0.08312,1.85879c0,0 -1.78122,-1.23889 -2.27646,-2.40909c-0.42062,-0.99389 -0.02578,-2.08093 0.22019,-2.14541z" fill="#ffc6ef" stroke="none" stroke-width="0"/></g><g stroke="#000000" stroke-width="1.5" stroke-linecap="butt"><path d="M308.24437,152.77719c1.80922,-0.14193 2.99039,1.40177 3.67863,1.33465c0.7308,-0.07128 1.64273,-0.13044 1.70224,-0.03069c0.05658,0.09483 -1.52913,0.30583 -1.34318,0.84651c0.1831,0.53236 0.30029,2.21086 0.04795,3.85912c-0.42569,2.78079 -1.06982,6.58659 -1.06982,6.58659c0,0 -1.33271,-0.10505 -3.80074,0.24723c-1.55741,0.2223 -4.544,-1.03035 -4.544,-1.03035c0,0 -1.36781,-7.74257 -0.89509,-9.02041c0.71251,-1.92604 5.03722,-2.69957 6.22401,-2.79265z" fill="#485e84"/><path d="M303.52261,164.95405c-0.29953,0.00501 -0.48531,-0.25738 -0.28169,-0.63184c0.4972,-0.91439 1.6746,-2.46949 3.88921,-2.34199c1.60672,0.0925 2.67521,1.19395 3.24756,2.00005c0.33864,0.47692 0.24022,0.85488 -0.18791,0.86207c0,0 -5.81486,0.09744 -6.66717,0.11173z" fill="#343545"/></g></g></g></g></svg>