<svg version="1.1" xmlns="http://www.w3.org/2000/svg" xmlns:xlink="http://www.w3.org/1999/xlink" width="264.44659" height="330.16003" viewBox="0,0,264.44659,330.16003"><g transform="translate(-121.95926,-0.41806)"><g data-paper-data="{&quot;isPaintingLayer&quot;:true}" fill-rule="nonzero" stroke-linejoin="miter" stroke-miterlimit="10" stroke-dasharray="" stroke-dashoffset="0" style="mix-blend-mode: normal"><g data-paper-data="{&quot;index&quot;:null}" stroke="#000000" stroke-linecap="butt"><path d="M298.86371,329.13374v-90.27109h61.17899v90.27109z" fill="#273750" stroke-width="2"/><path d="M299.65105,328.37717v-90.27109l18.42709,49.31565l42.75189,40.95544z" fill="#1f1e2e" stroke-width="0"/></g><g data-paper-data="{&quot;index&quot;:null}" stroke="#000000" stroke-linecap="butt"><path d="M246.25776,329.57809v-90.27109h61.17899v90.27109z" fill="#273750" stroke-width="2"/><path d="M247.04514,328.82151v-90.27109l18.42709,49.31565l42.75189,40.95544z" fill="#1f1e2e" stroke-width="0"/></g><g data-paper-data="{&quot;index&quot;:null}" stroke="#000000" stroke-linecap="butt"><path d="M123.02945,128.74561l54.60952,-3.02283l3.65189,50.89645l-54.60952,3.02283z" fill="#ffcaa0" stroke-width="2"/><g><path d="M177.39849,125.23748l75.30056,-4.16815l3.69947,51.55983l-75.30056,4.16815z" fill="#ff0008" stroke-width="2"/><path d="M180.80327,176.06857c0,0 -1.21416,-16.92154 -1.81637,-25.31499c-0.59587,-8.30462 -1.77813,-24.78205 -1.77813,-24.78205l39.44022,-2.18315c0,0 -15.09144,18.90548 -14.50912,27.02126c0.61418,8.5596 18.10365,23.07577 18.10365,23.07577l-39.44021,2.18315z" fill="#8d005e" stroke-width="0"/></g><path d="M123.59133,127.92225l20.31142,36.86523l37.94999,11.00839l-54.60952,3.02283z" fill="#ff6e5b" stroke-width="0"/></g><g data-paper-data="{&quot;index&quot;:null}" stroke="#000000" stroke-linecap="butt"><path d="M203.03056,12.94228c16.69046,0 30.22076,26.10753 30.22076,58.3128c0,32.20527 -13.53029,58.3128 -30.22076,58.3128c-16.69046,0 -30.22076,-26.10753 -30.22076,-58.3128c0,-32.20527 13.53029,-58.3128 30.22076,-58.3128z" fill="#01930e" stroke-width="2"/><path d="M232.79377,70.82092c0,32.20527 -13.5303,58.3128 -30.22076,58.3128c-16.69045,0 20.2265,-35.72183 20.2265,-67.9271c0,-32.20527 9.99426,-22.59097 9.99426,9.6143z" fill="#31525b" stroke-width="0"/></g><path d="M224.59005,238.45138v-113.80147h129.56558v113.80147z" data-paper-data="{&quot;index&quot;:null}" fill="#ff0008" stroke="#000000" stroke-width="2" stroke-linecap="butt"/><g data-paper-data="{&quot;index&quot;:null}" fill="#000000" stroke="#000000" stroke-linecap="butt"><path d="M253.88355,237.98216v-111.68333h69.65369v111.68333z" stroke-width="2"/><path d="M252.98712,237.04613l48.67402,-50.67005l20.97967,-61.01328v111.68333z" stroke-width="0"/></g><g data-paper-data="{&quot;index&quot;:null}" stroke="#000000" stroke-linecap="butt"><path d="M374.81601,69.68581c0,11.10283 -1.62119,36.61614 -8.39703,45.77754c-15.291,20.67445 -47.7531,19.6932 -82.56383,19.6932c-32.92359,0 -70.00211,3.15028 -85.96859,-15.70582c-8.39592,-9.91539 -4.99227,-37.30378 -4.99227,-49.76492c0,-3.48625 -1.20611,-26.29915 -0.47692,-29.63798c6.83366,-31.29064 46.04508,-35.83276 91.43781,-35.83276c48.32393,0 86.89571,2.48597 89.83475,36.73529c0.11631,1.35538 1.12615,27.359 1.12615,28.73546z" fill="#ffcaa0" stroke-width="2"/><path d="M376.90331,69.69599c0,11.10283 -1.62119,36.61614 -8.39703,45.77754c-15.291,20.67445 -47.7531,19.6932 -82.56383,19.6932c-32.92358,0 -70.74525,3.04149 -86.71174,-15.81461c-3.37555,-3.98647 71.68943,21.27155 114.32593,4.08965c54.40629,-21.92495 60.55077,-101.94005 62.22057,-82.48122c0.11631,1.35538 1.12615,27.359 1.12615,28.73546z" fill="#ff6e5b" stroke-width="0"/></g><g data-paper-data="{&quot;index&quot;:null}" stroke="#000000" stroke-linecap="butt"><path d="M353.40203,10.86837c16.69046,0 30.22076,26.10753 30.22076,58.3128c0,32.20527 -13.53029,58.3128 -30.22076,58.3128c-16.69046,0 -30.22076,-26.10753 -30.22076,-58.3128c0,-32.20527 13.53029,-58.3128 30.22076,-58.3128z" fill="#01930e" stroke-width="2"/><path d="M383.16526,68.747c0,32.20527 -13.5303,58.3128 -30.22076,58.3128c-16.69045,0 20.2265,-35.72183 20.2265,-67.9271c0,-32.20527 9.99426,-22.59097 9.99426,9.6143z" fill="#31525b" stroke-width="0"/></g><g data-paper-data="{&quot;index&quot;:null}" stroke-linecap="butt"><path d="M174.21916,32.39605c0,-17.66096 47.08968,-31.97799 105.17772,-31.97799c58.08807,0 105.17771,14.31702 105.17771,31.97798c0,17.66095 -47.08967,31.97799 -105.17771,31.97799c-58.08807,0 -105.17772,-14.31703 -105.17772,-31.97799z" fill="#000000" stroke="none" stroke-width="NaN"/><path d="M278.59716,41.58933c58.08807,0 106.80869,-26.50996 106.80869,-8.849c0,17.66095 -47.08967,31.97799 -105.17771,31.97799c-58.08807,0 -105.17772,-14.31703 -105.17772,-31.97799c0,-17.66096 45.45871,8.849 103.54676,8.849z" fill="#ff0000" stroke="#000000" stroke-width="2"/><path d="M279.02067,57.6233c58.08807,0 98.22842,-21.10222 100.96541,-16.87826c2.64999,4.08974 -15.1697,12.67227 -44.19642,18.15612c-15.63512,2.95385 -34.81068,4.58573 -55.13801,5.08703c-58.08807,1.43253 -99.46937,-17.19078 -99.46937,-22.05092c0,-4.86014 39.75032,15.68603 97.83839,15.68603z" fill="#900056" stroke="#000000" stroke-width="0"/></g><path d="M282.88285,92.15725c0,-15.71752 3.3075,-28.45909 7.3875,-28.45909c4.08001,0 7.3875,12.74156 7.3875,28.45908c0,15.71751 -3.3075,28.45908 -7.3875,28.45908c-4.08002,0 -7.3875,-12.74157 -7.3875,-28.45909z" data-paper-data="{&quot;index&quot;:null}" fill="#000000" stroke="none" stroke-width="0" stroke-linecap="butt"/><path d="M253.9966,66.02882c3.86526,0 6.9987,12.6906 6.9987,28.34525c0,15.65465 -3.1334,28.34525 -6.9987,28.34525c-3.86526,0 -6.9987,-12.6906 -6.9987,-28.34525c0,-15.65465 3.1334,-28.34525 6.9987,-28.34525z" data-paper-data="{&quot;index&quot;:null}" fill="#000000" stroke="none" stroke-width="0" stroke-linecap="butt"/><path d="M302.95532,65.41555h-34.15569" data-paper-data="{&quot;index&quot;:null}" fill="none" stroke="#000000" stroke-width="5" stroke-linecap="round"/><path d="M259.37449,68.95035l-26.56553,-4.52381" data-paper-data="{&quot;index&quot;:null}" fill="none" stroke="#000000" stroke-width="5" stroke-linecap="round"/><path d="M321.91806,114.41365c3.64248,5.29115 4.03501,10.9402 0.87673,12.6175c-3.15825,1.6773 -8.67137,-1.2523 -12.31383,-6.54345c-3.64248,-5.29115 -4.03501,-10.9402 -0.87673,-12.6175c3.15825,-1.6773 8.67137,1.2523 12.31383,6.54345z" fill="#000000" stroke="none" stroke-width="0" stroke-linecap="butt"/><g data-paper-data="{&quot;index&quot;:null}" stroke="#000000" stroke-linecap="butt"><path d="M238.00423,136.61561l54.34192,-5.62423l6.79462,50.64702l-54.34192,5.62423z" fill="#ffcaa0" stroke-width="2"/><g><path d="M292.07599,130.51827l74.93153,-7.7552l6.88319,51.30715l-74.93153,7.7552z" fill="#ff0008" stroke-width="2"/><path d="M298.61985,181.11182c0,0 -2.25901,-16.83861 -3.37953,-25.19093c-1.10865,-8.26393 -3.30836,-24.6606 -3.30836,-24.6606l39.24695,-4.06195c0,0 -13.89977,19.5977 -12.81632,27.6737c1.1427,8.51765 19.50422,22.17782 19.50422,22.17782l-39.24692,4.06195z" fill="#8d005e" stroke-width="0"/></g><path d="M238.51434,135.76666l22.56168,35.84156l38.57485,9.18123l-54.34192,5.62423z" fill="#ff6e5b" stroke-width="0"/></g></g></g></svg>