<svg version="1.1" xmlns="http://www.w3.org/2000/svg" xmlns:xlink="http://www.w3.org/1999/xlink" width="178.57688" height="323.5776" viewBox="0,0,178.57688,323.5776"><g transform="translate(-215.69518,-37.40987)"><g data-paper-data="{&quot;isPaintingLayer&quot;:true}" fill-rule="nonzero" stroke-linejoin="miter" stroke-miterlimit="10" stroke-dasharray="" stroke-dashoffset="0" style="mix-blend-mode: normal"><g stroke="#000000" stroke-linecap="butt"><path d="M327.4977,227.1554c23.08473,24.05026 37.06643,48.08901 31.22901,53.69211c-5.83743,5.6031 -29.2835,-9.3513 -52.36822,-33.40153c-23.08473,-24.05026 -37.06643,-48.08901 -31.22901,-53.69211c5.83743,-5.6031 29.2835,9.3513 52.36823,33.40153z" fill="#0d69be" stroke-width="2"/><path d="M369.17928,251.38515c9.90854,10.32297 9.35724,26.93057 -1.2314,37.09415c-10.58863,10.16355 -27.20489,10.03434 -37.11346,-0.28865c-9.90856,-10.32298 -9.35724,-26.93057 1.2314,-37.09415c10.58865,-10.16354 27.20491,-10.03431 37.11346,0.28865z" fill="#faddbf" stroke-width="2"/><path d="M332.43001,270.48332c9.90856,10.32298 45.79775,6.94024 35.20911,17.10378c-10.58863,10.16355 -27.20487,10.03433 -37.11346,-0.28865c-9.90856,-10.32298 -8.00421,-27.1381 1.90435,-16.81515z" fill="#ef8b89" stroke-width="0"/></g><g stroke="#000000" stroke-linecap="butt"><path d="M307.76518,341.21815v-95.29492h29.49199v95.29492z" fill="#73fffc" stroke-width="2"/><path d="M307.43944,340.60022l1.32626,-93.78573c0,0 5.20288,68.11227 6.3799,77.52842c0.2602,2.08162 2.52228,2.78987 2.52228,2.78987l18.60659,13.13896z" fill="#59a9e6" stroke-width="0"/></g><g stroke="#000000" stroke-linecap="butt"><path d="M268.42382,338.4129v-95.29492h29.49199v95.29492z" fill="#73fffc" stroke-width="2"/><path d="M268.09807,337.79497l1.32626,-93.78573c0,0 5.20288,68.11227 6.3799,77.52842c0.2602,2.08162 2.52228,2.78987 2.52228,2.78987l18.60659,13.13896z" fill="#59a9e6" stroke-width="0"/></g><g stroke="#000000" stroke-linecap="butt"><path d="M334.46378,235.69588c0,13.80271 10.04743,36.74388 4.95001,46.45977c-6.2338,11.88187 -28.61241,9.09579 -38.9397,9.09579c-13.66287,0 -32.94407,4.17018 -38.34426,-14.83216c-2.01935,-7.10576 4.35457,-32.37264 4.35457,-40.7234c0,-30.68249 15.2177,-55.55556 33.98969,-55.55556c18.77199,0 33.98969,24.87307 33.98969,55.55556z" fill="#0d69be" stroke-width="2"/><path d="M283.20015,251.27245c0,13.80271 62.04198,20.54886 56.94455,30.26474c-6.2338,11.88186 -28.61241,9.09579 -38.9397,9.09579c-13.66287,0 -32.94406,4.17018 -38.34425,-14.83215c-2.01936,-7.10576 4.35457,-32.37265 4.35457,-40.7234c0,-9.45244 3.34855,-28.59801 5.51953,-29.96813c5.94391,-16.76415 10.4653,25.13995 10.4653,46.16315z" fill="#10157d" stroke-width="0"/></g><g stroke-linecap="butt"><g stroke="#000000"><g><path d="M218.92543,114.84831c6.12787,-46.38779 48.70022,-79.02491 95.08801,-72.89705c46.38779,6.12787 79.02491,48.70022 72.89705,95.08801c-6.12787,46.38779 -48.70022,79.02491 -95.08801,72.89705c-46.38779,-6.12787 -79.02491,-48.70022 -72.89705,-95.08801z" fill="#faddbf" stroke-width="2"/><path d="M219.26809,114.01652c1.97155,-14.92462 13.95367,-39.52417 18.84481,-42.12014c0.55858,-0.29647 6.9035,-8.07574 15.23886,-13.74951c10.36028,-7.05211 23.11608,-12.23443 23.69578,-11.95908c7.56338,3.59247 -25.86919,62.00101 -27.953,87.23538c-0.00497,0.06018 1.78931,20.10911 3.33637,20.7562c2.23956,5.07952 6.52407,20.1816 16.37656,28.68529c18.36129,15.84762 45.94297,25.92021 44.40622,26.22732c-2.45824,0.49127 -15.03786,0.80657 -21.04855,0.01256c-46.38779,-6.12787 -79.02491,-48.70022 -72.89705,-95.08801z" fill="#ef8b89" stroke-width="0"/><path d="M386.45157,136.51647c-1.52236,11.52422 -3.61264,15.29936 -3.91742,13.39129c-0.31095,-1.94659 1.10015,-9.75355 -7.04619,-15.70732c-1.97402,-1.44272 -10.94027,4.88536 -13.48354,3.31058c-1.59747,-0.98915 -7.24501,-11.22101 -9.05367,-12.14184c-1.26458,-0.64383 -13.44003,6.67491 -14.7685,6.04485c-3.31326,-1.57139 -10.39574,-12.84564 -14.02847,-13.98926c-2.00043,-0.62976 -10.75473,10.53201 -12.81234,10.00414c-2.65355,-0.68075 -8.40138,-13.28311 -11.1152,-13.6416c-7.21715,-0.95339 -8.33351,5.97083 -14.31281,11.23936c-3.88549,3.42362 -12.15863,-14.77143 -15.83638,-10.78354c-4.56734,4.95249 -9.07015,9.71352 -13.74607,12.72672c-3.66843,2.36398 -11.92674,-11.76012 -15.12079,-9.54153c-15.42176,10.71193 -24.73569,17.55546 -22.35585,-0.45986c4.78541,-36.22544 43.99048,-2.47367 88.23193,-18.33805c42.34747,-15.18522 84.15074,1.66063 79.36533,37.88607z" fill="#ef8b89" stroke-width="0"/></g><path d="M389.06064,128.47804c-3.07545,23.28108 5.33406,9.49566 -11.25537,-2.35458c-2.03006,-1.45012 -11.20679,4.85015 -13.8213,3.26596c-1.64221,-0.99506 -7.47095,-11.25086 -9.32959,-12.17829c-1.29953,-0.64845 -13.76516,6.63196 -15.13017,5.99708c-3.40441,-1.58343 -10.7088,-12.887 -14.43949,-14.04355c-2.05438,-0.63688 -10.99714,10.49999 -13.10983,9.96484c-2.72457,-0.69013 -8.66432,-13.31784 -11.44961,-13.68578c-7.40726,-0.97851 -8.52884,5.94503 -14.64492,11.19549c-3.97438,3.41188 -12.52391,-14.81969 -16.28325,-10.84257c-4.66864,4.93911 -9.27175,9.68688 -14.05841,12.68546c-3.75531,2.3525 -12.27573,-11.80622 -15.54488,-9.59756c-15.78438,10.66403 -25.31604,17.47879 -22.9362,-0.53653c4.78541,-36.22544 50.16098,-75.33659 95.69226,-69.32187c45.53127,6.01472 81.09618,53.22646 76.31077,89.4519z" fill="#873412" stroke-width="2"/><path d="M388.96733,127.29283c-3.07545,23.28108 5.33406,9.49566 -11.25537,-2.35458c-2.03006,-1.45012 -11.20679,4.85015 -13.8213,3.26596c-1.64221,-0.99506 -7.47095,-11.25086 -9.3296,-12.17829c-1.29953,-0.64845 -13.76516,6.63196 -15.13017,5.99708c-3.40441,-1.58343 -10.7088,-12.887 -14.43949,-14.04355c-2.05438,-0.63688 -10.99714,10.49999 -13.10983,9.96484c-2.72457,-0.69013 -8.66432,-13.31784 -11.44961,-13.68578c-7.40726,-0.97851 -8.52884,5.94503 -14.64492,11.19549c-3.97438,3.41188 -12.52391,-14.81969 -16.28325,-10.84257c-4.66864,4.93911 -9.27175,9.68688 -14.05842,12.68546c-3.75531,2.3525 -12.27573,-11.80622 -15.54488,-9.59756c-15.78438,10.66403 -25.31604,17.47879 -22.9362,-0.53653c4.78541,-36.22544 45.12088,-2.32434 90.45344,-18.04458c43.39187,-15.04726 86.33499,1.94917 81.54958,38.17461z" fill="#741d23" stroke-width="0"/></g><path d="M313.7471,49.6287c0.04934,0.12315 0.08507,0.26249 0.10956,0.41385c0.05945,0.26925 0.07499,0.55288 0.03967,0.84179c-0.04103,1.14077 -0.37369,2.48582 -0.39349,2.97958c-0.02601,0.6487 1.27793,-0.585 1.90363,-0.41184c0.38328,0.10607 0.68403,0.85861 1.0114,0.63282c1.98671,-1.37027 3.95071,-3.99582 6.46896,-2.02582c0.834,0.65242 0.42285,1.96295 0.89297,2.71574c0.03952,0.06328 2.60463,0.20629 3.12532,0.81263c0.8972,1.04478 0.02155,2.27429 0.4101,3.32689c0.12433,0.33682 0.62746,-0.3632 0.97208,-0.46389c1.53377,-0.44806 4.22559,-1.4658 5.83233,-0.24311c0.84662,0.64425 0.45649,2.21844 0.90116,2.72292c0.77958,0.88441 2.09567,-1.10011 3.21006,-1.4849c1.54127,-0.53219 2.17056,0.25785 3.28814,1.29932c0.19276,0.17963 -0.07232,4.15837 0.86877,5.45048c0.52899,0.72629 1.74979,-0.63499 2.64244,-0.53245c0.89064,0.10231 2.7843,-0.37613 3.18897,-0.21815c0.81172,0.31687 1.34319,1.83254 2.14576,1.49316c4.09764,-1.73277 8.7765,0.34664 6.50612,5.04994c-0.28732,0.59522 1.38569,-0.39586 1.97993,-0.10653c0.23038,0.11216 1.44142,1.28161 1.67793,1.22611c1.54693,-0.36307 2.57198,-0.95098 4.14994,-0.74643c1.31047,0.16988 2.47066,1.07348 2.59399,2.48224c0.06482,0.74037 -1.26684,1.97422 -0.54758,2.16129c1.69541,0.44096 4.30274,1.51706 3.20479,3.93155c-1.19184,2.62098 -3.7862,4.68814 -6.06298,2.27823c-0.78993,-0.83611 -2.44716,0.93016 -3.43405,0.33928c-1.26427,-0.75696 -1.62685,-3.11321 -1.40188,-4.27031c0.104,-0.5349 -1.11301,0.23021 -1.63333,0.0683c-0.70054,-0.21798 -0.89741,-1.34449 -1.61551,-1.49483c-1.60624,-0.33626 -1.77484,3.06008 -5.52491,1.7713c-1.10688,-0.3804 -2.2087,-2.49172 -2.44117,-3.62991c-0.13495,-0.66069 1.78125,-2.43728 1.63838,-2.56265c-0.3469,-0.30442 -2.29932,2.54825 -2.7407,2.63333c-1.06186,0.20467 -2.07975,-0.65777 -3.01136,-1.20688c-0.82308,-0.48514 -1.3909,1.72261 -2.34358,1.65022c-0.84165,-0.06396 -9.20967,-1.7033 -9.47623,-2.24587c-0.32499,-0.66148 -0.58816,-1.81365 -0.33887,-2.49656c0.08959,-0.24543 1.20858,-1.69757 1.02593,-1.70137c-0.6482,-0.01352 -4.60255,2.86158 -6.3271,-0.64859c-0.93779,-1.90881 1.43514,-3.44016 1.65106,-5.04989c0.13334,-0.99409 -1.31877,1.51577 -1.90041,2.3329c-0.44674,0.62762 -1.59358,1.10613 -2.36466,1.02946c-2.66598,-0.26505 -1.59713,-2.70727 -1.95603,-4.28223c-0.16563,-0.72683 -1.64214,0.38341 -2.23537,-0.06802c-1.45046,-1.10375 -1.0644,-2.22738 -1.00027,-3.76439c0.02936,-0.70377 -0.89956,2.61992 -2.55182,2.56965c-0.67007,-0.02039 -1.58459,-1.16491 -1.92369,-0.58661c-1.65095,2.81548 -1.11063,4.10947 -4.81099,3.1354c-0.35708,-0.09399 -1.0735,0.66076 -1.43367,0.38668c-3.98623,-3.03341 0.1858,-7.97578 0.8317,-11.93338c0.22784,-1.39602 -0.41306,-3.6128 0.89638,-4.1477c0.52763,-0.67355 1.38756,-1.05856 2.29722,-0.93839c0.80656,0.10655 1.47225,0.58649 1.84604,1.24283c0.06379,0.08607 0.11759,0.17973 0.15891,0.28289z" fill="#ba587e" stroke="none" stroke-width="0.5"/></g><g stroke="#000000" stroke-linecap="butt"><path d="M329.19045,161.86365c-3.74017,28.31297 -18.72421,41.19207 -35.15005,39.0222c-16.42584,-2.16987 -28.07335,-18.56703 -24.33319,-46.87999c3.74017,-28.31297 20.08795,-49.50613 36.51379,-47.33627c16.42584,2.16987 26.70961,26.88108 22.96945,55.19405z" fill="#f0f0f0" stroke-width="2"/><path d="M285.40199,136.32666c-7.96301,27.42633 25.80353,65.98926 9.37769,63.81939c-16.42584,-2.16987 -28.07335,-18.56703 -24.33319,-46.87999c3.74017,-28.31297 26.46765,-56.58977 14.95549,-16.93941z" fill="#9a99ff" stroke-width="0"/></g><path d="M324.25131,169.51596c-2.07213,15.68594 -8.40044,27.78783 -14.13468,27.03033c-5.73424,-0.7575 -8.70298,-14.08754 -6.63085,-29.77348c2.07213,-15.68594 8.40044,-27.78783 14.13468,-27.03033c5.73424,0.7575 8.70298,14.08754 6.63085,29.77348z" fill="#000000" stroke="none" stroke-width="0" stroke-linecap="butt"/><g stroke="#000000" stroke-linecap="butt"><path d="M328.15773,131.43164c3.08132,10.72573 4.9429,33.81171 -10.63205,31.75424c-15.57495,-2.05746 -42.9429,-29.2691 -37.17799,-38.20631c5.48522,-8.50361 9.53635,-20.34524 25.1113,-18.28777c15.57495,2.05746 19.7622,14.51807 22.69874,24.73982z" fill="#a100fe" stroke-width="2"/><path d="M327.28779,130.95941c2.93057,10.70581 5.10433,33.35419 -9.93955,31.36688c-15.04389,-1.98731 -41.85096,-28.64601 -36.23969,-37.60351c5.33904,-8.52292 6.37576,1.81263 21.41964,3.79994c15.04389,1.98731 21.96672,-7.7661 24.75959,2.43668z" fill="#99008e" stroke-width="0"/></g><g data-paper-data="{&quot;index&quot;:null}" stroke="#000000" stroke-linecap="butt"><path d="M369.53467,113.98709c16.42584,2.16987 26.70961,26.88108 22.96945,55.19405c-3.74017,28.31296 -19.24599,41.12314 -35.67183,38.95327c-16.42584,-2.16987 -27.55157,-18.49809 -23.8114,-46.81106c3.74017,-28.31297 20.08795,-49.50613 36.51379,-47.33627z" fill="#f0f0f0" stroke-width="2"/><path d="M391.98231,168.27471c-3.74017,28.31296 -19.24599,41.12314 -35.67183,38.95327c-16.42584,-2.16987 26.19607,-30.64182 25.62801,-59.19511c-0.82124,-41.27961 13.78399,-8.07113 10.04382,20.24184z" fill="#9a99ff" stroke-width="0"/></g><path d="M378.7852,147.20436c5.73424,0.7575 8.70298,14.08754 6.63085,29.77348c-2.07213,15.68594 -8.40044,27.78783 -14.13468,27.03033c-5.73424,-0.7575 -8.70298,-14.08754 -6.63085,-29.77348c2.07213,-15.68594 8.40044,-27.78783 14.13468,-27.03033z" data-paper-data="{&quot;index&quot;:null}" fill="#000000" stroke="none" stroke-width="0" stroke-linecap="butt"/><g data-paper-data="{&quot;index&quot;:null}" stroke="#000000" stroke-linecap="butt"><path d="M341.92049,132.20336c5.49009,-9.10859 12.76935,-20.05446 28.3443,-17.997c15.57495,2.05746 16.4122,14.54485 19.50113,24.18111c3.24643,10.12761 -29.04111,29.21929 -44.61606,27.16182c-15.57495,-2.05746 -8.99016,-23.78825 -3.22938,-33.34593z" fill="#a100fe" stroke-width="2"/><path d="M342.88319,131.97323c5.34643,-9.12757 9.49912,2.08893 24.54301,4.07624c15.04389,1.98731 18.72887,-7.7245 21.67162,1.89245c3.09279,10.10731 -28.71377,28.54426 -43.75765,26.55695c-15.04389,-1.98731 -8.06701,-22.94804 -2.45698,-32.52563z" fill="#99008e" stroke-width="0"/></g><path d="M371.63634,338.8701c0,11.6628 -14.51982,21.11737 -32.43092,21.11737c-17.9111,0 -32.43092,-9.45457 -32.43092,-21.11737c0,-2.33142 -0.03339,-13.76009 1.08979,-15.13837c4.49546,-5.51647 17.81784,5.26144 32.14847,5.26144c17.9111,0 31.62358,-1.78588 31.62358,9.87692z" fill="#000082" stroke="#000000" stroke-width="2" stroke-linecap="butt"/><path d="M369.75006,336.13785c0,6.30841 -13.89058,10.1901 -31.80169,10.1901c-17.9111,0 -30.16566,-2.95748 -30.16566,-9.26589c0,-1.26107 -0.03338,-12.52602 1.0898,-13.27153c4.49546,-2.98386 15.55258,5.7726 29.88321,5.7726c17.9111,0 30.99434,0.26631 30.99434,6.57472z" fill="#2e0048" stroke="#000000" stroke-width="0" stroke-linecap="butt"/><path d="M328.6494,338.22531c0,11.6628 -14.51982,21.11737 -32.43092,21.11737c-17.9111,0 -32.43092,-9.45457 -32.43092,-21.11737c0,-2.33142 -0.03339,-13.76009 1.08979,-15.13837c4.49546,-5.51647 17.81784,5.26144 32.14847,5.26144c17.9111,0 31.62358,-1.78588 31.62358,9.87692z" fill="#000082" stroke="#000000" stroke-width="2" stroke-linecap="butt"/><path d="M326.76311,335.49289c0,6.30841 -13.89058,10.1901 -31.80169,10.1901c-17.9111,0 -30.16566,-2.95748 -30.16566,-9.26589c0,-1.26107 -0.03338,-12.52602 1.0898,-13.27153c4.49546,-2.98386 15.55258,5.7726 29.88321,5.7726c17.9111,0 30.99434,0.26631 30.99434,6.57472z" fill="#2e0048" stroke="#000000" stroke-width="0" stroke-linecap="butt"/><g><g><path d="M282.96138,269.39027c-14.61178,-3.75745 -21.25628,-13.30004 -18.21464,-27.9239c2.37888,-11.43748 17.81745,-20.90717 32.42926,-17.14968c14.61187,3.75744 22.79851,15.92886 19.07853,30.39503c-0.58172,2.26223 -1.79,4.1774 -2.87721,5.93687c-5.86517,9.49161 -18.08914,11.91159 -30.41593,8.74173z" fill="#485e84" stroke="#000000" stroke-width="2" stroke-linecap="butt"/><path d="M283.51681,226.05189c0,0 -1.85665,5.4483 -0.60195,7.01008c12.03519,14.98092 25.33991,19.47566 29.85382,20.62645c1.02555,0.26148 1.8234,-0.52865 1.8234,-0.52865c0,0 -0.30855,2.09115 -1.5497,4.53522c-1.32069,2.6007 -3.65094,5.613 -6.19219,7.34134c-2.90284,1.97423 -10.77199,4.72838 -10.77199,4.72838l-20.8543,-1.98917c0,0 -7.81691,-10.94766 -8.39103,-13.03746c-0.56246,-2.04733 -0.64082,-4.63124 -0.83475,-7.37516c-0.30103,-4.2604 0.97169,-8.61778 2.52411,-11.04366c1.98128,-3.09592 5.62636,-6.00544 8.9756,-7.8344c3.11707,-1.70223 6.0189,-2.43281 6.0189,-2.43281z" fill="#343545" stroke="none" stroke-width="0" stroke-linecap="butt"/><path d="M279.74455,250.19597c0,0 0.388,-9.01374 3.69937,-12.96532c4.19181,-5.00231 14.9602,-12.22341 14.9602,-12.22341" fill="none" stroke="#000000" stroke-width="1" stroke-linecap="round"/><path d="M316.39021,247.62468c0,0 -3.20078,6.39416 -5.98631,9.66716c-2.81208,3.30429 -11.30202,8.00257 -11.30202,8.00257" fill="none" stroke="#000000" stroke-width="1" stroke-linecap="round"/><path d="M268.77999,250.56255c0,0 0.26007,-9.25846 4.04165,-13.3753c5.80274,-6.31715 15.15538,-13.17458 15.15538,-13.17458" fill="none" stroke="#000000" stroke-width="1" stroke-linecap="round"/><path d="M268.39835,235.28343c0,0 15.91185,-6.80359 30.76406,2.3044c16.26872,9.97663 11.65749,26.59669 11.65749,26.59669" fill="none" stroke="#000000" stroke-width="1" stroke-linecap="round"/><path d="M264.81709,244.10835c0,0 17.29548,-4.21052 30.41865,3.79835c10.77531,6.57605 8.20071,20.93882 8.20071,20.93882" fill="none" stroke="#000000" stroke-width="1" stroke-linecap="round"/><path d="M307.68961,235.56601c-0.83638,-0.86472 -0.95935,-2.10241 -0.27478,-2.76448c0.68453,-0.6621 1.25443,-0.10607 2.09077,0.75864c0.83638,0.86472 1.62234,1.71066 0.93779,2.37273c-0.68453,0.6621 -1.91747,0.49783 -2.75377,-0.36688z" fill="#8fbbbe" stroke="none" stroke-width="0" stroke-linecap="butt"/><path d="M311.98538,241.43163c-0.58252,-0.14982 -0.87263,-0.9796 -0.64794,-1.85338c0.22471,-0.87381 0.43706,-1.19955 1.01961,-1.04976c0.58252,0.14982 1.04842,1.0248 0.82368,1.89856c-0.22471,0.87381 -0.61289,1.15436 -1.19541,1.00453z" fill="#8fbbbe" stroke="none" stroke-width="0" stroke-linecap="butt"/><path d="M302.83376,230.63803c-0.84491,-0.31653 -1.35871,-1.02967 -1.14774,-1.59295c0.21096,-0.56325 0.93135,-0.23588 1.77624,0.08062c0.84491,0.31653 1.49437,0.50229 1.28337,1.06555c-0.21096,0.56325 -1.06701,0.76329 -1.91186,0.44676z" fill="#8fbbbe" stroke="none" stroke-width="0" stroke-linecap="butt"/><path d="M279.23746,227.38785c0,0 10.19953,-0.80582 17.43905,1.43236c4.10442,1.26893 7.28384,3.80423 9.67279,5.75338c2.11266,1.72369 5.17114,7.54361 7.0486,12.24186c1.38227,3.45906 1.9426,6.34921 1.9426,6.34921" fill="none" stroke="#000000" stroke-width="0.5" stroke-linecap="round"/><path d="M312.87449,233.60125c0,0 -3.02483,10.13058 -6.35787,14.38593c-2.80814,3.58524 -11.9853,9.57222 -11.9853,9.57222" fill="none" stroke="#000000" stroke-width="1" stroke-linecap="round"/><path d="M289.48858,254.57586c0,0 2.86861,-9.23037 5.25549,-13.07136c4.19096,-6.74409 13.05244,-12.20771 13.05244,-12.20771" fill="none" stroke="#000000" stroke-width="1" stroke-linecap="round"/></g><g stroke="#000000" stroke-linecap="butt"><path d="M261.6637,248.47996c28.25029,17.69855 28.98032,27.31742 24.68456,34.17429c-4.29576,6.85687 -30.67957,-1.93208 -58.92989,-19.63062c-28.2503,-17.69858 40.97696,-38.2674 45.27274,-45.12424c6.4441,-2.96679 7.02554,3.53395 3.14913,10.36986c-4.78053,8.43025 -16.5913,18.69796 -14.17655,20.21075z" fill="#0d69be" stroke-width="2"/><path d="M289.30483,251.53277c12.12574,7.59669 15.6388,23.83781 7.84659,36.27563c-7.79219,12.43782 -23.93885,16.36232 -36.06459,8.76565c-12.12574,-7.59669 -15.63877,-23.83784 -7.84659,-36.27563c7.79219,-12.43781 23.93882,-16.36232 36.06459,-8.76561z" fill="#faddbf" stroke-width="2"/><path d="M258.31856,279.01182c12.12574,7.59669 46.10815,-4.43126 38.316,8.00658c-7.79219,12.43782 -23.93885,16.3623 -36.06459,8.76561c-12.12574,-7.59669 -14.37716,-24.36889 -2.2514,-16.7722z" fill="#ef8b89" stroke-width="0"/></g></g><path d="M258.10852,166.11016c0.05491,-0.2542 0.32535,-1.15041 1.39076,-1.00967c1.23923,0.1637 1.07553,1.40294 1.07553,1.40294l-0.09005,0.3967c-0.88115,2.22763 -2.00199,4.3339 -2.95907,6.52619c-1.06272,1.68834 -2.23993,3.89666 -4.02012,4.94224c-3.60489,2.11729 -7.90277,-1.26544 -8.93011,-4.73043c-1.31482,-4.43458 0.01505,-9.92271 1.80098,-14.08509c0,0 0.49785,-1.14658 1.64443,-0.64873c1.14658,0.49785 0.64873,1.64443 0.64873,1.64443c-1.28631,2.92095 -2.613,7.41973 -2.12434,10.64869c0.31706,2.09515 2.00716,5.83954 4.83401,5.41461c1.78308,-0.26803 3.09878,-3.03643 3.93671,-4.35499c0.89323,-2.06927 1.95445,-4.05194 2.79254,-6.14689z" fill="#000000" stroke="none" stroke-width="0.5" stroke-linecap="butt"/></g></g></svg>