<svg version="1.1" xmlns="http://www.w3.org/2000/svg" xmlns:xlink="http://www.w3.org/1999/xlink" width="199.21387" height="309.7331" viewBox="0,0,199.21387,309.7331"><g transform="translate(-208.32024,-51.25435)"><g data-paper-data="{&quot;isPaintingLayer&quot;:true}" fill-rule="nonzero" stroke-linejoin="miter" stroke-miterlimit="10" stroke-dasharray="" stroke-dashoffset="0" style="mix-blend-mode: normal"><g stroke="#000000" stroke-linecap="butt"><path d="M332.45381,219.23949c32.17295,8.73047 56.53645,22.13828 54.41743,29.94725c-2.11903,7.80898 -29.91821,7.06196 -62.09114,-1.66848c-32.17295,-8.73047 -56.53645,-22.13828 -54.41743,-29.94725c2.11903,-7.80898 29.91821,-7.06196 62.09115,1.66848z" fill="#0d69be" stroke-width="2"/><path d="M380.66125,218.54814c13.80943,3.74733 21.88822,18.26798 18.04447,32.43285c-3.84376,14.16483 -18.1545,22.6099 -31.96397,18.86258c-13.80945,-3.74733 -21.88822,-18.26798 -18.04447,-32.43285c3.84378,-14.16483 18.15454,-22.60989 31.96397,-18.86258z" fill="#faddbf" stroke-width="2"/><path d="M358.99191,253.84247c13.80945,3.74733 42.83349,-17.63214 38.98972,-3.46731c-3.84376,14.16483 -18.1545,22.60989 -31.96397,18.86258c-13.80945,-3.74733 -20.8352,-19.14258 -7.02576,-15.39527z" fill="#ef8b89" stroke-width="0"/></g><g stroke="#000000" stroke-linecap="butt"><path d="M307.76518,341.21814v-95.29492h29.49199v95.29492z" fill="#73fffc" stroke-width="2"/><path d="M307.43943,340.60021l1.32626,-93.78573c0,0 5.20288,68.11227 6.3799,77.52842c0.2602,2.08162 2.52228,2.78987 2.52228,2.78987l18.60659,13.13896z" fill="#59a9e6" stroke-width="0"/></g><g stroke="#000000" stroke-linecap="butt"><path d="M268.4238,338.41289v-95.29492h29.49199v95.29492z" fill="#73fffc" stroke-width="2"/><path d="M268.09805,337.79496l1.32626,-93.78573c0,0 5.20288,68.11227 6.3799,77.52842c0.2602,2.08162 2.52228,2.78987 2.52228,2.78987l18.60659,13.13896z" fill="#59a9e6" stroke-width="0"/></g><g stroke="#000000" stroke-linecap="butt"><path d="M335.22917,235.69589c0,13.80271 10.04743,36.74388 4.95001,46.45977c-6.2338,11.88187 -28.61241,9.09579 -38.9397,9.09579c-13.66287,0 -32.94407,4.17018 -38.34426,-14.83216c-2.01935,-7.10576 4.35457,-32.37264 4.35457,-40.7234c0,-30.68249 15.2177,-55.55556 33.98969,-55.55556c18.77199,0 33.98969,24.87307 33.98969,55.55556z" fill="#0d69be" stroke-width="2"/><path d="M283.96554,251.27246c0,13.80271 62.04198,20.54886 56.94455,30.26474c-6.2338,11.88186 -28.61241,9.09579 -38.9397,9.09579c-13.66287,0 -32.94406,4.17018 -38.34425,-14.83215c-2.01936,-7.10576 4.35457,-32.37265 4.35457,-40.7234c0,-9.45244 3.34855,-28.59801 5.51953,-29.96813c5.94391,-16.76415 10.4653,25.13995 10.4653,46.16315z" fill="#10157d" stroke-width="0"/></g><g stroke-linecap="butt"><g stroke="#000000"><g><path d="M237.8637,117.58598c12.17399,-45.17933 58.66804,-71.93545 103.84737,-59.76146c45.17933,12.17399 71.93545,58.66804 59.76146,103.84737c-12.17399,45.17933 -58.66804,71.93545 -103.84737,59.76146c-45.17933,-12.17399 -71.93545,-58.66804 -59.76146,-103.84737z" fill="#faddbf" stroke-width="2"/><path d="M238.31275,116.80645c3.91681,-14.53582 19.02938,-37.34632 24.21939,-39.27663c0.59271,-0.22045 7.90541,-7.09792 16.91442,-11.62645c11.19758,-5.62866 24.52404,-9.08878 25.0625,-8.7396c7.02536,4.55576 -33.79683,58.0613 -39.1805,82.80259c-0.01284,0.059 -0.87028,20.16979 0.57826,21.01468c1.55223,5.32989 3.81384,20.86421 12.46268,30.58953c16.11814,18.12428 42.13596,31.73601 40.57217,31.8384c-2.50149,0.16378 -15.01335,-1.17769 -20.86746,-2.75513c-45.17933,-12.17399 -71.93545,-58.66804 -59.76146,-103.84737z" fill="#ef8b89" stroke-width="0"/><path d="M401.08633,161.09328c-3.02441,11.224 -5.59292,14.69152 -5.64417,12.75994c-0.0523,-1.97057 2.37305,-9.52421 -4.91973,-16.49743c-1.76718,-1.68975 -11.48764,3.40445 -13.80177,1.50894c-1.45354,-1.1906 -5.70671,-12.07621 -7.37859,-13.22685c-1.16895,-0.80451 -14.201,4.84979 -15.43509,4.05053c-3.07788,-1.99339 -8.61647,-14.10101 -12.06729,-15.71234c-1.90026,-0.88732 -12.04617,9.02648 -14.01651,8.23265c-2.541,-1.02374 -6.58191,-14.27244 -9.22502,-14.98465c-7.02913,-1.89407 -9.04624,4.82326 -15.66637,9.25985c-4.30192,2.88301 -10.11084,-16.24187 -14.28101,-12.77217c-5.17887,4.30896 -10.26859,8.43659 -15.30011,10.80882c-3.94741,1.86111 -10.27691,-13.22621 -13.73494,-11.44686c-16.69633,8.59119 -26.82923,14.15066 -22.10129,-3.39534c9.50699,-35.28172 43.93381,3.33192 89.87709,-6.57761c43.97645,-9.4853 83.2018,12.71082 73.69481,47.99254z" fill="#ef8b89" stroke-width="0"/></g><path d="M404.7297,153.46769c-6.10988,22.67458 4.03921,10.11457 -10.84806,-3.81405c-1.82177,-1.70446 -11.74722,3.33451 -14.13073,1.4203c-1.49711,-1.20235 -5.92676,-12.1355 -7.64732,-13.29927c-1.20299,-0.81369 -14.51766,4.76446 -15.78734,3.95561c-3.16666,-2.01731 -8.92137,-14.18317 -12.4676,-15.82021c-1.9528,-0.90147 -12.28226,8.96286 -14.30624,8.15457c-2.61018,-1.04238 -6.83799,-14.34145 -9.55072,-15.07242c-7.21429,-1.94396 -9.23648,4.772 -15.98982,9.1727c-4.38849,2.85968 -10.46661,-16.33774 -14.71624,-12.88945c-5.27753,4.28237 -10.46494,8.38368 -15.60431,10.72685c-4.03203,1.83831 -10.6168,-13.3178 -14.14798,-11.55816c-17.04951,8.49602 -27.39445,13.99835 -22.66652,-3.54765c9.50699,-35.28172 59.63115,-68.08708 103.97629,-56.13787c44.34513,11.9492 73.3936,63.42733 63.88661,98.70905z" fill="#873412" stroke-width="2"/><path d="M404.79303,152.2805c-6.10988,22.67458 4.03921,10.11457 -10.84806,-3.81405c-1.82177,-1.70446 -11.74722,3.33451 -14.13073,1.4203c-1.49711,-1.20235 -5.92676,-12.1355 -7.64733,-13.29927c-1.20299,-0.81369 -14.51766,4.76446 -15.78734,3.95561c-3.16666,-2.01731 -8.92137,-14.18317 -12.4676,-15.82021c-1.9528,-0.90147 -12.28226,8.96286 -14.30624,8.15457c-2.61018,-1.04238 -6.83799,-14.34145 -9.55072,-15.07242c-7.21429,-1.94396 -9.23648,4.772 -15.98982,9.1727c-4.38849,2.85968 -10.46661,-16.33774 -14.71624,-12.88945c-5.27753,4.28237 -10.46494,8.38368 -15.60432,10.72685c-4.03203,1.83831 -10.6168,-13.3178 -14.14798,-11.55816c-17.04951,8.49602 -27.39445,13.99835 -22.66652,-3.54765c9.50699,-35.28172 45.03476,3.62858 92.04073,-5.9946c44.99364,-9.21121 85.32915,13.28405 75.82217,48.56578z" fill="#741d23" stroke-width="0"/></g><path d="M340.43758,65.40027c0.03272,0.12857 0.04981,0.2714 0.0542,0.42467c0.02353,0.27473 0.00164,0.55794 -0.07136,0.83969c-0.19067,1.12547 -0.69729,2.4151 -0.78185,2.90197c-0.11108,0.63965 1.34375,-0.41189 1.94126,-0.15797c0.36601,0.15554 0.56519,0.94109 0.91941,0.76031c2.14963,-1.09715 4.4418,-3.44166 6.67917,-1.15766c0.74097,0.75642 0.16108,2.00151 0.52814,2.80957c0.03086,0.06793 2.55489,0.54697 2.99134,1.21651c0.75204,1.15368 -0.27768,2.25738 -0.0309,3.35193c0.07896,0.35025 0.66977,-0.27755 1.02464,-0.33205c1.57937,-0.2425 4.38163,-0.89747 5.81366,0.52586c0.75456,0.74998 0.16083,2.2592 0.53531,2.81777c0.65652,0.97924 2.22213,-0.81501 3.37744,-1.04993c1.59787,-0.32492 2.11781,0.54101 3.08875,1.72038c0.16746,0.20342 -0.61845,4.11276 0.14457,5.51739c0.4289,0.78954 1.81809,-0.39941 2.68951,-0.18039c0.86946,0.21853 2.80958,-0.00677 3.18996,0.20304c0.76301,0.42085 1.09058,1.99324 1.9308,1.76233c4.2899,-1.17895 8.65473,1.49762 5.78564,5.86155c-0.36308,0.55227 1.42571,-0.21022 1.97675,0.15473c0.21363,0.14147 1.26039,1.46001 1.50214,1.43608c1.58124,-0.15651 2.67469,-0.60454 4.21205,-0.19429c1.27676,0.34071 2.30807,1.38902 2.24509,2.80176c-0.03309,0.74246 -1.51542,1.79051 -0.827,2.07053c1.62271,0.66006 4.06591,2.06963 2.66003,4.3188c-1.52611,2.44151 -4.36976,4.14961 -6.3099,1.46126c-0.67314,-0.93272 -2.54822,0.60032 -3.44885,-0.1152c-1.15377,-0.91662 -1.20338,-3.30009 -0.82823,-4.41757c0.17343,-0.51658 -1.13362,0.08186 -1.62813,-0.14705c-0.66579,-0.3082 -0.71284,-1.45081 -1.40493,-1.69426c-1.54808,-0.54454 -2.16179,2.80014 -5.70984,1.02947c-1.04725,-0.52263 -1.8619,-2.7605 -1.9427,-3.91937c-0.0469,-0.6727 2.08625,-2.18192 1.96111,-2.32498c-0.30386,-0.34739 -2.61442,2.2238 -3.06315,2.2501c-1.07955,0.06327 -1.97521,-0.92551 -2.82653,-1.59235c-0.75215,-0.58915 -1.60532,1.52477 -2.54022,1.32775c-0.82594,-0.17407 -8.90576,-2.89945 -9.09866,-3.47236c-0.23519,-0.69847 -0.34459,-1.87524 -0.00767,-2.51944c0.12109,-0.23152 1.42129,-1.52392 1.24073,-1.55171c-0.6408,-0.09863 -4.93885,2.23157 -6.18689,-1.47488c-0.67867,-2.01554 1.87502,-3.22159 2.30071,-4.78895c0.26289,-0.96793 -1.50662,1.32922 -2.19065,2.06277c-0.52539,0.56343 -1.72518,0.88699 -2.47949,0.70961c-2.60798,-0.61328 -1.2273,-2.89377 -1.376,-4.50224c-0.06862,-0.7423 -1.67829,0.16417 -2.20702,-0.36135c-1.29274,-1.28489 -0.76229,-2.348 -0.49662,-3.86323c0.12164,-0.6938 -1.23623,2.47889 -2.86753,2.21181c-0.66157,-0.10832 -1.41766,-1.36314 -1.82986,-0.83445c-2.00681,2.57396 -1.64133,3.92776 -5.18148,2.47561c-0.34162,-0.14013 -1.15106,0.51388 -1.47207,0.19482c-3.55277,-3.53121 1.23289,-7.8821 2.39354,-11.72042c0.40942,-1.35394 0.06555,-3.63575 1.43396,-3.99383c0.61162,-0.59833 1.5147,-0.86692 2.40066,-0.62819c0.78555,0.21167 1.38235,0.77498 1.6666,1.47477c0.05192,0.09371 0.09293,0.19363 0.12034,0.30133z" fill="#ba587e" stroke="none" stroke-width="0.5"/></g><g stroke="#000000" stroke-linecap="butt"><path d="M340.98957,178.69139c-7.43044,27.57538 -23.97781,38.37248 -39.97573,34.06169c-15.99793,-4.31079 -25.38833,-22.09707 -17.95789,-49.67244c7.43044,-27.57538 26.42289,-46.43505 42.42081,-42.12426c15.99793,4.31079 22.94325,30.15963 15.51281,57.73501z" fill="#f0f0f0" stroke-width="2"/><path d="M300.93902,147.61855c-11.50004,26.14119 16.90288,68.80914 0.90495,64.49835c-15.99793,-4.31079 -25.38833,-22.09707 -17.95789,-49.67244c7.43044,-27.57538 33.6786,-52.61835 17.05294,-14.82591z" fill="#9a99ff" stroke-width="0"/></g><path d="M335.08714,185.62784c-4.11661,15.2773 -11.98121,26.44204 -17.56607,24.93715c-5.58486,-1.50489 -6.77511,-15.10955 -2.6585,-30.38685c4.11661,-15.2773 11.98121,-26.44204 17.56607,-24.93715c5.58486,1.50489 6.77511,15.10955 2.6585,30.38685z" fill="#000000" stroke="none" stroke-width="0" stroke-linecap="butt"/><g stroke="#000000" stroke-linecap="butt"><path d="M343.96718,148.38779c1.64429,11.03776 0.45423,34.16808 -14.71497,30.0806c-15.1692,-4.08748 -38.7216,-34.66136 -31.83164,-42.76297c6.5557,-7.70855 12.12866,-18.91471 27.29786,-14.82723c15.1692,4.08748 17.68171,16.99047 19.24874,27.50959z" fill="#a100fe" stroke-width="2"/><path d="M343.16691,147.80529c1.49747,10.99819 0.67443,33.73576 -13.97755,29.78765c-14.65197,-3.94811 -37.72108,-33.90011 -30.98074,-42.04204c6.41333,-7.74692 6.08207,2.63521 20.73404,6.58332c14.65197,3.94811 22.79713,-4.81037 24.22424,5.67105z" fill="#99008e" stroke-width="0"/></g><g data-paper-data="{&quot;index&quot;:null}" stroke="#000000" stroke-linecap="butt"><path d="M387.2786,136.53516c15.99793,4.31079 22.94325,30.15963 15.51281,57.73501c-7.43044,27.57537 -24.486,38.23554 -40.48393,33.92475c-15.99793,-4.31079 -24.88014,-21.96012 -17.4497,-49.5355c7.43044,-27.57538 26.42289,-46.43505 42.42081,-42.12426z" fill="#f0f0f0" stroke-width="2"/><path d="M402.39331,193.30301c-7.43044,27.57537 -24.486,38.23554 -40.48393,33.92475c-15.99793,-4.31079 29.99759,-26.93139 33.18881,-55.31147c4.61356,-41.02921 14.72555,-6.18866 7.29511,21.38672z" fill="#9a99ff" stroke-width="0"/></g><path d="M392.08122,170.68035c5.58486,1.50489 6.77511,15.10955 2.6585,30.38685c-4.11661,15.2773 -11.98121,26.44204 -17.56607,24.93715c-5.58486,-1.50489 -6.77511,-15.10955 -2.6585,-30.38685c4.11661,-15.2773 11.98121,-26.44204 17.56607,-24.93715z" data-paper-data="{&quot;index&quot;:null}" fill="#000000" stroke="none" stroke-width="0" stroke-linecap="butt"/><g data-paper-data="{&quot;index&quot;:null}" stroke="#000000" stroke-linecap="butt"><path d="M357.50898,150.96242c6.64008,-8.30764 15.29536,-18.20136 30.46457,-14.11388c15.1692,4.08748 14.35727,16.57654 16.15235,26.53529c1.88661,10.46654 -32.63089,25.14712 -47.8001,21.05964c-15.1692,-4.08748 -5.78429,-24.7638 1.18317,-33.48104z" fill="#a100fe" stroke-width="2"/><path d="M358.49359,150.86086c6.50016,-8.34535 9.14199,3.31979 23.79396,7.2679c14.65197,3.94811 19.58193,-5.19486 21.23464,4.72553c1.73698,10.42622 -32.21764,24.521 -46.86961,20.57289c-14.65197,-3.94811 -4.97964,-23.8095 1.841,-32.5663z" fill="#99008e" stroke-width="0"/></g><path d="M371.63632,338.87009c0,11.6628 -14.51982,21.11737 -32.43092,21.11737c-17.9111,0 -32.43092,-9.45457 -32.43092,-21.11737c0,-2.33142 -0.03339,-13.76009 1.08979,-15.13837c4.49546,-5.51647 17.81784,5.26144 32.14847,5.26144c17.9111,0 31.62358,-1.78588 31.62358,9.87692z" fill="#000082" stroke="#000000" stroke-width="2" stroke-linecap="butt"/><path d="M369.75004,336.13785c0,6.30841 -13.89058,10.1901 -31.80169,10.1901c-17.9111,0 -30.16566,-2.95748 -30.16566,-9.26589c0,-1.26107 -0.03338,-12.52602 1.0898,-13.27153c4.49546,-2.98386 15.55258,5.7726 29.88321,5.7726c17.9111,0 30.99434,0.26631 30.99434,6.57472z" fill="#2e0048" stroke="#000000" stroke-width="0" stroke-linecap="butt"/><path d="M328.64938,338.2253c0,11.6628 -14.51982,21.11737 -32.43092,21.11737c-17.9111,0 -32.43092,-9.45457 -32.43092,-21.11737c0,-2.33142 -0.03339,-13.76009 1.08979,-15.13837c4.49546,-5.51647 17.81784,5.26144 32.14847,5.26144c17.9111,0 31.62358,-1.78588 31.62358,9.87692z" fill="#000082" stroke="#000000" stroke-width="2" stroke-linecap="butt"/><path d="M326.7631,335.49289c0,6.30841 -13.89058,10.1901 -31.80169,10.1901c-17.9111,0 -30.16566,-2.95748 -30.16566,-9.26589c0,-1.26107 -0.03338,-12.52602 1.0898,-13.27153c4.49546,-2.98386 15.55258,5.7726 29.88321,5.7726c17.9111,0 30.99434,0.26631 30.99434,6.57472z" fill="#2e0048" stroke="#000000" stroke-width="0" stroke-linecap="butt"/><g><g><path d="M256.8955,263.30723c-10.87865,-10.45358 -11.97543,-22.02975 -2.1393,-33.27072c7.69293,-8.7917 25.79235,-9.45122 36.67102,1.00241c10.87874,10.45362 12.02658,25.07713 1.67717,35.84739c-1.61843,1.68427 -3.61197,2.75835 -5.42354,3.75633c-9.77278,5.38364 -21.60792,1.48349 -30.78537,-7.33536z" fill="#485e84" stroke="#000000" stroke-width="2" stroke-linecap="butt"/><path d="M278.67868,225.83702c0,0 -4.29462,3.83241 -3.96947,5.8092c3.11873,18.96173 12.49671,29.41504 15.86228,32.6357c0.76464,0.73175 1.84781,0.43575 1.84781,0.43575c0,0 -1.29645,1.66953 -3.57855,3.18807c-2.42835,1.61586 -5.93821,3.09401 -9.00079,3.35026c-3.49835,0.29269 -11.70512,-1.17618 -11.70512,-1.17618l-17.18429,-11.9816c0,0 -1.42727,-13.37603 -0.90019,-15.47819c0.51635,-2.05944 1.71802,-4.34827 2.89769,-6.83324c1.8317,-3.85831 5.08161,-7.02763 7.62586,-8.37735c3.24703,-1.72249 7.85146,-2.46493 11.66717,-2.41171c3.55123,0.04949 6.43748,0.83938 6.43748,0.83938z" fill="#343545" stroke="none" stroke-width="0" stroke-linecap="butt"/><path d="M263.52738,245.01005c0,0 4.76788,-7.65933 9.59382,-9.4733c6.10911,-2.29635 19.03618,-3.29283 19.03618,-3.29283" fill="none" stroke="#000000" stroke-width="1" stroke-linecap="round"/><path d="M296.70561,260.78093c0,0 -5.93006,3.99556 -9.96455,5.47699c-4.07298,1.49564 -13.77589,1.4148 -13.77589,1.4148" fill="none" stroke="#000000" stroke-width="1" stroke-linecap="round"/><path d="M253.79824,239.94057c0,0 4.77673,-7.93533 10.0934,-9.66213c8.15826,-2.6497 19.67364,-4.02528 19.67364,-4.02528" fill="none" stroke="#000000" stroke-width="1" stroke-linecap="round"/><path d="M260.97508,226.44648c0,0 17.2013,1.89497 25.65972,17.12648c9.26514,16.68417 -2.91901,28.89222 -2.91901,28.89222" fill="none" stroke="#000000" stroke-width="1" stroke-linecap="round"/><path d="M253.519,232.37198c0,0 17.13189,4.83327 24.62468,18.25779c6.15224,11.02278 -3.14882,22.26591 -3.14882,22.26591" fill="none" stroke="#000000" stroke-width="1" stroke-linecap="round"/><path d="M295.05476,246.00301c-0.30341,-1.16413 0.19778,-2.30247 1.11935,-2.54262c0.92155,-0.2402 1.14461,0.52414 1.44799,1.68824c0.30341,1.16413 0.57215,2.28713 -0.34941,2.52729c-0.92155,0.2402 -1.91458,-0.50881 -2.21794,-1.6729z" fill="#8fbbbe" stroke="none" stroke-width="0" stroke-linecap="butt"/><path d="M295.91316,253.22259c-0.43368,-0.41677 -0.27852,-1.28199 0.34659,-1.93254c0.62515,-0.65056 0.97018,-0.82988 1.40389,-0.41313c0.43368,0.41677 0.4094,1.40776 -0.21574,2.05827c-0.62515,0.65056 -1.10109,0.7041 -1.53478,0.28733z" fill="#8fbbbe" stroke="none" stroke-width="0" stroke-linecap="butt"/><path d="M293.24778,239.32478c-0.58026,-0.69091 -0.67725,-1.5645 -0.21667,-1.95137c0.46054,-0.38685 0.92705,0.2523 1.5073,0.94318c0.58026,0.69091 1.05457,1.17188 0.59399,1.55872c-0.46054,0.38685 -1.30438,0.14035 -1.8846,-0.55054z" fill="#8fbbbe" stroke="none" stroke-width="0" stroke-linecap="butt"/><path d="M274.29525,224.89735c0,0 9.27875,4.31097 14.48362,9.81819c2.95087,3.1223 4.47379,6.89286 5.59637,9.76446c0.99276,2.53946 0.79607,9.11115 0.1221,14.12554c-0.49621,3.69182 -1.42863,6.48422 -1.42863,6.48422" fill="none" stroke="#000000" stroke-width="0.5" stroke-linecap="round"/><path d="M300.53587,246.84013c0,0 -7.61317,7.33606 -12.60727,9.40394c-4.20763,1.74226 -15.1424,2.44599 -15.1424,2.44599" fill="none" stroke="#000000" stroke-width="1" stroke-linecap="round"/><path d="M269.86082,253.61335c0,0 7.0347,-6.62885 11.00116,-8.80087c6.9644,-3.81367 17.36702,-4.21677 17.36702,-4.21677" fill="none" stroke="#000000" stroke-width="1" stroke-linecap="round"/></g><g stroke="#000000" stroke-linecap="butt"><path d="M248.62422,234.6294c15.90475,29.29773 11.81315,38.03354 4.70205,41.89391c-7.1111,3.86038 -25.76913,-16.76071 -41.67391,-46.05843c-15.90474,-29.29776 54.49388,-13.18797 61.60498,-17.04832c7.07022,0.58332 4.38168,6.53053 -2.3539,10.57875c-8.30655,4.99238 -23.63875,8.12985 -22.27925,10.63411z" fill="#0d69be" stroke-width="2"/><path d="M271.19638,250.87283c6.82671,12.57535 1.90421,28.44622 -10.99479,35.44863c-12.89898,7.00241 -28.8898,2.48466 -35.71652,-10.09067c-6.82671,-12.57535 -1.90417,-28.44623 10.99479,-35.44863c12.89898,-7.00241 28.88977,-2.48466 35.7165,10.09071z" fill="#faddbf" stroke-width="2"/><path d="M230.70549,259.57541c6.82671,12.57535 42.33319,18.80156 29.43423,25.80401c-12.89898,7.00241 -28.88979,2.48465 -35.7165,-10.09071c-6.82671,-12.57535 -0.54444,-28.28867 6.28228,-15.71332z" fill="#ef8b89" stroke-width="0"/></g></g><path d="M269.96642,173.55478c0.08786,-0.24477 0.47379,-1.09764 1.51144,-0.81804c1.20695,0.32522 0.88173,1.53217 0.88173,1.53217l-0.14143,0.38142c-1.1664,2.09243 -2.55446,4.03304 -3.79147,6.08046c-1.27549,1.53395 -2.73284,3.56831 -4.63505,4.37074c-3.85199,1.62491 -7.66777,-2.29355 -8.2306,-5.86354c-0.72032,-4.56896 1.31961,-9.83458 3.63733,-13.726c0,0 0.64428,-1.07116 1.71545,-0.42688c1.07116,0.64428 0.42688,1.71545 0.42688,1.71545c-1.6592,2.72646 -3.5659,7.01174 -3.50605,10.27692c0.03883,2.11865 1.22192,6.05275 4.0801,6.0032c1.80284,-0.03125 3.47112,-2.60262 4.47515,-3.79956c1.15756,-1.93386 2.47025,-3.75978 3.57652,-5.72635z" fill="#000000" stroke="none" stroke-width="0.5" stroke-linecap="butt"/></g></g></svg>