<svg version="1.1" xmlns="http://www.w3.org/2000/svg" xmlns:xlink="http://www.w3.org/1999/xlink" width="38.47575" height="36.94634" viewBox="0,0,38.47575,36.94634"><g transform="translate(-281.83288,-159.1621)"><g data-paper-data="{&quot;isPaintingLayer&quot;:true}" fill-rule="nonzero" stroke-linejoin="miter" stroke-miterlimit="10" stroke-dasharray="" stroke-dashoffset="0" style="mix-blend-mode: normal"><path d="M317.9481,174.86805c2.48923,7.38617 2.04364,14.20407 -0.99523,15.22821c-3.03888,1.02414 -7.5203,-4.1333 -10.00953,-11.51947c-2.48923,-7.38617 -2.04365,-14.20407 0.99523,-15.22821c3.03888,-1.02414 7.5203,4.1333 10.00953,11.51946z" fill="#ff0000" stroke="#000000" stroke-width="1.5" stroke-linecap="butt"/><path d="M286.80961,184.77565c-2.57011,-7.62615 1.52862,-15.89184 9.15477,-18.46195c7.62615,-2.57011 15.89183,1.52863 18.46194,9.15477c2.57011,7.62615 -1.52862,15.89184 -9.15477,18.46194c-7.62615,2.57011 -15.89183,-1.52862 -18.46194,-9.15477z" fill="#ff0000" stroke="#000000" stroke-width="1.5" stroke-linecap="butt"/><path d="M300.20279,180.03997c2.26875,6.73197 0.37848,13.44618 -4.22204,14.99661c-4.60053,1.55043 -10.16918,-2.65003 -12.43794,-9.38199c-2.26875,-6.73197 -0.37848,-13.44617 4.22205,-14.9966c4.60053,-1.55043 10.16918,2.65002 12.43793,9.38198z" fill="#ff0000" stroke="#000000" stroke-width="1.5" stroke-linecap="butt"/><path d="M315.20539,162.94201c1.18061,3.50315 -4.67117,8.63769 -13.0703,11.4683c-8.39913,2.83061 -16.16504,2.28541 -17.34565,-1.21775c-1.18061,-3.50315 4.67116,-8.63769 13.07029,-11.4683c8.39913,-2.83061 16.16504,-2.28541 17.34565,1.21775z" fill="#ff0000" stroke="#000000" stroke-width="1.5" stroke-linecap="butt"/><path d="M304.72051,177.77463l1.5867,8.51036" fill="#ff0000" stroke="#000000" stroke-width="1.5" stroke-linecap="round"/><path d="M309.14528,177.03718l1.60877,8.35217" fill="#ff0000" stroke="#000000" stroke-width="1.5" stroke-linecap="round"/><path d="M308.17744,191.13109c-0.25725,0.42874 -0.68599,0.1715 -0.68599,0.1715l-0.24869,-0.15186c-1.46166,-0.70132 -3.07798,-1.22069 -4.60878,-1.78446c0,0 -0.46918,-0.17285 -0.29632,-0.64202c0.17286,-0.46917 0.64202,-0.29632 0.64202,-0.29632c1.56145,0.57548 3.19841,1.11106 4.69355,1.8202l0.33271,0.19697c0,0 0.42875,0.25725 0.1715,0.686z" fill="#000000" stroke="none" stroke-width="0.5" stroke-linecap="butt"/><path d="M301.576,178.35405l8.93617,-2.39362" fill="none" stroke="#000000" stroke-width="1" stroke-linecap="round"/></g></g></svg>