<svg version="1.1" xmlns="http://www.w3.org/2000/svg" xmlns:xlink="http://www.w3.org/1999/xlink" width="275.24753" height="299.55195" viewBox="0,0,275.24753,299.55195"><defs><radialGradient cx="316.62455" cy="275.92227" r="14.95343" gradientUnits="userSpaceOnUse" id="color-1"><stop offset="0" stop-color="#1e202b"/><stop offset="1" stop-color="#1e202b" stop-opacity="0"/></radialGradient></defs><g transform="translate(-162.37625,-30.22404)"><g data-paper-data="{&quot;isPaintingLayer&quot;:true}" fill-rule="nonzero" stroke-linejoin="miter" stroke-miterlimit="10" stroke-dasharray="" stroke-dashoffset="0" style="mix-blend-mode: normal"><path d="M162.37625,329.77599v-299.55195h275.24753v299.55195z" fill="none" stroke="none" stroke-width="0" stroke-linecap="butt"/><g stroke-linecap="butt"><g><path d="M286.40546,165.19106c0,0 -1.43155,-22.03581 -2.07069,-30.66722c-0.48476,-6.54647 -0.5222,-15.50104 -0.58574,-18.43511c-0.06462,-2.98409 0.9024,-10.78488 0.9024,-10.78488l32.90379,-1.71388c0,0 -2.50524,16.86583 -1.06104,23.83602c1.00637,4.85706 21.77815,22.55048 21.77815,22.55048z" fill="#d396fc" stroke="#000000" stroke-width="1.5"/><path d="M315.25079,179.94011c0,0 -6.2664,-17.08523 -10.07166,-24.53279c-3.54944,-6.94688 -12.04593,-18.75512 -12.04593,-18.75512c0,0 9.38743,3.04184 17.21176,1.11973c3.45241,-0.84812 8.10855,-5.21712 8.10855,-5.21712c0,0 13.56751,10.73502 16.09459,14.70265c2.63961,4.1443 -0.5798,9.65621 -0.5798,9.65621z" fill="#ffc6ef" stroke="none" stroke-width="0"/><path d="M325.15687,159.97179c-0.76046,-1.59667 5.31288,-12.11327 4.14975,-13.73083c-5.09185,-7.08122 -12.85513,-13.69161 -12.89704,-13.95586c-0.31065,-1.9588 -1.85317,-13.7062 -1.85317,-13.7062l3.321,1.9181c0,0 2.97578,9.05029 4.36781,10.48433c1.33421,1.37447 9.8197,3.85556 13.37338,7.20874c7.24978,6.84076 12.67612,18.26268 12.67612,18.26268c0,0 -22.55284,4.7473 -23.13786,3.51903z" fill="#2b263c" stroke="#000000" stroke-width="1.5"/><path d="M319.1744,171.16693c0,0 1.89878,-3.66465 1.26226,-5.11767c-0.25295,-0.57743 -2.67613,-0.0089 -3.08049,0.06343c-0.9314,0.1666 -1.72214,0.49983 -1.95617,0.33621c-0.5178,-0.36201 0.22001,-1.74867 0.50864,-2.91474c0.25663,-1.0368 1.61691,-2.36708 1.55364,-3.43514c-0.04421,-0.74627 -4.79981,-2.03274 -4.84461,-2.72798c-0.03607,-0.55981 2.50925,-3.2741 2.41515,-3.72828c-0.05164,-0.24919 -1.47949,-0.91358 -2.83832,-1.9242c-1.69697,-1.26211 -3.39486,-2.89885 -3.42278,-3.03362c-0.09867,-0.47622 0.25369,-0.44819 0.79645,-0.59195c1.90231,-0.50387 6.42098,-1.77883 8.52732,-3.04012c2.4719,-1.48019 6.7452,-5.91711 8.12761,-7.40397c0.35429,-0.38106 -0.04089,-0.29058 0.19474,0.23787c0.05512,0.12362 -0.25683,1.64416 -0.61418,2.94044c-0.63321,2.29699 -1.30165,5.72619 -0.79512,6.55908c0.10026,0.16487 1.82244,-0.80689 3.76853,-1.47797c2.3419,-0.80756 4.97397,-1.34423 5.04272,-1.11942c0.10861,0.35514 -2.7379,8.04769 -2.68341,10.42886c0.01983,0.86654 -1.18634,14.35479 -1.18634,14.35479z" fill="#4a5c6f" stroke="#000000" stroke-width="1.5"/><path d="M331.94049,163.16033c0,0 -4.45838,-0.41196 -7.56298,-0.6278c-1.61332,-0.11216 -3.00272,0.04434 -2.91,-0.11911c1.28962,-2.27338 2.04836,-5.29178 2.0023,-7.50167c-0.00683,-0.32756 -6.12275,1.88672 -6.12504,1.55878c-0.00354,-0.50742 3.99605,-5.50634 3.91548,-5.90476c-0.09142,-0.45208 -7.4649,-0.96864 -7.50139,-1.23676c-0.06253,-0.45962 1.54642,-2.38074 1.54642,-2.38074c0,0 4.86156,-2.48218 6.69329,-3.87473c1.23985,-0.94258 3.32925,-3.81873 3.32925,-3.81873c0,0 -1.79302,8.57717 -1.06725,8.96321c0.31498,0.16754 1.99915,-1.24564 4.10219,-2.1267c2.32788,-0.97526 5.08525,-1.42495 5.232,-1.12859c0.15138,0.3057 -2.8964,6.71426 -2.8964,6.71426l6.50975,11.03021z" fill="#696f96" stroke="none" stroke-width="0"/><path d="M322.71671,141.78153c0,0 -0.88912,-0.90778 -2.05939,-2.07648c-0.82669,-0.82557 -1.73918,-1.79264 -2.81744,-2.61218c-3.44718,-2.62006 -7.48263,-4.81438 -7.66193,-6.13214c-0.01528,-0.11226 0.03802,-6.03355 0.76347,-5.91247c0.37338,0.06231 0.50978,5.62375 1.04806,5.87059c0.65248,0.29922 1.96349,0.95714 2.6932,1.49766c0.98681,0.73097 1.58719,1.98157 2.51909,2.98663c1.05055,1.13301 2.18909,2.28023 3.06899,3.30369c1.49307,1.73668 2.44597,3.0747 2.44597,3.0747z" fill="#000000" stroke="none" stroke-width="0"/></g><path d="M317.01491,131.06202l-1.60918,-11.14934l1.954,0.91953l2.1839,7.12638z" fill="#1b1f25" stroke="none" stroke-width="0"/></g><g stroke-linecap="butt"><path d="M245.27505,296.69825c5.15487,-4.46563 10.72658,-9.29047 11.50594,-10.68965c0.69928,-1.25541 1.39652,-2.69218 2.29864,-4.28059c3.17585,-5.59191 7.5129,-13.06297 11.24405,-21.11494c0.8461,-1.82594 1.43296,-3.80389 2.22915,-5.66518c0.59121,-1.38209 0.89533,-2.27217 1.40841,-3.66728c0.36843,-1.00179 0.35712,-1.37356 0.6962,-2.37177c0.29097,-0.85658 1.17745,-2.84496 1.45306,-3.69305c1.17461,-3.61441 2.23593,-7.12699 3.40746,-10.32773c3.50702,-9.58149 5.19273,-17.48859 5.19273,-17.48859l26.56378,-5.00106c0,0 -3.31441,15.56582 -8.52175,29.62753c-1.26702,3.42141 -3.6115,7.54703 -5.33485,10.55341c-0.86488,1.50881 -1.61935,2.83155 -2.29506,3.92134c-0.40514,0.6534 -0.88525,1.11539 -1.05518,1.78454c-0.71466,2.81414 -0.23579,6.4188 -0.36445,10.69271c-0.2194,7.28794 -0.66738,15.23909 -0.66738,15.23909c0,0 -6.5719,9.12406 -6.69319,9.12371c-0.52444,-0.00154 -1.90306,-6.114 -2.38627,-8.33297c-0.10716,-0.4921 -0.37615,-0.64819 -0.70454,-0.3891c-0.89623,0.70705 -2.70523,2.26732 -3.73387,4.07174c-0.73592,1.29093 -1.7503,4.8639 -2.38031,5.16409c-0.69133,0.32943 -1.5345,1.17398 -2.28328,1.5219c-2.97435,1.38202 -6.34492,2.66568 -9.85577,3.98469c-4.6567,1.74951 -9.56017,3.46546 -14.11312,4.61932c-7.14861,1.81167 -13.95113,1.58011 -14.98056,1.61465c-1.0234,0.03433 -0.80749,-0.09979 -0.22516,-0.60219c0,0 5.52765,-4.7708 9.59534,-8.29461z" fill="#1b1f25" stroke="#000000" stroke-width="1.5"/><path d="M309.86364,212.3564l24.30646,-3.65624c0,0 -0.56739,4.39251 -2.39792,11.00288c-1.61384,5.82785 -4.39801,13.3234 -5.97617,21.84633c-0.76993,4.15809 1.06709,8.85914 0.20608,13.20477c-0.61285,3.09315 -1.50799,3.32891 -2.73541,6.57693c-0.64101,1.69627 -1.10757,3.92352 -1.78567,6.20629c-0.93503,3.14768 -2.0543,6.40093 -2.61791,8.51317c-0.88162,3.30406 -0.29014,6.11529 -0.33076,8.74164c-0.09329,6.03008 12.43698,15.76832 14.26578,17.50195c0.18174,0.17227 0.3733,0.27703 0.26705,0.28131c-1.55458,0.06246 -5.44095,0.09549 -7.85862,-0.23862c-4.32538,-0.59775 -8.19313,-1.5718 -11.62588,-2.36355c-4.71939,-1.08852 -8.61667,-2.05693 -11.75086,-3.26849c-3.75449,-1.45135 -6.41393,-3.02066 -8.07977,-3.79292c-0.30343,-0.14066 0.06542,-5.87203 0.13847,-7.48542c0.07395,-1.63286 -0.85274,-1.20937 -0.85274,-1.20937c0,0 -0.41431,-5.5734 0.52024,-9.56424c0.65515,-2.7977 1.82756,-8.48036 3.98005,-15.2251c1.02139,-3.20045 2.69903,-6.78413 3.92701,-10.26811c1.20131,-3.40834 2.19633,-6.71507 3.07145,-10.02603c3.87779,-14.67115 5.3291,-26.77719 5.3291,-26.77719z" fill="#1b1f25" stroke="#000000" stroke-width="1.5"/><path d="M302.16517,240.97552c0,0 -4.35842,0.92335 -4.44825,-0.31217c-0.29719,-4.08757 2.35217,-28.51748 2.35217,-28.51748h19.34842c0,0 -10.61105,27.57757 -12.37401,31.20312c-0.41398,0.85138 -2.29856,-1.02865 -2.29856,-1.02865c0,0 1.88765,-7.90084 1.12865,-7.90084c-1.00267,0 -1.66817,1.76681 -2.27052,3.13853c-0.71643,1.6315 -1.43791,3.41748 -1.43791,3.41748z" fill="#1b1f25" stroke="none" stroke-width="0"/><path d="M288.96781,283.71649c0.01488,-2.07946 1.58831,-10.08699 1.58831,-10.08699c0,0 0.75099,-11.55791 1.26152,-11.94431c0.31302,-0.23692 1.167,2.53108 1.34227,4.88205c0.14673,1.96805 0.05205,5.56049 -0.01493,5.80238c-0.02555,0.09226 -0.2942,1.83258 -0.25717,2.85073c0.02377,0.65365 0.31571,0.76259 0.40932,0.76259c0.41491,0 1.48367,-3.49845 2.30843,-6.66398c0.4893,-1.87799 1.02558,-3.85666 1.06524,-4.32321c0.1132,-1.33192 0.49602,8.46565 0.49602,8.46565l-0.72556,10.92669c0,0 -7.48316,0.68466 -7.47346,-0.6716z" fill="#1b1f25" stroke="none" stroke-width="0"/><path d="M301.67111,275.92227c0,-8.61023 6.69489,-15.59021 14.95344,-15.59021c2.21148,0 4.3098,-0.8409 6.19849,0.05738c0.10339,0.04918 -0.17069,0.89117 -0.54343,2.06639c-0.25813,0.81385 -0.52161,1.7875 -0.91264,2.76832c-0.46886,1.17605 -0.80211,2.95406 -1.37807,4.59607c-0.28845,0.82233 -0.67388,2.24693 -0.96531,3.50539c-0.04746,0.20495 -0.1314,0.51589 -0.22758,0.85248c-0.18583,0.65031 -0.36061,1.39634 -0.46292,1.65874c-1.41713,3.63519 0.21568,8.80048 -0.75778,9.94254c-0.10709,0.12563 0.51816,2.60058 1.29784,3.68023c0.56859,0.78735 1.93106,2.03316 1.86054,2.04846c-0.98813,0.21431 -3.06004,0.0044 -4.10915,0.0044c-8.25856,0 -14.95344,-6.97997 -14.95344,-15.59021z" fill="url(#color-1)" stroke="none" stroke-width="0"/><path d="M322.48098,293.38159c0,0 -1.46485,-1.25825 -2.63545,-2.69885c-0.75871,-0.93371 -1.28461,-1.94254 -1.75074,-2.82202c-0.13439,-0.25357 -0.8874,0.02694 -0.97256,-0.37262c-0.24777,-1.16245 -0.17012,-3.01302 0.04227,-4.9582c0.22017,-2.01645 0.5408,-4.13456 0.79596,-5.69314c0.2314,-1.41344 0.65084,-2.87105 0.65084,-2.87105l3.14411,-6.38792c0,0 -1.38774,8.4918 -1.574,9.65859c-0.12446,0.7797 -0.17175,1.87604 -0.34133,2.78499c-0.20974,1.12421 -0.52119,2.09535 -0.37919,3.41828c0.21236,1.97868 1.71508,3.77784 2.1177,4.73377c0.85271,2.0245 1.62795,3.7793 1.62795,3.7793z" fill="#000000" stroke="none" stroke-width="0"/><path d="M278.12937,293.90993c0,0 -6.23148,2.50766 -6.51338,2.40544c-0.12179,-0.04417 1.13021,-1.08955 2.40204,-1.82976c1.25141,-0.72832 2.52201,-1.15202 2.52201,-1.15202c0,0 0.67421,-2.3692 1.86693,-4.38652c0.29924,-0.50612 0.50162,-1.12512 0.88545,-1.52128c0.87106,-0.89907 2.52897,-3.09306 4.33509,-4.23766c0.62541,-0.39634 0.94039,0.69829 1.35307,2.43114c0.66354,2.78617 1.34885,6.84979 1.34885,6.84979c0,0 -0.28947,1.42929 -1.13874,-0.33708c-1.05143,-2.18685 -1.11838,-6.36301 -2.02841,-6.36301c-0.86095,0 -1.69649,1.92413 -2.70544,3.88452c-1.13428,2.20388 -2.32746,4.25647 -2.32746,4.25647z" fill="#000000" stroke="none" stroke-width="0"/><path d="M286.06453,293.04538c0,0 -0.78233,-1.65429 -0.62014,-2.18703c0.07963,-0.26155 1.01627,0.73146 1.15958,0.40701c0.58071,-1.31472 1.64284,-3.08131 2.7921,-4.83758c1.21257,-1.85301 3.07167,-3.53415 3.92217,-4.16218c0.41701,-0.30793 0.94133,-0.29308 1.10721,0.00342c0.42128,0.75294 0.2201,2.31382 0.05378,4.00993c-0.1994,2.03333 -0.48574,4.18898 -0.70128,5.45202c-0.10837,0.63506 -0.25046,1.09829 -0.25046,1.09829c0,0 -0.61672,0.25369 -0.68041,-1.08834c-0.0154,-0.32453 -0.08256,-0.69026 -0.07225,-1.07073c0.04532,-1.67198 0.32146,-3.62801 -0.07113,-3.61663c-0.92765,0.02686 -3.20985,3.62139 -4.86715,5.53641c-0.79974,0.92412 -1.77202,0.45541 -1.77202,0.45541z" fill="#000000" stroke="none" stroke-width="0"/><path d="M293.53634,292.15237c0.11571,-0.44795 0.30645,-1.25489 0.40818,-1.78521c0.1684,-0.87786 0.90217,-5.77714 0.90217,-5.77714l1.65215,2.98001l8.29846,9.15615c0,0 -8.46127,-3.04159 -8.93676,-3.23852c-0.70794,-0.29319 -1.64943,-0.68311 -1.95052,-0.8078c-0.18617,-0.0771 -0.43144,-0.30398 -0.3737,-0.5275z" fill="#1b1f25" stroke="none" stroke-width="0"/><path d="M256.66416,286.44321c-0.61799,-0.10365 0.05408,-2.26353 1.05896,-4.07007c0.68465,-1.23085 2.11017,-3.01613 2.69848,-2.92443c0.32993,0.05143 0.37604,0.75583 0.28187,1.55546c-0.09548,0.81081 -0.33392,1.67183 -0.9135,2.58991c-0.64686,1.02464 -1.39864,2.0044 -2.09571,2.50088c-0.43904,0.3127 -1.01556,0.35071 -1.03011,0.34827z" fill="#000000" stroke="none" stroke-width="0"/><path d="M281.07966,281.03416c0,0 -0.37896,-1.02297 -1.32558,-2.40476c-0.43096,-0.62908 -0.94983,-1.38056 -1.44577,-2.00848c-0.65504,-0.82934 -1.27012,-1.50084 -1.59001,-1.96051c-0.16941,-0.24343 -0.18838,-0.47623 -0.17188,-0.50787c0.21151,-0.40579 2.91105,-1.40458 4.45331,-2.19429c0.58363,-0.29885 1.06531,-0.5013 1.09053,-0.72743c0.03415,-0.30611 -2.29518,-5.26393 -3.17079,-7.05278c-0.21955,-0.44852 -0.04038,-0.33171 0.25319,-0.45785c1.21188,-0.52074 4.566,-1.99572 7.09643,-3.42918c1.52603,-0.86448 2.80937,-1.65455 3.0336,-2.32473c0.01927,-0.05759 -0.65296,-0.60247 -1.42193,-1.15975c-0.73952,-0.53594 -1.7214,-1.27112 -2.58813,-2.0063c-0.79143,-0.67131 -1.40009,-1.42022 -1.96475,-1.93987c-0.56933,-0.52394 -1.13144,-0.63726 -1.04381,-0.85703c0.26124,-0.65526 2.01722,-1.61508 3.50589,-2.31972c0.56124,-0.26565 2.13183,-1.05678 2.15734,-1.29241c0.01794,-0.16584 -0.67081,-0.58605 -1.61484,-1.19654c-0.26692,-0.17262 -0.62273,-0.28906 -0.90501,-0.50656c-2.06888,-1.59419 -4.54501,-3.94982 -4.41506,-4.63996c0.15115,-0.80267 0.63269,-1.57359 1.1147,-2.33785c0.71023,-1.1261 1.50866,-2.23773 1.96481,-3.41507c1.83008,-4.72351 2.9142,-9.04259 2.9142,-9.04259c0,0 0.66158,7.88547 1.36451,8.6327c0.63181,0.67164 1.62271,-0.27101 2.64186,-0.38375c1.20805,-0.13365 2.45579,-0.07782 3.19223,-0.15742c0.38071,-0.04115 0.62477,-0.17535 0.65607,-0.27086c0.25824,-0.78797 0.18068,-1.10917 -0.03052,-1.80042c-0.2539,-0.83103 -0.70096,-1.71471 -0.98995,-2.2433c-0.16258,-0.29735 -0.29745,-0.39655 0.06652,-0.52649c0.71848,-0.2565 2.2956,-0.74889 3.99357,-1.40888c1.57388,-0.61175 3.369,-1.4759 5.30222,-2.28558c1.86924,-0.78287 3.87242,-1.50978 5.65107,-2.19877c2.14291,-0.83009 4.06791,-1.24181 5.40828,-1.74942c0.58263,-0.22065 1.05479,-0.58528 1.38636,-0.80028c0.32078,-0.208 -2.03841,-2.38869 -3.01265,-3.26831c-0.24916,-0.22496 -0.67278,-0.51132 -0.3697,-0.62599c1.07429,-0.40649 4.1231,-1.31044 5.58799,-1.8364c1.42494,-0.51162 4.16658,-1.48954 5.34518,-1.89782c0.37955,-0.13148 0.31182,0.02211 0.04323,0.28671c-0.62099,0.61177 -1.86644,1.80167 -3.30417,2.97275c-1.53219,1.24803 -3.61507,2.544 -3.62436,2.72724c-0.02353,0.46338 6.28996,0.01932 6.28852,0.6741c-0.00001,0.00494 -0.50376,0.69411 -1.81005,1.41001c-1.12129,0.61451 -2.66777,1.22344 -4.4069,2.05085c-2.37453,1.12972 -5.10819,2.53267 -7.6091,3.67896c-5.9144,2.71085 -10.98443,4.23011 -10.99766,4.57819c-0.01714,0.45072 2.26405,2.39022 2.37158,3.01427c0.04901,0.28444 -1.26638,0.72063 -2.37603,1.35356c-3.16434,1.80489 -8.9015,4.65633 -9.60261,5.84429c-0.11227,0.19023 1.32314,0.43752 3.12192,0.79429c2.92396,0.57993 6.80803,1.32174 6.56517,1.62885c-0.09972,0.12612 -2.58569,0.96405 -5.27615,2.09632c-1.78106,0.74954 -3.68253,1.51833 -5.19096,2.21592c-1.62922,0.75346 -2.79991,1.41093 -2.8651,1.50775c-0.09674,0.1437 1.80504,1.28399 3.83217,2.69992c2.49945,1.74584 5.22814,3.83 5.10264,4.00899c-0.29577,0.42182 -2.34508,1.87124 -4.67374,3.30294c-3.2783,2.01554 -7.11025,4.14833 -7.38282,4.6581c-0.18935,0.35412 5.78701,7.07708 5.58075,7.04734c-0.3742,-0.05394 -1.66158,0.73698 -2.97347,1.26122c-1.06465,0.42545 -2.09465,0.54281 -3.07174,0.94855c-1.03269,0.42883 -1.84005,0.74645 -2.04915,0.74107c-0.16241,-0.00418 0.5085,1.29313 0.94412,2.07637c0.88157,1.58507 1.24447,3.024 1.24447,3.024z" fill="#2b263c" stroke="none" stroke-width="0"/><path d="M304.98006,286.16559c0.30803,-0.30476 0.64042,-0.75846 1.11548,-1.1589c1.36844,-1.15352 3.28159,-2.53153 4.50141,-3.54061c0.7378,-0.61034 1.32359,-1.13492 1.36751,-1.2529c0.19568,-0.5257 0.03918,-1.65417 -0.22479,-2.15304c-0.27701,-0.52351 -0.77091,-1.30598 -1.44869,-2.07064c-0.56799,-0.6408 -1.28726,-1.24597 -1.90196,-1.89915c-0.95006,-1.00953 -1.82809,-1.94835 -2.23899,-2.5523c-0.19112,-0.28093 -0.28393,-0.64169 -0.2397,-0.74427c0.01854,-0.04298 0.19321,-0.33184 0.6108,-0.5412c0.32792,-0.16442 0.90858,-0.20541 1.41425,-0.43914c0.64784,-0.29945 1.41688,-0.66055 2.24389,-1.09546c0.82032,-0.43139 1.69769,-0.97902 2.5704,-1.46566c1.15607,-0.64466 2.30398,-1.31847 3.30032,-1.97025c1.5982,-1.04549 2.86802,-2.22697 3.05808,-2.83437c0.38097,-1.21747 0.697,-2.41284 0.92213,-3.56983c0.09047,-0.46497 -0.12936,-1.85196 -0.06561,-2.29746c0.01504,-0.10512 -4.03243,0.01227 -4.01811,-0.07636c0.11226,-0.69451 2.88706,-2.13932 2.96444,-2.77764c0.02868,-0.23652 -0.32726,-0.27677 -0.69156,-0.38658c-0.62943,-0.18971 -1.43158,-0.43297 -1.38256,-1.14511c0.04567,-0.66364 1.4397,-0.44662 1.52602,-0.83502c0.02499,-0.11244 -1.25569,-1.685 -2.99042,-3.31999c-1.3774,-1.29818 -3.12355,-2.57835 -4.14215,-3.60652c-0.72893,-0.73579 -1.1996,-1.47247 -1.17387,-1.53024c0.02557,-0.0574 0.5402,-0.38996 1.33906,-1.1263c0.51229,-0.4722 1.73682,-0.43037 2.42887,-1.06644c1.4378,-1.3215 3.04116,-3.00036 4.41488,-4.50031c0.75117,-0.82021 1.58251,-1.50932 2.13175,-2.13488c0.43516,-0.49561 0.63783,-0.98021 0.87353,-1.25501c0.21316,-0.24851 0.25997,-0.48253 0.49035,-0.27241c0.52817,0.4817 1.69375,1.5693 2.1732,1.97659c0.18043,0.15328 0.98119,0.53526 1.16538,0.66068c0.29273,0.19934 -0.19873,0.23867 -0.43761,0.47394c-0.38637,0.38052 -1.04384,1.02905 -1.83876,1.81704c-0.41258,0.40898 -0.86217,1.01071 -1.33008,1.47687c-1.2479,1.24321 -2.62611,2.28597 -3.78012,3.43393c-0.30156,0.29997 -0.6857,0.48434 -0.97859,0.72669c-0.44477,0.36797 -0.77634,0.76829 -1.05621,1.11015c-0.44715,0.54619 -0.78481,0.69244 -0.77382,0.75068c0.04146,0.21988 0.48471,0.76921 0.83249,0.89795c1.1324,0.41917 3.61953,0.56952 5.70878,1.18636c1.40861,0.41588 2.69098,1.42074 3.14069,2.22868c0.04615,0.08293 -0.3267,0.22061 -0.88599,0.60709c-0.9214,0.63671 -2.27438,1.66737 -3.16785,2.33807c-0.51742,0.38842 -0.93019,0.60455 -0.8875,0.68727c0.13659,0.26474 0.64854,0.22117 0.79134,0.48959c0.20661,0.38838 -0.92092,0.78086 -0.70449,1.17627c0.04919,0.08986 0.97536,0.60355 1.98853,0.97394c1.26436,0.46221 2.66421,0.71012 2.66421,0.71012c0,0 -0.00615,1.19495 -1.15234,3.2526c-0.54555,0.97937 -1.00401,2.21418 -2.48695,3.49672c-0.56795,0.4912 -1.31041,0.93467 -2.04564,1.46952c-1.84417,1.34154 -4.03673,2.84746 -6.20798,4.10923c-1.29505,0.7526 -2.70291,1.36834 -3.6732,1.94866c-0.79091,0.47302 -1.26613,0.94852 -1.35706,1.24223c-0.15941,0.51493 1.37879,1.57561 3.3661,2.60429c1.59796,0.82716 3.51259,1.60619 4.86857,2.27261c1.15746,0.56885 2.16119,0.6806 2.11093,1.02054c-0.05938,0.40162 -3.41308,1.18507 -3.16882,1.91648c0.04247,0.12719 0.32544,0.18891 0.59674,0.33623c0.67783,0.36806 1.74741,0.78613 1.59792,1.19004c-0.05634,0.15221 -0.49821,0.32961 -1.04857,0.76134c-0.81323,0.63794 -2.20728,1.4802 -3.36632,2.35076c-1.02782,0.772 -1.82315,1.58281 -2.57493,2.0463c-0.29111,0.17947 -0.80297,0.21073 -1.0867,0.40534c-0.20902,0.14337 0.15314,0.45893 0.54747,0.89612c0.76091,0.84362 2.42789,2.1644 4.36774,3.57987c0.71,0.51808 1.45657,0.81608 2.20863,1.34076c0.55266,0.38557 1.10831,1.00062 1.6546,1.37221c1.81433,1.23406 3.52553,2.34989 4.68227,3.07483c0.88997,0.55774 1.88723,0.81801 1.88723,0.81801c0,0 -1.9452,-0.17959 -4.75117,-1.13451c-1.13633,-0.38671 -2.47604,-0.83572 -3.78838,-1.55206c-2.98612,-1.66818 -6.0756,-3.91381 -8.26207,-5.64761c-1.20721,-0.95728 -2.06473,-1.83612 -2.55199,-2.29801c-0.17633,-0.16715 -0.6124,-0.31662 -0.46251,-0.56503c0.06533,-0.10827 0.60368,-0.2982 0.7181,-0.4114z" fill="#2b263c" stroke="none" stroke-width="0"/></g><g stroke-linecap="butt"><path d="M293.88329,212.74861l18.40903,-22.58274l22.47273,-8.68136c0,0 0.81489,16.22443 0.64785,20.70138c-0.07243,1.94109 -1.63205,5.67659 -1.63205,5.67659z" fill="#d396fc" stroke="none" stroke-width="0"/><path d="M311.05692,209.23195c0,0 3.65144,-3.65184 5.18547,-5.26244c0.94834,-0.99567 2.80182,-3.12911 3.50772,-3.91629c0.20504,-0.22865 0.08007,0.10541 -0.01463,0.39688c-0.19777,0.6087 -0.50493,1.61895 -0.51587,2.05314c-0.00534,0.21166 -0.0705,1.12025 -0.04051,1.36584c0.00907,0.07431 0.47725,0.11889 0.93979,0.03841c0.53553,-0.09318 1.17683,-0.64935 1.44898,-0.72568c0.54043,-0.15159 -1.98287,0.5314 -1.7964,0.4611c0.60955,-0.22983 1.60024,-0.63054 2.51797,-0.86236c0.33691,-0.0851 0.74126,-0.06878 1.00312,-0.12505c0.91208,-0.19598 3.11406,-0.51009 4.04009,-0.56955c0.36885,-0.02369 0.01793,0.23374 -0.20495,0.52372c-0.29535,0.38426 -0.73345,0.964 -1.17401,1.58252c-0.7466,1.04817 -1.94084,4.66838 -2.34632,4.84332c-2.46905,1.06526 -12.55044,0.19645 -12.55044,0.19645z" fill="#4a5c6f" stroke="#000000" stroke-width="1"/><path d="M291.22746,217.77741l6.34186,-9c0,0 3.05352,-0.46922 5.80892,-0.79172c1.55639,-0.18216 4.71015,-0.41699 7.9551,-0.87339c2.68018,-0.37697 5.30905,-0.96287 8.15511,-1.28434c0.81595,-0.09216 1.62194,-0.27003 2.41,-0.35178c3.35373,-0.34792 6.3829,-0.51078 8.47429,-0.67154c1.81635,-0.13961 2.92537,-0.20905 2.92537,-0.20905l-1.07187,7c0,0 -2.72623,0.60804 -6.60249,1.14575c-2.74439,0.3807 -6.19888,0.59011 -9.07799,1.12654c-3.42318,0.6378 -4.38302,1.48999 -7.62051,2.0701c-0.64983,0.11644 -0.92617,0.59288 -1.53862,0.70105c-0.29935,0.05288 -0.95094,-0.25899 -1.23958,-0.20845c-2.13899,0.37457 -3.9678,0.68205 -5.24885,0.8752c-3.33872,0.50341 -9.67075,0.47163 -9.67075,0.47163z" fill="#000000" stroke="none" stroke-width="0"/><g><path d="M331.14321,218.76035c0,0 0.37081,-2.77501 0.63031,-4.41691c0.36365,-2.3008 0.89815,-5.18404 1.15294,-7.85108c0.29211,-3.05775 0.2043,-5.8313 -0.00313,-7.11715c-0.1236,-0.76625 -0.17973,-1.74615 -0.4057,-2.79964c-0.40483,-1.88746 -1.08339,-4.01115 -1.74207,-5.56557c-1.92588,-4.54485 -4.42226,-7.37464 -4.42226,-7.37464c0,0 7.07518,-2.83415 10.9492,1.37669c0.63263,0.68763 1.41727,6.6699 1.29783,7.86973c-0.18737,1.88228 -0.4839,3.68473 -0.69932,5.10979c-0.62708,4.14838 -3.063,11.896 -4.85627,16.66687c-0.89149,2.37174 -1.90154,4.10192 -1.90154,4.10192z" fill="#2b263c" stroke="#000000" stroke-width="1.5"/><path d="M333.59956,199.13535c0,0 -0.72109,-5.2219 -1.88317,-7.66948c-0.58107,-1.22386 -1.57256,-3.59656 -2.60704,-5.3376c-0.53371,-0.89825 -1.32452,-1.74332 -1.83067,-2.49185c-1.25883,-1.86164 -2.03072,-3.12607 -2.03072,-3.12607l11.17642,-0.5c0,0 0.95949,6.26993 1.41837,10.07049c0.18264,1.51266 0.05981,2.63415 0.04619,2.81345c-0.1612,2.12251 -0.48203,4.49107 -0.48203,4.49107c0,0 -1.29268,0.57981 -1.89157,0.90634c-0.54165,0.29533 -1.91578,0.84366 -1.91578,0.84366z" fill="#1b1f25" stroke="none" stroke-width="0"/></g><g><path d="M276.08205,237.23797c-0.01294,-0.46257 0.38327,-1.34148 0.65143,-2.52582c0.36257,-1.60134 0.69444,-3.76107 1.3733,-6.20507c1.19111,-4.28826 2.69423,-9.45172 3.89579,-14.00969c0.51444,-1.95147 0.67327,-5.03432 0.75418,-6.77416c0.19115,-4.1099 0.11911,-8.59714 0.11911,-8.59714l32.54669,-7.875c0,0 -1.72684,2.13276 -4.28739,5.56907c-0.33918,0.45518 -3.25169,4.00625 -3.80017,4.45427c-0.36165,0.2954 1.62351,-2.52465 1.36588,-2.19553c-0.35459,0.45298 2.00546,-1.79045 1.85976,-1.27681c-0.11229,0.39589 -2.71029,3.54597 -3.02215,3.92896c-1.16428,1.4298 -2.55368,3.32631 -3.87494,4.9039c-2.2027,2.63004 -4.55732,5.41598 -6.8432,8.19275c-1.96809,2.39075 -4.06185,4.7747 -5.96346,7.04653c-1.80893,2.1611 -3.41688,4.44135 -5.14516,6.27858c-1.83638,1.95215 -3.77693,3.43636 -5.12647,4.87806c-0.45068,0.48146 -1.85484,1.22973 -2.64869,2.06494c-1.2233,1.28705 -1.84144,2.60873 -1.85449,2.14217z" fill="#2b263c" stroke="#000000" stroke-width="1.5"/><path d="M276.73497,235.12607v-1.75c0,0 0.41195,-0.25 0.7369,-0.25c0.42547,0 1.59663,0.25 1.59663,0.25v1.25z" fill="#000000" stroke="none" stroke-width="0"/><path d="M282.75304,214.12607c0,0 0.49914,-4.72951 0.80452,-7.16408c0.15714,-1.25285 -0.06393,-3.19106 -0.09253,-5.09128c-0.04489,-2.9816 0.02492,-5.86964 0.02492,-5.86964l30.58161,-3.625c0,0 -1.484,1.5389 -3.44426,3.7577c-0.26938,0.30491 -0.47318,1.16323 -0.94659,1.53288c-0.63878,0.49876 -1.56685,0.89316 -1.90951,1.32977c-0.3756,0.47858 -0.47516,1.91844 -0.77173,2.29638c-2.58988,3.30041 -7.78885,9.58328 -7.78885,9.58328c0,0 -0.94415,0.96784 -2.6168,2.1273c-0.71212,0.49364 -1.51178,0.79467 -2.34441,1.36248c-0.84797,0.57828 -1.73016,1.42398 -2.58891,1.99418c-2.68441,1.78242 -5.13989,3.31578 -5.60614,3.28972c-0.48592,-0.02715 -3.30131,-5.52368 -3.30131,-5.52368z" fill="#1b1f25" stroke="none" stroke-width="0"/></g><path d="M315.40895,196.67688c0,0 4.24674,-2.10703 5.83279,-2.95983c1.20721,-0.6491 3.35314,-1.5478 3.35314,-1.5478c0,0 1.2136,0.7752 1.8333,0.83005c0.6374,0.05641 1.77546,0.0047 1.77546,0.0047c0,0 0.08608,1.31081 -0.2128,3.13594c-0.22918,1.39951 -1.26351,3.87593 -1.26351,3.87593z" fill="#ffc6ef" stroke="none" stroke-width="0"/><path d="M308.5559,213.95922c-0.15911,-0.27422 0.12973,-0.4906 0.18444,-1.04463c0.03629,-0.36753 0.18057,-0.7904 0.23736,-1.20634c0.09588,-0.70213 0.10768,-1.38452 0.13316,-1.74765c0.03134,-0.4466 0.0046,-1.1494 0.42338,-1.21218c0.4353,-0.06526 1.08414,-0.3139 2.42983,-0.50635c1.30165,-0.18616 2.86373,-0.10533 4.29515,-0.27121c0.97233,-0.11267 1.88436,-0.44383 2.61354,-0.57874c0.99707,-0.18447 1.65227,-0.16018 1.65227,-0.16018c0,0 -0.5504,1.12772 -0.71735,1.79429c-0.2101,0.83891 -0.44385,2.84207 -0.44385,2.84207c0,0 -1.176,0.27283 -2.45846,0.65603c-0.96141,0.28726 -1.94354,0.67638 -2.7497,0.84047c-0.75374,0.15342 -1.93625,0.14126 -3.00477,0.27083c-0.34206,0.04148 -0.76177,0.03176 -1.06267,0.10779c-0.31209,0.07886 -0.50314,0.24308 -0.7319,0.2608c-0.38338,0.02969 -0.64136,0.22922 -0.80047,-0.045z" fill="#fead41" stroke="none" stroke-width="0"/></g><path d="M332.19511,182.36595l-5.93216,-13.35221l24.55903,-6.25109c0,0 15.41647,8.53255 14.1938,11.2398c-1.26686,2.80509 -3.43031,6.85992 -5.30272,9.96877c-1.94994,3.23758 -5.12256,6.53734 -5.63084,6.43635c-7.05113,-1.40099 -21.88713,-8.04162 -21.88713,-8.04162z" fill="#1b1f25" stroke="#000000" stroke-width="1.5" stroke-linecap="butt"/><g stroke-linecap="butt"><path d="M320.69945,169.61994c0,0 1.64323,-2.07265 2.99421,-4.74478c1.03841,-2.05388 1.65319,-4.49757 2.74896,-6.40873c0.25374,-0.44253 -0.62553,-2.03344 -0.87977,-2.92889c-0.0771,-0.27157 0.25829,-0.83298 0.45331,-0.99643c0.61997,-0.5196 1.66119,-0.65183 2.81578,-1.39147c0.17118,-0.10966 0.32991,-0.83686 0.53227,-0.97544c0.31986,-0.21902 0.66041,-0.43701 0.96404,-0.53645c0.86059,-0.28187 1.04693,-0.07632 1.94298,-0.21418c2.0809,-0.32014 4.24375,-0.66823 5.54038,-0.82859c0.61887,-0.07653 1.28049,0.35667 1.381,0.94868c0.10779,0.63492 0.56018,1.17953 1.16494,1.93282c1.04762,1.30494 2.89356,2.55312 3.61473,2.14065c1.13927,-0.65162 1.35762,7.95483 1.35762,7.95483c0,0 -5.57247,0.86384 -5.83259,1.65605c-0.702,2.13802 -0.24878,4.64113 -0.41828,6.40335c-0.17282,1.79694 -1.46813,3.49565 -1.79301,4.2816c-0.64087,1.55033 -3.57894,2.39993 -3.57894,2.39993z" fill="#d396fc" stroke="#000000" stroke-width="1.5"/><path d="M329.54696,155.66057l-1.96513,-0.87364c0,0 1.64061,-1.8741 2.10264,-2.15447c0.27691,-0.16803 0.53145,-0.4763 0.8268,-0.57175c0.28622,-0.0925 0.49737,0.06288 0.70484,0.07103c0.33657,0.01324 0.75144,0.06877 1.83481,-0.12589c0.81247,-0.14598 4.59701,-1.05735 4.84458,-0.98295c0.53649,0.16125 0.9478,1.1461 1.28048,1.6978c0.54282,0.90019 0.58071,1.5561 1.16827,1.78862c0.81455,0.32234 1.80163,0.78376 1.80163,0.78376c0,0 0.1706,-0.80466 0.56437,1.33123c0.3761,2.04008 0.62797,5.73998 0.62797,5.73998c0,0 -4.24218,-1.77478 -4.93134,-1.64578c-0.91938,0.17209 -3.08315,2.46347 -3.08315,2.46347c0,0 -1.0122,-0.19793 -1.22481,-0.97749c-0.32949,-1.20822 0.07292,-3.21243 -0.05666,-3.39122c-0.74841,-1.0326 6.36998,-1.36338 5.02778,-2.47037c-0.4717,-0.38905 -0.74069,-1.21653 -1.29289,-1.50839c-0.16354,-0.08644 -0.86205,0.77433 -1.75577,1.46554c-0.63875,0.49402 -1.54514,0.89422 -1.65791,0.83323c-0.38177,-0.20645 -0.80314,-1.07359 -1.15395,-1.25797c-0.62132,-0.32655 -0.94388,-0.24708 -1.42963,-0.49327c-0.57175,-0.28977 -1.0276,-0.51146 -1.31579,-0.63585c-0.69844,-0.30146 -0.91714,0.91437 -0.91714,0.91437z" fill="#ffc6ef" stroke="none" stroke-width="0"/><path d="M327.67172,160.21245c0,0 -0.68581,-1.78061 -0.3899,-2.57731c0.21608,-0.58179 0.92429,-0.49588 1.5263,-1.46639c0.8727,-1.40691 1.60478,-4.17297 1.60478,-4.17297l1.8128,-0.28603c0,0 -0.36527,0.91887 -0.78821,2.04461c-0.25274,0.67273 -0.46285,1.46109 -0.80334,2.05553c-0.65685,1.14673 -1.44743,1.32721 -1.81329,1.98059c-0.54536,0.97397 -1.14916,2.42198 -1.14916,2.42198z" fill="#000000" stroke="none" stroke-width="0"/><path d="M329.50055,162.30047c-0.09588,-0.29928 -0.30408,-1.02391 -0.10858,-1.926c0.26488,-1.2222 1.55876,-2.8151 2.32727,-4.34454c0.52504,-1.04489 0.51882,-2.00729 1.3351,-2.84868c0.78362,-0.80773 1.80025,-0.8537 2.96349,-1.18379c1.47391,-0.41825 3.03609,-1.00501 3.03609,-1.00501l0.84271,2.03908c0,0 -4.88196,0.97325 -5.58307,1.7546c-0.48633,0.54199 -0.79807,1.42723 -1.31376,2.57924c-0.22199,0.4959 -2.3382,2.17409 -2.55817,2.70052c-0.08565,0.20498 -0.18409,1.05005 -0.05321,1.71706c0.10448,0.53249 0.43184,0.8741 0.46702,1.25254c0.01488,0.16004 -0.26854,0.26886 -0.60195,0.1021c-0.30987,-0.15499 -0.66748,-0.57023 -0.75297,-0.83713z" fill="#000000" stroke="none" stroke-width="0"/><path d="M332.57265,163.37722c0,0 0.52818,-0.91224 0.79016,-2.02087c0.07205,-0.30492 0.06212,-0.60561 0.12785,-0.91927c0.17488,-0.83463 0.29169,-1.63963 0.39655,-2.14088c0.0559,-0.26721 0.66293,-0.73674 1.20689,-0.88359c1.81178,-0.48911 5.32014,-1.12039 5.69661,-1.1682c0.58333,-0.07407 1.78972,1.17132 1.78972,1.17132l-0.22244,1.40652c0,0 -1.00522,-1.41795 -1.49228,-1.15697c-0.40236,0.21561 -5.41822,1.03052 -5.89684,1.40007c-0.23996,0.18529 -0.13874,3.10983 -0.81233,3.60698c-0.89058,0.65731 -1.58386,0.70488 -1.58386,0.70488z" fill="#000000" stroke="none" stroke-width="0"/></g><g stroke-linecap="butt"><path d="M251.727,161.96975c-0.24543,-0.93718 9.2503,-9.96445 12.80383,-13.17907c2.53063,-2.2893 6.69806,-5.94942 10.32579,-8.74769c3.15033,-2.43001 5.95797,-3.96447 6.72344,-4.1879c8.29489,-2.42129 16.6379,20.18309 16.6379,20.18309l17.066,28.90154c0,0 -5.58609,6.63502 -13.28011,12.52046c-3.28907,2.51593 -9.35404,12.72941 -11.56094,12.06136c-2.24222,-0.67873 -8.60511,-6.0977 -13.43327,-11.68351c-4.1506,-4.80189 -8.65399,-11.30065 -12.24062,-17.26554c-1.89467,-3.15102 -3.08898,-6.12983 -4.81074,-8.68153c-2.13618,-3.16587 -3.41112,-3.77414 -4.96562,-5.388c-1.35066,-1.40225 -3.11853,-3.97149 -3.26563,-4.53323z" fill="#1b1f25" stroke="#000000" stroke-width="1.5"/><path d="M282.26732,178.73133c0,0 -2.0285,-1.757 -3.35878,-4.45545c-1.33238,-2.70275 -2.71949,-6.29894 -4.3914,-9.56797c-2.02374,-3.95694 -4.37717,-7.46009 -6.42377,-8.64961c-4.05,-2.35396 -15.47638,5.43949 -15.47638,5.43949c0,0 12.41567,-12.53528 17.99133,-17.16958c3.96222,-3.29326 12.58157,-8.5186 12.58157,-8.5186l22.31673,41.86756c0,0 -8.89046,-1.88117 -15.1941,-1.52891c-3.99628,0.22332 -8.0452,2.58308 -8.0452,2.58308z" fill="#2b263c" stroke="none" stroke-width="0"/></g><g stroke-linecap="butt"><path d="M298.5562,186.78281c0,0 0.12314,0.67146 -0.11714,-6.58688c-0.03582,-1.08187 -0.74422,-3.89394 -2.6409,-6.13545c-1.33218,-1.57441 -3.29651,-2.84681 -4.24559,-3.83696c-0.16765,-0.17491 -5.13424,-1.90003 -5.22945,-2.05742c-0.08555,-0.14144 3.87017,1.61116 5.07184,1.87575c0.28766,0.06334 -0.39661,-0.7807 -0.39514,-0.81042c0.10803,-2.18266 1.27237,-7.13184 2.01346,-10.42845c0.33414,-1.48639 0.76957,-2.5216 0.6573,-3.01632c-0.26867,-1.18413 -12.14311,-3.63277 -12.30345,-4.56334c-1.17553,-6.82303 0.65932,-17.2033 1.2873,-17.59109c0.67097,-0.41434 9.04624,5.94088 13.18293,10.59564c3.65671,4.11467 7.28992,9.28164 11.22176,16.08851c4.6858,8.11213 7.95568,17.88463 7.95568,17.88463z" fill="#2b263c" stroke="#000000" stroke-width="1.5"/><path d="M297.45797,178.60153c0.01923,-0.49754 -1.79478,-4.84712 -4.61908,-7.31525c-0.65805,-0.57507 -2.23896,-1.06484 -2.94026,-1.47856c-2.56621,-1.51391 -4.22819,-1.67124 -4.21691,-1.98812c0.15094,-4.24334 0.29203,-11.57559 0.29203,-11.57559l-9.66617,-1.87712l3.8977,-17.10962l2.30753,-1.06367l1.64218,11.44998l14.00232,5.25105l-3.69626,15.55887c0,0 2.79357,2.30313 4.76217,5.04021c1.52733,2.12358 2.72753,4.70992 3.30148,6.59315c0.81239,2.66563 0.78101,7.47577 0.78101,7.47577c0,0 -6.12537,-1.77252 -5.84772,-8.9611z" fill="#1b1f25" stroke="none" stroke-width="0"/><path d="M298.5562,186.78281c0,0 0.12313,0.67146 -0.11714,-6.58687c-0.03582,-1.08185 -0.74422,-3.89394 -2.64089,-6.13547c-1.3346,-1.57727 -3.3036,-2.8514 -4.25072,-3.84231c-0.07524,-0.07874 -4.93242,-1.75098 -5.14077,-1.99707c-0.14153,-0.16718 1.5924,-4.60031 2.44952,-7.19229c0.26587,-0.80402 0.53042,-2.34806 0.52226,-2.35961c-0.01761,-0.02493 -0.0616,1.1201 -0.50235,2.39202c-0.9436,2.72314 -2.66163,6.84471 -2.48722,7.05753c0.54833,0.66916 3.76959,1.59381 4.63872,1.84846c0.53007,0.15531 -0.02831,-0.72539 -0.0278,-0.73577c0.10803,-2.18266 1.27238,-7.13184 2.01346,-10.42846c0.33414,-1.48639 0.76956,-2.52159 0.6573,-3.01631c-0.15334,-0.6758 -4.06589,-2.1402 -7.44459,-3.12247c-2.54153,-0.73889 -4.79001,-1.04137 -4.85884,-1.44086c-1.17553,-6.82303 0.65932,-17.20331 1.2873,-17.59109c0.67097,-0.41434 9.04623,5.94088 13.18293,10.59564c3.65671,4.11466 7.28991,9.28164 11.22174,16.08851c4.6858,8.11213 7.95571,17.88465 7.95571,17.88465z" fill="none" stroke="#000000" stroke-width="1.5"/></g><g stroke-linecap="butt"><path d="M292.57911,210.42158c-1.64815,0.22001 -7.37421,-3.79958 -8.49335,-5.8775c-1.47418,-2.73709 0.47126,-8.6095 0.47126,-8.6095c0,0 0.45218,-4.6272 1.93834,-8.50519c1.07909,-2.8158 3.01461,-5.0284 4.20837,-5.79754c0.63069,-0.40635 2.49188,-0.31379 4.59467,-0.5648c3.41922,-0.40814 7.59985,-1.3784 9.788,-2.3062c3.12068,-1.32322 5.93151,-2.80482 8.50988,-4.70106c1.93873,-1.42582 4.16435,-3.32332 6.2047,-4.3913c0.23407,-0.12251 8.30837,-2.03681 12.43389,5.96388c1.11391,2.16024 1.63834,5.72567 -0.03886,8.32602c-1.20271,1.86469 -3.34921,4.33453 -6.48955,6.38315c-4.75658,3.10298 -10.74745,5.46727 -14.43999,6.9571c-2.13787,0.86257 -3.44969,1.58902 -3.44969,1.58902c0,0 -1.26765,1.67033 -2.50322,2.88691c-1.52483,1.5014 -3.52547,3.15938 -3.66348,3.2662c-4.17508,3.23186 -7.06651,5.1132 -9.07097,5.38079z" fill="#1b1f25" stroke="#000000" stroke-width="1.5"/><path d="M285.18897,195.59146c0,0 -0.0413,-9.62609 5.70165,-13.50321c0.70471,-0.47575 13.44962,-2.01654 14.45927,-2.57264c1.70318,-0.93809 6.54894,-2.8773 10.35267,-6.03346c1.41433,-1.17354 3.56322,-3.2641 4.34793,-3.30451c2.60388,-0.13407 6.25322,-0.07608 8.74194,2.04166c1.68236,1.43158 2.79555,3.3715 3.29823,5.06376c0.75191,2.53142 0.37246,4.63136 0.37246,4.63136c0,0 -2.03965,-4.4841 -2.91308,-6.09073c-0.58991,-1.08509 -1.81938,-2.6144 -1.81938,-2.6144c0,0 -17.0897,12.10499 -24.85448,16.19416c-0.11705,0.06163 -8.03067,-2.13902 -11.30309,-0.96881c-3.58789,1.28303 -6.38409,7.15677 -6.38409,7.15677z" fill="#2b263c" stroke="none" stroke-width="0"/><path d="M291.26097,209.27725c0,0 -6.80174,-4.6917 -8.18497,-5.77775c-0.51308,-0.40286 -3.94007,-4.61558 -3.94007,-4.61558l3.45306,-3.68294c0,0 0.33641,-4.23477 1.50111,-3.41657c0.15312,0.10757 -0.18657,1.81731 -0.13947,2.54859c0.02392,0.37136 -0.03537,0.9279 0.1052,1.40192c0.23138,0.78035 0.69706,1.43974 0.69706,1.43974c0,0 0.40861,-1.90749 0.5465,-1.73692c2.06352,2.55242 7.43819,12.95014 7.43819,12.95014z" fill="#1b1f25" stroke="none" stroke-width="0"/><path d="M283.23456,194.09952c0,0 -1.67912,-3.94504 0.41689,-8.24776c0.72995,-1.49845 2.41732,-3.26947 3.89773,-4.53131c1.35969,-1.15894 2.55003,-1.87358 2.55003,-1.87358c0,0 -3.85879,4.29109 -5.05764,7.65601c-0.83297,2.33797 -0.54924,6.57652 -0.54924,6.57652z" fill="#000000" stroke="none" stroke-width="0"/></g><g><g><g><g stroke-linecap="butt"><path d="M337.01109,176.06126c-0.86696,-4.66112 0.69052,-7.50347 0.12255,-10.34351c-0.4969,-2.4846 -1.43799,-6.51678 -2.35339,-10.32229c-0.19968,-0.83009 -5.88308,-2.91805 -6.07543,-3.70816c-0.32862,-1.34978 1.92847,-4.07054 2.46554,-4.97169c1.08317,-1.81746 1.19853,-1.12814 1.19853,-1.12814l20.67717,0.04313c0,0 0.95337,1.48608 2.12639,4.51773c1.04231,2.69389 2.26473,6.87512 3.04419,8.26715c0.50354,0.89925 2.22215,3.72715 2.70083,4.56802c2.63347,4.6261 7.37818,8.9826 7.33986,9.61758c-0.05636,0.9343 -0.67867,1.90838 -1.27707,3.1052c-2.01421,4.02852 -6.13335,9.32807 -9.21714,12.24912c-1.25792,1.19154 -2.51237,1.95254 -3.06567,2.23789c-3.66538,1.89043 -14.48679,-8.50636 -17.03548,-12.72336c-0.24816,-0.4106 -0.61041,-1.1911 -0.65086,-1.40866z" fill="#1b1f25" stroke="#000000" stroke-width="1.5"/><path d="M356.63324,176.37822c0,0 -0.0363,-2.78131 -0.54978,-4.34486c-0.98305,-2.99341 -4.92037,-12.31188 -4.92037,-12.31188c0,0 1.37915,-3.45191 1.83675,-5.2174c0.44339,-1.71066 1.06954,-5.30894 1.06954,-5.30894c0,0 2.92781,8.24928 3.00113,9.06598c0.09205,1.02544 1.53085,1.95359 1.74718,3.09397c0.1053,0.55521 0.85783,0.65872 1.0305,1.23477c0.35857,1.19618 1.47012,2.12431 2.62065,3.58726c2.17577,2.76661 4.79419,6.04709 4.85391,6.84112c0.017,0.22608 -0.61312,1.91153 -1.68607,3.65523c-1.46398,2.3792 -3.49848,4.96112 -3.49848,4.96112c0,0 0.50924,-5.04036 0.55361,-6.43207c0.02283,-0.7159 -0.00284,-1.47895 -0.00284,-1.47895z" fill="#2b263c" stroke="none" stroke-width="0"/><path d="M366.29354,172.98744c0,0 -1.38138,-1.46502 -3.22879,-3.37449c-0.25555,-0.26412 -0.79278,-0.65652 -1.25482,-0.80182c-0.7674,-0.24131 -1.49019,-0.15623 -1.56714,-0.27993c-0.75188,-1.20855 -1.83071,-4.32254 -2.46106,-6.41203c-0.86073,-2.85312 -4.44708,-14.72625 -4.44708,-14.72625c0,0 3.21933,5.64333 3.47991,5.80386c0.42653,0.26275 2.03304,5.52559 2.03304,5.52559c0,0 0.59202,1.64185 1.22204,3.30004c0.02762,0.07266 -1.91318,-1.75191 -1.38183,-2.41045c0.43254,-0.53607 1.98412,3.91211 2.08422,4.17557c0.49911,1.31362 1.13926,3.50857 1.13926,3.50857c0,0 1.53485,0.74761 1.86826,1.19547c0.71922,0.96616 2.51398,4.4959 2.51398,4.4959z" fill="#000000" stroke="none" stroke-width="0"/></g><path d="M335.49803,155.43207c0,0 3.49587,0.51266 4.07557,0.97376c0.44663,0.35527 -0.89125,1.55913 -0.89125,1.55913" fill="none" stroke="#000000" stroke-width="1.5" stroke-linecap="round"/><path d="M349.32866,141.68539c0.7716,2.60346 -1.7866,5.65756 -5.71387,6.82147c-3.92727,1.16391 -8.32826,0.34619 -9.09985,-2.25729c-0.7716,-2.60346 2.37841,-6.00679 6.30567,-7.17071c3.92727,-1.16391 7.73644,0.00306 8.50804,2.60652z" fill="#565b84" stroke="#000000" stroke-width="1.5" stroke-linecap="butt"/></g><path d="M355.07839,146.1826c-0.7072,0.29558 -4.01096,1.45154 -4.5988,1.21401c-1.15474,-0.46661 -11.99463,-8.46582 -9.70158,-9.42425c1.47772,-0.61765 7.72282,-2.51365 12.32791,-2.37077c0.86439,0.0268 0.98697,-0.36381 1.65584,1.26743c0.59008,1.43906 1.35136,3.77716 1.52763,5.50781c0.21126,2.07415 -0.28327,3.45599 -1.10804,3.80071z" fill="#afcad3" stroke="#000000" stroke-width="1.5" stroke-linecap="butt"/><path d="M352.0308,140.3513c1.69055,4.04468 -1.63945,9.04762 -7.37207,11.44367c-5.73261,2.39606 -11.76063,0.38652 -13.45119,-3.65815c-1.69055,-4.04468 -1.44171,-8.40678 4.29091,-10.80284c4.62522,-1.93319 11.26746,-5.09529 14.61766,-2.72477c0.80212,0.56757 1.58305,4.8578 1.90962,5.63912z" fill="#afcad3" stroke="#000000" stroke-width="1.5" stroke-linecap="butt"/></g><path d="M349.81612,142.8512c0.17031,3.46223 -2.83133,6.42336 -6.70433,6.61387c-3.87301,0.19051 -7.15075,-2.46173 -7.32106,-5.92397c-0.17031,-3.46223 2.83132,-6.42337 6.70432,-6.61388c3.87301,-0.19051 7.15076,2.46174 7.32107,5.92398z" fill="#5c628d" stroke="#000000" stroke-width="1" stroke-linecap="butt"/></g><g stroke-linecap="butt"><path d="M310.4854,124.98913c-0.91085,-0.18867 -1.82065,-0.53773 -2.15239,-0.62468c-1.28175,-0.33593 -0.87226,-0.69796 -1.78138,-0.86779c-1.84097,-0.34391 -3.43957,-0.20792 -5.01559,-0.5543c-1.36452,-0.29989 -2.66474,-0.64356 -3.96126,-1.10526c-0.45241,-0.1611 -3.18979,-1.76021 -3.6058,-1.91923c-0.34125,-0.13045 -1.23493,-0.09633 -1.52968,-0.77923c-0.25764,-0.5969 -1.36783,-3.97871 -1.73611,-4.96085c-0.30902,-0.82412 -0.79743,-1.68275 -1.27674,-2.50458c-1.32084,-2.2648 -2.72196,-4.58106 -3.55108,-5.72013c-0.33697,-0.46295 -0.32795,-1.33842 -0.38157,-1.34171c-1.96224,-0.12113 -3.35568,4.89552 -5.05565,4.29371c-2.79985,-0.99115 -5.49923,-4.07184 -7.68422,-7.21649c-0.8188,-1.17843 -1.45837,-2.3816 -2.09571,-3.47364c-0.56593,-0.96971 -1.15645,-1.84789 -1.47232,-2.60177c-0.33714,-0.80466 -0.43312,-1.578 -0.47213,-1.94443c-0.08797,-0.82598 0.92635,-0.9208 2.19603,-0.5836c1.33135,0.3536 2.9522,1.15579 4.26319,0.91804c1.09049,-0.05588 1.08566,-0.41272 1.08566,-0.41272c0,0 7.97857,-14.68081 15.10412,-19.34274c7.40487,-4.8447 28.51936,-9.19824 28.51936,-9.19824c0,0 -0.27054,2.11911 -0.03314,4.06843c0.1051,0.86301 0.24794,1.41728 0.35075,2.05021c0.0499,0.30724 -0.04294,1.26946 0.2261,1.4095c0.3866,0.20127 3.30777,1.93984 3.35361,2.08653c0.62234,1.991 0.10376,6.28123 0.68858,8.00819c0.66718,1.97022 0.61483,2.71753 1.04421,4.3927c0.51741,2.01873 0.89543,4.58227 1.17963,7.26307c0.38313,3.61395 0.40616,10.06838 0.55993,13.06106c0.1524,2.96591 0.43661,2.48491 0.58206,2.79226c0.12655,0.30766 1.51619,1.85061 1.71857,2.1853c0.2445,0.40435 1.15283,1.44119 1.67524,2.56341c0.5739,1.23284 1.35194,2.75893 1.04338,3.26037c-0.07893,0.12829 -1.76468,0.90204 -3.61319,1.93414c-2.05495,1.14739 -4.36003,2.57794 -5.91807,3.03244c-3.00452,0.87649 -10.56146,2.00555 -10.71643,1.98452c0,0 -0.87833,-0.01589 -1.53797,-0.15253z" fill="#ffc6ef" stroke="#000000" stroke-width="2"/><path d="M285.80285,97.87743l-4.52953,-13.31756c0,0 28.65703,-14.60972 37.46013,-16.58185c0.29982,-0.06717 0.16534,2.8018 0.41819,2.75802c0.76771,-0.13297 -4.25993,5.83652 -3.87177,5.81739c0.6067,-0.02988 0.35162,1.89777 0.42098,3.7023c0.04814,1.25225 0.49307,2.58449 0.49307,2.58449c0,0 1.66925,-1.74006 2.60533,-2.87455c1.20182,-1.45656 3.86834,-4.95329 3.86834,-4.95329c0,0 0.45979,0.23923 0.52581,0.68081c0.17896,1.19699 0.74718,6.69908 0.74718,6.69908c0,0 1.70562,9.88957 1.83683,12.62079c0.20835,4.33712 0.20043,10.25718 0.20043,10.25718c0,0 -1.39231,-0.11044 -1.96239,0.85956c-0.46659,0.7939 -1.58936,2.64862 -2.21907,4.36209c-0.58456,1.59063 -0.69494,3.07558 -0.69494,3.07558c0,0 -2.35749,0.49756 -2.72036,-1.61807c-0.45788,-2.66955 1.09363,-8.23055 1.54448,-10.03402c0.2764,-1.10565 1.0705,-1.51793 1.81273,-2.44251c0.86191,-1.07368 1.66351,-2.57541 1.65491,-2.5232c-0.08691,0.52703 -0.88451,-0.34031 -1.5477,-0.20536c-1.20209,0.24458 -2.54552,1.17245 -2.54552,1.17245c0,0 -1.12672,-0.89399 -1.53471,-1.90527c-0.84393,-2.09181 -3.25751,-9.97302 -3.25751,-9.97302l-2.27072,5.55395c0,0 1.12496,2.38182 1.74387,3.56574c0.64836,1.24026 2.06204,3.7147 2.06204,3.7147c0,0 -8.33174,4.54009 -11.84653,5.85617c-3.11717,1.1672 -2.03102,-2.12548 -4.32262,-1.75261c-0.43948,0.07151 4.50258,-1.11047 6.70291,-2.58996c1.56471,-1.05211 0.65082,-2.55197 0.34492,-2.52034c-6.08768,0.62932 -10.64638,-2.96239 -13.52884,-2.53807c-3.54712,0.52216 -7.58991,2.54942 -7.58991,2.54942z" fill="#d396fc" stroke="none" stroke-width="0"/><path d="M303.79249,86.54821c-0.83861,-1.21087 -4.08827,-6.89182 -4.08827,-6.89182c0,0 5.72527,0.28795 8.13223,-0.05121c1.95504,-0.27547 5.23772,-1.8327 5.23772,-1.8327c0,0 0.54446,0.47671 0.26024,1.50376c-0.28992,1.04762 -1.40662,2.6524 -1.19709,3.31912c0.44353,1.41119 3.51812,3.3899 3.51812,3.3899c0,0 -2.86434,0.62633 -5.51877,0.7591c-1.51776,0.07593 -2.67322,-0.33624 -3.92746,-0.29347c-1.28161,0.04371 -2.33263,0.21872 -2.41674,0.09728z" fill="#ffc6ef" stroke="none" stroke-width="0"/><path d="M272.45169,98.98152c0,0 -0.43847,-0.42565 0.44995,-0.79671c0.14418,-0.06021 0.44387,-0.11819 0.77566,-0.05236c1.97292,0.39151 6.77192,2.69294 6.77192,2.69294c0,0 -1.04327,-1.7262 -1.46007,-2.5721c-0.39367,-0.79897 -0.97531,-2.37056 -0.97531,-2.37056l13.96671,9.00604l1.32408,5.52228c0,0 2.41888,-0.16594 3.02619,-1.12327c1.14868,-1.81072 0.90808,-4.96877 1.33695,-4.76365c0.48161,0.23035 5.20541,13.72853 5.20541,13.72853c0,0 3.16833,2.46678 5.04691,2.80106c1.91671,0.34105 8.78657,2.34299 8.78657,2.34299c0,0 -1.88911,0.71545 -2.83045,0.91124c-0.87059,0.18109 -2.52285,0.46101 -2.52285,0.46101c0,0 -2.12471,-0.19348 -3.63973,-0.13286c-0.57875,0.02316 -1.57434,-0.11571 -2.28044,-0.07581c-1.1239,0.0635 -4.23701,-0.23358 -4.95215,-0.51612c-0.0707,-0.02793 -7.11604,-5.1752 -7.12658,-5.18258c-0.75139,-0.52687 -1.94596,-5.24414 -3.43156,-7.86133c-1.45876,-2.56996 -2.52882,-5.20495 -3.749,-6.32133c-0.37307,-0.34132 -0.88904,-1.04917 -1.1714,-1.06267c-0.54786,-0.02621 -1.63617,1.32129 -2.39356,2.2148c-0.88646,1.04575 -1.53068,2.34544 -2.10439,2.15838c-1.45457,-0.59894 -3.1417,-2.20392 -4.53152,-3.68233c-2.0056,-2.1334 -3.52139,-5.32557 -3.52139,-5.32557z" fill="#d396fc" stroke="none" stroke-width="0"/><path d="M276.0035,93.65757c-1.01063,-1.4724 -2.83591,-4.29685 -4.50296,-7.21203c-1.96596,-3.43789 -4.20464,-7.40534 -5.14636,-9.18457c-0.21849,-0.41281 -0.35866,-1.81801 0.0634,-2.13347c0.95513,-0.71386 3.00704,-2.22471 4.59462,-3.30541c0.27758,-0.18895 0.5916,-0.11586 0.8169,-0.25913c0.21894,-0.13922 -0.07947,-0.28635 0.14143,-0.42513c4.22053,-2.65135 9.35176,-5.57138 9.35176,-5.57138c0,0 11.37638,5.96143 11.68958,10.01943c0.28033,3.63245 -9.84084,13.43706 -9.84084,13.43706c0,0 1.71359,2.84842 2.50663,4.34962c0.75356,1.42651 2.26171,4.41653 2.26171,4.41653c0,0 -0.40859,1.20765 -0.28698,1.74054c0.21805,0.9556 0.87308,1.91487 1.41412,2.5806c0.43573,0.53613 0.44235,0.57048 -0.07972,0.26443c-1.4499,-0.85 -4.4081,-2.59787 -6.06934,-3.67482c-1.09381,-0.70909 -2.03362,-1.20768 -3.37279,-2.15354c-0.57601,-0.40685 -0.49095,-0.92457 -0.90858,-1.22298c-0.15993,-0.11428 -0.35517,-0.59612 -0.73927,-0.77695c-0.26234,-0.12353 -0.71299,0.05361 -0.9056,-0.04763c-0.53744,-0.28245 -0.64793,-0.43848 -0.87778,-0.77333z" fill="#4a5c6f" stroke="#000000" stroke-width="2"/><path d="M287.75351,78.98432c-0.08467,-0.12871 -0.76201,-0.0771 -1.63285,-0.15626c-2.58296,-0.23479 -7.72291,-0.42088 -9.84714,-0.59676c-0.84366,-0.06985 -0.61757,0.10381 -0.21362,-0.39985c0.9615,-1.19893 6.16991,-7.16698 6.16991,-7.16698c0,0 -4.84615,-1.77981 -6.85878,-4.32483c-4.34026,-5.48839 -3.22198,-8.81286 -3.02125,-9.62477c0.07989,-0.32316 0.93024,-2.15498 2.22711,-3.75591c0.91339,-1.12756 2.06771,-2.05783 3.14958,-3.03463c2.05837,-1.8585 5.62998,-3.8859 6.92151,-4.68161c0.62685,-0.38621 0.02619,0.2564 -0.25816,1.02575c-0.82793,2.24019 -2.81422,6.56332 -1.9599,7.61634c0.45096,0.55584 1.69937,1.21734 2.76938,2.03421c0.7827,0.59753 1.93364,1.3417 3.17936,1.88452c0.90316,0.39355 2.1589,0.21543 3.68855,-0.08906c6.46229,-1.28642 17.17054,-7.56283 20.36393,-10.05272c0.3191,-0.24878 -1.06154,-4.66954 -0.91655,-4.72619c0.65139,-0.25453 15.31868,7.00733 12.50792,17.14795c-1.06089,3.8275 -3.79385,7.52881 -7.62192,10.06097c-7.45023,4.92812 -17.67024,6.63504 -17.67024,6.63504c0,0 -4.95388,4.4604 -9.15981,7.8236c-2.37783,1.90137 -4.52421,3.41954 -5.29804,4.02159c-0.63027,0.49036 -1.7359,1.06473 -1.6013,0.30339c0,0 0.42457,-0.91384 0.94107,-1.8606c1.0568,-1.93712 2.80036,-5.02859 3.44246,-6.63023c0,0 0.77584,-1.33577 0.69877,-1.45291z" fill="#4a5c6f" stroke="#000000" stroke-width="2"/><path d="M293.86568,69.09456c0,0 -15.16081,1.35983 -17.75611,-9.60779c-0.60619,-2.56176 -0.46101,-2.98774 -0.09775,-4.28317c1.42328,-5.07584 7.2567,-8.4666 7.2567,-8.4666c0,0 -2.47806,5.57066 -2.07889,6.96478c0.29776,1.03988 5.187,4.88998 6.81041,5.13896c1.76633,0.2709 3.9615,-0.22928 6.36008,-0.9242c7.47307,-2.1651 16.58823,-7.63373 18.14174,-9.11718c0.2327,-0.22222 0.82071,-0.90884 0.84915,-1.56443c0.05411,-1.24777 -0.83518,-2.80587 -0.83518,-2.80587c0,0 3.04913,1.8436 4.35062,2.85545c1.48856,1.15731 4.40427,4.10979 4.40427,4.10979c0,0 -4.42617,8.34727 -12.39855,11.17167c-3.72889,1.32103 -7.14116,2.16102 -9.94197,2.39721c-2.75571,0.2324 -4.93538,-0.3176 -6.68458,-0.63812c-2.83053,-0.51865 -4.39307,-1.02316 -4.39307,-1.02316c0,0 0.94909,1.248 1.66491,1.94616c1.0729,1.04644 4.34824,3.84654 4.34824,3.84654z" fill="#696f96" stroke="none" stroke-width="0"/><path d="M282.42795,70.96228l0.09596,-1.03069c0,0 2.00609,-0.21314 3.36691,0.16347c0.98859,0.2736 1.62209,0.74771 1.46058,1.07597c-0.20427,0.41519 -1.42078,0.17119 -2.55781,0.01395c-0.47769,-0.06606 -1.00387,-0.30998 -1.40577,-0.34505c-0.58638,-0.05119 -0.95986,0.12237 -0.95986,0.12237z" fill="#000000" stroke="none" stroke-width="0"/><path d="M277.98316,72.57462l-0.34346,-1.46067c0,0 1.39803,-0.21158 2.4882,-0.4152c0.68148,-0.12728 1.2287,-0.31079 1.28191,-0.25454c0.50044,0.52915 -2.25697,2.26966 -2.25697,2.26966z" fill="#4a5c6f" stroke="none" stroke-width="0"/><path d="M277.68573,94.30682l-1.81853,-2.93873l10.7507,6.56016c0,0 -0.29766,0.8345 -0.21244,1.25594c0.10353,0.51198 0.78943,1.59755 0.78943,1.59755z" fill="#4a5c6f" stroke="none" stroke-width="0"/><path d="M283.70732,99.73585l-0.42799,-1.02093l1.24737,-0.28955l0.33304,1.4164z" fill="#000000" stroke="none" stroke-width="0"/><path d="M279.36433,100.90997c0,0 -0.32711,-0.30685 -0.82632,-0.59647c-0.55953,-0.32461 -1.39153,-0.63333 -1.87938,-0.9156c-0.50743,-0.29358 -1.35254,-0.73723 -2.03927,-1.14686c-0.79849,-0.47628 -1.04576,-0.61808 -1.04576,-0.61808c0,0 0.40172,-0.00058 1.04273,0.16587c0.37179,0.09654 0.77762,0.26003 1.35314,0.48439c1.51176,0.5893 3.376,1.45244 4.80277,2.29627c1.81387,1.07281 2.95849,1.9758 2.17482,3.11687c-0.40862,0.59497 -0.64102,0.45324 -1.04651,0.3535c-0.40987,-0.10081 -0.7444,-0.40262 -1.11487,-0.78569c-0.29595,-0.30603 -0.64707,-0.65641 -0.84106,-1.05261c-0.35895,-0.73308 -0.58026,-1.30163 -0.58026,-1.30163z" fill="#000000" stroke="none" stroke-width="0"/><path d="M288.32346,99.14003l-0.13125,-2.0234c0,0 2.29941,-1.69385 2.79439,-1.57385c0.81274,0.19702 -2.66313,3.59724 -2.66313,3.59724z" fill="#000000" stroke="none" stroke-width="0"/><path d="M284.24538,100.60012c0,0 0.17853,-0.63919 0.6809,-0.48525c0.9722,0.29788 2.66839,1.48696 3.20433,1.45475c0.7246,-0.04353 0.75767,-1.24851 0.75767,-1.24851c0,0 3.56465,3.16448 3.80335,3.70598c0.08908,0.2021 0.23635,0.48665 0.30833,0.759c0.1363,0.51575 -0.03672,0.6783 -0.13834,0.96471c-0.07673,0.21627 -0.08386,0.52097 -0.04962,1.0009c0.05442,0.7631 0.32304,1.72095 0.48448,2.57926c0.1674,0.88994 0.37031,2.03292 0.37031,2.03292c0,0 -0.50177,-0.90222 -0.77001,-1.82417c-0.13874,-0.47687 -0.34577,-0.99981 -0.52939,-1.60245c-0.36102,-1.18489 -0.75107,-2.48662 -1.19087,-3.01267c-0.25638,-0.30665 -0.67229,-0.41451 -1.06107,-0.69112c-0.78743,-0.56026 -1.78492,-0.99334 -2.54351,-1.35296c-0.75768,-0.3592 -3.3266,-2.28041 -3.3266,-2.28041z" fill="#000000" stroke="none" stroke-width="0"/><path d="M304.88741,99.16505c-0.71894,-0.10376 -1.75805,-0.31308 -2.68944,-0.72481c-1.01676,-0.44949 -2.36513,-0.66105 -3.78923,-0.91766c-1.29434,-0.23324 -2.66045,-0.49134 -3.72064,-1.23536c-1.41711,-0.99448 -2.63145,-2.4351 -3.34677,-3.96108c-0.78266,-1.66965 -0.98973,-3.43826 -0.74415,-4.75802c0.36566,-1.96526 2.38631,-3.39046 3.14238,-3.50175c1.86554,-0.27462 4.84624,1.55923 7.88001,3.50941c1.3016,0.8367 2.20616,1.86284 3.80229,2.29954c0.68709,0.18799 5.16772,-0.85897 5.77131,-0.76444c0.36612,0.05734 2.89302,-3.11824 3.19721,-3.07041c1.09096,0.17153 1.86219,0.19954 1.86219,0.19954c0,0 2.36945,-2.54935 4.07915,-5.17107c0.7227,-1.10821 1.13441,-2.82362 1.51208,-3.40274c0.65775,-1.00864 1.4972,-2.29588 1.4972,-2.29588c0,0 1.38691,3.0229 1.00717,6.32841c-0.04823,0.41976 -0.75529,0.81254 -0.84366,1.23696c-0.85801,4.12095 -0.91812,9.32027 -1.70267,11.01134c-0.86818,1.87131 -4.0971,0.11812 -4.0971,0.11812c0,0 0.24458,0.68398 0.47054,1.21071c0.37721,0.87929 1.58186,3.57341 1.58186,3.57341c0,0 -1.17938,-1.03781 -2.11206,-2.42742c-0.77543,-1.15533 -1.38882,-2.68547 -1.4672,-2.74857c-0.56942,-0.45844 -1.16501,-4.29577 -1.65201,-5.65671c-0.11829,-0.33056 -0.96108,0.47598 -0.96108,0.47598c0,0 0.30271,3.74319 -1.21557,5.81329c-0.34919,0.47611 -1.14896,1.12764 -2.05276,1.7922c-0.04811,0.03538 -0.80594,0.42705 -0.85374,0.46046c-1.21444,0.84884 -1.9794,1.72861 -2.84371,2.23434c-0.49679,0.29069 -1.1735,0.44986 -1.71159,0.37222z" fill="#000000" stroke="none" stroke-width="0"/><path d="M298.71206,77.76564l-0.39313,-1.9078l1.40118,-0.28502l0.39313,1.9078z" fill="#000000" stroke="none" stroke-width="0"/><path d="M305.84942,121.81096c0.02963,0.19866 -0.10845,0.38357 -0.30838,0.41301c-0.19995,0.02944 -0.38605,-0.10776 -0.41568,-0.30641c-0.02963,-0.19866 0.10846,-0.38356 0.3084,-0.413c0.19995,-0.02944 0.38604,0.10775 0.41567,0.3064z" fill="#000000" stroke="none" stroke-width="0"/><path d="M308.43397,122.39547c0.04074,0.27316 -0.2099,0.53636 -0.55982,0.58786c-0.34991,0.0515 -0.66658,-0.12818 -0.70732,-0.40134c-0.04074,-0.27316 0.20989,-0.53635 0.55981,-0.58786c0.34991,-0.0515 0.66659,0.12817 0.70733,0.40134z" fill="#000000" stroke="none" stroke-width="0"/><path d="M310.55256,121.716c0.02592,0.17382 -0.17594,0.34755 -0.45086,0.38802c-0.27493,0.04048 -0.51882,-0.06764 -0.54474,-0.24147c-0.02592,-0.17382 0.17594,-0.34755 0.45086,-0.38802c0.27493,-0.04048 0.51882,0.06764 0.54474,0.24147z" fill="#000000" stroke="none" stroke-width="0"/><path d="M312.17501,121.4312c0.01481,0.09932 -0.115,0.20074 -0.28996,0.22649c-0.17495,0.02575 -0.32879,-0.0339 -0.3436,-0.13322c-0.01481,-0.09932 0.115,-0.20074 0.28996,-0.22649c0.17495,-0.02575 0.32879,0.03389 0.3436,0.13322z" fill="#000000" stroke="none" stroke-width="0"/><path d="M310.97495,123.30804c0.02592,0.17382 -0.25697,0.35948 -0.63188,0.41466c-0.3749,0.05519 -0.69983,-0.04099 -0.72576,-0.21481c-0.02592,-0.17382 0.25699,-0.35948 0.63189,-0.41467c0.3749,-0.05519 0.69983,0.041 0.72575,0.21482z" fill="#000000" stroke="none" stroke-width="0"/><path d="M312.78179,123.63943c0.01481,0.09932 -0.09475,0.19776 -0.24471,0.21982c-0.14996,0.02208 -0.28353,-0.04056 -0.29834,-0.13989c-0.01481,-0.09932 0.09474,-0.19775 0.2447,-0.21982c0.14996,-0.02208 0.28354,0.04055 0.29835,0.13988z" fill="#000000" stroke="none" stroke-width="0"/><path d="M317.18656,122.16388c0.03703,0.24833 -0.19636,0.48841 -0.52126,0.53624c-0.32492,0.04783 -0.61834,-0.11471 -0.65536,-0.36302c-0.03703,-0.24833 0.19636,-0.48841 0.52126,-0.53624c0.32492,-0.04783 0.61834,0.11471 0.65536,0.36302z" fill="#000000" stroke="none" stroke-width="0"/><path d="M320.54882,121.76085c0.02222,0.149 -0.10159,0.29066 -0.27655,0.31641c-0.17495,0.02575 -0.33481,-0.07416 -0.35702,-0.22316c-0.02222,-0.149 0.1016,-0.29066 0.27656,-0.31641c0.17495,-0.02575 0.3348,0.07415 0.35701,0.22316z" fill="#000000" stroke="none" stroke-width="0"/><path d="M320.21357,119.51267c0.01481,0.09932 -0.09474,0.19775 -0.2447,0.21982c-0.14996,0.02208 -0.28354,-0.04055 -0.29835,-0.13988c-0.01481,-0.09932 0.09475,-0.19776 0.24471,-0.21982c0.14996,-0.02208 0.28353,0.04056 0.29834,0.13989z" fill="#000000" stroke="none" stroke-width="0"/><path d="M322.92886,120.35361c0.03332,0.2235 -0.1828,0.44046 -0.48272,0.48461c-0.29991,0.04415 -0.57008,-0.10123 -0.6034,-0.32473c-0.03332,-0.2235 0.1828,-0.44046 0.48272,-0.48461c0.29991,-0.04415 0.57008,0.10123 0.6034,0.32473z" fill="#000000" stroke="none" stroke-width="0"/><path d="M325.15806,118.55505c0.03332,0.2235 -0.16254,0.43749 -0.43745,0.47795c-0.27493,0.04048 -0.52481,-0.10789 -0.55815,-0.33139c-0.03332,-0.2235 0.16254,-0.43749 0.43745,-0.47795c0.27493,-0.04048 0.52481,0.10789 0.55815,0.33139z" fill="#000000" stroke="none" stroke-width="0"/><path d="M327.39396,118.04211c0.03332,0.2235 -0.122,0.43151 -0.34696,0.46463c-0.22494,0.0331 -0.43431,-0.12122 -0.46763,-0.34472c-0.03332,-0.2235 0.12199,-0.43151 0.34695,-0.46463c0.22494,-0.0331 0.43432,0.12122 0.46764,0.34471z" fill="#000000" stroke="none" stroke-width="0"/><path d="M328.91584,115.84218c0.04444,0.29799 -0.22346,0.58431 -0.59836,0.6395c-0.3749,0.05519 -0.71483,-0.14165 -0.75927,-0.43964c-0.04444,-0.29799 0.22345,-0.58431 0.59835,-0.6395c0.3749,-0.05519 0.71484,0.14164 0.75928,0.43965z" fill="#000000" stroke="none" stroke-width="0"/><path d="M329.74383,115.8122c0.14996,-0.02208 0.30455,0.18147 0.34528,0.45463c0.04074,0.27316 -0.04782,0.51249 -0.19778,0.53458c-0.14996,0.02208 -0.30454,-0.18147 -0.34527,-0.45463c-0.04074,-0.27316 0.04781,-0.51249 0.19777,-0.53458z" fill="#000000" stroke="none" stroke-width="0"/><path d="M326.22403,115.77894c0.02963,0.19866 -0.1895,0.3955 -0.48942,0.43965c-0.29991,0.04415 -0.56708,-0.08112 -0.5967,-0.27978c-0.02963,-0.19866 0.1895,-0.3955 0.48942,-0.43965c0.29991,-0.04415 0.56708,0.08112 0.5967,0.27978z" fill="#000000" stroke="none" stroke-width="0"/><path d="M327.37381,114.18521c0.02592,0.17382 -0.1354,0.34159 -0.36036,0.3747c-0.22494,0.0331 -0.4283,-0.08095 -0.45423,-0.25479c-0.02592,-0.17382 0.1354,-0.34159 0.36036,-0.3747c0.22494,-0.0331 0.4283,0.08095 0.45423,0.25479z" fill="#000000" stroke="none" stroke-width="0"/><path d="M327.93027,112.95453c0.02222,0.14901 -0.08133,0.28768 -0.23129,0.30976c-0.14996,0.02208 -0.28954,-0.08081 -0.31177,-0.22982c-0.02222,-0.14901 0.08134,-0.28767 0.2313,-0.30975c0.14996,-0.02208 0.28953,0.08081 0.31176,0.22981z" fill="#000000" stroke="none" stroke-width="0"/><path d="M326.5525,111.77882c0.02963,0.19866 -0.10845,0.38357 -0.30838,0.41301c-0.19995,0.02944 -0.38604,-0.10776 -0.41567,-0.30641c-0.02963,-0.19866 0.10845,-0.38357 0.30838,-0.41301c0.19995,-0.02944 0.38604,0.10776 0.41567,0.30641z" fill="#000000" stroke="none" stroke-width="0"/><path d="M298.37384,107.65578c0,0 -1.46607,1.53859 -1.29016,3.94886c0.11255,1.54207 1.78666,3.35542 1.77584,4.29185c-0.00633,0.54827 -0.40596,0.36091 -0.45776,0.38185c-0.09607,0.0388 -0.40415,0.03439 -0.68872,-0.83261c-0.23277,-0.70919 -0.35794,-0.99662 -0.77616,-2.03133c-0.33244,-0.8225 -0.7502,-1.65858 -1.00859,-2.66783c-0.08781,-0.34293 1.36691,-4.13502 1.28183,-4.48725c-0.06728,-0.27855 -0.05397,-0.8605 -0.12719,-1.44928c-0.06319,-0.50817 -0.2105,-0.9951 -0.29601,-1.60935c-0.14269,-1.02497 -0.4899,-2.20416 0.096,-2.63555c0.8223,-0.60547 1.09175,0.26416 2.71914,0.76c0.46711,0.14232 1.62746,0.16827 2.22915,0.22505c0.33282,0.03141 2.87393,-0.64513 4.3861,-1.20385c0.66141,-0.24439 1.28787,-0.62114 1.30684,-0.60299c0.89945,0.86063 -5.36956,3.49712 -5.36956,3.49712c0,0 1.40254,0.9866 2.45823,1.08189c1.23223,0.11122 4.61104,-0.67812 7.96386,-1.70734c3.55755,-1.09205 7.08922,-2.43149 8.11745,-2.43962c0.29772,-0.00234 0.48349,-0.49648 0.76314,-1.02167c0.47589,-0.89375 1.02661,-2.02268 1.43435,-2.02437c0.38363,-0.00158 -1.46833,-2.42573 -1.13404,-2.40941c1.61571,0.07887 2.88796,1.6065 2.8645,1.89459c-0.08873,1.0899 -0.54237,2.3223 -0.63163,2.69046c-0.11079,0.45705 -0.61736,-0.7182 -0.61736,-0.7182c0,0 -0.95103,1.89892 -1.09911,2.2891c-0.36306,0.95661 -1.14513,0.34709 -1.43249,1.51955c-0.07365,0.30048 0.18843,0.94333 0.13425,1.28312c-0.38754,2.43018 -0.64502,5.39421 -0.727,7.35723c-0.08681,2.07868 1.20312,2.53836 2.20632,3.60928c0.49816,0.53178 0.93667,0.89439 0.89205,1.35222c-0.0582,0.59704 -0.47074,0.9933 -0.51048,1.00316c-0.63111,0.15647 -1.00899,0.094 -1.81298,0.27882c-1.57148,0.36125 -6.12369,2.83356 -7.76225,2.76085c-0.53593,-0.02378 -2.02748,-0.78427 -3.66761,-1.60289c-0.60641,-0.30267 -1.14077,-0.69486 -1.76069,-0.99852c-0.57994,-0.28408 -1.24438,-0.4778 -1.84192,-0.81097c-2.26963,-1.26545 -4.25929,-2.53459 -4.89446,-2.72471c-0.09665,-0.17911 -0.22052,-0.78057 -0.60001,-1.51314c-1.09783,-2.11926 -2.12284,-4.73411 -2.12284,-4.73411z" fill="#000000" stroke="none" stroke-width="0"/><path d="M301.76309,107.82707c-0.66187,-1.00484 -1.9713,-3.68847 -1.9713,-3.68847c0,0 3.22979,2.23316 5.11524,1.9864c1.90337,-0.24909 5.85458,-1.39574 8.65672,-2.53486c1.76954,-0.71934 2.627,-1.13037 2.627,-1.13037c0,0 -0.16302,1.81113 -0.15405,2.70026c0.00893,0.88499 0.20774,2.62213 0.20774,2.62213c0,0 -5.16705,1.74716 -7.10108,2.01805c-1.52314,0.21334 -4.70575,0.06833 -5.71396,-0.09658c-0.37823,-0.06186 -1.52499,-1.66207 -1.66628,-1.87655z" fill="#ffffff" stroke="none" stroke-width="0"/><path d="M299.40175,105.02313l-0.94799,-2.94572c0,0 2.16821,1.24921 3.26511,1.85599c1.06736,0.59044 3.21953,1.66634 3.21953,1.66634c0,0 0.18896,-0.71019 -0.52004,0.73517c-0.49053,0.99997 -0.38094,2.48273 -0.38094,2.48273c0,0 -1.97651,-3.036 -2.73709,-3.66084c-0.72884,-0.59876 -1.89856,-0.13368 -1.89856,-0.13368z" fill="#f44254" stroke="#000000" stroke-width="0.5"/><path d="M307.13232,108.37189l-2.13874,-2.6457l3.12903,-0.46062c0,0 -0.50581,1.08822 -0.68438,1.66377c-0.18134,0.58449 -0.30592,1.44255 -0.30592,1.44255z" fill="#f44254" stroke="#000000" stroke-width="0.5"/><path d="M307.8569,115.90565c0,0 2.53509,0.05054 3.71847,-0.22428c0.63479,-0.14742 1.46397,-0.02168 2.35795,-0.36602c1.53266,-0.59035 2.98144,-1.53736 2.98144,-1.53736c0,0 0.41663,1.24314 0.55861,1.93685c0.12312,0.6016 0.36592,1.8263 0.36592,1.8263c0,0 -0.95844,0.26061 -1.91479,0.69767c-0.77342,0.35346 -1.48897,0.86397 -2.13789,1.11893c-0.52524,0.20635 -1.72238,-1.24704 -2.5765,-1.73068c-0.92769,-0.5253 -1.59244,-0.35472 -2.26904,-0.73631c-0.66524,-0.37518 -1.08417,-0.9851 -1.08417,-0.9851z" fill="#ffffff" stroke="none" stroke-width="0"/><path d="M314.09191,86.44083c0,0 0.23786,-0.37976 0.15344,-0.76456c-0.03551,-0.16192 -3.71095,-2.91763 -3.78896,-3.24525c-0.07616,-0.31987 2.57661,-3.03342 2.55095,-3.4157c-0.03052,-0.45495 -0.31386,-1.11166 -0.39339,-1.5256c-0.44851,-2.33412 -1.30158,-3.71847 -1.30158,-3.71847l0.49618,-0.08094c0,0 2.36135,4.40764 2.67641,5.23197c0.23855,0.62416 -0.37931,1.66243 -0.37931,1.66243c0,0 1.22597,-0.6266 1.09454,-1.69752c-0.16649,-1.35659 -2.10098,-5.52391 -2.10098,-5.52391l0.55005,-0.12558c0,0 1.08307,0.89606 2.05218,3.34141c0.20427,0.5154 1.02582,2.00706 0.96042,3.14124c-0.02749,0.47667 -0.64998,1.11079 -0.83535,1.22775c-0.46957,0.29625 -1.00649,0.49934 -1.37172,0.84471c-0.33999,0.32149 -0.44058,1.01534 -0.40828,1.17101c0.2074,0.99969 2.06024,2.03991 2.13359,2.41042c0.08971,0.4531 -0.07855,0.89713 -0.07855,0.89713z" fill="#000000" stroke="none" stroke-width="0"/><path d="M305.6384,77.51291c-0.03048,-0.20444 1.27943,-0.43542 2.96585,-0.92552c0.61138,-0.17768 2.44872,-1.57248 2.69538,-1.70629c0.38887,-0.21092 0.72459,-0.73938 1.0889,-0.96643c0.30844,-0.19223 0.54963,-0.75668 0.82802,-0.9501c1.45163,-1.00858 2.00907,-2.80211 2.00907,-2.80211l2.31155,-0.27709c0,0 -0.60966,0.61546 -1.22848,1.34723c-0.86456,1.02237 -1.86545,2.28924 -2.29276,2.57603c-0.5185,0.348 -0.9726,0.73862 -1.59048,1.07323c-1.24036,0.67173 -2.33418,1.88552 -3.51357,2.36472c-1.63708,0.66516 -3.25206,0.40978 -3.27346,0.26631z" fill="#000000" stroke="none" stroke-width="0"/><path d="M301.51542,80.14166c0,0 0.2159,-0.33019 1.39163,-0.54669c2.57165,-0.47354 7.27384,-0.16218 10.64919,-3.10529c2.41442,-2.10525 5.74164,-6.73714 5.74164,-6.73714l0.05534,2.07687c0,0 -5.5525,6.11829 -7.60724,7.07579c-3.28895,1.53262 -10.23056,1.23646 -10.23056,1.23646z" fill="#000000" stroke="none" stroke-width="0"/><g stroke="none" stroke-width="0"><path d="M300.77973,96.79706c0,0 1.78671,-1.16171 2.50828,-1.50729c0.67748,-0.32446 2.03282,-0.67807 2.03282,-0.67807c0,0 -0.01332,-0.8007 -0.04694,-1.77612c-0.02986,-0.86623 0.07581,-1.62537 0.00903,-2.32874c-0.10621,-1.11847 -0.75226,-3.51341 -0.95358,-4.98103c-0.15584,-1.13599 0.02874,-1.88246 0.02874,-1.88246c0,0 0.00186,1.22389 0.34554,2.6279c0.37996,1.55228 0.98173,3.55695 1.28082,4.45836c0.3063,0.92317 1.27694,2.55717 1.27694,2.55717l5.44509,-1.312c0,0 -0.6145,0.78619 -1.86087,1.36288c-1.35,0.62462 -3.34612,1.06218 -3.51463,1.58793c-0.04675,0.14583 -0.18708,0.26665 -0.07668,1.02238c0.38543,2.63862 1.6657,8.29531 1.6657,8.29531c0,0 -1.31413,-4.51793 -2.1238,-6.90616c-0.17223,-0.508 -0.38681,-0.81538 -0.48839,-1.07866c-0.25472,-0.66021 -0.64503,-1.03041 -0.64503,-1.03041c0,0 -0.88036,0.04092 -1.35751,0.16851c-0.80934,0.21641 -3.52548,1.40055 -3.52548,1.40055z" fill="#ff0000"/><path d="M314.07921,91.9678c0,0 1.3634,-0.69771 2.67126,-1.61513c0.52104,-0.36549 1.05198,-0.72275 1.51998,-1.13531c0.648,-0.57123 1.36765,-0.70812 1.52205,-1.27364c0.11766,-0.43091 -0.1024,-1.86164 -0.3736,-3.32459c-0.56587,-3.05243 -1.57595,-7.02337 -1.57595,-7.02337c0,0 0.25058,0.42429 0.51117,1.23178c0.59432,1.84166 1.09876,4.93581 1.50649,6.17691c0.34312,1.04448 1.3713,2.69671 1.3713,2.69671c0,0 0.35915,0.06197 0.90356,-0.27086c0.94635,-0.57857 2.40595,-1.6594 3.07319,-1.81218c2.46082,-0.56344 3.49779,-0.50294 3.49779,-0.50294c0,0 -1.28548,0.19345 -2.64586,0.79496c-0.85871,0.37968 -1.76889,1.00521 -2.55243,1.61403c-0.14019,0.10893 -0.36853,0.06941 -0.49864,0.17984c-0.20233,0.17174 -0.29842,0.49391 -0.46915,0.66385c-0.39321,0.39139 -0.69097,0.76915 -0.83979,1.09271c-0.03134,0.06812 -0.14338,0.27926 -0.10862,0.71248c0.10461,1.30461 0.56473,4.02096 0.74748,6.08221c0.14532,1.63892 0.05081,2.87745 0.05081,2.87745c0,0 -0.86234,-4.04536 -1.63681,-6.51527c-0.33678,-1.07406 -0.42598,-2.10361 -0.76669,-2.37152c-0.17092,-0.1344 -1.05926,0.00669 -2.30627,0.3931c-1.59327,0.49369 -3.6013,1.32888 -3.6013,1.32888z" fill="#ff0000"/><path d="M307.48164,94.09258c0.11944,0.50792 -0.19816,1.01587 -0.70938,1.13454c-0.51121,0.11867 -1.02244,-0.19689 -1.14188,-0.70482c-0.11944,-0.50792 0.19816,-1.01587 0.70938,-1.13454c0.51121,-0.11867 1.02244,0.19689 1.14188,0.70482z" fill="#ffffff"/><path d="M321.69588,88.85339c0.10539,0.44818 -0.16267,0.89353 -0.5987,0.99473c-0.43604,0.10122 -0.87493,-0.18005 -0.98032,-0.62821c-0.10539,-0.44818 0.16267,-0.89353 0.5987,-0.99473c0.43604,-0.10122 0.87493,0.18005 0.98032,0.62821z" fill="#ffffff"/></g><path d="M286.86188,91.71221c0,0 0.1116,-0.49095 0.38594,-1.07104c0.17867,-0.37779 0.45823,-0.7981 0.71159,-1.1291c0.29801,-0.38932 1.03043,-0.61129 1.56817,-1.22098c0.71459,-0.81022 1.35557,-1.83229 1.35557,-1.83229l0.74569,0.45186c0,0 1.23572,5.46005 1.30847,6.79032c0.00468,0.08573 -1.47672,0.33585 -2.50561,0.68736c-1.35507,0.46295 -2.34954,1.04048 -2.34954,1.04048c0,0 0.15788,-0.36607 0.47308,-0.70952c0.22786,-0.24827 0.56825,-0.46237 0.84598,-0.62445c0.67363,-0.39312 2.70457,-0.89467 2.70457,-0.89467c0,0 -0.15587,-1.62205 -0.15844,-1.61665c-0.00706,0.01487 -0.30552,-0.17805 -0.65781,-0.0971c-0.28634,0.06579 -0.32877,0.29146 -0.63722,0.45125c-0.51337,0.26594 -2.18598,0.77183 -2.18598,0.77183c0,0 0.20867,-0.40084 0.72056,-0.74754c0.53527,-0.36255 1.37471,-0.67237 1.37059,-0.70587c-0.06126,-0.49706 -0.33266,-2.25851 -0.18832,-2.94618c0.1208,-0.57548 0.65739,-0.1312 0.65739,-0.1312c0,0 -1.10028,0.40768 -1.75958,0.96705c-0.36784,0.31209 -0.9204,1.01769 -1.43691,1.58965c-0.49876,0.5523 -0.9682,0.97681 -0.9682,0.97681z" fill="#000000" stroke="none" stroke-width="0"/></g><g><g><path d="M341.16859,122.76623c-6.6803,3.53135 -12.3578,2.23443 -16.15845,-4.20915c-2.97254,-5.03958 -0.44294,-13.75064 6.23737,-17.28199c6.68032,-3.53138 13.81506,-1.78004 17.31124,4.83368c0.54674,1.03426 0.74436,2.15103 0.93439,3.16933c1.02505,5.49331 -2.6889,10.509 -8.32453,13.48812z" fill="#485e84" stroke="#000000" stroke-width="2" stroke-linecap="butt"/><path d="M326.77099,106.52069c0,0 1.14792,2.6444 2.13908,2.80031c9.50746,1.49555 15.95188,-1.32218 18.01222,-2.41679c0.46811,-0.24869 0.4975,-0.8103 0.4975,-0.8103c0,0 0.59032,0.87881 0.95399,2.20265c0.38698,1.40868 0.53857,3.31004 0.17933,4.80675c-0.41037,1.70967 -2.39811,5.38177 -2.39811,5.38177l-8.39752,6.29005c0,0 -6.58538,-1.42248 -7.5023,-2.00337c-0.89828,-0.56907 -1.79799,-1.5001 -2.79445,-2.4515c-1.54713,-1.47719 -2.54383,-3.52062 -2.78603,-4.94259c-0.30908,-1.81476 0.06117,-4.12109 0.68588,-5.92735c0.58141,-1.68106 1.41045,-2.92958 1.41045,-2.92958z" fill="#343545" stroke="none" stroke-width="0" stroke-linecap="butt"/><path d="M333.50888,116.73803c0,0 -2.89352,-3.47065 -2.99808,-6.05065c-0.13238,-3.26601 1.42446,-9.57022 1.42446,-9.57022" fill="none" stroke="#000000" stroke-width="1" stroke-linecap="round"/><path d="M346.22095,103.43707c0,0 0.96858,3.44779 1.03933,5.59917c0.07145,2.17192 -1.49123,6.77358 -1.49123,6.77358" fill="none" stroke="#000000" stroke-width="1" stroke-linecap="round"/><path d="M329.56964,120.56851c0,0 -3.02338,-3.51821 -3.00939,-6.3179c0.02148,-4.29603 1.17626,-9.98842 1.17626,-9.98842" fill="none" stroke="#000000" stroke-width="1" stroke-linecap="round"/><path d="M324.27976,115.03564c0,0 3.60334,-7.88265 12.17565,-9.51247c9.38988,-1.78526 13.28158,5.92687 13.28158,5.92687" fill="none" stroke="#000000" stroke-width="1" stroke-linecap="round"/><path d="M325.92644,119.51234c0,0 4.98979,-7.38807 12.55107,-8.84252c6.2085,-1.19423 10.09424,4.99524 10.09424,4.99524" fill="none" stroke="#000000" stroke-width="1" stroke-linecap="round"/><path d="M338.93376,101.90069c-0.60127,-0.0386 -1.0639,-0.45576 -1.03334,-0.93174c0.03053,-0.476 0.42907,-0.46201 1.03033,-0.42341c0.60127,0.0386 1.17755,0.08719 1.147,0.56318c-0.03053,0.476 -0.54274,0.83058 -1.14399,0.79197z" fill="#8fbbbe" stroke="none" stroke-width="0" stroke-linecap="butt"/><path d="M342.50198,102.62659c-0.26633,0.14078 -0.65341,-0.06893 -0.86459,-0.46841c-0.21118,-0.39949 -0.24225,-0.59175 0.02407,-0.73254c0.26633,-0.14078 0.73379,0.02644 0.94495,0.42593c0.21118,0.39949 0.16187,0.63424 -0.10445,0.77502z" fill="#8fbbbe" stroke="none" stroke-width="0" stroke-linecap="butt"/><path d="M335.47396,101.71094c-0.41973,0.16741 -0.85042,0.0763 -0.96203,-0.2035c-0.11162,-0.27978 0.26561,-0.40124 0.68532,-0.56866c0.41973,-0.16741 0.72296,-0.31742 0.83458,-0.03762c0.11162,0.27978 -0.13816,0.64236 -0.55787,0.80977z" fill="#8fbbbe" stroke="none" stroke-width="0" stroke-linecap="butt"/><path d="M325.63552,108.45771c0,0 3.50776,-3.73543 6.94442,-5.34555c1.94842,-0.91285 3.9808,-1.04478 5.52277,-1.12753c1.36364,-0.0732 4.458,1.05269 6.73678,2.16093c1.67775,0.81593 2.85925,1.69801 2.85925,1.69801" fill="none" stroke="#000000" stroke-width="0.5" stroke-linecap="round"/><path d="M340.19288,99.42558c0,0 2.29282,4.77298 2.4917,7.47284c0.16757,2.2747 -1.21549,7.58544 -1.21549,7.58544" fill="none" stroke="#000000" stroke-width="1" stroke-linecap="round"/><path d="M338.59524,115.07757c0,0 -2.04736,-4.38678 -2.4572,-6.61431c-0.7196,-3.91112 0.72284,-8.92156 0.72284,-8.92156" fill="none" stroke="#000000" stroke-width="1" stroke-linecap="round"/></g><g stroke-linecap="butt"><path d="M324.48892,123.3163c1.7558,-0.47902 3.14995,-0.89331 3.27988,-0.93336c0.27217,-0.0839 2.29242,-2.22927 4.65866,-4.26898c2.57732,-2.22164 5.45715,-4.15947 5.7556,-4.25098c1.40008,-0.42931 3.83859,0.67461 5.81812,1.31954c2.95778,0.96365 6.02326,1.82217 6.39732,2.52978c0.47621,0.90084 -0.94922,2.84118 -0.82094,4.242c0.10515,1.14819 1.9575,4.35697 1.90705,5.6983c-0.03695,0.98178 -0.64272,1.92735 -0.78204,2.92688c-0.1449,1.03957 1.07733,2.30639 0.85512,3.33645c-0.22924,1.06272 -0.6501,2.17353 -0.98997,3.18195c-0.44498,1.32033 0.93134,4.32274 0.38557,5.47769c-1.91164,4.04537 -6.07609,5.10507 -6.89866,5.09783c-4.62501,-0.04069 -8.73112,-1.21558 -10.88385,-1.75683c-1.50331,-0.37798 -2.98212,-1.91413 -3.1704,-3.68765c-0.15617,-1.47114 0.56234,-2.78581 0.49265,-4.0034c-0.06797,-1.18731 -1.24522,-1.86753 -1.24522,-1.86753c0,0 -0.99265,2.4485 -2.92476,3.3258c-1.68762,0.7663 -4.04133,0.64705 -4.51714,-1.3469c-0.44069,-1.84673 1.93849,-5.38877 1.62009,-6.97809c-0.40157,-2.00462 -2.73584,-3.7631 -2.71395,-5.099c0.02584,-1.57687 3.12649,-2.76608 3.77688,-2.94353z" fill="#d396fc" stroke="#000000" stroke-width="1.5"/><path d="M332.1553,119.81865c0,0 5.43137,-5.20103 6.69208,-5.32399c1.38675,-0.13525 4.80612,1.30085 6.68852,2.02019c0.69993,0.26747 1.23441,0.41098 1.23441,0.41098c0,0 -0.3555,1.13522 -1.06406,2.19245c-0.67852,1.01242 -1.70122,1.94701 -2.14295,2.02298c-0.89162,0.15334 -2.71763,-1.88541 -4.69507,-2.15321c-0.49107,-0.0665 -4.26992,2.50918 -4.76235,2.46173c-1.1599,-0.11173 -1.52396,-0.68055 -1.76104,-1.11114c-0.21067,-0.38264 -0.18954,-0.51997 -0.18954,-0.51997z" fill="#ffc6ef" stroke="none" stroke-width="0"/><path d="M333.56681,130.07524c0,0 7.21265,-1.3338 9.25828,-2.06008c1.12952,-0.40102 2.40357,-1.94522 2.40357,-1.94522c0,0 2.5554,2.02697 1.25018,3.17538c-1.10831,0.97516 -6.73835,4.05102 -9.94805,3.97822c-2.26209,-0.0513 -2.96399,-3.14831 -2.96399,-3.14831z" fill="#ffc6ef" stroke="none" stroke-width="0"/><path d="M333.5487,136.46025c0,0 7.02421,-1.09828 9.30284,-1.93276c1.85509,-0.67938 3.36136,-2.70521 3.36136,-2.70521c0,0 1.60761,2.04015 1.28415,3.41652c-0.23874,1.01585 -0.9856,2.41616 -2.24072,3.12415c-1.08752,0.61344 -2.39082,0.38873 -3.79142,0.65892c-2.21918,0.4281 -4.54417,0.99071 -5.91672,0.74353c-0.74417,-0.13401 -1.99948,-3.30511 -1.99948,-3.30511z" fill="#ffc6ef" stroke="none" stroke-width="0"/><path d="M332.05329,124.29424c0,0 8.62664,-1.42179 11.12867,-2.16876c1.33638,-0.39897 2.72619,-1.96751 2.72619,-1.96751c0,0 0.87583,3.9037 0.38605,4.2778c-0.74551,0.56945 -2.04833,1.32547 -3.56891,1.99317c-3.57301,1.56894 -8.15616,3.0136 -8.15616,3.0136c0,0 -1.86369,-2.87427 -2.27919,-3.72451c-0.42298,-0.86559 -0.23666,-1.42382 -0.23666,-1.42382z" fill="#ffc6ef" stroke="none" stroke-width="0"/><path d="M326.74203,123.20465c0,0 10.08474,-8.14659 10.90338,-8.55861c0.28885,-0.1454 -2.0922,1.86674 -4.04589,3.73785c-1.27693,1.22296 -2.39038,2.57246 -2.39038,2.57246c0,0 -2.0322,1.48893 -2.28664,2.36671c-0.08303,0.28648 0.09914,0.4568 0.51523,0.5174c0.90977,0.13245 4.28945,-0.99591 6.72492,-1.67555c0.88104,-0.24586 1.62282,-0.33535 1.93672,-0.33577c0.39641,-0.00052 -0.50974,-0.73425 -0.50974,-0.73425c0,0 2.12574,-0.38723 3.01993,-0.32705c0.64416,0.04334 1.38295,0.73623 1.9125,0.78306c0.63502,0.05613 1.9856,-1.07583 2.95547,-1.41115c0.59929,-0.2072 0.86574,0.16465 0.7993,0.33333c-0.08777,0.22285 -1.59982,2.09376 -2.70283,2.39602c-3.44577,0.9442 -9.90734,1.25841 -12.72113,2.49259c-1.64556,0.72179 -2.41008,2.88086 -2.3848,3.17818c0.0654,0.76935 0.44504,1.69057 0.97113,2.19235c0.03826,0.03651 0.71837,-1.2626 1.97649,-1.66236c1.248,-0.39656 2.96442,-1.01341 4.94635,-1.28999c2.23883,-0.31243 4.76957,-0.27939 6.46992,-0.66255c0.31806,-0.07166 2.55773,-1.48849 2.58232,-1.44585c0.13505,0.23422 -1.64353,3.17432 -2.84731,3.2516c-1.11052,0.07129 -2.71044,0.51134 -4.45392,0.78265c-1.7605,0.27395 -3.58677,0.66353 -4.86228,0.89792c-1.04256,0.19157 -1.95392,0.8484 -1.96285,0.86094c-0.35235,0.49552 -0.61607,1.22914 -0.93925,1.99535c-0.27959,0.66287 -0.48339,1.28651 -0.49921,1.62792c-0.04301,0.92922 0.87587,1.40401 0.87587,1.40401c0,0 0.59459,-1.18886 1.74428,-1.5702c0.90929,-0.30161 3.23276,-0.56376 5.66614,-0.82894c0.48806,-0.05319 1.07316,-0.11785 1.57852,-0.13193c1.26848,-0.03528 2.46065,0.02309 3.48391,-0.27156c1.12832,-0.32491 2.02128,-1.57586 2.68807,-2.1632c0.39563,-0.34849 0.67936,-0.52447 0.67936,-0.52447c0,0 -0.27673,1.2995 -1.04101,2.28582c-0.67819,0.87523 -1.67505,1.66857 -2.39806,1.99193c-2.1734,0.97207 -7.36068,0.47811 -10.05306,2.06302c-1.16591,0.68634 -2.89008,4.58845 -2.89008,4.58845c0,0 0.04113,-4.34529 -0.50032,-4.74407c-0.46183,-0.34016 -4.57069,2.95163 -4.57069,2.95163c0,0 0.97207,-1.492 1.80312,-2.67721c0.56285,-0.80269 1.107,-1.37765 1.06398,-1.58745c-0.09647,-0.4705 -0.17865,-0.98797 -0.14148,-1.25159c0.09536,-0.67632 0.85132,-2.01934 0.85132,-2.01934c0,0 -0.7995,-1.18819 -1.32482,-2.44352c-0.36565,-0.87374 -0.51562,-1.8238 -0.51776,-2.2449c-0.0056,-1.10648 1.25781,-2.14835 1.25781,-2.14835c0,0 -0.53636,-0.81475 -0.76385,-1.24232c-0.22672,-0.4262 -0.59872,-1.31903 -0.59872,-1.31903z" fill="#000000" stroke="none" stroke-width="0"/><path d="M347.3421,117.03487c0,0 2.18596,0.43922 2.46173,0.96093c0.26162,0.49491 -1.10327,3.3596 -1.10327,3.3596c0,0 -0.79627,-1.71495 -0.99643,-2.46437c-0.18345,-0.68682 -0.36202,-1.85615 -0.36202,-1.85615z" fill="#ffc6ef" stroke="none" stroke-width="0"/><path d="M348.5823,121.52074c0,0 1.10199,3.19888 1.51738,4.30777c0.26552,0.70888 0.70001,2.02663 0.70001,2.02663c0,0 -1.8752,-1.26014 -2.64741,-1.91591c-0.54625,-0.46387 -1.28398,-2.61413 -1.18845,-3.62235c0.08325,-0.87891 1.61849,-0.79617 1.61849,-0.79617z" fill="#ffc6ef" stroke="none" stroke-width="0"/><path d="M347.2014,130.57988c0.29331,-0.15504 0.989,-0.27914 1.46843,-0.39832c0.4366,-0.10854 1.32046,-0.35614 1.32046,-0.35614c0,0 -0.26326,0.52586 -0.10975,0.98159c0.23344,0.69299 0.96759,2.78095 0.96759,2.78095c0,0 -1.10833,0.85129 -2.10476,0.03787c-0.82157,-0.67066 -1.7532,-2.93429 -1.54198,-3.04596z" fill="#ffc6ef" stroke="none" stroke-width="0"/><path d="M347.551,136.9009c0.59318,-0.25881 2.42119,-0.69045 2.42119,-0.69045c0,0 -0.28766,0.68965 -0.21026,1.37993c0.06725,0.59988 0.13531,1.26786 0.15479,1.66927c0.03099,0.63887 0.36913,1.82367 0.36913,1.82367c0,0 -1.95115,-0.94902 -2.62113,-2.02872c-0.56904,-0.91703 -0.34676,-2.05199 -0.1137,-2.15368z" fill="#ffc6ef" stroke="none" stroke-width="0"/></g><g stroke="#000000" stroke-width="1.5" stroke-linecap="butt"><path d="M340.56579,141.40376c1.76561,-0.41958 2.95862,0.93651 3.62824,0.76393c0.71103,-0.18326 1.6029,-0.38252 1.67708,-0.29315c0.07055,0.08496 -1.46357,0.53826 -1.19637,1.04375c0.26309,0.4977 0.63804,2.13798 0.64322,3.80544c0.00877,2.81317 -0.04001,6.67278 -0.04001,6.67278c0,0 -1.33296,0.10198 -3.717,0.8311c-1.5044,0.4601 -4.64859,-0.3164 -4.64859,-0.3164c0,0 -2.54687,-7.43854 -2.27712,-8.77404c0.40659,-2.01296 4.56001,-3.44495 5.71819,-3.72015z" fill="#485e84"/><path d="M337.56843,154.17691c-0.29516,0.0512 -0.51923,-0.17936 -0.37586,-0.58077c0.35005,-0.9802 1.27323,-2.69843 3.48097,-2.91441c1.60173,-0.15669 2.82747,0.76658 3.51742,1.47463c0.40822,0.41892 0.36934,0.80754 -0.05255,0.88074c0,0 -5.73009,0.99409 -6.56997,1.13981z" fill="#343545"/></g></g></g></g></svg>