<svg version="1.1" xmlns="http://www.w3.org/2000/svg" xmlns:xlink="http://www.w3.org/1999/xlink" width="185.14906" height="341.30086" viewBox="0,0,185.14906,341.30086"><g transform="translate(-209.62237,-19.68652)"><g data-paper-data="{&quot;isPaintingLayer&quot;:true}" fill-rule="nonzero" stroke-linejoin="miter" stroke-miterlimit="10" stroke-dasharray="" stroke-dashoffset="0" style="mix-blend-mode: normal"><g stroke="#000000" stroke-linecap="butt"><path d="M339.05938,221.35241c26.37968,20.38214 43.7542,42.09566 38.80708,48.49849c-4.94712,6.40284 -30.34252,-4.92963 -56.7222,-25.31177c-26.37968,-20.38214 -43.7542,-42.09566 -38.80708,-48.49849c4.94712,-6.40284 30.34252,4.92963 56.7222,25.31178z" fill="#0d69be" stroke-width="2"/><path d="M383.85897,239.16903c11.32282,8.74853 13.22718,25.2558 4.25351,36.87003c-8.97368,11.61422 -25.42724,13.93733 -36.75007,5.1888c-11.32283,-8.74854 -13.22718,-25.2558 -4.25351,-36.87003c8.97367,-11.61423 25.42725,-13.93732 36.75007,-5.1888z" fill="#faddbf" stroke-width="2"/><path d="M350.32869,263.47887c11.32283,8.74854 46.32048,0.10909 37.34681,11.72332c-8.97368,11.61422 -25.42724,13.93732 -36.75007,5.1888c-11.32283,-8.74854 -11.91957,-25.66064 -0.59675,-16.9121z" fill="#ef8b89" stroke-width="0"/></g><g stroke="#000000" stroke-linecap="butt"><path d="M307.76518,340.83533v-95.29492h29.49199v95.29492z" fill="#73fffc" stroke-width="2"/><path d="M307.43943,340.21739l1.32626,-93.78573c0,0 5.20288,68.11227 6.3799,77.52842c0.2602,2.08162 2.52228,2.78987 2.52228,2.78987l18.60659,13.13896z" fill="#59a9e6" stroke-width="0"/></g><g stroke="#000000" stroke-linecap="butt"><path d="M268.4238,338.41279v-95.29492h29.49199v95.29492z" fill="#73fffc" stroke-width="2"/><path d="M268.09805,337.79487l1.32626,-93.78573c0,0 5.20288,68.11227 6.3799,77.52842c0.2602,2.08162 2.52228,2.78987 2.52228,2.78987l18.60659,13.13896z" fill="#59a9e6" stroke-width="0"/></g><g stroke="#000000" stroke-linecap="butt"><path d="M335.22917,235.69585c0,13.80271 10.04743,36.74388 4.95001,46.45977c-6.2338,11.88187 -28.61241,9.09579 -38.9397,9.09579c-13.66287,0 -32.94407,4.17018 -38.34426,-14.83216c-2.01935,-7.10576 4.35457,-32.37264 4.35457,-40.7234c0,-30.68249 15.2177,-55.55556 33.98969,-55.55556c18.77199,0 33.98969,24.87307 33.98969,55.55556z" fill="#0d69be" stroke-width="2"/><path d="M283.96554,251.27245c0,13.80271 62.04198,20.54886 56.94455,30.26474c-6.2338,11.88186 -28.61241,9.09579 -38.9397,9.09579c-13.66287,0 -32.94406,4.17018 -38.34425,-14.83215c-2.01936,-7.10576 4.35457,-32.37265 4.35457,-40.7234c0,-9.45244 3.34855,-28.59801 5.51953,-29.96813c5.94391,-16.76415 10.4653,25.13995 10.4653,46.16315z" fill="#10157d" stroke-width="0"/></g><path d="M371.63632,338.87001c0,11.6628 -14.51982,21.11737 -32.43092,21.11737c-17.9111,0 -32.43092,-9.45457 -32.43092,-21.11737c0,-2.33142 -0.03339,-13.76009 1.08979,-15.13837c4.49546,-5.51647 17.81784,5.26144 32.14847,5.26144c17.9111,0 31.62358,-1.78588 31.62358,9.87692z" fill="#000082" stroke="#000000" stroke-width="2" stroke-linecap="butt"/><path d="M369.75004,336.13771c0,6.30841 -13.89058,10.1901 -31.80169,10.1901c-17.9111,0 -30.16566,-2.95748 -30.16566,-9.26589c0,-1.26107 -0.03338,-12.52602 1.0898,-13.27153c4.49546,-2.98386 15.55258,5.7726 29.88321,5.7726c17.9111,0 30.99434,0.26631 30.99434,6.57472z" fill="#2e0048" stroke="#000000" stroke-width="0" stroke-linecap="butt"/><path d="M328.64938,338.2252c0,11.6628 -14.51982,21.11737 -32.43092,21.11737c-17.9111,0 -32.43092,-9.45457 -32.43092,-21.11737c0,-2.33142 -0.03339,-13.76009 1.08979,-15.13837c4.49546,-5.51647 17.81784,5.26144 32.14847,5.26144c17.9111,0 31.62358,-1.78588 31.62358,9.87692z" fill="#000082" stroke="#000000" stroke-width="2" stroke-linecap="butt"/><path d="M326.7631,335.49289c0,6.30841 -13.89058,10.1901 -31.80169,10.1901c-17.9111,0 -30.16566,-2.95748 -30.16566,-9.26589c0,-1.26107 -0.03338,-12.52602 1.0898,-13.27153c4.49546,-2.98386 15.55258,5.7726 29.88321,5.7726c17.9111,0 30.99434,0.26631 30.99434,6.57472z" fill="#2e0048" stroke="#000000" stroke-width="0" stroke-linecap="butt"/><g><g><path d="M289.39522,256.92358c-14.91118,-2.29771 -22.46462,-11.13828 -20.88041,-25.99088c1.23899,-11.61637 15.66809,-22.56284 30.57929,-20.26512c14.91126,2.29769 24.25865,13.60213 21.98388,28.36473c-0.35572,2.30859 -1.36919,4.33359 -2.27753,6.19174c-4.90025,10.02388 -16.82583,13.63793 -29.40521,11.69954z" fill="#485e84" stroke="#000000" stroke-width="2" stroke-linecap="butt"/><path d="M285.67268,213.7418c0,0 -1.31012,5.60487 0.09251,7.03525c13.45432,13.72061 27.13754,16.88093 31.74297,17.58083c1.04635,0.15903 1.76236,-0.70594 1.76236,-0.70594c0,0 -0.10074,2.11139 -1.09474,4.66598c-1.0577,2.71831 -3.07941,5.94578 -5.43777,7.91638c-2.69394,2.25095 -10.25298,5.76794 -10.25298,5.76794l-20.94881,0.07776c0,0 -8.85875,-10.12312 -9.63622,-12.1461c-0.76168,-1.98184 -1.09456,-4.54542 -1.55819,-7.25688c-0.71983,-4.20992 0.11682,-8.67163 1.42236,-11.2388c1.6662,-3.27628 5.00651,-6.53116 8.15897,-8.6816c2.93395,-2.00139 5.74955,-3.01469 5.74955,-3.01469z" fill="#343545" stroke="none" stroke-width="0" stroke-linecap="butt"/><path d="M284.30058,238.14026c0,0 -0.50307,-9.00806 2.40232,-13.26702c3.67789,-5.39143 13.68143,-13.63956 13.68143,-13.63956" fill="none" stroke="#000000" stroke-width="1" stroke-linecap="round"/><path d="M320.51385,231.96648c0,0 -2.55439,6.67869 -5.00346,10.21053c-2.4724,3.56559 -10.45745,9.07845 -10.45745,9.07845" fill="none" stroke="#000000" stroke-width="1" stroke-linecap="round"/><path d="M273.42565,239.58668c0,0 -0.65453,-9.23894 2.7025,-13.70875c5.15127,-6.85877 13.78179,-14.60535 13.78179,-14.60535" fill="none" stroke="#000000" stroke-width="1" stroke-linecap="round"/><path d="M271.53866,224.41969c0,0 15.16307,-8.34006 30.84134,-0.74166c17.17356,8.32308 14.22432,25.31698 14.22432,25.31698" fill="none" stroke="#000000" stroke-width="1" stroke-linecap="round"/><path d="M268.84541,233.55486c0,0 16.79577,-5.89615 30.64499,0.77907c11.37147,5.48098 10.22627,20.02771 10.22627,20.02771" fill="none" stroke="#000000" stroke-width="1" stroke-linecap="round"/><path d="M310.66614,220.82491c-0.91756,-0.778 -1.16205,-1.99752 -0.54616,-2.72388c0.61587,-0.72642 1.23786,-0.22932 2.15541,0.54868c0.91756,0.778 1.78317,1.54226 1.16728,2.26864c-0.61587,0.72642 -1.85901,0.68456 -2.77651,-0.09344z" fill="#8fbbbe" stroke="none" stroke-width="0" stroke-linecap="butt"/><path d="M315.51958,226.23815c-0.59447,-0.09162 -0.96499,-0.88871 -0.82759,-1.78041c0.1374,-0.89171 0.31661,-1.2368 0.91107,-1.14522c0.59447,0.09162 1.1444,0.91636 1.00697,1.80805c-0.1374,0.89171 -0.49603,1.20917 -1.09048,1.11755z" fill="#8fbbbe" stroke="none" stroke-width="0" stroke-linecap="butt"/><path d="M305.34784,216.40001c-0.87201,-0.23166 -1.45367,-0.89064 -1.29927,-1.47195c0.15436,-0.58129 0.90354,-0.32662 1.77553,-0.095c0.87201,0.23166 1.53661,0.35243 1.38222,0.93375c-0.15436,0.58129 -0.98649,0.86482 -1.85847,0.63318z" fill="#8fbbbe" stroke="none" stroke-width="0" stroke-linecap="butt"/><path d="M281.546,215.49341c0,0 10.07029,-1.80803 17.49526,-0.29494c4.20958,0.85786 7.62359,3.06714 10.19315,4.77111c2.27241,1.50687 5.89009,6.9967 8.22183,11.48682c1.71675,3.30583 2.55948,6.1266 2.55948,6.1266" fill="none" stroke="#000000" stroke-width="0.5" stroke-linecap="round"/><path d="M315.63189,218.35826c0,0 -2.0107,10.37955 -4.90771,14.94294c-2.44078,3.84477 -10.98257,10.70787 -10.98257,10.70787" fill="none" stroke="#000000" stroke-width="1" stroke-linecap="round"/><path d="M294.42914,241.53755c0,0 1.94406,-9.46831 3.94042,-13.52605c3.50524,-7.12462 11.7845,-13.43578 11.7845,-13.43578" fill="none" stroke="#000000" stroke-width="1" stroke-linecap="round"/></g><g stroke="#000000" stroke-linecap="butt"><path d="M266.13864,238.21625c29.85843,14.82541 31.53378,24.32532 27.93537,31.57252c-3.59841,7.2472 -30.72054,1.10384 -60.57897,-13.72158c-29.85843,-14.82541 37.0021,-42.12301 40.6005,-49.37021c6.12,-3.58802 7.3399,2.82365 4.15674,10.0086c-3.92559,8.86073 -14.66583,20.24345 -12.11365,21.51068z" fill="#0d69be" stroke-width="2"/><path d="M293.94609,238.52743c12.816,6.36344 17.91407,22.17882 11.38686,35.32464c-6.52721,13.14582 -22.20797,18.64403 -35.02397,12.28059c-12.816,-6.36344 -17.91406,-22.17883 -11.38686,-35.32465c6.52721,-13.14582 22.20797,-18.64402 35.02397,-12.28058z" fill="#faddbf" stroke-width="2"/><path d="M265.82172,268.92919c12.816,6.36344 45.44614,-8.95811 38.91893,4.18771c-6.52721,13.14582 -22.20797,18.64403 -35.02397,12.28058c-12.816,-6.36344 -16.71097,-22.83174 -3.89496,-16.46829z" fill="#ef8b89" stroke-width="0"/></g></g><g stroke-linecap="butt"><g><g stroke="#000000"><g><path d="M213.32537,108.14318c0,-46.79079 37.93143,-84.72222 84.72222,-84.72222c46.79079,0 84.72222,37.93143 84.72222,84.72222c0,46.79079 -37.93143,84.72222 -84.72222,84.72222c-46.79079,0 -84.72222,-37.93143 -84.72222,-84.72222z" fill="#faddbf" stroke-width="2"/><path d="M213.55614,107.27367c0,-15.05428 8.65728,-41.01117 13.16632,-44.22534c0.51494,-0.36707 5.78642,-8.91029 13.30693,-15.62682c9.34748,-8.34819 21.31473,-15.15641 21.9255,-14.95935c7.96872,2.57101 -17.52654,64.85492 -16.28763,90.14485c0.00295,0.06031 4.40745,19.70158 6.02593,20.14049c2.8855,4.74247 9.11092,19.15337 19.99223,26.29351c20.2786,13.30648 48.94186,19.68013 47.45857,20.18586c-2.37273,0.80898 -14.80271,2.76903 -20.86562,2.76903c-46.79079,0 -84.72222,-37.93143 -84.72222,-84.72222z" fill="#ef8b89" stroke-width="0"/><path d="M382.24637,107.68498c0,11.62434 -1.57787,15.64071 -2.12992,13.78899c-0.5632,-1.8891 -0.18668,-9.81362 -9.04258,-14.64925c-2.14596,-1.17177 -10.20624,6.27605 -12.93385,5.04791c-1.71325,-0.77142 -8.65215,-10.17554 -10.56583,-10.85157c-1.33801,-0.47267 -12.45011,8.37757 -13.84965,7.92692c-3.49052,-1.12394 -11.98851,-11.37355 -15.73972,-12.03156c-2.06568,-0.36235 -9.2828,11.84977 -11.39182,11.59592c-2.71985,-0.32737 -10.06862,-12.06843 -12.80601,-12.06843c-7.27985,0 -7.47978,7.01079 -12.7176,13.01701c-3.40366,3.90299 -13.98842,-13.05188 -17.11223,-8.61668c-3.87941,5.50799 -7.71992,10.81771 -11.96095,14.41734c-3.32724,2.82405 -13.36416,-10.09687 -16.24015,-7.47909c-13.88607,12.63935 -22.22353,20.64372 -22.22353,2.47189c0,-36.54015 43.28764,-8.21349 85.0704,-29.73523c39.99404,-20.60039 83.64345,-9.37431 83.64345,27.16584z" fill="#ef8b89" stroke-width="0"/></g><path d="M383.78024,99.37409c0,23.48334 6.5317,8.71531 -11.46679,-0.86026c-2.20249,-1.17177 -10.47508,6.27605 -13.27454,5.04791c-1.75838,-0.77142 -8.88005,-10.17554 -10.84414,-10.85157c-1.37326,-0.47267 -12.77806,8.37757 -14.21446,7.92692c-3.58246,-1.12394 -12.30429,-11.37355 -16.15431,-12.03156c-2.12009,-0.36235 -9.52731,11.84977 -11.69189,11.59592c-2.79149,-0.32737 -10.33384,-12.06843 -13.14333,-12.06843c-7.47161,0 -7.6768,7.01079 -13.05259,13.01701c-3.49332,3.90299 -14.35688,-13.05188 -17.56298,-8.61668c-3.98159,5.50799 -7.92327,10.81771 -12.276,14.41734c-3.41488,2.82405 -13.71618,-10.09687 -16.66792,-7.47909c-14.25184,12.63935 -22.80892,20.64372 -22.80892,2.47189c0,-36.54015 39.86264,-81.25697 85.78948,-81.25697c45.92683,0 87.36842,42.14743 87.36842,78.68758z" fill="#873412" stroke-width="2"/><path d="M383.53251,98.2113c0,23.48334 6.5317,8.71531 -11.46679,-0.86026c-2.20249,-1.17177 -10.47508,6.27605 -13.27454,5.04791c-1.75838,-0.77142 -8.88005,-10.17554 -10.84415,-10.85157c-1.37326,-0.47267 -12.77806,8.37757 -14.21446,7.92692c-3.58246,-1.12394 -12.30429,-11.37355 -16.15431,-12.03156c-2.12009,-0.36235 -9.52731,11.84977 -11.69189,11.59592c-2.79149,-0.32737 -10.33384,-12.06843 -13.14333,-12.06843c-7.47161,0 -7.6768,7.01079 -13.05259,13.01701c-3.49332,3.90299 -14.35688,-13.05188 -17.56298,-8.61668c-3.98159,5.50799 -7.92327,10.81771 -12.27601,14.41734c-3.41488,2.82405 -13.71618,-10.09687 -16.66792,-7.47909c-14.25184,12.63935 -22.80892,20.64372 -22.80892,2.47189c0,-36.54015 44.42786,-8.21349 87.31121,-29.73523c41.04751,-20.60039 85.84668,-9.37431 85.84668,27.16584z" fill="#741d23" stroke-width="0"/></g><path d="M298.78901,31.06715c0.06504,0.11563 0.11871,0.24909 0.16282,0.39594c0.0942,0.25915 0.14675,0.5383 0.14957,0.82934c0.10872,1.13632 -0.04492,2.51335 0.00011,3.00545c0.05917,0.64652 1.19031,-0.74732 1.8333,-0.6576c0.39387,0.05496 0.79058,0.76163 1.08556,0.49491c1.79014,-1.61865 3.39338,-4.4788 6.14794,-2.85557c0.91226,0.53758 0.67628,1.89067 1.24094,2.5754c0.04747,0.05756 2.60921,-0.1366 3.20483,0.39633c1.0263,0.91828 0.31921,2.25188 0.84227,3.24453c0.16737,0.31764 0.57449,-0.44225 0.90296,-0.5872c1.46188,-0.64507 3.99723,-2.00657 5.75026,-1.00484c0.9237,0.52783 0.74309,2.13955 1.25,2.58145c0.88869,0.7747 1.93355,-1.36509 2.98795,-1.89251c1.4583,-0.72946 2.18563,-0.02863 3.42998,0.8575c0.21462,0.15284 0.4729,4.13203 1.5751,5.28976c0.61955,0.65076 1.65156,-0.85868 2.54995,-0.87393c0.89637,-0.01521 2.71106,-0.73753 3.13293,-0.63391c0.84623,0.20784 1.57162,1.64085 2.32283,1.19928c3.83542,-2.25449 8.74631,-0.80574 7.11144,4.15438c-0.20689,0.62772 1.32191,-0.57392 1.94893,-0.36491c0.24308,0.08102 1.59685,1.0818 1.82405,0.9958c1.48606,-0.56253 2.42529,-1.27962 4.01644,-1.28349c1.32143,-0.00321 2.58997,0.74067 2.89673,2.12114c0.16122,0.7255 -0.99738,2.12313 -0.25981,2.21439c1.73856,0.21513 4.46436,0.94049 3.69208,3.47798c-0.83832,2.75449 -3.13962,5.14362 -5.7124,3.05264c-0.89263,-0.72546 -2.30427,1.24264 -3.36004,0.78609c-1.35252,-0.58487 -2.02055,-2.87334 -1.94906,-4.04994c0.03305,-0.54391 -1.07328,0.37399 -1.61032,0.28162c-0.72305,-0.12436 -1.06576,-1.21538 -1.79736,-1.27038c-1.63644,-0.12301 -1.3588,3.26616 -5.24535,2.4796c-1.14716,-0.23216 -2.516,-2.181 -2.89553,-3.27894c-0.22031,-0.63733 1.44671,-2.64957 1.28866,-2.75515c-0.38378,-0.25637 -1.94579,2.82743 -2.37223,2.96958c-1.02591,0.34197 -2.14798,-0.37973 -3.14348,-0.80211c-0.87953,-0.37317 -1.15332,1.88993 -2.10728,1.94293c-0.84278,0.04682 -9.35342,-0.4825 -9.68874,-0.98549c-0.40882,-0.61322 -0.82062,-1.721 -0.66291,-2.43068c0.05668,-0.25505 0.97585,-1.84123 0.79428,-1.82108c-0.64439,0.07149 -4.18815,3.4397 -6.35755,0.18561c-1.1797,-1.76955 0.97225,-3.59848 0.97549,-5.22262c0.002,-1.00299 -1.1089,1.67543 -1.57852,2.56169c-0.3607,0.68072 -1.43499,1.3053 -2.20947,1.33028c-2.67773,0.08638 -1.93793,-2.47479 -2.5,-3.98918c-0.25939,-0.69888 -1.57778,0.59517 -2.22503,0.22532c-1.58252,-0.90429 -1.34694,-2.0688 -1.48465,-3.60097c-0.06306,-0.70155 -0.5487,2.71516 -2.19331,2.88171c-0.66697,0.06754 -1.7235,-0.94735 -1.98395,-0.32962c-1.26801,3.00744 -0.56288,4.21953 -4.35893,3.73846c-0.36631,-0.04642 -0.97772,0.79566 -1.37068,0.57111c-4.34916,-2.48524 -0.86033,-7.93142 -0.7383,-11.93952c0.04305,-1.41383 -0.88265,-3.52759 0.34546,-4.22937c0.43488,-0.73685 1.23698,-1.23116 2.15454,-1.23116c0.81357,0 1.53638,0.38863 1.99291,0.99036c0.07451,0.07697 0.14011,0.16278 0.19459,0.25964z" fill="#ba587e" stroke="none" stroke-width="0.5"/></g><g stroke="#000000"><path d="M328.79798,140.31295c0,28.55894 -13.1683,43.28947 -29.73684,43.28947c-16.56854,0 -30.26316,-14.73054 -30.26316,-43.28947c0,-28.55894 13.43146,-51.71053 30,-51.71053c16.56854,0 30,23.15159 30,51.71053z" fill="#f0f0f0" stroke-width="2"/><path d="M282.04225,120.73057c-4.30259,28.23297 34.22345,62.0416 17.65491,62.0416c-16.56854,0 -30.26316,-14.73054 -30.26316,-43.28947c0,-28.55894 18.82852,-59.56866 12.60825,-18.75213z" fill="#9a99ff" stroke-width="0"/></g><path d="M324.90355,148.5462c0,15.82221 -4.68891,28.64865 -10.47297,28.64865c-5.78406,0 -10.47297,-12.82644 -10.47297,-28.64865c0,-15.82221 4.68891,-28.64865 10.47297,-28.64865c5.78406,0 10.47297,12.82644 10.47297,28.64865z" fill="#000000" stroke="none" stroke-width="0"/><g stroke="#000000"><path d="M323.78868,110.27828c4.45946,10.22981 9.32841,32.87316 -6.38185,32.87316c-15.71026,0 -46.40621,-23.39308 -41.8614,-33.0083c4.32432,-9.14873 6.78974,-21.41892 22.5,-21.41892c15.71026,0 21.49332,11.80491 25.74324,21.55405z" fill="#a100fe" stroke-width="2"/><path d="M322.86441,109.92404c4.3074,10.22981 9.42854,32.39844 -5.74604,32.39844c-15.17458,0 -45.24208,-22.91836 -40.85224,-32.53358c4.17687,-9.14873 6.55823,0.96203 21.73281,0.96203c15.17458,0 20.76045,-10.57604 24.86546,-0.8269z" fill="#99008e" stroke-width="0"/></g><g data-paper-data="{&quot;index&quot;:null}" stroke="#000000"><path d="M362.52466,87.56512c16.56854,0 30,23.15159 30,51.71053c0,28.55893 -13.69462,43.28947 -30.26316,43.28947c-16.56854,0 -29.73684,-14.73053 -29.73684,-43.28947c0,-28.55894 13.43146,-51.71053 30,-51.71053z" fill="#f0f0f0" stroke-width="2"/><path d="M391.88864,138.44538c0,28.55893 -13.69462,43.28947 -30.26316,43.28947c-16.56854,0 21.9575,-33.80863 17.65491,-62.0416c-6.22027,-40.81653 12.60825,-9.80681 12.60825,18.75213z" fill="#9a99ff" stroke-width="0"/></g><path d="M376.04575,119.28482c5.78406,0 10.47297,12.82644 10.47297,28.64865c0,15.82221 -4.68891,28.64865 -10.47297,28.64865c-5.78406,0 -10.47297,-12.82644 -10.47297,-28.64865c0,-15.82221 4.68891,-28.64865 10.47297,-28.64865z" data-paper-data="{&quot;index&quot;:null}" fill="#000000" stroke="none" stroke-width="0"/><g data-paper-data="{&quot;index&quot;:null}" stroke="#000000"><path d="M337.53397,109.24094c4.24992,-9.74914 10.03298,-21.55405 25.74324,-21.55405c15.71026,0 18.17568,12.27019 22.5,21.41892c4.54481,9.61522 -24.96434,32.77094 -40.6746,32.77094c-15.71026,0 -12.02811,-22.40599 -7.56865,-32.6358z" fill="#a100fe" stroke-width="2"/><path d="M338.45824,108.8867c4.10501,-9.74914 9.69088,0.8269 24.86546,0.8269c15.17458,0 17.55594,-10.11076 21.73281,-0.96203c4.38984,9.61522 -24.72822,32.05886 -39.9028,32.05886c-15.17458,0 -11.00288,-21.69391 -6.69548,-31.92372z" fill="#99008e" stroke-width="0"/></g><path d="M256.1387,149.38474c-0.4224,0.687 -0.81222,1.49136 -0.57053,2.06053c0.4491,1.05759 1.73744,1.50598 2.56054,2.30765c2.60484,2.53699 4.78544,6.23113 3.46354,9.97593c-2.06607,5.85296 -9.18103,5.15273 -12.9613,1.7933c-4.58025,-4.99245 -7.33281,-13.53337 -4.66429,-20.20074c2.34079,-5.84853 9.66433,-8.11824 13.47809,-2.46551c0.87825,2.20023 1.25553,3.12968 0.0502,5.22736l-0.54694,0.76879c0,0 -0.31034,0.43448 -0.80932,0.53269z" fill="#000000" stroke="none" stroke-width="0.5"/></g></g></g></svg>