<svg version="1.1" xmlns="http://www.w3.org/2000/svg" xmlns:xlink="http://www.w3.org/1999/xlink" width="286.55519" height="283.48571" viewBox="0,0,286.55519,283.48571"><g transform="translate(-192.06988,-47.09241)"><g data-paper-data="{&quot;isPaintingLayer&quot;:true}" fill-rule="nonzero" stroke-linejoin="miter" stroke-miterlimit="10" stroke-dasharray="" stroke-dashoffset="0" style="mix-blend-mode: normal"><g data-paper-data="{&quot;index&quot;:null}" stroke="#000000" stroke-linecap="butt"><path d="M298.86371,329.13374v-90.27109h61.17899v90.27109z" fill="#273750" stroke-width="2"/><path d="M299.65105,328.37718v-90.27109l18.42709,49.31565l42.75189,40.95544z" fill="#1f1e2e" stroke-width="0"/></g><g data-paper-data="{&quot;index&quot;:null}" stroke="#000000" stroke-linecap="butt"><path d="M246.25776,329.57812v-90.27109h61.17899v90.27109z" fill="#273750" stroke-width="2"/><path d="M247.04514,328.82151v-90.27109l18.42709,49.31565l42.75189,40.95544z" fill="#1f1e2e" stroke-width="0"/></g><g data-paper-data="{&quot;index&quot;:null}" stroke="#000000" stroke-linecap="butt"><path d="M467.14075,266.91948l-47.06938,-9.70955l10.30291,-49.94584l47.06938,9.70955z" fill="#ffcaa0" stroke-width="2"/><g><path d="M420.21418,257.40998l-64.90352,-13.38841l10.4372,-50.59683l64.90352,13.38841z" fill="#ff0008" stroke-width="2"/><path d="M420.5725,256.72466l-33.99454,-7.01245c0,0 17.24288,-12.2221 18.97559,-20.62182c1.64287,-7.9642 -8.8345,-28.53953 -8.8345,-28.53953l33.99455,7.01245c0,0 -3.33551,16.16967 -5.0166,24.31918c-1.69908,8.23668 -5.12449,24.84217 -5.12449,24.84217z" fill="#8d005e" stroke-width="0"/></g><path d="M466.76739,266.03513l-47.06938,-9.70955l34.54573,-6.2324l22.82656,-34.00388z" fill="#ff6e5b" stroke-width="0"/></g><g data-paper-data="{&quot;index&quot;:null}" stroke="#000000" stroke-linecap="butt"><path d="M438.76077,143.98098c-7.37085,31.35044 -24.91474,54.04507 -39.18537,50.68988c-14.27063,-3.35519 -19.864,-31.48966 -12.49315,-62.8401c7.37085,-31.35044 24.91474,-54.04507 39.18537,-50.68988c14.27063,3.35519 19.864,31.48966 12.49315,62.8401z" fill="#01930e" stroke-width="2"/><path d="M398.31851,124.15007c-7.37085,31.35044 16.01807,73.5453 1.74745,70.19011c-14.27062,-3.35519 -19.864,-31.48966 -12.49315,-62.8401c7.37085,-31.35044 18.11656,-38.70045 10.7457,-7.35001z" fill="#31525b" stroke-width="0"/></g><path d="M245.44057,270.28437l26.04586,-110.78081l110.78081,26.04586l-26.04586,110.78081z" data-paper-data="{&quot;index&quot;:null}" fill="#ff0008" stroke="#000000" stroke-width="2" stroke-linecap="butt"/><g data-paper-data="{&quot;index&quot;:null}" stroke="#000000" stroke-linecap="butt"><path d="M193.27221,278.98174l10.99964,-46.78472l49.64378,11.67183l-10.99964,46.78472z" fill="#ffcaa0" stroke-width="2"/><g><path d="M204.06794,232.33428l15.16729,-64.51101l50.29084,11.82396l-15.16729,64.51101z" fill="#ff0008" stroke-width="2"/><path d="M204.74315,232.7113l7.94418,-33.78896c0,0 11.74354,17.5723 20.09247,19.53523c7.91603,1.86115 28.77157,-8.04673 28.77157,-8.04673l-7.94418,33.78897c0,0 -16.07188,-3.77869 -24.17211,-5.68315c-8.18687,-1.92483 -24.69193,-5.80536 -24.69193,-5.80536z" fill="#8d005e" stroke-width="0"/></g><path d="M194.16648,278.63283l10.99964,-46.78472l5.28052,34.70399l33.36362,23.75257z" fill="#ff6e5b" stroke-width="0"/></g><g data-paper-data="{&quot;index&quot;:null}" fill="#000000" stroke="#000000" stroke-linecap="butt"><path d="M271.72721,275.98265l25.56108,-108.71889l59.5551,14.0021l-25.56108,108.71889z" stroke-width="2"/><path d="M272.70792,275.25168l25.56108,-108.71889l3.9738,63.61122l30.02021,59.10977z" stroke-width="0"/></g><g data-paper-data="{&quot;index&quot;:null}" stroke="#000000" stroke-linecap="butt"><path d="M266.40115,101.84517c0.31503,-1.33992 7.12993,-26.45032 7.53958,-27.74635c10.35159,-32.74942 43.9001,-27.41552 85.2179,-17.70123c38.81156,9.12505 71.29845,21.42907 69.97982,53.26289c-0.1407,3.39679 -6.39316,25.3617 -7.19106,28.75542c-2.85199,12.13038 -6.21024,39.47601 -15.65823,47.44043c-17.96725,15.14594 -48.94901,4.62559 -77.09925,-1.99286c-29.76379,-6.99782 -57.74402,-12.56829 -66.0863,-35.76784c-3.69669,-10.28034 0.75642,-35.44234 3.29754,-46.25047z" fill="#ffcaa0" stroke-width="2"/><path d="M264.61412,101.43548c0.31503,-1.33992 7.12993,-26.45032 7.53958,-27.74635c5.88128,-18.60666 -7.17824,60.51977 34.3221,92.79976c32.5225,25.29682 102.48519,15.79913 98.68664,19.00122c-17.96725,15.14594 -49.60931,4.5821 -77.75954,-2.03635c-29.76379,-6.99782 -57.74402,-12.56829 -66.0863,-35.76784c-3.69669,-10.28034 0.75642,-35.44234 3.29754,-46.25047z" fill="#ff6e5b" stroke-width="0"/></g><g data-paper-data="{&quot;index&quot;:null}" stroke="#000000" stroke-linecap="butt"><path d="M310.66522,111.73375c-7.37085,31.35044 -24.91474,54.04507 -39.18537,50.68988c-14.27063,-3.35519 -19.864,-31.48966 -12.49315,-62.8401c7.37085,-31.35044 24.91474,-54.04507 39.18537,-50.68988c14.27063,3.35519 19.864,31.48966 12.49315,62.8401z" fill="#01930e" stroke-width="2"/><path d="M270.22296,91.90285c-7.37085,31.35044 16.01807,73.5453 1.74745,70.19011c-14.27062,-3.35519 -19.864,-31.48966 -12.49315,-62.8401c7.37085,-31.35044 18.11656,-38.70045 10.7457,-7.35001z" fill="#31525b" stroke-width="0"/></g><g data-paper-data="{&quot;index&quot;:null}" stroke-linecap="butt"><path d="M446.44946,105.87006c-4.04208,17.19218 -47.58132,21.66301 -97.24761,9.98588c-49.66629,-11.67713 -86.65201,-35.08032 -82.60992,-52.27249c4.04208,-17.19218 47.58131,-21.663 97.2476,-9.98588c49.66629,11.67713 86.65202,35.08032 82.60993,52.2725z" fill="#000000" stroke="none" stroke-width="NaN"/><path d="M445.65993,106.03811c-4.04208,17.19218 -47.58132,21.66301 -97.24761,9.98588c-49.66629,-11.67713 -86.65201,-35.08032 -82.60992,-52.27249c4.04208,-17.19218 39.6317,18.40816 89.29799,30.08529c49.66629,11.67713 94.60163,-4.99086 90.55955,12.20132z" fill="#ff0000" stroke="#000000" stroke-width="2"/><path d="M438.31216,113.75828c-1.11235,4.73114 -40.75641,14.54147 -90.09483,1.46983c-17.26547,-4.57428 -33.28744,-10.01761 -45.97967,-16.0361c-23.56325,-11.17337 -36.83511,-23.11029 -33.63329,-26.55876c3.3069,-3.56164 32.79792,25.04965 82.46421,36.72678c49.66629,11.67713 88.35593,-0.33289 87.24359,4.39825z" fill="#900056" stroke="#000000" stroke-width="0"/></g><path d="M368.28616,151.70761c-3.59729,15.30033 -9.34142,27.03881 -12.8299,26.21862c-3.48848,-0.82018 -3.40026,-13.88844 0.19702,-29.18875c3.59729,-15.30033 9.34143,-27.03879 12.8299,-26.21861c3.48848,0.82018 3.40026,13.88844 -0.19702,29.18876z" data-paper-data="{&quot;index&quot;:null}" fill="#000000" stroke="none" stroke-width="0" stroke-linecap="butt"/><path d="M398.18755,153.00943c-3.5829,15.23912 -9.16654,26.96298 -12.4714,26.18597c-3.30488,-0.77701 -3.07948,-13.76066 0.50341,-28.99978c3.5829,-15.23912 9.16654,-26.96298 12.4714,-26.18597c3.30488,0.77701 3.07948,13.76066 -0.50341,28.99978z" data-paper-data="{&quot;index&quot;:null}" fill="#000000" stroke="none" stroke-width="0" stroke-linecap="butt"/><path d="M372.84682,124.8557l-29.2037,-6.86613" fill="none" stroke="#000000" stroke-width="5" stroke-linecap="round"/><path d="M384.5614,125.91536l23.74936,0.93659" fill="none" stroke="#000000" stroke-width="5" stroke-linecap="round"/><path d="M340.82378,165.19231c0,7.11598 -3.53006,12.88462 -7.88462,12.88462c-4.35455,0 -7.88462,-5.76864 -7.88462,-12.88462c0,-7.11598 3.53006,-12.88462 7.88462,-12.88462c4.35455,0 7.88462,5.76864 7.88462,12.88462z" fill="#000000" stroke="none" stroke-width="0" stroke-linecap="butt"/></g></g></svg>