<svg version="1.1" xmlns="http://www.w3.org/2000/svg" xmlns:xlink="http://www.w3.org/1999/xlink" width="235.70764" height="258.26108" viewBox="0,0,235.70764,258.26108"><g transform="translate(-191.15025,-72.31702)"><g data-paper-data="{&quot;isPaintingLayer&quot;:true}" fill-rule="nonzero" stroke-linecap="butt" stroke-linejoin="miter" stroke-miterlimit="10" stroke-dasharray="" stroke-dashoffset="0" style="mix-blend-mode: normal"><g data-paper-data="{&quot;index&quot;:null}" stroke="#000000"><path d="M301.80627,329.16535v-83.85102h70.73223v83.85102z" fill="#273750" stroke-width="2"/><path d="M302.71655,328.46259v-83.85102l21.30452,45.80833l49.42769,38.0427z" fill="#1f1e2e" stroke-width="0"/></g><g data-paper-data="{&quot;index&quot;:null}" stroke="#000000"><path d="M240.98578,329.57811v-83.85102h70.73223v83.85102z" fill="#273750" stroke-width="2"/><path d="M241.8961,328.87533v-83.85102l21.30452,45.80833l49.42769,38.0427z" fill="#1f1e2e" stroke-width="0"/></g><g data-paper-data="{&quot;index&quot;:null}" stroke="#000000"><path d="M312.70114,291.19207l21.33181,-41.2215l54.44275,18.18583l-21.33181,41.2215z" fill="#ffcaa0" stroke-width="2"/><g><path d="M333.77458,250.06561l29.41423,-56.83994l55.15236,18.42287l-29.41423,56.83994z" fill="#0000c0" stroke-width="2"/><path d="M334.47408,250.51301l15.40632,-29.77107c0,0 10.09811,17.87725 19.25411,20.93569c8.68126,2.89985 34.33351,-3.0355 34.33351,-3.0355l-15.40632,29.77108c0,0 -17.62551,-5.88756 -26.50878,-8.85488c-8.97829,-2.99908 -27.07886,-9.04532 -27.07886,-9.04532z" fill="#56006b" stroke-width="0"/></g><path d="M313.78686,291.00714l21.33181,-41.2215l-0.49125,32.60449l33.60219,26.80284z" fill="#ff6e5b" stroke-width="0"/></g><g data-paper-data="{&quot;index&quot;:null}" stroke="#000000"><path d="M425.85789,138.11614c0,29.91483 -13.73979,54.1656 -30.6887,54.1656c-16.9489,0 -30.6887,-24.25077 -30.6887,-54.1656c0,-29.91483 13.73979,-54.1656 30.6887,-54.1656c16.9489,0 30.6887,24.25077 30.6887,54.1656z" fill="#01930e" stroke-width="2"/><path d="M375.09412,128.78232c0,29.91483 37.48857,63.09614 20.53969,63.09614c-16.94889,0 -30.6887,-24.25077 -30.6887,-54.1656c0,-29.91483 10.14901,-38.84537 10.14901,-8.93053z" fill="#31525b" stroke-width="0"/></g><path d="M241.70401,293.42146v-105.70792h131.57185v105.70792z" data-paper-data="{&quot;index&quot;:null}" fill="#0000c0" stroke="#000000" stroke-width="2"/><g data-paper-data="{&quot;index&quot;:null}" stroke="#000000"><path d="M272.79652,292.98561v-103.74043h70.73223v103.74043z" fill="#ffffff" stroke-width="2"/><path d="M273.70684,292.11615v-103.74043l21.30452,56.67403l49.42769,47.06641z" fill="#8ebbfc" stroke-width="0"/></g><g data-paper-data="{&quot;index&quot;:null}" stroke="#000000"><path d="M220.72373,136.65848c0,-1.27856 1.02546,-25.43282 1.14357,-26.69179c2.98452,-31.8135 42.15359,-34.12268 91.22578,-34.12268c46.09561,0 85.91421,4.21909 92.85368,33.28435c0.74047,3.10136 -0.48432,24.29183 -0.48432,27.53013c0,11.57491 3.45634,37.01544 -5.06958,46.22564c-16.21373,17.51507 -53.86639,14.58883 -87.29978,14.58883c-35.34978,0 -68.31454,0.91147 -83.8423,-18.29261c-6.88077,-8.50985 -8.52706,-32.20864 -8.52706,-42.52185z" fill="#ffcaa0" stroke-width="2"/><path d="M218.60408,136.66795c0,-1.27856 1.02546,-25.43282 1.14357,-26.69179c1.69568,-18.07492 7.93528,56.24952 63.18404,76.61517c43.2967,15.95993 119.52403,-7.50175 116.0962,-3.7988c-16.21373,17.51507 -54.62105,14.68988 -88.05443,14.68988c-35.34978,0 -68.31454,0.91147 -83.8423,-18.29261c-6.88077,-8.50985 -8.52706,-32.20864 -8.52706,-42.52185z" fill="#ff6e5b" stroke-width="0"/></g><g data-paper-data="{&quot;index&quot;:null}" stroke="#000000"><path d="M273.15799,136.18973c0,29.91483 -13.73979,54.1656 -30.6887,54.1656c-16.9489,0 -30.6887,-24.25077 -30.6887,-54.1656c0,-29.91483 13.73979,-54.1656 30.6887,-54.1656c16.9489,0 30.6887,24.25077 30.6887,54.1656z" fill="#01930e" stroke-width="2"/><path d="M222.39421,126.85591c0,29.91483 37.48857,63.09614 20.53969,63.09614c-16.94889,0 -30.6887,-24.25077 -30.6887,-54.1656c0,-29.91483 10.14901,-38.84537 10.14901,-8.93053z" fill="#31525b" stroke-width="0"/></g><g data-paper-data="{&quot;index&quot;:null}"><path d="M424.4267,102.02074c0,16.40493 -47.81884,29.70372 -106.80636,29.70372c-58.98752,0 -106.80634,-13.29882 -106.80634,-29.70372c0,-16.40493 47.81883,-29.70371 106.80634,-29.70371c58.98752,0 106.80636,13.29881 106.80636,29.70372z" fill="#000000" stroke="none" stroke-width="NaN"/><path d="M423.58259,102.34054c0,16.40493 -47.81884,29.70372 -106.80636,29.70372c-58.98752,0 -106.80634,-13.29882 -106.80634,-29.70372c0,-16.40493 49.47505,8.21967 108.46256,8.21967c58.98752,0 105.15013,-24.62457 105.15013,-8.21967z" fill="#ff0000" stroke="#000000" stroke-width="2"/><path d="M417.35578,110.88341c0,4.51449 -42.02206,21.81331 -101.00959,20.48267c-20.64207,-0.46565 -40.11458,-1.98147 -55.99179,-4.72524c-29.47619,-5.09384 -47.5718,-13.06598 -44.88079,-16.86485c2.77935,-3.92355 43.54128,15.67787 102.5288,15.67787c58.98752,0 99.35337,-19.08493 99.35337,-14.57045z" fill="#900056" stroke="#000000" stroke-width="0"/></g><path d="M373.26601,169.29358c0,14.59969 -3.3587,26.43509 -7.50189,26.43509c-4.1432,0 -7.50189,-11.83539 -7.50189,-26.43508c0,-14.59969 3.35871,-7.8175 7.50189,-7.8175c4.1432,0 7.50189,-6.78219 7.50189,7.81751z" data-paper-data="{&quot;index&quot;:null}" fill="#000000" stroke="none" stroke-width="0"/><path d="M394.46346,159.4928c0,14.54128 -3.18194,26.32933 -7.10706,26.32933c-3.92513,0 -7.10706,-11.78805 -7.10706,-26.32933c0,-14.54128 3.18194,-17.02055 7.10706,-17.02055c3.92513,0 7.10706,2.47926 7.10706,17.02055z" data-paper-data="{&quot;index&quot;:null}" fill="#000000" stroke="none" stroke-width="0"/><g data-paper-data="{&quot;index&quot;:null}" stroke="#000000"><path d="M235.15384,312.29858l-17.87445,-42.26947l55.82685,-15.23837l17.87445,42.26947z" fill="#ffcaa0" stroke-width="2"/><g><path d="M217.16353,270.23759l-24.64691,-58.28497l56.55449,-15.43697l24.64691,58.28497z" fill="#0000c0" stroke-width="2"/><path d="M218.05656,270.20228l-12.90932,-30.52795c0,0 22.2794,8.0632 31.66819,5.50048c8.90197,-2.42987 23.28182,-20.49948 23.28182,-20.49948l12.90933,30.52796c0,0 -18.07361,4.93333 -27.18271,7.41973c-9.20652,2.513 -27.76727,7.57929 -27.76727,7.57929z" fill="#56006b" stroke-width="0"/></g><path d="M235.81696,311.58359l-17.87445,-42.26947l26.43696,24.73999l47.26433,2.29112z" fill="#ff6e5b" stroke-width="0"/></g><path d="M341.18176,180.91126c0,5.56953 -2.5937,10.08451 -5.7932,10.08451c-3.1995,0 -5.7932,-4.51499 -5.7932,-10.08451c0,-5.56953 2.5937,-10.08451 5.7932,-10.08451c3.1995,0 5.7932,4.51499 5.7932,10.08451z" fill="#000000" stroke="none" stroke-width="0"/></g></g></svg>