<svg version="1.1" xmlns="http://www.w3.org/2000/svg" xmlns:xlink="http://www.w3.org/1999/xlink" width="184.26932" height="315.6377" viewBox="0,0,184.26932,315.6377"><g transform="translate(-245.25776,-14.94041)"><g data-paper-data="{&quot;isPaintingLayer&quot;:true}" fill-rule="nonzero" stroke-linecap="butt" stroke-linejoin="miter" stroke-miterlimit="10" stroke-dasharray="" stroke-dashoffset="0" style="mix-blend-mode: normal"><g data-paper-data="{&quot;index&quot;:null}" stroke="#000000"><path d="M311.59304,233.96791l17.35325,-43.41789l46.09592,18.40384l-17.35325,43.41789z" fill="#ffcaa0" stroke-width="2"/><g><path d="M328.73018,190.6526l23.92823,-59.86851l46.69674,18.64372l-23.92823,59.86851z" fill="#0000c0" stroke-width="2"/><path d="M329.32558,191.1129l12.53289,-31.35736c0,0 8.76236,18.60223 16.51462,21.69733c7.3503,2.93461 28.85729,-3.58256 28.85729,-3.58256l-12.5329,31.35737c0,0 -14.92328,-5.95813 -22.44462,-8.96104c-7.60178,-3.03502 -22.9273,-9.15374 -22.9273,-9.15374z" fill="#56006b" stroke-width="0"/></g><path d="M312.50428,233.7615l17.35325,-43.41789l0.06401,34.14908l28.67868,27.67264z" fill="#ff6e5b" stroke-width="0"/></g><g data-paper-data="{&quot;index&quot;:null}" stroke="#000000"><path d="M427.70072,91.0092c-2.28843,31.24616 -15.67992,55.73219 -29.91072,54.69106c-14.2308,-1.04113 -23.912,-27.21515 -21.62357,-58.46132c2.28843,-31.24616 15.67992,-55.73219 29.91072,-54.69106c14.2308,1.04113 23.912,27.21515 21.62357,58.46132z" fill="#01930e" stroke-width="2"/><path d="M385.79196,78.14169c-2.28843,31.24616 26.64979,68.207 12.41898,67.16587c-14.23079,-1.04113 -23.912,-27.21515 -21.62357,-58.46132c2.28843,-31.24616 11.49302,-39.95072 9.20459,-8.70455z" fill="#31525b" stroke-width="0"/></g><g data-paper-data="{&quot;index&quot;:null}" stroke="#000000"><path d="M297.46108,329.14582v-87.81706h59.54778v87.81706z" fill="#273750" stroke-width="2"/><path d="M298.22743,328.40982v-87.81706l17.93577,47.975l41.612,39.84206z" fill="#1f1e2e" stroke-width="0"/></g><path d="M246.86243,240.92866v-110.70777h110.7672v110.70777z" data-paper-data="{&quot;index&quot;:null}" fill="#0000c0" stroke="#000000" stroke-width="2"/><g data-paper-data="{&quot;index&quot;:null}" stroke="#000000"><path d="M246.25776,329.57811v-87.81706h59.54778v87.81706z" fill="#273750" stroke-width="2"/><path d="M247.02415,328.84208v-87.81706l17.93577,47.975l41.612,39.84206z" fill="#1f1e2e" stroke-width="0"/></g><g data-paper-data="{&quot;index&quot;:null}" stroke="#000000"><path d="M273.03846,240.47219v-108.64721h59.54778v108.64721z" fill="#ffffff" stroke-width="2"/><path d="M273.80485,239.56161v-108.64721l17.93577,59.35463l41.612,49.29258z" fill="#8ebbfc" stroke-width="0"/></g><g data-paper-data="{&quot;index&quot;:null}" stroke="#000000"><path d="M255.5755,76.8858c0.09781,-1.33547 2.80657,-26.50169 3.00205,-27.80944c4.93957,-33.04602 38.00372,-33.05189 79.2062,-30.03751c38.70324,2.83153 71.81337,9.68434 75.41652,40.46939c0.38447,3.28488 -2.26493,25.34316 -2.51265,28.72558c-0.88546,12.09004 0.07043,38.87508 -7.79275,47.97147c-14.9534,17.29858 -46.34384,11.92921 -74.41552,9.87548c-29.68072,-2.17145 -57.42863,-3.24436 -68.99713,-24.25694c-5.12631,-9.31123 -4.69567,-34.16586 -3.90673,-44.93804z" fill="#ffcaa0" stroke-width="2"/><path d="M253.79505,76.76548c0.09781,-1.33547 2.80657,-26.50169 3.00205,-27.80944c2.80643,-18.77517 2.35971,59.24029 47.19026,83.90609c35.13229,19.32981 100.92979,-0.49355 97.76842,3.16364c-14.9534,17.29858 -46.9852,11.98841 -75.05687,9.93468c-29.68072,-2.17145 -57.42863,-3.24436 -68.99713,-24.25694c-5.12631,-9.31123 -4.69567,-34.16586 -3.90673,-44.93804z" fill="#ff6e5b" stroke-width="0"/></g><g data-paper-data="{&quot;index&quot;:null}" stroke="#000000"><path d="M299.63671,79.61708c-2.28843,31.24616 -15.67992,55.73219 -29.91072,54.69106c-14.2308,-1.04113 -23.912,-27.21515 -21.62357,-58.46132c2.28843,-31.24616 15.67992,-55.73219 29.91072,-54.69106c14.2308,1.04113 23.912,27.21515 21.62357,58.46132z" fill="#01930e" stroke-width="2"/><path d="M257.72795,66.74957c-2.28843,31.24616 26.64979,68.207 12.41898,67.16587c-14.23079,-1.04113 -23.912,-27.21515 -21.62357,-58.46132c2.28843,-31.24616 11.49302,-39.95072 9.20459,-8.70455z" fill="#31525b" stroke-width="0"/></g><g data-paper-data="{&quot;index&quot;:null}"><path d="M429.26029,53.2195c-1.25494,17.135 -42.42239,28.08827 -91.95007,24.46481c-49.52768,-3.62345 -88.66044,-20.45151 -87.4055,-37.5865c1.25494,-17.135 42.42238,-28.08826 91.95006,-24.4648c49.52768,3.62345 88.66045,20.4515 87.40551,37.5865z" fill="#000000" stroke="none" stroke-width="NaN"/><path d="M428.52708,53.50168c-1.25494,17.135 -42.42239,28.08827 -91.95007,24.46481c-49.52768,-3.62345 -88.66044,-20.45151 -87.4055,-37.5865c1.25494,-17.135 40.91193,11.62459 90.4396,15.24805c49.52768,3.62345 90.1709,-19.26137 88.91596,-2.12636z" fill="#ff0000" stroke="#000000" stroke-width="2"/><path d="M422.64535,62.04224c-0.34535,4.7154 -36.95165,20.20278 -86.37754,15.18945c-17.29607,-1.75436 -33.52982,-4.53379 -46.6509,-8.37497c-24.35942,-7.13118 -38.94318,-16.56968 -36.3931,-20.37233c2.63377,-3.92744 35.35922,19.05025 84.88689,22.6737c49.52768,3.62345 84.88,-13.83126 84.53465,-9.11586z" fill="#900056" stroke="#000000" stroke-width="0"/></g><path d="M379.63317,112.57512c-1.11685,15.24944 -4.8423,27.40524 -8.32105,27.15073c-3.47875,-0.25451 -5.39343,-12.82294 -4.27657,-28.07236c1.11685,-15.24944 4.84231,-27.40523 8.32105,-27.15072c3.47875,0.25451 5.39343,12.82294 4.27657,28.07237z" data-paper-data="{&quot;index&quot;:null}" fill="#000000" stroke="none" stroke-width="0"/><path d="M402.02462,106.57732c-1.11238,15.18844 -4.6858,27.30564 -7.98144,27.06454c-3.29565,-0.24111 -5.06553,-12.74924 -3.95315,-27.93767c1.11238,-15.18844 4.6858,-27.30564 7.98144,-27.06454c3.29565,0.24111 5.06553,12.74924 3.95315,27.93767z" data-paper-data="{&quot;index&quot;:null}" fill="#000000" stroke="none" stroke-width="0"/><path d="M350.55699,116.79923c0.01181,0.3737 -0.15277,0.68112 -0.15277,0.68112c-2.45078,4.3198 5.68377,9.02621 7.19903,12.65796c1.19784,2.87098 0.03626,5.13034 -2.6813,6.19151c-1.18044,0.46094 -2.51977,0.46574 -3.78368,0.37267c-1.86416,-0.13725 -3.15025,-0.95704 -4.76779,-1.84131c-6.13287,-4.2261 -6.77136,-10.74709 -6.55741,-17.65086c0.0608,-1.96201 0.19338,-3.73981 1.20529,-5.51584c1.97091,-3.4592 6.39061,-5.18013 9.06745,-1.32407c0.26685,0.38441 0.92816,2.59469 1.07326,3.05525c0.12366,1.09406 -0.07587,2.26648 -0.56059,3.25518z" fill="#000000" stroke="none" stroke-width="0.5"/><g data-paper-data="{&quot;index&quot;:null}" stroke="#000000"><path d="M412.39154,199.10547l-46.76053,-1.31271l1.39367,-49.5915l46.76053,1.31271z" fill="#ffcaa0" stroke-width="2"/><g><path d="M365.80185,197.96016l-64.47765,-1.81008l1.41184,-50.23786l64.47765,1.81008z" fill="#0000c0" stroke-width="2"/><path d="M366.02891,197.24289l-33.77149,-0.94807c0,0 14.45048,-14.63377 14.68486,-22.97391c0.22223,-7.90769 -13.31308,-25.83866 -13.31308,-25.83866l33.7715,0.94807c0,0 -0.45119,16.05495 -0.67859,24.14665c-0.22983,8.17824 -0.69319,24.66593 -0.69319,24.66593z" fill="#56006b" stroke-width="0"/></g><path d="M411.88355,198.32172l-46.76053,-1.31271l32.05078,-11.8327l16.10341,-36.44609z" fill="#ff6e5b" stroke-width="0"/></g></g></g></svg>