<svg version="1.1" xmlns="http://www.w3.org/2000/svg" xmlns:xlink="http://www.w3.org/1999/xlink" width="275.24753" height="299.55195" viewBox="0,0,275.24753,299.55195"><defs><radialGradient cx="259.7018" cy="276.69107" r="15.78493" gradientUnits="userSpaceOnUse" id="color-1"><stop offset="0" stop-color="#1e202b"/><stop offset="1" stop-color="#1e202b" stop-opacity="0"/></radialGradient></defs><g transform="translate(-102.37623,-30.22402)"><g data-paper-data="{&quot;isPaintingLayer&quot;:true}" fill-rule="nonzero" stroke-linejoin="miter" stroke-miterlimit="10" stroke-dasharray="" stroke-dashoffset="0" style="mix-blend-mode: normal"><path d="M102.37624,329.77598v-299.55195h275.24753v299.55195z" fill="none" stroke="none" stroke-width="0" stroke-linecap="butt"/><g stroke-linecap="butt"><path d="M235.49469,162.0328c0,0 2.41606,-23.6466 3.54142,-32.22817c0.85352,-6.50867 2.00553,-13.30184 2.5386,-16.18778c0.54216,-2.93514 2.79498,-6.20905 2.79498,-6.20905l34.125,0.625c0,0 -5.875,16.00677 -5.875,23.125c0,4.96022 16.75,26.5 16.75,26.5z" fill="#d396fc" stroke="#000000" stroke-width="1.5"/><path d="M260.24469,182.6578c0,0 -2.66969,-18.00127 -4.88479,-26.06598c-2.06619,-7.52254 -7.99021,-20.80902 -7.99021,-20.80902c0,0 8.57503,4.88317 16.62661,4.58849c3.55268,-0.13003 8.9984,-3.46349 8.9984,-3.46349c0,0 11.10733,13.26443 12.77687,17.66225c1.74388,4.59365 -2.52687,9.33775 -2.52687,9.33775z" fill="#ffc6ef" stroke="none" stroke-width="0"/><path d="M274.49908,164.78426c-0.4207,-1.71775 7.66002,-10.78342 6.84926,-12.60333c-3.54926,-7.96702 -9.80992,-16.015 -9.79734,-16.28225c0.09323,-1.98109 -0.05631,-4.86589 -0.05631,-4.86589h5c0,0 -0.03702,3.08658 1.03511,4.77322c1.0276,1.61658 8.83322,5.76766 11.63267,9.7721c5.7111,8.16938 8.70722,20.45468 8.70722,20.45468c0,0 -23.04696,0.07288 -23.37061,-1.24854z" fill="#2b263c" stroke="#000000" stroke-width="1.5"/><path d="M266.36969,174.5328c0,0 2.6028,-3.2032 2.27432,-4.75514c-0.13054,-0.61674 -2.61867,-0.55167 -3.02929,-0.56288c-0.94583,-0.02584 -1.78773,0.14004 -1.9837,-0.06766c-0.43358,-0.45953 0.57022,-1.66767 1.08943,-2.75093c0.46164,-0.96317 2.06353,-1.98979 2.21827,-3.04848c0.10812,-0.73972 -4.28757,-2.96429 -4.19037,-3.65416c0.07826,-0.55548 3.12134,-2.69691 3.12134,-3.16074c0,-0.25449 -1.26337,-1.19475 -2.38889,-2.46004c-1.40561,-1.58016 -2.73611,-3.52733 -2.73611,-3.66496c0,-0.48634 0.33935,-0.3874 0.89998,-0.41805c1.96498,-0.10744 6.64833,-0.4391 8.96677,-1.24681c2.7208,-0.94789 7.80542,-4.42553 9.46075,-5.60099c0.42424,-0.30125 0.01892,-0.29283 0.14243,0.27243c0.02889,0.13223 -0.58507,1.55785 -1.19798,2.75467c-1.08607,2.12074 -2.43635,5.34301 -2.10934,6.26135c0.06473,0.18179 1.94824,-0.42036 3.99001,-0.68264c2.45703,-0.31562 5.14325,-0.30712 5.16496,-0.07304c0.0343,0.36979 -4.31373,7.32483 -4.74349,9.66753c-0.15639,0.85254 -4.07407,13.81555 -4.07407,13.81555z" fill="#4a5c6f" stroke="#000000" stroke-width="1.5"/><path d="M280.49469,169.2828c0,0 -4.28207,-1.30794 -7.27831,-2.14918c-1.55701,-0.43715 -2.94927,-0.56579 -2.82531,-0.70704c1.72404,-1.96445 3.0794,-4.76614 3.48265,-6.93941c0.05977,-0.32214 -6.37821,0.60526 -6.31391,0.28367c0.09948,-0.49758 5.03011,-4.58107 5.03205,-4.98756c0.0022,-0.46122 -7.11312,-2.46303 -7.09445,-2.73298c0.03202,-0.46275 1.99728,-2.01748 1.99728,-2.01748c0,0 5.26405,-1.44421 7.34022,-2.43616c1.4053,-0.67142 4.03478,-3.06384 4.03478,-3.06384c0,0 -3.49594,8.03501 -2.86358,8.56027c0.27443,0.22796 2.2103,-0.81413 4.44835,-1.25018c2.47733,-0.48268 5.26859,-0.36359 5.35216,-0.04362c0.08621,0.33006 -4.1984,5.98697 -4.1984,5.98697l4.13647,12.12156z" fill="#696f96" stroke="none" stroke-width="0"/><path d="M275.80024,146.47724c0,0 -0.68645,-1.0693 -1.59527,-2.45112c-0.642,-0.97613 -1.3393,-2.10822 -2.22886,-3.12948c-2.84391,-3.26496 -6.35023,-6.23238 -6.25845,-7.55911c0.00782,-0.11302 0.34377,-0.3387 1.02957,-0.07296c0.78082,0.30256 1.98224,1.17632 3.0861,2.41242c0.81798,0.91598 1.15214,2.26238 1.86075,3.4356c0.79883,1.32259 1.68093,2.67694 2.33488,3.85764c1.10967,2.00349 1.77128,3.50701 1.77128,3.50701z" fill="#000000" stroke="none" stroke-width="0"/></g><g stroke-linecap="butt"><path d="M184.14146,296.28775c5.49463,-4.34455 11.43357,-9.03852 12.27298,-10.41064c0.75316,-1.23112 1.50635,-2.64143 2.4776,-4.19889c3.41924,-5.48292 8.08668,-12.80715 12.12152,-20.71315c0.91498,-1.79284 1.55813,-3.73921 2.42085,-5.56762c0.64061,-1.35767 0.97229,-2.23303 1.53058,-3.60458c0.4009,-0.98487 0.39342,-1.35229 0.7633,-2.33401c0.3174,-0.84243 1.27693,-2.79521 1.57801,-3.62945c1.28315,-3.55539 2.44552,-7.01165 3.72047,-10.15841c3.81662,-9.41991 5.69073,-17.20938 5.69073,-17.20938l28.09872,-4.59509c0,0 -3.68506,15.33431 -9.35012,29.1581c-1.37839,3.36352 -3.90252,7.40872 -5.7576,10.3563c-0.931,1.4793 -1.74321,2.77621 -2.46951,3.84403c-0.43546,0.64023 -0.94777,1.09038 -1.13516,1.74921c-0.78808,2.77079 -0.32583,6.33804 -0.51288,10.55854c-0.31895,7.19688 -0.88713,15.04595 -0.88713,15.04595c0,0 -7.0462,8.92816 -7.17422,8.92624c-0.55354,-0.00834 -1.93544,-6.06475 -2.41887,-8.26314c-0.10721,-0.48754 -0.38926,-0.64523 -0.739,-0.39356c-0.95448,0.68684 -2.88262,2.2047 -3.99001,3.9739c-0.79226,1.26573 -1.90581,4.78226 -2.57439,5.07063c-0.73366,0.31645 -1.63379,1.13982 -2.42831,1.47379c-3.15607,1.32661 -6.7292,2.55091 -10.4508,3.8083c-4.93625,1.66778 -10.13255,3.29919 -14.95215,4.37988c-7.56727,1.69678 -14.74473,1.37956 -15.83173,1.40029c-1.08064,0.02061 -0.85112,-0.10909 -0.23044,-0.59783c0,0 5.89177,-4.64117 10.22758,-8.06943z" fill="#1b1f25" stroke="#000000" stroke-width="1.5"/><path d="M253.32754,213.8067l25.69993,-3.2959c0,0 -0.65156,4.33196 -2.66298,10.83851c-1.77332,5.73632 -4.80194,13.10494 -6.56991,21.50418c-0.86253,4.09774 1.02013,8.76578 0.05922,13.04763c-0.68396,3.04774 -1.63163,3.26901 -2.96614,6.46175c-0.69694,1.6674 -1.21611,3.86163 -1.95923,6.10794c-1.02469,3.09742 -2.24511,6.29674 -2.86533,8.37609c-0.97018,3.2526 -0.37957,6.03749 -0.45392,8.63153c-0.17076,5.95588 12.93852,15.73919 14.84809,17.47562c0.18976,0.17255 0.39071,0.27854 0.27851,0.28138c-1.64166,0.04149 -5.74422,0.02358 -8.29212,-0.33792c-4.5584,-0.64676 -8.62921,-1.65932 -12.24308,-2.48613c-4.96839,-1.13672 -9.07047,-2.14409 -12.36415,-3.38174c-3.94557,-1.48261 -6.73386,-3.0675 -8.48295,-3.85207c-0.31859,-0.1429 0.13944,-5.8001 0.2359,-7.39302c0.09763,-1.61213 -0.88559,-1.20582 -0.88559,-1.20582c0,0 -0.37049,-5.51132 0.66379,-9.4417c0.72507,-2.75532 2.03071,-8.35395 4.38358,-14.98906c1.11646,-3.14843 2.93023,-6.66692 4.26816,-10.09275c1.30888,-3.35146 2.39878,-6.60523 3.3622,-9.86473c4.269,-14.44314 5.94602,-26.38377 5.94602,-26.38377z" fill="#1b1f25" stroke="#000000" stroke-width="1.5"/><path d="M244.85852,241.9793c0,0 -4.6115,0.8555 -4.6915,-0.36623c-0.26469,-4.04196 2.82466,-28.14171 2.82466,-28.14171l20.42277,0.25161c0,0 -11.53086,27.10578 -13.43517,30.66452c-0.44717,0.83569 -2.41385,-1.04609 -2.41385,-1.04609c0,0 2.08718,-7.78066 1.28604,-7.79053c-1.05834,-0.01304 -1.78198,1.72374 -2.43423,3.07102c-0.77577,1.60243 -1.55872,3.35741 -1.55872,3.35741z" fill="#1b1f25" stroke="none" stroke-width="0"/><path d="M230.41596,284.0313c0.04064,-2.05409 1.79744,-9.94424 1.79744,-9.94424c0,0 0.93126,-11.40824 1.47477,-11.78333c0.33324,-0.22998 1.20145,2.51561 1.35827,4.84041c0.13129,1.94613 -0.01171,5.49386 -0.08531,5.73196c-0.02808,0.09081 -0.33251,1.80657 -0.30563,2.81288c0.01725,0.64604 0.3241,0.75747 0.4229,0.75869c0.43794,0.0054 1.60799,-3.43682 2.5165,-6.5533c0.53899,-1.84889 1.12876,-3.79664 1.17621,-4.25703c0.13546,-1.31433 0.42207,8.36963 0.42207,8.36963l-0.89685,10.78499c0,0 -7.90688,0.57906 -7.88037,-0.76065z" fill="#1b1f25" stroke="none" stroke-width="0"/><path d="M243.91805,276.49662c0.10323,-8.50601 7.25353,-15.31444 15.97065,-15.20705c2.33427,0.02876 4.55919,-0.77468 6.54199,0.13729c0.10855,0.04993 -0.19085,0.87817 -0.59838,2.03432c-0.28221,0.80065 -0.57201,1.75908 -0.9965,2.72295c-0.509,1.15572 -0.88207,2.90787 -1.50969,4.52252c-0.31432,0.80863 -0.73823,2.21097 -1.06093,3.45041c-0.05255,0.20185 -0.14488,0.50793 -0.25044,0.8392c-0.20395,0.64002 -0.39737,1.37475 -0.5085,1.63264c-1.5394,3.57276 0.12214,8.69676 -0.91905,9.81235c-0.11454,0.12272 0.51575,2.57584 1.32578,3.65256c0.59073,0.78521 2.01392,2.03366 1.93929,2.04786c-1.04556,0.19887 -3.23001,-0.03545 -4.33737,-0.04909c-8.71712,-0.10739 -15.70007,-7.08994 -15.59684,-15.59596z" fill="url(#color-1)" stroke="none" stroke-width="0"/><path d="M265.67412,294.01523c0,0 -1.5311,-1.26207 -2.74943,-2.70045c-0.78964,-0.93227 -1.33266,-1.93574 -1.81412,-2.81063c-0.13881,-0.25224 -0.93699,0.01507 -1.02209,-0.38076c-0.24759,-1.1516 -0.14345,-2.97876 0.10405,-4.89764c0.25657,-1.98918 0.62039,-4.07748 0.90841,-5.61388c0.2612,-1.39333 0.72139,-2.82783 0.72139,-2.82783l3.39528,-6.26971c0,0 -1.56661,8.37097 -1.77719,9.52121c-0.14072,0.76865 -0.20378,1.8511 -0.39367,2.74684c-0.23487,1.10787 -0.57524,2.06321 -0.44123,3.37197c0.20044,1.95749 1.76501,3.75441 2.17853,4.70401c0.87578,2.01108 1.67304,3.75472 1.67304,3.75472z" fill="#000000" stroke="none" stroke-width="0"/><path d="M218.85349,293.96042c0,0 -6.60755,2.39628 -6.90389,2.29163c-0.12803,-0.04522 1.20603,-1.06166 2.55735,-1.77638c1.32962,-0.70323 2.67586,-1.10528 2.67586,-1.10528c0,0 0.74006,-2.33176 2.02319,-4.30914c0.32192,-0.49611 0.54296,-1.10497 0.95284,-1.49135c0.93021,-0.87686 2.70648,-3.02274 4.6266,-4.13c0.66488,-0.38341 0.98424,0.70206 1.39905,2.41931c0.66699,2.76107 1.34162,6.78442 1.34162,6.78442c0,0 -0.32268,1.40823 -1.19793,-0.34781c-1.08359,-2.17405 -1.1042,-6.30054 -2.06476,-6.31237c-0.90876,-0.0112 -1.81375,1.87878 -2.90223,3.80232c-1.22367,2.16245 -2.50773,4.17468 -2.50773,4.17468z" fill="#000000" stroke="none" stroke-width="0"/><path d="M227.23962,293.20953c0,0 -0.80595,-1.64444 -0.62835,-2.16863c0.08719,-0.25734 1.06392,0.73582 1.21909,0.41716c0.62872,-1.29126 1.77101,-3.02265 3.00513,-4.74272c1.30211,-1.81481 3.2846,-3.45143 4.18985,-4.0608c0.44385,-0.29878 0.9971,-0.2773 1.16865,0.01778c0.43564,0.74931 0.20458,2.28867 0.00869,3.96209c-0.23484,2.00613 -0.56294,4.13196 -0.80558,5.37691c-0.12201,0.62596 -0.27754,1.08174 -0.27754,1.08174c0,0 -0.65401,0.2426 -0.70514,-1.08401c-0.01237,-0.32079 -0.07887,-0.68299 -0.06342,-1.05871c0.06789,-1.65115 0.3828,-3.57991 -0.03173,-3.57378c-0.97948,0.01447 -3.43149,3.53582 -5.20377,5.40611c-0.85522,0.90253 -1.87588,0.42686 -1.87588,0.42686z" fill="#000000" stroke="none" stroke-width="0"/><path d="M235.13701,292.42449c0.1275,-0.44102 0.33851,-1.23572 0.45226,-1.7583c0.18827,-0.86504 1.02153,-5.69548 1.02153,-5.69548l1.70816,2.96542l8.64948,9.15323c0,0 -8.89464,-3.11481 -9.39416,-3.31553c-0.74374,-0.29884 -1.73282,-0.69629 -2.04914,-0.82339c-0.19558,-0.07859 -0.45175,-0.30591 -0.38813,-0.52597z" fill="#1b1f25" stroke="none" stroke-width="0"/><path d="M196.28591,286.30495c-0.65106,-0.11043 0.08422,-2.23543 1.16656,-4.00703c0.73743,-1.20704 2.26351,-2.95218 2.88337,-2.85395c0.34764,0.0551 0.38786,0.75157 0.27888,1.5403c-0.1105,0.79975 -0.37251,1.64726 -0.99528,2.54668c-0.69506,1.00382 -1.50033,1.96196 -2.24205,2.44335c-0.46717,0.30321 -1.07615,0.33326 -1.09148,0.33065z" fill="#000000" stroke="none" stroke-width="0"/><path d="M222.12196,281.27887c0,0 -0.38773,-1.01552 -1.37035,-2.39289c-0.44735,-0.62707 -0.98601,-1.37621 -1.50197,-2.00297c-0.68147,-0.82782 -1.32265,-1.49919 -1.6548,-1.95746c-0.17591,-0.24269 -0.19314,-0.47291 -0.17533,-0.50396c0.22811,-0.39812 3.08952,-1.34972 4.72689,-2.10982c0.61963,-0.28765 1.13047,-0.48137 1.1598,-0.70444c0.03972,-0.30196 -2.35951,-5.23006 -3.2623,-7.00864c-0.22636,-0.44595 -0.03864,-0.32822 0.27274,-0.44902c1.28543,-0.49868 4.84345,-1.91219 7.53157,-3.29539c1.62112,-0.83417 2.9852,-1.59799 3.22992,-2.25714c0.02103,-0.05664 -0.682,-0.60368 -1.48698,-1.16421c-0.77417,-0.53907 -1.80175,-1.27812 -2.7078,-2.01567c-0.82732,-0.67348 -1.4608,-1.42124 -2.05058,-1.94194c-0.59466,-0.525 -1.18662,-0.64425 -1.09149,-0.86023c0.2836,-0.64393 2.14859,-1.5693 3.72836,-2.24605c0.59559,-0.25514 2.26288,-1.01628 2.29262,-1.24871c0.02093,-0.16361 -0.70103,-0.58768 -1.69016,-1.20305c-0.27967,-0.174 -0.65384,-0.29366 -0.94918,-0.51221c-2.16465,-1.6018 -4.75003,-3.96111 -4.60459,-4.6412c0.16917,-0.79099 0.68668,-1.54632 1.20463,-2.29506c0.76317,-1.10323 1.61925,-2.19102 2.11484,-3.34818c1.98832,-4.64253 3.18442,-8.89524 3.18442,-8.89524c0,0 0.60378,7.79863 1.33679,8.54595c0.65884,0.67172 1.71606,-0.24662 2.79316,-0.34475c1.27673,-0.11632 2.59308,-0.04495 3.37137,-0.11401c0.40234,-0.0357 0.66156,-0.1651 0.69574,-0.25904c0.28201,-0.77508 0.20401,-1.0934 -0.01062,-1.77903c-0.25804,-0.82427 -0.71933,-1.70307 -1.01803,-2.22902c-0.16804,-0.29587 -0.30922,-0.39562 0.07652,-0.51925c0.76145,-0.24405 2.43205,-0.70997 4.23221,-1.33989c1.6686,-0.58389 3.57376,-1.41422 5.62404,-2.18896c1.98241,-0.74909 4.10556,-1.44115 5.99122,-2.09867c2.27185,-0.79218 4.30867,-1.17388 5.72955,-1.65791c0.61762,-0.2104 1.12038,-0.56448 1.47294,-0.77256c0.34109,-0.20131 -2.12296,-2.38629 -3.14075,-3.26793c-0.2603,-0.22548 -0.704,-0.51388 -0.38272,-0.62322c1.13882,-0.3876 4.36775,-1.24096 5.92028,-1.74151c1.51019,-0.4869 4.41579,-1.41733 5.66473,-1.80534c0.4022,-0.12495 0.32887,0.0259 0.04219,0.2838c-0.66281,0.59629 -1.99168,1.75558 -3.52328,2.8938c-1.63222,1.213 -3.84629,2.46619 -3.8583,2.6471c-0.03039,0.45746 6.63898,0.10089 6.62961,0.74772c-0.00007,0.00488 -0.54006,0.67916 -1.92746,1.3694c-1.19092,0.59249 -2.83056,1.17393 -4.67619,1.96872c-2.51992,1.08517 -5.42219,2.43559 -8.0757,3.53548c-6.2753,2.60113 -11.64507,4.03607 -11.6632,4.37977c-0.0235,0.44504 2.36112,2.39073 2.46714,3.00863c0.04832,0.28163 -1.34534,0.69544 -2.52419,1.30627c-3.36168,1.74189 -9.45158,4.48422 -10.20586,5.64867c-0.12079,0.18646 1.39136,0.44943 3.28575,0.82527c3.07937,0.61094 7.17021,1.39427 6.91019,1.6945c-0.10677,0.12329 -2.74082,0.91876 -5.59425,2.00234c-1.88893,0.7173 -3.90521,1.45207 -5.50576,2.1216c-1.72872,0.72315 -2.97229,1.35744 -3.04227,1.45224c-0.10383,0.1407 1.88988,1.29192 4.01258,2.71707c2.6173,1.75721 5.47253,3.85163 5.33792,4.02682c-0.31725,0.41287 -2.49772,1.81809 -4.97286,3.20218c-3.48449,1.94851 -7.5548,4.00566 -7.84861,4.50571c-0.2041,0.34737 6.0235,7.06667 5.80614,7.03461c-0.39433,-0.05815 -1.76268,0.70645 -3.1537,1.20728c-1.12887,0.40645 -2.21746,0.50901 -3.25367,0.89713c-1.09518,0.4102 -1.95117,0.71348 -2.17182,0.70545c-0.17138,-0.00625 0.52124,1.28409 0.97166,2.06351c0.91152,1.57735 1.27731,3.00358 1.27731,3.00358z" fill="#2b263c" stroke="none" stroke-width="0"/><path d="M247.28793,286.65899c0.32879,-0.29707 0.68507,-0.74095 1.19131,-1.13037c1.45825,-1.12177 3.49416,-2.45821 4.79381,-3.43922c0.78609,-0.59335 1.4107,-1.10397 1.45847,-1.21996c0.21285,-0.51679 0.06119,-1.63363 -0.21146,-2.1299c-0.28611,-0.52078 -0.79806,-1.3002 -1.50431,-2.06442c-0.59185,-0.64042 -1.3438,-1.24763 -1.9848,-1.9009c-0.99072,-1.00966 -1.90624,-1.94855 -2.33271,-2.55052c-0.19837,-0.28002 -0.29201,-0.63762 -0.24409,-0.73838c0.02008,-0.04222 0.20792,-0.32531 0.65121,-0.52671c0.3481,-0.15816 0.9615,-0.19111 1.49805,-0.41544c0.6874,-0.2874 1.50346,-0.63412 2.38162,-1.05302c0.87104,-0.41551 1.80368,-0.94509 2.73069,-1.4145c1.22799,-0.62182 2.44772,-1.27255 3.50719,-1.90349c1.69948,-1.01205 3.05396,-2.16272 3.26186,-2.76029c0.41671,-1.19778 0.76464,-2.37458 1.01613,-3.51463c0.10107,-0.45817 -0.11434,-1.83123 -0.04171,-2.2705c0.01714,-0.10365 -4.25648,-0.04031 -4.2403,-0.12769c0.12682,-0.68465 3.07301,-2.07588 3.16234,-2.70547c0.0331,-0.23329 -0.34211,-0.27768 -0.72533,-0.3909c-0.6621,-0.1956 -1.50587,-0.44634 -1.4456,-1.14923c0.05616,-0.65501 1.525,-0.42249 1.62077,-0.80507c0.02772,-0.11075 -1.30522,-1.68094 -3.11667,-3.31869c-1.43832,-1.30038 -3.26608,-2.58776 -4.32891,-3.61673c-0.76059,-0.73636 -1.24855,-1.47024 -1.22071,-1.52698c0.02768,-0.05637 0.57487,-0.37822 1.42691,-1.09526c0.5464,-0.45982 1.83842,-0.40257 2.57653,-1.02195c1.53348,-1.28681 3.24599,-2.92449 4.71397,-4.38843c0.80272,-0.80051 1.68848,-1.47048 2.27573,-2.08132c0.46526,-0.48396 0.68499,-0.96005 0.93707,-1.22845c0.22797,-0.24273 0.28019,-0.47331 0.52084,-0.26274c0.55172,0.48273 1.76898,1.57233 2.27018,1.98093c0.18861,0.15377 1.02926,0.54154 1.22216,0.66784c0.3066,0.20074 -0.21262,0.2332 -0.46759,0.46251c-0.41239,0.37089 -1.11414,1.00301 -1.96265,1.77113c-0.44038,0.39867 -0.92215,0.98726 -1.42162,1.4417c-1.33209,1.21194 -2.79935,2.22415 -4.03119,3.34321c-0.32189,0.29242 -0.72956,0.46957 -1.04163,0.70517c-0.47387,0.35774 -0.82866,0.7489 -1.12817,1.08298c-0.47852,0.53376 -0.83669,0.67385 -0.82579,0.73153c0.04113,0.21776 0.50241,0.7662 0.86796,0.89791c1.19026,0.42882 3.81368,0.6097 6.01153,1.24623c1.48184,0.42917 2.82338,1.43854 3.28837,2.24255c0.04773,0.08252 -0.34748,0.2137 -0.94246,0.58823c-0.9802,0.61702 -2.42067,1.61761 -3.37178,2.26857c-0.5508,0.37699 -0.98909,0.58513 -0.94502,0.66741c0.141,0.26331 0.6819,0.22693 0.82941,0.49396c0.21342,0.38636 -0.98142,0.75943 -0.7577,1.15287c0.05084,0.08941 1.02229,0.60893 2.08727,0.98801c1.32903,0.47306 2.80363,0.73617 2.80363,0.73617c0,0 -0.02082,1.18041 -1.25532,3.19824c-0.58758,0.96042 -1.0863,2.17433 -2.66696,3.42206c-0.60538,0.47788 -1.39437,0.90631 -2.17683,1.42513c-1.96265,1.30132 -4.29502,2.7605 -6.60195,3.97876c-1.37599,0.72665 -2.86939,1.31663 -3.90052,1.87731c-0.84049,0.45701 -1.3478,0.92058 -1.44731,1.20955c-0.17444,0.50662 1.43646,1.57447 3.52178,2.61654c1.67677,0.83792 3.68838,1.63243 5.11167,2.30841c1.21491,0.57702 2.27304,0.70046 2.21591,1.03564c-0.06749,0.39599 -3.6168,1.12635 -3.36775,1.85208c0.0433,0.1262 0.34125,0.19086 0.62585,0.33992c0.71105,0.37242 1.83501,0.79933 1.67237,1.19641c-0.0613,0.14964 -0.52983,0.31914 -1.11592,0.73848c-0.86604,0.61964 -2.34759,1.43359 -3.58143,2.27853c-1.09414,0.74929 -1.94335,1.53994 -2.74243,1.98805c-0.30943,0.17352 -0.85009,0.19774 -1.15191,0.38631c-0.22235,0.13892 0.15616,0.45537 0.56713,0.89239c0.79304,0.8433 2.53675,2.16978 4.56735,3.59333c0.74321,0.52104 1.52766,0.82515 2.3152,1.35326c0.57873,0.38809 1.15785,1.00292 1.73002,1.37711c1.90028,1.24272 3.69312,2.36729 4.9054,3.0985c0.9327,0.56257 1.98221,0.83265 1.98221,0.83265c0,0 -2.05106,-0.20272 -5.00138,-1.18256c-1.19479,-0.39681 -2.60351,-0.8578 -3.98013,-1.58254c-3.13193,-1.68682 -6.36603,-3.94544 -8.65312,-5.68669c-1.26277,-0.96139 -2.15736,-1.84075 -2.66614,-2.30338c-0.18412,-0.16742 -0.64261,-0.32075 -0.48142,-0.5642c0.07026,-0.10611 0.64077,-0.28675 0.7629,-0.39709z" fill="#2b263c" stroke="none" stroke-width="0"/></g><g stroke-linecap="butt"><path d="M238.40166,214.22002l18.73614,-22.58274l22.87204,-8.68136c0,0 0.82937,16.22443 0.65936,20.70138c-0.07371,1.94109 -1.66105,5.67659 -1.66105,5.67659z" fill="#d396fc" stroke="none" stroke-width="0"/><path d="M255.88045,210.70336c0,0 3.71631,-3.65184 5.2776,-5.26244c0.96519,-0.99567 2.8516,-3.12911 3.57005,-3.91629c0.20868,-0.22865 0.0815,0.10541 -0.01489,0.39688c-0.20128,0.6087 -0.5139,1.61895 -0.52504,2.05314c-0.00543,0.21166 -0.07176,1.12025 -0.04123,1.36584c0.00923,0.07431 0.48573,0.11889 0.95649,0.03841c0.54505,-0.09318 1.19774,-0.64935 1.47473,-0.72568c0.55003,-0.15159 -2.0181,0.5314 -1.82832,0.4611c0.62038,-0.22983 1.62867,-0.63054 2.56271,-0.86236c0.34289,-0.0851 0.75443,-0.06878 1.02095,-0.12505c0.92829,-0.19598 3.16939,-0.51009 4.11187,-0.56955c0.37541,-0.02369 0.01825,0.23374 -0.20859,0.52372c-0.3006,0.38426 -0.74649,0.964 -1.19488,1.58252c-0.75986,1.04817 -1.97533,4.66838 -2.38801,4.84332c-2.51292,1.06526 -12.77344,0.19645 -12.77344,0.19645z" fill="#4a5c6f" stroke="#000000" stroke-width="1"/><path d="M235.69863,219.24882l6.45454,-9c0,0 3.10778,-0.46922 5.91214,-0.79172c1.58404,-0.18216 4.79384,-0.41699 8.09645,-0.87339c2.72781,-0.37697 5.40339,-0.96287 8.30002,-1.28434c0.83045,-0.09216 1.65075,-0.27003 2.45282,-0.35178c3.41332,-0.34792 6.49631,-0.51078 8.62486,-0.67154c1.84862,-0.13961 2.97735,-0.20905 2.97735,-0.20905l-1.09091,7c0,0 -2.77467,0.60804 -6.7198,1.14575c-2.79315,0.3807 -6.30903,0.59011 -9.2393,1.12654c-3.48401,0.6378 -4.4609,1.48999 -7.75591,2.0701c-0.66138,0.11644 -0.94263,0.59288 -1.56596,0.70105c-0.30467,0.05288 -0.96783,-0.25899 -1.2616,-0.20845c-2.177,0.37457 -4.03831,0.68205 -5.34212,0.8752c-3.39804,0.50341 -9.84259,0.47163 -9.84259,0.47163z" fill="#000000" stroke="none" stroke-width="0"/><g><path d="M276.32363,220.23176c0,0 0.37739,-2.77501 0.64151,-4.41691c0.37011,-2.3008 0.91412,-5.18404 1.17343,-7.85108c0.2973,-3.05775 0.20793,-5.8313 -0.00318,-7.11715c-0.1258,-0.76625 -0.18293,-1.74615 -0.41291,-2.79964c-0.41203,-1.88746 -1.10264,-4.01115 -1.77303,-5.56557c-1.9601,-4.54485 -4.50083,-7.37464 -4.50083,-7.37464c0,0 7.20089,-2.83415 11.14375,1.37669c0.64387,0.68763 1.44245,6.6699 1.32089,7.86973c-0.1907,1.88228 -0.4925,3.68473 -0.71175,5.10979c-0.63822,4.14838 -3.11743,11.896 -4.94256,16.66687c-0.90733,2.37174 -1.93533,4.10192 -1.93533,4.10192z" fill="#2b263c" stroke="#000000" stroke-width="1.5"/><path d="M278.82363,200.60676c0,0 -0.73391,-5.2219 -1.91663,-7.66948c-0.59139,-1.22386 -1.6005,-3.59656 -2.65336,-5.3376c-0.5432,-0.89825 -1.34805,-1.74332 -1.8632,-2.49185c-1.2812,-1.86164 -2.0668,-3.12607 -2.0668,-3.12607l11.375,-0.5c0,0 0.97654,6.26993 1.44358,10.07049c0.18589,1.51266 0.06087,2.63415 0.04701,2.81345c-0.16406,2.12251 -0.49059,4.49107 -0.49059,4.49107c0,0 -1.31565,0.57981 -1.92518,0.90634c-0.55128,0.29533 -1.94982,0.84366 -1.94982,0.84366z" fill="#1b1f25" stroke="none" stroke-width="0"/></g><g><path d="M220.28411,237.96866c-0.01317,-0.46257 0.39008,-1.34148 0.663,-2.52582c0.36901,-1.60134 0.70678,-3.76107 1.3977,-6.20507c1.21228,-4.28826 2.74211,-9.45172 3.96502,-14.00969c0.52358,-1.95147 0.68523,-5.03432 0.76758,-6.77416c0.19454,-4.1099 0.12122,-8.59714 0.12122,-8.59714l33.125,-7.875c0,0 -1.75753,2.13276 -4.36357,5.56907c-0.3452,0.45518 -3.30947,4.00625 -3.86769,4.45427c-0.36807,0.2954 1.65236,-2.52465 1.39015,-2.19553c-0.36089,0.45298 2.04109,-1.79045 1.8928,-1.27681c-0.11429,0.39589 -2.75845,3.54597 -3.07585,3.92896c-1.18497,1.4298 -2.59906,3.32631 -3.94379,4.9039c-2.24184,2.63004 -4.6383,5.41598 -6.96479,8.19275c-2.00306,2.39075 -4.13403,4.7747 -6.06943,7.04653c-1.84107,2.1611 -3.47759,4.44135 -5.23658,6.27858c-1.86901,1.95215 -3.84404,3.43636 -5.21756,4.87806c-0.45869,0.48146 -1.8878,1.22973 -2.69575,2.06494c-1.24503,1.28705 -1.87416,2.60873 -1.88744,2.14217z" fill="#2b263c" stroke="#000000" stroke-width="1.5"/><path d="M220.94863,235.85676v-1.75c0,0 0.41927,-0.25 0.75,-0.25c0.43303,0 1.625,0.25 1.625,0.25v1.25z" fill="#000000" stroke="none" stroke-width="0"/><path d="M227.07363,214.85676c0,0 0.50802,-4.72951 0.81882,-7.16408c0.15993,-1.25285 -0.06506,-3.19106 -0.09418,-5.09128c-0.04569,-2.9816 0.02536,-5.86964 0.02536,-5.86964l31.125,-3.625c0,0 -1.51037,1.5389 -3.50546,3.7577c-0.27417,0.30491 -0.48159,1.16323 -0.96341,1.53288c-0.65013,0.49876 -1.59469,0.89316 -1.94344,1.32977c-0.38227,0.47858 -0.4836,1.91844 -0.78544,2.29638c-2.6359,3.30041 -7.92724,9.58328 -7.92724,9.58328c0,0 -0.96093,0.96784 -2.6633,2.1273c-0.72478,0.49364 -1.53865,0.79467 -2.38607,1.36248c-0.86304,0.57828 -1.7609,1.42398 -2.63491,1.99418c-2.73211,1.78242 -5.23122,3.31578 -5.70576,3.28972c-0.49455,-0.02715 -3.35997,-5.52368 -3.35997,-5.52368z" fill="#1b1f25" stroke="none" stroke-width="0"/></g><path d="M260.30979,198.14829c0,0 4.3222,-2.10703 5.93643,-2.95983c1.22866,-0.6491 3.41272,-1.5478 3.41272,-1.5478c0,0 1.23517,0.7752 1.86588,0.83005c0.64872,0.05641 1.807,0.0047 1.807,0.0047c0,0 0.08761,1.31081 -0.21658,3.13594c-0.23325,1.39951 -1.28596,3.87593 -1.28596,3.87593z" fill="#ffc6ef" stroke="none" stroke-width="0"/><path d="M253.33498,215.43063c-0.16193,-0.27422 0.13204,-0.4906 0.18772,-1.04463c0.03694,-0.36753 0.18378,-0.7904 0.24158,-1.20634c0.09758,-0.70213 0.10959,-1.38452 0.13553,-1.74765c0.0319,-0.4466 0.00468,-1.1494 0.4309,-1.21218c0.44304,-0.06526 1.1034,-0.3139 2.47301,-0.50635c1.32478,-0.18616 2.91461,-0.10533 4.37147,-0.27121c0.9896,-0.11267 1.91784,-0.44383 2.65998,-0.57874c1.01479,-0.18447 1.68163,-0.16018 1.68163,-0.16018c0,0 -0.56018,1.12772 -0.7301,1.79429c-0.21384,0.83891 -0.45173,2.84207 -0.45173,2.84207c0,0 -1.19689,0.27283 -2.50215,0.65603c-0.9785,0.28726 -1.97807,0.67638 -2.79855,0.84047c-0.76713,0.15342 -1.97066,0.14126 -3.05816,0.27083c-0.34814,0.04148 -0.77531,0.03176 -1.08155,0.10779c-0.31764,0.07886 -0.51208,0.24308 -0.7449,0.2608c-0.39019,0.02969 -0.65276,0.22922 -0.81469,-0.045z" fill="#fead41" stroke="none" stroke-width="0"/></g><g stroke-linecap="butt"><path d="M268.04099,133.91887c-0.84977,-0.364 -1.66679,-0.88501 -1.97268,-1.03545c-1.18187,-0.58126 -0.71143,-0.85563 -1.56324,-1.20082c-1.72493,-0.69901 -3.30876,-0.87997 -4.77516,-1.52932c-1.26961,-0.5622 -2.46794,-1.15468 -3.63931,-1.86212c-0.40874,-0.24685 -2.75837,-2.35247 -3.13207,-2.59013c-0.30654,-0.19495 -1.18368,-0.33719 -1.33563,-1.06453c-0.13282,-0.63575 -0.54497,-4.16895 -0.70932,-5.20407c-0.13791,-0.86858 -0.4437,-1.80624 -0.74791,-2.70605c-0.83831,-2.47968 -1.74462,-5.02559 -2.32675,-6.30513c-0.23659,-0.52004 -0.05459,-1.37643 -0.10616,-1.3902c-1.88712,-0.50448 -4.2368,4.13907 -5.77338,3.21498c-2.53075,-1.52196 -4.55023,-5.0724 -6.05608,-8.58441c-0.5643,-1.3161 -0.94914,-2.62121 -1.3538,-3.81695c-0.35932,-1.06179 -0.76069,-2.0387 -0.91917,-2.83977c-0.16915,-0.85503 -0.10961,-1.63195 -0.07511,-1.9988c0.07775,-0.82694 1.08438,-0.72049 2.25425,-0.14036c1.22668,0.60833 2.64656,1.71329 3.97041,1.73796c1.07312,0.1596 1.13902,-0.19114 1.13902,-0.19114c0,0 10.67523,-12.82214 18.5374,-15.99116c8.17037,-3.29326 29.59578,-3.41 29.59578,-3.41c0,0 -0.68276,2.02404 -0.83723,3.98149c-0.06839,0.86661 -0.03894,1.438 -0.06404,2.07863c-0.01219,0.31098 -0.29299,1.23592 -0.05867,1.42608c0.3367,0.27329 2.83773,2.55174 2.85335,2.70454c0.21219,2.07398 -1.14171,6.17746 -0.91383,7.98524c0.25997,2.06243 0.06113,2.78467 0.14787,4.51114c0.10451,2.08054 -0.03454,4.66771 -0.28815,7.35138c-0.34189,3.61782 -1.5965,9.94919 -2.03885,12.91293c-0.43839,2.93724 -0.06642,2.52162 0.01443,2.85148c0.06238,0.32646 1.11051,2.11208 1.2414,2.47994c0.15812,0.44442 0.83763,1.63933 1.12438,2.84206c0.31502,1.32129 0.77083,2.97016 0.3711,3.40103c-0.10226,0.11024 -1.89715,0.5373 -3.90167,1.18562c-2.22839,0.72074 -4.75642,1.66987 -6.36377,1.8091c-3.09961,0.26853 -10.68293,-0.11029 -10.8297,-0.16137c0,0 -0.85229,-0.18824 -1.4677,-0.45185z" fill="#ffc6ef" stroke="#000000" stroke-width="2"/><path d="M249.36608,102.49098l-1.77651,-13.94472c0,0 30.80055,-8.68744 39.76435,-8.89005c0.30529,-0.0069 -0.39332,2.77892 -0.1384,2.78571c0.774,0.02058 -5.30365,4.88371 -4.92183,4.94127c0.59679,0.08998 -0.03303,1.92938 -0.32251,3.71187c-0.20088,1.23696 -0.03114,2.63033 -0.03114,2.63033c0,0 1.97001,-1.37752 3.10615,-2.30556c1.45868,-1.19151 4.74752,-4.09492 4.74752,-4.09492c0,0 0.40047,0.32489 0.3774,0.77072c-0.06254,1.20851 -0.59774,6.71353 -0.59774,6.71353c0,0 -0.29554,10.02936 -0.70813,12.73238c-0.6552,4.29234 -1.83422,10.09381 -1.83422,10.09381c0,0 -1.33416,-0.38196 -2.0813,0.4568c-0.6115,0.68648 -2.07197,2.28382 -3.02428,3.83963c-0.88403,1.44427 -1.28534,2.87817 -1.28534,2.87817c0,0 -2.39447,0.02428 -2.3293,-2.12086c0.08224,-2.70679 2.69357,-7.85286 3.48949,-9.53204c0.48795,-1.02946 1.34292,-1.27748 2.24873,-2.03788c1.05187,-0.88302 2.1297,-2.19748 2.11099,-2.14799c-0.18892,0.49953 -0.79412,-0.50746 -1.46672,-0.50555c-1.21914,0.00344 -2.71113,0.64887 -2.71113,0.64887c0,0 -0.92047,-1.09781 -1.11774,-2.1693c-0.40806,-2.21636 -1.19938,-10.41624 -1.19938,-10.41624l-3.3104,4.99777c0,0 0.62438,2.55588 0.99291,3.83806c0.38607,1.3432 1.27331,4.04663 1.27331,4.04663c0,0 -9.01281,2.81246 -12.69636,3.41158c-3.26684,0.53135 -1.55754,-2.48273 -3.86317,-2.56771c-0.44217,-0.0163 4.60491,-0.20339 7.0406,-1.22109c1.73208,-0.72372 1.13877,-2.37358 0.83459,-2.40271c-6.05349,-0.57985 -9.78271,-4.99672 -12.67398,-5.14743c-3.55796,-0.18546 -7.89646,1.00698 -7.89646,1.00698z" fill="#d396fc" stroke="none" stroke-width="0"/><path d="M269.12827,94.92217c-0.57717,-1.35179 -2.61811,-7.55926 -2.61811,-7.55926c0,0 5.51904,1.40774 7.93036,1.54846c1.95858,0.1143 5.46378,-0.76683 5.46378,-0.76683c0,0 0.43595,0.57432 -0.04407,1.52519c-0.48964,0.96992 -1.89474,2.32345 -1.82258,3.01818c0.15276,1.47048 2.7557,4.01449 2.7557,4.01449c0,0 -2.91359,0.05087 -5.52509,-0.3408c-1.49321,-0.22394 -2.537,-0.8551 -3.76701,-1.05974c-1.25685,-0.2091 -2.31509,-0.24416 -2.37298,-0.37973z" fill="#ffc6ef" stroke="none" stroke-width="0"/><path d="M236.14453,100.94864c0,0 -0.34282,-0.50343 0.59585,-0.69251c0.15233,-0.03068 0.45568,-0.0286 0.7658,0.10116c1.84403,0.77161 6.06257,3.97095 6.06257,3.97095c0,0 -0.67454,-1.89716 -0.9131,-2.80828c-0.22533,-0.86056 -0.48086,-2.51543 -0.48086,-2.51543l11.82072,11.57361l0.19696,5.6734c0,0 2.38865,0.31285 3.16954,-0.50617c1.47699,-1.54912 1.8675,-4.69203 2.2446,-4.40666c0.42348,0.32047 2.35346,14.48043 2.35346,14.48043c0,0 2.59767,3.04085 4.36114,3.73782c1.79926,0.7111 8.09394,4.02396 8.09394,4.02396c0,0 -1.98142,0.32994 -2.93695,0.33681c-0.88372,0.00637 -2.54829,-0.04405 -2.54829,-0.04405c0,0 -2.03104,-0.60734 -3.51856,-0.84574c-0.56824,-0.09107 -1.5104,-0.42291 -2.20599,-0.52261c-1.10716,-0.15869 -4.08034,-1.06188 -4.72093,-1.47942c-0.06333,-0.04128 -5.90659,-6.47178 -5.9154,-6.48109c-0.62756,-0.66416 -0.85765,-5.52301 -1.7867,-8.38051c-0.91225,-2.80592 -1.43307,-5.59918 -2.40056,-6.93335c-0.29581,-0.40791 -0.65828,-1.2032 -0.93061,-1.27194c-0.52839,-0.13339 -1.85494,0.97353 -2.76937,1.70048c-1.07026,0.85081 -1.95483,1.99817 -2.47657,1.70203c-1.29815,-0.87304 -2.62374,-2.77795 -3.68482,-4.50035c-1.53121,-2.48549 -2.3759,-5.91253 -2.3759,-5.91253z" fill="#d396fc" stroke="none" stroke-width="0"/><path d="M240.65711,96.42816c-0.69296,-1.64196 -1.91183,-4.7694 -2.95864,-7.95466c-1.23451,-3.7564 -2.62985,-8.08551 -3.19499,-10.01469c-0.13112,-0.4476 0.01039,-1.85258 0.48386,-2.07883c1.07147,-0.51199 3.36882,-1.5896 5.12883,-2.33684c0.30773,-0.13065 0.5991,0.00273 0.84687,-0.09342c0.24078,-0.09343 -0.02074,-0.29631 0.22186,-0.38892c4.63508,-1.76925 10.21028,-3.62285 10.21028,-3.62285c0,0 9.90031,8.07998 9.40245,12.11933c-0.44567,3.61575 -12.24287,11.23689 -12.24287,11.23689c0,0 1.10535,3.12897 1.58069,4.75639c0.45167,1.54645 1.32892,4.77383 1.32892,4.77383c0,0 -0.63688,1.10345 -0.62387,1.64972c0.0233,0.97957 0.47145,2.04865 0.86667,2.80758c0.31829,0.61119 0.31795,0.64616 -0.12996,0.24353c-1.24393,-1.11822 -3.77918,-3.41307 -5.18403,-4.7953c-0.925,-0.9101 -1.74166,-1.58358 -2.85877,-2.774c-0.4805,-0.51204 -0.29522,-1.0028 -0.64292,-1.37741c-0.13315,-0.14346 -0.22797,-0.65416 -0.56627,-0.90692c-0.23106,-0.17266 -0.70501,-0.08761 -0.87257,-0.22471c-0.46754,-0.38252 -0.54428,-0.55718 -0.70189,-0.9306z" fill="#4a5c6f" stroke="#000000" stroke-width="2"/><path d="M255.00397,84.35482c-0.057,-0.14281 -0.72689,-0.22537 -1.55937,-0.47416c-2.46917,-0.73791 -7.4383,-1.93075 -9.47236,-2.52074c-0.80785,-0.23432 -0.62201,-0.01965 -0.12894,-0.43394c1.17365,-0.98621 7.42708,-5.8124 7.42708,-5.8124c0,0 -4.36767,-2.69729 -5.82429,-5.58765c-3.14121,-6.23311 -1.39432,-9.27203 -1.03818,-10.02843c0.14175,-0.30107 1.33236,-1.92951 2.91217,-3.24385c1.11267,-0.92571 2.42096,-1.61067 3.66789,-2.35549c2.37242,-1.41712 6.25205,-2.70233 7.66734,-3.22841c0.68692,-0.25535 -0.02522,0.25648 -0.45438,0.95472c-1.24958,2.03315 -4.03944,5.88035 -3.41573,7.08049c0.32923,0.6335 1.41421,1.52734 2.29471,2.53841c0.64407,0.73958 1.61777,1.6953 2.72361,2.47227c0.80175,0.56332 2.05999,0.63557 3.61001,0.6378c6.54834,0.00938 18.21925,-4.0379 21.82202,-5.8508c0.36,-0.18113 -0.10998,-4.78591 0.04244,-4.81294c0.68477,-0.12145 13.5329,9.88019 8.78905,19.2678c-1.79052,3.54328 -5.18455,6.63417 -9.41382,8.36374c-8.23105,3.36611 -18.52235,3.03022 -18.52235,3.03022c0,0 -5.70724,3.39838 -10.46895,5.86828c-2.69203,1.39634 -5.08284,2.46256 -5.95561,2.90059c-0.71086,0.35677 -1.90131,0.70243 -1.61958,-0.01739c0,0 0.59431,-0.81231 1.28466,-1.63882c1.41252,-1.69108 3.72228,-4.37868 4.66453,-5.82243c0,0 1.0199,-1.15685 0.96802,-1.28682z" fill="#4a5c6f" stroke="#000000" stroke-width="2"/><path d="M262.91353,75.86211c0,0 -15.03462,-1.6474 -15.39227,-12.9084c-0.08353,-2.63028 0.14215,-3.0193 0.75224,-4.21771c2.39045,-4.69571 8.74267,-6.87269 8.74267,-6.87269c0,0 -3.51564,4.97339 -3.4027,6.41842c0.08425,1.07786 4.08427,5.81298 5.6161,6.37618c1.66668,0.61277 3.90359,0.55401 6.37713,0.34435c7.70662,-0.65323 17.66615,-4.22187 19.47266,-5.3706c0.2706,-0.17208 0.97913,-0.72954 1.13654,-1.36658c0.29958,-1.21247 -0.25825,-2.91458 -0.25825,-2.91458c0,0 2.60488,2.40656 3.67224,3.65426c1.22077,1.42706 3.47631,4.89435 3.47631,4.89435c0,0 -5.96232,7.31215 -14.28569,8.51348c-3.89305,0.56188 -7.38256,0.71447 -10.15708,0.3954c-2.72985,-0.31392 -4.74388,-1.28153 -6.38406,-1.93958c-2.65412,-1.06483 -4.07611,-1.86653 -4.07611,-1.86653c0,0 0.67743,1.4099 1.23645,2.23498c0.83789,1.23667 3.47383,4.62529 3.47383,4.62529z" fill="#696f96" stroke="none" stroke-width="0"/><path d="M251.40444,75.44445l0.29738,-0.99145c0,0 1.99596,0.18543 3.24679,0.82211c0.90869,0.46253 1.43187,1.0518 1.20962,1.34182c-0.28109,0.36683 -1.41761,-0.11149 -2.49389,-0.48915c-0.45217,-0.15866 -0.91637,-0.5012 -1.30085,-0.61458c-0.56097,-0.16545 -0.95905,-0.06874 -0.95905,-0.06874z" fill="#000000" stroke="none" stroke-width="0"/><path d="M246.75652,76.15115l-0.04551,-1.49931c0,0 1.40345,0.06743 2.50548,0.08214c0.6889,0.0092 1.25816,-0.06311 1.29885,0.00249c0.3827,0.61707 -2.64719,1.78111 -2.64719,1.78111z" fill="#4a5c6f" stroke="none" stroke-width="0"/><path d="M242.16703,97.39527l-1.18968,-3.23813l9.17248,8.54387c0,0 -0.45501,0.75949 -0.45539,1.18935c-0.00047,0.52221 0.45277,1.72116 0.45277,1.72116z" fill="#4a5c6f" stroke="none" stroke-width="0"/><path d="M246.95748,103.90071l-0.21484,-1.08488l1.27214,-0.03861l0.04412,1.45387z" fill="#000000" stroke="none" stroke-width="0"/><path d="M242.49541,104.19787c0,0 -0.25787,-0.36509 -0.68676,-0.74712c-0.48072,-0.42819 -1.22995,-0.89436 -1.64923,-1.26695c-0.43612,-0.38753 -1.17142,-0.98854 -1.7592,-1.52507c-0.68344,-0.62383 -0.89621,-0.81144 -0.89621,-0.81144c0,0 0.39136,0.0784 0.98273,0.36757c0.343,0.16772 0.7059,0.40776 1.22202,0.74082c1.35575,0.87484 3.00062,2.08739 4.22324,3.19502c1.55432,1.40818 2.49044,2.51833 1.50144,3.48279c-0.51568,0.50288 -0.71398,0.31827 -1.08917,0.14079c-0.37924,-0.17939 -0.64533,-0.541 -0.93035,-0.98932c-0.22769,-0.35816 -0.50033,-0.77064 -0.61087,-1.19714c-0.20455,-0.78915 -0.3076,-1.38997 -0.3076,-1.38997z" fill="#000000" stroke="none" stroke-width="0"/><path d="M251.57117,104.22412l0.27251,-2.0092c0,0 2.5746,-1.20834 3.03293,-0.99341c0.75257,0.3529 -3.30543,3.0026 -3.30543,3.0026z" fill="#000000" stroke="none" stroke-width="0"/><path d="M247.31052,104.85367c0,0 0.30034,-0.59146 0.75916,-0.3418c0.88792,0.48311 2.30463,1.98212 2.83296,2.05591c0.71432,0.09977 0.98494,-1.07488 0.98494,-1.07488c0,0 2.84561,3.80267 2.97095,4.38039c0.04677,0.21562 0.1339,0.52349 0.15012,0.80461c0.0307,0.53235 -0.16997,0.65767 -0.3256,0.91844c-0.11752,0.19691 -0.18475,0.49419 -0.24636,0.97136c-0.09798,0.75871 -0.02588,1.75043 -0.03847,2.62351c-0.01304,0.90526 -0.04157,2.06553 -0.04157,2.06553c0,0 -0.31018,-0.98302 -0.38902,-1.93948c-0.04077,-0.49472 -0.13894,-1.04802 -0.19854,-1.67484c-0.11717,-1.23244 -0.2395,-2.58511 -0.56375,-3.18722c-0.18902,-0.35099 -0.57275,-0.53848 -0.89667,-0.88605c-0.65605,-0.70398 -1.54185,-1.32459 -2.20951,-1.82622c-0.66686,-0.50105 -2.78869,-2.88928 -2.78869,-2.88928z" fill="#000000" stroke="none" stroke-width="0"/><path d="M267.69835,107.50483c-0.67967,-0.24304 -1.65027,-0.65249 -2.47592,-1.23918c-0.90132,-0.64048 -2.17268,-1.11292 -3.50888,-1.64441c-1.21445,-0.48307 -2.49388,-1.00463 -3.37922,-1.94235c-1.1834,-1.2534 -2.08105,-2.90426 -2.4758,-4.54069c-0.43191,-1.7905 -0.28365,-3.56485 0.21664,-4.81025c0.74496,-1.85453 2.99492,-2.85433 3.7533,-2.81479c1.87124,0.09754 4.4114,2.48109 6.98023,4.98911c1.10212,1.07603 1.78007,2.25971 3.24819,3.00154c0.63198,0.31934 5.20295,0.17389 5.7721,0.38521c0.34523,0.12818 3.43456,-2.48788 3.72135,-2.3812c1.02858,0.3826 1.77416,0.56167 1.77416,0.56167c0,0 2.81208,-2.03316 4.99593,-4.26696c0.92312,-0.94423 1.6635,-2.5448 2.14591,-3.03822c0.84017,-0.8594 1.91242,-1.95617 1.91242,-1.95617c0,0 0.75266,3.23578 -0.27119,6.4013c-0.13002,0.40198 -0.89636,0.648 -1.0664,1.04666c-1.65099,3.87081 -2.73824,8.95554 -3.83692,10.45895c-1.21579,1.66365 -4.01366,-0.68963 -4.01366,-0.68963c0,0 0.10288,0.71854 0.21873,1.27928c0.19341,0.93606 0.83361,3.81374 0.83361,3.81374c0,0 -0.9433,-1.24914 -1.57672,-2.79463c-0.52663,-1.28493 -0.82128,-2.9054 -0.88513,-2.98266c-0.46387,-0.56131 -0.2847,-4.43987 -0.48974,-5.86964c-0.0498,-0.34728 -1.0302,0.27764 -1.0302,0.27764c0,0 -0.44579,3.7287 -2.33406,5.45941c-0.43429,0.39805 -1.34211,0.87948 -2.35384,1.35323c-0.05386,0.02522 -0.86942,0.26017 -0.92259,0.28353c-1.35073,0.59332 -2.26981,1.30532 -3.21165,1.63115c-0.54135,0.18728 -1.23191,0.21028 -1.74061,0.02839z" fill="#000000" stroke="none" stroke-width="0"/><path d="M265.91795,85.31449l-0.00541,-1.94737l1.42104,-0.00394l0.00541,1.94737z" fill="#000000" stroke="none" stroke-width="0"/><path d="M264.15469,129.89218c-0.01045,0.20056 -0.18151,0.35467 -0.38206,0.34422c-0.20056,-0.01045 -0.35467,-0.18152 -0.34422,-0.38207c0.01045,-0.20056 0.18152,-0.35466 0.38207,-0.34421c0.20056,0.01045 0.35466,0.18151 0.34421,0.38206z" fill="#000000" stroke="none" stroke-width="0"/><path d="M266.55621,130.97321c-0.01437,0.27577 -0.31055,0.48449 -0.66154,0.46619c-0.35098,-0.0183 -0.62384,-0.25668 -0.60947,-0.53245c0.01437,-0.27577 0.31054,-0.48449 0.66153,-0.46619c0.35098,0.0183 0.62385,0.25668 0.60948,0.53245z" fill="#000000" stroke="none" stroke-width="0"/><path d="M268.75401,130.72365c-0.00915,0.17548 -0.24012,0.30609 -0.51588,0.29172c-0.27577,-0.01437 -0.49191,-0.16829 -0.48276,-0.34378c0.00915,-0.17548 0.24012,-0.30609 0.51588,-0.29172c0.27577,0.01437 0.49191,0.16829 0.48276,0.34378z" fill="#000000" stroke="none" stroke-width="0"/><path d="M270.39051,130.76343c-0.00523,0.10027 -0.15172,0.17416 -0.32721,0.16501c-0.17548,-0.00915 -0.31351,-0.09786 -0.30828,-0.19813c0.00523,-0.10027 0.15172,-0.17416 0.32721,-0.16501c0.17548,0.00915 0.31351,0.09785 0.30828,0.19813z" fill="#000000" stroke="none" stroke-width="0"/><path d="M268.85039,132.36725c-0.00915,0.17548 -0.3214,0.30186 -0.69745,0.28225c-0.37605,-0.0196 -0.67348,-0.17775 -0.66434,-0.35324c0.00915,-0.17548 0.32141,-0.30185 0.69746,-0.28225c0.37605,0.0196 0.67347,0.17776 0.66433,0.35324z" fill="#000000" stroke="none" stroke-width="0"/><path d="M270.54456,133.04728c-0.00523,0.10027 -0.13141,0.17522 -0.28182,0.16737c-0.15042,-0.00784 -0.26811,-0.09549 -0.26289,-0.19577c0.00523,-0.10027 0.1314,-0.17522 0.28181,-0.16737c0.15042,0.00784 0.26812,0.09549 0.2629,0.19577z" fill="#000000" stroke="none" stroke-width="0"/><path d="M275.12645,132.46681c-0.01307,0.2507 -0.28787,0.44015 -0.61377,0.42317c-0.32591,-0.01699 -0.57952,-0.234 -0.56645,-0.48468c0.01307,-0.2507 0.28787,-0.44015 0.61377,-0.42317c0.32591,0.01699 0.57952,0.234 0.56645,0.48468z" fill="#000000" stroke="none" stroke-width="0"/><path d="M278.48079,132.7327c-0.00784,0.15042 -0.15645,0.26494 -0.33194,0.25579c-0.17548,-0.00915 -0.31141,-0.13851 -0.30356,-0.28893c0.00784,-0.15042 0.15646,-0.26494 0.33195,-0.25579c0.17548,0.00915 0.3114,0.1385 0.30355,0.28893z" fill="#000000" stroke="none" stroke-width="0"/><path d="M278.5991,130.46306c-0.00523,0.10027 -0.1314,0.17522 -0.28181,0.16737c-0.15042,-0.00784 -0.26812,-0.09549 -0.2629,-0.19577c0.00523,-0.10027 0.13141,-0.17522 0.28182,-0.16737c0.15042,0.00784 0.26811,0.09549 0.26289,0.19577z" fill="#000000" stroke="none" stroke-width="0"/><path d="M281.07722,131.82116c-0.01177,0.22563 -0.26518,0.39582 -0.56602,0.38014c-0.30083,-0.01568 -0.53519,-0.2113 -0.52342,-0.43693c0.01177,-0.22563 0.26518,-0.39582 0.56602,-0.38014c0.30083,0.01568 0.53519,0.2113 0.52342,0.43693z" fill="#000000" stroke="none" stroke-width="0"/><path d="M283.60415,130.49637c-0.01177,0.22563 -0.24486,0.39689 -0.52061,0.38251c-0.27577,-0.01437 -0.48978,-0.20893 -0.47803,-0.43456c0.01177,-0.22563 0.24486,-0.39689 0.52061,-0.38251c0.27577,0.01437 0.48978,0.20893 0.47803,0.43456z" fill="#000000" stroke="none" stroke-width="0"/><path d="M285.88325,130.43311c-0.01177,0.22563 -0.2042,0.399 -0.42984,0.38724c-0.22563,-0.01177 -0.399,-0.2042 -0.38724,-0.42983c0.01177,-0.22563 0.20419,-0.399 0.42983,-0.38724c0.22563,0.01177 0.39901,0.2042 0.38725,0.42983z" fill="#000000" stroke="none" stroke-width="0"/><path d="M287.80072,128.57585c-0.01568,0.30083 -0.33324,0.52883 -0.70929,0.50923c-0.37605,-0.0196 -0.66817,-0.27937 -0.65249,-0.58021c0.01568,-0.30083 0.33323,-0.52883 0.70928,-0.50923c0.37605,0.0196 0.66818,0.27937 0.6525,0.58022z" fill="#000000" stroke="none" stroke-width="0"/><path d="M288.61306,128.70923c0.15042,0.00784 0.26071,0.23775 0.24633,0.51352c-0.01437,0.27577 -0.14797,0.49296 -0.29839,0.48513c-0.15042,-0.00784 -0.2607,-0.23775 -0.24632,-0.51352c0.01437,-0.27577 0.14796,-0.49296 0.29838,-0.48513z" fill="#000000" stroke="none" stroke-width="0"/><path d="M285.1916,127.98469c-0.01045,0.20056 -0.26281,0.35043 -0.56365,0.33475c-0.30083,-0.01568 -0.53625,-0.19099 -0.52579,-0.39155c0.01045,-0.20056 0.26281,-0.35043 0.56365,-0.33475c0.30083,0.01568 0.53625,0.19099 0.52579,0.39155z" fill="#000000" stroke="none" stroke-width="0"/><path d="M286.62673,126.6485c-0.00915,0.17548 -0.19946,0.30822 -0.4251,0.29645c-0.22563,-0.01177 -0.40112,-0.16355 -0.39198,-0.33905c0.00915,-0.17548 0.19946,-0.30822 0.4251,-0.29645c0.22563,0.01177 0.40112,0.16355 0.39198,0.33905z" fill="#000000" stroke="none" stroke-width="0"/><path d="M287.41218,125.55153c-0.00784,0.15043 -0.13613,0.266 -0.28655,0.25817c-0.15042,-0.00784 -0.266,-0.13613 -0.25817,-0.28656c0.00784,-0.15043 0.13614,-0.26599 0.28656,-0.25816c0.15042,0.00784 0.26599,0.13613 0.25816,0.28655z" fill="#000000" stroke="none" stroke-width="0"/><path d="M286.30295,124.12822c-0.01045,0.20056 -0.18151,0.35467 -0.38206,0.34422c-0.20056,-0.01045 -0.35466,-0.18152 -0.34421,-0.38207c0.01045,-0.20056 0.18151,-0.35467 0.38206,-0.34422c0.20056,0.01045 0.35466,0.18152 0.34421,0.38207z" fill="#000000" stroke="none" stroke-width="0"/><path d="M259.67466,114.54726c0,0 -1.73227,1.21997 -2.03782,3.61717c-0.19549,1.53371 1.0762,3.64031 0.88038,4.5561c-0.11464,0.53619 -0.46678,0.27397 -0.52138,0.28431c-0.10124,0.01915 -0.40042,-0.04574 -0.50603,-0.95154c-0.08639,-0.74093 -0.15142,-1.04728 -0.35402,-2.14375c-0.16104,-0.87159 -0.40248,-1.77327 -0.45446,-2.81336c-0.01767,-0.35341 2.14941,-3.78457 2.13624,-4.14656c-0.01041,-0.28627 0.11769,-0.8541 0.16287,-1.44563c0.039,-0.51055 -0.00813,-1.01681 0.03012,-1.63573c0.06382,-1.03276 -0.04103,-2.25689 0.61495,-2.56458c0.92066,-0.43185 1.01102,0.47356 2.49788,1.27951c0.42677,0.23133 1.55174,0.48487 2.12651,0.65881c0.31793,0.09622 2.92665,-0.06741 4.50994,-0.31782c0.69252,-0.10954 1.37719,-0.35569 1.39208,-0.33417c0.70572,1.02043 -5.9215,2.37243 -5.9215,2.37243c0,0 1.17077,1.24281 2.18009,1.54375c1.1781,0.35126 4.625,0.24173 8.09405,-0.10803c3.68087,-0.37111 7.38549,-0.98981 8.38852,-0.79564c0.29042,0.05623 0.56912,-0.39162 0.94539,-0.85145c0.64032,-0.78253 1.40004,-1.78088 1.79749,-1.70238c0.37394,0.07387 -0.95011,-2.66642 -0.62776,-2.58471c1.55798,0.39493 2.49482,2.14246 2.41497,2.42025c-0.30206,1.05091 -0.98771,2.16977 -1.14748,2.51311c-0.19833,0.42624 -0.45917,-0.82536 -0.45917,-0.82536c0,0 -1.30195,1.67442 -1.52336,2.02778c-0.54286,0.86633 -1.18395,0.11512 -1.6958,1.20791c-0.13118,0.28006 -0.00312,0.96172 -0.12312,1.28415c-0.85826,2.30595 -1.69547,5.16078 -2.16371,7.06887c-0.49582,2.02052 0.66953,2.72469 1.43469,3.97165c0.37996,0.6192 0.73529,1.06084 0.60125,1.50085c-0.17481,0.5738 -0.655,0.88112 -0.69565,0.88298c-0.64561,0.02931 -1.00128,-0.10621 -1.82088,-0.08309c-1.60199,0.04518 -6.52468,1.57373 -8.10614,1.18035c-0.51725,-0.12866 -1.81945,-1.16733 -3.25486,-2.29219c-0.53072,-0.4159 -0.97355,-0.90538 -1.51723,-1.3249c-0.50861,-0.39247 -1.1174,-0.71298 -1.63345,-1.15703c-1.96009,-1.6866 -3.64677,-3.32179 -4.22777,-3.63301c-0.05869,-0.19457 -0.06033,-0.80849 -0.28499,-1.60118c-0.64991,-2.29318 -1.13083,-5.05784 -1.13083,-5.05784z" fill="#000000" stroke="none" stroke-width="0"/><path d="M262.94166,115.38143c-0.4458,-1.11509 -1.19013,-4.00308 -1.19013,-4.00308c0,0 2.70375,2.82393 4.58887,2.9527c1.90303,0.13 5.97811,-0.21724 8.93257,-0.78299c1.86573,-0.35726 2.78216,-0.5916 2.78216,-0.5916c0,0 -0.51711,1.74328 -0.68429,2.6166c-0.1664,0.86925 -0.31647,2.61113 -0.31647,2.61113c0,0 -5.37803,0.69687 -7.31524,0.58221c-1.52564,-0.0903 -4.59659,-0.85809 -5.54589,-1.21793c-0.35613,-0.13499 -1.15639,-1.929 -1.25156,-2.16702z" fill="#ffffff" stroke="none" stroke-width="0"/><path d="M261.19666,112.16872l-0.34045,-3.07384c0,0 1.86452,1.65075 2.81277,2.46116c0.92271,0.78859 2.80591,2.2663 2.80591,2.2663c0,0 0.32455,-0.659 -0.65194,0.61841c-0.67559,0.88377 -0.86223,2.35876 -0.86223,2.35876c0,0 -1.3243,-3.36453 -1.94142,-4.12653c-0.59137,-0.7302 -1.82262,-0.50426 -1.82262,-0.50426z" fill="#f44254" stroke="#000000" stroke-width="0.5"/><path d="M268.06312,116.97097l-1.55952,-3.01384l3.13859,0.1636c0,0 -0.70793,0.96727 -0.99572,1.49634c-0.29226,0.53729 -0.58336,1.35389 -0.58336,1.35389z" fill="#f44254" stroke="#000000" stroke-width="0.5"/><path d="M267.27822,124.49824c0,0 2.459,0.54789 3.66591,0.51114c0.64741,-0.01972 1.43009,0.26654 2.3689,0.10475c1.60951,-0.27738 3.20789,-0.92087 3.20789,-0.92087c0,0 0.15981,1.30047 0.16083,2.00837c0.00088,0.61391 -0.00496,1.86213 -0.00496,1.86213c0,0 -0.98502,0.06704 -2.00291,0.30746c-0.82319,0.19443 -1.62109,0.55419 -2.30354,0.67654c-0.55237,0.09902 -1.43075,-1.56098 -2.16691,-2.20296c-0.79957,-0.69728 -1.48074,-0.66075 -2.0642,-1.16781c-0.57367,-0.49854 -0.861,-1.17875 -0.861,-1.17875z" fill="#ffffff" stroke="none" stroke-width="0"/><path d="M279.18043,96.84159c0,0 0.3068,-0.32549 0.30071,-0.71928c-0.00255,-0.1657 -3.03694,-3.58946 -3.0481,-3.92594c-0.01089,-0.32852 3.10961,-2.46694 3.16026,-2.8467c0.06029,-0.45196 -0.08573,-1.15138 -0.08129,-1.57277c0.025,-2.37615 -0.53193,-3.90083 -0.53193,-3.90083l0.49926,0.0182c0,0 1.42772,4.78471 1.57147,5.65468c0.10884,0.65872 -0.69834,1.555 -0.69834,1.555c0,0 1.31799,-0.37321 1.40187,-1.44879c0.10626,-1.3625 -0.95328,-5.82773 -0.95328,-5.82773l0.56056,-0.01497c0,0 0.87755,1.09126 1.33757,3.67878c0.09697,0.54537 0.60197,2.16904 0.31387,3.26794c-0.12108,0.46184 -0.85281,0.96106 -1.05649,1.03926c-0.51594,0.19808 -1.07905,0.29161 -1.50309,0.55835c-0.39474,0.2483 -0.62998,0.90866 -0.62933,1.0676c0.0042,1.0207 1.60293,2.40459 1.60106,2.7822c-0.00228,0.46178 -0.254,0.86395 -0.254,0.86395z" fill="#000000" stroke="none" stroke-width="0"/><path d="M272.71373,86.42835c0.01076,-0.20639 1.33223,-0.1753 3.07165,-0.32419c0.6306,-0.05398 2.696,-1.06002 2.96271,-1.14269c0.42046,-0.13031 0.85199,-0.58232 1.25173,-0.73327c0.33843,-0.1278 0.68501,-0.63367 0.99441,-0.76854c1.61334,-0.70328 2.5111,-2.35177 2.5111,-2.35177l2.30611,0.1828c0,0 -0.71554,0.48344 -1.46301,1.0791c-1.0443,0.8322 -2.26975,1.87727 -2.74267,2.07439c-0.57384,0.23919 -1.09338,0.53282 -1.76136,0.73935c-1.34093,0.41462 -2.64639,1.38939 -3.88984,1.62727c-1.72601,0.33019 -3.24836,-0.23762 -3.24081,-0.38246z" fill="#000000" stroke="none" stroke-width="0"/><path d="M268.17813,88.19463c0,0 0.2756,-0.28122 1.46352,-0.26231c2.5983,0.04136 7.1163,1.27094 10.98596,-0.95046c2.76801,-1.589 6.92493,-5.47525 6.92493,-5.47525l-0.35702,2.04669c0,0 -6.61828,4.90582 -8.8089,5.44046c-3.50644,0.85577 -10.20849,-0.79913 -10.20849,-0.79913z" fill="#000000" stroke="none" stroke-width="0"/><g stroke="none" stroke-width="0"><path d="M264.16627,104.37615c0,0 1.96998,-0.78751 2.74111,-0.98441c0.72401,-0.18487 2.11398,-0.26505 2.11398,-0.26505c0,0 0.14545,-0.78749 0.3057,-1.75024c0.14231,-0.85498 0.39542,-1.57834 0.46955,-2.28093c0.11785,-1.11724 -0.0375,-3.59184 0.0568,-5.07002c0.07298,-1.14417 0.40044,-1.8396 0.40044,-1.8396c0,0 -0.24034,1.20006 -0.18341,2.64388c0.06293,1.59629 0.25238,3.67963 0.36532,4.62201c0.11566,0.96513 0.7377,2.75764 0.7377,2.75764l5.56272,-0.21565c0,0 -0.75403,0.64985 -2.08201,0.97012c-1.43839,0.34689 -3.46904,0.38339 -3.73718,0.86562c-0.07439,0.13376 -0.23496,0.2246 -0.27696,0.9871c-0.14668,2.66223 -0.01899,8.45877 -0.01899,8.45877c0,0 -0.38598,-4.68695 -0.70202,-7.18714c-0.06723,-0.53181 -0.2154,-0.8753 -0.26224,-1.15335c-0.11745,-0.69723 -0.42434,-1.13684 -0.42434,-1.13684c0,0 -0.86551,-0.13295 -1.35546,-0.10168c-0.83106,0.05303 -3.71068,0.67981 -3.71068,0.67981z" fill="#ff0000"/><path d="M278.07454,102.25681c0,0 1.4659,-0.4159 2.92118,-1.05808c0.57977,-0.25584 1.16755,-0.50166 1.70498,-0.81407c0.74413,-0.43255 1.4721,-0.42527 1.73437,-0.94925c0.19985,-0.39926 0.2686,-1.84497 0.29392,-3.33231c0.05282,-3.10333 -0.14526,-7.19433 -0.14526,-7.19433c0,0 0.1601,0.46516 0.25413,1.30792c0.21445,1.92209 0.09355,5.05423 0.24509,6.35095c0.12752,1.09128 0.802,2.91297 0.802,2.91297c0,0 0.33753,0.13135 0.93359,-0.08788c1.03615,-0.3811 2.67155,-1.15363 3.35162,-1.17222c2.50815,-0.06855 3.50611,0.19461 3.50611,0.19461c0,0 -1.29024,-0.06308 -2.73417,0.25911c-0.91145,0.20337 -1.92166,0.63761 -2.80523,1.08036c-0.15809,0.07922 -0.37266,-0.00441 -0.52122,0.07826c-0.23103,0.12857 -0.38836,0.42548 -0.58826,0.5585c-0.4604,0.30635 -0.82514,0.61811 -1.03409,0.90602c-0.044,0.06061 -0.19489,0.24555 -0.24675,0.67704c-0.15624,1.29938 -0.24556,4.05249 -0.4754,6.10891c-0.18274,1.63509 -0.51983,2.83056 -0.51983,2.83056c0,0 -0.03947,-4.13491 -0.30506,-6.70824c-0.11549,-1.11903 0.00133,-2.14577 -0.27749,-2.47536c-0.13987,-0.16534 -1.03297,-0.20167 -2.32392,-0.06804c-1.64941,0.17072 -3.77034,0.59466 -3.77034,0.59466z" fill="#ff0000"/><path d="M271.22856,103.04262c0.01583,0.52136 -0.39399,0.95683 -0.91536,0.97266c-0.52136,0.01583 -0.95683,-0.39399 -0.97266,-0.91536c-0.01583,-0.52136 0.39399,-0.95683 0.91536,-0.97266c0.52136,-0.01583 0.95683,0.39399 0.97266,0.91536z" fill="#ffffff"/><path d="M286.10883,100.70127c0.01397,0.46004 -0.33522,0.84389 -0.7799,0.85737c-0.4447,0.0135 -0.8165,-0.34849 -0.83047,-0.80851c-0.01397,-0.46004 0.33522,-0.84389 0.7799,-0.85737c0.4447,-0.0135 0.8165,0.34849 0.83047,0.80851z" fill="#ffffff"/></g><path d="M251.61733,96.65582c0,0 0.20583,-0.45931 0.58779,-0.974c0.24876,-0.3352 0.60419,-0.69224 0.91644,-0.96689c0.36727,-0.32304 1.12451,-0.39664 1.76886,-0.88857c0.85627,-0.65373 1.68276,-1.52959 1.68276,-1.52959l0.63685,0.58952c0,0 0.12321,5.59503 -0.06914,6.91331c-0.0124,0.08496 -1.50467,0.03891 -2.57629,0.18121c-1.41134,0.18742 -2.49415,0.55803 -2.49415,0.55803c0,0 0.22619,-0.3278 0.60113,-0.60249c0.27104,-0.19857 0.64492,-0.34152 0.94748,-0.4458c0.73385,-0.25292 2.81108,-0.34531 2.81108,-0.34531c0,0 0.16912,-1.62063 0.16555,-1.61584c-0.00982,0.01319 -0.26233,-0.23459 -0.62145,-0.22449c-0.29189,0.0082 -0.37787,0.22107 -0.70989,0.31706c-0.5526,0.15976 -2.2817,0.32685 -2.2817,0.32685c0,0 0.28254,-0.35189 0.84968,-0.59111c0.59305,-0.25016 1.4719,-0.38883 1.47452,-0.42248c0.03868,-0.49928 0.12287,-2.27926 0.3995,-2.92496c0.23151,-0.54036 0.66621,0.00062 0.66621,0.00062c0,0 -1.15226,0.18332 -1.90504,0.60203c-0.42,0.23361 -1.09776,0.81664 -1.71397,1.27575c-0.59503,0.44333 -1.13623,0.76717 -1.13623,0.76717z" fill="#000000" stroke="none" stroke-width="0"/></g><path d="M280.38786,187.60441l-2.83333,-14.33333l25.33333,-0.66667l13.83333,10.33334c0,0 -0.68482,1.39647 -2.47577,3.76641c-1.85568,2.45559 -4.86208,5.93176 -7.37548,8.54971c-2.61748,2.72635 -6.44113,5.24302 -6.9145,5.03216c-6.5669,-2.92525 -19.56759,-12.68162 -19.56759,-12.68162z" fill="#1b1f25" stroke="#000000" stroke-width="1.5" stroke-linecap="butt"/><g stroke-linecap="butt"><path d="M269.50466,173.56666c0,0 2.02551,-1.701 3.88493,-4.0479c1.42921,-1.8039 2.52158,-4.07465 3.97837,-5.72723c0.33733,-0.38266 -0.20502,-2.11758 -0.27452,-3.04582c-0.02107,-0.28151 0.42009,-0.76426 0.64393,-0.88528c0.71158,-0.38471 1.75816,-0.30544 3.03763,-0.7985c0.18969,-0.0731 0.49104,-0.75369 0.71708,-0.84887c0.35728,-0.15043 0.73463,-0.29569 1.05204,-0.33222c0.89963,-0.10355 1.04097,0.13519 1.94646,0.17983c2.10283,0.10368 4.29154,0.19642 5.59399,0.29936c0.62164,0.04914 1.18295,0.60623 1.16269,1.20637c-0.02173,0.64364 0.31225,1.26791 0.75365,2.12718c0.76463,1.48852 2.32275,3.08155 3.11199,2.82208c1.2468,-0.40991 -0.26529,8.06548 -0.26529,8.06548c0,0 -5.6325,-0.27126 -6.04621,0.45269c-1.11652,1.9538 -1.1745,4.49695 -1.69396,6.18937c-0.52969,1.72578 -2.13935,3.1302 -2.61525,3.83503c-0.93876,1.39031 -3.98753,1.63343 -3.98753,1.63343z" fill="#d396fc" stroke="#000000" stroke-width="1.5"/><path d="M280.97194,161.66524l-1.75,-1.25c0,0 1.98313,-1.507 2.492,-1.68902c0.30498,-0.10908 0.61617,-0.36004 0.92466,-0.39432c0.29895,-0.03322 0.47465,0.16135 0.67628,0.21095c0.32707,0.08047 0.72238,0.21807 1.82278,0.24463c0.82524,0.01992 4.71567,-0.11395 4.94329,0.00859c0.49325,0.26556 0.69869,1.31289 0.91397,1.9201c0.35126,0.99077 0.25685,1.64095 0.78584,1.98658c0.73336,0.47915 1.60785,1.12915 1.60785,1.12915c0,0 0.32851,-0.7541 0.28593,1.41737c-0.04067,2.07406 -0.53593,5.7493 -0.53593,5.7493c0,0 -3.80007,-2.58948 -4.5011,-2.60131c-0.93521,-0.01579 -3.51455,1.7951 -3.51455,1.7951c0,0 -0.95195,-0.3969 -1.00389,-1.20326c-0.08049,-1.24975 0.71568,-3.13255 0.62459,-3.33369c-0.52612,-1.16172 6.514,-0.0582 5.42107,-1.41187c-0.3841,-0.47574 -0.48167,-1.34035 -0.96412,-1.73703c-0.14288,-0.11748 -0.99983,0.58571 -2.01401,1.08365c-0.72485,0.35589 -1.69308,0.56617 -1.79133,0.48381c-0.33261,-0.27882 -0.57152,-1.21284 -0.87823,-1.46383c-0.54321,-0.44452 -0.87515,-0.43136 -1.30166,-0.76996c-0.50202,-0.39855 -0.90415,-0.70715 -1.16154,-0.88681c-0.62379,-0.4354 -1.08188,0.71186 -1.08188,0.71186z" fill="#ffc6ef" stroke="none" stroke-width="0"/><path d="M278.22194,165.74857c0,0 -0.31478,-1.88197 0.1349,-2.60314c0.32837,-0.52664 1.00496,-0.30045 1.78937,-1.13051c1.13713,-1.20331 2.40906,-3.76635 2.40906,-3.76635l1.83333,0.08333c0,0 -0.54213,0.82695 -1.18223,1.845c-0.38252,0.60838 -0.74646,1.33858 -1.19925,1.85266c-0.87348,0.9917 -1.68419,1.00996 -2.17365,1.5767c-0.72961,0.84481 -1.61153,2.14231 -1.61153,2.14231z" fill="#000000" stroke="none" stroke-width="0"/><path d="M279.59486,168.16094c-0.03391,-0.31243 -0.09256,-1.0641 0.27988,-1.90865c0.50461,-1.14425 2.09165,-2.4453 3.15127,-3.78954c0.72393,-0.91837 0.91084,-1.86246 1.87928,-2.52305c0.92969,-0.63416 1.93489,-0.47532 3.14069,-0.56542c1.52785,-0.11416 3.17596,-0.37571 3.17596,-0.37571l0.41666,2.16666c0,0 -4.97796,-0.02559 -5.82153,0.59928c-0.58515,0.43344 -1.06809,1.23818 -1.80433,2.26336c-0.31693,0.44131 -2.7267,1.661 -3.04778,2.13262c-0.12502,0.18364 -0.39094,0.9918 -0.39648,1.67151c-0.00443,0.54262 0.24777,0.94294 0.20634,1.32075c-0.01752,0.15977 -0.317,0.20954 -0.61019,-0.02069c-0.27249,-0.21398 -0.53956,-0.69251 -0.56979,-0.97113z" fill="#000000" stroke="none" stroke-width="0"/><path d="M282.38861,169.83191c0,0 0.70039,-0.78778 1.17938,-1.82135c0.13174,-0.28428 0.18232,-0.58085 0.30961,-0.87495c0.33871,-0.7826 0.61459,-1.54782 0.81784,-2.01786c0.10835,-0.25057 0.79721,-0.58883 1.35957,-0.6236c1.87306,-0.11583 5.43675,-0.03068 5.81516,-0.00202c0.58634,0.04442 1.51845,1.50645 1.51845,1.50645l-0.5,1.33333c0,0 -0.70042,-1.59074 -1.22993,-1.43274c-0.43743,0.13053 -5.51481,-0.07703 -6.05782,0.18903c-0.27225,0.1334 -0.75959,3.01882 -1.5192,3.37079c-1.00431,0.46535 -1.69304,0.37292 -1.69304,0.37292z" fill="#000000" stroke="none" stroke-width="0"/></g><g><g><g stroke-linecap="butt"><path d="M288.5325,180.6951c0.81917,-4.66976 3.27292,-6.78725 3.73482,-9.64647c0.40408,-2.50137 0.93369,-6.60791 1.40803,-10.49313c0.10346,-0.84748 -4.48976,-4.79247 -4.39343,-5.59993c0.16456,-1.37943 3.23112,-3.13818 4.0496,-3.79437c1.65073,-1.32343 1.51756,-0.63733 1.51756,-0.63733l19.35439,7.27699c0,0 0.37298,1.72576 0.41079,4.9762c0.03359,2.88831 -0.28465,7.23293 -0.04167,8.80972c0.15697,1.01861 2.49197,2.21993 2.62959,3.23388c0.13164,0.96988 -1.8524,1.03526 -1.69828,1.99048c0.84789,5.2552 3.76784,10.99674 3.50972,11.57815c-0.37978,0.85548 -1.30364,1.55017 -2.28306,2.46187c-3.29673,3.06882 -9.0101,6.59159 -12.92117,8.24864c-1.59538,0.67594 -3.03683,0.94978 -3.655,1.02344c-4.09518,0.48806 -10.59356,-13.03847 -11.5052,-17.88077c-0.08877,-0.47149 -0.15494,-1.3294 -0.1167,-1.54737z" fill="#1b1f25" stroke="#000000" stroke-width="1.5"/><path d="M306.80276,187.85936c0,0 0.9394,-2.61811 1.0056,-4.26249c0.12676,-3.14814 -0.30029,-13.25527 -0.30029,-13.25527c0,0 2.50003,-2.75092 3.54658,-4.24461c1.01404,-1.4473 2.85992,-4.59887 2.85992,-4.59887c0,0 -0.14444,8.75225 -0.36158,9.54296c-0.27265,0.9928 2.8757,2.82648 2.67924,3.97045c-0.09566,0.55695 -1.55234,0.45661 -1.59219,1.05666c-0.08275,1.24602 0.63369,2.50447 1.19945,4.27756c1.06991,3.35312 2.37463,7.34252 2.15269,8.10723c-0.0632,0.21773 -1.24334,1.57606 -2.8587,2.83398c-2.20406,1.71637 -5.01352,3.42297 -5.01352,3.42297c0,0 2.24106,-4.54336 2.76969,-5.83153c0.27193,-0.66264 0.51494,-1.38641 0.51494,-1.38641z" fill="#2b263c" stroke="none" stroke-width="0"/><path d="M317.03881,188.06393c0,0 -0.78128,-1.85582 -1.84359,-4.29109c-0.14694,-0.33686 -0.51288,-0.89246 -0.89484,-1.19027c-0.63441,-0.49462 -1.34126,-0.66788 -1.37006,-0.8107c-0.28137,-1.39527 -0.20213,-4.68988 -0.06133,-6.86783c0.19224,-2.97392 0.98805,-15.35131 0.98805,-15.35131c0,0 1.04068,6.41313 1.2286,6.6547c0.3076,0.39541 -0.02938,5.88766 -0.02938,5.88766c0,0 -0.02003,1.7452 -0.01019,3.51902c0.00044,0.07773 0.44278,-0.40158 0.99428,-0.94799c0.32052,-0.31755 -2.25113,-1.31667 -1.44511,-1.79363c0.59279,-0.35079 2.8301,1.37932 2.83027,1.41079c0.00208,0.37464 -2.34079,2.94831 -2.33923,3.23014c0.0078,1.40522 -0.16071,3.6854 -0.16071,3.6854c0,0 1.17613,1.23751 1.33171,1.77373c0.3356,1.15677 0.78153,5.0914 0.78153,5.0914z" fill="#000000" stroke="none" stroke-width="0"/></g><path d="M294.33492,160.84101c0,0 3.09536,1.70372 3.47703,2.33855c0.29405,0.48911 -1.38055,1.14861 -1.38055,1.14861" fill="none" stroke="#000000" stroke-width="1.5" stroke-linecap="round"/><path d="M312.10191,152.80415c-0.18836,2.70886 -3.65364,4.67449 -7.73988,4.39033c-4.08624,-0.28415 -7.92271,-2.59043 -7.73434,-5.2993c0.18836,-2.70886 4.33024,-4.79451 8.41649,-4.51036c4.08624,0.28415 7.2461,2.71046 7.05774,5.41932z" fill="#565b84" stroke="#000000" stroke-width="1.5" stroke-linecap="butt"/></g><path d="M315.13136,152.4019c0.16808,4.38054 -4.73354,7.99988 -10.94218,8.2381c-6.20864,0.23823 -11.15213,-3.7539 -11.32022,-8.13444c-0.16808,-4.38054 1.59166,-8.37969 7.80031,-8.61792c6.20864,-0.23823 14.29401,4.13372 14.46209,8.51425z" fill="#afcad3" stroke="#000000" stroke-width="1.5" stroke-linecap="butt"/><path d="M316.01231,159.06052c-0.76592,0.02939 -4.36353,-0.0753 -4.83106,-0.50355c-0.9184,-0.84124 -8.27319,-12.1283 -5.78974,-12.22359c1.60043,-0.06141 7.76427,-0.65649 12.02812,1.08904c0.80034,0.32763 1.40173,1.00925 1.45741,2.77142c0.04913,1.55456 -0.05604,4.01123 -0.49661,5.69412c-0.52801,2.0169 -1.47488,3.13829 -2.36813,3.17256z" fill="#afcad3" stroke="#000000" stroke-width="1.5" stroke-linecap="butt"/></g><g stroke-linecap="butt"><path d="M202.97911,155.09811c-0.10475,-0.94576 10.88429,-8.09928 14.97159,-10.61827c2.91076,-1.7939 7.68735,-4.64196 11.78595,-6.74653c3.55923,-1.8276 6.63461,-2.84667 7.44323,-2.93623c8.76241,-0.97052 13.74051,22.24063 13.74051,22.24063l12.83827,30.73289c0,0 -6.66743,5.48766 -15.35255,9.90352c-3.71275,1.88771 -11.41272,10.753 -13.54302,9.74364c-2.1644,-1.02551 -7.77145,-7.30963 -11.80036,-13.50175c-3.4635,-5.32311 -7.02401,-12.34352 -9.73884,-18.69701c-1.43413,-3.35629 -2.18612,-6.43072 -3.53712,-9.17958c-1.67618,-3.41048 -2.87283,-4.20836 -4.19826,-6.02371c-1.15163,-1.57732 -2.54659,-4.35073 -2.60937,-4.91761z" fill="#1b1f25" stroke="#000000" stroke-width="1.5"/><path d="M231.30811,176.32706c0,0 -1.78303,-2.03181 -2.71551,-4.85784c-0.93395,-2.83053 -1.78643,-6.53313 -2.97713,-9.96667c-1.44127,-4.15608 -3.28558,-7.92819 -5.17384,-9.41483c-3.73666,-2.94192 -16.48988,2.7013 -16.48988,2.7013c0,0 14.4803,-10.06042 20.83075,-13.61719c4.5128,-2.52754 14.03293,-6.15312 14.03293,-6.15312l16.16428,44.12369c0,0 -8.70595,-3.28372 -15.13701,-3.98332c-4.07706,-0.44351 -8.5346,1.168 -8.5346,1.168z" fill="#2b263c" stroke="none" stroke-width="0"/></g><g stroke-linecap="butt"><path d="M245.07096,187.34614c0,0 0.00906,0.67329 1.0234,-6.40856c0.15118,-1.05556 -0.08322,-3.91003 -1.62821,-6.42514c-1.08516,-1.76657 -2.86727,-3.35409 -3.66319,-4.48512c-0.1406,-0.1998 -4.90534,-2.76681 -4.97511,-2.93658c-0.06269,-0.15257 3.66658,2.25912 4.84593,2.73203c0.28232,0.11321 -0.26894,-0.82846 -0.26229,-0.85702c0.48884,-2.09713 2.53472,-6.68687 3.86231,-9.75026c0.59859,-1.38123 1.22217,-2.30671 1.19354,-2.80667c-0.0685,-1.19666 -11.75111,-5.70889 -11.75314,-6.64015c-0.0148,-6.8281 3.65705,-16.56378 4.36463,-16.82678c0.75602,-0.28101 8.19301,7.3896 11.60327,12.64816c3.01456,4.64841 5.82259,10.31303 8.65059,17.62166c3.37028,8.71012 5.0088,18.77543 5.0088,18.77543z" fill="#2b263c" stroke="#000000" stroke-width="1.5"/><path d="M245.37065,179.21484c0.10593,-0.47901 -0.98902,-5.02349 -3.44051,-7.92535c-0.57119,-0.67613 -2.09815,-1.43568 -2.74143,-1.96313c-2.3539,-1.93007 -4.0212,-2.38184 -3.95473,-2.68709c0.89013,-4.08771 2.30615,-11.17257 2.30615,-11.17257l-9.53017,-3.56047l6.94272,-15.88994l2.53736,-0.61605l-0.31218,11.39897l13.36603,7.61289l-6.46828,14.4224c0,0 2.4488,2.73633 3.98114,5.74495c1.18886,2.33425 1.96388,5.05835 2.22235,6.9879c0.36585,2.73118 -0.50072,7.39005 -0.50072,7.39005c0,0 -5.93804,-2.8216 -4.40772,-9.74256z" fill="#1b1f25" stroke="none" stroke-width="0"/><path d="M245.07096,187.34614c0,0 0.00906,0.67329 1.0234,-6.40855c0.15118,-1.05555 -0.08322,-3.91003 -1.6282,-6.42515c-1.08713,-1.76978 -2.87371,-3.35982 -3.66749,-4.49124c-0.06306,-0.0899 -4.72541,-2.58594 -4.89515,-2.86209c-0.1153,-0.18759 2.4218,-4.17436 3.74546,-6.53357c0.41059,-0.73181 0.94823,-2.18148 0.94191,-2.19415c-0.01363,-0.02734 -0.25716,1.0751 -0.92723,2.22917c-1.43459,2.47082 -3.90142,6.15831 -3.76051,6.3961c0.443,0.74762 3.56703,2.22419 4.40904,2.6276c0.51352,0.24604 0.09699,-0.70852 0.09932,-0.7185c0.48884,-2.09713 2.53472,-6.68687 3.86231,-9.75027c0.59859,-1.38123 1.22216,-2.3067 1.19354,-2.80665c-0.03909,-0.68294 -3.77435,-2.80738 -7.04893,-4.36818c-2.4632,-1.17406 -4.70333,-1.87218 -4.70419,-2.27197c-0.0148,-6.8281 3.65705,-16.56379 4.36463,-16.82678c0.75602,-0.28101 8.19301,7.3896 11.60327,12.64816c3.01456,4.6484 5.82259,10.31303 8.65058,17.62166c3.37028,8.71012 5.00882,18.77545 5.00882,18.77545z" fill="none" stroke="#000000" stroke-width="1.5"/></g><g stroke-linecap="butt"><path d="M234.89451,207.1274c-1.62005,-0.15473 -6.15817,-5.35033 -6.7506,-7.62407c-0.78038,-2.99504 2.41109,-8.27734 2.41109,-8.27734c0,0 1.4853,-4.40415 3.78475,-7.84736c1.66962,-2.5001 4.01753,-4.22117 5.32991,-4.70282c0.69336,-0.25447 2.44511,0.2523 4.50528,0.47863c3.34992,0.36803 7.55322,0.35919 9.84895,-0.05435c3.27411,-0.58979 6.28917,-1.40315 9.17732,-2.67228c2.17165,-0.95428 4.72408,-2.30359 6.91097,-2.88671c0.25088,-0.06689 8.37816,-0.12328 10.48438,8.59031c0.56869,2.35272 0.25562,5.94168 -1.93461,8.09812c-1.5706,1.54636 -4.1781,3.47066 -7.63626,4.76235c-5.23798,1.95648 -11.48329,2.91742 -15.34008,3.54142c-2.23297,0.36128 -3.64808,0.77494 -3.64808,0.77494c0,0 -1.58816,1.34257 -3.04234,2.25053c-1.79463,1.12052 -4.07817,2.28699 -4.23397,2.36011c-4.71346,2.21214 -7.8964,3.39668 -9.86669,3.20851z" fill="#1b1f25" stroke="#000000" stroke-width="1.5"/><path d="M231.23515,191.03336c0,0 2.15455,-9.38191 8.50851,-11.87134c0.77969,-0.30547 13.27072,1.04738 14.35918,0.73193c1.83613,-0.53212 6.89381,-1.33551 11.23629,-3.55707c1.61465,-0.82604 4.13799,-2.38051 4.89466,-2.24419c2.51082,0.45236 5.9737,1.32577 7.86161,3.94488c1.27622,1.7705 1.89444,3.90855 1.98757,5.66878c0.13928,2.6331 -0.70076,4.59281 -0.70076,4.59281c0,0 -0.92085,-4.82264 -1.38664,-6.5825c-0.3146,-1.18858 -1.13716,-2.95285 -1.13716,-2.95285c0,0 -19.03726,7.96061 -27.3654,10.20391c-0.12554,0.03381 -7.16192,-3.88044 -10.5457,-3.4736c-3.70998,0.44607 -7.71213,5.53921 -7.71213,5.53921z" fill="#2b263c" stroke="none" stroke-width="0"/><path d="M233.89976,205.71812c0,0 -5.40955,-6.09081 -6.47959,-7.45791c-0.39691,-0.50711 -0.69991,-1.12127 -0.69991,-1.12127l2.12735,-7.06779c0,0 1.28559,-4.04797 2.20852,-2.99058c0.12134,0.13902 -0.5919,1.7277 -0.7137,2.45027c-0.06185,0.36694 -0.24517,0.89556 -0.21931,1.38856c0.04255,0.8116 0.33584,1.55789 0.33584,1.55789c0,0 0.82395,-1.76581 0.91642,-1.56886c1.38384,2.94716 4.1336,14.27431 4.1336,14.27431z" fill="#1b1f25" stroke="none" stroke-width="0"/><path d="M229.71356,189.14319c0,0 -0.70029,-4.21707 2.27685,-7.9373c1.03681,-1.29559 3.04771,-2.64225 4.74543,-3.53946c1.55927,-0.82405 2.85598,-1.25341 2.85598,-1.25341c0,0 -4.65359,3.3143 -6.56243,6.32225c-1.32627,2.08995 -2.02202,6.28042 -2.02202,6.28042z" fill="#000000" stroke="none" stroke-width="0"/></g><g><g><path d="M308.93187,134.24409c-7.03625,2.75464 -12.53104,0.82509 -15.57999,-6.00635c-2.38462,-5.34294 1.11218,-13.71275 8.14844,-16.46739c7.03626,-2.75467 13.9277,-0.2091 16.65491,6.75703c0.42649,1.08937 0.49678,2.22131 0.57063,3.25455c0.39836,5.57391 -3.85806,10.13828 -9.79397,12.46216z" fill="#485e84" stroke="#000000" stroke-width="2" stroke-linecap="butt"/><path d="M296.46024,116.47707c0,0 0.84206,2.75709 1.80928,3.02389c9.27785,2.55928 15.99917,0.48706 18.16991,-0.36796c0.4932,-0.19425 0.58579,-0.74896 0.58579,-0.74896c0,0 0.48734,0.93983 0.69923,2.29627c0.22548,1.44336 0.16147,3.34968 -0.36444,4.79627c-0.60075,1.65241 -2.99032,5.07664 -2.99032,5.07664l-9.05391,5.30185c0,0 -6.3827,-2.1568 -7.22819,-2.83748c-0.82829,-0.66683 -1.61715,-1.69349 -2.49984,-2.7513c-1.37049,-1.6424 -2.13013,-3.78528 -2.21025,-5.2255c-0.10225,-1.83805 0.526,-4.08784 1.35063,-5.81203c0.76746,-1.60468 1.73215,-2.75163 1.73215,-2.75163z" fill="#343545" stroke="none" stroke-width="0" stroke-linecap="butt"/><path d="M302.00164,127.38973c0,0 -2.48322,-3.77511 -2.29587,-6.35042c0.23717,-3.26008 2.49573,-9.34823 2.49573,-9.34823" fill="none" stroke="#000000" stroke-width="1" stroke-linecap="round"/><path d="M316.13398,115.60885c0,0 0.57317,3.53509 0.40061,5.68071c-0.17419,2.1661 -2.24637,6.56194 -2.24637,6.56194" fill="none" stroke="#000000" stroke-width="1" stroke-linecap="round"/><path d="M297.65517,130.75103c0,0 -2.60689,-3.83703 -2.27693,-6.61725c0.50631,-4.26615 2.29633,-9.79178 2.29633,-9.79178" fill="none" stroke="#000000" stroke-width="1" stroke-linecap="round"/><path d="M293.02371,124.65636c0,0 4.47017,-7.42548 13.17166,-8.07717c9.5314,-0.71384 12.5276,7.38832 12.5276,7.38832" fill="none" stroke="#000000" stroke-width="1" stroke-linecap="round"/><path d="M294.15448,129.29033c0,0 5.79193,-6.77755 13.46906,-7.36912c6.30363,-0.48573 9.46581,6.10283 9.46581,6.10283" fill="none" stroke="#000000" stroke-width="1" stroke-linecap="round"/><path d="M309.06681,113.25964c-0.59306,-0.10623 -1.00565,-0.57295 -0.92155,-1.04244c0.08408,-0.46951 0.47849,-0.41061 1.07154,-0.30439c0.59306,0.10623 1.16018,0.21957 1.07609,0.68906c-0.08408,0.46951 -0.63303,0.764 -1.22608,0.65777z" fill="#8fbbbe" stroke="none" stroke-width="0" stroke-linecap="butt"/><path d="M312.53028,114.38372c-0.28052,0.10982 -0.64145,-0.14225 -0.80619,-0.56302c-0.16474,-0.42078 -0.1739,-0.61532 0.10662,-0.72514c0.28052,-0.10982 0.72611,0.1091 0.89083,0.52988c0.16474,0.42078 0.08923,0.64845 -0.19128,0.75828z" fill="#8fbbbe" stroke="none" stroke-width="0" stroke-linecap="butt"/><path d="M305.65055,112.68053c-0.43594,0.11896 -0.8536,-0.02019 -0.93291,-0.3108c-0.07931,-0.2906 0.30921,-0.36869 0.74513,-0.48765c0.43594,-0.11896 0.75418,-0.23378 0.83349,0.05684c0.07931,0.2906 -0.20979,0.62266 -0.64571,0.74162z" fill="#8fbbbe" stroke="none" stroke-width="0" stroke-linecap="butt"/><path d="M295.11337,118.27352c0,0 3.90702,-3.31556 7.50349,-4.52743c2.03902,-0.68706 4.0733,-0.58871 5.61475,-0.49687c1.36319,0.08121 4.31066,1.54922 6.44977,2.90763c1.57492,1.00011 2.64929,2.00994 2.64929,2.00994" fill="none" stroke="#000000" stroke-width="0.5" stroke-linecap="round"/><path d="M310.5973,110.9425c0,0 1.73934,5.00131 1.63217,7.70635c-0.09029,2.27907 -2.06403,7.39974 -2.06403,7.39974" fill="none" stroke="#000000" stroke-width="1" stroke-linecap="round"/><path d="M307.24294,126.31408c0,0 -1.53905,-4.58986 -1.69481,-6.84941c-0.27347,-3.96735 1.72536,-8.78293 1.72536,-8.78293" fill="none" stroke="#000000" stroke-width="1" stroke-linecap="round"/></g><g stroke-linecap="butt"><path d="M292.29673,132.90769c1.79865,-0.27775 3.23066,-0.532 3.36428,-0.55713c0.2799,-0.05263 2.52942,-1.95624 5.1108,-3.71578c2.81164,-1.91649 5.89182,-3.51682 6.19869,-3.57406c1.43959,-0.26851 3.7379,1.10363 5.63196,1.96791c2.83009,1.29139 5.77905,2.49048 6.07084,3.23579c0.37146,0.94883 -1.26389,2.71585 -1.29457,4.12221c-0.02514,1.15272 1.45313,4.55009 1.25158,5.87716c-0.14754,0.97134 -0.85618,1.84248 -1.10746,2.81988c-0.26133,1.01657 0.81007,2.41327 0.47301,3.41165c-0.34775,1.03005 -0.89131,2.08625 -1.34285,3.04986c-0.59118,1.26165 0.4374,4.40025 -0.23526,5.4862c-2.3561,3.80371 -6.61356,4.38651 -7.43005,4.28646c-4.59085,-0.56254 -8.53808,-2.19345 -10.61594,-2.97426c-1.45103,-0.54526 -2.74697,-2.23855 -2.73384,-4.02199c0.0109,-1.47937 0.87323,-2.70452 0.94144,-3.92219c0.06651,-1.1874 -1.02643,-1.99616 -1.02643,-1.99616c0,0 -1.26271,2.32079 -3.28151,2.97437c-1.76333,0.57089 -4.08855,0.18669 -4.33622,-1.84822c-0.22939,-1.88468 2.53443,-5.13549 2.39748,-6.75059c-0.1727,-2.03714 -2.29354,-4.04789 -2.12098,-5.37278c0.20369,-1.56387 3.41876,-2.39545 4.08503,-2.49834z" fill="#d396fc" stroke="#000000" stroke-width="1.5"/><path d="M300.30894,130.29785c0,0 5.98379,-4.55464 7.25032,-4.53449c1.39316,0.02217 4.62854,1.83509 6.41771,2.76233c0.66526,0.34477 1.18013,0.5477 1.18013,0.5477c0,0 -0.48138,1.08783 -1.30477,2.05831c-0.78848,0.92934 -1.91014,1.74251 -2.35763,1.76813c-0.90324,0.05171 -2.48742,-2.18015 -4.42198,-2.66947c-0.48043,-0.12152 -4.52588,2.01111 -5.00981,1.90839c-1.13987,-0.24196 -1.43739,-0.84824 -1.62435,-1.30284c-0.16613,-0.40398 -0.12962,-0.53805 -0.12962,-0.53805z" fill="#ffc6ef" stroke="none" stroke-width="0"/><path d="M300.55358,140.64822c0,0 7.31712,-0.51104 9.43166,-1.00175c1.16757,-0.27094 2.6078,-1.66145 2.6078,-1.66145c0,0 2.31024,2.30249 0.88372,3.29621c-1.21132,0.84381 -7.15259,3.26444 -10.33356,2.82977c-2.24184,-0.30634 -2.58963,-3.46278 -2.58963,-3.46278z" fill="#ffc6ef" stroke="none" stroke-width="0"/><path d="M299.81479,146.99037c0,0 7.10329,-0.2983 9.46155,-0.87022c1.91993,-0.46562 3.64526,-2.30846 3.64526,-2.30846c0,0 1.36702,2.20859 0.89026,3.53965c-0.35189,0.9824 -1.25206,2.28945 -2.57908,2.85122c-1.14982,0.48676 -2.41942,0.11635 -3.84157,0.22669c-2.25332,0.17484 -4.62697,0.47139 -5.96284,0.07085c-0.72428,-0.21717 -1.61358,-3.50971 -1.61358,-3.50971z" fill="#ffc6ef" stroke="none" stroke-width="0"/><path d="M299.70234,134.73331c0,0 8.73201,-0.43885 11.30236,-0.89859c1.37288,-0.24555 2.93087,-1.64718 2.93087,-1.64718c0,0 0.42955,3.97761 -0.09934,4.29404c-0.80503,0.48165 -2.18487,1.08576 -3.7711,1.57754c-3.72728,1.15556 -8.44422,2.07359 -8.44422,2.07359c0,0 -1.5273,-3.06628 -1.84416,-3.958c-0.32257,-0.9078 -0.07442,-1.44143 -0.07442,-1.44143z" fill="#ffc6ef" stroke="none" stroke-width="0"/><path d="M294.54803,133.05111c0,0 10.93993,-6.95606 11.79986,-7.27303c0.30342,-0.11186 -2.28955,1.61862 -4.44199,3.25722c-1.40683,1.07099 -2.6655,2.28616 -2.6655,2.28616c0,0 -2.18729,1.25 -2.53919,2.09345c-0.11483,0.27527 0.04694,0.46507 0.45353,0.57225c0.88901,0.23431 4.37446,-0.50531 6.87108,-0.90567c0.90316,-0.14483 1.6503,-0.15 1.96224,-0.11499c0.39393,0.04423 -0.42359,-0.7871 -0.42359,-0.7871c0,0 2.15586,-0.14478 3.03754,0.01596c0.63514,0.11578 1.29099,0.88764 1.81188,0.99395c0.62462,0.12746 2.09436,-0.8448 3.09588,-1.06849c0.61885,-0.13822 0.84162,0.26133 0.75657,0.42143c-0.11237,0.21152 -1.82595,1.89978 -2.95604,2.07558c-3.53034,0.54917 -9.98607,0.13193 -12.9212,1.04058c-1.71653,0.5314 -2.7199,2.59037 -2.72834,2.88865c-0.02188,0.77182 0.25136,1.73 0.71743,2.28797c0.0339,0.0406 0.85631,-1.17343 2.15152,-1.42862c1.28479,-0.25314 3.05987,-0.67228 5.06035,-0.72335c2.25979,-0.05769 4.77062,0.26083 6.50336,0.07207c0.32412,-0.0353 2.70942,-1.19024 2.72904,-1.1451c0.10774,0.24797 -1.99136,2.96849 -3.19618,2.90938c-1.11146,-0.05452 -2.75084,0.20209 -4.51381,0.27485c-1.78018,0.07346 -3.63875,0.25439 -4.93256,0.34328c-1.05752,0.07265 -2.03721,0.6224 -2.0475,0.63386c-0.40604,0.45258 -0.75088,1.15174 -1.1585,1.87656c-0.35263,0.62706 -0.62554,1.22371 -0.67979,1.56116c-0.14764,0.91843 0.71178,1.49391 0.71178,1.49391c0,0 0.725,-1.11414 1.91039,-1.36326c0.93752,-0.19703 3.27574,-0.19521 5.7235,-0.18399c0.49095,0.00225 1.0796,0.00404 1.58332,0.04711c1.26436,0.10814 2.44231,0.30073 3.49229,0.12347c1.15779,-0.19545 2.18626,-1.33761 2.91509,-1.84592c0.43244,-0.3016 0.73422,-0.44442 0.73422,-0.44442c0,0 -0.42166,1.25995 -1.2924,2.15369c-0.77266,0.79307 -1.8527,1.46881 -2.60759,1.70848c-2.26924,0.72051 -7.3676,-0.35589 -10.22169,0.91495c-1.23594,0.55033 -3.38959,4.23287 -3.38959,4.23287c0,0 0.5314,-4.31287 0.03844,-4.77022c-0.42048,-0.39012 -4.87467,2.41677 -4.87467,2.41677c0,0 1.13428,-1.37273 2.09382,-2.45654c0.64986,-0.73402 1.25545,-1.24387 1.23639,-1.45719c-0.04274,-0.47838 -0.06598,-1.00182 0.00072,-1.25957c0.1711,-0.66124 1.07384,-1.91033 1.07384,-1.91033c0,0 -0.66025,-1.27085 -1.04051,-2.57745c-0.26468,-0.90943 -0.30644,-1.87036 -0.26102,-2.289c0.11934,-1.10004 1.4923,-1.99262 1.4923,-1.99262c0,0 -0.44096,-0.87009 -0.61872,-1.32061c-0.17716,-0.44907 -0.44599,-1.37818 -0.44599,-1.37818z" fill="#000000" stroke="none" stroke-width="0"/><path d="M315.71292,129.24629c0,0 2.1224,0.68319 2.33751,1.23269c0.20408,0.52128 -1.47548,3.21358 -1.47548,3.21358c0,0 -0.59758,-1.79388 -0.71187,-2.5611c-0.10474,-0.70313 -0.15016,-1.88515 -0.15016,-1.88515z" fill="#ffc6ef" stroke="none" stroke-width="0"/><path d="M316.43879,133.84349c0,0 0.73382,3.30284 1.02137,4.45153c0.18381,0.73432 0.46675,2.0927 0.46675,2.0927c0,0 -1.72095,-1.46378 -2.41421,-2.20252c-0.4904,-0.52257 -0.98067,-2.74236 -0.77193,-3.73335c0.18194,-0.86389 1.69802,-0.60837 1.69802,-0.60837z" fill="#ffc6ef" stroke="none" stroke-width="0"/><path d="M314.04404,142.68883c0.30894,-0.12094 1.01419,-0.16571 1.50401,-0.23c0.44607,-0.05856 1.35223,-0.2048 1.35223,-0.2048c0,0 -0.32094,0.49278 -0.21986,0.96293c0.15372,0.71491 0.64747,2.8724 0.64747,2.8724c0,0 -1.19734,0.72072 -2.09558,-0.19997c-0.74061,-0.75912 -1.41075,-3.11345 -1.18827,-3.20055z" fill="#ffc6ef" stroke="none" stroke-width="0"/><path d="M313.67783,149.00891c0.61861,-0.19019 2.48366,-0.41271 2.48366,-0.41271c0,0 -0.36367,0.65277 -0.3647,1.34737c-0.0009,0.60364 -0.00868,1.27503 -0.03464,1.67607c-0.04132,0.63828 0.16089,1.85368 0.16089,1.85368c0,0 -1.83154,-1.16321 -2.37535,-2.31164c-0.46187,-0.9754 -0.1129,-2.07802 0.13015,-2.15275z" fill="#ffc6ef" stroke="none" stroke-width="0"/></g><g stroke="#000000" stroke-width="1.5" stroke-linecap="butt"><path d="M306.01647,152.68364c1.80169,-0.21757 3.04647,1.27531 3.7313,1.17942c0.72717,-0.10182 1.63583,-0.19912 1.69946,-0.10195c0.0605,0.09238 -1.51498,0.3696 -1.30655,0.90202c0.20523,0.52422 0.39261,2.19634 0.20952,3.85373c-0.30886,2.79618 -0.79304,6.62561 -0.79304,6.62561c0,0 -1.33594,-0.04915 -3.78705,0.40618c-1.54673,0.28733 -4.58316,-0.83915 -4.58316,-0.83915c0,0 -1.69086,-7.6785 -1.27207,-8.97501c0.63123,-1.95419 4.91975,-2.90815 6.1016,-3.05085z" fill="#485e84"/><path d="M301.8088,165.04756c-0.29906,0.01755 -0.49566,-0.23683 -0.3079,-0.61949c0.45847,-0.93441 1.56971,-2.53745 3.78772,-2.50281c1.60918,0.02513 2.72286,1.08087 3.32847,1.86229c0.35832,0.46232 0.27581,0.84407 -0.15164,0.86918c0,0 -5.80568,0.34087 -6.65664,0.39084z" fill="#343545"/></g></g></g></g></svg>